# Blender 5.0.0
# www.blender.org
mtllib BaguetteBread.mtl
o BaguetteBread_cell
v -0.743524 -0.203331 0.167792
v -0.794519 -0.251330 0.000000
v -0.845513 -0.203330 -0.167792
v -0.307579 -0.091301 0.314871
v -0.349642 -0.239029 0.194601
v -0.417703 -0.295457 0.000000
v -0.485764 -0.239029 -0.194601
v -0.527827 -0.091301 -0.314871
v 0.000000 -0.310661 0.000000
v -0.050260 -0.251330 -0.210862
v -0.853628 -0.170973 -0.194493
v -0.752006 -0.082547 -0.287023
v -0.652502 -0.000744 -0.299384
v -0.609050 -0.000902 0.282536
v -0.612555 -0.000763 -0.304346
v -0.279263 -0.001079 0.316787
v -0.307579 -0.001064 0.314871
v -0.527827 -0.000906 -0.314871
v -0.241875 -0.001139 0.319316
v -0.265853 -0.001339 -0.330308
v -0.871670 -0.224601 0.032872
v -0.844419 -0.187304 0.156153
v -0.890250 -0.206198 -0.106976
v -0.878428 -0.232045 0.000000
v -0.885219 -0.200012 -0.140933
v -0.881092 -0.195355 -0.162000
v -0.823967 -0.169571 0.176609
v -0.713923 -0.085302 0.265191
v -0.704336 -0.077924 0.272316
v -0.247281 -0.017818 -0.331403
v -0.039436 -0.182259 0.261974
v -0.076686 -0.148440 0.287440
v -0.137452 -0.093357 0.326381
v -0.065020 -0.177517 -0.272790
v -0.160270 -0.095169 -0.336530
v 0.077721 -0.296306 -0.039738
v 0.018381 -0.249373 -0.209598
v 0.035912 -0.250827 0.210330
v 0.037620 -0.252522 0.205167
v 0.043908 -0.258828 0.184215
v 0.091450 -0.307332 0.000000
v -0.752006 -0.082547 -0.287023
v -0.652502 -0.000744 -0.299384
v -0.853628 -0.170973 -0.194493
v 0.035912 -0.250827 0.210330
v 0.037620 -0.252522 0.205167
v -0.844419 -0.187304 0.156153
v -0.823967 -0.169571 0.176609
v -0.609050 -0.000902 0.282536
v -0.307579 -0.001064 0.314871
v -0.279263 -0.001079 0.316787
v -0.612555 -0.000763 -0.304346
v -0.527827 -0.000906 -0.314871
v -0.265853 -0.001339 -0.330308
v -0.241875 -0.001139 0.319316
v -0.890250 -0.206198 -0.106976
v -0.878428 -0.232045 0.000000
v -0.871670 -0.224601 0.032872
v -0.704336 -0.077924 0.272316
v -0.881092 -0.195355 -0.162000
v -0.885219 -0.200012 -0.140933
v -0.713923 -0.085302 0.265191
v -0.137452 -0.093357 0.326381
v -0.076686 -0.148440 0.287440
v -0.039436 -0.182259 0.261974
v -0.247281 -0.017818 -0.331403
v 0.077721 -0.296306 -0.039738
v 0.018381 -0.249373 -0.209598
v -0.065020 -0.177517 -0.272790
v -0.160270 -0.095169 -0.336530
v 0.091450 -0.307332 0.000000
v 0.043908 -0.258828 0.184215
vn 0.0005 1.0000 0.0002
vn 0.0016 1.0000 -0.0004
vn -0.9682 0.1967 0.1545
vn 0.6627 0.7485 -0.0247
vn 0.6634 0.7479 -0.0251
vn 0.6671 0.7446 -0.0239
vn -0.1708 -0.6092 0.7744
vn -0.1886 -0.8510 0.4901
vn -0.1470 -0.8093 0.5687
vn -0.1181 -0.6123 0.7817
vn -0.2129 -0.9766 0.0301
vn -0.1610 -0.9860 0.0437
vn -0.1876 -0.9301 0.3159
vn -0.2447 -0.8831 -0.4004
vn -0.1860 -0.8438 -0.5034
vn -0.2203 -0.9530 -0.2079
vn -0.1577 -0.6506 -0.7429
vn -0.1066 -0.0000 0.9943
vn -0.1109 -0.4899 0.8647
vn -0.0869 -0.3297 0.9401
vn -0.0871 -0.0000 0.9962
vn -0.0784 -0.8238 0.5615
vn -0.0762 -0.9968 0.0224
vn -0.0844 -0.8444 -0.5289
vn -0.0954 -0.3447 -0.9339
vn -0.1262 -0.5159 -0.8473
vn -0.1233 -0.0000 -0.9924
vn -0.0911 -0.0000 -0.9958
vn -0.0613 -0.4983 0.8648
vn -0.0675 -0.0000 0.9977
vn -0.0454 -0.8879 0.4578
vn -0.0560 -0.6272 0.7768
vn -0.0014 -1.0000 0.0017
vn -0.0268 -0.9592 0.2815
vn -0.0379 -0.9579 0.2846
vn -0.0055 -0.8388 -0.5445
vn -0.0538 -0.5121 -0.8573
vn -0.0344 -0.6427 -0.7653
vn -0.0588 -0.0000 -0.9983
vn 0.0359 -0.9994 0.0005
vn 0.0349 -0.8934 -0.4478
vn 0.0341 -0.9600 -0.2778
vn -0.6322 0.7733 0.0478
vt 0.138712 0.138712
vt 0.924528 0.097733
vt 1.000000 0.095316
vt 1.000000 0.888535
vt 0.882151 0.882151
vt 0.902222 0.670998
vt 0.888535 0.888535
vt 0.095317 0.095317
vt 0.092184 0.000000
vt 0.922671 0.000000
vt 0.499842 0.263744
vt 0.457811 0.227697
vt 0.296512 0.000000
vt 0.636618 0.000000
vt 0.574770 0.491904
vt 0.320834 0.188356
vt 0.164929 0.000000
vt 0.924019 0.000000
vt 1.000000 0.077329
vt 1.000000 0.907816
vt 0.767966 0.216907
vt 0.848869 0.449209
vt 0.930485 0.711031
vt 0.924019 0.924019
vt 0.164929 0.164929
vt 0.230898 0.000000
vt 0.550669 0.000000
vt 0.550668 0.550668
vt 0.231348 0.230718
vt 0.242778 0.234205
vt 0.286984 0.250124
vt 0.627232 0.420320
vt 0.277701 0.512366
vt 0.280071 0.514669
vt 0.267928 0.507241
vt 0.357353 0.445078
vt 0.039237 0.219745
vt 0.053848 0.219745
vt 0.062727 0.326835
vt 0.045158 0.319407
vt 0.041516 0.221599
vt 0.038773 0.116351
vt 0.044968 0.112655
vt 0.039237 0.219745
vt 0.037545 0.145982
vt 0.038580 0.121923
vt 0.292443 0.738463
vt 0.267928 0.721421
vt 0.273971 0.717725
vt 0.073827 0.980080
vt 0.015471 0.996672
vt 0.005336 0.927585
vt 0.073704 0.927585
vt 0.067881 0.388998
vt 0.131313 0.343945
vt 0.138638 0.420705
vt 0.069551 0.393545
vt 0.119462 0.219745
vt 0.107611 0.095545
vt 0.100286 0.018785
vt 0.043555 0.095613
vt 0.061250 0.036558
vt 0.189147 0.487108
vt 0.189039 0.501862
vt 0.120551 0.501862
vt 0.127183 0.462826
vt 0.189162 0.480153
vt 0.073704 0.927585
vt 0.003779 0.897961
vt 0.073646 0.916144
vt 0.073692 0.922655
vt 0.198451 0.353952
vt 0.181176 0.559474
vt 0.198473 -0.412332
vt 0.168262 0.428051
vt 0.198462 0.353953
vt 0.192196 0.219745
vt 0.199842 0.337317
vt 0.198621 0.362397
vt 0.183445 0.085166
vt 0.164288 0.004961
vt 0.180875 0.045642
vt 0.117620 0.565864
vt 0.189039 0.501862
vt 0.188710 0.547479
vt 0.176227 0.550713
vt 0.208120 0.219745
vt 0.199842 0.337317
vt 0.208120 0.219745
vt 0.195397 0.085973
vt 0.203596 -0.028690
vt 0.180875 0.045642
vt 0.195397 0.085973
vt 0.256390 0.004968
vt 0.800605 0.706996
vt 0.734739 0.680050
vt 0.636618 0.636618
vt 0.296512 0.296512
vt 0.354851 0.274043
vt 0.710349 0.160895
vt 0.742598 0.151795
vt 1.000000 0.138712
vt 1.000000 0.882151
vt 0.642615 0.509182
s 0
usemtl lambert2SG
f 49/1/1 50/2/1 51/3/1 52/4/1 13/5/1
f 53/6/2 52/7/2 51/8/2 55/9/2 54/10/2
f 57/11/3 58/12/3 47/13/3 56/14/3
f 63/15/4 64/16/4 65/17/4 66/18/4 54/19/4 55/20/4
f 68/21/5 69/22/5 70/23/5 66/24/5 65/25/5 45/26/5 67/27/5
f 67/28/6 45/29/6 46/30/6 72/31/6 71/32/6
s 1
f 48/33/7 22/34/8 1/35/9 62/36/10
f 24/37/11 2/38/12 1/39/9 22/40/8 21/41/13
f 60/42/14 3/43/15 2/38/12 24/44/11 23/45/16 61/46/16
f 44/47/17 3/48/15 60/49/14
f 14/50/18 59/51/19 4/52/20 17/53/21
f 62/54/10 1/39/9 5/55/22 4/56/20 59/57/19
f 5/55/22 1/39/9 2/38/12 6/58/23
f 6/58/23 2/38/12 3/43/15 7/59/24
f 8/60/25 7/59/24 3/43/15 44/61/17 42/62/26
f 15/63/27 18/64/28 8/65/25 42/66/26 43/67/27
f 17/68/21 4/52/20 33/69/29 19/70/30 16/71/30
f 4/56/20 5/55/22 38/72/31 31/73/32 32/74/32 33/75/29
f 38/76/31 5/55/22 6/58/23 9/77/33 40/78/34 39/79/35
f 9/77/33 6/58/23 7/59/24 10/80/36
f 10/80/36 7/59/24 8/60/25 35/81/37 34/82/38
f 35/83/37 8/65/25 18/84/28 20/85/39 30/86/39
f 9/77/33 41/87/40 40/88/34
f 41/89/40 9/77/33 10/80/36 37/90/41 36/91/42
f 10/80/36 34/92/38 37/93/41
s 0
f 11/94/43 26/95/43 25/96/43 56/97/43 47/98/43 27/99/43 28/100/43 29/101/43 49/102/43 13/103/43 12/104/43
o BaguetteBread_cell.001
v 0.050259 -0.251330 0.210862
v -0.081320 -0.096000 -0.341182
v -0.081320 0.096000 -0.341182
v -0.050260 0.251330 -0.210862
v 0.000000 0.310661 0.000000
v 0.026606 -0.114159 0.322572
v 0.041057 -0.145970 0.297258
v 0.018330 -0.095239 0.336920
v 0.000719 0.095026 0.335729
v 0.041336 0.247340 0.213455
v 0.047333 0.254784 0.198585
v 0.230756 0.243320 -0.205688
v 0.236237 0.231567 -0.215356
v 0.132024 0.305855 0.000000
v -0.261117 0.301157 0.000000
v -0.253890 0.253591 0.158648
v -0.267227 0.094044 -0.330227
v -0.266947 0.245210 -0.202771
v -0.243151 0.092079 0.319230
v -0.240421 0.000313 0.319415
v -0.244798 0.119377 0.296623
v -0.264477 0.000068 -0.330389
v -0.252068 0.242030 0.198569
v -0.215393 -0.043726 -0.333282
v -0.153073 -0.077253 0.325324
v 0.049941 -0.263262 0.167169
v 0.090590 -0.304696 0.009825
v -0.075051 -0.147897 0.287996
v -0.134858 -0.093388 0.326556
v 0.044709 -0.257882 0.187577
v 0.037824 -0.250947 0.210356
v 0.089949 -0.250121 0.210081
v 0.189330 -0.303770 0.000000
v 0.202745 -0.294069 -0.031761
v 0.062029 -0.192470 0.260245
v 0.300796 0.091920 -0.330019
v 0.317703 -0.091739 -0.329525
v 0.275691 -0.242039 -0.204860
v -0.065505 -0.175091 -0.274825
v -0.157617 -0.095197 -0.336686
v 0.093131 -0.307271 0.000000
v 0.020354 -0.249317 -0.209562
v 0.000719 0.095026 0.335729
v 0.041336 0.247340 0.213455
v 0.018330 -0.095239 0.336920
v 0.026606 -0.114159 0.322572
v 0.041057 -0.145970 0.297258
v 0.230756 0.243320 -0.205688
v 0.236237 0.231567 -0.215356
v 0.132024 0.305855 0.000000
v 0.047333 0.254784 0.198585
v -0.261117 0.301157 0.000000
v -0.253890 0.253591 0.158648
v -0.266947 0.245210 -0.202771
v -0.267227 0.094044 -0.330227
v 0.044709 -0.257882 0.187577
v 0.037824 -0.250947 0.210356
v -0.252068 0.242030 0.198569
v -0.264477 0.000068 -0.330389
v -0.243151 0.092079 0.319230
v -0.240421 0.000313 0.319415
v -0.244798 0.119377 0.296623
v -0.153073 -0.077253 0.325324
v -0.215393 -0.043726 -0.333282
v 0.049941 -0.263262 0.167169
v 0.090590 -0.304696 0.009825
v -0.075051 -0.147897 0.287996
v -0.134858 -0.093388 0.326556
v 0.089949 -0.250121 0.210081
v 0.189330 -0.303770 0.000000
v 0.202745 -0.294069 -0.031761
v 0.300796 0.091920 -0.330019
v 0.317703 -0.091739 -0.329525
v 0.062029 -0.192470 0.260245
v 0.275691 -0.242039 -0.204860
v 0.093131 -0.307271 0.000000
v 0.020354 -0.249317 -0.209562
v -0.157617 -0.095197 -0.336686
v -0.065505 -0.175091 -0.274825
vn 0.9082 0.0866 0.4096
vn -0.6647 -0.7467 0.0249
vn -0.6639 -0.7474 0.0269
vn 0.9088 0.0822 0.4090
vn 0.9088 0.0848 0.4085
vn -0.6642 -0.7472 0.0240
vn -0.0559 0.6289 0.7754
vn -0.0652 0.3437 0.9368
vn -0.0653 0.3425 0.9372
vn -0.0480 0.8542 0.5177
vn -0.0490 0.8372 0.5447
vn -0.0637 -0.3749 0.9249
vn -0.0675 -0.0000 0.9977
vn -0.0670 -0.1741 0.9825
vn -0.0401 -0.6332 0.7729
vn -0.0542 -0.6303 0.7745
vn -0.0515 -0.7834 0.6194
vn -0.0060 -0.8377 0.5461
vn 0.0229 -0.9638 0.2656
vn 0.0153 -0.6427 -0.7660
vn -0.0598 -0.1781 -0.9822
vn -0.0155 -0.3426 -0.9394
vn -0.0588 -0.0000 -0.9983
vn -0.0573 0.3490 -0.9354
vn -0.0148 0.3417 -0.9397
vn -0.0061 0.8398 -0.5428
vn -0.0445 0.8426 -0.5367
vn -0.0388 0.9992 0.0068
vn -0.0018 1.0000 0.0035
vn -0.0386 0.9565 0.2893
vn -0.0242 0.9584 0.2843
vn 0.0364 -0.8807 0.4723
vn 0.0350 -0.9642 0.2629
vn 0.0356 -0.9993 -0.0128
vn 0.0353 -0.9962 -0.0799
vn 0.0329 -0.7849 -0.6187
vn 0.0331 -0.8027 -0.5955
vn 0.0335 -0.9605 -0.2762
vn 0.0318 -0.3266 -0.9446
vn 0.0316 0.2894 -0.9567
vn 0.0329 0.7926 -0.6089
vn 0.0306 0.6408 -0.7671
vn 0.0352 0.9962 -0.0793
vn -0.9989 -0.0295 0.0369
vt 0.802816 0.575541
vt 0.538520 0.467476
vt 0.208499 0.138755
vt 0.175694 0.087574
vt 0.120539 0.000000
vt 0.775825 0.000000
vt 0.796201 0.032758
vt 0.904496 0.404239
vt 0.815742 0.569454
vt 0.908091 0.908091
vt 0.077276 0.077276
vt 0.121200 0.000000
vt 0.843818 0.000000
vt 1.000000 0.270688
vt 1.000000 0.785320
vt 0.789263 0.707877
vt 0.785320 0.785320
vt 0.270688 0.270688
vt 0.337025 0.250834
vt 0.411072 0.232976
vt 0.663754 0.539982
vt 0.823779 0.392986
vt 1.000000 0.459436
vt 0.988857 0.761498
vt 0.689724 0.077925
vt 1.000000 0.224175
vt 1.000000 0.879461
vt 0.897874 0.832254
vt 0.769586 0.769586
vt 0.459436 0.459436
vt 0.354962 0.238269
vt 0.435938 0.078823
vt 0.972174 0.149022
vt 1.000000 0.156182
vt 1.000000 0.878800
vt 0.850301 0.736124
vt 0.759356 0.514805
vt 0.691276 0.309206
vt 0.539074 -0.049307
vt 0.537442 0.016003
vt 0.579906 0.005472
vt 0.587146 0.085373
vt 0.535889 0.093013
vt 0.002353 0.870835
vt 0.146506 0.873902
vt 0.144274 0.916366
vt 0.074748 0.915891
vt 0.015981 0.900681
vt 0.003755 0.897510
vt 0.202997 0.385842
vt 0.198822 0.431178
vt 0.195852 0.466209
vt 0.195388 0.434778
vt 0.168713 0.428163
vt 0.202608 -0.571952
vt 0.198783 0.354001
vt 0.200948 0.354324
vt 0.199982 0.339463
vt 0.198920 0.361366
vt 0.180790 0.044343
vt 0.164750 0.004862
vt 0.178036 0.001992
vt 0.189776 0.547718
vt 0.260978 0.547240
vt 0.262460 0.579611
vt 0.116991 0.579611
vt 0.117599 0.566326
vt 0.156596 0.556265
vt 0.571030 0.354324
vt 0.565621 0.437498
vt 0.533249 0.430506
vt 0.533298 0.349160
vt 0.534313 0.219745
vt 0.579781 0.219745
vt 0.537925 -0.099697
vt 0.587146 0.085373
vt 0.588023 0.093001
vt 0.534313 0.219745
vt 0.202997 0.385842
vt 0.207746 0.353556
vt 0.199982 0.339463
vt 0.200874 0.324608
vt 0.207933 0.222219
vt 0.208413 0.219745
vt 0.225164 0.219745
vt 0.207859 0.353826
vt 0.195741 0.085996
vt 0.240202 0.088997
vt 0.227926 0.243990
vt 0.247518 0.009432
vt 0.240202 0.088997
vt 0.195741 0.085996
vt 0.180790 0.044343
vt 0.120219 0.649093
vt 0.259369 0.646149
vt 0.632159 0.430373
vt 0.619963 0.351021
vt 0.621272 0.384296
vt 0.602770 0.219745
vt 0.588023 0.093001
vt 0.817116 0.077549
vt 0.077276 0.000000
vt 0.908091 0.000000
vt 0.908043 0.254667
vt 0.879195 0.330447
vt 0.754077 0.670934
vt 1.000000 0.703059
vt 0.665527 0.500085
vt 0.561344 0.240643
s 0
usemtl lambert2SG
f 116/105/44 115/106/44 117/107/44 118/108/44 119/109/44 121/110/44 120/111/44 122/112/44 123/113/44
f 133/114/45 94/115/45 136/116/45 138/117/45 137/118/45 135/119/45
f 140/120/46 135/121/46 137/122/46 128/123/46 129/124/46 139/125/46
f 142/126/47 143/127/47 141/128/47
f 144/129/48 121/130/48 119/131/48 146/132/48 141/133/48 143/134/48 147/135/48 145/136/48
f 148/137/49 138/138/49 136/139/49 150/140/49 151/141/49 149/142/49
s 1
f 134/143/50 132/144/51 81/145/52 82/146/53 130/147/54
f 80/148/55 81/149/52 132/150/51 92/151/56 97/152/56 101/153/57
f 107/154/58 79/155/59 78/156/59 80/157/55 101/158/57 100/159/59 103/160/60 73/161/61
f 102/162/62 73/161/61 103/163/60
f 111/164/63 112/165/64 74/166/65
f 131/167/66 127/168/67 75/169/68 74/170/65 112/171/64 96/172/66
f 76/173/69 75/174/68 127/175/67 126/176/70
f 124/177/71 77/178/72 76/173/69 126/176/70
f 125/179/73 130/147/54 82/180/53 83/181/74 77/178/72 124/182/71
f 107/183/58 73/161/61 104/184/75
f 102/185/62 98/186/76 99/187/76 113/188/77 105/189/78 104/190/75 73/161/61
f 114/191/79 110/192/80 106/193/81 105/189/78 113/188/77
f 74/166/65 109/194/82 110/195/80 114/196/79 111/197/63
f 109/198/82 74/170/65 75/169/68 108/199/83
f 108/200/83 75/174/68 76/173/69 84/201/84 85/202/85
f 84/201/84 76/173/69 77/178/72 86/203/86
f 77/178/72 83/204/74 86/203/86
s 0
f 89/205/87 94/206/87 133/207/87 91/208/87 93/209/87 95/210/87 88/211/87 87/212/87 90/213/87
o BaguetteBread_cell.002
v -0.349642 0.239029 0.194601
v -0.307579 0.091301 0.314871
v -0.527827 0.091301 -0.314871
v -0.485764 0.239029 -0.194601
v -0.417703 0.295457 0.000000
v -0.608274 0.001215 0.282619
v -0.659622 0.086155 -0.298499
v -0.651269 0.001315 -0.299537
v -0.664396 0.221303 -0.181289
v -0.616235 0.080894 0.281765
v -0.655555 0.267603 0.000000
v -0.637187 0.212968 0.175030
v -0.245178 0.092055 0.319093
v -0.243485 0.034691 0.319207
v -0.246752 0.118504 0.297191
v -0.267489 0.256272 -0.162682
v -0.262909 0.301091 0.000000
v -0.253968 0.241972 0.198491
v -0.242585 0.001444 0.319268
v -0.269372 0.094021 -0.330101
v -0.266874 0.001249 -0.330248
v -0.268686 0.245160 -0.202706
v -0.295459 0.001228 -0.328564
v -0.556590 0.001201 0.288163
v -0.527827 0.001286 -0.314871
v -0.307579 0.001394 0.314871
v -0.659622 0.086155 -0.298499
v -0.664396 0.221303 -0.181289
v -0.651269 0.001315 -0.299537
v -0.655555 0.267603 0.000000
v -0.637187 0.212968 0.175030
v -0.608274 0.001215 0.282619
v -0.616235 0.080894 0.281765
v -0.245178 0.092055 0.319093
v -0.246752 0.118504 0.297191
v -0.243485 0.034691 0.319207
v -0.267489 0.256272 -0.162682
v -0.262909 0.301091 0.000000
v -0.253968 0.241972 0.198491
v -0.269372 0.094021 -0.330101
v -0.268686 0.245160 -0.202706
v -0.242585 0.001444 0.319268
v -0.266874 0.001249 -0.330248
v -0.527827 0.001286 -0.314871
v -0.295459 0.001228 -0.328564
v -0.556590 0.001201 0.288163
v -0.307579 0.001394 0.314871
vn 0.9989 0.0294 -0.0362
vn 0.9989 0.0270 -0.0374
vn -0.0003 -1.0000 -0.0002
vn 0.0007 -1.0000 0.0003
vn -0.1127 0.3461 0.9314
vn -0.0854 0.3279 0.9408
vn -0.0772 0.8221 0.5641
vn -0.1124 0.8257 0.5529
vn -0.0871 -0.0000 0.9962
vn -0.1066 -0.0000 0.9943
vn -0.1293 0.3600 -0.9239
vn -0.0954 0.3440 -0.9341
vn -0.0911 -0.0000 -0.9958
vn -0.1233 -0.0000 -0.9924
vn -0.1221 0.8451 -0.5205
vn -0.0846 0.8439 -0.5297
vn -0.1154 0.9931 0.0231
vn -0.0761 0.9968 0.0233
vn -0.0515 0.6227 0.7808
vn -0.0468 0.8204 0.5699
vn -0.0633 0.3194 0.9455
vn -0.0675 -0.0000 0.9977
vn -0.0577 0.3365 -0.9399
vn -0.0588 -0.0000 -0.9983
vn -0.0450 0.8405 -0.5399
vn -0.0384 0.9991 0.0183
vn -0.0364 0.9634 -0.2657
vn -0.9924 -0.0984 0.0734
vt 0.840476 0.092383
vt 1.000000 0.092373
vt 1.000000 0.708425
vt 0.667035 0.500167
vt 0.577546 0.246337
vt 0.794890 0.120344
vt 0.759595 0.677585
vt 0.708425 0.708425
vt 0.092373 0.092373
vt 0.092298 0.000000
vt 0.922672 0.000000
vt 0.922476 0.257760
vt 0.679649 0.582457
vt 0.079500 0.000000
vt 0.868143 0.000000
vt 1.000000 0.138903
vt 1.000000 0.883105
vt 0.868143 0.868143
vt 0.079500 0.079500
vt 0.077328 0.000000
vt 0.907702 0.000000
vt 0.902124 0.179904
vt 0.472477 0.039914
vt 0.526223 0.018785
vt 0.518898 0.095545
vt 0.468828 0.108036
vt 0.075566 0.927585
vt 0.143684 0.927585
vt 0.135799 0.981331
vt 0.075430 0.979945
vt 0.075419 0.970945
vt 0.255001 0.478913
vt 0.258900 0.501862
vt 0.190700 0.501862
vt 0.190722 0.480367
vt 0.487871 0.420705
vt 0.464922 0.410256
vt 0.464091 0.335449
vt 0.495196 0.343945
vt 0.465630 0.219745
vt 0.507047 0.219745
vt 0.464091 0.335449
vt 0.465630 0.219745
vt 0.468828 0.108036
vt 0.538617 -0.044814
vt 0.535558 0.093062
vt 0.537089 0.016090
vt 0.075606 0.916268
vt 0.100794 0.916424
vt 0.144255 0.916719
vt 0.075566 0.927585
vt 0.260961 0.546866
vt 0.190673 0.547301
vt 0.190657 0.542324
vt 0.532876 0.430425
vt 0.532996 0.349118
vt 0.532996 0.349118
vt 0.534001 0.219745
vt 0.533463 0.298241
vt 0.535558 0.093062
vt 0.741419 0.500056
vt 0.880708 0.612590
vt 0.354472 0.236228
vt 0.116895 0.000000
vt 0.861098 0.000000
vt 0.221798 0.139951
vt 0.589326 0.276302
s 0
usemtl lambert2SG
f 185/214/88 187/215/88 188/216/88 189/217/88 190/218/88 186/219/88
f 192/220/89 188/221/89 187/222/89 193/223/89 194/224/89 191/225/89
f 195/226/90 196/227/90 197/228/90 183/229/90 159/230/90
f 197/231/91 196/232/91 194/233/91 193/234/91 198/235/91
s 1
f 184/236/92 153/237/93 152/238/94 182/239/95
f 177/240/96 153/241/93 184/242/92 157/243/97 175/244/97
f 178/245/98 154/246/99 176/247/100 180/248/101
f 154/249/99 178/250/98 179/251/102 155/252/103
f 181/253/104 156/254/105 155/252/103 179/255/102
f 156/254/105 181/256/104 182/257/95 152/238/94
f 166/258/106 169/259/107 152/238/94 153/237/93 164/260/108
f 170/261/109 165/262/109 164/263/108 153/241/93 177/264/96
f 176/247/100 154/246/99 171/265/110 172/266/111 174/267/111
f 171/268/110 154/249/99 155/252/103 173/269/112
f 173/270/112 155/252/103 156/254/105 168/271/113 167/272/114
f 168/271/113 156/254/105 152/238/94 169/273/107
s 0
f 162/274/115 160/275/115 158/276/115 159/277/115 183/278/115 161/279/115 163/280/115
o BaguetteBread_cell.003
v 0.805051 -0.063879 0.171407
v 0.050259 0.251330 0.210862
v 0.081321 0.096000 0.341182
v 0.081321 -0.096000 0.341182
v 0.454128 0.239029 0.202916
v 0.476641 0.091301 0.328325
v 0.476641 -0.091301 0.328325
v 0.454128 -0.239029 0.202916
v 0.417703 -0.295457 -0.000000
v 0.381278 -0.239029 -0.202916
v 0.358766 -0.091301 -0.328325
v 0.358766 0.091301 -0.328325
v 0.381278 0.239029 -0.202916
v 0.417703 0.295457 -0.000000
v 0.832356 0.203331 0.171239
v 0.733294 -0.077665 -0.277070
v 0.733294 0.077665 -0.277070
v 0.756680 0.203330 -0.171239
v 0.794518 0.251330 -0.000000
v 0.846470 0.164176 -0.180546
v 0.857696 0.186657 -0.158098
v 0.743675 -0.079684 -0.272758
v 0.802182 0.073604 -0.263511
v 0.885084 0.219954 -0.038588
v 0.737627 -0.100946 -0.257463
v 0.707810 -0.207977 -0.175363
v 0.708296 -0.222287 -0.128566
v 0.748982 -0.213006 0.171200
v 0.709598 -0.261275 -0.000000
v 0.097032 -0.252811 0.199291
v 0.191786 -0.303680 -0.000000
v 0.204233 -0.294626 -0.029656
v 0.020023 -0.095259 0.337035
v 0.062568 -0.189778 0.262503
v 0.028062 -0.113676 0.323067
v 0.035621 0.218620 0.236662
v 0.002568 0.095048 0.335854
v 0.091924 -0.250061 0.210042
v 0.278247 -0.241966 -0.204813
v 0.286573 -0.211672 -0.229624
v 0.043617 0.248360 0.212792
v 0.134362 0.305770 -0.000000
v 0.048087 0.253894 0.201750
v 0.303445 0.091892 -0.329941
v 0.320424 -0.091710 -0.329445
v 0.233114 0.243252 -0.205644
v 0.850140 0.107770 0.251717
v 0.848300 0.101891 0.257157
v 0.893019 0.228692 -0.000000
v 0.879824 0.199564 0.140120
v 0.877350 0.193753 0.163690
v 0.796389 -0.079800 0.285095
v 0.791091 -0.101056 0.267393
v 0.840855 0.078200 0.279083
v 0.774569 -0.145251 0.231549
v 0.749700 -0.211132 0.178162
v 0.846470 0.164176 -0.180546
v 0.802182 0.073604 -0.263511
v 0.857696 0.186657 -0.158098
v 0.743675 -0.079684 -0.272758
v 0.893019 0.228692 -0.000000
v 0.885084 0.219954 -0.038588
v 0.707810 -0.207977 -0.175363
v 0.708296 -0.222287 -0.128566
v 0.737627 -0.100946 -0.257463
v 0.709598 -0.261275 -0.000000
v 0.748982 -0.213006 0.171200
v 0.097032 -0.252811 0.199291
v 0.191786 -0.303680 -0.000000
v 0.204233 -0.294626 -0.029656
v 0.278247 -0.241966 -0.204813
v 0.091924 -0.250061 0.210042
v 0.062568 -0.189778 0.262503
v 0.028062 -0.113676 0.323067
v 0.020023 -0.095259 0.337035
v 0.002568 0.095048 0.335854
v 0.035621 0.218620 0.236662
v 0.286573 -0.211672 -0.229624
v 0.303445 0.091892 -0.329941
v 0.320424 -0.091710 -0.329445
v 0.043617 0.248360 0.212792
v 0.134362 0.305770 -0.000000
v 0.048087 0.253894 0.201750
v 0.233114 0.243252 -0.205644
v 0.879824 0.199564 0.140120
v 0.877350 0.193753 0.163690
v 0.850140 0.107770 0.251717
v 0.848300 0.101891 0.257157
v 0.796389 -0.079800 0.285095
v 0.791091 -0.101056 0.267393
v 0.840855 0.078200 0.279083
v 0.774569 -0.145251 0.231549
v 0.749700 -0.211132 0.178162
vn 0.9298 -0.3494 -0.1154
vn -0.9082 -0.0903 -0.4087
vn -0.9082 -0.0858 -0.4096
vn -0.9080 -0.0851 -0.4102
vn 0.9625 -0.2691 0.0347
vn 0.9623 -0.2695 0.0356
vn 0.9366 -0.3505 0.0005
vn 0.9360 -0.3519 -0.0018
vn -0.0598 0.6345 0.7706
vn -0.0677 0.3261 0.9429
vn -0.0137 0.3408 0.9400
vn -0.0839 0.8486 0.5223
vn -0.1294 0.7274 0.6739
vn -0.0648 -0.2892 0.9551
vn -0.0120 -0.3403 0.9402
vn 0.0200 -0.6460 0.7631
vn -0.0527 -0.6329 0.7725
vn -0.0312 0.9603 0.2771
vn 0.0797 0.8443 0.5299
vn 0.0874 0.3459 0.9342
vn 0.0874 -0.3459 0.9342
vn 0.0355 -0.7986 0.6009
vn 0.0797 -0.8443 0.5299
vn 0.0758 -0.9970 -0.0134
vn 0.0348 -0.9644 0.2623
vn 0.0356 -0.9972 0.0651
vn 0.0782 -0.8322 -0.5490
vn 0.0338 -0.9610 -0.2744
vn 0.0336 -0.8675 -0.4964
vn 0.0825 -0.3375 -0.9377
vn 0.0298 -0.6434 -0.7649
vn 0.0314 -0.3545 -0.9345
vn 0.0325 0.3865 -0.9217
vn 0.0830 0.3375 -0.9377
vn 0.0346 0.8766 -0.4800
vn 0.0787 0.8320 -0.5491
vn 0.0759 0.9970 -0.0137
vn 0.0357 0.9970 0.0680
vn 0.1244 0.6529 0.7472
vn 0.1403 0.6532 0.7441
vn 0.1856 0.8420 0.5065
vn 0.1367 0.4054 0.9038
vn 0.1383 -0.3017 0.9433
vn 0.1244 -0.6529 0.7472
vn 0.1243 -0.8283 0.5463
vn 0.1167 -0.9932 -0.0029
vn 0.1121 -0.9626 0.2467
vn 0.1254 -0.8163 -0.5639
vn 0.1130 -0.9511 -0.2873
vn 0.1773 -0.3036 -0.9362
vn 0.1352 -0.6262 -0.7678
vn 0.1748 0.3274 -0.9286
vn 0.1604 0.8177 -0.5528
vn 0.1641 0.9860 -0.0301
vn 0.2470 0.8549 0.4562
vn 0.2211 -0.3247 -0.9196
vn 0.2120 0.3938 -0.8944
vn 0.2012 0.8381 -0.5071
vn 0.1891 0.6155 -0.7651
vn 0.2157 0.9759 -0.0318
vn 0.1962 0.9339 -0.2989
vn 0.2196 0.9505 0.2200
vn 0.9302 -0.3481 -0.1160
vt 0.533297 0.533297
vt 0.000000 0.000000
vt 0.502217 0.000000
vt 0.664669 0.304467
vt 1.000000 0.245002
vt 1.000000 0.537811
vt 0.834672 0.435936
vt 0.537811 0.537811
vt 0.245002 0.245002
vt 0.232611 0.231252
vt 0.253124 0.164168
vt 0.288051 0.086723
vt 0.297601 0.068863
vt 0.628317 0.070411
vt 1.000000 0.197300
vt 1.000000 0.793582
vt 0.908094 0.761844
vt 0.921269 0.627255
vt 0.793582 0.793582
vt 0.197300 0.197300
vt 0.230610 0.152200
vt 0.241957 0.148390
vt 0.499993 0.076401
vt 0.762990 0.162983
vt 0.921934 0.372748
vt 1.000000 0.000000
vt 0.997964 0.687481
vt 0.736445 0.356920
vt 0.693596 0.300311
vt 0.614113 0.018066
vt 0.609909 0.000000
vt 1.000000 0.564148
vt 1.000000 1.000000
vt 0.609909 0.609909
vt 0.639704 0.510403
vt 0.944888 0.483667
vt 1.000000 0.725816
vt 0.564148 0.564148
vt 1.000000 0.497784
vt 0.725816 0.725816
vt 0.968336 0.504078
vt 0.585877 0.073147
vt 0.580228 0.005393
vt 0.593941 0.001992
vt 0.588533 0.085166
vt 0.587325 0.086071
vt 0.002337 0.870541
vt 0.001776 0.859867
vt 0.147244 0.859867
vt 0.146523 0.873580
vt 0.203091 0.387283
vt 0.206356 0.437498
vt 0.195682 0.434851
vt 0.196142 0.464995
vt 0.588155 0.090982
vt 0.587502 0.085320
vt 0.658858 0.090238
vt 0.662778 0.010198
vt 0.143684 0.791030
vt 0.005336 0.791030
vt 0.208203 0.353801
vt 0.271273 0.349252
vt 0.275193 0.429292
vt 0.203091 0.387283
vt 0.264930 0.219745
vt 0.208203 0.353801
vt 0.209083 0.345956
vt 0.225591 0.219745
vt 0.258588 0.090238
vt 0.228154 0.242086
vt 0.240647 0.089027
vt 0.254668 0.010198
vt 0.240647 0.089027
vt 0.242485 0.102814
vt 0.247992 0.009483
vt 0.259347 0.646610
vt 0.258900 0.656243
vt 0.120551 0.656243
vt 0.120241 0.649567
vt 0.620373 0.350993
vt 0.646173 0.349252
vt 0.642253 0.429292
vt 0.632620 0.430324
vt 0.652515 0.219745
vt 0.620373 0.350993
vt 0.603177 0.219745
vt 0.588155 0.090982
vt 0.727495 0.055619
vt 0.727816 0.059091
vt 0.724719 0.110455
vt 0.726199 0.041625
vt 0.133759 0.727609
vt 0.014050 0.735352
vt 0.329969 0.390799
vt 0.330871 0.401701
vt 0.322740 0.333453
vt 0.327088 0.367843
vt 0.315758 0.219745
vt 0.322593 0.328293
vt 0.315758 0.219745
vt 0.315446 0.107823
vt 0.315398 0.133592
vt 0.319884 0.042910
vt 0.320638 0.055424
vt 0.130882 0.721459
vt 0.248569 0.721459
vt 0.707469 0.396580
vt 0.711541 0.329035
vt 0.718130 0.219745
vt 0.889611 0.727181
vt 0.817210 0.778545
vt 0.882354 0.722363
vt 0.676715 0.441056
vt 0.671910 0.446080
vt 0.659076 0.453570
vt 0.794401 0.441056
vt 0.791324 0.449710
vt 0.677211 0.442452
vt 0.889611 0.508601
vt 0.876979 0.516988
vt 0.871592 0.510737
vt 0.791324 0.449710
vt 0.729131 0.320648
vt 0.735256 0.219935
vt 0.732943 0.228174
vt 0.732504 0.123015
vt 0.735282 0.219745
vt 0.732554 0.115273
vt 0.929857 0.585320
vt 0.659532 0.611144
vt 0.978242 0.606430
vt 0.805796 0.397688
vt 0.945745 0.272086
vt 0.986420 0.240907
vt 0.290467 0.058006
vt 0.310997 0.000000
vt 1.000000 0.533297
s 0
usemtl lambert2SG
f 225/281/116 199/282/116 265/283/116 264/284/116
f 266/285/117 268/286/117 267/287/117
f 268/288/118 266/289/118 270/290/118 271/291/118 272/292/118 273/293/118 274/294/118 275/295/118 276/296/118 269/297/118
f 278/298/119 276/299/119 275/300/119 279/301/119 281/302/119 280/303/119 282/304/119 277/305/119
f 199/306/120 259/307/120 283/308/120 284/309/120 285/310/120 286/311/120
f 288/312/121 199/313/121 286/314/121 289/315/121 287/316/121
f 290/317/122 199/313/122 288/318/122
f 265/319/123 199/313/123 290/320/123 291/321/123
s 1
f 234/322/124 235/323/125 201/324/126 200/325/127 239/326/128
f 231/327/129 202/328/130 201/329/126 235/330/125
f 232/331/131 202/332/130 231/333/129 233/334/132
f 241/335/133 239/336/128 200/325/127
f 203/337/134 200/325/127 201/324/126 204/338/135
f 204/339/135 201/329/126 202/328/130 205/340/136
f 236/341/137 206/342/138 205/343/136 202/332/130 232/344/131
f 207/345/139 206/342/138 236/346/137 228/347/140 229/348/141
f 208/349/142 207/345/139 229/348/141 230/350/143 237/351/144
f 209/352/145 208/349/142 237/353/144 238/354/146 243/355/147
f 242/356/148 210/357/149 209/358/145 243/359/147
f 244/360/150 211/361/151 210/362/149 242/363/148
f 212/364/152 211/361/151 244/365/150 240/366/153
f 200/325/127 203/337/134 212/364/152 240/366/153 241/367/133
f 246/368/154 245/369/155 213/370/156 203/337/134 204/338/135 252/371/157
f 252/372/157 204/339/135 205/340/136 250/373/158
f 251/374/159 250/375/158 205/343/136 206/342/138 254/376/160 253/377/159
f 254/376/160 206/342/138 207/345/139 227/378/161 226/379/162
f 227/380/161 207/345/139 208/349/142 261/381/163 262/382/164
f 261/381/163 208/349/142 209/352/145 214/383/165 263/384/166
f 214/385/165 209/358/145 210/357/149 215/386/167
f 215/387/167 210/362/149 211/361/151 216/388/168
f 216/388/168 211/361/151 212/364/152 217/389/169
f 217/389/169 212/364/152 203/337/134 213/370/156
f 213/390/156 245/391/155 249/392/170
f 214/393/165 258/394/171 263/395/166
f 215/396/167 256/397/172 258/398/171 214/393/165
f 216/399/168 257/400/173 255/401/174 256/402/172 215/396/167
f 257/403/173 216/388/168 217/389/169 247/404/175 260/405/176
f 248/406/177 247/407/175 217/389/169 213/370/156 249/408/170
s 0
f 224/409/178 223/410/178 220/411/178 221/412/178 218/413/178 219/414/178 222/415/178 259/416/178 199/306/178 225/417/178
o BaguetteBread_cell.004
v -1.335074 -0.039317 0.033910
v -1.335074 -0.048598 0.000000
v -1.335074 -0.039317 -0.033911
v -1.335074 -0.015018 -0.054868
v -1.335074 0.015018 -0.054868
v -1.285558 -0.077665 0.066985
v -1.285558 -0.096000 0.000000
v -1.285558 -0.077665 -0.066985
v -1.285558 -0.029666 -0.108385
v -1.285558 0.029666 -0.108384
v -1.093561 -0.147728 0.127414
v -1.093561 -0.182602 0.000000
v -1.093561 -0.147728 -0.127413
v -1.093561 -0.056427 -0.206159
v -1.093561 0.056427 -0.206159
v -0.845469 -0.184486 0.158319
v -0.891952 -0.206244 -0.104954
v -0.880274 -0.231621 0.000000
v -0.873370 -0.224012 0.033596
v -0.859439 -0.154684 0.180497
v -1.011505 -0.064475 -0.230918
v -0.976583 -0.109878 -0.205250
v -1.085801 0.061023 -0.204959
v -1.084353 0.057330 -0.208937
v -0.902439 -0.198573 -0.129285
v -0.915667 -0.187604 -0.156372
v -0.890302 -0.091237 0.222836
v -1.312373 -0.032076 0.070483
v -1.260298 0.039707 -0.115624
v -1.285558 -0.042466 0.097345
v -1.032408 -0.082092 0.199456
v -1.093561 -0.077584 0.187911
v -1.093561 0.069991 -0.194460
v -1.349455 -0.002041 -0.007456
v -1.350033 -0.004916 0.000000
v -1.348599 -0.007364 0.006351
v -1.338402 0.012015 -0.043895
v -1.285558 0.035098 -0.103699
v -1.335074 -0.023308 0.047718
v -0.880274 -0.231621 0.000000
v -0.873370 -0.224012 0.033596
v -0.891952 -0.206244 -0.104954
v -1.011505 -0.064475 -0.230918
v -0.976583 -0.109878 -0.205250
v -1.084353 0.057330 -0.208937
v -1.085801 0.061023 -0.204959
v -1.093561 0.069991 -0.194460
v -0.845469 -0.184486 0.158319
v -0.859439 -0.154684 0.180497
v -0.902439 -0.198573 -0.129285
v -0.915667 -0.187604 -0.156372
v -0.890302 -0.091237 0.222836
v -1.312373 -0.032076 0.070483
v -1.285558 -0.042466 0.097345
v -1.093561 -0.077584 0.187911
v -1.032408 -0.082092 0.199456
v -1.260298 0.039707 -0.115624
v -1.350033 -0.004916 0.000000
v -1.348599 -0.007364 0.006351
v -1.335074 -0.023308 0.047718
v -1.285558 0.035098 -0.103699
v -1.349455 -0.002041 -0.007456
v -1.338402 0.012015 -0.043895
v -1.335074 0.015018 -0.054868
vn 0.9685 -0.1949 -0.1549
vn 0.0008 0.9329 0.3601
vn -0.0049 0.9344 0.3563
vn -0.8348 -0.4695 0.2876
vn -0.5647 -0.6987 0.4392
vn -0.5605 -0.5409 0.6271
vn -0.7112 -0.4592 0.5323
vn -0.8302 -0.3641 0.4221
vn -0.8246 -0.5657 -0.0000
vn -0.5466 -0.8374 -0.0000
vn -0.8348 -0.4704 -0.2860
vn -0.5647 -0.6987 -0.4392
vn -0.8531 -0.1899 -0.4859
vn -0.5963 -0.2815 -0.7517
vn -0.8489 0.0140 -0.5284
vn -0.5963 0.2815 -0.7517
vn -0.5963 0.5243 -0.6079
vn -0.3104 -0.7955 0.5205
vn -0.3003 -0.6178 0.7268
vn -0.3150 -0.9489 0.0168
vn -0.3441 -0.7983 -0.4942
vn -0.3768 -0.3248 -0.8675
vn -0.3745 0.3241 -0.8688
vn -0.4303 0.5896 -0.6836
vn -0.3923 0.6023 -0.6952
vn -0.1990 -0.8227 0.5325
vn -0.1829 -0.6324 0.7527
vn -0.1991 -0.9351 0.2932
vn -0.2234 -0.9730 0.0580
vn -0.2356 -0.9438 -0.2317
vn -0.2569 -0.8782 -0.4035
vn -0.2723 -0.6385 -0.7198
vn -0.2922 -0.4660 -0.8351
vn -0.2963 0.2460 -0.9229
vn -0.2647 0.6362 -0.7247
vn -0.9459 -0.3052 0.1103
vn -0.9563 -0.2833 -0.0723
vn -0.9569 -0.1698 -0.2354
vn -0.9569 -0.0000 -0.2903
vn 0.8232 0.5366 -0.1852
vt 0.542775 0.149564
vt 0.499843 0.174299
vt 0.365554 0.000000
vt 0.699069 0.011837
vt 1.000000 0.590098
vt 0.941981 0.566432
vt 0.574682 0.315106
vt 0.465875 0.221136
vt 0.214662 0.000000
vt 0.755497 0.007487
vt 1.000000 0.352446
vt 0.755675 0.508165
vt 0.693835 0.561006
vt 0.590098 0.590098
vt 0.352446 0.352446
vt 0.467827 0.367658
vt 0.693967 0.431003
vt 0.709158 0.443999
vt 0.759602 0.490530
vt 0.762233 0.500052
vt 0.392194 0.592689
vt 0.363139 0.571579
vt 0.389808 0.552203
vt 0.397680 0.569347
vt 0.404323 0.583877
vt 0.385161 0.614331
vt 0.349248 0.614331
vt 0.392194 0.635974
vt 0.363139 0.657083
vt 0.410604 0.649349
vt 0.399506 0.683505
vt 0.433360 0.649349
vt 0.444458 0.683505
vt 0.448573 0.680515
vt 0.434059 0.648841
vt 0.310056 0.533011
vt 0.363200 0.494400
vt 0.283633 0.614331
vt 0.310056 0.695650
vt 0.379230 0.745908
vt 0.464734 0.745908
vt 0.452066 0.688126
vt 0.475011 0.738441
vt 0.280216 0.514641
vt 0.282123 0.514549
vt 0.344938 0.477497
vt 0.308729 0.521765
vt 0.041244 0.221651
vt 0.044821 0.319264
vt 0.001776 0.301064
vt 0.001776 0.219745
vt 0.038915 0.219745
vt 0.037258 0.147134
vt 0.038915 0.219745
vt 0.001776 0.138426
vt 0.032752 0.119944
vt 0.035787 0.126279
vt 0.345012 0.750064
vt 0.279843 0.714132
vt 0.373132 0.761710
vt 0.465418 0.747681
vt 0.467360 0.745788
vt 0.475263 0.739153
vt 0.416403 0.610277
vt 0.416403 0.610277
vt 0.418257 0.614331
vt 0.419187 0.616362
vt 0.420436 0.619089
vt 0.419187 0.616362
vt 0.431085 0.642346
vt 0.970987 0.238385
vt 0.250651 0.000000
vt 0.785338 0.000000
vt 0.804903 0.730536
vt 0.702115 0.702115
vt 0.365554 0.365554
vt 0.360217 0.334475
vt 0.360738 0.299879
vt 0.515860 0.237595
vt 0.609522 0.204898
vt 0.956950 0.233291
s 0
usemtl lambert2SG
f 332/418/179 331/419/179 333/420/179 339/421/179
f 344/422/180 345/423/180 346/424/180 347/425/180 343/426/180 324/427/180 348/428/180
f 350/429/181 351/430/181 344/431/181 348/432/181 352/433/181 296/434/181 354/435/181 353/436/181 349/437/181
s 1
f 292/438/182 297/439/183 321/440/184 319/441/185 330/442/186
f 297/439/183 292/438/182 293/443/187 298/444/188
f 298/444/188 293/443/187 294/445/189 299/446/190
f 299/446/190 294/445/189 295/447/191 300/448/192
f 300/448/192 295/447/191 355/449/193 301/450/194
f 329/451/195 301/450/194 355/452/193
f 321/440/184 297/439/183 302/453/196 323/454/197
f 302/453/196 297/439/183 298/444/188 303/455/198
f 303/455/198 298/444/188 299/446/190 304/456/199
f 304/456/199 299/446/190 300/448/192 305/457/200
f 305/457/200 300/448/192 301/450/194 306/458/201
f 306/458/201 301/450/194 329/451/195 320/459/202 338/460/203
f 323/454/197 302/453/196 307/461/204 340/462/205 318/463/205 322/464/205
f 310/465/206 307/466/204 302/467/196 303/468/198 309/469/207
f 308/470/208 309/471/207 303/468/198 304/472/199 342/473/209 341/474/208
f 335/475/210 342/476/209 304/456/199 305/457/200 334/477/211
f 334/477/211 305/457/200 306/458/201 336/478/212
f 337/479/213 336/478/212 306/458/201 338/480/203
f 292/438/182 330/442/186 327/481/214
f 293/443/187 292/438/182 327/482/214 326/483/215
f 294/445/189 293/443/187 326/484/215
f 325/485/216 295/447/191 294/445/189 326/486/215
f 328/487/217 355/449/193 295/447/191 325/485/216
s 0
f 314/488/218 324/489/218 343/490/218 311/491/218 339/492/218 333/493/218 316/494/218 317/495/218 313/496/218 312/497/218 315/498/218
o BaguetteBread_cell.005
v -1.335074 0.039317 0.033910
v -1.335074 0.015018 0.054868
v -1.335074 -0.015018 0.054868
v -1.335074 0.039317 -0.033911
v -1.335074 0.048598 -0.000000
v -1.285558 0.077665 0.066985
v -1.285558 0.029666 0.108385
v -1.285558 -0.029666 0.108385
v -1.285558 0.077665 -0.066985
v -1.285558 0.096000 -0.000000
v -1.093561 0.147728 0.127414
v -1.093561 0.056427 0.206159
v -1.093561 -0.056427 0.206159
v -1.093561 0.147728 -0.127413
v -1.093561 0.182602 -0.000000
v -1.350868 -0.002004 -0.001729
v -1.350018 -0.004011 0.003460
v -1.344458 0.006549 -0.023928
v -1.285558 0.036649 -0.102361
v -1.261190 0.041032 -0.113920
v -1.312843 -0.030357 0.071338
v -1.335074 -0.021695 0.049109
v -1.335074 0.017607 -0.052635
v -1.285558 -0.040907 0.098690
v -0.890817 -0.089377 0.224161
v -1.037339 -0.080022 0.199997
v -1.093561 -0.075906 0.189358
v -1.093561 0.071520 -0.193142
v -0.889623 -0.067779 0.241080
v -1.083970 0.149878 -0.128974
v -1.081941 0.151754 -0.122462
v -0.924500 0.065837 0.235108
v -0.985011 0.164971 0.139936
v -0.953459 0.115225 0.190803
v -1.032419 0.186223 0.029309
v -1.045421 0.193666 -0.000000
v -1.344458 0.006549 -0.023928
v -1.335074 0.017607 -0.052635
v -1.285558 0.036649 -0.102361
v -1.261190 0.041032 -0.113920
v -1.312843 -0.030357 0.071338
v -1.335074 -0.021695 0.049109
v -1.350018 -0.004011 0.003460
v -1.093561 0.071520 -0.193142
v -0.890817 -0.089377 0.224161
v -1.037339 -0.080022 0.199997
v -1.093561 -0.075906 0.189358
v -1.285558 -0.040907 0.098690
v -0.889623 -0.067779 0.241080
v -1.083970 0.149878 -0.128974
v -1.081941 0.151754 -0.122462
v -1.350868 -0.002004 -0.001729
v -0.924500 0.065837 0.235108
v -0.953459 0.115225 0.190803
v -1.045421 0.193666 -0.000000
v -1.032419 0.186223 0.029309
v -0.985011 0.164971 0.139936
vn -0.0031 -0.9328 -0.3603
vn -0.0003 -0.9331 -0.3596
vn -0.5647 0.6987 0.4392
vn -0.8413 0.4612 0.2821
vn -0.8572 0.1857 0.4802
vn -0.5963 0.2815 0.7517
vn -0.8561 -0.1697 0.4881
vn -0.5963 -0.2815 0.7517
vn -0.8864 -0.2623 0.3815
vn -0.7112 -0.4592 0.5323
vn -0.5970 -0.5240 0.6075
vn -0.8378 0.4677 -0.2815
vn -0.5647 0.6987 -0.4392
vn -0.5602 0.5410 -0.6273
vn -0.8323 0.3671 -0.4154
vn -0.8311 0.5561 0.0006
vn -0.5466 0.8374 -0.0000
vn -0.3065 0.8000 0.5159
vn -0.3196 0.3234 0.8907
vn -0.3156 -0.3163 0.8946
vn -0.3120 -0.6038 0.7336
vn -0.3355 0.7955 -0.5045
vn -0.4197 0.5928 -0.6873
vn -0.4303 0.5896 -0.6836
vn -0.3056 0.9522 0.0020
vn -0.1836 0.2539 0.9496
vn -0.1815 0.6298 0.7553
vn -0.1896 0.7750 0.6029
vn -0.1789 -0.3455 0.9212
vn -0.1700 -0.6077 0.7758
vn -0.2461 0.8374 -0.4880
vn -0.2028 0.9772 0.0623
vn -0.2167 0.9417 -0.2572
vn -0.1829 0.9469 0.2645
vn -0.9792 0.1935 0.0609
vn -0.9604 -0.1107 0.2555
vn -0.9541 0.2074 -0.2161
vn 0.9107 0.2125 -0.3541
vt 0.734201 0.500011
vt 0.730452 0.494832
vt 0.732689 0.469440
vt 0.739032 0.432770
vt 0.902842 0.369395
vt 1.000000 0.354720
vt 1.000000 0.591399
vt 0.869377 0.562878
vt 0.252261 0.000000
vt 0.786718 0.000000
vt 0.755821 0.228601
vt 0.742221 0.315217
vt 0.626349 0.567238
vt 0.591399 0.591399
vt 0.354720 0.354720
vt 0.480825 0.571579
vt 0.451770 0.592689
vt 0.433360 0.579313
vt 0.444458 0.545157
vt 0.410604 0.579313
vt 0.399506 0.545157
vt 0.405545 0.582989
vt 0.398983 0.568802
vt 0.390989 0.551345
vt 0.451770 0.635974
vt 0.480825 0.657083
vt 0.449749 0.679661
vt 0.435322 0.647924
vt 0.458802 0.614331
vt 0.494716 0.614331
vt 0.533908 0.533012
vt 0.464734 0.482754
vt 0.379230 0.482754
vt 0.364471 0.493477
vt 0.390989 0.551345
vt 0.533908 0.695650
vt 0.476169 0.737600
vt 0.453070 0.687038
vt 0.560330 0.614331
vt 0.471864 0.464278
vt 0.478892 0.471881
vt 0.546972 0.525020
vt 0.471864 0.464278
vt 0.370629 0.460467
vt 0.364471 0.493477
vt 0.310010 0.521615
vt 0.346952 0.476240
vt 0.535537 0.696646
vt 0.476169 0.737600
vt 0.391031 0.302060
vt 0.389361 0.301064
vt 0.389361 0.219745
vt 0.397744 0.219745
vt 0.391206 0.300574
vt 0.397744 0.219745
vt 0.389361 0.138426
vt 0.408263 0.130434
vt 0.399085 0.217050
vt 0.421982 0.614331
vt 0.418943 0.612123
vt 0.435322 0.647924
vt 0.426944 0.629602
vt 0.800597 0.572967
vt 0.940574 0.808327
vt 0.786718 0.786718
vt 0.252261 0.252261
vt 0.820335 0.335490
vt 0.849282 0.343809
vt 0.500205 0.324500
vt 0.537645 0.338953
vt 0.678959 0.380193
vt 0.743969 0.476925
s 0
usemtl lambert2SG
f 398/499/219 407/500/219 392/501/219 393/502/219 394/503/219 395/504/219 396/505/219 397/506/219
f 399/507/220 400/508/220 401/509/220 402/510/220 403/511/220 396/512/220 395/513/220
s 1
f 361/514/221 356/515/222 357/516/223 362/517/224
f 362/517/224 357/516/223 358/518/225 363/519/226
f 363/519/226 358/518/225 377/520/227 376/521/228 379/522/229
f 359/523/230 364/524/231 374/525/232 378/526/233
f 364/524/231 359/523/230 360/527/234 365/528/235
f 365/528/235 360/527/234 356/515/222 361/514/221
f 366/529/236 361/514/221 362/517/224 367/530/237
f 367/530/237 362/517/224 363/519/226 368/531/238
f 382/532/239 368/531/238 363/519/226 379/533/229
f 364/524/231 369/534/240 383/535/241 375/536/242 374/525/232
f 369/534/240 364/524/231 365/528/235 370/537/243
f 370/537/243 365/528/235 361/514/221 366/529/236
f 366/529/236 367/530/237 408/538/244 409/539/245 412/540/246
f 408/541/244 367/530/237 368/531/238 404/542/247
f 368/531/238 382/543/239 381/544/248 380/545/248 404/542/247
f 369/534/240 405/546/249 383/547/241
f 405/548/249 369/549/240 370/550/243 410/551/250 406/552/251
f 410/553/250 370/550/243 366/554/236 412/555/246 411/556/252
f 356/515/222 371/557/253 357/516/223
f 357/516/223 371/557/253 358/518/225
f 358/518/225 371/557/253 372/558/254 377/520/227
f 371/557/253 359/523/230 378/559/233 373/560/255
f 360/527/234 359/523/230 371/557/253
f 356/515/222 360/527/234 371/557/253
s 0
f 387/561/256 384/562/256 400/563/256 399/564/256 385/565/256 386/566/256 391/567/256 390/568/256 388/569/256 389/570/256
o BaguetteBread_cell.006
v 0.807290 -0.063549 0.171913
v 0.855742 0.077665 0.277070
v 0.855742 -0.077665 0.277070
v 1.093561 0.147728 0.127413
v 1.093561 0.056427 0.206159
v 1.093561 -0.056427 0.206159
v 1.093561 0.182602 0.000000
v 1.285559 0.077665 0.066985
v 1.285558 0.029666 0.108384
v 1.285558 -0.029666 0.108385
v 1.285559 0.096000 0.000000
v 1.335073 0.039317 0.033911
v 1.335073 0.015018 0.054868
v 1.335073 -0.015018 0.054868
v 1.335073 0.039317 -0.033910
v 1.335073 0.048598 0.000000
v 0.798616 -0.079720 0.284793
v 0.793495 -0.100342 0.267616
v 0.850244 0.101642 0.257050
v 0.842880 0.078128 0.278809
v 0.852048 -0.097513 0.260355
v 0.895292 0.228119 -0.000183
v 0.882026 0.199389 0.138677
v 0.879398 0.193317 0.163346
v 1.093561 0.171268 -0.041411
v 1.292376 0.072384 -0.062430
v 1.285558 0.078718 -0.063138
v 1.060859 -0.074819 0.201787
v 1.285558 -0.036404 0.102573
v 1.093561 -0.071475 0.193181
v 1.350262 0.001312 0.004792
v 1.343136 -0.007742 0.028285
v 1.349715 0.004727 -0.004077
v 1.335073 0.021966 -0.048876
v 0.798616 -0.079720 0.284793
v 0.793495 -0.100342 0.267616
v 0.842880 0.078128 0.278809
v 0.850244 0.101642 0.257050
v 0.852048 -0.097513 0.260355
v 0.895292 0.228119 -0.000183
v 0.882026 0.199389 0.138677
v 0.879398 0.193317 0.163346
v 1.093561 0.171268 -0.041411
v 1.285558 0.078718 -0.063138
v 1.292376 0.072384 -0.062430
v 1.350262 0.001312 0.004792
v 1.343136 -0.007742 0.028285
v 1.285558 -0.036404 0.102573
v 1.093561 -0.071475 0.193181
v 1.060859 -0.074819 0.201787
v 1.349715 0.004727 -0.004077
v 1.335073 0.021966 -0.048876
v 1.335073 -0.015018 0.054868
vn -0.9626 0.2686 -0.0355
vn -0.9625 0.2690 -0.0363
vn -0.2944 -0.4250 -0.8560
vn 0.2166 0.3446 0.9134
vn 0.2469 0.6429 0.7251
vn 0.1385 0.2880 0.9476
vn 0.2173 -0.3472 0.9123
vn 0.1368 -0.3994 0.9065
vn 0.1942 -0.6524 0.7326
vn 0.1244 -0.6528 0.7472
vn 0.3738 0.3263 0.8682
vn 0.3407 0.7990 0.4956
vn 0.2607 0.8058 0.5318
vn 0.3755 -0.3288 0.8665
vn 0.3572 -0.6189 0.6995
vn 0.2693 -0.6481 0.7124
vn 0.2325 0.9548 0.1850
vn 0.3178 0.9482 -0.0052
vn 0.3232 0.9128 -0.2498
vn 0.2313 0.9432 0.2386
vn 0.5647 0.6987 0.4392
vn 0.5963 0.2815 0.7517
vn 0.5963 -0.2815 0.7517
vn 0.5954 -0.5247 0.6084
vn 0.5466 0.8374 -0.0000
vn 0.5612 0.7983 -0.2185
vn 0.8361 0.4688 0.2849
vn 0.8523 0.1880 0.4881
vn 0.8485 -0.0173 0.5289
vn 0.8348 0.4695 -0.2876
vn 0.8606 0.3326 -0.3856
vn 0.6882 0.6867 -0.2341
vn 0.8261 0.5636 0.0008
vn 0.9607 0.2301 0.1553
vn 0.9569 -0.0000 0.2903
vn 0.9538 0.3003 -0.0091
vn 0.0024 -0.9336 -0.3582
vt 1.000000 0.000000
vt 1.000000 0.437038
vt 0.946475 0.461998
vt 0.640686 0.129122
vt 0.610904 0.000000
vt 0.312454 0.000000
vt 0.993638 0.387615
vt 0.699424 0.304691
vt 0.640144 0.259760
vt 0.843438 0.072386
vt 0.861954 0.075441
vt 1.000000 0.117560
vt 1.000000 1.000000
vt 0.312454 0.312454
vt 0.534947 0.153405
vt 0.728791 0.042910
vt 0.727834 0.055688
vt 0.726551 0.041800
vt 0.015667 0.725017
vt 0.133353 0.725017
vt 0.133704 0.727257
vt 0.014110 0.734964
vt 0.340563 0.385911
vt 0.341206 0.396580
vt 0.331259 0.401509
vt 0.330387 0.390932
vt 0.794401 0.794726
vt 0.778310 0.749468
vt 0.847484 0.699210
vt 0.882024 0.722144
vt 0.814136 0.780725
vt 0.676715 0.794726
vt 0.692806 0.749468
vt 0.681405 0.741185
vt 0.661677 0.784058
vt 0.681652 0.748763
vt 0.735679 0.219745
vt 0.770202 0.219745
vt 0.770202 0.246174
vt 0.770202 0.138426
vt 0.732867 0.123630
vt 0.732910 0.115492
vt 0.794401 0.660643
vt 0.758034 0.687065
vt 0.713082 0.687065
vt 0.707977 0.683356
vt 0.865319 0.591461
vt 0.873906 0.617891
vt 0.808292 0.617891
vt 0.795199 0.577595
vt 0.765346 0.639534
vt 0.746936 0.652909
vt 0.724180 0.652909
vt 0.765346 0.596248
vt 0.753180 0.584547
vt 0.790400 0.578046
vt 0.772378 0.617891
vt 0.790400 0.578046
vt 0.737354 0.619196
vt 0.729693 0.635943
vt 0.736552 0.620950
vt 0.752200 0.586697
vt 0.739139 0.615289
vt 0.739139 0.615289
vt 0.737950 0.617891
vt 0.737354 0.619196
vt 0.213162 0.085710
vt 0.223575 0.086335
vt 0.278755 0.098321
vt 0.337134 0.111884
vt 0.480574 0.195194
vt 0.821684 0.518261
vt 0.865365 0.573290
vt 0.403712 0.311825
vt 0.437038 0.437038
vt 0.122057 0.111910
s 0
usemtl lambert2SG
f 413/571/257 448/572/257 447/573/257 449/574/257 450/575/257
f 452/576/258 413/571/258 450/577/258 454/578/258 453/579/258
f 456/580/259 457/581/259 446/582/259 413/583/259 452/584/259 455/585/259
s 1
f 414/586/260 431/587/261 432/588/262
f 415/589/263 414/590/260 432/591/262 429/592/264
f 451/593/265 415/594/263 429/595/264 430/596/266
f 414/597/260 417/598/267 416/599/268 436/600/269 431/601/261
f 417/598/267 414/597/260 415/602/263 418/603/270
f 461/604/271 418/603/270 415/602/263 451/605/265 462/606/272
f 434/607/273 419/608/274 437/609/275
f 416/610/268 419/608/274 434/607/273 435/611/276 436/612/269
f 420/613/277 416/599/268 417/598/267 421/614/278
f 421/614/278 417/598/267 418/603/270 422/615/279
f 460/616/280 422/615/279 418/603/270 461/604/271
f 437/617/275 419/618/274 423/619/281 439/620/282
f 423/619/281 419/618/274 416/599/268 420/613/277
f 424/621/283 420/613/277 421/614/278 425/622/284
f 425/622/284 421/614/278 422/615/279 465/623/285
f 465/623/285 422/615/279 460/616/280
f 427/624/286 464/625/287 438/626/288
f 423/619/281 428/627/289 427/624/286 438/628/288 439/620/282
f 428/627/289 423/619/281 420/613/277 424/621/283
f 458/629/290 424/621/283 425/622/284
f 459/630/291 458/631/290 425/622/284 465/623/285
f 464/632/287 427/624/286 463/633/292
f 428/627/289 463/634/292 427/624/286
f 463/635/292 428/627/289 424/621/283 458/636/290
s 0
f 445/637/293 443/638/293 444/639/293 426/640/293 441/641/293 442/642/293 440/643/293 433/644/293 448/645/293 413/583/293 446/646/293
o BaguetteBread_cell.007
v 0.806883 -0.064470 0.169927
v 0.794518 -0.251330 0.000000
v 0.756680 -0.203330 -0.171239
v 1.093561 -0.182602 0.000000
v 1.093561 -0.147728 -0.127414
v 1.093562 -0.056427 -0.206159
v 1.093562 0.056427 -0.206159
v 1.093561 0.147728 -0.127414
v 1.285558 -0.077665 -0.066985
v 1.285559 -0.029666 -0.108385
v 1.285558 0.029666 -0.108384
v 1.093561 0.170710 -0.043447
v 0.894919 0.227702 -0.002023
v 1.288212 0.075610 -0.065212
v 1.331125 0.021905 -0.054202
v 0.751211 -0.213190 0.169484
v 0.824573 -0.213204 0.136017
v 0.968601 -0.191020 0.074172
v 1.007176 -0.186768 0.057314
v 1.331186 -0.005946 -0.059069
v 1.333605 0.015452 -0.056455
v 1.142571 -0.160496 0.000000
v 1.093561 -0.177274 0.019466
v 1.301896 -0.065012 -0.056072
v 1.329975 -0.016526 -0.060378
v 1.285558 -0.081885 -0.051569
v 0.712006 -0.260993 0.000000
v 0.710397 -0.222065 -0.128462
v 0.887069 0.219266 -0.039433
v 0.745256 -0.081554 -0.270861
v 0.738458 -0.105411 -0.253703
v 0.709901 -0.207778 -0.175186
v 0.860569 0.187141 -0.154788
v 0.848404 0.163332 -0.180747
v 0.746563 -0.076883 -0.274458
v 0.804437 0.073471 -0.263067
v 1.093561 0.170710 -0.043447
v 0.894919 0.227702 -0.002023
v 0.745256 -0.081554 -0.270861
v 0.746563 -0.076883 -0.274458
v 1.288212 0.075610 -0.065212
v 1.331125 0.021905 -0.054202
v 1.333605 0.015452 -0.056455
v 0.751211 -0.213190 0.169484
v 0.824573 -0.213204 0.136017
v 0.968601 -0.191020 0.074172
v 1.007176 -0.186768 0.057314
v 1.331186 -0.005946 -0.059069
v 1.329975 -0.016526 -0.060378
v 1.093561 -0.177274 0.019466
v 1.142571 -0.160496 0.000000
v 1.285558 -0.081885 -0.051569
v 1.301896 -0.065012 -0.056072
v 0.712006 -0.260993 0.000000
v 0.710397 -0.222065 -0.128462
v 0.738458 -0.105411 -0.253703
v 0.709901 -0.207778 -0.175186
v 0.887069 0.219266 -0.039433
v 0.860569 0.187141 -0.154788
v 0.804437 0.073471 -0.263067
v 0.848404 0.163332 -0.180747
vn 0.4099 -0.1561 0.8987
vn 0.4108 -0.1581 0.8979
vn -0.9302 0.3479 0.1171
vn -0.9299 0.3488 0.1165
vn -0.9299 0.3492 0.1155
vn 0.1170 -0.9921 -0.0455
vn 0.1676 -0.9856 -0.0235
vn 0.1634 -0.9564 0.2421
vn 0.1123 -0.9629 0.2454
vn 0.1238 -0.8336 -0.5384
vn 0.1627 -0.8196 -0.5493
vn 0.1132 -0.9501 -0.2906
vn 0.1854 -0.6240 -0.7591
vn 0.3134 -0.9495 -0.0133
vn 0.2971 -0.9242 0.2401
vn 0.2263 -0.9448 0.2371
vn 0.3144 -0.7939 -0.5204
vn 0.2043 -0.3960 -0.8952
vn 0.3289 -0.3215 -0.8879
vn 0.1934 -0.6236 -0.7574
vn 0.3303 0.3252 -0.8861
vn 0.2049 0.2517 -0.9459
vn 0.3168 0.7955 -0.5166
vn 0.1946 0.6309 -0.7511
vn 0.2068 0.7866 -0.5819
vn 0.2048 0.9374 -0.2817
vn 0.2911 0.9190 -0.2660
vn 0.4038 -0.8953 -0.1882
vn 0.5647 -0.6987 -0.4392
vn 0.5103 -0.8295 -0.2271
vn 0.5964 -0.2815 -0.7517
vn 0.5946 0.2843 -0.7521
vn 0.5456 0.5997 -0.5854
vn 0.7150 -0.5216 -0.4655
vn 0.7461 -0.1717 -0.6433
vn 0.7453 0.2197 -0.6295
vn 0.7340 -0.0000 -0.6791
vn 0.7112 0.4591 -0.5323
vn 0.2987 0.4154 0.8592
vt 0.880872 0.880872
vt 0.000000 0.000000
vt 0.502615 0.000000
vt 0.677582 0.131380
vt 0.926195 0.374424
vt 1.000000 0.440650
vt 1.000000 0.899651
vt 0.914353 0.889639
vt 0.899651 0.899651
vt 0.440650 0.440650
vt 0.563108 0.464769
vt 0.632559 0.507364
vt 0.835121 0.706912
vt 0.858248 0.749737
vt 0.897956 0.872798
vt 0.531393 0.000000
vt 0.663478 0.361428
vt 0.502615 0.502615
vt 0.653438 0.583448
vt 0.531393 0.531393
vt 0.687955 0.000000
vt 0.765863 0.057569
vt 1.000000 0.239974
vt 1.000000 0.612506
vt 0.936633 0.608271
vt 0.624060 0.606034
vt 0.612506 0.612506
vt 0.249690 0.241145
vt 0.323313 0.272995
vt 0.587587 0.397613
vt 0.316177 0.219745
vt 0.330545 0.219745
vt 0.335778 0.306555
vt 0.322975 0.327033
vt 0.315811 0.107936
vt 0.323956 0.110455
vt 0.315767 0.133767
vt 0.315811 0.107936
vt 0.320783 0.057824
vt 0.382617 0.219745
vt 0.382617 0.232169
vt 0.368074 0.263903
vt 0.361963 0.283881
vt 0.335778 0.306555
vt 0.382617 0.138425
vt 0.677308 0.442723
vt 0.692806 0.486314
vt 0.623631 0.536571
vt 0.581504 0.508601
vt 0.655693 0.455969
vt 0.671024 0.447021
vt 0.778310 0.486314
vt 0.791223 0.449993
vt 0.847484 0.536571
vt 0.791224 0.449993
vt 0.871174 0.510762
vt 0.876706 0.517169
vt 0.733271 0.228404
vt 0.735564 0.220211
vt 0.770202 0.247474
vt 0.770202 0.301064
vt 0.729623 0.318390
vt 0.601246 0.630315
vt 0.597209 0.617891
vt 0.613958 0.617891
vt 0.676715 0.575139
vt 0.673518 0.584978
vt 0.713082 0.548716
vt 0.758034 0.548716
vt 0.794401 0.575139
vt 0.864896 0.590162
vt 0.686302 0.582104
vt 0.673518 0.584978
vt 0.723037 0.579356
vt 0.723037 0.579356
vt 0.747265 0.581860
vt 0.731054 0.580192
vt 0.792844 0.576270
vt 0.752154 0.583298
vt 0.804264 0.194589
vt 0.908945 0.462019
vt 0.312045 0.000000
vt 0.880872 0.000000
s 0
usemtl lambert2SG
f 507/647/294 466/648/294 509/649/294 510/650/294 511/651/294 512/652/294 513/653/294 508/654/294
f 513/655/295 512/656/295 515/657/295 516/658/295 517/659/295 518/660/295 514/661/295
f 466/648/296 520/662/296 519/663/296 509/664/296
f 522/665/297 520/666/297 466/648/297 478/667/297 523/668/297 524/669/297 504/670/297 521/671/297
f 505/672/298 504/673/298 524/674/298 526/675/298 525/676/298
s 1
f 492/677/299 467/678/300 482/679/301 481/680/302
f 497/681/303 468/682/304 467/678/300 492/677/299 493/683/305
f 468/682/304 497/684/303 496/685/306
f 467/678/300 469/686/307 488/687/308 484/688/309 483/689/309 482/690/301
f 469/686/307 467/678/300 468/682/304 470/691/310
f 500/692/311 471/693/312 470/694/310 468/695/304 496/696/306 495/697/313
f 472/698/314 471/693/312 500/692/311 501/699/315
f 473/700/316 472/698/314 501/701/315 499/702/317 498/703/318
f 494/704/319 503/705/319 502/706/320 473/707/316 498/708/318
f 488/709/308 469/710/307 487/711/321
f 470/694/310 474/712/322 491/713/323 487/711/321 469/710/307
f 474/712/322 470/694/310 471/693/312 475/714/324
f 475/714/324 471/693/312 472/698/314 476/715/325
f 476/715/325 472/698/314 473/700/316 506/716/326
f 506/716/326 473/700/316 502/717/320
f 474/712/322 489/718/327 491/719/323
f 474/712/322 475/714/324 490/720/328 489/718/327
f 490/721/328 475/714/324 476/715/325 486/722/329 485/723/330
f 486/722/329 476/715/325 506/724/326 480/725/331
s 0
f 479/726/332 477/727/332 478/728/332 466/648/332 507/729/332
o BaguetteBread_cell.008
v -0.743524 0.203331 0.167792
v -0.712008 0.077665 0.271493
v -0.877029 -0.077665 -0.271493
v -0.877029 0.077665 -0.271493
v -0.845513 0.203330 -0.167792
v -0.794519 0.251330 0.000000
v -0.890621 -0.055410 0.240909
v -0.888538 -0.089941 0.224214
v -1.070447 0.162941 -0.091242
v -0.887354 -0.067905 0.241468
v -1.081866 0.150350 -0.129317
v -1.079403 0.152633 -0.121381
v -1.087695 0.071520 -0.195231
v -0.922213 0.065965 0.235499
v -0.982742 0.165332 0.140197
v -0.951526 0.116037 0.190591
v -1.029660 0.186386 0.030631
v -1.043238 0.194168 0.000000
v -0.617944 0.080837 0.281582
v -0.614890 0.050569 0.281910
v -0.663560 0.236297 -0.121763
v -0.657595 0.267364 0.000000
v -0.639100 0.212795 0.174899
v -0.609924 0.000494 0.282442
v -0.662068 0.086059 -0.298196
v -0.653714 0.000340 -0.299233
v -0.666535 0.221091 -0.181130
v -0.855516 -0.170364 -0.194357
v -0.754462 -0.082451 -0.286718
v -0.650615 -0.032369 0.278078
v -0.891915 -0.204805 -0.111648
v -0.887767 -0.199799 -0.139210
v -0.883318 -0.194856 -0.161638
v -0.826139 -0.168659 0.176847
v -0.713221 -0.082502 0.267501
v -0.707126 -0.077830 0.272017
v -0.844103 -0.182255 0.160587
v -0.885924 -0.095413 0.220552
v -0.856456 -0.155936 0.180170
v -1.008926 -0.064728 -0.231696
v -0.974690 -0.109265 -0.206509
v -1.083881 0.062160 -0.204662
v -1.082071 0.057554 -0.209626
v -0.900162 -0.198763 -0.130825
v -0.912837 -0.188239 -0.156833
v -0.888538 -0.089941 0.224214
v -0.887354 -0.067905 0.241468
v -0.890621 -0.055410 0.240909
v -1.070447 0.162941 -0.091242
v -1.079403 0.152633 -0.121381
v -1.081866 0.150350 -0.129317
v -1.087695 0.071520 -0.195231
v -1.043238 0.194168 0.000000
v -0.922213 0.065965 0.235499
v -0.951526 0.116037 0.190591
v -0.982742 0.165332 0.140197
v -1.029660 0.186386 0.030631
v -0.617944 0.080837 0.281582
v -0.639100 0.212795 0.174899
v -0.614890 0.050569 0.281910
v -0.663560 0.236297 -0.121763
v -0.657595 0.267364 0.000000
v -0.662068 0.086059 -0.298196
v -0.653714 0.000340 -0.299233
v -0.666535 0.221091 -0.181130
v -0.609924 0.000494 0.282442
v -0.754462 -0.082451 -0.286718
v -0.650615 -0.032369 0.278078
v -0.707126 -0.077830 0.272017
v -0.713221 -0.082502 0.267501
v -0.826139 -0.168659 0.176847
v -0.844103 -0.182255 0.160587
v -0.891915 -0.204805 -0.111648
v -0.887767 -0.199799 -0.139210
v -0.883318 -0.194856 -0.161638
v -0.855516 -0.170364 -0.194357
v -1.083881 0.062160 -0.204662
v -1.082071 0.057554 -0.209626
v -1.008926 -0.064728 -0.231696
v -0.974690 -0.109265 -0.206509
v -0.912837 -0.188239 -0.156833
v -0.900162 -0.198763 -0.130825
v -0.856456 -0.155936 0.180170
v -0.885924 -0.095413 0.220552
vn -0.9111 -0.2227 0.3469
vn -0.9111 -0.2217 0.3476
vn 0.9923 0.0993 -0.0739
vn 0.9924 0.0976 -0.0747
vn 0.6307 -0.7746 -0.0473
vn 0.6291 -0.7759 -0.0462
vn -0.8273 -0.5290 0.1891
vn -0.8295 -0.5245 0.1919
vn -0.1505 0.8116 0.5645
vn -0.1983 0.8456 0.4956
vn -0.1725 0.6125 0.7715
vn -0.1801 0.3870 0.9043
vn -0.1437 0.3248 0.9348
vn -0.1680 -0.0010 0.9858
vn -0.1771 -0.2990 0.9377
vn -0.1559 -0.1493 0.9764
vn -0.1679 -0.6019 0.7807
vn -0.2440 -0.9384 -0.2448
vn -0.2682 -0.7776 -0.5687
vn -0.2680 -0.7842 -0.5596
vn -0.2976 -0.2219 -0.9285
vn -0.2138 -0.3462 -0.9135
vn -0.2275 -0.6491 -0.7259
vn -0.2667 -0.6463 -0.7150
vn -0.2930 0.4360 -0.8509
vn -0.2151 0.3444 -0.9139
vn -0.2698 0.6428 -0.7170
vn -0.2647 0.8143 -0.5166
vn -0.1915 0.8394 -0.5086
vn -0.2333 0.9467 -0.2222
vn -0.2286 0.9734 -0.0162
vn -0.1679 0.9851 0.0369
vn -0.2015 0.9307 0.3053
vn -0.1126 0.8026 0.5858
vn -0.1129 0.3007 0.9470
vn -0.1066 -0.0000 0.9943
vn -0.1281 -0.1768 -0.9759
vn -0.1294 0.3307 -0.9348
vn -0.1233 -0.0000 -0.9924
vn -0.1220 0.8454 -0.5200
vn -0.1155 0.9922 0.0462
vn -0.1134 0.9639 -0.2410
vt 0.786560 0.000000
vt 0.943118 0.134448
vt 1.000000 0.192018
vt 1.000000 0.616275
vt 0.858724 0.513559
vt 0.823542 0.488531
vt 0.250556 0.000000
vt 0.616275 0.616275
vt 0.192018 0.192018
vt 0.427697 0.198770
vt 0.524960 0.256105
vt 0.620720 0.320451
vt 0.661695 0.460468
vt 0.676831 0.499610
vt 0.916435 0.139531
vt 1.000000 0.139073
vt 1.000000 0.655181
vt 0.758350 0.499618
vt 0.686481 0.276038
vt 0.881226 0.238062
vt 0.731170 0.612991
vt 0.655181 0.655181
vt 0.139073 0.139073
vt 0.138493 0.000000
vt 0.882728 0.000000
vt 0.992335 0.742275
vt 0.496281 0.362631
vt 0.117272 0.000000
vt 0.861507 0.000000
vt 1.000000 0.143932
vt 0.418538 0.151949
vt 0.444795 0.157741
vt 0.925178 0.273981
vt 1.000000 0.294819
vt 1.000000 0.642433
vt 0.955480 0.677581
vt 0.913938 0.706177
vt 0.747788 0.747788
vt 0.143932 0.143932
vt 0.767887 0.046552
vt 0.795913 0.395820
vt 0.763693 0.487940
vt 0.700155 0.645992
vt 0.666929 0.646580
vt 0.642433 0.642433
vt 0.294819 0.294819
vt 0.269845 0.203979
vt 0.218356 0.000000
vt 0.751544 0.000000
vt 0.761553 0.029031
vt 0.218356 0.218356
vt 1.000000 0.213440
vt 0.751544 0.751544
vt 0.576035 0.507241
vt 0.547245 0.524853
vt 0.479158 0.471779
vt 0.471960 0.464028
vt 0.480825 0.441056
vt 0.380001 0.460576
vt 0.370534 0.460219
vt 0.363139 0.441056
vt 0.471960 0.464028
vt 0.280068 0.514443
vt 0.277970 0.512501
vt 0.359474 0.443604
vt 0.370534 0.460219
vt 0.346585 0.476165
vt 0.340863 0.479575
vt 0.281748 0.514368
vt 0.038168 0.122553
vt 0.037308 0.142206
vt 0.036157 0.125689
vt 0.033245 0.119650
vt 0.038385 0.116583
vt 0.372941 0.762206
vt 0.363139 0.787606
vt 0.292906 0.738376
vt 0.274349 0.717493
vt 0.279362 0.714426
vt 0.345426 0.750830
vt 0.465588 0.748121
vt 0.480825 0.787606
vt 0.372941 0.762206
vt 0.476002 0.739060
vt 0.535894 0.696865
vt 0.576035 0.721421
vt 0.465588 0.748121
vt 0.468017 0.745752
vt 0.393195 0.280828
vt 0.398124 0.219745
vt 0.441433 0.219745
vt 0.432553 0.326835
vt 0.391397 0.302279
vt 0.391610 0.300454
vt 0.399525 0.216900
vt 0.408658 0.130267
vt 0.450312 0.112655
vt 0.468495 0.108119
vt 0.455800 0.046470
vt 0.472179 0.040031
vt 0.074884 0.980232
vt 0.112823 0.981097
vt 0.135756 0.981629
vt 0.133353 0.998008
vt 0.015542 0.997158
vt 0.049985 0.987318
vt 0.039480 0.046470
vt 0.060822 0.036753
vt 0.043473 0.094630
vt 0.248569 0.441056
vt 0.254929 0.478487
vt 0.189983 0.479941
vt 0.127256 0.462398
vt 0.130882 0.441056
vt 0.464496 0.410062
vt 0.427065 0.393020
vt 0.463718 0.335347
vt 0.463718 0.335347
vt 0.465275 0.219745
vt 0.464291 0.295766
vt 0.465275 0.219745
vt 0.468495 0.108119
s 0
usemtl lambert2SG
f 572/730/333 573/731/333 574/732/333 575/733/333 576/734/333 577/735/333 578/736/333
f 575/737/334 574/738/334 580/739/334 581/740/334 582/741/334 583/742/334 579/743/334
f 584/744/335 586/745/335 587/746/335 588/747/335 585/748/335
f 589/749/336 591/750/336 587/751/336 586/752/336 592/753/336 590/754/336
f 602/755/337 593/756/337 590/757/337 592/758/337 594/759/337
f 595/760/338 596/761/338 597/762/338 598/763/338 599/764/338 600/765/338 601/766/338 602/767/338 594/768/338
f 604/769/339 605/770/339 606/771/339 607/772/339 608/773/339 599/774/339 598/775/339 609/776/339 610/777/339 578/778/339 603/779/339
f 610/780/340 572/781/340 578/782/340
s 1
f 527/783/341 541/784/342 542/785/343 540/786/344 528/787/345
f 533/788/346 536/789/347 562/790/348 528/787/345 540/791/344
f 563/792/349 560/793/349 561/794/349 562/790/348 536/795/347 534/796/349 564/797/349 565/798/349
f 558/799/350 557/800/350 570/801/350 571/802/351 559/803/352
f 566/804/353 529/805/354 554/806/355 559/807/352 571/808/351 567/809/356
f 569/810/357 530/811/358 529/805/354 566/812/353
f 539/813/359 537/814/360 531/815/361 530/811/358 569/816/357 568/817/359
f 535/818/362 544/819/363 532/820/364 531/821/361 537/822/360 538/823/362
f 543/824/365 541/825/342 527/826/341 532/820/364 544/819/363
f 549/827/366 527/826/341 528/828/345 545/829/367
f 550/830/368 546/831/368 545/832/367 528/833/345 562/834/348 556/835/368
f 529/836/354 555/837/369 554/838/355
f 530/839/358 551/840/370 552/841/371 555/842/369 529/843/354
f 551/844/370 530/845/358 531/821/361 553/846/372
f 553/847/372 531/821/361 532/820/364 548/848/373 547/849/374
f 548/850/373 532/820/364 527/826/341 549/851/366
o BaguetteBread_cell.009
v 0.806093 -0.065260 0.172320
v 0.832356 -0.203331 0.171239
v 1.093561 -0.147728 0.127413
v 1.285559 -0.077665 0.066985
v 1.285559 -0.096000 0.000000
v 1.335073 -0.039317 0.033911
v 1.335073 -0.048598 0.000000
v 1.335073 -0.039317 -0.033910
v 0.751039 -0.212594 0.171878
v 1.041865 -0.182310 0.044475
v 0.971290 -0.190088 0.075317
v 0.825038 -0.212614 0.138121
v 1.093561 -0.176599 0.021932
v 1.285558 -0.082574 -0.049051
v 1.149029 -0.157583 0.000000
v 1.331764 -0.015997 -0.058445
v 1.332979 0.020971 -0.052531
v 1.335160 0.014939 -0.054580
v 1.304582 -0.062932 -0.054278
v 0.960085 -0.087085 0.228854
v 1.057759 -0.076562 0.201373
v 1.285558 -0.038106 0.101105
v 1.093561 -0.072942 0.191915
v 1.349652 -0.001862 0.006804
v 1.351458 0.000754 0.000000
v 1.335073 -0.019017 0.051419
v 0.792451 -0.101788 0.266526
v 0.851789 -0.098906 0.259182
v 0.751655 -0.210948 0.177998
v 0.751039 -0.212594 0.171878
v 0.825038 -0.212614 0.138121
v 1.041865 -0.182310 0.044475
v 0.971290 -0.190088 0.075317
v 1.331764 -0.015997 -0.058445
v 1.304582 -0.062932 -0.054278
v 1.285558 -0.082574 -0.049051
v 1.149029 -0.157583 0.000000
v 1.093561 -0.176599 0.021932
v 0.960085 -0.087085 0.228854
v 1.057759 -0.076562 0.201373
v 1.093561 -0.072942 0.191915
v 1.285558 -0.038106 0.101105
v 1.335073 -0.019017 0.051419
v 1.349652 -0.001862 0.006804
v 0.792451 -0.101788 0.266526
v 0.851789 -0.098906 0.259182
v 0.751655 -0.210948 0.177998
v 1.332979 0.020971 -0.052531
v 1.335160 0.014939 -0.054580
v 1.351458 0.000754 0.000000
vn -0.4099 0.1559 -0.8987
vn -0.4093 0.1572 -0.8988
vn -0.0006 0.9324 0.3615
vn -0.9367 0.3500 0.0001
vn 0.1225 -0.8640 0.4883
vn 0.1897 -0.8386 0.5107
vn 0.1975 -0.6476 0.7360
vn 0.1242 -0.6526 0.7475
vn 0.1116 -0.9629 0.2456
vn 0.1779 -0.9552 0.2367
vn 0.3404 -0.8003 0.4936
vn 0.3415 -0.6192 0.7071
vn 0.2634 -0.6399 0.7219
vn 0.2302 -0.9459 0.2288
vn 0.3333 -0.9124 0.2377
vn 0.5647 -0.6987 0.4392
vn 0.5603 -0.5410 0.6272
vn 0.4033 -0.8941 0.1948
vn 0.5466 -0.8374 -0.0000
vn 0.5824 -0.7841 -0.2146
vn 0.8356 -0.4699 0.2845
vn 0.8308 -0.3675 0.4179
vn 0.8269 -0.5624 -0.0000
vn 0.8429 -0.4519 -0.2921
vn 0.6960 -0.6649 -0.2711
vn 0.9024 -0.2187 -0.3712
vn 0.9759 -0.2050 -0.0752
vn 0.9521 -0.2093 0.2229
vn 0.9552 0.1731 -0.2402
vn 0.9067 0.3858 -0.1705
vn 0.0005 0.9333 0.3590
vt 0.500508 0.000000
vt 1.000000 0.000000
vt 1.000000 0.395824
vt 0.877561 0.299997
vt 0.605507 0.104804
vt 0.887744 0.020983
vt 0.882218 0.093514
vt 0.836642 0.201566
vt 0.804733 0.243603
vt 0.575660 0.377542
vt 0.482583 0.402817
vt 0.395824 0.395824
vt 0.000000 0.000000
vt 0.884221 0.000000
vt 0.431215 0.000000
vt 0.397555 0.092941
vt 0.258657 0.258657
vt 0.568785 0.000000
vt 1.000000 0.499492
vt 0.972041 0.485883
vt 0.323081 0.333349
vt 0.337133 0.329035
vt 0.340518 0.385163
vt 0.330206 0.390262
vt 0.323081 0.333349
vt 0.322953 0.328808
vt 0.335859 0.307898
vt 0.660622 0.783309
vt 0.581504 0.727181
vt 0.623631 0.699210
vt 0.680293 0.740377
vt 0.680555 0.748667
vt 0.671231 0.765192
vt 0.382617 0.301064
vt 0.335859 0.307898
vt 0.362420 0.284439
vt 0.373787 0.250738
vt 0.382617 0.233743
vt 0.676715 0.660643
vt 0.706687 0.682419
vt 0.616165 0.617891
vt 0.662824 0.617891
vt 0.601757 0.631889
vt 0.616165 0.617891
vt 0.672996 0.586585
vt 0.705770 0.639534
vt 0.721150 0.650708
vt 0.706687 0.682419
vt 0.698737 0.617891
vt 0.705770 0.596248
vt 0.672996 0.586585
vt 0.687878 0.583249
vt 0.724180 0.582873
vt 0.735558 0.617891
vt 0.734147 0.622234
vt 0.746876 0.583057
vt 0.747313 0.583147
vt 0.750834 0.585705
vt 0.912326 0.771730
vt 0.914974 0.789403
vt 0.884222 0.884222
vt 0.258657 0.000000
vt 0.422600 0.133895
vt 0.482694 0.181673
vt 0.804887 0.522642
vt 0.887930 0.666104
s 0
usemtl lambert2SG
f 640/852/375 611/853/375 642/854/375 643/855/375 641/856/375
f 659/857/376 644/858/376 645/859/376 646/860/376 647/861/376 648/862/376 642/863/376 611/864/376 658/865/376
f 611/864/377 655/866/377 656/867/377 649/868/377
f 655/869/378 611/853/378 640/870/378 657/871/378
s 1
f 639/872/379 612/873/380 638/874/381 637/875/382
f 639/876/379 619/877/383 622/878/384 612/873/380
f 638/879/381 612/880/380 613/881/385 651/882/386 650/883/387 630/884/387
f 613/885/385 612/873/380 622/886/384 621/887/388 620/888/388 623/889/389
f 651/882/386 613/881/385 614/890/390 652/891/391
f 625/892/392 615/893/393 614/890/390 613/881/385 623/894/389
f 615/893/393 625/895/392 624/896/394
f 614/890/390 616/897/395 653/898/396 652/899/391
f 616/897/395 614/890/390 615/893/393 617/900/397
f 618/901/398 617/900/397 615/893/393 624/902/394 629/903/399
f 626/904/400 618/901/398 629/903/399
f 616/897/395 660/905/401 654/906/402 653/898/396
f 616/897/395 617/900/397 660/905/401
f 660/905/401 617/900/397 618/901/398
f 660/905/401 618/901/398 626/904/400
f 628/907/403 660/905/401 626/904/400
f 660/905/401 628/908/403 627/909/404
s 0
f 634/910/405 635/911/405 658/912/405 611/864/405 649/913/405 631/914/405 633/915/405 632/916/405 636/917/405
