# Blender 5.0.0
# www.blender.org
mtllib bottle.mtl
o bottle_cell
v -0.123926 4.516487 -0.984840
v -0.104166 4.482197 -0.999041
v 1.961334 2.384686 -0.999026
v -0.103984 -0.488482 -0.998854
v -1.000071 -0.512942 -0.348168
v 0.472637 -0.527864 -0.998745
v 0.623153 -0.636126 -0.233141
v -0.793026 -0.585401 0.114547
v 0.233055 3.481183 0.038038
v 2.190030 1.897047 0.774348
v 2.193036 1.833789 0.907173
v 0.598565 2.496906 1.666042
v -1.340657 1.998609 1.800014
v 2.155336 2.554841 -0.602107
v -1.250975 4.312123 -0.165701
v 0.760642 4.212473 -0.342094
v 0.278503 4.041192 0.240467
v 0.940199 3.481183 -0.935263
v -1.417264 2.063684 1.675341
v -2.146620 2.685289 0.485220
v -0.986235 3.481183 -0.358134
v 2.190030 1.897047 0.774348
v 2.193036 1.833789 0.907173
v 0.598565 2.496906 1.666042
v 0.598565 2.496906 1.666042
v -1.340657 1.998609 1.800014
v 2.155336 2.554841 -0.602107
v 0.760642 4.212473 -0.342094
v 0.278503 4.041192 0.240467
v 0.278503 4.041192 0.240467
v -1.250975 4.312123 -0.165701
v 0.940199 3.481183 -0.935263
v 0.940199 3.481183 -0.935263
v -1.417264 2.063684 1.675341
v -2.146620 2.685289 0.485220
v -0.986235 3.481183 -0.358134
v -0.986235 3.481183 -0.358134
v 0.233055 3.481183 0.038038
v 0.233055 3.481183 0.038038
v 0.233055 3.481183 0.038038
vn 0.1885 -0.5081 0.8404
vn 0.8659 -0.4437 -0.2309
vn -0.0662 -0.9899 -0.1254
vn -0.0661 -0.9897 -0.1270
vn -0.0675 -0.9892 -0.1302
vn -0.5878 -0.0000 -0.8090
vn 0.0762 0.9378 0.3388
vn 0.5978 0.5884 -0.5444
vn -0.8612 -0.3928 0.3226
vn -0.8606 -0.3934 0.3235
vn 0.8658 -0.4427 -0.2332
vn -0.5836 -0.0001 -0.8120
vn 0.5830 0.5741 -0.5750
vn -0.1748 0.8247 0.5379
vn 0.4999 0.7863 0.3632
vn -0.2944 -0.3037 0.9061
vn 0.7794 -0.2680 0.5663
vn -0.0000 -0.0001 -1.0000
vt 1.000000 0.000000
vt 1.000000 1.000000
vt 0.375720 0.375720
vt 0.631734 0.208041
vt 0.338283 0.000000
vt 0.372594 0.372594
vt 1.000000 0.375720
vt 0.000000 0.000000
vt 0.300670 0.300670
vt 0.720072 0.180461
vt 0.551983 0.000000
vt 0.272639 0.272639
vt 0.448017 0.000000
vt 0.577016 0.321868
vt 1.000000 0.272639
vt 0.526842 0.023877
vt 0.167357 0.167357
vt 1.000000 0.672301
vt 0.300670 0.000000
vt 0.672301 0.672301
vt 1.000000 0.661717
vt 0.167357 0.000000
vt 1.000000 0.372594
vt 0.127030 0.379402
vt 0.131943 0.374147
vt 0.213613 0.412310
vt 0.176767 0.491150
vt 0.119183 0.492155
vt 0.080216 0.429604
vt 0.777760 0.716784
vt 0.730832 0.743593
vt 0.652337 0.706015
vt 0.688926 0.629585
vt 0.695331 0.631224
vt 0.761697 0.648392
vt 0.181979 0.517467
vt 0.111229 0.531478
vt 0.119183 0.492155
vt 0.216146 0.510694
vt 0.225959 0.468765
s 0
usemtl blinn1SG
f 8/1/1 7/2/1 23/3/1 24/4/1 26/5/1
f 22/6/2 23/7/2 7/2/2
f 8/8/3 5/1/3 7/2/3
f 5/8/4 6/1/4 7/2/4
f 5/8/5 4/1/5 6/2/5
f 1/8/6 4/1/6 5/2/6 35/9/6 36/10/6 31/11/6
f 28/12/7 1/8/7 31/13/7 29/14/7
f 3/8/8 1/1/8 28/15/8 32/16/8 27/17/8
f 5/1/9 34/18/9 35/19/9
f 34/20/10 5/8/10 8/1/10 26/21/10
f 6/2/11 3/8/11 27/22/11 22/23/11 7/2/11
f 1/8/12 2/1/12 4/2/12
f 1/8/13 3/1/13 2/2/13
s 1
f 19/24/14 13/25/14 25/26/14 38/27/14 37/28/14 20/29/14
f 33/30/15 39/31/15 12/32/15 11/33/15 10/34/15 14/35/15
f 40/27/16 30/36/16 15/37/16 21/38/16
f 16/39/17 17/36/17 9/27/17 18/40/17
s 0
f 2/8/18 3/1/18 6/2/18 4/8/18
o bottle_cell.001
v 0.964457 1.511601 -5.295746
v -0.103076 4.481658 -1.000977
v -0.103173 -0.488648 -1.001447
v 1.960823 2.384757 -1.001315
v 0.472546 -0.527257 -1.001139
v 0.233055 3.481183 -2.038039
v 0.324106 4.603106 -2.443584
v 0.664561 4.603106 -1.974987
v 0.671646 4.574388 -1.951647
v 0.372341 4.603106 -1.654033
v -0.134479 4.603106 -1.097587
v 0.939923 3.481183 -1.065118
v 2.154916 2.554922 -1.398296
v 1.139991 -1.007302 -4.388114
v 2.210441 1.511601 -3.580795
v -0.486284 4.603106 -2.180272
v -1.263672 1.511601 -4.571783
v -0.375873 3.481183 -1.840185
v -1.135005 -0.827607 -4.175554
v 0.848820 -1.038264 -4.780691
v 0.664561 4.603106 -1.974987
v 0.664561 4.603106 -1.974987
v 0.372341 4.603106 -1.654033
v 0.671646 4.574388 -1.951647
v -0.134479 4.603106 -1.097587
v 0.939923 3.481183 -1.065118
v 0.939923 3.481183 -1.065118
v 2.154916 2.554922 -1.398296
v 1.139991 -1.007302 -4.388114
v 2.210441 1.511601 -3.580795
v 2.210441 1.511601 -3.580795
v -0.486284 4.603106 -2.180272
v -0.486284 4.603106 -2.180272
v -0.375873 3.481183 -1.840185
v -0.375873 3.481183 -1.840185
v -1.263672 1.511601 -4.571783
v -1.263672 1.511601 -4.571783
v -1.135005 -0.827607 -4.175554
v 0.848820 -1.038264 -4.780691
v 0.848820 -1.038264 -4.780691
v 0.964457 1.511601 -5.295746
v 0.964457 1.511601 -5.295746
v 0.964457 1.511601 -5.295746
v 0.324106 4.603106 -2.443584
v 0.324106 4.603106 -2.443584
v 0.233055 3.481183 -2.038039
v 0.233055 3.481183 -2.038039
v 0.233055 3.481183 -2.038039
vn 0.5974 0.5894 0.5439
vn -0.0000 -0.0000 1.0000
vn -0.0000 1.0000 -0.0000
vn -0.9510 -0.0000 0.3091
vn 0.5978 0.5883 0.5445
vn 0.8658 -0.4426 0.2335
vn -0.3042 -0.1753 -0.9363
vn 0.7994 -0.1536 -0.5808
vn -0.0663 -0.9897 0.1272
vn -0.1748 0.8247 -0.5379
vn 0.4999 0.7863 -0.3632
vn -0.2944 -0.3037 -0.9061
vn 0.7794 -0.2680 -0.5663
vt 1.000000 0.122800
vt 1.000000 0.193522
vt 0.923790 0.122849
vt 0.000000 0.000000
vt 1.000000 0.000000
vt 1.000000 1.000000
vt 0.582074 0.769410
vt 0.568947 0.769410
vt 0.584241 0.704559
vt 0.620646 0.716388
vt 0.604842 0.767963
vt 1.000000 0.708919
vt 0.761054 0.752146
vt 0.811351 0.144056
vt 0.744266 0.183845
vt 0.269311 0.000000
vt 1.000000 0.091382
vt 0.490198 0.014727
vt 0.193522 0.193522
vt 0.122801 0.122801
vt 0.291081 0.000000
vt 0.593790 0.446109
vt 0.091382 0.091382
vt 0.779615 0.000000
vt 0.838385 0.228502
vt 0.836520 0.335223
vt 0.731290 0.333387
vt 0.745409 0.217265
vt 0.745409 0.217265
vt 0.639149 0.309337
vt 0.723809 0.213082
vt 1.000000 0.220385
vt 0.730689 0.000000
vt 0.870415 0.130018
vt 0.833779 0.491652
vt 0.805021 0.491150
vt 0.988000 0.668397
vt 0.830930 0.743593
vt 0.784021 0.716795
vt 0.800085 0.648410
vt 0.905314 0.621160
vt 0.832852 0.544542
vt 0.794579 0.543874
vt 0.770896 0.533096
vt 0.770508 0.531449
vt 0.755848 0.468773
s 0
usemtl blinn1SG
f 63/41/19 64/42/19 61/43/19
f 45/44/20 44/45/20 42/46/20 43/44/20
s 1
f 50/47/21 62/48/21 84/49/21 72/50/21 51/51/21
s 0
f 42/45/22 65/52/22 73/53/22 74/54/22 76/55/22 78/56/22 43/45/22
f 42/44/23 44/45/23 68/57/23 66/58/23 64/59/23 63/60/23 65/61/23
f 70/62/24 68/63/24 44/44/24 45/44/24 69/64/24
s 1
f 59/65/25 77/66/25 81/67/25 80/68/25
f 79/69/26 82/67/26 71/70/26 54/71/26
s 0
f 69/72/27 45/46/27 43/44/27 78/73/27 60/74/27
s 1
f 75/75/28 86/76/28 83/67/28 57/66/28
f 41/77/29 87/78/29 67/79/29 53/80/29 55/81/29
f 56/82/30 85/83/30 88/76/30 58/75/30
f 46/76/31 47/83/31 48/84/31 49/85/31 52/86/31
o bottle_cell.002
v -0.125035 4.518333 -0.984465
v -1.372929 4.603106 -0.107817
v 0.324106 4.603106 0.443584
v -1.252385 4.314097 -0.165498
v -1.286374 4.351332 -0.164064
v -0.158403 4.603106 -1.008900
v -1.372929 4.603106 -0.244649
v 0.848059 4.603106 -0.277576
v -0.046918 4.603106 -0.928017
v 0.777856 4.290627 -0.328807
v 0.760513 4.214021 -0.341185
v 0.278638 4.042850 0.241066
v -1.252385 4.314097 -0.165498
v -1.286374 4.351332 -0.164064
v -1.286374 4.351332 -0.164064
v -1.372929 4.603106 -0.244649
v -1.372929 4.603106 -0.244649
v -0.158403 4.603106 -1.008900
v 0.848059 4.603106 -0.277576
v 0.848059 4.603106 -0.277576
v -0.046918 4.603106 -0.928017
v 0.777856 4.290627 -0.328807
v 0.760513 4.214021 -0.341185
v 0.278638 4.042850 0.241066
v 0.278638 4.042850 0.241066
v -1.372929 4.603106 -0.107817
v -1.372929 4.603106 -0.107817
v 0.324106 4.603106 0.443584
v 0.324106 4.603106 0.443584
vn 0.5879 0.0005 -0.8089
vn 0.5872 -0.0022 -0.8094
vn -0.0762 -0.9378 -0.3387
vn -0.4850 -0.4133 -0.7707
vn -0.0000 1.0000 -0.0000
vn -0.9457 -0.3251 -0.0000
vn -0.2944 -0.3037 0.9061
vn 0.7794 -0.2680 0.5663
vt 0.900061 0.762130
vt 1.000000 0.710351
vt 1.000000 0.960294
vt 0.960294 0.960294
vt 0.710351 0.710351
vt 0.727268 0.000000
vt 1.000000 0.000000
vt 1.000000 0.630683
vt 1.000000 0.551877
vt 1.000000 1.000000
vt 0.727268 0.727268
vt 0.678047 0.422975
vt 0.915458 0.574034
vt 0.630683 0.630683
vt 0.000000 0.000000
vt 0.448123 0.000000
vt 0.756634 0.301339
vt 0.600908 0.782963
vt 0.605917 0.768971
vt 0.660477 0.729330
vt 0.660477 0.809489
vt 0.584241 0.834260
vt 0.560704 0.801863
vt 0.529571 0.803786
vt 0.523424 0.803786
vt 0.527044 0.791826
vt 0.181995 0.517545
vt 0.187209 0.543874
vt 0.107062 0.545273
vt 0.109772 0.533353
vt 0.111173 0.531573
vt 0.216142 0.510775
vt 0.217629 0.514022
vt 0.223657 0.527288
s 0
usemtl blinn1SG
f 107/87/32 110/88/32 109/89/32
f 109/90/33 110/91/33 111/92/33 89/93/33 106/94/33
f 101/95/34 89/96/34 111/97/34 112/98/34
f 104/99/35 106/100/35 89/101/35 101/102/35 102/103/35
s 1
f 97/104/36 94/105/36 105/106/36 114/107/36 116/108/36 108/109/36
f 115/110/37 95/111/37 103/112/37
f 113/113/38 117/114/38 90/115/38 93/116/38 92/117/38
f 99/118/39 98/119/39 96/120/39 91/114/39 100/113/39
o bottle_cell.003
v 0.964457 1.511601 3.295746
v 0.623951 -0.636893 -0.232289
v -0.792747 -0.587106 0.116812
v -1.007154 -1.004408 0.774905
v 0.779420 -2.568568 2.471581
v 2.119303 -1.711069 0.854122
v 2.524526 1.511601 1.148494
v 2.193853 1.832771 0.908251
v 0.598941 2.495893 1.667718
v -1.340357 1.997216 1.802249
v -1.377917 1.915022 1.916077
v -1.559952 1.511601 2.475516
v -1.408607 -1.235614 2.010254
v 0.101716 -2.307122 2.300339
v 0.779420 -2.568568 2.471581
v 0.779420 -2.568568 2.471581
v 2.119303 -1.711069 0.854122
v 2.524526 1.511601 1.148494
v 2.524526 1.511601 1.148494
v 2.193853 1.832771 0.908251
v 0.598941 2.495893 1.667718
v 0.598941 2.495893 1.667718
v -1.340357 1.997216 1.802249
v -1.377917 1.915022 1.916077
v -1.559952 1.511601 2.475516
v -1.559952 1.511601 2.475516
v -1.408607 -1.235614 2.010254
v 0.101716 -2.307122 2.300339
v 0.964457 1.511601 3.295746
v 0.964457 1.511601 3.295746
v 0.964457 1.511601 3.295746
vn -0.9510 0.0001 -0.3093
vn 0.5878 -0.0000 -0.8090
vn -0.9501 0.0021 -0.3120
vn -0.1680 -0.8067 -0.5666
vn -0.5081 -0.8015 -0.3151
vn -0.3042 -0.1753 0.9363
vn 0.7994 -0.1536 0.5808
vn -0.1748 0.8247 0.5379
vn 0.4999 0.7863 0.3632
vn -0.1890 0.5081 -0.8403
vt 0.000000 0.000000
vt 0.480554 0.000000
vt 0.661598 0.526034
vt 0.557308 0.557308
vt 0.624134 0.000000
vt 0.714185 0.104561
vt 0.425840 0.425840
vt 0.338475 0.000000
vt 1.000000 0.000000
vt 1.000000 0.557308
vt 0.425840 0.000000
vt 0.382361 0.111706
vt 0.593452 0.593452
vt 0.593452 0.000000
vt 0.480553 0.480553
vt 0.227906 0.147575
vt 0.250498 0.333387
vt 0.131276 0.335468
vt 0.129096 0.210131
vt 0.196787 0.160049
vt 0.227906 0.147575
vt 0.328863 0.161514
vt 0.365866 0.303275
vt 0.213651 0.412228
vt 0.131985 0.374035
vt 0.131846 0.367508
vt 0.131276 0.335468
vt 0.573761 0.668397
vt 0.677291 0.609253
vt 0.688874 0.629529
vt 0.652257 0.705976
vt 1.000000 1.000000
vt 0.338475 0.338475
vt 0.791777 0.368108
vt 0.624134 0.624134
s 0
usemtl blinn1SG
f 121/121/40 144/122/40 142/123/40 141/124/40 120/121/40
f 119/121/41 137/125/41 135/126/41 134/127/41
f 140/128/42 120/129/42 141/130/42
f 119/121/43 134/131/43 132/132/43 145/133/43 121/121/43 120/121/43
f 121/121/44 145/134/44 144/135/44
s 1
f 133/136/45 146/137/45 143/138/45 130/139/45 131/140/45
f 122/141/46 123/142/46 136/143/46 147/137/46
f 148/137/47 139/144/47 127/145/47 128/146/47 129/147/47
f 118/148/48 124/149/48 125/150/48 138/151/48
s 0
f 119/129/49 120/152/49 140/153/49 126/154/49 137/155/49
o bottle_cell.004
v -0.123381 4.518546 -0.985316
v -0.103739 4.485203 -0.999640
v 1.961837 2.386149 -1.000145
v 0.987234 3.481183 -1.000000
v 1.372931 4.603106 -1.000000
v -0.133847 4.603106 -1.093593
v -0.155078 4.603106 -1.017223
v -0.156990 4.603106 -1.010020
v 0.849119 4.603106 -0.279034
v 0.836839 4.548920 -0.287773
v 0.666337 4.603106 -1.972543
v 0.686558 4.520280 -1.905520
v 2.155309 2.555837 -0.604227
v 0.766635 4.193074 -0.359523
v 0.941489 3.481183 -0.937037
v 0.761474 4.214261 -0.342395
v 0.941581 3.481183 -1.062836
v 2.155258 2.555796 -1.395933
v 2.276141 2.661818 -1.000000
v -0.133847 4.603106 -1.093593
v -0.155078 4.603106 -1.017223
v -0.156990 4.603106 -1.010020
v 0.849119 4.603106 -0.279034
v 0.849119 4.603106 -0.279034
v 0.836839 4.548920 -0.287773
v 0.666337 4.603106 -1.972543
v 0.666337 4.603106 -1.972543
v 0.686558 4.520280 -1.905520
v 0.766635 4.193074 -0.359523
v 0.941489 3.481183 -0.937037
v 0.941489 3.481183 -0.937037
v 2.155309 2.555837 -0.604227
v 0.761474 4.214261 -0.342395
v 0.941581 3.481183 -1.062836
v 0.941581 3.481183 -1.062836
v 2.155258 2.555796 -1.395933
v 2.276141 2.661818 -1.000000
v 2.276141 2.661818 -1.000000
v 1.372931 4.603106 -1.000000
v 1.372931 4.603106 -1.000000
v 0.987234 3.481183 -1.000000
v 0.987234 3.481183 -1.000000
v 0.987234 3.481183 -1.000000
vn -0.8755 -0.4175 -0.2434
vn -0.8784 -0.4172 -0.2332
vn -0.5878 0.0027 0.8090
vn -0.5986 -0.5871 -0.5450
vn -0.5978 -0.5884 0.5444
vn -0.5983 -0.5868 0.5456
vn -0.5877 0.0003 0.8091
vn 0.6594 -0.7518 -0.0000
vn -0.5979 -0.5883 -0.5444
vn -0.0000 1.0000 -0.0000
vn 0.4999 0.7863 0.3632
vn 0.4999 0.7863 -0.3632
vn 0.7794 -0.2680 0.5663
vn 0.7794 -0.2680 -0.5663
vt 1.000000 0.700693
vt 0.299429 0.000000
vt 1.000000 0.000000
vt 1.000000 0.626727
vt 0.700693 0.700693
vt 0.000000 0.000000
vt 0.626727 0.626727
vt 0.225442 0.000000
vt 0.627061 0.393778
vt 1.000000 0.700571
vt 0.791327 0.491903
vt 0.791570 0.000000
vt 1.000000 0.730098
vt 1.000000 1.000000
vt 0.166901 0.000000
vt 0.535342 0.508847
vt 0.730098 0.730098
vt 0.727269 0.000000
vt 0.727269 0.727269
vt 1.000000 0.774558
vt 0.908923 0.908923
vt 0.926015 0.790420
vt 1.000000 0.833099
vt 0.985515 0.508826
vt 0.908923 0.000000
vt 0.791570 0.791570
vt 0.605853 0.711581
vt 0.560656 0.801798
vt 0.537125 0.769410
vt 0.568867 0.769410
vt 0.604814 0.767876
vt 0.605767 0.711554
vt 0.761799 0.648417
vt 0.780881 0.646390
vt 0.780881 0.715001
vt 0.777845 0.716735
vt 0.783911 0.716732
vt 0.799971 0.648418
vt 0.226049 0.468724
vt 0.229231 0.467276
vt 0.260169 0.510672
vt 0.223731 0.527254
vt 0.222678 0.524957
vt 0.216210 0.510756
vt 0.216492 0.509543
vt 0.769669 0.528295
vt 0.770772 0.533040
vt 0.721619 0.510672
vt 0.752557 0.467275
vt 0.755733 0.468720
s 0
usemtl blinn1SG
f 169/156/50 168/157/50 150/158/50
f 149/158/51 170/159/51 169/160/51 150/161/51
f 170/162/52 149/161/52 173/163/52 171/164/52
f 168/165/53 174/166/53 176/167/53 150/158/53
f 177/168/54 150/169/54 151/161/54 180/170/54 178/171/54
f 177/172/55 181/173/55 149/158/55 150/169/55
f 149/169/56 181/174/56 173/175/56
f 151/169/57 184/176/57 185/177/57 180/178/57
f 182/179/58 184/180/58 151/158/58 150/169/58 176/181/58
s 1
f 156/182/59 172/183/59 187/184/59 175/185/59 154/186/59 155/187/59
f 161/188/60 186/189/60 189/190/60 179/191/60
f 183/192/61 190/190/61 167/189/61 166/193/61
f 163/194/62 191/195/62 188/196/62 157/197/62 158/198/62 164/199/62 162/200/62
f 160/201/63 159/202/63 153/203/63 152/204/63 165/205/63
o bottle_cell.005
v 0.687153 -4.603107 -4.060617
v -2.910820 -4.603107 -2.891567
v 0.687153 -4.603107 2.060618
v 2.910822 -4.603107 -1.000000
v -1.007309 -1.005437 0.772727
v 0.623731 -0.637492 -0.233851
v 0.472875 -0.529353 -0.999938
v -0.793726 -0.587844 0.114934
v -1.000269 -0.514570 -0.349011
v -0.104593 -0.491019 -0.999834
v -0.306462 -4.603107 1.737774
v -2.910820 -4.603107 -1.847008
v -3.591955 -1.057494 -2.785119
v -3.604527 -0.992053 -2.953717
v -3.607769 -0.975179 -2.997410
v -3.612702 -0.949497 -3.064244
v 0.102552 -2.309751 2.300119
v -3.608489 -0.971431 -3.344939
v -1.135920 -0.829827 -4.174841
v 0.779328 -2.570590 2.471173
v 1.923112 -1.838154 1.090554
v 0.848741 -1.040001 -4.780340
v 1.139937 -1.008982 -4.387745
v 2.119738 -1.712586 0.853122
v 3.302842 -2.562466 -1.000000
v -2.910820 -4.603107 -1.847008
v -2.910820 -4.603107 -1.847008
v -0.306462 -4.603107 1.737774
v -0.306462 -4.603107 1.737774
v -3.591955 -1.057494 -2.785119
v -3.604527 -0.992053 -2.953717
v -3.607769 -0.975179 -2.997410
v -3.612702 -0.949497 -3.064244
v 0.102552 -2.309751 2.300119
v -3.608489 -0.971431 -3.344939
v -3.608489 -0.971431 -3.344939
v -1.135920 -0.829827 -4.174841
v 0.779328 -2.570590 2.471173
v 0.779328 -2.570590 2.471173
v 1.923112 -1.838154 1.090554
v 0.848741 -1.040001 -4.780340
v 0.848741 -1.040001 -4.780340
v 1.139937 -1.008982 -4.387745
v 2.119738 -1.712586 0.853122
v 3.302842 -2.562466 -1.000000
v 3.302842 -2.562466 -1.000000
v 0.687153 -4.603107 -4.060617
v 0.687153 -4.603107 -4.060617
v -2.910820 -4.603107 -2.891567
v -2.910820 -4.603107 -2.891567
v 0.687153 -4.603107 2.060618
v 0.687153 -4.603107 2.060618
v 2.910822 -4.603107 -1.000000
v 2.910822 -4.603107 -1.000000
vn -0.8090 0.0001 0.5878
vn -0.4931 0.7980 0.3465
vn -0.4918 0.7993 0.3452
vn -0.4907 0.8006 0.3439
vn -0.0000 -1.0000 -0.0000
vn 0.5835 0.8121 -0.0001
vn 0.1677 0.8066 0.5668
vn -0.0834 0.9934 -0.0789
vn 0.0659 0.9897 0.1267
vn 0.1684 0.8069 0.5662
vn -0.3042 -0.1753 -0.9363
vn -0.9820 -0.1887 -0.0000
vn -0.3042 -0.1753 0.9363
vn 0.7994 -0.1536 0.5808
vn 0.7994 -0.1536 -0.5808
vn 0.0660 0.9897 -0.1271
vt 1.000000 0.000000
vt 1.000000 0.826174
vt 0.754880 0.740861
vt 0.233783 0.219860
vt 0.406344 0.000000
vt 0.826174 0.826174
vt 0.000000 0.000000
vt 1.000000 0.841045
vt 1.000000 0.831608
vt 0.841045 0.841045
vt 0.833365 0.000000
vt 0.831608 0.831608
vt 0.125981 0.747199
vt 0.125981 0.577249
vt 0.287613 0.524732
vt 0.242977 0.662108
vt 0.387507 0.662224
vt 0.287613 0.799717
vt 0.779535 0.779535
vt 0.426006 0.000000
vt 0.762867 0.353954
vt 0.508654 0.339872
vt 0.630016 0.000000
vt 1.000000 1.000000
vt 0.406344 0.406344
vt 0.884194 0.861349
vt 0.833365 0.833365
vt 0.730572 0.000000
vt 0.369984 0.000000
vt 0.426006 0.426006
vt 0.765148 0.054921
vt 0.935072 0.057887
vt 0.955691 0.223985
vt 0.838436 0.228401
vt 0.745419 0.217186
vt 0.451442 0.305849
vt 0.409299 0.468041
vt 0.401725 0.471035
vt 0.399762 0.471807
vt 0.396760 0.472981
vt 0.384150 0.471978
vt 0.404517 0.305849
vt 0.227894 0.147483
vt 0.196817 0.159929
vt 0.169714 0.055740
vt 0.216640 0.054921
vt 0.328892 0.161435
vt 0.314077 0.159402
vt 0.227894 0.147483
vt 0.381081 0.012000
vt 0.414527 0.099151
vt 0.567261 0.099151
vt 0.600707 0.012000
vt 0.723817 0.213005
vt 1.000000 0.779535
vt 0.869877 0.103120
vt 0.730572 0.730572
s 0
usemtl blinn1SG
f 196/206/64 221/207/64 217/208/64 219/209/64 225/210/64
f 221/211/65 196/212/65 199/206/65 222/213/65
f 200/206/66 223/214/66 222/215/66 199/212/66
f 224/216/67 223/217/67 200/212/67
s 1
f 239/218/68 244/219/68 243/220/68 220/221/68 218/222/68 240/223/68
s 0
f 234/224/69 198/212/69 197/212/69 235/225/69 236/226/69
f 229/227/70 231/228/70 197/206/70 199/206/70 196/229/70 225/230/70
f 226/231/71 224/232/71 200/212/71 201/212/71 228/233/71
f 197/212/72 198/206/72 201/206/72 200/206/72 199/229/72
f 197/212/73 231/234/73 235/235/73
s 1
f 238/236/74 241/237/74 227/238/74 210/239/74 232/240/74
f 203/241/75 204/242/75 205/243/75 206/244/75 207/245/75 209/246/75 193/247/75
f 230/248/76 208/249/76 202/250/76 242/251/76
f 215/252/77 212/253/77 211/254/77 194/251/77 245/255/77 237/256/77
f 216/257/78 195/258/78 192/236/78 233/240/78 214/259/78
s 0
f 234/260/79 213/261/79 228/262/79 201/212/79 198/206/79
o bottle_cell.006
v -4.085495 1.511601 -3.654917
v -0.105779 4.483948 -1.000423
v -0.105278 -0.489226 -1.000516
v -0.124930 4.517693 -0.985993
v -0.987232 3.481183 -1.641542
v -1.001506 -0.512228 -0.349935
v -1.372929 4.603106 -1.892183
v -0.149012 4.603106 -1.134063
v -0.378059 3.481183 -1.839475
v -0.488589 4.603106 -2.179523
v -1.136774 -0.827924 -4.174920
v -1.265456 1.511601 -4.571203
v -3.608787 -0.969877 -3.345134
v -4.085495 1.511601 -2.039439
v -3.613017 -0.947857 -3.064726
v -2.147982 2.686270 0.483272
v -2.209722 2.704040 0.435964
v -1.372929 4.603106 -0.247121
v -1.297726 4.384354 -0.176658
v -0.387486 4.603106 -0.866642
v -1.253543 4.313078 -0.166216
v -1.285096 4.347616 -0.164894
v -0.159007 4.603106 -1.010378
v -0.140419 4.603106 -1.080396
v -0.136582 4.603106 -1.095629
v -0.987232 3.481183 -0.359696
v -1.003382 3.528161 -0.347963
v -1.003420 3.470893 -0.347939
v -0.378059 3.481183 -1.839475
v -0.378059 3.481183 -1.839475
v -0.488589 4.603106 -2.179523
v -0.488589 4.603106 -2.179523
v -0.149012 4.603106 -1.134063
v -1.265456 1.511601 -4.571203
v -1.265456 1.511601 -4.571203
v -1.136774 -0.827924 -4.174920
v -3.608787 -0.969877 -3.345134
v -3.608787 -0.969877 -3.345134
v -4.085495 1.511601 -2.039439
v -4.085495 1.511601 -2.039439
v -3.613017 -0.947857 -3.064726
v -2.147982 2.686270 0.483272
v -2.209722 2.704040 0.435964
v -2.209722 2.704040 0.435964
v -1.372929 4.603106 -0.247121
v -1.372929 4.603106 -0.247121
v -1.297726 4.384354 -0.176658
v -0.387486 4.603106 -0.866642
v -0.159007 4.603106 -1.010378
v -1.285096 4.347616 -0.164894
v -1.285096 4.347616 -0.164894
v -1.253543 4.313078 -0.166216
v -0.140419 4.603106 -1.080396
v -0.136582 4.603106 -1.095629
v -0.987232 3.481183 -0.359696
v -0.987232 3.481183 -0.359696
v -1.003420 3.470893 -0.347939
v -1.003420 3.470893 -0.347939
v -1.003382 3.528161 -0.347963
v -1.003382 3.528161 -0.347963
v -4.085495 1.511601 -3.654917
v -4.085495 1.511601 -3.654917
v -4.085495 1.511601 -3.654917
v -1.372929 4.603106 -1.892183
v -1.372929 4.603106 -1.892183
v -0.987232 3.481183 -1.641542
v -0.987232 3.481183 -1.641542
v -0.987232 3.481183 -1.641542
vn 0.0834 -0.9934 0.0791
vn -0.6279 -0.3991 0.6681
vn -0.0000 1.0000 -0.0000
vn 0.4843 0.4147 0.7704
vn 0.4848 0.4135 0.7707
vn 0.8785 0.4171 0.2332
vn 0.8857 0.4072 0.2231
vn 0.9515 0.0001 -0.3077
vn 0.6018 -0.0000 0.7986
vn -0.3042 -0.1753 -0.9363
vn -0.9820 -0.1887 -0.0000
vn 0.9511 -0.0000 -0.3090
vn -0.1748 0.8247 -0.5379
vn -0.5365 0.8439 -0.0000
vn -0.1748 0.8247 0.5379
vn -0.2944 -0.3037 -0.9061
vn -0.9457 -0.3251 -0.0000
vn -0.2944 -0.3037 0.9061
vn 0.5876 -0.0001 0.8091
vt 1.000000 1.000000
vt 0.000000 0.000000
vt 0.833328 0.000000
vt 0.884123 0.022750
vt 0.730552 0.730552
vt 0.599033 0.046764
vt 0.166672 0.000000
vt 0.699313 0.000000
vt 0.670121 0.255547
vt 0.616208 0.761494
vt 0.605944 0.711611
vt 0.605109 0.768785
vt 0.604936 0.768254
vt 0.605495 0.711465
vt 0.620750 0.716422
vt 0.660477 0.729330
vt 0.545591 0.000000
vt 0.915315 0.000000
vt 0.915118 0.340719
vt 1.000000 0.000000
vt 1.000000 0.630272
vt 0.915315 0.915315
vt 0.545591 0.545591
vt 0.544839 0.277033
vt 0.551427 0.000000
vt 0.630271 0.630271
vt 0.631989 0.000000
vt 1.000000 0.705518
vt 0.631989 0.631989
vt 1.000000 0.990328
vt 0.705518 0.705518
vt 0.969788 0.337549
vt 0.836604 0.335225
vt 0.838470 0.228489
vt 0.955700 0.224056
vt 0.442797 0.585563
vt 0.370225 0.585563
vt 0.384141 0.472049
vt 0.396738 0.473056
vt 0.730552 0.000000
vt 0.821730 0.424833
vt 0.402405 0.174522
vt 0.258003 0.248295
vt 0.009672 0.000000
vt 0.836604 0.335225
vt 0.862652 0.492156
vt 0.833882 0.491654
vt 0.518256 0.750490
vt 0.460672 0.750490
vt 0.554000 0.685414
vt 0.518785 0.749628
vt 0.118576 0.491348
vt 0.076863 0.431152
vt 0.080132 0.429683
vt 0.833882 0.491654
vt 0.874726 0.545273
vt 0.832961 0.544544
vt 0.526479 0.793394
vt 0.523313 0.803786
vt 0.449412 0.803786
vt 0.518783 0.752722
vt 0.527007 0.791649
vt 0.111113 0.531526
vt 0.109812 0.533177
vt 0.118630 0.494380
vt 0.448573 0.000000
vt 0.516146 0.165707
vt 0.519765 0.175667
vt 0.527679 0.177135
vt 0.300688 0.000000
s 0
usemtl blinn1SG
f 248/263/80 251/264/80 286/265/80 282/266/80 281/267/80
f 284/268/81 286/269/81 251/264/81 287/270/81 288/271/81
s 1
f 265/272/82 268/273/82 298/274/82 270/275/82 278/276/82 277/277/82 309/278/82 291/278/82
s 0
f 292/279/83 293/280/83 290/281/83
f 249/282/84 294/283/84 293/284/84 292/285/84 295/286/84 297/287/84
f 294/288/85 249/264/85 269/289/85
f 249/264/86 247/282/86 299/290/86 269/291/86
f 253/292/87 299/293/87 247/264/87 248/282/87
f 247/264/88 249/282/88 248/263/88
s 1
f 306/294/89 280/295/89 256/296/89 283/297/89
f 285/298/90 307/299/90 258/300/90 260/301/90
s 0
f 248/264/91 281/302/91 279/303/91 274/304/91 276/305/91 253/306/91
s 1
f 257/307/92 308/294/92 311/308/92 275/309/92
f 300/310/93 312/311/93 246/299/93 259/298/93 289/312/93 302/313/93
f 303/314/94 262/315/94 261/316/94
f 254/317/95 313/308/95 310/318/95 255/319/95
f 264/320/96 263/321/96 252/322/96 250/311/96 301/310/96 305/323/96 296/324/96
f 266/325/97 267/326/97 304/327/97
s 0
f 251/282/98 248/263/98 249/264/98 297/328/98 272/329/98 271/330/98 273/331/98 287/332/98
o bottle_cell.007
v -2.910820 -4.603107 0.891567
v -1.008447 -1.006341 0.774134
v -3.497993 -1.546609 1.273135
v -0.309213 -4.603107 1.736879
v -2.910820 -4.603107 -1.843971
v 0.099893 -2.308188 2.299547
v -3.591814 -1.058228 -2.781897
v -1.409656 -1.237529 2.009555
v -2.910820 -4.603107 -1.843971
v -2.910820 -4.603107 -1.843971
v -0.309213 -4.603107 1.736879
v -0.309213 -4.603107 1.736879
v 0.099893 -2.308188 2.299547
v -3.591814 -1.058228 -2.781897
v -1.409656 -1.237529 2.009555
v -3.497993 -1.546609 1.273135
v -3.497993 -1.546609 1.273135
v -2.910820 -4.603107 0.891567
v -2.910820 -4.603107 0.891567
vn -0.1871 0.9748 0.1217
vn 0.8090 -0.0001 -0.5878
vn 0.5081 0.8016 0.3150
vn -0.9820 -0.1887 -0.0000
vn -0.3042 -0.1753 0.9363
vn -0.0000 -1.0000 -0.0000
vt 0.480430 0.480430
vt 0.000000 0.000000
vt 0.826159 0.000000
vt 0.721773 0.420318
vt 1.000000 0.000000
vt 1.000000 0.593163
vt 0.268330 0.034360
vt 0.789429 0.034611
vt 0.173841 0.000000
vt 0.593163 0.593163
vt 0.480430 0.000000
vt 0.451578 0.305849
vt 0.574467 0.305849
vt 0.591608 0.445667
vt 0.409444 0.468008
vt 0.129040 0.210044
vt 0.029363 0.197679
vt 0.046716 0.057887
vt 0.169584 0.055742
vt 0.196697 0.160002
vt 0.315276 0.562807
vt 0.387507 0.662224
s 0
usemtl blinn1SG
f 328/333/99 315/334/99 327/335/99 329/336/99
f 315/337/100 326/338/100 324/339/100 322/340/100 327/341/100
f 326/342/101 315/334/101 328/343/101
s 1
f 323/344/102 331/345/102 330/346/102 320/347/102
f 321/348/103 316/349/103 332/350/103 325/351/103 319/352/103
f 317/353/104 314/354/104 318/354/104
o bottle_cell.008
v -4.085496 1.511601 1.654917
v -1.002301 -0.512802 -0.347500
v -0.795107 -0.586292 0.116190
v -1.008658 -1.004390 0.773086
v -3.498365 -1.544673 1.273377
v -3.592157 -1.056441 -2.782578
v -1.410374 -1.235599 2.009683
v -1.561452 1.511601 2.475029
v -1.342581 1.997468 1.801139
v -3.869223 0.385807 -2.506030
v -3.612942 -0.948248 -3.061951
v -2.273694 2.663373 0.354417
v -3.600718 1.819776 -1.397060
v -4.085495 1.511601 -2.036255
v -2.148684 2.684682 0.485479
v -2.211427 2.702956 0.437073
v -3.597228 -1.030047 -2.851620
v -3.498365 -1.544673 1.273377
v -3.498365 -1.544673 1.273377
v -3.592157 -1.056441 -2.782578
v -1.410374 -1.235599 2.009683
v -1.561452 1.511601 2.475029
v -1.561452 1.511601 2.475029
v -1.342581 1.997468 1.801139
v -3.869223 0.385807 -2.506030
v -3.612942 -0.948248 -3.061951
v -2.273694 2.663373 0.354417
v -3.600718 1.819776 -1.397060
v -4.085495 1.511601 -2.036255
v -4.085495 1.511601 -2.036255
v -2.211427 2.702956 0.437073
v -2.211427 2.702956 0.437073
v -2.148684 2.684682 0.485479
v -3.597228 -1.030047 -2.851620
v -4.085496 1.511601 1.654917
v -4.085496 1.511601 1.654917
v -4.085496 1.511601 1.654917
vn 0.9511 -0.0000 0.3090
vn 0.4938 -0.7974 -0.3470
vn 0.6281 0.3990 -0.6681
vn 0.6274 0.3995 -0.6684
vn 0.6301 0.3994 -0.6659
vn 0.4879 -0.8028 -0.3427
vn 0.1871 -0.9748 -0.1216
vn -0.9820 -0.1887 -0.0000
vn -0.3042 -0.1753 0.9363
vn -0.5365 0.8439 -0.0000
vn -0.1748 0.8247 0.5379
vn 0.8612 0.3928 -0.3225
vt 0.730466 0.219288
vt 0.480698 0.480698
vt 0.000000 0.000000
vt 0.661323 0.000000
vt 0.172102 0.172102
vt 0.166737 0.000000
vt 1.000000 0.000000
vt 1.000000 1.000000
vt 0.833263 0.000000
vt 1.000000 0.249834
vt 1.000000 0.501915
vt 0.614829 0.614829
vt 0.249834 0.249834
vt 0.447752 0.046797
vt 0.501915 0.501915
vt 1.000000 0.614829
vt 0.591083 0.260445
vt 0.300916 0.000000
vt 0.172102 0.000000
vt 1.000000 0.826107
vt 0.480699 0.000000
vt 0.774850 0.571099
vt 0.173893 0.000000
vt 0.421837 0.534064
vt 0.396863 0.473039
vt 0.406312 0.469297
vt 0.409413 0.468089
vt 0.591619 0.445755
vt 0.608759 0.585563
vt 0.442940 0.585563
vt 0.012000 0.337549
vt 0.029352 0.197767
vt 0.129012 0.210133
vt 0.131205 0.335469
vt 0.442940 0.585563
vt 0.554050 0.685324
vt 0.550336 0.682009
vt 0.471655 0.611369
vt 0.080131 0.429557
vt 0.076804 0.431067
vt 0.131205 0.335469
vt 0.131875 0.374057
vt 1.000000 0.338677
vt 0.699084 0.000000
s 0
usemtl blinn1SG
f 354/355/105 353/356/105 336/357/105 335/357/105 356/358/105
f 366/359/106 358/360/106 334/361/106 335/361/106 336/362/106
f 334/357/107 358/363/107 357/364/107 360/365/107 359/366/107
f 357/367/108 361/368/108 360/369/108
f 334/361/109 359/370/109 363/371/109 365/372/109
f 366/373/110 336/361/110 352/374/110
f 353/375/111 350/376/111 352/377/111 336/357/111
s 1
f 342/378/112 343/379/112 349/380/112 338/381/112 351/382/112 367/383/112 362/384/112
f 368/385/113 337/386/113 339/387/113 355/388/113
f 346/389/114 369/383/114 364/390/114 344/391/114 345/392/114
f 347/393/115 348/394/115 333/385/115 340/395/115 341/396/115
s 0
f 356/397/116 335/362/116 334/357/116 365/398/116
o bottle_cell.009
v 1.962503 2.383957 -1.000083
v 0.474456 -0.528070 -1.000089
v 4.085497 1.511601 -1.000000
v 0.624998 -0.636681 -0.233265
v 2.277965 2.660659 -1.000000
v 2.182070 2.576559 -0.685925
v 2.156674 2.554255 -1.397319
v 2.156746 2.554240 -0.602746
v 2.525418 1.511601 1.147266
v 2.120298 -1.710941 0.852786
v 2.194753 1.832728 0.907107
v 1.187807 -1.040878 -4.313423
v 3.303204 -2.560584 -1.000000
v 2.211610 1.511601 -3.579185
v 1.141261 -1.007340 -4.386356
v 2.157481 2.538961 -0.570677
v 2.277965 2.660659 -1.000000
v 2.277965 2.660659 -1.000000
v 2.156674 2.554255 -1.397319
v 2.182070 2.576559 -0.685925
v 2.156746 2.554240 -0.602746
v 2.525418 1.511601 1.147266
v 2.525418 1.511601 1.147266
v 2.194753 1.832728 0.907107
v 2.120298 -1.710941 0.852786
v 1.187807 -1.040878 -4.313423
v 3.303204 -2.560584 -1.000000
v 3.303204 -2.560584 -1.000000
v 2.211610 1.511601 -3.579185
v 2.211610 1.511601 -3.579185
v 1.141261 -1.007340 -4.386356
v 2.157481 2.538961 -0.570677
v 4.085497 1.511601 -1.000000
v 4.085497 1.511601 -1.000000
v 4.085497 1.511601 -1.000000
vn -0.6594 0.7518 -0.0000
vn -0.6600 0.7513 0.0007
vn -0.5877 -0.0001 0.8091
vn -0.8659 0.4426 0.2332
vn -0.8659 0.4426 -0.2332
vn -0.8648 0.4453 0.2320
vn -0.5844 -0.8115 -0.0002
vn 0.7994 -0.1536 0.5808
vn 0.7994 -0.1536 -0.5808
vn 0.4999 0.7863 0.3632
vn 0.4999 0.7863 -0.3632
vn -0.5834 -0.8122 -0.0000
vt 0.908599 0.000000
vt 1.000000 0.000000
vt 1.000000 0.101042
vt 0.938897 0.085437
vt 0.000000 0.000000
vt 0.167385 0.000000
vt 0.101042 0.101042
vt 0.375950 0.000000
vt 1.000000 0.425932
vt 0.390448 0.104577
vt 0.624050 0.000000
vt 1.000000 0.834474
vt 1.000000 1.000000
vt 0.220846 0.000000
vt 1.000000 0.091401
vt 0.633041 0.226473
vt 1.000000 0.832615
vt 0.834474 0.834474
vt 0.779154 0.000000
vt 1.000000 0.201989
vt 0.414558 0.099231
vt 0.481300 0.273145
vt 0.365932 0.303257
vt 0.328937 0.161501
vt 0.639063 0.309315
vt 0.500488 0.273145
vt 0.567230 0.099231
vt 0.720346 0.210601
vt 0.723715 0.213056
vt 0.688930 0.629494
vt 0.677350 0.609219
vt 0.780881 0.550075
vt 0.780881 0.646293
vt 0.765738 0.647902
vt 0.761727 0.648324
vt 0.760181 0.647928
vt 0.905236 0.621116
vt 0.800038 0.648327
vt 0.798011 0.000000
vt 0.703261 0.567183
vt 0.425932 0.425932
s 0
usemtl blinn1SG
f 388/399/117 370/400/117 389/401/117 386/402/117
f 370/403/118 390/404/118 389/405/118
f 393/406/119 373/400/119 394/407/119 391/408/119
f 373/403/120 393/409/120 401/410/120 370/411/120 371/403/120
f 400/412/121 371/400/121 370/400/121 388/413/121 398/414/121
f 390/415/122 370/411/122 401/416/122
f 371/403/123 400/417/123 395/418/123 373/411/123
s 1
f 397/419/124 402/420/124 392/421/124 379/422/124
f 399/423/125 403/424/125 396/425/125 381/426/125 384/427/125
f 380/428/126 378/429/126 404/430/126 387/431/126 375/432/126 377/433/126 385/434/126
f 374/431/127 372/430/127 383/435/127 376/436/127
s 0
f 395/437/128 382/438/128 394/439/128 373/403/128
