# Blender 5.0.0
# www.blender.org
mtllib Diamond.mtl
o Diamond_cell
v -1.566010 4.312851 -4.819694
v -0.001455 0.162573 -0.003858
v -0.000527 0.054067 -0.060421
v -0.000705 5.654925 -3.121620
v -0.000792 5.660930 -3.114023
v -0.101944 0.156543 -0.142169
v -0.001613 0.004443 -0.004965
v -0.001223 4.312851 -4.819694
v -1.829176 5.661141 -2.519807
v -0.810358 6.150944 -2.494027
v -2.832278 4.312851 -3.899640
v -0.000792 5.660930 -3.114023
v -0.810358 6.150944 -2.494027
v -0.810358 6.150944 -2.494027
v -0.000527 0.054067 -0.060421
v -0.001613 0.004443 -0.004965
v -0.000705 5.654925 -3.121620
v -0.101944 0.156543 -0.142169
v -0.001223 4.312851 -4.819694
v -1.829176 5.661141 -2.519807
v -2.832278 4.312851 -3.899640
vn 1.0000 0.0043 0.0081
vn -0.8089 -0.0033 0.5879
vn 0.6942 0.3543 0.6265
vn -0.1935 0.3543 0.9149
vn 1.0000 -0.0001 -0.0002
vn -0.3645 0.7845 -0.5016
vn -0.3089 0.0265 -0.9507
vn -0.5875 0.0305 -0.8086
vn -0.1953 -0.7615 -0.6180
vn -0.3920 -0.7452 -0.5395
vn -0.0000 0.7845 -0.6201
vn -0.0000 0.0306 -0.9995
vn -0.0000 -0.7452 -0.6668
vn -0.8089 0.0001 0.5879
vt 0.091667 0.091667
vt 0.093883 0.000000
vt 1.000000 0.000000
vt 1.000000 0.750296
vt 0.983496 0.983496
vt 0.000000 0.000000
vt 0.028425 0.000000
vt 0.750292 0.750292
vt 0.013080 0.000000
vt 1.000000 0.906117
vt 1.000000 0.093849
vt 1.000000 1.000000
vt 0.013156 0.013082
vt 1.000000 0.983496
vt 0.340164 0.305275
vt 1.000000 0.091667
vt 0.216870 0.453847
vt 0.166560 0.485102
vt 0.166559 0.343380
vt 0.243800 0.342770
vt 0.166563 0.012341
vt 0.169314 0.024006
vt 0.129264 0.343085
vt 0.089318 0.342770
vt 0.089314 0.342770
vt 0.089339 0.342770
vt 0.166563 0.012259
vt 0.166563 0.012112
vt 0.166563 0.012341
vt 0.093849 0.093849
vt 0.312037 0.199290
vt 1.000000 0.971575
s 0
usemtl lambert2SG
f 17/1/1 12/2/1 2/3/1 16/4/1 15/5/1
f 2/6/2 18/7/2 16/8/2
f 13/9/3 2/3/3 12/10/3
f 20/11/4 2/12/4 13/13/4
f 15/14/5 19/15/5 17/16/5
s 1
f 9/17/6 14/18/6 1/19/7 21/20/8
f 1/19/7 7/21/9 6/22/10 21/20/8
f 10/23/11 5/24/11 4/25/11 8/26/12 1/19/7
f 1/19/7 8/27/12 3/28/13 7/29/9
s 0
f 20/30/14 11/31/14 18/32/14 2/12/14
o Diamond_cell.001
v 0.000749 0.161542 0.002619
v 0.798303 6.180267 2.456926
v 1.565987 4.312851 4.819693
v 2.832008 4.312851 3.899824
v 0.152860 0.233872 0.211992
v 1.443261 6.180267 1.988337
v 0.000344 6.180267 0.002230
v -1.047934 5.570708 3.228177
v -0.797356 6.180267 2.456926
v 1.264333 3.482071 3.891280
v 1.535721 4.312851 4.819693
v 2.832008 4.312851 3.899824
v 0.152860 0.233872 0.211992
v 1.443261 6.180267 1.988337
v 1.443261 6.180267 1.988337
v 0.000344 6.180267 0.002230
v -1.047934 5.570708 3.228177
v -0.797356 6.180267 2.456926
v -0.797356 6.180267 2.456926
v 1.264333 3.482071 3.891280
v 1.535721 4.312851 4.819693
v 0.798303 6.180267 2.456926
v 0.798303 6.180267 2.456926
vn -0.9510 -0.0001 -0.3091
vn 0.8090 -0.0000 -0.5878
vn -0.6175 -0.4877 0.6171
vn 0.3645 0.7845 0.5016
vn 0.3089 0.0265 0.9507
vn 0.5875 0.0305 0.8086
vn 0.3920 -0.7452 0.5395
vn 0.3893 -0.7457 0.5407
vn -0.0000 0.7845 0.6201
vn -0.0000 0.2191 0.9757
vn -0.0000 1.0000 -0.0000
vt 0.991746 0.313532
vt 0.991774 0.991774
vt 0.000000 0.000000
vt 0.891293 0.000000
vt 0.991754 0.408017
vt 0.838621 0.639316
vt 0.956982 0.000000
vt 0.991774 0.000000
vt 0.904186 0.410308
vt 0.562953 0.040129
vt 0.891293 0.891293
vt 0.043018 0.000000
vt 0.594233 0.866931
vt 0.552645 0.876117
vt 0.483490 0.712221
vt 0.559659 0.714785
vt 0.631758 0.402920
vt 0.512856 0.649197
vt 0.609346 0.342458
vt 0.530603 0.343080
vt 0.492670 0.440544
vt 0.645736 0.342171
vt 0.647230 0.342159
vt 0.617457 0.278561
vt 0.644243 0.335778
vt 0.532610 0.495242
vt 0.492669 0.487517
s 0
usemtl lambert2SG
f 39/33/15 37/34/15 22/35/15 38/36/15
f 35/37/16 33/38/16 34/39/16 22/35/16 37/40/16
f 41/41/17 42/42/17 38/43/17 22/35/17 34/44/17
s 1
f 36/45/18 44/46/18 24/47/19 25/48/20
f 26/49/21 25/48/20 24/47/19 31/50/22
f 43/51/23 40/52/23 29/53/23 32/54/24 24/55/19
f 31/56/22 24/55/19 32/57/24
f 23/46/25 27/45/25 28/58/25 30/59/25
o Diamond_cell.002
v 0.000192 0.156560 0.001063
v -1.566010 4.312851 4.819693
v 0.115089 0.151279 0.125347
v 0.089658 0.094318 0.065142
v 0.067155 0.063477 0.022870
v 0.148887 0.227252 0.205733
v -0.241555 0.227597 0.079629
v -0.000312 0.000859 0.000960
v -3.213103 3.380102 2.334490
v 1.231975 3.392956 3.791693
v -1.049291 5.569750 3.229389
v 1.532259 4.312851 4.819693
v -4.072347 4.312851 2.998622
v 0.089658 0.094318 0.065142
v 0.067155 0.063477 0.022870
v 0.115089 0.151279 0.125347
v 0.148887 0.227252 0.205733
v -0.241555 0.227597 0.079629
v -0.000312 0.000859 0.000960
v -3.213103 3.380102 2.334490
v -1.049291 5.569750 3.229389
v -1.049291 5.569750 3.229389
v -4.072347 4.312851 2.998622
v 1.231975 3.392956 3.791693
v 1.532259 4.312851 4.819693
vn 0.6945 0.3527 -0.6271
vn 0.6941 0.3543 -0.6267
vn 0.3092 -0.0004 -0.9510
vn -0.3086 0.0016 -0.9512
vn -0.1369 0.4877 -0.8622
vn -0.0018 -0.8354 0.5496
vn -0.3934 -0.7455 0.5380
vn -0.6328 -0.7457 0.2086
vn -0.3645 0.7845 0.5016
vn -0.5511 -0.3477 0.7585
vn -0.3089 0.0265 0.9507
vn 0.4230 -0.7530 0.5041
vn 0.3894 -0.7457 0.5407
vn 0.0020 -0.7455 0.6665
vn 0.6265 -0.7497 0.2135
vn -0.0000 0.7845 0.6201
vn -0.0000 -0.3477 0.9376
vn 0.6175 0.4878 -0.6171
vt 0.549104 0.000000
vt 1.000000 0.000000
vt 1.000000 0.025527
vt 0.708790 0.010269
vt 0.042042 0.000000
vt 0.025527 0.025527
vt 0.000000 0.000000
vt 1.000000 0.450897
vt 0.244122 0.000000
vt 1.000000 0.952765
vt 1.000000 1.000000
vt 0.248066 0.247584
vt 0.463717 0.065794
vt 0.684919 0.419592
vt 1.000000 0.108808
vt 0.952765 0.952765
vt 0.799223 0.057533
vt 0.920274 0.316114
vt 0.803274 0.074816
vt 0.492664 0.440292
vt 0.339787 0.342173
vt 0.492671 0.343379
vt 0.492666 0.012066
vt 0.339787 0.342173
vt 0.371539 0.270756
vt 0.635937 0.385173
vt 0.635937 0.392308
vt 0.634209 0.396639
vt 0.631898 0.402415
vt 0.516006 0.642436
vt 0.637010 0.389896
vt 0.635937 0.392308
vt 0.492670 0.440290
vt 0.645566 0.342172
vt 0.643901 0.335048
vt 0.492691 0.012053
vt 0.614263 0.271739
vt 0.108816 0.108793
vt 0.959955 0.436511
vt 0.600423 0.119096
vt 1.000000 0.957958
s 0
usemtl lambert2SG
f 59/60/26 45/61/26 60/62/26 58/63/26
f 61/64/27 60/65/27 45/66/27
f 45/61/28 59/67/28 63/68/28
f 62/69/29 45/70/29 63/71/29
f 64/72/30 67/73/30 65/74/30 45/70/30 62/75/30
s 1
f 52/76/31 53/77/32 51/78/33
f 55/79/34 57/80/35 46/81/36
f 52/82/31 46/81/36 57/83/35 53/84/32
f 52/85/31 48/86/37 47/87/38 50/88/38 68/89/39
f 49/90/40 48/91/37 52/85/31
f 66/92/41 46/81/36 69/93/42
f 69/94/42 46/81/36 52/95/31 68/96/39
s 0
f 65/97/43 56/98/43 54/99/43 61/100/43 45/70/43
o Diamond_cell.003
v 0.000884 0.155530 -0.001122
v 1.565987 4.312851 -4.819694
v 1.049313 5.569676 -3.229483
v 4.072464 4.312851 -2.998538
v 3.209597 3.376420 -2.331951
v 0.000873 0.000918 -0.000634
v 0.001279 5.660534 -3.114524
v 0.239663 0.225737 -0.078724
v 0.067558 0.063240 0.020770
v 0.110017 0.093630 0.000000
v 0.001036 4.312851 -4.819694
v 4.072464 4.312851 -2.998538
v 3.209597 3.376420 -2.331951
v 1.049313 5.569676 -3.229483
v 1.049313 5.569676 -3.229483
v 0.067558 0.063240 0.020770
v 0.000873 0.000918 -0.000634
v 0.001036 4.312851 -4.819694
v 0.001279 5.660534 -3.114524
v 0.239663 0.225737 -0.078724
v 0.110017 0.093630 0.000000
vn -1.0000 0.0001 0.0001
vn 0.1925 0.3560 0.9144
vn 0.6400 -0.7523 -0.1563
vn 0.4814 -0.8022 -0.3531
vn 0.3934 -0.7455 -0.5380
vn 0.6342 -0.7452 -0.2061
vn -0.3082 0.0030 0.9513
vn 0.3089 0.0265 -0.9507
vn 0.3645 0.7845 -0.5016
vn 0.5511 -0.3476 -0.7585
vn -0.0000 0.0305 -0.9995
vn -0.0000 0.7845 -0.6201
vn 0.6334 -0.7471 0.2017
vn 0.1369 0.4876 0.8622
vt 0.248326 0.000000
vt 1.000000 0.000000
vt 1.000000 0.906190
vt 0.704941 0.694684
vt 0.000000 0.000000
vt 0.449172 0.000000
vt 0.387673 0.010384
vt 0.046667 0.046667
vt 0.322224 0.361050
vt 0.325533 0.354018
vt 0.325536 0.614105
vt 0.321583 0.371207
vt 0.990268 0.736600
vt 0.550827 0.000000
vt 0.477979 0.681127
vt 0.431436 0.791434
vt 0.327179 0.686203
vt 0.325618 0.354129
vt 0.327179 0.686203
vt 0.089228 0.342769
vt 0.089216 0.342769
vt 0.062284 0.450486
vt 0.012000 0.342159
vt 0.166477 0.012184
vt 0.166461 0.012218
vt 0.636007 0.385191
vt 0.639246 0.392144
vt 0.637109 0.389874
vt 0.204836 0.060269
vt 0.906190 0.906190
vt 0.046667 0.000000
vt 0.627078 0.002635
vt 0.795727 0.376176
s 0
usemtl lambert2SG
f 75/101/44 70/102/44 88/103/44 87/104/44
f 70/105/45 85/106/45 79/107/45 89/108/45
s 1
f 90/109/46 86/110/47 82/111/48 77/112/49
s 0
f 75/113/50 85/114/50 70/102/50
s 1
f 71/115/51 83/116/52 81/117/53
f 82/111/48 86/118/47 71/115/51 81/119/53
f 80/120/54 76/121/55 84/122/55 71/123/51
f 71/123/51 86/124/47 80/125/54
f 86/126/47 90/127/46 78/128/56
s 0
f 72/129/57 88/130/57 70/105/57 89/131/57 74/132/57 73/133/57
o Diamond_cell.004
v -4.099767 4.312851 -2.978700
v -0.001580 0.157482 -0.000413
v -5.057391 4.312851 -0.031594
v -3.988740 3.394634 0.000000
v -0.243022 0.228401 0.078022
v -2.747028 5.569768 -1.995847
v -1.831402 5.660562 -2.519097
v -0.160773 0.151018 0.051318
v -0.003679 0.003131 0.000000
v -2.833832 4.312851 -3.898511
v -3.988740 3.394634 0.000000
v -0.243022 0.228401 0.078022
v -5.057391 4.312851 -0.031594
v -2.747028 5.569768 -1.995847
v -2.747028 5.569768 -1.995847
v -1.831402 5.660562 -2.519097
v -0.160773 0.151018 0.051318
v -0.003679 0.003131 0.000000
v -2.833832 4.312851 -3.898511
vn 0.8086 -0.0007 -0.5883
vn 0.3090 0.0003 0.9510
vn 0.3091 -0.0017 0.9510
vn -0.8087 0.0264 -0.5876
vn -0.5985 -0.7773 -0.1939
vn -0.6345 -0.7455 -0.2040
vn -0.8917 -0.3477 -0.2897
vn 0.3961 0.4877 0.7780
vn -0.5875 0.0306 -0.8086
vn -0.3645 0.7845 -0.5016
vn -0.5897 0.7845 -0.1916
vn -0.6342 -0.7452 0.2061
vt 0.252978 0.252732
vt 0.694658 0.464733
vt 1.000000 0.093875
vt 1.000000 1.000000
vt 1.000000 0.047191
vt 0.968883 0.000000
vt 1.000000 0.000000
vt 1.000000 0.247567
vt 0.968883 0.968883
vt 0.644583 0.387518
vt 0.799142 0.057602
vt 0.799142 0.318187
vt 0.797503 0.388725
vt 0.891174 0.305424
vt 0.596061 0.584255
vt 0.672714 0.452032
vt 0.952809 0.000000
vt 0.000000 0.000000
vt 0.906125 0.000000
vt 0.243895 0.342770
vt 0.321115 0.342160
vt 0.270831 0.450494
vt 0.216992 0.453816
vt 0.797503 0.388725
vt 0.694869 0.495851
vt 0.166659 0.012205
vt 0.243895 0.342770
vt 0.803190 0.074878
vt 0.799142 0.318187
vt 0.799142 0.057602
vt 0.801805 0.068943
s 0
usemtl lambert2SG
f 108/134/58 109/135/58 106/136/58 92/137/58
f 102/138/59 107/139/59 92/140/59
f 108/141/60 92/137/60 107/142/60
s 1
f 91/143/61 99/144/62 94/145/63 103/146/64
s 0
f 104/147/65 93/148/65 101/149/65 102/150/65 92/151/65 106/152/65
s 1
f 100/153/66 91/154/61 105/155/67 97/156/67
f 103/157/64 96/158/68 91/143/61
f 99/159/62 91/154/61 100/160/66
f 95/161/69 94/162/63 99/163/62 98/164/69
o Diamond_cell.005
v 0.003556 0.157983 0.000496
v 2.583361 6.180267 -0.000000
v 5.067662 4.312851 -0.000000
v 2.336978 6.180267 -0.758294
v 4.584103 4.312851 -1.488149
v 0.070079 0.065766 0.022150
v 0.115426 0.098234 -0.000000
v 0.243215 0.228390 -0.077389
v 0.002839 6.180267 -0.000230
v 2.337053 6.180267 0.758063
v 4.584134 4.312851 1.488042
v 2.336978 6.180267 -0.758294
v 2.336978 6.180267 -0.758294
v 4.584103 4.312851 -1.488149
v 0.115426 0.098234 -0.000000
v 0.243215 0.228390 -0.077389
v 0.070079 0.065766 0.022150
v 0.002839 6.180267 -0.000230
v 2.337053 6.180267 0.758063
v 2.337053 6.180267 0.758063
v 4.584134 4.312851 1.488042
v 2.583361 6.180267 -0.000000
v 2.583361 6.180267 -0.000000
vn -0.3089 0.0001 0.9511
vn -0.1933 -0.3543 -0.9150
vn -0.0000 1.0000 -0.0000
vn 0.5897 0.7845 -0.1916
vn 0.9996 0.0265 -0.0000
vn 0.9506 0.0306 -0.3089
vn -0.3089 -0.0001 -0.9511
vn 0.9506 0.0305 0.3089
vn 0.5897 0.7845 0.1916
vn 0.6404 -0.7524 0.1541
vn 0.6342 -0.7452 -0.2061
vn 0.6342 -0.7452 0.2061
vt 0.444195 0.000000
vt 0.694684 0.104314
vt 0.992063 0.543635
vt 0.991797 0.991797
vt 0.000000 0.000000
vt 1.000000 0.000000
vt 1.000000 0.046860
vt 0.631896 0.011095
vt 0.555803 0.000000
vt 0.677645 0.866932
vt 0.242244 0.845022
vt 0.250188 0.855693
vt 0.325442 0.956783
vt 0.173093 0.681128
vt 0.249253 0.683691
vt 0.283838 0.835835
vt 0.046860 0.046860
vt 0.991798 0.000000
vt 0.456345 0.010917
vt 0.895663 0.419579
vt 0.712222 0.714785
vt 0.788377 0.712222
vt 0.719226 0.876116
vt 0.677645 0.866932
vt 0.322061 0.361399
vt 0.321421 0.371406
vt 0.249253 0.683691
vt 0.637128 0.390068
vt 0.639409 0.392493
vt 0.712222 0.714785
s 0
usemtl lambert2SG
f 126/165/70 130/166/70 128/167/70 127/168/70 110/169/70
f 110/170/71 125/171/71 124/172/71 126/173/71
s 1
f 129/174/72 131/175/72 122/176/72 118/177/72
f 132/175/73 112/178/74 123/179/75 121/180/73
s 0
f 125/181/76 110/169/76 127/182/76 113/183/76 114/184/76
s 1
f 120/185/77 112/186/74 111/187/78 119/188/78
f 112/178/74 116/189/79 117/190/80 123/191/75
f 115/192/81 116/193/79 112/186/74 120/194/77
o Diamond_cell.006
v -5.067657 4.312851 -0.000000
v -2.089987 6.180266 -1.518464
v -0.000825 0.161110 -0.000466
v -2.583361 6.180266 -0.000000
v -5.058275 4.312851 -0.028873
v -4.084777 3.476366 -0.000000
v -0.248939 0.234022 0.080141
v -2.745541 5.571149 -1.994767
v -1.829653 5.662196 -2.517811
v -0.810615 6.151836 -2.492445
v -0.001220 6.180266 -0.000446
v -0.798932 6.180266 -2.456470
v -4.584066 4.312851 1.488260
v -2.337007 6.180266 0.758206
v -4.084777 3.476366 -0.000000
v -0.248939 0.234022 0.080141
v -5.058275 4.312851 -0.028873
v -2.745541 5.571149 -1.994767
v -2.745541 5.571149 -1.994767
v -1.829653 5.662196 -2.517811
v -0.810615 6.151836 -2.492445
v -0.798932 6.180266 -2.456470
v -0.798932 6.180266 -2.456470
v -0.001220 6.180266 -0.000446
v -4.584066 4.312851 1.488260
v -2.337007 6.180266 0.758206
v -2.337007 6.180266 0.758206
v -2.089987 6.180266 -1.518464
v -2.089987 6.180266 -1.518464
v -2.583361 6.180266 -0.000000
v -2.583361 6.180266 -0.000000
vn 0.3089 -0.0000 0.9511
vn 0.1931 -0.3545 -0.9149
vn 0.9511 0.0001 -0.3089
vn -0.3645 0.7845 -0.5017
vn -0.9280 0.2191 -0.3015
vn -0.9997 0.0265 -0.0000
vn -0.5897 0.7845 -0.1916
vn -0.5897 0.7845 0.1916
vn -0.9506 0.0305 0.3089
vn -0.6346 -0.7457 0.2032
vn -0.3960 -0.4877 -0.7780
vn -0.0000 1.0000 -0.0000
vn -0.6342 -0.7452 0.2061
vt 0.895703 0.419976
vt 1.000000 0.951513
vt 1.000000 1.000000
vt 0.008281 0.008281
vt 0.456537 0.010967
vt 0.093653 0.093653
vt 1.000000 0.012997
vt 0.027246 0.008313
vt 1.000000 0.008281
vt 0.012997 0.012997
vt 0.166598 0.485173
vt 0.216927 0.453943
vt 0.270776 0.450613
vt 0.246408 0.503113
vt 0.166599 0.487371
vt 0.797644 0.388726
vt 0.799142 0.388738
vt 0.799142 0.532720
vt 0.719294 0.548469
vt 0.694925 0.495970
vt 0.839012 0.540584
vt 0.876365 0.388128
vt 0.797644 0.388726
vt 0.799142 0.324467
vt 0.595513 0.011627
vt 0.694718 0.108618
vt 1.000000 0.093653
vt 0.951513 0.951513
vt 0.665196 0.201877
vt 0.799095 0.662048
vt 0.166599 0.487371
vt 0.799142 0.545059
vt 0.799142 0.324467
vt 0.803300 0.075309
vt 0.876365 0.388128
s 0
usemtl lambert2SG
f 157/195/82 148/196/82 135/197/82 156/198/82 158/199/82
f 135/197/83 152/200/83 153/201/83
f 154/202/84 156/203/84 135/197/84 153/204/84
s 1
f 142/205/85 141/206/85 151/207/85 160/208/85 155/209/85
f 149/210/86 133/211/87 162/212/88 161/213/88 150/214/88
f 159/215/89 163/212/89 133/211/87 145/216/90
f 149/217/86 138/218/91 133/211/87
s 0
f 137/219/92 140/220/92 152/221/92 135/197/92 148/222/92 147/223/92
s 1
f 143/224/93 144/225/93 134/213/93 136/212/93 146/226/93
f 133/211/87 138/227/91 139/228/94 145/229/90
o Diamond_cell.007
v 0.002433 0.158617 0.001744
v 2.089986 6.180267 1.518464
v 4.099756 4.312851 2.978699
v 2.336295 6.180267 0.760396
v 4.583333 4.312851 1.490506
v 0.003025 6.180267 0.002048
v 1.444994 6.180267 1.987078
v 2.833576 4.312851 3.898684
v 0.151458 0.229424 0.206865
v 0.069467 0.065633 0.023552
v 0.092756 0.097578 0.067393
v 2.336295 6.180267 0.760396
v 2.336295 6.180267 0.760396
v 4.583333 4.312851 1.490506
v 0.003025 6.180267 0.002048
v 1.444994 6.180267 1.987078
v 1.444994 6.180267 1.987078
v 2.833576 4.312851 3.898684
v 0.151458 0.229424 0.206865
v 0.069467 0.065633 0.023552
v 0.092756 0.097578 0.067393
v 2.089986 6.180267 1.518464
v 2.089986 6.180267 1.518464
vn 0.3091 -0.0000 -0.9510
vn -0.6944 -0.3537 0.6266
vn -0.8091 -0.0000 0.5877
vn 0.5897 0.7845 0.1916
vn 0.8087 0.0265 0.5876
vn 0.9506 0.0305 0.3089
vn 0.3645 0.7845 0.5016
vn 0.5875 0.0305 0.8086
vn 0.6087 -0.7524 0.2517
vn 0.3920 -0.7452 0.5395
vn 0.6342 -0.7452 0.2061
vn -0.0000 1.0000 -0.0000
vt 0.694747 0.590300
vt 0.554424 0.000000
vt 1.000000 0.000000
vt 1.000000 0.991721
vt 0.992050 0.448250
vt 1.000000 0.957865
vt 1.000000 1.000000
vt 0.554425 0.554425
vt 0.628948 0.619194
vt 0.042135 0.000000
vt 0.800501 0.639741
vt 0.991761 0.583973
vt 0.991721 0.991721
vt 0.000000 0.000000
vt 0.677517 0.866903
vt 0.635935 0.857719
vt 0.635933 0.717352
vt 0.712096 0.714789
vt 0.594345 0.866906
vt 0.559754 0.714788
vt 0.635937 0.392559
vt 0.631928 0.402583
vt 0.635937 0.392559
vt 0.637051 0.390061
vt 0.712096 0.714789
vt 0.594345 0.866906
vt 0.635936 0.987811
s 0
usemtl lambert2SG
f 177/230/95 183/231/95 164/232/95 178/233/95 175/234/95
f 182/235/96 164/236/96 183/237/96 184/238/96
f 182/239/97 181/240/97 179/241/97 178/242/97 164/243/97
s 1
f 176/244/98 185/245/98 166/246/99 168/247/100
f 180/248/101 171/249/102 166/246/99 186/245/101
f 174/250/103 166/246/99 171/249/102 172/251/104
f 174/252/103 173/253/105 168/254/100 166/246/99
f 170/255/106 165/245/106 167/244/106 169/256/106
o Diamond_cell.008
v 0.000604 0.162757 -0.001550
v 2.089986 6.180267 -1.518464
v 0.798303 6.180267 -2.456926
v 4.099761 4.312851 -2.978705
v 1.048774 5.570990 -3.227821
v 4.075603 4.312851 -2.996257
v 3.306559 3.478421 -2.402400
v 2.336340 6.180267 -0.760259
v 4.583434 4.312851 -1.490206
v 0.000796 6.180267 -0.001511
v 0.250540 0.236102 -0.082733
v 0.000802 5.661833 -3.112881
v -0.809371 6.151206 -2.493696
v -0.797417 6.180267 -2.456926
v 1.048774 5.570990 -3.227821
v 1.048774 5.570990 -3.227821
v 4.075603 4.312851 -2.996257
v 3.306559 3.478421 -2.402400
v 2.336340 6.180267 -0.760259
v 2.336340 6.180267 -0.760259
v 4.583434 4.312851 -1.490206
v 0.000796 6.180267 -0.001511
v 0.250540 0.236102 -0.082733
v 0.000802 5.661833 -3.112881
v -0.809371 6.151206 -2.493696
v -0.797417 6.180267 -2.456926
v -0.797417 6.180267 -2.456926
v 0.798303 6.180267 -2.456926
v 0.798303 6.180267 -2.456926
v 2.089986 6.180267 -1.518464
v 2.089986 6.180267 -1.518464
vn 0.3090 -0.0000 0.9511
vn -0.0000 1.0000 -0.0000
vn -0.6935 -0.3548 -0.6270
vn -0.9510 -0.0000 0.3092
vn 0.3645 0.7845 -0.5017
vn 0.8087 0.0265 -0.5876
vn 0.5735 0.2190 -0.7894
vn -0.1369 -0.4878 -0.8622
vn 0.9506 0.0306 -0.3089
vn 0.5897 0.7845 -0.1916
vn 0.6328 -0.7456 -0.2086
vn -0.0000 0.7845 -0.6201
vn 0.6342 -0.7452 -0.2061
vt 0.456414 0.445508
vt 0.008188 0.000000
vt 1.000000 0.000000
vt 1.000000 0.048844
vt 0.895572 0.475645
vt 0.250208 0.855720
vt 0.325534 0.826625
vt 0.086713 0.503114
vt 0.166516 0.487372
vt 0.325534 0.956856
vt 0.906277 0.906277
vt 0.000000 0.000000
vt 0.987006 0.000000
vt 0.987006 0.987006
vt 0.991812 0.000000
vt 0.991796 0.972444
vt 0.431388 0.791549
vt 0.408825 0.845023
vt 0.325537 0.686258
vt 0.326990 0.686209
vt 0.048844 0.048844
vt 0.906277 0.000000
vt 0.855560 0.060361
vt 0.580021 0.376338
vt 0.397284 0.043338
vt 0.249359 0.683694
vt 0.283945 0.835811
vt 0.325536 0.621964
vt 0.129220 0.343085
vt 0.128630 0.343080
vt 0.062337 0.450600
vt 0.089239 0.342769
vt 0.325536 0.621964
vt 0.321422 0.372001
s 0
usemtl lambert2SG
f 205/257/107 208/258/107 187/259/107 209/260/107 207/261/107
s 1
f 206/262/108 216/263/108 215/264/108 213/265/108 196/266/108
s 0
f 210/267/109 187/268/109 211/269/109
f 211/270/110 187/268/110 208/271/110 212/272/110
s 1
f 201/273/111 214/274/111 217/263/111 190/275/112 203/276/113
s 0
f 209/277/114 187/268/114 210/278/114 202/279/114 192/280/114 204/281/114
s 1
f 195/282/115 190/275/112 188/263/116 194/283/116
f 203/276/113 190/275/112 193/284/117
f 199/285/118 200/286/118 189/264/118 191/287/118 198/288/118
f 193/289/117 190/275/112 195/282/115 197/290/119
o Diamond_cell.009
v -0.001462 0.161510 0.001801
v -4.099767 4.312851 2.978699
v -2.089986 6.180267 1.518464
v -1.049535 5.570549 3.227961
v -0.798839 6.180267 2.456537
v -0.001263 6.180267 0.002019
v -2.336267 6.180267 0.760483
v -4.075365 4.312851 2.996429
v -3.301414 3.473003 2.398653
v -0.248377 0.234063 0.082018
v -4.583381 4.312851 1.490370
v -0.798839 6.180267 2.456537
v -0.798839 6.180267 2.456537
v -0.001263 6.180267 0.002019
v -1.049535 5.570549 3.227961
v -2.336267 6.180267 0.760483
v -2.336267 6.180267 0.760483
v -4.075365 4.312851 2.996429
v -3.301414 3.473003 2.398653
v -0.248377 0.234063 0.082018
v -4.583381 4.312851 1.490370
v -2.089986 6.180267 1.518464
v -2.089986 6.180267 1.518464
vn 0.9511 -0.0000 0.3090
vn -0.3089 -0.0000 -0.9511
vn -0.9506 0.0305 0.3089
vn -0.8087 0.0265 0.5876
vn -0.5897 0.7845 0.1916
vn -0.6328 -0.7457 0.2086
vn -0.6342 -0.7452 0.2061
vn 0.1368 -0.4877 0.8622
vn -0.3645 0.7845 0.5017
vn -0.5735 0.2190 0.7894
vn -0.0000 1.0000 -0.0000
vt 0.321824 0.313609
vt 0.108675 0.000000
vt 1.000000 0.000000
vt 1.000000 0.991762
vt 0.951738 0.951738
vt 0.718932 0.104480
vt 0.991781 0.535445
vt 0.991762 0.991762
vt 1.000000 1.000000
vt 0.876474 0.388128
vt 0.953701 0.387518
vt 0.878990 0.548469
vt 0.839132 0.540608
vt 0.923604 0.323226
vt 0.803398 0.075312
vt 0.684491 0.264544
vt 0.449038 0.409195
vt 0.951738 0.000000
vt 1.000000 0.891325
vt 0.492634 0.440358
vt 0.492636 0.487370
vt 0.412822 0.503112
vt 0.338114 0.342160
vt 0.339603 0.342172
vt 0.368210 0.277867
vt 0.462149 0.573320
vt 0.492620 0.616689
vt 0.799142 0.545096
s 0
usemtl lambert2SG
f 229/291/120 232/292/120 218/293/120 231/294/120
f 227/295/121 238/296/121 233/297/121 231/298/121 218/299/121
s 1
f 228/300/122 219/301/123 239/302/124 234/303/124
f 226/304/125 219/301/123 228/300/122 237/305/126
s 0
f 235/306/127 236/307/127 227/308/127 218/293/127 232/309/127
s 1
f 221/310/128 230/311/128 240/312/128 219/313/123 225/314/129
f 219/313/123 226/315/125 225/314/129
f 220/312/130 222/316/130 223/317/130 224/318/130
