# Blender 5.0.0
# www.blender.org
mtllib item3.mtl
o item3_cell
v -0.478593 -1.260298 -0.694103
v -0.844529 -0.973414 -0.695056
v -0.615841 -2.011810 -1.366844
v -0.734447 -1.079683 -1.095636
v -0.651103 -1.158092 -1.347553
v -0.615841 -1.186802 -1.366844
v -0.644348 -1.164001 -1.359240
v 0.410897 -1.994021 -1.366844
v -0.478576 -2.011810 -0.694518
v 0.410885 -2.011810 -1.366844
v -1.600746 -2.011810 -0.694400
v -1.637303 -2.011810 -0.694450
v -1.642802 -2.011810 -0.726539
v -1.106529 -1.195132 -1.235961
v -1.129719 -1.226893 -1.229776
v -1.029255 -1.115318 -1.140679
v -0.851131 -0.970748 -0.745456
v -1.702409 -2.011810 -1.077020
v -0.615841 -1.186802 -1.366844
v -0.644348 -1.164001 -1.359240
v -0.644348 -1.164001 -1.359240
v -0.651103 -1.158092 -1.347553
v -0.734447 -1.079683 -1.095636
v 0.410897 -1.994021 -1.366844
v 0.410885 -2.011810 -1.366844
v 0.410885 -2.011810 -1.366844
v -0.478576 -2.011810 -0.694518
v -1.600746 -2.011810 -0.694400
v -1.637303 -2.011810 -0.694450
v -1.106529 -1.195132 -1.235961
v -1.106529 -1.195132 -1.235961
v -1.129719 -1.226893 -1.229776
v -1.642802 -2.011810 -0.726539
v -1.029255 -1.115318 -1.140679
v -0.851131 -0.970748 -0.745456
v -1.702409 -2.011810 -1.077020
v -1.702409 -2.011810 -1.077020
v -0.615841 -2.011810 -1.366844
vn 0.6176 0.7855 -0.0402
vn 0.6030 -0.0004 0.7977
vn 0.0001 -0.0006 1.0000
vn -0.0013 0.0016 1.0000
vn -0.7875 0.6013 0.1350
vn -0.7879 0.6010 0.1340
vn 0.6166 0.7863 -0.0392
vn -0.2577 -0.0000 -0.9662
vn -0.1846 -0.0000 -0.9828
vn -0.1300 -0.0000 -0.9915
vn -0.0000 -0.0000 -1.0000
vn -0.1006 0.9217 -0.3746
vn -0.0000 -1.0000 -0.0000
vt 0.274889 0.205923
vt 0.261857 0.182356
vt 0.267999 0.172320
vt 0.444371 0.000000
vt 1.000000 0.000000
vt 1.000000 0.931445
vt 0.953626 0.931431
vt 0.931445 0.931445
vt 0.000000 0.000000
vt 0.937088 0.000000
vt 0.937088 0.937088
vt 0.937505 0.000000
vt 1.000000 0.953976
vt 0.937505 0.937505
vt 1.000000 0.258867
vt 1.000000 0.955536
vt 0.953976 0.953976
vt 0.069833 0.000000
vt 0.769616 0.152030
vt 0.979667 0.229988
vt 0.955536 0.955536
vt 0.258867 0.258867
vt 0.955738 0.470417
vt 1.000000 0.555629
vt 0.069833 0.069833
vt 0.502256 0.381011
vt 0.452219 0.385871
vt 0.449138 0.383646
vt 0.449321 0.299393
vt 0.562432 0.284143
vt 0.504663 0.377406
vt 0.353118 0.307504
vt 0.353117 0.307504
vt 0.505990 0.279856
vt 0.475614 0.442063
vt 0.463501 0.398950
vt 0.453408 0.383158
vt 0.452219 0.385871
vt 0.435254 0.249770
vt 0.553726 0.240544
vt 0.557598 0.240209
vt 0.556227 0.284980
s 0
usemtl lambert2SG
f 19/1/1 20/2/1 22/3/1 23/4/1 1/5/1 24/6/1
f 25/7/2 24/8/2 1/9/2 27/10/2
f 27/11/3 1/9/3 28/12/3
f 2/5/4 29/13/4 28/14/4 1/9/4
f 32/15/5 33/16/5 29/17/5 2/9/5 35/18/5 34/19/5 30/20/5
f 33/21/6 32/22/6 36/23/6
f 2/9/7 1/5/7 23/24/7 35/25/7
s 1
f 31/26/8 21/27/8 6/28/9 38/29/10 37/30/8 15/31/8
f 26/32/11 38/29/10 6/29/9 8/33/11
f 16/34/12 17/35/12 4/36/12 5/37/12 7/38/12 14/26/12
f 9/39/13 11/40/13 12/41/13 13/42/13 18/30/13 3/29/13 10/32/13
o item3_cell.001
v -1.922888 -2.011810 1.018211
v -1.922888 -1.319727 1.018211
v -0.615841 -2.011810 1.366852
v -0.615841 -1.141308 1.366852
v -1.922888 -1.014236 0.453789
v -1.922888 -1.014236 0.249008
v -0.341511 -1.097357 1.366852
v -0.466964 -1.814062 1.366852
v -0.271655 -1.039483 1.211773
v -0.297955 -1.075527 1.366852
v -0.512267 -2.011810 1.366852
v -0.481531 -2.011810 1.099880
v -0.247734 -1.006530 1.069573
v -0.216872 -0.963553 0.882978
v -0.479880 -2.011810 1.085428
v -0.492385 -2.011810 1.074255
v -0.479006 -0.974295 0.616292
v -0.444811 -0.975795 0.652396
v -0.307479 -0.997387 0.804441
v -1.703308 -2.011810 0.040777
v -0.656424 -0.955095 0.456101
v -0.586573 -0.976931 0.525597
v -0.489989 -0.974219 0.606801
v -0.628846 -0.954261 0.479260
v -1.715780 -2.011810 0.030170
v -0.938216 -0.965987 0.221342
v -0.812384 -0.959821 0.325587
v -0.862670 -0.962285 0.283928
v -1.922889 -2.006771 0.030824
v -0.985515 -0.968305 0.220861
v -1.922888 -1.014236 0.212140
v -1.922889 -2.011810 0.029908
v -0.271655 -1.039483 1.211773
v -0.297955 -1.075527 1.366852
v -0.297955 -1.075527 1.366852
v -0.479006 -0.974295 0.616292
v -0.489989 -0.974219 0.606801
v -0.466964 -1.814062 1.366852
v -0.512267 -2.011810 1.366852
v -0.512267 -2.011810 1.366852
v -0.481531 -2.011810 1.099880
v -0.247734 -1.006530 1.069573
v -0.216872 -0.963553 0.882978
v -0.479880 -2.011810 1.085428
v -0.492385 -2.011810 1.074255
v -0.307479 -0.997387 0.804441
v -0.444811 -0.975795 0.652396
v -0.586573 -0.976931 0.525597
v -1.703308 -2.011810 0.040777
v -0.656424 -0.955095 0.456101
v -0.628846 -0.954261 0.479260
v -0.812384 -0.959821 0.325587
v -1.715780 -2.011810 0.030170
v -0.938216 -0.965987 0.221342
v -0.862670 -0.962285 0.283928
v -0.985515 -0.968305 0.220861
v -1.922888 -1.014236 0.212140
v -1.922888 -1.014236 0.212140
v -1.922889 -2.006771 0.030824
v -1.922889 -2.011810 0.029908
v -1.922889 -2.011810 0.029908
v -1.922888 -2.011810 1.018211
v -1.922888 -2.011810 1.018211
v -1.922888 -1.319727 1.018211
v -1.922888 -1.319727 1.018211
v -0.615841 -2.011810 1.366852
v -0.615841 -1.141308 1.366852
v -1.922888 -1.014236 0.453789
v -0.341511 -1.097357 1.366852
v -1.922888 -1.014236 0.249008
vn 0.9686 -0.2217 0.1127
vn 0.9687 -0.2219 0.1115
vn 0.9689 -0.2220 0.1091
vn 0.6312 -0.3200 -0.7065
vn 0.6863 -0.3001 -0.6625
vn 0.6139 -0.3254 -0.7192
vn 0.6129 -0.3240 -0.7207
vn 0.0012 0.1789 -0.9839
vn -0.2577 -0.0000 0.9662
vn -0.1300 -0.0000 0.9915
vn -0.1181 -0.0000 0.9930
vn -0.0881 0.9829 0.1616
vn -0.1264 0.9415 0.3123
vn -0.1261 0.9596 0.2515
vn -0.1262 0.9545 0.2703
vn -0.1092 0.9636 0.2441
vn -1.0000 -0.0000 -0.0000
vn -0.0000 -0.0000 1.0000
vn -0.2773 0.9471 0.1615
vn -0.2239 0.9597 0.1699
vn -0.1251 0.9749 0.1840
vn -0.0000 -1.0000 -0.0000
vn -0.0485 0.9988 0.0040
vn -0.0480 0.9988 0.0082
vn -0.0482 0.9988 0.0065
vn -0.0489 0.9988 -0.0000
vn -0.4442 0.8863 0.1307
vn 0.0003 0.1797 -0.9837
vt 1.000000 0.571538
vt 0.604201 0.139196
vt 1.000000 0.138426
vt 0.954837 0.000000
vt 1.000000 0.000000
vt 1.000000 0.577644
vt 0.571538 0.571538
vt 0.138426 0.138426
vt 0.147569 0.024256
vt 0.577644 0.577644
vt 0.000000 0.000000
vt 0.868557 0.000000
vt 0.955157 0.955157
vt 0.039023 0.000000
vt 1.000000 0.160790
vt 1.000000 0.131443
vt 1.000000 1.000000
vt 0.160790 0.160790
vt 0.272619 0.159314
vt 0.734369 0.166005
vt 0.852883 0.845839
vt 0.845801 0.845801
vt 0.039023 0.039023
vt 1.000000 0.039223
vt 1.000000 0.860737
vt 0.978770 0.861381
vt 0.927400 0.843746
vt 0.860737 0.860737
vt 0.039223 0.039223
vt 0.036551 0.000000
vt 0.794223 0.000000
vt 0.812497 0.228929
vt 0.824661 0.381311
vt 1.000000 0.792486
vt 0.794223 0.794223
vt 0.036551 0.036551
vt 0.979294 0.036288
vt 1.000000 0.039934
vt 0.634510 0.677893
vt 0.492153 0.726170
vt 0.471010 0.633976
vt 0.611323 0.605987
vt 0.602883 0.535971
vt 0.445503 0.551529
vt 0.455024 0.529751
vt 0.459051 0.537809
vt 0.736907 0.643991
vt 0.659145 0.555252
vt 0.680296 0.548284
vt 0.684106 0.547028
vt 0.736640 0.643501
vt 0.441313 0.632337
vt 0.445363 0.633315
vt 0.461327 0.633726
vt 0.457092 0.633617
vt 0.445503 0.551529
vt 0.433156 0.568838
vt 0.442514 0.561472
vt 0.444812 0.552348
vt 0.584422 0.049330
vt 0.586539 0.134816
vt 0.566293 0.206977
vt 0.564954 0.207034
vt 0.421518 0.012769
vt 0.420064 0.012847
vt 0.420255 0.012836
vt 0.423830 0.012645
vt 0.440668 0.093498
vt 0.600991 0.514295
vt 0.461359 0.535481
vt 0.472492 0.511624
vt 0.480513 0.521903
vt 0.600738 0.510525
vt 0.488685 0.516741
vt 0.494067 0.516420
vt 0.433156 0.568838
vt 0.441313 0.632337
vt 0.436380 0.614099
vt 0.431878 0.597342
vt 0.426090 0.574446
vt 0.960066 0.000000
vt 0.413680 0.039879
vt 0.207514 0.000000
s 0
usemtl lambert2SG
f 71/43/14 72/44/14 76/45/14
f 79/46/15 82/47/15 80/48/15 71/49/15 76/50/15 77/51/15
f 80/52/16 82/53/16 81/54/16
f 82/55/17 83/56/17 74/57/17
f 81/58/18 82/59/18 74/60/18 85/61/18 84/62/18
f 75/63/19 74/64/19 83/65/19 87/66/19 88/67/19 89/68/19 86/69/19
f 88/70/20 87/71/20 91/72/20 92/73/20 93/74/20 90/75/20
f 94/76/21 92/77/21 91/78/21 98/79/21 97/80/21
s 1
f 100/81/22 104/82/23 105/83/24 102/84/22
f 106/85/25 103/84/26 42/83/27 61/86/28 60/87/26 62/88/29
f 99/89/30 101/81/30 40/84/30 43/90/30 108/91/30 96/92/30 67/93/30
f 73/94/31 107/95/31 105/83/24 104/83/23 78/96/31 46/97/31
f 61/98/28 42/83/27 45/95/32 57/99/33 56/100/34 55/101/34
f 39/102/35 70/103/35 63/104/35 58/105/35 54/106/35 53/107/35 50/108/35 49/109/35 41/110/35
f 44/111/36 106/85/25 62/88/29 59/112/37 65/113/37 66/114/38
f 95/115/39 44/111/36 66/114/38 64/116/39 68/117/39
f 57/118/33 45/95/32 48/119/40 47/120/40 51/121/40 52/122/40
s 0
f 97/123/41 69/124/41 94/125/41
o item3_cell.002
v 0.952271 1.704454 -0.748215
v 0.952271 1.704454 0.482399
v 1.025673 1.716949 0.294464
v 1.025673 1.716949 -0.479889
v 0.711980 1.722984 0.545937
v 0.711980 1.992504 0.294464
v 0.711980 1.992504 -0.479889
v 0.711980 1.722984 -0.811752
v 0.247943 2.001429 0.294464
v 0.247538 1.981317 0.313236
v 0.243487 1.781297 0.587409
v 0.242765 1.732008 -0.920715
v 0.243116 1.749747 -0.898783
v 0.233519 1.269973 -0.922862
v 0.248093 2.001426 -0.556383
v 0.711980 0.648047 -0.811752
v 1.025673 0.384990 -0.479889
v 0.952271 0.547452 -0.748215
v 0.209901 0.007551 0.662452
v 0.225438 0.843385 -0.924738
v 0.952271 -0.103907 0.482399
v 1.025673 -0.024870 0.294464
v 0.711980 -0.070614 0.545937
v 0.210071 0.016574 0.662491
v 0.242565 1.732012 0.654945
v 0.247538 1.981317 0.313236
v 0.243487 1.781297 0.587409
v 0.247943 2.001429 0.294464
v 0.248093 2.001426 -0.556383
v 0.243116 1.749747 -0.898783
v 0.242765 1.732008 -0.920715
v 0.242765 1.732008 -0.920715
v 0.233519 1.269973 -0.922862
v 0.209901 0.007551 0.662452
v 0.711980 -0.070614 0.545937
v 0.711980 0.648047 -0.811752
v 0.952271 0.547452 -0.748215
v 0.952271 0.547452 -0.748215
v 1.025673 0.384990 -0.479889
v 0.952271 -0.103907 0.482399
v 0.952271 -0.103907 0.482399
v 0.225438 0.843385 -0.924738
v 1.025673 -0.024870 0.294464
v 0.210071 0.016574 0.662491
v 0.242565 1.732012 0.654945
v 0.242565 1.732012 0.654945
v 0.952271 1.704454 -0.748215
v 0.952271 1.704454 -0.748215
v 1.025673 1.716949 -0.479889
v 0.952271 1.704454 0.482399
v 0.952271 1.704454 0.482399
v 1.025673 1.716949 0.294464
v 0.711980 1.722984 0.545937
v 0.711980 1.722984 -0.811752
vn -0.9998 0.0200 -0.0002
vn -0.9998 0.0189 0.0002
vn 0.9646 -0.0000 -0.2639
vn 0.9914 -0.0000 -0.1312
vn 0.9960 -0.0000 -0.0894
vn 0.9714 -0.0000 0.2373
vn 0.9834 -0.0000 0.1814
vn 0.9315 -0.0000 0.3638
vn 0.2556 -0.0000 0.9668
vn 0.2405 -0.0000 0.9706
vn 0.2423 -0.0000 0.9702
vn 0.5851 0.7691 0.2571
vn 0.3193 0.8962 0.3079
vn 0.2542 0.7478 0.6133
vn 0.4431 0.7190 0.5355
vn 0.5828 0.7863 -0.2050
vn 0.3307 0.9096 -0.2515
vn 0.4623 0.7795 -0.4228
vn 0.2884 0.7952 -0.5334
vn 0.2445 -0.0000 -0.9697
vn 0.2405 -0.0000 -0.9706
vn 0.2556 -0.0000 -0.9668
vn 0.2262 -0.0000 0.9741
vn 0.0560 0.9342 0.3524
vn 0.0856 0.7474 0.6589
vn 0.0886 0.9320 -0.3515
vn 0.1370 0.7828 -0.6070
vn 0.2262 -0.0000 -0.9741
vn -0.2390 -0.8582 -0.4543
vt 0.915744 0.305160
vt 0.936700 0.332739
vt 0.936640 0.632916
vt 0.674351 0.491453
vt 0.655865 0.480706
vt 0.174393 0.000000
vt 0.707327 0.000000
vt 1.000000 0.292673
vt 1.000000 0.825607
vt 0.796016 0.796016
vt 0.138406 0.138406
vt 0.171395 0.143282
vt 0.966124 0.268838
vt 0.165735 0.860799
vt 0.165734 0.979155
vt 0.137277 0.980433
vt 0.137278 0.844180
vt 0.058066 0.802252
vt 0.058065 0.980432
vt 0.037425 0.979154
vt 0.037426 0.794167
vt 0.058066 0.802252
vt 0.037426 0.794167
vt 0.012000 0.981049
vt 0.012001 0.797572
vt 0.243426 0.818797
vt 0.241646 0.861472
vt 0.208445 0.843596
vt 0.223129 0.822753
vt 0.322569 0.822099
vt 0.320789 0.864773
vt 0.350424 0.828062
vt 0.362190 0.850681
vt 0.191160 0.871089
vt 0.191159 0.981050
vt 0.165735 0.860799
vt 0.899852 0.811059
vt 0.899853 0.810129
vt 0.952569 0.802188
vt 0.952400 0.985665
vt 0.903102 0.986543
vt 0.556526 0.873439
vt 0.518193 0.879095
vt 0.512454 0.832458
vt 0.508944 0.833727
vt 0.547008 0.825107
vt 0.557498 0.822689
vt 0.435981 0.888110
vt 0.424483 0.841382
vt 0.307444 0.855040
vt 0.424483 0.841382
vt 0.390856 0.891604
vt 0.378265 0.842328
vt 0.625492 0.895678
vt 0.624776 0.939318
vt 0.623949 0.986585
vt 0.574671 0.985812
vt 0.574337 0.875851
vt 0.593398 0.100266
vt 1.000000 0.138406
vt 1.000000 0.796016
vt 0.945311 0.626832
vt 0.830659 0.478761
vt 0.886861 0.393779
vt 0.340778 0.150768
vt 0.398864 0.085247
s 0
usemtl lambert2SG
f 134/126/42 136/127/42 137/128/42 138/129/42 139/130/42 141/131/42 135/132/42
f 135/133/43 141/134/43 150/135/43 127/136/43 152/137/43 153/138/43
s 1
f 146/139/44 155/140/44 157/141/45 147/142/46
f 151/143/47 160/144/48 158/145/49 149/146/49
f 147/142/46 157/141/45 160/144/48 151/147/47
f 148/148/50 159/145/50 161/149/51 143/150/52
f 111/151/53 114/152/54 113/153/55 110/154/56
f 112/155/57 115/156/58 114/152/54 111/151/53
f 156/157/59 162/158/60 115/156/58 112/155/57
f 144/159/61 116/160/62 109/140/63 145/161/63
f 132/162/64 142/163/64 143/164/52 161/165/51 154/166/64
f 113/167/55 114/168/54 117/169/65 118/170/66 119/171/66 133/172/66
f 117/169/65 114/168/54 115/173/58 123/174/67
f 121/175/68 123/176/67 115/173/58 162/177/60 140/178/68
f 128/179/69 122/180/69 120/181/69 116/182/62 144/183/61
s 0
f 131/184/70 127/185/70 150/186/70 124/187/70 126/188/70 125/189/70 130/190/70 129/191/70
o item3_cell.003
v -0.477833 -1.261012 -0.693406
v -0.478022 -2.007504 1.082440
v 0.745374 -1.570973 0.144771
v -0.469390 -0.946871 0.482399
v -0.291837 -0.951437 0.545937
v -0.477377 -0.973795 0.615057
v -0.445318 -0.975199 0.648891
v -0.307309 -0.996886 0.801624
v -0.215289 -0.962521 0.881353
v -0.477382 -0.957481 0.530662
v -0.477285 -0.803678 0.462184
v -0.477387 -0.946843 0.461923
v -0.477384 -0.948922 0.485346
v -0.478069 -2.011810 -0.692851
v -0.478027 -2.011810 0.942414
v -0.465856 -2.011810 1.073160
v -0.128409 -0.909166 0.814804
v -0.096977 -0.915942 0.790721
v 0.708190 -2.011810 0.173663
v -0.027795 -0.930873 0.737638
v 0.744981 -2.011810 0.145427
v -0.291837 -0.867915 0.545937
v -0.090183 -0.955316 0.592766
v -0.469390 -0.799815 0.482399
v 0.444926 -2.011810 -1.366844
v 0.413680 -1.995417 -1.366844
v 0.413014 -2.006289 -1.366844
v 0.413018 -2.011810 -1.366844
v 0.824170 -2.011810 -0.864023
v -0.477377 -0.973795 0.615057
v -0.445318 -0.975199 0.648891
v -0.307309 -0.996886 0.801624
v -0.215289 -0.962521 0.881353
v -0.477285 -0.803678 0.462184
v -0.477387 -0.946843 0.461923
v -0.477387 -0.946843 0.461923
v -0.477382 -0.957481 0.530662
v -0.477384 -0.948922 0.485346
v -0.478022 -2.007504 1.082440
v -0.478027 -2.011810 0.942414
v -0.478069 -2.011810 -0.692851
v -0.128409 -0.909166 0.814804
v -0.096977 -0.915942 0.790721
v 0.708190 -2.011810 0.173663
v -0.465856 -2.011810 1.073160
v 0.744981 -2.011810 0.145427
v -0.027795 -0.930873 0.737638
v -0.090183 -0.955316 0.592766
v -0.090183 -0.955316 0.592766
v -0.291837 -0.867915 0.545937
v -0.469390 -0.799815 0.482399
v -0.469390 -0.799815 0.482399
v 0.444926 -2.011810 -1.366844
v 0.444926 -2.011810 -1.366844
v 0.413680 -1.995417 -1.366844
v 0.413014 -2.006289 -1.366844
v 0.413018 -2.011810 -1.366844
v 0.413018 -2.011810 -1.366844
v 0.824170 -2.011810 -0.864023
v -0.469390 -0.946871 0.482399
v -0.469390 -0.946871 0.482399
v -0.291837 -0.951437 0.545937
vn -0.6862 0.3000 0.6627
vn 0.6066 0.0005 0.7950
vn 0.6082 -0.0001 0.7938
vn 0.6088 0.0006 0.7933
vn -0.5835 0.0357 -0.8114
vn -0.6032 -0.0004 -0.7976
vn 0.9969 -0.0008 0.0782
vn -0.1950 0.9699 0.1460
vn -0.0524 0.9833 0.1745
vn -0.1483 0.9786 0.1424
vn -0.0454 0.9837 0.1739
vn -0.1579 0.9872 0.0228
vn -0.1121 0.9900 0.0853
vn -0.3369 -0.0000 0.9415
vn -0.2813 -0.0000 0.9596
vn -0.2954 -0.0000 0.9554
vn -0.2176 0.9722 0.0863
vn -0.9315 -0.0000 0.3638
vn -1.0000 0.0005 0.0001
vn -0.0000 -0.0000 -1.0000
vn 0.4385 0.8356 -0.3308
vn -0.1982 0.9796 -0.0335
vn -0.0001 -1.0000 -0.0000
vn -0.2262 -0.0000 0.9741
vt 1.000000 0.159123
vt 1.000000 1.000000
vt 0.128934 0.128934
vt 0.434704 0.164267
vt 0.893443 0.157694
vt 1.000000 0.128934
vt 0.920871 0.920871
vt 0.039960 0.000000
vt 0.978369 0.919202
vt 0.877638 0.877638
vt 0.039960 0.039960
vt 1.000000 0.039884
vt 1.000000 0.913796
vt 0.101891 0.000000
vt 1.000000 0.000000
vt 1.000000 0.838784
vt 0.913796 0.913796
vt 0.039884 0.039884
vt 0.068669 0.068669
vt 1.000000 0.069160
vt 1.000000 0.062774
vt 0.069160 0.069160
vt 0.069155 0.062269
vt 0.102166 0.000000
vt 1.000000 0.898109
vt 0.442262 0.537478
vt 0.442948 0.543270
vt 0.441328 0.538035
vt 0.442948 0.543270
vt 0.444475 0.552419
vt 0.442492 0.561021
vt 0.433095 0.568515
vt 0.427545 0.539202
vt 0.827929 0.727480
vt 0.827943 0.712437
vt 0.847234 0.711987
vt 0.847226 0.720531
vt 0.441637 0.536528
vt 0.442216 0.538024
vt 0.825709 0.727083
vt 0.825694 0.712438
vt 0.827929 0.727480
vt 0.000000 0.000000
vt 0.937226 0.000000
vt 1.000000 0.921123
vt 0.159123 0.159123
vt 0.178369 0.124821
vt 0.188527 0.104534
vt 0.196705 0.098711
vt 0.052809 0.000000
vt 0.349972 0.307854
vt 0.352921 0.307526
vt 0.352921 0.307526
vt 0.352860 0.307533
vt 0.036039 0.019339
vt 0.068669 0.000000
vt 1.000000 0.947191
vt 0.991765 0.968642
vt 0.893710 0.184356
vt 0.793273 0.446465
vt 0.838784 0.838784
vt 0.102166 0.102166
vt 0.425747 0.573483
vt 0.409668 0.657406
vt 0.410895 0.606762
vt 0.408183 0.565940
vt 0.412917 0.541139
vt 0.435201 0.249770
vt 0.352921 0.307526
vt 0.295962 0.228196
vt 0.304295 0.226229
vt 0.308164 0.225614
vt 0.418433 0.012934
vt 0.419846 0.012858
vt 0.419848 0.012858
vt 0.868412 0.711610
s 0
usemtl lambert2SG
f 192/192/71 201/193/71 195/194/71 194/195/71 193/196/71
f 195/197/72 201/198/72 207/199/72
f 204/200/73 195/201/73 207/202/73 206/203/73 205/204/73
f 208/205/74 165/206/74 209/207/74 205/208/74 206/209/74
f 163/193/75 188/210/75 218/211/75
f 203/212/76 163/193/76 218/213/76 219/214/76
f 221/215/77 165/206/77 208/216/77
s 1
f 200/217/78 199/218/79 222/219/80
f 199/220/79 168/221/81 169/222/81 170/223/82 224/224/83 222/219/80
f 213/225/84 223/226/84 167/227/85 184/228/86
f 198/229/87 200/230/78 222/219/80
f 196/231/88 197/232/88 166/226/88 214/233/88
s 0
f 163/234/89 203/235/89 202/236/89 201/193/89 192/237/89 172/238/89 175/239/89 174/240/89 173/241/89
s 1
f 215/242/90 220/243/90 189/244/90 217/245/90
s 0
f 216/246/91 188/247/91 163/206/91 173/248/91 186/249/91 212/250/91 210/251/91 209/252/91 165/193/91 221/253/91
s 1
f 224/224/83 170/223/82 171/254/92 179/255/92 180/256/92 182/257/92 211/258/92
f 176/259/93 190/260/93 187/242/93 191/261/93 183/262/93 181/263/93 178/264/93 164/265/93 177/266/93
f 184/228/86 167/227/85 185/267/94
o item3_cell.004
v -0.469390 1.731800 -0.748215
v -0.469390 1.731800 0.482399
v -0.542791 1.747120 0.294464
v -0.542791 1.747120 -0.479889
v -0.291837 1.742292 0.545937
v -0.291837 2.011812 0.294464
v -0.291837 2.011812 -0.479889
v -0.291837 1.742292 -0.811752
v 0.210071 1.732637 -0.928307
v 0.210071 2.002157 -0.562653
v 0.210071 2.002157 0.294464
v 0.210071 1.732637 0.662491
v 0.245655 2.001472 0.294464
v 0.245299 1.982562 0.312114
v 0.240770 1.732047 -0.921178
v 0.241079 1.748691 -0.900604
v 0.245759 2.001471 -0.556768
v 0.212117 0.243335 0.662016
v 0.225053 0.898990 -0.924828
v 0.240546 1.732051 0.655414
v 0.210071 0.145400 0.662491
v 0.223891 0.843404 -0.925097
v 0.207202 0.008085 0.661825
v 0.210071 0.841599 -0.928307
v -0.542791 0.011304 0.294464
v -0.469390 -0.068607 0.482399
v -0.291837 -0.057097 0.545937
v -0.542791 0.416993 -0.479889
v -0.474718 0.575395 -0.749483
v -0.514309 0.490467 -0.606424
v -0.371025 0.620884 -0.786481
v -0.291837 0.654059 -0.811752
v 0.240770 1.732047 -0.921178
v 0.240770 1.732047 -0.921178
v 0.241079 1.748691 -0.900604
v 0.245759 2.001471 -0.556768
v 0.245655 2.001472 0.294464
v 0.245299 1.982562 0.312114
v 0.225053 0.898990 -0.924828
v 0.240546 1.732051 0.655414
v 0.240546 1.732051 0.655414
v 0.212117 0.243335 0.662016
v 0.223891 0.843404 -0.925097
v 0.210071 0.145400 0.662491
v 0.207202 0.008085 0.661825
v 0.210071 0.841599 -0.928307
v -0.542791 0.011304 0.294464
v -0.469390 -0.068607 0.482399
v -0.469390 -0.068607 0.482399
v -0.291837 -0.057097 0.545937
v -0.291837 0.654059 -0.811752
v -0.542791 0.416993 -0.479889
v -0.514309 0.490467 -0.606424
v -0.474718 0.575395 -0.749483
v -0.474718 0.575395 -0.749483
v -0.371025 0.620884 -0.786481
v -0.469390 1.731800 -0.748215
v -0.469390 1.731800 -0.748215
v -0.291837 1.742292 -0.811752
v -0.542791 1.747120 -0.479889
v -0.469390 1.731800 0.482399
v -0.469390 1.731800 0.482399
v -0.291837 1.742292 0.545937
v -0.542791 1.747120 0.294464
v 0.210071 1.732637 0.662491
v 0.210071 1.732637 -0.928307
vn 0.9998 -0.0209 -0.0005
vn 0.2180 -0.8645 -0.4528
vn -0.3502 0.9022 -0.2518
vn -0.2996 0.7869 -0.5395
vn -0.5344 0.7364 -0.4148
vn -0.6520 0.7306 -0.2030
vn -0.3301 0.0020 -0.9439
vn -0.2779 0.0010 -0.9606
vn -0.2905 0.0013 -0.9569
vn -0.9674 0.0036 -0.2531
vn -0.9962 0.0012 -0.0865
vn -0.9921 0.0018 -0.1253
vn -0.2854 -0.0000 0.9584
vn -0.2814 -0.0000 0.9596
vn -0.3369 -0.0000 0.9415
vn -0.9315 -0.0000 0.3638
vn -0.9836 -0.0000 0.1805
vn -0.9715 -0.0000 0.2372
vn -0.2692 0.7409 0.6152
vn -0.3401 0.8892 0.3059
vn -0.6533 0.7126 0.2557
vn -0.5135 0.6783 0.5255
vn -0.0028 -0.0000 1.0000
vn -0.2233 -0.0000 0.9748
vn 0.2262 -0.0000 0.9741
vn 0.0325 0.9431 0.3309
vn 0.0438 0.7788 0.6257
vn 0.1469 0.7947 0.5890
vn 0.0876 0.9465 0.3107
vn 0.9998 -0.0190 0.0002
vn 0.1139 0.7990 -0.5905
vn 0.0051 0.7978 -0.6029
vn 0.0112 0.9378 -0.3470
vn 0.0655 0.9571 -0.2821
vn -0.0028 -0.0000 -1.0000
vn 0.2262 -0.0000 -0.9741
vn -0.0328 -0.0000 -0.9995
vn -0.2262 -0.0000 0.9741
vt 1.000000 0.796192
vt 0.826283 0.826283
vt 0.266347 0.266347
vt 0.570858 0.213208
vt 1.000000 0.138873
vt 0.863977 0.099878
vt 0.479175 0.252882
vt 0.549506 0.291241
vt 0.629021 0.340709
vt 0.649564 0.430645
vt 0.663594 0.498977
vt 0.848243 0.798778
vt 0.796192 0.796192
vt 0.138873 0.138873
vt 0.482780 0.103382
vt 0.692255 0.059968
vt 0.428358 0.787160
vt 0.386119 0.784683
vt 0.393010 0.765108
vt 0.420833 0.751959
vt 0.687858 0.873963
vt 0.699497 0.868038
vt 0.699382 0.986334
vt 0.680095 0.987466
vt 0.679756 0.876145
vt 0.714608 0.859449
vt 0.727963 0.851862
vt 0.727838 0.987927
vt 0.847150 0.803474
vt 0.846980 0.987543
vt 0.827691 0.986452
vt 0.827860 0.802279
vt 0.827860 0.802279
vt 0.807050 0.988000
vt 0.807214 0.810434
vt 0.537102 0.767304
vt 0.502771 0.778667
vt 0.502935 0.741656
vt 0.525089 0.749018
vt 0.727963 0.851862
vt 0.807214 0.810434
vt 0.899690 0.986604
vt 0.899840 0.824237
vt 0.900045 0.834255
vt 0.902890 0.986547
vt 0.511986 0.828652
vt 0.557565 0.819176
vt 0.557502 0.822471
vt 0.509142 0.833419
vt 0.512426 0.832228
vt 1.000000 0.826282
vt 0.825108 0.481390
vt 0.817850 0.491482
vt 0.696554 0.633676
vt 0.396097 0.333315
vt 0.389862 0.307373
vt 0.302379 0.268643
vt 1.000000 0.266347
vt 0.378212 0.842118
vt 0.377388 0.838894
vt 0.423541 0.837552
vt 0.424426 0.841147
vt 0.311783 0.854040
vt 0.627383 0.986639
vt 0.624159 0.986588
vt 0.625550 0.901366
vt 0.625655 0.895679
vt 0.627105 0.895490
vt 0.679756 0.876145
vt 0.899551 0.810190
vt 0.512426 0.832228
vt 0.424426 0.841147
s 0
usemtl lambert2SG
f 267/268/95 263/269/95 266/270/95 268/271/95 269/272/95
f 271/273/96 276/274/96 277/275/96 278/276/96 280/277/96 275/278/96 270/279/96 267/280/96 269/281/96 274/282/96 272/283/96
s 1
f 231/284/97 283/285/98 281/286/99 284/287/100
f 255/288/101 279/289/101 282/290/101 232/291/102 256/292/103
f 254/293/104 252/294/105 228/295/106 225/290/104 253/289/104
f 251/296/107 287/297/108 285/298/109 273/299/109
f 250/300/110 286/298/110 288/301/111 249/302/112
f 229/303/113 230/304/114 227/305/115 226/306/116
f 288/301/111 228/295/106 252/307/105 249/308/112
f 230/304/114 231/284/97 284/287/100 227/305/115
f 289/309/117 245/310/118 242/311/119 265/312/119
f 235/313/120 236/314/121 264/315/122 262/316/122 237/317/123
s 0
f 263/318/124 257/319/124 259/320/124 260/321/124 261/322/124 238/323/124 244/324/124 266/325/124
s 1
f 258/326/125 290/327/126 234/328/127 241/329/128 240/330/125
f 233/331/129 239/332/130 243/333/130 246/334/130 248/335/131
f 232/291/102 233/331/129 248/335/131 256/336/103
f 234/328/127 290/327/126 283/285/98 231/284/97
f 236/314/121 235/313/120 230/304/114 229/303/113
f 247/337/132 245/310/118 289/309/117 287/297/108 251/296/107
f 234/328/127 231/284/97 230/304/114 235/313/120 237/338/123 241/339/128
o item3_cell.005
v -0.477863 -1.258299 -0.693621
v -0.615841 -1.162081 -1.366844
v 0.745475 -1.568556 0.145149
v -0.843675 -0.970837 -0.693595
v 1.098722 -0.831610 -1.366844
v 0.952271 -0.974218 -0.748215
v -0.481732 -0.946871 -0.751152
v 1.025673 -0.976780 0.294464
v -0.542791 -0.946611 -0.479889
v 1.025673 -0.976780 -0.479889
v 0.711980 -0.970745 -0.811752
v 0.755809 -1.127758 -1.366844
v -0.291837 -0.951437 -0.811752
v -0.341511 -1.124931 -1.366844
v 0.207149 -1.172857 -1.366844
v 0.210071 -0.961092 -0.928307
v 1.051709 -0.985362 0.293752
v 1.283551 -1.060056 -0.506238
v 1.264703 -1.053970 -0.441179
v 1.327225 -1.087135 -0.679974
v 1.098722 -1.847888 -1.366844
v 0.998129 -2.011810 -1.366844
v 1.474720 -1.030022 -1.004025
v 1.508109 -1.047641 -1.131407
v 0.711980 0.645567 -0.811752
v 0.952271 0.545027 -0.748215
v 1.025673 0.382604 -0.479889
v 0.210071 0.005016 0.662491
v 0.224185 0.841295 -0.925029
v 0.952271 -0.106228 0.482399
v 1.025673 -0.027190 0.294464
v 0.711980 -0.072981 0.545937
v 0.711980 -0.721877 0.545937
v 0.952271 -0.657543 0.482399
v 1.019509 -0.976565 0.310245
v 0.825099 -2.011810 -0.868229
v 0.210071 -0.891360 0.662491
v 0.159127 -0.960112 0.650661
v -0.022294 -0.932014 0.733649
v -0.410317 -0.819767 0.503538
v -0.291837 -0.865104 0.545937
v -0.082952 -0.955455 0.594445
v -0.542791 0.414704 -0.479889
v -0.474729 0.573084 -0.749485
v -0.514260 0.488293 -0.606643
v -0.371189 0.618562 -0.786429
v -0.291837 0.651851 -0.811752
v -0.542791 0.009071 0.294464
v -0.469390 -0.070912 0.482399
v -0.291837 -0.059474 0.545937
v 0.210071 0.839456 -0.928307
v -0.469390 -0.797120 0.482399
v -0.478492 -0.801566 0.459094
v 0.411771 -1.992373 -1.366844
v 0.448782 -2.011810 -1.366844
v -0.746820 -0.956608 -0.465353
v -0.542791 -0.816201 0.294464
v -0.828777 -0.962871 -0.643888
v -0.542791 -0.946611 -0.035026
v -0.840741 -0.963652 -0.669656
v -0.836267 -0.963443 -0.660230
v -0.641682 -1.163822 -1.359951
v -0.647804 -1.158466 -1.349358
v -0.615841 -1.184491 -1.366844
v -0.849623 -0.968492 -0.739024
v -0.848033 -0.963993 -0.725900
v -0.842739 -0.963746 -0.685010
v 1.283551 -1.060056 -0.506238
v 1.264703 -1.053970 -0.441179
v 1.098722 -1.847888 -1.366844
v 0.998129 -2.011810 -1.366844
v 0.998129 -2.011810 -1.366844
v 1.508109 -1.047641 -1.131407
v 1.508109 -1.047641 -1.131407
v 1.474720 -1.030022 -1.004025
v 1.327225 -1.087135 -0.679974
v 0.952271 0.545027 -0.748215
v 0.952271 0.545027 -0.748215
v 1.025673 0.382604 -0.479889
v 0.711980 0.645567 -0.811752
v 0.952271 -0.106228 0.482399
v 0.952271 -0.106228 0.482399
v 0.711980 -0.072981 0.545937
v 1.025673 -0.027190 0.294464
v 0.224185 0.841295 -0.925029
v 0.210071 0.005016 0.662491
v 0.952271 -0.657543 0.482399
v 0.952271 -0.657543 0.482399
v 1.019509 -0.976565 0.310245
v 1.019509 -0.976565 0.310245
v 0.711980 -0.721877 0.545937
v 1.051709 -0.985362 0.293752
v 0.825099 -2.011810 -0.868229
v 0.210071 -0.891360 0.662491
v 0.159127 -0.960112 0.650661
v 0.159127 -0.960112 0.650661
v -0.022294 -0.932014 0.733649
v -0.410317 -0.819767 0.503538
v -0.291837 -0.865104 0.545937
v -0.082952 -0.955455 0.594445
v -0.082952 -0.955455 0.594445
v -0.474729 0.573084 -0.749485
v -0.474729 0.573084 -0.749485
v -0.371189 0.618562 -0.786429
v -0.514260 0.488293 -0.606643
v -0.542791 0.414704 -0.479889
v -0.291837 0.651851 -0.811752
v 0.210071 0.839456 -0.928307
v -0.542791 0.009071 0.294464
v -0.469390 -0.070912 0.482399
v -0.469390 -0.070912 0.482399
v -0.291837 -0.059474 0.545937
v -0.469390 -0.797120 0.482399
v -0.469390 -0.797120 0.482399
v -0.478492 -0.801566 0.459094
v 0.448782 -2.011810 -1.366844
v 0.448782 -2.011810 -1.366844
v 0.411771 -1.992373 -1.366844
v -0.542791 -0.816201 0.294464
v -0.542791 -0.946611 -0.035026
v -0.542791 -0.946611 -0.035026
v -0.746820 -0.956608 -0.465353
v -0.828777 -0.962871 -0.643888
v -0.836267 -0.963443 -0.660230
v -0.840741 -0.963652 -0.669656
v -0.647804 -1.158466 -1.349358
v -0.849623 -0.968492 -0.739024
v -0.641682 -1.163822 -1.359951
v -0.641682 -1.163822 -1.359951
v -0.615841 -1.184491 -1.366844
v -0.848033 -0.963993 -0.725900
v -0.842739 -0.963746 -0.685010
v -0.615841 -1.162081 -1.366844
v -0.341511 -1.124931 -1.366844
v 1.098722 -0.831610 -1.366844
v -0.481732 -0.946871 -0.751152
v -0.481732 -0.946871 -0.751152
v -0.291837 -0.951437 -0.811752
v 0.952271 -0.974218 -0.748215
v 0.952271 -0.974218 -0.748215
v 1.025673 -0.976780 -0.479889
v -0.542791 -0.946611 -0.479889
v 1.025673 -0.976780 0.294464
v 0.711980 -0.970745 -0.811752
v 0.755809 -1.127758 -1.366844
v 0.210071 -0.961092 -0.928307
v 0.207149 -1.172857 -1.366844
vn 0.8173 -0.5015 0.2836
vn 0.3318 -0.3929 0.8576
vn -0.2173 0.8645 0.4531
vn -0.4387 -0.8355 0.3309
vn -0.4384 -0.8354 0.3317
vn -0.5899 -0.7508 0.2972
vn -0.5917 -0.7493 0.2974
vn 0.2389 0.8583 0.4542
vn -0.9914 -0.0246 0.1285
vn -0.9913 -0.0254 0.1292
vn -0.0752 -0.0000 -0.9972
vn -0.2577 -0.0000 -0.9662
vn -0.1219 -0.0000 -0.9925
vn -0.6175 -0.7855 0.0404
vn 0.4985 -0.0000 -0.8669
vn 0.0867 -0.0000 -0.9962
vn 0.2943 -0.0000 -0.9557
vn -0.0999 0.9917 0.0813
vn 0.0214 0.9988 0.0438
vn 0.2845 0.9534 0.1005
vn 0.2651 0.9348 0.2365
vn -0.0844 0.9475 -0.3083
vn -0.0757 0.9729 -0.2183
vn -0.0538 0.9434 -0.3274
vn -0.0507 0.9429 -0.3291
vn -0.0662 0.9462 -0.3166
vn -0.0588 0.9834 -0.1716
vn 0.3006 0.9515 -0.0653
vn 0.3038 0.9520 -0.0380
vn 0.3041 0.9520 -0.0355
vn -0.0493 0.9987 -0.0103
vn -0.0492 0.9988 -0.0063
vn -0.0491 0.9988 -0.0057
vn -0.2693 0.0003 -0.9630
vn -0.3130 0.0007 -0.9497
vn -0.2597 0.0003 -0.9657
vn -0.9727 0.0013 -0.2322
vn -0.9931 0.0007 -0.1169
vn -0.9881 0.0009 -0.1535
vn -0.3369 -0.0000 0.9415
vn -0.2691 -0.0000 0.9631
vn -0.2788 -0.0000 0.9603
vn 0.9845 -0.0000 -0.1754
vn 0.9912 -0.0000 -0.1327
vn 0.9646 -0.0000 -0.2639
vn -0.9315 -0.0000 0.3638
vn -0.9907 -0.0000 0.1359
vn -0.9871 -0.0000 0.1603
vn 0.9315 -0.0000 0.3638
vn 0.9829 -0.0000 0.1844
vn 0.9907 -0.0000 0.1360
vn 0.3093 0.9508 0.0207
vn 0.3117 0.9482 0.0615
vn 0.3139 0.9431 0.1097
vn -0.0489 0.9988 -0.0000
vn -1.0000 -0.0000 -0.0000
vn 0.2556 -0.0000 0.9668
vn 0.2396 -0.0000 0.9709
vn 0.2383 -0.0000 0.9712
vn 0.2556 -0.0000 -0.9668
vn 0.2411 -0.0000 -0.9705
vn 0.2374 -0.0000 -0.9714
vn -0.2190 0.9492 -0.2258
vn -0.2466 0.9463 -0.2093
vn -0.0000 -0.0000 -1.0000
vn -0.0000 -1.0000 -0.0000
vn -0.0021 -0.0000 1.0000
vn -0.0766 -0.0000 0.9971
vn 0.0028 -0.0000 -1.0000
vn 0.0378 -0.0000 -0.9993
vn 0.2262 -0.0000 -0.9741
vn 0.0089 0.9349 -0.3549
vn 0.0636 0.9792 -0.1926
vn -0.2262 -0.0000 0.9741
vt 0.968085 0.021360
vt 0.968097 0.123097
vt 0.817406 0.573597
vt 0.735846 0.559556
vt 0.528355 0.460572
vt 0.973071 0.422938
vt 0.939480 0.388544
vt 0.560126 0.000000
vt 1.000000 1.000000
vt 0.102252 0.102252
vt 0.625019 0.242950
vt 0.619400 0.377953
vt 0.800462 0.341879
vt 1.000000 0.166047
vt 1.000000 0.000000
vt 1.000000 0.439874
vt 0.971122 0.416039
vt 0.786992 0.462379
vt 0.478862 0.226374
vt 0.194889 0.085637
vt 0.275170 0.028153
vt 0.465219 0.050157
vt 1.000000 0.138035
vt 1.000000 0.795961
vt 0.984912 0.793482
vt 0.663367 0.164673
vt 0.649285 0.219127
vt 0.628743 0.288468
vt 0.549330 0.258435
vt 0.954848 0.039849
vt 1.000000 0.102252
vt 0.055727 0.055727
vt 0.033058 0.006948
vt 0.053841 0.000000
vt 0.000000 0.000000
vt 0.930981 0.000000
vt 1.000000 0.055727
vt 0.166047 0.166047
vt 0.542088 0.209690
vt 0.811669 0.105848
vt 1.000000 0.946159
vt 0.823984 0.811025
vt 0.823493 0.540577
vt 0.265109 0.187349
vt 0.040801 0.040801
vt 1.000000 0.040801
vt 0.984838 0.015376
vt 0.975194 0.000000
vt 0.915394 0.602594
vt 0.849820 0.660682
vt 0.579494 0.176862
vt 0.480782 0.264047
vt 0.360572 0.086025
vt 0.204039 0.000000
vt 0.862413 0.001357
vt 0.900419 0.407983
vt 0.937202 0.000000
vt 1.000000 0.007986
vt 0.947191 0.005486
vt 0.007985 0.007985
vt 0.024806 0.000000
vt 0.449138 0.383882
vt 0.451931 0.385899
vt 0.449133 0.386171
vt 0.062798 0.000000
vt 0.906549 0.198946
vt 0.921194 0.204248
vt 0.930728 0.223134
vt 0.930981 0.930981
vt 0.258647 0.414788
vt 0.291298 0.329329
vt 0.307439 0.414117
vt 0.330034 0.465047
vt 0.284503 0.460607
vt 0.280523 0.461402
vt 0.258647 0.414788
vt 0.434649 0.455020
vt 0.420564 0.455076
vt 0.425645 0.393019
vt 0.475382 0.443505
vt 0.475077 0.446371
vt 0.453007 0.383452
vt 0.295447 0.477773
vt 0.284503 0.460607
vt 0.327692 0.480901
vt 0.297317 0.480703
vt 0.474997 0.444334
vt 0.474966 0.443577
vt 0.474591 0.443199
vt 0.473549 0.445606
vt 0.462181 0.468614
vt 0.438851 0.471875
vt 0.679256 0.711911
vt 0.699648 0.712316
vt 0.699497 0.867802
vt 0.687874 0.873726
vt 0.679755 0.875919
vt 0.728092 0.712372
vt 0.727964 0.851628
vt 0.714585 0.859226
vt 0.699497 0.867802
vt 0.834349 0.725445
vt 0.847226 0.720818
vt 0.847150 0.803231
vt 0.827861 0.802043
vt 0.827929 0.727756
vt 0.137278 0.843936
vt 0.137279 0.704877
vt 0.165736 0.705139
vt 0.165735 0.860551
vt 0.827861 0.802043
vt 0.807214 0.810206
vt 0.807292 0.725784
vt 0.825370 0.727299
vt 0.827929 0.727756
vt 0.056334 0.704898
vt 0.058067 0.704876
vt 0.058066 0.802015
vt 0.037426 0.793929
vt 0.037427 0.737532
vt 0.325323 0.529212
vt 0.328567 0.528987
vt 0.328962 0.529919
vt 0.441903 0.501935
vt 0.462181 0.468614
vt 0.727964 0.851628
vt 0.773599 0.712413
vt 0.058066 0.802015
vt 0.137278 0.843936
vt 0.297317 0.480703
vt 0.037427 0.737532
vt 0.012001 0.797330
vt 0.012002 0.730951
vt 0.191161 0.705495
vt 0.191160 0.870836
vt 0.165735 0.860551
vt 0.336083 0.400110
vt 0.348802 0.462975
vt 0.353036 0.307513
vt 0.449321 0.299393
vt 0.423078 0.300657
vt 0.371949 0.305411
vt 0.321237 0.311048
vt 0.288695 0.315653
vt 0.298241 0.314302
vt 0.349615 0.307894
vt 0.285756 0.268945
vt 0.295864 0.228220
vt 0.952631 0.735567
vt 0.952569 0.801946
vt 0.899853 0.809876
vt 0.899937 0.718181
vt 0.574336 0.875598
vt 0.573833 0.710257
vt 0.626544 0.711084
vt 0.627105 0.895271
vt 0.625623 0.895464
vt 0.380563 0.395676
vt 0.384318 0.453526
vt 0.412393 0.541208
vt 0.407847 0.564302
vt 0.394832 0.543533
vt 0.679755 0.875919
vt 0.894594 0.711143
vt 0.899678 0.809945
vt 0.847226 0.720818
vt 0.869171 0.711596
s 0
usemtl lambert2SG
f 361/340/133 360/341/133 363/342/133 365/343/133 366/344/133 358/345/133 359/346/133 382/347/133 293/348/133 383/349/133
f 381/350/134 384/351/134 385/352/134 387/353/134 293/354/134 382/355/134 379/356/134 377/357/134
f 396/358/135 399/359/135 400/360/135 402/361/135 376/362/135 375/363/135 398/364/135 397/365/135 394/366/135 392/367/135 395/368/135
f 406/369/136 383/370/136 293/348/136 388/371/136 403/372/136 405/373/136 291/374/136 408/375/136
f 388/376/137 293/348/137 387/377/137 390/378/137 389/379/137
f 294/374/138 291/354/138 405/380/138 409/381/138 410/382/138 412/383/138 413/384/138
f 294/354/139 413/385/139 414/386/139 415/387/139
f 371/388/140 374/389/140 369/390/140 367/391/140 370/392/140 375/393/140 376/394/140 373/395/140
f 417/396/141 294/354/141 422/397/141 421/398/141
f 422/399/142 294/374/142 415/400/142
s 1
f 420/401/143 419/402/144 423/403/145
s 0
f 294/374/146 417/404/146 416/405/146 418/406/146 354/407/146 408/408/146 291/374/146
s 1
f 364/409/147 311/410/148 425/411/149
f 295/411/150 429/412/151 310/413/152 313/414/153 314/415/153
f 292/403/154 426/416/155 428/417/156 424/418/157
f 355/419/158 356/420/159 426/416/155 292/403/154 352/402/158 353/421/158
f 308/422/160 310/423/152 429/412/151 431/424/161 309/425/162
f 357/426/163 350/427/163 351/428/163 348/429/163 346/430/164 432/431/165 426/416/155 356/420/159
f 303/432/166 427/433/167 393/434/167 336/435/167 337/436/168
f 297/433/169 299/437/170 333/438/171 335/439/169 334/440/169
f 330/441/172 331/442/173 340/443/174 401/444/172 404/445/172
f 317/446/175 300/447/176 430/448/177 368/449/177
f 339/450/178 338/451/179 347/452/180 343/453/178 342/454/178
f 380/455/181 298/456/182 321/457/183 372/458/181 378/459/181
f 307/460/184 433/461/185 325/462/186
f 411/463/187 432/431/165 346/464/164
f 338/451/179 333/465/171 299/437/170 349/466/188 347/452/180
f 321/467/183 298/456/182 300/447/176 317/468/175
f 309/469/162 431/424/161 433/461/185 307/460/184
f 324/470/189 320/458/189 322/471/190 323/472/191
f 296/448/192 434/473/193 315/474/194 316/475/192
f 435/476/195 301/477/196 429/412/151 295/411/150
f 344/478/197 420/479/143 423/479/145 304/480/197 437/481/197 302/482/197 425/483/149 311/483/148 362/484/197 407/485/197
f 312/486/198 326/487/198 345/485/198
f 323/488/191 322/489/190 318/490/199 327/491/200
f 315/492/194 434/493/193 436/494/201 341/495/202 319/496/203
f 305/497/204 306/498/204 301/477/196 435/476/195
f 391/499/205 329/500/205 386/501/205
f 424/418/157 428/417/156 306/498/204 305/497/204
f 436/494/201 303/432/166 337/502/168 341/495/202
f 328/503/206 327/491/200 318/504/199 340/443/174 331/505/173 332/506/206
o item3_cell.006
v -1.922888 -1.250120 -1.018211
v -1.922888 -2.011810 -1.018211
v -0.845042 -0.971258 -0.693610
v -1.922888 -1.014236 -0.651802
v -1.922888 -1.014236 -0.381561
v -1.922888 -1.014236 0.210386
v -0.841975 -0.963710 -0.668440
v -0.849384 -0.964056 -0.725807
v -0.851069 -0.968836 -0.739750
v -1.922889 -2.011810 0.027948
v -1.727801 -2.011810 0.027927
v -1.192417 -0.978443 0.216803
v -1.716512 -2.011810 0.027910
v -0.938707 -0.966011 0.218702
v -0.843081 -0.963762 -0.658482
v -0.863553 -0.962328 -0.457036
v -1.639337 -2.011810 -0.693949
v -1.704564 -2.011810 -1.076445
v -1.108486 -1.195264 -1.235439
v -1.030987 -1.115122 -1.139732
v -0.841975 -0.963710 -0.668440
v -0.849384 -0.964056 -0.725807
v -0.851069 -0.968836 -0.739750
v -1.922888 -1.014236 0.210386
v -1.922888 -1.014236 0.210386
v -1.192417 -0.978443 0.216803
v -1.922889 -2.011810 0.027948
v -1.922889 -2.011810 0.027948
v -1.727801 -2.011810 0.027927
v -0.938707 -0.966011 0.218702
v -1.716512 -2.011810 0.027910
v -0.863553 -0.962328 -0.457036
v -0.843081 -0.963762 -0.658482
v -1.639337 -2.011810 -0.693949
v -1.704564 -2.011810 -1.076445
v -1.704564 -2.011810 -1.076445
v -1.108486 -1.195264 -1.235439
v -1.108486 -1.195264 -1.235439
v -1.030987 -1.115122 -1.139732
v -1.922888 -2.011810 -1.018211
v -1.922888 -2.011810 -1.018211
v -1.922888 -1.250120 -1.018211
v -1.922888 -1.250120 -1.018211
v -1.922888 -1.014236 -0.651802
v -1.922888 -1.014236 -0.381561
vn -0.0000 -1.0000 -0.0000
vn 0.0015 -0.1805 0.9836
vn -1.0000 -0.0000 -0.0000
vn -0.2577 -0.0000 -0.9662
vn 0.0002 -0.1799 0.9837
vn 0.7920 -0.6046 0.0847
vn -0.1346 0.8925 -0.4305
vn -0.0922 0.9720 -0.2162
vn -0.0918 0.9724 -0.2145
vn -0.0478 0.9988 -0.0045
vn -0.0484 0.9988 -0.0021
vn -0.0483 0.9988 -0.0025
vn 0.9914 0.0246 -0.1282
vn -0.0489 0.9988 -0.0000
vn 0.7877 -0.6012 -0.1344
vt 0.566372 0.206974
vt 0.567584 0.206923
vt 0.586539 0.134816
vt 0.587840 0.237596
vt 0.562657 0.284113
vt 0.557813 0.240191
vt 0.794253 0.000000
vt 0.547267 0.547267
vt 0.025272 0.025272
vt 0.036261 0.000000
vt 0.845279 0.608229
vt 0.737109 0.643924
vt 0.684287 0.546968
vt 0.745461 0.526799
vt 0.773394 0.517586
vt 0.819311 0.529480
vt 0.585384 0.281049
vt 0.590638 0.372427
vt 0.502468 0.380991
vt 0.562657 0.284113
vt 0.413706 0.373754
vt 0.107263 0.025458
vt 1.000000 0.025272
vt 1.000000 0.547267
vt 0.036261 0.036261
vt 1.000000 0.045563
vt 1.000000 0.000000
vt 1.000000 0.026108
vt 0.997671 0.034715
vt 0.952450 0.210249
vt 0.794253 0.794253
vt 0.506342 0.278210
vt 0.593707 0.420990
vt 0.475226 0.446339
vt 0.475551 0.443280
vt 0.475116 0.443481
vt 0.475226 0.446339
vt 0.596660 0.449818
vt 0.475529 0.466749
vt 0.475359 0.442927
vt 0.000000 0.000000
vt 0.063766 0.000000
vt 0.058980 0.005829
vt 0.973892 0.000000
vt 0.475529 0.466749
vt 0.600726 0.510346
vt 0.517597 0.514872
vt 0.488723 0.516536
vt 0.851785 0.383349
vt 1.000000 0.936234
vt 1.000000 1.000000
vt 0.045563 0.045563
vt 0.575030 0.045797
vt 0.776327 0.251029
s 1
usemtl lambert2SG
f 450/507/207 466/508/207 465/509/207 477/510/207 472/511/207 454/512/207
s 0
f 467/513/208 463/514/208 448/515/208 468/516/208
s 1
f 478/517/209 464/518/209 462/519/209 482/520/209 481/521/209 479/522/209
f 439/523/210 480/524/210 475/525/210 473/526/210
s 0
f 461/527/211 447/528/211 448/529/211 463/530/211
f 468/531/212 471/532/212 440/533/212 458/534/212 470/535/212 469/536/212 467/537/212
s 1
f 476/538/213 474/525/213 438/524/213 441/539/214 459/540/215 446/541/213
f 444/542/216 459/543/215 441/539/214 442/544/217 453/545/218 452/546/216
s 0
f 440/547/219 460/548/219 445/549/219 458/550/219
s 1
f 453/551/218 442/544/217 443/552/220 449/553/220 451/554/220
s 0
f 457/555/221 460/556/221 440/557/221 471/558/221 455/559/221 456/560/221
o item3_cell.007
v 1.922889 -1.266518 -0.892868
v 1.922889 -2.011810 -0.892868
v 0.747265 -1.570258 0.144993
v 1.098722 -2.011810 -1.366844
v 1.922889 -1.266518 -0.571564
v 1.922889 -1.266518 0.397926
v 1.922889 -1.266518 0.218361
v 1.922889 -1.266518 -0.334587
v 1.922889 -1.266518 0.714061
v 1.922889 -1.888402 0.714054
v 1.730126 -1.225227 0.621031
v 1.509432 -1.048339 -1.130646
v 1.475914 -1.030652 -1.002872
v 1.098722 -1.851461 -1.366844
v 1.000356 -2.011810 -1.366844
v 1.266458 -1.054537 -0.440894
v 1.285406 -1.060655 -0.506428
v 1.328874 -1.087631 -0.679674
v 0.826157 -2.011810 -0.864457
v 1.054096 -0.986165 0.293825
v 1.266885 -1.068964 0.396814
v 1.368807 -1.099657 0.446148
v 1.922889 -2.011810 0.713996
v 0.747299 -2.011810 0.144794
v 1.922889 -1.266518 0.714061
v 1.922889 -1.266518 0.714061
v 1.922889 -1.888402 0.714054
v 1.509432 -1.048339 -1.130646
v 1.509432 -1.048339 -1.130646
v 1.475914 -1.030652 -1.002872
v 1.098722 -1.851461 -1.366844
v 1.730126 -1.225227 0.621031
v 1.000356 -2.011810 -1.366844
v 1.000356 -2.011810 -1.366844
v 1.266458 -1.054537 -0.440894
v 1.285406 -1.060655 -0.506428
v 1.328874 -1.087631 -0.679674
v 0.826157 -2.011810 -0.864457
v 1.054096 -0.986165 0.293825
v 1.922889 -2.011810 0.713996
v 1.922889 -2.011810 0.713996
v 1.368807 -1.099657 0.446148
v 1.266885 -1.068964 0.396814
v 0.747299 -2.011810 0.144794
v 1.922889 -1.266518 0.397926
v 1.922889 -1.266518 -0.892868
v 1.922889 -1.266518 -0.892868
v 1.922889 -2.011810 -0.892868
v 1.922889 -2.011810 -0.892868
v 1.098722 -2.011810 -1.366844
v 1.922889 -1.266518 -0.571564
v 1.922889 -1.266518 -0.334587
v 1.922889 -1.266518 0.218361
vn -0.4346 -0.0000 0.9006
vn -0.8175 0.5014 -0.2833
vn -0.9970 -0.0000 -0.0779
vn 0.2653 0.9628 0.0510
vn 0.2833 0.9578 0.0483
vn 0.2939 0.9547 0.0466
vn 0.4985 -0.0000 -0.8669
vn 0.2580 -0.0000 -0.9661
vn 0.4198 -0.0000 -0.9076
vn 0.3295 0.9430 0.0458
vn 0.3576 0.9241 0.1348
vn 0.3299 0.9429 0.0470
vn 0.3061 0.9519 -0.0116
vn 0.3048 0.9521 -0.0259
vn 0.3061 0.9519 -0.0117
vn 0.3036 0.9525 0.0218
vn 0.3049 0.9523 0.0138
vn 0.2995 0.9530 0.0458
vn -0.4358 -0.0004 0.9001
vn 1.0000 -0.0000 -0.0000
vn -0.0000 -0.0000 -1.0000
vn -0.0000 -1.0000 -0.0000
vt 0.540103 0.000000
vt 0.904705 0.000000
vt 0.904657 0.327194
vt 0.495914 0.072599
vt 0.529882 0.237295
vt 0.113274 0.062452
vt 0.085018 0.023052
vt 0.101753 0.000000
vt 0.000000 0.000000
vt 0.439556 0.001809
vt 0.687289 0.401234
vt 0.635068 0.412952
vt 0.494097 0.438318
vt 1.000000 0.000000
vt 1.000000 0.898247
vt 0.101548 0.000000
vt 0.221326 0.591415
vt 0.219978 0.555915
vt 0.284651 0.546876
vt 0.239718 0.566689
vt 0.209213 0.415468
vt 0.197282 0.314363
vt 0.288695 0.315653
vt 0.291242 0.329031
vt 0.258490 0.414790
vt 0.212172 0.453554
vt 0.258490 0.414790
vt 0.280338 0.461377
vt 0.284303 0.460588
vt 0.213679 0.480159
vt 0.284303 0.460588
vt 0.295214 0.477743
vt 0.297094 0.480702
vt 0.284651 0.546876
vt 0.219031 0.536578
vt 0.325055 0.529333
vt 0.295985 0.536579
vt 0.898452 0.000000
vt 0.966883 0.018499
vt 1.000000 0.095295
vt 1.000000 0.459897
vt 0.700115 0.447903
vt 0.614255 0.441578
vt 0.440020 0.440020
vt 0.297094 0.480702
vt 0.325020 0.529233
vt 0.178106 0.684235
vt 0.012000 0.628860
vt 0.037350 0.551747
vt 0.070576 0.562666
vt 0.095083 0.570705
vt 0.152272 0.589384
vt 0.170851 0.595366
vt 0.203578 0.605668
vt 0.182327 0.671237
vt 0.298030 0.314332
vt 0.304051 0.226268
vt 0.295753 0.228248
vt 0.285529 0.269005
vt 0.275507 0.271649
vt 0.153744 0.104258
s 0
usemtl lambert2SG
f 514/561/222 509/562/222 507/563/222
f 512/564/223 510/565/223 513/566/223 515/567/223 520/568/223 485/569/223 502/570/223 517/571/223 518/572/223 519/573/223
f 485/574/224 520/575/224 526/576/224
s 1
f 508/577/225 527/578/226 524/579/227 493/580/225
f 528/581/228 530/582/228 532/583/229 496/584/230 511/585/228
f 533/586/231 529/581/232 494/587/232 495/588/232 500/589/233
f 534/590/234 533/586/231 500/591/233 499/592/235 498/593/236
f 524/594/227 527/578/226 535/595/237 521/596/238 525/597/239
s 0
f 485/569/240 526/598/240 522/599/240 509/600/240 514/601/240 504/602/240 503/603/240 502/604/240
s 1
f 535/595/237 534/590/234 498/605/236 521/606/238
f 523/607/241 531/608/241 483/609/241 487/610/241 490/611/241 489/612/241 488/613/241 491/614/241 492/615/241
f 532/583/229 516/616/242 496/583/230
f 506/617/243 501/618/243 497/619/243 486/620/243 484/582/243 505/621/243
o item3_cell.008
v -0.479798 -1.259689 -0.692428
v -0.844431 -0.972481 -0.692507
v -0.542791 -0.946611 0.294464
v -0.584596 -0.976424 0.524868
v -0.626159 -0.954137 0.479313
v -0.489643 -0.973760 0.604713
v -0.491563 -2.011810 1.072444
v -0.542791 -0.819056 0.294464
v -0.480129 -0.804886 0.454902
v -0.542791 -0.946611 -0.027504
v -0.749994 -0.956764 -0.465126
v -1.714195 -2.011810 0.028448
v -0.936194 -0.965888 0.219906
v -0.841272 -0.963677 -0.658946
v -0.861574 -0.962231 -0.457177
v -0.859078 -0.962109 0.284046
v -0.809530 -0.959681 0.325258
v -0.479831 -2.011810 1.082541
v -0.480099 -0.973813 0.612897
v -0.479555 -2.011810 1.062521
v -0.480051 -0.961025 0.546783
v -0.480043 -0.946833 0.455123
v -0.480047 -0.949605 0.486327
v -0.479259 -2.011810 -0.693006
v -1.637654 -2.011810 -0.692958
v -0.489643 -0.973760 0.604713
v -0.480099 -0.973813 0.612897
v -0.584596 -0.976424 0.524868
v -0.626159 -0.954137 0.479313
v -0.542791 -0.819056 0.294464
v -0.480129 -0.804886 0.454902
v -0.841272 -0.963677 -0.658946
v -0.749994 -0.956764 -0.465126
v -0.542791 -0.946611 -0.027504
v -0.542791 -0.946611 -0.027504
v -0.480051 -0.961025 0.546783
v -0.936194 -0.965888 0.219906
v -0.861574 -0.962231 -0.457177
v -0.480043 -0.946833 0.455123
v -0.480043 -0.946833 0.455123
v -0.480047 -0.949605 0.486327
v -0.809530 -0.959681 0.325258
v -0.859078 -0.962109 0.284046
v -1.714195 -2.011810 0.028448
v -0.491563 -2.011810 1.072444
v -0.479831 -2.011810 1.082541
v -0.479555 -2.011810 1.062521
v -0.479259 -2.011810 -0.693006
v -1.637654 -2.011810 -0.692958
v -0.542791 -0.946611 0.294464
vn 0.5904 0.7505 -0.2970
vn 0.0001 0.0005 -1.0000
vn -0.6171 0.3242 0.7170
vn 0.9999 0.0065 0.0138
vn -0.6141 0.3251 0.7192
vn -0.0493 0.9988 -0.0046
vn -0.0498 0.9987 -0.0122
vn -0.0493 0.9988 -0.0054
vn -0.1357 0.9471 0.2910
vn -0.1490 0.9635 0.2223
vn -0.1367 0.9485 0.2857
vn -0.0933 0.9825 0.1611
vn -0.0698 0.9935 0.0903
vn 1.0000 0.0006 0.0001
vn -0.1554 0.9699 0.1875
vn -0.0000 -1.0000 -0.0000
vn -0.7921 0.6046 -0.0840
vn -0.0464 0.9987 0.0204
vn -0.0475 0.9988 0.0115
vn -0.0484 0.9988 0.0043
vn -0.9766 -0.0000 0.2149
vn -0.9827 -0.0000 0.1852
vn -0.9315 -0.0000 0.3638
vn -0.0489 0.9988 -0.0000
vn -1.0000 -0.0000 -0.0000
vt 0.000000 0.000000
vt 1.000000 0.000000
vt 0.996557 0.034240
vt 0.817484 0.235834
vt 0.655620 0.255172
vt 0.390651 0.254795
vt 0.056852 0.000000
vt 0.062027 0.062027
vt 1.000000 0.045698
vt 1.000000 1.000000
vt 0.002591 0.000000
vt 1.000000 0.152886
vt 1.000000 0.961203
vt 0.841345 0.841345
vt 0.002591 0.002591
vt 1.000000 0.039123
vt 0.819665 0.584740
vt 0.896577 0.799654
vt 0.856910 0.797901
vt 0.795172 0.795172
vt 0.036355 0.036355
vt 0.038797 0.000000
vt 0.847114 0.000000
vt 0.844871 0.031101
vt 0.814681 0.415570
vt 0.462544 0.468563
vt 0.475155 0.442999
vt 0.475303 0.466780
vt 0.454793 0.529894
vt 0.445433 0.551303
vt 0.443489 0.545019
vt 0.442513 0.538020
vt 0.458753 0.537812
vt 1.000000 0.943148
vt 0.948486 0.868127
vt 0.929458 0.865976
vt 0.889368 0.857098
vt 0.847686 0.847686
vt 0.039123 0.039123
vt 0.062027 0.000000
vt 0.444623 0.551808
vt 0.566123 0.206985
vt 0.557635 0.240206
vt 0.435324 0.249769
vt 0.420026 0.012849
vt 0.420058 0.012847
vt 0.421422 0.012774
vt 0.045698 0.045698
vt 1.000000 0.036355
vt 1.000000 0.795172
vt 0.256203 0.209936
vt 0.030544 0.030544
vt 0.441739 0.536027
vt 0.444163 0.524199
vt 0.480105 0.521929
vt 0.472218 0.511896
vt 0.458753 0.537812
vt 0.442513 0.538020
vt 0.807292 0.725492
vt 0.807304 0.712444
vt 0.824948 0.712438
vt 0.824910 0.726959
vt 0.441954 0.502443
vt 0.462544 0.468563
vt 0.488445 0.516643
vt 0.480104 0.521929
vt 0.774369 0.712414
vt 0.807292 0.725492
s 0
usemtl lambert2SG
f 536/622/244 537/623/244 567/624/244 568/625/244 569/626/244 565/627/244 566/628/244
f 583/629/245 584/630/245 537/623/245 536/631/245
f 581/632/246 562/633/246 580/634/246
f 562/635/247 581/636/247 582/637/247
f 564/638/248 577/639/248 578/640/248 572/641/248 579/642/248 580/643/248 562/644/248 561/645/248 563/646/248
s 1
f 546/647/249 549/648/250 550/649/251
f 539/650/252 541/651/253 556/652/254 558/653/255 540/654/256
s 0
f 536/623/257 566/655/257 574/656/257 576/657/257 571/658/257 562/659/257 582/660/257 583/661/257
s 1
f 554/662/258 556/652/254 541/651/253
f 547/663/259 560/664/259 559/665/259 555/666/259 553/667/259 542/668/259
s 0
f 537/631/260 584/669/260 579/670/260 572/671/260 573/672/260 567/673/260
s 1
f 575/674/261 585/675/262 551/676/263 552/677/261 540/678/256 558/679/255
f 543/680/264 538/681/265 557/682/266 544/683/266
f 585/675/262 570/684/267 546/685/249 550/649/251 548/686/267 551/687/263
f 545/688/268 538/681/265 543/689/264
o item3_cell.009
v 1.922889 -2.011810 0.892876
v 1.922889 -1.266518 0.892876
v 0.746306 -1.569086 0.146882
v 1.098722 -2.011810 1.366852
v 1.098722 -1.091196 1.366852
v 0.952271 -0.974218 0.482399
v 0.755809 -0.828058 1.366852
v 0.711980 -0.970745 0.545937
v 0.210071 -0.961092 0.662491
v 0.207149 -0.822372 1.366852
v 0.746062 -2.011810 0.147036
v 1.263716 -1.068009 0.397676
v 1.364504 -1.098361 0.446522
v 1.052686 -0.985879 0.295404
v 1.922889 -2.011810 0.717096
v 1.922889 -1.266518 0.717113
v 1.730626 -1.225619 0.623958
v -0.295736 -1.074415 1.366852
v -0.510515 -2.011810 1.366852
v -0.478315 -2.011810 1.085356
v -0.246095 -1.005764 1.069952
v -0.214254 -0.962228 0.882886
v -0.127453 -0.908918 0.816376
v -0.024140 -0.931194 0.737214
v 0.210071 -0.896089 0.662491
v 0.299569 -0.865684 0.641708
v 0.162781 -0.960182 0.651509
v 0.711980 -0.726482 0.545937
v 0.952271 -0.662276 0.482399
v 1.018465 -0.976528 0.312920
v 1.922889 -2.011810 0.717096
v 1.922889 -2.011810 0.717096
v 0.746062 -2.011810 0.147036
v 1.263716 -1.068009 0.397676
v 1.052686 -0.985879 0.295404
v 1.364504 -1.098361 0.446522
v 1.922889 -1.266518 0.717113
v 1.922889 -1.266518 0.717113
v 1.730626 -1.225619 0.623958
v -0.510515 -2.011810 1.366852
v -0.510515 -2.011810 1.366852
v -0.295736 -1.074415 1.366852
v -0.295736 -1.074415 1.366852
v -0.478315 -2.011810 1.085356
v -0.246095 -1.005764 1.069952
v -0.214254 -0.962228 0.882886
v -0.127453 -0.908918 0.816376
v -0.024140 -0.931194 0.737214
v 0.210071 -0.896089 0.662491
v 0.299569 -0.865684 0.641708
v 0.162781 -0.960182 0.651509
v 0.162781 -0.960182 0.651509
v 1.018465 -0.976528 0.312920
v 1.018465 -0.976528 0.312920
v 0.711980 -0.726482 0.545937
v 0.952271 -0.662276 0.482399
v 0.952271 -0.662276 0.482399
v 1.922889 -1.266518 0.892876
v 1.922889 -1.266518 0.892876
v 1.922889 -2.011810 0.892876
v 1.922889 -2.011810 0.892876
v 1.098722 -1.091196 1.366852
v 1.098722 -2.011810 1.366852
v 0.952271 -0.974218 0.482399
v 0.952271 -0.974218 0.482399
v 0.755809 -0.828058 1.366852
v 0.711980 -0.970745 0.545937
v 0.207149 -0.822372 1.366852
v 0.210071 -0.961092 0.662491
vn -0.3319 0.3926 -0.8577
vn 0.4361 -0.0001 -0.8999
vn -0.9685 0.2218 -0.1132
vn 1.0000 -0.0000 -0.0000
vn 0.1979 -0.0000 0.9802
vn 0.2580 -0.0000 0.9661
vn 0.4985 -0.0000 0.8669
vn 0.3314 0.9433 0.0190
vn 0.3433 0.9392 -0.0055
vn 0.2676 0.9620 0.0535
vn 0.2741 0.9600 0.0574
vn 0.9315 -0.0000 0.3638
vn 0.3066 0.9487 0.0768
vn -0.0000 -0.0000 1.0000
vn 0.2324 0.9657 -0.1158
vn 0.2062 0.9707 -0.1236
vn 0.2437 -0.0000 0.9699
vn 0.2411 -0.0000 0.9705
vn 0.2556 -0.0000 0.9668
vn -0.1239 0.9877 -0.0953
vn -0.1215 0.9878 -0.0971
vn 0.1129 -0.0000 0.9936
vn 0.0028 -0.0000 1.0000
vn 0.2262 -0.0000 0.9741
vn -0.0000 -1.0000 -0.0000
vn -0.2405 0.9706 -0.0064
vn -0.6083 -0.0000 -0.7937
vn -0.2262 -0.0000 0.9741
vn -0.9688 0.2219 -0.1107
vt 1.000000 0.560206
vt 1.000000 1.000000
vt 0.163764 0.163764
vt 0.549496 0.344858
vt 0.750928 0.378301
vt 0.457338 0.457338
vt 0.682899 0.357450
vt 0.820223 0.312127
vt 0.973983 0.552568
vt 0.697419 0.249615
vt 0.542585 0.540227
vt 0.905548 0.577317
vt 0.967173 0.948340
vt 0.101544 0.000000
vt 0.000000 0.000000
vt 0.439794 0.000000
vt 0.612532 0.171056
vt 1.000000 0.000428
vt 1.000000 0.578723
vt 0.129286 0.000000
vt 0.203894 0.605767
vt 0.222089 0.611495
vt 0.196583 0.690573
vt 0.178426 0.684345
vt 0.315538 0.635138
vt 0.294394 0.729227
vt 0.333269 0.540081
vt 0.221339 0.591758
vt 0.239891 0.566797
vt 0.285153 0.546806
vt 0.037427 0.737048
vt 0.037427 0.705138
vt 0.056040 0.704902
vt 0.329029 0.530077
vt 0.296358 0.536592
vt 0.325192 0.529409
vt 0.349908 0.622705
vt 0.394348 0.620998
vt 0.441107 0.632287
vt 0.461163 0.633722
vt 0.351786 0.540092
vt 0.012002 0.730480
vt 0.012002 0.705493
vt 0.037427 0.737048
vt 0.391137 0.544022
vt 0.899938 0.717698
vt 0.899944 0.711048
vt 0.952654 0.710109
vt 0.952631 0.735096
vt 0.909334 0.720816
vt 0.304181 0.226247
vt 0.153744 0.104258
vt 0.237026 0.033747
vt 0.423626 0.012656
vt 0.419880 0.012856
vt 0.425867 0.574093
vt 0.431732 0.597343
vt 0.394567 0.543568
vt 0.407954 0.565287
vt 0.409647 0.657012
vt 0.000618 0.000000
vt 0.870714 0.000000
vt 0.956596 0.065925
vt 1.000000 0.163764
vt 1.000000 0.000000
vt 1.000000 0.898456
vt 0.894978 0.711136
vt 0.602994 0.464327
vt 0.421277 0.000000
vt 0.999572 0.000000
vt 0.975328 0.852396
s 0
usemtl lambert2SG
f 620/690/269 588/691/269 633/692/269 636/693/269 634/694/269 635/695/269 640/696/269 641/697/269 638/698/269
f 621/699/270 624/700/270 622/701/270 616/702/270 618/703/270 588/704/270 620/705/270 619/706/270
f 629/707/271 606/708/271 631/709/271
s 1
f 623/710/272 643/711/272 645/712/272 617/713/272
f 647/714/273 648/715/274 646/712/275 644/711/275
f 649/716/276 590/714/277 587/711/278 601/717/278 602/718/278 598/719/279
f 642/720/280 650/721/280 639/722/280
f 615/723/281 649/716/276 598/719/279 597/724/281 599/725/281
f 648/714/274 647/714/273 651/726/282 653/727/282 627/728/282 625/729/282
f 649/716/276 652/730/283 592/726/284 590/714/277
f 613/731/285 593/732/286 591/721/287 614/733/287
f 592/726/284 652/730/283 654/734/288 595/727/289
f 610/735/290 594/736/291 593/737/286 613/738/285 611/739/292
f 596/740/293 600/741/293 586/741/293 589/742/293 626/743/293 605/744/293
f 607/745/294 630/746/294 628/728/294 595/727/289 654/734/288 637/747/294 609/748/294 632/749/294
s 0
f 629/750/295 631/751/295 608/752/295 633/753/295 588/754/295 618/755/295
s 1
f 612/756/296 594/736/291 610/735/290
s 0
f 603/757/297 606/758/297 629/759/297 604/760/297
