# Blender 5.0.0
# www.blender.org
mtllib item1.mtl
o item1_cell
v -0.950367 -1.591000 1.646088
v -0.000146 -0.123294 0.001585
v 0.970910 -1.368405 1.683375
v 0.949364 -1.591000 1.646088
v -0.000602 -1.591000 0.000964
v -1.425212 -1.591000 0.823632
v -1.593154 -0.431275 0.921280
v -0.000597 -0.431153 1.840374
v -1.052964 -0.530152 1.823791
v 0.970910 -1.368405 1.683375
v 0.949364 -1.591000 1.646088
v 0.949364 -1.591000 1.646088
v -0.000602 -1.591000 0.000964
v -1.425212 -1.591000 0.823632
v -1.425212 -1.591000 0.823632
v -1.593154 -0.431275 0.921280
v -0.000597 -0.431153 1.840374
v -1.052964 -0.530152 1.823791
v -1.052964 -0.530152 1.823791
v -0.950367 -1.591000 1.646088
v -0.950367 -1.591000 1.646088
vn 0.8660 -0.0001 -0.5001
vn -0.0000 -1.0000 -0.0000
vn 0.6993 0.7050 0.1182
vn -0.8541 -0.1652 0.4931
vn -0.0000 -0.1652 0.9863
vn -0.0949 0.9818 0.1644
vn -0.5001 0.0005 -0.8660
vt 0.000000 0.000000
vt 0.820241 0.000000
vt 0.966865 0.164757
vt 0.966789 0.966789
vt 0.277404 0.380384
vt 0.424645 0.411541
vt 0.447894 0.483095
vt 0.323951 0.523373
vt 1.000000 0.179759
vt 1.000000 1.000000
vt 0.103194 0.103194
vt 0.555013 0.123537
vt 0.579159 0.213509
vt 0.506484 0.232974
vt 0.476587 0.152764
vt 0.438794 0.265829
vt 0.371090 0.298691
vt 0.362104 0.284088
vt 0.886285 0.332016
vt 1.000000 0.103194
vt 0.325409 0.325409
vt 0.325409 0.000000
vt 1.000000 0.000000
vt 1.000000 0.966790
vt 0.443777 0.396570
s 0
usemtl lambert2SG
f 2/1/1 10/2/1 11/3/1 13/4/1
s 1
f 12/5/2 20/6/2 15/7/2 5/8/2
s 0
f 10/9/3 2/10/3 17/11/3
s 1
f 16/12/4 14/13/4 21/14/4 18/15/4
f 8/16/5 19/15/5 1/14/5 4/17/5 3/18/5
s 0
f 9/19/6 17/20/6 2/10/6 7/21/6
f 7/22/7 2/23/7 13/24/7 6/25/7
o item1_cell.001
v -1.900736 -1.591000 0.000000
v -0.001538 -0.123150 -0.000088
v -1.426029 -1.591000 0.822217
v -0.001874 -1.591000 -0.000003
v -1.594364 -0.431437 0.919130
v -2.105901 -0.530297 0.000000
v -1.594087 -0.431161 -0.919701
v -1.426025 -1.591000 -0.822224
v -1.426029 -1.591000 0.822217
v -1.426029 -1.591000 0.822217
v -0.001874 -1.591000 -0.000003
v -1.594364 -0.431437 0.919130
v -2.105901 -0.530297 0.000000
v -2.105901 -0.530297 0.000000
v -1.594087 -0.431161 -0.919701
v -1.426025 -1.591000 -0.822224
v -1.426025 -1.591000 -0.822224
v -1.900736 -1.591000 0.000000
v -1.900736 -1.591000 0.000000
vn -0.1900 0.9818 0.0001
vn -0.0000 -1.0000 -0.0000
vn -0.8541 -0.1652 -0.4931
vn -0.8541 -0.1652 0.4931
vn 0.4999 -0.0000 0.8661
vn 0.5000 -0.0002 -0.8660
vt 0.674962 0.674962
vt 0.000000 0.000000
vt 0.674972 0.000000
vt 0.891811 0.446030
vt 0.324086 0.523222
vt 0.447934 0.483218
vt 0.471177 0.554751
vt 0.434391 0.546932
vt 0.726961 0.188644
vt 0.651938 0.194017
vt 0.637745 0.109614
vt 0.720336 0.095715
vt 0.579284 0.213476
vt 0.555205 0.123499
vt 0.674962 0.000000
vt 0.636302 0.603476
vt 0.032954 0.000000
vt 0.325028 0.000000
vt 1.000000 0.000000
vt 1.000000 0.967046
vt 0.952757 0.556329
s 0
usemtl lambert2SG
f 26/26/8 23/27/8 36/28/8 34/29/8
s 1
f 25/30/9 30/31/9 39/32/9 38/33/9
f 37/34/10 40/35/10 35/36/10 28/37/10
f 22/35/11 31/38/11 33/39/11 27/36/11
s 0
f 23/27/12 26/40/12 24/41/12 32/42/12
f 36/43/13 23/44/13 32/45/13 29/46/13
o item1_cell.002
v 0.950370 -1.591000 -1.646088
v 0.001099 -0.123546 -0.002041
v 1.052967 -0.530147 -1.823792
v 1.424980 -1.591000 -0.824038
v 0.000682 -0.431170 -1.840372
v 1.593209 -0.431294 -0.921182
v 0.000601 -1.591000 -1.646088
v 0.000644 -1.591000 -0.001604
v 1.052967 -0.530147 -1.823792
v 1.052967 -0.530147 -1.823792
v 1.593209 -0.431294 -0.921182
v 0.000682 -0.431170 -1.840372
v 0.000601 -1.591000 -1.646088
v 0.000601 -1.591000 -1.646088
v 0.000644 -1.591000 -0.001604
v 1.424980 -1.591000 -0.824038
v 1.424980 -1.591000 -0.824038
v 0.950370 -1.591000 -1.646088
v 0.950370 -1.591000 -1.646088
vn -1.0000 0.0002 0.0001
vn 0.0949 0.9818 -0.1643
vn -0.0000 -0.1652 -0.9863
vn 0.8541 -0.1652 -0.4931
vn 0.5000 0.0001 0.8660
vn -0.0000 -1.0000 -0.0000
vt 1.000000 0.000000
vt 1.000000 0.896975
vt 0.240351 0.042627
vt 0.033231 0.000000
vt 0.445771 0.114223
vt 0.896976 0.896976
vt 0.000000 0.000000
vt 0.674555 0.000000
vt 0.876948 0.192182
vt 0.969816 0.117439
vt 0.951655 0.201091
vt 0.876942 0.192181
vt 0.199677 0.444643
vt 0.149053 0.500249
vt 0.080569 0.448893
vt 0.130793 0.381931
vt 0.674554 0.674554
vt 0.966769 0.000000
vt 0.952761 0.556054
vt 0.223129 0.635347
vt 0.199891 0.563828
vt 0.296724 0.650990
vt 0.296728 0.650991
s 0
usemtl lambert2SG
f 42/47/14 52/48/14 53/49/14 55/50/14
f 49/51/15 52/52/15 42/53/15 51/54/15
s 1
f 45/55/16 50/56/16 58/57/16 54/58/16
f 56/59/17 59/60/17 43/61/17 46/62/17
s 0
f 51/63/18 42/53/18 55/64/18 57/65/18
s 1
f 41/66/19 44/67/19 48/68/19 47/69/19
o item1_cell.003
v -0.000693 -0.121667 0.001668
v -1.155690 0.532028 2.001717
v -1.593475 -0.429807 0.921216
v -1.053091 -0.528838 1.824011
v -0.001138 -0.429974 1.840572
v -1.733071 0.532028 1.001662
v -0.000952 0.532028 2.001717
v -0.001029 1.590056 0.001784
v -1.593475 -0.429807 0.921216
v -1.053091 -0.528838 1.824011
v -1.053091 -0.528838 1.824011
v -0.001138 -0.429974 1.840572
v -1.733071 0.532028 1.001662
v -1.733071 0.532028 1.001662
v -0.001029 1.590056 0.001784
v -0.000952 0.532028 2.001717
v -0.000952 0.532028 2.001717
v -1.155690 0.532028 2.001717
v -1.155690 0.532028 2.001717
vn -0.4999 -0.0001 -0.8661
vn 1.0000 -0.0000 0.0001
vn -0.8541 -0.1652 0.4931
vn -0.0000 -0.1652 0.9863
vn -0.2083 0.9091 0.3607
vn -0.4050 0.8839 0.2338
vn -0.0000 0.8839 0.4676
vn 0.0949 -0.9818 -0.1646
vt 1.000000 0.000000
vt 1.000000 0.674784
vt 0.765737 0.499646
vt 0.028723 0.000000
vt 0.028999 0.028788
vt 0.530501 0.024471
vt 1.000000 0.102990
vt 1.000000 1.000000
vt 0.554999 0.123419
vt 0.476550 0.152665
vt 0.446653 0.072454
vt 0.535021 0.048787
vt 0.476550 0.152665
vt 0.438832 0.265811
vt 0.438819 0.265817
vt 0.628133 0.406983
vt 0.717005 0.550186
vt 0.634336 0.601507
vt 0.628116 0.407016
vt 0.628115 0.407003
vt 0.000000 0.000000
vt 0.897010 0.000000
vt 0.888990 0.445785
vt 0.325216 0.000000
s 0
usemtl lambert2SG
f 60/70/20 68/71/20 72/72/20 74/73/20
f 74/74/21 75/75/21 71/76/21 60/77/21
s 1
f 62/78/22 69/79/22 77/80/22 73/81/22
f 78/80/23 70/82/23 64/83/23 76/84/23
f 67/85/24 65/86/25 61/87/24
f 67/88/24 61/87/24 66/89/26
s 0
f 60/90/27 71/91/27 63/92/27 68/93/27
o item1_cell.004
v -0.950367 -1.591000 -1.646088
v -0.000578 -0.123415 -0.001859
v -0.000802 -1.591000 -1.646088
v -0.001231 -1.591000 -0.001897
v -0.001045 -0.431226 -1.840362
v -0.769071 -0.503413 -1.828270
v -1.109616 -0.519727 -1.729158
v -1.593106 -0.431222 -0.921380
v -1.425008 -1.591000 -0.823985
v -1.052961 -0.530176 -1.823787
v -0.000802 -1.591000 -1.646088
v -0.000802 -1.591000 -1.646088
v -0.001231 -1.591000 -0.001897
v -0.001045 -0.431226 -1.840362
v -0.769071 -0.503413 -1.828270
v -1.109616 -0.519727 -1.729158
v -1.593106 -0.431222 -0.921380
v -1.425008 -1.591000 -0.823985
v -1.425008 -1.591000 -0.823985
v -1.052961 -0.530176 -1.823787
v -1.052961 -0.530176 -1.823787
v -0.950367 -1.591000 -1.646088
v -0.950367 -1.591000 -1.646088
vn -0.0949 0.9818 -0.1644
vn 1.0000 -0.0002 -0.0000
vn -0.0952 0.9816 -0.1654
vn -0.0000 -0.1652 -0.9863
vn -0.8541 -0.1652 -0.4931
vn -0.5000 0.0002 0.8660
vn -0.0000 -1.0000 -0.0000
vt 0.325394 0.000000
vt 0.469685 0.000000
vt 1.000000 0.325386
vt 1.000000 1.000000
vt 0.103135 0.103135
vt 0.967243 0.801944
vt 0.103134 0.000000
vt 0.000000 0.000000
vt 0.967130 0.000000
vt 1.000000 0.674606
vt 0.886192 0.554309
vt 1.000000 0.530315
vt 0.876812 0.192166
vt 0.876831 0.192168
vt 0.802134 0.183260
vt 0.804154 0.097686
vt 0.816396 0.184961
vt 0.720490 0.095709
vt 0.795380 0.097473
vt 0.727122 0.188632
vt 0.325386 0.325386
vt 0.396864 0.032793
vt 1.000000 0.032869
vt 0.323983 0.523464
vt 0.434312 0.546915
vt 0.370419 0.666654
vt 0.323926 0.523565
s 0
usemtl lambert2SG
f 93/94/28 94/95/28 95/96/28 80/97/28 92/98/28
f 89/99/29 92/100/29 80/101/29 91/102/29
f 93/103/30 98/104/30 94/105/30
s 1
f 83/106/31 90/107/31 100/108/31 99/109/31 84/110/31
f 86/111/32 85/112/32 88/109/32 101/108/32 96/113/32
s 0
f 95/114/33 97/115/33 91/116/33 80/97/33
s 1
f 82/117/34 87/118/34 79/119/34 81/120/34
o item1_cell.005
v 1.900738 -1.591000 0.000000
v 0.001438 -0.123115 0.000706
v 2.311381 0.532028 0.000000
v 1.425957 -1.591000 -0.822345
v 0.973611 -1.366734 1.680966
v 0.000966 -1.591000 0.000188
v 0.951883 -1.591000 1.643465
v 1.594388 -0.431054 -0.919219
v 2.232943 0.532028 -0.135860
v 2.232982 0.532028 0.135792
v 2.119103 0.620121 0.000000
v 0.000966 -1.591000 0.000188
v 0.951883 -1.591000 1.643465
v 0.951883 -1.591000 1.643465
v 0.973611 -1.366734 1.680966
v 1.425957 -1.591000 -0.822345
v 1.425957 -1.591000 -0.822345
v 1.594388 -0.431054 -0.919219
v 2.232943 0.532028 -0.135860
v 2.232943 0.532028 -0.135860
v 2.119103 0.620121 0.000000
v 2.232982 0.532028 0.135792
v 2.232982 0.532028 0.135792
v 1.900738 -1.591000 0.000000
v 1.900738 -1.591000 0.000000
v 2.311381 0.532028 0.000000
v 2.311381 0.532028 0.000000
vn -0.0000 -1.0000 -0.0000
vn -0.8655 0.0001 0.5009
vn -0.2476 0.7049 -0.6647
vn -0.5000 0.0004 -0.8660
vn 0.8541 -0.1652 0.4931
vn 0.8541 -0.1652 -0.4931
vn 0.4165 0.9091 -0.0001
vn 0.4050 0.8839 0.2338
vn 0.4165 0.9091 -0.0000
vn 0.4050 0.8839 -0.2338
vn -0.2472 0.7050 0.6648
vt 0.199843 0.563681
vt 0.176597 0.492136
vt 0.250125 0.507765
vt 0.323812 0.523428
vt 0.199140 0.165964
vt 0.180902 0.000000
vt 1.000000 0.000000
vt 1.000000 0.966901
vt 0.674991 0.674991
vt 0.000000 0.000000
vt 0.897232 0.000000
vt 0.945488 0.099702
vt 0.952613 0.396340
vt 0.966901 0.966901
vt 0.674991 0.000000
vt 0.370826 0.298870
vt 0.250424 0.388902
vt 0.135272 0.262069
vt 0.145220 0.254630
vt 0.361409 0.283417
vt 0.126905 0.271259
vt 0.199782 0.444528
vt 0.130901 0.381784
vt 0.470695 0.322549
vt 0.456834 0.328107
vt 0.456412 0.314901
vt 0.467643 0.307929
vt 0.470695 0.322549
vt 0.933796 0.054508
vt 1.000000 0.102768
vt 1.000000 0.819098
s 1
usemtl lambert2SG
f 117/121/35 125/122/35 114/123/35 113/124/35
s 0
f 115/125/36 116/126/36 103/127/36 107/128/36
f 119/129/37 103/130/37 122/131/37 120/132/37
f 118/133/38 107/134/38 103/130/38 119/135/38
s 1
f 108/136/39 126/137/39 127/138/39 123/139/39 106/140/39
f 121/141/40 128/138/40 102/137/40 105/142/40 109/143/40
f 112/144/41 124/145/42 104/146/43
f 110/147/44 112/148/41 104/146/43
s 0
f 111/149/45 122/150/45 103/127/45 116/151/45
o item1_cell.006
v -0.001609 -0.121287 0.000398
v -2.311380 0.532028 -0.000000
v -1.734012 0.532028 -1.000032
v -1.594465 -0.429581 -0.919574
v -2.106217 -0.528664 -0.000000
v -1.594283 -0.429598 0.919885
v -1.733871 0.532028 1.000277
v -0.002883 1.589679 -0.000000
v -1.734012 0.532028 -1.000032
v -1.734012 0.532028 -1.000032
v -1.594465 -0.429581 -0.919574
v -2.106217 -0.528664 -0.000000
v -2.106217 -0.528664 -0.000000
v -1.594283 -0.429598 0.919885
v -1.733871 0.532028 1.000277
v -1.733871 0.532028 1.000277
v -0.002883 1.589679 -0.000000
v -2.311380 0.532028 -0.000000
v -2.311380 0.532028 -0.000000
vn 0.1900 -0.9818 -0.0000
vn 0.5001 0.0002 -0.8660
vn -0.8541 -0.1652 -0.4931
vn -0.8541 -0.1652 0.4931
vn -0.4050 0.8839 -0.2338
vn -0.4165 0.9091 -0.0000
vn -0.4050 0.8839 0.2338
vn 0.5000 0.0004 0.8660
vt 0.675141 0.675141
vt 0.000000 0.000000
vt 0.675033 0.000000
vt 0.892030 0.446079
vt 1.000000 0.000000
vt 1.000000 0.675141
vt 0.734110 0.234333
vt 0.028906 0.000000
vt 0.637724 0.109484
vt 0.623531 0.025081
vt 0.714778 0.018546
vt 0.720304 0.095590
vt 0.535143 0.048754
vt 0.637724 0.109484
vt 0.555114 0.123371
vt 0.796697 0.401531
vt 0.799807 0.498783
vt 0.628302 0.406921
vt 0.717120 0.550115
vt 0.628324 0.406957
vt 0.971019 0.000183
vt 0.734139 0.288716
vt 0.675033 0.675033
s 0
usemtl lambert2SG
f 139/152/46 129/153/46 142/154/46 140/155/46
f 129/156/47 139/157/47 137/158/47 145/159/47
s 1
f 141/160/48 146/161/48 138/162/48 132/163/48
f 143/164/49 147/161/49 133/165/49 134/166/49
f 131/167/50 130/168/51 136/169/51
f 130/168/51 144/170/52 136/171/51
s 0
f 145/172/53 135/173/53 142/174/53 129/153/53
o item1_cell.007
v -0.000604 -0.121261 -0.002133
v -1.155689 0.532028 -2.001717
v -1.053132 -0.528411 -1.824083
v -0.001130 -0.429577 -1.840638
v -1.593559 -0.429159 -0.921287
v -0.001280 0.532028 -2.001717
v -0.001349 1.589763 -0.002339
v -1.733047 0.532028 -1.001703
v -0.001280 0.532028 -2.001717
v -0.001280 0.532028 -2.001717
v -0.001349 1.589763 -0.002339
v -1.053132 -0.528411 -1.824083
v -1.053132 -0.528411 -1.824083
v -0.001130 -0.429577 -1.840638
v -1.593559 -0.429159 -0.921287
v -1.733047 0.532028 -1.001703
v -1.733047 0.532028 -1.001703
v -1.155689 0.532028 -2.001717
v -1.155689 0.532028 -2.001717
vn 1.0000 0.0003 -0.0002
vn 0.0948 -0.9818 0.1646
vn -0.0000 -0.1652 -0.9863
vn -0.8541 -0.1652 -0.4931
vn -0.2083 0.9091 -0.3607
vn -0.0000 0.8839 -0.4676
vn -0.4050 0.8839 -0.2338
vn -0.4998 -0.0001 0.8662
vt 0.028753 0.000000
vt 1.000000 0.000000
vt 1.000000 0.897216
vt 0.975721 0.449046
vt 0.000000 0.000000
vt 0.674749 0.000000
vt 0.556707 0.445731
vt 0.102784 0.000000
vt 0.876805 0.192165
vt 0.804157 0.097543
vt 0.806176 0.012000
vt 0.876794 0.192163
vt 0.714931 0.018535
vt 0.720454 0.095545
vt 0.707770 0.258168
vt 0.707828 0.258198
vt 0.793582 0.304118
vt 0.628303 0.406722
vt 0.796692 0.401368
vt 0.028807 0.028448
vt 0.733826 0.499801
vt 1.000000 0.325251
vt 1.000000 1.000000
s 0
usemtl lambert2SG
f 158/175/54 148/176/54 161/177/54 156/178/54
f 148/179/55 162/180/55 159/181/55 161/182/55
s 1
f 151/183/56 160/184/56 165/185/56 157/186/56
f 163/187/57 166/185/57 150/184/57 152/188/57
f 154/189/58 153/190/59 149/191/58
f 154/192/58 149/191/58 164/193/60
s 0
f 158/194/61 155/195/61 162/196/61 148/197/61
o item1_cell.008
v 0.001169 -0.121774 0.002165
v 1.155692 0.532028 2.001717
v 0.971904 -1.367378 1.683547
v 0.001404 -0.429732 1.840612
v 2.231507 0.532028 0.138347
v 2.116157 0.621236 0.000890
v 0.001263 0.532028 2.001717
v 0.000987 1.590096 0.001708
v 0.971904 -1.367378 1.683547
v 0.971904 -1.367378 1.683547
v 0.001404 -0.429732 1.840612
v 2.231507 0.532028 0.138347
v 2.231507 0.532028 0.138347
v 2.116157 0.621236 0.000890
v 0.000987 1.590096 0.001708
v 0.001263 0.532028 2.001717
v 0.001263 0.532028 2.001717
v 1.155692 0.532028 2.001717
v 1.155692 0.532028 2.001717
vn -0.6998 -0.7046 -0.1179
vn 0.2472 -0.7048 -0.6649
vn -0.0005 -0.0003 -1.0000
vn -0.0000 -0.1652 0.9863
vn 0.8541 -0.1652 0.4931
vn -0.0000 0.8839 0.4676
vn 0.2083 0.9091 0.3607
vn 0.2769 0.9062 0.3196
vn 0.4050 0.8839 0.2338
vn -1.0000 -0.0001 0.0001
vt 1.000000 0.000000
vt 1.000000 0.820453
vt 0.102867 0.000000
vt 0.000000 0.000000
vt 0.896265 0.000000
vt 0.978596 0.067085
vt 0.820453 0.820453
vt 0.970994 0.000000
vt 0.896265 0.896265
vt 0.438661 0.265894
vt 0.438651 0.265899
vt 0.361632 0.283312
vt 0.281920 0.152411
vt 0.361632 0.283312
vt 0.145407 0.254490
vt 0.548393 0.555486
vt 0.462638 0.509566
vt 0.548414 0.555497
vt 0.456842 0.328355
vt 0.470879 0.322733
vt 0.627969 0.406930
vt 0.029006 0.000000
vt 1.000000 0.897134
vt 0.975674 0.449087
s 0
usemtl lambert2SG
f 167/198/62 175/199/62 177/200/62
f 167/201/63 180/202/63 178/203/63 175/204/63
f 167/201/64 181/205/64 180/206/64
s 1
f 182/207/65 170/208/65 176/209/65 184/210/65
f 185/210/66 169/211/66 179/212/66
f 183/213/67 168/214/68 174/215/69
f 168/214/68 171/216/70 172/217/70 174/218/69
s 0
f 181/219/71 167/198/71 177/220/71 173/221/71
o item1_cell.009
v 1.155692 0.532028 -2.001717
v 0.001348 -0.121588 -0.001019
v 1.593930 -0.429242 -0.920621
v 1.053122 -0.528543 -1.824060
v 0.001021 -0.429661 -1.840624
v 2.116838 0.620982 -0.000669
v 0.000783 1.590379 -0.000993
v 2.231774 0.532028 -0.137884
v 0.000769 0.532028 -2.001717
v 0.000783 1.590379 -0.000993
v 0.000769 0.532028 -2.001717
v 0.000769 0.532028 -2.001717
v 1.593930 -0.429242 -0.920621
v 1.053122 -0.528543 -1.824060
v 1.053122 -0.528543 -1.824060
v 0.001021 -0.429661 -1.840624
v 2.116838 0.620982 -0.000669
v 2.231774 0.532028 -0.137884
v 2.231774 0.532028 -0.137884
v 1.155692 0.532028 -2.001717
v 1.155692 0.532028 -2.001717
vn -0.0002 -0.0000 1.0000
vn 0.2474 -0.7052 0.6644
vn -0.0948 -0.9818 0.1645
vn -0.0000 -0.1652 -0.9863
vn 0.8541 -0.1652 -0.4931
vn 0.2768 0.9062 -0.3196
vn 0.2082 0.9091 -0.3607
vn -0.0000 0.8839 -0.4676
vn 0.4050 0.8839 -0.2338
vn -1.0000 -0.0003 0.0002
vt 1.000000 0.000000
vt 1.000000 0.896211
vt 0.028800 0.000000
vt 0.674880 0.000000
vt 0.944932 0.844247
vt 0.896211 0.896211
vt 0.000000 0.000000
vt 0.896941 0.000000
vt 0.889025 0.445765
vt 0.325120 0.000000
vt 0.969844 0.117313
vt 0.876975 0.192185
vt 0.876955 0.192183
vt 0.988000 0.033683
vt 0.080466 0.448815
vt 0.012000 0.397472
vt 0.126781 0.271396
vt 0.130716 0.381771
vt 0.628106 0.406710
vt 0.621884 0.212177
vt 0.628106 0.406713
vt 0.628091 0.406737
vt 0.470890 0.322590
vt 0.467810 0.307825
vt 0.029031 0.028854
vt 0.530450 0.024380
vt 1.000000 0.103059
vt 1.000000 1.000000
s 0
usemtl lambert2SG
f 187/222/72 202/223/72 192/224/72
f 198/225/73 203/226/73 202/227/73 187/228/73
f 187/228/74 201/229/74 199/230/74 198/231/74
s 1
f 200/232/75 190/233/75 197/234/75 206/235/75
f 189/236/76 186/237/76 204/238/76 188/239/76
f 195/240/77 205/241/78 196/242/79
f 205/241/78 195/243/77 191/244/80 193/245/80
s 0
f 192/246/81 194/247/81 201/248/81 187/249/81
