# Blender 5.0.0
# www.blender.org
mtllib item4.mtl
o item4_cell
v -1.565646 -1.565647 0.565643
v -0.001106 -0.000530 -0.998905
v -1.565646 -0.001114 0.565643
v -0.000620 -1.565647 0.565643
v -0.000785 -0.000647 0.565643
v -0.000608 -1.565647 -0.998678
v -1.565646 -0.000655 -0.999083
v -1.565646 -1.565647 -0.999170
v -0.000620 -1.565647 0.565643
v -0.000620 -1.565647 0.565643
v -0.000608 -1.565647 -0.998678
v -0.000785 -0.000647 0.565643
v -1.565646 -0.001114 0.565643
v -1.565646 -0.001114 0.565643
v -1.565646 -0.000655 -0.999083
v -1.565646 -1.565647 -0.999170
v -1.565646 -1.565647 -0.999170
v -1.565646 -1.565647 0.565643
v -1.565646 -1.565647 0.565643
vn 1.0000 0.0002 -0.0001
vn -0.0002 1.0000 0.0002
vn -0.0000 -0.0000 1.0000
vn -0.0000 -1.0000 -0.0000
vn -1.0000 -0.0000 -0.0000
vn 0.0002 -0.0000 -1.0000
vt 0.031071 0.000000
vt 1.000000 0.000000
vt 1.000000 0.969102
vt 0.062021 0.031054
vt 0.000000 0.000000
vt 0.969056 0.000000
vt 0.969285 0.938051
vt 0.969102 0.969102
vt 0.354407 0.940707
vt 0.500000 0.728233
vt 0.354395 0.940705
vt 0.448997 0.256006
vt 0.594602 0.043534
vt 0.448996 0.256006
vt 0.582522 0.972225
vt 0.468466 0.956466
vt 0.484222 0.842431
vt 0.598276 0.858155
vt 0.968930 0.000000
vt 0.969028 0.000000
vt 0.969056 0.969056
s 0
usemtl lambert2SG
f 11/1/1 2/2/1 12/3/1 9/4/1
f 2/5/2 15/6/2 13/7/2 12/8/2
s 1
f 5/9/3 14/10/3 18/10/3 10/11/3
f 4/12/4 19/13/4 17/13/4 6/14/4
f 16/15/5 1/16/5 3/17/5 7/18/5
s 0
f 11/19/6 8/20/6 15/21/6 2/5/6
o item4_cell.001
v 1.565646 -1.565647 0.565643
v 0.000848 -0.001331 -0.999463
v 1.565646 -0.000948 0.565643
v 1.565646 -0.000771 -0.999039
v 0.000644 -0.001333 0.565643
v 0.000857 -1.565647 -0.998818
v 0.000960 -1.565647 0.565643
v 1.565646 -1.565647 -0.999083
v 1.565646 -0.000948 0.565643
v 1.565646 -0.000948 0.565643
v 1.565646 -0.000771 -0.999039
v 0.000644 -0.001333 0.565643
v 0.000857 -1.565647 -0.998818
v 0.000960 -1.565647 0.565643
v 0.000960 -1.565647 0.565643
v 1.565646 -1.565647 -0.999083
v 1.565646 -1.565647 -0.999083
v 1.565646 -1.565647 0.565643
v 1.565646 -1.565647 0.565643
vn -1.0000 -0.0001 -0.0000
vn 0.0001 -0.0002 -1.0000
vn -0.0000 -0.0000 1.0000
vn -0.0000 -1.0000 -0.0000
vn 1.0000 -0.0000 -0.0000
vn -0.0003 1.0000 0.0001
vt 0.968939 0.000000
vt 0.969189 0.030890
vt 0.968912 0.968912
vt 0.000000 0.000000
vt 0.031045 0.000235
vt 1.000000 0.031061
vt 1.000000 0.000000
vt 1.000000 0.968957
vt 0.354303 0.940693
vt 0.354280 0.940689
vt 0.240233 0.924932
vt 0.334835 0.240233
vt 0.448881 0.255990
vt 0.448889 0.255991
vt 0.141946 0.795114
vt 0.255990 0.810885
vt 0.126184 0.909174
vt 0.061841 0.031030
vt 0.031042 0.000000
vt 1.000000 0.968912
s 0
usemtl lambert2SG
f 32/22/7 33/23/7 31/24/7 21/25/7
f 35/26/8 32/27/8 21/28/8 23/29/8
s 1
f 24/30/9 34/31/9 37/32/9 29/32/9
f 38/33/10 26/34/10 25/35/10 36/33/10
f 30/36/11 28/37/11 20/32/11 27/38/11
s 0
f 22/39/12 23/40/12 21/28/12 31/41/12
o item4_cell.002
v -1.565646 1.565645 0.565643
v -0.000664 0.000949 -0.999094
v -1.565646 0.001282 -0.999382
v -0.001348 0.000713 0.565643
v -0.001434 1.565645 -0.998965
v -0.001266 1.565645 0.565643
v -1.565646 0.001272 0.565643
v -1.565646 1.565645 -0.999124
v -0.001434 1.565645 -0.998965
v -0.001266 1.565645 0.565643
v -0.001266 1.565645 0.565643
v -0.001348 0.000713 0.565643
v -1.565646 0.001272 0.565643
v -1.565646 0.001272 0.565643
v -1.565646 0.001282 -0.999382
v -1.565646 1.565645 -0.999124
v -1.565646 1.565645 -0.999124
v -1.565646 1.565645 0.565643
v -1.565646 1.565645 0.565643
vn 0.0001 0.0001 -1.0000
vn 1.0000 0.0002 0.0002
vn -0.0000 -0.0000 1.0000
vn -0.0000 1.0000 -0.0000
vn -1.0000 -0.0000 -0.0000
vn -0.0003 -1.0000 -0.0001
vt 0.030960 0.030960
vt 0.062108 0.031195
vt 1.000000 0.031234
vt 1.000000 1.000000
vt 0.031234 0.031234
vt 0.030798 0.030760
vt 1.000000 0.030974
vt 0.354448 0.940713
vt 0.354442 0.940712
vt 0.500000 0.728233
vt 0.385988 0.712480
vt 0.531534 0.500000
vt 0.385976 0.712479
vt 0.598317 0.858017
vt 0.484246 0.842257
vt 0.614052 0.743991
vt 0.030974 0.030974
vt 0.061979 0.031016
vt 1.000000 0.030960
s 0
usemtl lambert2SG
f 53/42/13 54/43/13 47/44/13 40/45/13
f 47/46/14 48/47/14 50/48/14 40/45/14
s 1
f 42/49/15 49/50/15 56/51/15 51/51/15
f 43/52/16 55/53/16 57/53/16 44/54/16
f 41/55/17 52/56/17 39/51/17 46/57/17
s 0
f 50/58/18 45/59/18 53/60/18 40/45/18
o item4_cell.003
v 1.565646 1.565645 0.565643
v 0.000964 0.001250 -0.999305
v 1.565646 0.000843 0.565643
v 0.001479 0.001400 0.565643
v 1.565646 0.000969 -0.999292
v 0.001345 1.565645 0.565643
v 0.000590 1.565645 -0.998696
v 1.565646 1.565645 -0.998578
v 1.565646 0.000843 0.565643
v 1.565646 0.000843 0.565643
v 0.001479 0.001400 0.565643
v 1.565646 0.000969 -0.999292
v 0.001345 1.565645 0.565643
v 0.001345 1.565645 0.565643
v 0.000590 1.565645 -0.998696
v 1.565646 1.565645 -0.998578
v 1.565646 1.565645 -0.998578
v 1.565646 1.565645 0.565643
v 1.565646 1.565645 0.565643
vn -0.0003 -1.0000 -0.0000
vn -1.0000 -0.0002 0.0004
vn -0.0000 -0.0000 1.0000
vn -0.0000 1.0000 -0.0000
vn 1.0000 -0.0000 -0.0000
vn -0.0000 0.0004 -1.0000
vt 0.000000 0.000000
vt 0.969246 0.000000
vt 0.999639 0.968884
vt 0.031078 0.000000
vt 1.000000 0.000000
vt 1.000000 0.968922
vt 0.062361 0.031246
vt 0.030832 0.000000
vt 0.354242 0.940684
vt 0.240233 0.924932
vt 0.354251 0.940686
vt 0.385840 0.712460
vt 0.385785 0.712452
vt 0.271767 0.696699
vt 0.256009 0.810754
vt 0.141945 0.794985
vt 0.157754 0.680946
vt 0.030832 0.030832
vt 0.031041 0.030680
vt 1.000000 0.030754
vt 1.000000 1.000000
s 0
usemtl lambert2SG
f 59/61/19 69/62/19 66/63/19 68/64/19
f 59/65/20 68/66/20 70/67/20 72/68/20
s 1
f 61/69/21 67/70/21 75/70/21 71/71/21
f 64/72/22 63/73/22 76/74/22 73/74/22
f 60/75/23 62/76/23 74/77/23 58/74/23
s 0
f 72/78/24 65/79/24 69/80/24 59/81/24
o item4_cell.004
v -1.565646 1.565645 -2.565651
v -0.000630 0.001433 -1.001233
v -0.000751 1.565645 -2.565651
v -0.001027 0.000695 -2.565651
v -1.565646 0.001215 -1.000876
v -1.565646 0.000943 -2.565651
v -0.000697 1.565645 -1.001388
v -1.565646 1.565645 -1.000893
v -0.000751 1.565645 -2.565651
v -0.000751 1.565645 -2.565651
v -0.001027 0.000695 -2.565651
v -1.565646 0.000943 -2.565651
v -1.565646 0.000943 -2.565651
v -1.565646 0.001215 -1.000876
v -0.000697 1.565645 -1.001388
v -1.565646 1.565645 -1.000893
v -1.565646 1.565645 -1.000893
v -1.565646 1.565645 -2.565651
v -1.565646 1.565645 -2.565651
vn 0.0003 0.0001 1.0000
vn -0.0000 -1.0000 0.0003
vn -0.0000 1.0000 -0.0000
vn -0.0000 -0.0000 -1.0000
vn -1.0000 -0.0000 -0.0000
vn 1.0000 -0.0001 -0.0001
vt 0.030728 0.030728
vt 0.031010 0.030713
vt 1.000000 0.030983
vt 1.000000 1.000000
vt 0.969017 0.000000
vt 0.969198 0.031123
vt 0.969216 0.969216
vt 0.000000 0.000000
vt 0.385938 0.712474
vt 0.531534 0.500000
vt 0.385934 0.712473
vt 0.563068 0.271767
vt 0.417472 0.484241
vt 0.417492 0.484243
vt 0.598425 0.858037
vt 0.614181 0.744009
vt 0.728233 0.759767
vt 0.712476 0.873815
vt 0.030728 0.000000
vt 1.000000 0.000000
vt 1.000000 0.969216
vt 0.031038 0.000253
s 0
usemtl lambert2SG
f 83/82/25 92/83/25 90/84/25 78/85/25
f 90/86/26 88/87/26 87/88/26 78/89/26
s 1
f 86/90/27 94/91/27 93/91/27 91/92/27
f 95/93/28 85/94/28 80/95/28 89/93/28
f 81/96/29 84/97/29 77/98/29 82/99/29
s 0
f 83/100/30 78/101/30 87/102/30 79/103/30
o item4_cell.005
v 1.565646 1.565645 -2.565651
v 0.000963 0.001432 -1.000713
v 0.001042 0.001005 -2.565651
v 1.565646 0.000651 -2.565651
v 1.565646 0.001100 -1.000757
v 1.565646 1.565645 -1.000744
v 0.001276 1.565645 -1.001200
v 0.001428 1.565645 -2.565651
v 0.001042 0.001005 -2.565651
v 1.565646 0.000651 -2.565651
v 1.565646 0.000651 -2.565651
v 1.565646 0.001100 -1.000757
v 1.565646 1.565645 -1.000744
v 1.565646 1.565645 -1.000744
v 0.001276 1.565645 -1.001200
v 0.001428 1.565645 -2.565651
v 0.001428 1.565645 -2.565651
v 1.565646 1.565645 -2.565651
v 1.565646 1.565645 -2.565651
vn -0.0002 -1.0000 0.0003
vn -0.0001 0.0002 1.0000
vn -0.0000 1.0000 -0.0000
vn -0.0000 -0.0000 -1.0000
vn 1.0000 -0.0000 -0.0000
vn -1.0000 0.0002 -0.0001
vt 0.030939 0.030939
vt 0.031093 0.030970
vt 1.000000 0.031228
vt 1.000000 1.000000
vt 1.000000 0.031201
vt 0.031228 0.031228
vt 0.031068 0.030775
vt 0.385791 0.712453
vt 0.271767 0.696699
vt 0.385779 0.712452
vt 0.417313 0.484219
vt 0.303301 0.468466
vt 0.417342 0.484223
vt 0.141840 0.794961
vt 0.027774 0.779234
vt 0.043534 0.665165
vt 0.157597 0.680925
vt 0.031201 0.031201
vt 0.969170 0.031080
vt 1.000000 0.030939
s 0
usemtl lambert2SG
f 104/104/31 105/105/31 107/106/31 97/107/31
f 110/108/32 97/107/32 107/109/32 108/110/32
s 1
f 102/111/33 109/112/33 113/112/33 111/113/33
f 112/114/34 114/115/34 106/115/34 98/116/34
f 100/117/35 99/118/35 96/119/35 101/120/35
s 0
f 110/121/36 103/122/36 104/123/36 97/107/36
o item4_cell.006
v -1.565646 -1.565647 -2.565651
v -0.001034 -0.000697 -1.000680
v -1.565646 -0.000523 -1.000864
v -0.000638 -0.000659 -2.565651
v -1.565646 -1.565647 -1.000851
v -0.000754 -1.565647 -1.001446
v -0.000922 -1.565647 -2.565651
v -1.565646 -0.001312 -2.565651
v -1.565646 -0.000523 -1.000864
v -1.565646 -1.565647 -1.000851
v -1.565646 -1.565647 -1.000851
v -0.000754 -1.565647 -1.001446
v -0.000922 -1.565647 -2.565651
v -0.000922 -1.565647 -2.565651
v -0.000638 -0.000659 -2.565651
v -1.565646 -0.001312 -2.565651
v -1.565646 -0.001312 -2.565651
v -1.565646 -1.565647 -2.565651
v -1.565646 -1.565647 -2.565651
vn -0.0002 1.0000 -0.0002
vn 0.0001 -0.0002 1.0000
vn -0.0000 -0.0000 -1.0000
vn -0.0000 -1.0000 -0.0000
vn -1.0000 -0.0000 -0.0000
vn 1.0000 -0.0000 0.0001
vt 0.030723 0.030723
vt 0.062007 0.030868
vt 1.000000 0.030751
vt 1.000000 1.000000
vt 1.000000 0.031092
vt 0.030751 0.030751
vt 0.999930 0.030738
vt 0.417485 0.484242
vt 0.563068 0.271767
vt 0.417464 0.484239
vt 0.449006 0.256008
vt 0.594602 0.043534
vt 0.449019 0.256009
vt 0.598407 0.858163
vt 0.712453 0.873979
vt 0.696699 0.988000
vt 0.582644 0.972242
vt 0.031092 0.031092
vt 0.968939 0.030694
vt 1.000000 0.030723
s 0
usemtl lambert2SG
f 129/124/37 130/125/37 123/126/37 116/127/37
f 126/128/38 116/127/38 123/129/38 124/130/38
s 1
f 128/131/39 132/132/39 131/132/39 118/133/39
f 120/134/40 125/135/40 133/135/40 127/136/40
f 117/137/41 122/138/41 115/139/41 119/140/41
s 0
f 126/141/42 121/142/42 129/143/42 116/127/42
o item4_cell.007
v 0.000599 -0.001448 -1.000931
v 1.565646 -1.565647 -2.565651
v 0.001290 -1.565647 -1.001139
v 0.001100 -0.000819 -2.565651
v 0.001230 -1.565647 -2.565651
v 1.565646 -1.565647 -1.001391
v 1.565646 -0.000778 -1.001211
v 1.565646 -0.000521 -2.565651
v 0.001290 -1.565647 -1.001139
v 0.001230 -1.565647 -2.565651
v 0.001230 -1.565647 -2.565651
v 0.001100 -0.000819 -2.565651
v 1.565646 -1.565647 -1.001391
v 1.565646 -1.565647 -1.001391
v 1.565646 -0.000778 -1.001211
v 1.565646 -0.000521 -2.565651
v 1.565646 -0.000521 -2.565651
v 1.565646 -1.565647 -2.565651
v 1.565646 -1.565647 -2.565651
vn -1.0000 -0.0003 -0.0001
vn 0.0002 -0.0001 1.0000
vn -0.0000 -0.0000 -1.0000
vn -0.0000 -1.0000 -0.0000
vn 1.0000 -0.0000 -0.0000
vn -0.0003 1.0000 0.0003
vt 0.000000 0.000000
vt 0.969326 0.000000
vt 0.969183 0.968905
vt 0.030964 0.000000
vt 1.000000 0.969036
vt 0.030956 0.030850
vt 1.000000 0.030662
vt 1.000000 0.000000
vt 0.417337 0.484222
vt 0.303301 0.468466
vt 0.417328 0.484221
vt 0.448862 0.255988
vt 0.334835 0.240233
vt 0.448857 0.255987
vt 0.141788 0.795093
vt 0.126015 0.909151
vt 0.012000 0.893398
vt 0.027762 0.779319
vt 0.030662 0.030662
vt 0.969115 0.031016
vt 1.000000 0.030674
vt 1.000000 1.000000
s 0
usemtl lambert2SG
f 134/144/43 145/145/43 143/146/43 142/147/43
f 142/148/44 146/149/44 148/150/44 134/151/44
s 1
f 137/152/45 149/153/45 151/153/45 144/154/45
f 138/155/46 152/156/46 147/156/46 136/157/46
f 140/158/47 139/159/47 135/160/47 150/161/47
s 0
f 148/162/48 141/163/48 145/164/48 134/165/48
