# Blender 5.0.0
# www.blender.org
mtllib Jupajub.mtl
o Jupajub_cell
v -0.113396 1.137267 -0.009292
v -0.021479 1.105063 0.065006
v 0.001435 1.099181 0.098887
v -0.004929 1.287591 0.005455
v -0.024294 1.317699 -0.020065
v -0.260707 1.639366 -0.304636
v -0.003772 1.274124 0.010689
v -0.813473 1.719344 0.264314
v -0.502752 1.719344 0.691984
v -0.645576 1.962329 -0.209759
v -0.645576 1.962329 0.209759
v -0.850036 1.538923 0.276193
v -0.858773 1.495808 -0.024840
v -0.535369 1.458947 0.736873
v -0.482664 1.436843 0.758707
v -0.438410 1.418452 0.777005
v -0.448109 1.481724 0.760371
v -0.480367 1.783689 0.647152
v -0.483982 1.763298 0.666148
v -0.486720 1.719344 0.697193
v -0.563347 1.962329 0.322937
v -0.579800 2.012577 0.188388
v -0.469356 1.988691 -0.393596
v -0.543003 2.040687 -0.176432
v -0.468134 1.969844 -0.437252
v -0.467556 1.959288 -0.458359
v -0.468131 1.962329 -0.453992
v -0.767474 1.785915 -0.249367
v -0.813473 1.719344 -0.190199
v -0.850036 1.538923 0.276193
v -0.858773 1.495808 -0.024840
v -0.469356 1.988691 -0.393596
v -0.468134 1.969844 -0.437252
v -0.535369 1.458947 0.736873
v -0.482664 1.436843 0.758707
v -0.438410 1.418452 0.777005
v -0.448109 1.481724 0.760371
v -0.480367 1.783689 0.647152
v -0.483982 1.763298 0.666148
v -0.486720 1.719344 0.697193
v -0.563347 1.962329 0.322937
v -0.579800 2.012577 0.188388
v -0.543003 2.040687 -0.176432
v -0.467556 1.959288 -0.458359
v -0.468131 1.962329 -0.453992
v -0.813473 1.719344 -0.190199
v -0.767474 1.785915 -0.249367
vn 0.5299 -0.3091 -0.7897
vn -0.4292 -0.8920 0.1416
vn 0.8619 0.2484 0.4421
vn 0.8609 0.2567 0.4394
vn 0.7925 0.5967 0.1259
vn 0.8172 0.5735 0.0565
vn 0.8636 0.4683 -0.1868
vn 0.8639 0.4595 -0.2062
vn -0.2449 -0.5440 -0.8026
vn -0.4316 -0.8911 0.1401
vn -0.4170 -0.9001 0.1258
vn 0.7768 -0.2649 -0.5713
vn 0.8732 0.2399 0.4243
vn 0.6173 -0.2384 -0.7497
vn 0.5343 -0.3048 -0.7884
vn -0.6866 0.6919 -0.2231
vn -0.6298 0.6277 -0.4575
vn -0.6656 0.5685 -0.4836
vn -0.8015 0.5834 -0.1316
vn -0.8747 0.3925 0.2842
vn -0.6866 0.6919 0.2231
vn -0.8850 0.4655 -0.0000
vn -0.5406 0.3925 0.7441
vn -0.6321 0.5752 0.5193
vn -0.6656 0.5685 0.4836
vn -0.6366 0.6171 0.4625
vn -0.2870 0.3706 0.8833
vn -0.4911 0.7947 -0.3568
vn -0.5636 0.8089 -0.1674
vn -0.5722 0.8082 0.1392
vn -0.5328 0.2081 0.8203
vn -0.3029 0.1986 0.9321
vn -0.9302 0.2084 0.3022
vn -0.9801 0.1986 -0.0000
vt 0.000000 0.000000
vt 1.000000 0.000000
vt 1.000000 1.000000
vt 1.000000 0.682028
vt 0.696632 0.696632
vt 1.000000 0.694049
vt 0.682028 0.682028
vt 0.607273 0.062505
vt 0.635840 0.183594
vt 0.694049 0.694049
vt 0.589796 0.000000
vt 0.744042 0.447759
vt 0.589796 0.589796
vt 0.696799 0.000000
vt 0.774309 0.157497
vt 0.782889 0.380135
vt 0.696799 0.696799
vt 1.000000 0.505011
vt 0.686790 0.686790
vt 0.493925 0.112422
vt 0.505011 0.505011
vt 0.489390 0.000000
vt 0.802579 0.000000
vt 0.753607 0.346007
vt 0.704007 0.471106
vt 0.510610 0.000000
vt 0.696632 0.000000
vt 0.676867 0.158514
vt 0.475059 0.268249
vt 0.197421 0.000000
vt 0.102758 0.898253
vt 0.102758 0.941455
vt 0.102220 0.942227
vt 0.071553 0.905259
vt 0.059777 0.814394
vt 0.102758 0.824044
vt 0.071553 0.905259
vt 0.059777 0.894793
vt 0.059777 0.738744
vt 0.067552 0.743314
vt 0.071159 0.746674
vt 0.102758 0.804024
vt 0.560354 0.403988
vt 0.563190 0.403067
vt 0.563674 0.408558
vt 0.566478 0.603738
vt 0.566478 0.606699
vt 0.535091 0.563497
vt 0.553235 0.557602
vt 0.566369 0.596415
vt 0.116619 0.892358
vt 0.111646 0.827824
vt 0.546726 0.493068
vt 0.535091 0.489288
vt 0.549636 0.469268
vt 0.424426 0.832722
vt 0.424426 0.835558
vt 0.378364 0.841327
vt 0.374454 0.832004
vt 0.371201 0.824176
vt 0.382394 0.825892
vt 0.013715 0.730804
vt 0.027862 0.812293
vt 0.027862 0.812293
vt 0.059777 0.894793
vt 0.020236 0.865542
s 0
usemtl lambert2SG
f 7/1/1 2/2/1 1/3/1 6/1/1
f 3/2/2 36/4/2 35/5/2 1/1/2
f 3/1/3 4/2/3 37/6/3 36/7/3
f 39/8/4 40/9/4 37/10/4 4/1/4 38/11/4
f 41/12/5 38/13/5 4/1/5 32/14/5 43/15/5 42/16/5
f 4/1/6 5/2/6 32/17/6
f 5/1/7 6/2/7 33/18/7 32/19/7
f 45/20/8 33/21/8 6/1/8 44/22/8
f 6/2/9 1/1/9 31/23/9 46/24/9 47/25/9 44/26/9
f 1/1/10 35/27/10 34/28/10 30/29/10 31/30/10
f 2/1/11 3/2/11 1/3/11
f 2/1/12 7/2/12 3/3/12
f 7/1/13 4/2/13 3/3/13
f 7/1/14 5/2/14 4/3/14
f 7/1/15 6/2/15 5/3/15
s 1
f 10/31/16 27/32/17 26/33/18 28/34/19
f 8/35/20 11/36/21 10/31/16 28/37/19 29/38/22
f 11/36/21 8/35/20 9/39/23 19/40/24 18/41/25 21/42/26
f 9/43/23 20/44/27 19/45/24
f 25/46/28 27/47/17 10/48/16 24/49/29 23/50/28
f 24/51/29 10/31/16 11/36/21 22/52/30
f 22/53/30 11/54/21 21/55/26
f 20/56/27 9/57/23 14/58/31 15/59/32 16/60/32 17/61/32
f 14/62/31 9/39/23 8/35/20 12/63/33
f 12/64/33 8/35/20 29/65/22 13/66/34
o Jupajub_cell.001
v -0.142822 0.335380 0.046407
v -0.114165 1.136204 -0.010762
v -0.263879 1.643247 -0.308814
v -0.414483 0.428193 -0.134675
v -0.645576 0.604730 -0.209759
v -0.813473 0.847711 -0.264314
v -0.901741 1.133358 -0.292995
v -0.813473 1.719344 -0.264314
v -0.901741 1.246177 -0.292995
v -0.879674 1.392671 -0.285823
v -0.968005 1.400029 -0.314524
v -0.992292 1.321447 -0.322416
v -0.992292 1.238819 -0.322416
v -0.992292 1.238819 0.010615
v -0.952617 1.398747 -0.010592
v -0.968005 1.400029 -0.010169
v -0.992292 1.321447 0.000432
v -0.901741 1.133358 0.020194
v -0.901741 1.246177 0.006290
v -0.645576 0.604730 0.075672
v -0.514276 0.504427 0.083077
v -0.813473 0.847711 0.052065
v -0.116627 0.335380 0.082459
v -0.142822 0.289727 0.046407
v -0.112906 0.335534 0.088348
v -0.387960 0.517663 -0.370436
v -0.324397 0.428193 -0.258668
v -0.209743 0.358243 -0.068151
v -0.142822 0.335380 0.040870
v -0.449910 0.604730 -0.479072
v -0.500317 1.719344 -0.692775
v -0.508954 1.669831 -0.700519
v -0.536519 0.847711 -0.645508
v -0.552461 1.392671 -0.736198
v -0.571077 1.246177 -0.748115
v -0.623396 1.238819 -0.830152
v -0.620046 1.321447 -0.834763
v -0.575651 1.133358 -0.741820
v -0.602911 1.400029 -0.817040
v -0.879674 1.392671 -0.012683
v -0.859093 1.494231 -0.026063
v -0.414483 0.428193 0.088628
v -0.274204 0.380267 0.089095
v -0.813473 1.719344 -0.192522
v -0.768902 1.783849 -0.249831
v -0.507065 1.935207 -0.432288
v -0.407537 1.928798 -0.570744
v -0.467058 1.958290 -0.460217
v -0.411754 1.932435 -0.566731
v -0.992292 1.238819 0.010615
v -0.992292 1.238819 0.010615
v -0.901741 1.246177 0.006290
v -0.901741 1.246177 0.006290
v -0.901741 1.133358 0.020194
v -0.813473 0.847711 0.052065
v -0.645576 0.604730 0.075672
v -0.514276 0.504427 0.083077
v -0.952617 1.398747 -0.010592
v -0.968005 1.400029 -0.010169
v -0.968005 1.400029 -0.010169
v -0.992292 1.321447 0.000432
v -0.324397 0.428193 -0.258668
v -0.209743 0.358243 -0.068151
v -0.387960 0.517663 -0.370436
v -0.116627 0.335380 0.082459
v -0.116627 0.335380 0.082459
v -0.112906 0.335534 0.088348
v -0.142822 0.289727 0.046407
v -0.142822 0.289727 0.046407
v -0.142822 0.335380 0.040870
v -0.142822 0.335380 0.040870
v -0.500317 1.719344 -0.692775
v -0.508954 1.669831 -0.700519
v -0.449910 0.604730 -0.479072
v -0.536519 0.847711 -0.645508
v -0.575651 1.133358 -0.741820
v -0.571077 1.246177 -0.748115
v -0.571077 1.246177 -0.748115
v -0.623396 1.238819 -0.830152
v -0.623396 1.238819 -0.830152
v -0.620046 1.321447 -0.834763
v -0.602911 1.400029 -0.817040
v -0.602911 1.400029 -0.817040
v -0.552461 1.392671 -0.736198
v -0.552461 1.392671 -0.736198
v -0.274204 0.380267 0.089095
v -0.879674 1.392671 -0.012683
v -0.879674 1.392671 -0.012683
v -0.859093 1.494231 -0.026063
v -0.414483 0.428193 0.088628
v -0.813473 1.719344 -0.192522
v -0.768902 1.783849 -0.249831
v -0.507065 1.935207 -0.432288
v -0.407537 1.928798 -0.570744
v -0.467058 1.958290 -0.460217
v -0.411754 1.932435 -0.566731
v -0.142822 0.335380 0.046407
v -0.142822 0.335380 0.046407
v -0.901741 1.246177 -0.292995
v -0.901741 1.246177 -0.292995
v -0.968005 1.400029 -0.314524
v -0.968005 1.400029 -0.314524
v -0.992292 1.238819 -0.322416
v -0.992292 1.238819 -0.322416
v -0.879674 1.392671 -0.285823
v -0.879674 1.392671 -0.285823
vn 0.0374 0.1222 0.9918
vn 0.8444 -0.0645 -0.5318
vn 0.0387 0.1228 0.9917
vn 0.2449 0.5439 0.8026
vn 0.8440 -0.0639 -0.5325
vn 0.2460 0.5441 0.8021
vn 0.7566 0.6060 0.2457
vn -0.4082 -0.8634 -0.2966
vn -0.3109 -0.9495 -0.0415
vn -0.4547 -0.8783 -0.1477
vn -0.2939 -0.9511 0.0955
vn -0.3180 -0.9479 0.0182
vn -0.4691 -0.8831 -0.0000
vn -0.3233 -0.9463 -0.0000
vn -0.2616 -0.9463 0.1900
vn -0.6866 -0.6919 -0.2231
vn -0.6031 -0.6666 -0.4382
vn -0.4911 -0.7947 -0.3568
vn -0.6071 -0.7947 -0.0000
vn -0.7194 -0.6946 -0.0000
vn -0.8531 -0.4419 -0.2772
vn -0.7357 -0.4160 -0.5345
vn -0.8955 -0.4452 -0.0000
vn -0.9400 -0.1519 -0.3054
vn -0.8014 -0.1369 -0.5822
vn -0.9871 -0.1602 -0.0000
vn -0.9511 -0.0000 -0.3090
vn -0.8090 -0.0000 -0.5878
vn -1.0000 -0.0000 -0.0000
vn -0.7998 0.1501 -0.5811
vn -0.9400 0.1519 -0.3054
vn -0.9045 0.3090 -0.2939
vn -0.7730 0.2952 -0.5616
vn -0.9905 0.1374 -0.0000
vn -0.9554 0.2953 -0.0000
vn -0.7457 0.3799 -0.5474
vn -0.5416 0.5841 -0.6046
vn -0.2542 0.5685 -0.7824
vn -0.8746 0.3924 -0.2847
vn -0.7254 0.5815 -0.3682
vn -0.6660 0.5661 -0.4858
vn -0.9492 0.3148 -0.0000
vn -0.9299 0.2095 -0.3022
vn -0.9801 0.1986 -0.0000
vn -0.7924 0.2007 -0.5760
vn 0.0672 0.9965 0.0488
vn 0.0830 0.9965 -0.0000
vn 0.0810 -0.9967 -0.0000
vn 0.0655 -0.9967 0.0476
vn -0.8090 -0.0000 0.5878
vt 0.848603 0.022441
vt 0.848609 0.074351
vt 0.753782 0.122922
vt 0.573393 0.077108
vt 0.432321 0.000000
vt 0.903260 0.000000
vt 0.919794 0.013856
vt 0.945894 0.072813
vt 0.945898 0.110832
vt 0.415315 0.255453
vt 0.332111 0.332111
vt 0.000000 0.000000
vt 0.551137 0.000000
vt 0.549975 0.004498
vt 0.572447 0.036246
vt 0.541046 0.036160
vt 0.502509 0.117003
vt 0.551137 0.551137
vt 0.802296 0.000000
vt 0.901426 0.076775
vt 1.000000 0.096740
vt 1.000000 0.567679
vt 0.912045 0.587155
vt 0.747500 0.573725
vt 0.861353 0.581839
vt 0.802296 0.802296
vt 0.690379 0.000000
vt 0.850980 0.474244
vt 0.418376 0.048364
vt 0.560987 0.000000
vt 1.000000 0.000000
vt 1.000000 0.332111
vt 0.909282 0.341741
vt 0.734000 0.320213
vt 0.584528 0.259734
vt 0.543575 0.224611
vt 0.499283 0.256088
vt 0.469289 0.230363
vt 0.453357 0.198072
vt 0.501841 0.171891
vt 0.430364 0.067498
vt 1.000000 1.000000
vt 0.484459 0.000000
vt 1.000000 0.309621
vt 0.484459 0.484459
vt 0.439013 0.000000
vt 0.444610 0.025877
vt 0.826429 0.471604
vt 0.846711 0.505305
vt 0.810494 0.493537
vt 0.858549 0.525568
vt 0.835309 0.533119
vt 0.810494 0.533037
vt 0.846711 0.505305
vt 0.858549 0.524589
vt 0.863182 0.531945
vt 0.863840 0.532987
vt 0.835308 0.533119
vt 0.826429 0.471604
vt 0.769617 0.480255
vt 0.804228 0.432617
vt 0.815186 0.451834
vt 0.346188 0.547883
vt 0.314960 0.534601
vt 0.314960 0.495101
vt 0.328445 0.496083
vt 0.346188 0.497393
vt 0.389169 0.557533
vt 0.389169 0.624962
vt 0.346188 0.595521
vt 0.389169 0.501569
vt 0.439696 0.562606
vt 0.439696 0.641999
vt 0.389169 0.624962
vt 0.439696 0.507206
vt 0.439696 0.641999
vt 0.459653 0.562606
vt 0.459653 0.643112
vt 0.439696 0.507206
vt 0.459653 0.509666
vt 0.480404 0.672064
vt 0.480404 0.581436
vt 0.494304 0.580040
vt 0.494304 0.668929
vt 0.480404 0.524328
vt 0.494304 0.526203
vt 0.560354 0.648797
vt 0.576451 0.626641
vt 0.577197 0.627351
vt 0.059777 0.983553
vt 0.059777 0.907903
vt 0.071187 0.905341
vt 0.097960 0.937616
vt 0.102043 0.942556
vt 0.097470 0.961397
vt 0.059777 0.895204
vt 0.071187 0.905341
vt 0.465788 0.581436
vt 0.465788 0.522526
vt 0.465788 0.671249
vt 0.001992 0.911708
vt 0.001992 0.863392
vt 0.019957 0.865759
vt 0.001992 0.991375
vt 0.051019 0.985063
vt 0.604680 0.326551
vt 0.540098 0.237662
vt 0.555723 0.232585
vt 0.613604 0.312251
vt 0.555723 0.184269
vt 0.540098 0.183824
vt 0.542820 0.183899
vt 0.197508 0.134714
vt 0.197508 0.187655
vt 0.181491 0.188420
vt 0.181491 0.129510
vt 0.255999 0.054209
vt 0.246744 0.039697
vt 0.121538 0.447992
vt 0.121538 0.456068
vt 0.120559 0.456068
vt 0.121538 0.447992
vt 0.127915 0.456068
s 0
usemtl lambert2SG
f 99/67/35 101/68/35 102/69/35 103/70/35 104/71/35 105/72/35 106/73/35 108/74/35 97/75/35
f 109/76/36 111/77/36 49/78/36 114/79/36 112/80/36 115/81/36 117/82/36 110/83/36
f 114/84/37 49/78/37 136/85/37 134/86/37 105/87/37 104/88/37 137/89/37 133/90/37
f 138/91/38 136/92/38 49/78/38 140/93/38 139/94/38
f 119/95/39 141/96/39 50/97/39 49/97/39 111/98/39 121/99/39 122/100/39 123/101/39 124/102/39 126/103/39 128/104/39 129/105/39 131/106/39 120/107/39
f 49/108/40 50/78/40 142/109/40 140/110/40
f 142/111/41 50/78/41 141/112/41 96/113/41
s 1
f 74/114/42 75/115/43 51/116/44
f 144/117/45 90/118/46 89/119/47 51/116/44 75/120/43 118/121/48
f 144/117/45 113/122/49 72/123/49 90/124/46
f 74/125/42 51/116/44 52/126/50 77/127/51 73/128/52
f 52/129/50 51/130/44 89/131/47 68/132/53 67/133/54
f 52/129/50 53/134/55 80/135/56 77/136/51
f 69/137/57 53/134/55 52/129/50 67/133/54
f 53/134/55 54/138/58 85/139/59 80/140/56
f 65/141/60 54/138/58 53/134/55 69/137/57
f 85/142/59 54/138/58 146/143/61 125/144/62
f 146/143/61 54/138/58 65/145/60 100/146/63
f 84/147/64 59/148/65 148/149/66 130/150/67
f 148/149/66 59/148/65 64/151/68 107/152/69
f 78/153/70 143/154/71 94/155/72
f 78/156/70 55/157/73 92/158/74 93/159/75 95/160/75 143/161/71
f 55/157/73 91/162/76 92/163/74
f 64/151/68 59/148/65 150/164/61 98/165/63
f 150/164/61 59/148/65 84/147/64 127/166/62
f 91/162/76 55/157/73 152/167/77 135/168/78 88/169/78
f 132/170/79 152/167/77 55/157/73 78/156/70 79/171/79
f 86/172/80 149/173/80 153/174/80 81/175/80
f 87/176/81 57/174/81 58/173/81 63/177/81 62/178/81
f 147/179/82 66/180/82 61/181/82 151/182/82
f 82/183/83 56/179/83 60/182/83 83/184/83
f 116/185/63 145/186/63 76/187/63
f 71/188/84 70/189/84 48/186/84
o Jupajub_cell.002
v 0.001109 1.292015 0.004614
v -0.003436 1.287555 0.006159
v 0.115488 1.311347 0.039744
v 0.002969 1.099279 0.105081
v 0.004105 1.105710 0.097657
v -0.003043 1.282301 0.008742
v 0.000002 0.847711 0.855336
v 0.000002 1.133358 0.948150
v 0.000002 1.719344 0.855336
v 0.502756 1.719344 0.691984
v 0.000002 1.962329 0.678799
v 0.398992 1.962329 0.549160
v 0.000002 1.246177 0.948150
v 0.000002 1.392671 0.924945
v 0.000002 1.400029 1.017825
v 0.000002 1.321447 1.043358
v 0.000002 1.238819 1.043358
v -0.384695 1.238819 0.918362
v -0.427488 1.321447 0.904458
v -0.459611 1.400029 0.868488
v -0.435352 1.416732 0.778365
v -0.424612 1.392671 0.786982
v -0.119006 0.847711 0.816669
v -0.015332 0.711633 0.751486
v -0.356535 1.246177 0.832303
v -0.298107 1.133358 0.851288
v 0.384999 1.238819 0.918264
v 0.432787 1.321447 0.902737
v 0.293398 1.133358 0.852819
v 0.470027 1.400029 0.865106
v 0.435913 1.392671 0.783311
v 0.358647 1.246177 0.831618
v 0.522421 1.562345 0.719049
v 0.000002 0.726573 0.767324
v 0.098356 0.847711 0.823379
v -0.394847 1.861611 0.623681
v -0.470507 1.794853 0.647601
v -0.478805 1.784272 0.648617
v -0.481482 1.769152 0.662707
v -0.484575 1.719344 0.697890
v 0.593617 1.829042 0.437965
v 0.599101 1.867505 0.385203
v 0.577252 1.719344 0.589448
v -0.279836 1.962329 0.587874
v 0.060533 2.138866 0.416147
v 0.098095 2.143643 0.389240
v 0.000002 2.124337 0.455813
v 0.128489 2.138866 0.394068
v 0.578145 1.888760 0.389060
v 0.504607 1.962329 0.403792
v 0.298092 2.087045 0.410287
v -0.384695 1.238819 0.918362
v -0.384695 1.238819 0.918362
v -0.427488 1.321447 0.904458
v -0.459611 1.400029 0.868488
v -0.459611 1.400029 0.868488
v -0.424612 1.392671 0.786982
v -0.424612 1.392671 0.786982
v -0.435352 1.416732 0.778365
v -0.119006 0.847711 0.816669
v -0.015332 0.711633 0.751486
v -0.298107 1.133358 0.851288
v -0.356535 1.246177 0.832303
v -0.356535 1.246177 0.832303
v 0.470027 1.400029 0.865106
v 0.470027 1.400029 0.865106
v 0.435913 1.392671 0.783311
v 0.435913 1.392671 0.783311
v 0.432787 1.321447 0.902737
v 0.384999 1.238819 0.918264
v 0.384999 1.238819 0.918264
v 0.358647 1.246177 0.831618
v 0.358647 1.246177 0.831618
v 0.293398 1.133358 0.852819
v 0.098356 0.847711 0.823379
v 0.000002 0.726573 0.767324
v -0.484575 1.719344 0.697890
v -0.478805 1.784272 0.648617
v -0.470507 1.794853 0.647601
v 0.522421 1.562345 0.719049
v -0.394847 1.861611 0.623681
v -0.481482 1.769152 0.662707
v 0.593617 1.829042 0.437965
v 0.599101 1.867505 0.385203
v 0.577252 1.719344 0.589448
v 0.060533 2.138866 0.416147
v 0.098095 2.143643 0.389240
v -0.279836 1.962329 0.587874
v 0.000002 2.124337 0.455813
v 0.578145 1.888760 0.389060
v 0.504607 1.962329 0.403792
v 0.128489 2.138866 0.394068
v 0.298092 2.087045 0.410287
v 0.000002 1.246177 0.948150
v 0.000002 1.246177 0.948150
v 0.000002 1.400029 1.017825
v 0.000002 1.400029 1.017825
v 0.000002 1.238819 1.043358
v 0.000002 1.238819 1.043358
v 0.000002 1.392671 0.924945
v 0.000002 1.392671 0.924945
vn -0.8220 -0.4778 -0.3098
vn -0.8612 -0.2566 -0.4388
vn -0.5719 0.3878 -0.7228
vn -0.5961 0.3586 -0.7184
vn -0.8560 -0.3186 -0.4071
vn 0.7882 -0.5197 -0.3296
vn 0.8041 -0.5170 -0.2933
vn -0.5682 0.3916 -0.7237
vn 0.1187 -0.4309 -0.8946
vn 0.2034 0.3837 -0.9008
vn 0.2138 0.3745 -0.9022
vn 0.3305 -0.4174 -0.8465
vn 0.1487 -0.4399 -0.8856
vn -0.2957 -0.4391 -0.8484
vn -0.1514 -0.5810 0.7997
vn -0.0000 -0.4420 0.8970
vn -0.2837 -0.3961 0.8733
vn -0.2542 -0.5685 0.7824
vn 0.2842 -0.3928 0.8746
vn -0.0000 -0.1519 0.9884
vn -0.3074 -0.1023 0.9461
vn 0.3075 -0.0981 0.9465
vn -0.0000 -0.0000 1.0000
vn -0.3090 -0.0000 0.9511
vn 0.3090 -0.0000 0.9511
vn -0.3031 0.1955 0.9327
vn -0.0000 0.1519 0.9884
vn -0.0000 0.3090 0.9511
vn -0.2952 0.2952 0.9087
vn 0.2952 0.2952 0.9087
vn 0.3028 0.2001 0.9318
vn -0.6656 0.5685 0.4836
vn -0.2981 0.5751 0.7618
vn -0.3237 0.5784 0.7488
vn -0.0000 0.3925 0.9198
vn -0.0000 0.6919 0.7220
vn -0.2380 0.6379 0.7324
vn -0.2542 0.5685 0.7824
vn -0.2813 0.4136 0.8659
vn 0.5406 0.3925 0.7441
vn 0.4244 0.6919 0.5841
vn 0.7111 0.4768 0.5167
vn 0.6656 0.5685 0.4836
vn 0.6157 0.6488 0.4473
vn 0.0735 0.8068 0.5862
vn 0.1794 0.8142 0.5521
vn 0.2694 0.8056 0.5277
vn 0.1750 0.8242 0.5385
vn 0.0999 0.9463 0.3075
vn 0.4142 0.2048 0.8869
vn -0.0000 0.2084 0.9780
vn 0.3029 0.1986 0.9321
vn -0.3029 0.1986 0.9321
vn 0.0257 0.9965 -0.0789
vn -0.0257 0.9965 -0.0789
vn -0.0250 -0.9967 -0.0770
vn 0.0250 -0.9967 -0.0770
vn 0.8043 -0.5194 -0.2888
vt 0.337141 0.146227
vt 0.283274 0.055941
vt 0.336409 0.026577
vt 0.318557 0.000000
vt 1.000000 0.000000
vt 1.000000 0.654341
vt 0.834493 0.554790
vt 0.544984 0.300280
vt 0.449144 0.185207
vt 0.407334 0.230505
vt 0.602526 0.597857
vt 0.697942 0.594949
vt 0.590658 0.590658
vt 0.000000 0.000000
vt 0.683013 0.000000
vt 0.431217 0.000000
vt 1.000000 0.590987
vt 0.945349 0.535697
vt 0.590987 0.590987
vt 0.683013 0.683013
vt 1.000000 1.000000
vt 0.566200 0.000000
vt 1.000000 0.388977
vt 0.150007 0.000000
vt 1.000000 0.568783
vt 0.771741 0.440986
vt 0.287578 0.118360
vt 0.200443 0.045690
vt 1.000000 0.404206
vt 0.150007 0.150007
vt 0.190971 0.154763
vt 0.448026 0.206417
vt 0.830733 0.330809
vt 0.433799 0.000000
vt 0.404206 0.404206
vt 0.883812 0.653091
vt 0.883812 0.668660
vt 0.862761 0.661820
vt 0.881100 0.650290
vt 0.901210 0.663007
vt 0.288683 0.855057
vt 0.288683 0.834006
vt 0.339210 0.834006
vt 0.339210 0.886738
vt 0.288683 0.816608
vt 0.339210 0.782107
vt 0.339210 0.886738
vt 0.359167 0.834006
vt 0.359167 0.897074
vt 0.359167 0.770566
vt 0.190259 0.919524
vt 0.190259 0.843905
vt 0.204160 0.843905
vt 0.204160 0.925205
vt 0.204160 0.760762
vt 0.190259 0.767350
vt 0.071262 0.746415
vt 0.068587 0.743923
vt 0.073134 0.746595
vt 0.649286 0.375092
vt 0.649286 0.406320
vt 0.599786 0.422404
vt 0.579441 0.416070
vt 0.566058 0.411839
vt 0.564116 0.409167
vt 0.563569 0.402943
vt 0.738218 0.403988
vt 0.719863 0.429252
vt 0.126769 0.689566
vt 0.083788 0.714830
vt 0.083788 0.696693
vt 0.103192 0.669897
vt 0.109996 0.660564
vt 0.113755 0.661246
vt 0.126769 0.663852
vt 0.649286 0.445764
vt 0.659993 0.452780
vt 0.702015 0.453817
vt 0.672014 0.456686
vt 0.738545 0.454966
vt 0.702015 0.453817
vt 0.672014 0.456686
vt 0.666638 0.457539
vt 0.175644 0.843905
vt 0.175644 0.775803
vt 0.175644 0.911954
vt 0.056016 0.719618
vt 0.083788 0.696693
vt 0.396654 0.654215
vt 0.424426 0.657694
vt 0.424426 0.746626
vt 0.366641 0.746626
vt 0.366641 0.669518
vt 0.370897 0.823635
vt 0.366641 0.821735
vt 0.424426 0.832343
vt 0.711328 0.001983
vt 0.711328 0.018412
vt 0.636219 0.042817
vt 0.630028 0.028399
vt 0.788436 0.043466
vt 0.794471 0.028997
vt 0.357016 0.354260
vt 0.420456 0.333646
vt 0.425119 0.348973
vt 0.357016 0.371101
vt 0.288968 0.348990
vt 0.293949 0.333768
vt 0.388977 0.388977
vt 0.835172 0.436055
vt 0.621132 0.118319
vt 0.686242 0.262751
vt 0.769016 0.311403
vt 0.807134 0.383404
vt 0.822885 0.443502
vt 0.735195 0.382792
vt 0.756701 0.464850
vt 0.727036 0.618646
vt 0.670362 0.655580
vt 0.654341 0.654341
s 0
usemtl lambert2SG
f 207/190/85 208/191/85 210/192/85 212/193/85 157/194/85 214/195/85 213/196/85 215/197/85 216/198/85 205/199/85
f 230/200/86 235/201/86 231/202/86 155/203/86 158/203/86 212/204/86
f 234/205/87 154/194/87 231/206/87 232/207/87
f 154/203/88 155/194/88 231/208/88
f 212/209/89 158/203/89 157/194/89
f 158/203/90 156/194/90 157/210/90
f 157/210/91 156/203/91 237/211/91 236/212/91
f 240/213/92 154/194/92 234/214/92 241/215/92 242/216/92 239/217/92
f 159/203/93 155/194/93 154/210/93
f 243/218/94 154/210/94 240/219/94 245/220/94 246/221/94 244/222/94
f 237/223/95 156/194/95 154/210/95 243/224/95
f 156/203/96 158/194/96 154/210/96
f 158/203/97 159/194/97 154/210/97
f 159/203/98 158/194/98 155/210/98
s 1
f 229/225/99 160/226/100 176/227/101 177/228/102
f 160/226/100 229/225/99 228/229/103
f 176/230/101 160/231/100 161/232/104 179/233/105
f 161/232/104 160/231/100 228/234/103 227/235/106
f 179/236/105 161/232/104 247/237/107 217/238/108
f 226/239/109 247/237/107 161/232/104 227/235/106
f 172/240/110 169/241/111 249/242/112 209/243/113
f 219/244/114 249/242/112 169/241/111 222/245/115
f 191/246/116 192/247/117 190/248/118
f 162/249/119 164/250/120 197/251/121 189/252/122 190/253/118 192/254/117 193/255/123
f 164/250/120 162/249/119 163/256/124 165/257/125
f 165/258/125 163/259/124 238/260/126 194/261/127 195/262/127 202/263/127 203/264/128
f 164/250/120 200/265/129 197/251/121
f 198/266/130 200/265/129 164/250/120 165/257/125 204/267/131 201/268/132
f 165/257/125 203/269/128 204/270/131
f 201/271/132 199/272/133 198/266/130
f 169/241/111 251/273/107 223/274/109 222/245/115
f 206/275/108 251/273/107 169/241/111 172/240/110
f 163/259/124 233/276/134 238/277/126
f 233/278/134 163/279/124 162/280/119 253/281/135 221/282/136
f 174/283/137 211/284/137 253/281/135 162/280/119 193/285/123
f 250/286/138 254/287/138 175/288/138 173/289/138
f 220/290/139 167/287/139 168/286/139 218/291/139
f 248/292/140 225/293/140 224/294/140 252/295/140
f 166/292/141 170/295/141 171/296/141 178/297/141
s 0
f 157/210/142 236/298/142 196/299/142 186/300/142 184/301/142 183/302/142 181/303/142 180/304/142 185/305/142 182/306/142 188/307/142 187/308/142 214/309/142
o Jupajub_cell.003
v -0.088267 0.335380 0.121490
v -0.112949 1.135508 -0.008114
v 0.001665 1.098096 0.104210
v -0.021679 1.102567 0.065253
v -0.414483 0.428193 0.134675
v -0.256164 0.428193 0.352583
v -0.645576 0.604730 0.209759
v -0.398988 0.604730 0.549160
v -0.813473 0.847711 0.264314
v -0.502752 0.847711 0.691984
v -0.901741 1.133358 0.292995
v -0.557307 1.133358 0.767068
v -0.557307 1.246177 0.767068
v -0.901741 1.246177 0.292995
v -0.543670 1.392671 0.748298
v -0.879674 1.392671 0.285823
v -0.968005 1.400029 0.314524
v -0.992292 1.321447 0.322416
v -0.598263 1.400029 0.823438
v -0.613267 1.321447 0.844094
v -0.613267 1.238819 0.844094
v -0.992292 1.238819 0.322416
v -0.586944 1.470269 0.661981
v -0.437000 1.415647 0.778061
v -0.535602 1.457086 0.737194
v -0.858550 1.496910 -0.004936
v -0.850401 1.537119 0.276312
v -0.386929 1.238819 0.917636
v -0.429688 1.321447 0.903743
v -0.461774 1.400029 0.867786
v -0.426756 1.392671 0.786285
v -0.121351 0.847711 0.815907
v -0.016824 0.710471 0.750158
v -0.358743 1.246177 0.831586
v -0.300360 1.133358 0.850556
v -0.859125 1.494073 -0.024307
v -0.020633 0.604730 0.672094
v -0.026477 0.428193 0.427212
v -0.028659 0.343434 0.165647
v -0.039586 0.338977 0.148377
v -0.879674 1.392671 -0.011057
v -0.414483 0.428193 0.090239
v -0.279634 0.382122 0.090860
v -0.992292 1.238819 0.012159
v -0.968005 1.400029 -0.008647
v -0.992292 1.321447 0.001968
v -0.901741 1.133358 0.021729
v -0.901741 1.246177 0.007814
v -0.645576 0.604730 0.077206
v -0.813473 0.847711 0.053610
v -0.046182 0.337036 0.140262
v -0.073210 0.278219 0.126382
v -0.057801 0.335380 0.131389
v -0.088267 0.224380 0.121490
v -0.110177 0.335380 0.091336
v -0.437000 1.415647 0.778061
v -0.535602 1.457086 0.737194
v -0.586944 1.470269 0.661981
v -0.850401 1.537119 0.276312
v -0.858550 1.496910 -0.004936
v -0.461774 1.400029 0.867786
v -0.461774 1.400029 0.867786
v -0.426756 1.392671 0.786285
v -0.426756 1.392671 0.786285
v -0.429688 1.321447 0.903743
v -0.386929 1.238819 0.917636
v -0.386929 1.238819 0.917636
v -0.358743 1.246177 0.831586
v -0.358743 1.246177 0.831586
v -0.300360 1.133358 0.850556
v -0.121351 0.847711 0.815907
v -0.016824 0.710471 0.750158
v -0.859125 1.494073 -0.024307
v -0.279634 0.382122 0.090860
v -0.110177 0.335380 0.091336
v -0.110177 0.335380 0.091336
v -0.020633 0.604730 0.672094
v -0.026477 0.428193 0.427212
v -0.028659 0.343434 0.165647
v -0.039586 0.338977 0.148377
v -0.879674 1.392671 -0.011057
v -0.879674 1.392671 -0.011057
v -0.414483 0.428193 0.090239
v -0.968005 1.400029 -0.008647
v -0.968005 1.400029 -0.008647
v -0.645576 0.604730 0.077206
v -0.813473 0.847711 0.053610
v -0.901741 1.133358 0.021729
v -0.901741 1.246177 0.007814
v -0.901741 1.246177 0.007814
v -0.992292 1.238819 0.012159
v -0.992292 1.238819 0.012159
v -0.992292 1.321447 0.001968
v -0.046182 0.337036 0.140262
v -0.057801 0.335380 0.131389
v -0.057801 0.335380 0.131389
v -0.073210 0.278219 0.126382
v -0.088267 0.224380 0.121490
v -0.088267 0.224380 0.121490
v -0.088267 0.335380 0.121490
v -0.088267 0.335380 0.121490
v -0.901741 1.246177 0.292995
v -0.901741 1.246177 0.292995
v -0.557307 1.246177 0.767068
v -0.557307 1.246177 0.767068
v -0.968005 1.400029 0.314524
v -0.968005 1.400029 0.314524
v -0.598263 1.400029 0.823438
v -0.598263 1.400029 0.823438
v -0.613267 1.238819 0.844094
v -0.613267 1.238819 0.844094
v -0.992292 1.238819 0.322416
v -0.992292 1.238819 0.322416
v -0.543670 1.392671 0.748298
v -0.543670 1.392671 0.748298
v -0.879674 1.392671 0.285823
v -0.879674 1.392671 0.285823
vn 0.4320 0.8911 -0.1387
vn 0.4310 0.8914 -0.1399
vn 0.8221 0.4776 0.3101
vn 0.4534 0.8747 -0.1713
vn 0.4312 0.8908 -0.1433
vn -0.0366 -0.1223 -0.9918
vn 0.8514 -0.0765 -0.5189
vn 0.7831 -0.0854 -0.6161
vn 0.6127 -0.0965 -0.7844
vn 0.6022 -0.0964 -0.7925
vn -0.4735 -0.8808 -0.0000
vn -0.2680 -0.9479 0.1720
vn -0.4547 -0.8783 0.1477
vn -0.2616 -0.9463 0.1900
vn -0.1816 -0.9511 0.2500
vn -0.2810 -0.8783 0.3868
vn -0.0999 -0.9463 0.3075
vn -0.1538 -0.8673 0.4735
vn -0.6866 -0.6919 0.2231
vn -0.7280 -0.6855 -0.0000
vn -0.4244 -0.6919 0.5841
vn -0.2289 -0.6718 0.7045
vn -0.8531 -0.4419 0.2772
vn -0.9034 -0.4288 -0.0000
vn -0.5273 -0.4420 0.7257
vn -0.2714 -0.4781 0.8353
vn -0.2542 -0.5685 0.7824
vn -0.9400 -0.1519 0.3054
vn -0.9904 -0.1385 -0.0000
vn -0.5810 -0.1519 0.7996
vn -0.3030 -0.1962 0.9326
vn -0.9511 -0.0000 0.3090
vn -1.0000 -0.0000 -0.0000
vn -0.5878 -0.0000 0.8090
vn -0.3090 -0.0000 0.9511
vn -0.9045 0.3090 0.2939
vn -0.9554 0.2953 -0.0000
vn -0.9869 0.1612 -0.0000
vn -0.9400 0.1519 0.3054
vn -0.5590 0.3090 0.7694
vn -0.5810 0.1519 0.7996
vn -0.3074 0.1037 0.9459
vn -0.2952 0.2952 0.9087
vn -0.6184 0.2081 0.7578
vn -0.5749 0.2084 0.7913
vn -0.3029 0.1986 0.9321
vn -0.9302 0.2084 0.3022
vn -0.7929 0.1986 0.5761
vn -0.9801 0.1986 -0.0000
vn 0.0830 0.9965 -0.0000
vn 0.0672 0.9965 -0.0488
vn 0.0257 0.9965 -0.0789
vn 0.0250 -0.9967 -0.0770
vn 0.0655 -0.9967 -0.0476
vn 0.0810 -0.9967 -0.0000
vn -0.8090 -0.0000 0.5878
vn 0.9992 -0.0397 0.0047
vt 0.318911 0.000000
vt 1.000000 0.000000
vt 1.000000 0.563643
vt 0.673223 0.312939
vt 0.563643 0.563643
vt 0.000000 0.000000
vt 0.823748 0.000000
vt 0.815939 0.249726
vt 0.945342 0.717152
vt 0.855164 0.663371
vt 0.770982 0.593282
vt 0.816208 0.551507
vt 0.701267 0.455809
vt 0.447028 0.166701
vt 0.346722 0.000000
vt 1.000000 0.681089
vt 0.974652 0.664069
vt 1.000000 1.000000
vt 0.802637 0.000000
vt 1.000000 0.176252
vt 0.913653 0.325994
vt 0.574138 0.496310
vt 0.754246 0.630918
vt 0.848918 0.774334
vt 0.848906 0.826240
vt 0.946057 0.835160
vt 0.946048 0.873176
vt 0.919983 0.906030
vt 0.901689 0.824956
vt 0.802637 0.802637
vt 0.551157 0.000000
vt 0.755650 0.180905
vt 0.461527 0.461527
vt 0.456888 0.000000
vt 0.456888 0.456888
vt 1.000000 0.456192
vt 0.724376 0.457060
vt 1.000000 0.418855
vt 0.456192 0.456192
vt 0.418855 0.418855
vt 0.377991 0.252716
vt 0.448843 0.000000
vt 0.810494 0.533322
vt 0.834348 0.533431
vt 0.810494 0.541182
vt 0.864323 0.533516
vt 0.868198 0.538850
vt 0.838499 0.579728
vt 0.834348 0.533431
vt 0.875643 0.542170
vt 0.876809 0.543607
vt 0.878742 0.546660
vt 0.879128 0.592929
vt 0.873587 0.540601
vt 0.314960 0.486956
vt 0.346188 0.473674
vt 0.346188 0.497121
vt 0.314960 0.494816
vt 0.769617 0.554464
vt 0.813236 0.614500
vt 0.880162 0.636246
vt 0.389169 0.464024
vt 0.389169 0.501295
vt 0.346188 0.413638
vt 0.389169 0.388374
vt 0.862346 0.661685
vt 0.794880 0.639764
vt 0.880836 0.650055
vt 0.439696 0.458951
vt 0.439696 0.506935
vt 0.389169 0.501295
vt 0.439696 0.375092
vt 0.339210 0.887137
vt 0.339210 0.932588
vt 0.288683 0.922938
vt 0.288683 0.855472
vt 0.459653 0.458951
vt 0.459653 0.509396
vt 0.459653 0.375092
vt 0.359167 0.932588
vt 0.339210 0.887137
vt 0.359167 0.897464
vt 0.494304 0.468768
vt 0.494304 0.525934
vt 0.480404 0.524056
vt 0.480404 0.467372
vt 0.494304 0.378746
vt 0.480404 0.375092
vt 0.204160 0.949731
vt 0.190259 0.952386
vt 0.190259 0.919913
vt 0.204160 0.925588
vt 0.175644 0.952386
vt 0.175644 0.912349
vt 0.465788 0.467372
vt 0.465788 0.375092
vt 0.465788 0.522253
vt 0.378035 0.841368
vt 0.366641 0.842795
vt 0.366641 0.822114
vt 0.370705 0.823926
vt 0.001992 0.810589
vt 0.001992 0.728783
vt 0.013386 0.730747
vt 0.015718 0.744051
vt 0.027543 0.812271
vt 0.020431 0.862022
vt 0.019929 0.865448
vt 0.001992 0.863104
vt 0.027543 0.812271
vt 0.540098 0.183555
vt 0.540098 0.126389
vt 0.555723 0.131466
vt 0.555723 0.183981
vt 0.615159 0.049660
vt 0.605502 0.036368
vt 0.635840 0.042940
vt 0.629645 0.028523
vt 0.258435 0.322228
vt 0.293559 0.333641
vt 0.288573 0.348862
vt 0.248536 0.335853
vt 0.197508 0.238370
vt 0.181491 0.243574
vt 0.181491 0.188693
vt 0.197508 0.187924
vt 0.134820 0.436433
vt 0.134820 0.456068
vt 0.129486 0.456068
vt 0.145175 0.445957
vt 0.147901 0.456068
vt 0.142512 0.456068
vt 0.142512 0.436433
vt 1.000000 0.461527
vt 0.346722 0.346722
vt 0.603937 0.425703
vt 0.691754 0.532577
s 0
usemtl lambert2SG
f 310/310/143 257/311/143 312/312/143 311/313/143
f 312/314/144 257/315/144 314/316/144 313/317/144
f 315/318/145 319/319/145 320/320/145 322/321/145 324/322/145 325/323/145 326/324/145 257/311/145 310/325/145 317/326/145
f 258/315/146 256/311/146 257/327/146
f 256/315/147 327/328/147 314/329/147 257/327/147
f 337/330/148 340/331/148 341/332/148 342/333/148 343/334/148 345/335/148 347/336/148 338/337/148 335/338/148 327/339/148 256/315/148 329/340/148 328/341/148
f 257/327/149 293/342/149 334/343/149 258/311/149
f 334/344/150 348/345/150 258/327/150
f 349/346/151 351/347/151 258/327/151 348/348/151
f 256/311/152 258/327/152 351/349/152 352/350/152 329/351/152
s 1
f 296/352/153 297/353/154 259/354/155
f 330/355/156 354/356/157 260/357/158 259/354/155 297/358/154
f 305/359/159 294/360/159 333/361/159 332/362/160 260/357/158 354/356/157 350/363/159
f 259/364/155 261/365/161 303/366/162 296/367/153
f 261/368/161 259/354/155 260/357/158 262/369/163
f 331/370/164 262/369/163 260/357/158 332/362/160
f 261/365/161 263/371/165 304/372/166 303/366/162
f 263/371/165 261/365/161 262/373/163 264/374/167
f 286/375/168 264/376/167 262/369/163 331/370/164 287/377/169
f 263/371/165 265/378/170 301/379/171 304/380/166
f 265/378/170 263/371/165 264/374/167 266/381/172
f 289/382/173 266/383/172 264/384/167 286/385/168
f 301/379/171 265/378/170 356/386/174 344/387/175
f 265/378/170 266/381/172 358/388/176 356/386/174
f 358/389/176 266/383/172 289/390/173 323/391/177
f 360/392/178 339/393/179 300/394/180 272/395/181
f 362/396/182 360/392/178 272/395/181 274/397/183
f 362/398/182 274/399/183 283/400/184 316/401/185
f 283/400/184 274/399/183 364/402/176 321/403/177
f 272/395/181 366/404/174 364/405/176 274/397/183
f 366/404/174 272/395/181 300/394/180 346/406/175
f 279/407/186 368/408/187 318/409/188 278/410/188
f 370/411/189 368/412/187 279/413/186 277/414/190 281/415/189
f 280/416/191 290/417/191 336/418/191 370/411/189 281/419/189
f 299/420/192 361/421/192 371/422/192 295/423/192
f 369/424/193 270/422/193 271/421/193 363/425/193
f 285/426/194 269/424/194 273/425/194 284/427/194
f 359/428/195 288/429/195 282/430/195 365/431/195
f 357/432/196 267/428/196 275/431/196 367/433/196
f 268/432/197 276/433/197 298/434/197 302/435/197
f 353/436/198 355/437/198 309/438/198
f 306/439/177 307/440/177 255/441/177 308/442/177
s 0
f 293/443/199 257/327/199 326/444/199 291/445/199 292/446/199
o Jupajub_cell.004
v -0.000904 1.291044 0.003412
v -0.017047 1.310417 -0.011760
v -0.398988 1.962329 0.549160
v -0.414483 2.138866 -0.134675
v -0.414483 2.138866 0.134675
v -0.256164 2.138866 0.352583
v 0.000002 2.138866 0.435815
v -0.561105 1.962329 0.326024
v -0.578006 2.013947 0.187805
v -0.467569 1.989792 -0.393604
v -0.541354 2.041946 -0.175897
v -0.481652 1.791383 0.636340
v -0.478100 1.786614 0.646835
v -0.469278 1.797729 0.645910
v -0.281568 1.962329 0.587312
v 0.055310 2.138866 0.417844
v 0.096537 2.144125 0.388263
v 0.000002 2.125550 0.454143
v 0.000002 2.190631 0.276502
v -0.106665 2.221509 0.146813
v -0.175368 2.220560 0.056982
v -0.280725 2.184564 -0.091215
v -0.360491 2.138866 -0.208989
v -0.467569 1.989792 -0.393604
v -0.541354 2.041946 -0.175897
v -0.360491 2.138866 -0.208989
v -0.561105 1.962329 0.326024
v -0.578006 2.013947 0.187805
v -0.481652 1.791383 0.636340
v 0.055310 2.138866 0.417844
v 0.000002 2.125550 0.454143
v -0.281568 1.962329 0.587312
v -0.469278 1.797729 0.645910
v -0.478100 1.786614 0.646835
v 0.096537 2.144125 0.388263
v -0.175368 2.220560 0.056982
v -0.280725 2.184564 -0.091215
v -0.106665 2.221509 0.146813
v 0.000002 2.190631 0.276502
vn 0.5689 -0.3913 0.7233
vn 0.7803 0.1810 -0.5987
vn 0.7796 0.1799 -0.5998
vn -0.7491 -0.6608 -0.0467
vn -0.5290 0.7566 0.3844
vn -0.6656 0.5685 0.4836
vn -0.6114 0.5785 0.5399
vn -0.4244 0.6919 0.5841
vn -0.2085 0.7381 0.6417
vn -0.4911 0.7947 -0.3568
vn -0.5543 0.8089 -0.1959
vn -0.4547 0.8783 -0.1477
vn -0.4057 0.8651 -0.2948
vn -0.4547 0.8783 0.1477
vn -0.5445 0.8082 0.2242
vn -0.2810 0.8783 0.3868
vn -0.0721 0.8069 0.5863
vn -0.0000 0.8783 0.4780
vn 0.1097 0.9349 0.3375
vn -0.3120 0.9493 -0.0381
vn -0.2872 0.9508 0.1160
vn -0.1964 0.9509 0.2392
vn -0.0570 0.9495 0.3085
vn 0.0999 0.9463 0.3075
vn -0.7927 -0.5964 -0.1257
vt 0.895636 0.745316
vt 0.604999 0.338838
vt 0.418288 0.018089
vt 0.409940 0.000000
vt 1.000000 0.000000
vt 1.000000 0.851323
vt 0.955093 0.808437
vt 0.927324 0.568852
vt 0.928339 0.657487
vt 0.897633 0.767538
vt 0.851323 0.851323
vt 0.000000 0.000000
vt 0.697490 0.000000
vt 0.845626 0.262605
vt 0.891303 0.403504
vt 0.697490 0.697490
vt 1.000000 0.413808
vt 1.000000 1.000000
vt 0.590060 0.000000
vt 0.102758 0.803478
vt 0.072520 0.748587
vt 0.071676 0.746730
vt 0.073642 0.746894
vt 0.102758 0.764008
vt 0.578709 0.429252
vt 0.566275 0.412138
vt 0.599479 0.422503
vt 0.566578 0.596017
vt 0.553526 0.557507
vt 0.575968 0.550215
vt 0.585519 0.563360
vt 0.133986 0.837326
vt 0.133986 0.884971
vt 0.116842 0.892263
vt 0.111889 0.827928
vt 0.575968 0.502570
vt 0.547043 0.493172
vt 0.550033 0.468722
vt 0.603973 0.464024
vt 0.649286 0.446059
vt 0.649286 0.449301
vt 0.659069 0.452480
vt 0.599628 0.542527
vt 0.618265 0.516313
vt 0.630418 0.500423
vt 0.649286 0.477482
vt 0.659070 0.452480
vt 0.666362 0.457712
vt 0.586192 0.000000
vt 0.761723 0.424807
vt 0.643390 0.358927
vt 0.405113 0.149016
vt 0.309202 0.000000
s 0
usemtl lambert2SG
f 402/447/200 403/448/200 404/449/200 405/450/200 372/451/200 406/452/200 401/453/200
f 407/454/201 409/455/201 410/456/201 406/457/201 372/458/201 381/459/201 397/460/201 408/461/201
f 372/458/202 373/451/202 381/462/202
f 383/463/203 373/464/203 372/458/203 405/465/203
s 1
f 398/466/204 400/467/205 384/468/205 385/469/206 374/470/207
f 374/471/207 385/472/206 386/473/208
f 395/474/209 396/475/210 375/476/211 394/477/212
f 376/478/213 375/479/211 396/480/210 399/481/214
f 376/482/213 399/483/214 398/484/204 374/471/207 377/485/215
f 389/486/216 378/487/217 377/485/215 374/471/207 386/473/208
f 378/487/217 389/486/216 387/488/218
f 394/477/212 375/476/211 393/489/219
f 375/476/211 376/482/213 392/490/220 393/489/219
f 392/490/220 376/482/213 377/485/215 391/491/221
f 391/491/221 377/485/215 378/487/217 390/492/222
f 390/492/222 378/487/217 387/493/218 388/494/223
s 0
f 373/458/224 383/495/224 379/496/224 380/497/224 382/498/224 381/499/224
o Jupajub_cell.005
v 0.142822 -2.231679 -0.046407
v 0.088271 -2.231679 -0.121490
v 0.000002 -2.243498 0.000000
v 0.000002 -2.231679 -0.150171
v -0.088267 -2.231679 -0.121490
v -0.142822 -2.231679 -0.046407
v -0.142822 -2.231679 0.046407
v -0.088267 -2.231679 0.121490
v 0.000002 -2.231679 0.150171
v 0.088271 -2.231679 0.121490
v 0.142822 -2.231679 0.046407
v 0.088271 -0.348445 0.121490
v 0.000002 -0.329201 0.150171
v 0.142822 -0.375000 0.046407
v -0.043978 -0.326943 0.135881
v 0.142822 -0.398730 -0.046407
v 0.088271 -0.410643 -0.121490
v 0.044299 -0.408400 -0.135778
v -0.142822 -0.356988 0.046407
v -0.142822 -0.385576 -0.046407
v 0.000002 -0.413947 -0.150171
v -0.088267 -0.332489 0.121490
v -0.088267 -0.407332 -0.121490
v 0.088271 -0.348445 0.121490
v 0.088271 -0.348445 0.121490
v 0.000002 -0.329201 0.150171
v 0.000002 -0.329201 0.150171
v 0.142822 -0.375000 0.046407
v 0.142822 -0.375000 0.046407
v -0.043978 -0.326943 0.135881
v 0.142822 -0.398730 -0.046407
v 0.142822 -0.398730 -0.046407
v 0.088271 -0.410643 -0.121490
v 0.088271 -0.410643 -0.121490
v 0.044299 -0.408400 -0.135778
v -0.142822 -0.356988 0.046407
v -0.142822 -0.356988 0.046407
v -0.088267 -0.332489 0.121490
v -0.088267 -0.332489 0.121490
v 0.000002 -0.413947 -0.150171
v 0.000002 -0.413947 -0.150171
v -0.088267 -0.407332 -0.121490
v -0.088267 -0.407332 -0.121490
v -0.142822 -0.385576 -0.046407
v -0.142822 -0.385576 -0.046407
v 0.142822 -2.231679 -0.046407
v 0.142822 -2.231679 -0.046407
v 0.088271 -2.231679 -0.121490
v 0.088271 -2.231679 -0.121490
v 0.000002 -2.231679 -0.150171
v 0.000002 -2.231679 -0.150171
v -0.088267 -2.231679 -0.121490
v -0.088267 -2.231679 -0.121490
v -0.142822 -2.231679 -0.046407
v -0.142822 -2.231679 -0.046407
v -0.142822 -2.231679 0.046407
v -0.142822 -2.231679 0.046407
v -0.088267 -2.231679 0.121490
v -0.088267 -2.231679 0.121490
v 0.000002 -2.231679 0.150171
v 0.000002 -2.231679 0.150171
v 0.088271 -2.231679 0.121490
v 0.088271 -2.231679 0.121490
v 0.142822 -2.231679 0.046407
v 0.142822 -2.231679 0.046407
vn -0.0240 0.9554 -0.2943
vn 0.0461 -0.9969 -0.0635
vn 0.0746 -0.9969 -0.0242
vn -0.0000 -1.0000 -0.0000
vn -0.0000 -0.9969 -0.0785
vn -0.0461 -0.9969 -0.0635
vn -0.0746 -0.9969 -0.0242
vn -0.0746 -0.9969 0.0242
vn -0.0461 -0.9969 0.0635
vn -0.0000 -0.9969 0.0785
vn 0.0461 -0.9969 0.0635
vn 0.0746 -0.9969 0.0242
vn 0.8090 -0.0000 -0.5878
vn 0.3090 -0.0000 -0.9511
vn -0.3090 -0.0000 -0.9511
vn -0.8090 -0.0000 -0.5878
vn -1.0000 -0.0000 -0.0000
vn -0.8090 -0.0000 0.5878
vn -0.3090 -0.0000 0.9511
vn 0.3090 -0.0000 0.9511
vn 0.8090 -0.0000 0.5878
vn 1.0000 -0.0000 -0.0000
vn 0.1292 0.9606 -0.2459
vt 0.975627 0.937768
vt 0.948870 0.948870
vt 0.739155 0.739155
vt 0.765916 0.728050
vt 0.849111 0.750203
vt 0.930395 0.808170
vt 0.978722 0.879817
vt 0.536150 0.686757
vt 0.545799 0.700039
vt 0.520535 0.708248
vt 0.520535 0.681684
vt 0.504922 0.686757
vt 0.495272 0.700039
vt 0.495272 0.716457
vt 0.504922 0.729739
vt 0.520535 0.734812
vt 0.536150 0.729739
vt 0.545799 0.716457
vt 0.031691 0.326212
vt 0.031691 0.001983
vt 0.044973 0.001983
vt 0.044973 0.324105
vt 0.076309 0.133550
vt 0.084088 0.133946
vt 0.084088 0.456068
vt 0.068473 0.456068
vt 0.068473 0.134531
vt 0.052860 0.456068
vt 0.052860 0.133361
vt 0.068473 0.134531
vt 0.091839 0.001983
vt 0.105121 0.001983
vt 0.105121 0.328539
vt 0.091839 0.324690
vt 0.121538 0.001983
vt 0.121538 0.333596
vt 0.105121 0.328539
vt 0.134820 0.001983
vt 0.134820 0.337929
vt 0.142512 0.337929
vt 0.142512 0.001983
vt 0.158125 0.001983
vt 0.158125 0.338511
vt 0.150346 0.338910
vt 0.173739 0.001983
vt 0.173739 0.335107
vt 0.001992 0.335107
vt 0.001992 0.001983
vt 0.015274 0.001983
vt 0.015274 0.330409
vt 0.015274 0.330409
vt 0.031691 0.326212
vt 0.901369 0.811881
vt 0.814223 0.808106
vt 0.929200 0.750169
vt 1.000000 0.739155
vt 1.000000 0.948870
vt 0.972336 0.940851
vt 0.888698 0.861135
s 0
usemtl lambert2SG
f 448/500/225 425/501/225 428/502/225 450/503/225 452/504/225 454/505/225 446/506/225
s 1
f 458/507/226 456/508/227 413/509/228
f 460/510/229 458/507/226 413/509/228
f 462/511/230 460/510/229 413/509/228
f 464/512/231 462/511/230 413/509/228
f 466/513/232 464/512/231 413/509/228
f 468/514/233 466/513/232 413/509/228
f 470/515/234 468/514/233 413/509/228
f 472/516/235 470/515/234 413/509/228
f 474/517/236 472/516/235 413/509/228
f 456/508/227 474/517/236 413/509/228
f 442/518/237 457/519/237 459/520/237 443/521/237
f 445/522/238 444/523/238 412/524/238 461/525/238 451/526/238
f 414/525/239 463/527/239 453/528/239 431/529/239
f 415/530/240 465/531/240 455/532/240 433/533/240
f 416/531/241 467/534/241 447/535/241 430/536/241
f 417/534/242 469/537/242 449/538/242 429/535/242
f 432/539/243 418/540/243 471/541/243 437/542/243 440/543/243
f 436/542/244 419/541/244 473/544/244 434/545/244
f 435/546/245 420/547/245 475/548/245 438/549/245
f 439/550/246 421/548/246 411/519/246 441/551/246
s 0
f 424/552/247 426/553/247 427/554/247 428/555/247 425/556/247 423/557/247 422/558/247
o Jupajub_cell.006
v 0.001203 1.293611 0.003798
v -0.023074 1.320289 -0.021116
v 0.117110 1.313989 0.038201
v -0.262259 1.643721 -0.307041
v 0.645578 1.962329 -0.209759
v 0.398992 1.962329 -0.549160
v -0.398988 1.962329 -0.549160
v 0.645578 1.962329 0.209759
v 0.414486 2.138866 -0.134675
v 0.256167 2.138866 -0.352583
v 0.000002 2.138866 -0.435815
v -0.256164 2.138866 -0.352583
v 0.256167 2.138866 0.352583
v 0.414486 2.138866 0.134675
v 0.142822 2.231679 -0.046407
v 0.088271 2.231679 -0.121490
v 0.000002 2.231679 -0.150171
v -0.088267 2.231679 -0.121490
v -0.142822 2.231679 -0.046407
v -0.142822 2.231679 0.046407
v -0.088267 2.231679 0.121490
v 0.000002 2.231679 0.150171
v 0.088271 2.231679 0.121490
v 0.142822 2.231679 0.046407
v 0.000002 2.243498 0.000000
v 0.210070 1.915822 -0.644333
v 0.410656 1.935016 -0.565215
v 0.198213 1.918627 -0.646148
v 0.038391 1.962329 -0.666326
v -0.100406 1.962329 -0.646175
v -0.406266 1.930319 -0.570052
v 0.000002 1.969952 -0.668306
v 0.745424 1.813713 -0.247042
v 0.098828 2.144095 0.387611
v 0.000002 2.191708 0.273188
v -0.105386 2.222215 0.145053
v -0.173272 2.221276 0.056301
v -0.277404 2.185699 -0.090135
v -0.359165 2.138866 -0.210814
v -0.466892 1.988725 -0.396913
v 0.578312 1.889733 0.387687
v 0.599563 1.868583 0.383299
v 0.132089 2.138866 0.392898
v 0.505773 1.962329 0.402187
v 0.296931 2.088480 0.408688
v -0.466764 1.970234 -0.438267
v -0.466609 1.962329 -0.456087
v -0.410941 1.934339 -0.565612
v 0.664073 1.892874 0.265951
v 0.687420 1.901773 0.223355
v 0.746588 1.816147 -0.242580
v -0.466609 1.962329 -0.456087
v -0.410941 1.934339 -0.565612
v 0.210070 1.915822 -0.644333
v 0.410656 1.935016 -0.565215
v 0.198213 1.918627 -0.646148
v 0.038391 1.962329 -0.666326
v 0.000002 1.969952 -0.668306
v -0.100406 1.962329 -0.646175
v -0.406266 1.930319 -0.570052
v -0.466892 1.988725 -0.396913
v -0.359165 2.138866 -0.210814
v 0.745424 1.813713 -0.247042
v 0.098828 2.144095 0.387611
v 0.000002 2.191708 0.273188
v -0.105386 2.222215 0.145053
v -0.173272 2.221276 0.056301
v -0.277404 2.185699 -0.090135
v 0.578312 1.889733 0.387687
v 0.599563 1.868583 0.383299
v 0.132089 2.138866 0.392898
v 0.505773 1.962329 0.402187
v 0.296931 2.088480 0.408688
v -0.466764 1.970234 -0.438267
v 0.746588 1.816147 -0.242580
v 0.687420 1.901773 0.223355
v 0.664073 1.892874 0.265951
vn 0.3089 -0.7339 -0.6050
vn -0.0607 -0.7102 -0.7014
vn -0.7804 -0.1807 0.5986
vn -0.8102 -0.2364 0.5363
vn -0.1992 -0.3869 0.9003
vn -0.2034 -0.3832 0.9010
vn -0.8645 -0.4599 0.2030
vn -0.8645 -0.4621 0.1975
vn -0.7640 -0.6006 -0.2358
vn 0.6659 -0.7141 0.2158
vn 0.6652 -0.7142 0.2178
vn 0.7465 0.5864 -0.3144
vn 0.6656 0.5685 -0.4836
vn 0.4891 0.5877 -0.6445
vn 0.4244 0.6919 -0.5841
vn 0.6866 0.6919 -0.2231
vn 0.2542 0.5685 -0.7824
vn 0.1953 0.7748 -0.6012
vn -0.4097 0.5859 -0.6992
vn -0.4244 0.6919 -0.5841
vn -0.1906 0.7872 -0.5865
vn -0.2542 0.5685 -0.7824
vn -0.5112 0.7751 -0.3714
vn 0.7694 0.5878 0.2501
vn 0.6866 0.6919 0.2231
vn 0.5536 0.7292 0.4022
vn 0.6656 0.5685 0.4836
vn 0.4547 0.8783 -0.1477
vn 0.2810 0.8783 -0.3867
vn 0.0126 0.8090 -0.5877
vn -0.0000 0.8783 -0.4780
vn -0.2810 0.8783 -0.3868
vn -0.4911 0.7947 -0.3568
vn -0.3563 0.8978 -0.2588
vn 0.4181 0.8056 0.4197
vn 0.2810 0.8783 0.3868
vn 0.1146 0.9286 0.3528
vn 0.4547 0.8783 0.1477
vn 0.2068 0.9761 -0.0672
vn 0.1278 0.9761 -0.1759
vn -0.0000 0.9761 -0.2175
vn -0.1278 0.9761 -0.1759
vn -0.2748 0.9493 -0.1525
vn -0.2068 0.9761 -0.0672
vn -0.3004 0.9508 0.0752
vn -0.2068 0.9761 0.0672
vn -0.1670 0.9509 0.2606
vn -0.1278 0.9761 0.1759
vn 0.0569 0.9495 0.3085
vn -0.0000 0.9761 0.2175
vn 0.1278 0.9761 0.1759
vn 0.0999 0.9463 0.3075
vn 0.2068 0.9761 0.0672
vn -0.0000 1.0000 -0.0000
vn -0.1024 -0.7002 -0.7066
vt 0.000000 0.000000
vt 1.000000 0.000000
vt 1.000000 0.622353
vt 0.724680 0.366080
vt 0.320542 0.000000
vt 1.000000 0.614882
vt 0.622353 0.622353
vt 1.000000 0.302949
vt 1.000000 1.000000
vt 0.149517 0.149517
vt 0.234705 0.101830
vt 0.342854 0.071245
vt 0.430101 0.072137
vt 0.593075 0.107643
vt 0.737174 0.154421
vt 0.312851 0.000000
vt 0.566154 0.000000
vt 1.000000 0.403854
vt 1.000000 0.149517
vt 0.403854 0.403854
vt 0.498631 0.331262
vt 0.760353 0.205122
vt 0.960317 0.154744
vt 0.497157 0.000000
vt 0.312851 0.312851
vt 0.497157 0.497157
vt 1.000000 0.513235
vt 1.000000 0.559222
vt 0.513235 0.513235
vt 0.971267 0.553016
vt 1.000000 0.679458
vt 0.993803 0.674516
vt 0.448497 0.065003
vt 0.408758 0.000000
vt 0.408758 0.408758
vt 1.000000 0.433846
vt 0.100911 0.549515
vt 0.100481 0.548726
vt 0.121938 0.492445
vt 0.126769 0.495285
vt 0.126769 0.555321
vt 0.684347 0.640689
vt 0.656077 0.644259
vt 0.719863 0.623533
vt 0.721926 0.626373
vt 0.686445 0.640369
vt 0.576595 0.626443
vt 0.578709 0.623533
vt 0.631525 0.640694
vt 0.577422 0.627228
vt 0.102758 0.941826
vt 0.102758 0.958289
vt 0.097807 0.961199
vt 0.116057 0.631935
vt 0.126769 0.629530
vt 0.126769 0.663568
vt 0.113928 0.661003
vt 0.110187 0.660227
vt 0.114483 0.639470
vt 0.100911 0.549515
vt 0.722604 0.550215
vt 0.763482 0.563497
vt 0.694599 0.588761
vt 0.649286 0.644609
vt 0.649286 0.603484
vt 0.656077 0.644259
vt 0.631525 0.640694
vt 0.603973 0.588761
vt 0.649286 0.644609
vt 0.566720 0.603917
vt 0.566867 0.596225
vt 0.585753 0.563683
vt 0.566748 0.607070
vt 0.701810 0.454100
vt 0.694599 0.464024
vt 0.672651 0.456893
vt 0.738752 0.455250
vt 0.763482 0.489288
vt 0.722604 0.502570
vt 0.157997 0.616248
vt 0.157997 0.568603
vt 0.674550 0.534601
vt 0.664900 0.547883
vt 0.649286 0.552956
vt 0.633672 0.547883
vt 0.600216 0.542336
vt 0.624022 0.534601
vt 0.618636 0.516434
vt 0.624022 0.518184
vt 0.630644 0.500734
vt 0.633672 0.504902
vt 0.649286 0.478068
vt 0.649286 0.499829
vt 0.672651 0.456893
vt 0.664900 0.504902
vt 0.649286 0.478068
vt 0.666767 0.457827
vt 0.674550 0.518184
vt 0.649286 0.526393
vt 0.440778 0.000000
vt 0.490301 0.347858
vt 0.502120 0.460486
vt 0.987247 0.496770
vt 0.614882 0.614882
s 0
usemtl lambert2SG
f 478/559/248 476/560/248 529/561/248 530/562/248 538/563/248
f 477/560/249 531/564/249 529/565/249 476/559/249
f 536/566/250 476/567/250 539/568/250 540/569/250 541/570/250 542/571/250 543/572/250 537/573/250
f 536/574/251 477/560/251 476/567/251
f 476/567/252 478/559/252 545/575/252 544/576/252
f 539/577/253 476/567/253 544/578/253 547/579/253 548/580/253 546/581/253
f 549/582/254 479/560/254 477/567/254 536/583/254
f 549/584/255 527/585/255 479/567/255
f 535/586/256 479/567/256 527/587/256 528/588/256
f 478/560/257 538/589/257 550/590/257 551/591/257 552/592/257
f 478/567/258 552/593/258 545/594/258
s 1
f 526/595/259 508/596/260 502/597/261 481/598/262 480/599/263
f 503/600/264 532/601/265 481/602/262 502/603/261 501/604/264
f 523/605/266 482/606/267 534/607/268 506/608/269
f 522/609/270 482/610/267 523/611/266
f 525/612/271 483/613/272 519/614/273 516/615/274 517/616/274 524/617/274
f 526/618/259 480/599/263 483/613/272 525/612/271
f 484/619/275 480/620/263 481/602/262 485/621/276
f 533/622/277 486/623/278 485/621/276 481/602/262 532/624/265
f 534/625/268 482/606/267 487/626/279 486/623/278 533/627/277
f 521/628/280 515/629/280 514/630/281 487/626/279 482/606/267 522/631/270
f 520/632/282 488/633/283 518/634/284
f 519/635/273 483/636/272 489/637/285 488/633/283 520/632/282
f 489/638/285 483/613/272 480/599/263 484/639/275
f 490/640/286 484/619/275 485/621/276 491/641/287
f 491/641/287 485/621/276 486/623/278 492/642/288
f 492/642/288 486/623/278 487/626/279 493/643/289
f 513/644/290 494/645/291 493/643/289 487/626/279 514/630/281
f 512/646/292 495/647/293 494/645/291 513/644/290
f 511/648/294 496/649/295 495/647/293 512/646/292
f 510/650/296 497/651/297 496/649/295 511/648/294
f 518/652/284 488/633/283 498/653/298 497/651/297 510/654/296 509/655/299
f 498/653/298 488/633/283 489/637/285 499/656/300
f 499/656/300 489/637/285 484/619/275 490/640/286
f 491/641/287 500/657/301 490/640/286
f 492/642/288 500/657/301 491/641/287
f 493/643/289 500/657/301 492/642/288
f 493/643/289 494/645/291 500/657/301
f 494/645/291 495/647/293 500/657/301
f 495/647/293 496/649/295 500/657/301
f 496/649/295 497/651/297 500/657/301
f 500/657/301 497/651/297 498/653/298
f 500/657/301 498/653/298 499/656/300
f 500/657/301 499/656/300 490/640/286
s 0
f 479/559/302 535/658/302 505/659/302 507/660/302 504/661/302 531/662/302 477/559/302
o Jupajub_cell.007
v 0.088271 0.335380 0.121490
v 0.118753 1.311623 0.038696
v 0.004619 1.102275 0.099017
v 0.003070 1.098402 0.103723
v 0.000002 0.428193 0.435815
v 0.256167 0.428193 0.352583
v 0.414486 0.428193 0.134675
v 0.000002 0.604730 0.678799
v 0.398992 0.604730 0.549160
v 0.645578 0.604730 0.209759
v 0.502756 0.847711 0.691984
v 0.813473 0.847711 0.264314
v 0.557311 1.133358 0.767068
v 0.901744 1.133358 0.292995
v 0.813473 1.719344 0.264314
v 0.901744 1.246177 0.292995
v 0.557311 1.246177 0.767068
v 0.879677 1.392671 0.285823
v 0.543673 1.392671 0.748298
v 0.598267 1.400029 0.823438
v 0.613271 1.321447 0.844094
v 0.968009 1.400029 0.314524
v 0.992292 1.321447 0.322416
v 0.992292 1.238819 0.322416
v 0.613271 1.238819 0.844094
v -0.019002 0.604730 0.672624
v -0.015107 0.710426 0.750683
v -0.025032 0.428193 0.427681
v 0.386351 1.238819 0.917825
v 0.434155 1.321447 0.902292
v 0.294701 1.133358 0.852396
v 0.359971 1.246177 0.831188
v 0.471403 1.400029 0.864658
v 0.437258 1.392671 0.782874
v 0.522690 1.560192 0.719420
v 0.585650 1.768499 0.520104
v 0.578295 1.719344 0.588012
v 0.000002 0.725136 0.766280
v 0.099575 0.847711 0.822984
v 0.594706 1.828324 0.437311
v 0.600785 1.866491 0.384076
v -0.026721 0.342603 0.163720
v 0.014756 0.336058 0.147463
v 0.000002 0.336423 0.153380
v 0.088271 0.287154 0.121490
v 0.091673 0.335380 0.116807
v 0.043486 0.335380 0.136042
v 0.209678 0.358221 0.068130
v 0.414486 0.428193 -0.018446
v 0.645578 0.604730 -0.122833
v 0.813477 0.847711 -0.206558
v 0.879677 1.392671 -0.270501
v 0.822013 1.677221 -0.267087
v 0.812199 1.719344 -0.266072
v 0.968009 1.400029 -0.306253
v 0.992292 1.238819 -0.304840
v 0.992292 1.321447 -0.310530
v 0.901744 1.133358 -0.261448
v 0.901744 1.246177 -0.269217
v 0.688595 1.900073 0.223737
v 0.747965 1.814154 -0.243027
v -0.019002 0.604730 0.672624
v -0.015107 0.710426 0.750683
v -0.025032 0.428193 0.427681
v 0.386351 1.238819 0.917825
v 0.386351 1.238819 0.917825
v 0.434155 1.321447 0.902292
v 0.471403 1.400029 0.864658
v 0.471403 1.400029 0.864658
v 0.437258 1.392671 0.782874
v 0.437258 1.392671 0.782874
v 0.522690 1.560192 0.719420
v 0.578295 1.719344 0.588012
v 0.585650 1.768499 0.520104
v 0.000002 0.725136 0.766280
v 0.099575 0.847711 0.822984
v 0.294701 1.133358 0.852396
v 0.359971 1.246177 0.831188
v 0.359971 1.246177 0.831188
v 0.594706 1.828324 0.437311
v 0.600785 1.866491 0.384076
v 0.014756 0.336058 0.147463
v 0.000002 0.336423 0.153380
v -0.026721 0.342603 0.163720
v 0.088271 0.287154 0.121490
v 0.088271 0.287154 0.121490
v 0.043486 0.335380 0.136042
v 0.043486 0.335380 0.136042
v 0.209678 0.358221 0.068130
v 0.414486 0.428193 -0.018446
v 0.091673 0.335380 0.116807
v 0.091673 0.335380 0.116807
v 0.747965 1.814154 -0.243027
v 0.812199 1.719344 -0.266072
v 0.992292 1.238819 -0.304840
v 0.992292 1.238819 -0.304840
v 0.901744 1.246177 -0.269217
v 0.901744 1.246177 -0.269217
v 0.901744 1.133358 -0.261448
v 0.813477 0.847711 -0.206558
v 0.645578 0.604730 -0.122833
v 0.822013 1.677221 -0.267087
v 0.879677 1.392671 -0.270501
v 0.879677 1.392671 -0.270501
v 0.968009 1.400029 -0.306253
v 0.968009 1.400029 -0.306253
v 0.992292 1.321447 -0.310530
v 0.688595 1.900073 0.223737
v 0.088271 0.335380 0.121490
v 0.088271 0.335380 0.121490
v 0.557311 1.246177 0.767068
v 0.557311 1.246177 0.767068
v 0.901744 1.246177 0.292995
v 0.901744 1.246177 0.292995
v 0.598267 1.400029 0.823438
v 0.598267 1.400029 0.823438
v 0.968009 1.400029 0.314524
v 0.968009 1.400029 0.314524
v 0.992292 1.238819 0.322416
v 0.992292 1.238819 0.322416
v 0.613271 1.238819 0.844094
v 0.613271 1.238819 0.844094
v 0.879677 1.392671 0.285823
v 0.879677 1.392671 0.285823
v 0.543673 1.392671 0.748298
v 0.543673 1.392671 0.748298
vn -0.9992 0.0395 -0.0050
vn -0.8041 0.5195 0.2890
vn -0.8041 0.5202 0.2879
vn -0.8043 0.5226 0.2829
vn -0.8534 0.5038 0.1336
vn -0.9530 0.0135 -0.3026
vn -0.3728 -0.0635 -0.9257
vn -0.6666 0.7134 -0.2160
vn -0.0000 -0.8783 0.4780
vn -0.1375 -0.8956 0.4232
vn -0.0999 -0.9463 0.3075
vn 0.0253 -0.9508 0.3089
vn 0.1816 -0.9511 0.2500
vn 0.2810 -0.8783 0.3867
vn 0.0999 -0.9463 0.3075
vn 0.2759 -0.9495 0.1492
vn 0.4547 -0.8783 0.1477
vn 0.2616 -0.9463 0.1900
vn 0.5045 -0.8634 -0.0000
vn -0.0000 -0.6919 0.7220
vn -0.2185 -0.7072 0.6724
vn 0.4244 -0.6919 0.5841
vn 0.6866 -0.6919 0.2231
vn 0.7454 -0.6666 -0.0000
vn 0.1535 -0.5808 0.7994
vn -0.2542 -0.5685 0.7824
vn 0.5273 -0.4420 0.7257
vn 0.2708 -0.4816 0.8335
vn 0.8531 -0.4420 0.2772
vn 0.9093 -0.4160 -0.0000
vn 0.5810 -0.1519 0.7996
vn 0.3027 -0.2006 0.9317
vn 0.9400 -0.1519 0.3054
vn 0.9906 -0.1369 -0.0000
vn 0.5878 -0.0000 0.8090
vn 0.3090 -0.0000 0.9511
vn 0.9511 -0.0000 0.3090
vn 1.0000 -0.0000 -0.0000
vn 0.5810 0.1519 0.7996
vn 0.5590 0.3090 0.7694
vn 0.2952 0.2952 0.9087
vn 0.3075 0.0989 0.9464
vn 0.9045 0.3090 0.2939
vn 0.9400 0.1519 0.3054
vn 0.9554 0.2952 -0.0000
vn 0.9887 0.1501 -0.0000
vn 0.8749 0.3922 0.2840
vn 0.7705 0.5865 0.2496
vn 0.6656 0.5685 0.4836
vn 0.7722 0.2984 0.5610
vn 0.9262 0.3770 -0.0004
vn 0.8245 0.5658 -0.0007
vn 0.9300 0.2094 0.3022
vn 0.9797 0.2004 -0.0001
vn 0.7192 0.2046 0.6641
vn 0.5749 0.2084 0.7913
vn 0.3029 0.1986 0.9321
vn -0.0257 0.9965 -0.0789
vn -0.0672 0.9965 -0.0488
vn -0.0830 0.9965 -0.0000
vn -0.0810 -0.9967 -0.0000
vn -0.0655 -0.9967 -0.0476
vn -0.0250 -0.9967 -0.0770
vn 0.8090 -0.0000 0.5878
vn -0.3707 -0.0624 -0.9267
vt 0.653468 0.653468
vt 0.000000 0.000000
vt 0.538900 0.000000
vt 0.642977 0.285733
vt 0.675805 0.561331
vt 0.571982 0.485646
vt 0.537828 0.422022
vt 0.572220 0.365204
vt 0.493275 0.241914
vt 0.444282 0.072446
vt 0.439141 0.000000
vt 1.000000 0.000000
vt 1.000000 0.653468
vt 0.985327 0.658219
vt 0.889851 0.643898
vt 0.704918 0.534931
vt 0.643880 0.467740
vt 0.616686 0.534856
vt 1.000000 0.389349
vt 1.000000 1.000000
vt 0.439141 0.439141
vt 0.389349 0.389349
vt 0.435016 0.000000
vt 1.000000 0.461100
vt 0.838889 0.583170
vt 0.540670 0.540670
vt 1.000000 0.604288
vt 1.000000 0.319389
vt 1.000000 0.564984
vt 0.454524 0.382919
vt 0.883812 0.594451
vt 0.879384 0.593012
vt 0.879085 0.546319
vt 0.883812 0.544491
vt 0.899426 0.538850
vt 0.929125 0.579728
vt 0.886422 0.543444
vt 0.891504 0.541424
vt 0.920902 0.529411
vt 0.957131 0.541182
vt 0.900028 0.538022
vt 0.920902 0.529411
vt 0.957131 0.514097
vt 0.879384 0.593012
vt 0.883812 0.637432
vt 0.880450 0.636340
vt 0.954389 0.614500
vt 0.998008 0.554464
vt 0.195360 0.632851
vt 0.164132 0.619569
vt 0.164132 0.592484
vt 0.195360 0.574019
vt 0.883812 0.652907
vt 0.881139 0.650148
vt 0.883812 0.652907
vt 0.972744 0.639764
vt 0.901425 0.662937
vt 0.238341 0.718150
vt 0.195360 0.692887
vt 0.238341 0.642500
vt 0.238341 0.559208
vt 0.288683 0.816393
vt 0.288683 0.745074
vt 0.339210 0.735424
vt 0.339210 0.781877
vt 0.288868 0.731432
vt 0.288868 0.647574
vt 0.288868 0.549499
vt 0.359167 0.735424
vt 0.359167 0.770331
vt 0.308825 0.647574
vt 0.308825 0.731432
vt 0.308825 0.548125
vt 0.190259 0.735424
vt 0.204160 0.738078
vt 0.204160 0.760519
vt 0.190259 0.767108
vt 0.528955 0.580040
vt 0.528955 0.670061
vt 0.515055 0.673715
vt 0.515055 0.581436
vt 0.528955 0.470231
vt 0.515055 0.469474
vt 0.083788 0.639180
vt 0.115757 0.632002
vt 0.109817 0.660365
vt 0.103065 0.669781
vt 0.092483 0.684426
vt 0.083788 0.696438
vt 0.083788 0.545671
vt 0.100559 0.549436
vt 0.500439 0.581436
vt 0.500439 0.470481
vt 0.500439 0.673715
vt 0.175644 0.775564
vt 0.175644 0.735424
vt 0.190259 0.767108
vt 0.026003 0.642985
vt 0.026003 0.544577
vt 0.076337 0.545180
vt 0.055636 0.719683
vt 0.026003 0.724792
vt 0.083788 0.696439
vt 0.366641 0.669280
vt 0.366641 0.650456
vt 0.396274 0.654168
vt 0.807498 0.049660
vt 0.788674 0.043544
vt 0.794714 0.029077
vt 0.817155 0.036368
vt 0.866933 0.131466
vt 0.882558 0.126389
vt 0.866933 0.229875
vt 0.882558 0.236199
vt 0.532543 0.243574
vt 0.516525 0.238370
vt 0.516526 0.138920
vt 0.532543 0.132619
vt 0.455598 0.322228
vt 0.465498 0.335853
vt 0.420691 0.333570
vt 0.425358 0.348895
vt 0.173739 0.447537
vt 0.173739 0.456068
vt 0.165817 0.456068
vt 0.002820 0.456068
vt 0.001992 0.456068
vt 0.001992 0.447537
vt 0.416574 0.151946
vt 0.459902 0.151964
vt 0.638207 0.247613
vt 0.862018 0.429504
vt 0.492441 0.145173
vt 0.563508 0.392007
vt 0.593892 0.525322
vt 0.623520 0.553401
vt 0.600662 0.575009
vt 0.604288 0.604288
vt 0.319389 0.319389
vt 0.304453 0.248857
vt 0.313002 0.238235
vt 0.377465 0.175824
vt 0.305985 0.080150
vt 0.317291 0.053861
vt 0.349024 0.053874
s 0
usemtl lambert2SG
f 615/663/303 556/664/303 636/665/303 616/666/303 614/667/303
f 619/668/304 620/669/304 622/670/304 624/671/304 625/672/304 626/673/304 556/674/304 615/675/304 627/676/304 628/677/304 629/678/304 630/679/304 617/680/304
f 632/681/305 556/682/305 626/683/305
f 554/674/306 556/682/306 632/684/306 633/685/306
f 554/664/307 555/674/307 556/682/307
f 636/686/308 556/682/308 555/664/308
f 635/687/309 636/688/309 555/664/309 554/674/309 634/689/309
f 645/690/310 554/674/310 633/691/310 660/692/310
s 1
f 557/693/311 580/694/312 594/695/313 596/696/314
f 661/697/315 558/698/316 557/693/311 596/696/314 595/699/317 640/700/317
f 641/701/318 559/702/319 558/698/316 661/697/315 643/703/320
f 559/702/319 641/704/318 642/705/321
f 580/706/312 557/693/311 560/707/322 578/708/323
f 560/707/322 557/693/311 558/698/316 561/709/324
f 561/709/324 558/698/316 559/702/319 562/710/325
f 562/711/325 559/712/319 642/713/321 653/714/326
f 578/708/323 560/707/322 590/715/327 579/716/328
f 590/717/327 560/707/322 561/709/324 563/718/329 591/719/330
f 563/720/329 561/721/324 562/711/325 564/722/331
f 564/722/331 562/711/325 653/714/326 652/723/332
f 591/724/330 563/725/329 565/726/333 583/727/334
f 565/728/333 563/720/329 564/722/331 566/729/335
f 566/729/335 564/722/331 652/723/332 651/730/336
f 565/726/333 663/731/337 631/732/338 583/727/334
f 565/728/333 566/729/335 665/733/339 663/734/337
f 650/735/340 665/733/339 566/729/335 651/730/336
f 573/736/341 667/737/342 621/738/343 582/739/344
f 669/740/345 667/741/342 573/742/341 575/743/346
f 658/744/347 669/740/345 575/743/346 659/745/348
f 567/746/349 612/747/350 593/748/351 592/749/351 588/750/351 589/751/352
f 612/747/350 567/746/349 646/752/353 613/753/354
f 575/743/346 671/754/339 648/755/340 659/745/348
f 573/742/341 673/756/337 671/754/339 575/743/346
f 618/757/338 673/758/337 573/736/341 582/759/344
f 646/752/353 567/746/349 675/760/355 655/761/356 654/762/356
f 587/763/357 677/764/358 675/760/355 567/746/349 589/765/352
f 623/766/359 677/767/358 587/768/357
f 678/769/360 586/770/360 585/771/360 668/772/360
f 676/773/361 571/769/361 572/772/361 670/774/361
f 656/775/362 570/773/362 574/774/362 657/776/362
f 672/777/363 666/778/363 649/779/363 647/780/363
f 664/781/364 568/778/364 576/777/364 674/782/364
f 584/783/365 569/781/365 577/782/365 581/784/365
f 637/785/338 662/786/338 639/787/338
f 644/788/366 553/789/366 638/790/366
s 0
f 611/791/367 610/792/367 603/793/367 602/794/367 601/795/367 600/796/367 598/797/367 597/798/367 599/799/367 634/800/367 554/682/367 645/801/367 606/802/367 605/803/367 604/804/367 607/805/367 609/806/367 608/807/367
o Jupajub_cell.008
v 0.142822 0.335380 -0.046407
v 0.088271 0.335380 -0.121490
v 0.000002 0.335380 0.150171
v -0.002399 1.274223 0.009627
v 0.142822 0.335380 0.046407
v -0.019914 1.103418 0.064618
v 0.414486 0.428193 -0.134675
v 0.117150 1.311188 0.037608
v 0.256167 0.428193 -0.352583
v 0.004762 1.103981 0.096584
v 0.002402 1.097486 0.097508
v 0.001621 1.290880 0.002467
v 0.645578 0.604730 -0.209759
v 0.398992 0.604730 -0.549160
v 0.813477 0.847711 -0.264314
v 0.502756 0.847711 -0.691984
v 0.901744 1.133358 -0.292995
v 0.557311 1.133358 -0.767068
v 0.502756 1.719344 -0.691984
v 0.901744 1.246177 -0.292995
v 0.557311 1.246177 -0.767068
v 0.879677 1.392671 -0.285823
v 0.543673 1.392671 -0.748298
v 0.598267 1.400029 -0.823438
v 0.968009 1.400029 -0.314524
v 0.992292 1.321447 -0.322416
v 0.613271 1.321447 -0.844094
v 0.992292 1.238819 -0.322416
v 0.613271 1.238819 -0.844094
v -0.026812 0.342025 0.161910
v -0.034026 0.340238 0.154065
v 0.055557 -0.407265 -0.132120
v 0.044680 -0.406788 -0.135654
v -0.029605 -0.326188 0.140551
v -0.043566 -0.325575 0.136014
v 0.000002 -0.327723 0.150171
v 0.142822 -0.397151 -0.046407
v 0.088271 -0.408962 -0.121490
v 0.088271 -0.346946 0.121490
v 0.142822 -0.373464 0.046407
v 0.088271 0.262994 0.121490
v 0.093385 0.335380 0.114451
v 0.013996 0.335553 0.146156
v 0.021296 0.335380 0.143252
v 0.207383 0.357437 0.067384
v 0.414486 0.428193 -0.020242
v -0.043531 0.237783 0.136026
v -0.043411 0.335380 0.136065
v 0.044726 0.335380 -0.135639
v 0.128665 0.428193 -0.394010
v 0.200097 0.604730 -0.613785
v 0.211022 1.911858 -0.646904
v 0.252012 0.847711 -0.773454
v 0.272533 1.392671 -0.836395
v 0.252111 1.719344 -0.773422
v 0.279337 1.246177 -0.857388
v 0.307319 1.238819 -0.943504
v 0.307329 1.321447 -0.943501
v 0.279324 1.133358 -0.857392
v 0.299833 1.400029 -0.920404
v 0.645578 0.604730 -0.124792
v 0.813477 0.847711 -0.208706
v 0.879677 1.392671 -0.272842
v 0.830928 1.633229 -0.269984
v 0.746058 1.811813 -0.248403
v 0.810861 1.719344 -0.267915
v 0.968009 1.400029 -0.308661
v 0.992292 1.238819 -0.307223
v 0.992292 1.321447 -0.312935
v 0.901744 1.133358 -0.263737
v 0.901744 1.246177 -0.271536
v 0.254078 1.918249 -0.628271
v 0.411393 1.933289 -0.566229
v 0.055557 -0.407265 -0.132120
v 0.044680 -0.406788 -0.135654
v -0.029605 -0.326188 0.140551
v -0.043566 -0.325575 0.136014
v 0.000002 -0.327723 0.150171
v 0.000002 -0.327723 0.150171
v 0.088271 -0.408962 -0.121490
v 0.088271 -0.408962 -0.121490
v 0.142822 -0.397151 -0.046407
v 0.142822 -0.397151 -0.046407
v 0.013996 0.335553 0.146156
v 0.000002 0.335380 0.150171
v 0.000002 0.335380 0.150171
v 0.000002 0.335380 0.150171
v 0.000002 0.335380 0.150171
v -0.034026 0.340238 0.154065
v -0.043411 0.335380 0.136065
v -0.043411 0.335380 0.136065
v 0.088271 -0.346946 0.121490
v 0.088271 -0.346946 0.121490
v 0.142822 -0.373464 0.046407
v 0.142822 -0.373464 0.046407
v 0.088271 0.262994 0.121490
v 0.088271 0.262994 0.121490
v 0.021296 0.335380 0.143252
v 0.021296 0.335380 0.143252
v 0.093385 0.335380 0.114451
v 0.093385 0.335380 0.114451
v 0.207383 0.357437 0.067384
v 0.414486 0.428193 -0.020242
v -0.026812 0.342025 0.161910
v 0.254078 1.918249 -0.628271
v 0.211022 1.911858 -0.646904
v -0.043531 0.237783 0.136026
v 0.044726 0.335380 -0.135639
v 0.044726 0.335380 -0.135639
v 0.128665 0.428193 -0.394010
v 0.307319 1.238819 -0.943504
v 0.307319 1.238819 -0.943504
v 0.307329 1.321447 -0.943501
v 0.279337 1.246177 -0.857388
v 0.279337 1.246177 -0.857388
v 0.279324 1.133358 -0.857392
v 0.252012 0.847711 -0.773454
v 0.200097 0.604730 -0.613785
v 0.252111 1.719344 -0.773422
v 0.272533 1.392671 -0.836395
v 0.272533 1.392671 -0.836395
v 0.299833 1.400029 -0.920404
v 0.299833 1.400029 -0.920404
v 0.830928 1.633229 -0.269984
v 0.810861 1.719344 -0.267915
v 0.746058 1.811813 -0.248403
v 0.645578 0.604730 -0.124792
v 0.813477 0.847711 -0.208706
v 0.901744 1.133358 -0.263737
v 0.901744 1.246177 -0.271536
v 0.901744 1.246177 -0.271536
v 0.992292 1.238819 -0.307223
v 0.992292 1.238819 -0.307223
v 0.992292 1.321447 -0.312935
v 0.968009 1.400029 -0.308661
v 0.968009 1.400029 -0.308661
v 0.879677 1.392671 -0.272842
v 0.879677 1.392671 -0.272842
v 0.411393 1.933289 -0.566229
v 0.142822 0.335380 -0.046407
v 0.142822 0.335380 -0.046407
v 0.088271 0.335380 -0.121490
v 0.088271 0.335380 -0.121490
v 0.142822 0.335380 0.046407
v 0.142822 0.335380 0.046407
v 0.901744 1.246177 -0.292995
v 0.901744 1.246177 -0.292995
v 0.557311 1.246177 -0.767068
v 0.557311 1.246177 -0.767068
v 0.598267 1.400029 -0.823438
v 0.598267 1.400029 -0.823438
v 0.968009 1.400029 -0.314524
v 0.968009 1.400029 -0.314524
v 0.992292 1.238819 -0.322416
v 0.992292 1.238819 -0.322416
v 0.613271 1.238819 -0.844094
v 0.613271 1.238819 -0.844094
v 0.879677 1.392671 -0.285823
v 0.879677 1.392671 -0.285823
v 0.543673 1.392671 -0.748298
v 0.543673 1.392671 -0.748298
vn 0.1727 0.0770 0.9820
vn -0.7430 0.0853 0.6638
vn -0.1226 -0.9611 0.2475
vn -0.9511 0.0001 -0.3090
vn -0.3087 0.7336 0.6054
vn 0.3682 0.0638 0.9276
vn -0.3277 0.4188 0.8469
vn -0.6348 0.3302 0.6986
vn -0.7753 0.2642 0.5737
vn -0.8455 0.0776 0.5283
vn -0.9540 0.0013 -0.2998
vn 0.3704 0.0640 0.9267
vn -0.3260 0.7323 0.5979
vn -0.3312 0.4389 0.8352
vn -0.9737 0.1698 -0.1516
vn 0.4547 -0.8783 -0.1477
vn 0.2939 -0.9511 -0.0955
vn 0.1816 -0.9511 -0.2500
vn 0.2810 -0.8783 -0.3867
vn 0.1456 -0.8820 -0.4482
vn 0.0999 -0.9463 -0.3075
vn -0.0999 -0.9463 0.3075
vn 0.0999 -0.9463 0.3075
vn 0.2616 -0.9463 0.1900
vn 0.2939 -0.9511 0.0955
vn 0.3108 -0.9496 0.0421
vn 0.4382 -0.8989 -0.0000
vn 0.6866 -0.6919 -0.2231
vn 0.4244 -0.6919 -0.5841
vn 0.2237 -0.6900 -0.6883
vn 0.7023 -0.7119 -0.0000
vn 0.8531 -0.4419 -0.2772
vn 0.5273 -0.4420 -0.7257
vn 0.2780 -0.4369 -0.8555
vn 0.8898 -0.4564 -0.0000
vn 0.9400 -0.1519 -0.3054
vn 0.5810 -0.1519 -0.7996
vn 0.3056 -0.1493 -0.9404
vn 0.9870 -0.1608 -0.0000
vn 0.9511 -0.0000 -0.3090
vn 0.5878 -0.0000 -0.8090
vn 0.3090 -0.0000 -0.9511
vn 1.0000 -0.0000 -0.0000
vn 0.5590 0.3090 -0.7694
vn 0.9045 0.3090 -0.2939
vn 0.9400 0.1519 -0.3054
vn 0.5810 0.1519 -0.7996
vn 0.2952 0.2952 -0.9087
vn 0.3056 0.1493 -0.9404
vn 0.9554 0.2952 -0.0000
vn 0.9889 0.1485 -0.0000
vn 0.7509 0.3723 -0.5455
vn 0.5406 0.3925 -0.7441
vn 0.4612 0.5877 -0.6648
vn 0.6656 0.5685 -0.4836
vn 0.2843 0.3915 -0.8751
vn 0.2542 0.5685 -0.7824
vn 0.9801 0.1986 -0.0000
vn 0.9302 0.2084 -0.3022
vn 0.7985 0.1992 -0.5681
vn 0.5749 0.2084 -0.7913
vn 0.3029 0.1986 -0.9321
vn -0.0672 0.9965 0.0488
vn -0.0257 0.9965 0.0789
vn -0.0830 0.9965 -0.0000
vn -0.0810 -0.9967 -0.0000
vn -0.0250 -0.9967 0.0770
vn -0.0655 -0.9967 0.0476
vn 0.8090 -0.0000 -0.5878
vn -0.3090 -0.0000 0.9511
vn 0.3090 -0.0000 0.9511
vn 0.8090 -0.0000 0.5878
vn -0.1295 -0.9608 0.2452
vt 1.000000 0.000000
vt 0.541407 0.541407
vt 0.000000 0.000000
vt 0.539172 0.539172
vt 0.539642 0.000000
vt 1.000000 0.733483
vt 1.000000 0.941494
vt 0.051159 0.000000
vt 0.260793 0.000000
vt 0.892207 0.316271
vt 0.811666 0.286327
vt 0.809754 0.323453
vt 0.726278 0.390625
vt 0.572587 0.419553
vt 0.442950 0.065621
vt 0.546793 0.353397
vt 1.000000 0.739207
vt 1.000000 0.948840
vt 0.655984 0.655984
vt 0.625807 0.000000
vt 0.741050 0.103786
vt 0.794490 0.231411
vt 0.873307 0.255839
vt 0.893607 0.289079
vt 1.000000 0.381771
vt 1.000000 1.000000
vt 0.320320 0.320320
vt 0.781129 0.366505
vt 0.739217 0.584173
vt 0.604269 0.604269
vt 1.000000 0.541407
vt 0.544143 0.000000
vt 1.000000 0.460358
vt 0.544143 0.544143
vt 1.000000 0.655984
vt 0.305568 0.055269
vt 0.320320 0.000000
vt 1.000000 0.604269
vt 0.993485 0.596832
vt 0.927042 0.564724
vt 0.929303 0.522509
vt 0.829886 0.393722
vt 0.652161 0.144092
vt 0.861448 0.432432
vt 0.638039 0.390485
vt 0.459989 0.307849
vt 0.416694 0.264564
vt 0.349321 0.295041
vt 0.317611 0.263339
vt 0.306280 0.225774
vt 0.377583 0.201620
vt 0.323059 0.094437
vt 0.381771 0.381771
vt 0.378287 0.000000
vt 1.000000 0.374193
vt 0.957131 0.493537
vt 0.909076 0.509151
vt 0.899426 0.495869
vt 0.929125 0.454992
vt 0.906571 0.447663
vt 0.891723 0.493366
vt 0.878900 0.546025
vt 0.877793 0.544611
vt 0.876133 0.541428
vt 0.883812 0.544192
vt 0.883812 0.543923
vt 0.887579 0.542699
vt 0.886287 0.543211
vt 0.900331 0.537605
vt 0.909076 0.525568
vt 0.920496 0.529279
vt 0.957131 0.513779
vt 0.920496 0.529279
vt 0.998008 0.480255
vt 0.954389 0.420219
vt 0.919207 0.408787
vt 0.906571 0.447663
vt 0.164132 0.592166
vt 0.164132 0.571924
vt 0.195360 0.558642
vt 0.195360 0.573672
vt 0.238341 0.548992
vt 0.195360 0.498606
vt 0.238341 0.473342
vt 0.928390 0.380544
vt 0.972744 0.394955
vt 0.195360 0.573672
vt 0.238341 0.558828
vt 0.288868 0.543919
vt 0.288868 0.460060
vt 0.230681 0.784597
vt 0.230681 0.735424
vt 0.281209 0.745074
vt 0.281209 0.789428
vt 0.238341 0.558828
vt 0.288868 0.549094
vt 0.308825 0.543919
vt 0.308825 0.460060
vt 0.210725 0.735424
vt 0.230681 0.784597
vt 0.210725 0.784595
vt 0.308825 0.547715
vt 0.528955 0.378746
vt 0.528955 0.468768
vt 0.515055 0.467372
vt 0.515055 0.375092
vt 0.140563 0.790868
vt 0.140563 0.738078
vt 0.154463 0.735424
vt 0.154463 0.789542
vt 0.528955 0.469805
vt 0.515055 0.469049
vt 0.083788 0.545034
vt 0.083788 0.470021
vt 0.121632 0.492266
vt 0.100145 0.548485
vt 0.738218 0.648797
vt 0.693881 0.663203
vt 0.686635 0.640543
vt 0.694229 0.637527
vt 0.722057 0.626552
vt 0.500439 0.470059
vt 0.500439 0.467372
vt 0.154463 0.789542
vt 0.169078 0.735424
vt 0.169078 0.789544
vt 0.500439 0.375092
vt 0.026003 0.544163
vt 0.026003 0.541867
vt 0.068555 0.544668
vt 0.430956 0.729281
vt 0.430956 0.684944
vt 0.488741 0.677707
vt 0.488741 0.725668
vt 0.068555 0.544668
vt 0.026003 0.460060
vt 0.083788 0.545034
vt 0.807498 0.314391
vt 0.866933 0.232585
vt 0.882558 0.237662
vt 0.817155 0.327683
vt 0.764365 0.344835
vt 0.759536 0.329975
vt 0.882558 0.236625
vt 0.866933 0.230289
vt 0.516526 0.138510
vt 0.516526 0.134714
vt 0.532543 0.129510
vt 0.532543 0.132197
vt 0.411378 0.019646
vt 0.465498 0.037231
vt 0.455599 0.050856
vt 0.406428 0.034880
vt 0.044973 0.324402
vt 0.044973 0.456068
vt 0.031691 0.456068
vt 0.031691 0.326491
vt 0.078301 0.133349
vt 0.076377 0.133265
vt 0.076385 0.001983
vt 0.084088 0.001983
vt 0.084088 0.133649
vt 0.150425 0.438804
vt 0.150419 0.339152
vt 0.152888 0.339044
vt 0.158125 0.338772
vt 0.158125 0.456068
vt 0.150446 0.456068
vt 0.161892 0.456068
vt 0.173739 0.335372
vt 0.173739 0.443264
vt 0.001992 0.443264
vt 0.001992 0.335372
vt 0.015274 0.330681
vt 0.015274 0.456068
vt 0.003237 0.456068
vt 0.031691 0.326491
vt 0.015274 0.330681
vt 0.964770 0.798798
vt 0.892646 0.820866
vt 0.953513 0.870625
vt 0.996276 0.948812
vt 0.941494 0.941494
vt 0.733483 0.733483
vt 0.794014 0.741569
s 0
usemtl lambert2SG
f 689/808/368 782/809/368 688/810/368
f 782/811/369 689/810/369 767/812/369
f 752/813/370 754/814/370 755/815/370 753/816/370
f 789/817/371 792/818/371 794/819/371 795/820/371 796/821/371 788/822/371 786/823/371 753/824/371 755/825/371 785/826/371 682/810/371 784/827/371 797/828/371 798/829/371 800/830/371 791/831/371
f 783/832/372 686/833/372 804/834/372 817/835/372
f 763/836/373 762/837/373 686/810/373 688/808/373 782/838/373
f 686/810/374 682/808/374 688/833/374
f 682/810/375 689/808/375 688/833/375
f 682/810/376 684/808/376 689/833/376
f 768/839/377 767/840/377 689/833/377 684/810/377
f 768/841/378 684/810/378 682/808/378 785/842/378
f 803/843/379 804/844/379 686/808/379 762/845/379 776/846/379 774/847/379 778/848/379 780/849/379 781/850/379 805/851/379 806/852/379 807/853/379 808/854/379 810/855/379 812/856/379 813/857/379 815/858/379 802/859/379
f 783/860/380 784/861/380 690/808/380 686/833/380
f 690/810/381 682/808/381 686/833/381
f 690/810/382 784/862/382 682/833/382
s 1
f 685/863/383 818/864/384 820/865/385 687/866/386
f 728/867/387 687/866/386 820/865/385 787/868/388
f 708/869/389 709/870/389 769/871/389 764/872/389
f 765/873/390 777/874/390 721/875/390
f 779/876/391 822/877/392 723/878/393
f 818/864/384 685/863/383 724/879/394 723/880/393 822/877/392
f 691/881/395 685/863/383 687/866/386 692/882/396
f 729/883/397 692/882/396 687/866/386 728/884/387
f 724/885/394 685/886/383 691/887/395 739/888/398
f 693/889/399 691/887/395 692/890/396 694/891/400
f 731/892/401 694/893/400 692/882/396 729/883/397
f 739/894/398 691/887/395 693/889/399 740/895/402
f 695/896/403 693/889/399 694/891/400 696/897/404
f 737/898/405 696/899/404 694/900/400 731/901/401
f 740/902/402 693/889/399 695/896/403 748/903/406
f 824/904/407 695/896/403 696/897/404 826/905/408
f 826/906/408 696/899/404 737/907/405 793/908/409
f 695/896/403 824/904/407 809/909/410 748/903/406
f 828/910/411 830/911/412 704/912/413 705/913/414
f 801/914/415 828/915/411 705/916/414 736/917/416
f 830/911/412 814/918/417 747/919/418 704/912/413
f 744/920/419 697/921/420 751/922/421 743/923/422
f 697/924/420 733/925/423 730/926/424 750/927/424 751/928/421
f 811/929/410 832/930/407 704/912/413 747/919/418
f 736/931/416 705/916/414 834/932/408 790/933/409
f 704/912/413 832/930/407 834/934/408 705/913/414
f 816/935/425 836/936/426 742/937/427
f 733/938/423 697/939/420 838/940/428 799/941/429
f 742/942/427 836/936/426 838/943/428 697/921/420 744/944/419
f 839/945/430 837/946/430 831/947/430 829/948/430
f 701/945/431 702/948/431 738/949/431 732/950/431
f 745/951/432 703/947/432 700/946/432 741/952/432
f 749/953/433 825/954/433 833/955/433 746/956/433
f 735/957/434 835/958/434 827/959/434 734/960/434
f 698/954/435 699/959/435 707/958/435 706/955/435
f 759/961/436 821/962/436 819/963/436 760/964/436
f 710/965/409 711/966/409 727/967/409 680/968/409 758/969/409
f 725/970/437 713/971/437 712/972/437 756/973/437 766/974/437 726/975/437
f 722/976/438 681/974/438 757/973/438 770/977/438 775/978/438
f 719/979/439 771/980/439 773/981/439 823/982/439 720/983/439
f 761/984/410 679/963/410 683/982/410 772/985/410
s 0
f 715/986/440 718/987/440 717/988/440 714/989/440 754/990/440 752/991/440 716/992/440
o Jupajub_cell.009
v 0.000002 0.335380 -0.150171
v -0.088267 0.335380 -0.121490
v -0.142822 0.335380 -0.046407
v -0.000932 1.292432 0.000308
v -0.021299 1.103250 0.062795
v -0.002640 1.282410 0.006097
v -0.001735 1.287587 0.003561
v -0.260630 1.640007 -0.306880
v 0.000002 0.428193 -0.435815
v -0.112265 1.135742 -0.010425
v -0.256164 0.428193 -0.352583
v -0.019407 1.312880 -0.017534
v 0.000002 0.604730 -0.678799
v -0.398988 0.604730 -0.549160
v 0.000002 0.847711 -0.855336
v -0.502752 0.847711 -0.691984
v 0.000002 1.133358 -0.948150
v -0.557307 1.133358 -0.767068
v 0.000002 1.719344 -0.855336
v 0.000002 1.962329 -0.678799
v -0.557307 1.246177 -0.767068
v 0.000002 1.246177 -0.948150
v -0.543670 1.392671 -0.748298
v 0.000002 1.392671 -0.924945
v 0.000002 1.400029 -1.017825
v 0.000002 1.321447 -1.043358
v -0.598263 1.400029 -0.823438
v -0.613267 1.321447 -0.844094
v -0.613267 1.238819 -0.844094
v 0.000002 1.238819 -1.043358
v -0.073376 0.258753 0.126329
v -0.051669 0.335380 0.133382
v -0.045777 0.336172 0.137733
v -0.090203 -0.331492 0.118825
v 0.043258 -0.406403 -0.136116
v -0.045130 -0.325140 0.135507
v 0.007630 -0.410928 -0.147692
v -0.044993 0.219426 0.135551
v 0.043444 0.335380 -0.136056
v 0.145115 0.471523 -0.448305
v 0.127548 0.428193 -0.394373
v -0.088267 0.205570 0.121490
v -0.110333 0.316647 0.091121
v -0.142822 0.259907 0.046407
v -0.142822 0.335380 0.037333
v -0.323323 0.428193 -0.260147
v -0.207118 0.357347 -0.067298
v -0.142822 -0.355089 0.046407
v -0.142822 -0.383618 -0.046407
v 0.000002 -0.411884 -0.150171
v -0.088267 -0.405311 -0.121490
v 0.198914 0.604730 -0.614169
v 0.250502 1.719344 -0.773945
v 0.250692 0.847711 -0.773883
v 0.271010 1.392671 -0.836890
v 0.277854 1.246177 -0.857870
v 0.305808 1.238819 -0.943995
v 0.305790 1.321447 -0.944001
v 0.277879 1.133358 -0.857862
v 0.298277 1.400029 -0.920910
v 0.208861 1.913962 -0.646077
v -0.405740 1.928340 -0.571661
v -0.423026 1.889562 -0.594218
v -0.448852 0.604730 -0.480528
v -0.498444 1.719344 -0.693384
v -0.513722 1.631766 -0.707081
v -0.535385 0.847711 -0.647069
v -0.551258 1.392671 -0.737854
v -0.569879 1.246177 -0.749764
v -0.618812 1.321447 -0.836461
v -0.622169 1.238819 -0.831841
v -0.574463 1.133358 -0.743455
v -0.601679 1.400029 -0.818737
v -0.082774 1.962329 -0.651904
v -0.376627 1.931452 -0.578859
v 0.031837 1.962329 -0.668455
v 0.000002 1.968640 -0.670113
v -0.073376 0.258753 0.126329
v -0.051669 0.335380 0.133382
v -0.045777 0.336172 0.137733
v 0.043258 -0.406403 -0.136116
v 0.007630 -0.410928 -0.147692
v 0.043444 0.335380 -0.136056
v 0.043444 0.335380 -0.136056
v 0.127548 0.428193 -0.394373
v 0.145115 0.471523 -0.448305
v -0.045130 -0.325140 0.135507
v -0.044993 0.219426 0.135551
v -0.088267 0.205570 0.121490
v -0.088267 0.205570 0.121490
v -0.110333 0.316647 0.091121
v -0.142822 0.259907 0.046407
v -0.142822 0.259907 0.046407
v -0.142822 0.335380 0.037333
v -0.142822 0.335380 0.037333
v -0.090203 -0.331492 0.118825
v -0.090203 -0.331492 0.118825
v -0.323323 0.428193 -0.260147
v -0.207118 0.357347 -0.067298
v 0.000002 -0.411884 -0.150171
v 0.000002 -0.411884 -0.150171
v -0.088267 -0.405311 -0.121490
v -0.088267 -0.405311 -0.121490
v -0.142822 -0.355089 0.046407
v -0.142822 -0.355089 0.046407
v -0.142822 -0.383618 -0.046407
v -0.142822 -0.383618 -0.046407
v 0.277854 1.246177 -0.857870
v 0.277854 1.246177 -0.857870
v 0.277879 1.133358 -0.857862
v 0.305808 1.238819 -0.943995
v 0.305808 1.238819 -0.943995
v 0.305790 1.321447 -0.944001
v 0.298277 1.400029 -0.920910
v 0.298277 1.400029 -0.920910
v 0.271010 1.392671 -0.836890
v 0.271010 1.392671 -0.836890
v 0.250502 1.719344 -0.773945
v 0.198914 0.604730 -0.614169
v 0.250692 0.847711 -0.773883
v -0.405740 1.928340 -0.571661
v -0.423026 1.889562 -0.594218
v -0.618812 1.321447 -0.836461
v -0.601679 1.400029 -0.818737
v -0.601679 1.400029 -0.818737
v -0.622169 1.238819 -0.831841
v -0.622169 1.238819 -0.831841
v -0.569879 1.246177 -0.749764
v -0.569879 1.246177 -0.749764
v -0.574463 1.133358 -0.743455
v -0.535385 0.847711 -0.647069
v -0.448852 0.604730 -0.480528
v -0.498444 1.719344 -0.693384
v -0.513722 1.631766 -0.707081
v -0.551258 1.392671 -0.737854
v -0.551258 1.392671 -0.737854
v 0.031837 1.962329 -0.668455
v 0.000002 1.968640 -0.670113
v -0.082774 1.962329 -0.651904
v -0.376627 1.931452 -0.578859
v 0.208861 1.913962 -0.646077
v 0.000002 0.335380 -0.150171
v 0.000002 0.335380 -0.150171
v -0.088267 0.335380 -0.121490
v -0.088267 0.335380 -0.121490
v -0.142822 0.335380 -0.046407
v -0.142822 0.335380 -0.046407
v 0.000002 1.246177 -0.948150
v 0.000002 1.246177 -0.948150
v -0.557307 1.246177 -0.767068
v -0.557307 1.246177 -0.767068
v 0.000002 1.400029 -1.017825
v 0.000002 1.400029 -1.017825
v -0.598263 1.400029 -0.823438
v -0.598263 1.400029 -0.823438
v -0.613267 1.238819 -0.844094
v -0.613267 1.238819 -0.844094
v 0.000002 1.238819 -1.043358
v 0.000002 1.238819 -1.043358
v -0.543670 1.392671 -0.748298
v -0.543670 1.392671 -0.748298
v 0.000002 1.392671 -0.924945
v 0.000002 1.392671 -0.924945
vn -0.5996 0.0967 0.7944
vn 0.0258 -0.9554 0.2942
vn 0.9509 -0.0003 0.3095
vn 0.9491 0.0005 0.3150
vn 0.9261 0.0227 0.3766
vn -0.5284 0.3057 0.7921
vn -0.6029 0.0968 0.7919
vn 0.0243 -0.9556 0.2937
vn 0.9512 0.0003 0.3087
vn 0.8984 0.1323 0.4188
vn -0.1520 0.5683 0.8087
vn -0.3254 0.4612 0.8255
vn -0.4683 0.3660 0.8042
vn -0.5309 0.3079 0.7895
vn -0.8432 0.0655 0.5335
vn 0.1020 0.7003 0.7065
vn 0.1001 0.6998 0.7072
vn 0.0524 0.6830 0.7285
vn -0.0000 -0.9511 -0.3090
vn -0.0000 -0.8783 -0.4780
vn 0.1457 -0.8819 -0.4483
vn 0.0999 -0.9463 -0.3075
vn -0.1816 -0.9511 -0.2500
vn -0.2810 -0.8783 -0.3868
vn -0.2761 -0.9496 -0.1486
vn -0.3545 -0.8989 -0.2576
vn -0.2939 -0.9511 -0.0955
vn -0.3233 -0.9463 -0.0000
vn -0.0000 -0.6919 -0.7220
vn 0.2236 -0.6901 -0.6883
vn 0.1876 -0.7947 -0.5773
vn -0.4244 -0.6919 -0.5841
vn -0.5682 -0.7119 -0.4128
vn -0.0000 -0.4420 -0.8970
vn 0.2780 -0.4370 -0.8555
vn -0.5273 -0.4420 -0.7257
vn -0.7198 -0.4564 -0.5230
vn -0.0000 -0.1519 -0.9884
vn 0.3056 -0.1493 -0.9404
vn -0.5810 -0.1519 -0.7996
vn -0.7985 -0.1608 -0.5801
vn -0.0000 -0.0000 -1.0000
vn 0.3090 -0.0000 -0.9511
vn -0.5878 -0.0000 -0.8090
vn -0.8090 -0.0000 -0.5878
vn 0.3056 0.1493 -0.9404
vn -0.0000 0.1519 -0.9884
vn -0.0000 0.3090 -0.9511
vn 0.2952 0.2952 -0.9087
vn -0.5590 0.3090 -0.7694
vn -0.5810 0.1519 -0.7996
vn -0.7730 0.2952 -0.5616
vn -0.8000 0.1485 -0.5813
vn 0.2542 0.5685 -0.7824
vn 0.2843 0.3915 -0.8751
vn -0.0000 0.3925 -0.9198
vn -0.0000 0.6919 -0.7220
vn 0.2485 0.5946 -0.7647
vn -0.2868 0.3723 -0.8827
vn -0.2542 0.5685 -0.7824
vn -0.2521 0.5784 -0.7759
vn -0.0121 0.8090 -0.5877
vn -0.3120 0.1992 -0.9289
vn -0.5749 0.2084 -0.7913
vn -0.7929 0.1986 -0.5761
vn -0.0000 0.2084 -0.9780
vn 0.3029 0.1986 -0.9321
vn -0.0257 0.9965 0.0789
vn 0.0257 0.9965 0.0789
vn 0.0672 0.9965 0.0488
vn 0.0655 -0.9967 0.0476
vn 0.0250 -0.9967 0.0770
vn -0.0250 -0.9967 0.0770
vn -0.3090 -0.0000 -0.9511
vn -1.0000 -0.0000 -0.0000
vn -0.8090 -0.0000 0.5878
vn -0.3307 -0.0018 0.9437
vn -0.8442 0.0640 0.5321
vt 0.543940 0.405040
vt 0.544427 0.544427
vt 0.000000 0.000000
vt 0.594880 0.000000
vt 0.040214 0.000000
vt 0.251312 0.000000
vt 1.000000 0.739783
vt 1.000000 0.949794
vt 0.624118 0.072211
vt 0.587898 0.000000
vt 1.000000 0.000000
vt 1.000000 0.670408
vt 0.949794 0.949794
vt 0.739783 0.739783
vt 0.808171 0.359215
vt 0.944768 0.552215
vt 0.670408 0.670408
vt 1.000000 1.000000
vt 0.875101 0.239900
vt 1.000000 0.405120
vt 0.564076 0.000000
vt 0.993386 0.746727
vt 1.000000 0.748688
vt 1.000000 0.959786
vt 0.938642 0.902447
vt 0.912247 0.828942
vt 0.933159 0.769464
vt 0.476143 0.286899
vt 0.424881 0.316643
vt 0.396294 0.289432
vt 0.383535 0.256227
vt 0.438572 0.231998
vt 0.364890 0.104444
vt 0.377442 0.000000
vt 1.000000 0.412102
vt 0.850295 0.420847
vt 0.666457 0.391488
vt 0.515176 0.324052
vt 0.378856 0.000000
vt 0.440967 0.000000
vt 1.000000 0.349106
vt 0.754732 0.430318
vt 0.667716 0.336925
vt 0.361900 0.000000
vt 1.000000 0.621144
vt 0.791379 0.460689
vt 0.361900 0.361900
vt 0.559033 0.000000
vt 0.883812 0.490796
vt 0.883812 0.440268
vt 0.906374 0.447599
vt 0.891496 0.493293
vt 0.868198 0.495869
vt 0.838499 0.454992
vt 0.847175 0.505455
vt 0.826619 0.471343
vt 0.858549 0.509151
vt 0.858549 0.523963
vt 0.883812 0.397287
vt 0.918997 0.408720
vt 0.909481 0.438060
vt 0.813236 0.420219
vt 0.804416 0.432359
vt 0.826619 0.471343
vt 0.883812 0.366060
vt 0.928156 0.380468
vt 0.794880 0.394955
vt 0.389169 0.625238
vt 0.389169 0.633183
vt 0.346188 0.607919
vt 0.346188 0.595779
vt 0.281209 0.834006
vt 0.230681 0.834006
vt 0.230681 0.784853
vt 0.281209 0.789662
vt 0.281209 0.922938
vt 0.230681 0.932588
vt 0.439696 0.642288
vt 0.439696 0.646465
vt 0.210725 0.834006
vt 0.210725 0.784857
vt 0.210725 0.932588
vt 0.459653 0.646465
vt 0.459653 0.643404
vt 0.154463 0.789814
vt 0.154463 0.843905
vt 0.140563 0.843905
vt 0.140563 0.791143
vt 0.140563 0.949731
vt 0.154463 0.952386
vt 0.494304 0.669229
vt 0.494304 0.670061
vt 0.480404 0.673715
vt 0.480404 0.672365
vt 0.686262 0.640720
vt 0.693597 0.663295
vt 0.649286 0.677693
vt 0.649286 0.646465
vt 0.654917 0.644635
vt 0.561116 0.649045
vt 0.574457 0.631503
vt 0.577515 0.627513
vt 0.582664 0.628786
vt 0.634644 0.641707
vt 0.649286 0.644929
vt 0.654917 0.644635
vt 0.480404 0.672365
vt 0.465788 0.673715
vt 0.465788 0.671548
vt 0.169078 0.843905
vt 0.169078 0.952386
vt 0.169078 0.789811
vt 0.044285 0.986224
vt 0.001992 0.993515
vt 0.001992 0.991668
vt 0.430956 0.773876
vt 0.488741 0.773876
vt 0.488741 0.870046
vt 0.446448 0.864748
vt 0.430956 0.862046
vt 0.488741 0.725938
vt 0.430956 0.729565
vt 0.711328 0.362068
vt 0.711328 0.345639
vt 0.759267 0.330063
vt 0.764090 0.344925
vt 0.615159 0.314391
vt 0.605502 0.327683
vt 0.613817 0.312544
vt 0.604898 0.326851
vt 0.258435 0.050856
vt 0.256211 0.053917
vt 0.246961 0.039398
vt 0.248536 0.037231
vt 0.357016 0.018825
vt 0.357016 0.001983
vt 0.406166 0.034794
vt 0.411110 0.019559
vt 0.068473 0.001983
vt 0.076158 0.001983
vt 0.076125 0.133196
vt 0.069822 0.133997
vt 0.068473 0.134166
vt 0.052860 0.133003
vt 0.052860 0.001983
vt 0.068473 0.134166
vt 0.105121 0.328885
vt 0.105121 0.456068
vt 0.091839 0.456068
vt 0.091839 0.325048
vt 0.119933 0.456068
vt 0.121538 0.333932
vt 0.121538 0.442718
vt 0.134820 0.338260
vt 0.134820 0.433106
vt 0.129448 0.452754
vt 0.121538 0.442718
vt 0.121538 0.333932
vt 0.142512 0.433106
vt 0.142512 0.338260
vt 0.150142 0.339229
vt 0.150166 0.435557
vt 0.150157 0.456068
vt 0.148985 0.456068
vt 0.145146 0.442513
vt 0.405317 0.135070
vt 0.438864 0.145099
vt 0.488393 0.229399
vt 0.534199 0.243093
vt 0.701369 0.360813
vt 0.897400 0.548274
vt 0.414871 0.158007
vt 0.503146 0.386396
vt 0.540135 0.500958
vt 0.592049 0.552657
vt 0.564076 0.564076
vt 0.349106 0.349106
vt 0.349023 0.257520
vt 0.372742 0.248946
vt 0.441713 0.232378
vt 0.387494 0.148376
s 0
usemtl lambert2SG
f 918/993/441 919/994/441 844/995/441 917/996/441
f 935/997/442 921/998/442 920/999/442 926/1000/442
f 924/1001/443 925/1002/443 846/1003/443 927/1004/443 926/1005/443 920/1006/443 922/1007/443
f 846/995/444 844/1003/444 919/1008/444 927/1009/444
f 846/995/445 845/1003/445 844/1010/445
f 845/995/446 849/1003/446 844/1010/446
f 928/1011/447 917/1012/447 844/1010/447 849/995/447 930/1013/447
f 939/1014/448 921/1015/448 935/1016/448 943/1017/448 945/1018/448 941/1019/448
f 947/1020/449 950/1021/449 952/1022/449 953/1023/449 955/1024/449 957/1025/449 980/1026/449 846/1003/449 925/1027/449 958/1028/449 959/1029/449 949/1030/449
f 980/1031/450 843/1003/450 846/1010/450
f 843/995/451 851/1003/451 846/1010/451
f 851/995/452 845/1003/452 846/1010/452
f 851/995/453 847/1003/453 845/1010/453
f 847/995/454 849/1003/454 845/1010/454
f 847/995/455 960/1032/455 961/1033/455 849/1010/455
f 977/1034/456 978/1035/456 979/1036/456 843/1003/456 980/1037/456 976/1038/456
f 847/1003/457 843/1010/457 979/1039/457 960/1040/457
f 847/995/458 851/1003/458 843/1010/458
s 1
f 981/1041/459 848/1042/460 880/1043/461 923/1044/462
f 848/1042/460 981/1041/459 983/1045/463 850/1046/464
f 938/1047/465 937/1048/466 850/1046/464 983/1045/463 985/1049/467
f 934/1050/468 938/1047/465 985/1049/467
f 848/1042/460 852/1051/469 891/1052/470 879/1053/471 880/1043/461
f 852/1051/469 848/1042/460 850/1046/464 853/1054/472
f 971/1055/473 853/1054/472 850/1046/464 937/1056/466
f 852/1051/469 854/1057/474 893/1058/475 891/1052/470
f 854/1057/474 852/1051/469 853/1054/472 855/1059/476
f 970/1060/477 855/1061/476 853/1062/472 971/1063/473
f 854/1064/474 856/1065/478 898/1066/479 893/1067/475
f 856/1065/478 854/1064/474 855/1068/476 857/1069/480
f 969/1070/481 857/1071/480 855/1061/476 970/1060/477
f 898/1066/479 856/1065/478 987/1072/482 948/1073/483
f 856/1065/478 857/1069/480 989/1074/484 987/1072/482
f 989/1075/484 857/1071/480 969/1070/481 968/1076/485
f 897/1077/486 865/1078/487 991/1079/488 954/1080/489
f 993/1081/490 991/1079/488 865/1078/487 867/1082/491
f 963/1083/492 993/1084/490 867/1085/491 962/1086/493
f 900/1087/494 892/1088/495 858/1089/496 859/1090/497 915/1091/498
f 859/1090/497 858/1089/496 972/1092/499 902/1093/500 901/1094/500 914/1095/500 913/1096/501
f 859/1090/497 916/1097/502 915/1098/498
f 916/1097/502 859/1090/497 913/1096/501
f 962/1099/493 867/1085/491 995/1100/484 965/1101/485
f 865/1078/487 997/1102/482 995/1103/484 867/1082/491
f 951/1104/483 997/1102/482 865/1078/487 897/1077/486
f 973/1105/503 999/1106/504 974/1107/505
f 858/1108/496 1001/1109/506 999/1110/504 973/1111/503 972/1112/499
f 956/1113/507 1001/1109/506 858/1108/496 892/1114/495
f 992/1115/508 1002/1116/508 894/1117/508 899/1118/508
f 1000/1119/509 863/1116/509 864/1115/509 994/1120/509
f 975/1121/510 862/1119/510 866/1120/510 964/1122/510
f 990/1123/511 967/1124/511 966/1125/511 996/1126/511
f 988/1127/512 860/1123/512 868/1126/512 998/1128/512
f 895/1129/513 861/1127/513 869/1128/513 896/1130/513
f 982/1131/483 878/1132/483 874/1133/483 876/1134/483 940/1135/483
f 942/1136/514 984/1137/514 840/1131/514 889/1138/514
f 946/1139/485 986/1140/485 841/1141/485 890/1142/485
f 933/1143/515 842/1140/515 888/1139/515 944/1144/515 931/1145/515
f 936/1146/516 929/1147/516 882/1148/516 932/1149/516 887/1150/516
f 881/1151/517 873/1152/517 875/1153/517 877/1154/517 872/1155/517 871/1156/517 870/1157/517
s 0
f 909/1158/518 910/1159/518 908/1160/518 911/1161/518 906/1162/518 903/1163/518 885/1164/518 886/1165/518 884/1166/518 883/1167/518 930/1168/518 849/1010/518 961/1169/518 904/1170/518 905/1171/518 907/1172/518 912/1173/518
