# Blender 5.0.0
# www.blender.org
mtllib LolipopRing.mtl
o LolipopRing_cell
v 2.310250 -0.750645 0.148674
v 2.429140 0.000000 0.148674
v 2.476472 -0.804655 0.389233
v 2.603917 0.000000 0.389233
v 2.745426 -0.892043 0.481119
v 2.886710 0.000000 0.481119
v 3.014379 -0.979431 0.389233
v 3.169504 0.000000 0.389233
v 3.180601 -1.033440 0.148674
v 3.344282 0.000000 0.148674
v 3.180601 -1.033440 -0.148674
v 3.344282 0.000000 -0.148674
v 3.014379 -0.979431 -0.389233
v 3.169506 0.000000 -0.389233
v 2.745426 -0.892043 -0.481119
v 2.886710 0.000000 -0.481119
v 2.476472 -0.804655 -0.389233
v 2.603917 0.000000 -0.389233
v 2.310249 -0.750645 -0.148674
v 2.429140 0.000000 -0.148674
v 2.290020 -1.170588 0.389233
v 2.172349 -1.139333 0.223354
v 2.944825 -1.496177 -0.017931
v 2.551937 -1.271785 0.481119
v 2.805087 -1.390190 0.389233
v 2.952775 -1.480574 0.148674
v 2.129158 -1.106058 0.148674
v 2.147334 -1.070384 -0.148674
v 2.315873 -1.119847 -0.389233
v 2.813689 -1.373307 -0.389233
v 2.952817 -1.480491 -0.148674
v 2.570398 -1.235553 -0.481119
v 2.486735 0.739870 0.389233
v 2.762358 0.785139 0.481119
v 2.336029 0.587891 0.148674
v 2.367810 0.387226 -0.148674
v 2.569939 0.214535 -0.389233
v 3.291535 0.333034 -0.148674
v 3.259753 0.533700 0.148674
v 3.057625 0.706391 0.389233
v 3.140832 0.181042 -0.389233
v 2.865205 0.135779 -0.481119
v 2.290020 -1.170588 0.389233
v 2.172349 -1.139333 0.223354
v 2.551937 -1.271785 0.481119
v 2.944825 -1.496177 -0.017931
v 2.952775 -1.480574 0.148674
v 2.805087 -1.390190 0.389233
v 2.952817 -1.480491 -0.148674
v 2.129158 -1.106058 0.148674
v 2.147334 -1.070384 -0.148674
v 2.315873 -1.119847 -0.389233
v 2.570398 -1.235553 -0.481119
v 2.813689 -1.373307 -0.389233
v 2.486735 0.739870 0.389233
v 2.762358 0.785139 0.481119
v 2.336029 0.587891 0.148674
v 3.057625 0.706391 0.389233
v 3.259753 0.533700 0.148674
v 3.291535 0.333034 -0.148674
v 3.140832 0.181042 -0.389233
v 2.865205 0.135779 -0.481119
v 2.569939 0.214535 -0.389233
v 2.367810 0.387226 -0.148674
vn -0.4497 -0.8832 -0.1334
vn -0.3901 -0.9149 0.1043
vn -0.5434 0.2769 0.7925
vn -0.5391 0.1752 0.8238
vn -0.9015 0.2929 0.3185
vn -0.8411 0.4286 0.3300
vn -0.7239 0.3688 0.5830
vn -0.9479 -0.0000 0.3185
vn -0.5669 -0.0000 0.8238
vn -0.5450 -0.0863 0.8340
vn -0.9017 -0.1428 0.4081
vn -0.0118 0.0060 0.9999
vn 0.0294 -0.0095 0.9995
vn 0.0309 -0.0000 0.9995
vn -0.0467 -0.0074 0.9989
vn 0.5281 -0.2691 0.8054
vn 0.5775 -0.1877 0.7945
vn 0.6073 -0.0000 0.7945
vn 0.4932 0.0781 0.8664
vn 0.8522 -0.4342 0.2918
vn 0.9072 -0.2948 0.3003
vn 0.9538 -0.0000 0.3003
vn 0.8964 0.1420 0.4199
vn 0.8547 -0.4355 -0.2827
vn 0.9072 -0.2948 -0.3003
vn 0.8910 -0.4540 -0.0000
vn 0.9538 -0.0000 -0.3003
vn 0.9650 0.1528 -0.2132
vn 0.5381 -0.2742 -0.7971
vn 0.5775 -0.1877 -0.7945
vn 0.6073 -0.0000 -0.7945
vn 0.6139 0.0972 -0.7833
vn -0.0001 -0.0000 -1.0000
vn 0.0294 -0.0095 -0.9995
vn 0.0309 -0.0000 -0.9995
vn -0.0360 -0.0057 -0.9993
vn -0.5381 0.2742 -0.7970
vn -0.5391 0.1752 -0.8238
vn -0.5669 -0.0000 -0.8238
vn -0.6588 -0.1043 -0.7450
vn -0.8547 0.4355 -0.2826
vn -0.9015 0.2929 -0.3185
vn -0.9479 -0.0000 -0.3185
vn -0.9701 -0.1536 -0.1880
vn 0.0487 0.8303 -0.5551
vt 1.000000 0.164527
vt 1.000000 0.371605
vt 0.964852 0.383178
vt 0.848581 0.378288
vt 0.773671 0.333097
vt 0.768734 0.264866
vt 0.835657 0.199656
vt 0.948876 0.162377
vt 0.835473 0.000000
vt 0.176400 0.162204
vt 0.260991 0.201749
vt 0.319004 0.269530
vt 0.941705 0.281433
vt 0.628395 0.000000
vt 0.684793 0.135240
vt 0.682715 0.155422
vt 0.668762 0.152491
vt 0.670728 0.132804
vt 0.675170 0.132831
vt 0.657841 0.188330
vt 0.670979 0.193930
vt 0.653204 0.226413
vt 0.643781 0.214123
vt 0.698846 0.138268
vt 0.696656 0.158380
vt 0.683989 0.199440
vt 0.665932 0.232718
vt 0.653204 0.226413
vt 0.713005 0.140178
vt 0.710719 0.161255
vt 0.698846 0.138268
vt 0.697012 0.204913
vt 0.681362 0.233968
vt 0.665932 0.232718
vt 0.727251 0.140916
vt 0.724710 0.164074
vt 0.710174 0.210417
vt 0.681362 0.233968
vt 0.698264 0.232464
vt 0.741357 0.142277
vt 0.738651 0.166847
vt 0.727251 0.140916
vt 0.735252 0.140798
vt 0.723294 0.215862
vt 0.715440 0.230400
vt 0.305710 0.397762
vt 0.311092 0.417459
vt 0.297696 0.422301
vt 0.291569 0.399721
vt 0.319083 0.465867
vt 0.331281 0.458511
vt 0.328430 0.478354
vt 0.336337 0.465273
vt 0.319734 0.394907
vt 0.324573 0.412566
vt 0.343353 0.451203
vt 0.347289 0.456428
vt 0.336337 0.465273
vt 0.333487 0.390775
vt 0.337959 0.407584
vt 0.355413 0.443851
vt 0.361905 0.452409
vt 0.347289 0.456428
vt 0.333487 0.390775
vt 0.346933 0.385413
vt 0.351361 0.402558
vt 0.367586 0.436383
vt 0.379251 0.451850
vt 0.360082 0.379663
vt 0.364639 0.397528
vt 0.379661 0.428940
vt 0.396052 0.450738
vt 0.379251 0.451850
vt 0.246953 0.133648
vt 0.195396 0.147078
vt 0.232169 0.087678
vt 0.311680 0.078335
vt 0.403560 0.122619
vt 0.472713 0.203615
vt 0.492725 0.290383
vt 0.455952 0.349784
vt 0.376440 0.359126
vt 0.336364 0.219476
s 0
usemtl lambert2SG
f 46/1/1 44/2/1 50/3/1 51/4/1 52/5/1 53/6/1 54/7/1 49/8/1
f 46/9/2 47/10/2 48/11/2 45/12/2 43/13/2 44/14/2
s 1
f 21/15/3 3/16/4 1/17/5 27/18/6 22/19/7
f 2/20/8 1/17/5 3/16/4 4/21/9
f 2/20/8 4/21/9 55/22/10 57/23/11
f 24/24/12 5/25/13 3/16/4 21/15/3
f 4/21/9 3/16/4 5/25/13 6/26/14
f 4/21/9 6/26/14 56/27/15 55/28/10
f 25/29/16 7/30/17 5/25/13 24/31/12
f 6/26/14 5/25/13 7/30/17 8/32/18
f 6/26/14 8/32/18 58/33/19 56/34/15
f 26/35/20 9/36/21 7/30/17 25/29/16
f 8/32/18 7/30/17 9/36/21 10/37/22
f 58/38/19 8/32/18 10/37/22 59/39/23
f 31/40/24 11/41/25 9/36/21 26/42/20 23/43/26
f 10/37/22 9/36/21 11/41/25 12/44/27
f 59/39/23 10/37/22 12/44/27 60/45/28
f 30/46/29 13/47/30 11/48/25 31/49/24
f 12/50/27 11/48/25 13/47/30 14/51/31
f 60/52/28 12/50/27 14/51/31 61/53/32
f 32/54/33 15/55/34 13/47/30 30/46/29
f 14/51/31 13/47/30 15/55/34 16/56/35
f 14/51/31 16/56/35 62/57/36 61/58/32
f 29/59/37 17/60/38 15/55/34 32/54/33
f 16/56/35 15/55/34 17/60/38 18/61/39
f 16/56/35 18/61/39 63/62/40 62/63/36
f 17/60/38 29/64/37 28/65/41 19/66/42
f 18/61/39 17/60/38 19/66/42 20/67/43
f 18/61/39 20/67/43 64/68/44 63/62/40
f 27/69/6 1/70/5 19/66/42 28/65/41
f 2/71/8 20/67/43 19/66/42 1/70/5
f 20/67/43 2/71/8 57/72/11 64/73/44
s 0
f 34/74/45 40/75/45 39/76/45 38/77/45 41/78/45 42/79/45 37/80/45 36/81/45 35/82/45 33/83/45
o LolipopRing_cell.001
v 0.000000 2.429142 0.148674
v -1.423064 5.364218 -0.228296
v 2.560191 5.959281 0.863442
v 2.572072 6.110007 1.068380
v 2.261479 6.019747 0.843856
v 0.000000 2.603918 0.389233
v 0.000000 2.886711 0.481119
v 0.000000 3.035387 0.457571
v 0.979432 3.014379 0.389233
v -0.979432 3.014379 0.389233
v 1.033441 3.180602 0.148674
v 1.033441 3.180602 -0.148674
v 0.979432 3.014380 -0.389233
v 0.000000 3.035387 -0.457571
v 0.000000 2.886711 -0.481119
v 0.000000 2.603918 -0.389233
v 0.000000 2.429141 -0.148674
v 0.000000 3.296564 0.457571
v -0.000001 3.296564 -0.457571
v 0.979432 3.296563 0.389233
v -0.979431 3.296564 0.389233
v 1.033440 3.296565 0.148674
v -1.033441 3.296565 0.148674
v 1.033440 3.296565 -0.148674
v 0.979432 3.296563 -0.389233
v -0.782004 3.296563 2.365713
v 0.945538 3.296563 2.365712
v -0.782004 3.741628 2.365713
v 0.945538 3.741628 2.365713
v -0.382776 3.741629 1.147817
v 0.323850 3.741629 1.147817
v -0.954443 3.741629 0.732476
v 0.895518 3.741629 0.732476
v 1.113881 3.741629 0.060437
v -0.954444 3.741629 -0.611602
v 0.895518 3.741629 -0.611602
v -1.923132 5.942110 2.178703
v 1.047063 6.557464 3.373637
v -1.037136 6.289389 3.161732
v -1.335964 3.296563 1.988604
v -1.420656 3.741628 1.930951
v -1.439725 4.463334 1.085054
v 2.396123 6.397923 2.237604
v 1.062562 3.296563 2.280102
v 1.296021 3.741629 2.109316
v 2.259975 5.770832 1.723810
v -0.947862 2.578732 0.481119
v -0.969848 2.718808 0.433284
v -1.033441 3.233077 0.148674
v -1.141720 3.741629 0.156109
v -1.020746 2.993329 0.389233
v -0.982349 2.786923 0.421537
v -1.022932 3.148258 0.195483
v -0.808770 2.166356 0.148674
v -0.878602 2.318442 0.389233
v -0.962099 3.296564 -0.390442
v -0.765039 2.180564 -0.148674
v -1.033441 3.296565 0.063576
v -1.083496 3.741629 -0.214427
v -0.837482 2.741724 -0.439813
v -0.806347 2.624713 -0.481119
v -1.037650 3.865372 -0.672055
v -1.053290 4.108059 -0.897813
v -0.814412 3.296563 -1.330331
v -0.945425 3.741629 -1.093116
v -0.855882 2.818910 -0.426176
v -0.764114 2.355642 -0.389233
v -0.902359 3.016032 -0.394611
v 0.567115 3.741629 -0.811467
v 0.900799 3.832080 -0.696142
v 0.973129 3.857051 -0.667990
v 1.857388 3.296564 -0.832778
v 2.460565 5.581827 0.622994
v 1.974860 3.741631 -0.549259
v 1.975679 4.778509 0.060437
v -0.425054 3.741629 -0.996226
v 1.269329 2.666961 0.418513
v 1.183101 2.502299 0.481119
v 1.097755 2.247235 0.389233
v 1.345452 2.827883 0.389233
v 1.463796 2.961325 0.148674
v 1.086217 2.076209 0.148674
v 1.526159 2.929549 -0.148674
v 1.272317 2.190516 -0.389233
v 1.476983 2.661818 -0.403392
v 1.407469 2.454746 -0.477104
v 1.398872 2.432190 -0.481119
v 1.508722 2.744694 -0.389233
v 1.152893 2.054543 -0.148674
v 1.047063 6.557464 3.373637
v 1.047063 6.557464 3.373637
v -1.037136 6.289389 3.161732
v -1.037136 6.289389 3.161732
v -1.923132 5.942110 2.178703
v -1.335964 3.296563 1.988604
v -1.335964 3.296563 1.988604
v -1.420656 3.741628 1.930951
v -1.420656 3.741628 1.930951
v -1.439725 4.463334 1.085054
v -1.439725 4.463334 1.085054
v 2.396123 6.397923 2.237604
v 2.259975 5.770832 1.723810
v 2.259975 5.770832 1.723810
v 1.062562 3.296563 2.280102
v 1.062562 3.296563 2.280102
v 1.296021 3.741629 2.109316
v 1.296021 3.741629 2.109316
v -0.808770 2.166356 0.148674
v -0.765039 2.180564 -0.148674
v -0.878602 2.318442 0.389233
v -0.947862 2.578732 0.481119
v -0.969848 2.718808 0.433284
v -0.982349 2.786923 0.421537
v -1.020746 2.993329 0.389233
v -1.022932 3.148258 0.195483
v -1.022932 3.148258 0.195483
v -1.033441 3.233077 0.148674
v -1.033441 3.296565 0.063576
v -1.033441 3.296565 0.063576
v -1.141720 3.741629 0.156109
v -1.141720 3.741629 0.156109
v -1.037650 3.865372 -0.672055
v -1.037650 3.865372 -0.672055
v -1.053290 4.108059 -0.897813
v -1.083496 3.741629 -0.214427
v -1.083496 3.741629 -0.214427
v -0.945425 3.741629 -1.093116
v -0.962099 3.296564 -0.390442
v -0.962099 3.296564 -0.390442
v -0.814412 3.296563 -1.330331
v -0.902359 3.016032 -0.394611
v -0.902359 3.016032 -0.394611
v -0.855882 2.818910 -0.426176
v -0.837482 2.741724 -0.439813
v -0.806347 2.624713 -0.481119
v -0.764114 2.355642 -0.389233
v 0.900799 3.832080 -0.696142
v 0.973129 3.857051 -0.667990
v 0.973129 3.857051 -0.667990
v 0.567115 3.741629 -0.811467
v 0.567115 3.741629 -0.811467
v 1.974860 3.741631 -0.549259
v 2.460565 5.581827 0.622994
v 1.975679 4.778509 0.060437
v 1.975679 4.778509 0.060437
v -0.425054 3.741629 -0.996226
v -0.425054 3.741629 -0.996226
v 1.857388 3.296564 -0.832778
v 1.476983 2.661818 -0.403392
v 1.407469 2.454746 -0.477104
v 1.508722 2.744694 -0.389233
v 1.526159 2.929549 -0.148674
v 1.463796 2.961325 0.148674
v 1.345452 2.827883 0.389233
v 1.269329 2.666961 0.418513
v 1.183101 2.502299 0.481119
v 1.097755 2.247235 0.389233
v 1.086217 2.076209 0.148674
v 1.152893 2.054543 -0.148674
v 1.272317 2.190516 -0.389233
v 1.398872 2.432190 -0.481119
v 0.979432 3.014379 0.389233
v 1.033441 3.180602 0.148674
v 1.033441 3.180602 -0.148674
v 0.000000 3.296564 0.457571
v 0.979432 3.296563 0.389233
v -0.000001 3.296564 -0.457571
v -0.979431 3.296564 0.389233
v 1.033440 3.296565 0.148674
v -1.033441 3.296565 0.148674
v 1.033440 3.296565 -0.148674
v 0.979432 3.296563 -0.389233
v -0.782004 3.296563 2.365713
v 0.945538 3.296563 2.365712
v 0.945538 3.296563 2.365712
v -0.782004 3.741628 2.365713
v 0.945538 3.741628 2.365713
v 0.945538 3.741628 2.365713
v -0.382776 3.741629 1.147817
v -0.382776 3.741629 1.147817
v 0.323850 3.741629 1.147817
v 0.323850 3.741629 1.147817
v -0.954443 3.741629 0.732476
v -0.954443 3.741629 0.732476
v 0.895518 3.741629 0.732476
v 0.895518 3.741629 0.732476
v 1.113881 3.741629 0.060437
v 1.113881 3.741629 0.060437
v -0.954444 3.741629 -0.611602
v -0.954444 3.741629 -0.611602
v 0.895518 3.741629 -0.611602
v 0.895518 3.741629 -0.611602
vn 0.8954 -0.3819 0.2288
vn -0.0981 0.9628 -0.2517
vn 0.1576 0.5035 -0.8495
vn -0.0000 1.0000 -0.0000
vn 0.1585 0.5004 -0.8512
vn 0.8954 -0.3820 0.2286
vn 0.1973 0.7843 -0.5882
vn -0.1897 -0.5839 0.7893
vn -0.0000 -0.5446 0.8387
vn -0.0000 -0.9445 0.3285
vn -0.2981 -0.9175 0.2631
vn 0.2929 -0.9013 0.3191
vn 0.1860 -0.5726 0.7985
vn 0.0002 -0.0107 0.9999
vn -0.0050 -0.0458 0.9989
vn 0.0163 -0.0790 0.9967
vn 0.0811 0.1936 0.9777
vn 0.2468 0.5022 0.8288
vn 0.2041 0.4232 0.8828
vn 0.0002 0.0951 0.9955
vn -0.0803 0.1879 0.9789
vn -0.3186 0.2879 0.9031
vn -0.2128 0.4367 0.8741
vn 0.4372 0.8580 0.2698
vn 0.4335 0.8508 0.2970
vn -0.3688 0.7239 0.5830
vn 0.4252 0.8345 -0.3506
vn 0.4335 0.8508 -0.2970
vn 0.3185 0.2940 -0.9012
vn 0.2235 0.4645 -0.8569
vn -0.0798 0.1846 -0.9796
vn 0.0002 0.0964 -0.9953
vn 0.0002 -0.0092 -1.0000
vn 0.0162 -0.0795 -0.9967
vn -0.0036 -0.0367 -0.9993
vn 0.0806 0.2018 -0.9761
vn -0.0000 -0.5446 -0.8387
vn -0.1757 -0.5407 -0.8227
vn 0.1949 -0.5999 -0.7760
vn -0.0000 -0.9445 -0.3285
vn -0.2904 -0.8937 -0.3419
vn 0.2980 -0.9170 -0.2651
vn -0.0000 -0.0000 1.0000
vn 0.5166 -0.0000 0.8562
vn 0.6517 -0.0000 0.7585
vn -0.0696 -0.0000 -0.9976
vn -0.0000 -0.0000 -1.0000
vn -0.6517 -0.0000 0.7585
vn 0.9918 -0.0000 0.1277
vn 0.9939 -0.0000 0.1102
vn -0.9939 -0.0000 0.1102
vn -0.9867 -0.0000 0.1626
vn -0.9757 -0.0000 0.2191
vn 0.9918 -0.0000 -0.1277
vn 0.9939 -0.0000 -0.1102
vn -1.0000 -0.0000 -0.0000
vn 0.6517 -0.0000 -0.7585
vn -0.0000 -1.0000 -0.0000
vn -0.2944 -0.0000 0.9557
vn -0.5627 -0.0000 0.8266
vn 0.5904 -0.0000 0.8071
vn -0.9672 -0.2037 -0.1520
vn 0.4115 -0.6350 -0.6537
vn -0.4611 -0.6201 -0.6347
vn -0.7461 -0.6201 -0.2424
vn -0.7461 -0.6201 0.2424
vn -0.4611 -0.6201 0.6347
vn -0.0000 -0.6201 0.7845
vn 0.4611 -0.6201 0.6347
vn 0.7461 -0.6201 0.2424
vn 0.7461 -0.6201 -0.2424
vt 0.934400 0.263874
vt 0.895243 0.000000
vt 0.000000 0.000000
vt 1.000000 0.000000
vt 1.000000 0.485868
vt 1.000000 0.649962
vt 0.752354 0.667774
vt 0.268925 0.241585
vt 0.485868 0.485868
vt 1.000000 1.000000
vt 0.196852 0.863584
vt 0.126563 0.837583
vt 0.139454 0.840899
vt 0.161165 0.829114
vt 0.171642 0.807030
vt 0.167303 0.783438
vt 0.149867 0.766836
vt 0.125934 0.763466
vt 0.122264 0.752023
vt 0.116798 0.734979
vt 0.182396 0.700055
vt 0.175094 0.807593
vt 0.199282 0.811536
vt 0.757601 0.582801
vt 1.000000 0.754233
vt 0.104757 0.000000
vt 0.387242 0.071313
vt 0.808662 0.269771
vt 0.829936 0.286952
vt 0.922638 0.367923
vt 0.615477 0.000000
vt 0.738999 0.000000
vt 1.000000 0.595464
vt 1.000000 0.682541
vt 0.298612 0.131386
vt 0.311707 0.125298
vt 0.394498 0.144649
vt 0.474369 0.188318
vt 0.520811 0.239623
vt 0.509942 0.260391
vt 0.507190 0.286787
vt 0.454503 0.297912
vt 0.373291 0.277172
vt 0.294574 0.232489
vt 0.248421 0.180930
vt 0.252459 0.142189
vt 0.256065 0.140557
vt 0.574177 0.292750
vt 0.521061 0.309323
vt 0.521095 0.294768
vt 0.572080 0.278845
vt 0.483227 0.282756
vt 0.478692 0.295902
vt 0.521021 0.323768
vt 0.574177 0.292750
vt 0.577890 0.305942
vt 0.475594 0.309343
vt 0.585622 0.354119
vt 0.585793 0.322790
vt 0.568457 0.332169
vt 0.521012 0.330708
vt 0.577890 0.305942
vt 0.487670 0.188052
vt 0.473543 0.332037
vt 0.471596 0.330975
vt 0.485075 0.210009
vt 0.595703 0.334081
vt 0.576313 0.345493
vt 0.585793 0.322790
vt 0.467474 0.342838
vt 0.471596 0.330975
vt 0.607332 0.343750
vt 0.585414 0.356804
vt 0.474449 0.567239
vt 0.467784 0.579944
vt 0.445020 0.570291
vt 0.448706 0.556420
vt 0.564192 0.567126
vt 0.521135 0.563498
vt 0.521145 0.556383
vt 0.560742 0.547214
vt 0.566620 0.520395
vt 0.566347 0.530881
vt 0.452610 0.540147
vt 0.453041 0.571457
vt 0.451340 0.535423
vt 0.521261 0.542150
vt 0.457423 0.527152
vt 0.559628 0.533311
vt 0.521292 0.527740
vt 0.464013 0.514345
vt 0.559628 0.533311
vt 0.559308 0.518990
vt 0.471168 0.501427
vt 0.521350 0.513568
vt 0.558721 0.505003
vt 0.520998 0.343228
vt 0.565133 0.345252
vt 0.563543 0.580452
vt 0.521124 0.576114
vt 0.564192 0.567126
vt 0.476976 0.345095
vt 0.573035 0.350161
vt 0.469232 0.350020
vt 0.467467 0.347517
vt 0.467474 0.342838
vt 0.581712 0.360450
vt 0.466694 0.353037
vt 0.467467 0.347517
vt 0.469342 0.585025
vt 0.477975 0.580347
vt 0.384523 0.000000
vt 0.610605 0.087745
vt 0.535871 0.078421
vt 0.261001 0.000000
vt 0.954255 0.915346
vt 0.975518 0.873004
vt 0.985691 0.828572
vt 0.984130 0.835393
vt 0.926520 0.951009
vt 0.749079 0.864766
vt 0.746473 0.858312
vt 0.767765 0.779271
vt 0.792104 0.758476
vt 0.882547 0.804579
vt 0.873177 0.802105
vt 0.776439 0.771860
vt 0.758127 0.815050
vt 0.747228 0.860181
vt 0.851656 0.883656
vt 0.861048 0.886171
vt 0.273512 0.203795
vt 0.278087 0.112189
vt 0.215486 0.209574
vt 0.229526 0.189117
vt 0.250809 0.237662
vt 0.231670 0.124807
vt 0.228683 0.120412
vt 0.264337 0.090618
vt 0.706979 0.389632
vt 0.762225 0.420560
vt 0.805664 0.471141
vt 0.813494 0.497647
vt 0.819141 0.510621
vt 0.836780 0.549958
vt 0.822930 0.578240
vt 0.824819 0.594159
vt 0.818233 0.605706
vt 0.598634 0.182422
vt 0.583065 0.240318
vt 0.882187 0.691720
vt 0.354646 0.159947
vt 0.649963 0.649963
vt 0.754233 0.754233
vt 0.763503 0.709360
vt 0.822970 0.688997
vt 0.682541 0.682541
vt 0.595464 0.595464
vt 0.745673 0.602370
vt 0.714017 0.548552
vt 0.687196 0.510525
vt 0.676490 0.495626
vt 0.656963 0.472887
vt 0.641923 0.421972
vt 0.661028 0.390172
vt 0.093717 0.796641
vt 0.097455 0.818746
vt 0.093781 0.797018
vt 0.100094 0.783762
vt 0.646884 0.564411
vt 0.642643 0.565157
vt 0.645292 0.558003
vt 0.664620 0.560652
vt 0.813451 0.355349
vt 0.813511 0.362718
vt 0.804915 0.376611
vt 0.780731 0.349802
vt 0.834261 0.351551
vt 0.180464 0.308854
vt 0.210662 0.314385
vt 0.210313 0.357360
vt 0.245994 0.308367
vt 0.302872 0.466890
vt 0.238977 0.445428
vt 0.297758 0.535448
vt 0.331542 0.540099
vt 0.332678 0.708927
vt 0.239902 0.691677
vt 0.410915 0.698793
vt 0.332678 0.708927
vt 0.366692 0.533764
vt 0.412759 0.659748
vt 0.853171 0.126853
vt 0.799120 0.137880
vt 0.846791 0.012000
vt 0.880759 0.016540
vt 0.880759 0.078699
vt 0.880759 0.078699
vt 0.914728 0.012000
vt 0.917440 0.019160
s 0
usemtl lambert2SG
f 166/84/46 207/85/46 67/86/46 68/87/46 165/88/46
f 69/87/47 66/87/47 158/89/47 156/90/47 154/91/47 165/92/47 68/86/47
f 69/86/48 67/87/48 66/93/48
s 1
f 206/94/49 205/95/49 255/96/49 251/97/49 249/98/49 245/99/49 243/100/49 247/101/49 184/102/49 162/103/49 240/104/49 241/105/49 171/106/49
s 0
f 210/107/50 188/108/50 66/93/50 67/86/50 207/109/50 208/110/50 202/111/50 201/112/50 204/113/50 138/114/50 212/115/50 194/116/50 191/117/50
f 213/118/51 215/119/51 216/120/51 217/121/51 218/122/51 219/123/51 220/124/51 221/125/51 222/126/51 223/127/51 224/128/51 225/129/51 214/130/51
f 67/93/52 69/86/52 68/87/52
s 1
f 143/131/53 70/132/54 65/133/55 146/134/56
f 172/135/57 65/133/55 70/132/54 174/136/58
f 71/137/59 70/132/54 143/138/53 142/139/60
f 174/136/58 70/132/54 71/137/59 175/140/61
f 141/141/62 144/142/63 226/143/64 72/144/65 71/137/59 142/145/60
f 176/146/66 175/140/61 71/137/59 72/144/65 74/147/67 178/148/68 177/149/66
f 145/150/69 227/151/70 226/143/64 144/152/63
f 179/153/71 178/154/68 74/147/67
f 147/155/72 228/156/73 227/151/70 145/150/69
f 77/157/74 228/158/73 147/159/72 152/160/75
f 196/161/76 78/162/77 79/163/78 199/164/79 198/165/76 197/166/76
f 151/167/80 79/163/78 78/162/77 77/157/74 152/160/75 149/168/81 150/169/81
f 80/170/82 79/163/78 151/167/80 148/171/83
f 199/164/79 79/163/78 80/170/82 200/172/84
f 81/173/85 80/170/82 148/171/83 153/174/86
f 200/175/84 80/170/82 81/173/85 173/176/87
f 81/173/85 153/174/86 146/177/56 65/178/55
f 81/173/85 65/178/55 172/179/57 173/176/87
f 229/180/88 72/144/65 73/143/89 230/181/90
f 193/182/91 231/183/92 78/162/77 195/184/91
f 232/185/93 74/147/67 72/144/65 229/180/88
f 230/181/90 73/143/89 75/151/94 233/186/95
f 74/147/67 232/185/93 234/187/96 181/188/97 180/189/98
f 233/186/95 75/151/94 76/156/99 235/190/100
f 182/191/101 181/192/97 234/187/96
f 235/193/100 76/158/99 77/157/74 236/194/102
f 236/194/102 77/157/74 78/162/77 231/183/92
s 0
f 138/195/51 170/196/51 168/197/51 212/198/51
s 1
f 89/199/103 83/200/103 192/201/103 128/202/103 136/203/103 169/204/103 238/205/103 237/206/103 160/207/103 183/208/103 87/209/103 85/210/103 82/211/103 84/212/103 86/213/103 88/214/103
f 92/215/104 90/215/104 239/216/88 242/216/88
f 159/217/105 90/218/104 92/215/104 161/219/105
f 93/216/106 91/220/106 108/221/106 109/222/106
s 0
f 118/223/107 119/224/107 111/225/107 112/226/107 116/227/107 115/228/107 117/229/107 113/230/107 122/231/107 104/232/107 105/233/107 185/234/107 163/235/107 158/236/107 66/93/107 188/237/107 186/238/107 189/239/107 191/240/107 194/241/107 120/242/107 132/243/107 130/244/107 124/245/107 125/246/107 131/247/107 121/248/107
s 1
f 253/249/49 211/250/49 129/251/49 190/252/49
f 134/253/108 203/254/108 256/255/108 133/256/108
f 254/257/109 187/258/109 127/259/109 140/260/109
f 99/257/110 123/261/110 126/258/110
f 114/262/111 248/263/111 164/264/111
f 96/263/112 244/265/112 157/266/112 101/267/112 106/264/112
f 94/268/113 246/269/113 155/270/113 103/271/113
f 107/272/114 102/273/114 95/269/114 250/274/114 167/275/114
f 137/276/115 110/277/115 97/278/115 252/279/115 209/280/115
f 139/281/116 98/279/116 100/282/116 135/283/116
o LolipopRing_cell.002
v 2.310251 0.750646 0.148674
v 2.476474 0.804655 0.389233
v 3.014380 0.979432 0.389233
v 3.180602 1.033441 0.148674
v 3.180602 1.033441 -0.148674
v 3.014380 0.979432 -0.389233
v 2.745426 0.892043 -0.481119
v 2.335399 1.696767 -0.481119
v 2.476474 0.804655 -0.389233
v 2.310251 0.750646 -0.148674
v 2.073880 1.214550 -0.148674
v 2.202860 0.961413 0.148674
v 2.123316 1.497763 -0.389233
v 2.330301 1.701865 -0.481119
v 2.299454 1.670652 -0.466683
v 2.347291 1.705407 -0.476343
v 2.460989 0.835045 0.389233
v 2.687557 0.873240 0.461348
v 2.746964 0.882331 0.481119
v 2.764460 0.898228 0.474616
v 3.008078 1.372040 0.148674
v 2.958641 1.088826 0.389233
v 2.879098 1.625176 -0.148674
v 2.620970 1.751545 -0.389233
v 2.335600 0.590594 0.148674
v 2.367383 0.389920 -0.148674
v 2.569517 0.217196 -0.389233
v 2.486308 0.742566 0.389233
v 3.057213 0.708988 0.389233
v 3.291130 0.335591 -0.148674
v 3.259346 0.536264 0.148674
v 3.140424 0.183619 -0.389233
v 2.864790 0.138396 -0.481119
v 2.761938 0.787789 0.481119
v 2.330301 1.701865 -0.481119
v 2.347291 1.705407 -0.476343
v 2.299454 1.670652 -0.466683
v 2.123316 1.497763 -0.389233
v 2.073880 1.214550 -0.148674
v 2.202860 0.961413 0.148674
v 2.460989 0.835045 0.389233
v 2.687557 0.873240 0.461348
v 2.746964 0.882331 0.481119
v 2.764460 0.898228 0.474616
v 2.958641 1.088826 0.389233
v 3.008078 1.372040 0.148674
v 2.879098 1.625176 -0.148674
v 2.620970 1.751545 -0.389233
v 2.569517 0.217196 -0.389233
v 2.864790 0.138396 -0.481119
v 3.140424 0.183619 -0.389233
v 3.291130 0.335591 -0.148674
v 3.259346 0.536264 0.148674
v 3.057213 0.708988 0.389233
v 2.761938 0.787789 0.481119
v 2.486308 0.742566 0.389233
v 2.335600 0.590594 0.148674
v 2.367383 0.389920 -0.148674
vn -0.3285 0.6441 0.6908
vn -0.0488 -0.8303 0.5551
vn -0.9015 -0.2929 0.3185
vn -0.5391 -0.1752 0.8238
vn -0.5882 -0.2997 0.7511
vn -0.8780 -0.4474 0.1703
vn -0.9650 -0.1528 0.2132
vn -0.6139 -0.0972 0.7833
vn -0.3074 -0.0531 0.9501
vn 0.0361 0.0057 0.9993
vn 0.0484 0.0077 0.9988
vn 0.3046 0.0618 0.9505
vn 0.5775 0.1877 0.7945
vn 0.5883 0.2998 0.7510
vn 0.6588 0.1043 0.7450
vn 0.9072 0.2948 0.3003
vn 0.8780 0.4474 0.1702
vn 0.9701 0.1536 0.1880
vn 0.9072 0.2948 -0.3003
vn 0.7981 0.4067 -0.4445
vn 0.9017 0.1428 -0.4081
vn 0.5775 0.1877 -0.7945
vn 0.4441 0.2263 -0.8669
vn 0.5450 0.0863 -0.8340
vn 0.0294 0.0095 -0.9995
vn 0.0250 0.0181 -0.9995
vn 0.2711 0.1523 -0.9504
vn -0.0496 -0.0496 -0.9975
vn 0.0467 0.0074 -0.9989
vn -0.5391 -0.1752 -0.8238
vn -0.4440 -0.2262 -0.8670
vn -0.2757 -0.1458 -0.9501
vn -0.4932 -0.0781 -0.8664
vn -0.9015 -0.2929 -0.3185
vn -0.7981 -0.4067 -0.4446
vn -0.8964 -0.1420 -0.4199
vt 0.640204 0.239972
vt 0.650227 0.239939
vt 0.705424 0.237714
vt 0.810391 0.326557
vt 0.914747 0.472949
vt 0.978631 0.620973
vt 0.977855 0.694054
vt 0.978004 0.713569
vt 0.973008 0.714276
vt 0.912157 0.716730
vt 0.807190 0.627887
vt 0.702834 0.481495
vt 0.638950 0.333471
vt 0.639887 0.245194
vt 0.774004 0.474490
vt 0.863855 0.564865
vt 0.912977 0.668329
vt 0.902607 0.745363
vt 0.836706 0.766543
vt 0.740446 0.723778
vt 0.650596 0.633403
vt 0.601474 0.529939
vt 0.611843 0.452905
vt 0.677744 0.431725
vt 0.639888 0.221263
vt 0.651648 0.229257
vt 0.650582 0.230563
vt 0.632550 0.230321
vt 0.643716 0.214241
vt 0.653140 0.226531
vt 0.660929 0.235529
vt 0.665871 0.232830
vt 0.663696 0.236837
vt 0.660929 0.235529
vt 0.653140 0.226531
vt 0.664311 0.237812
vt 0.675313 0.245199
vt 0.671686 0.249561
vt 0.663696 0.236837
vt 0.665871 0.232830
vt 0.681305 0.234075
vt 0.687112 0.253108
vt 0.675845 0.266636
vt 0.698207 0.232570
vt 0.681305 0.234075
vt 0.698923 0.260974
vt 0.678161 0.285929
vt 0.715380 0.230511
vt 0.370915 0.525028
vt 0.348087 0.504616
vt 0.358634 0.495094
vt 0.388401 0.521647
vt 0.336409 0.465369
vt 0.328502 0.478450
vt 0.388401 0.521647
vt 0.369213 0.485533
vt 0.401174 0.514313
vt 0.400733 0.514893
vt 0.401468 0.514492
vt 0.400733 0.514893
vt 0.347365 0.456529
vt 0.379762 0.475950
vt 0.408232 0.501882
vt 0.402495 0.512553
vt 0.401468 0.514492
vt 0.402495 0.512553
vt 0.361985 0.452515
vt 0.390199 0.466367
vt 0.409219 0.483720
vt 0.361985 0.452515
vt 0.379332 0.451958
vt 0.400590 0.456772
vt 0.408561 0.464078
vt 0.409219 0.483720
vt 0.396128 0.450838
vt 0.379332 0.451958
s 0
usemtl lambert2SG
f 291/284/117 293/285/117 294/286/117 295/287/117 296/288/117 297/289/117 298/290/117 299/291/117 300/292/117 301/293/117 302/294/117 303/295/117 304/296/117 292/297/117
f 306/298/118 307/299/118 308/300/118 309/301/118 310/302/118 311/303/118 312/304/118 313/305/118 314/306/118 305/307/118
s 1
f 257/308/119 258/309/120 273/310/121 268/311/122
f 257/308/119 281/312/123 284/313/124 258/309/120
f 258/309/120 274/314/125 273/310/121
f 290/315/126 275/316/127 274/317/125 258/309/120 284/318/124
f 276/319/128 259/320/129 278/321/130
f 259/320/129 276/319/128 275/322/127 290/323/126 285/324/131
f 278/321/130 259/320/129 260/325/132 277/326/133
f 287/327/134 260/325/132 259/320/129 285/328/131
f 277/326/133 260/325/132 261/329/135 279/330/136
f 286/331/137 261/329/135 260/325/132 287/327/134
f 279/332/136 261/333/135 262/334/138 280/335/139
f 288/336/140 262/334/138 261/333/135 286/337/137
f 280/338/139 262/334/138 263/339/141 264/340/142 272/341/143
f 264/340/142 270/342/144 272/343/143
f 263/339/141 262/334/138 288/336/140 289/344/145
f 264/340/142 263/339/141 265/345/146 269/346/147 271/347/148
f 270/348/144 264/340/142 271/349/148
f 265/345/146 263/339/141 289/344/145 283/350/149
f 265/345/146 266/351/150 267/352/151 269/346/147
f 265/345/146 283/353/149 282/354/152 266/351/150
f 266/351/150 257/355/119 268/356/122 267/357/151
f 281/358/123 257/355/119 266/351/150 282/359/152
o LolipopRing_cell.003
v 1.965217 1.427814 0.148674
v 1.427814 1.965217 0.148674
v 2.106613 1.530545 0.389233
v 1.530545 2.106613 0.389233
v 2.745426 0.892043 0.481119
v 2.335399 1.696767 0.481119
v 1.696767 2.335399 0.481119
v 2.564186 1.862989 0.389233
v 1.862989 2.564185 0.389233
v 2.705583 1.965720 0.148674
v 1.965720 2.705582 0.148674
v 2.705583 1.965720 -0.148674
v 1.965720 2.705582 -0.148674
v 2.564186 1.862989 -0.389233
v 1.862989 2.564186 -0.389233
v 1.696767 2.335399 -0.481119
v 2.106613 1.530545 -0.389233
v 1.530545 2.106613 -0.389233
v 1.965217 1.427813 -0.148674
v 1.427813 1.965216 -0.148674
v 1.270935 2.666683 0.418434
v 1.184620 2.501805 0.481119
v 1.099315 2.246728 0.389233
v 1.346831 2.827180 0.389233
v 1.465168 2.960626 0.148674
v 1.087814 2.075690 0.148674
v 1.527549 2.928841 -0.148674
v 1.273923 2.189994 -0.389233
v 1.478550 2.661421 -0.403335
v 1.408996 2.454117 -0.477125
v 1.400448 2.431679 -0.481119
v 1.510148 2.743967 -0.389233
v 1.154508 2.054018 -0.148674
v 2.072677 1.216910 -0.148674
v 2.201706 0.963678 0.148674
v 2.122120 1.500110 -0.389233
v 2.328439 1.703727 -0.481119
v 2.286190 1.661015 -0.461356
v 2.351606 1.708542 -0.474610
v 2.459921 0.837142 0.389233
v 2.701092 0.877638 0.465973
v 2.746609 0.884570 0.481119
v 2.760089 0.896807 0.476109
v 3.007166 1.373828 0.148674
v 2.957723 1.090628 0.389233
v 2.878138 1.627061 -0.148674
v 2.619924 1.753597 -0.389233
v 1.408996 2.454117 -0.477125
v 1.400448 2.431679 -0.481119
v 1.273923 2.189994 -0.389233
v 1.154508 2.054018 -0.148674
v 1.087814 2.075690 0.148674
v 1.099315 2.246728 0.389233
v 1.184620 2.501805 0.481119
v 1.270935 2.666683 0.418434
v 1.346831 2.827180 0.389233
v 1.465168 2.960626 0.148674
v 1.527549 2.928841 -0.148674
v 1.510148 2.743967 -0.389233
v 1.478550 2.661421 -0.403335
v 2.701092 0.877638 0.465973
v 2.746609 0.884570 0.481119
v 2.459921 0.837142 0.389233
v 2.201706 0.963678 0.148674
v 2.072677 1.216910 -0.148674
v 2.122120 1.500110 -0.389233
v 2.286190 1.661015 -0.461356
v 2.328439 1.703727 -0.481119
v 2.351606 1.708542 -0.474610
v 2.619924 1.753597 -0.389233
v 2.878138 1.627061 -0.148674
v 3.007166 1.373828 0.148674
v 2.957723 1.090628 0.389233
v 2.760089 0.896807 0.476109
vn -0.8955 0.3819 -0.2287
vn 0.3280 -0.6442 -0.6910
vn -0.4440 -0.2262 0.8670
vn -0.4586 -0.3332 0.8238
vn -0.7669 -0.5572 0.3185
vn -0.7981 -0.4067 0.4446
vn -0.4916 -0.8089 0.3225
vn -0.2908 -0.4750 0.8306
vn -0.2913 -0.8964 0.3340
vn -0.1828 -0.5625 0.8063
vn 0.0250 0.0181 0.9995
vn -0.2800 -0.1373 0.9501
vn 0.0294 0.0095 0.9995
vn 0.0188 0.0276 0.9994
vn -0.0094 -0.0404 0.9991
vn -0.0693 -0.0110 0.9975
vn 0.4913 0.3569 0.7945
vn 0.2825 0.1298 0.9504
vn 0.4441 0.2263 0.8670
vn 0.3464 0.4894 0.8003
vn 0.2384 0.5121 0.8252
vn 0.0928 0.2624 0.9605
vn 0.7981 0.4067 0.4446
vn 0.7717 0.5606 0.3003
vn 0.5606 0.7717 0.3003
vn 0.4263 0.8366 0.3441
vn 0.8780 0.4474 -0.1702
vn 0.7717 0.5606 -0.3003
vn 0.5606 0.7717 -0.3003
vn 0.4382 0.8600 -0.2613
vn 0.5883 0.2998 -0.7510
vn 0.4913 0.3569 -0.7945
vn 0.3484 0.4909 -0.7985
vn 0.2632 0.5494 -0.7930
vn 0.2291 0.2101 -0.9505
vn 0.0346 0.0346 -0.9988
vn 0.0219 0.0303 -0.9993
vn -0.0053 -0.0387 -0.9992
vn 0.1028 0.2709 -0.9571
vn -0.4586 -0.3332 -0.8238
vn -0.2236 -0.2175 -0.9501
vn -0.5883 -0.2997 -0.7511
vn -0.2908 -0.4750 -0.8306
vn -0.1963 -0.6043 -0.7722
vn -0.8780 -0.4474 -0.1702
vn -0.7669 -0.5572 -0.3185
vn -0.4916 -0.8089 -0.3225
vn -0.2990 -0.9202 -0.2526
vt 0.890041 0.142144
vt 0.932836 0.180880
vt 0.938237 0.232441
vt 0.904183 0.277132
vt 0.843681 0.297884
vt 0.779841 0.286769
vt 0.750646 0.260344
vt 0.719081 0.239635
vt 0.714223 0.188328
vt 0.750448 0.144651
vt 0.813920 0.125288
vt 0.833033 0.131349
vt 0.884830 0.140522
vt 0.720631 0.697719
vt 0.642036 0.619910
vt 0.557894 0.471861
vt 0.515857 0.325479
vt 0.531983 0.236677
vt 0.585459 0.238794
vt 0.599229 0.238853
vt 0.606779 0.245974
vt 0.694221 0.332542
vt 0.778363 0.480590
vt 0.820399 0.626972
vt 0.804273 0.715774
vt 0.739858 0.713223
vt 0.735465 0.712675
vt 0.650509 0.230654
vt 0.626188 0.260462
vt 0.616313 0.250364
vt 0.632471 0.230418
vt 0.588114 0.273837
vt 0.595118 0.286216
vt 0.572155 0.278821
vt 0.574252 0.292726
vt 0.636065 0.270484
vt 0.661524 0.235932
vt 0.663473 0.237249
vt 0.602581 0.298203
vt 0.577963 0.305919
vt 0.663645 0.236932
vt 0.661524 0.235932
vt 0.646018 0.280428
vt 0.664119 0.237682
vt 0.671626 0.249633
vt 0.610305 0.309528
vt 0.585858 0.322754
vt 0.585666 0.353757
vt 0.577963 0.305919
vt 0.675785 0.266708
vt 0.656089 0.290356
vt 0.618317 0.320771
vt 0.595765 0.334045
vt 0.678095 0.286008
vt 0.666213 0.300290
vt 0.626886 0.332105
vt 0.607394 0.343714
vt 0.595765 0.334045
vt 0.388481 0.521718
vt 0.392698 0.525480
vt 0.384052 0.536775
vt 0.370987 0.525093
vt 0.424712 0.561680
vt 0.431476 0.549178
vt 0.448637 0.556391
vt 0.444956 0.570264
vt 0.400574 0.515104
vt 0.388481 0.521718
vt 0.400574 0.515104
vt 0.401576 0.514557
vt 0.438015 0.536689
vt 0.448637 0.556391
vt 0.452533 0.540128
vt 0.451276 0.535473
vt 0.452939 0.571271
vt 0.409579 0.503109
vt 0.402982 0.511903
vt 0.408329 0.501970
vt 0.402982 0.511903
vt 0.444466 0.524108
vt 0.452533 0.540128
vt 0.457342 0.527133
vt 0.409316 0.483808
vt 0.417963 0.491697
vt 0.408329 0.501970
vt 0.450354 0.511151
vt 0.457342 0.527133
vt 0.463933 0.514326
vt 0.408646 0.464157
vt 0.426199 0.480246
vt 0.455386 0.497609
vt 0.471094 0.501409
vt 0.463933 0.514326
s 0
usemtl lambert2SG
f 363/360/153 364/361/153 365/362/153 366/363/153 367/364/153 368/365/153 369/366/153 370/367/153 371/368/153 372/369/153 373/370/153 374/371/153 362/372/153
f 375/373/154 377/374/154 378/375/154 379/376/154 380/377/154 381/378/154 382/379/154 383/380/154 384/381/154 385/382/154 386/383/154 387/384/154 388/385/154 376/386/154
s 1
f 354/387/155 317/388/156 315/389/157 349/390/158
f 316/391/159 315/389/157 317/388/156 318/392/160
f 340/393/161 316/391/159 318/392/160 337/394/162
f 320/395/163 317/388/156 354/387/155 355/396/164 319/397/165
f 318/392/160 317/388/156 320/395/163 321/398/166
f 337/394/162 318/392/160 321/398/166 336/399/167
f 356/400/168 319/397/165 355/401/164
f 322/402/169 320/395/163 319/397/165 357/403/170 359/404/171
f 321/398/166 320/395/163 322/402/169 323/405/172
f 321/398/166 323/405/172 338/406/173 335/407/174 336/408/167
f 319/397/165 356/400/168 357/403/170
f 358/409/175 324/410/176 322/402/169 359/404/171
f 323/405/172 322/402/169 324/410/176 325/411/177
f 323/405/172 325/411/177 339/412/178 338/406/173
f 360/413/179 326/414/180 324/410/176 358/409/175
f 325/411/177 324/410/176 326/414/180 327/415/181
f 325/411/177 327/415/181 341/416/182 339/417/178
f 361/418/183 328/419/184 326/420/180 360/421/179
f 327/422/181 326/420/180 328/419/184 329/423/185
f 329/423/185 346/424/186 341/425/182 327/422/181
f 353/426/187 328/419/184 361/427/183
f 329/423/185 328/419/184 353/428/187 351/429/188 330/430/189
f 346/431/186 329/423/185 330/430/189 345/432/190 344/433/191 343/434/191
f 331/435/192 352/436/193 350/437/194
f 330/430/189 351/429/188 352/438/193 331/435/192 332/439/195
f 345/440/190 330/430/189 332/439/195 342/441/196
f 348/442/197 333/443/198 331/435/192 350/444/194
f 332/439/195 331/435/192 333/443/198 334/445/199
f 342/446/196 332/439/195 334/445/199 347/447/200
f 349/448/158 315/449/157 333/443/198 348/442/197
f 316/450/159 334/445/199 333/443/198 315/449/157
f 334/445/199 316/450/159 340/451/161 347/452/200
o LolipopRing_cell.004
v -1.965216 -1.427812 0.148674
v -1.427812 -1.965216 0.148674
v -0.750646 -2.310250 0.148674
v -2.106613 -1.530544 0.389233
v -1.530544 -2.106613 0.389233
v -0.804079 -2.474700 0.387371
v -2.335398 -1.696767 0.481119
v -1.696767 -2.335397 0.481119
v -2.564184 -1.862989 0.389233
v -1.862989 -2.564184 0.389233
v -2.705581 -1.965720 0.148674
v -1.965720 -2.705580 0.148674
v -1.033440 -3.180601 0.148674
v -2.705581 -1.965720 -0.148674
v -1.965720 -2.705580 -0.148674
v -1.033440 -3.180601 -0.148674
v -2.564185 -1.862989 -0.389233
v -1.862989 -2.564184 -0.389233
v -0.979431 -3.014379 -0.389233
v -2.335398 -1.696767 -0.481119
v -1.696767 -2.335397 -0.481119
v -0.892043 -2.745426 -0.481119
v -2.106613 -1.530543 -0.389233
v -1.530543 -2.106613 -0.389233
v -0.804655 -2.476472 -0.389233
v -1.965216 -1.427812 -0.148674
v -1.427812 -1.965216 -0.148674
v -0.750645 -2.310250 -0.148674
v -1.185660 -2.595820 0.481119
v -0.835380 -2.571034 0.420730
v -0.994435 -3.060555 0.322406
v -1.156527 -2.924144 0.389233
v -2.748003 -1.882461 -0.148674
v -2.601332 -1.790082 -0.389233
v -2.754499 -1.869711 0.148674
v -2.143724 -1.457708 -0.389233
v -2.370538 -1.627801 -0.481119
v -2.391602 -1.586461 0.481119
v -2.618369 -1.756645 0.389233
v -2.007591 -1.344647 -0.148674
v -2.160800 -1.424197 0.389233
v -2.014120 -1.331833 0.148674
v -1.185660 -2.595820 0.481119
v -0.835380 -2.571034 0.420730
v -0.835380 -2.571034 0.420730
v -0.994435 -3.060555 0.322406
v -0.994435 -3.060555 0.322406
v -1.156527 -2.924144 0.389233
v -2.748003 -1.882461 -0.148674
v -2.601332 -1.790082 -0.389233
v -2.143724 -1.457708 -0.389233
v -2.370538 -1.627801 -0.481119
v -2.754499 -1.869711 0.148674
v -2.160800 -1.424197 0.389233
v -2.014120 -1.331833 0.148674
v -2.007591 -1.344647 -0.148674
v -2.618369 -1.756645 0.389233
v -2.391602 -1.586461 0.481119
v -0.750646 -2.310250 0.148674
v -0.804079 -2.474700 0.387371
v -1.033440 -3.180601 0.148674
v -1.033440 -3.180601 -0.148674
v -0.979431 -3.014379 -0.389233
v -0.892043 -2.745426 -0.481119
v -0.804655 -2.476472 -0.389233
v -0.750645 -2.310250 -0.148674
vn 0.1817 -0.2500 0.9510
vn 0.9511 -0.3090 -0.0000
vn 0.5414 0.2759 0.7942
vn 0.4586 0.3332 0.8238
vn 0.7669 0.5572 0.3185
vn 0.8483 0.4323 0.3058
vn 0.5571 0.7670 0.3183
vn 0.3334 0.4588 0.8236
vn 0.4308 0.8458 0.3146
vn 0.2605 0.5106 0.8194
vn -0.0250 -0.0181 0.9995
vn 0.0281 0.0143 0.9995
vn -0.0178 -0.0247 0.9995
vn 0.1433 0.2795 0.9494
vn 0.0158 0.0300 0.9994
vn -0.4913 -0.3569 0.7945
vn -0.5052 -0.2574 0.8237
vn -0.3569 -0.4913 0.7945
vn -0.3194 -0.6269 0.7106
vn -0.7717 -0.5606 0.3003
vn -0.8432 -0.4296 0.3231
vn -0.5606 -0.7717 0.3003
vn -0.4335 -0.8508 0.2970
vn -0.3688 -0.7239 0.5830
vn -0.7717 -0.5606 -0.3003
vn -0.8481 -0.4321 -0.3067
vn -0.5606 -0.7717 -0.3003
vn -0.4335 -0.8508 -0.2970
vn -0.4913 -0.3569 -0.7945
vn -0.5134 -0.2616 -0.8173
vn -0.3569 -0.4913 -0.7945
vn -0.2778 -0.5453 -0.7908
vn 0.0276 0.0140 -0.9995
vn -0.0250 -0.0181 -0.9995
vn -0.0181 -0.0250 -0.9995
vn -0.0142 -0.0278 -0.9995
vn 0.4586 0.3332 -0.8238
vn 0.5491 0.2798 -0.7876
vn 0.3332 0.4586 -0.8238
vn 0.2595 0.5093 -0.8205
vn 0.8532 0.4347 -0.2883
vn 0.7669 0.5572 -0.3185
vn 0.5572 0.7669 -0.3185
vn 0.4309 0.8457 -0.3149
vn -0.5871 0.8081 -0.0476
vt 0.782554 0.365513
vt 0.934958 0.356428
vt 0.957756 0.318555
vt 0.608567 0.342912
vt 0.361149 0.035877
vt 0.340310 0.028113
vt 0.332984 0.023176
vt 0.745740 0.274643
vt 0.735509 0.283837
vt 0.725157 0.290200
vt 0.714089 0.292836
vt 0.702664 0.291882
vt 0.377432 0.034682
vt 0.365214 0.036412
vt 0.355708 0.121122
vt 0.355101 0.115259
vt 0.369504 0.114797
vt 0.370032 0.120125
vt 0.372906 0.076177
vt 0.358373 0.075205
vt 0.340519 0.115579
vt 0.355708 0.121122
vt 0.341171 0.121427
vt 0.343869 0.073351
vt 0.361149 0.035877
vt 0.350170 0.048935
vt 0.326207 0.115808
vt 0.341171 0.121427
vt 0.326820 0.121261
vt 0.329448 0.070889
vt 0.340386 0.038205
vt 0.350170 0.048935
vt 0.311842 0.115762
vt 0.326820 0.121261
vt 0.312404 0.120731
vt 0.315423 0.067372
vt 0.340310 0.028113
vt 0.340386 0.038205
vt 0.297629 0.115787
vt 0.312404 0.120731
vt 0.298144 0.120352
vt 0.301856 0.063701
vt 0.323674 0.013383
vt 0.742863 0.373165
vt 0.756955 0.375147
vt 0.755837 0.379353
vt 0.741886 0.376816
vt 0.760428 0.325641
vt 0.746406 0.327542
vt 0.727674 0.374738
vt 0.728617 0.371187
vt 0.741886 0.376816
vt 0.731811 0.328912
vt 0.714163 0.368946
vt 0.727674 0.374738
vt 0.713162 0.372833
vt 0.717132 0.329575
vt 0.698748 0.370780
vt 0.699867 0.366304
vt 0.713162 0.372833
vt 0.702271 0.328882
vt 0.684541 0.368528
vt 0.685723 0.363680
vt 0.688133 0.327127
vt 0.690332 0.286820
vt 0.803608 0.532237
vt 0.911893 0.543987
vt 0.408152 0.092868
vt 0.347374 0.315166
vt 0.316835 0.033548
vt 0.261363 0.018988
vt 0.239154 0.079063
vt 0.905324 0.712043
vt 0.799548 0.636101
vt 0.760696 0.567422
s 0
usemtl lambert2SG
f 434/453/201 432/454/201 431/455/201 436/456/201
s 1
f 433/457/202 435/458/202 401/459/202 450/460/202 451/461/202 452/462/202 453/463/202 454/464/202 447/465/202 448/466/202
f 442/467/203 392/468/204 389/469/205 443/470/206
f 390/471/207 389/469/205 392/468/204 393/472/208
f 391/465/209 390/471/207 393/472/208 394/466/210
f 395/473/211 392/468/204 442/474/203 446/475/212
f 393/472/208 392/468/204 395/473/211 396/476/213
f 418/477/214 394/466/210 393/472/208 396/476/213 417/478/215
f 397/479/216 395/473/211 446/480/212 445/481/217
f 396/476/213 395/473/211 397/479/216 398/482/218
f 396/476/213 398/482/218 420/483/219 417/484/215
f 399/485/220 397/479/216 445/486/217 441/487/221
f 398/482/218 397/479/216 399/485/220 400/488/222
f 400/488/222 449/459/223 419/489/224 420/490/219 398/482/218
f 402/491/225 399/485/220 441/492/221 437/493/226
f 400/488/222 399/485/220 402/491/225 403/494/227
f 449/459/223 400/488/222 403/494/227 404/495/228
f 405/496/229 402/497/225 437/498/226 438/499/230
f 403/500/227 402/497/225 405/496/229 406/501/231
f 404/460/228 403/500/227 406/501/231 407/461/232
f 440/502/233 408/503/234 405/496/229 438/504/230
f 406/501/231 405/496/229 408/503/234 409/505/235
f 407/461/232 406/501/231 409/505/235 410/462/236
f 411/506/237 408/503/234 440/507/233 439/508/238
f 409/505/235 408/503/234 411/506/237 412/509/239
f 410/462/236 409/505/235 412/509/239 413/463/240
f 444/510/241 414/511/242 411/506/237 439/512/238
f 412/509/239 411/506/237 414/511/242 415/513/243
f 413/463/240 412/509/239 415/513/243 416/464/244
f 443/514/206 389/515/205 414/511/242 444/510/241
f 390/516/207 415/513/243 414/511/242 389/515/205
f 416/464/244 415/513/243 390/516/207 391/517/209
s 0
f 430/518/245 428/519/245 424/520/245 425/521/245 422/522/245 421/523/245 423/524/245 427/525/245 426/526/245 429/527/245
o LolipopRing_cell.005
v 2.260265 6.021525 0.842857
v 2.572744 6.112578 1.069560
v -1.423983 5.365993 -0.228670
v 1.427237 8.179480 -0.997917
v 0.526947 8.179480 -1.652015
v -0.585872 8.179480 -1.652015
v -1.486161 8.179480 -0.997917
v -1.830041 8.179480 0.060437
v -1.486161 8.179480 1.118791
v -0.585872 8.179480 1.772889
v 0.526947 8.179480 1.772889
v 1.427236 8.179480 1.118791
v 1.771116 8.179480 0.060437
v 2.832519 6.622312 2.139787
v 1.063718 6.622312 3.424897
v -1.122643 6.622312 3.424897
v -2.891444 6.622312 2.139788
v -3.567073 6.622312 0.060437
v -2.891444 6.622312 -2.018913
v -1.239547 6.622312 -3.219088
v -1.080746 6.743856 -3.175076
v 0.713546 7.638159 -2.226305
v 1.797683 7.768995 -1.267062
v 3.149523 6.622312 1.164159
v 2.715370 7.333000 0.060437
v -1.222549 5.766953 -2.395692
v 2.903651 6.336070 1.188667
v -2.151697 5.323918 -0.974334
v -2.079387 5.414630 -1.428920
v -2.743159 5.631012 0.060437
v -2.437697 5.947506 1.810122
v -1.924837 5.944808 2.180100
v 2.836576 6.258091 1.195632
v 2.743910 6.490533 2.075408
v 2.396755 6.400315 2.239481
v 1.047664 6.559804 3.375487
v -1.037887 6.292312 3.164042
v -1.239547 6.622312 -3.219088
v -1.080746 6.743856 -3.175076
v -1.080746 6.743856 -3.175076
v 0.713546 7.638159 -2.226305
v 0.713546 7.638159 -2.226305
v 1.797683 7.768995 -1.267062
v 1.797683 7.768995 -1.267062
v 2.715370 7.333000 0.060437
v 2.715370 7.333000 0.060437
v 3.149523 6.622312 1.164159
v -1.222549 5.766953 -2.395692
v 2.903651 6.336070 1.188667
v -2.151697 5.323918 -0.974334
v -2.079387 5.414630 -1.428920
v -2.079387 5.414630 -1.428920
v -2.437697 5.947506 1.810122
v -2.437697 5.947506 1.810122
v -1.924837 5.944808 2.180100
v -2.743159 5.631012 0.060437
v -2.743159 5.631012 0.060437
v 2.836576 6.258091 1.195632
v 2.743910 6.490533 2.075408
v 2.743910 6.490533 2.075408
v 2.396755 6.400315 2.239481
v 1.047664 6.559804 3.375487
v 1.047664 6.559804 3.375487
v -1.037887 6.292312 3.164042
v -1.037887 6.292312 3.164042
v -2.891444 6.622312 -2.018913
v -3.567073 6.622312 0.060437
v -2.891444 6.622312 2.139788
v -1.122643 6.622312 3.424897
v 1.063718 6.622312 3.424897
v 2.832519 6.622312 2.139787
v 1.427237 8.179480 -0.997917
v 1.427237 8.179480 -0.997917
v 0.526947 8.179480 -1.652015
v 0.526947 8.179480 -1.652015
v -0.585872 8.179480 -1.652015
v -0.585872 8.179480 -1.652015
v -1.486161 8.179480 -0.997917
v -1.486161 8.179480 -0.997917
v -1.830041 8.179480 0.060437
v -1.830041 8.179480 0.060437
v -1.486161 8.179480 1.118791
v -1.486161 8.179480 1.118791
v -0.585872 8.179480 1.772889
v -0.585872 8.179480 1.772889
v 0.526947 8.179480 1.772889
v 0.526947 8.179480 1.772889
v 1.427236 8.179480 1.118791
v 1.427236 8.179480 1.118791
v 1.771116 8.179480 0.060437
v 1.771116 8.179480 0.060437
vn 0.2174 -0.9632 -0.1580
vn -0.1503 -0.9679 0.2013
vn 0.3610 -0.8915 0.2736
vn 0.5877 -0.5579 -0.5860
vn -0.0000 1.0000 -0.0000
vn -0.5867 0.0617 -0.8075
vn -0.5562 0.3235 -0.7655
vn -0.4611 -0.6201 -0.6347
vn -0.7461 -0.6201 -0.2424
vn -0.9492 0.0617 -0.3084
vn -0.9492 0.0617 0.3084
vn -0.7461 -0.6201 0.2424
vn -0.5867 0.0617 0.8075
vn -0.4611 -0.6201 0.6347
vn -0.0000 -0.6201 0.7845
vn -0.0000 0.0617 0.9981
vn 0.4611 -0.6201 0.6347
vn 0.5867 0.0617 0.8075
vn 0.7461 -0.6201 0.2424
vn 0.9028 0.3144 0.2933
vn 0.9492 0.0617 0.3084
vn 0.0981 -0.9628 0.2517
vn 0.5878 -0.5550 -0.5886
vn 0.6523 0.7277 -0.2120
vn 0.6523 0.7277 0.2120
vn 0.4032 0.7277 0.5549
vn -0.0000 0.7277 0.6859
vn -0.4032 0.7277 0.5549
vn -0.6523 0.7277 0.2120
vn -0.6523 0.7277 -0.2120
vn -0.4032 0.7277 -0.5549
vn -0.0000 0.7277 -0.6859
vn 0.4032 0.7277 -0.5549
vt 0.804453 0.627457
vt 0.771685 0.771685
vt 0.000000 0.000000
vt 1.000000 0.000000
vt 1.000000 0.331875
vt 0.906812 0.221733
vt 0.838607 0.473347
vt 0.331875 0.331875
vt 0.650456 0.000000
vt 1.000000 0.267815
vt 0.641532 0.305390
vt 0.513531 0.000000
vt 1.000000 0.495825
vt 0.267815 0.267815
vt 0.210610 0.588308
vt 0.278105 0.825982
vt 0.332218 0.814009
vt 0.828864 0.302933
vt 0.880759 0.292264
vt 0.625901 0.851050
vt 0.679770 0.838436
vt 0.761558 0.639473
vt 0.813511 0.629297
vt 0.156769 0.600968
vt 0.814857 0.526898
vt 0.720507 0.528483
vt 0.751590 0.476085
vt 0.814268 0.454979
vt 0.891645 0.466103
vt 0.914197 0.527584
vt 0.814268 0.454979
vt 0.834185 0.448939
vt 0.209270 0.485918
vt 0.109930 0.486599
vt 0.132477 0.425118
vt 0.209596 0.445736
vt 0.310304 0.487605
vt 0.209596 0.445736
vt 0.238981 0.445591
vt 0.302937 0.467072
vt 0.332679 0.709067
vt 0.332704 0.712815
vt 0.232342 0.712092
vt 0.239836 0.691856
vt 0.429098 0.704431
vt 0.432090 0.712613
vt 0.332679 0.709067
vt 0.410915 0.698941
vt 0.825219 0.167977
vt 0.825572 0.172703
vt 0.826807 0.190011
vt 0.779117 0.190701
vt 0.782213 0.182526
vt 0.486469 0.000000
vt 0.268765 0.026737
vt 0.752201 0.083840
vt 1.000000 0.349543
vt 1.000000 1.000000
vt 0.480782 0.144988
vt 0.978286 0.070273
vt 0.504175 0.000000
vt 1.000000 0.771685
vt 0.672795 0.633271
vt 0.637806 0.585377
vt 0.563572 0.232962
vt 0.793238 0.181385
vt 0.945769 0.273347
vt 0.932655 0.302932
vt 0.880759 0.236255
vt 0.386194 0.826275
vt 0.308064 0.712637
vt 0.262549 0.598499
vt 0.867349 0.641956
vt 0.717555 0.537250
vt 0.720507 0.528483
vt 0.754710 0.737306
vt 0.679325 0.802856
vt 0.777576 0.737672
vt 0.679325 0.802856
vt 0.613584 0.820867
s 0
usemtl lambert2SG
f 505/528/246 502/529/246 455/530/246 457/531/246 504/532/246
f 507/533/247 510/534/247 504/535/247 457/530/247 509/536/247
f 456/531/248 512/537/248 513/538/248 515/539/248
f 456/530/249 455/531/249 503/540/249 512/541/249
s 1
f 536/542/250 538/543/250 540/544/250 542/545/250 544/546/250 526/547/250 528/548/250 530/549/250 532/550/250 534/551/250
f 520/552/251 474/553/252 480/554/253 506/555/253
f 511/556/254 521/557/255 473/552/255 483/558/254 482/559/254
f 522/560/256 472/561/256 484/562/257 508/563/257
f 523/564/258 471/560/258 485/565/259 486/566/259 519/567/259
f 516/568/260 524/569/261 470/570/261 518/571/260
f 514/572/262 525/573/263 469/569/263 517/574/262 489/575/262
f 487/576/264 481/577/264 478/578/265 468/579/266 488/580/264
s 0
f 456/530/267 515/581/267 490/582/267 491/583/267 509/584/267 457/531/267 455/585/267
f 499/586/268 501/587/268 503/588/268 455/531/268 502/589/268 492/590/268 493/591/268 495/592/268 497/593/268
s 1
f 498/594/269 527/595/269 545/546/269 500/596/269
f 479/596/270 467/546/270 543/545/270 468/579/266 478/578/265
f 469/569/263 525/573/263 466/597/271 541/544/271
f 470/570/261 524/569/261 465/598/272 539/543/272
f 471/560/258 523/564/258 464/599/273 537/542/273
f 472/561/256 522/560/256 463/542/274 535/551/274
f 473/552/255 521/557/255 462/600/275 533/550/275
f 520/552/251 461/550/276 531/549/276 494/601/276 474/602/252
f 460/603/277 529/548/277 496/604/277 475/605/277
f 476/606/278 459/548/278 458/547/278 477/607/278
o LolipopRing_cell.006
v 0.804655 -2.476472 0.389233
v 1.530543 -2.106613 0.389233
v 2.106613 -1.530543 0.389233
v 0.892043 -2.745426 0.481119
v 1.696766 -2.335397 0.481119
v 2.335397 -1.696766 0.481119
v 0.979430 -3.014379 0.389233
v 1.862988 -2.564184 0.389233
v 2.564183 -1.862989 0.389233
v 1.033440 -3.180601 0.148674
v 1.965720 -2.705580 0.148674
v 2.705580 -1.965720 0.148674
v 0.757879 -2.332514 0.180895
v 1.033440 -3.180601 -0.094736
v 1.965720 -2.705580 -0.147918
v 1.428098 -1.965610 0.149344
v 1.984246 -1.441638 0.181049
v 2.172062 -1.141382 0.224294
v 2.705580 -1.965720 -0.094506
v 2.943883 -1.498025 -0.016801
v 2.289150 -1.172295 0.389233
v 2.949472 -1.487056 0.099208
v 2.340501 -1.192105 0.407244
v 2.551063 -1.273499 0.481119
v 2.804180 -1.391969 0.389233
v 2.951835 -1.482418 0.148674
v 1.033440 -3.180601 -0.094736
v 1.033440 -3.180601 -0.094736
v 1.965720 -2.705580 -0.147918
v 0.757879 -2.332514 0.180895
v 0.757879 -2.332514 0.180895
v 1.428098 -1.965610 0.149344
v 2.705580 -1.965720 -0.094506
v 1.984246 -1.441638 0.181049
v 2.172062 -1.141382 0.224294
v 2.943883 -1.498025 -0.016801
v 2.949472 -1.487056 0.099208
v 2.289150 -1.172295 0.389233
v 2.340501 -1.192105 0.407244
v 2.804180 -1.391969 0.389233
v 2.951835 -1.482418 0.148674
v 2.551063 -1.273499 0.481119
v 0.804655 -2.476472 0.389233
v 0.892043 -2.745426 0.481119
v 0.979430 -3.014379 0.389233
v 1.033440 -3.180601 0.148674
vn 0.3898 0.9148 -0.1053
vn 0.3902 0.9148 -0.1044
vn -0.2595 0.5093 0.8205
vn -0.3332 0.4586 0.8238
vn -0.4755 0.6545 0.5878
vn -0.3688 0.7239 0.5830
vn -0.4586 0.3332 0.8238
vn -0.6498 0.4820 0.5878
vn -0.7239 0.3688 0.5830
vn -0.5102 0.2600 0.8198
vn 0.0142 -0.0278 0.9995
vn 0.0181 -0.0250 0.9995
vn 0.0250 -0.0181 0.9995
vn 0.0123 -0.0063 0.9999
vn -0.2784 0.1419 0.9499
vn 0.2778 -0.5453 0.7908
vn 0.3569 -0.4913 0.7945
vn 0.4913 -0.3569 0.7945
vn 0.5261 -0.2681 0.8071
vn 0.4335 -0.8508 0.2970
vn 0.5606 -0.7717 0.3003
vn 0.7717 -0.5606 0.3003
vn 0.8438 -0.4299 0.3211
vn 0.4540 -0.8910 -0.0000
vn 0.5878 -0.8090 -0.0000
vn 0.8029 -0.5961 -0.0000
vn 0.8910 -0.4540 -0.0000
vn -0.9511 -0.3090 -0.0000
vn -0.1815 0.2502 -0.9510
vt 1.000000 0.837058
vt 0.835397 0.835397
vt 0.628576 0.628576
vt 0.939074 0.660230
vt 1.000000 0.674038
vt 0.856176 0.832941
vt 0.837058 0.837058
vt 0.674038 0.674038
vt 0.796226 0.713494
vt 0.877174 0.777864
vt 0.676466 0.036665
vt 0.683102 0.075469
vt 0.668536 0.076404
vt 0.665791 0.035105
vt 0.686837 0.115387
vt 0.674436 0.115037
vt 0.675235 0.132741
vt 0.674436 0.115037
vt 0.684803 0.135145
vt 0.687819 0.035186
vt 0.697743 0.073570
vt 0.701296 0.115759
vt 0.684803 0.135146
vt 0.698855 0.138177
vt 0.687561 0.135843
vt 0.698458 0.030148
vt 0.712134 0.071070
vt 0.715637 0.115917
vt 0.698855 0.138177
vt 0.713015 0.140086
vt 0.708566 0.023105
vt 0.726071 0.067405
vt 0.730009 0.115789
vt 0.713015 0.140086
vt 0.727262 0.140820
vt 0.715542 0.015443
vt 0.739855 0.063344
vt 0.739855 0.063344
vt 0.741692 0.115641
vt 0.727262 0.140820
vt 0.741692 0.115641
vt 0.735209 0.140694
vt 0.729638 0.140779
vt 0.715542 0.015443
vt 0.910450 0.511811
vt 0.578230 0.267202
vt 0.628576 0.000000
vt 0.835397 0.000000
vt 0.771515 0.398902
vt 0.864081 0.698647
vt 0.656291 0.640552
vt 0.756904 0.473890
s 0
usemtl lambert2SG
f 582/608/279 581/609/279 563/610/279 583/611/279 584/612/279
f 586/613/280 582/614/280 584/615/280 587/616/280 585/617/280
s 1
f 588/618/281 547/619/282 577/620/283 576/621/284
f 577/620/283 547/619/282 548/622/285 579/623/286
f 580/624/287 579/625/286 548/622/285 566/626/288
f 547/619/282 588/618/281 589/627/289 550/628/290
f 548/622/285 547/619/282 550/628/290 551/629/291
f 566/630/288 548/622/285 551/629/291 569/631/292 568/632/293
f 550/628/290 589/627/289 590/633/294 553/634/295
f 551/629/291 550/628/290 553/634/295 554/635/296
f 569/636/292 551/629/291 554/635/296 570/637/297
f 553/634/295 590/633/294 591/638/298 556/639/299
f 554/635/296 553/634/295 556/639/299 557/640/300
f 570/641/297 554/635/296 557/640/300 571/642/301
f 556/639/299 591/638/298 572/643/302 574/644/303
f 557/640/300 556/639/299 574/645/303 578/646/304
f 571/647/301 557/640/300 578/648/304 565/649/305 567/650/305
f 575/621/306 573/651/306 555/638/306 552/633/306 549/627/306 546/618/306
s 0
f 561/652/307 562/653/307 563/654/307 581/655/307 564/656/307 560/657/307 559/658/307 558/659/307
o LolipopRing_cell.007
v 2.262929 6.021015 0.842513
v 2.573404 6.111404 1.067453
v 2.561138 5.960205 0.862805
v 2.832519 6.622312 -2.018914
v 3.508148 6.622312 0.060437
v -1.122643 6.622312 -3.304023
v 1.063718 6.622312 -3.304024
v -1.221331 5.781375 -2.410668
v -1.081306 6.742230 -3.176801
v -1.238004 6.622312 -3.220208
v 0.713980 7.636899 -2.227643
v 3.150379 6.622312 1.161526
v 2.835780 6.256073 1.192918
v 1.798854 7.767697 -1.267913
v 2.717224 7.331338 0.060437
v -1.177456 5.751721 -2.413571
v -0.871674 5.645160 -2.531618
v 0.726944 5.363724 -2.287924
v -0.622678 5.604865 -2.482605
v 0.989879 5.357710 -2.122067
v 2.715451 5.668571 0.060437
v 1.986162 5.363621 -1.404000
v -1.221028 5.766948 -2.396793
v 2.773150 6.107833 1.006478
v 2.682082 5.891882 0.734356
v -1.081306 6.742230 -3.176801
v -1.081306 6.742230 -3.176801
v -1.238004 6.622312 -3.220208
v -1.221331 5.781375 -2.410668
v 0.713980 7.636899 -2.227643
v 0.713980 7.636899 -2.227643
v 3.150379 6.622312 1.161526
v 2.835780 6.256073 1.192918
v 1.798854 7.767697 -1.267913
v 1.798854 7.767697 -1.267913
v 2.717224 7.331338 0.060437
v 2.717224 7.331338 0.060437
v -1.177456 5.751721 -2.413571
v -0.871674 5.645160 -2.531618
v -0.871674 5.645160 -2.531618
v -0.622678 5.604865 -2.482605
v 0.726944 5.363724 -2.287924
v 0.726944 5.363724 -2.287924
v 0.989879 5.357710 -2.122067
v 1.986162 5.363621 -1.404000
v 1.986162 5.363621 -1.404000
v 2.715451 5.668571 0.060437
v 2.715451 5.668571 0.060437
v -1.221028 5.766948 -2.396793
v 2.773150 6.107833 1.006478
v 2.682082 5.891882 0.734356
v 1.063718 6.622312 -3.304024
v 2.832519 6.622312 -2.018914
v -1.122643 6.622312 -3.304023
v 3.508148 6.622312 0.060437
vn -0.5877 0.5550 0.5886
vn -0.2102 -0.9308 0.2990
vn -0.5881 0.5542 0.5891
vn 0.1628 -0.7982 0.5800
vn -0.1997 -0.7823 0.5900
vn 0.1638 -0.7987 0.5790
vn 0.4561 -0.6218 -0.6367
vn 0.5838 0.0603 -0.8097
vn 0.5838 0.0606 -0.8097
vn 0.0021 0.0570 -0.9984
vn 0.0021 0.0592 -0.9982
vn 0.0031 -0.6272 -0.7788
vn -0.4611 -0.6201 -0.6347
vn -0.5758 -0.2010 -0.7925
vn -0.5867 0.0617 -0.8075
vn 0.7461 -0.6201 0.2424
vn 0.9492 0.0617 0.3084
vn 0.9208 -0.2502 0.2992
vn 0.7461 -0.6201 -0.2424
vn 0.9492 0.0617 -0.3084
vn 0.6523 0.7277 -0.2120
vn 0.6523 0.7277 0.2120
vn -0.4032 0.7277 -0.5549
vn -0.0000 0.7277 -0.6859
vn 0.4032 0.7277 -0.5549
vn -0.2094 -0.9312 0.2982
vt 0.706910 0.515415
vt 0.979190 0.724368
vt 0.447359 0.407294
vt 0.391898 0.361661
vt 0.213275 0.000000
vt 0.000000 0.000000
vt 0.266574 0.000000
vt 0.779555 0.055764
vt 0.429913 0.246305
vt 0.777062 0.777062
vt 1.000000 0.000000
vt 1.000000 0.771985
vt 0.771986 0.771986
vt 1.000000 0.786725
vt 1.000000 0.733426
vt 1.000000 1.000000
vt 0.212753 0.000000
vt 0.121324 0.000000
vt 0.212753 0.212753
vt 0.666403 0.661605
vt 0.679481 0.660404
vt 0.678491 0.736087
vt 0.579177 0.736550
vt 0.608065 0.658535
vt 0.779512 0.737703
vt 0.679482 0.660404
vt 0.768536 0.799232
vt 0.757589 0.676912
vt 0.750978 0.476964
vt 0.720419 0.528484
vt 0.713830 0.528595
vt 0.735637 0.467797
vt 0.749539 0.475083
vt 0.751502 0.476083
vt 0.880759 0.132056
vt 0.880759 0.189231
vt 0.826936 0.190009
vt 0.825352 0.167853
vt 0.834453 0.158779
vt 0.847750 0.145619
vt 0.952832 0.112619
vt 0.982402 0.190701
vt 0.880759 0.132056
vt 0.880759 0.236145
vt 0.945810 0.273253
vt 0.880759 0.236145
vt 0.717506 0.537134
vt 0.679324 0.802773
vt 0.777602 0.737672
vt 0.613545 0.820771
vt 0.815826 0.006097
vt 0.878676 0.000000
vt 1.000000 0.777062
vt 0.924173 0.729221
vt 0.890937 0.684356
vt 0.696848 0.444065
vt 0.684164 0.392043
vt 0.653709 0.191279
s 0
usemtl lambert2SG
f 625/660/308 621/661/308 617/662/308 619/663/308 620/664/308 593/665/308 624/666/308 623/667/308 627/668/308
f 629/669/309 594/665/309 592/670/309 640/671/309
f 640/672/310 592/665/310 593/670/310 620/673/310
f 624/674/311 593/675/311 594/665/311 641/676/311
f 594/670/312 593/675/312 592/665/312
f 642/677/313 641/678/313 594/665/313
s 1
f 635/679/314 634/680/314 643/681/315 644/682/316 636/683/314
f 645/684/317 598/681/318 633/685/319 632/686/319 631/687/319
f 599/688/320 601/689/321 597/690/322 630/691/320 607/692/320 614/693/320
f 639/694/323 646/695/324 603/696/325 604/697/323 615/698/323 616/699/323
f 637/700/326 595/701/327 596/695/327 638/702/326
f 628/703/328 596/695/327 595/701/327 626/704/328
f 603/696/325 646/695/324 606/705/329
f 618/706/330 597/690/322 601/689/321
f 622/707/331 598/681/318 645/684/317 600/708/331
f 605/709/332 644/682/316 643/681/315 602/707/332
s 0
f 612/710/333 642/711/333 594/670/333 629/712/333 608/713/333 610/714/333 609/715/333 611/716/333 613/717/333
o LolipopRing_cell.008
v -1.427813 1.965216 0.148674
v -1.965216 1.427813 0.148674
v -2.310250 0.750646 0.148674
v -2.429141 0.000000 0.148674
v -2.310250 -0.750646 0.148674
v -1.424578 5.363412 -0.229206
v -1.530545 2.106613 0.389233
v -2.106613 1.530544 0.389233
v -2.476473 0.804655 0.389233
v -2.603918 0.000000 0.389233
v -2.476473 -0.804655 0.389233
v -1.696767 2.335398 0.481119
v -2.335398 1.696767 0.481119
v -2.745426 0.892043 0.481119
v -2.886711 0.000000 0.481119
v -2.745426 -0.892043 0.481119
v -1.862989 2.564185 0.389233
v -2.564185 1.862989 0.389233
v -3.014379 0.979431 0.389233
v -3.169506 0.000000 0.389233
v -3.014379 -0.979431 0.389233
v -1.033441 3.180602 0.148674
v -1.965720 2.705581 0.148674
v -2.705581 1.965720 0.148674
v -3.180601 1.033440 0.148674
v -3.344283 0.000000 0.148674
v -3.180601 -1.033440 0.148674
v -1.033441 3.180602 -0.148674
v -1.965720 2.705581 -0.148674
v -2.705581 1.965720 -0.148674
v -3.180601 1.033440 -0.148674
v -3.344283 0.000000 -0.148674
v -3.180601 -1.033440 -0.148674
v -0.979432 3.014379 -0.389233
v -1.862989 2.564185 -0.389233
v -2.564185 1.862989 -0.389233
v -3.014379 0.979431 -0.389233
v -3.169507 0.000000 -0.389233
v -3.014379 -0.979431 -0.389233
v -1.696767 2.335398 -0.481119
v -2.335398 1.696767 -0.481119
v -2.745426 0.892043 -0.481119
v -2.886711 0.000000 -0.481119
v -2.745426 -0.892043 -0.481119
v -1.530544 2.106613 -0.389233
v -2.106613 1.530544 -0.389233
v -2.476473 0.804655 -0.389233
v -2.603917 0.000000 -0.389233
v -2.476473 -0.804655 -0.389233
v -1.427813 1.965216 -0.148674
v -1.965216 1.427813 -0.148674
v -2.310250 0.750645 -0.148674
v -2.429141 0.000000 -0.148674
v -2.310250 -0.750645 -0.148674
v -1.033441 3.296565 -0.148674
v -0.979432 3.296564 -0.389233
v -2.250759 3.296563 1.365857
v -2.603034 3.296566 0.093659
v -2.302725 3.296566 -1.229086
v -2.250759 3.741628 1.365858
v -2.603033 3.741631 0.093661
v -2.302725 3.741631 -1.229086
v -1.172806 3.741629 0.060437
v -2.748762 -1.880972 -0.148674
v -2.602081 -1.788613 -0.389233
v -2.755304 -1.868133 0.148674
v -2.392466 -1.584764 0.481119
v -2.619215 -1.754985 0.389233
v -2.144521 -1.456145 -0.389233
v -2.014982 -1.330141 0.148674
v -2.008431 -1.342997 -0.148674
v -2.161670 -1.422488 0.389233
v -2.371269 -1.626366 -0.481119
v -0.949506 2.578198 0.481119
v -0.971532 2.718516 0.433201
v -1.033441 3.224787 0.148674
v -1.142920 3.741629 0.152415
v -1.022343 2.992515 0.389233
v -0.984011 2.786503 0.421476
v -1.024593 3.153372 0.188081
v -0.810338 2.165846 0.148674
v -0.880216 2.317918 0.389233
v -0.963782 3.296564 -0.390325
v -0.766564 2.180069 -0.148674
v -1.033441 3.296565 0.052532
v -1.086834 3.741629 -0.204154
v -0.839056 2.741451 -0.439735
v -0.807849 2.624225 -0.481119
v -1.039718 3.868448 -0.673557
v -1.055226 4.109432 -0.897748
v -0.815801 3.296564 -1.331118
v -0.946892 3.741629 -1.093837
v -0.857435 2.818518 -0.426119
v -0.765613 2.355155 -0.389233
v -0.904015 3.015996 -0.394495
v -1.337837 3.296563 1.987329
v -1.422555 3.741628 1.929658
v -1.443224 4.468538 1.087596
v -1.925201 5.941989 2.177082
v -2.435814 5.944706 1.808754
v -2.741210 5.628668 0.060437
v -2.150585 5.321894 -0.972578
v -1.689455 3.741630 -1.819453
v -1.501099 3.296564 -2.000775
v -1.459055 4.492080 -0.978223
v -2.748762 -1.880972 -0.148674
v -2.602081 -1.788613 -0.389233
v -2.014982 -1.330141 0.148674
v -2.161670 -1.422488 0.389233
v -2.392466 -1.584764 0.481119
v -2.619215 -1.754985 0.389233
v -2.755304 -1.868133 0.148674
v -2.371269 -1.626366 -0.481119
v -2.144521 -1.456145 -0.389233
v -2.008431 -1.342997 -0.148674
v -1.033441 3.224787 0.148674
v -1.033441 3.296565 0.052532
v -1.033441 3.296565 0.052532
v -1.024593 3.153372 0.188081
v -1.024593 3.153372 0.188081
v -1.022343 2.992515 0.389233
v -0.984011 2.786503 0.421476
v -0.971532 2.718516 0.433201
v -0.949506 2.578198 0.481119
v -0.880216 2.317918 0.389233
v -0.810338 2.165846 0.148674
v -0.766564 2.180069 -0.148674
v -0.765613 2.355155 -0.389233
v -0.807849 2.624225 -0.481119
v -0.839056 2.741451 -0.439735
v -0.857435 2.818518 -0.426119
v -0.904015 3.015996 -0.394495
v -0.904015 3.015996 -0.394495
v -0.963782 3.296564 -0.390325
v -0.963782 3.296564 -0.390325
v -0.815801 3.296564 -1.331118
v -1.086834 3.741629 -0.204154
v -1.086834 3.741629 -0.204154
v -0.946892 3.741629 -1.093837
v -1.039718 3.868448 -0.673557
v -1.039718 3.868448 -0.673557
v -1.055226 4.109432 -0.897748
v -1.337837 3.296563 1.987329
v -1.337837 3.296563 1.987329
v -1.142920 3.741629 0.152415
v -1.142920 3.741629 0.152415
v -1.443224 4.468538 1.087596
v -1.443224 4.468538 1.087596
v -1.925201 5.941989 2.177082
v -1.422555 3.741628 1.929658
v -1.422555 3.741628 1.929658
v -2.435814 5.944706 1.808754
v -2.435814 5.944706 1.808754
v -2.741210 5.628668 0.060437
v -2.741210 5.628668 0.060437
v -2.150585 5.321894 -0.972578
v -1.459055 4.492080 -0.978223
v -1.459055 4.492080 -0.978223
v -1.689455 3.741630 -1.819453
v -1.689455 3.741630 -1.819453
v -1.501099 3.296564 -2.000775
v -1.501099 3.296564 -2.000775
v -1.033441 3.180602 0.148674
v -1.033441 3.180602 -0.148674
v -0.979432 3.014379 -0.389233
v -0.979432 3.296564 -0.389233
v -1.033441 3.296565 -0.148674
v -2.250759 3.296563 1.365857
v -2.250759 3.296563 1.365857
v -2.603034 3.296566 0.093659
v -2.302725 3.296566 -1.229086
v -2.250759 3.741628 1.365858
v -2.250759 3.741628 1.365858
v -2.603033 3.741631 0.093661
v -2.302725 3.741631 -1.229086
v -1.172806 3.741629 0.060437
v -1.172806 3.741629 0.060437
vn -0.0000 -1.0000 -0.0000
vn 0.9671 0.2038 0.1522
vn 0.5872 -0.8080 0.0479
vn 0.6027 0.5063 -0.6168
vn 0.2908 -0.4750 0.8306
vn 0.4916 -0.8089 0.3225
vn 0.2969 -0.9137 0.2774
vn 0.1868 -0.5750 0.7965
vn 0.7669 -0.5572 0.3185
vn 0.4586 -0.3332 0.8238
vn 0.9015 -0.2929 0.3185
vn 0.5391 -0.1752 0.8238
vn 0.9479 -0.0000 0.3185
vn 0.5669 -0.0000 0.8238
vn 0.9015 0.2929 0.3185
vn 0.5391 0.1752 0.8238
vn 0.8481 0.4321 0.3066
vn 0.5134 0.2616 0.8173
vn -0.0004 -0.0171 0.9999
vn -0.0175 0.0208 0.9996
vn -0.0250 0.0181 0.9995
vn -0.0294 0.0095 0.9995
vn -0.0309 -0.0000 0.9995
vn -0.0294 -0.0095 0.9995
vn -0.0276 -0.0141 0.9995
vn -0.2694 0.5575 0.7852
vn -0.3461 0.4849 0.8032
vn -0.0890 0.2407 0.9665
vn -0.4913 0.3569 0.7945
vn -0.5775 0.1877 0.7945
vn -0.6073 -0.0000 0.7945
vn -0.5775 -0.1877 0.7945
vn -0.5491 -0.2798 0.7875
vn -0.5607 0.7717 0.3003
vn -0.3688 0.7239 0.5830
vn -0.4335 0.8508 0.2970
vn -0.7717 0.5606 0.3003
vn -0.9072 0.2948 0.3003
vn -0.9538 -0.0000 0.3003
vn -0.9072 -0.2948 0.3003
vn -0.8532 -0.4347 0.2882
vn -0.4335 0.8508 -0.2970
vn -0.5607 0.7717 -0.3003
vn -0.7717 0.5606 -0.3003
vn -0.9072 0.2948 -0.3003
vn -0.9538 -0.0000 -0.3003
vn -0.9072 -0.2948 -0.3003
vn -0.8483 -0.4322 -0.3058
vn -0.2071 0.4471 -0.8702
vn -0.3460 0.4837 -0.8040
vn -0.4913 0.3569 -0.7945
vn -0.5775 0.1877 -0.7945
vn -0.6073 -0.0000 -0.7945
vn -0.5775 -0.1877 -0.7945
vn -0.5414 -0.2759 -0.7942
vn -0.0003 -0.0193 -0.9998
vn -0.0172 0.0189 -0.9997
vn -0.0880 0.2347 -0.9681
vn -0.0250 0.0181 -0.9995
vn -0.0294 0.0095 -0.9995
vn -0.0309 -0.0000 -0.9995
vn -0.0294 -0.0095 -0.9995
vn -0.0281 -0.0143 -0.9995
vn 0.1775 -0.5464 -0.8185
vn 0.2908 -0.4750 -0.8306
vn 0.4586 -0.3332 -0.8238
vn 0.5391 -0.1752 -0.8238
vn 0.5669 -0.0000 -0.8238
vn 0.5391 0.1752 -0.8238
vn 0.5051 0.2574 -0.8238
vn 0.4916 -0.8089 -0.3225
vn 0.2918 -0.8980 -0.3294
vn 0.7669 -0.5572 -0.3185
vn 0.9015 -0.2929 -0.3185
vn 0.9479 -0.0000 -0.3185
vn 0.9015 0.2929 -0.3185
vn 0.8432 0.4296 -0.3232
vn -0.0696 -0.0000 -0.9976
vn -0.5166 -0.0000 -0.8562
vn -0.6517 -0.0000 -0.7585
vn -0.9918 -0.0000 0.1277
vn -0.9757 -0.0000 0.2191
vn -0.9991 -0.0000 0.0415
vn -1.0000 -0.0000 -0.0000
vn -0.9939 -0.0000 -0.1102
vn -0.9918 -0.0000 -0.1277
vn 0.1506 0.9679 -0.2013
vn -0.5627 -0.0000 0.8266
vn -0.9997 -0.0000 0.0234
vn -0.9637 -0.0000 0.2669
vn -0.8709 -0.0000 -0.4915
vn -0.6935 -0.0000 -0.7204
vn 0.6026 0.5064 -0.6168
vn -0.0000 1.0000 -0.0000
vn -0.4611 -0.6201 -0.6347
vn -0.7461 -0.6201 -0.2424
vn -0.7461 -0.6201 0.2424
vn -0.4611 -0.6201 0.6347
vt 0.889877 0.807954
vt 0.882547 0.804579
vt 0.792187 0.758406
vt 0.832298 0.724137
vt 0.894713 0.723451
vt 0.950931 0.753161
vt 0.977408 0.799823
vt 0.984144 0.835329
vt 0.985709 0.828495
vt 0.598433 0.416087
vt 0.816715 0.210911
vt 0.824147 0.231399
vt 0.822555 0.243209
vt 0.836924 0.286943
vt 0.819320 0.308600
vt 0.813684 0.315912
vt 0.805840 0.334620
vt 0.762410 0.341765
vt 0.707179 0.317455
vt 0.661243 0.270974
vt 0.642149 0.220077
vt 0.657189 0.184204
vt 0.676750 0.180986
vt 0.687438 0.176799
vt 0.714303 0.165571
vt 0.745960 0.143406
vt 0.595651 0.000000
vt 0.682722 0.000000
vt 0.824865 0.135615
vt 0.763877 0.053757
vt 0.754677 0.000000
vt 0.000000 0.000000
vt 0.649714 0.000000
vt 0.355524 0.193894
vt 0.881833 0.189967
vt 0.582870 0.342637
vt 0.862483 0.558165
vt 0.883678 0.628310
vt 0.862482 0.702839
vt 0.806992 0.753284
vt 0.757788 0.019364
vt 0.716874 0.033923
vt 0.661721 0.651264
vt 0.682917 0.576735
vt 0.738406 0.526290
vt 0.806995 0.519196
vt 0.540708 0.291774
vt 0.317278 0.000000
vt 0.404349 0.000000
vt 0.610548 0.269273
vt 0.447253 0.285943
vt 0.454243 0.273562
vt 0.483154 0.282733
vt 0.478614 0.295877
vt 0.425806 0.250099
vt 0.415965 0.260262
vt 0.402082 0.221170
vt 0.390325 0.229152
vt 0.384220 0.188233
vt 0.371103 0.193758
vt 0.373232 0.152389
vt 0.359242 0.155276
vt 0.370042 0.120219
vt 0.355717 0.121216
vt 0.475516 0.309318
vt 0.439703 0.297945
vt 0.406079 0.270283
vt 0.378571 0.237049
vt 0.358120 0.199230
vt 0.345276 0.158244
vt 0.355717 0.121216
vt 0.341181 0.121517
vt 0.471520 0.330934
vt 0.431896 0.309327
vt 0.487842 0.185561
vt 0.485239 0.207597
vt 0.396234 0.280141
vt 0.366856 0.244994
vt 0.344936 0.204799
vt 0.331298 0.161113
vt 0.341181 0.121517
vt 0.326829 0.121346
vt 0.423637 0.320532
vt 0.467242 0.343251
vt 0.466008 0.345448
vt 0.386195 0.290072
vt 0.355080 0.252946
vt 0.331832 0.210343
vt 0.317303 0.164009
vt 0.312414 0.120812
vt 0.326829 0.121346
vt 0.456555 0.356745
vt 0.415268 0.331662
vt 0.376133 0.300015
vt 0.343345 0.260906
vt 0.318770 0.215902
vt 0.303395 0.166905
vt 0.312414 0.120812
vt 0.298153 0.120434
vt 0.617594 0.562020
vt 0.574497 0.580158
vt 0.567870 0.567436
vt 0.610873 0.549496
vt 0.658509 0.537262
vt 0.649907 0.525947
vt 0.694334 0.504846
vt 0.683775 0.495311
vt 0.723371 0.466005
vt 0.711190 0.458678
vt 0.744438 0.422248
vt 0.731026 0.417414
vt 0.755817 0.379429
vt 0.741867 0.376890
vt 0.560816 0.547197
vt 0.604468 0.537089
vt 0.564271 0.567133
vt 0.566437 0.530775
vt 0.566711 0.520291
vt 0.641399 0.514668
vt 0.673274 0.485777
vt 0.698936 0.451304
vt 0.717610 0.412617
vt 0.741867 0.376890
vt 0.727654 0.374812
vt 0.559703 0.533294
vt 0.598111 0.524446
vt 0.632840 0.503317
vt 0.662743 0.476284
vt 0.686879 0.444023
vt 0.704186 0.407684
vt 0.713140 0.372916
vt 0.592242 0.511410
vt 0.559384 0.518973
vt 0.624460 0.491981
vt 0.652255 0.466711
vt 0.674682 0.436641
vt 0.690752 0.402749
vt 0.713140 0.372916
vt 0.698725 0.370869
vt 0.558794 0.504986
vt 0.587326 0.498447
vt 0.616007 0.480335
vt 0.641837 0.457108
vt 0.662789 0.429433
vt 0.677386 0.397882
vt 0.684521 0.368613
vt 0.564271 0.567133
vt 0.564307 0.580530
vt 0.563617 0.580459
vt 0.467236 0.347190
vt 0.467236 0.347190
vt 0.466365 0.353429
vt 0.460364 0.360563
vt 0.572931 0.585233
vt 0.331207 0.000000
vt 0.600640 0.275313
vt 0.862930 0.413128
vt 0.350286 0.000000
vt 0.250741 0.237763
vt 0.221300 0.281681
vt 0.192300 0.243356
vt 0.215438 0.209643
vt 0.147040 0.304198
vt 0.145829 0.255763
vt 0.070854 0.286063
vt 0.097547 0.243488
vt 0.070379 0.213192
vt 0.040282 0.249200
vt 0.258059 0.114390
vt 0.668793 0.000000
vt 0.245323 0.000000
vt 0.049169 0.782656
vt 0.058321 0.728379
vt 0.046046 0.716029
vt 0.100530 0.684258
vt 0.116760 0.734863
vt 0.122240 0.751950
vt 0.104507 0.774849
vt 0.100259 0.783429
vt 0.093770 0.796956
vt 0.804977 0.376699
vt 0.813513 0.362901
vt 0.813817 0.400039
vt 0.813513 0.362901
vt 0.834799 0.351452
vt 0.848662 0.348922
vt 0.891592 0.465957
vt 0.834222 0.448815
vt 0.175451 0.307936
vt 0.180270 0.308819
vt 0.210311 0.357670
vt 0.209597 0.445569
vt 0.132530 0.424972
vt 0.238853 0.445422
vt 0.209597 0.445569
vt 0.210311 0.357670
s 1
usemtl lambert2SG
f 702/718/334 813/719/334 764/719/334 789/720/334 814/721/334 816/722/334 817/723/334 808/724/334 782/725/334 781/726/334
s 0
f 790/727/335 763/728/335 762/729/335 765/730/335 767/731/335 768/732/335 769/733/335 770/734/335 771/735/335 772/736/335 773/737/335 774/738/335 775/739/335 776/740/335 777/741/335 778/742/335 780/743/335 737/744/335 785/745/335 783/746/335 786/747/335 788/748/335 652/749/335 795/750/335 793/751/335 791/752/335 796/753/335
f 755/754/336 756/755/336 757/756/336 758/757/336 752/758/336 753/759/336 759/760/336 760/761/336 761/762/336 754/763/336
f 805/764/337 785/765/337 737/766/337 807/767/337
s 1
f 653/768/338 647/769/339 727/770/340 728/771/341
f 648/772/342 647/769/339 653/768/338 654/773/343
f 649/774/344 648/772/342 654/773/343 655/775/345
f 650/776/346 649/774/344 655/775/345 656/777/347
f 651/778/348 650/776/346 656/777/347 657/779/349
f 716/780/350 651/778/348 657/779/349 718/781/351
f 720/782/352 658/783/353 653/768/338 728/771/341
f 654/773/343 653/768/338 658/783/353 659/784/354
f 655/775/345 654/773/343 659/784/354 660/785/355
f 656/777/347 655/775/345 660/785/355 661/786/356
f 657/779/349 656/777/347 661/786/356 662/787/357
f 718/788/351 657/779/349 662/787/357 713/789/358
f 724/790/359 663/791/360 658/783/353 720/782/352 721/792/361 725/793/361
f 659/784/354 658/783/353 663/791/360 664/794/362
f 660/785/355 659/784/354 664/794/362 665/795/363
f 661/786/356 660/785/355 665/795/363 666/796/364
f 662/787/357 661/786/356 666/796/364 667/797/365
f 713/798/358 662/787/357 667/797/365 714/799/366
f 669/800/367 663/791/360 724/790/359 766/801/368 809/802/369
f 664/794/362 663/791/360 669/800/367 670/803/370
f 665/795/363 664/794/362 670/803/370 671/804/371
f 666/796/364 665/795/363 671/804/371 672/805/372
f 667/797/365 666/796/364 672/805/372 673/806/373
f 673/806/373 712/807/374 714/808/366 667/797/365
f 669/800/367 809/802/369 810/809/375 675/810/376
f 670/803/370 669/800/367 675/810/376 676/811/377
f 671/804/371 670/803/370 676/811/377 677/812/378
f 672/805/372 671/804/371 677/812/378 678/813/379
f 673/806/373 672/805/372 678/813/379 679/814/380
f 712/815/374 673/806/373 679/814/380 710/816/381
f 675/817/376 810/818/375 811/819/382 681/820/383
f 676/821/377 675/817/376 681/820/383 682/822/384
f 677/823/378 676/821/377 682/822/384 683/824/385
f 678/825/379 677/823/378 683/824/385 684/826/386
f 679/827/380 678/825/379 684/826/386 685/828/387
f 710/829/381 679/827/380 685/828/387 711/830/388
f 734/831/389 686/832/390 681/820/383 811/819/382 779/833/391 739/834/391 733/835/391
f 682/822/384 681/820/383 686/832/390 687/836/392
f 683/824/385 682/822/384 687/836/392 688/837/393
f 684/826/386 683/824/385 688/837/393 689/838/394
f 685/828/387 684/826/386 689/838/394 690/839/395
f 711/840/388 685/828/387 690/839/395 719/841/396
f 740/842/397 691/843/398 686/832/390 734/831/389
f 687/836/392 686/832/390 691/843/398 692/844/399
f 688/837/393 687/836/392 692/844/399 693/845/400
f 689/838/394 688/837/393 693/845/400 694/846/401
f 690/839/395 689/838/394 694/846/401 695/847/402
f 719/841/396 690/839/395 695/847/402 715/848/403
f 696/849/404 691/843/398 740/842/397 730/850/405
f 692/844/399 691/843/398 696/849/404 697/851/406
f 693/845/400 692/844/399 697/851/406 698/852/407
f 694/846/401 693/845/400 698/852/407 699/853/408
f 695/847/402 694/846/401 699/853/408 700/854/409
f 715/855/403 695/847/402 700/854/409 717/856/410
f 727/857/340 647/858/339 696/849/404 730/850/405
f 648/859/342 697/851/406 696/849/404 647/858/339
f 649/860/344 698/852/407 697/851/406 648/859/342
f 650/861/346 699/853/408 698/852/407 649/860/344
f 651/862/348 700/854/409 699/853/408 650/861/346
f 717/856/410 700/854/409 651/862/348 716/863/350
f 741/864/411 680/819/412 812/865/413 729/866/411
f 668/802/414 726/801/415 722/867/416
f 668/802/414 722/868/416 731/869/417 701/870/418 674/809/419
f 812/865/413 680/819/412 674/818/419 701/871/418
s 0
f 652/749/420 802/872/420 800/873/420 798/874/420 795/875/420
s 1
f 797/876/421 818/877/421 815/878/421 742/879/421
f 820/880/422 704/881/422 703/878/423 819/877/423
f 821/882/424 705/883/424 704/881/422 820/880/422
f 750/884/425 705/883/424 821/882/424 806/885/425
s 0
f 803/886/426 802/887/426 652/749/426 788/888/426
s 1
f 749/889/427 708/890/427 707/891/427 706/892/427 743/893/427 792/894/427 822/895/427 784/896/427 738/897/427
f 736/898/428 787/899/428 804/900/428
f 735/901/429 732/902/429 823/903/429 801/904/429 748/905/429 751/900/429
f 709/906/430 723/907/430 794/908/430 799/909/430 747/910/430
f 745/911/431 746/912/431 744/913/431
o LolipopRing_cell.009
v 2.560369 5.957900 0.860921
v 2.259123 6.019098 0.840825
v -1.423300 5.364045 -0.230626
v 0.415799 3.296563 -2.381231
v 1.840498 3.296562 -1.835120
v -1.180415 3.296563 -2.309483
v 0.415799 3.741628 -2.381231
v 1.840497 3.741627 -1.835123
v -1.180413 3.741629 -2.309485
v 0.292902 3.741629 -0.978352
v -0.382776 3.741629 -1.026943
v -2.150252 5.322433 -0.974980
v -1.688119 3.741630 -1.820739
v -1.499818 3.296564 -2.002008
v -1.462035 4.496512 -0.980388
v -0.814588 3.296564 -1.332564
v -0.945625 3.741629 -1.095351
v -1.054055 4.109908 -0.899064
v 1.857864 3.296565 -0.834819
v 2.461085 5.581776 0.621264
v 1.975347 3.741631 -0.551233
v -0.422749 3.741629 -0.997901
v 0.562494 3.741629 -0.814279
v 0.900872 3.833329 -0.697309
v 0.974196 3.858638 -0.668765
v 1.977693 4.780932 0.060437
v 2.680772 5.889829 0.733135
v 2.190210 3.296565 -1.037697
v 2.313123 3.741631 -0.757427
v -2.078456 5.413247 -1.428244
v -1.972169 5.456989 -1.548205
v 2.692455 5.810515 0.494295
v -1.220961 5.765092 -2.395028
v -0.621692 5.602860 -2.480986
v -0.871175 5.643217 -2.530082
v 1.985103 5.362045 -1.403231
v 0.989783 5.356064 -2.120529
v 0.726500 5.362066 -2.286585
v 2.713983 5.666805 0.060437
v -1.688119 3.741630 -1.820739
v -1.688119 3.741630 -1.820739
v -0.945625 3.741629 -1.095351
v -1.499818 3.296564 -2.002008
v -1.499818 3.296564 -2.002008
v -0.814588 3.296564 -1.332564
v -2.150252 5.322433 -0.974980
v -1.462035 4.496512 -0.980388
v -1.462035 4.496512 -0.980388
v -1.054055 4.109908 -0.899064
v 0.562494 3.741629 -0.814279
v 0.562494 3.741629 -0.814279
v 0.900872 3.833329 -0.697309
v 0.974196 3.858638 -0.668765
v 0.974196 3.858638 -0.668765
v 1.977693 4.780932 0.060437
v 1.977693 4.780932 0.060437
v 2.461085 5.581776 0.621264
v -0.422749 3.741629 -0.997901
v -0.422749 3.741629 -0.997901
v 1.857864 3.296565 -0.834819
v 1.975347 3.741631 -0.551233
v 2.680772 5.889829 0.733135
v 2.313123 3.741631 -0.757427
v 2.313123 3.741631 -0.757427
v 2.190210 3.296565 -1.037697
v 2.190210 3.296565 -1.037697
v -2.078456 5.413247 -1.428244
v -2.078456 5.413247 -1.428244
v -1.972169 5.456989 -1.548205
v 2.692455 5.810515 0.494295
v -1.220961 5.765092 -2.395028
v -0.621692 5.602860 -2.480986
v 0.726500 5.362066 -2.286585
v 0.726500 5.362066 -2.286585
v -0.871175 5.643217 -2.530082
v -0.871175 5.643217 -2.530082
v 1.985103 5.362045 -1.403231
v 1.985103 5.362045 -1.403231
v 0.989783 5.356064 -2.120529
v 2.713983 5.666805 0.060437
v 2.713983 5.666805 0.060437
v 0.415799 3.296563 -2.381231
v -1.180415 3.296563 -2.309483
v -1.180415 3.296563 -2.309483
v 1.840498 3.296562 -1.835120
v 1.840498 3.296562 -1.835120
v 0.415799 3.741628 -2.381231
v -1.180413 3.741629 -2.309485
v -1.180413 3.741629 -2.309485
v 1.840497 3.741627 -1.835123
v 1.840497 3.741627 -1.835123
v 0.292902 3.741629 -0.978352
v 0.292902 3.741629 -0.978352
v -0.382776 3.741629 -1.026943
v -0.382776 3.741629 -1.026943
vn -0.6027 -0.5062 0.6169
vn -0.1586 -0.5004 0.8511
vn 0.4306 -0.5631 0.7054
vn -0.0000 -1.0000 -0.0000
vn -0.2173 0.9632 0.1582
vn 0.2094 0.9312 -0.2982
vn 0.4304 -0.5631 0.7055
vn 0.1599 -0.0000 -0.9871
vn -0.0449 -0.0000 -0.9990
vn 0.9158 -0.0000 -0.4016
vn -0.6935 -0.0000 -0.7204
vn 0.3579 -0.0000 -0.9338
vn -0.0000 1.0000 -0.0000
vn 0.4338 -0.6286 -0.6455
vn 0.0241 -0.6208 -0.7836
vn -0.4611 -0.6201 -0.6347
vn -0.7461 -0.6201 -0.2424
vn 0.7461 -0.6201 0.2424
vn 0.7461 -0.6201 -0.2424
vt 0.642080 0.309241
vt 0.704116 0.396947
vt 0.404494 0.404494
vt 0.317419 0.317419
vt 0.000000 0.000000
vt 0.331364 0.000000
vt 0.298351 0.166489
vt 0.245367 0.245367
vt 1.000000 0.000000
vt 1.000000 0.245367
vt 0.874264 0.332027
vt 1.000000 0.317419
vt 1.000000 0.404494
vt 0.260869 0.000000
vt 0.384477 0.000000
vt 0.637342 0.359554
vt 0.549479 0.351822
vt 0.530055 0.349127
vt 0.223445 0.204308
vt 0.895539 0.000000
vt 0.615523 0.000000
vt 0.739131 0.000000
vt 0.808521 0.204484
vt 0.686047 0.207826
vt 0.971121 0.892206
vt 0.928490 0.950697
vt 0.887686 0.957152
vt 0.926464 0.951017
vt 0.984132 0.835385
vt 0.977450 0.799898
vt 0.988000 0.818490
vt 0.771388 0.000000
vt 0.720068 0.000000
vt 0.804834 0.178600
vt 1.000000 0.668636
vt 1.000000 1.000000
vt 0.350156 0.132011
vt 0.534927 0.166771
vt 0.705925 0.376295
vt 0.745512 0.430457
vt 0.791870 0.672838
vt 0.803577 0.718390
vt 0.771388 0.771388
vt 0.879305 0.879305
vt 0.333632 0.000000
vt 0.104461 0.000000
vt 0.879305 0.000000
vt 0.012000 0.131924
vt 0.057512 0.141400
vt 0.059511 0.201073
vt 0.014906 0.218602
vt 0.109796 0.077407
vt 0.080557 0.090094
vt 0.048091 0.055239
vt 0.104631 0.030656
vt 0.040215 0.249120
vt 0.070336 0.213144
vt 0.093779 0.797009
vt 0.097472 0.818842
vt 0.097754 0.820511
vt 0.115800 0.834815
vt 0.126382 0.837537
vt 0.196872 0.863603
vt 0.210872 0.877126
vt 0.133736 0.929307
vt 0.067616 0.900089
vt 0.080021 0.792342
vt 0.049250 0.782682
vt 0.608102 0.658438
vt 0.642606 0.565255
vt 0.646905 0.564499
vt 0.664892 0.560689
vt 0.680758 0.562863
vt 0.679483 0.660305
vt 0.666386 0.661506
vt 0.714882 0.558489
vt 0.757545 0.676791
vt 0.768514 0.799353
vt 0.679483 0.660305
vt 0.778118 0.349359
vt 0.780589 0.349778
vt 0.804888 0.376721
vt 0.813819 0.400303
vt 0.814267 0.454896
vt 0.806515 0.457575
vt 0.751568 0.475969
vt 0.735680 0.467676
vt 0.813819 0.400303
vt 0.834118 0.448851
vt 0.814267 0.454896
vt 0.847809 0.145494
vt 0.853256 0.126850
vt 0.880759 0.078844
vt 0.880759 0.131950
vt 0.859503 0.140655
vt 0.917477 0.019259
vt 0.952795 0.112521
s 0
usemtl lambert2SG
f 863/914/432 866/915/432 868/916/432 865/917/432
f 826/918/432 869/919/432 870/920/432 872/921/432
f 825/922/433 826/922/433 872/923/433 881/924/433 865/925/433 868/926/433 883/927/433 884/928/433 873/929/433 875/930/433 876/931/433 878/932/433 880/933/433 824/918/433
f 884/934/434 883/935/434 888/936/434 886/937/434
s 1
f 905/938/435 908/939/435 889/940/435 842/941/435 839/942/435 867/943/435 906/944/435
s 0
f 894/945/436 892/946/436 890/947/436 869/948/436 826/949/436 825/918/436
f 903/950/437 900/951/437 902/952/437 896/953/437 895/954/437 898/955/437 894/956/437 825/922/437 824/949/437 885/957/437 893/958/437
f 824/918/438 880/959/438 885/960/438
s 1
f 910/961/439 827/962/439 907/963/440 911/964/440
f 851/965/441 909/966/441 913/967/441 887/968/441
f 864/969/442 912/964/442 829/963/442 837/970/442
f 914/967/443 828/966/443 827/962/439 910/961/439
f 840/971/444 882/972/444 917/973/444 915/974/444 874/975/444 844/976/444 852/977/444 831/978/444 830/979/444 832/980/444 836/981/444
f 901/982/445 877/983/445 847/984/445 846/985/445 916/986/445 897/987/445 860/988/445
f 833/986/446 918/989/446 899/990/446 857/991/446 861/992/446
f 834/993/447 845/994/447 841/995/447 871/996/447 891/997/447 854/998/447 856/999/447 858/1000/447
f 838/1001/448 835/1002/448 853/1003/448
f 850/1004/449 843/1005/449 879/1006/449 904/1007/449 855/1008/449
f 862/1007/450 849/1006/450 848/1009/450 859/1010/450
o LolipopRing_cell.010
v 2.561329 5.958907 0.862776
v 2.681039 5.891217 0.735865
v 2.771494 6.105481 1.005556
v 2.623474 5.810446 0.706418
v 2.574331 6.110589 1.069336
v 2.384569 6.335383 2.184892
v 2.462713 5.585112 0.624787
v 2.394281 5.649689 1.000581
v 2.262598 5.774734 1.725716
v 2.741445 6.486868 2.073618
v 2.398744 6.397607 2.235390
v 2.833833 6.253944 1.193465
v 2.394281 5.649689 1.000581
v 2.462713 5.585112 0.624787
v 2.623474 5.810446 0.706418
v 2.262598 5.774734 1.725716
v 2.262598 5.774734 1.725716
v 2.384569 6.335383 2.184892
v 2.741445 6.486868 2.073618
v 2.741445 6.486868 2.073618
v 2.398744 6.397607 2.235390
v 2.833833 6.253944 1.193465
v 2.771494 6.105481 1.005556
v 2.681039 5.891217 0.735865
vn -0.4296 0.5634 -0.7057
vn -0.1630 0.7984 -0.5796
vn -0.1659 0.7998 -0.5769
vn -0.4306 0.5628 -0.7055
vn -0.8916 0.3900 -0.2302
vn -0.8955 0.3819 -0.2285
vn 0.7461 -0.6201 0.2424
vn 0.4611 -0.6201 0.6347
vn -0.3614 0.8913 -0.2738
vt 1.000000 0.000000
vt 1.000000 0.120102
vt 0.937646 0.000000
vt 0.120102 0.120102
vt 0.000000 0.000000
vt 0.210892 0.000000
vt 1.000000 0.263842
vt 0.210892 0.210892
vt 0.937646 0.937646
vt 1.000000 0.896228
vt 1.000000 1.000000
vt 1.000000 0.506201
vt 0.484789 0.484789
vt 0.103772 0.000000
vt 0.052750 0.000000
vt 0.330381 0.265303
vt 0.506201 0.506201
vt 0.853083 0.127051
vt 0.849109 0.140688
vt 0.847676 0.145579
vt 0.834498 0.158636
vt 0.825325 0.167724
vt 0.782299 0.182299
vt 0.799029 0.138122
vt 0.834649 0.130898
vt 0.429015 0.704204
vt 0.411068 0.698772
vt 0.411204 0.694918
vt 0.412848 0.659991
vt 0.660395 0.301917
vt 0.263841 0.263841
vt 0.484789 0.000000
s 0
usemtl lambert2SG
f 919/1011/451 942/1012/451 933/1013/451
f 942/1014/452 919/1015/452 941/1016/452
f 919/1015/453 923/1011/453 930/1017/453 941/1018/453
f 933/1019/454 932/1020/454 919/1021/454
f 936/1022/455 929/1023/455 923/1015/455 919/1011/455
f 919/1015/456 932/1024/456 931/1025/456 934/1026/456 936/1027/456
s 1
f 925/1028/457 922/1029/457 920/1030/457 921/1031/457 940/1032/457 937/1033/457 935/1034/457 926/1035/457
f 938/1036/458 939/1037/458 924/1038/458 927/1039/458
s 0
f 928/1040/459 930/1041/459 923/1015/459 929/1042/459
o LolipopRing_cell.011
v 2.079528 3.296565 1.536135
v 1.064524 3.296563 2.278667
v 2.671800 3.296569 0.060438
v 2.079528 3.741630 1.536139
v 1.297917 3.741629 2.107929
v 2.671799 3.741634 0.060436
v 2.314144 3.741631 -0.755100
v 2.191319 3.296565 -1.035168
v 1.976355 3.741631 -0.548933
v 1.858935 3.296565 -0.832301
v 2.079528 3.296565 1.536135
v 1.064524 3.296563 2.278667
v 1.064524 3.296563 2.278667
v 2.671800 3.296569 0.060438
v 2.079528 3.741630 1.536139
v 1.297917 3.741629 2.107929
v 1.297917 3.741629 2.107929
v 2.671799 3.741634 0.060436
v 2.314144 3.741631 -0.755100
v 2.314144 3.741631 -0.755100
v 2.191319 3.296565 -1.035168
v 2.191319 3.296565 -1.035168
v 1.976355 3.741631 -0.548933
v 1.858935 3.296565 -0.832301
vn 0.5904 -0.0000 0.8071
vn 0.7897 -0.0000 0.6135
vn -0.0000 -1.0000 -0.0000
vn 0.9999 -0.0000 -0.0158
vn -0.0000 1.0000 -0.0000
vn 0.9158 -0.0000 -0.4016
vn -0.4306 0.5628 -0.7055
vn -0.8955 0.3819 -0.2287
vt 0.228633 0.120339
vt 0.202729 0.082221
vt 0.233598 0.042397
vt 0.264262 0.090502
vt 0.887556 0.957173
vt 0.831494 0.966042
vt 0.771726 0.920848
vt 0.749123 0.864874
vt 0.926339 0.951037
vt 0.150060 0.059935
vt 0.147539 0.012000
vt 0.225739 0.891486
vt 0.210915 0.877167
vt 0.196914 0.863644
vt 0.199413 0.811558
vt 0.201190 0.867774
vt 0.104753 0.030603
vt 0.109888 0.077366
vt 0.795429 0.191537
vt 1.000000 0.260890
vt 1.000000 0.384448
vt 0.792103 0.313967
vt 0.476652 0.087321
vt 0.615552 0.000000
vt 0.739110 0.000000
vt 0.542007 0.077941
s 1
usemtl lambert2SG
f 954/1043/460 953/1044/461 957/1045/461 958/1046/460
f 964/1047/462 956/1048/462 943/1049/462 955/1050/462 952/1051/462
f 957/1045/461 953/1044/461 945/1052/463 960/1053/463
f 948/1054/464 961/1055/464 965/1056/464 959/1057/464 946/1058/464
f 962/1059/465 960/1053/463 945/1052/463 963/1060/465
s 0
f 950/1061/466 966/1062/466 951/1063/466 949/1064/466
f 947/1065/467 951/1066/467 966/1067/467 944/1068/467
o LolipopRing_cell.012
v 0.750645 -2.310250 0.148674
v 1.410847 -1.973860 0.148674
v 0.757553 -2.331509 0.179440
v 0.750645 -2.310250 -0.148674
v 0.804654 -2.476472 -0.389233
v 1.427812 -1.965216 -0.148674
v 1.530543 -2.106613 -0.389233
v 1.965216 -1.427812 -0.148674
v 1.427812 -1.965216 0.147706
v 1.441282 -1.951746 0.148674
v 1.983218 -1.440891 0.179300
v 1.965216 -1.427812 0.148674
v 2.128021 -1.108289 0.148674
v 2.146277 -1.072459 -0.148674
v 2.170499 -1.141108 0.222179
v 2.943574 -1.498630 -0.019564
v 2.705580 -1.965720 -0.096666
v 2.951501 -1.483073 -0.148674
v 2.812487 -1.375667 -0.389233
v 2.705580 -1.965720 -0.148674
v 1.979393 -2.691907 -0.148674
v 2.564184 -1.862989 -0.389233
v 1.862989 -2.564184 -0.389233
v 2.335397 -1.696766 -0.481119
v 1.696766 -2.335397 -0.481119
v 2.569300 -1.237708 -0.481119
v 2.106613 -1.530543 -0.389233
v 2.314831 -1.121893 -0.389233
v 0.892043 -2.745426 -0.481119
v 0.979430 -3.014379 -0.389233
v 1.033440 -3.180601 -0.148674
v 1.033440 -3.180601 -0.096474
v 1.948500 -2.714354 -0.148674
v 1.965381 -2.705113 -0.149469
v 0.750645 -2.310250 0.148674
v 0.757553 -2.331509 0.179440
v 0.757553 -2.331509 0.179440
v 0.750645 -2.310250 -0.148674
v 0.804654 -2.476472 -0.389233
v 1.427812 -1.965216 0.147706
v 1.441282 -1.951746 0.148674
v 1.410847 -1.973860 0.148674
v 1.983218 -1.440891 0.179300
v 2.128021 -1.108289 0.148674
v 2.146277 -1.072459 -0.148674
v 2.170499 -1.141108 0.222179
v 2.705580 -1.965720 -0.096666
v 2.943574 -1.498630 -0.019564
v 2.951501 -1.483073 -0.148674
v 2.812487 -1.375667 -0.389233
v 2.314831 -1.121893 -0.389233
v 2.569300 -1.237708 -0.481119
v 0.979430 -3.014379 -0.389233
v 0.892043 -2.745426 -0.481119
v 1.033440 -3.180601 -0.148674
v 1.033440 -3.180601 -0.096474
v 1.033440 -3.180601 -0.096474
v 1.965381 -2.705113 -0.149469
v 1.948500 -2.714354 -0.148674
v 1.979393 -2.691907 -0.148674
vn -0.5878 0.8090 -0.0000
vn -0.5572 0.7669 -0.3185
vn -0.4309 0.8457 -0.3149
vn -0.4309 0.8457 0.3149
vn -0.4540 0.8910 0.0095
vn -0.3688 0.7239 0.5830
vn -0.9511 -0.3090 -0.0000
vn -0.3332 0.4586 -0.8238
vn -0.2595 0.5093 -0.8205
vn -0.4586 0.3332 -0.8238
vn -0.7669 0.5572 -0.3185
vn -0.7071 0.7071 0.0094
vn -0.7669 0.5572 0.3185
vn 0.1818 -0.2499 0.9511
vn -0.6594 0.4688 0.5878
vn -0.7239 0.3688 0.5830
vn -0.8547 0.4355 0.2825
vn -0.8411 0.4286 -0.3301
vn 0.4502 0.8828 0.1340
vn 0.8910 -0.4540 -0.0000
vn 0.8146 -0.5800 -0.0000
vn 0.7717 -0.5607 -0.3003
vn 0.8411 -0.4285 -0.3301
vn 0.4913 -0.3569 -0.7945
vn 0.5155 -0.2627 -0.8156
vn 0.3569 -0.4913 -0.7945
vn 0.5784 -0.5784 -0.5753
vn 0.4755 -0.6545 -0.5878
vn 0.0181 -0.0250 -0.9995
vn 0.0250 -0.0181 -0.9995
vn -0.0001 -0.0000 -1.0000
vn -0.5156 0.2627 -0.8156
vn 0.2778 -0.5453 -0.7908
vn 0.0142 -0.0278 -0.9995
vn 0.3713 -0.7288 -0.5753
vn 0.4335 -0.8508 -0.2970
vn 0.4540 -0.8910 -0.0000
vt 0.353401 0.327021
vt 0.339417 0.328803
vt 0.338949 0.291852
vt 0.351253 0.286756
vt 0.353392 0.326006
vt 0.664140 0.034864
vt 0.665716 0.035094
vt 0.668386 0.075366
vt 0.665716 0.035094
vt 0.327541 0.292854
vt 0.316478 0.290252
vt 0.306159 0.283850
vt 0.717088 0.013745
vt 0.715592 0.015388
vt 0.324616 0.329579
vt 0.327661 0.368872
vt 0.341984 0.366247
vt 0.353510 0.327929
vt 0.355956 0.363489
vt 0.785432 0.506652
vt 0.935669 0.648113
vt 0.876800 0.716482
vt 0.872792 0.716911
vt 0.867464 0.716306
vt 0.627104 0.398589
vt 0.164624 0.000000
vt 0.371858 0.000000
vt 0.688971 0.266849
vt 0.621121 0.523071
vt 0.626523 0.523786
vt 0.630318 0.523244
vt 0.674332 0.115034
vt 0.672508 0.114982
vt 0.668596 0.077374
vt 0.674332 0.115034
vt 0.675113 0.132703
vt 0.670740 0.132681
vt 0.360053 0.379550
vt 0.346905 0.385302
vt 0.616749 0.034591
vt 0.628142 0.000000
vt 0.835375 0.000000
vt 0.837491 0.050472
vt 0.800206 0.163677
vt 0.735004 0.230610
vt 0.666791 0.225702
vt 0.621621 0.150830
vt 0.735344 0.140674
vt 0.741795 0.115640
vt 0.744294 0.115608
vt 0.741373 0.142135
vt 0.291534 0.399591
vt 0.284919 0.375213
vt 0.299018 0.373273
vt 0.305677 0.397644
vt 0.295315 0.327565
vt 0.281374 0.326624
vt 0.281353 0.325715
vt 0.739971 0.064300
vt 0.741795 0.115640
vt 0.309922 0.328931
vt 0.313237 0.371198
vt 0.319704 0.394797
vt 0.333458 0.390666
vt 0.346905 0.385302
vt 0.333458 0.390666
vt 0.281353 0.325715
vt 0.281578 0.324765
vt 0.295964 0.274604
vt 0.715592 0.015388
vt 0.739469 0.062418
s 1
usemtl lambert2SG
f 1006/1069/468 972/1070/469 1004/1071/470 1001/1072/471 1008/1073/472
f 1001/1074/471 1002/1075/473 1008/1076/472
f 1003/1077/474 967/1072/474 970/1071/474 1005/1078/474 995/1079/474 1019/1080/474 1021/1081/474 1022/1082/474
f 973/1083/475 971/1078/476 1004/1071/470 972/1070/469
f 993/1084/477 973/1083/475 972/1070/469 974/1085/478
f 972/1070/469 1006/1069/468 1007/1086/479 978/1087/480 974/1085/478
s 0
f 969/1088/481 1023/1089/481 999/1090/481 1024/1091/481 987/1092/481 1013/1093/481 1014/1094/481 981/1095/481 1009/1096/481 976/1097/481 975/1098/481 968/1099/481
s 1
f 977/1100/482 978/1101/480 1007/1102/479
f 978/1101/480 977/1103/482 1012/1104/483 1010/1105/484
f 974/1085/478 978/1087/480 1010/1106/484 1011/1107/485
s 0
f 979/1108/486 981/1109/486 1014/1110/486 1015/1111/486 1016/1112/486 992/1113/486 994/1114/486 980/1115/486
s 1
f 982/1116/487 983/1117/488 986/1118/489 984/1119/490
f 984/1120/490 986/1121/489 988/1122/491 985/1123/492
f 989/1124/493 988/1122/491 986/1121/489 1026/1125/494 1000/1126/495
f 1026/1127/494 986/1118/489 983/1128/488
f 988/1122/491 989/1124/493 991/1129/496 990/1130/497
f 985/1123/492 988/1122/491 990/1130/497 1018/1131/498
f 990/1130/497 991/1129/496 973/1083/475 993/1084/477
f 1018/1131/498 990/1130/497 993/1084/477 1017/1132/499
f 993/1084/477 974/1085/478 1011/1133/485 1017/1134/499
f 989/1124/493 996/1080/500 1020/1079/501 991/1129/496
f 991/1129/496 1020/1079/501 971/1078/476 973/1083/475
f 996/1080/500 989/1124/493 1000/1135/495 1025/1136/502 997/1137/503
f 998/1138/504 997/1081/503 1025/1139/502
o LolipopRing_cell.013
v -0.892043 -2.745426 0.481119
v -1.180139 -2.598633 0.481119
v -0.836443 -2.574306 0.421863
v -0.979431 -3.014379 0.389233
v -1.151029 -2.926945 0.389233
v -0.993970 -3.059124 0.324477
v -0.892043 -2.745426 0.481119
v -0.836443 -2.574306 0.421863
v -0.836443 -2.574306 0.421863
v -0.979431 -3.014379 0.389233
v -0.993970 -3.059124 0.324477
v -0.993970 -3.059124 0.324477
v -1.151029 -2.926945 0.389233
v -1.180139 -2.598633 0.481119
vn -0.1810 -0.3553 0.9170
vn -0.2778 -0.5453 0.7908
vn -0.0134 -0.0262 0.9996
vn -0.0429 -0.0842 0.9955
vn 0.1436 0.2818 0.9487
vn 0.9511 -0.3090 -0.0000
vn -0.3688 -0.7239 0.5830
vn -0.1817 0.2501 -0.9510
vt 0.340471 0.037951
vt 0.343128 0.030012
vt 0.353790 0.034909
vt 0.350238 0.048671
vt 0.361011 0.035859
vt 0.350238 0.048671
vt 0.361011 0.035859
vt 0.340397 0.028172
vt 0.340471 0.037951
vt 0.340397 0.028172
vt 0.393434 0.297739
vt 0.443194 0.244031
vt 0.495080 0.288254
vt 0.393656 0.339619
s 1
usemtl lambert2SG
f 1039/1140/505 1036/1141/506 1033/1142/507 1040/1143/508
f 1033/1142/507 1034/1144/509 1040/1145/508
f 1035/1146/510 1027/1142/510 1030/1141/510 1037/1147/510
f 1036/1141/506 1039/1148/505 1038/1149/511
s 0
f 1031/1150/512 1028/1151/512 1029/1152/512 1032/1153/512
