# Blender 5.0.0
# www.blender.org
mtllib Pan.mtl
o Pan_cell
v -0.132472 -0.053910 0.754129
v -0.132472 0.129203 0.754129
v -0.206006 -0.011019 0.652918
v -0.225085 -0.129203 0.626657
v -0.538664 -0.129203 0.276118
v -0.598044 -0.011019 0.159605
v 0.048191 0.129203 0.573466
v -0.097944 -0.011019 0.544857
v -0.332348 -0.129203 0.681310
v -0.261708 -0.053910 0.819978
v -0.261640 0.129203 0.819944
v -0.317785 -0.011019 0.709873
v -0.163535 -0.129203 0.565107
v -0.013748 -0.053910 0.635405
v -0.163535 -0.129203 0.565107
v -0.163535 -0.129203 0.565107
v -0.538664 -0.129203 0.276118
v -0.598044 -0.011019 0.159605
v -0.097944 -0.011019 0.544857
v -0.097944 -0.011019 0.544857
v 0.048191 0.129203 0.573466
v 0.048191 0.129203 0.573466
v -0.332348 -0.129203 0.681310
v -0.332348 -0.129203 0.681310
v -0.261708 -0.053910 0.819978
v -0.261708 -0.053910 0.819978
v -0.261640 0.129203 0.819944
v -0.261640 0.129203 0.819944
v -0.317785 -0.011019 0.709873
v -0.317785 -0.011019 0.709873
v -0.013748 -0.053910 0.635405
v -0.013748 -0.053910 0.635405
v -0.132472 -0.053910 0.754129
v -0.132472 -0.053910 0.754129
v -0.132472 0.129203 0.754129
v -0.132472 0.129203 0.754129
v -0.225085 -0.129203 0.626657
v -0.225085 -0.129203 0.626657
v -0.206006 -0.011019 0.652918
v -0.206006 -0.011019 0.652918
vn -0.0000 1.0000 -0.0000
vn 0.5878 -0.0000 0.8090
vn 0.4540 -0.0000 0.8910
vn 0.7071 -0.0000 0.7071
vn 0.5514 -0.4286 -0.7157
vn -0.8911 -0.0000 0.4538
vn -0.3406 0.6611 -0.6685
vn -0.5305 0.6611 -0.5305
vn 0.1977 -0.9002 0.3881
vn 0.3080 -0.9002 0.3080
vn -0.0000 -1.0000 -0.0000
vt 0.944723 0.451880
vt 0.962031 0.469188
vt 0.881932 0.515869
vt 0.926820 0.442758
vt 0.857886 0.124598
vt 0.857886 0.423201
vt 0.837197 0.423201
vt 0.837186 0.124598
vt 0.030928 0.423201
vt 0.001992 0.423201
vt 0.001992 0.124598
vt 0.021008 0.124598
vt 0.773992 0.139259
vt 1.000000 0.157696
vt 1.000000 0.533097
vt 0.618326 0.099512
vt 0.453028 0.357135
vt 0.877187 0.349585
vt 0.369373 0.167584
vt 0.881339 0.167616
vt 0.502928 0.281399
vt 0.533097 0.533097
vt 0.157696 0.157696
vt 0.774367 0.157681
vt 0.340214 0.672759
vt 0.360903 0.672759
vt 0.349125 0.901420
vt 0.331221 0.901420
vt 0.250419 0.443403
vt 0.479080 0.427192
vt 0.479080 0.456128
vt 0.250419 0.460711
vt 0.825872 0.001818
vt 0.843052 0.001818
vt 0.837186 0.124598
vt 0.021008 0.124598
vt 0.022409 0.001818
vt 0.032267 0.001818
vt 0.692062 0.611401
vt 0.682203 0.651627
vt 0.665023 0.627981
vt 0.631978 0.582498
s 1
usemtl lambert2SG
f 39/1/1 19/2/1 6/3/1 30/4/1
f 33/5/2 35/6/2 27/7/3 26/8/3
f 22/9/4 35/10/2 33/11/2 32/12/4
s 0
f 15/13/5 17/14/5 18/15/5 20/16/5 21/17/5 31/18/5
f 25/19/6 28/20/6 29/21/6 18/22/6 17/23/6 23/24/6
s 1
f 11/25/7 36/26/7 40/27/7 12/28/7
f 3/29/8 2/30/8 7/31/8 8/32/8
f 24/33/9 37/34/9 34/5/9 10/35/9
f 14/36/10 1/11/10 38/37/10 16/38/10
f 13/39/11 4/40/11 9/41/11 5/42/11
o Pan_cell.001
v 1.612533 -0.021165 0.000000
v 1.557290 -0.021165 -0.092515
v 1.557290 0.096458 -0.092515
v 1.612533 0.096458 0.000000
v 1.557290 -0.021165 0.092515
v 1.557290 0.096458 0.092515
v 0.909128 -0.021165 0.092515
v 0.883340 -0.021165 -0.092515
v 0.909256 0.096458 0.092515
v 0.883430 0.096458 -0.092515
v 0.909128 -0.021165 0.092515
v 0.909128 -0.021165 0.092515
v 0.883340 -0.021165 -0.092515
v 0.883340 -0.021165 -0.092515
v 0.883430 0.096458 -0.092515
v 0.883430 0.096458 -0.092515
v 0.909256 0.096458 0.092515
v 0.909256 0.096458 0.092515
v 1.612533 -0.021165 0.000000
v 1.557290 -0.021165 -0.092515
v 1.557290 -0.021165 -0.092515
v 1.557290 0.096458 -0.092515
v 1.557290 0.096458 -0.092515
v 1.612533 0.096458 0.000000
v 1.557290 0.096458 0.092515
v 1.557290 0.096458 0.092515
v 1.557290 -0.021165 0.092515
v 1.557290 -0.021165 0.092515
vn 1.0000 -0.0000 -0.0000
vn 0.8586 -0.0000 -0.5127
vn 0.8586 -0.0000 0.5127
vn -0.9904 0.0009 0.1381
vn -0.0000 -0.0000 -1.0000
vn -0.0000 -1.0000 -0.0000
vn -0.0000 -0.0000 1.0000
vn -0.0000 1.0000 -0.0000
vt 0.560398 0.679313
vt 0.560398 0.688161
vt 0.368590 0.688161
vt 0.368590 0.679313
vt 0.759191 0.698560
vt 0.567383 0.698560
vt 0.567383 0.689712
vt 0.759191 0.689712
vt 0.826258 0.440387
vt 0.768767 0.602235
vt 0.768766 0.729868
vt 0.673771 0.440562
vt 0.560398 0.796092
vt 0.560398 0.796106
vt 0.780994 0.689712
vt 0.795812 0.698560
vt 0.795812 0.802375
vt 0.780994 0.806505
vt 0.780994 0.698560
vt 0.759191 0.802354
vt 0.759191 0.802375
vt 0.818024 0.802354
vt 0.818024 0.698560
vt 0.818024 0.689712
vt 0.832842 0.698560
vt 0.832842 0.806491
s 1
usemtl lambert2SG
f 59/43/12 60/44/13 62/45/13 64/46/12
f 65/47/14 67/48/14 59/49/12 64/50/12
s 0
f 51/51/15 57/52/15 55/53/15 53/54/15
s 1
f 56/55/16 63/44/16 61/44/16 54/56/16
f 41/57/17 68/58/17 52/59/17 48/60/17 42/61/17
f 45/47/18 66/47/18 58/62/18 47/63/18
f 49/64/19 46/65/19 44/66/19 43/67/19 50/68/19
o Pan_cell.002
v -1.228286 -0.053910 -0.754130
v -1.434508 -0.053910 -0.547907
v -1.566910 -0.053910 -0.288052
v -1.612533 -0.053910 0.000000
v -1.566910 -0.053910 0.288051
v -1.228286 0.129203 -0.754130
v -1.434508 0.129203 -0.547907
v -1.566910 0.129203 -0.288052
v -1.612533 0.129203 0.000000
v -1.566910 0.129203 0.288051
v -1.154751 -0.011019 -0.652919
v -1.333298 -0.011019 -0.474373
v -1.447930 -0.011019 -0.249393
v -1.487430 -0.011019 0.000000
v -1.447930 -0.011019 0.249393
v -1.135672 -0.129203 -0.626657
v -1.307036 -0.129203 -0.455293
v -1.417057 -0.129203 -0.239362
v -1.454969 -0.129203 0.000000
v -1.417057 -0.129203 0.239361
v -1.387497 -0.129203 0.297377
v -1.446240 -0.095077 0.337454
v -1.228733 -0.011019 0.217379
v -0.759026 -0.129203 -0.082260
v -0.750173 -0.011019 -0.071702
v -1.517135 -0.053910 0.385740
v -1.507615 0.129203 0.404425
v -1.408847 -0.011019 0.326098
v -0.748491 -0.129203 -0.189852
v -0.743672 -0.011019 -0.138095
v -0.747320 -0.129203 -0.201973
v -0.739745 -0.011019 -0.178727
v -0.920842 -0.129203 -0.736119
v -0.930894 -0.011019 -0.766980
v -0.969558 -0.053910 -0.885957
v -0.969628 0.129203 -0.885922
v -0.750173 -0.011019 -0.071702
v -1.228733 -0.011019 0.217379
v -1.387497 -0.129203 0.297377
v -1.387497 -0.129203 0.297377
v -1.446240 -0.095077 0.337454
v -0.759026 -0.129203 -0.082260
v -1.507615 0.129203 0.404425
v -1.507615 0.129203 0.404425
v -1.408847 -0.011019 0.326098
v -1.408847 -0.011019 0.326098
v -1.517135 -0.053910 0.385740
v -1.517135 -0.053910 0.385740
v -0.748491 -0.129203 -0.189852
v -0.743672 -0.011019 -0.138095
v -0.747320 -0.129203 -0.201973
v -0.739745 -0.011019 -0.178727
v -0.920842 -0.129203 -0.736119
v -0.920842 -0.129203 -0.736119
v -0.969558 -0.053910 -0.885957
v -0.969558 -0.053910 -0.885957
v -0.969628 0.129203 -0.885922
v -0.969628 0.129203 -0.885922
v -0.930894 -0.011019 -0.766980
v -0.930894 -0.011019 -0.766980
v -1.228286 -0.053910 -0.754130
v -1.228286 -0.053910 -0.754130
v -1.228286 0.129203 -0.754130
v -1.228286 0.129203 -0.754130
v -1.434508 -0.053910 -0.547907
v -1.434508 -0.053910 -0.547907
v -1.434508 0.129203 -0.547907
v -1.434508 0.129203 -0.547907
v -1.566910 -0.053910 -0.288052
v -1.566910 -0.053910 -0.288052
v -1.566910 0.129203 -0.288052
v -1.566910 0.129203 -0.288052
v -1.612533 -0.053910 0.000000
v -1.612533 -0.053910 0.000000
v -1.612533 0.129203 0.000000
v -1.612533 0.129203 0.000000
v -1.566910 -0.053910 0.288051
v -1.566910 -0.053910 0.288051
v -1.566910 0.129203 0.288051
v -1.566910 0.129203 0.288051
v -1.135672 -0.129203 -0.626657
v -1.135672 -0.129203 -0.626657
v -1.307036 -0.129203 -0.455293
v -1.307036 -0.129203 -0.455293
v -1.417057 -0.129203 -0.239362
v -1.417057 -0.129203 -0.239362
v -1.454969 -0.129203 0.000000
v -1.454969 -0.129203 0.000000
v -1.417057 -0.129203 0.239361
v -1.417057 -0.129203 0.239361
v -1.154751 -0.011019 -0.652919
v -1.154751 -0.011019 -0.652919
v -1.333298 -0.011019 -0.474373
v -1.333298 -0.011019 -0.474373
v -1.447930 -0.011019 -0.249393
v -1.447930 -0.011019 -0.249393
v -1.487430 -0.011019 0.000000
v -1.487430 -0.011019 0.000000
v -1.447930 -0.011019 0.249393
v -1.447930 -0.011019 0.249393
vn 0.5137 -0.1144 0.8503
vn 0.5134 -0.1135 0.8506
vn 0.9918 -0.0830 0.0971
vn 0.9920 -0.0824 0.0959
vn -0.4540 -0.0000 -0.8910
vn -0.5878 -0.0000 -0.8090
vn -0.8090 -0.0000 -0.5878
vn -0.9511 -0.0000 -0.3090
vn -1.0000 -0.0000 -0.0000
vn -0.9511 -0.0000 0.3090
vn -0.8910 -0.0000 0.4540
vn -0.0000 -1.0000 -0.0000
vn -0.0000 1.0000 -0.0000
vn 0.3406 0.6611 0.6685
vn 0.5305 0.6611 0.5305
vn 0.6685 0.6611 0.3406
vn 0.7410 0.6611 0.1174
vn 0.7410 0.6611 -0.1174
vn 0.6685 0.6611 -0.3406
vn -0.1977 -0.9002 -0.3880
vn -0.3080 -0.9002 -0.3080
vn -0.3880 -0.9002 -0.1977
vn -0.4302 -0.9002 -0.0681
vn -0.4302 -0.9002 0.0681
vn -0.3880 -0.9002 0.1977
vn 0.9510 0.0001 -0.3090
vt 0.138315 0.000000
vt 0.468267 0.000000
vt 1.000000 0.531568
vt 1.000000 0.766174
vt 0.836617 0.698085
vt 0.832496 0.139447
vt 0.842676 0.651065
vt 0.766174 0.766174
vt 0.531568 0.531568
vt 0.725876 0.531354
vt 1.000000 0.531733
vt 1.000000 0.861685
vt 0.139993 0.000000
vt 0.469302 0.000000
vt 0.139993 0.139993
vt 0.140051 0.000000
vt 0.469496 0.000000
vt 0.469302 0.469302
vt 0.291143 0.300421
vt 0.249704 0.300421
vt 0.249704 0.001818
vt 0.291132 0.001818
vt 0.432905 0.124598
vt 0.465936 0.124598
vt 0.465936 0.423201
vt 0.432905 0.423201
vt 0.507556 0.124598
vt 0.507556 0.423201
vt 0.553693 0.124598
vt 0.553693 0.423201
vt 0.599829 0.124598
vt 0.599829 0.423201
vt 0.618469 0.423201
vt 0.615476 0.124598
vt 0.496022 0.598887
vt 0.491287 0.589595
vt 0.485215 0.551257
vt 0.491287 0.512919
vt 0.508910 0.478334
vt 0.536357 0.450886
vt 0.570766 0.498246
vt 0.598558 0.536500
vt 0.598371 0.536241
vt 0.596683 0.542105
vt 0.857565 0.571842
vt 0.858606 0.587656
vt 0.859235 0.585721
vt 0.828619 0.679302
vt 0.792765 0.661033
vt 0.764167 0.632436
vt 0.745807 0.596401
vt 0.739480 0.556456
vt 0.745807 0.516511
vt 0.752067 0.518545
vt 0.780915 0.527919
vt 0.001992 0.901420
vt 0.013770 0.672759
vt 0.049624 0.672759
vt 0.043421 0.901420
vt 0.244284 0.427192
vt 0.244284 0.460223
vt 0.015622 0.472000
vt 0.015622 0.443403
vt 0.244284 0.501843
vt 0.015622 0.508035
vt 0.244284 0.547980
vt 0.015622 0.547980
vt 0.244284 0.594116
vt 0.015622 0.587925
vt 0.244284 0.612755
vt 0.015622 0.600211
vt 0.298947 0.423201
vt 0.264538 0.423201
vt 0.291143 0.300421
vt 0.453322 0.001818
vt 0.480769 0.001818
vt 0.515355 0.001818
vt 0.553693 0.001818
vt 0.592031 0.001818
vt 0.601323 0.001818
vt 0.607742 0.057466
vt 0.306542 0.166479
vt 0.349747 0.114399
vt 0.859746 0.114510
vt 0.469325 0.255897
vt 1.000000 0.530504
vt 1.000000 0.859949
s 0
usemtl lambert2SG
f 110/69/20 105/70/20 106/71/20 109/72/20 107/73/20
f 111/74/21 115/75/21 109/76/21 106/77/21 113/78/21
f 105/79/22 110/80/22 117/81/22 118/82/22
f 117/83/23 119/84/23 120/85/23 118/86/23
s 1
f 124/87/24 129/88/25 131/89/25 125/90/24
f 129/91/25 133/92/26 135/93/26 131/94/25
f 133/92/26 137/95/27 139/96/27 135/93/26
f 137/95/27 141/97/28 143/98/28 139/96/27
f 141/97/28 145/99/29 147/100/29 143/98/28
f 112/101/30 147/100/29 145/99/29 116/102/30
f 108/103/31 157/104/31 155/105/31 153/106/31 151/107/31 149/108/31 121/109/31 99/110/31 97/111/31 92/112/31
f 93/113/32 98/114/32 100/115/32 128/116/32 159/117/32 161/118/32 163/119/32 165/120/32 167/121/32 114/122/32 91/123/32
f 132/124/33 160/125/33 127/126/33 126/127/33
f 74/128/34 136/129/34 162/130/34 79/131/34
f 75/129/35 140/132/35 164/133/35 80/130/35
f 76/132/36 144/134/36 166/135/36 81/133/36
f 77/134/37 148/136/37 168/137/37 82/135/37
f 78/136/38 95/138/38 96/139/38 83/137/38
f 122/140/39 150/141/39 130/88/39 123/142/39
f 134/92/40 69/91/40 84/143/40 152/144/40
f 138/95/41 70/92/41 85/144/41 154/145/41
f 142/97/42 71/95/42 86/145/42 156/146/42
f 146/99/43 72/97/43 87/146/43 158/147/43
f 73/99/44 88/147/44 89/148/44 90/149/44 94/102/44
s 0
f 101/150/45 103/151/45 104/152/45 102/153/45 120/154/45 119/155/45
o Pan_cell.003
v -1.434508 -0.053910 0.547907
v -1.228286 -0.053910 0.754129
v -0.968430 -0.053910 0.886532
v -1.434508 0.129203 0.547907
v -1.228286 0.129203 0.754129
v -0.968430 0.129203 0.886532
v -1.333298 -0.011019 0.474373
v -1.154751 -0.011019 0.652918
v -0.929771 -0.011019 0.767552
v -1.307036 -0.129203 0.455293
v -1.135672 -0.129203 0.626657
v -0.919741 -0.129203 0.736679
v -0.825104 -0.053910 0.909233
v -0.825228 0.129203 0.909213
v -0.764119 -0.011019 0.524092
v -0.805799 -0.011019 0.787187
v -0.806840 -0.110265 0.794192
v -1.516308 -0.053910 0.387364
v -1.506805 0.129203 0.406015
v -1.226922 -0.011019 0.218286
v -1.408040 -0.011019 0.327683
v -1.445034 -0.095301 0.338801
v -1.386609 -0.129203 0.299120
v -0.758097 -0.129203 -0.079975
v -0.749302 -0.011019 -0.069796
v -0.718610 -0.011019 -0.034034
v -0.724506 -0.011019 -0.041080
v -0.750709 -0.129203 -0.071420
v -0.741140 -0.129203 -0.059986
v -0.712255 -0.011019 -0.026396
v -0.688257 -0.011019 0.041283
v -0.693508 -0.129203 0.074346
v -0.689258 -0.011019 0.048744
v -0.800785 -0.129203 0.755520
v -0.825228 0.129203 0.909213
v -0.825228 0.129203 0.909213
v -0.805799 -0.011019 0.787187
v -0.805799 -0.011019 0.787187
v -0.825104 -0.053910 0.909233
v -0.825104 -0.053910 0.909233
v -0.806840 -0.110265 0.794192
v -0.764119 -0.011019 0.524092
v -1.516308 -0.053910 0.387364
v -1.516308 -0.053910 0.387364
v -1.445034 -0.095301 0.338801
v -1.506805 0.129203 0.406015
v -1.506805 0.129203 0.406015
v -1.408040 -0.011019 0.327683
v -1.408040 -0.011019 0.327683
v -1.226922 -0.011019 0.218286
v -1.386609 -0.129203 0.299120
v -1.386609 -0.129203 0.299120
v -0.758097 -0.129203 -0.079975
v -0.749302 -0.011019 -0.069796
v -0.750709 -0.129203 -0.071420
v -0.741140 -0.129203 -0.059986
v -0.718610 -0.011019 -0.034034
v -0.724506 -0.011019 -0.041080
v -0.712255 -0.011019 -0.026396
v -0.693508 -0.129203 0.074346
v -0.688257 -0.011019 0.041283
v -0.689258 -0.011019 0.048744
v -0.800785 -0.129203 0.755520
v -0.800785 -0.129203 0.755520
v -1.434508 -0.053910 0.547907
v -1.434508 -0.053910 0.547907
v -1.434508 0.129203 0.547907
v -1.434508 0.129203 0.547907
v -1.228286 -0.053910 0.754129
v -1.228286 -0.053910 0.754129
v -1.228286 0.129203 0.754129
v -1.228286 0.129203 0.754129
v -0.968430 -0.053910 0.886532
v -0.968430 -0.053910 0.886532
v -0.968430 0.129203 0.886532
v -0.968430 0.129203 0.886532
v -1.307036 -0.129203 0.455293
v -1.307036 -0.129203 0.455293
v -1.135672 -0.129203 0.626657
v -1.135672 -0.129203 0.626657
v -0.919741 -0.129203 0.736679
v -0.919741 -0.129203 0.736679
v -1.333298 -0.011019 0.474373
v -1.333298 -0.011019 0.474373
v -1.154751 -0.011019 0.652918
v -1.154751 -0.011019 0.652918
v -0.929771 -0.011019 0.767552
v -0.929771 -0.011019 0.767552
vn 0.9877 0.0007 0.1565
vn -0.5137 0.1133 -0.8505
vn -0.5133 0.1115 -0.8510
vn 0.7669 -0.0053 -0.6418
vn 0.7687 -0.0061 -0.6395
vn 0.9340 -0.1341 -0.3312
vn 0.9911 -0.0068 0.1330
vn 0.9878 -0.0018 0.1556
vn 0.7569 -0.0000 -0.6536
vn -0.8910 -0.0000 0.4540
vn -0.8090 -0.0000 0.5878
vn -0.5878 -0.0000 0.8090
vn -0.3090 -0.0000 0.9511
vn -0.1564 -0.0000 0.9877
vn -0.0000 -1.0000 -0.0000
vn -0.0000 1.0000 -0.0000
vn 0.6685 0.6611 -0.3406
vn 0.5305 0.6611 -0.5305
vn 0.3406 0.6611 -0.6685
vn 0.1174 0.6611 -0.7410
vn -0.3881 -0.9002 0.1977
vn -0.3080 -0.9002 0.3080
vn -0.1977 -0.9002 0.3880
vn -0.0681 -0.9002 0.4302
vt 0.859635 0.784544
vt 0.349285 0.274646
vt 0.192509 0.000000
vt 0.469798 0.000000
vt 0.469134 0.269206
vt 0.765364 0.000000
vt 0.842230 0.192338
vt 0.832037 0.693019
vt 0.725499 0.195280
vt 0.530202 0.000000
vt 0.860046 0.000000
vt 0.859973 0.697707
vt 0.765364 0.765364
vt 0.530202 0.530202
vt 0.530258 0.000000
vt 1.000000 0.859182
vt 0.140054 0.000000
vt 0.470079 0.000000
vt 1.000000 0.529450
vt 0.529450 0.529450
vt 1.000000 0.432874
vt 0.859182 0.859182
vt 0.432835 0.000000
vt 0.830206 0.000000
vt 0.830280 0.830280
vt 0.432874 0.432874
vt 0.830206 0.830206
vt 0.432835 0.432835
vt 1.000000 0.529411
vt 0.859118 0.859118
vt 0.529411 0.529411
vt 0.530202 0.000000
vt 0.807491 0.000000
vt 0.860252 0.100471
vt 0.469742 0.000000
vt 0.470079 0.470079
vt 0.140054 0.140054
vt 0.139954 0.000000
vt 0.615736 0.124598
vt 0.641450 0.124598
vt 0.641450 0.423201
vt 0.618723 0.423201
vt 0.674480 0.124598
vt 0.674480 0.423201
vt 0.682371 0.124598
vt 0.723992 0.124598
vt 0.723992 0.423201
vt 0.682371 0.423201
vt 0.746928 0.423201
vt 0.746948 0.124598
vt 0.607177 0.674989
vt 0.589995 0.672268
vt 0.570942 0.669250
vt 0.536357 0.651627
vt 0.508910 0.624180
vt 0.496164 0.599166
vt 0.596832 0.542213
vt 0.598015 0.543073
vt 0.599853 0.544408
vt 0.867322 0.552079
vt 0.867482 0.552573
vt 0.863639 0.563483
vt 0.862621 0.564884
vt 0.861676 0.566184
vt 0.857705 0.571650
vt 0.781205 0.528013
vt 0.752196 0.518587
vt 0.764167 0.480477
vt 0.792765 0.451880
vt 0.828799 0.433519
vt 0.848655 0.494630
vt 0.855331 0.515177
vt 0.244284 0.635737
vt 0.015622 0.623959
vt 0.015622 0.600464
vt 0.244284 0.613010
vt 0.244284 0.668767
vt 0.015622 0.652556
vt 0.185388 0.672759
vt 0.227009 0.672759
vt 0.233201 0.901420
vt 0.197166 0.901420
vt 0.253057 0.901420
vt 0.249946 0.672759
vt 0.626616 0.001818
vt 0.607958 0.057101
vt 0.601602 0.001818
vt 0.654063 0.001818
vt 0.697205 0.001818
vt 0.731790 0.001818
vt 0.746948 0.124598
vt 0.750843 0.001818
vt 0.749873 0.032695
s 0
usemtl lambert2SG
f 203/156/46 207/157/46 209/158/46 210/159/46 205/160/46
f 213/161/47 211/162/47 214/163/47 216/164/47 218/165/47
f 221/166/48 219/167/48 213/168/48 218/169/48 222/170/48
f 224/171/49 223/172/49 226/173/49 225/174/49
f 225/175/50 227/176/50 224/177/50
f 229/178/51 228/179/51 224/180/51 227/181/51
f 228/182/52 229/183/52 230/184/52
f 228/185/53 230/186/53 210/187/53 209/188/53 231/189/53
f 222/190/54 226/191/54 223/192/54 221/193/54
s 1
f 212/194/55 233/195/56 235/196/56 215/197/55
f 233/195/56 237/198/57 239/199/57 235/196/56
f 237/200/57 241/201/58 243/202/58 239/203/57
f 204/204/59 243/202/58 241/201/58 208/205/59
f 200/206/60 232/207/60 249/208/60 247/209/60 245/210/60 220/211/60 192/212/60 196/213/60 197/214/60
f 201/215/61 199/216/61 198/217/61 194/218/61 195/219/61 193/220/61 188/221/61 217/222/61 251/223/61 253/224/61 255/225/61 206/226/61 183/227/61
f 236/228/62 252/229/62 189/230/62 187/231/62
f 172/228/63 240/232/63 254/233/63 175/229/63
f 173/234/64 244/235/64 256/236/64 176/237/64
f 184/238/65 177/236/65 174/235/65 182/239/65
f 246/240/66 234/195/66 186/194/66 190/241/66 191/242/66
f 238/198/67 169/195/67 178/240/67 248/243/67
f 242/201/68 170/200/68 179/244/68 250/245/68
f 181/246/69 171/201/69 180/245/69 202/247/69 185/248/69
o Pan_cell.004
v 0.206154 -0.053910 -0.288052
v 0.206154 0.129203 -0.288052
v 0.087175 -0.011019 -0.249393
v 0.126673 -0.011019 0.000000
v 0.228965 -0.053910 -0.144026
v 0.228965 0.129203 -0.144026
v 0.233045 -0.021165 -0.092515
v 0.233045 0.096458 -0.092515
v 0.056302 -0.129203 -0.239362
v -0.053722 -0.129203 -0.455293
v 0.094212 -0.129203 0.000000
v -0.745621 -0.129203 -0.202035
v -0.738036 -0.011019 -0.178534
v -0.060889 -0.129203 -0.462460
v -0.033029 -0.116981 -0.470327
v -0.016539 -0.011019 -0.452941
v 0.095541 -0.053910 -0.505144
v 0.113044 0.129203 -0.470791
v -0.756562 -0.129203 -0.081362
v -0.747480 -0.129203 -0.070520
v -0.747952 -0.011019 -0.071122
v -0.742352 -0.011019 -0.064436
v -0.746783 -0.129203 -0.189941
v -0.741922 -0.011019 -0.138075
v 0.025272 -0.129203 0.152099
v 0.074660 -0.129203 0.123449
v 0.120649 -0.011019 0.038036
v -0.071092 -0.011019 0.149263
v 0.157049 0.023028 0.000000
v 0.243256 -0.021165 -0.028045
v 0.231334 -0.063679 0.000000
v 0.354394 -0.021165 -0.092515
v 0.253623 0.096458 -0.092515
v 0.249352 -0.053910 -0.015308
v 0.234777 0.096458 -0.081582
v 0.236151 0.129203 -0.098653
v -0.343741 -0.011019 0.074005
v -0.055496 -0.129203 0.129805
v -0.710640 -0.011019 -0.027852
v -0.738155 -0.129203 -0.059734
v -0.033029 -0.116981 -0.470327
v -0.033029 -0.116981 -0.470327
v 0.095541 -0.053910 -0.505144
v 0.095541 -0.053910 -0.505144
v -0.060889 -0.129203 -0.462460
v -0.060889 -0.129203 -0.462460
v -0.745621 -0.129203 -0.202035
v -0.738036 -0.011019 -0.178534
v -0.016539 -0.011019 -0.452941
v -0.016539 -0.011019 -0.452941
v -0.055496 -0.129203 0.129805
v -0.738155 -0.129203 -0.059734
v 0.113044 0.129203 -0.470791
v 0.113044 0.129203 -0.470791
v -0.756562 -0.129203 -0.081362
v -0.747480 -0.129203 -0.070520
v -0.747952 -0.011019 -0.071122
v -0.742352 -0.011019 -0.064436
v -0.741922 -0.011019 -0.138075
v -0.746783 -0.129203 -0.189941
v -0.710640 -0.011019 -0.027852
v 0.243256 -0.021165 -0.028045
v 0.243256 -0.021165 -0.028045
v 0.249352 -0.053910 -0.015308
v 0.249352 -0.053910 -0.015308
v 0.354394 -0.021165 -0.092515
v 0.354394 -0.021165 -0.092515
v 0.253623 0.096458 -0.092515
v 0.253623 0.096458 -0.092515
v 0.234777 0.096458 -0.081582
v 0.234777 0.096458 -0.081582
v 0.236151 0.129203 -0.098653
v 0.236151 0.129203 -0.098653
v 0.157049 0.023028 0.000000
v 0.157049 0.023028 0.000000
v 0.120649 -0.011019 0.038036
v 0.120649 -0.011019 0.038036
v -0.071092 -0.011019 0.149263
v 0.025272 -0.129203 0.152099
v 0.074660 -0.129203 0.123449
v 0.074660 -0.129203 0.123449
v 0.231334 -0.063679 0.000000
v 0.231334 -0.063679 0.000000
v -0.343741 -0.011019 0.074005
v 0.206154 0.129203 -0.288052
v 0.206154 0.129203 -0.288052
v 0.206154 -0.053910 -0.288052
v 0.206154 -0.053910 -0.288052
v 0.056302 -0.129203 -0.239362
v 0.056302 -0.129203 -0.239362
v -0.053722 -0.129203 -0.455293
v -0.053722 -0.129203 -0.455293
v 0.094212 -0.129203 0.000000
v 0.094212 -0.129203 0.000000
v 0.087175 -0.011019 -0.249393
v 0.087175 -0.011019 -0.249393
v 0.126673 -0.011019 0.000000
v 0.126673 -0.011019 0.000000
v 0.228965 0.129203 -0.144026
v 0.228965 0.129203 -0.144026
v 0.228965 0.129203 -0.144026
v 0.228965 -0.053910 -0.144026
v 0.228965 -0.053910 -0.144026
v 0.228965 -0.053910 -0.144026
v 0.233045 -0.021165 -0.092515
v 0.233045 -0.021165 -0.092515
v 0.233045 -0.021165 -0.092515
v 0.233045 0.096458 -0.092515
v 0.233045 0.096458 -0.092515
v 0.233045 0.096458 -0.092515
vn -0.7666 0.0002 0.6421
vn -0.9928 0.0801 -0.0894
vn -0.9920 0.0826 -0.0953
vn 0.4610 0.3949 0.7947
vn -0.2612 -0.1903 0.9463
vn -0.2624 -0.1938 0.9453
vn -0.7558 -0.0008 0.6548
vn 0.8910 -0.0000 -0.4540
vn 0.9511 -0.0000 -0.3090
vn 0.4302 -0.9002 0.0681
vn -0.0000 -1.0000 -0.0000
vn -0.0000 1.0000 -0.0000
vn -0.3480 0.2043 -0.9150
vn -0.6685 0.6611 0.3406
vn -0.7410 0.6611 -0.1174
vn 0.9877 -0.0000 -0.1564
vn 0.9803 0.1221 -0.1553
vn 0.9969 -0.0000 -0.0790
vn 0.9803 -0.1221 -0.1553
vn -0.0000 -0.0000 -1.0000
vn 0.3880 -0.9002 -0.1977
vn 0.3080 -0.9002 -0.3080
vn -0.7410 0.6611 0.1174
vn 0.4302 -0.9002 -0.0681
vt 1.000000 0.859432
vt 0.138708 0.000000
vt 0.468898 0.000000
vt 1.000000 0.529955
vt 0.529955 0.529955
vt 0.530001 0.000000
vt 0.859507 0.000000
vt 0.859432 0.859432
vt 0.859507 0.859507
vt 0.530001 0.530001
vt 1.000000 0.530685
vt 1.000000 0.859711
vt 0.849839 0.290036
vt 0.955208 0.395350
vt 0.622331 0.390740
vt 0.604462 0.372881
vt 0.539694 0.399484
vt 0.678935 0.242492
vt 0.713123 0.181693
vt 0.531335 0.000000
vt 0.861166 0.000000
vt 0.907991 0.046800
vt 0.924319 0.245890
vt 0.921691 0.270512
vt 0.531335 0.531335
vt 1.000000 0.449911
vt 1.000000 0.837046
vt 0.861166 0.861166
vt 0.449911 0.449911
vt 0.450057 0.000000
vt 0.837318 0.000000
vt 0.837046 0.837046
vt 0.833085 0.833085
vt 0.435748 0.435748
vt 1.000000 0.531102
vt 1.000000 0.861292
vt 0.198185 0.423201
vt 0.168916 0.423201
vt 0.168916 0.124598
vt 0.203688 0.124598
vt 0.103007 0.001818
vt 0.122780 0.001818
vt 0.122780 0.108668
vt 0.708503 0.477186
vt 0.709651 0.478334
vt 0.727273 0.512919
vt 0.733345 0.551257
vt 0.730213 0.551257
vt 0.722303 0.551257
vt 0.709367 0.551257
vt 0.600026 0.544534
vt 0.598533 0.543449
vt 0.597078 0.542392
vt 0.598644 0.536618
vt 0.598830 0.519096
vt 0.859509 0.684258
vt 0.858887 0.586794
vt 0.857921 0.571353
vt 0.858818 0.570118
vt 0.863897 0.563127
vt 0.922662 0.538937
vt 0.966332 0.524747
vt 0.997043 0.550364
vt 0.998008 0.556456
vt 0.991681 0.596401
vt 0.975069 0.591004
vt 0.916641 0.447549
vt 0.534897 0.139863
vt 0.868428 0.518781
vt 0.615635 0.441539
vt 0.564821 0.424744
vt 0.140289 0.000000
vt 0.469315 0.000000
vt 0.250419 0.620526
vt 0.250419 0.587924
vt 0.479080 0.594116
vt 0.479080 0.623385
vt 0.250419 0.547980
vt 0.250419 0.541888
vt 0.305940 0.547980
vt 0.145848 0.423201
vt 0.145848 0.124598
vt 0.137597 0.177996
vt 0.127272 0.177996
vt 0.125232 0.124598
vt 0.137597 0.369803
vt 0.138581 0.423201
vt 0.135846 0.369803
vt 0.766176 0.910662
vt 0.780994 0.891226
vt 0.776502 0.909027
vt 0.560398 0.880827
vt 0.560398 0.900263
vt 0.560398 0.896967
vt 0.832842 0.910662
vt 0.832842 0.910385
vt 0.832842 0.907366
vt 0.161118 0.001818
vt 0.195703 0.001818
vt 0.198111 0.021749
vt 0.196851 0.001818
vt 0.198111 0.021749
vt 0.479080 0.571048
vt 0.305940 0.547980
vt 0.479080 0.563781
vt 0.122780 0.108668
s 0
usemtl lambert2SG
f 311/249/70 312/250/70 314/251/70 313/252/70
f 313/253/71 315/254/71 316/255/71 311/256/71
f 316/257/72 315/258/72 304/259/72 268/260/72
f 318/261/73 322/262/73 324/263/73 326/264/73 328/265/73 330/266/73 332/267/73 334/268/73 335/269/73 336/270/73 338/271/73 320/272/73
f 334/273/74 340/274/74 307/275/74 335/276/74
f 340/277/75 317/278/75 308/279/75 307/280/75
f 308/281/76 317/282/76 314/283/76 312/284/76
s 1
f 310/285/77 341/286/78 343/287/78 300/288/77
f 337/289/79 349/290/79 339/291/79
f 302/292/80 347/293/80 345/294/80 350/295/80 282/296/80 281/297/80 294/298/80 296/299/80 276/300/80 275/301/80 279/302/80 303/303/80
f 269/304/81 280/305/81 277/306/81 278/307/81 295/308/81 293/309/81 284/310/81 333/311/81 353/312/81 351/313/81 305/314/81
s 0
f 306/315/82 309/316/82 299/317/82 297/318/82 301/319/82 268/320/82 304/321/82
s 1
f 272/322/83 352/323/83 342/324/83 274/325/83
f 354/326/84 283/327/84 331/328/84
f 356/329/85 358/330/85 343/287/78 341/286/78
f 359/330/86 361/331/86 319/332/86 321/333/86
f 261/330/87 357/329/87 364/334/87 362/331/87
f 365/334/88 355/329/88 329/335/88 327/336/88
f 363/337/80 323/338/80 286/339/80
f 288/340/89 263/341/89 366/341/89 325/342/89
f 264/343/81 291/344/81 289/345/81
f 344/287/90 346/346/90 348/347/90 298/348/90 273/288/90
f 266/347/91 270/349/91 271/350/91
f 262/351/92 258/324/92 259/323/92 260/326/92 285/352/92 292/353/92
f 360/330/93 290/333/93 287/354/93 267/290/93 265/346/93 257/287/93
o Pan_cell.005
v -0.680379 -0.053910 0.932155
v -0.680379 0.129203 0.932155
v -0.680379 -0.011019 0.807052
v -0.680379 -0.129203 0.774590
v -0.661400 -0.129203 0.129348
v -0.668417 -0.011019 0.085884
v -0.670760 -0.011019 0.073111
v -0.638925 -0.129203 0.269807
v -0.595663 -0.011019 0.542435
v -0.686608 -0.011019 0.044428
v -0.691248 -0.129203 0.075328
v -0.537346 -0.053910 0.909501
v -0.537407 0.129203 0.909510
v -0.556743 -0.011019 0.787470
v -0.561733 -0.129203 0.755798
v -0.803082 -0.116838 0.781032
v -0.799056 -0.129203 0.755794
v -0.749324 -0.011019 0.440278
v -0.823433 -0.053910 0.909497
v -0.823579 0.129203 0.909474
v -0.804182 -0.011019 0.787444
v -0.668417 -0.011019 0.085884
v -0.670760 -0.011019 0.073111
v -0.595663 -0.011019 0.542435
v -0.686608 -0.011019 0.044428
v -0.661400 -0.129203 0.129348
v -0.638925 -0.129203 0.269807
v -0.691248 -0.129203 0.075328
v -0.537346 -0.053910 0.909501
v -0.537346 -0.053910 0.909501
v -0.537407 0.129203 0.909510
v -0.537407 0.129203 0.909510
v -0.561733 -0.129203 0.755798
v -0.561733 -0.129203 0.755798
v -0.556743 -0.011019 0.787470
v -0.556743 -0.011019 0.787470
v -0.799056 -0.129203 0.755794
v -0.799056 -0.129203 0.755794
v -0.803082 -0.116838 0.781032
v -0.749324 -0.011019 0.440278
v -0.823433 -0.053910 0.909497
v -0.823433 -0.053910 0.909497
v -0.823579 0.129203 0.909474
v -0.823579 0.129203 0.909474
v -0.804182 -0.011019 0.787444
v -0.804182 -0.011019 0.787444
v -0.680379 -0.053910 0.932155
v -0.680379 -0.053910 0.932155
v -0.680379 0.129203 0.932155
v -0.680379 0.129203 0.932155
v -0.680379 -0.129203 0.774590
v -0.680379 -0.129203 0.774590
v -0.680379 -0.011019 0.807052
v -0.680379 -0.011019 0.807052
vn 0.9836 -0.0079 -0.1804
vn 0.9875 0.0013 -0.1575
vn 0.8642 -0.1588 -0.4775
vn 0.9876 0.0003 -0.1569
vn -0.9877 -0.0021 -0.1565
vn -0.9877 -0.0008 -0.1561
vn -0.1564 -0.0000 0.9877
vn -0.0000 -0.0000 1.0000
vn 0.1564 -0.0000 0.9877
vn -0.0000 -1.0000 -0.0000
vn 0.1174 0.6611 -0.7410
vn -0.1174 0.6611 -0.7410
vn -0.0681 -0.9002 0.4302
vn 0.0681 -0.9002 0.4302
vn -0.0000 1.0000 -0.0000
vt 0.166891 0.000000
vt 0.557644 0.000000
vt 0.469315 0.469315
vt 1.000000 0.140456
vt 1.000000 0.469315
vt 0.530570 0.000000
vt 0.859510 0.000000
vt 0.557107 0.000000
vt 1.000000 0.442356
vt 1.000000 0.833109
vt 0.165880 0.000000
vt 0.651405 0.087371
vt 0.861029 0.272807
vt 0.859510 0.859510
vt 0.530570 0.530570
vt 0.531336 0.234757
vt 0.140429 0.087646
vt 0.165880 0.165880
vt 0.927212 0.166011
vt 1.000000 0.206949
vt 1.000000 0.557183
vt 0.557107 0.557107
vt 0.362023 0.074756
vt 0.873340 0.074506
vt 0.501401 0.200198
vt 0.557183 0.557183
vt 0.206949 0.206949
vt 0.747216 0.124598
vt 0.770128 0.124598
vt 0.770128 0.423201
vt 0.747192 0.423201
vt 0.793028 0.423201
vt 0.793038 0.124598
vt 0.612432 0.560958
vt 0.615920 0.571692
vt 0.628283 0.609743
vt 0.609280 0.551257
vt 0.590272 0.672311
vt 0.607539 0.675046
vt 0.250210 0.672759
vt 0.273146 0.672759
vt 0.273146 0.901420
vt 0.253317 0.901420
vt 0.292948 0.901420
vt 0.296045 0.672759
vt 0.770128 0.001818
vt 0.750475 0.021980
vt 0.751120 0.001818
vt 0.789132 0.001818
vt 0.868744 0.556456
vt 0.888547 0.430329
vt 0.882313 0.429341
vt 0.870660 0.427495
vt 0.870285 0.427436
vt 0.867746 0.553385
vt 0.857701 0.522470
vt 0.848915 0.495428
s 0
usemtl lambert2SG
f 392/355/94 389/356/94 388/357/94
f 392/358/95 388/359/95 390/360/95 393/361/95
f 391/362/96 389/363/96 392/364/96 394/365/96
f 395/366/97 399/367/97 393/368/97 390/369/97 401/370/97 397/371/97
f 394/372/98 403/373/98 405/374/98 406/375/98 391/376/98
f 407/377/99 409/378/99 411/379/99 406/380/99 405/381/99
s 1
f 408/382/100 413/383/101 415/384/101 410/385/100
f 398/386/102 415/384/101 413/383/101 396/387/102
f 371/388/103 374/389/103 400/390/103 417/391/103 404/392/103 377/393/103
f 386/394/104 416/395/104 419/396/104 412/397/104
f 402/398/105 420/396/105 368/395/105 379/399/105
f 418/400/106 414/383/106 385/382/106 382/401/106 383/402/106
f 378/387/107 367/383/107 370/400/107 381/403/107
f 369/404/108 380/405/108 375/406/108 372/407/108 373/408/108 376/409/108 384/410/108 387/411/108
o Pan_cell.006
v 0.073750 -0.053910 0.547907
v 0.073750 0.129203 0.547907
v -0.027459 -0.011019 0.474373
v -0.053722 -0.129203 0.455293
v 0.056301 -0.129203 0.239361
v -0.685751 -0.011019 0.041412
v -0.690532 -0.129203 0.072394
v -0.709537 -0.011019 -0.025373
v -0.736638 -0.129203 -0.057059
v -0.058662 -0.129203 0.131059
v -0.348139 -0.011019 0.074626
v -0.669873 -0.011019 0.069831
v -0.659111 -0.129203 0.128494
v -0.542818 -0.129203 0.268533
v -0.605805 -0.011019 0.147789
v -0.600335 -0.011019 0.154341
v 0.023947 -0.129203 0.154077
v -0.072118 -0.011019 0.151538
v 0.064712 -0.129203 0.186255
v 0.077041 -0.011019 0.269278
v 0.185607 -0.053910 0.328376
v 0.150340 0.102591 0.397591
v 0.133239 0.106067 0.386247
v 0.133290 -0.090520 0.264376
v -0.161481 -0.129203 0.563053
v -0.011803 -0.053910 0.633460
v -0.553084 -0.011019 0.190850
v -0.527106 -0.129203 0.281366
v 0.049893 0.129203 0.571764
v -0.096054 -0.011019 0.542967
v 0.144321 0.129203 0.409404
v -0.659111 -0.129203 0.128494
v -0.690532 -0.129203 0.072394
v -0.669873 -0.011019 0.069831
v -0.605805 -0.011019 0.147789
v -0.736638 -0.129203 -0.057059
v -0.542818 -0.129203 0.268533
v -0.527106 -0.129203 0.281366
v -0.709537 -0.011019 -0.025373
v -0.685751 -0.011019 0.041412
v -0.600335 -0.011019 0.154341
v -0.348139 -0.011019 0.074626
v -0.072118 -0.011019 0.151538
v -0.058662 -0.129203 0.131059
v 0.023947 -0.129203 0.154077
v 0.185607 -0.053910 0.328376
v 0.185607 -0.053910 0.328376
v 0.150340 0.102591 0.397591
v 0.133290 -0.090520 0.264376
v 0.133290 -0.090520 0.264376
v 0.064712 -0.129203 0.186255
v 0.064712 -0.129203 0.186255
v 0.077041 -0.011019 0.269278
v 0.077041 -0.011019 0.269278
v 0.133239 0.106067 0.386247
v -0.161481 -0.129203 0.563053
v -0.161481 -0.129203 0.563053
v -0.011803 -0.053910 0.633460
v -0.011803 -0.053910 0.633460
v -0.553084 -0.011019 0.190850
v -0.096054 -0.011019 0.542967
v -0.096054 -0.011019 0.542967
v 0.049893 0.129203 0.571764
v 0.049893 0.129203 0.571764
v 0.144321 0.129203 0.409404
v 0.144321 0.129203 0.409404
v 0.073750 -0.053910 0.547907
v 0.073750 -0.053910 0.547907
v 0.073750 0.129203 0.547907
v 0.073750 0.129203 0.547907
v -0.053722 -0.129203 0.455293
v -0.053722 -0.129203 0.455293
v 0.056301 -0.129203 0.239361
v 0.056301 -0.129203 0.239361
v -0.027459 -0.011019 0.474373
v -0.027459 -0.011019 0.474373
vn -0.9346 0.1251 0.3329
vn 0.2622 0.1920 -0.9457
vn -0.8613 0.1610 0.4820
vn -0.7486 0.2365 0.6194
vn -0.7455 0.2385 0.6224
vn 0.2633 0.1937 -0.9450
vn 0.5571 0.4377 -0.7058
vn -0.5596 0.4207 0.7140
vn 0.5569 0.4390 -0.7051
vn 0.7071 -0.0000 0.7071
vn 0.8090 -0.0000 0.5878
vn 0.8910 -0.0000 0.4540
vn -0.5518 0.4272 0.7162
vn -0.0000 1.0000 -0.0000
vn -0.0000 -1.0000 -0.0000
vn -0.5305 0.6611 -0.5305
vn -0.6685 0.6611 -0.3406
vn 0.3080 -0.9002 0.3080
vn 0.3880 -0.9002 0.1977
vn 0.4302 -0.9002 0.0681
vt 1.000000 0.428188
vt 1.000000 0.829983
vt 0.170406 0.000000
vt 0.572013 0.000000
vt 0.834760 0.834760
vt 0.444256 0.444256
vt 0.443569 0.000000
vt 0.833469 0.000000
vt 1.000000 0.427987
vt 1.000000 0.829594
vt 0.168702 0.000000
vt 0.571133 0.000000
vt 0.555060 0.555060
vt 0.163954 0.163954
vt 1.000000 0.165692
vt 1.000000 0.555985
vt 0.555985 0.555985
vt 0.161158 0.000000
vt 0.540769 0.000000
vt 0.530083 0.000000
vt 0.859362 0.000000
vt 1.000000 0.166531
vt 1.000000 0.556432
vt 0.299737 0.000000
vt 0.710600 0.498406
vt 0.790131 0.656084
vt 0.870523 0.831709
vt 0.859362 0.859362
vt 0.530084 0.530084
vt 0.570921 0.428902
vt 0.286145 0.000000
vt 1.000000 0.838842
vt 0.860136 0.860136
vt 0.530684 0.530684
vt 1.000000 0.459231
vt 0.881929 0.686119
vt 1.000000 0.700263
vt 1.000000 0.713856
vt 0.021319 0.124598
vt 0.035022 0.124598
vt 0.035022 0.423201
vt 0.031201 0.423201
vt 0.057206 0.423201
vt 0.070184 0.124598
vt 0.059098 0.379805
vt 0.624082 0.530372
vt 1.000000 0.530683
vt 1.000000 0.860136
vt 0.772367 0.632540
vt 0.876213 0.526253
vt 0.478685 0.139364
vt 0.867884 0.553808
vt 0.870775 0.427514
vt 0.880688 0.519695
vt 0.881565 0.516999
vt 0.889133 0.493707
vt 0.962334 0.469490
vt 0.973321 0.480477
vt 0.990058 0.513326
vt 0.966168 0.524801
vt 0.921958 0.539166
vt 0.864074 0.562884
vt 0.631313 0.581583
vt 0.612583 0.561424
vt 0.607654 0.675064
vt 0.600302 0.544734
vt 0.708859 0.551257
vt 0.722091 0.551257
vt 0.728620 0.551257
vt 0.727273 0.589595
vt 0.709651 0.624180
vt 0.692391 0.611640
vt 0.633829 0.585046
vt 0.250419 0.472000
vt 0.250419 0.461013
vt 0.479080 0.456401
vt 0.479080 0.460222
vt 0.250419 0.504850
vt 0.479080 0.482406
vt 0.441352 0.486115
vt 0.032596 0.001818
vt 0.049856 0.001818
vt 0.021319 0.124598
vt 0.084441 0.001818
vt 0.080435 0.064898
vt 0.070184 0.124598
vt 0.080435 0.064898
vt 0.092947 0.001818
s 0
usemtl lambert2SG
f 459/412/109 456/413/109 453/414/109 460/415/109
f 456/416/110 459/417/110 462/418/110 464/419/110
f 460/420/111 453/421/111 452/422/111 454/423/111
f 454/424/112 452/425/112 457/426/112 455/427/112
f 455/428/113 457/429/113 461/430/113
f 463/431/114 465/432/114 464/433/114 462/434/114
f 468/435/115 466/436/115 469/437/115 471/438/115 465/439/115 463/440/115 473/441/115 475/442/115
f 457/443/116 458/444/116 480/445/116 461/446/116
f 485/447/117 468/448/117 475/449/117
s 1
f 479/450/118 487/451/119 489/452/119 483/453/118
f 486/454/120 489/452/119 487/451/119 467/455/120 442/456/120
s 0
f 481/457/121 480/458/121 458/459/121 476/460/121 478/461/121 484/462/121
s 1
f 426/463/122 432/464/122 435/465/122 436/466/122 447/467/122 482/468/122 495/469/122 474/470/122 438/471/122 431/472/122 428/473/122
f 434/474/123 433/475/123 427/476/123 429/477/123 430/478/123 437/479/123 472/480/123 493/481/123 491/482/123 477/483/123 448/484/123
f 496/485/124 450/486/124 449/487/124 490/488/124
f 440/489/125 423/485/125 422/488/125 451/490/125 443/491/125
f 445/492/126 492/493/126 488/451/126 446/494/126
f 424/493/127 494/495/127 470/496/127 441/497/127 421/451/127
f 444/498/128 425/495/128 439/499/128
o Pan_cell.007
v -0.392327 -0.053910 0.886532
v -0.392327 0.129203 0.886532
v -0.430986 -0.011019 0.767552
v -0.441017 -0.129203 0.736679
v -0.658184 -0.129203 0.133144
v -0.667099 -0.011019 0.077712
v -0.555773 -0.115814 0.782872
v -0.560063 -0.129203 0.755534
v -0.607845 -0.011019 0.453566
v -0.535775 -0.053910 0.909252
v -0.535750 0.129203 0.909248
v -0.555073 -0.011019 0.787205
v -0.539305 -0.129203 0.278958
v -0.542565 -0.129203 0.272677
v -0.590910 -0.011019 0.177386
v -0.601887 -0.011019 0.156240
v -0.263164 0.129203 0.820720
v -0.263327 -0.053910 0.820803
v -0.334007 -0.129203 0.682155
v -0.319351 -0.011019 0.710671
v -0.658184 -0.129203 0.133144
v -0.560063 -0.129203 0.755534
v -0.560063 -0.129203 0.755534
v -0.555773 -0.115814 0.782872
v -0.667099 -0.011019 0.077712
v -0.607845 -0.011019 0.453566
v -0.535775 -0.053910 0.909252
v -0.535775 -0.053910 0.909252
v -0.535750 0.129203 0.909248
v -0.535750 0.129203 0.909248
v -0.555073 -0.011019 0.787205
v -0.555073 -0.011019 0.787205
v -0.539305 -0.129203 0.278958
v -0.542565 -0.129203 0.272677
v -0.590910 -0.011019 0.177386
v -0.601887 -0.011019 0.156240
v -0.263164 0.129203 0.820720
v -0.263164 0.129203 0.820720
v -0.319351 -0.011019 0.710671
v -0.319351 -0.011019 0.710671
v -0.263327 -0.053910 0.820803
v -0.263327 -0.053910 0.820803
v -0.334007 -0.129203 0.682155
v -0.334007 -0.129203 0.682155
v -0.392327 -0.053910 0.886532
v -0.392327 -0.053910 0.886532
v -0.392327 0.129203 0.886532
v -0.392327 0.129203 0.886532
v -0.441017 -0.129203 0.736679
v -0.441017 -0.129203 0.736679
v -0.430986 -0.011019 0.767552
v -0.430986 -0.011019 0.767552
vn -0.9878 -0.0015 0.1557
vn -0.9877 0.0001 0.1562
vn 0.8875 -0.0084 -0.4607
vn 0.7482 -0.2351 -0.6204
vn 0.8911 -0.0010 -0.4538
vn 0.3090 -0.0000 0.9511
vn 0.1564 -0.0000 0.9877
vn 0.4540 -0.0000 0.8910
vn -0.0000 -1.0000 -0.0000
vn -0.1174 0.6611 -0.7410
vn -0.3406 0.6611 -0.6685
vn 0.0681 -0.9002 0.4302
vn 0.1977 -0.9002 0.3880
vn -0.0000 1.0000 -0.0000
vt 0.160960 0.160960
vt 0.915817 0.161739
vt 1.000000 0.205191
vt 1.000000 0.544621
vt 0.544151 0.544151
vt 0.360078 0.074975
vt 0.871376 0.075066
vt 0.497191 0.200775
vt 0.544621 0.544621
vt 0.205191 0.205191
vt 0.860783 0.000000
vt 1.000000 0.159558
vt 1.000000 0.537222
vt 0.531263 0.000000
vt 1.000000 0.158784
vt 1.000000 0.536796
vt 0.537222 0.537222
vt 0.159558 0.159558
vt 0.211405 0.070916
vt 0.650331 0.244309
vt 0.860211 0.454287
vt 1.000000 0.139217
vt 1.000000 0.468737
vt 0.531198 0.411153
vt 0.816265 0.124598
vt 0.816265 0.423201
vt 0.793293 0.423201
vt 0.793289 0.124598
vt 0.836953 0.423201
vt 0.836927 0.124598
vt 0.631875 0.582357
vt 0.664757 0.627615
vt 0.647618 0.669250
vt 0.628551 0.610567
vt 0.612922 0.562468
vt 0.631353 0.581638
vt 0.319282 0.672759
vt 0.313090 0.901420
vt 0.293216 0.901420
vt 0.296311 0.672759
vt 0.339970 0.672759
vt 0.330970 0.901420
vt 0.789399 0.001818
vt 0.808467 0.001818
vt 0.790086 0.023652
vt 0.836927 0.124598
vt 0.825606 0.001818
vt 0.883074 0.512353
vt 0.881316 0.517764
vt 0.870871 0.427529
vt 0.880362 0.429032
vt 0.888814 0.430371
vt 0.908689 0.433519
vt 0.926569 0.442630
s 0
usemtl lambert2SG
f 517/500/129 518/501/129 520/502/129 522/503/129 521/504/129
f 523/505/130 525/506/130 527/507/130 522/508/130 520/509/130
f 529/510/131 530/511/131 532/512/131 531/513/131
f 517/514/132 521/515/132 532/516/132 530/517/132
f 533/518/133 537/519/133 539/520/133 529/521/133 531/522/133 535/523/133
s 1
f 541/524/134 543/525/134 526/526/135 524/527/135
f 534/528/136 543/525/134 541/524/134 538/529/136
f 509/530/137 540/531/137 545/532/137 519/533/137 501/534/137 510/535/137
f 544/536/138 547/537/138 528/538/138 507/539/138
f 498/536/139 513/540/139 536/541/139 548/537/139
f 504/542/140 546/543/140 542/524/140 506/527/140 503/544/140
f 514/545/141 497/524/141 500/543/141 515/546/141
f 511/547/142 512/548/142 502/549/142 505/550/142 508/551/142 499/552/142 516/553/142
o Pan_cell.008
v 0.073752 -0.053910 -0.547907
v -0.132472 -0.053910 -0.754130
v -0.392327 -0.053910 -0.886532
v -0.680379 -0.053910 -0.932155
v 0.073752 0.129203 -0.547907
v -0.132472 0.129203 -0.754130
v -0.392327 0.129203 -0.886532
v -0.680379 0.129203 -0.932155
v -0.027459 -0.011019 -0.474373
v -0.206006 -0.011019 -0.652919
v -0.430986 -0.011019 -0.767552
v -0.680379 -0.011019 -0.807052
v -0.225085 -0.129203 -0.626657
v -0.441017 -0.129203 -0.736680
v -0.680379 -0.129203 -0.774591
v -0.745368 -0.129203 -0.203982
v -0.737905 -0.011019 -0.180351
v -0.017329 -0.011019 -0.454491
v 0.112236 0.129203 -0.472378
v -0.062307 -0.129203 -0.463878
v -0.028953 -0.114573 -0.473288
v 0.094725 -0.053910 -0.506746
v -0.918685 -0.129203 -0.736847
v -0.928899 -0.011019 -0.767690
v -0.967515 -0.053910 -0.886677
v -0.967750 0.129203 -0.886640
v -0.017329 -0.011019 -0.454491
v -0.017329 -0.011019 -0.454491
v 0.112236 0.129203 -0.472378
v 0.112236 0.129203 -0.472378
v -0.737905 -0.011019 -0.180351
v -0.028953 -0.114573 -0.473288
v -0.028953 -0.114573 -0.473288
v 0.094725 -0.053910 -0.506746
v 0.094725 -0.053910 -0.506746
v -0.062307 -0.129203 -0.463878
v -0.062307 -0.129203 -0.463878
v -0.745368 -0.129203 -0.203982
v -0.918685 -0.129203 -0.736847
v -0.918685 -0.129203 -0.736847
v -0.928899 -0.011019 -0.767690
v -0.928899 -0.011019 -0.767690
v -0.967750 0.129203 -0.886640
v -0.967750 0.129203 -0.886640
v -0.967515 -0.053910 -0.886677
v -0.967515 -0.053910 -0.886677
v 0.073752 -0.053910 -0.547907
v 0.073752 -0.053910 -0.547907
v 0.073752 0.129203 -0.547907
v 0.073752 0.129203 -0.547907
v -0.132472 -0.053910 -0.754130
v -0.132472 -0.053910 -0.754130
v -0.132472 0.129203 -0.754130
v -0.132472 0.129203 -0.754130
v -0.392327 -0.053910 -0.886532
v -0.392327 -0.053910 -0.886532
v -0.392327 0.129203 -0.886532
v -0.392327 0.129203 -0.886532
v -0.680379 -0.053910 -0.932155
v -0.680379 -0.053910 -0.932155
v -0.680379 0.129203 -0.932155
v -0.680379 0.129203 -0.932155
v -0.225085 -0.129203 -0.626657
v -0.225085 -0.129203 -0.626657
v -0.441017 -0.129203 -0.736680
v -0.441017 -0.129203 -0.736680
v -0.680379 -0.129203 -0.774591
v -0.680379 -0.129203 -0.774591
v -0.027459 -0.011019 -0.474373
v -0.027459 -0.011019 -0.474373
v -0.206006 -0.011019 -0.652919
v -0.206006 -0.011019 -0.652919
v -0.430986 -0.011019 -0.767552
v -0.430986 -0.011019 -0.767552
v -0.680379 -0.011019 -0.807052
v -0.680379 -0.011019 -0.807052
vn 0.8910 -0.0000 -0.4540
vn 0.8090 -0.0000 -0.5878
vn 0.5878 -0.0000 -0.8090
vn 0.3090 -0.0000 -0.9511
vn -0.0000 -0.0000 -1.0000
vn -0.1564 -0.0000 -0.9877
vn 0.3481 -0.2050 0.9148
vn -0.0000 -1.0000 -0.0000
vn -0.0000 1.0000 -0.0000
vn -0.9510 -0.0016 0.3092
vn -0.6685 0.6611 0.3406
vn -0.5305 0.6611 0.5305
vn -0.3406 0.6611 0.6685
vn -0.1174 0.6611 0.7410
vn 0.1174 0.6611 0.7410
vn 0.3880 -0.9002 -0.1977
vn 0.3080 -0.9002 -0.3080
vn 0.1977 -0.9002 -0.3880
vn 0.0681 -0.9002 -0.4302
vn -0.0681 -0.9002 -0.4302
vt 0.203944 0.124598
vt 0.210537 0.124598
vt 0.210537 0.423201
vt 0.198440 0.423201
vt 0.243567 0.124598
vt 0.243567 0.423201
vt 0.425218 0.300421
vt 0.383598 0.300421
vt 0.383598 0.001818
vt 0.425218 0.001818
vt 0.337461 0.300421
vt 0.337461 0.001818
vt 0.291433 0.001818
vt 0.291471 0.300421
vt 0.529280 0.349236
vt 0.678430 0.538966
vt 0.992576 0.461634
vt 0.531725 0.000000
vt 0.861566 0.000000
vt 0.428156 0.138787
vt 0.449568 0.179679
vt 0.598871 0.519221
vt 0.571111 0.433785
vt 0.609280 0.551257
vt 0.647618 0.433264
vt 0.682204 0.450886
vt 0.708276 0.476959
vt 0.859530 0.684261
vt 0.974943 0.590962
vt 0.973321 0.632436
vt 0.944723 0.661033
vt 0.908689 0.679394
vt 0.868744 0.556456
vt 0.828939 0.679416
vt 0.886229 0.139713
vt 0.886338 0.651207
vt 0.861550 0.167905
vt 0.861566 0.861566
vt 0.531725 0.531725
vt 0.744665 0.531524
vt 0.479080 0.635737
vt 0.250419 0.623959
vt 0.250419 0.620775
vt 0.479080 0.623640
vt 0.479080 0.668767
vt 0.250419 0.652556
vt 0.177506 0.901420
vt 0.135886 0.901420
vt 0.129694 0.672759
vt 0.165729 0.672759
vt 0.089749 0.901420
vt 0.089749 0.672759
vt 0.049944 0.672759
vt 0.043722 0.901420
vt 0.198585 0.025675
vt 0.203944 0.124598
vt 0.197078 0.001818
vt 0.223150 0.001818
vt 0.198585 0.025675
vt 0.410385 0.423201
vt 0.375799 0.423201
vt 0.337461 0.423201
vt 0.299292 0.423201
s 1
usemtl lambert2SG
f 583/554/143 595/555/144 597/556/144 578/557/143
f 595/555/144 599/558/145 601/559/145 597/556/144
f 599/560/145 603/561/146 605/562/146 601/563/145
f 603/561/146 607/564/147 609/565/147 605/562/146
f 592/566/148 609/565/147 607/564/147 593/567/148
s 0
f 582/568/149 577/569/149 575/570/149 579/571/149 586/572/149 584/573/149 580/574/149
s 1
f 564/575/150 587/576/150 615/577/150 613/578/150 611/579/150 585/580/150
f 565/581/151 576/582/151 617/583/151 619/584/151 621/585/151 623/586/151 590/587/151
s 0
f 591/588/152 594/589/152 588/590/152 586/591/152 579/592/152 589/593/152
s 1
f 598/594/153 618/595/153 566/596/153 567/597/153
f 553/594/154 602/598/154 620/599/154 557/595/154
f 554/600/155 606/601/155 622/602/155 558/603/155
f 555/601/156 610/604/156 624/605/156 559/602/156
f 572/606/157 560/605/157 556/604/157 574/607/157
f 581/608/158 596/555/158 570/609/158
f 568/610/159 612/611/159 600/558/159 549/555/159 569/612/159
f 604/561/160 550/560/160 561/613/160 614/614/160
f 608/564/161 551/561/161 562/614/161 616/615/161
f 573/567/162 552/564/162 563/615/162 571/616/162
o Pan_cell.009
v 0.206154 -0.053910 0.288051
v 0.251777 -0.053910 0.000000
v 0.206154 0.129203 0.288051
v 0.251777 0.129203 0.000000
v 0.087173 -0.011019 0.249393
v 0.228964 -0.053910 0.144026
v 0.228964 0.129203 0.144026
v 0.247698 -0.021165 0.000000
v 0.247698 0.096458 0.000000
v 0.233044 -0.021165 0.092515
v 0.233044 0.096458 0.092515
v 0.027416 -0.129203 0.152660
v 0.074350 -0.129203 0.125406
v 0.120301 -0.011019 0.040229
v -0.068818 -0.011019 0.150047
v 0.158845 0.025041 0.000000
v 0.243531 -0.021165 -0.026306
v 0.233559 -0.062615 0.000000
v 0.357551 -0.021165 -0.092515
v 0.257296 0.096458 -0.092515
v 0.249618 -0.053910 -0.013633
v 0.235087 0.096458 -0.079619
v 0.236472 0.129203 -0.096630
v 0.065287 -0.129203 0.182627
v 0.186947 -0.053910 0.325747
v 0.145573 0.129203 0.406947
v 0.138255 -0.088025 0.265989
v 0.078425 -0.011019 0.266562
v 0.907114 -0.021165 0.092515
v 0.907226 0.096458 0.092515
v 0.881344 0.096458 -0.092515
v 0.881232 -0.021165 -0.092515
v 0.027416 -0.129203 0.152660
v 0.074350 -0.129203 0.125406
v 0.074350 -0.129203 0.125406
v 0.120301 -0.011019 0.040229
v 0.120301 -0.011019 0.040229
v -0.068818 -0.011019 0.150047
v 0.158845 0.025041 0.000000
v 0.158845 0.025041 0.000000
v 0.236472 0.129203 -0.096630
v 0.236472 0.129203 -0.096630
v 0.235087 0.096458 -0.079619
v 0.235087 0.096458 -0.079619
v 0.257296 0.096458 -0.092515
v 0.257296 0.096458 -0.092515
v 0.357551 -0.021165 -0.092515
v 0.357551 -0.021165 -0.092515
v 0.243531 -0.021165 -0.026306
v 0.243531 -0.021165 -0.026306
v 0.249618 -0.053910 -0.013633
v 0.249618 -0.053910 -0.013633
v 0.233559 -0.062615 0.000000
v 0.233559 -0.062615 0.000000
v 0.145573 0.129203 0.406947
v 0.145573 0.129203 0.406947
v 0.078425 -0.011019 0.266562
v 0.078425 -0.011019 0.266562
v 0.065287 -0.129203 0.182627
v 0.065287 -0.129203 0.182627
v 0.138255 -0.088025 0.265989
v 0.138255 -0.088025 0.265989
v 0.186947 -0.053910 0.325747
v 0.186947 -0.053910 0.325747
v 0.881344 0.096458 -0.092515
v 0.881344 0.096458 -0.092515
v 0.881232 -0.021165 -0.092515
v 0.881232 -0.021165 -0.092515
v 0.907226 0.096458 0.092515
v 0.907226 0.096458 0.092515
v 0.907114 -0.021165 0.092515
v 0.907114 -0.021165 0.092515
v 0.206154 -0.053910 0.288051
v 0.206154 -0.053910 0.288051
v 0.206154 0.129203 0.288051
v 0.206154 0.129203 0.288051
v 0.228964 -0.053910 0.144026
v 0.228964 -0.053910 0.144026
v 0.228964 -0.053910 0.144026
v 0.228964 0.129203 0.144026
v 0.228964 0.129203 0.144026
v 0.228964 0.129203 0.144026
v 0.087173 -0.011019 0.249393
v 0.087173 -0.011019 0.249393
v 0.251777 0.129203 0.000000
v 0.251777 0.129203 0.000000
v 0.251777 0.129203 0.000000
v 0.247698 -0.021165 0.000000
v 0.247698 -0.021165 0.000000
v 0.251777 -0.053910 0.000000
v 0.251777 -0.053910 0.000000
v 0.251777 -0.053910 0.000000
v 0.247698 0.096458 0.000000
v 0.247698 0.096458 0.000000
v 0.233044 0.096458 0.092515
v 0.233044 0.096458 0.092515
v 0.233044 0.096458 0.092515
v 0.233044 -0.021165 0.092515
v 0.233044 -0.021165 0.092515
v 0.233044 -0.021165 0.092515
vn -0.4616 -0.3935 -0.7950
vn -0.5577 -0.4385 0.7048
vn 0.9904 -0.0009 -0.1385
vn 0.8910 -0.0000 0.4540
vn 0.9511 -0.0000 0.3090
vn 0.9877 -0.0000 0.1564
vn -0.0000 -1.0000 -0.0000
vn -0.6685 0.6611 -0.3406
vn -0.7410 0.6611 -0.1174
vn -0.7410 0.6611 0.1174
vn 0.9803 0.1221 -0.1553
vn 0.9803 -0.1221 -0.1553
vn 0.9969 -0.0000 0.0790
vn 0.9803 0.1221 0.1553
vn 0.9803 -0.1221 0.1553
vn 0.4302 -0.9002 0.0681
vn -0.0000 -0.0000 -1.0000
vn -0.0000 1.0000 -0.0000
vn -0.0000 -0.0000 1.0000
vn 0.3880 -0.9002 0.1977
vn 0.4302 -0.9002 -0.0681
vt 1.000000 0.140066
vt 1.000000 0.469846
vt 0.820353 0.290231
vt 0.755847 0.326359
vt 0.601540 0.462732
vt 0.628183 0.397999
vt 0.607087 0.376907
vt 0.602834 0.044440
vt 0.711142 0.152729
vt 0.730689 0.080901
vt 0.752677 0.078593
vt 0.955416 0.095491
vt 0.469908 0.330563
vt 0.469846 0.469846
vt 0.140067 0.140067
vt 0.140083 0.104243
vt 0.255029 0.118404
vt 0.350257 0.141262
vt 0.861259 0.550312
vt 0.768595 0.537971
vt 0.640778 0.409975
vt 0.678175 0.118884
vt 0.805992 0.246881
vt 0.070605 0.124598
vt 0.076643 0.124598
vt 0.076643 0.423201
vt 0.057600 0.423201
vt 0.099711 0.124598
vt 0.099711 0.423201
vt 0.728712 0.551257
vt 0.722646 0.551257
vt 0.730164 0.551257
vt 0.795812 0.802697
vt 0.795812 0.910662
vt 0.780994 0.908315
vt 0.776781 0.908982
vt 0.780994 0.890720
vt 0.780994 0.806843
vt 0.479080 0.482800
vt 0.479080 0.501843
vt 0.250419 0.508035
vt 0.250419 0.505285
vt 0.479080 0.524911
vt 0.479080 0.547980
vt 0.309223 0.547980
vt 0.250419 0.541537
vt 0.309223 0.547980
vt 0.479080 0.563457
vt 0.126993 0.177996
vt 0.122780 0.177996
vt 0.122780 0.124598
vt 0.124964 0.124598
vt 0.138257 0.423201
vt 0.122780 0.423201
vt 0.122780 0.369803
vt 0.135532 0.369803
vt 0.107961 0.177996
vt 0.107961 0.369803
vt 0.102693 0.001818
vt 0.122780 0.110402
vt 0.080176 0.068966
vt 0.093528 0.001818
vt 0.560398 0.796444
vt 0.560398 0.880321
vt 0.560398 0.896379
vt 0.560398 0.796426
vt 0.991681 0.516511
vt 0.996987 0.550013
vt 0.966696 0.524629
vt 0.990280 0.513761
vt 0.759191 0.910662
vt 0.759191 0.802697
vt 0.759191 0.802680
vt 0.080176 0.068966
vt 0.124964 0.124598
vt 0.122780 0.110402
vt 0.818024 0.908315
vt 0.803206 0.910662
vt 0.818024 0.802680
vt 0.832842 0.806825
vt 0.832842 0.906778
vt 0.832842 0.910335
s 0
usemtl lambert2SG
f 657/617/163 662/618/163 660/619/163 663/620/163 665/621/163 667/622/163 669/623/163 671/624/163 673/625/163 675/626/163 677/627/163 658/628/163
f 681/629/164 662/630/164 657/631/164 683/632/164 685/633/164 687/634/164 679/635/164
f 689/636/165 693/637/165 695/638/165 691/639/165
s 1
f 688/640/166 697/641/167 699/642/167 680/643/166
f 697/641/167 701/644/168 704/645/168 699/642/167
f 684/646/169 636/647/169 659/648/169
f 696/649/169 723/650/169 712/651/169 674/652/169 672/653/169 692/654/169
f 650/655/170 700/656/170 707/657/170 682/658/170
f 705/659/171 709/660/171 664/661/171 661/662/171 708/657/171 627/656/171
f 640/663/172 710/660/172 666/664/172
f 641/665/173 713/666/173 714/667/173 676/668/173
f 647/669/174 711/670/174 717/671/174 668/672/174
f 706/645/175 702/644/175 722/673/175 719/674/175
f 703/644/176 715/667/176 632/666/176 634/673/176
f 628/670/177 631/645/177 720/674/177 718/671/177
f 637/675/178 678/676/178 716/667/178 630/644/178 698/641/178 686/677/178 648/678/178
f 656/679/179 643/680/179 670/681/179 690/682/179
f 629/683/180 638/684/180 639/685/180 652/686/180
f 721/687/181 724/687/181 653/688/181 694/689/181
f 651/690/182 625/641/182 649/640/182
f 645/691/183 626/667/183 642/692/183
f 633/693/180 635/694/180 654/695/180 655/696/180 644/697/180 646/698/180
