# Blender 5.0.0
# www.blender.org
mtllib Paperbag.mtl
o Paperbag_cell
v -0.476254 -0.414726 -0.031697
v -0.631577 -0.707831 -0.031697
v -0.499860 -0.411985 -0.031107
v -0.000605 -0.708060 0.123482
v -0.000618 -0.695188 0.123060
v -0.611448 -0.695188 0.155572
v -0.558231 -0.548018 0.147880
v -0.629322 -0.707950 0.156944
v -0.558299 -0.412641 0.143409
v -0.536811 -0.265715 0.137412
v -0.540209 -0.547402 0.146901
v -0.556229 -0.257198 0.138163
v -0.555669 -0.217560 0.136729
v -0.536220 -0.219935 0.135760
v -0.543841 -0.256462 0.101172
v -0.521394 -0.265302 0.094359
v -0.627560 -0.707895 -0.324460
v -0.539915 -0.707942 -0.318966
v -0.611448 -0.695188 -0.311610
v -0.527825 -0.477030 -0.103193
v -0.476254 -0.403746 -0.031697
v -0.499839 -0.401512 -0.031107
v -0.506926 -0.478355 -0.103106
v -0.503884 -0.412042 -0.041168
v 0.120890 -0.708122 -0.277047
v 0.117203 -0.695188 -0.265257
v 0.013914 -0.695188 0.075561
v 0.046534 -0.708211 -0.031697
v 0.010958 -0.708097 0.085688
v -0.558299 -0.412641 0.143409
v -0.556229 -0.257198 0.138163
v -0.558231 -0.548018 0.147880
v -0.629322 -0.707950 0.156944
v -0.629322 -0.707950 0.156944
v -0.000605 -0.708060 0.123482
v -0.000618 -0.695188 0.123060
v -0.611448 -0.695188 0.155572
v -0.611448 -0.695188 0.155572
v -0.540209 -0.547402 0.146901
v -0.536811 -0.265715 0.137412
v -0.555669 -0.217560 0.136729
v -0.536220 -0.219935 0.135760
v -0.543841 -0.256462 0.101172
v -0.521394 -0.265302 0.094359
v -0.611448 -0.695188 -0.311610
v -0.611448 -0.695188 -0.311610
v -0.506926 -0.478355 -0.103106
v -0.627560 -0.707895 -0.324460
v -0.627560 -0.707895 -0.324460
v -0.539915 -0.707942 -0.318966
v -0.527825 -0.477030 -0.103193
v -0.503884 -0.412042 -0.041168
v -0.499839 -0.401512 -0.031107
v -0.476254 -0.403746 -0.031697
v 0.120890 -0.708122 -0.277047
v 0.117203 -0.695188 -0.265257
v 0.046534 -0.708211 -0.031697
v 0.010958 -0.708097 0.085688
v 0.013914 -0.695188 0.075561
v -0.631577 -0.707831 -0.031697
vn 0.9914 -0.1278 -0.0273
vn 0.9421 -0.3203 0.0994
vn 0.9008 -0.4342 -0.0000
vn 0.9051 -0.4251 -0.0100
vn 0.0541 0.0353 0.9979
vn 0.0468 0.6816 -0.7302
vn 0.9570 0.0084 0.2900
vn 0.9562 0.0106 0.2925
vn 0.0464 0.6808 -0.7310
vn -0.9482 -0.0047 -0.3175
vn -0.9929 0.1165 0.0252
vn -0.9511 0.2971 -0.0844
vn -0.9135 0.4067 -0.0126
vn -0.9135 0.4067 -0.0007
vn -0.9173 0.3983 -0.0035
vn -0.9482 0.0019 -0.3175
vn -0.9885 0.0020 -0.1510
vn -0.9284 -0.0089 0.3714
vn -0.9135 0.4067 0.0112
vn 0.0531 0.0329 0.9980
vn 0.9871 -0.0000 0.1599
vn -0.0004 -1.0000 -0.0000
vn -0.0000 1.0000 -0.0000
vn 0.9415 -0.0000 0.3371
vt 0.287138 0.387483
vt 0.265178 0.453331
vt 0.240718 0.456528
vt 0.240718 0.284280
vt 0.276607 0.361155
vt 1.000000 0.800150
vt 0.815731 0.815731
vt 0.787213 0.787213
vt 1.000000 0.769307
vt 0.800150 0.800150
vt 0.769307 0.769307
vt 1.000000 0.783852
vt 1.000000 0.814119
vt 0.760781 0.000000
vt 0.809655 0.000000
vt 0.810049 0.262193
vt 0.809638 0.809638
vt 0.760674 0.760674
vt 0.809655 0.809655
vt 0.760781 0.760781
vt 1.000000 0.754696
vt 1.000000 0.804671
vt 0.809638 0.000000
vt 0.808847 0.000000
vt 0.927030 0.056215
vt 0.792534 0.407358
vt 0.760248 0.508851
vt 0.754793 0.525190
vt 0.814119 0.814119
vt 0.783852 0.783852
vt 0.722991 0.506071
vt 0.764353 0.391591
vt 0.905304 0.068739
vt 0.760674 0.000000
vt 0.291815 0.081733
vt 0.291924 0.146076
vt 0.269409 0.080085
vt 0.242948 0.254234
vt 0.242959 0.146294
vt 0.281159 0.172654
vt 0.291815 0.081733
vt 0.317479 0.083665
vt 0.324023 0.084192
vt 0.317611 0.097303
vt 0.293657 0.146076
vt 0.293657 0.146076
vt 0.291915 0.149786
vt 0.291915 0.149786
vt 0.281159 0.172654
vt 0.242939 0.076743
vt 0.269409 0.080085
vt 0.787213 0.000000
vt 0.815731 0.000000
vt 0.818893 0.281101
vt 0.818898 0.524442
vt 0.923455 0.868041
vt 0.195329 0.000000
vt 0.245304 0.000000
vt 0.897188 0.831002
vt 0.792422 0.509124
vt 0.276607 0.361155
vt 0.288955 0.387483
vt 0.483758 0.122761
vt 0.484520 0.014821
vt 0.501151 -0.000256
vt 0.626494 0.160371
vt 0.612410 0.122761
vt 0.605240 2.592659
vt 0.614555 -63.706146
vt 0.484186 0.192312
vt 0.716577 0.525725
vt 0.716577 0.409676
vt 0.832465 0.409676
vt 0.835222 0.409676
vt 0.854818 0.525725
vt 0.319265 0.449231
vt 0.311714 0.449838
vt 0.288955 0.387483
vt 0.311799 0.433964
s 1
usemtl lambert2SG
f 1/1/1 39/2/2 38/3/3 45/4/3 47/5/4
s 0
f 41/6/5 31/7/5 40/8/5 42/9/5
f 41/10/6 42/11/6 44/12/6 43/13/6
f 59/14/7 58/15/7 57/16/7 55/17/7 56/18/7
f 58/19/8 59/20/8 36/21/8 35/22/8
f 55/23/9 50/24/9 48/25/9 51/26/9 52/27/9 53/28/9 43/29/9 44/30/9 54/31/9 23/32/9 46/33/9 56/34/9
s 1
f 30/35/10 3/36/11 32/37/12
f 49/38/13 60/39/14 3/36/11 20/40/15
f 3/36/11 30/41/10 12/42/16 13/43/16 15/44/16 22/45/17
f 22/46/17 24/47/18 3/36/11
f 24/48/18 20/49/15 3/36/11
f 3/36/11 60/39/14 33/50/19 32/51/12
s 0
f 40/52/20 31/53/20 9/54/20 7/55/20 34/56/20 35/57/20 36/58/20 37/59/20 11/60/20
s 1
f 1/1/1 47/61/4 21/62/21
f 2/63/22 17/64/22 18/65/22 25/66/22 28/67/22 29/68/22 4/69/22 8/70/22
f 19/71/23 6/72/23 5/73/23 27/74/23 26/75/23
f 14/76/24 10/77/24 39/2/2 1/1/1 21/78/21 16/79/24
o Paperbag_cell.001
v 0.627090 -0.708223 0.358671
v 0.610316 -0.708221 0.358668
v 0.627339 -0.688225 0.358778
v 0.624561 -0.700958 0.349096
v 0.627323 -0.708239 0.338371
v 0.610316 -0.708221 0.358668
v 0.610316 -0.708221 0.358668
v 0.627323 -0.708239 0.338371
v 0.627323 -0.708239 0.338371
v 0.627339 -0.688225 0.358778
v 0.627339 -0.688225 0.358778
v 0.624561 -0.700958 0.349096
v 0.627090 -0.708223 0.358671
v 0.627090 -0.708223 0.358671
vn -0.6407 0.5484 -0.5373
vn -0.0002 -0.0054 1.0000
vn -0.0001 -1.0000 0.0008
vn 0.9757 0.1856 -0.1168
vn 0.9784 0.1400 -0.1521
vn 0.9400 0.3410 0.0105
vn 0.9648 -0.0106 -0.2628
vt 0.724211 0.272995
vt 0.725149 0.381350
vt 0.673306 0.312233
vt 0.616006 0.272644
vt 0.242918 0.531170
vt 0.246228 0.531123
vt 0.242918 0.534352
vt 0.722554 0.266687
vt 0.719372 0.266686
vt 0.722598 0.259202
vt 0.003148 0.263526
vt 0.001946 0.267056
vt 0.001943 0.259571
vt 0.003148 0.263526
vt 0.005256 0.267096
s 0
usemtl lambert2SG
f 66/80/25 70/81/25 72/82/25 68/83/25
s 1
f 73/84/26 71/85/26 67/86/26
f 74/87/27 62/88/27 69/89/27
f 64/90/28 61/91/29 65/92/30
f 61/91/29 64/93/28 63/94/31
o Paperbag_cell.002
v -0.611448 -0.695188 0.345838
v -0.611448 -0.414726 0.345838
v -0.630723 -0.413453 0.359688
v -0.629297 -0.707951 0.159013
v -0.611448 -0.695188 0.157612
v -0.558854 -0.549469 0.149788
v -0.558869 -0.412647 0.145110
v -0.539213 -0.414726 0.144119
v -0.540888 -0.548810 0.148795
v -0.536769 -0.217777 0.137294
v -0.556175 -0.215398 0.138255
v -0.005807 -0.708055 0.125361
v -0.007182 -0.695188 0.125000
v -0.000490 -0.708059 0.125206
v -0.000519 -0.695188 0.124805
v -0.000539 -0.512799 0.359563
v -0.000437 -0.559274 0.359372
v -0.000433 -0.570888 0.345838
v -0.000563 -0.512093 0.345838
v -0.000391 -0.708041 0.186001
v -0.000395 -0.695188 0.200980
v -0.000557 -0.708150 0.358575
v -0.000534 -0.695188 0.345838
v -0.627230 -0.683510 0.358580
v -0.623226 -0.699487 0.347176
v -0.606799 -0.708079 0.358482
v -0.627210 -0.708061 0.333562
v -0.611448 0.207371 0.309548
v -0.625873 0.228722 0.318204
v -0.583166 -0.013392 0.220077
v -0.564593 -0.025923 0.214995
v -0.302819 0.207529 0.309538
v -0.335974 0.229243 0.318346
v -0.023035 -0.413458 0.359961
v -0.058176 -0.257818 0.349918
v -0.074951 -0.182961 0.332318
v -0.022609 -0.414726 0.345838
v -0.142848 0.116365 0.314856
v -0.143834 0.119971 0.325521
v -0.259123 0.207313 0.309551
v -0.283551 0.229054 0.318390
v -0.629297 -0.707951 0.159013
v -0.629297 -0.707951 0.159013
v -0.558854 -0.549469 0.149788
v -0.558869 -0.412647 0.145110
v -0.539213 -0.414726 0.144119
v -0.540888 -0.548810 0.148795
v -0.611448 -0.695188 0.157612
v -0.611448 -0.695188 0.157612
v -0.536769 -0.217777 0.137294
v -0.556175 -0.215398 0.138255
v -0.005807 -0.708055 0.125361
v -0.007182 -0.695188 0.125000
v -0.000490 -0.708059 0.125206
v -0.000519 -0.695188 0.124805
v -0.000433 -0.570888 0.345838
v -0.000563 -0.512093 0.345838
v -0.000539 -0.512799 0.359563
v -0.000437 -0.559274 0.359372
v -0.000391 -0.708041 0.186001
v -0.000395 -0.695188 0.200980
v -0.000534 -0.695188 0.345838
v -0.000534 -0.695188 0.345838
v -0.000557 -0.708150 0.358575
v -0.000557 -0.708150 0.358575
v -0.606799 -0.708079 0.358482
v -0.606799 -0.708079 0.358482
v -0.627210 -0.708061 0.333562
v -0.627210 -0.708061 0.333562
v -0.627230 -0.683510 0.358580
v -0.627230 -0.683510 0.358580
v -0.623226 -0.699487 0.347176
v -0.625873 0.228722 0.318204
v -0.625873 0.228722 0.318204
v -0.583166 -0.013392 0.220077
v -0.335974 0.229243 0.318346
v -0.611448 0.207371 0.309548
v -0.611448 0.207371 0.309548
v -0.302819 0.207529 0.309538
v -0.564593 -0.025923 0.214995
v -0.023035 -0.413458 0.359961
v -0.058176 -0.257818 0.349918
v -0.022609 -0.414726 0.345838
v -0.074951 -0.182961 0.332318
v -0.143834 0.119971 0.325521
v -0.142848 0.116365 0.314856
v -0.283551 0.229054 0.318390
v -0.259123 0.207313 0.309551
v -0.630723 -0.413453 0.359688
v -0.611448 -0.695188 0.345838
v -0.611448 -0.695188 0.345838
v -0.611448 -0.414726 0.345838
vn -0.0002 0.3755 -0.9268
vn -0.0292 -0.0311 -0.9991
vn 1.0000 0.0022 -0.0016
vn 1.0000 -0.0008 0.0010
vn -0.6500 -0.5426 0.5320
vn -0.0538 -0.0340 -0.9980
vn 0.9753 0.2208 0.0097
vn 0.9749 0.2220 0.0151
vn 0.0021 0.3787 -0.9255
vn 0.6090 0.7668 -0.2029
vn -0.0004 -0.0044 1.0000
vn -0.0004 0.0251 0.9997
vn -0.0005 0.0301 0.9995
vn -0.0001 -1.0000 -0.0005
vn -0.9449 -0.0084 -0.3272
vn -0.9447 -0.0083 -0.3277
vn -0.9662 0.1050 -0.2353
vn -0.9672 0.1831 -0.1762
vn -0.9482 -0.0110 -0.3176
vn -0.9414 -0.0058 -0.3373
vn -0.0005 0.0644 0.9979
vn -0.9135 0.4067 0.0112
vn -0.0000 -0.0000 -1.0000
vn -0.0000 -0.0291 -0.9996
vn -0.0000 -0.0250 -0.9997
vn -0.0000 1.0000 -0.0000
vn 0.9597 -0.1216 0.2533
vn 0.9366 0.0050 0.3503
vn 0.9368 0.0048 0.3497
vn 0.9607 -0.1886 0.2039
vn 0.9319 0.0098 0.3627
vn -0.0000 -0.0582 -0.9983
vn 0.9008 -0.4342 -0.0000
vt 1.000000 0.770366
vt 1.000000 0.801197
vt 0.798062 0.617153
vt 0.393041 0.290448
vt 0.636282 0.000000
vt 0.697291 0.000000
vt 0.437731 0.308609
vt 0.832798 0.617713
vt 1.000000 0.803454
vt 0.894533 0.894533
vt 0.867818 0.867818
vt 1.000000 0.753652
vt 0.778413 0.000000
vt 0.825459 0.000000
vt 1.000000 0.180158
vt 1.000000 0.227864
vt 1.000000 0.791271
vt 0.803454 0.803454
vt 0.753652 0.753652
vt 1.000000 0.738471
vt 0.740076 0.227265
vt 0.227864 0.227864
vt 0.180158 0.180158
vt 0.793630 0.182254
vt 0.791271 0.791271
vt 0.738471 0.738471
vt 0.736776 0.471369
vt 0.607632 0.342615
vt 0.691573 0.367682
vt 0.736600 0.342376
vt 0.799298 0.179787
vt 0.198803 0.000000
vt 0.229634 0.000000
vt 0.824452 0.208656
vt 0.581948 0.206168
vt 0.216229 0.102501
vt 1.000000 0.867817
vt 1.000000 0.894533
vt 0.167157 0.076282
vt 0.554374 0.179780
vt 0.581281 0.000000
vt 0.836516 0.092119
vt 1.000000 0.174541
vt 1.000000 0.221587
vt 0.839796 0.142157
vt 0.459604 0.000000
vt 0.581281 0.581281
vt 0.459604 0.459604
vt 0.339320 0.000000
vt 0.413148 0.000000
vt 0.636805 0.000000
vt 0.697892 0.000000
vt 1.000000 0.302709
vt 1.000000 0.363718
vt 0.697892 0.697892
vt 0.636805 0.636805
vt 1.000000 0.586852
vt 1.000000 0.660680
vt 0.242930 0.650248
vt -25.440750 0.641510
vt -14.947750 0.645073
vt 0.291705 0.654512
vt 0.291706 0.769804
vt 0.247008 0.769141
vt 0.242942 0.765265
vt 0.484587 0.257429
vt 0.484191 0.193074
vt 0.603581 -6.177185
vt 0.617569 -81.064499
vt 0.624863 -122.631752
vt 0.603501 0.122761
vt 0.488459 0.266617
vt 0.291681 0.001992
vt 0.291814 0.081106
vt 0.269169 0.079381
vt 0.244340 0.006605
vt 0.246984 0.002401
vt 0.397968 0.017287
vt 0.357640 0.053455
vt 0.324380 0.083630
vt 0.055001 0.677234
vt 0.301541 0.703880
vt 0.328859 0.713842
vt 0.397993 0.768884
vt 0.291705 0.654512
vt 0.027496 0.661004
vt 0.244340 0.006605
vt 0.269169 0.079381
vt 0.242939 0.075980
vt 0.242921 0.011625
vt 0.917789 0.762117
vt 0.917789 0.650401
vt 0.917789 0.646218
vt 0.917789 0.646194
vt 0.917789 0.646213
vt 0.832483 0.409676
vt 0.831219 0.409676
vt 0.716577 0.409676
vt 0.832480 0.409676
vt 0.832507 0.409676
vt 0.264945 0.454030
vt 0.287138 0.452306
vt 0.287138 0.526678
vt 0.240718 0.526678
vt 0.390101 0.513298
vt 0.319620 0.449797
vt 0.351138 0.478460
vt 0.871370 0.660331
vt 0.871370 0.650401
vt 0.871370 0.762117
vt 0.871370 0.703563
vt 0.871370 0.695273
vt 0.871370 0.673213
vt 0.240718 0.457280
s 0
usemtl lambert2SG
f 124/95/32 125/96/32 149/97/32 147/98/32 150/99/32 153/100/32 151/101/32 154/102/32
f 128/103/33 126/104/33 127/105/33 129/106/33
f 131/107/34 132/108/34 133/109/34 130/110/34
f 134/111/34 128/112/34 129/113/34 135/114/34
f 136/115/35 130/116/35 133/117/35 138/118/35 134/119/35 135/120/35
f 140/121/36 144/122/36 146/123/36 142/124/36
f 119/125/37 125/126/37 124/127/37 120/128/37 121/129/37 122/130/37 127/131/37 126/132/37 116/133/37 118/134/37
f 156/135/38 155/136/38 132/137/38 131/138/38 157/139/38 158/140/38
f 156/141/39 158/142/39 160/143/39 159/144/39
f 161/145/40 162/146/40 153/147/40 150/148/40
f 162/149/41 161/150/41 159/151/41 160/152/41
s 1
f 139/153/42 91/154/42 90/155/42 108/156/43 163/157/44 145/158/42 141/159/42
f 143/160/45 117/161/45 86/162/45 88/163/45 94/164/45 96/165/45 100/166/45
f 77/167/46 81/168/47 80/169/48 99/170/49 98/171/50
f 77/167/46 148/172/51 104/173/51 85/174/51 81/168/47
f 113/175/52 115/176/52 107/177/52 103/178/52 163/157/44 108/179/43 109/180/52
f 99/181/49 80/182/48 78/183/53 101/184/53
f 164/185/54 166/185/55 111/186/56 93/187/54 92/188/54 137/189/54
f 89/190/57 87/191/57 123/192/57 165/192/57 97/193/57 95/194/57
f 83/195/58 82/196/59 76/197/60 75/198/61
f 152/199/62 76/197/60 82/196/59 84/200/62 105/201/62
f 110/202/63 111/203/56 166/204/55 102/204/63 106/205/63 114/206/63 112/207/63
f 75/198/61 79/208/64 83/195/58
o Paperbag_cell.003
v -0.626912 -0.708077 0.358479
v -0.627181 -0.687300 0.358564
v -0.623796 -0.700816 0.348925
v -0.610007 -0.708079 0.358482
v -0.627164 -0.708064 0.337378
v -0.627181 -0.687300 0.358564
v -0.627181 -0.687300 0.358564
v -0.623796 -0.700816 0.348925
v -0.610007 -0.708079 0.358482
v -0.610007 -0.708079 0.358482
v -0.627164 -0.708064 0.337378
v -0.627164 -0.708064 0.337378
v -0.626912 -0.708077 0.358479
v -0.626912 -0.708077 0.358479
vn 0.6526 0.5414 -0.5301
vn -0.0002 -0.0041 1.0000
vn -0.0001 -1.0000 -0.0006
vn -0.9676 0.1712 -0.1854
vn -0.9482 -0.0110 -0.3176
vn -0.9639 0.2241 -0.1440
vn -0.9135 0.4067 0.0112
vt 0.652454 0.381373
vt 0.541925 0.270096
vt 0.652301 0.270145
vt 0.630651 0.308975
vt 0.242942 0.769081
vt 0.242942 0.765874
vt 0.246381 0.769132
vt 0.484643 0.266616
vt 0.484595 0.258836
vt 0.487850 0.266617
vt 0.242918 0.002438
vt 0.246357 0.002407
vt 0.244120 0.005960
vt 0.244120 0.005960
vt 0.242920 0.010218
s 0
usemtl lambert2SG
f 172/209/65 175/210/65 177/211/65 174/212/65
s 1
f 179/213/66 176/214/66 173/215/66
f 180/216/67 178/217/67 170/218/67
f 167/219/68 168/220/69 169/221/70
f 169/222/70 171/223/71 167/219/68
o Paperbag_cell.004
v 0.611908 -0.695188 0.345838
v 0.611908 -0.695188 -0.346452
v 0.627237 -0.708078 -0.359254
v 0.631577 -0.708538 -0.031697
v 0.001392 -0.708150 0.358575
v 0.001055 -0.560098 0.359369
v 0.001041 -0.571613 0.345838
v 0.001325 -0.695188 0.345838
v 0.000894 -0.695188 0.200631
v 0.000878 -0.708041 0.185528
v 0.001077 -0.514002 0.359559
v 0.001070 -0.513295 0.345838
v 0.000842 -0.708060 0.124365
v 0.000848 -0.695188 0.123904
v 0.048326 -0.708212 -0.031697
v 0.111024 -0.708176 -0.237767
v 0.104106 -0.695188 -0.215475
v 0.606868 -0.708221 0.358668
v 0.627388 -0.684329 0.358799
v 0.624066 -0.699536 0.347221
v 0.627368 -0.708243 0.334448
v 0.550054 -0.539495 0.136257
v 0.543921 -0.524057 -0.154396
v 0.611908 -0.554503 0.345838
v 0.628984 -0.556361 0.359487
v 0.568838 -0.540857 0.138080
v 0.567526 -0.532008 -0.031392
v 0.563490 -0.525274 -0.156402
v 0.007449 -0.514425 0.359560
v 0.009159 -0.513832 0.345838
v 0.611908 -0.518718 -0.346452
v 0.629807 -0.519231 -0.359897
v 0.123425 -0.708121 -0.278010
v 0.119732 -0.695188 -0.266180
v 0.158509 -0.708039 -0.340349
v 0.163791 -0.695188 -0.344509
v 0.182558 -0.649530 -0.359291
v 0.218975 -0.491643 -0.359775
v 0.211441 -0.491818 -0.346452
v 0.166258 -0.689187 -0.346452
v 0.169267 -0.708014 -0.359182
v 0.001392 -0.708150 0.358575
v 0.001392 -0.708150 0.358575
v 0.000878 -0.708041 0.185528
v 0.001055 -0.560098 0.359369
v 0.001041 -0.571613 0.345838
v 0.001325 -0.695188 0.345838
v 0.001325 -0.695188 0.345838
v 0.000894 -0.695188 0.200631
v 0.001070 -0.513295 0.345838
v 0.001077 -0.514002 0.359559
v 0.000848 -0.695188 0.123904
v 0.000842 -0.708060 0.124365
v 0.048326 -0.708212 -0.031697
v 0.111024 -0.708176 -0.237767
v 0.104106 -0.695188 -0.215475
v 0.624066 -0.699536 0.347221
v 0.627368 -0.708243 0.334448
v 0.627368 -0.708243 0.334448
v 0.627388 -0.684329 0.358799
v 0.627388 -0.684329 0.358799
v 0.606868 -0.708221 0.358668
v 0.606868 -0.708221 0.358668
v 0.567526 -0.532008 -0.031392
v 0.563490 -0.525274 -0.156402
v 0.550054 -0.539495 0.136257
v 0.543921 -0.524057 -0.154396
v 0.611908 -0.554503 0.345838
v 0.611908 -0.554503 0.345838
v 0.166258 -0.689187 -0.346452
v 0.163791 -0.695188 -0.344509
v 0.163791 -0.695188 -0.344509
v 0.628984 -0.556361 0.359487
v 0.628984 -0.556361 0.359487
v 0.568838 -0.540857 0.138080
v 0.009159 -0.513832 0.345838
v 0.007449 -0.514425 0.359560
v 0.629807 -0.519231 -0.359897
v 0.629807 -0.519231 -0.359897
v 0.611908 -0.695188 -0.346452
v 0.611908 -0.695188 -0.346452
v 0.611908 -0.518718 -0.346452
v 0.611908 -0.518718 -0.346452
v 0.119732 -0.695188 -0.266180
v 0.123425 -0.708121 -0.278010
v 0.158509 -0.708039 -0.340349
v 0.211441 -0.491818 -0.346452
v 0.182558 -0.649530 -0.359291
v 0.218975 -0.491643 -0.359775
v 0.169267 -0.708014 -0.359182
v 0.169267 -0.708014 -0.359182
v 0.627237 -0.708078 -0.359254
v 0.627237 -0.708078 -0.359254
v 0.631577 -0.708538 -0.031697
v 0.611908 -0.695188 0.345838
v 0.611908 -0.695188 0.345838
vn -1.0000 -0.0023 0.0030
vn -1.0000 0.0005 0.0006
vn -0.9567 -0.0100 -0.2911
vn 0.6371 -0.5502 0.5398
vn 0.0672 0.9964 0.0514
vn 0.0662 0.9965 0.0513
vn -0.9556 -0.0035 -0.2945
vn -0.8547 0.1957 -0.4808
vn -0.8521 0.1928 -0.4865
vn -0.0002 -0.0052 1.0000
vn -0.0004 -0.0030 -1.0000
vn -0.0004 -1.0000 0.0004
vn -0.0004 -1.0000 -0.0002
vn -0.0004 -1.0000 -0.0003
vn 0.9780 0.1508 -0.1439
vn 0.9400 0.3410 0.0105
vn 0.9400 0.3411 -0.0007
vn 0.9400 0.3411 -0.0011
vn 0.9589 0.2807 -0.0402
vn -0.0003 -1.0000 -0.0010
vn 0.9629 0.2613 0.0671
vn 0.9738 0.1583 0.1633
vn 0.9508 -0.0119 0.3095
vn 0.9648 -0.0106 -0.2628
vn -0.0000 -0.0000 -1.0000
vn 0.0001 0.0054 1.0000
vn -0.0000 1.0000 -0.0000
vn -0.9667 -0.1780 -0.1836
vn -0.9542 -0.2879 -0.0813
vn -0.9427 -0.0000 -0.3337
vn -0.9591 -0.0000 0.2831
vn -0.9500 -0.3081 0.0515
vn -0.9728 -0.1573 0.1702
vt 1.000000 0.791210
vt 0.390194 0.182253
vt 1.000000 0.179692
vt 1.000000 0.227291
vt 0.488680 0.227096
vt 1.000000 0.738082
vt 0.227291 0.227291
vt 0.179692 0.179692
vt 0.173412 0.000000
vt 0.220164 0.000000
vt 1.000000 0.753494
vt 1.000000 0.803569
vt 0.791210 0.791210
vt 0.738082 0.738082
vt 0.804388 0.000000
vt 0.804317 0.457655
vt 0.803569 0.803569
vt 0.753494 0.753494
vt 0.753839 0.000000
vt 0.685979 0.329490
vt 0.605179 0.268962
vt 0.732329 0.269227
vt 0.732177 0.396403
vt 0.864007 0.173228
vt 0.078226 0.050005
vt 0.155360 0.000000
vt 0.196066 0.000000
vt 0.106299 0.058651
vt 0.890322 0.201988
vt 0.527268 0.193118
vt 0.181082 0.102319
vt 1.000000 0.869143
vt 1.000000 0.896933
vt 0.139362 0.077231
vt 0.497443 0.165513
vt 0.705803 0.167358
vt 0.896933 0.896933
vt 0.869143 0.869143
vt 1.000000 0.779836
vt 1.000000 0.826588
vt 0.759654 0.000000
vt 0.808801 0.000000
vt 1.000000 0.195612
vt 1.000000 0.246161
vt 1.000000 0.811573
vt 0.808801 0.808801
vt 0.759654 0.759654
vt 1.000000 0.763526
vt 0.803934 0.000000
vt 0.844640 0.000000
vt 1.000000 0.592816
vt 1.000000 0.741089
vt 0.763496 0.741082
vt 0.741089 0.741089
vt 0.592816 0.592816
vt 0.811182 0.594009
vt 0.811573 0.811573
vt 1.721463 0.649221
vt 11.160931 0.653633
vt 16.773190 0.655548
vt 0.242930 0.649878
vt 0.242918 0.535007
vt 0.246873 0.531113
vt 0.268053 0.530810
vt 0.205024 0.530744
vt 0.236280 0.531232
vt 0.236269 0.618119
vt 0.269756 0.615614
vt 0.224428 0.608697
vt 0.603871 0.122761
vt 0.596321 43.072132
vt 0.596672 40.925045
vt 0.612750 0.122761
vt 0.723405 0.122761
vt 0.722607 0.257756
vt 0.718717 0.266686
vt 0.003384 0.262834
vt 0.001943 0.258125
vt 0.001894 0.123130
vt 0.031111 0.123242
vt 0.029647 0.185725
vt 0.635695 0.002019
vt 0.722582 0.001992
vt 0.624607 0.256906
vt 0.626976 0.155297
vt 0.633650 0.029706
vt 0.032226 0.077151
vt 0.001970 0.002361
vt 0.033226 0.002124
vt 0.027080 0.267357
vt 0.005901 0.267103
vt 0.003384 0.262834
vt 0.029647 0.185725
vt 0.031111 0.123242
vt 0.917789 0.530019
vt 0.917789 0.645860
vt 0.917789 0.645914
vt 0.917789 0.645909
vt 0.917789 0.644374
vt 0.948674 0.812330
vt 0.872697 0.812330
vt 0.864125 0.812330
vt 0.863867 0.812330
vt 0.948674 0.409676
vt 0.948674 0.525725
vt 0.863657 0.525725
vt 0.855298 0.525725
vt 0.852333 0.525725
vt 0.832743 0.409676
vt 0.832751 0.409676
vt 0.832833 0.409676
vt 0.478648 0.526225
vt 0.506972 0.455415
vt 0.507855 0.526225
vt 0.501933 0.270982
vt 0.504417 0.348253
vt 0.478648 0.270982
vt 0.504417 0.348253
vt 0.506972 0.455415
s 0
usemtl lambert2SG
f 224/224/72 222/225/72 225/226/72 226/227/72 227/228/72 229/229/72
f 226/230/73 225/231/73 231/232/73 230/233/73
f 232/234/73 233/235/73 224/236/73 229/237/73
f 235/238/74 234/239/74 233/240/74 232/241/74 236/242/74
f 237/243/75 240/244/75 242/245/75 238/246/75
f 245/247/76 258/248/76 269/249/76 267/250/76 262/251/76 247/252/76 246/253/76 248/254/76 256/255/76 257/256/76 253/257/76 255/258/76 244/259/76
f 257/260/77 256/261/77 230/262/77 231/263/77
f 264/264/78 265/265/78 235/266/78 236/267/78
f 266/268/79 265/269/79 264/270/79 251/271/79
f 267/272/79 269/273/79 268/274/79 250/275/79
f 251/276/80 250/277/80 268/278/80 270/279/80 266/280/80
s 1
f 209/281/81 191/282/81 186/283/81 223/284/81 243/285/81 241/286/81 254/287/81
f 259/288/82 272/289/82 271/290/82 217/291/82 218/292/82
f 185/293/83 190/294/83 193/295/83 195/296/84 274/297/85 239/298/83 198/299/83
f 200/300/86 201/301/87 184/302/88 207/303/89 206/304/90
f 221/305/91 273/306/91 274/297/85 195/296/84 196/307/91 213/308/91 215/309/91
f 208/310/92 183/311/93 212/312/94
f 205/313/95 199/314/95 200/315/86 206/316/90
f 184/302/88 183/311/93 208/310/92 207/317/89
f 249/318/96 275/318/96 228/319/96 187/320/96 192/321/96 210/322/96
f 260/323/97 263/323/97 219/324/97 220/325/97 252/326/97
f 181/327/98 261/328/98 216/329/98 214/330/98 197/331/98 194/332/98 189/333/98 188/334/98
f 182/335/99 203/336/100 211/337/101
f 204/338/102 202/339/103 276/340/104
f 182/335/99 276/340/104 202/341/103 203/342/100
o Paperbag_cell.005
v 0.622826 0.708065 -0.242340
v 0.618294 0.707675 -0.239379
v 0.627965 0.022924 -0.314348
vn -0.5501 0.0832 -0.8310
vt 0.001894 0.532069
vt 0.115292 0.531094
vt 0.001894 0.533301
s 1
usemtl lambert2SG
f 277/343/105 279/344/105 278/345/105
o Paperbag_cell.006
v -0.611448 -0.695188 -0.346452
v -0.611448 -0.414726 -0.346452
v -0.631236 -0.413856 -0.359594
v -0.627085 -0.707902 -0.359057
v -0.621982 0.708025 -0.241538
v 0.217063 -0.413863 -0.360038
v 0.216898 -0.490909 -0.359776
v 0.209351 -0.414726 -0.346452
v 0.209335 -0.491066 -0.346452
v 0.191347 -0.093677 -0.314616
v 0.196971 -0.076437 -0.324519
v 0.122342 -0.708119 -0.279383
v 0.162627 -0.695188 -0.345510
v 0.180300 -0.651475 -0.359287
v 0.118615 -0.695188 -0.267610
v 0.167430 -0.708014 -0.359182
v -0.612836 0.707912 -0.226068
v -0.623283 0.571734 0.296045
v -0.608567 0.708025 -0.241547
v -0.609453 0.707125 -0.235207
v -0.514235 0.566964 -0.072049
v -0.495276 0.549278 -0.075984
v -0.498490 0.522607 0.030399
v -0.497930 0.539322 -0.031138
v -0.517115 0.542252 0.026171
v -0.476254 0.517996 -0.031697
v -0.298814 0.247013 0.307235
v -0.611448 0.562021 0.288859
v -0.329155 0.274790 0.315407
v 0.189629 -0.063618 -0.311635
v 0.196399 -0.066996 -0.323525
v 0.112163 -0.695188 -0.267960
v 0.117202 -0.708118 -0.279661
v -0.536194 -0.216919 0.135688
v -0.528596 -0.303847 0.055361
v -0.501974 -0.322043 0.040127
v -0.555638 -0.214558 0.136655
v 0.062844 -0.708106 -0.283082
v 0.043946 -0.695188 -0.272268
v -0.627522 -0.707895 -0.327214
v -0.514845 -0.494783 -0.121543
v -0.504969 -0.412058 -0.043881
v -0.535454 -0.494773 -0.122857
v -0.611448 -0.695188 -0.314349
v -0.481919 -0.414726 -0.044885
v -0.476254 -0.400953 -0.031697
v -0.499833 -0.398694 -0.031107
v -0.338867 0.233153 0.318091
v -0.263935 0.211661 0.309297
v -0.306288 0.211527 0.309305
v -0.288380 0.233376 0.318107
v -0.611448 0.211192 0.309325
v -0.625845 0.232472 0.317961
v -0.582877 -0.010958 0.219227
v -0.564294 -0.023437 0.214158
v 0.209351 -0.414726 -0.346452
v 0.191347 -0.093677 -0.314616
v 0.209335 -0.491066 -0.346452
v 0.217063 -0.413863 -0.360038
v 0.216898 -0.490909 -0.359776
v 0.196971 -0.076437 -0.324519
v -0.612836 0.707912 -0.226068
v -0.612836 0.707912 -0.226068
v -0.609453 0.707125 -0.235207
v -0.609453 0.707125 -0.235207
v -0.609453 0.707125 -0.235207
v -0.609453 0.707125 -0.235207
v 0.180300 -0.651475 -0.359287
v 0.162627 -0.695188 -0.345510
v 0.162627 -0.695188 -0.345510
v 0.118615 -0.695188 -0.267610
v 0.122342 -0.708119 -0.279383
v 0.167430 -0.708014 -0.359182
v 0.167430 -0.708014 -0.359182
v -0.514235 0.566964 -0.072049
v -0.497930 0.539322 -0.031138
v -0.517115 0.542252 0.026171
v -0.623283 0.571734 0.296045
v -0.623283 0.571734 0.296045
v -0.329155 0.274790 0.315407
v -0.298814 0.247013 0.307235
v -0.611448 0.562021 0.288859
v -0.611448 0.562021 0.288859
v -0.498490 0.522607 0.030399
v -0.476254 0.517996 -0.031697
v -0.495276 0.549278 -0.075984
v -0.608567 0.708025 -0.241547
v -0.608567 0.708025 -0.241547
v 0.189629 -0.063618 -0.311635
v 0.196399 -0.066996 -0.323525
v 0.112163 -0.695188 -0.267960
v 0.117202 -0.708118 -0.279661
v -0.536194 -0.216919 0.135688
v -0.501974 -0.322043 0.040127
v -0.528596 -0.303847 0.055361
v -0.555638 -0.214558 0.136655
v 0.062844 -0.708106 -0.283082
v 0.043946 -0.695188 -0.272268
v -0.514845 -0.494783 -0.121543
v -0.611448 -0.695188 -0.314349
v -0.611448 -0.695188 -0.314349
v -0.481919 -0.414726 -0.044885
v -0.476254 -0.400953 -0.031697
v -0.499833 -0.398694 -0.031107
v -0.504969 -0.412058 -0.043881
v -0.535454 -0.494773 -0.122857
v -0.627522 -0.707895 -0.327214
v -0.627522 -0.707895 -0.327214
v -0.263935 0.211661 0.309297
v -0.306288 0.211527 0.309305
v -0.338867 0.233153 0.318091
v -0.288380 0.233376 0.318107
v -0.611448 0.211192 0.309325
v -0.611448 0.211192 0.309325
v -0.564294 -0.023437 0.214158
v -0.625845 0.232472 0.317961
v -0.625845 0.232472 0.317961
v -0.582877 -0.010958 0.219227
v -0.611448 -0.695188 -0.346452
v -0.611448 -0.695188 -0.346452
v -0.611448 -0.414726 -0.346452
v -0.627085 -0.707902 -0.359057
v -0.627085 -0.707902 -0.359057
v -0.631236 -0.413856 -0.359594
v -0.621982 0.708025 -0.241538
v -0.621982 0.708025 -0.241538
vn 0.8697 -0.0002 0.4937
vn 0.8543 -0.1934 0.4825
vn 0.6904 0.6966 0.1955
vn 0.8691 0.0006 0.4947
vn -0.0398 -0.6790 0.7331
vn -0.0462 -0.6801 0.7316
vn -0.0469 -0.6807 0.7311
vn 0.0014 -0.3746 0.9272
vn 0.6905 0.6965 0.1954
vn 0.6904 0.6932 0.2070
vn -0.0003 -0.0024 -1.0000
vn -0.0004 0.0513 -0.9987
vn -0.0004 0.0502 -0.9987
vn -0.9315 -0.0027 0.3638
vn -0.9609 0.1929 0.1987
vn -0.9135 0.4067 -0.0126
vn -0.0002 -1.0000 -0.0010
vn -0.9416 -0.0056 -0.3368
vn -0.9945 -0.0129 0.1040
vn -0.9678 -0.0148 0.2514
vn -0.9049 -0.0167 0.4253
vn -0.9174 -0.0145 0.3976
vn -0.9109 -0.0157 0.4123
vn -0.0005 0.1047 -0.9945
vn -0.0006 0.0645 0.9979
vn -0.0002 -0.0485 0.9988
vn -0.0004 0.0017 1.0000
vn -0.0002 -0.0476 0.9989
vn 0.9222 -0.0107 -0.3866
vn 0.9008 -0.4342 -0.0000
vn 0.9522 -0.2128 -0.2194
vn -0.0000 1.0000 -0.0000
vn 0.9322 0.0094 0.3619
vn 0.9626 0.0189 -0.2702
vn 0.9937 0.0171 -0.1106
vn 0.8976 0.0154 -0.4405
vn 0.9055 0.0099 -0.4242
vn 0.8902 0.0204 -0.4550
vn -0.0000 -0.0987 0.9951
vn -0.0000 -0.0582 -0.9983
vn 0.0560 0.9979 0.0311
vn 0.0532 0.9979 0.0366
vn 0.0966 0.9941 -0.0499
vn 0.0001 0.9901 0.1406
vn 0.0005 -0.3758 0.9267
vt 0.819402 0.668886
vt 1.000000 0.804521
vt 1.000000 0.845455
vt 0.817741 0.709377
vt 0.018500 0.000000
vt 0.059008 0.000000
vt 1.000000 0.236775
vt 0.759785 0.000000
vt 0.808658 0.000000
vt 0.398643 0.188840
vt 1.000000 0.399620
vt 0.845456 0.845456
vt 0.804521 0.804521
vt 0.797786 0.770398
vt 0.783040 0.545249
vt 0.763827 0.488765
vt 0.671885 0.423751
vt 0.214439 0.122917
vt 0.648518 0.000000
vt 0.704343 0.000000
vt 0.240558 0.127903
vt 0.696111 0.412226
vt 0.797974 0.482182
vt 0.816650 0.543788
vt 0.809738 0.778232
vt 1.000000 0.940992
vt 1.000000 0.981500
vt 0.990697 0.990697
vt 0.970648 0.970648
vt 1.000000 0.240215
vt 0.868394 0.000000
vt 0.895168 0.000000
vt 1.000000 0.191342
vt 0.769305 0.000000
vt 0.800152 0.000000
vt 1.000000 0.186933
vt 1.000000 0.219457
vt 0.895168 0.895168
vt 0.868394 0.868394
vt 1.000000 0.886400
vt 1.000000 0.909488
vt 0.528239 0.203721
vt 0.385129 0.243953
vt 0.360508 0.250875
vt 0.219457 0.219457
vt 0.186933 0.186933
vt 0.356473 0.222068
vt 0.380362 0.215792
vt 0.528224 0.178543
vt 0.909200 0.066046
vt 0.909488 0.909488
vt 0.886400 0.886400
vt 0.886484 0.085685
vt 0.309335 0.309335
vt 0.309356 0.000000
vt 0.369464 0.000000
vt 0.369265 0.369265
vt 0.812948 0.780657
vt 0.970647 0.000000
vt 0.990697 0.000000
vt 0.821207 0.788264
vt 1.000000 0.295657
vt 1.000000 0.351482
vt 0.630536 0.000000
vt 0.690644 0.000000
vt 0.236251 0.769204
vt 0.187583 0.769992
vt 0.187584 0.609051
vt 0.224455 0.609092
vt 0.269029 0.616042
vt 0.236269 0.618467
vt 0.278222 0.179904
vt 0.242947 0.266990
vt 0.242948 0.255249
vt 0.484527 0.013806
vt 0.484610 0.002065
vt 0.635347 0.002019
vt 0.626770 0.154000
vt 0.625794 0.160180
vt 0.615458 0.284690
vt 0.454740 0.025457
vt 0.449713 0.124952
vt 0.449376 0.146088
vt 0.294124 0.146076
vt 0.309792 0.114194
vt 0.324519 0.084220
vt 0.358042 0.053768
vt 0.398588 0.017376
vt 0.477298 0.223661
vt 0.291615 0.267187
vt 0.291912 0.150786
vt 0.294124 0.146076
vt 0.454457 0.161124
vt 0.477279 0.217957
vt 0.187584 0.609051
vt 0.001900 0.768236
vt 0.001900 0.765691
vt 0.365918 0.613129
vt 0.360560 0.613016
vt 0.340209 0.712551
vt 0.454765 0.768393
vt 0.398613 0.768879
vt 0.331367 0.714392
vt 0.306326 0.704798
vt 0.278222 0.179904
vt 0.291912 0.150786
vt 0.716577 0.812330
vt 0.863537 0.812330
vt 0.872297 0.812330
vt 0.872300 0.812330
vt 0.273887 0.354357
vt 0.240718 0.283270
vt 0.240718 0.271434
vt 0.855086 0.525725
vt 0.863537 0.525725
vt 0.716577 0.525725
vt 0.840919 0.525725
vt 0.853862 0.525725
vt 0.351548 0.478151
vt 0.319762 0.449204
vt 0.302445 0.413966
vt 0.289418 0.387483
vt 0.441513 0.387483
vt 0.442050 0.410392
vt 0.448800 0.505670
vt 0.390734 0.513216
vt 0.287138 0.382621
vt 0.287138 0.271434
vt 0.472816 0.313226
vt 0.447422 0.371236
vt 0.716577 0.998008
vt 0.872300 0.998008
vt 0.868884 0.998008
vt 0.868559 0.998008
vt 0.871370 0.762117
vt 0.871370 0.702803
vt 0.871370 0.696186
vt 0.871370 0.704221
vt 0.273887 0.354357
vt 0.676647 0.764226
vt 0.678982 0.766224
vt 0.672677 0.764414
vt 0.676647 0.763847
vt 0.678985 0.763679
vt 0.384650 0.202932
vt 0.199848 0.000000
vt 0.230695 0.000000
vt 0.384433 0.168532
vt 0.692541 0.563296
vt 1.000000 0.309335
vt 1.000000 0.369265
vt 0.710306 0.607540
s 0
usemtl lambert2SG
f 335/346/106 337/347/106 339/348/106 338/349/106 340/350/106 336/351/106
f 348/352/107 350/353/107 351/354/107 352/355/107 347/356/107 339/357/107 337/358/107
f 341/359/108 354/360/108 355/361/108 356/362/108 357/363/108 359/364/108 360/365/108 361/366/108 363/367/108 364/368/108 365/369/108 343/370/108
f 336/371/109 340/372/109 369/373/109 368/374/109
f 350/375/110 370/376/110 371/377/110 351/378/110
f 372/379/111 375/380/111 374/381/111 373/382/111
f 371/383/111 370/384/111 377/385/111 376/386/111
f 378/387/112 381/388/112 382/389/112 373/390/112 374/391/112 383/392/112 384/393/112 385/394/112 386/395/112 376/396/112 377/397/112 379/398/112
f 389/399/113 388/400/113 391/401/113 390/402/113
f 345/403/114 368/404/114 369/405/114 366/406/114
f 360/407/115 359/408/115 391/409/115 388/410/115
s 1
f 401/411/116 403/412/117 285/413/118 286/414/116 293/415/116 353/416/116
f 322/417/119 402/418/120 387/419/121
f 319/420/122 283/421/122 295/422/122 291/423/122 312/424/122 317/425/122
f 358/426/123 304/427/123 303/428/124 326/429/125 314/430/123 316/431/123 397/432/123 396/433/123
f 405/434/126 282/435/127 321/436/128 326/437/125 303/428/124 300/438/126 342/439/126
f 285/440/118 403/412/117 284/441/129 367/442/129 310/443/129 290/444/129
f 308/445/130 297/446/130 395/447/130 327/448/130 330/449/130
f 322/450/119 321/451/128 282/435/127 402/418/120
f 281/452/131 398/452/132 349/453/132 288/454/132 287/455/133
f 320/456/134 380/457/135 399/458/136
f 294/459/137 292/460/137 280/461/137 323/461/137 318/462/137 311/463/137
f 394/464/138 313/465/138 315/466/138 325/467/139 305/468/140 302/469/138 362/470/138 392/471/138
f 324/472/141 400/473/142 346/474/143 301/475/143 305/468/140 325/467/139
f 299/476/144 281/476/131 287/477/133 289/478/144 309/479/144
f 307/480/145 306/481/145 328/482/145 329/483/145 393/480/145
f 320/484/134 399/458/136 400/473/142 324/472/141
f 344/485/146 404/486/147 296/487/148
f 404/486/147 344/488/146 298/489/149
s 0
f 333/490/150 375/491/150 372/492/150 334/493/150 331/494/150 389/495/150 390/496/150 332/497/150
o Paperbag_cell.007
v 0.611908 0.707125 -0.235207
v 0.605170 -0.050375 -0.310322
v 0.607713 -0.046032 -0.302229
v 0.611908 -0.050238 -0.310309
v 0.601269 -0.057037 -0.322735
v 0.612460 -0.037924 -0.287123
v 0.627226 -0.056514 -0.322696
v 0.624681 0.233619 -0.288616
v 0.622151 0.244257 -0.291084
v 0.613769 0.708065 -0.242334
v 0.619009 0.708009 -0.234304
v 0.557077 0.042185 -0.134413
v 0.571694 -0.009833 -0.232852
v 0.540123 0.036966 -0.143667
v 0.211090 -0.064315 -0.323250
v 0.233497 -0.057418 -0.311021
v 0.592528 -0.014892 -0.243082
v 0.215349 -0.042089 -0.320914
v 0.245659 0.009890 -0.304346
v 0.556642 0.354936 -0.134469
v 0.563324 0.554666 -0.130707
v 0.549307 0.530628 -0.138369
v 0.540076 0.308513 -0.143535
v 0.359876 0.708057 -0.242171
v 0.565608 0.706845 -0.129535
v 0.556717 0.707125 -0.134403
v 0.372595 0.707125 -0.235207
v 0.607713 -0.046032 -0.302229
v 0.611908 -0.050238 -0.310309
v 0.611908 -0.050238 -0.310309
v 0.605170 -0.050375 -0.310322
v 0.601269 -0.057037 -0.322735
v 0.627226 -0.056514 -0.322696
v 0.627226 -0.056514 -0.322696
v 0.627226 -0.056514 -0.322696
v 0.622151 0.244257 -0.291084
v 0.624681 0.233619 -0.288616
v 0.619009 0.708009 -0.234304
v 0.619009 0.708009 -0.234304
v 0.613769 0.708065 -0.242334
v 0.613769 0.708065 -0.242334
v 0.571694 -0.009833 -0.232852
v 0.540123 0.036966 -0.143667
v 0.612460 -0.037924 -0.287123
v 0.592528 -0.014892 -0.243082
v 0.557077 0.042185 -0.134413
v 0.233497 -0.057418 -0.311021
v 0.211090 -0.064315 -0.323250
v 0.215349 -0.042089 -0.320914
v 0.245659 0.009890 -0.304346
v 0.540076 0.308513 -0.143535
v 0.556642 0.354936 -0.134469
v 0.563324 0.554666 -0.130707
v 0.549307 0.530628 -0.138369
v 0.372595 0.707125 -0.235207
v 0.372595 0.707125 -0.235207
v 0.359876 0.708057 -0.242171
v 0.359876 0.708057 -0.242171
v 0.556717 0.707125 -0.134403
v 0.556717 0.707125 -0.134403
v 0.565608 0.706845 -0.129535
v 0.565608 0.706845 -0.129535
v 0.611908 0.707125 -0.235207
v 0.611908 0.707125 -0.235207
vn 0.0171 -0.8832 0.4687
vn 0.8342 0.0715 -0.5468
vn 0.8355 0.0723 -0.5446
vn 0.0159 -0.8831 0.4690
vn -0.4790 -0.0005 0.8778
vn -0.4802 0.0004 0.8771
vn -0.0006 0.1045 -0.9945
vn 0.9113 -0.0303 0.4107
vn -0.0000 -0.0987 0.9951
vn -0.8857 0.0418 -0.4625
vn -0.0221 0.9987 0.0457
vn -0.0141 0.9969 0.0770
vn -0.0000 0.9913 0.1316
vn -0.0361 0.9993 -0.0092
vt 0.774738 0.128322
vt 0.708423 0.000000
vt 0.744460 0.000000
vt 1.000000 0.501462
vt 0.641068 0.000000
vt 0.684926 0.000000
vt 0.494401 0.494401
vt 1.000000 0.671028
vt 1.000000 0.684919
vt 0.684919 0.684919
vt 0.671028 0.671028
vt 0.642425 0.066520
vt 0.656235 0.065894
vt 0.855018 0.482100
vt 1.000000 0.315074
vt 1.000000 0.358932
vt 0.915319 0.466705
vt 0.740802 0.740802
vt 0.705580 0.705580
vt 1.000000 0.291577
vt 0.068581 0.068581
vt 0.022030 0.022030
vt 1.000000 0.255540
vt 0.969132 0.000000
vt 1.000000 0.022030
vt 1.000000 0.068581
vt 0.906185 0.000000
vt 1.000000 0.705580
vt 1.000000 0.740802
vt 0.538208 0.277960
vt 0.246459 0.000000
vt 0.275570 0.000000
vt 0.599199 0.304554
vt 1.000000 0.093815
vt 0.555432 0.493519
vt 0.534349 0.473559
vt 1.000000 0.030869
vt 1.000000 0.724430
vt 1.000000 0.753541
vt 0.862553 0.800357
vt 0.848159 0.786299
vt 0.128839 0.531234
vt 0.134856 0.536163
vt 0.355044 0.610335
vt 0.362238 0.609534
vt 0.001895 0.581956
vt 0.001894 0.533787
vt 0.079827 0.532198
vt 0.117243 0.045243
vt 0.113136 0.028978
vt 0.109932 0.016304
vt 0.157850 0.028407
vt 0.236347 0.048430
vt 0.236223 0.087639
vt 0.211226 0.086649
vt 0.178507 0.085293
vt 0.126471 0.085289
vt 0.879189 0.998008
vt 0.876881 0.998008
vt 0.947396 0.998008
vt 0.948674 0.998008
vt 0.903271 0.998008
vt 0.710745 0.448044
vt 0.710745 0.485210
vt 0.585394 0.512899
vt 0.586173 0.509911
vt 0.592851 0.484257
vt 0.600336 0.451403
vt 0.645645 0.451314
vt 0.681927 0.449463
vt 0.676647 0.532129
vt 0.679275 0.531775
vt 0.679215 0.579944
vt 0.676647 0.577532
vt 0.677754 0.531257
vt 0.639481 0.542600
vt 0.637105 0.540366
vt 0.676314 0.530781
s 0
usemtl lambert2SG
f 434/498/151 436/499/151 437/500/151 438/501/151 449/502/151 433/503/151
f 439/504/152 441/505/152 442/506/152
f 442/507/153 441/508/153 445/509/153 443/510/153
f 447/511/154 433/512/154 449/513/154 450/514/154 451/515/154 448/516/154
f 436/517/154 452/518/154 453/519/154 437/520/154
f 454/521/155 453/522/155 452/523/155 455/524/155
f 448/525/155 451/526/155 457/527/155 458/528/155 459/529/155 456/530/155
f 455/531/156 460/532/156 462/533/156 454/534/156
f 459/535/156 458/536/156 466/537/156 464/538/156
s 1
f 440/539/157 410/540/157 420/541/157 423/542/157 463/543/157 446/544/157 414/545/157
f 422/546/158 411/547/158 412/548/158 413/549/158 444/550/158 467/551/158 426/552/158 425/553/158 417/554/158
f 424/555/159 421/556/159 407/557/159 435/558/159 468/558/159 461/559/159
f 465/560/160 469/561/160 409/562/160 408/563/160 418/564/160 419/565/160 428/566/160 427/567/160
f 406/568/161 415/569/162 429/570/163 432/571/163
f 415/572/162 406/568/161 431/573/164 430/574/164 416/575/164
o Paperbag_cell.008
v 0.611908 -0.414726 -0.346452
v 0.500486 -0.414726 -0.031697
v 0.611908 -0.414726 0.345838
v 0.630766 -0.413464 0.360255
v 0.631241 -0.413867 -0.360255
v 0.524140 -0.412432 -0.031186
v 0.571988 -0.012787 -0.233681
v 0.592823 -0.017936 -0.243976
v 0.611908 -0.053024 -0.310585
v 0.628582 -0.059361 -0.322996
v 0.356325 -0.063686 -0.323275
v 0.564572 0.027629 -0.157377
v 0.549287 0.020926 -0.169554
v 0.371770 -0.056913 -0.310971
v 0.231416 -0.059304 -0.311208
v 0.209127 -0.066150 -0.323442
v 0.539554 0.035347 -0.142059
v 0.556534 0.040563 -0.132738
v 0.211520 -0.061673 -0.311442
v 0.203659 -0.066801 -0.323508
v 0.500486 0.069507 -0.031697
v 0.623111 0.206867 0.320284
v 0.606278 0.195885 0.294449
v 0.576608 0.146930 0.164401
v 0.556565 0.142496 0.158317
v 0.523439 0.072322 -0.031190
v 0.133634 0.147633 0.313032
v 0.191360 -0.064092 -0.311682
v 0.611908 0.201926 0.309865
v 0.191033 0.157854 0.323248
v 0.198121 -0.067466 -0.323575
v -0.141996 0.119956 0.325524
v -0.141016 0.116361 0.314857
v 0.549085 -0.537057 0.132974
v 0.543132 -0.522070 -0.152167
v 0.567980 -0.538392 0.134831
v 0.566725 -0.529801 -0.031389
v 0.562787 -0.523258 -0.154166
v 0.629836 -0.517128 -0.359904
v 0.611908 -0.516639 -0.346452
v 0.006901 -0.512942 0.359566
v 0.008611 -0.512354 0.345838
v 0.212593 -0.490421 -0.346452
v 0.220188 -0.490240 -0.359780
v 0.611908 -0.552069 0.345838
v 0.629015 -0.553893 0.359500
v 0.220055 -0.413863 -0.360040
v 0.212315 -0.414726 -0.346452
v 0.199955 -0.209345 -0.326086
v 0.193009 -0.092257 -0.314475
v 0.198596 -0.075134 -0.324382
v -0.110821 -0.018777 0.334493
v -0.105446 -0.041861 0.324087
v 0.000729 -0.512509 0.359565
v -0.021725 -0.413458 0.359962
v -0.021243 -0.414726 0.345838
v 0.000758 -0.511803 0.345838
v 0.628582 -0.059361 -0.322996
v 0.628582 -0.059361 -0.322996
v 0.356325 -0.063686 -0.323275
v 0.611908 -0.053024 -0.310585
v 0.611908 -0.053024 -0.310585
v 0.371770 -0.056913 -0.310971
v 0.571988 -0.012787 -0.233681
v 0.549287 0.020926 -0.169554
v 0.592823 -0.017936 -0.243976
v 0.564572 0.027629 -0.157377
v 0.556534 0.040563 -0.132738
v 0.539554 0.035347 -0.142059
v 0.209127 -0.066150 -0.323442
v 0.231416 -0.059304 -0.311208
v 0.211520 -0.061673 -0.311442
v 0.203659 -0.066801 -0.323508
v 0.606278 0.195885 0.294449
v 0.556565 0.142496 0.158317
v 0.576608 0.146930 0.164401
v 0.523439 0.072322 -0.031190
v 0.500486 0.069507 -0.031697
v 0.191360 -0.064092 -0.311682
v 0.198121 -0.067466 -0.323575
v 0.623111 0.206867 0.320284
v 0.623111 0.206867 0.320284
v 0.191033 0.157854 0.323248
v 0.611908 0.201926 0.309865
v 0.611908 0.201926 0.309865
v 0.133634 0.147633 0.313032
v -0.141996 0.119956 0.325524
v -0.141016 0.116361 0.314857
v 0.549085 -0.537057 0.132974
v 0.543132 -0.522070 -0.152167
v 0.611908 -0.516639 -0.346452
v 0.611908 -0.516639 -0.346452
v 0.630766 -0.413464 0.360255
v 0.562787 -0.523258 -0.154166
v 0.629836 -0.517128 -0.359904
v 0.629836 -0.517128 -0.359904
v 0.566725 -0.529801 -0.031389
v 0.567980 -0.538392 0.134831
v 0.212593 -0.490421 -0.346452
v 0.220188 -0.490240 -0.359780
v 0.008611 -0.512354 0.345838
v 0.611908 -0.552069 0.345838
v 0.611908 -0.552069 0.345838
v 0.629015 -0.553893 0.359500
v 0.629015 -0.553893 0.359500
v 0.006901 -0.512942 0.359566
v 0.220055 -0.413863 -0.360040
v 0.212315 -0.414726 -0.346452
v 0.199955 -0.209345 -0.326086
v 0.198596 -0.075134 -0.324382
v 0.193009 -0.092257 -0.314475
v -0.105446 -0.041861 0.324087
v -0.110821 -0.018777 0.334493
v -0.021243 -0.414726 0.345838
v 0.000758 -0.511803 0.345838
v 0.000729 -0.512509 0.359565
v -0.021725 -0.413458 0.359962
v 0.631241 -0.413867 -0.360255
v 0.611908 -0.414726 0.345838
v 0.611908 -0.414726 -0.346452
vn -0.0136 0.8831 -0.4691
vn -0.0143 0.8834 -0.4684
vn -0.1078 0.9383 -0.3286
vn -0.1087 0.9384 -0.3281
vn -0.1091 0.9389 -0.3265
vn -0.0655 -0.9966 -0.0509
vn -0.8681 -0.0028 -0.4964
vn -0.8696 -0.0019 -0.4938
vn -0.9753 -0.2202 -0.0154
vn -0.9752 -0.2210 -0.0135
vn -0.0699 -0.9962 -0.0514
vn -0.0003 -0.0048 1.0000
vn -0.0004 0.0298 0.9996
vn -0.0004 0.0346 0.9994
vn -0.0005 -0.0034 -1.0000
vn -0.0006 0.0518 -0.9987
vn -0.0006 0.0508 -0.9987
vn 0.9400 0.3411 -0.0003
vn 0.9952 0.0947 0.0235
vn 0.9753 0.0590 -0.2128
vn 0.9508 -0.0119 0.3095
vn 0.9488 -0.0075 0.3157
vn 0.9693 0.0799 0.2326
vn -0.0006 0.1046 -0.9945
vn 0.9994 -0.0015 -0.0333
vn 0.9466 -0.0028 0.3224
vn 0.9635 -0.0005 -0.2678
vn 0.9642 -0.0057 -0.2653
vn -0.0005 0.0643 0.9979
vn 0.9648 -0.0106 -0.2628
vn -0.0000 -0.0000 -1.0000
vn -0.0000 -0.0333 -0.9994
vn -0.0000 -0.0291 -0.9996
vn -0.0000 -0.0504 0.9987
vn -0.0000 -0.0000 1.0000
vn -0.0000 -0.0494 0.9988
vn -0.9942 -0.1049 -0.0245
vn -0.9398 0.0026 -0.3418
vn -0.9427 -0.0000 -0.3337
vn -0.9621 -0.0959 -0.2551
vn -0.0000 -0.0987 0.9951
vn -0.9992 0.0053 0.0390
vn -0.9366 0.0053 -0.3504
vn -0.9572 0.0023 0.2895
vn -0.9551 0.0048 0.2961
vn -0.0000 -0.0582 -0.9983
vn -0.9699 -0.0723 0.2325
vn -0.9591 -0.0000 0.2831
vt 0.250665 0.000000
vt 0.286218 0.000000
vt 0.839038 0.550842
vt 0.747115 0.237199
vt 0.694837 0.000000
vt 0.730022 0.000000
vt 0.795083 0.314792
vt 0.877427 0.624977
vt 1.000000 0.739547
vt 0.730023 0.730023
vt 0.694837 0.694837
vt 1.000000 0.704257
vt 0.250665 0.250665
vt 1.000000 0.017554
vt 1.000000 0.063874
vt 0.286218 0.286218
vt 0.063874 0.063874
vt 0.017554 0.017554
vt 0.006188 0.000000
vt 0.022521 0.000000
vt 0.842732 0.000000
vt 0.884716 0.010961
vt 0.781125 0.178140
vt 0.670708 0.418413
vt 0.739547 0.739547
vt 0.704257 0.704257
vt 0.623001 0.345222
vt 0.739469 0.126118
vt 0.022521 0.022521
vt 0.006188 0.006188
vt 0.007594 0.000000
vt 0.027648 0.000000
vt 0.877706 0.877706
vt 0.842732 0.842732
vt 0.864804 0.858703
vt 1.000000 0.329991
vt 1.000000 0.400127
vt 0.400127 0.400127
vt 0.329991 0.329991
vt 0.344366 0.000000
vt 0.417995 0.000000
vt 0.900706 0.881276
vt 0.693513 0.661512
vt 0.680314 0.314148
vt 0.839715 0.077553
vt 0.806833 0.000000
vt 0.847502 0.000000
vt 0.881192 0.061187
vt 0.725762 0.311736
vt 0.734624 0.461307
vt 0.737195 0.663796
vt 0.928201 0.908911
vt 0.102454 0.000000
vt 0.130356 0.000000
vt 0.984976 0.000000
vt 0.848129 0.646148
vt 0.847503 0.847503
vt 0.806833 0.806833
vt 0.806670 0.606481
vt 0.744084 0.744084
vt 0.944712 0.000000
vt 0.944712 0.944712
vt 1.000000 0.972352
vt 1.000000 0.992405
vt 0.984976 0.984976
vt 0.706624 0.000000
vt 0.742224 0.000000
vt 1.000000 0.582005
vt 1.000000 0.655634
vt 0.780684 0.000000
vt 0.827624 0.000000
vt 0.829049 0.149323
vt 0.742224 0.742224
vt 0.706624 0.706624
vt 0.780751 0.146317
vt 1.000000 0.897546
vt 0.827624 0.827624
vt 0.780684 0.780684
vt 1.000000 0.869644
vt 17.483891 0.655869
vt 1.817332 0.649357
vt 0.268461 0.530805
vt 0.291704 0.530472
vt 0.291705 0.654264
vt 0.204676 0.530739
vt 0.223600 0.608467
vt 0.187584 0.608483
vt 0.187585 0.530472
vt 0.031476 0.123243
vt 0.050902 0.123318
vt 0.030055 0.184527
vt 0.033574 0.002122
vt 0.050665 0.001992
vt 0.032559 0.077976
vt 0.363776 0.612801
vt 0.359305 0.611747
vt 0.355065 0.610707
vt 0.227000 0.582695
vt 0.128911 0.530977
vt 0.187584 0.608483
vt 0.359240 0.612707
vt 0.131134 0.123317
vt 0.109339 0.015729
vt 0.116737 0.044913
vt 0.124116 0.076827
vt 0.126197 0.085906
vt 0.153465 0.252895
vt 0.050731 0.267640
vt 0.143305 0.195437
vt 0.394408 0.531925
vt 0.602654 0.614030
vt 0.049542 0.676882
vt -0.067151 0.670910
vt 0.291705 0.654264
vt 0.030055 0.184527
vt 0.027489 0.267362
vt 0.032559 0.077976
vt 0.917789 0.644478
vt 0.917789 0.645968
vt 0.917789 0.650142
vt 0.917789 0.530019
vt 0.872863 0.812330
vt 0.872915 0.812330
vt 0.948674 0.812330
vt 0.525067 0.410177
vt 0.525067 0.526225
vt 0.508199 0.526225
vt 0.507300 0.454593
vt 0.872863 0.998008
vt 0.948674 0.998008
vt 0.903115 0.998008
vt 0.876486 0.998008
vt 0.872712 0.998008
vt 0.868887 0.998008
vt 0.869200 0.998008
vt 0.870518 0.998008
vt 0.605212 0.410177
vt 0.600059 0.450812
vt 0.597765 0.460938
vt 0.592359 0.484562
vt 0.584932 0.513001
vt 0.525067 0.270982
vt 0.627129 0.284245
vt 0.626104 0.289927
vt 0.617016 0.340102
vt 0.605213 0.410177
vt 0.871370 0.672866
vt 0.871370 0.620758
vt 0.871370 0.530019
vt 0.871370 0.650142
vt 0.871370 0.666117
vt 0.504820 0.349464
vt 0.502335 0.270982
vt 0.507300 0.454593
s 0
usemtl lambert2SG
f 529/576/165 532/577/165 530/578/165 533/579/165 534/580/165 536/581/165 535/582/165 527/583/165
f 537/584/166 536/585/166 534/586/166 538/587/166
f 529/588/166 539/589/166 540/590/166 532/591/166
f 540/592/167 539/593/167 542/594/167 541/595/167
f 543/596/167 550/597/167 545/598/167 546/599/167 537/600/167 538/601/167 547/602/167 544/603/167
f 541/604/168 542/605/168 549/606/168 548/607/168
f 550/608/168 543/609/168 553/610/168 555/611/168 552/612/168
f 552/613/169 555/614/169 557/615/169 556/616/169
f 571/617/170 558/618/170 559/619/170 560/620/170 568/621/170 569/622/170 564/623/170 563/624/170 566/625/170 567/626/170 573/627/170 575/628/170 570/629/170
f 579/630/171 576/631/171 569/632/171 568/633/171 577/634/171 578/635/171 580/636/171
f 580/637/172 548/638/172 549/639/172 579/640/172
f 581/641/173 582/642/173 556/643/173 557/644/173
f 584/645/174 585/646/174 586/647/174 582/648/174 581/649/174 583/650/174
f 575/651/175 585/652/175 584/653/175 570/654/175
s 1
f 523/655/176 510/656/176 574/657/176 473/658/177 524/659/178
f 565/660/179 513/661/179 516/662/180 587/663/181
f 506/664/182 475/665/183 505/666/184
f 508/667/185 474/668/186 475/665/183 507/669/187
f 500/670/188 489/671/188 485/672/188 480/673/188 528/674/188 587/663/181 516/675/180 520/676/188
f 495/677/189 475/665/183 474/668/186 479/678/190 477/679/190 481/680/190 487/681/190
f 551/682/191 562/683/192 475/665/183 495/677/189 493/684/191
f 473/658/177 491/685/193 499/686/193 501/687/193 521/688/193 524/689/178
f 505/690/184 475/665/183 562/683/192 515/691/194
f 475/665/183 506/664/182 507/692/187
f 511/693/195 526/694/195 525/695/196 588/696/197 572/696/195
f 517/697/198 512/698/199 561/699/199 589/699/200
f 471/700/201 470/701/202 509/702/203 504/703/204
f 517/704/198 589/705/200 531/705/205 483/706/205 484/707/205 488/708/205 497/709/205 519/710/205 518/711/205
f 470/701/202 471/700/201 490/712/206 486/713/207 482/714/207 476/715/207 478/716/207
f 471/700/201 472/717/208 554/718/209 492/719/209 494/720/209 490/721/206
f 502/722/210 496/723/210 498/724/210 588/724/197 525/725/196 522/726/210
f 472/717/208 471/700/201 503/727/211 514/728/212
f 504/729/204 503/727/211 471/700/201
o Paperbag_cell.009
v -0.611448 0.707125 0.280394
v 0.611908 0.707125 0.280394
v -0.476254 0.707125 -0.031697
v 0.500486 0.707125 -0.031697
v -0.497591 0.706491 -0.031144
v -0.622250 0.708483 0.287211
v 0.522521 0.706585 -0.031195
v 0.623025 0.708538 0.287962
v 0.241715 0.004774 -0.304854
v 0.211574 -0.046881 -0.321416
v 0.355058 0.708056 -0.242167
v 0.562340 0.554258 -0.128671
v 0.564627 0.706839 -0.127296
v 0.548215 0.530051 -0.136433
v 0.555551 0.707125 -0.132271
v 0.367758 0.707125 -0.235207
v 0.208332 -0.063834 -0.323198
v 0.230570 -0.057018 -0.310981
v 0.555900 0.362583 -0.132223
v 0.539307 0.037622 -0.141363
v 0.539301 0.316315 -0.141346
v 0.556300 0.042831 -0.132028
v -0.104829 0.122447 0.314502
v -0.109902 0.125585 0.325179
v 0.000584 0.138036 0.324439
v 0.019464 0.136458 0.313684
v 0.192529 -0.061550 -0.311430
v 0.500486 0.071386 -0.031697
v 0.523436 0.074203 -0.031190
v 0.537036 0.093207 0.018839
v 0.518515 0.094755 0.029390
v -0.142733 0.122007 0.325391
v -0.141771 0.118419 0.314737
v 0.197772 -0.065092 -0.323325
v 0.016356 0.105618 -0.294854
v 0.019210 0.105690 -0.305260
v -0.284388 0.232506 0.318166
v -0.259881 0.210721 0.309352
v -0.582187 0.532617 0.298597
v -0.061258 0.180341 -0.287444
v -0.051842 0.173974 -0.298037
v -0.575297 0.527958 0.290846
v -0.623265 0.574122 0.295891
v -0.611240 0.707893 -0.223370
v -0.607118 0.707125 -0.235207
v -0.611448 0.564413 0.288719
v -0.606232 0.708025 -0.241548
v -0.498226 0.524796 0.029662
v -0.516851 0.544467 0.025398
v -0.497926 0.541558 -0.031139
v -0.514012 0.568838 -0.071499
v -0.476254 0.520218 -0.031697
v -0.495051 0.551143 -0.075461
v 0.576448 0.148583 0.163823
v 0.556402 0.144134 0.157765
v 0.611908 0.203833 0.309754
v 0.626470 0.209161 0.320138
v 0.564627 0.706839 -0.127296
v 0.564627 0.706839 -0.127296
v 0.555551 0.707125 -0.132271
v 0.555551 0.707125 -0.132271
v 0.548215 0.530051 -0.136433
v 0.355058 0.708056 -0.242167
v 0.355058 0.708056 -0.242167
v 0.367758 0.707125 -0.235207
v 0.367758 0.707125 -0.235207
v 0.241715 0.004774 -0.304854
v 0.211574 -0.046881 -0.321416
v 0.208332 -0.063834 -0.323198
v 0.230570 -0.057018 -0.310981
v 0.562340 0.554258 -0.128671
v 0.555900 0.362583 -0.132223
v 0.556300 0.042831 -0.132028
v 0.539307 0.037622 -0.141363
v 0.539301 0.316315 -0.141346
v -0.104829 0.122447 0.314502
v 0.019464 0.136458 0.313684
v -0.109902 0.125585 0.325179
v 0.000584 0.138036 0.324439
v 0.500486 0.071386 -0.031697
v 0.518515 0.094755 0.029390
v 0.523436 0.074203 -0.031190
v 0.537036 0.093207 0.018839
v 0.192529 -0.061550 -0.311430
v -0.141771 0.118419 0.314737
v -0.142733 0.122007 0.325391
v 0.197772 -0.065092 -0.323325
v 0.019210 0.105690 -0.305260
v -0.607118 0.707125 -0.235207
v -0.607118 0.707125 -0.235207
v -0.607118 0.707125 -0.235207
v -0.607118 0.707125 -0.235207
v -0.607118 0.707125 -0.235207
v -0.611240 0.707893 -0.223370
v -0.611240 0.707893 -0.223370
v -0.495051 0.551143 -0.075461
v 0.016356 0.105618 -0.294854
v -0.061258 0.180341 -0.287444
v -0.051842 0.173974 -0.298037
v -0.259881 0.210721 0.309352
v -0.575297 0.527958 0.290846
v -0.284388 0.232506 0.318166
v -0.582187 0.532617 0.298597
v -0.611448 0.564413 0.288719
v -0.611448 0.564413 0.288719
v -0.498226 0.524796 0.029662
v -0.623265 0.574122 0.295891
v -0.623265 0.574122 0.295891
v -0.516851 0.544467 0.025398
v -0.497926 0.541558 -0.031139
v -0.514012 0.568838 -0.071499
v -0.476254 0.520218 -0.031697
v -0.606232 0.708025 -0.241548
v -0.606232 0.708025 -0.241548
v 0.611908 0.203833 0.309754
v 0.611908 0.203833 0.309754
v 0.556402 0.144134 0.157765
v 0.576448 0.148583 0.163823
v 0.626470 0.209161 0.320138
v 0.626470 0.209161 0.320138
v -0.622250 0.708483 0.287211
v -0.622250 0.708483 0.287211
v -0.497591 0.706491 -0.031144
v 0.522521 0.706585 -0.031195
v 0.623025 0.708538 0.287962
v 0.623025 0.708538 0.287962
v -0.611448 0.707125 0.280394
v -0.611448 0.707125 0.280394
v -0.476254 0.707125 -0.031697
v 0.500486 0.707125 -0.031697
v 0.611908 0.707125 0.280394
v 0.611908 0.707125 0.280394
vn 0.4807 0.0007 -0.8769
vn 0.4815 0.0001 -0.8764
vn 0.1080 -0.9387 0.3272
vn 0.1079 -0.9388 0.3272
vn 0.1045 -0.9396 0.3259
vn -0.6901 -0.7100 -0.1401
vn -0.6899 -0.6974 -0.1941
vn -0.6907 -0.6963 -0.1954
vn 0.1089 -0.9381 0.3287
vn -0.6086 -0.7670 0.2033
vn -0.9328 -0.0148 -0.3601
vn -0.9973 -0.0288 0.0680
vn -0.9993 -0.0261 -0.0259
vn -0.8747 -0.0373 0.4833
vn -0.0006 0.1045 -0.9945
vn 0.9411 -0.0066 0.3381
vn 0.9996 -0.0078 0.0258
vn 0.9955 -0.0076 0.0945
vn 0.9575 -0.0082 -0.2883
vn -0.0006 0.0644 0.9979
vn 0.9989 0.0321 0.0339
vn 0.9970 0.0345 -0.0687
vn 0.9201 0.0207 0.3911
vn 0.8570 0.0408 -0.5136
vn -0.0000 -0.0987 0.9951
vn -0.9994 0.0147 -0.0313
vn -0.9256 0.0142 -0.3781
vn -0.9941 0.0147 -0.1078
vn -0.9475 0.0134 0.3194
vn -0.0000 -0.0582 -0.9983
vn 0.0120 0.9957 -0.0923
vn 0.0152 0.9999 0.0037
vn 0.0145 0.9999 0.0034
vn 0.0128 0.9962 -0.0861
vn 0.0054 1.0000 0.0002
vn -0.0000 0.9907 0.1364
vn -0.0031 0.9999 0.0096
vn -0.0014 1.0000 0.0098
vn 0.0242 0.9996 0.0132
vn -0.0139 0.9956 -0.0925
vn -0.0147 0.9961 -0.0866
vn -0.6899 -0.6973 -0.1945
vt 0.867011 0.062046
vt 1.000000 0.247513
vt 1.000000 0.276866
vt 0.848336 0.062201
vt 0.551619 0.062299
vt 1.000000 0.913797
vt 1.000000 0.976433
vt 0.530695 0.061176
vt 0.976433 0.976433
vt 0.913797 0.913797
vt 1.000000 0.936939
vt 1.000000 0.983166
vt 0.527643 0.260819
vt 1.000000 0.259851
vt 1.000000 0.295174
vt 0.588454 0.295305
vt 0.276866 0.276866
vt 0.247513 0.247513
vt 0.795750 0.000000
vt 0.818450 0.000000
vt 1.000000 0.115539
vt 1.000000 0.130006
vt 0.273287 0.132547
vt 0.295174 0.295174
vt 0.259852 0.259852
vt 0.235059 0.107320
vt 0.173462 0.000000
vt 0.195730 0.000000
vt 1.000000 0.994137
vt 0.983166 0.983166
vt 0.936940 0.936940
vt 1.000000 0.978028
vt 0.659283 0.000000
vt 0.130006 0.130006
vt 0.115539 0.115539
vt 0.585905 0.000000
vt 0.972677 0.972677
vt 0.828956 0.000000
vt 0.844356 0.000000
vt 0.992710 0.992710
vt 0.828956 0.828956
vt 1.000000 0.850175
vt 1.000000 0.863080
vt 0.844356 0.844356
vt 0.148273 0.090359
vt 0.145671 0.145671
vt 0.136228 0.136228
vt 0.139538 0.073339
vt 0.469104 0.198863
vt 0.537989 0.220052
vt 0.587174 0.190129
vt 0.774674 0.022160
vt 0.781110 0.024997
vt 0.591995 0.218455
vt 0.538664 0.252964
vt 0.463904 0.227787
vt 0.786710 0.026352
vt 0.794406 0.026843
vt 0.863080 0.863080
vt 0.850175 0.850175
vt 1.000000 0.204250
vt 0.295495 0.211967
vt 0.683282 0.533065
vt 1.000000 0.804270
vt 1.000000 0.826538
vt 0.646369 0.520250
vt 0.256043 0.190019
vt 1.000000 0.181550
vt 1.000000 0.414095
vt 0.634494 0.000000
vt 0.695394 0.000000
vt 1.000000 0.340717
vt 0.450081 0.125237
vt 0.455135 0.025514
vt 0.477373 0.028714
vt 0.477044 0.146090
vt 0.449746 0.146088
vt 0.454761 0.160922
vt 0.449746 0.146088
vt 0.477276 0.216962
vt 0.001900 0.765248
vt 0.001895 0.582870
vt 0.362789 0.610250
vt 0.357214 0.610860
vt 0.365546 0.612868
vt 2.580907 0.648249
vt -1.046110 0.659307
vt 0.236221 0.088452
vt 0.236111 0.123315
vt 0.131445 0.123317
vt 0.126572 0.086167
vt 0.179767 0.086120
vt 0.211162 0.087400
vt 0.131445 0.123317
vt 0.236434 0.240986
vt 0.153782 0.252849
vt 0.143578 0.195224
vt 0.134550 0.141764
vt 0.303209 0.704039
vt 0.053070 0.677023
vt -0.068344 0.670721
vt -38.376316 0.626526
vt 0.394755 0.531287
vt 0.477407 0.531941
vt 0.477398 0.768197
vt 0.455159 0.768390
vt 0.445842 0.760595
vt 0.441881 0.387483
vt 0.472816 0.387483
vt 0.472816 0.502549
vt 0.449196 0.505619
vt 0.442415 0.410120
vt 0.447724 0.371428
vt 0.472816 0.314135
vt 0.876326 0.998008
vt 0.878440 0.998008
vt 0.902353 0.998008
vt 0.717398 0.998008
vt 0.820960 0.998008
vt 0.835685 0.998008
vt 0.869109 0.998008
vt 0.710745 0.410177
vt 0.710745 0.447258
vt 0.681838 0.448748
vt 0.646931 0.450508
vt 0.600435 0.450555
vt 0.605524 0.410177
vt 0.617287 0.340305
vt 0.627445 0.284286
vt 0.710745 0.295110
vt 0.609311 0.387649
vt 0.871370 0.755258
vt 0.871370 0.762117
vt 0.871370 0.530019
vt 0.871370 0.642419
vt 0.871370 0.666000
vt 0.871370 0.673009
vt 0.871370 0.695417
vt 0.486548 0.764226
vt 0.601614 0.738577
vt 0.601410 0.742625
vt 0.484034 0.766275
vt 0.674962 0.763650
vt 0.672283 0.764186
vt 0.676647 0.578449
vt 0.679214 0.580858
vt 0.678986 0.763236
vt 0.676647 0.763404
vt 0.601614 0.553268
vt 0.601429 0.549087
vt -7.581726 0.486832
vt 0.638695 0.542821
vt 0.486548 0.532129
vt 0.483758 0.530019
vt 1.000000 0.145671
vt 0.304606 0.000000
vt 0.365506 0.000000
vt 1.000000 0.136228
s 0
usemtl lambert2SG
f 647/730/213 660/731/213 651/732/213 649/733/213
f 654/734/213 656/735/213 657/736/213 652/737/213
f 657/738/214 656/739/214 659/740/214 658/741/214
f 661/742/214 662/743/214 663/744/214 664/745/214 651/746/214 660/747/214
f 666/748/215 668/749/215 667/750/215 665/751/215
f 669/752/215 663/753/215 662/754/215 671/755/215 672/756/215 670/757/215
f 676/758/216 658/759/216 659/760/216 673/761/216
f 674/762/217 665/763/217 667/764/217 675/765/217
f 673/766/218 686/767/218 677/768/218 676/769/218
f 686/770/219 687/771/219 688/772/219 677/773/219
f 693/774/220 690/775/220 692/776/220 696/777/220 698/778/220 699/779/220 700/780/220 683/781/220 678/782/220 685/783/220 701/784/220 695/785/220
f 679/786/220 702/787/220 688/788/220 687/789/220
f 666/790/221 704/791/221 706/792/221 670/793/221 672/794/221 707/795/221 708/796/221 668/797/221
f 675/798/222 691/799/222 689/800/222 674/801/222
s 1
f 638/802/223 697/803/223 710/804/223 712/805/224 639/806/225
f 640/807/226 639/808/225 712/805/224 684/809/226
f 703/810/227 653/811/227 599/812/227 606/813/227 623/814/227 625/815/227 630/816/227
f 648/817/228 713/818/229 618/819/230 611/820/228 608/821/228 601/822/228
f 618/823/230 713/818/229 714/824/231 709/825/231 643/826/231 619/827/231
f 626/828/232 621/829/232 613/830/232 614/831/232 646/832/232 715/833/232 711/834/232 632/835/232 628/836/232
f 641/837/233 718/838/234 716/839/235 694/840/235 637/841/235
f 718/838/234 641/837/233 642/842/236 681/843/236
f 607/844/237 598/845/237 655/846/237 680/847/237 629/848/237 624/849/237 616/850/237
f 719/851/238 650/852/239 603/853/239 610/854/239 609/855/239 617/856/240
f 644/857/241 705/858/241 720/859/241 719/851/238 617/856/240 620/860/241
f 631/861/242 635/862/242 717/862/242 721/863/242 645/863/242 615/864/242 612/865/242 622/866/242 627/867/242
f 590/868/243 592/869/244 594/870/245 595/871/246
f 594/870/245 592/869/244 634/872/247 633/873/247
f 605/874/248 600/875/248 636/876/248 682/877/248
f 593/878/249 596/879/250 602/880/251 604/881/251
f 593/878/249 591/882/252 597/883/253 596/879/250
f 591/882/252 590/868/243 595/871/246 597/883/253
s 0
f 690/884/254 689/885/254 691/886/254 692/887/254
