# Blender 5.0.0
# www.blender.org
mtllib Plate2.mtl
o Plate2_cell
v 0.021743 -0.047537 0.043563
v 0.158118 -0.012377 0.486637
v 0.300758 -0.012377 0.413958
v 0.139105 0.021300 0.428122
v 0.264595 0.021300 0.364182
v 0.148025 -0.037321 0.455571
v 0.281559 -0.037321 0.387531
v 0.136427 -0.062842 0.419879
v 0.259501 -0.062842 0.357170
v 0.113135 -0.038426 0.348194
v 0.215196 -0.038426 0.296191
v 0.128207 -0.008814 0.394581
v 0.243865 -0.008814 0.335650
v 0.025073 -0.062842 0.082816
v 0.023932 -0.062842 0.120203
v 0.017613 -0.038426 0.083992
v 0.015912 -0.038426 0.139713
v 0.009307 -0.038426 0.364638
v 0.003839 -0.023025 0.390871
v 0.014864 -0.062842 0.429002
v 0.020429 -0.062842 0.438251
v 0.041228 -0.043603 0.463248
v 0.053780 0.026449 0.449262
v 0.048184 0.021300 0.442522
v 0.020581 -0.008814 0.411627
v 0.026103 -0.062842 0.052228
v 0.300498 -0.062842 0.316173
v 0.323860 -0.043306 0.332936
v 0.250473 -0.038426 0.260914
v 0.278511 -0.017211 0.281684
v 0.072838 -0.012377 0.500144
v 0.074648 -0.005758 0.499857
v 0.048031 -0.037321 0.471408
v 0.072386 0.043535 0.471621
v 0.076257 0.046969 0.476093
v 0.079923 0.012794 0.499022
v 0.113267 0.005469 0.493741
v 0.096800 0.045514 0.470684
v 0.148380 0.041565 0.456666
v 0.158118 -0.005130 0.486637
v 0.233050 0.014230 0.448457
v 0.183022 0.044266 0.443451
v 0.291912 0.052680 0.401781
v 0.333947 0.062842 0.380770
v 0.300758 0.031518 0.413958
v 0.289583 -0.008814 0.289932
v 0.331000 -0.037321 0.338090
v 0.319094 0.021300 0.309683
v 0.368960 0.062842 0.345756
v 0.357900 -0.012377 0.356817
v 0.019876 -0.038426 0.043184
v 0.025073 -0.062842 0.082816
v 0.023932 -0.062842 0.120203
v 0.017613 -0.038426 0.083992
v 0.015912 -0.038426 0.139713
v 0.009307 -0.038426 0.364638
v 0.003839 -0.023025 0.390871
v 0.014864 -0.062842 0.429002
v 0.020581 -0.008814 0.411627
v 0.020581 -0.008814 0.411627
v 0.020429 -0.062842 0.438251
v 0.041228 -0.043603 0.463248
v 0.053780 0.026449 0.449262
v 0.048184 0.021300 0.442522
v 0.048184 0.021300 0.442522
v 0.026103 -0.062842 0.052228
v 0.019876 -0.038426 0.043184
v 0.300498 -0.062842 0.316173
v 0.323860 -0.043306 0.332936
v 0.250473 -0.038426 0.260914
v 0.278511 -0.017211 0.281684
v 0.072386 0.043535 0.471621
v 0.048031 -0.037321 0.471408
v 0.048031 -0.037321 0.471408
v 0.072838 -0.012377 0.500144
v 0.074648 -0.005758 0.499857
v 0.076257 0.046969 0.476093
v 0.079923 0.012794 0.499022
v 0.096800 0.045514 0.470684
v 0.113267 0.005469 0.493741
v 0.158118 -0.005130 0.486637
v 0.233050 0.014230 0.448457
v 0.148380 0.041565 0.456666
v 0.148380 0.041565 0.456666
v 0.183022 0.044266 0.443451
v 0.300758 0.031518 0.413958
v 0.333947 0.062842 0.380770
v 0.333947 0.062842 0.380770
v 0.291912 0.052680 0.401781
v 0.291912 0.052680 0.401781
v 0.368960 0.062842 0.345756
v 0.368960 0.062842 0.345756
v 0.357900 -0.012377 0.356817
v 0.331000 -0.037321 0.338090
v 0.331000 -0.037321 0.338090
v 0.289583 -0.008814 0.289932
v 0.289583 -0.008814 0.289932
v 0.319094 0.021300 0.309683
v 0.319094 0.021300 0.309683
v 0.139105 0.021300 0.428122
v 0.139105 0.021300 0.428122
v 0.139105 0.021300 0.428122
v 0.264595 0.021300 0.364182
v 0.264595 0.021300 0.364182
v 0.264595 0.021300 0.364182
v 0.148025 -0.037321 0.455571
v 0.148025 -0.037321 0.455571
v 0.281559 -0.037321 0.387531
v 0.281559 -0.037321 0.387531
v 0.128207 -0.008814 0.394581
v 0.128207 -0.008814 0.394581
v 0.128207 -0.008814 0.394581
v 0.243865 -0.008814 0.335650
v 0.243865 -0.008814 0.335650
v 0.243865 -0.008814 0.335650
vn -0.9563 -0.2908 -0.0292
vn -0.9561 -0.2916 -0.0281
vn -0.8300 0.2484 0.4994
vn -0.9613 -0.2731 -0.0367
vn -0.8294 0.2485 0.5003
vn -0.8195 0.2561 0.5127
vn 0.2480 0.5580 0.7919
vn 0.2570 0.5594 0.7880
vn 0.2578 0.5606 0.7869
vn 0.6795 -0.2036 -0.7049
vn 0.1564 -0.0000 0.9877
vn 0.1323 -0.5338 0.8352
vn 0.2795 -0.4267 0.8601
vn 0.3089 -0.0000 0.9511
vn 0.5316 -0.4267 0.7317
vn 0.6170 -0.0000 0.7869
vn 0.4540 -0.0000 0.8910
vn 0.7071 -0.0000 0.7071
vn 0.6503 -0.3926 0.6503
vn 0.6828 -0.1654 -0.7116
vn 0.2199 -0.9504 0.2199
vn 0.1884 -0.9472 0.2593
vn 0.0991 -0.9472 0.3049
vn 0.0336 -0.9766 0.2122
vn -0.0000 -1.0000 -0.0000
vn -0.1728 0.9558 -0.2379
vn -0.2016 0.9585 -0.2016
vn -0.0000 1.0000 -0.0000
vn -0.0490 0.9496 -0.3095
vn -0.0909 0.9558 -0.2797
vn -0.0883 0.8255 -0.5574
vn -0.2562 0.8255 -0.5028
vn -0.3991 0.8255 -0.3991
vn 0.0957 -0.7911 0.6041
vn 0.1875 -0.7948 0.5772
vn 0.3567 -0.7948 0.4910
vn 0.4325 -0.7911 0.4325
vn -0.0819 0.8519 -0.5172
vn -0.2377 0.8519 -0.4666
vn -0.3703 0.8519 -0.3703
vn 0.0887 -0.8237 0.5601
vn 0.2575 -0.8237 0.5053
vn 0.4010 -0.8236 0.4010
vn -0.1023 0.7565 -0.6460
vn -0.2969 0.7565 -0.5827
vn -0.4625 0.7565 -0.4624
vt 0.778878 0.000000
vt 1.000000 0.220725
vt 1.000000 0.328967
vt 0.670441 0.000000
vt 0.896580 0.330118
vt 0.328967 0.328967
vt 0.220725 0.220725
vt 1.000000 0.222305
vt 1.000000 0.398465
vt 0.398465 0.398465
vt 0.222305 0.222305
vt 0.222388 0.168318
vt 0.307894 0.000000
vt 0.618296 0.000000
vt 0.595411 0.045338
vt 0.461645 0.260757
vt 0.000000 0.000000
vt 0.235122 0.000000
vt 1.000000 0.221122
vt 1.000000 0.329559
vt 0.056919 0.056919
vt 1.000000 0.381704
vt 1.000000 0.692106
vt 0.888179 0.552489
vt 0.487690 0.041614
vt 0.475399 0.000000
vt 0.693897 0.000000
vt 1.000000 0.659343
vt 0.693897 0.693897
vt 0.475399 0.475399
vt 1.000000 0.481943
vt 0.659343 0.659343
vt 0.481943 0.481943
vt 1.000000 0.524292
vt 1.000000 0.702121
vt 1.000000 0.563820
vt 1.000000 0.697012
vt 0.861434 0.684835
vt 0.702121 0.702121
vt 0.524292 0.524292
vt 0.620577 0.477431
vt 0.640271 0.320570
vt 0.778988 0.176494
vt 0.734052 0.326890
vt 0.697012 0.697012
vt 0.563820 0.563820
vt 0.445195 0.275943
vt 0.334433 0.055137
vt 0.307850 0.000000
vt 0.423259 0.000000
vt 0.460558 0.080667
vt 0.594259 0.337921
vt 0.778756 0.721582
vt 0.221289 0.608914
vt 0.212294 0.611472
vt 0.209085 0.612349
vt 0.209085 0.571002
vt 0.212599 0.571002
vt 0.217737 0.592748
vt 0.212599 0.571002
vt 0.209085 0.501845
vt 0.230367 0.501845
vt 0.221985 0.534672
vt 0.420913 0.887158
vt 0.405726 0.903249
vt 0.384444 0.903249
vt 0.384444 0.875545
vt 0.420913 0.870183
vt 0.778725 0.141844
vt 0.235123 0.235123
vt 0.056683 0.000000
vt 0.670768 0.160641
vt 0.576741 0.000000
vt 0.692150 0.000000
vt 0.361583 0.355925
vt 0.341706 0.423243
vt 0.282036 0.453646
vt 0.225796 0.280557
vt 0.223098 0.272253
vt 0.227494 0.285784
vt 0.228047 0.287487
vt 0.228547 0.267492
vt 0.779002 0.606322
vt 0.796106 0.623426
vt 0.683822 0.721750
vt 0.683206 0.573774
vt 0.682382 0.573644
vt 0.679179 0.573137
vt 0.729519 0.581109
vt 0.742110 0.542357
vt 0.698028 0.535375
vt 0.700742 0.532107
vt 0.709762 0.521265
vt 0.711639 0.519097
vt 0.721599 0.521720
vt 0.746607 0.528518
vt 0.816197 0.555128
vt 0.802952 0.573358
vt 0.763403 0.534925
vt 0.829375 0.599781
vt 0.816197 0.555128
vt 0.836577 0.565315
vt 0.853553 0.582291
vt 0.239178 0.478630
vt 0.287658 0.470951
vt 0.292552 0.486013
vt 0.251205 0.492562
vt 0.361710 0.450776
vt 0.352401 0.437963
vt 0.389414 0.423072
vt 0.376372 0.413992
vt 0.679179 0.573137
vt 0.676528 0.560419
vt 0.684646 0.550354
vt 0.736827 0.558619
vt 0.792902 0.587191
vt 0.796106 0.623426
vt 0.815068 0.609357
vt 0.809700 0.613355
vt 0.225796 0.462553
vt 0.239178 0.478630
vt 0.235879 0.474671
vt 0.361583 0.403366
vt 0.372910 0.411493
vt 0.829375 0.599781
s 0
usemtl lambert2SG
f 52/1/1 53/2/1 55/3/1 54/4/1
f 56/5/2 55/6/2 53/7/2 58/8/2 57/9/2
f 57/10/3 58/11/3 61/12/3 62/13/3 63/14/3 64/15/3 59/16/3
f 1/17/4 66/18/4 52/19/4 54/20/4 67/21/4
f 63/22/5 62/23/5 73/24/5 75/25/5 76/26/5 72/27/5
f 77/28/6 72/29/6 76/30/6 78/31/6
f 77/32/7 78/33/7 80/34/7 79/35/7
f 82/36/8 85/37/8 83/38/8 79/39/8 80/40/8 81/41/8
f 86/42/9 87/43/9 89/44/9 85/45/9 82/46/9
f 93/47/10 94/48/10 69/49/10 71/50/10 96/51/10 98/52/10 91/53/10
s 1
f 36/54/11 32/55/11 31/56/12 2/57/13 40/58/14 37/59/11
f 40/60/14 2/57/13 3/61/15 45/62/16 41/63/17
f 88/64/18 45/65/16 3/66/15 50/67/19 92/68/18
s 0
f 68/69/20 66/70/20 1/17/20 67/71/20 70/72/20 71/73/20 69/74/20
s 1
f 27/75/21 9/76/22 8/77/23 21/78/24 20/79/25 15/80/25 14/81/25 26/82/25
f 11/83/26 29/84/27 51/85/28 16/86/28 17/87/28 18/88/29 10/89/30
f 100/90/31 65/91/31 23/92/31 34/93/31 35/94/31 38/95/31 84/96/31
f 90/97/32 103/98/32 101/90/32 39/96/32 42/99/32
f 99/100/33 104/98/33 43/101/33 44/102/33 49/103/33
f 74/104/34 106/105/35 2/106/13 31/107/12
f 3/108/15 2/106/13 106/105/35 108/109/36
f 50/110/19 3/108/15 108/109/36 95/111/37
f 10/89/30 18/112/29 19/113/38 60/114/38 110/115/38
f 111/115/39 113/116/39 11/83/26 10/89/30
f 29/117/27 11/83/26 114/116/40 97/118/40 30/119/40
f 21/120/24 8/77/23 107/105/41 33/121/41 22/122/41
f 109/109/42 6/105/42 8/77/23 9/76/22
f 47/111/43 7/109/43 9/76/22 27/123/21 28/124/43
f 112/115/44 25/114/44 24/91/44 102/90/44
f 4/90/45 105/98/45 115/116/45 12/115/45
f 46/118/46 13/116/46 5/98/46 48/125/46
o Plate2_cell.001
v 0.158118 0.062842 0.486637
v 0.300758 0.062842 0.413958
v 0.079656 0.016449 0.499064
v 0.148839 0.042569 0.458081
v 0.076268 0.048121 0.477798
v 0.228835 0.016261 0.450605
v 0.284380 0.053178 0.406437
v 0.158118 -0.002141 0.486637
v 0.329861 0.062842 0.384856
v 0.300758 0.035093 0.413958
v 0.292934 0.053854 0.403188
v 0.079661 0.062842 0.499063
v 0.148839 0.042569 0.458081
v 0.148839 0.042569 0.458081
v 0.076268 0.048121 0.477798
v 0.284380 0.053178 0.406437
v 0.228835 0.016261 0.450605
v 0.158118 -0.002141 0.486637
v 0.079656 0.016449 0.499064
v 0.329861 0.062842 0.384856
v 0.329861 0.062842 0.384856
v 0.292934 0.053854 0.403188
v 0.292934 0.053854 0.403188
v 0.300758 0.035093 0.413958
v 0.079661 0.062842 0.499063
v 0.079661 0.062842 0.499063
v 0.158118 0.062842 0.486637
v 0.158118 0.062842 0.486637
v 0.300758 0.062842 0.413958
v 0.300758 0.062842 0.413958
vn -0.2571 -0.5575 -0.7893
vn -0.2554 -0.5593 -0.7887
vn -0.9875 0.0001 0.1575
vn 0.1564 -0.0000 0.9877
vn 0.3091 -0.0000 0.9510
vn 0.3090 -0.0000 0.9511
vn 0.5492 -0.0000 0.8357
vn 0.5878 -0.0000 0.8090
vn 0.4540 -0.0000 0.8910
vn 0.7071 -0.0000 0.7071
vn -0.0883 0.8255 -0.5574
vn -0.2562 0.8255 -0.5028
vn -0.3991 0.8255 -0.3991
vt 0.629167 0.236743
vt 0.686287 0.686287
vt 0.490602 0.490602
vt 0.392742 0.251530
vt 0.490498 0.000000
vt 0.658000 0.000000
vt 0.925123 0.752087
vt 0.894515 0.610960
vt 1.000000 0.490602
vt 1.000000 0.686287
vt 0.981759 0.693419
vt 0.754950 0.264345
vt 1.000000 0.342000
vt 1.000000 0.509502
vt 0.223061 0.609043
vt 0.214048 0.571002
vt 0.245554 0.571002
vt 0.245554 0.609041
vt 0.232100 0.501845
vt 0.245554 0.501845
vt 0.222970 0.536716
vt 0.420913 0.889139
vt 0.420913 0.903249
vt 0.407459 0.903249
vt 0.751329 0.513987
vt 0.746830 0.527832
vt 0.711645 0.518271
vt 0.713290 0.507962
vt 0.820486 0.549224
vt 0.816692 0.554446
vt 0.812545 0.552871
vt 0.834596 0.563334
vt 0.816692 0.554446
s 0
usemtl lambert2SG
f 128/126/47 131/127/47 132/128/47 133/129/47 134/130/47 130/131/47
f 135/132/48 139/133/48 132/134/48 131/135/48 137/136/48
f 140/137/49 130/138/49 134/139/49
s 1
f 118/140/50 123/141/51 142/142/52 141/143/50
f 125/144/53 144/145/54 142/142/52 123/141/51 121/146/55
f 136/147/56 144/148/54 125/149/53
f 143/150/57 129/151/57 120/152/57 127/153/57
f 116/150/58 145/154/58 138/155/58 122/156/58 119/151/58
f 117/154/59 124/157/59 126/158/59
o Plate2_cell.002
v 0.021179 -0.051392 0.043839
v -0.158117 -0.012377 0.486637
v -0.158117 0.062842 0.486637
v -0.139105 0.021300 0.428122
v -0.148023 -0.037321 0.455571
v -0.259499 -0.062842 0.357170
v -0.136425 -0.062842 0.419879
v -0.215196 -0.038426 0.296191
v -0.113135 -0.038426 0.348194
v 0.000000 -0.038426 0.366112
v -0.128207 -0.008814 0.394581
v -0.275585 0.062842 0.426784
v -0.284302 -0.037321 0.384787
v -0.289980 -0.026379 0.399124
v -0.296377 -0.012377 0.416190
v -0.235847 -0.017094 0.324616
v -0.228097 -0.028014 0.307245
v -0.277460 -0.048538 0.368589
v -0.241195 -0.008814 0.337010
v -0.252618 0.021300 0.370284
v -0.268634 -0.062842 0.348035
v -0.117268 -0.062842 0.126368
v -0.096872 -0.038426 0.109519
v -0.220630 -0.038426 0.290757
v -0.004405 -0.062842 0.038253
v -0.016575 -0.038426 0.036895
v 0.010608 -0.062842 0.040959
v 0.005819 -0.038426 0.040932
v -0.100951 -0.062842 0.102716
v -0.072556 -0.038426 0.074273
v 0.017132 -0.038426 0.047840
v 0.021024 -0.062842 0.043310
v -0.031956 -0.062842 0.033571
v -0.032550 -0.038426 0.034180
v -0.080588 -0.012377 0.498916
v -0.143157 0.062842 0.489006
v -0.039963 -0.037321 0.472686
v 0.005080 -0.062842 0.440682
v 0.012977 -0.062842 0.428955
v 0.000000 -0.060467 0.444980
v 0.000000 -0.022256 0.392745
v -0.024655 -0.008814 0.410982
v -0.071163 0.021300 0.438883
v 0.014166 -0.062842 0.392548
v 0.008014 -0.038426 0.351255
v 0.007568 -0.038426 0.364913
v 0.024540 -0.062842 0.050276
v 0.023871 -0.062842 0.081768
v 0.016374 -0.038426 0.083555
v -0.289980 -0.026379 0.399124
v -0.296377 -0.012377 0.416190
v -0.275585 0.062842 0.426784
v -0.275585 0.062842 0.426784
v -0.252618 0.021300 0.370284
v -0.252618 0.021300 0.370284
v -0.241195 -0.008814 0.337010
v -0.241195 -0.008814 0.337010
v -0.235847 -0.017094 0.324616
v -0.235847 -0.017094 0.324616
v -0.228097 -0.028014 0.307245
v -0.284302 -0.037321 0.384787
v -0.284302 -0.037321 0.384787
v -0.284302 -0.037321 0.384787
v -0.277460 -0.048538 0.368589
v -0.268634 -0.062842 0.348035
v -0.117268 -0.062842 0.126368
v -0.220630 -0.038426 0.290757
v -0.096872 -0.038426 0.109519
v -0.148023 -0.037321 0.455571
v -0.148023 -0.037321 0.455571
v -0.004405 -0.062842 0.038253
v 0.010608 -0.062842 0.040959
v 0.005819 -0.038426 0.040932
v -0.016575 -0.038426 0.036895
v -0.072556 -0.038426 0.074273
v -0.100951 -0.062842 0.102716
v 0.017132 -0.038426 0.047840
v 0.021024 -0.062842 0.043310
v -0.032550 -0.038426 0.034180
v -0.031956 -0.062842 0.033571
v 0.000000 -0.022256 0.392745
v 0.000000 -0.022256 0.392745
v 0.007568 -0.038426 0.364913
v 0.005080 -0.062842 0.440682
v 0.000000 -0.060467 0.444980
v 0.012977 -0.062842 0.428955
v -0.024655 -0.008814 0.410982
v -0.024655 -0.008814 0.410982
v -0.071163 0.021300 0.438883
v -0.071163 0.021300 0.438883
v -0.143157 0.062842 0.489006
v -0.143157 0.062842 0.489006
v -0.080588 -0.012377 0.498916
v -0.039963 -0.037321 0.472686
v -0.039963 -0.037321 0.472686
v 0.014166 -0.062842 0.392548
v 0.008014 -0.038426 0.351255
v 0.016374 -0.038426 0.083555
v 0.024540 -0.062842 0.050276
v 0.023871 -0.062842 0.081768
v -0.158117 0.062842 0.486637
v -0.158117 0.062842 0.486637
v -0.139105 0.021300 0.428122
v -0.139105 0.021300 0.428122
v -0.139105 0.021300 0.428122
v -0.128207 -0.008814 0.394581
v -0.128207 -0.008814 0.394581
v -0.128207 -0.008814 0.394581
vn -0.7903 0.2942 -0.5375
vn -0.7908 0.2880 -0.5400
vn 0.1773 0.0337 -0.9836
vn -0.7893 0.2836 -0.5445
vn 0.3041 0.1493 -0.9409
vn -0.7079 0.0004 -0.7063
vn 0.1675 0.0287 -0.9855
vn 0.6593 0.6069 0.4439
vn 0.9447 0.3250 0.0441
vn 0.9562 0.2921 0.0203
vn 0.9561 0.2914 0.0299
vn 0.8927 0.0087 -0.4506
vn -0.2792 -0.4286 0.8593
vn -0.3090 -0.0000 0.9511
vn -0.4540 -0.0000 0.8910
vn -0.3930 -0.5027 0.7700
vn -0.1223 -0.6238 0.7720
vn -0.1564 -0.0000 0.9877
vn -0.0003 -1.0000 0.0023
vn -0.0267 -0.9853 0.1690
vn -0.1003 -0.9471 0.3048
vn -0.1880 -0.9462 0.2633
vn -0.1747 -0.9688 0.1759
vn 0.0909 0.9558 -0.2797
vn -0.0000 0.9558 -0.2941
vn -0.0345 0.9753 -0.2181
vn -0.0000 1.0000 -0.0000
vn 0.1606 0.9739 -0.1606
vn 0.1728 0.9558 -0.2379
vn 0.2562 0.8255 -0.5028
vn 0.0883 0.8255 -0.5574
vn -0.2754 -0.7965 0.5383
vn -0.1866 -0.7975 0.5738
vn -0.0957 -0.7911 0.6041
vn 0.3703 0.8519 -0.3703
vn 0.2377 0.8519 -0.4666
vn 0.0819 0.8519 -0.5172
vn -0.0819 0.8519 -0.5172
vn -0.4010 -0.8237 0.4010
vn -0.2624 -0.8193 0.5097
vn -0.0887 -0.8237 0.5601
vn 0.2969 0.7565 -0.5827
vn 0.1023 0.7565 -0.6460
vt 0.769421 0.490125
vt 0.420761 0.161633
vt 0.688337 0.320846
vt 0.870925 0.439628
vt 0.925936 0.470868
vt 1.000000 0.511611
vt 1.000000 0.629409
vt 0.926352 0.586830
vt 0.856681 0.544655
vt 0.711922 0.553449
vt 0.629409 0.629409
vt 0.511611 0.511611
vt 0.571688 0.452506
vt 0.572895 0.000000
vt 0.713398 0.000000
vt 0.286031 0.286031
vt 0.460820 0.000000
vt 0.687365 0.000000
vt 0.426647 0.426647
vt 1.000000 0.427105
vt 0.312232 0.000000
vt 0.538485 0.000000
vt 1.000000 0.286601
vt 0.115233 0.115233
vt 0.000000 0.000000
vt 0.187349 0.000000
vt 1.000000 0.286031
vt 1.000000 0.426647
vt 0.312232 0.312232
vt 0.311573 0.000000
vt 0.537348 0.000000
vt 0.538485 0.538485
vt 0.311573 0.311573
vt 0.312634 0.000000
vt 0.539180 0.000000
vt 0.537348 0.537348
vt 0.219954 0.039035
vt 0.219886 0.000000
vt 0.399828 0.008785
vt 0.459602 0.112317
vt 0.593433 0.301135
vt 0.778120 0.600335
vt 0.444294 0.393660
vt 0.333421 0.226874
vt 0.230521 0.060906
vt 0.395866 0.395866
vt 0.219886 0.219886
vt 0.219719 0.000000
vt 0.327881 0.000000
vt 0.327943 0.082494
vt 0.812344 0.000000
vt 1.000000 0.000000
vt 1.000000 0.078731
vt 0.327780 0.327780
vt 0.219603 0.219603
vt 1.000000 0.219603
vt 1.000000 0.327780
vt 0.327881 0.327881
vt 0.219719 0.219719
vt 0.187349 0.187349
vt 0.187656 0.000000
vt 0.209085 0.724325
vt 0.245554 0.724325
vt 0.245554 0.781278
vt 0.209085 0.791359
vt 0.209085 0.686736
vt 0.245554 0.717072
vt 0.226084 0.264102
vt 0.227789 0.266449
vt 0.227465 0.285693
vt 0.222759 0.271211
vt 0.222183 0.269437
vt 0.218354 0.257653
vt 0.215891 0.250073
vt 0.149746 0.453646
vt 0.090076 0.423243
vt 0.085647 0.418814
vt 0.159035 0.328329
vt 0.166946 0.317440
vt 0.200397 0.271398
vt 0.213755 0.463784
vt 0.221034 0.265903
vt 0.619815 0.581109
vt 0.674667 0.749927
vt 0.678336 0.573003
vt 0.678552 0.573037
vt 0.682606 0.573679
vt 0.682986 0.724323
vt 0.677489 0.572869
vt 0.666631 0.738866
vt 0.658886 0.738461
vt 0.639489 0.724369
vt 0.627700 0.715803
vt 0.567698 0.672209
vt 0.570333 0.606322
vt 0.598006 0.513987
vt 0.607224 0.542357
vt 0.552188 0.570399
vt 0.541054 0.543005
vt 0.640164 0.537140
vt 0.605259 0.512838
vt 0.079381 0.437963
vt 0.144124 0.470951
vt 0.139230 0.486013
vt 0.072196 0.451858
vt 0.075297 0.443584
vt 0.196515 0.479249
vt 0.176819 0.491967
vt 0.567698 0.608957
vt 0.564078 0.600963
vt 0.560320 0.592541
vt 0.612508 0.558619
vt 0.557727 0.586532
vt 0.674667 0.559509
vt 0.674667 0.572422
vt 0.662714 0.550667
vt 0.675648 0.560376
vt 0.678336 0.573003
vt 0.085647 0.418814
vt 0.078051 0.436633
vt 0.081368 0.428779
vt 0.215891 0.465815
vt 0.196515 0.479249
vt 0.557727 0.586532
vt 0.662714 0.550667
s 0
usemtl lambert2SG
f 196/159/60 197/160/60 199/161/60 201/162/60 203/163/60 205/164/60 209/165/60 206/166/60 195/167/60
f 210/168/61 209/169/61 205/170/61 212/171/61 213/172/61 211/173/61
f 217/174/62 216/175/62 219/176/62 218/177/62
f 213/178/63 220/179/63 221/180/63 211/181/63
f 222/182/64 146/183/64 223/184/64 217/185/64 218/186/64
f 220/187/65 224/188/65 225/189/65 221/190/65
f 224/191/66 219/192/66 216/193/66 225/194/66
f 229/195/67 231/196/67 226/197/67 232/198/67 234/199/67 236/200/67 238/201/67 239/202/67 185/203/67
f 226/204/68 231/205/68 241/206/68 242/207/68 228/208/68
f 244/209/69 146/210/69 222/211/69 243/212/69 245/213/69
f 245/214/70 243/215/70 242/216/70 241/217/70
f 223/218/71 146/183/71 244/219/71
s 1
f 147/220/72 246/221/73 198/222/74 160/223/75
f 246/221/73 147/220/72 180/224/76 237/225/77
f 177/226/78 192/227/78 193/228/78 189/229/78 184/230/78 183/231/78 230/232/79 152/233/80 151/234/81 166/235/82 167/236/78 174/237/78 178/238/78 170/239/78 172/240/78
f 154/241/83 155/242/84 191/243/85 190/244/86 194/245/86 176/246/86 173/247/86 171/248/86 179/249/86 175/250/86 168/251/86 169/252/87 153/253/88
f 247/254/89 248/255/89 200/256/89 157/257/89
f 235/258/90 249/255/90 148/254/90 181/259/90
f 207/260/91 214/261/92 147/262/72 160/263/75 159/264/91
f 214/261/92 240/265/93 180/266/76 147/262/72
f 153/253/88 169/267/87 162/268/94 204/269/94
f 251/270/95 154/241/83 153/253/88 161/269/95 202/271/95
f 227/272/96 155/273/84 154/241/83 252/270/96 233/274/96
f 186/275/97 191/276/85 155/273/84
f 166/277/82 151/234/81 208/278/98 163/279/98
f 215/261/99 158/260/99 151/234/81 152/233/80
f 152/233/80 230/280/79 182/281/100 150/261/100
f 250/255/101 253/270/101 164/282/101 165/256/101
f 187/283/102 156/270/102 149/255/102 188/258/102
o Plate2_cell.003
v 0.000000 -0.012377 0.511680
v 0.000000 0.062842 0.511680
v 0.000000 0.021300 0.450154
v 0.000000 -0.037321 0.479015
v 0.000000 -0.008814 0.414887
v 0.070785 -0.012377 0.500469
v 0.072803 -0.004984 0.500149
v 0.046013 -0.037321 0.471728
v 0.023300 -0.003608 0.417294
v 0.041926 -0.041099 0.466820
v 0.046141 0.021300 0.442846
v 0.070663 0.043850 0.472359
v 0.018297 -0.062842 0.438589
v 0.014161 -0.062842 0.431747
v 0.018502 -0.008814 0.411957
v -0.029864 -0.041799 0.467699
v 0.000000 -0.058938 0.447227
v -0.022212 -0.008814 0.411369
v 0.000000 -0.020814 0.395121
v -0.031075 -0.003127 0.416625
v 0.008445 -0.062842 0.440149
v -0.078204 -0.012377 0.499294
v -0.140754 0.062842 0.489387
v -0.068788 0.021300 0.439259
v -0.037594 -0.037321 0.473061
v 0.078099 0.014652 0.499311
v 0.078210 0.062842 0.499293
v 0.074590 0.047500 0.477144
v 0.046141 0.021300 0.442846
v 0.046141 0.021300 0.442846
v 0.070663 0.043850 0.472359
v 0.070785 -0.012377 0.500469
v 0.072803 -0.004984 0.500149
v 0.046013 -0.037321 0.471728
v 0.046013 -0.037321 0.471728
v 0.041926 -0.041099 0.466820
v 0.023300 -0.003608 0.417294
v 0.018502 -0.008814 0.411957
v 0.018502 -0.008814 0.411957
v 0.018297 -0.062842 0.438589
v 0.014161 -0.062842 0.431747
v 0.008445 -0.062842 0.440149
v 0.000000 -0.058938 0.447227
v 0.000000 -0.058938 0.447227
v -0.029864 -0.041799 0.467699
v -0.022212 -0.008814 0.411369
v -0.022212 -0.008814 0.411369
v -0.031075 -0.003127 0.416625
v 0.000000 -0.020814 0.395121
v 0.000000 -0.020814 0.395121
v -0.068788 0.021300 0.439259
v -0.068788 0.021300 0.439259
v -0.037594 -0.037321 0.473061
v -0.037594 -0.037321 0.473061
v -0.078204 -0.012377 0.499294
v -0.140754 0.062842 0.489387
v -0.140754 0.062842 0.489387
v 0.078210 0.062842 0.499293
v 0.078210 0.062842 0.499293
v 0.074590 0.047500 0.477144
v 0.078099 0.014652 0.499311
v 0.000000 0.062842 0.511680
v 0.000000 0.062842 0.511680
v 0.000000 0.021300 0.450154
v 0.000000 0.021300 0.450154
v 0.000000 0.021300 0.450154
v 0.000000 -0.037321 0.479015
v 0.000000 -0.037321 0.479015
v 0.000000 -0.008814 0.414887
v 0.000000 -0.008814 0.414887
v 0.000000 -0.008814 0.414887
vn 0.8298 -0.2481 -0.4999
vn 0.8032 -0.2607 -0.5356
vn -0.6555 -0.6095 -0.4459
vn -0.6594 -0.6068 -0.4438
vn 0.9872 -0.0023 -0.1597
vn 0.8328 -0.2458 -0.4960
vn -0.1521 -0.2338 0.9603
vn -0.0000 -0.4267 0.9044
vn -0.0000 -0.0000 1.0000
vn -0.1564 -0.0000 0.9877
vn 0.1564 -0.0000 0.9877
vn 0.1477 -0.3302 0.9323
vn 0.0585 -0.9275 0.3692
vn 0.0693 -0.8967 0.4373
vn -0.0000 -1.0000 -0.0000
vn 0.0883 0.8255 -0.5574
vn -0.0883 0.8255 -0.5574
vn -0.0957 -0.7911 0.6041
vn -0.0000 -0.7948 0.6069
vn 0.0957 -0.7911 0.6041
vn 0.0819 0.8519 -0.5172
vn -0.0819 0.8519 -0.5172
vn -0.0887 -0.8236 0.5601
vn 0.0887 -0.8236 0.5601
vn 0.1023 0.7565 -0.6460
vn -0.1023 0.7565 -0.6460
vt 0.304416 0.000000
vt 0.521321 0.000000
vt 0.577118 0.022882
vt 0.941532 0.275623
vt 1.000000 0.317167
vt 1.000000 0.483112
vt 0.654707 0.249265
vt 1.000000 0.402361
vt 0.609236 0.460283
vt 0.483112 0.483112
vt 0.317167 0.317167
vt 0.916447 0.221930
vt 1.000000 0.222051
vt 0.402361 0.402361
vt 0.222051 0.222051
vt 0.324597 0.221884
vt 0.473896 0.238923
vt 1.000000 0.313944
vt 1.000000 0.485146
vt 0.844196 0.460225
vt 0.485146 0.485146
vt 0.313944 0.313944
vt 0.333880 0.296036
vt 0.444884 0.208436
vt 0.778752 0.242148
vt 0.593822 0.409585
vt 0.737569 0.252920
vt 0.484235 0.000000
vt 0.657582 0.000000
vt 1.000000 0.695584
vt 0.657582 0.657582
vt 0.484235 0.484235
vt 1.000000 0.478679
vt 0.209085 0.685580
vt 0.209085 0.647664
vt 0.245554 0.647664
vt 0.245554 0.715907
vt 0.245554 0.609745
vt 0.209085 0.613344
vt 0.212669 0.612366
vt 0.222190 0.609798
vt 0.224762 0.277376
vt 0.219985 0.262674
vt 0.222757 0.271204
vt 0.674667 0.501845
vt 0.674667 0.531675
vt 0.641316 0.536957
vt 0.606424 0.512654
vt 0.712586 0.507851
vt 0.710831 0.518588
vt 0.708927 0.520907
vt 0.697038 0.535218
vt 0.197664 0.479431
vt 0.215891 0.482318
vt 0.215891 0.498155
vt 0.177975 0.492150
vt 0.250210 0.492719
vt 0.238199 0.478785
vt 0.674667 0.548774
vt 0.674667 0.558357
vt 0.663898 0.550480
vt 0.683638 0.550195
vt 0.197664 0.479431
vt 0.201411 0.476835
vt 0.215891 0.466905
vt 0.236218 0.476404
vt 0.238199 0.478785
vt 0.219985 0.463474
vt 0.224762 0.462717
vt 0.663898 0.550480
vt 0.659601 0.547932
vt 0.683638 0.550195
vt 0.685964 0.547607
s 0
usemtl lambert2SG
f 284/284/103 286/285/103 285/286/103 287/287/103 289/288/103 290/289/103 282/290/103
f 302/291/104 291/292/104 290/293/104 289/294/104 293/295/104 294/296/104
f 302/297/105 294/298/105 295/299/105 296/300/105 298/301/105 301/302/105 299/303/105
f 301/304/106 298/305/106 306/306/106 308/307/106 309/308/106 304/309/106
f 311/310/107 314/311/107 313/312/107
f 284/313/108 313/314/108 314/315/108 286/316/108
s 1
f 275/317/109 254/318/110 315/319/111 310/320/112
f 312/321/113 315/319/111 254/318/110 259/322/114 260/323/113 279/324/113
f 266/325/115 274/326/116 267/327/117
f 316/328/118 317/329/118 305/330/118 276/331/118
f 280/332/119 281/333/119 265/334/119 283/335/119 318/329/119 255/328/119
f 307/336/120 320/337/121 254/338/110 275/339/109
f 259/340/114 254/338/110 320/337/121 288/341/122
f 322/342/123 303/343/123 300/344/123
f 272/343/124 323/342/124 292/345/124
f 321/337/125 278/346/125 269/347/125 297/348/125
f 263/349/126 261/350/126 257/337/126 270/348/126 274/351/116 266/352/115
f 319/329/127 324/342/127 271/353/127 273/354/127 277/330/127
f 268/355/128 258/342/128 256/329/128 264/335/128 262/356/128
o Plate2_cell.004
v -0.300759 -0.012377 -0.413958
v -0.413958 -0.012377 -0.300758
v -0.486637 -0.012377 -0.158118
v -0.300759 0.062842 -0.413958
v -0.413958 0.062842 -0.300758
v -0.486637 0.062842 -0.158118
v -0.264594 0.021300 -0.364182
v -0.364182 0.021300 -0.264594
v -0.428122 0.021300 -0.139105
v -0.281558 -0.037321 -0.387532
v -0.387532 -0.037321 -0.281558
v -0.213588 0.033582 -0.410336
v -0.222913 0.062842 -0.453622
v -0.221613 -0.018753 -0.445028
v -0.212295 0.028683 -0.402950
v -0.223084 -0.012377 -0.453535
v -0.500001 0.062842 -0.073737
v -0.450729 0.029386 -0.071979
v -0.488590 -0.020574 -0.078015
v -0.499273 -0.012377 -0.078338
v -0.288006 -0.039427 -0.376758
v -0.235801 0.021300 -0.378853
v -0.258902 0.013031 -0.356347
v -0.317150 0.004916 -0.284824
v -0.276720 -0.037321 -0.389997
v -0.418491 0.012653 -0.135976
v -0.456568 -0.037321 -0.141732
v -0.433493 0.021300 -0.105192
v -0.373091 -0.049460 -0.271066
v -0.345073 0.001133 -0.250711
v -0.453634 -0.038706 -0.147395
v -0.213588 0.033582 -0.410336
v -0.222913 0.062842 -0.453622
v -0.222913 0.062842 -0.453622
v -0.221613 -0.018753 -0.445028
v -0.223084 -0.012377 -0.453535
v -0.212295 0.028683 -0.402950
v -0.500001 0.062842 -0.073737
v -0.500001 0.062842 -0.073737
v -0.450729 0.029386 -0.071979
v -0.499273 -0.012377 -0.078338
v -0.488590 -0.020574 -0.078015
v -0.258902 0.013031 -0.356347
v -0.258902 0.013031 -0.356347
v -0.317150 0.004916 -0.284824
v -0.276720 -0.037321 -0.389997
v -0.235801 0.021300 -0.378853
v -0.235801 0.021300 -0.378853
v -0.418491 0.012653 -0.135976
v -0.418491 0.012653 -0.135976
v -0.345073 0.001133 -0.250711
v -0.345073 0.001133 -0.250711
v -0.433493 0.021300 -0.105192
v -0.433493 0.021300 -0.105192
v -0.456568 -0.037321 -0.141732
v -0.453634 -0.038706 -0.147395
v -0.453634 -0.038706 -0.147395
v -0.373091 -0.049460 -0.271066
v -0.373091 -0.049460 -0.271066
v -0.288006 -0.039427 -0.376758
v -0.300759 0.062842 -0.413958
v -0.300759 0.062842 -0.413958
v -0.413958 0.062842 -0.300758
v -0.413958 0.062842 -0.300758
v -0.486637 0.062842 -0.158118
v -0.486637 0.062842 -0.158118
v -0.264594 0.021300 -0.364182
v -0.264594 0.021300 -0.364182
v -0.264594 0.021300 -0.364182
v -0.364182 0.021300 -0.264594
v -0.364182 0.021300 -0.264594
v -0.364182 0.021300 -0.264594
v -0.428122 0.021300 -0.139105
v -0.428122 0.021300 -0.139105
v -0.428122 0.021300 -0.139105
v -0.281558 -0.037321 -0.387532
v -0.281558 -0.037321 -0.387532
v -0.387532 -0.037321 -0.281558
v -0.387532 -0.037321 -0.281558
vn 0.9772 -0.0025 -0.2122
vn 0.9817 -0.0254 -0.1888
vn -0.0773 -0.0616 0.9951
vn 0.6711 -0.5628 0.4826
vn 0.6682 -0.5649 0.4843
vn -0.5316 -0.4267 -0.7317
vn -0.5878 -0.0000 -0.8090
vn -0.4540 -0.0000 -0.8910
vn -0.4154 -0.4035 -0.8153
vn -0.7316 -0.4270 -0.5315
vn -0.8090 -0.0000 -0.5878
vn -0.8599 -0.4270 -0.2796
vn -0.9511 -0.0000 -0.3090
vn -0.9877 -0.0000 -0.1564
vn -0.8973 -0.4176 -0.1428
vn 0.2562 0.8255 0.5028
vn 0.3991 0.8255 0.3990
vn 0.5028 0.8255 0.2562
vn 0.5574 0.8255 0.0883
vn -0.2777 -0.7911 -0.5450
vn -0.3567 -0.7948 -0.4910
vn -0.4908 -0.7953 -0.3559
vn -0.5727 -0.7953 -0.1987
vn -0.6037 -0.7913 -0.0969
vn -0.4010 -0.8236 -0.4010
vn -0.5053 -0.8236 -0.2575
vn 0.2969 0.7565 0.5827
vn 0.4624 0.7565 0.4624
vn 0.5827 0.7565 0.2969
vn 0.6460 0.7565 0.1023
vt 0.537282 0.315946
vt 0.351248 0.000000
vt 0.536148 0.000000
vt 0.536148 0.536148
vt 0.351248 0.351248
vt 0.373948 0.000000
vt 0.584382 0.000000
vt 0.779447 0.429887
vt 0.445220 0.097320
vt 0.408824 0.000000
vt 0.630904 0.000000
vt 0.478084 0.000000
vt 0.675288 0.000000
vt 0.713349 0.041990
vt 0.731927 0.065841
vt 1.000000 0.415618
vt 1.000000 0.626052
vt 0.885102 0.478689
vt 0.773222 0.330403
vt 0.443539 0.141167
vt 0.405073 0.073427
vt 0.369096 0.000000
vt 0.591176 0.000000
vt 0.665684 0.140526
vt 0.671846 0.153043
vt 0.719775 0.431782
vt 0.675288 0.675288
vt 0.478084 0.478084
vt 0.494868 0.399340
vt 0.287696 0.793483
vt 0.251227 0.793483
vt 0.251227 0.755741
vt 0.287696 0.755823
vt 0.317835 0.903249
vt 0.317835 0.848366
vt 0.354304 0.848366
vt 0.354304 0.903249
vt 0.317835 0.779209
vt 0.354304 0.779209
vt 0.354304 0.738298
vt 0.317835 0.740528
vt 0.571739 0.945291
vt 0.571112 0.948872
vt 0.566590 0.969859
vt 0.528848 0.950629
vt 0.546382 0.926495
vt 0.560342 0.933608
vt 0.473965 0.895745
vt 0.498098 0.878211
vt 0.438728 0.826588
vt 0.467098 0.817370
vt 0.464494 0.800928
vt 0.432248 0.785677
vt 0.456137 0.784825
vt 0.070072 0.049371
vt 0.107732 0.030183
vt 0.108445 0.034307
vt 0.081727 0.060989
vt 0.079381 0.062184
vt 0.015189 0.104255
vt 0.028001 0.113564
vt 0.305742 0.839057
vt 0.305742 0.774315
vt 0.317835 0.740528
vt 0.305742 0.771264
vt 0.313861 0.740372
vt 0.079883 0.062876
vt 0.076255 0.067407
vt 0.035002 0.118651
vt 0.299856 0.833970
vt 0.549142 0.922696
vt 0.560342 0.933608
vt 0.507363 0.871481
vt 0.520901 0.888020
vt 0.507363 0.871480
vt 0.471767 0.815853
s 0
usemtl lambert2SG
f 357/357/129 356/358/129 360/359/129
f 360/360/130 356/361/130 361/362/130 359/363/130
f 362/364/131 365/365/131 366/366/131 364/367/131
f 369/368/132 384/369/132 401/370/132 370/371/132 359/372/132 361/373/132 371/374/132 367/375/132
f 373/376/133 377/377/133 364/378/133 366/379/133 379/380/133 380/381/133 382/382/133 384/383/133 369/384/133 375/385/133
s 1
f 325/386/134 385/387/135 358/388/136 340/389/137
f 325/390/134 326/391/138 387/392/139 385/393/135
f 326/391/138 327/394/140 389/395/141 387/392/139
f 363/396/142 389/395/141 327/394/140 344/397/143
f 339/398/144 336/399/144 337/400/144 386/401/144 391/402/144 372/403/144
f 328/401/145 388/404/145 394/405/145 392/402/145
f 329/404/146 390/406/146 397/407/146 395/405/146
f 378/408/147 398/407/147 330/406/147 341/409/147 342/410/147
f 325/411/134 340/412/137 338/413/148 349/414/148 400/415/149
f 326/416/138 325/411/134 400/415/149 402/417/150
f 327/394/140 326/391/138 402/418/150 381/419/151
f 344/420/143 327/394/140 381/419/151 351/421/152 343/422/152
f 403/417/153 334/423/153 345/424/153 383/425/153
f 355/419/154 335/418/154 353/426/154
f 393/402/155 368/427/155 346/428/155
f 347/427/156 331/402/156 396/405/156 376/429/156 348/430/156
f 354/431/157 332/405/157 399/407/157 374/432/157
f 333/407/158 352/408/158 350/432/158
o Plate2_cell.005
v -0.259499 -0.062842 -0.357171
v -0.357171 -0.062842 -0.259499
v -0.419878 -0.062842 -0.136427
v -0.215196 -0.038426 -0.296191
v -0.296191 -0.038426 -0.215195
v -0.348193 -0.038426 -0.113135
v -0.243864 -0.008814 -0.335650
v -0.335649 -0.008814 -0.243864
v -0.394581 -0.008814 -0.128207
v -0.430565 -0.062842 -0.068958
v -0.089832 -0.062842 -0.014985
v -0.091578 -0.038426 -0.015275
v -0.357033 -0.038426 -0.057324
v -0.487008 -0.021789 -0.077956
v -0.467170 -0.037321 -0.074790
v -0.449215 0.028367 -0.072016
v -0.404608 -0.008814 -0.064894
v -0.439006 0.021300 -0.070388
v -0.434171 0.021300 -0.100915
v -0.417229 0.011520 -0.135566
v -0.457353 -0.037321 -0.136773
v -0.452093 -0.039808 -0.146894
v -0.440952 -0.041304 -0.163973
v -0.368781 0.003869 -0.211158
v -0.371612 -0.050703 -0.269991
v -0.343910 -0.000095 -0.249866
v -0.279287 -0.039948 -0.384407
v -0.257807 0.011441 -0.354841
v -0.229866 0.021300 -0.381877
v -0.220579 -0.020634 -0.442825
v -0.270834 -0.037321 -0.392996
v -0.211345 0.027031 -0.400722
v -0.186687 -0.027127 -0.331348
v -0.196515 -0.008814 -0.359776
v -0.208544 0.021300 -0.392741
v -0.213248 -0.037321 -0.422337
v -0.204132 -0.056087 -0.396391
v -0.180676 -0.038426 -0.313780
v -0.200881 -0.062842 -0.387038
v -0.430565 -0.062842 -0.068958
v -0.089832 -0.062842 -0.014985
v -0.091578 -0.038426 -0.015275
v -0.357033 -0.038426 -0.057324
v -0.487008 -0.021789 -0.077956
v -0.467170 -0.037321 -0.074790
v -0.467170 -0.037321 -0.074790
v -0.404608 -0.008814 -0.064894
v -0.404608 -0.008814 -0.064894
v -0.439006 0.021300 -0.070388
v -0.439006 0.021300 -0.070388
v -0.449215 0.028367 -0.072016
v -0.457353 -0.037321 -0.136773
v -0.457353 -0.037321 -0.136773
v -0.452093 -0.039808 -0.146894
v -0.452093 -0.039808 -0.146894
v -0.434171 0.021300 -0.100915
v -0.434171 0.021300 -0.100915
v -0.417229 0.011520 -0.135566
v -0.417229 0.011520 -0.135566
v -0.368781 0.003869 -0.211158
v -0.440952 -0.041304 -0.163973
v -0.220579 -0.020634 -0.442825
v -0.270834 -0.037321 -0.392996
v -0.270834 -0.037321 -0.392996
v -0.279287 -0.039948 -0.384407
v -0.279287 -0.039948 -0.384407
v -0.371612 -0.050703 -0.269991
v -0.371612 -0.050703 -0.269991
v -0.343910 -0.000095 -0.249866
v -0.343910 -0.000095 -0.249866
v -0.257807 0.011441 -0.354841
v -0.257807 0.011441 -0.354841
v -0.229866 0.021300 -0.381877
v -0.229866 0.021300 -0.381877
v -0.211345 0.027031 -0.400722
v -0.213248 -0.037321 -0.422337
v -0.213248 -0.037321 -0.422337
v -0.208544 0.021300 -0.392741
v -0.208544 0.021300 -0.392741
v -0.196515 -0.008814 -0.359776
v -0.196515 -0.008814 -0.359776
v -0.186687 -0.027127 -0.331348
v -0.204132 -0.056087 -0.396391
v -0.200881 -0.062842 -0.387038
v -0.180676 -0.038426 -0.313780
v -0.243864 -0.008814 -0.335650
v -0.243864 -0.008814 -0.335650
v -0.243864 -0.008814 -0.335650
v -0.335649 -0.008814 -0.243864
v -0.335649 -0.008814 -0.243864
v -0.335649 -0.008814 -0.243864
v -0.394581 -0.008814 -0.128207
v -0.394581 -0.008814 -0.128207
v -0.394581 -0.008814 -0.128207
vn -0.6694 0.5619 -0.4859
vn -0.6695 0.5604 -0.4876
vn 0.9556 0.0680 -0.2866
vn 0.9562 0.0650 -0.2854
vn 0.2797 0.9558 0.0909
vn 0.2687 0.9623 0.0426
vn -0.0000 1.0000 -0.0000
vn 0.1356 0.9544 0.2661
vn 0.1728 0.9558 0.2379
vn 0.2379 0.9558 0.1728
vn -0.1565 0.0008 0.9877
vn -0.2593 -0.9472 -0.1884
vn -0.1884 -0.9472 -0.2593
vn -0.1476 -0.9456 -0.2898
vn -0.0000 -1.0000 -0.0000
vn -0.2932 -0.9549 -0.0464
vn -0.3049 -0.9472 -0.0991
vn 0.2562 0.8255 0.5028
vn 0.5574 0.8255 0.0883
vn -0.2777 -0.7911 -0.5450
vn -0.6041 -0.7911 -0.0957
vn 0.2377 0.8519 0.4666
vn 0.3703 0.8519 0.3703
vn 0.4666 0.8519 0.2377
vn 0.5172 0.8519 0.0819
vn -0.2575 -0.8237 -0.5053
vn -0.4010 -0.8237 -0.4010
vn -0.5053 -0.8237 -0.2575
vn -0.5601 -0.8237 -0.0887
vn 0.2969 0.7565 0.5827
vn 0.4624 0.7565 0.4624
vn 0.5827 0.7565 0.2969
vn 0.6460 0.7565 0.1023
vt 0.880745 0.664050
vt 0.595392 0.595392
vt 0.373584 0.373584
vt 0.511546 0.404823
vt 0.682160 0.448057
vt 1.000000 0.481851
vt 1.000000 0.681649
vt 0.929110 0.675041
vt 0.664340 0.148136
vt 0.675951 0.173166
vt 0.723379 0.457463
vt 0.681649 0.681649
vt 0.481851 0.481851
vt 0.499445 0.401078
vt 0.448548 0.136859
vt 0.404964 0.054850
vt 0.379634 0.000000
vt 0.590579 0.000000
vt 0.590579 0.590579
vt 0.379634 0.379634
vt 0.447359 0.404995
vt 0.774091 0.538261
vt 1.000000 0.619300
vt 1.000000 0.747473
vt 0.778841 0.664425
vt 0.779862 0.000000
vt 0.777521 0.729295
vt 0.747473 0.747473
vt 0.619300 0.619300
vt 0.669579 0.585127
vt 0.671457 0.000000
vt 0.505850 0.804778
vt 0.501564 0.777719
vt 0.630266 0.764353
vt 0.587070 0.902059
vt 0.570333 0.893531
vt 0.531063 0.854261
vt 1.000000 0.595392
vt 0.888622 0.664061
vt 0.948289 0.725390
vt 0.220138 0.000000
vt 0.328543 0.000000
vt 0.895823 0.565129
vt 0.743557 0.537969
vt 0.945146 0.404828
vt 1.000000 0.373584
vt 0.042721 0.124259
vt 0.090076 0.076904
vt 0.118496 0.116021
vt 0.172337 0.250073
vt 0.007138 0.250073
vt 0.012318 0.183929
vt 0.572199 0.944211
vt 0.563220 0.935074
vt 0.573557 0.940342
vt 0.461821 0.784053
vt 0.464165 0.798854
vt 0.456871 0.784843
vt 0.112500 0.045309
vt 0.084581 0.059535
vt 0.108946 0.035376
vt 0.305742 0.768860
vt 0.305742 0.738808
vt 0.313272 0.740343
vt 0.579389 0.924359
vt 0.556433 0.912662
vt 0.587069 0.902059
vt 0.584155 0.910577
vt 0.511932 0.868161
vt 0.483360 0.812086
vt 0.478498 0.781390
vt 0.118496 0.062423
vt 0.080482 0.063699
vt 0.084581 0.059535
vt 0.116919 0.057889
vt 0.035719 0.119172
vt 0.080482 0.063699
vt 0.293368 0.828362
vt 0.293368 0.768692
vt 0.304536 0.773767
vt 0.303811 0.782048
vt 0.299254 0.833449
vt 0.293368 0.735981
vt 0.305742 0.738808
vt 0.549673 0.921966
vt 0.549673 0.921966
vt 0.507927 0.871071
vt 0.507927 0.871071
vt 0.495869 0.852304
vt 0.472379 0.815654
vt 0.464165 0.798854
vt 0.472379 0.815654
s 0
usemtl lambert2SG
f 455/433/159 447/434/159 454/435/159 459/436/159 461/437/159 463/438/159 464/439/159 457/440/159
f 466/441/160 468/442/160 470/443/160 464/444/160 463/445/160 472/446/160 474/447/160 476/448/160 478/449/160 465/450/160
f 465/451/161 478/452/161 481/453/161 483/454/161 485/455/161 486/456/161 479/457/161
f 444/458/162 487/459/162 486/460/162 485/461/162 488/462/162 445/463/162
s 1
f 409/464/163 446/465/164 415/466/165 441/467/166 407/468/167 408/469/168
s 0
f 447/470/169 448/471/169 443/472/169 444/473/169 445/474/169 416/475/169 450/476/169 452/477/169 454/478/169
s 1
f 405/479/170 404/480/171 442/481/172 414/482/173 413/483/174 406/484/175
f 435/485/176 477/486/176 482/487/176
f 453/488/177 460/489/177 419/490/177
f 480/491/178 467/492/178 433/493/178
f 456/494/179 449/495/179 417/496/179
f 484/497/180 489/498/180 407/468/167 441/499/166 436/500/180
f 490/498/181 492/501/181 408/469/168 407/468/167
f 493/501/182 495/502/182 409/464/163 408/469/168
f 446/465/164 409/464/163 496/502/183 451/503/183
f 442/504/172 404/480/171 469/505/184 434/506/184 439/491/184 440/507/184
f 404/480/171 405/479/170 471/508/185 430/509/185
f 405/510/170 406/511/175 458/512/186 426/513/186 428/514/186
f 406/511/175 413/515/174 418/516/187 424/494/187 425/512/187
f 438/487/188 432/486/188 475/517/188 491/498/188 437/497/188
f 494/501/189 410/498/189 431/518/189 473/519/189
f 497/502/190 411/501/190 429/520/190 427/521/190 462/522/190
f 422/523/191 421/488/191 420/503/191 412/502/191 423/524/191
o Plate2_cell.006
v 0.413959 -0.012377 -0.300758
v 0.300758 -0.012377 -0.413958
v 0.158118 -0.012377 -0.486637
v 0.000000 -0.012377 -0.511680
v -0.158117 -0.012377 -0.486637
v 0.020951 -0.049387 0.041038
v 0.413959 0.062842 -0.300758
v 0.300758 0.062842 -0.413958
v 0.158118 0.062842 -0.486637
v 0.000000 0.062842 -0.511680
v -0.158117 0.062842 -0.486637
v 0.364182 0.021300 -0.264594
v 0.264595 0.021300 -0.364182
v 0.139105 0.021300 -0.428122
v 0.000000 0.021300 -0.450154
v -0.139105 0.021300 -0.428122
v 0.387531 -0.037321 -0.281558
v 0.281559 -0.037321 -0.387532
v 0.148025 -0.037321 -0.455571
v 0.000000 -0.037321 -0.479015
v -0.148023 -0.037321 -0.455571
v 0.357170 -0.062842 -0.259499
v 0.259501 -0.062842 -0.357171
v 0.136427 -0.062842 -0.419879
v 0.000000 -0.062842 -0.441487
v -0.136425 -0.062842 -0.419879
v 0.296191 -0.038426 -0.215195
v 0.215196 -0.038426 -0.296191
v 0.113135 -0.038426 -0.348194
v 0.000000 -0.038426 -0.366112
v -0.113135 -0.038426 -0.348194
v 0.335650 -0.008814 -0.243864
v 0.243865 -0.008814 -0.335650
v 0.128207 -0.008814 -0.394581
v 0.000000 -0.008814 -0.414887
v -0.128207 -0.008814 -0.394581
v -0.209714 0.027784 -0.402789
v -0.221243 -0.012377 -0.454473
v -0.220955 0.062842 -0.454620
v -0.219176 -0.019679 -0.444927
v -0.108291 -0.062842 -0.084037
v -0.120054 -0.038426 -0.117920
v -0.194689 -0.008814 -0.360706
v -0.178942 -0.038426 -0.314663
v -0.211509 -0.037321 -0.423224
v -0.199235 -0.062842 -0.387877
v -0.206576 0.021300 -0.393744
v -0.087294 -0.062842 -0.014388
v -0.088889 -0.038426 -0.014544
v 0.027038 -0.062842 0.036096
v 0.030526 -0.038426 0.034368
v 0.139339 -0.062842 -0.057706
v 0.197981 -0.038426 -0.105502
v 0.421026 0.062842 -0.286888
v 0.420879 0.054379 -0.287177
v 0.401891 0.046474 -0.271701
v 0.344497 -0.008814 -0.226501
v 0.364204 -0.062842 -0.245694
v 0.306049 -0.038426 -0.195848
v 0.372455 0.021300 -0.248358
v 0.419679 -0.012377 -0.289532
v 0.393837 -0.037321 -0.269183
v -0.049776 -0.038426 0.018037
v -0.060942 -0.062842 0.007564
v -0.032135 -0.062842 0.031304
v -0.032927 -0.038426 0.031923
v 0.020735 -0.062842 0.040735
v 0.023057 -0.038426 0.039865
v 0.017667 -0.038426 0.040839
v -0.025452 -0.062842 0.032584
v -0.022980 -0.038426 0.033828
v 0.010689 -0.062842 0.039438
v 0.006148 -0.038426 0.039352
v -0.209714 0.027784 -0.402789
v -0.220955 0.062842 -0.454620
v -0.220955 0.062842 -0.454620
v -0.221243 -0.012377 -0.454473
v -0.219176 -0.019679 -0.444927
v -0.194689 -0.008814 -0.360706
v -0.194689 -0.008814 -0.360706
v -0.178942 -0.038426 -0.314663
v -0.206576 0.021300 -0.393744
v -0.206576 0.021300 -0.393744
v -0.211509 -0.037321 -0.423224
v -0.211509 -0.037321 -0.423224
v -0.199235 -0.062842 -0.387877
v -0.108291 -0.062842 -0.084037
v -0.120054 -0.038426 -0.117920
v -0.087294 -0.062842 -0.014388
v -0.088889 -0.038426 -0.014544
v 0.139339 -0.062842 -0.057706
v 0.027038 -0.062842 0.036096
v 0.030526 -0.038426 0.034368
v 0.197981 -0.038426 -0.105502
v 0.421026 0.062842 -0.286888
v 0.421026 0.062842 -0.286888
v 0.401891 0.046474 -0.271701
v 0.420879 0.054379 -0.287177
v 0.419679 -0.012377 -0.289532
v 0.393837 -0.037321 -0.269183
v 0.393837 -0.037321 -0.269183
v 0.372455 0.021300 -0.248358
v 0.372455 0.021300 -0.248358
v 0.344497 -0.008814 -0.226501
v 0.344497 -0.008814 -0.226501
v 0.306049 -0.038426 -0.195848
v 0.364204 -0.062842 -0.245694
v -0.049776 -0.038426 0.018037
v -0.032927 -0.038426 0.031923
v -0.032135 -0.062842 0.031304
v -0.060942 -0.062842 0.007564
v 0.020735 -0.062842 0.040735
v 0.023057 -0.038426 0.039865
v 0.017667 -0.038426 0.040839
v -0.022980 -0.038426 0.033828
v -0.025452 -0.062842 0.032584
v 0.010689 -0.062842 0.039438
v 0.006148 -0.038426 0.039352
v 0.413959 0.062842 -0.300758
v 0.413959 0.062842 -0.300758
v 0.300758 0.062842 -0.413958
v 0.300758 0.062842 -0.413958
v 0.158118 0.062842 -0.486637
v 0.158118 0.062842 -0.486637
v 0.000000 0.062842 -0.511680
v 0.000000 0.062842 -0.511680
v -0.158117 0.062842 -0.486637
v -0.158117 0.062842 -0.486637
v 0.364182 0.021300 -0.264594
v 0.364182 0.021300 -0.264594
v 0.364182 0.021300 -0.264594
v 0.264595 0.021300 -0.364182
v 0.264595 0.021300 -0.364182
v 0.264595 0.021300 -0.364182
v 0.139105 0.021300 -0.428122
v 0.139105 0.021300 -0.428122
v 0.139105 0.021300 -0.428122
v 0.000000 0.021300 -0.450154
v 0.000000 0.021300 -0.450154
v 0.000000 0.021300 -0.450154
v -0.139105 0.021300 -0.428122
v -0.139105 0.021300 -0.428122
v -0.139105 0.021300 -0.428122
v 0.387531 -0.037321 -0.281558
v 0.387531 -0.037321 -0.281558
v 0.281559 -0.037321 -0.387532
v 0.281559 -0.037321 -0.387532
v 0.148025 -0.037321 -0.455571
v 0.148025 -0.037321 -0.455571
v 0.000000 -0.037321 -0.479015
v 0.000000 -0.037321 -0.479015
v -0.148023 -0.037321 -0.455571
v -0.148023 -0.037321 -0.455571
v 0.335650 -0.008814 -0.243864
v 0.335650 -0.008814 -0.243864
v 0.335650 -0.008814 -0.243864
v 0.243865 -0.008814 -0.335650
v 0.243865 -0.008814 -0.335650
v 0.243865 -0.008814 -0.335650
v 0.128207 -0.008814 -0.394581
v 0.128207 -0.008814 -0.394581
v 0.128207 -0.008814 -0.394581
v 0.000000 -0.008814 -0.414887
v 0.000000 -0.008814 -0.414887
v 0.000000 -0.008814 -0.414887
v -0.128207 -0.008814 -0.394581
v -0.128207 -0.008814 -0.394581
v -0.128207 -0.008814 -0.394581
vn -0.9767 0.0042 0.2146
vn -0.9561 -0.0635 0.2862
vn -0.9557 -0.0606 0.2881
vn 0.6406 -0.0372 0.7670
vn 0.6409 -0.0386 0.7666
vn -0.6355 -0.0402 0.7711
vn -0.6396 -0.0369 0.7678
vn 0.5925 -0.0277 0.8051
vn 0.1774 0.0710 0.9816
vn -0.1880 -0.0310 0.9817
vn -0.1862 -0.0312 0.9820
vn -0.1280 -0.0203 0.9916
vn 0.7930 -0.4559 -0.4041
vn 0.7317 -0.4267 -0.5316
vn 0.8090 -0.0000 -0.5878
vn 0.8910 -0.0000 -0.4540
vn 0.5316 -0.4267 -0.7317
vn 0.5878 -0.0000 -0.8090
vn 0.2795 -0.4267 -0.8601
vn 0.3090 -0.0000 -0.9511
vn -0.0000 -0.4267 -0.9044
vn -0.0000 -0.0000 -1.0000
vn -0.2795 -0.4267 -0.8601
vn -0.3090 -0.0000 -0.9511
vn -0.4012 -0.4681 -0.7874
vn -0.4540 -0.0000 -0.8910
vn -0.0000 -1.0000 -0.0000
vn -0.1224 -0.9630 -0.2403
vn -0.0991 -0.9472 -0.3049
vn -0.0000 -0.9472 -0.3206
vn 0.0991 -0.9472 -0.3049
vn 0.1884 -0.9472 -0.2593
vn 0.2593 -0.9472 -0.1884
vn 0.2322 -0.9654 -0.1183
vn -0.0000 1.0000 -0.0000
vn -0.2121 0.9712 0.1081
vn -0.2379 0.9558 0.1728
vn -0.1728 0.9558 0.2379
vn -0.0909 0.9558 0.2797
vn -0.0000 0.9558 0.2941
vn 0.0909 0.9558 0.2797
vn 0.1119 0.9692 0.2195
vn -0.5028 0.8255 0.2562
vn -0.3991 0.8255 0.3991
vn -0.2562 0.8255 0.5028
vn -0.0883 0.8255 0.5574
vn 0.0883 0.8255 0.5574
vn 0.2562 0.8255 0.5028
vn 0.4910 -0.7948 -0.3567
vn 0.5450 -0.7911 -0.2777
vn 0.3567 -0.7948 -0.4910
vn 0.1875 -0.7948 -0.5772
vn -0.0000 -0.7948 -0.6069
vn -0.1875 -0.7948 -0.5772
vn -0.2777 -0.7911 -0.5450
vn -0.4666 0.8519 0.2377
vn -0.3703 0.8519 0.3703
vn -0.2377 0.8519 0.4666
vn -0.0819 0.8519 0.5172
vn 0.0819 0.8519 0.5172
vn 0.2377 0.8519 0.4666
vn 0.5053 -0.8237 -0.2575
vn 0.4010 -0.8236 -0.4010
vn 0.2575 -0.8237 -0.5053
vn 0.0887 -0.8236 -0.5601
vn -0.0887 -0.8236 -0.5601
vn -0.2575 -0.8237 -0.5053
vn -0.5827 0.7565 0.2969
vn -0.4624 0.7565 0.4624
vn -0.2969 0.7565 0.5827
vn -0.1023 0.7565 0.6460
vn 0.1023 0.7565 0.6460
vn 0.2969 0.7565 0.5827
vt 0.623412 0.000000
vt 0.778996 0.353460
vt 0.445061 0.068298
vt 0.412655 0.000000
vt 0.714159 0.383920
vt 0.854899 0.393577
vt 0.971199 0.376495
vt 1.000000 0.376588
vt 1.000000 0.587345
vt 0.927296 0.592770
vt 0.814435 0.592906
vt 0.223246 0.000000
vt 0.331351 0.000000
vt 0.223246 0.223246
vt 0.223373 0.000000
vt 0.331539 0.000000
vt 0.331351 0.331351
vt 0.779633 0.000000
vt 1.000000 0.220249
vt 1.000000 0.328420
vt 0.671406 0.000000
vt 1.000000 0.704552
vt 1.000000 0.739576
vt 0.960405 0.737493
vt 0.737479 0.443670
vt 0.739576 0.739576
vt 0.704551 0.704551
vt 0.650276 0.592994
vt 0.598738 0.459537
vt 0.527841 0.328315
vt 0.328420 0.328420
vt 0.220249 0.220249
vt 0.635199 0.220031
vt 0.689835 0.333128
vt 0.459350 0.000000
vt 0.683773 0.000000
vt 1.000000 0.314934
vt 1.000000 0.538440
vt 1.000000 0.776627
vt 0.538440 0.538440
vt 0.314934 0.314934
vt 1.000000 0.668461
vt 0.067484 0.067484
vt 0.000000 0.000000
vt 0.212995 0.000000
vt 1.000000 0.220367
vt 1.000000 0.328594
vt 1.000000 0.000000
vt 1.000000 0.067484
vt 0.902441 0.000000
vt 1.000000 0.423192
vt 0.316227 0.000000
vt 0.540650 0.000000
vt 1.000000 0.284294
vt 0.284294 0.284294
vt 1.000000 0.283233
vt 1.000000 0.422336
vt 0.423192 0.423192
vt 0.787005 0.000000
vt 1.000000 0.097559
vt 0.422336 0.422336
vt 0.283233 0.283233
vt 0.384444 0.562172
vt 0.384444 0.556729
vt 0.420913 0.556729
vt 0.420913 0.563454
vt 0.416810 0.563314
vt 0.384444 0.501845
vt 0.420913 0.501845
vt 0.287696 0.501845
vt 0.287696 0.571002
vt 0.251227 0.571002
vt 0.251227 0.501845
vt 0.287696 0.647664
vt 0.251227 0.647664
vt 0.287696 0.724325
vt 0.251227 0.724325
vt 0.287696 0.754931
vt 0.251227 0.754791
vt 0.163387 0.211927
vt 0.119294 0.117120
vt 0.149746 0.046500
vt 0.215891 0.250073
vt 0.282036 0.046500
vt 0.341706 0.076904
vt 0.389060 0.124259
vt 0.392470 0.130952
vt 0.283448 0.200991
vt 0.229000 0.259597
vt 0.225944 0.263910
vt 0.221073 0.266023
vt 0.203551 0.267058
vt 0.200311 0.271517
vt 0.186344 0.259673
vt 0.173568 0.250073
vt 0.770655 0.781115
vt 0.823051 0.798139
vt 0.818272 0.854261
vt 0.779002 0.893531
vt 0.729519 0.918744
vt 0.674667 0.749927
vt 0.619815 0.918744
vt 0.587910 0.902487
vt 0.616461 0.830041
vt 0.631570 0.763930
vt 0.650534 0.742086
vt 0.658703 0.738328
vt 0.663526 0.734592
vt 0.677648 0.572894
vt 0.683232 0.723565
vt 0.685846 0.715522
vt 0.689467 0.729556
vt 0.878796 0.889020
vt 0.875370 0.895745
vt 0.851236 0.878211
vt 0.855247 0.870339
vt 0.869519 0.881657
vt 0.820486 0.950629
vt 0.802952 0.926495
vt 0.751329 0.985866
vt 0.742110 0.957496
vt 0.674667 0.998008
vt 0.674667 0.968178
vt 0.598006 0.985866
vt 0.607224 0.957496
vt 0.574511 0.940828
vt 0.567540 0.970343
vt 0.572990 0.945213
vt 0.372351 0.566038
vt 0.384444 0.562172
vt 0.372351 0.572038
vt 0.361710 0.049371
vt 0.416593 0.104255
vt 0.403780 0.113564
vt 0.352401 0.062184
vt 0.292552 0.014134
vt 0.287658 0.029196
vt 0.215891 0.001992
vt 0.215891 0.017829
vt 0.139230 0.014134
vt 0.144124 0.029196
vt 0.113344 0.044879
vt 0.109626 0.034357
vt 0.108624 0.029728
vt 0.841693 0.859743
vt 0.837403 0.868161
vt 0.823051 0.844881
vt 0.792902 0.912662
vt 0.736827 0.941234
vt 0.674667 0.951079
vt 0.674667 0.927431
vt 0.612508 0.941234
vt 0.587910 0.902487
vt 0.580275 0.924810
vt 0.359977 0.576732
vt 0.372351 0.572038
vt 0.359977 0.583425
vt 0.215891 0.036024
vt 0.119294 0.062016
vt 0.113344 0.044879
vt 0.841692 0.859743
s 0
usemtl lambert2SG
f 571/525/192 572/526/192 574/527/192 575/528/192
f 578/529/193 576/530/193 579/531/193 571/532/193 575/533/193 581/534/193 583/535/193 584/536/193 585/537/193
f 584/538/194 586/539/194 587/540/194 585/541/194
f 589/542/195 588/543/195 591/544/195 590/545/195
f 594/546/195 595/547/195 592/548/195
f 596/549/196 595/550/196 594/551/196 599/552/196 601/553/196 603/554/196 591/555/196 588/556/196 604/557/196 597/558/196
f 607/559/197 606/560/197 605/561/197 608/562/197
f 586/563/198 608/564/198 605/565/198 587/566/198
f 610/567/199 503/568/199 609/569/199 589/570/199 590/571/199
f 503/572/200 610/573/200 611/574/200
f 612/575/201 606/576/201 607/577/201 613/578/201
f 613/579/202 614/580/202 615/581/202 612/582/202
f 609/583/203 503/572/203 611/584/203 615/585/203 614/586/203
s 1
f 558/587/204 498/588/205 616/589/206 593/590/207 552/591/207
f 498/588/205 499/592/208 618/593/209 616/589/206
f 499/594/208 500/595/210 620/596/211 618/597/209
f 500/595/210 501/598/212 622/599/213 620/596/211
f 501/598/212 502/600/214 624/601/215 622/599/213
f 624/601/215 502/600/214 535/602/216 573/603/217
f 538/604/218 543/605/219 523/606/220 522/607/221 521/608/222 520/609/223 519/610/224 555/611/225 549/612/218 547/613/218 564/614/218 569/615/218 567/616/218 562/617/218 561/618/218 545/619/218
f 550/620/226 556/621/227 524/622/228 525/623/229 526/624/230 527/625/231 528/626/232 541/627/233 539/628/226 546/629/226 560/630/226 563/631/226 568/632/226 570/633/226 566/634/226 565/635/226 548/636/226
f 551/637/234 617/638/234 626/639/234 600/640/234 553/641/234
f 504/638/235 619/642/235 629/643/235 627/639/235
f 505/642/236 621/644/236 632/645/236 630/643/236
f 506/644/237 623/646/237 635/647/237 633/645/237
f 507/646/238 625/648/238 638/649/238 636/647/238
f 580/650/239 639/649/239 508/648/239 536/651/239 534/652/239
f 641/653/240 498/588/205 558/654/204 598/655/241
f 499/656/208 498/657/205 641/658/240 643/659/242
f 500/660/210 499/656/208 643/659/242 645/661/243
f 501/662/212 500/660/210 645/661/243 647/663/244
f 502/664/214 501/662/212 647/663/244 649/665/245
f 649/665/245 582/666/246 537/667/246 535/668/216 502/664/214
f 602/669/247 651/670/247 524/622/228 556/671/227
f 652/670/248 654/672/248 525/623/229 524/622/228
f 655/672/249 657/673/249 526/624/230 525/623/229
f 658/673/250 660/674/250 527/675/231 526/624/230
f 661/674/251 663/676/251 528/626/232 527/675/231
f 541/677/233 528/626/232 664/676/252 577/678/252
f 519/679/224 642/653/253 559/680/253 555/681/225
f 644/659/254 514/658/254 519/610/224 520/609/223
f 646/661/255 515/659/255 520/609/223 521/608/222
f 648/663/256 516/661/256 521/608/222 522/682/221
f 650/665/257 517/663/257 522/682/221 523/606/220
f 523/606/220 543/683/219 542/684/258 518/665/258
f 557/640/259 628/639/259 653/670/259 554/685/259
f 509/639/260 631/643/260 656/672/260 529/670/260
f 510/643/261 634/645/261 659/673/261 530/672/261
f 511/645/262 637/647/262 662/674/262 531/673/262
f 512/647/263 640/649/263 665/676/263 532/674/263
f 540/678/264 533/676/264 513/649/264 544/650/264
o Plate2_cell.007
v -0.413958 -0.012377 0.300758
v -0.300758 -0.012377 0.413958
v -0.413958 0.062842 0.300758
v -0.300758 0.062842 0.413958
v -0.364182 0.021300 0.264594
v -0.264594 0.021300 0.364182
v -0.387532 -0.037321 0.281558
v -0.357171 -0.062842 0.259499
v -0.296191 -0.038426 0.215195
v -0.335649 -0.008814 0.243864
v -0.294989 -0.019872 0.406017
v -0.285868 -0.037321 0.383221
v -0.277798 0.062842 0.425657
v -0.241466 -0.011291 0.332349
v -0.230538 -0.026593 0.308073
v -0.279707 -0.047354 0.368773
v -0.254629 0.021300 0.369259
v -0.252066 -0.062842 0.168096
v -0.295033 -0.038426 0.170897
v -0.142310 -0.038426 0.104432
v -0.149196 -0.062842 0.123327
v -0.474032 0.062842 0.182857
v -0.406920 0.021300 0.180717
v -0.453477 -0.012377 0.223198
v -0.417057 -0.037321 0.223612
v -0.376071 -0.062842 0.222404
v -0.366728 -0.008814 0.182870
v -0.314433 -0.038426 0.179393
v -0.270239 -0.062842 0.346430
v -0.121149 -0.062842 0.127947
v -0.100671 -0.038426 0.111290
v -0.222120 -0.038426 0.289266
v -0.105129 -0.062842 0.104376
v -0.076887 -0.038426 0.076297
v -0.277798 0.062842 0.425657
v -0.277798 0.062842 0.425657
v -0.254629 0.021300 0.369259
v -0.254629 0.021300 0.369259
v -0.294989 -0.019872 0.406017
v -0.285868 -0.037321 0.383221
v -0.285868 -0.037321 0.383221
v -0.279707 -0.047354 0.368773
v -0.241466 -0.011291 0.332349
v -0.241466 -0.011291 0.332349
v -0.241466 -0.011291 0.332349
v -0.230538 -0.026593 0.308073
v -0.252066 -0.062842 0.168096
v -0.149196 -0.062842 0.123327
v -0.300758 -0.012377 0.413958
v -0.295033 -0.038426 0.170897
v -0.142310 -0.038426 0.104432
v -0.406920 0.021300 0.180717
v -0.406920 0.021300 0.180717
v -0.366728 -0.008814 0.182870
v -0.366728 -0.008814 0.182870
v -0.314433 -0.038426 0.179393
v -0.376071 -0.062842 0.222404
v -0.417057 -0.037321 0.223612
v -0.417057 -0.037321 0.223612
v -0.453477 -0.012377 0.223198
v -0.474032 0.062842 0.182857
v -0.474032 0.062842 0.182857
v -0.222120 -0.038426 0.289266
v -0.270239 -0.062842 0.346430
v -0.121149 -0.062842 0.127947
v -0.100671 -0.038426 0.111290
v -0.105129 -0.062842 0.104376
v -0.076887 -0.038426 0.076297
v -0.413958 0.062842 0.300758
v -0.413958 0.062842 0.300758
v -0.300758 0.062842 0.413958
v -0.300758 0.062842 0.413958
v -0.335649 -0.008814 0.243864
v -0.335649 -0.008814 0.243864
v -0.335649 -0.008814 0.243864
v -0.264594 0.021300 0.364182
v -0.264594 0.021300 0.364182
v -0.264594 0.021300 0.364182
v -0.364182 0.021300 0.264594
v -0.364182 0.021300 0.264594
v -0.364182 0.021300 0.264594
v -0.387532 -0.037321 0.281558
v -0.387532 -0.037321 0.281558
vn 0.7806 -0.2933 0.5520
vn -0.3426 -0.5127 -0.7873
vn -0.3439 -0.5151 -0.7852
vn 0.7894 -0.2946 0.5386
vn 0.7899 -0.2962 0.5369
vn -0.3388 -0.5142 -0.7879
vn -0.8090 -0.0000 0.5878
vn -0.8910 -0.0000 0.4540
vn -0.8464 -0.3124 0.4313
vn -0.7317 -0.4267 0.5316
vn -0.6291 -0.3816 0.6772
vn -0.5878 -0.0000 0.8090
vn -0.4540 -0.0000 0.8910
vn -0.0000 -1.0000 -0.0000
vn -0.2423 -0.9395 0.2423
vn -0.2593 -0.9472 0.1884
vn -0.2973 -0.9427 0.1515
vn 0.5028 0.8255 -0.2562
vn 0.3991 0.8255 -0.3991
vn 0.2562 0.8255 -0.5028
vn -0.5450 -0.7911 0.2777
vn -0.4910 -0.7948 0.3567
vn -0.4325 -0.7911 0.4325
vn 0.4666 0.8519 -0.2377
vn 0.2379 0.9558 -0.1728
vn 0.2711 0.9526 -0.1382
vn 0.2217 0.9496 -0.2217
vn 0.3703 0.8519 -0.3703
vn -0.5053 -0.8237 0.2575
vn -0.4010 -0.8237 0.4010
vn 0.5827 0.7565 -0.2969
vn 0.4563 0.7616 -0.4601
vn 0.2917 0.7662 -0.5725
vn -0.0000 1.0000 -0.0000
vt 0.834749 0.574013
vt 0.505907 0.225063
vt 0.476424 0.178073
vt 0.408422 0.066300
vt 0.369866 0.000000
vt 0.486512 0.000000
vt 0.553866 0.121078
vt 0.673719 0.304691
vt 0.777263 0.000000
vt 1.000000 0.222498
vt 1.000000 0.330325
vt 0.669320 0.000000
vt 0.510329 0.460965
vt 0.379092 0.330191
vt 0.330325 0.330325
vt 0.222498 0.222498
vt 0.534216 0.221642
vt 0.637054 0.334376
vt 0.728419 0.444587
vt 0.779533 0.777546
vt 0.611138 0.594044
vt 1.000000 0.513488
vt 1.000000 0.630134
vt 0.830531 0.547644
vt 0.283002 0.000000
vt 0.420150 0.000000
vt 0.866169 0.446112
vt 0.453508 0.000000
vt 0.673288 0.000000
vt 0.420150 0.420150
vt 0.283002 0.283002
vt 1.000000 0.330680
vt 0.326712 0.000000
vt 0.546492 0.000000
vt 1.000000 0.222737
vt 0.354304 0.556729
vt 0.354304 0.613892
vt 0.317835 0.594333
vt 0.317835 0.556729
vt 0.317835 0.501845
vt 0.354304 0.501845
vt 0.245554 0.782351
vt 0.245554 0.793483
vt 0.209085 0.792362
vt 0.143555 0.349635
vt 0.164921 0.320228
vt 0.157153 0.330919
vt 0.084869 0.418036
vt 0.042721 0.375888
vt 0.033557 0.357903
vt 0.093680 0.338864
vt 0.473965 0.604108
vt 0.498098 0.621642
vt 0.477377 0.662308
vt 0.444839 0.661271
vt 0.528849 0.549224
vt 0.546382 0.573358
vt 0.551213 0.570896
vt 0.539981 0.543552
vt 0.305742 0.594132
vt 0.305742 0.566038
vt 0.072869 0.446926
vt 0.070072 0.450776
vt 0.015189 0.395892
vt 0.028001 0.386583
vt 0.077292 0.435874
vt 0.511932 0.631692
vt 0.531063 0.645592
vt 0.522218 0.662950
vt 0.496864 0.661264
vt 0.566976 0.609679
vt 0.557596 0.588791
vt 0.562894 0.600561
vt 0.293368 0.594717
vt 0.293368 0.576732
vt 0.077292 0.435874
vt 0.084869 0.418036
vt 0.080279 0.428869
vt 0.496864 0.661264
vt 0.477377 0.662308
vt 0.556433 0.587191
vt 0.551213 0.570896
vt 0.605670 0.699797
vt 0.531624 0.703449
vt 0.522218 0.700393
vt 0.566975 0.671684
vt 0.625858 0.714465
vt 0.637390 0.722843
s 0
usemtl lambert2SG
f 700/686/265 714/687/265 704/688/265 705/689/265 707/690/265 711/691/265 708/692/265 702/693/265
f 713/694/266 712/695/266 715/696/266 716/697/266
f 719/698/267 721/699/267 715/700/267 712/701/267 722/702/267 723/703/267 725/704/267 726/705/267 717/706/267
f 711/707/268 707/708/268 729/709/268 730/710/268 731/711/268 728/712/268
f 732/713/269 733/714/269 731/715/269 730/716/269
f 716/717/270 733/718/270 732/719/270 713/720/270
s 1
f 734/721/271 727/722/272 689/723/273 666/724/274
f 666/724/274 667/725/275 736/726/276 734/721/271
f 701/727/277 736/728/276 667/729/275
f 686/730/278 698/731/278 695/732/278 694/733/279 673/734/280 691/735/281 683/736/278
f 735/737/282 744/738/282 718/739/282 687/740/282
f 668/737/283 737/741/283 742/742/283 745/738/283
f 703/743/284 743/742/284 669/741/284 678/744/284
f 724/745/285 747/746/286 666/724/274 689/723/273
f 676/747/287 667/748/275 666/749/274 747/750/286 706/751/287
f 739/752/288 674/753/289 693/754/290 720/755/288
f 697/756/291 674/753/289 738/752/292 709/757/292 680/758/292
f 691/759/281 673/760/280 748/746/293 690/745/293
f 677/761/294 672/750/294 673/734/280 694/762/279 681/763/294
f 746/738/295 740/752/295 692/764/295 688/765/295
f 670/738/296 741/742/296 710/766/296 675/752/296
f 679/766/297 671/742/297 682/767/297
f 685/768/298 684/769/298 693/770/290 674/753/289 697/771/291 696/772/298 699/773/298
o Plate2_cell.008
v -0.511680 -0.012377 0.000000
v -0.486637 -0.012377 0.158118
v -0.511680 0.062842 0.000000
v -0.486637 0.062842 0.158118
v -0.450154 0.021300 0.000000
v -0.428122 0.021300 0.139105
v -0.479015 -0.037321 0.000000
v -0.455571 -0.037321 0.148024
v -0.441487 -0.062842 0.000000
v -0.419878 -0.062842 0.136427
v -0.366113 -0.038426 0.000000
v -0.348193 -0.038426 0.113135
v -0.414886 -0.008814 0.000000
v -0.394581 -0.008814 0.128207
v -0.467485 -0.037321 -0.072799
v -0.488587 -0.020807 -0.076108
v -0.430865 -0.062842 -0.067059
v -0.439319 0.021300 -0.068411
v -0.450863 0.029288 -0.070221
v -0.404906 -0.008814 -0.063014
v -0.152290 -0.062842 -0.023456
v -0.357313 -0.038426 -0.055555
v -0.185022 -0.038426 -0.028588
v -0.500294 0.062842 -0.071892
v -0.499576 -0.012377 -0.076420
v -0.088971 -0.062842 -0.013415
v -0.090687 -0.038426 -0.013628
v -0.048373 -0.062842 0.020749
v -0.055742 -0.038426 0.015779
v -0.103284 -0.062842 0.101626
v -0.034599 -0.062842 0.032653
v -0.074958 -0.038426 0.073359
v -0.035253 -0.038426 0.033487
v -0.199562 -0.038426 0.127683
v -0.318834 -0.062842 0.195600
v -0.475236 0.062842 0.180494
v -0.407941 0.021300 0.178713
v -0.454507 -0.012377 0.221177
v -0.417983 -0.037321 0.221794
v -0.376885 -0.062842 0.220806
v -0.367630 -0.008814 0.181101
v -0.315197 -0.038426 0.177893
v -0.357313 -0.038426 -0.055555
v -0.185022 -0.038426 -0.028588
v -0.430865 -0.062842 -0.067059
v -0.152290 -0.062842 -0.023456
v -0.467485 -0.037321 -0.072799
v -0.467485 -0.037321 -0.072799
v -0.488587 -0.020807 -0.076108
v -0.439319 0.021300 -0.068411
v -0.439319 0.021300 -0.068411
v -0.450863 0.029288 -0.070221
v -0.404906 -0.008814 -0.063014
v -0.404906 -0.008814 -0.063014
v -0.500294 0.062842 -0.071892
v -0.500294 0.062842 -0.071892
v -0.499576 -0.012377 -0.076420
v -0.088971 -0.062842 -0.013415
v -0.090687 -0.038426 -0.013628
v -0.055742 -0.038426 0.015779
v -0.048373 -0.062842 0.020749
v -0.074958 -0.038426 0.073359
v -0.035253 -0.038426 0.033487
v -0.103284 -0.062842 0.101626
v -0.034599 -0.062842 0.032653
v -0.318834 -0.062842 0.195600
v -0.199562 -0.038426 0.127683
v -0.475236 0.062842 0.180494
v -0.475236 0.062842 0.180494
v -0.407941 0.021300 0.178713
v -0.407941 0.021300 0.178713
v -0.454507 -0.012377 0.221177
v -0.417983 -0.037321 0.221794
v -0.417983 -0.037321 0.221794
v -0.376885 -0.062842 0.220806
v -0.315197 -0.038426 0.177893
v -0.367630 -0.008814 0.181101
v -0.367630 -0.008814 0.181101
v -0.511680 0.062842 0.000000
v -0.511680 0.062842 0.000000
v -0.486637 0.062842 0.158118
v -0.486637 0.062842 0.158118
v -0.450154 0.021300 0.000000
v -0.450154 0.021300 0.000000
v -0.450154 0.021300 0.000000
v -0.428122 0.021300 0.139105
v -0.428122 0.021300 0.139105
v -0.428122 0.021300 0.139105
v -0.479015 -0.037321 0.000000
v -0.479015 -0.037321 0.000000
v -0.455571 -0.037321 0.148024
v -0.455571 -0.037321 0.148024
v -0.414886 -0.008814 0.000000
v -0.414886 -0.008814 0.000000
v -0.414886 -0.008814 0.000000
v -0.394581 -0.008814 0.128207
v -0.394581 -0.008814 0.128207
v -0.394581 -0.008814 0.128207
vn 0.1546 -0.0003 -0.9880
vn 0.0748 0.0606 -0.9954
vn 0.1566 0.0024 -0.9877
vn 0.6434 0.0386 -0.7646
vn 0.7086 -0.0051 0.7056
vn 0.6533 0.0433 -0.7559
vn 0.3431 0.5130 0.7869
vn 0.3406 0.5182 0.7845
vn -0.8754 -0.4630 -0.1387
vn -0.9044 -0.4267 -0.0000
vn -1.0000 -0.0000 -0.0000
vn -0.9877 -0.0000 -0.1564
vn -0.8601 -0.4267 0.2795
vn -0.9511 -0.0000 0.3090
vn -0.8910 -0.0000 0.4540
vn -0.7304 -0.5727 0.3722
vn -0.0000 -1.0000 -0.0000
vn -0.2233 -0.9681 0.1138
vn -0.3049 -0.9472 0.0991
vn -0.3206 -0.9472 -0.0000
vn -0.2930 -0.9550 -0.0464
vn -0.0000 1.0000 -0.0000
vn 0.2685 0.9623 0.0425
vn 0.2941 0.9558 -0.0000
vn 0.2797 0.9558 -0.0909
vn 0.2068 0.9727 -0.1054
vn 0.5574 0.8255 0.0883
vn 0.5574 0.8255 -0.0883
vn 0.5028 0.8255 -0.2562
vn -0.6069 -0.7948 -0.0000
vn -0.6041 -0.7911 -0.0957
vn -0.5772 -0.7948 0.1875
vn -0.5450 -0.7911 0.2777
vn 0.5172 0.8519 0.0819
vn 0.5172 0.8519 -0.0819
vn 0.4666 0.8519 -0.2377
vn -0.5601 -0.8236 -0.0887
vn -0.5601 -0.8237 0.0887
vn -0.5053 -0.8237 0.2575
vn 0.6459 0.7565 0.1023
vn 0.6459 0.7565 -0.1023
vn 0.5827 0.7565 -0.2969
vt 0.670813 0.000000
vt 0.779044 0.000000
vt 0.778571 0.589339
vt 0.665438 0.594430
vt 0.592236 0.592236
vt 0.370356 0.370356
vt 0.405766 0.368588
vt 0.539244 0.381193
vt 0.670521 0.364490
vt 1.000000 0.370356
vt 1.000000 0.592236
vt 0.900453 0.555040
vt 0.571097 0.222344
vt 0.778663 0.000000
vt 1.000000 0.220956
vt 1.000000 0.329187
vt 0.670247 0.000000
vt 0.670247 0.670247
vt 0.669560 0.000000
vt 0.777866 0.000000
vt 0.778663 0.778663
vt 0.311358 0.000000
vt 0.538612 0.000000
vt 0.536088 0.536088
vt 0.309899 0.309899
vt 0.669560 0.669560
vt 1.000000 0.309899
vt 1.000000 0.536088
vt 0.777866 0.777866
vt 1.000000 0.538016
vt 0.461388 0.000000
vt 0.688642 0.000000
vt 1.000000 0.311014
vt 0.835042 0.136766
vt 0.795914 0.449486
vt 0.726533 0.523659
vt 0.648453 0.595834
vt 0.538016 0.538016
vt 0.311014 0.311014
vt 0.530998 0.426184
vt 0.630624 0.347167
vt 0.707189 0.253853
vt 0.317835 0.739599
vt 0.317835 0.702547
vt 0.354304 0.702547
vt 0.354304 0.737403
vt 0.317835 0.625886
vt 0.354304 0.625886
vt 0.354304 0.615037
vt 0.317835 0.595313
vt 0.199116 0.273162
vt 0.165815 0.318997
vt 0.061308 0.362384
vt 0.033163 0.357128
vt 0.012318 0.316218
vt 0.001842 0.250073
vt 0.006992 0.250073
vt 0.142055 0.250073
vt 0.172755 0.250073
vt 0.192438 0.267112
vt 0.638325 0.723523
vt 0.657575 0.737509
vt 0.647641 0.749927
vt 0.630699 0.764213
vt 0.584962 0.779074
vt 0.501428 0.776862
vt 0.497162 0.749927
vt 0.505850 0.695075
vt 0.521848 0.700273
vt 0.577912 0.718489
vt 0.432107 0.784783
vt 0.426586 0.749927
vt 0.456416 0.749927
vt 0.461669 0.783095
vt 0.456072 0.783973
vt 0.438728 0.673265
vt 0.467098 0.682483
vt 0.476883 0.663280
vt 0.444256 0.662416
vt 0.305742 0.702547
vt 0.317835 0.739599
vt 0.313748 0.739447
vt 0.305742 0.737843
vt 0.305742 0.630780
vt 0.305742 0.595013
vt 0.478354 0.780478
vt 0.473515 0.749927
vt 0.483360 0.687767
vt 0.521848 0.663678
vt 0.496427 0.662122
vt 0.293368 0.702547
vt 0.293368 0.735060
vt 0.293368 0.636402
vt 0.293368 0.595492
vt 0.461669 0.783095
s 0
usemtl lambert2SG
f 792/774/299 794/775/299 793/776/299 795/777/299 797/778/299 800/779/299 798/780/299 801/781/299 791/782/299
f 800/783/300 797/784/300 805/785/300 803/786/300
f 806/787/301 794/788/301 792/789/301 807/790/301
f 807/791/302 808/792/302 809/793/302 806/794/302
f 810/795/303 812/796/303 813/797/303 811/798/303
f 808/799/304 811/800/304 813/801/304 809/802/304
f 814/803/305 812/804/305 810/805/305 815/806/305
f 816/807/306 820/808/306 821/809/306 823/810/306 814/811/306 815/812/306 824/813/306 825/814/306 818/815/306
s 1
f 773/816/307 749/817/308 827/818/309 804/819/310
f 749/817/308 750/820/311 829/821/312 827/818/309
f 817/822/313 829/821/312 750/820/311 786/823/314
f 779/824/315 778/825/315 783/826/315 788/827/316 758/828/317 757/829/318 765/830/319 769/831/315 774/832/315 776/833/315
f 780/834/320 781/835/320 777/836/320 775/837/320 771/838/320 770/839/321 759/840/322 760/841/323 790/842/324 782/843/320
f 772/844/325 828/845/325 831/846/325 799/847/325 767/848/325
f 751/845/326 830/849/326 834/850/326 832/846/326
f 819/851/327 835/850/327 752/849/327 784/852/327
f 837/853/328 749/817/308 773/854/307 764/855/329 796/856/329
f 750/820/311 749/817/308 837/853/328 839/857/330
f 839/857/330 822/858/331 786/823/314 750/820/311
f 802/859/332 841/860/332 759/840/322 770/839/321
f 842/860/333 844/861/333 760/841/323 759/840/322
f 790/862/324 760/841/323 845/861/334 826/863/334
f 757/864/318 838/853/335 763/856/335 765/865/319
f 840/857/336 755/853/336 757/864/318 758/866/317
f 758/866/317 788/867/316 787/858/337 756/857/337
f 766/868/338 833/846/338 843/860/338 768/859/338
f 753/846/339 836/850/339 846/861/339 761/860/339
f 789/863/340 762/861/340 754/850/340 785/851/340
o Plate2_cell.009
v 0.486637 -0.012377 -0.158118
v 0.022708 -0.051423 0.042238
v 0.413959 -0.012377 0.300758
v 0.486637 -0.012377 0.158118
v 0.511680 -0.012377 0.000000
v 0.486637 0.062842 -0.158118
v 0.413959 0.062842 0.300758
v 0.486637 0.062842 0.158118
v 0.511680 0.062842 0.000000
v 0.428123 0.021300 -0.139105
v 0.364182 0.021300 0.264594
v 0.428121 0.021300 0.139105
v 0.450153 0.021300 0.000000
v 0.455571 -0.037321 -0.148024
v 0.387531 -0.037321 0.281558
v 0.455570 -0.037321 0.148024
v 0.479015 -0.037321 0.000000
v 0.419879 -0.062842 -0.136427
v 0.357170 -0.062842 0.259499
v 0.419878 -0.062842 0.136427
v 0.441487 -0.062842 0.000000
v 0.348193 -0.038426 -0.113135
v 0.296191 -0.038426 0.215195
v 0.348192 -0.038426 0.113135
v 0.366111 -0.038426 0.000000
v 0.394581 -0.008814 -0.128207
v 0.335650 -0.008814 0.243864
v 0.394580 -0.008814 0.128207
v 0.414886 -0.008814 0.000000
v 0.022609 -0.062842 0.042021
v 0.122298 -0.062842 -0.041559
v 0.026053 -0.062842 0.048779
v 0.043498 -0.062842 0.065859
v 0.044852 -0.038426 0.060203
v 0.025128 -0.038426 0.040891
v 0.364929 -0.062842 -0.244271
v 0.393189 -0.038519 -0.266620
v 0.306776 -0.038426 -0.194420
v 0.338316 -0.014150 -0.219512
v 0.345252 -0.008814 -0.225019
v 0.373252 0.021300 -0.246793
v 0.421891 0.062842 -0.285190
v 0.420460 -0.012377 -0.287998
v 0.290944 -0.008814 0.288570
v 0.280190 -0.016949 0.280608
v 0.325737 -0.042920 0.331852
v 0.332434 -0.037321 0.336656
v 0.320537 0.021300 0.308239
v 0.370536 0.062842 0.344180
v 0.359407 -0.012377 0.355310
v 0.251894 -0.038426 0.259493
v 0.301994 -0.062842 0.314676
v 0.393189 -0.038519 -0.266620
v 0.393189 -0.038519 -0.266620
v 0.420460 -0.012377 -0.287998
v 0.022609 -0.062842 0.042021
v 0.122298 -0.062842 -0.041559
v 0.026053 -0.062842 0.048779
v 0.044852 -0.038426 0.060203
v 0.025128 -0.038426 0.040891
v 0.043498 -0.062842 0.065859
v 0.364929 -0.062842 -0.244271
v 0.455571 -0.037321 -0.148024
v 0.455571 -0.037321 -0.148024
v 0.306776 -0.038426 -0.194420
v 0.338316 -0.014150 -0.219512
v 0.345252 -0.008814 -0.225019
v 0.345252 -0.008814 -0.225019
v 0.373252 0.021300 -0.246793
v 0.373252 0.021300 -0.246793
v 0.421891 0.062842 -0.285190
v 0.421891 0.062842 -0.285190
v 0.325737 -0.042920 0.331852
v 0.332434 -0.037321 0.336656
v 0.332434 -0.037321 0.336656
v 0.359407 -0.012377 0.355310
v 0.370536 0.062842 0.344180
v 0.370536 0.062842 0.344180
v 0.320537 0.021300 0.308239
v 0.320537 0.021300 0.308239
v 0.290944 -0.008814 0.288570
v 0.290944 -0.008814 0.288570
v 0.280190 -0.016949 0.280608
v 0.301994 -0.062842 0.314676
v 0.251894 -0.038426 0.259493
v 0.486637 0.062842 -0.158118
v 0.486637 0.062842 -0.158118
v 0.413959 0.062842 0.300758
v 0.413959 0.062842 0.300758
v 0.486637 0.062842 0.158118
v 0.486637 0.062842 0.158118
v 0.511680 0.062842 0.000000
v 0.511680 0.062842 0.000000
v 0.428123 0.021300 -0.139105
v 0.428123 0.021300 -0.139105
v 0.428123 0.021300 -0.139105
v 0.364182 0.021300 0.264594
v 0.364182 0.021300 0.264594
v 0.364182 0.021300 0.264594
v 0.428121 0.021300 0.139105
v 0.428121 0.021300 0.139105
v 0.428121 0.021300 0.139105
v 0.450153 0.021300 0.000000
v 0.450153 0.021300 0.000000
v 0.450153 0.021300 0.000000
v 0.387531 -0.037321 0.281558
v 0.387531 -0.037321 0.281558
v 0.455570 -0.037321 0.148024
v 0.455570 -0.037321 0.148024
v 0.479015 -0.037321 0.000000
v 0.479015 -0.037321 0.000000
v 0.394581 -0.008814 -0.128207
v 0.394581 -0.008814 -0.128207
v 0.394581 -0.008814 -0.128207
v 0.335650 -0.008814 0.243864
v 0.335650 -0.008814 0.243864
v 0.335650 -0.008814 0.243864
v 0.394580 -0.008814 0.128207
v 0.394580 -0.008814 0.128207
v 0.394580 -0.008814 0.128207
v 0.414886 -0.008814 0.000000
v 0.414886 -0.008814 0.000000
v 0.414886 -0.008814 0.000000
vn -0.6423 0.0202 -0.7662
vn -0.8910 -0.0009 0.4541
vn -0.6854 0.2002 0.7001
vn -0.6406 0.0398 -0.7668
vn -0.6404 0.0408 -0.7670
vn -0.6778 0.2048 0.7062
vn -0.6793 0.2012 0.7057
vn 0.8910 -0.0000 -0.4540
vn 0.9511 -0.0000 -0.3090
vn 0.8600 -0.4270 -0.2795
vn 0.8067 -0.4244 -0.4113
vn 0.7317 -0.4267 0.5316
vn 0.8090 -0.0000 0.5878
vn 0.7071 -0.0000 0.7071
vn 0.6164 -0.4899 0.6164
vn 0.8601 -0.4267 0.2795
vn 0.9511 -0.0000 0.3090
vn 0.9044 -0.4267 -0.0000
vn 1.0000 -0.0000 -0.0000
vn 0.3049 -0.9472 -0.0991
vn 0.3206 -0.9472 -0.0000
vn 0.3049 -0.9472 0.0991
vn 0.2593 -0.9472 0.1884
vn 0.1995 -0.9594 0.1995
vn -0.0000 -1.0000 -0.0000
vn 0.2977 -0.9425 -0.1517
vn -0.5028 0.8255 0.2562
vn -0.3991 0.8255 -0.3991
vn -0.5028 0.8255 -0.2562
vn -0.5574 0.8255 -0.0883
vn -0.5574 0.8255 0.0883
vn 0.5765 -0.7952 -0.1879
vn 0.5438 -0.7920 -0.2775
vn 0.4325 -0.7911 0.4325
vn 0.4910 -0.7948 0.3567
vn 0.5772 -0.7948 0.1875
vn 0.6069 -0.7948 -0.0000
vn -0.2797 0.9558 0.0909
vn -0.4666 0.8519 0.2377
vn -0.2734 0.9518 0.1393
vn -0.3703 0.8519 -0.3703
vn -0.2379 0.9558 -0.1728
vn -0.1834 0.9658 -0.1834
vn -0.4666 0.8519 -0.2377
vn -0.2797 0.9558 -0.0909
vn -0.5172 0.8519 -0.0819
vn -0.2941 0.9558 -0.0000
vn -0.5172 0.8519 0.0819
vn 0.5053 -0.8237 -0.2575
vn 0.4010 -0.8236 0.4010
vn 0.5053 -0.8237 0.2575
vn 0.5601 -0.8236 0.0887
vn 0.5601 -0.8236 -0.0887
vn -0.5827 0.7565 0.2969
vn -0.4624 0.7565 -0.4624
vn -0.5827 0.7565 -0.2969
vn -0.6460 0.7565 -0.1023
vn -0.6460 0.7565 0.1023
vn -0.0000 1.0000 -0.0000
vt 0.185477 0.185477
vt 0.000000 0.000000
vt 0.184913 0.000000
vt 1.000000 0.185477
vt 0.814312 0.000000
vt 1.000000 0.000000
vt 0.330507 0.000000
vt 1.000000 0.920695
vt 1.000000 1.000000
vt 0.814312 0.814312
vt 0.222177 0.000000
vt 0.833805 0.207805
vt 1.000000 0.815087
vt 0.920695 0.920695
vt 0.727774 0.215755
vt 0.561140 0.000000
vt 0.669143 0.000000
vt 0.629651 0.403913
vt 0.725071 0.219655
vt 0.722631 0.553193
vt 0.669143 0.669143
vt 0.561141 0.561141
vt 0.574751 0.537474
vt 0.948714 0.665280
vt 0.729115 0.555146
vt 0.284918 0.222410
vt 0.666412 0.405783
vt 0.922302 0.538771
vt 1.000000 0.574673
vt 1.000000 0.689995
vt 0.689995 0.689995
vt 0.574672 0.574672
vt 0.669908 0.508147
vt 0.669493 0.000000
vt 0.777823 0.000000
vt 0.778341 0.634432
vt 0.420913 0.564277
vt 0.420913 0.625886
vt 0.384444 0.625886
vt 0.384444 0.562916
vt 0.384444 0.848366
vt 0.420913 0.848366
vt 0.420913 0.869419
vt 0.384444 0.874815
vt 0.384444 0.779209
vt 0.420913 0.779209
vt 0.384444 0.702547
vt 0.420913 0.702547
vt 0.419464 0.183929
vt 0.429940 0.250073
vt 0.419463 0.316218
vt 0.389060 0.375888
vt 0.362309 0.356452
vt 0.236981 0.279100
vt 0.228522 0.267459
vt 0.226853 0.265160
vt 0.275186 0.206993
vt 0.392822 0.131642
vt 0.882237 0.817370
vt 0.910607 0.826588
vt 0.879216 0.888197
vt 0.855634 0.869580
vt 0.854317 0.583055
vt 0.875370 0.604108
vt 0.851236 0.621642
vt 0.830075 0.600481
vt 0.910607 0.673265
vt 0.882236 0.682483
vt 0.922749 0.749927
vt 0.892918 0.749927
vt 0.372351 0.630780
vt 0.372351 0.572747
vt 0.384444 0.562916
vt 0.377067 0.413297
vt 0.403780 0.386583
vt 0.416593 0.395892
vt 0.390145 0.422341
vt 0.372351 0.839057
vt 0.372351 0.774315
vt 0.372351 0.702547
vt 0.843484 0.804778
vt 0.865975 0.812086
vt 0.842059 0.859024
vt 0.838696 0.856354
vt 0.823404 0.844188
vt 0.815728 0.610017
vt 0.837403 0.631692
vt 0.818272 0.645592
vt 0.796795 0.624115
vt 0.810514 0.613877
vt 0.865974 0.687767
vt 0.843484 0.695075
vt 0.875819 0.749927
vt 0.852172 0.749927
vt 0.359977 0.636402
vt 0.359977 0.584115
vt 0.372351 0.572747
vt 0.362308 0.402640
vt 0.373820 0.410968
vt 0.359977 0.828362
vt 0.359977 0.768692
vt 0.359977 0.702547
vt 0.815728 0.610017
vt 0.823404 0.798254
vt 0.686850 0.712431
vt 0.696413 0.719996
s 0
usemtl lambert2SG
f 902/869/341 848/870/341 903/871/341
f 902/872/342 904/873/342 848/874/342
f 905/875/343 906/876/343 848/877/343 904/878/343 907/879/343
f 908/880/344 903/881/344 848/877/344 906/882/344 911/883/344 912/884/344 899/885/344
f 915/886/345 917/887/345 901/888/345 899/889/345 912/890/345 913/891/345
f 920/892/346 922/893/346 923/894/346 925/895/346 927/896/346 929/897/346 919/898/346
f 919/899/347 929/900/347 931/901/347 905/902/347 907/903/347 930/904/347
s 1
f 918/905/348 932/906/349 847/907/350 889/908/351
f 849/909/352 934/910/353 924/911/354 896/912/355
f 849/909/352 850/913/356 936/914/357 934/910/353
f 850/913/356 851/915/358 938/916/359 936/914/357
f 851/915/358 847/907/350 932/906/349 938/916/359
f 864/917/360 867/918/361 866/919/362 865/920/363 898/921/364 879/922/365 878/923/365 876/924/365 877/925/365 882/926/366
f 940/927/367 933/928/367 888/929/367 916/930/367
f 895/931/368 935/932/368 943/933/368 926/934/368
f 853/932/369 937/935/369 946/936/369 944/933/369
f 854/935/370 939/937/370 949/938/370 947/936/370
f 855/937/371 852/928/371 941/927/371 950/938/371
f 847/907/350 909/939/372 900/940/373 889/941/351
f 921/942/374 952/943/375 849/944/352 896/945/355
f 850/913/356 849/909/352 952/946/375 954/947/376
f 851/915/358 850/913/356 954/947/376 956/948/377
f 847/907/350 851/915/358 956/948/377 909/939/372
f 868/949/378 958/950/379 914/951/379 885/952/379 884/953/380
f 928/954/381 961/955/381 869/956/382 897/957/383 891/958/381
f 962/955/384 964/959/384 870/960/385 869/956/382
f 965/959/386 967/961/386 871/962/387 870/960/385
f 968/961/388 959/950/388 868/949/378 871/962/387
f 910/939/389 864/963/360 882/964/366 883/965/389
f 898/966/364 865/920/363 953/943/390 893/942/390 892/967/390
f 955/947/391 861/946/391 865/968/363 866/969/362
f 957/948/392 862/947/392 866/969/362 867/970/361
f 860/939/393 863/948/393 867/970/361 864/963/360
f 960/950/394 942/927/394 887/930/394 886/951/394
f 963/955/395 890/971/395 894/934/395 945/933/395
f 857/933/396 948/936/396 966/959/396 873/955/396
f 858/936/397 951/938/397 969/961/397 874/959/397
f 859/938/398 856/927/398 872/950/398 875/961/398
f 869/956/382 870/960/385 871/962/387 868/949/378 884/972/380 881/973/399 880/974/399 897/957/383
