# Blender 5.0.0
# www.blender.org
mtllib plate.mtl
o plate_cell
v 4.686647 0.441645 2.458204
v 1.049740 -0.541996 1.908562
v 4.615837 -0.104613 1.116287
v 5.205376 -0.798726 1.258865
v 1.522577 -1.078620 1.437343
v 2.907837 -1.007209 0.703222
v 3.311750 -0.193106 0.800904
v 5.557420 -0.262433 -0.461928
v 4.725909 -0.829472 -0.227253
v 3.884090 -0.871501 0.219408
v 4.351921 -0.015806 0.298267
v 5.865827 -0.054395 -0.549685
v 5.090435 0.529093 0.106228
v 4.989311 0.476621 0.141205
v 6.055896 0.073424 -0.603946
v 2.550800 -0.948654 2.408021
v 5.180286 -0.137659 2.771803
v 3.790114 -0.838084 2.670571
v 0.670141 -1.051978 1.987919
v 4.099699 0.282899 2.369499
v 3.445256 0.066211 2.283915
v 3.208923 0.041979 2.234877
v 0.576931 -1.057158 1.966501
v 0.778184 -1.061754 1.853603
v 1.569707 -0.132115 1.783503
v 5.098550 0.533316 0.103336
v 1.576377 -0.131615 1.785483
v 5.898805 -0.186171 1.911450
v 6.118200 -0.186091 1.004894
v 6.071924 -0.300659 1.468444
v 4.703976 0.464665 2.220555
v 5.248767 0.281935 1.269357
v 5.098536 0.510222 0.267497
v 5.432401 -0.031978 2.741739
v 5.406361 -0.023267 2.788016
v 4.608123 0.497036 2.388376
v 1.935745 -0.104613 1.892887
v 4.307168 0.349896 2.392620
v 6.055896 0.073424 -0.603946
v 6.118200 -0.186091 1.004894
v 5.557420 -0.262433 -0.461928
v 4.725909 -0.829472 -0.227253
v 3.884090 -0.871501 0.219408
v 2.907837 -1.007209 0.703222
v 1.522577 -1.078620 1.437343
v 4.703976 0.464665 2.220555
v 4.608123 0.497036 2.388376
v 3.311750 -0.193106 0.800904
v 4.351921 -0.015806 0.298267
v 5.865827 -0.054395 -0.549685
v 4.989311 0.476621 0.141205
v 5.090435 0.529093 0.106228
v 2.550800 -0.948654 2.408021
v 3.790114 -0.838084 2.670571
v 5.180286 -0.137659 2.771803
v 0.670141 -1.051978 1.987919
v 4.099699 0.282899 2.369499
v 3.445256 0.066211 2.283915
v 3.208923 0.041979 2.234877
v 0.576931 -1.057158 1.966501
v 0.778184 -1.061754 1.853603
v 1.569707 -0.132115 1.783503
v 5.098550 0.533316 0.103336
v 1.576377 -0.131615 1.785483
v 5.898805 -0.186171 1.911450
v 6.071924 -0.300659 1.468444
v 5.432401 -0.031978 2.741739
v 5.098536 0.510222 0.267497
v 5.248767 0.281935 1.269357
v 5.406361 -0.023267 2.788016
v 1.935745 -0.104613 1.892887
v 4.307168 0.349896 2.392620
vn -0.4558 0.3256 -0.8284
vn -0.2235 0.3100 0.9241
vn -0.2292 0.3139 0.9214
vn -0.4568 0.3262 -0.8276
vn -0.4604 0.3169 -0.8292
vn -0.2716 0.5791 0.7687
vn 0.8483 0.4882 0.2053
vn 0.4991 0.8581 0.1202
vn 0.4995 0.8581 0.1195
vn -0.2729 0.5803 0.7673
vn -0.0473 0.9855 -0.1631
vn -0.1406 0.9610 -0.2381
vn -0.3356 0.9408 -0.0482
vn -0.0597 0.9936 -0.0961
vn -0.3465 0.9142 0.2103
vn 0.3474 -0.9342 0.0810
vn 0.0735 -0.9966 0.0376
vn 0.0806 -0.9962 -0.0327
vn 0.3213 -0.9418 -0.0994
vn 0.0713 -0.9958 0.0578
vn 0.1735 -0.9722 0.1573
vn 0.3941 -0.8398 0.3735
vn 0.4763 -0.8719 0.1137
vn 0.5227 -0.8384 -0.1545
vn -0.5471 0.7952 0.2616
vn -0.4667 0.8814 -0.0731
vn -0.3337 0.8596 -0.3868
vt 0.667473 0.667473
vt 0.000000 0.000000
vt 0.220031 0.000000
vt 0.661028 0.234169
vt 0.862719 0.368745
vt 0.455694 0.315831
vt 0.525466 0.000000
vt 0.827884 0.000000
vt 0.685643 0.000000
vt 1.000000 0.599399
vt 0.748019 0.562079
vt 0.606437 0.436404
vt 0.423689 0.305026
vt 0.190229 0.098592
vt 1.000000 0.000000
vt 1.000000 0.654339
vt 0.791926 0.580583
vt 0.621424 0.347421
vt 1.000000 0.328695
vt 0.259582 0.000000
vt 0.161387 0.000000
vt 0.331162 0.063754
vt 0.406313 0.000000
vt 0.963050 0.000000
vt 0.654339 0.654339
vt 1.000000 0.667473
vt 0.036950 0.000000
vt 0.522875 0.000000
vt 1.000000 0.172116
vt 1.000000 0.474534
vt 0.220031 0.220031
vt 0.220301 0.000000
vt 0.480969 0.380019
vt 0.485394 0.485394
vt 0.253643 0.253643
vt 1.000000 0.253643
vt 1.000000 0.485394
vt 0.826819 0.826819
vt 0.522874 0.522874
vt 0.538183 0.487101
vt 0.689546 0.292211
vt 0.568286 0.000000
vt 0.897676 0.000000
vt 1.000000 0.937332
vt 1.000000 1.000000
vt 0.259582 0.259582
vt 0.102324 0.000000
vt 0.431714 0.000000
vt 0.779699 0.000000
vt 1.000000 0.593687
vt 0.837411 0.136745
vt 0.936998 0.936998
vt 0.991050 0.889776
vt 1.000000 0.838613
vt 0.322062 0.587346
vt 0.320271 0.610178
vt 0.261565 0.580799
vt 0.303767 0.552346
vt -0.210488 -1.203330
vt -0.150794 -1.023666
vt 0.273721 0.290973
vt 0.258468 0.547053
vt 0.024593 0.323043
vt 0.100716 0.256789
vt 0.048941 0.274669
vt 0.084067 0.345891
vt -0.060090 0.119179
vt 0.126968 0.151861
vt 0.128560 0.148034
vt 0.132849 0.162383
vt 0.218174 0.264739
vt 0.100716 0.256789
vt 0.015126 0.237520
vt 0.303417 0.805828
vt 0.313400 0.808269
vt 0.380228 0.811619
vt 0.316662 0.879255
vt 0.281253 0.859419
vt 0.286729 0.841671
vt 0.302547 0.807752
vt 0.299889 0.943116
vt 0.257162 0.935100
vt 0.241591 0.932018
vt 0.231920 0.930067
vt 0.267482 0.875166
vt 0.225110 0.566377
vt 0.222576 0.558002
vt 0.222944 0.558166
vt 0.227499 0.560268
vt 0.237376 0.597076
vt 0.278438 0.628008
vt 0.272385 0.624284
vt 0.297760 0.614404
vt 0.290440 0.613412
s 0
usemtl lambert2SG
f 61/1/1 2/2/1 62/3/1 48/4/1 49/5/1 51/6/1 52/7/1 39/8/1 50/9/1 41/10/1 42/11/1 43/12/1 44/13/1 45/14/1
f 2/15/2 56/16/2 53/17/2 54/18/2 55/19/2 70/20/2 1/2/2 57/21/2 58/22/2 59/23/2
f 60/24/3 56/25/3 2/2/3
f 61/26/4 60/27/4 2/15/4
f 63/28/5 39/29/5 52/30/5
f 62/31/6 2/2/6 64/32/6
f 66/33/7 40/34/7 65/35/7
f 65/36/8 40/37/8 39/38/8 63/39/8 68/40/8 69/41/8 46/42/8 67/43/8
f 47/44/9 1/45/9 70/46/9 67/47/9 46/48/9
f 64/49/10 2/15/10 59/50/10 71/51/10
f 1/45/10 47/52/10 72/53/10 57/54/10
s 1
f 22/55/11 21/56/12 3/57/13 7/58/14 25/59/11 27/60/11 37/61/11
f 3/57/13 11/62/15 7/58/14
f 4/63/16 6/64/17 10/65/18 9/66/19
f 16/67/20 19/68/20 23/69/20 24/70/20 5/71/20 6/72/17 4/63/16 18/73/21
f 35/74/22 17/75/22 18/76/21 4/77/16 30/78/23 28/79/22 34/80/22
f 30/78/23 4/77/16 9/81/19 8/82/24 12/83/24 15/84/24 29/85/24
f 33/86/25 26/87/25 13/88/25 14/89/25 11/62/15 3/57/13 32/90/26
f 36/91/27 31/92/27 32/90/26 3/57/13 21/56/12 20/93/27 38/94/27
o plate_cell.001
v 3.322746 -0.851081 3.136765
v 4.858430 0.509362 2.580380
v 4.687865 0.442211 2.461024
v 1.045603 -0.543503 1.910618
v 0.526528 -0.653704 1.969202
v 4.485710 0.198573 4.234634
v 0.573383 -1.057108 1.968181
v 0.556212 -1.057482 1.970085
v -0.736937 -0.793483 2.682600
v -0.665978 -0.760603 2.753754
v -0.629953 -0.748015 2.771641
v 2.095989 0.198573 4.117472
v 3.181608 0.104686 2.546898
v 3.368681 0.509099 4.157850
v 3.212066 0.042812 2.238007
v 4.085474 0.279184 2.369993
v 0.668287 -1.051874 1.989580
v 3.443221 0.066508 2.285945
v -0.635761 -0.859326 2.628812
v -0.283596 -1.038482 2.439421
v -0.340147 -0.995277 2.469208
v 4.454019 0.598687 4.204709
v 5.512084 0.600249 3.102728
v 5.575386 0.600032 3.036848
v 5.579836 0.581384 3.035146
v 5.669919 0.198573 3.001541
v 5.406581 -0.021975 2.790628
v 5.180518 -0.136521 2.774065
v 2.553724 -0.948284 2.410781
v 3.788249 -0.838136 2.672431
v 0.573383 -1.057108 1.968181
v 0.556212 -1.057482 1.970085
v -0.736937 -0.793483 2.682600
v -0.665978 -0.760603 2.753754
v -0.629953 -0.748015 2.771641
v 2.095989 0.198573 4.117472
v 3.368681 0.509099 4.157850
v 3.181608 0.104686 2.546898
v 3.212066 0.042812 2.238007
v 4.085474 0.279184 2.369993
v 3.443221 0.066508 2.285945
v 0.668287 -1.051874 1.989580
v -0.635761 -0.859326 2.628812
v -0.283596 -1.038482 2.439421
v -0.340147 -0.995277 2.469208
v 4.454019 0.598687 4.204709
v 5.512084 0.600249 3.102728
v 5.575386 0.600032 3.036848
v 5.579836 0.581384 3.035146
v 5.669919 0.198573 3.001541
v 5.406581 -0.021975 2.790628
v 5.180518 -0.136521 2.774065
v 2.553724 -0.948284 2.410781
v 3.788249 -0.838136 2.672431
vn -0.1100 -0.0103 -0.9939
vn -0.2259 0.9504 -0.2139
vn 0.2235 -0.3096 -0.9242
vn -0.2252 0.9508 -0.2125
vn 0.2253 -0.3107 -0.9234
vn -0.4881 -0.0378 -0.8719
vn -0.0789 0.9941 -0.0743
vn -0.0767 0.9941 -0.0770
vn 0.5085 0.1978 -0.8380
vn 0.5095 0.1935 -0.8384
vn 0.2243 -0.3090 -0.9242
vn -0.1141 -0.7548 0.6460
vn -0.2095 -0.7912 0.5745
vn -0.0997 -0.7483 0.6558
vn -0.0427 -0.8281 0.5589
vn 0.0932 -0.9039 0.4175
vn 0.3656 -0.3817 0.8489
vn -0.0671 -0.6855 0.7250
vn -0.0666 -0.7326 0.6774
vn 0.3669 0.0982 0.9251
vn -0.0488 0.0706 0.9963
vn -0.0584 0.9777 -0.2016
vn -0.1516 0.9449 -0.2902
vn -0.1877 0.9273 -0.3239
vn 0.0403 -0.9951 0.0905
vn 0.2928 -0.9089 0.2969
vn 0.3957 -0.8365 0.3789
vn 0.6425 -0.4553 0.6163
vn 0.7170 0.1083 0.6886
vn -0.2462 0.8927 -0.3774
vt 1.000000 0.000000
vt 1.000000 1.000000
vt 0.032623 0.032623
vt 0.040279 0.000000
vt 0.000000 0.000000
vt 0.308130 0.000000
vt 0.825137 0.474273
vt 1.000000 0.637286
vt 0.671704 0.671704
vt 0.621633 0.273885
vt 0.791443 0.211523
vt 1.000000 0.346611
vt 0.405188 0.405188
vt 0.331813 0.269312
vt 0.165389 0.165389
vt 0.868581 0.384322
vt 1.000000 0.405188
vt 0.637286 0.637286
vt 0.853671 0.070280
vt 0.074191 0.000000
vt 1.000000 0.165389
vt 1.000000 0.032624
vt 0.346611 0.346611
vt 0.691870 0.000000
vt 1.000000 0.959721
vt 0.797180 0.695875
vt 0.784268 0.579261
vt 0.715174 0.181627
vt 0.693431 0.000000
vt 1.000000 0.925809
vt 0.698073 0.651388
vt 0.693431 0.693431
vt 1.000000 0.477138
vt 0.477138 0.477138
vt 0.421466 0.000000
vt 0.421466 0.421466
vt 0.684043 0.174344
vt 1.000000 0.259819
vt 0.259819 0.259819
vt 1.000000 0.671704
vt 0.568130 0.705923
vt 0.582049 0.721772
vt 0.571559 0.710857
vt 0.565016 0.725730
vt 0.401220 0.789283
vt 0.333275 0.750204
vt 0.421724 0.709731
vt 0.566269 0.706053
vt 0.568130 0.705923
vt 0.571558 0.710857
vt 0.571503 0.729386
vt 0.324060 0.736495
vt 0.366847 0.721131
vt 0.322125 0.587900
vt 0.333494 0.616796
vt 0.320373 0.610230
vt 0.128606 0.146934
vt 0.128523 0.147810
vt 0.126908 0.151712
vt -0.059135 0.120004
vt 0.015114 0.237408
vt 0.012000 0.209278
vt 0.132032 0.102192
vt 0.303393 0.805705
vt 0.291058 0.793298
vt 0.380312 0.811530
vt 0.313377 0.808164
vt 0.281696 0.781045
vt 0.281265 0.780421
vt 0.283653 0.777954
vt 0.291058 0.793298
vt 0.333494 0.616796
vt 0.298290 0.614514
s 0
usemtl lambert2SG
f 77/95/28 76/96/28 103/97/28 104/98/28
f 77/99/29 105/100/29 106/101/29 107/102/29 76/96/29
f 75/96/30 124/103/30 126/104/30 125/105/30 114/106/30 76/96/30 111/107/30 113/108/30 112/109/30
f 110/110/31 111/111/31 76/96/31 107/112/31 108/113/31 109/114/31 74/99/31 75/95/31 112/115/31
f 103/116/32 76/96/32 114/117/32
f 105/118/33 77/95/33 104/119/33 116/120/33 117/121/33 115/122/33
f 119/123/34 74/95/34 109/124/34 118/125/34
f 74/96/35 119/126/35 120/127/35
f 74/96/36 120/128/36 121/129/36 75/95/36
f 75/96/37 121/130/37 122/131/37 123/132/37
f 75/96/38 123/133/38 124/134/38
s 1
f 82/135/39 81/136/40 91/137/41
f 92/138/42 73/139/43 78/140/44 84/141/45 83/142/46 82/143/39 91/144/41 93/145/46
f 84/141/45 78/140/44 94/146/47 86/147/48
f 87/148/49 85/149/50 90/150/51
f 80/151/52 79/152/52 89/153/52 101/154/52 102/155/53 73/156/43 92/157/42
f 99/158/54 98/159/55 78/140/44 73/139/43 102/160/53 100/161/54
f 97/162/56 96/163/56 95/164/56 94/146/47 78/140/44 98/165/55
f 90/150/51 85/166/50 88/167/57
o plate_cell.002
v -4.388916 -0.851081 1.271744
v -5.841156 1.000371 1.692551
v -4.422211 1.000371 -4.174698
v -5.337868 1.222611 1.546707
v -4.041183 1.222611 -3.814987
v -3.891846 0.139005 1.127701
v -2.946434 0.139005 -2.781509
v -6.842247 1.000371 -1.654770
v -5.589516 1.271070 1.619614
v -4.231697 1.271070 -3.994827
v -6.252701 1.222611 -1.512192
v -5.253990 0.835055 1.522415
v -3.977676 0.835055 -3.755051
v -5.925041 0.198573 1.716843
v -4.615829 -0.104613 -1.116318
v -6.547470 1.271070 -1.583481
v -6.154442 0.835055 -1.488419
v -2.953936 0.198573 -4.159535
v -4.433958 0.852043 -4.185786
v -6.858423 0.868363 -1.658679
v -6.545060 0.198573 -0.356299
v -5.502271 -0.387295 -0.031270
v -2.419452 -0.312591 -3.478755
v -4.726379 -0.829441 0.225768
v -2.046309 -0.601487 -3.168761
v -2.515865 -0.985636 -1.733712
v -4.085181 -0.860425 -0.377637
v -3.429263 -0.959893 -0.829357
v -3.326870 -0.907520 1.581246
v -2.583893 -0.242497 -0.624911
v -2.791063 -1.017804 -0.675014
v -3.043434 -0.917803 0.441907
v -2.248933 -0.104613 -1.802151
v -3.341878 0.198573 2.887775
v -3.123895 1.000371 2.924253
v -3.012851 1.271070 2.787591
v -2.982981 1.222611 2.614149
v -3.067484 0.835055 2.513531
v -2.883746 -0.005233 0.835591
v -3.034575 0.074817 1.525819
v -3.348410 -0.532604 2.089717
v -3.076323 0.391736 2.049067
v -1.399406 1.222611 -3.685469
v -1.343505 1.271070 -3.853237
v -1.960835 -0.426046 -3.310983
v -1.962542 0.072137 -2.742316
v -1.820312 0.345424 -3.000008
v -1.522021 0.835055 -3.634644
v -1.376954 1.000371 -4.025399
v -1.587357 0.198573 -4.092535
v -2.953936 0.198573 -4.159535
v -4.433958 0.852043 -4.185786
v -5.502271 -0.387295 -0.031270
v -4.726379 -0.829441 0.225768
v -6.545060 0.198573 -0.356299
v -6.858423 0.868363 -1.658679
v -2.419452 -0.312591 -3.478755
v -4.085181 -0.860425 -0.377637
v -2.046309 -0.601487 -3.168761
v -2.515865 -0.985636 -1.733712
v -3.429263 -0.959893 -0.829357
v -2.583893 -0.242497 -0.624911
v -2.248933 -0.104613 -1.802151
v -3.326870 -0.907520 1.581246
v -3.043434 -0.917803 0.441907
v -2.791063 -1.017804 -0.675014
v -3.012851 1.271070 2.787591
v -2.982981 1.222611 2.614149
v -3.123895 1.000371 2.924253
v -3.341878 0.198573 2.887775
v -3.348410 -0.532604 2.089717
v -2.883746 -0.005233 0.835591
v -3.034575 0.074817 1.525819
v -3.076323 0.391736 2.049067
v -3.067484 0.835055 2.513531
v -1.399406 1.222611 -3.685469
v -1.343505 1.271070 -3.853237
v -1.376954 1.000371 -4.025399
v -1.587357 0.198573 -4.092535
v -1.522021 0.835055 -3.634644
v -1.820312 0.345424 -3.000008
v -1.962542 0.072137 -2.742316
v -1.960835 -0.426046 -3.310983
vn 0.9352 -0.2650 0.2350
vn -0.3727 -0.8586 -0.3519
vn -0.2863 -0.9044 0.3162
vn -0.1957 -0.9074 0.3720
vn -0.2841 -0.7144 0.6395
vn -0.3950 -0.2731 0.8772
vn -0.7170 -0.3770 0.5863
vn -0.3879 0.3421 0.8558
vn -0.7076 0.3764 0.5980
vn 0.0768 0.9969 0.0193
vn 0.3117 0.9472 0.0755
vn 0.2799 0.9066 -0.3159
vn 0.2182 0.8964 -0.3857
vn 0.1021 0.9857 -0.1342
vn 0.0497 0.9839 0.1715
vn 0.0063 0.8966 0.4428
vn 0.0992 0.9079 0.4072
vn 0.0497 -0.1675 -0.9846
vn -0.3256 0.0961 -0.9406
vn -0.3562 0.3764 -0.8553
vn 0.0460 0.3415 -0.9387
vn 0.0488 -0.3088 -0.9499
vn 0.0356 -0.7800 -0.6248
vn -0.0732 -0.9972 -0.0170
vn -0.0712 -0.9975 -0.0039
vn -0.0781 -0.9957 -0.0506
vn -0.3127 -0.9456 0.0901
vn -0.0681 -0.9975 0.0167
vn -0.9426 -0.1807 0.2809
vn -0.5245 -0.8374 0.1538
vn -0.8803 0.4240 -0.2129
vn -0.9795 0.1247 -0.1583
vn -0.1589 0.9230 0.3505
vn -0.2925 0.8940 0.3395
vn 0.2781 0.7392 -0.6135
vn 0.4588 0.7813 -0.4232
vn -0.1050 0.8940 -0.4356
vn 0.0192 0.9202 -0.3909
vn 0.2147 0.7813 0.5860
vn -0.0328 0.7417 0.6700
vn -0.3903 0.9158 -0.0944
vn 0.5302 0.8381 0.1282
vn 0.3879 0.4299 -0.8153
vn 0.6432 0.5243 -0.5579
vn 0.2924 0.7815 -0.5511
vn 0.3124 0.5267 0.7906
vn -0.0420 0.4330 0.9004
vn -0.0251 0.7881 0.6150
vn 0.7963 0.5734 0.1926
vt 0.072844 0.037203
vt 0.192088 0.021275
vt 0.389009 0.051350
vt 0.514833 0.109420
vt 0.550642 0.090196
vt 0.703825 0.295568
vt 0.606100 0.501958
vt 0.696664 0.471685
vt 0.774086 0.351773
vt 0.848352 0.184028
vt 0.874414 0.037374
vt 0.898141 0.019041
vt 0.906268 0.121481
vt 0.874195 0.424891
vt 0.747634 0.701557
vt 0.714131 0.557586
vt 0.468056 0.315404
vt 0.165620 0.050820
vt 1.000000 0.329398
vt 1.000000 0.706597
vt 0.915398 0.659392
vt 0.659564 0.609030
vt 0.154696 0.086598
vt 0.053155 0.018861
vt 0.139065 0.049867
vt 0.293403 0.000000
vt 0.670602 0.000000
vt 0.645222 0.232474
vt 0.547468 0.423770
vt 0.573530 0.021794
vt 0.719674 0.245457
vt 0.916089 0.542888
vt 0.975129 0.819111
vt 0.348608 0.059583
vt 0.766826 0.075466
vt 0.704247 0.578377
vt 0.669166 0.617987
vt 0.664871 0.623252
vt 0.609879 0.582675
vt 0.691270 0.501021
vt 0.586090 0.562162
vt 0.671964 0.474105
vt 0.609879 0.582675
vt 0.492825 0.421218
vt 0.557218 0.374924
vt 0.567503 0.467993
vt 0.541660 0.493303
vt 0.548028 0.510981
vt 0.570074 0.621686
vt 0.440321 0.351928
vt 0.473320 0.334859
vt 0.428356 0.230873
vt 0.496095 0.226681
vt 0.499197 0.232471
vt 0.390164 0.288295
vt 0.380113 0.257372
vt 0.466187 0.297074
vt 0.428356 0.230873
vt 0.380113 0.257372
vt 0.559909 0.412907
vt 0.453008 0.301546
vt 0.304646 0.114156
vt 0.329247 0.100715
vt 0.364841 0.188566
vt 0.252611 0.034703
vt 0.295407 0.012000
vt 0.337691 0.033207
vt 0.386583 0.126750
vt 0.329247 0.100715
vt 0.304646 0.114156
vt 1.641371 1.583536
vt 0.761058 0.470019
vt 0.761910 0.519117
vt 0.751283 0.558610
vt 0.799626 0.418338
vt 0.800604 0.423592
vt 0.939507 0.430716
vt 0.939239 0.436838
vt 0.800604 0.423591
vt 0.576021 0.554913
vt 0.656418 0.472051
vt 0.572348 0.548723
vt 0.645685 0.472700
vt 0.496565 0.248118
vt 0.393753 0.300063
vt 0.390164 0.288295
vt 0.492801 0.258252
vt 0.398356 0.305418
vt 0.651622 0.307126
vt 0.637701 0.317067
vt 0.627423 0.324400
vt 0.564590 0.535807
vt 0.630454 0.467712
vt 0.525244 0.484747
vt 0.492859 0.274502
vt 0.407843 0.316814
vt 0.440321 0.351928
vt 0.457805 0.410728
vt 0.614731 0.333504
s 0
usemtl lambert2SG
f 202/168/58 206/169/58 207/170/58 208/171/58 189/172/58 188/173/58 198/174/58 199/175/58 200/176/58 201/177/58 194/178/58 193/179/58 195/180/58 196/181/58 197/182/58 190/183/58 191/184/58 192/185/58 186/186/58 185/187/58 209/188/58 205/189/58 204/190/58 203/191/58
f 183/192/59 185/193/59 186/194/59 187/195/59 184/196/59 180/197/59 179/198/59 181/199/59 182/200/59 178/201/59 177/202/59
s 1
f 127/203/60 155/204/61 167/205/62 160/206/63 140/207/64
f 161/208/65 128/209/66 140/207/64 160/210/63
f 156/211/67 141/212/68 132/213/69 166/214/70 165/215/71
f 159/216/72 172/217/73 133/218/74 141/212/68 156/211/67
f 144/219/75 145/220/76 129/221/77 175/222/78 176/223/79
f 149/224/80 144/225/75 176/226/79 171/227/80 151/228/80
f 157/229/81 154/230/82 152/231/83
f 155/232/61 127/233/60 150/234/84 153/235/85 154/236/82 157/237/81 158/238/85
f 127/203/60 140/207/64 147/239/86 148/240/87 150/241/84
f 128/209/66 134/242/88 146/243/89 147/239/86 140/207/64
f 134/242/88 129/244/77 145/245/76 146/246/89
f 162/247/90 135/248/91 128/209/66 161/208/65
f 163/249/92 130/250/93 135/248/91 162/247/90
f 136/251/94 170/252/95 175/253/78 129/221/77
f 136/251/94 131/254/96 169/255/97 170/252/95
f 129/221/77 134/256/88 142/257/98 136/251/94
f 134/256/88 128/209/66 135/248/91 142/257/98
f 142/257/98 135/248/91 130/250/93 137/258/99
f 136/251/94 142/257/98 137/258/99 131/254/96
f 164/259/100 138/260/101 130/250/93 163/249/92
f 168/261/102 166/214/70 132/213/69 138/260/101 164/259/100
f 169/255/97 131/254/96 139/262/103 174/263/104
f 139/262/103 133/218/74 172/264/73 173/265/105 174/263/104
f 131/254/96 137/258/99 143/266/106 139/262/103
f 137/258/99 130/250/93 138/260/101 143/266/106
f 143/266/106 138/260/101 132/213/69 141/212/68
f 139/262/103 143/266/106 141/212/68 133/218/74
o plate_cell.003
v 4.041191 1.222611 3.814957
v 4.857578 0.510867 2.580049
v 4.686177 0.442845 2.460245
v 1.047484 -0.541485 1.909548
v 2.946434 0.139005 2.781479
v 0.526984 -0.651275 1.968434
v 4.231697 1.271070 3.994827
v -0.864464 1.222611 3.574448
v 3.977684 0.835055 3.755020
v -0.945961 1.000371 3.911484
v -0.638161 -0.104613 2.638718
v -0.959557 0.198573 3.967667
v -0.905205 1.271070 3.742966
v -0.850868 0.835055 3.518295
v 1.574702 -0.131479 1.787038
v 1.566738 -0.132064 1.784758
v 5.032035 0.835055 2.657137
v 4.608000 0.498053 2.390643
v 5.352970 1.271070 2.827268
v 5.430775 1.155996 2.907028
v 5.139141 1.222611 2.671690
v 3.204057 0.041906 2.235934
v 1.932087 -0.104613 1.893947
v 4.306630 0.350689 2.394845
v 4.106254 0.285966 2.372477
v 0.541068 -0.160501 1.859183
v 3.198823 0.051581 2.284370
v 4.045833 0.274396 2.384527
v -2.440953 1.000371 3.233822
v -2.309336 1.271070 3.106487
v -1.968004 0.835055 3.011911
v -2.111304 1.222611 3.009270
v 4.326415 1.136481 4.084242
v 4.064093 1.000371 4.157110
v 3.367710 0.510904 4.157675
v 5.439416 1.143183 2.915932
v 3.348432 0.506158 4.157066
v 2.087739 0.198573 4.117068
v -0.740423 -0.791557 2.683982
v -0.666844 -0.757773 2.757335
v 3.172825 0.105968 2.555659
v -1.944417 -0.102872 3.193438
v -2.336654 0.198573 3.343437
v -0.596902 -0.124863 2.468119
v -0.792065 -0.093089 2.567245
v -0.843806 -0.062749 2.588984
v 1.574702 -0.131479 1.787038
v 1.566738 -0.132064 1.784758
v 5.352970 1.271070 2.827268
v 5.430775 1.155996 2.907028
v 5.032035 0.835055 2.657137
v 4.608000 0.498053 2.390643
v 5.139141 1.222611 2.671690
v 3.204057 0.041906 2.235934
v 1.932087 -0.104613 1.893947
v 4.306630 0.350689 2.394845
v 4.106254 0.285966 2.372477
v 0.541068 -0.160501 1.859183
v 3.198823 0.051581 2.284370
v 4.045833 0.274396 2.384527
v -2.440953 1.000371 3.233822
v -2.309336 1.271070 3.106487
v -2.111304 1.222611 3.009270
v -1.968004 0.835055 3.011911
v 4.326415 1.136481 4.084242
v 4.064093 1.000371 4.157110
v 3.367710 0.510904 4.157675
v 5.439416 1.143183 2.915932
v 3.348432 0.506158 4.157066
v 2.087739 0.198573 4.117068
v -0.666844 -0.757773 2.757335
v -0.740423 -0.791557 2.683982
v 3.172825 0.105968 2.555659
v -0.596902 -0.124863 2.468119
v -0.792065 -0.093089 2.567245
v -1.944417 -0.102872 3.193438
v -2.336654 0.198573 3.343437
v -0.843806 -0.062749 2.588984
vn 0.2644 -0.5720 -0.7765
vn -0.4686 -0.1792 -0.8651
vn 0.6029 -0.1371 -0.7859
vn 0.2731 -0.5804 -0.7672
vn 0.2247 -0.9506 0.2142
vn 0.2251 -0.9508 0.2127
vn -0.0648 -0.2150 -0.9745
vn 0.6037 -0.1385 -0.7851
vn 0.2271 -0.9500 0.2145
vn -0.1598 -0.7807 0.6041
vn -0.2090 -0.3833 0.8997
vn -0.3866 -0.2546 0.8864
vn -0.2306 -0.7710 0.5936
vn -0.0489 -0.0597 0.9970
vn -0.0488 0.0706 0.9963
vn -0.0437 0.4522 0.8909
vn -0.2237 0.3069 0.9251
vn -0.3928 0.3079 0.8665
vn 0.1040 0.8883 -0.4473
vn -0.0070 0.9875 -0.1572
vn 0.2593 0.8128 -0.5216
vn -0.0987 0.8972 -0.4304
vn -0.1849 0.9396 -0.2882
vn -0.0526 0.9819 -0.1817
vn -0.0976 0.9097 0.4036
vn -0.2354 0.8216 0.5193
vn 0.2535 0.6527 0.7139
vn 0.1050 0.8940 0.4357
vn -0.2147 0.7813 -0.5860
vn 0.1689 0.6957 -0.6982
vn 0.2561 0.7844 -0.5649
vn 0.5183 0.6954 0.4977
vn 0.2333 0.9462 0.2241
vn -0.4669 0.7622 -0.4484
vn 0.2073 0.4470 -0.8702
vn 0.3879 0.3429 -0.8555
vn -0.3042 0.5232 -0.7961
vn 0.2999 0.6880 -0.6609
vn -0.5766 0.5584 -0.5964
vn -0.3098 0.8696 -0.3846
vn 0.5055 -0.7187 0.4774
vt 1.000000 0.219840
vt 0.779871 0.000000
vt 1.000000 0.000000
vt 0.973701 0.700696
vt 0.248775 0.248775
vt 1.000000 1.000000
vt 0.691004 0.691004
vt 0.710313 0.365516
vt 0.745943 0.256483
vt 0.837557 0.039467
vt 0.974762 0.209451
vt 0.950176 0.237648
vt 0.753705 0.082049
vt 0.947549 0.637023
vt 0.946436 0.651040
vt 0.187767 0.000000
vt 1.000000 0.062862
vt 0.582764 0.029458
vt 0.279109 0.167168
vt 0.148348 0.091619
vt 0.407322 0.000000
vt 1.000000 0.220129
vt 0.863951 0.162654
vt 0.062862 0.062862
vt 0.000000 0.000000
vt 0.159377 0.000000
vt 0.110008 0.008659
vt 0.407322 0.407322
vt 0.357607 0.000000
vt 0.153959 0.000000
vt 0.159377 0.159377
vt 0.667920 0.040456
vt 0.691004 0.000000
vt 1.000000 0.642394
vt 0.902039 0.732750
vt 1.000000 0.846041
vt 0.069769 0.069769
vt 0.281073 0.091679
vt 0.248775 0.000000
vt 0.219840 0.219840
vt 0.780646 0.780646
vt 1.000000 0.812233
vt 0.925683 0.000000
vt 1.000000 0.069769
vt 0.568031 0.705781
vt 0.534816 0.657981
vt 0.578206 0.614451
vt 0.612296 0.684761
vt 0.582120 0.721635
vt 0.422029 0.709591
vt 0.367675 0.720885
vt 0.366838 0.721055
vt 0.328315 0.716729
vt 0.517261 0.632742
vt 0.422029 0.709591
vt 0.578206 0.614451
vt 0.564507 0.584294
vt 0.469418 0.564055
vt 0.465637 0.558626
vt 0.474058 0.559511
vt 0.465637 0.558626
vt 0.345288 0.622698
vt 0.333934 0.617016
vt 0.323961 0.591582
vt 0.322171 0.587085
vt 0.273032 0.288462
vt -0.166108 -1.069767
vt -0.243773 -1.303432
vt 0.439527 0.620459
vt 0.510259 0.622692
vt 0.554070 0.577537
vt 0.316539 0.715053
vt 0.318250 0.707460
vt 0.322563 0.697634
vt 0.506373 0.617116
vt 0.545202 0.576864
vt 0.248794 0.679842
vt 0.249028 0.679158
vt 0.251006 0.672955
vt 0.256657 0.663609
vt 0.545202 0.576864
vt 0.497819 0.604839
vt 0.531470 0.570048
vt 0.323174 0.681624
vt 0.474782 0.558003
vt 0.264851 0.651953
vt 0.278527 0.628135
vt 0.290491 0.613483
vt 0.297561 0.614454
vt 0.299953 0.615232
vt 0.074317 0.000000
vt 1.000000 0.780646
vt 0.385054 0.157129
vt 0.495840 0.099920
s 0
usemtl lambert2SG
f 257/267/107 256/268/107 213/269/107
f 283/270/108 267/271/108 215/272/108 281/273/108 285/274/108 286/275/108 270/276/108 271/277/108 272/278/108 273/279/108 287/280/108 284/281/108
f 259/282/109 212/269/109 261/283/109 260/284/109 262/285/109 258/286/109
f 263/287/110 213/269/110 256/288/110 264/289/110
f 261/290/110 212/291/110 266/292/110 265/293/110
f 213/272/111 263/294/111 268/295/111 215/269/111
f 212/291/111 269/296/111 266/297/111
f 280/298/112 281/299/112 215/269/112 268/300/112 282/301/112 269/302/112 212/272/112 278/303/112 279/304/112
f 213/272/113 215/291/113 267/305/113 257/306/113
f 277/307/114 211/291/114 212/269/114 259/308/114
f 244/309/115 278/310/115 212/272/115 211/291/115
s 1
f 249/311/116 221/312/117 252/313/118 251/314/119 248/315/119
f 247/316/120 221/312/117 249/311/116
f 246/317/121 276/318/121 275/319/122 219/320/123 221/312/117 247/321/120
f 252/322/118 221/312/117 219/320/123 238/323/124
f 220/324/125 253/325/126 254/326/127
f 253/327/126 220/324/125 214/328/128 250/329/129 236/330/130 231/331/130 232/332/130 224/333/130 225/334/130 235/335/130
f 219/320/123 222/336/131 239/337/132 238/323/124
f 274/338/133 216/339/134 222/336/131 219/320/123 275/319/122
f 222/336/131 216/339/134 210/340/135 217/341/136
f 222/336/131 217/341/136 241/342/137 239/337/132
f 245/343/138 229/344/138 228/345/139 216/339/134 274/338/133
f 210/340/135 216/339/134 228/345/139 230/346/140
f 241/347/137 217/341/136 223/348/141 240/349/142
f 217/341/136 210/340/135 218/350/143 223/348/141
f 223/348/141 218/350/143 214/328/128 220/324/125
f 240/349/142 223/348/141 220/324/125 254/326/127 255/351/144
f 226/352/145 218/350/143 210/340/135 230/346/140
f 250/329/129 214/328/128 218/350/143 226/352/145 227/353/146 233/354/146 234/355/146 237/356/146
s 0
f 244/357/147 211/269/147 277/358/147 242/359/147 243/360/147
o plate_cell.004
v 4.688015 0.442659 2.459682
v 4.859636 0.510096 2.578939
v 6.842247 1.000371 1.654739
v 6.252707 1.222611 1.512161
v 6.547478 1.271070 1.583450
v 6.154442 0.835055 1.488388
v 5.100141 0.532343 0.115571
v 5.100472 0.534318 0.102642
v 6.060110 0.075472 -0.600905
v 5.250591 0.283049 1.269798
v 5.100190 0.510731 0.269409
v 5.898591 -0.183961 1.916686
v 6.120151 -0.184060 1.000454
v 5.432964 -0.029912 2.745697
v 5.408241 -0.021722 2.789456
v 4.609307 0.498200 2.389590
v 5.033177 0.835055 2.655947
v 5.354154 1.271070 2.826035
v 5.432219 1.155579 2.906107
v 5.140332 1.222611 2.670450
v 5.637443 1.222611 -0.545066
v 5.589538 0.835055 -0.400458
v 5.851627 1.271070 -0.743235
v 6.209128 0.198573 -0.766968
v 6.085999 1.000371 -0.873905
v 5.671295 0.198573 3.000109
v 5.580870 0.582124 3.033953
v 6.038748 0.198573 2.617486
v 5.929985 -0.094617 2.085833
v 6.567522 0.198573 0.431394
v 5.441016 1.142678 2.914971
v 5.576613 0.600825 3.035445
v 5.553814 1.000371 2.996350
v 6.852484 0.916832 1.657216
v 5.100141 0.532343 0.115571
v 5.100472 0.534318 0.102642
v 5.250591 0.283049 1.269798
v 5.100190 0.510731 0.269409
v 6.060110 0.075472 -0.600905
v 6.120151 -0.184060 1.000454
v 5.898591 -0.183961 1.916686
v 5.432964 -0.029912 2.745697
v 5.408241 -0.021722 2.789456
v 4.609307 0.498200 2.389590
v 5.354154 1.271070 2.826035
v 5.140332 1.222611 2.670450
v 5.033177 0.835055 2.655947
v 5.432219 1.155579 2.906107
v 6.209128 0.198573 -0.766968
v 6.085999 1.000371 -0.873905
v 5.589538 0.835055 -0.400458
v 5.637443 1.222611 -0.545066
v 5.851627 1.271070 -0.743235
v 5.671295 0.198573 3.000109
v 5.580870 0.582124 3.033953
v 6.038748 0.198573 2.617486
v 5.929985 -0.094617 2.085833
v 6.567522 0.198573 0.431394
v 5.441016 1.142678 2.914971
v 5.576613 0.600825 3.035445
v 5.553814 1.000371 2.996350
v 6.852484 0.916832 1.657216
vn -0.5101 -0.8482 -0.1426
vn -0.6030 0.1373 0.7859
vn -0.6415 -0.1998 -0.7407
vn 0.7639 -0.6184 0.1848
vn -0.5091 -0.1940 0.8386
vn -0.5410 0.0513 0.8395
vn -0.6002 0.1326 0.7888
vn -0.5114 -0.1834 0.8396
vn -0.4985 -0.8585 -0.1205
vn 0.3942 -0.8372 0.3790
vn 0.6714 -0.3649 0.6450
vn 0.6597 -0.4038 0.6338
vn 0.5203 -0.8397 -0.1556
vn 0.9138 -0.3004 -0.2733
vn 0.8908 -0.3682 -0.2664
vn 0.8665 0.4266 -0.2592
vn 0.8803 0.4240 0.2129
vn 0.9643 0.1251 0.2332
vn 0.6508 0.4312 0.6250
vn 0.7170 0.1083 0.6886
vn 0.3903 0.9158 0.0944
vn 0.2072 0.9578 0.1990
vn 0.5183 0.6954 0.4977
vn 0.3928 0.9121 -0.1175
vn -0.5302 0.8381 -0.1282
vn -0.5534 0.8163 0.1655
vn -0.5308 0.6771 -0.5097
vn -0.8045 0.5617 -0.1931
vn -0.5802 0.5940 -0.5572
vn -0.8279 0.4947 0.2642
vn -0.4773 0.8592 0.1842
vn -0.4634 0.8800 -0.1042
vn -0.4085 0.8242 -0.3923
vt 1.000000 0.172604
vt 1.000000 0.476197
vt 0.522608 0.000000
vt 0.888015 0.167480
vt 0.446735 0.029831
vt 0.063263 0.063263
vt 0.000000 0.000000
vt 0.811617 0.000000
vt 0.943144 0.091929
vt 0.885439 0.139789
vt 1.000000 0.173095
vt 1.000000 0.477392
vt 0.683672 0.360876
vt 0.440633 0.375322
vt 0.351395 0.318283
vt 0.445445 0.232491
vt 0.884127 0.489708
vt 0.808025 0.782197
vt 1.000000 0.252478
vt 1.000000 0.486638
vt 0.404499 0.202609
vt 0.650451 0.451686
vt 0.420834 0.000000
vt 1.000000 0.000000
vt 1.000000 0.741215
vt 0.684236 0.510959
vt 0.523341 0.000000
vt 0.604502 0.378835
vt 0.780043 0.780043
vt 1.000000 1.000000
vt 0.780043 0.000000
vt 1.000000 0.188383
vt 0.420834 0.420834
vt 0.476659 0.000000
vt 0.258785 0.000000
vt 1.000000 0.063263
vt 0.705395 0.310429
vt 0.509809 0.461822
vt 0.476197 0.476197
vt 0.172604 0.172604
vt 0.513362 0.000000
vt 0.747522 0.000000
vt 0.102324 0.102324
vt 0.302501 0.807563
vt 0.286721 0.841439
vt 0.284901 0.833495
vt 0.277909 0.806720
vt 0.291009 0.793349
vt 0.303328 0.805745
vt 0.267282 0.875291
vt 0.231833 0.930060
vt 0.221621 0.932377
vt 0.233451 0.886882
vt 0.189826 0.925128
vt 0.217931 0.822837
vt 0.220831 0.824577
vt 0.233451 0.886882
vt 0.269509 0.769541
vt 0.281193 0.780450
vt 0.281633 0.781067
vt 0.291009 0.793349
vt 0.179371 0.636197
vt 0.250935 0.672919
vt 0.248950 0.679144
vt 0.248708 0.679829
vt 0.244869 0.686773
vt 0.165236 0.645830
vt 0.152240 0.518300
vt 0.167948 0.522700
vt 0.189814 0.629101
vt 0.167948 0.522700
vt 0.179495 0.528771
vt 0.256586 0.663573
vt 0.250935 0.672919
vt 0.256586 0.663573
vt 0.202763 0.620367
vt 0.264788 0.651921
vt 0.194561 0.535828
vt 0.222489 0.557963
vt 0.222703 0.558614
vt 0.225074 0.566468
vt 0.237306 0.597123
vt 0.237306 0.597123
vt 0.278460 0.628139
s 0
usemtl lambert2SG
f 326/361/148 322/362/148 323/363/148
f 333/364/149 334/365/149 331/366/149 288/367/149 335/368/149 332/369/149
f 336/370/150 326/371/150 323/372/150 338/373/150 339/374/150 340/375/150 337/376/150
f 343/377/151 344/378/151 328/379/151 327/380/151 345/381/151 349/382/151
f 342/383/152 288/384/152 330/385/152 341/386/152
f 289/367/153 347/387/153 348/388/153 346/389/153
f 288/390/154 289/367/154 346/391/154 335/392/154
f 342/393/155 347/394/155 289/384/155 288/390/155
f 330/395/156 288/384/156 331/396/156 324/397/156 325/398/156 322/399/156 326/400/156 327/401/156 328/402/156 329/403/156
s 1
f 301/404/157 299/405/157 316/406/157 315/407/158 313/408/159 302/409/157
f 300/410/160 296/411/160 311/412/161 317/413/162
f 311/412/161 312/414/163 290/415/164 321/416/165 317/417/162
f 321/416/165 290/415/164 320/418/166 319/419/167 314/420/167 313/421/159 315/407/158
f 292/422/168 305/423/169 306/424/170 318/425/170 320/426/166 290/427/164
f 292/422/168 290/427/164 312/428/163 310/429/171
f 291/430/172 292/422/168 310/431/171 308/432/173
f 291/430/172 307/433/174 305/434/169 292/422/168
f 307/435/174 291/430/172 293/436/175 304/437/176
f 291/430/172 308/432/173 309/438/177 293/436/175
f 309/438/177 295/439/178 294/440/178 298/441/178 297/442/179 293/436/175
f 293/436/175 297/443/179 303/444/180 304/437/176
o plate_cell.005
v 0.526017 -0.653285 1.967115
v 0.864464 1.222611 -3.574478
v -0.576271 -1.053691 2.382828
v 0.638161 -0.104613 -2.638718
v 0.945976 1.000371 -3.911514
v 0.576271 -1.053691 -2.382858
v 0.000008 -0.417836 -0.000015
v 0.959557 0.198573 -3.967667
v 0.000008 -1.271070 -0.000015
v 0.905220 1.271070 -3.742996
v 0.850883 0.835055 -3.518295
v -3.339793 0.198573 2.888721
v -3.121588 1.000371 2.925298
v -3.010476 1.271070 2.788667
v -3.065243 0.835055 2.514547
v -3.074235 0.391311 2.049572
v -1.341258 1.271070 -3.853127
v -1.397165 1.222611 -3.685359
v -2.980628 1.222611 2.615216
v -3.325248 -0.907606 1.581719
v -3.346664 -0.532070 2.091090
v -3.042028 -0.917880 0.443013
v -2.582141 -0.242616 -0.624487
v -2.881592 -0.005541 0.834967
v -3.032650 0.074673 1.526713
v -2.246902 -0.104613 -1.802740
v -2.789576 -1.017939 -0.674654
v -2.512815 -0.985603 -1.739083
v -2.045532 -0.603626 -3.166759
v -1.959178 -0.426456 -3.310377
v -1.960660 0.072009 -2.742241
v -1.818086 0.345832 -3.000440
v -1.519914 0.835055 -3.634541
v -1.374786 1.000371 -4.025293
v -1.585292 0.198573 -4.092434
v -2.359828 -0.972792 -2.227750
v -2.144079 -0.912330 -2.908860
v 0.744130 -1.091073 1.569184
v 1.623161 -0.185597 -0.470346
v 2.036692 -0.973253 -1.233943
v 1.358899 -1.142835 0.253357
v 2.399199 0.253891 -2.212824
v 2.264112 0.017129 -1.883640
v 2.642446 -0.316522 -2.644700
v 2.825397 0.198573 -3.121904
v 2.331630 -0.960409 -1.871297
v 1.327982 -1.150567 0.321146
v 1.026473 -1.141326 0.969004
v -0.739979 -0.793189 2.681895
v -0.635179 -0.861229 2.626404
v 0.555959 -1.057594 1.969040
v -0.285633 -1.038588 2.439028
v -0.341942 -0.995721 2.468552
v 0.566716 -0.166901 1.801615
v 1.272794 -0.331467 0.307798
v 2.594547 1.222611 -2.790252
v 2.751825 1.000371 -3.092932
v 2.663268 1.271070 -2.946088
v 2.594718 0.835055 -2.727834
v 0.540026 -0.160769 1.857389
v -0.846943 -0.062110 2.588226
v -0.596274 -0.125172 2.465521
v -0.794408 -0.092914 2.566157
v -2.338912 0.198573 3.342414
v -2.443264 1.000371 3.232774
v -2.311719 1.271070 3.105407
v -2.113713 1.222611 3.008178
v -1.946050 -0.103371 3.192156
v -1.970366 0.835055 3.010841
v -1.341258 1.271070 -3.853127
v -1.397165 1.222611 -3.685359
v -3.339793 0.198573 2.888721
v -3.121588 1.000371 2.925298
v -3.010476 1.271070 2.788667
v -2.980628 1.222611 2.615216
v -3.065243 0.835055 2.514547
v -3.074235 0.391311 2.049572
v -3.325248 -0.907606 1.581719
v -3.346664 -0.532070 2.091090
v -3.032650 0.074673 1.526713
v -2.881592 -0.005541 0.834967
v -2.582141 -0.242616 -0.624487
v -2.246902 -0.104613 -1.802740
v -3.042028 -0.917880 0.443013
v -2.789576 -1.017939 -0.674654
v -1.960660 0.072009 -2.742241
v -1.818086 0.345832 -3.000440
v -1.519914 0.835055 -3.634541
v -1.374786 1.000371 -4.025293
v -1.585292 0.198573 -4.092434
v -1.959178 -0.426456 -3.310377
v -2.045532 -0.603626 -3.166759
v -2.512815 -0.985603 -1.739083
v -2.359828 -0.972792 -2.227750
v -2.144079 -0.912330 -2.908860
v 2.399199 0.253891 -2.212824
v 2.264112 0.017129 -1.883640
v 1.623161 -0.185597 -0.470346
v 2.036692 -0.973253 -1.233943
v 1.358899 -1.142835 0.253357
v 2.331630 -0.960409 -1.871297
v 2.642446 -0.316522 -2.644700
v 2.825397 0.198573 -3.121904
v 0.744130 -1.091073 1.569184
v 0.555959 -1.057594 1.969040
v 1.026473 -1.141326 0.969004
v 1.327982 -1.150567 0.321146
v -0.739979 -0.793189 2.681895
v -0.635179 -0.861229 2.626404
v -0.341942 -0.995721 2.468552
v -0.285633 -1.038588 2.439028
v 1.272794 -0.331467 0.307798
v 0.566716 -0.166901 1.801615
v 2.751825 1.000371 -3.092932
v 2.663268 1.271070 -2.946088
v 2.594547 1.222611 -2.790252
v 2.594718 0.835055 -2.727834
v 0.540026 -0.160769 1.857389
v -0.846943 -0.062110 2.588226
v -0.794408 -0.092914 2.566157
v -0.596274 -0.125172 2.465521
v -2.311719 1.271070 3.105407
v -2.113713 1.222611 3.008178
v -2.443264 1.000371 3.232774
v -2.338912 0.198573 3.342414
v -1.946050 -0.103371 3.192156
v -1.970366 0.835055 3.010841
vn -0.9351 0.2653 -0.2350
vn -0.9532 0.0562 -0.2970
vn 0.9049 0.0679 0.4201
vn 0.9050 0.0656 0.4203
vn 0.4879 0.0403 0.8720
vn 0.9028 0.0689 0.4245
vn -0.3427 -0.4755 0.8102
vn -0.2326 -0.7691 0.5953
vn -0.1658 -0.9333 0.3184
vn -0.0876 -0.9264 0.3663
vn -0.1882 -0.7710 0.6084
vn -0.3382 -0.4926 0.8019
vn -0.0450 -0.7661 0.6411
vn 0.0185 -0.9686 0.2479
vn -0.3921 0.3132 0.8650
vn -0.3961 0.2816 0.8739
vn 0.0713 0.9913 -0.1110
vn 0.0004 1.0000 0.0016
vn 0.0767 0.9969 0.0180
vn 0.1110 0.9883 -0.1049
vn 0.1980 0.9231 -0.3298
vn 0.1702 0.9514 -0.2567
vn -0.0367 0.9913 -0.1265
vn -0.0804 0.9968 -0.0012
vn -0.1135 0.9888 0.0965
vn -0.2172 0.8970 0.3850
vn -0.1030 0.8914 0.4413
vn 0.0263 0.9208 0.3892
vn 0.0409 0.9891 0.1413
vn 0.2237 0.3069 -0.9251
vn 0.2110 -0.3770 -0.9019
vn 0.0520 -0.4735 -0.8793
vn 0.0470 0.2824 -0.9582
vn 0.3560 -0.4137 -0.8379
vn 0.3937 0.3010 -0.8686
vn 0.1751 -0.9162 -0.3604
vn 0.0852 -0.9275 -0.3641
vn 0.2266 -0.7749 -0.5900
vn -0.0047 -0.9321 -0.3622
vn 0.0449 -0.7663 -0.6409
vn -0.0007 -1.0000 0.0005
vn -0.0707 -0.9974 -0.0169
vn -0.0483 -0.9955 -0.0821
vn 0.0970 -0.9938 -0.0537
vn 0.0728 -0.9973 0.0090
vn 0.0412 -0.9951 0.0896
vn -0.0926 -0.9945 0.0481
vn -0.1390 0.9416 0.3066
vn -0.0762 0.9828 0.1681
vn 0.3383 0.5732 -0.7463
vn 0.3636 0.4737 -0.8021
vn 0.0976 0.9097 -0.4036
vn 0.1525 0.9293 -0.3364
vn 0.0162 0.9434 -0.3311
vn -0.1689 0.6957 0.6982
vn -0.0403 0.5695 0.8210
vn -0.3147 0.6474 0.6942
vn 0.3568 0.5535 -0.7526
vn 0.3622 0.5302 -0.7666
vn 0.2966 0.7406 -0.6030
vn -0.2042 0.4464 0.8712
vn -0.3709 0.4632 0.8049
vn -0.0189 0.5151 0.8569
vn 0.0027 0.7199 0.6940
vn -0.2986 0.7132 0.6342
vn 0.4686 0.1793 0.8650
vt 0.977117 0.029399
vt 0.154599 0.068341
vt 0.658877 0.050642
vt 0.914651 0.256544
vt 1.000000 0.294355
vt 1.000000 0.670257
vt 0.899765 0.040400
vt 0.935133 0.246477
vt 0.998214 0.434904
vt 0.916983 0.606310
vt 0.805975 0.659174
vt 0.287664 0.188203
vt 0.131639 0.029200
vt 0.184763 0.057670
vt 0.445857 0.285320
vt 0.789322 0.545986
vt 0.705193 0.656615
vt 0.688698 0.524775
vt 0.673914 0.230685
vt 0.564788 0.070622
vt 0.514512 0.406149
vt 0.388566 0.338171
vt 0.191982 0.171223
vt 0.986805 0.057858
vt 0.670257 0.670257
vt 0.294355 0.294355
vt 0.598152 0.362280
vt 0.657652 0.541603
vt 0.627005 0.017096
vt 0.737740 0.689625
vt 1.000000 0.620968
vt 1.000000 0.992706
vt 1.000000 0.063947
vt 1.000000 0.274338
vt 0.913690 0.425845
vt 0.899342 0.513407
vt 0.644181 0.381933
vt 0.442164 0.256237
vt 0.194839 0.133924
vt 0.228695 0.020980
vt 0.253972 0.041199
vt 0.252416 0.202901
vt 0.434764 0.103483
vt 0.529255 0.145331
vt 0.268335 0.157358
vt 0.305816 0.262503
vt 0.274338 0.274338
vt 0.063947 0.063947
vt 0.000000 0.000000
vt 0.308491 0.000000
vt 0.471500 0.187121
vt 0.795263 0.579350
vt 0.897787 0.694717
vt 0.957955 0.957955
vt 0.620968 0.620968
vt 0.750584 0.000000
vt 1.000000 0.000000
vt 0.992705 0.992705
vt 0.609813 0.582741
vt 0.664805 0.623328
vt 0.669112 0.618047
vt 0.578309 0.720572
vt 0.571624 0.710952
vt 0.582113 0.721601
vt 0.612356 0.684688
vt 0.578277 0.614379
vt 0.571552 0.729315
vt 0.571625 0.710952
vt 0.565109 0.725694
vt 0.564580 0.584219
vt 0.586017 0.562237
vt 0.578277 0.614379
vt 0.465580 0.558544
vt 0.410941 0.480088
vt 0.492770 0.421258
vt 0.547999 0.511096
vt 0.541602 0.493360
vt 0.474128 0.559442
vt 0.439479 0.620200
vt 0.438170 0.619791
vt 0.369752 0.507858
vt 0.465580 0.558544
vt 0.361267 0.539985
vt 0.303111 0.442610
vt 0.353096 0.397045
vt 0.369751 0.507858
vt 0.440258 0.351960
vt 0.570483 0.622798
vt 0.492770 0.421258
vt 0.306993 0.330878
vt 0.290202 0.306760
vt 0.380040 0.257412
vt 0.390086 0.288335
vt 0.227934 0.360738
vt 0.248352 0.384787
vt 0.192833 0.300978
vt 0.249970 0.248956
vt 0.233117 0.345520
vt 0.353959 0.195109
vt 0.452444 0.301011
vt 0.560801 0.413864
vt 0.197060 0.172937
vt 0.304589 0.114187
vt 0.365326 0.189223
vt 0.410448 0.242569
vt 0.192833 0.300978
vt -1.871680 -1.124070
vt 0.155903 0.215065
vt 0.153061 0.211231
vt 0.132100 0.102131
vt 0.141773 0.093501
vt 0.153061 0.211231
vt 0.190451 0.220038
vt 0.146009 0.170962
vt 0.128650 0.146955
vt 0.252546 0.034738
vt 1.676942 1.622931
vt 0.304589 0.114187
vt 0.575947 0.554989
vt 0.586017 0.562237
vt 0.554145 0.577460
vt 0.572275 0.548799
vt 0.554145 0.577460
vt 0.545277 0.576786
vt 0.248352 0.384787
vt 0.313705 0.340507
vt 0.257386 0.392841
vt 0.393673 0.300103
vt 0.317422 0.345837
vt 0.393673 0.300103
vt 0.398276 0.305458
vt 0.262136 0.397693
vt 0.531542 0.569974
vt 0.564523 0.535876
vt 0.525217 0.484834
vt 0.531542 0.569974
vt 0.474864 0.557911
vt 0.325691 0.357701
vt 0.271828 0.408360
vt 0.407770 0.316851
vt 0.457879 0.411134
vt 0.440258 0.351960
vt 0.286984 0.395376
vt 0.271828 0.408360
vt 0.764377 0.020525
vt 0.787866 0.132030
vt 0.726603 0.462339
vt 0.609886 0.586754
vt 0.308491 0.308491
vt 0.249416 0.000000
vt 0.609299 0.278008
vt 0.685467 0.326665
vt 0.717121 0.339721
vt 0.655681 0.200166
vt 0.709900 0.040502
s 0
usemtl lambert2SG
f 419/445/181 438/446/181 439/447/181 440/448/181 441/449/181 442/450/181 434/451/181 433/452/181 427/453/181 428/454/181 421/455/181 422/456/181 423/457/181 424/458/181 425/459/181 426/460/181 429/461/181 430/462/181 431/463/181 432/464/181 435/465/181 436/466/181 437/467/181 420/468/181
f 442/469/182 441/470/182 444/471/182 443/472/182
f 447/473/183 461/474/183 462/475/183 454/476/183 453/477/183 449/478/183 448/479/183 450/480/183 451/481/183 452/482/183 463/483/183 464/484/183 465/485/183 466/486/183 445/487/183 446/488/183
f 455/489/184 456/490/184 449/491/184 453/492/184
f 350/493/185 457/494/185 458/495/185 459/496/185 460/497/185 454/498/185
f 462/499/186 467/500/186 350/501/186 454/502/186
s 1
f 361/503/187 370/504/188 369/505/189 352/506/190 399/507/191 398/508/188 475/509/188 474/510/192
f 402/511/193 399/512/191 352/506/190 401/513/194
f 473/514/195 362/515/196 361/503/187 474/516/192
f 470/517/197 356/518/198 372/519/199 373/520/200 374/521/201 469/522/202
f 409/523/203 403/524/203 404/525/204 356/518/198 470/526/197
f 388/527/205 392/528/206 353/529/207 356/518/198 404/530/204
f 356/518/198 353/529/207 380/531/208 375/532/209 372/533/199
f 354/534/210 357/535/211 384/536/212 383/537/213
f 394/538/214 357/535/211 354/534/210 406/539/215
f 395/540/216 355/541/217 357/535/211 394/538/214 393/542/218
f 384/536/212 357/535/211 355/541/217 386/543/219 378/544/220 379/545/220
f 355/541/217 358/546/221 376/547/222 377/548/223 385/549/223 386/543/219
f 358/546/221 355/541/217 395/550/216 389/551/224 390/552/224 396/553/225
f 401/554/194 352/555/190 358/546/221 396/556/225 397/557/226 387/558/226 400/559/226
f 358/546/221 352/555/190 369/560/189 371/561/227 376/562/222
f 363/563/228 362/564/196 473/514/195 471/565/229
f 368/566/230 363/563/228 471/567/229 472/568/231
f 406/569/215 354/534/210 359/570/232 407/571/233
f 359/570/232 354/534/210 383/537/213 366/572/234
f 351/573/235 359/570/232 366/574/234 367/575/236
f 359/570/232 351/573/235 405/576/237 407/571/233
f 476/577/238 364/578/239 368/566/230 472/568/231
f 374/521/201 365/579/240 364/578/239 476/580/238 468/581/240 469/522/202
f 405/576/237 351/573/235 360/582/241 408/583/242
f 367/575/236 382/584/243 360/582/241 351/573/235
f 353/529/207 360/582/241 382/584/243 381/585/244 380/586/208
f 391/587/245 408/588/242 360/582/241 353/529/207 392/528/206
s 0
f 415/589/246 414/590/246 413/591/246 417/592/246 457/593/246 350/493/246 467/594/246 411/595/246 412/596/246 410/597/246 418/598/246 416/599/246
o plate_cell.006
v 4.422203 1.000371 4.174667
v 4.860742 0.511180 2.581933
v 3.372417 0.511407 4.157870
v 5.440260 1.141999 2.916708
v 5.552459 1.000371 2.997761
v 5.575067 0.602071 3.036859
v 5.512010 0.601639 3.102586
v 4.453881 0.600422 4.204579
v 4.327314 1.135202 4.085091
v 4.067598 1.000371 4.157282
v 5.552459 1.000371 2.997761
v 5.575067 0.602071 3.036859
v 5.440260 1.141999 2.916708
v 5.512010 0.601639 3.102586
v 3.372417 0.511407 4.157870
v 4.453881 0.600422 4.204579
v 4.327314 1.135202 4.085091
v 4.067598 1.000371 4.157282
vn 0.5411 -0.0517 -0.8394
vn 0.0811 -0.9942 0.0713
vn 0.0786 -0.9941 0.0744
vn 0.3669 0.0982 0.9251
vn 0.3562 0.3764 0.8553
vn -0.0484 0.1568 0.9864
vn -0.0488 0.0706 0.9963
vn 0.7170 0.1083 0.6886
vn 0.6552 0.4180 0.6293
vn 0.2535 0.6527 0.7140
vn 0.5183 0.6954 0.4977
vn -0.5058 0.7183 -0.4777
vt 1.000000 0.478616
vt 1.000000 1.000000
vt 0.221188 0.221188
vt 0.439145 0.238874
vt 0.478616 0.478616
vt 1.000000 0.694245
vt 1.000000 0.074522
vt 0.694245 0.694245
vt 0.698900 0.047093
vt 0.324020 0.736435
vt 0.314809 0.722732
vt 0.328182 0.716788
vt 0.366649 0.721117
vt 0.283612 0.777917
vt 0.281211 0.780359
vt 0.269563 0.769485
vt 0.324020 0.736435
vt 0.316523 0.715125
vt 0.328182 0.716788
vt 0.248770 0.679904
vt 0.244952 0.686816
vt 0.386110 0.229524
vt 1.000000 0.221188
vt 0.074522 0.074522
vt 0.495986 0.396060
s 0
usemtl lambert2SG
f 488/600/247 478/601/247 489/602/247 487/603/247
f 478/601/248 488/604/248 490/605/248
f 491/606/249 478/601/249 490/607/249 492/608/249
s 1
f 484/609/250 477/610/251 494/611/252 479/612/253
f 483/613/254 482/614/254 481/615/255 477/610/251 484/616/250
f 477/610/251 493/617/256 494/618/252
f 480/619/257 493/617/256 477/610/251 481/620/255
s 0
f 485/621/258 489/622/258 478/601/258 491/623/258 486/624/258
o plate_cell.007
v 6.940498 0.198573 1.678513
v 6.852775 0.914455 1.657287
v 6.568629 0.198573 0.435094
v 6.120185 -0.184988 1.005579
v 5.901145 -0.184893 1.911865
v 6.073976 -0.299480 1.468940
v 6.041687 0.198573 2.614427
v 5.933241 -0.093672 2.084521
v 6.852775 0.914455 1.657287
v 6.568629 0.198573 0.435094
v 5.901145 -0.184893 1.911865
v 6.073976 -0.299480 1.468940
v 6.120185 -0.184988 1.005579
v 6.041687 0.198573 2.614427
v 5.933241 -0.093672 2.084521
vn -0.8487 -0.4874 -0.2051
vn 0.8947 -0.3909 0.2160
vn 0.5771 -0.6023 0.5515
vn 0.3947 -0.8386 0.3755
vn 0.4755 -0.8722 0.1143
vn 0.5203 -0.8397 -0.1556
vn 0.7656 -0.6012 -0.2290
vn 0.9644 0.1251 0.2332
vn -0.7638 0.6184 -0.1847
vt 1.000000 0.253685
vt 1.000000 0.485206
vt 0.899189 0.294750
vt 0.245762 0.839536
vt 0.277805 0.806827
vt 0.284774 0.833515
vt 0.286634 0.841624
vt 0.281170 0.859372
vt 0.281170 0.859372
vt 0.267407 0.875111
vt 0.233487 0.886741
vt 0.220913 0.824626
vt 0.220913 0.824626
vt 0.351359 0.122999
vt 0.485206 0.485206
vt 0.253685 0.253685
vt 0.329297 0.224295
vt 0.577476 0.136073
vt 0.754247 0.696632
s 0
usemtl lambert2SG
f 505/625/259 507/626/259 506/627/259
s 1
f 495/628/260 508/629/261 509/630/262 499/631/262 500/632/263
f 495/628/260 500/633/263 498/634/264 504/635/265
f 503/636/266 495/628/260 504/635/265
f 503/637/266 508/629/261 495/628/260
s 0
f 497/638/267 507/639/267 505/640/267 502/641/267 501/642/267 496/643/267
o plate_cell.008
v 5.841164 1.000371 -1.692551
v 4.388924 -0.851081 -1.271744
v 5.337868 1.222611 -1.546738
v 3.891853 0.139005 -1.127731
v 1.045952 -0.542540 1.908338
v 0.528667 -0.652797 1.966928
v 5.589516 1.271070 -1.619644
v 5.253990 0.835055 -1.522415
v 5.925041 0.198573 -1.716873
v 5.636738 1.222611 -0.547424
v 5.361758 0.695525 -0.169964
v 5.588721 0.835055 -0.403189
v 6.172699 0.430058 -0.800784
v 6.085269 1.000371 -0.876343
v 5.850954 1.271070 -0.745488
v 5.556236 -0.262865 -0.463650
v 5.866052 -0.053753 -0.552398
v 0.913326 -1.064935 1.776824
v 1.521736 -1.078726 1.436549
v 1.877716 -0.143129 1.607968
v 2.905877 -1.007386 0.702748
v 3.309359 -0.193269 0.800326
v 4.725395 -0.829505 -0.228847
v 3.882797 -0.871572 0.218390
v 4.351372 -0.015621 0.296566
v 1.329715 -1.150410 0.321565
v 1.027836 -1.141154 0.970290
v 0.558273 -1.057602 1.968196
v 1.274570 -0.331346 0.308228
v 1.625343 -0.185285 -0.470978
v 0.542586 -0.160676 1.857372
v 2.038151 -0.973173 -1.232795
v 2.333368 -0.960316 -1.870791
v 2.265679 0.017246 -1.882912
v 2.400952 0.254247 -2.212400
v 2.643893 -0.316965 -2.643563
v 2.596481 0.835055 -2.727035
v 2.665183 1.271070 -2.945220
v 2.827095 0.198573 -3.121135
v 2.753641 1.000371 -3.092109
v 2.596447 1.222611 -2.789391
v 5.099075 0.533973 0.100417
v 6.208280 0.198573 -0.769809
v 5.090091 0.529284 0.103717
v 4.987613 0.476098 0.139242
v 6.055851 0.073913 -0.606741
v 1.566258 -0.132283 1.783181
v 0.573288 -1.057275 1.966528
v 6.085269 1.000371 -0.876343
v 5.850954 1.271070 -0.745488
v 5.636738 1.222611 -0.547424
v 5.588721 0.835055 -0.403189
v 5.361758 0.695525 -0.169964
v 6.172699 0.430058 -0.800784
v 5.556236 -0.262865 -0.463650
v 5.866052 -0.053753 -0.552398
v 0.913326 -1.064935 1.776824
v 1.521736 -1.078726 1.436549
v 2.905877 -1.007386 0.702748
v 3.882797 -0.871572 0.218390
v 4.725395 -0.829505 -0.228847
v 6.055851 0.073913 -0.606741
v 6.208280 0.198573 -0.769809
v 3.309359 -0.193269 0.800326
v 4.351372 -0.015621 0.296566
v 1.877716 -0.143129 1.607968
v 1.329715 -1.150410 0.321565
v 1.027836 -1.141154 0.970290
v 0.558273 -1.057602 1.968196
v 2.038151 -0.973173 -1.232795
v 2.333368 -0.960316 -1.870791
v 1.274570 -0.331346 0.308228
v 0.542586 -0.160676 1.857372
v 1.625343 -0.185285 -0.470978
v 2.665183 1.271070 -2.945220
v 2.753641 1.000371 -3.092109
v 2.827095 0.198573 -3.121135
v 2.643893 -0.316965 -2.643563
v 2.265679 0.017246 -1.882912
v 2.400952 0.254247 -2.212400
v 2.596481 0.835055 -2.727035
v 2.596447 1.222611 -2.789391
v 5.099075 0.533973 0.100417
v 5.090091 0.529284 0.103717
v 4.987613 0.476098 0.139242
v 1.566258 -0.132283 1.783181
v 0.573288 -1.057275 1.966528
vn 0.6413 0.1966 0.7417
vn 0.4560 -0.3252 0.8284
vn 0.4552 -0.3243 0.8292
vn -0.9049 -0.0678 -0.4201
vn 0.6412 0.1953 0.7421
vn 0.4654 -0.3077 0.8299
vn 0.1102 0.0112 0.9938
vn -0.0367 0.9913 -0.1265
vn -0.0892 0.9938 0.0668
vn -0.0670 0.9976 -0.0161
vn -0.2752 0.9101 0.3097
vn -0.2059 0.9120 0.3547
vn -0.1047 0.9865 0.1259
vn -0.2776 0.9495 0.1463
vn 0.3910 0.3208 -0.8627
vn 0.7077 0.3764 -0.5980
vn 0.7163 -0.3800 -0.5852
vn 0.3813 -0.3480 -0.8564
vn 0.2839 -0.9057 -0.3149
vn 0.1773 -0.9294 -0.3238
vn 0.2725 -0.7274 -0.6298
vn 0.3015 -0.9491 -0.0908
vn 0.0766 -0.9967 -0.0276
vn 0.0744 -0.9972 -0.0070
vn 0.0711 -0.9972 0.0232
vn 0.0667 -0.9958 0.0627
vn 0.5257 -0.8367 -0.1533
vn 0.8161 -0.5251 -0.2414
vn 0.9524 0.1083 -0.2848
vn 0.8679 0.4235 -0.2596
vn 0.2925 0.8940 -0.3395
vn 0.2051 0.9768 -0.0613
vn -0.4588 0.7813 0.4232
vn -0.7681 0.5976 0.2297
vn 0.1428 0.9383 -0.3151
vn -0.3062 0.6708 0.6755
vn -0.6397 0.5322 0.5546
vn -0.6984 0.6789 0.2267
vn -0.4578 0.8739 0.1634
vn -0.3786 0.4822 0.7900
vn -0.2931 0.7754 0.5594
vn 0.0646 0.2152 0.9744
vt 0.678147 0.634776
vt 0.617655 0.532457
vt 0.604136 0.184498
vt 0.540053 0.000000
vt 0.769102 0.000000
vt 0.744350 0.467391
vt 0.902992 0.000000
vt 0.908200 0.098153
vt 0.881187 0.304519
vt 0.829783 0.436080
vt 0.813854 0.561930
vt 1.000000 0.599440
vt 1.000000 0.686012
vt 0.171982 0.000000
vt 0.474214 0.000000
vt 0.865558 0.320660
vt 0.505908 0.368802
vt 0.573141 0.233880
vt 0.554191 0.000000
vt 0.220093 0.220093
vt 0.000000 0.000000
vt 0.971373 0.000000
vt 0.902992 0.902992
vt 0.554191 0.554191
vt 0.794853 0.121434
vt 0.799836 0.424884
vt 0.717657 0.619991
vt 0.661128 0.610315
vt 0.521786 0.511079
vt 0.313602 0.051441
vt 0.276282 0.119441
vt 0.035370 0.000000
vt 0.249314 0.000000
vt 0.494778 0.247980
vt 0.724933 0.364646
vt 0.586783 0.493497
vt 0.643479 0.403804
vt 0.732036 0.183996
vt 0.742770 0.037321
vt 0.769583 0.018983
vt 0.829597 0.365432
vt 0.769102 0.769102
vt 0.540053 0.540053
vt 0.522663 0.000000
vt 0.826747 0.000000
vt 0.477337 0.000000
vt 0.474215 0.474215
vt 0.173254 0.000000
vt 0.971373 0.971373
vt 1.000000 0.000000
vt 1.000000 0.964630
vt -0.247870 -1.315760
vt 0.282055 0.310551
vt 0.303845 0.552293
vt 0.369694 0.507897
vt 0.439487 0.620530
vt 0.253070 0.488226
vt 0.303062 0.442654
vt 0.361209 0.540095
vt 0.369694 0.507897
vt 0.258462 0.546983
vt 0.248293 0.384841
vt 0.148032 0.477012
vt 0.124492 0.450409
vt 0.227878 0.360787
vt 0.227878 0.360787
vt 0.125867 0.361949
vt 0.192776 0.301030
vt 0.233063 0.345551
vt 0.192776 0.301030
vt 0.084131 0.345915
vt 0.048952 0.274614
vt 0.100781 0.256733
vt 0.153003 0.211281
vt -1.798896 -1.074433
vt 0.218068 0.264621
vt 0.137950 0.173599
vt 0.128591 0.147859
vt 0.128661 0.147091
vt 0.190474 0.220123
vt 0.153003 0.211281
vt 0.231986 0.930183
vt 0.241518 0.932102
vt 0.257173 0.935182
vt 0.299871 0.943185
vt 0.288100 0.988000
vt 0.212244 0.968439
vt 0.221593 0.932485
vt 0.212441 0.930338
vt 0.221593 0.932484
vt 0.180727 0.958244
vt 0.189799 0.925226
vt 0.163645 0.479949
vt 0.167937 0.522591
vt 0.152227 0.518177
vt 0.174470 0.479920
vt 0.179483 0.528656
vt 0.167937 0.522591
vt 0.257325 0.392898
vt 0.248293 0.384841
vt 0.257325 0.392898
vt 0.262075 0.397750
vt 0.189689 0.485613
vt 0.194549 0.535706
vt 0.222919 0.558040
vt 0.222510 0.557854
vt 0.207632 0.545107
vt 0.227536 0.560172
vt 0.271773 0.408411
vt 0.262075 0.397750
vt 0.286924 0.395430
vt 0.303062 0.442654
vt 1.000000 0.750686
vt 1.000000 1.000000
vt 1.000000 0.220093
s 0
usemtl lambert2SG
f 559/644/268 560/645/268 561/646/268 562/647/268 563/648/268 558/649/268
f 566/650/269 567/651/269 568/652/269 569/653/269 570/654/269 564/655/269 565/656/269 571/657/269 593/658/269 594/659/269 574/660/269 573/661/269 575/662/269
f 595/663/270 514/664/270 596/665/270 566/666/270 575/667/270
f 585/668/271 586/669/271 587/670/271 580/671/271 579/672/271 576/673/271 577/674/271 578/675/271 515/664/271 582/676/271 581/677/271 583/678/271 588/679/271 589/680/271 590/681/271 591/682/271 584/683/271
f 572/684/272 563/685/272 562/686/272 592/687/272 571/688/272
f 592/689/273 593/690/273 571/691/273
f 596/692/274 514/664/274 515/693/274 578/694/274
s 1
f 556/695/275 529/696/275 531/697/276 538/698/277 540/699/275
f 513/700/278 543/701/279 539/702/280 538/703/277 531/697/276 534/704/281
f 549/705/282 510/706/283 518/707/284 548/708/285
f 548/709/285 518/707/284 511/710/286 542/711/287 545/712/288
f 542/713/287 511/710/286 532/714/289 533/715/290 530/716/291 535/717/292 541/718/290
f 528/719/293 527/720/293 557/721/293 537/722/293 536/723/293 535/724/292 530/716/291
f 555/725/294 526/726/294 525/727/294 532/728/289 511/729/286 518/730/284 552/731/295
f 522/732/296 552/733/295 518/730/284 510/734/283 523/735/297
f 510/706/283 516/736/298 524/737/299 523/738/297
f 516/736/298 512/739/300 519/740/301 524/741/299
f 547/742/302 516/736/298 510/706/283 549/743/282
f 512/739/300 516/736/298 547/744/302 550/745/303
f 519/740/301 512/739/300 517/746/304 521/747/305
f 553/748/306 551/749/306 520/750/306 521/747/305 517/746/304 513/700/278 534/704/281 554/751/306
f 546/752/307 517/746/304 512/739/300 550/753/303
f 513/700/278 517/746/304 546/752/307 544/754/308 543/755/279
s 0
f 582/756/309 515/757/309 514/693/309 595/758/309
o plate_cell.009
v -3.322746 -0.851081 -3.136765
v -4.485710 0.198573 -4.234634
v -5.205377 -0.798726 -1.258896
v -6.940498 0.198573 -1.678513
v -2.959796 0.198573 -4.159822
v -4.434184 0.849200 -4.185998
v -6.858659 0.866442 -1.658736
v -6.546110 0.198573 -0.359807
v -4.087761 -0.860283 -0.379666
v -4.727434 -0.829374 0.222500
v -5.501591 -0.388238 -0.034082
v -3.433673 -0.959493 -0.830423
v -2.426344 -0.310886 -3.481276
v -2.047491 -0.604300 -3.166454
v -2.513274 -0.985391 -1.742538
v -2.361066 -0.972635 -2.228918
v -2.145689 -0.912246 -2.909171
v -2.959796 0.198573 -4.159822
v -4.434184 0.849200 -4.185998
v -6.858659 0.866442 -1.658736
v -6.546110 0.198573 -0.359807
v -5.501591 -0.388238 -0.034082
v -4.727434 -0.829374 0.222500
v -4.087761 -0.860283 -0.379666
v -2.426344 -0.310886 -3.481276
v -2.047491 -0.604300 -3.166454
v -3.433673 -0.959493 -0.830423
v -2.513274 -0.985391 -1.742538
v -2.361066 -0.972635 -2.228918
v -2.145689 -0.912246 -2.909171
vn 0.3727 0.8587 0.3517
vn 0.9533 -0.0560 0.2969
vn -0.4168 0.1005 -0.9034
vn 0.0855 -0.6015 -0.7943
vn -0.3608 -0.3749 -0.8540
vn 0.0878 -0.6971 -0.7115
vn 0.0132 -0.9008 -0.4341
vn -0.0976 -0.9008 -0.4232
vn -0.3472 -0.9342 -0.0823
vn -0.0731 -0.9958 -0.0559
vn -0.0743 -0.9967 -0.0321
vn -0.0772 -0.9966 0.0283
vn -0.2965 -0.9507 0.0910
vn -0.8949 -0.3904 -0.2163
vn -0.5218 -0.8389 0.1549
vn -0.6569 -0.7282 0.1955
vn -0.9376 0.1245 -0.3246
vt 0.705372 0.000000
vt 0.832406 0.101086
vt 0.924443 0.234140
vt 0.940232 0.650098
vt 0.967693 0.139687
vt 0.890833 0.315631
vt 0.633979 0.280902
vt 0.443609 0.257514
vt 0.286311 0.111919
vt 0.146975 0.130499
vt 0.330297 0.000000
vt 0.637599 0.402316
vt 0.705372 0.705372
vt 0.330297 0.330297
vt 0.458414 0.342866
vt 0.496036 0.226570
vt 0.428563 0.230759
vt 0.482431 0.201170
vt 0.465745 0.296272
vt 0.451767 0.300231
vt 0.354020 0.195077
vt 0.399015 0.171778
vt 0.428563 0.230759
vt 0.397710 0.063309
vt 0.410343 0.242387
vt 0.365509 0.189371
vt 0.329417 0.100622
vt 0.329417 0.100622
vt 0.386530 0.126517
vt 0.337823 0.033274
vt 0.929924 0.541723
vt 0.818046 0.530553
vt 0.805567 0.450247
vt 0.938058 0.463807
vt 0.751430 0.558548
vt 0.762032 0.519144
vt 0.761176 0.469967
vt 0.800618 0.423668
vt 0.800618 0.423668
vt 0.939234 0.436955
s 0
usemtl lambert2SG
f 622/759/310 621/760/310 614/761/310 615/762/310 616/763/310 617/764/310 618/765/310 619/766/310 620/767/310 623/768/310 624/769/310
f 626/770/311 622/771/311 624/772/311 625/773/311
s 1
f 602/774/312 601/775/313 598/776/314
f 609/777/315 610/778/315 613/779/316 597/780/317 598/776/314 601/781/313
f 599/782/318 597/780/317 613/779/316 612/783/319 611/784/319 608/785/320
f 599/782/318 608/786/320 605/787/321 606/788/322
f 597/789/317 599/790/318 600/791/323 598/792/314
f 600/791/323 599/790/318 606/793/322 607/794/324 604/795/325
f 600/791/323 604/795/325 603/796/326
f 598/792/314 600/791/323 603/797/326 602/798/312
