# Blender 5.0.0
# www.blender.org
mtllib Pot.mtl
o Pot_cell
v 0.000000 0.747149 0.789102
v -0.243846 0.747149 0.750480
v 0.000000 0.747149 0.698165
v -0.215744 0.747149 0.663994
v 0.243846 0.747149 0.750480
v 0.463822 0.747149 0.638397
v 0.638397 0.747149 0.463823
v 0.215744 0.747149 0.663994
v 0.410370 0.747149 0.564827
v 0.564826 0.747149 0.410371
v 0.679522 0.747149 0.383110
v 0.625241 0.747149 0.291800
v 0.606240 0.561719 0.329091
v 0.663714 0.592895 0.414137
v 0.506136 0.578160 0.469061
v 0.638397 0.600561 0.463823
v 0.575458 0.604743 0.526762
v 0.564826 0.574260 0.410371
v -0.307251 0.494454 0.718174
v -0.243846 0.513725 0.750480
v -0.275225 0.479348 0.633687
v 0.000000 0.566738 0.789102
v 0.000000 0.544330 0.698165
v -0.215744 0.497427 0.663994
v 0.215744 0.574394 0.663994
v 0.243846 0.600718 0.750480
v 0.463823 0.612338 0.638397
v 0.410370 0.584675 0.564827
v -0.368722 0.747149 0.686853
v -0.361270 0.709180 0.690650
v -0.330136 0.658850 0.605708
v -0.347466 0.747149 0.596878
v -0.317936 0.491285 0.712730
v -0.293367 0.473967 0.624443
v 0.679522 0.747149 0.383110
v 0.679522 0.747149 0.383110
v 0.625241 0.747149 0.291800
v 0.625241 0.747149 0.291800
v 0.606240 0.561719 0.329091
v 0.663714 0.592895 0.414137
v 0.564826 0.574260 0.410371
v 0.638397 0.600561 0.463823
v 0.575458 0.604743 0.526762
v 0.506136 0.578160 0.469061
v 0.463823 0.612338 0.638397
v 0.243846 0.600718 0.750480
v 0.000000 0.566738 0.789102
v -0.243846 0.513725 0.750480
v -0.307251 0.494454 0.718174
v -0.275225 0.479348 0.633687
v -0.215744 0.497427 0.663994
v 0.000000 0.544330 0.698165
v 0.215744 0.574394 0.663994
v 0.410370 0.584675 0.564827
v -0.368722 0.747149 0.686853
v -0.368722 0.747149 0.686853
v -0.347466 0.747149 0.596878
v -0.347466 0.747149 0.596878
v -0.330136 0.658850 0.605708
v -0.361270 0.709180 0.690650
v -0.293367 0.473967 0.624443
v -0.317936 0.491285 0.712730
v 0.000000 0.747149 0.789102
v -0.243846 0.747149 0.750480
v 0.000000 0.747149 0.698165
v -0.215744 0.747149 0.663994
v 0.243846 0.747149 0.750480
v 0.215744 0.747149 0.663994
v 0.463822 0.747149 0.638397
v 0.410370 0.747149 0.564827
v 0.638397 0.747149 0.463823
v 0.564826 0.747149 0.410371
vn 0.1714 -0.9568 0.2349
vn 0.1707 -0.9567 0.2357
vn -0.9517 -0.2093 -0.2248
vn -0.9515 -0.2118 -0.2232
vn 0.1650 -0.9582 0.2339
vn -0.0171 -0.0000 0.9999
vn -0.0000 -0.0000 1.0000
vn -0.3090 -0.0000 0.9511
vn -0.3314 -0.0000 0.9435
vn 0.3314 -0.0000 -0.9435
vn 0.3090 -0.0000 -0.9511
vn -0.0000 -0.0000 -1.0000
vn 0.0171 -0.0000 -0.9999
vn 0.4540 -0.0000 -0.8910
vn -0.0000 1.0000 -0.0000
vn -0.4540 -0.0000 0.8910
vn -0.3090 -0.0000 -0.9511
vn -0.3004 -0.0000 -0.9538
vn -0.5878 -0.0000 -0.8090
vn -0.8090 -0.0000 -0.5878
vn -0.8143 -0.0000 -0.5805
vn -0.7071 -0.0000 -0.7071
vn -0.8910 -0.0000 -0.4540
vn 0.8444 -0.1875 -0.5019
vn 0.8910 -0.0000 0.4540
vn 0.8090 -0.0000 0.5878
vn 0.8143 -0.0000 0.5805
vn 0.5878 -0.0000 0.8090
vn 0.7071 -0.0000 0.7071
vn 0.3090 -0.0000 0.9511
vn 0.3004 -0.0000 0.9538
vt 0.542220 0.542220
vt 0.451872 0.451872
vt 0.415815 0.280049
vt 0.378909 0.000000
vt 0.448822 0.000000
vt 0.483236 0.261142
vt 1.000000 0.621091
vt 0.811539 0.567949
vt 0.539581 0.431878
vt 0.316998 0.256161
vt 0.165583 0.057997
vt 0.146723 0.000000
vt 0.249123 0.000000
vt 0.266814 0.054408
vt 0.400780 0.229735
vt 0.597711 0.385202
vt 0.838329 0.505591
vt 1.000000 0.551179
vt 0.756872 0.638009
vt 1.000000 0.671042
vt 1.000000 0.790860
vt 0.895453 0.776656
vt 0.790860 0.790860
vt 0.671042 0.671042
vt 0.697155 0.000000
vt 0.821636 0.000000
vt 0.249123 0.249123
vt 0.146723 0.146723
vt 0.178364 0.000000
vt 0.302845 0.000000
vt 0.713381 0.584626
vt 0.713381 0.620734
vt 0.664577 0.620734
vt 0.664577 0.574015
vt 0.446522 0.674705
vt 0.446522 0.624725
vt 0.489702 0.624725
vt 0.489702 0.665318
vt 0.420159 0.624725
vt 0.434617 0.678323
vt 0.430986 0.679400
vt 0.423627 0.642397
vt 0.483646 0.020004
vt 0.532450 0.009534
vt 0.576477 0.031966
vt 0.611416 0.066906
vt 0.619647 0.083060
vt 0.608783 0.068819
vt 0.596692 0.052181
vt 0.565779 0.026515
vt 0.526826 0.008643
vt 0.483646 0.001804
vt 0.440466 0.026843
vt 0.414103 0.020101
vt 0.409849 0.022268
vt 0.434842 0.009534
vt 0.639584 0.620734
vt 0.641075 0.613135
vt 0.649748 0.569524
vt 0.651887 0.570159
vt 0.532881 0.624725
vt 0.532881 0.659301
vt 0.571834 0.624725
vt 0.571834 0.657243
vt 0.805168 0.827234
vt 0.805168 0.859752
vt 0.774255 0.859752
vt 0.774255 0.825149
vt 0.786001 0.825930
vt 0.750524 0.859752
vt 0.757987 0.822639
vt 0.542220 0.000000
vt 0.570557 0.442501
vt 0.475930 0.347846
vt 0.451872 0.000000
vt 0.409968 0.620734
vt 0.393814 0.620734
vt 0.393814 0.591395
vt 0.403758 0.589861
vt 0.358874 0.620734
vt 0.358874 0.593752
vt 0.381217 0.592232
vt 0.806211 0.593752
vt 0.806211 0.620734
vt 0.762185 0.620734
vt 0.762185 0.591427
vt 0.713381 0.584626
s 0
usemtl lambert2SG
f 39/1/1 40/2/1 42/3/1 43/4/1 44/5/1 41/6/1
f 43/7/2 45/8/2 46/9/2 47/10/2 48/11/2 49/12/2 50/13/2 51/14/2 52/15/2 53/16/2 54/17/2 44/18/2
f 57/19/3 59/20/3 60/21/3 55/22/3
f 60/23/4 59/24/4 61/25/4 62/26/4
f 50/27/5 49/28/5 62/29/5 61/30/5
s 1
f 22/31/6 63/32/7 64/33/8 20/34/9
f 24/35/10 66/36/11 65/37/12 23/38/13
f 58/39/14 66/36/11 24/35/10 21/40/14 34/41/14 31/42/14
f 1/43/15 67/44/15 69/45/15 71/46/15 35/47/15 37/48/15 72/49/15 70/50/15 68/51/15 3/52/15 4/53/15 32/54/15 56/55/15 2/56/15
f 20/34/9 64/33/8 29/57/16 30/58/16 33/59/16 19/60/16
f 23/38/13 65/37/12 8/61/17 25/62/18
f 25/62/18 8/61/17 9/63/19 28/64/19
f 28/65/19 9/66/19 10/67/20 18/68/21 15/69/22
f 18/68/21 10/67/20 38/70/23 13/71/23
s 0
f 39/72/24 12/73/24 36/74/24 40/75/24
s 1
f 11/76/25 7/77/26 16/78/27 14/79/25
f 16/78/27 7/77/26 6/80/28 27/81/28 17/82/29
f 27/83/28 6/84/28 5/85/30 26/86/31
f 26/86/31 5/85/30 63/32/7 22/87/6
o Pot_cell.001
v 0.638397 -0.747149 0.463823
v 0.750481 -0.747149 0.243847
v 0.410370 -0.427148 0.564827
v 0.564826 -0.427148 0.410371
v 0.663993 -0.427148 0.215745
v 0.698164 -0.427148 0.000001
v 0.695865 -0.374477 0.014513
v 0.777587 -0.468031 0.072704
v 0.787297 -0.680781 -0.011398
v 0.634548 -0.427148 -0.084608
v 0.789102 -0.660442 0.000001
v 0.696898 -0.427148 -0.007994
v 0.698164 -0.412884 0.000001
v 0.750481 -0.018081 0.243847
v 0.663993 0.154586 0.215745
v 0.444154 -0.427148 0.053578
v 0.522945 -0.427148 -0.004000
v 0.786466 -0.718702 0.016642
v 0.782740 -0.747149 0.040169
v 0.789102 -0.698336 0.000001
v -0.277609 0.501426 0.733277
v -0.243846 0.511674 0.750480
v -0.215744 0.495444 0.663994
v -0.225031 0.492625 0.659262
v 0.000000 0.564655 0.789102
v 0.000000 0.542319 0.698165
v 0.243846 0.598663 0.750480
v 0.215744 0.572408 0.663994
v 0.410370 0.582766 0.564827
v 0.463823 0.610371 0.638397
v 0.638397 0.598631 0.463823
v 0.663765 0.590927 0.414035
v 0.564826 0.572379 0.410371
v 0.606288 0.559788 0.328998
v -0.307182 0.492415 0.718209
v -0.275216 0.477333 0.633691
v 0.000000 -0.115990 0.789102
v 0.243846 -0.392680 0.750481
v -0.243846 0.180780 0.750480
v -0.309700 0.266937 0.716926
v 0.325083 -0.427148 0.515617
v 0.301996 -0.427148 0.620046
v 0.215744 -0.337152 0.663994
v 0.000000 -0.092350 0.698165
v -0.215744 0.170219 0.663994
v -0.279453 0.253571 0.631532
v 0.463822 -0.622155 0.638397
v 0.600549 -0.747149 0.501671
v 0.687503 -0.747149 0.109771
v 0.424386 -0.427148 0.068064
v -0.317743 0.489131 0.712828
v -0.293139 0.471761 0.624559
v -0.293179 0.312881 0.624539
v -0.317791 0.301901 0.712804
v -0.317725 0.277598 0.712837
v -0.293067 0.271656 0.624596
v 0.695865 -0.374477 0.014513
v 0.698164 -0.412884 0.000001
v 0.777587 -0.468031 0.072704
v 0.789102 -0.660442 0.000001
v 0.787297 -0.680781 -0.011398
v 0.634548 -0.427148 -0.084608
v 0.696898 -0.427148 -0.007994
v 0.696898 -0.427148 -0.007994
v 0.750481 -0.018081 0.243847
v 0.663993 0.154586 0.215745
v 0.444154 -0.427148 0.053578
v 0.522945 -0.427148 -0.004000
v 0.786466 -0.718702 0.016642
v 0.782740 -0.747149 0.040169
v 0.782740 -0.747149 0.040169
v 0.789102 -0.698336 0.000001
v -0.215744 0.495444 0.663994
v 0.000000 0.542319 0.698165
v -0.225031 0.492625 0.659262
v -0.277609 0.501426 0.733277
v -0.243846 0.511674 0.750480
v 0.000000 0.564655 0.789102
v 0.243846 0.598663 0.750480
v 0.463823 0.610371 0.638397
v 0.638397 0.598631 0.463823
v 0.663765 0.590927 0.414035
v 0.564826 0.572379 0.410371
v 0.606288 0.559788 0.328998
v 0.410370 0.582766 0.564827
v 0.215744 0.572408 0.663994
v -0.275216 0.477333 0.633691
v -0.307182 0.492415 0.718209
v 0.687503 -0.747149 0.109771
v 0.000000 -0.115990 0.789102
v 0.243846 -0.392680 0.750481
v -0.243846 0.180780 0.750480
v -0.309700 0.266937 0.716926
v -0.215744 0.170219 0.663994
v -0.279453 0.253571 0.631532
v 0.000000 -0.092350 0.698165
v 0.215744 -0.337152 0.663994
v 0.301996 -0.427148 0.620046
v 0.301996 -0.427148 0.620046
v 0.325083 -0.427148 0.515617
v 0.463822 -0.622155 0.638397
v 0.424386 -0.427148 0.068064
v 0.600549 -0.747149 0.501671
v 0.600549 -0.747149 0.501671
v -0.317743 0.489131 0.712828
v -0.293139 0.471761 0.624559
v -0.293179 0.312881 0.624539
v -0.317791 0.301901 0.712804
v -0.317725 0.277598 0.712837
v -0.293067 0.271656 0.624596
v 0.638397 -0.747149 0.463823
v 0.750481 -0.747149 0.243847
v 0.410370 -0.427148 0.564827
v 0.564826 -0.427148 0.410371
v 0.663993 -0.427148 0.215745
v 0.698164 -0.427148 0.000001
vn 0.7459 0.2740 -0.6070
vn 0.0180 -0.0000 0.9998
vn 0.0873 -0.0000 0.9962
vn 0.3863 -0.0000 0.9224
vn 0.3181 -0.0000 0.9481
vn -0.5081 -0.5084 -0.6952
vn -0.5050 -0.5060 -0.6992
vn -0.1707 0.9569 -0.2350
vn -0.1715 0.9566 -0.2356
vn 0.7466 0.2754 -0.6056
vn -0.5088 -0.5089 -0.6944
vn -0.1762 0.9554 -0.2371
vn -0.9633 0.0003 -0.2686
vn -0.9632 -0.0030 -0.2689
vn -0.7554 -0.6332 -0.1684
vn 0.5878 -0.0000 0.8090
vn 0.6433 -0.0000 0.7656
vn 0.7071 -0.0000 0.7071
vn 0.8090 -0.0000 0.5878
vn 0.8034 -0.0000 0.5955
vn 0.2857 -0.0000 -0.9583
vn -0.0180 -0.0000 -0.9998
vn -0.0873 -0.0000 -0.9962
vn 0.2252 -0.0000 -0.9743
vn 0.4540 -0.0000 -0.8910
vn -0.2857 -0.0000 0.9583
vn -0.2252 -0.0000 0.9743
vn -0.4540 -0.0000 0.8910
vn 0.9953 -0.0000 0.0972
vn 0.9941 -0.0000 0.1081
vn 0.9877 -0.0000 0.1564
vn 0.9066 -0.0000 0.4220
vn 0.9511 -0.0000 0.3090
vn 0.9877 -0.0000 -0.1564
vn -0.0000 -1.0000 -0.0000
vn -0.0000 1.0000 -0.0000
vn -0.7510 -0.6390 -0.1664
vn -0.3181 -0.0000 -0.9481
vn -0.3863 -0.0000 -0.9224
vn -0.5878 -0.0000 -0.8090
vn -0.4540 -0.0000 -0.8910
vn -0.8090 -0.0000 -0.5878
vn -0.8034 -0.0000 -0.5955
vn -0.8910 -0.0000 -0.4540
vn -0.9066 -0.0000 -0.4220
vn -0.9511 -0.0000 -0.3090
vn -1.0000 -0.0000 -0.0000
vn -0.9877 -0.0000 -0.1564
vn -0.9941 -0.0000 -0.1081
vn -0.9877 -0.0000 0.1564
vn 0.8910 -0.0000 0.4540
vt 1.000000 0.447861
vt 1.000000 0.570032
vt 0.246247 0.067654
vt 0.152019 0.000000
vt 0.483281 0.000000
vt 0.783459 0.300134
vt 0.849543 0.347581
vt 0.713381 0.584209
vt 0.713381 0.447983
vt 0.762185 0.392605
vt 0.762185 0.591016
vt 0.387988 0.000000
vt 1.000000 0.611883
vt 1.000000 0.917691
vt 0.771339 0.718916
vt 0.052271 0.000000
vt 1.000000 0.516719
vt 1.000000 0.847981
vt 0.969512 0.878385
vt 0.917691 0.917691
vt 0.611883 0.611883
vt 0.196190 0.186491
vt 0.191522 0.191522
vt 0.112859 0.112859
vt 0.129829 0.094567
vt 0.296762 0.053471
vt 0.503723 0.094479
vt 0.730450 0.213576
vt 0.954752 0.399105
vt 1.000000 0.452021
vt 1.000000 0.542421
vt 0.926046 0.455934
vt 0.727593 0.291785
vt 0.526994 0.186413
vt 0.343885 0.150130
vt 0.750587 0.000000
vt 0.853028 0.000000
vt 1.000000 0.112859
vt 1.000000 0.191522
vt 0.580379 0.357321
vt 0.570032 0.570032
vt 0.447861 0.447861
vt 0.465049 0.214231
vt 0.542421 0.542421
vt 0.452021 0.452021
vt 0.947581 0.947581
vt 0.610916 0.610916
vt 1.000000 0.612012
vt 1.000000 0.821529
vt 0.853028 0.853028
vt 0.750587 0.750587
vt 1.000000 0.697134
vt 0.821529 0.821529
vt 0.697134 0.697134
vt 0.697013 0.000000
vt 0.821387 0.000000
vt 1.000000 0.828890
vt 0.821387 0.821387
vt 0.697013 0.697013
vt 1.000000 0.709741
vt 1.000000 0.754446
vt 1.000000 0.855244
vt 0.828890 0.828890
vt 0.709741 0.709741
vt 0.358874 0.593359
vt 0.358874 0.346678
vt 0.386239 0.321661
vt 0.393814 0.321661
vt 0.393814 0.591009
vt 0.446522 0.675102
vt 0.489702 0.665720
vt 0.489702 0.792745
vt 0.446522 0.740193
vt 0.431032 0.679842
vt 0.434619 0.678727
vt 0.444663 0.675666
vt 0.433771 0.723511
vt 0.431046 0.719891
vt 0.431024 0.711641
vt 0.664577 0.573605
vt 0.664577 0.507379
vt 0.713381 0.584209
vt 0.762185 0.392605
vt 0.806211 0.346678
vt 0.806211 0.593359
vt 0.657820 0.571554
vt 0.651901 0.569750
vt 0.649787 0.569093
vt 0.649777 0.531620
vt 0.649791 0.526756
vt 0.651397 0.524623
vt 0.486644 0.331431
vt 0.486644 0.339015
vt 0.472093 0.377524
vt 0.437840 0.467578
vt 0.437840 0.321661
vt 0.478605 0.321661
vt 0.483313 0.327354
vt 0.486644 0.339015
vt 0.488926 0.334944
vt 0.310128 0.208541
vt 0.287695 0.252567
vt 0.280120 0.247063
vt 0.298057 0.159737
vt 0.316585 0.159737
vt 0.326052 0.379261
vt 0.345900 0.418214
vt 0.352738 0.461393
vt 0.352485 0.461393
vt 0.340006 0.461393
vt 0.317669 0.461393
vt 0.301901 0.432510
vt 0.297944 0.433795
vt 0.278069 0.339650
vt 0.273449 0.337296
vt 0.295139 0.348348
vt 0.617956 0.617956
vt 0.610916 0.000000
vt 0.947581 0.000000
vt 0.953746 0.541114
vt 0.824649 0.752391
vt 0.724907 0.620095
vt 0.427037 0.367677
vt 0.190357 0.085254
vt 0.144756 0.000000
vt 0.245554 0.000000
vt 0.289670 0.082478
vt 0.499074 0.332353
vt 0.762616 0.555682
vt 0.891969 0.633201
vt 0.489702 0.665720
vt 0.532881 0.659698
vt 0.532881 0.841740
vt 0.532881 0.659698
vt 0.571834 0.657625
vt 0.571834 0.859752
vt 0.550144 0.859752
vt 0.532881 0.841740
vt 0.774255 0.624725
vt 0.805168 0.624725
vt 0.805168 0.826852
vt 0.774255 0.824773
vt 0.757969 0.822253
vt 0.735302 0.741155
vt 0.735302 0.624725
vt 0.774255 0.824773
vt 0.692123 0.624725
vt 0.695027 0.635267
vt 0.692123 0.627580
vt 0.692123 0.627580
vt 0.690523 0.624725
vt 0.403779 0.589467
s 0
usemtl lambert2SG
f 129/88/32 131/89/32 132/90/32 133/91/32 134/92/32 135/93/32 130/94/32
s 1
f 97/95/33 162/96/34 163/97/35 151/98/36
s 0
f 139/99/37 140/100/37 141/101/37 142/102/37 161/103/37
f 134/104/38 133/105/38 144/106/38 141/107/38 140/108/38
f 145/109/39 147/110/39 148/111/39 149/112/39 150/113/39 99/114/39 152/115/39 153/116/39 154/117/39 156/118/39 155/119/39 157/120/39 158/121/39 146/122/39
f 159/123/40 160/124/40 148/125/40 147/126/40
f 137/127/41 131/128/41 129/129/41 138/130/41 156/131/41 154/132/41
f 161/133/42 122/134/42 139/135/42
f 177/136/43 160/137/43 159/138/43 178/139/43
f 177/140/44 178/141/44 179/142/44 180/143/44
f 181/144/45 180/145/45 179/146/45 182/147/45
f 167/148/46 112/149/46 181/150/46 182/151/46
s 1
f 102/152/47 173/153/48 176/154/49 183/155/50 103/156/51
f 95/157/52 98/158/53 168/159/54 166/160/55
f 124/161/56 108/162/56 96/163/56 95/157/52 166/160/55 118/164/56 128/165/56 125/166/56
f 94/167/57 164/168/58 162/96/34 97/169/33
f 151/98/36 163/170/35 173/171/48 102/172/47
f 164/168/58 94/167/57 93/173/59 107/174/59 123/175/59 126/176/59 127/177/59 165/178/59
f 92/179/60 83/180/61 80/181/62 86/182/63 74/183/64 143/184/62 90/185/62
f 83/186/61 92/179/60 81/187/65
f 184/188/66 73/189/66 175/190/66 121/191/66 91/192/66
f 186/193/67 187/194/67 188/195/67 136/196/67 82/197/67 89/198/67 88/199/67 174/200/67 172/201/67 171/202/67 185/203/67
s 0
f 113/204/68 122/205/68 161/206/68 120/207/68 119/208/68 110/209/68 109/210/68 111/211/68 112/212/68 167/213/68 117/214/68 116/215/68 169/216/68 170/217/68
s 1
f 98/218/53 100/219/69 115/220/70 168/159/54
f 100/221/69 101/222/71 75/223/71 114/224/72 115/225/70
f 76/226/73 75/227/71 101/228/71 105/229/74
f 106/230/75 87/231/76 77/232/77 76/226/73 105/233/74
f 78/234/78 77/232/77 87/231/76 79/235/79 85/236/80
f 85/237/80 84/238/81 78/234/78
f 104/239/82 103/156/51 183/155/50 74/183/64 86/182/63
o Pot_cell.002
v 0.581305 -0.140676 -0.378031
v 0.649149 -0.180857 -0.442722
v 0.652065 -0.180679 -0.436997
v 0.564827 -0.141333 -0.410371
v 0.523249 -0.134315 -0.451949
v 0.638397 -0.181285 -0.463823
v 0.597319 -0.174352 -0.504901
v -0.243846 0.100302 -0.750480
v -0.215745 0.107766 -0.663994
v -0.312128 0.155656 -0.614885
v -0.352928 0.154502 -0.694900
v 0.000000 0.016670 -0.698163
v 0.000000 -0.002659 -0.789102
v 0.215745 -0.059899 -0.663994
v 0.243846 -0.089202 -0.750480
v 0.410371 -0.114447 -0.564827
v 0.463823 -0.150855 -0.638397
v -0.307599 0.589495 -0.617192
v -0.215745 0.625134 -0.663994
v -0.243846 0.690834 -0.750480
v 0.000000 0.720378 -0.789102
v 0.000000 0.651271 -0.698163
v 0.215745 0.625477 -0.663994
v 0.243846 0.691222 -0.750480
v 0.410371 0.550273 -0.564827
v 0.612026 0.493719 -0.490194
v 0.538141 0.453280 -0.437057
v 0.463823 0.606223 -0.638397
v 0.638397 0.473639 -0.463823
v 0.652290 0.452880 -0.436556
v 0.583638 0.404853 -0.373452
v 0.564827 0.432961 -0.410371
v -0.352634 0.648451 -0.695050
v -0.311870 0.587567 -0.615016
v 0.649149 -0.180857 -0.442722
v 0.652065 -0.180679 -0.436997
v 0.638397 -0.181285 -0.463823
v 0.581305 -0.140676 -0.378031
v 0.564827 -0.141333 -0.410371
v 0.523249 -0.134315 -0.451949
v 0.597319 -0.174352 -0.504901
v -0.243846 0.100302 -0.750480
v -0.352928 0.154502 -0.694900
v 0.000000 -0.002659 -0.789102
v 0.243846 -0.089202 -0.750480
v 0.463823 -0.150855 -0.638397
v 0.410371 -0.114447 -0.564827
v 0.215745 -0.059899 -0.663994
v 0.000000 0.016670 -0.698163
v -0.215745 0.107766 -0.663994
v -0.312128 0.155656 -0.614885
v 0.410371 0.550273 -0.564827
v 0.538141 0.453280 -0.437057
v 0.612026 0.493719 -0.490194
v 0.463823 0.606223 -0.638397
v 0.583638 0.404853 -0.373452
v 0.243846 0.691222 -0.750480
v 0.000000 0.720378 -0.789102
v -0.243846 0.690834 -0.750480
v -0.307599 0.589495 -0.617192
v -0.215745 0.625134 -0.663994
v 0.000000 0.651271 -0.698163
v 0.215745 0.625477 -0.663994
v 0.564827 0.432961 -0.410371
v 0.638397 0.473639 -0.463823
v 0.652290 0.452880 -0.436556
v -0.352634 0.648451 -0.695050
v -0.311870 0.587567 -0.615016
vn -0.3466 -0.9153 0.2051
vn -0.3526 -0.9145 0.1982
vn -0.3553 -0.9143 0.1943
vn -0.0007 0.7962 0.6050
vn 0.0001 0.7957 0.6057
vn -0.2696 -0.0000 -0.9630
vn -0.4540 -0.0000 -0.8910
vn -0.2856 -0.0000 -0.9583
vn -0.0398 0.7854 0.6177
vn -0.8909 0.0007 0.4543
vn 0.2858 -0.0000 -0.9583
vn 0.5518 -0.0000 -0.8340
vn 0.6033 -0.0000 -0.7975
vn 0.3376 -0.0000 -0.9413
vn 0.4540 -0.0000 0.8910
vn 0.2696 -0.0000 0.9630
vn 0.2857 -0.0000 0.9583
vn -0.0376 -0.0000 0.9993
vn -0.0001 -0.0000 1.0000
vn 0.0001 -0.0000 -1.0000
vn 0.0376 -0.0000 -0.9993
vn 0.7071 -0.0000 -0.7071
vn 0.7744 -0.0000 -0.6327
vn 0.8121 -0.0000 -0.5835
vn 0.8910 -0.0000 -0.4540
vn -0.8910 -0.0000 0.4540
vn -0.7744 -0.0000 0.6327
vn -0.8121 -0.0000 0.5835
vn -0.5518 -0.0000 0.8340
vn -0.6033 -0.0000 0.7975
vn -0.7071 -0.0000 0.7071
vn -0.2858 -0.0000 0.9583
vn -0.3376 -0.0000 0.9413
vn 0.6589 -0.0046 0.7522
vt 1.000000 0.276915
vt 1.000000 0.378341
vt 0.617114 0.000000
vt 0.378341 0.378341
vt 0.276915 0.276915
vt 0.553317 0.369096
vt 1.000000 0.504391
vt 1.000000 0.572156
vt 0.558686 0.438487
vt 0.815543 0.000000
vt 0.886664 0.092138
vt 0.936053 0.268834
vt 0.886569 0.419121
vt 0.743058 0.528290
vt 0.572156 0.572156
vt 0.504391 0.504391
vt 0.648899 0.467300
vt 0.775871 0.370713
vt 0.819650 0.237744
vt 0.775956 0.081411
vt 0.713114 0.000000
vt 1.000000 0.506830
vt 1.000000 0.575951
vt 0.767534 0.529210
vt 0.520925 0.420913
vt 0.325680 0.269980
vt 0.200911 0.091183
vt 0.180626 0.000000
vt 0.280688 0.000000
vt 0.298259 0.078985
vt 0.408652 0.237176
vt 0.581395 0.370717
vt 0.799584 0.466533
vt 1.000000 0.335952
vt 1.000000 0.430600
vt 0.812707 0.500162
vt 0.575951 0.575951
vt 0.506830 0.506830
vt 0.746413 0.430136
vt 0.856373 0.434329
vt 0.834541 0.423481
vt 0.835150 0.324373
vt 0.856373 0.316139
vt 1.000000 0.287200
vt 0.719312 0.000000
vt 1.000000 0.184816
vt 1.000000 0.184457
vt 1.000000 0.286886
vt 0.287200 0.287200
vt 0.184816 0.184816
vt 0.953981 0.316061
vt 0.998008 0.333073
vt 0.998008 0.484596
vt 0.953981 0.472257
vt 0.256630 0.828199
vt 0.255775 0.827813
vt 0.255724 0.741369
vt 0.275014 0.731784
vt 0.275014 0.835332
vt 0.275014 0.731784
vt 0.318194 0.713552
vt 0.318194 0.840563
vt 0.856373 0.434329
vt 0.856373 0.316139
vt 0.905177 0.310226
vt 0.905177 0.454936
vt 0.905177 0.310226
vt 0.953981 0.316061
vt 0.614415 0.441005
vt 0.614415 0.592528
vt 0.584753 0.570011
vt 0.579475 0.565992
vt 0.579475 0.434914
vt 0.587696 0.436302
vt 0.574018 0.561838
vt 0.574106 0.435036
vt 0.575252 0.435000
vt 0.617379 0.791244
vt 0.609990 0.796869
vt 0.609990 0.681929
vt 0.617301 0.682086
vt 0.579077 0.820349
vt 0.579077 0.687310
vt 0.601669 0.683333
vt 0.604649 0.800936
vt 0.361373 0.835400
vt 0.361373 0.698227
vt 0.400326 0.687310
vt 0.400326 0.820349
vt 0.318194 0.840563
vt 0.318194 0.713552
vt 0.361373 0.698227
vt 0.361373 0.835400
vt 0.335952 0.335952
vt 1.000000 0.280241
vt 1.000000 0.382886
vt 0.430600 0.430600
s 0
usemtl lambert2SG
f 226/240/83 223/241/83 224/242/83
f 223/243/84 226/244/84 227/245/84 228/246/84 229/247/84 225/248/84
f 231/249/85 230/250/85 232/251/85 233/252/85 234/253/85 229/254/85 228/255/85 235/256/85 236/257/85 237/258/85 238/259/85 239/260/85
f 241/261/86 242/262/86 243/263/86 245/264/86 246/265/86 247/266/86 255/267/86 248/268/86 249/269/86 250/270/86 251/271/86 240/272/86
f 219/273/87 254/274/87 253/275/87 242/276/87 241/277/87 252/278/87
s 1
f 196/279/88 199/280/89 221/281/89 208/282/90
s 0
f 256/283/91 248/284/91 255/285/91
f 231/286/92 239/287/92 256/288/92 255/289/92
s 1
f 212/290/93 216/291/94 205/292/95 203/293/96
f 206/294/97 222/295/97 198/296/97 197/297/98 207/298/99
f 207/298/99 197/299/98 200/300/100 210/301/101
f 196/302/88 208/303/90 209/304/102 201/305/103
f 201/305/103 209/306/102 212/307/93 203/293/96
f 205/308/95 216/309/94 214/310/104 217/311/105 194/312/106 195/313/104
f 218/314/107 191/315/107 190/316/107 194/312/106 217/311/105
f 244/317/108 220/318/109 192/319/110 189/320/108
f 213/321/111 204/322/112 193/323/113 192/319/110 220/318/109 215/324/113
f 211/325/114 202/326/115 204/327/112 213/328/111
f 210/329/101 200/330/100 202/331/115 211/332/114
s 0
f 219/333/116 226/334/116 224/335/116 254/336/116
o Pot_cell.003
v 0.000000 -0.747149 0.789102
v -0.243846 -0.747149 0.750481
v -0.463822 -0.747149 0.638397
v -0.638397 -0.747149 0.463823
v -0.750481 -0.747149 0.243847
v -0.789102 -0.747149 0.000001
v 0.243846 -0.747149 0.750481
v -0.769864 -0.643083 -0.121467
v -0.256605 -0.747149 -0.040235
v -0.764886 -0.747149 -0.152898
v -0.789102 -0.618310 0.000001
v -0.750481 -0.586288 0.243847
v -0.148183 -0.747149 0.108062
v -0.638397 -0.575112 0.463823
v -0.463822 -0.586060 0.638397
v -0.243846 -0.617899 0.750481
v 0.000000 -0.667490 0.789102
v 0.298376 -0.747149 0.722697
v 0.243846 -0.729978 0.750481
v -0.256605 -0.747149 -0.040235
v -0.764886 -0.747149 -0.152898
v -0.764886 -0.747149 -0.152898
v -0.769864 -0.643083 -0.121467
v -0.789102 -0.618310 0.000001
v -0.750481 -0.586288 0.243847
v -0.638397 -0.575112 0.463823
v -0.148183 -0.747149 0.108062
v -0.243846 -0.617899 0.750481
v 0.000000 -0.667490 0.789102
v 0.243846 -0.729978 0.750481
v 0.298376 -0.747149 0.722697
v 0.298376 -0.747149 0.722697
v -0.463822 -0.586060 0.638397
v 0.000000 -0.747149 0.789102
v -0.243846 -0.747149 0.750481
v -0.463822 -0.747149 0.638397
v -0.638397 -0.747149 0.463823
v -0.750481 -0.747149 0.243847
v -0.789102 -0.747149 0.000001
v 0.243846 -0.747149 0.750481
vn 0.2070 0.2919 -0.9338
vn -0.3250 -0.0000 0.9457
vn -0.3090 -0.0000 0.9511
vn -0.0000 -0.0000 1.0000
vn -0.0228 -0.0000 0.9997
vn -0.5878 -0.0000 0.8090
vn -0.5950 -0.0000 0.8037
vn -0.8090 -0.0000 0.5878
vn -0.9511 -0.0000 0.3090
vn -0.9482 -0.0000 0.3176
vn -1.0000 -0.0000 -0.0000
vn -0.9999 -0.0000 0.0169
vn -0.9877 -0.0000 -0.1564
vn -0.0000 -1.0000 -0.0000
vn 0.3090 -0.0000 0.9511
vn 0.2837 -0.0000 0.9589
vn 0.4540 -0.0000 0.8910
vn 0.2209 0.9619 -0.1609
vt 0.766707 0.482026
vt 0.280177 0.000000
vt 0.767016 0.000000
vt 0.664577 0.347529
vt 0.664577 0.321661
vt 0.713381 0.321661
vt 0.713381 0.337604
vt 0.620550 0.321661
vt 0.664577 0.347529
vt 0.620550 0.353902
vt 0.869840 0.036236
vt 0.869840 0.001804
vt 0.904780 0.001804
vt 0.904780 0.034045
vt 0.825813 0.001804
vt 0.869840 0.036236
vt 0.825813 0.033999
vt 0.777009 0.001804
vt 0.825813 0.033999
vt 0.777009 0.027590
vt 0.752699 0.022632
vt 0.746408 0.001804
vt 0.777009 0.027590
vt 0.032155 0.252567
vt 0.009722 0.208541
vt 0.001992 0.159737
vt 0.006839 0.129135
vt 0.108568 0.143050
vt 0.130267 0.181284
vt 0.219642 0.241931
vt 0.208729 0.309940
vt 0.159925 0.317670
vt 0.111121 0.309940
vt 0.067094 0.287507
vt 0.762185 0.321661
vt 0.762185 0.325098
vt 0.762185 0.325098
vt 0.773099 0.321661
vt 0.677201 0.059364
vt 0.843556 0.105242
vt 0.888741 0.138287
vt 0.869836 0.000000
vt 1.000000 0.232984
vt 1.000000 0.719823
vt 0.876411 0.614503
vt 0.640441 0.341938
vt 0.439705 0.034920
vt 0.454235 0.238854
vt 0.543050 0.105403
s 0
usemtl lambert2SG
f 277/337/117 279/338/117 276/339/117
s 1
f 284/340/118 291/341/119 290/342/120 285/343/121
f 292/344/122 291/341/119 284/345/118 289/346/123
f 282/347/124 293/348/124 292/349/122 289/350/123
f 294/351/125 293/348/124 282/352/124 281/353/126
f 295/354/127 294/351/125 281/355/126 280/356/128
f 264/357/129 278/358/129 295/354/127 280/359/128
f 260/360/130 261/361/130 262/362/130 266/363/130 265/364/130 283/365/130 288/366/130 296/367/130 257/368/130 258/369/130 259/370/130
f 285/343/121 290/342/120 263/371/131 286/372/132
f 286/373/132 263/371/131 287/374/133
s 0
f 273/375/134 275/376/134 274/377/134 269/378/134 276/379/134 279/380/134 267/381/134 268/382/134 270/383/134 271/384/134 272/385/134
o Pot_cell.004
v -0.463822 0.747149 0.638397
v -0.638397 0.747149 0.463823
v -0.750481 0.747149 0.243847
v -0.789102 0.747149 0.000001
v -0.410370 0.747149 0.564827
v -0.564826 0.747149 0.410371
v -0.663993 0.747149 0.215745
v -0.698164 0.747149 0.000001
v -0.789102 0.448290 0.000001
v -0.750481 0.448290 0.243847
v -0.789102 0.627605 0.000001
v -0.750481 0.627605 0.243847
v -1.014832 0.448290 0.000001
v -1.014832 0.627605 0.000001
v -0.950007 0.448290 0.243847
v -0.950007 0.627605 0.243847
v -0.335755 0.573515 0.703651
v -0.348828 0.747149 0.596184
v -0.322550 0.614482 0.609574
v -0.370147 0.747149 0.686127
v -0.638397 0.089894 0.463823
v -0.750481 -0.001251 0.243847
v -0.789102 -0.064605 0.000001
v -0.775844 -0.074684 -0.083709
v -0.688917 -0.031613 -0.058380
v -0.698164 -0.024584 0.000001
v -0.663993 0.031469 0.215745
v -0.463823 0.199910 0.638397
v -0.564826 0.112111 0.410371
v -0.319775 0.277257 0.711793
v -0.295166 0.271308 0.623527
v -0.410370 0.209448 0.564827
v -0.319660 0.301900 0.711851
v -0.294971 0.313059 0.623626
v -0.319317 0.489683 0.712026
v -0.294679 0.472344 0.623774
v -0.757154 0.107289 -0.201711
v -0.673546 0.144643 -0.155434
v -0.971158 0.627605 -0.164285
v -0.960359 0.448290 -0.204907
v -0.781132 0.747149 -0.050323
v -0.696125 0.747149 -0.012876
v -0.769934 0.448290 -0.121022
v -0.776653 0.627605 -0.078603
v -0.769881 -0.079094 -0.121359
v -0.669540 0.037346 -0.180729
v -0.681161 -0.037350 -0.107351
v -0.754005 0.022943 -0.221596
v -0.755386 0.059782 -0.212879
v -0.671296 0.084208 -0.169640
v -0.348828 0.747149 0.596184
v -0.348828 0.747149 0.596184
v -0.370147 0.747149 0.686127
v -0.370147 0.747149 0.686127
v -0.335755 0.573515 0.703651
v -0.322550 0.614482 0.609574
v -0.463823 0.199910 0.638397
v -0.319775 0.277257 0.711793
v -0.638397 0.089894 0.463823
v -0.750481 -0.001251 0.243847
v -0.789102 -0.064605 0.000001
v -0.775844 -0.074684 -0.083709
v -0.688917 -0.031613 -0.058380
v -0.698164 -0.024584 0.000001
v -0.663993 0.031469 0.215745
v -0.564826 0.112111 0.410371
v -0.410370 0.209448 0.564827
v -0.295166 0.271308 0.623527
v -0.319660 0.301900 0.711851
v -0.294971 0.313059 0.623626
v -0.319317 0.489683 0.712026
v -0.294679 0.472344 0.623774
v -0.781132 0.747149 -0.050323
v -0.781132 0.747149 -0.050323
v -0.696125 0.747149 -0.012876
v -0.696125 0.747149 -0.012876
v -0.673546 0.144643 -0.155434
v -0.757154 0.107289 -0.201711
v -0.769934 0.448290 -0.121022
v -0.769934 0.448290 -0.121022
v -0.960359 0.448290 -0.204907
v -0.960359 0.448290 -0.204907
v -0.971158 0.627605 -0.164285
v -0.971158 0.627605 -0.164285
v -0.776653 0.627605 -0.078603
v -0.776653 0.627605 -0.078603
v -0.769881 -0.079094 -0.121359
v -0.754005 0.022943 -0.221596
v -0.669540 0.037346 -0.180729
v -0.681161 -0.037350 -0.107351
v -0.671296 0.084208 -0.169640
v -0.755386 0.059782 -0.212879
v -0.789102 0.448290 0.000001
v -0.750481 0.448290 0.243847
v -0.750481 0.448290 0.243847
v -0.410370 0.747149 0.564827
v -0.463822 0.747149 0.638397
v -0.638397 0.747149 0.463823
v -0.564826 0.747149 0.410371
v -0.750481 0.747149 0.243847
v -0.663993 0.747149 0.215745
v -0.789102 0.747149 0.000001
v -0.698164 0.747149 0.000001
v -1.014832 0.448290 0.000001
v -1.014832 0.627605 0.000001
v -0.950007 0.448290 0.243847
v -0.950007 0.448290 0.243847
v -0.950007 0.627605 0.243847
v -0.950007 0.627605 0.243847
v -0.750481 0.627605 0.243847
v -0.750481 0.627605 0.243847
v -0.789102 0.627605 0.000001
vn 0.9511 0.2111 0.2254
vn 0.9632 -0.0051 0.2689
vn 0.9631 -0.0020 0.2693
vn 0.9518 0.2091 0.2246
vn 0.4127 -0.6702 -0.6169
vn 0.3977 -0.9019 0.1687
vn 0.3928 0.2257 -0.8915
vn 0.3933 0.2242 -0.8916
vn -0.6228 -0.0000 0.7824
vn -0.5878 -0.0000 0.8090
vn -0.8090 -0.0000 0.5878
vn -0.8318 -0.0000 0.5551
vn -0.0000 1.0000 -0.0000
vn -1.0000 -0.0000 -0.0000
vn -0.9998 -0.0000 -0.0194
vn -0.9603 -0.0000 0.2789
vn -0.9334 -0.0000 0.3587
vn -0.9877 -0.0000 -0.1564
vn 0.3968 -0.9017 0.1714
vn -0.0000 -1.0000 -0.0000
vn 0.4540 -0.0000 -0.8910
vn 0.6228 -0.0000 -0.7824
vn 0.5878 -0.0000 -0.8090
vn 0.8318 -0.0000 -0.5551
vn 0.8090 -0.0000 -0.5878
vn 0.9603 -0.0000 -0.2789
vn 0.9511 -0.0000 -0.3090
vn 0.9998 -0.0000 0.0194
vn 1.0000 -0.0000 -0.0000
vn 0.9877 -0.0000 0.1564
vn -0.9664 -0.0000 -0.2569
vn -0.9664 -0.0000 0.2569
vn -0.9511 -0.0000 0.3090
vn -0.4540 -0.0000 0.8910
vn -0.0000 -0.0000 1.0000
vn 0.3927 0.2256 -0.8916
vt 0.822272 0.586232
vt 0.208529 0.000000
vt 0.353561 0.000000
vt 0.822499 0.447918
vt 1.000000 0.820616
vt 0.828179 0.828179
vt 0.708895 0.708895
vt 1.000000 0.696082
vt 0.820884 0.000000
vt 0.820616 0.820616
vt 0.696082 0.696082
vt 0.696308 0.000000
vt 0.820884 0.820884
vt 0.696308 0.696308
vt 1.000000 0.646439
vt 1.000000 0.791470
vt 0.496163 0.000000
vt 0.631169 0.000000
vt 1.000000 0.387089
vt 1.000000 0.528779
vt 1.000000 0.589509
vt 1.000000 0.684404
vt 0.528779 0.528779
vt 0.387089 0.387089
vt 0.368831 0.000000
vt 0.503837 0.000000
vt 1.000000 0.337559
vt 1.000000 0.429409
vt 0.338607 0.000000
vt 0.430742 0.000000
vt 0.429409 0.429409
vt 0.337559 0.337559
vt 0.904780 0.191351
vt 0.904780 0.300876
vt 0.869840 0.300876
vt 0.869840 0.169332
vt 0.916245 0.656736
vt 0.929219 0.656736
vt 0.969153 0.607932
vt 0.961424 0.656736
vt 0.963915 0.672468
vt 0.924987 0.689617
vt 0.777009 0.241062
vt 0.777009 0.138410
vt 0.825813 0.151090
vt 0.825813 0.241062
vt 0.752720 0.135510
vt 0.760256 0.136393
vt 0.777009 0.138410
vt 0.752788 0.241062
vt 0.736639 0.172813
vt 0.734404 0.163305
vt 0.732659 0.155932
vt 1.000000 0.828179
vt 0.833902 0.788906
vt 0.627440 0.026425
vt 0.433411 0.400167
vt 0.325775 0.109456
vt 0.315596 0.000000
vt 0.410491 0.000000
vt 0.417590 0.076336
vt 0.512823 0.333544
vt 0.667734 0.540686
vt 0.867160 0.677485
vt 1.000000 0.708895
vt 0.908736 0.705540
vt 0.868802 0.705540
vt 0.855828 0.656736
vt 0.866730 0.656736
vt 0.904842 0.632514
vt 0.901006 0.656736
vt 0.430626 0.719961
vt 0.407569 0.732342
vt 0.407569 0.624725
vt 0.419886 0.624725
vt 0.425146 0.651277
vt 0.430724 0.679725
vt 0.430665 0.711605
vt 0.032905 0.713046
vt 0.032905 0.840144
vt 0.001992 0.840144
vt 0.001992 0.732527
vt 0.071858 0.696906
vt 0.071858 0.840144
vt 0.115038 0.685687
vt 0.115038 0.840144
vt 0.148990 0.707461
vt 0.146147 0.719557
vt 0.117615 0.840144
vt 0.115038 0.685687
vt 0.126722 0.684281
vt 0.136524 0.683132
vt 0.151210 0.698082
vt 0.812951 0.697747
vt 0.812951 0.656736
vt 0.848840 0.656736
vt 0.848840 0.689617
vt 0.812951 0.607932
vt 0.848840 0.607932
vt 0.869840 0.169332
vt 0.825813 0.300876
vt 0.825813 0.276951
vt 0.825813 0.151090
vt 0.761277 0.276951
vt 0.777009 0.276951
vt 0.777009 0.300876
vt 0.766937 0.300876
vt 0.639298 0.620734
vt 0.620550 0.620734
vt 0.620550 0.511208
vt 0.649380 0.526688
vt 0.649403 0.531620
vt 0.649472 0.569204
vt 0.646182 0.585982
vt 0.350753 0.116557
vt 0.343914 0.159737
vt 0.344322 0.162314
vt 0.327308 0.169809
vt 0.325713 0.159737
vt 0.333443 0.110933
vt 0.355876 0.066906
vt 0.390815 0.031966
vt 0.409563 0.022414
vt 0.413830 0.020239
vt 0.401513 0.046691
vt 0.370600 0.077604
vt 0.759985 0.863743
vt 0.795873 0.903677
vt 0.939590 0.460015
vt 0.569258 0.000000
vt 0.661393 0.000000
vt 0.578264 0.367803
vt 0.578245 0.130020
vt 0.795034 0.116563
vt 0.795054 0.359441
vt 0.939581 0.353866
s 0
usemtl lambert2SG
f 349/386/135 351/387/135 352/388/135 347/389/135
f 365/390/136 354/391/136 364/392/136 366/393/136
f 367/394/137 365/395/137 366/396/137 368/397/137
f 367/398/138 368/399/138 352/400/138 351/401/138
f 384/402/139 385/403/139 386/404/139 383/405/139
f 359/406/140 320/407/140 383/408/140 386/409/140
f 385/410/141 384/411/141 388/412/141 387/413/141
f 374/414/142 373/415/142 387/416/142 388/417/142
s 1
f 324/418/143 393/419/144 394/420/145 355/421/146
f 310/422/147 405/423/147 407/424/147 408/425/147 381/426/147 380/427/147
f 389/428/148 357/429/149 318/430/150 390/431/151
f 341/432/152 358/433/152 357/434/149 389/428/148 375/435/152 333/436/152 345/437/152 344/438/152
s 0
f 354/439/153 353/440/153 317/441/153 356/442/153 319/443/153 320/444/153 359/445/153 360/446/153 361/447/153 362/448/153 363/449/153 364/450/153
s 1
f 391/451/154 402/452/154 400/453/154 377/454/154 376/455/154 305/456/154
f 327/457/155 328/458/156 392/459/157 348/460/155 315/461/155 332/462/155 330/463/155
f 325/464/158 395/465/159 392/466/157 328/467/156
f 323/468/160 397/469/161 395/465/159 325/464/158
f 322/470/162 399/471/163 397/469/161 323/468/160
f 346/472/164 334/473/164 372/474/164 399/471/163 322/475/162 321/476/164 343/477/164 342/478/164
f 378/479/165 309/480/148 401/481/148 379/482/165
f 403/483/166 404/484/166 401/481/148 309/480/148
f 355/485/146 394/420/145 396/486/167 406/487/151 390/431/151 318/488/150
f 382/489/152 307/490/148 398/491/148 370/492/152
f 406/487/151 396/486/167 398/491/148 307/490/148
f 350/493/168 393/494/144 324/495/143 326/496/168 329/497/168 331/498/168 313/499/168
f 303/500/147 304/501/147 371/502/147 369/503/147 300/504/147 299/505/147 298/506/147 297/507/147 316/508/147 314/509/147 301/510/147 302/511/147
f 308/512/169 312/513/169 311/513/169 306/512/169
s 0
f 338/514/170 373/515/170 374/516/170 339/517/170 336/518/170 335/519/170 340/520/170 337/521/170
o Pot_cell.005
v 0.750481 0.747149 -0.243846
v 0.750481 0.747149 0.243847
v 0.789102 0.747149 0.000001
v 0.663994 0.747149 -0.215745
v 0.663993 0.747149 0.215745
v 0.698164 0.747149 0.000001
v 0.750481 0.448290 -0.243846
v 0.789102 0.448290 0.000001
v 0.750481 0.448290 0.243847
v 0.750481 0.627605 -0.243846
v 0.789102 0.627605 0.000001
v 0.750481 0.627605 0.243847
v 0.950007 0.448290 -0.243846
v 1.014832 0.448290 0.000001
v 0.950007 0.627605 -0.243846
v 1.014832 0.627605 0.000001
v 0.950007 0.448290 0.243847
v 0.950007 0.627605 0.243847
v 0.589467 0.526142 -0.362013
v 0.598977 0.747149 -0.343347
v 0.657353 0.556938 -0.426620
v 0.665538 0.747149 -0.410556
v 0.667201 0.615960 0.407293
v 0.680666 0.747149 0.380866
v 0.609335 0.580695 0.323018
v 0.626419 0.747149 0.289487
v 0.584409 -0.142164 -0.371940
v 0.653058 -0.182291 -0.435050
v 0.584340 0.405437 -0.372074
v 0.652959 0.453481 -0.435244
v 0.607452 0.560461 0.326713
v 0.664945 0.591720 0.411719
v 0.675667 0.515596 0.390676
v 0.620308 0.469186 0.301482
v 0.635790 -0.427148 -0.086574
v 0.786813 -0.677133 -0.014452
v 0.674216 -0.427148 -0.151202
v 0.663994 -0.364496 -0.215743
v 0.750481 -0.454455 -0.243846
v 0.641026 0.322841 0.260821
v 0.700494 0.340225 0.341951
v 0.663993 0.161076 0.215745
v 0.750481 -0.011308 0.243847
v 0.778034 -0.468622 0.069882
v 0.696292 -0.375005 0.011820
v 0.789102 -0.651648 0.000001
v 0.698164 -0.405960 0.000001
v 0.696261 -0.427148 -0.012015
v 0.589467 0.526142 -0.362013
v 0.598977 0.747149 -0.343347
v 0.598977 0.747149 -0.343347
v 0.665538 0.747149 -0.410556
v 0.665538 0.747149 -0.410556
v 0.657353 0.556938 -0.426620
v 0.667201 0.615960 0.407293
v 0.680666 0.747149 0.380866
v 0.680666 0.747149 0.380866
v 0.626419 0.747149 0.289487
v 0.626419 0.747149 0.289487
v 0.609335 0.580695 0.323018
v 0.584409 -0.142164 -0.371940
v 0.584340 0.405437 -0.372074
v 0.652959 0.453481 -0.435244
v 0.653058 -0.182291 -0.435050
v 0.607452 0.560461 0.326713
v 0.664945 0.591720 0.411719
v 0.675667 0.515596 0.390676
v 0.620308 0.469186 0.301482
v 0.663994 -0.364496 -0.215743
v 0.750481 -0.454455 -0.243846
v 0.786813 -0.677133 -0.014452
v 0.635790 -0.427148 -0.086574
v 0.674216 -0.427148 -0.151202
v 0.674216 -0.427148 -0.151202
v 0.641026 0.322841 0.260821
v 0.700494 0.340225 0.341951
v 0.663993 0.161076 0.215745
v 0.750481 -0.011308 0.243847
v 0.696292 -0.375005 0.011820
v 0.778034 -0.468622 0.069882
v 0.696261 -0.427148 -0.012015
v 0.696261 -0.427148 -0.012015
v 0.789102 -0.651648 0.000001
v 0.698164 -0.405960 0.000001
v 0.789102 0.448290 0.000001
v 0.750481 0.448290 0.243847
v 0.750481 0.448290 0.243847
v 0.750481 0.448290 -0.243846
v 0.750481 0.448290 -0.243846
v 0.663994 0.747149 -0.215745
v 0.750481 0.747149 -0.243846
v 0.750481 0.747149 0.243847
v 0.663993 0.747149 0.215745
v 0.789102 0.747149 0.000001
v 0.698164 0.747149 0.000001
v 0.950007 0.448290 -0.243846
v 0.950007 0.448290 -0.243846
v 1.014832 0.448290 0.000001
v 0.950007 0.627605 -0.243846
v 0.950007 0.627605 -0.243846
v 1.014832 0.627605 0.000001
v 0.950007 0.448290 0.243847
v 0.950007 0.448290 0.243847
v 0.950007 0.627605 0.243847
v 0.950007 0.627605 0.243847
v 0.750481 0.627605 0.243847
v 0.750481 0.627605 0.243847
v 0.750481 0.627605 -0.243846
v 0.750481 0.627605 -0.243846
v 0.789102 0.627605 0.000001
vn -0.7077 0.0896 -0.7008
vn -0.8446 0.1877 0.5014
vn -0.7075 0.0885 -0.7012
vn -0.8442 0.1713 0.5080
vn -0.7474 -0.2727 0.6058
vn -0.7152 -0.5547 -0.4252
vn -0.7467 -0.2741 0.6061
vn -0.6770 -0.0003 -0.7360
vn -0.7464 -0.2763 0.6054
vn -0.7461 -0.2754 0.6062
vn 0.9930 -0.0000 -0.1185
vn 1.0000 -0.0000 -0.0000
vn 0.9334 -0.0000 0.3587
vn 0.9824 -0.0000 0.1866
vn 0.9877 -0.0000 0.1564
vn 0.9877 -0.0000 -0.1564
vn 0.9745 -0.0000 -0.2245
vn 0.9334 -0.0000 -0.3587
vn -0.0000 1.0000 -0.0000
vn -0.9745 -0.0000 0.2245
vn -0.9511 -0.0000 0.3090
vn -0.8910 -0.0000 0.4540
vn -0.8910 -0.0000 -0.4540
vn -0.9511 -0.0000 -0.3090
vn -0.9824 -0.0000 -0.1866
vn -1.0000 -0.0000 -0.0000
vn -0.9930 -0.0000 0.1185
vn -0.9877 -0.0000 -0.1564
vn -0.9877 -0.0000 0.1564
vn 0.9664 -0.0000 -0.2569
vn 0.9664 -0.0000 0.2569
vn 0.9511 -0.0000 0.3090
vn 0.8910 -0.0000 0.4540
vn 0.8910 -0.0000 -0.4540
vn 0.9511 -0.0000 -0.3090
vn -0.0000 -0.0000 -1.0000
vn -0.0000 -1.0000 -0.0000
vn -0.0000 -0.0000 1.0000
vt 0.544713 0.000000
vt 0.635527 0.000000
vt 0.681833 0.600065
vt 0.584567 0.516450
vt 0.541362 0.000000
vt 0.873918 0.351723
vt 0.873856 0.446270
vt 0.451906 0.000000
vt 0.336145 0.336145
vt 1.000000 0.364473
vt 1.000000 0.455287
vt 0.431006 0.431006
vt 1.000000 0.548094
vt 0.543921 0.543921
vt 0.453639 0.453639
vt 1.000000 0.458638
vt 1.000000 0.453639
vt 1.000000 0.543921
vt 0.455598 0.000000
vt 0.545960 0.000000
vt 1.000000 0.280014
vt 1.000000 0.382962
vt 0.564824 0.227641
vt 0.157504 0.000000
vt 0.484483 0.000000
vt 0.529899 0.089082
vt 0.644501 0.153130
vt 0.454040 0.000000
vt 0.544402 0.000000
vt 1.000000 0.414227
vt 1.000000 0.496384
vt 0.719986 0.000000
vt 1.000000 0.336145
vt 1.000000 0.431006
vt 0.617038 0.000000
vt 0.484483 0.484483
vt 0.157504 0.157504
vt 0.276825 0.190739
vt 1.000000 0.429571
vt 1.000000 0.552164
vt 0.877688 0.511770
vt 0.778488 0.484140
vt 0.991492 0.399771
vt 0.447835 0.000000
vt 0.570429 0.000000
vt 0.528811 0.342220
vt 0.496384 0.496384
vt 0.414227 0.414227
vt 0.486644 0.340775
vt 0.486644 0.560919
vt 0.437840 0.560919
vt 0.437840 0.468934
vt 0.472658 0.377406
vt 0.489537 0.335674
vt 0.535448 0.380241
vt 0.535448 0.560919
vt 0.352357 0.461393
vt 0.347945 0.461393
vt 0.340254 0.461393
vt 0.641579 0.159737
vt 0.633849 0.208541
vt 0.616848 0.203016
vt 0.603527 0.246835
vt 0.616539 0.202916
vt 0.623378 0.114335
vt 0.616539 0.076960
vt 0.609019 0.068648
vt 0.619876 0.083509
vt 0.633849 0.110933
vt 0.648943 0.637264
vt 0.648943 0.859752
vt 0.623404 0.859752
vt 0.619668 0.815519
vt 0.617655 0.791361
vt 0.617682 0.681763
vt 0.752462 0.804120
vt 0.757511 0.822388
vt 0.756772 0.826437
vt 0.750061 0.859752
vt 0.735302 0.859752
vt 0.735302 0.742454
vt 0.744324 0.774830
vt 0.692123 0.859752
vt 0.692123 0.628966
vt 0.694488 0.635161
vt 0.648943 0.637264
vt 0.661861 0.624725
vt 0.689718 0.624725
vt 0.692123 0.628966
vt 0.962119 0.758335
vt 0.962119 0.709531
vt 0.998008 0.709531
vt 0.998008 0.758335
vt 0.962119 0.807139
vt 0.998008 0.807139
vt 0.437840 0.596808
vt 0.437840 0.620734
vt 0.410417 0.620734
vt 0.405128 0.594477
vt 0.404242 0.589626
vt 0.408454 0.574390
vt 0.418206 0.539291
vt 0.437840 0.468934
vt 0.568814 0.620734
vt 0.535448 0.620734
vt 0.535448 0.596808
vt 0.535448 0.380241
vt 0.573716 0.434713
vt 0.573755 0.561958
vt 0.572029 0.582664
vt 0.486644 0.596808
vt 0.486644 0.620734
vt 0.753849 0.903677
vt 0.753849 0.863743
vt 0.903076 0.807139
vt 0.910806 0.758335
vt 0.903076 0.709531
vt 0.943010 0.758335
vt 0.955984 0.758335
vt 0.943010 0.807139
vt 0.711825 0.903677
vt 0.711825 0.863743
vt 0.851762 0.758335
vt 0.844033 0.709531
vt 0.883967 0.758335
vt 0.896941 0.758335
vt 0.883966 0.807139
vt 0.844033 0.807139
s 0
usemtl lambert2SG
f 462/522/171 457/523/171 458/524/171 460/525/171
f 463/526/172 464/527/172 466/528/172 468/529/172
f 470/530/173 457/531/173 462/532/173 471/533/173
f 468/534/174 473/535/174 474/536/174 463/537/174
f 474/538/175 473/539/175 476/540/175 475/541/175
f 469/542/176 472/543/176 478/544/176 479/545/176 480/546/176 481/547/176 477/548/176
f 475/549/177 476/550/177 483/551/177 484/552/177
f 469/553/178 470/554/178 471/555/178 472/556/178
f 480/557/179 479/558/179 491/559/179 488/560/179 487/561/179 492/562/179 489/563/179
f 485/564/180 487/565/180 488/566/180 486/567/180 484/568/180 483/569/180
s 1
f 454/570/181 493/571/182 494/572/183 451/573/184 452/574/185
f 444/575/186 447/576/187 496/577/188 493/571/182 454/570/181
f 490/578/189 482/579/189 443/580/189
f 502/581/189 499/582/189 461/583/189 459/584/189 498/585/189 503/586/189 501/587/189 467/588/189 465/589/189 500/590/189
f 446/591/190 412/592/191 428/593/192 427/594/192 437/595/192 435/596/192
f 442/597/193 439/598/193 433/599/193 434/600/193 413/601/194 450/602/195 448/603/193
f 413/601/194 414/604/196 455/605/197 453/606/198 450/602/195
f 414/604/196 412/592/191 446/607/190 445/608/199 456/609/199 455/610/197
f 506/611/182 504/612/200 507/613/200 509/614/182
f 510/615/201 506/611/182 509/614/182 512/616/201
f 514/617/183 410/618/202 432/619/203 431/620/203 440/621/203 441/622/203 449/623/203 451/624/184 494/572/183
f 430/625/204 409/626/205 516/627/188 496/577/188 447/628/187 436/629/204 438/630/204 429/631/204
f 518/632/182 516/627/188 409/626/205 411/633/182
f 514/617/183 518/632/182 411/633/182 410/618/202
f 497/634/206 517/634/206 508/635/206 505/635/206
f 495/636/207 416/637/207 415/638/207 421/639/207 422/640/207 511/641/207
f 515/642/208 417/642/208 425/643/208 513/643/208
f 419/644/189 420/645/189 426/646/189 424/647/189 423/648/189 418/649/189
o Pot_cell.006
v -0.750481 -0.747149 -0.243846
v -0.638397 -0.747149 -0.463823
v -0.463823 -0.747149 -0.638397
v -0.243846 -0.747149 -0.750480
v 0.000000 -0.747149 -0.789102
v -0.663994 -0.427148 -0.215743
v -0.564827 -0.427148 -0.410371
v -0.410371 -0.427148 -0.564827
v -0.215745 -0.427148 -0.663994
v 0.000000 -0.427148 -0.698163
v 0.750481 -0.747149 -0.243846
v 0.638397 -0.747149 -0.463823
v 0.463823 -0.747149 -0.638397
v 0.243846 -0.747149 -0.750480
v 0.789102 -0.747149 0.000001
v 0.663994 -0.427148 -0.215743
v 0.564827 -0.427148 -0.410371
v 0.410371 -0.427148 -0.564827
v 0.215745 -0.427148 -0.663994
v -0.769671 -0.641599 -0.122686
v -0.250636 -0.747149 -0.040291
v -0.764609 -0.747149 -0.154647
v -0.769652 -0.367172 -0.122804
v -0.680947 -0.427148 -0.108704
v -0.680939 -0.302743 -0.108758
v -0.680875 -0.039110 -0.109161
v -0.769582 -0.080910 -0.123248
v 0.438443 -0.427148 0.055250
v 0.705970 -0.747149 0.093851
v 0.688643 -0.747149 0.106415
v 0.423060 -0.427148 0.066116
v 0.634245 -0.427148 -0.086847
v 0.789102 -0.701216 0.000001
v 0.783120 -0.747149 0.037771
v 0.786897 -0.679878 -0.013922
v -0.669253 0.036211 -0.182537
v -0.753728 0.021841 -0.223346
v -0.750481 0.024560 -0.243846
v -0.737840 0.029746 -0.268655
v -0.651207 0.045861 -0.240840
v -0.663994 0.040615 -0.215744
v -0.564827 0.080830 -0.410371
v -0.638397 0.070004 -0.463823
v -0.313605 0.154740 -0.614132
v -0.410371 0.129065 -0.564827
v -0.354139 0.153623 -0.694283
v -0.463823 0.124520 -0.638397
v -0.215745 0.106441 -0.663994
v -0.243846 0.099016 -0.750480
v 0.215745 -0.061437 -0.663994
v 0.243846 -0.090737 -0.750480
v 0.000000 0.015250 -0.698163
v 0.000000 -0.004062 -0.789102
v 0.410371 -0.116103 -0.564827
v 0.463823 -0.152524 -0.638397
v 0.638397 -0.183375 -0.463823
v 0.652514 -0.182984 -0.436118
v 0.564827 -0.143399 -0.410371
v 0.583875 -0.142871 -0.372987
v 0.673855 -0.427148 -0.153479
v 0.663994 -0.366707 -0.215743
v 0.750481 -0.456683 -0.243846
v -0.769671 -0.641599 -0.122686
v -0.764609 -0.747149 -0.154647
v -0.764609 -0.747149 -0.154647
v -0.250636 -0.747149 -0.040291
v -0.769652 -0.367172 -0.122804
v 0.688643 -0.747149 0.106415
v -0.313605 0.154740 -0.614132
v -0.215745 0.106441 -0.663994
v -0.680947 -0.427148 -0.108704
v -0.680947 -0.427148 -0.108704
v -0.680939 -0.302743 -0.108758
v -0.769582 -0.080910 -0.123248
v -0.680875 -0.039110 -0.109161
v 0.705970 -0.747149 0.093851
v 0.438443 -0.427148 0.055250
v 0.634245 -0.427148 -0.086847
v 0.423060 -0.427148 0.066116
v 0.783120 -0.747149 0.037771
v 0.783120 -0.747149 0.037771
v 0.789102 -0.701216 0.000001
v 0.786897 -0.679878 -0.013922
v -0.753728 0.021841 -0.223346
v -0.669253 0.036211 -0.182537
v -0.663994 0.040615 -0.215744
v -0.651207 0.045861 -0.240840
v -0.750481 0.024560 -0.243846
v -0.737840 0.029746 -0.268655
v -0.564827 0.080830 -0.410371
v -0.638397 0.070004 -0.463823
v -0.410371 0.129065 -0.564827
v -0.354139 0.153623 -0.694283
v -0.463823 0.124520 -0.638397
v -0.243846 0.099016 -0.750480
v 0.000000 -0.004062 -0.789102
v 0.000000 0.015250 -0.698163
v 0.215745 -0.061437 -0.663994
v 0.410371 -0.116103 -0.564827
v 0.564827 -0.143399 -0.410371
v 0.583875 -0.142871 -0.372987
v 0.638397 -0.183375 -0.463823
v 0.652514 -0.182984 -0.436118
v 0.463823 -0.152524 -0.638397
v 0.243846 -0.090737 -0.750480
v 0.663994 -0.366707 -0.215743
v 0.673855 -0.427148 -0.153479
v 0.673855 -0.427148 -0.153479
v 0.750481 -0.456683 -0.243846
v -0.750481 -0.747149 -0.243846
v -0.638397 -0.747149 -0.463823
v -0.463823 -0.747149 -0.638397
v -0.243846 -0.747149 -0.750480
v 0.000000 -0.747149 -0.789102
v -0.663994 -0.427148 -0.215743
v -0.564827 -0.427148 -0.410371
v -0.410371 -0.427148 -0.564827
v -0.215745 -0.427148 -0.663994
v 0.000000 -0.427148 -0.698163
v 0.750481 -0.747149 -0.243846
v 0.638397 -0.747149 -0.463823
v 0.463823 -0.747149 -0.638397
v 0.243846 -0.747149 -0.750480
v 0.789102 -0.747149 0.000001
v 0.663994 -0.427148 -0.215743
v 0.564827 -0.427148 -0.410371
v 0.410371 -0.427148 -0.564827
v 0.215745 -0.427148 -0.663994
vn -0.2077 -0.2926 0.9334
vn 0.3555 0.9143 -0.1940
vn 0.4987 0.5028 0.7060
vn -0.4129 0.6674 0.6197
vn -0.2116 0.9727 0.0955
vn -0.1575 0.0016 0.9875
vn 0.5063 0.5073 0.6974
vn 0.7152 0.5547 0.4252
vn -0.8090 -0.0000 -0.5878
vn -0.9511 -0.0000 -0.3090
vn -0.9461 -0.0000 -0.3238
vn -0.8910 -0.0000 -0.4540
vn -0.7972 -0.0000 -0.6038
vn -0.5878 -0.0000 -0.8090
vn -0.5694 -0.0000 -0.8221
vn -0.3090 -0.0000 -0.9511
vn -0.4540 -0.0000 -0.8910
vn -0.3474 -0.0000 -0.9377
vn -0.0000 -0.0000 -1.0000
vn -0.0363 -0.0000 -0.9993
vn -0.9877 -0.0000 -0.1564
vn -0.2109 0.9731 0.0931
vn -0.1557 -0.0009 0.9878
vn -0.0000 1.0000 -0.0000
vn -0.0000 -1.0000 -0.0000
vn 0.9461 -0.0000 0.3238
vn 0.9511 -0.0000 0.3090
vn 0.8090 -0.0000 0.5878
vn 0.7972 -0.0000 0.6038
vn 0.8910 -0.0000 0.4540
vn 0.5878 -0.0000 0.8090
vn 0.5694 -0.0000 0.8221
vn 0.4540 -0.0000 0.8910
vn 0.3090 -0.0000 0.9511
vn 0.3473 -0.0000 0.9377
vn -0.0000 -0.0000 1.0000
vn 0.0363 -0.0000 0.9993
vn 0.9877 -0.0000 0.1564
vn 0.9232 -0.0000 -0.3843
vn 0.9511 -0.0000 -0.3090
vn 0.8090 -0.0000 -0.5878
vn 0.8058 -0.0000 -0.5921
vn 0.8910 -0.0000 -0.4540
vn 0.5878 -0.0000 -0.8090
vn 0.5732 -0.0000 -0.8194
vn 0.3090 -0.0000 -0.9511
vn 0.2818 -0.0000 -0.9595
vn 1.0000 -0.0000 -0.0000
vn 0.9959 -0.0000 -0.0904
vn 0.9877 -0.0000 -0.1564
vn -0.8910 -0.0000 0.4540
vn -0.8058 -0.0000 0.5921
vn -0.8090 -0.0000 0.5878
vn -0.9511 -0.0000 0.3090
vn -0.9232 -0.0000 0.3843
vn -0.5732 -0.0000 0.8194
vn -0.5878 -0.0000 0.8090
vn -0.2817 -0.0000 0.9595
vn -0.3090 -0.0000 0.9511
vn -0.9877 -0.0000 0.1564
vt 0.716684 0.484607
vt 0.231207 0.000000
vt 0.721281 0.000000
vt 0.862356 0.815231
vt 0.815123 0.815123
vt 0.713126 0.713126
vt 0.976340 0.730669
vt 0.784983 0.617224
vt 0.735888 0.450710
vt 0.582414 0.251572
vt 0.339585 0.039304
vt 0.280344 0.000000
vt 0.382952 0.000000
vt 0.426855 0.029128
vt 0.701312 0.269044
vt 0.874776 0.494120
vt 0.930269 0.682324
vt 0.614690 0.614690
vt 1.000000 0.610498
vt 0.948136 0.948136
vt 0.470198 0.000000
vt 0.611633 0.000000
vt 1.000000 0.369606
vt 1.000000 0.504209
vt 0.712803 0.501071
vt 1.000000 0.603037
vt 1.000000 0.686170
vt 0.716082 0.585369
vt 0.504209 0.504209
vt 0.369606 0.369606
vt 0.620126 0.620126
vt 0.388367 0.000000
vt 0.529802 0.000000
vt 0.707904 0.707904
vt 1.000000 0.934822
vt 0.406616 0.341520
vt 0.207375 0.082157
vt 0.153153 0.000000
vt 0.484150 0.000000
vt 1.000000 0.614690
vt 1.000000 0.948136
vt 0.511395 0.153083
vt 0.560511 0.091518
vt 0.515850 0.000000
vt 0.846847 0.000000
vt 0.665475 0.227342
vt 0.382952 0.382952
vt 0.280344 0.280344
vt 0.684179 0.001804
vt 0.728206 0.001804
vt 0.728206 0.156256
vt 0.723241 0.157294
vt 0.684179 0.165351
vt 0.649239 0.001804
vt 0.684179 0.165351
vt 0.649239 0.176262
vt 0.856373 0.603940
vt 0.812347 0.603940
vt 0.812347 0.429482
vt 0.834365 0.423655
vt 0.856373 0.434586
vt 0.905177 0.603940
vt 0.856373 0.434586
vt 0.905177 0.455217
vt 0.746058 0.001804
vt 0.752455 0.022929
vt 0.752431 0.077854
vt 0.752342 0.135147
vt 0.732309 0.155711
vt 0.728206 0.156256
vt 0.656829 0.191084
vt 0.718383 0.000000
vt 0.818510 0.000000
vt 0.748740 0.216593
vt 0.590958 0.103511
vt 0.686170 0.686170
vt 0.603037 0.603037
vt 0.520332 0.096914
vt 0.610498 0.610498
vt 0.873650 0.626190
vt 1.000000 0.620126
vt 1.000000 0.707904
vt 0.721281 0.721281
vt 0.231207 0.231207
vt 0.947572 0.947572
vt 0.347873 0.461393
vt 0.345900 0.504573
vt 0.326052 0.543526
vt 0.295139 0.574439
vt 0.256186 0.594287
vt 0.213006 0.601126
vt 0.169827 0.594287
vt 0.130874 0.574439
vt 0.099960 0.543526
vt 0.080113 0.504573
vt 0.076720 0.483150
vt 0.297679 0.433882
vt 0.300758 0.432881
vt 0.339945 0.461393
vt 0.109762 0.143438
vt 0.006894 0.128786
vt 0.009722 0.110933
vt 0.032154 0.066906
vt 0.067094 0.031966
vt 0.111121 0.009534
vt 0.159925 0.159737
vt 0.208729 0.009534
vt 0.252756 0.031966
vt 0.287695 0.066906
vt 0.310128 0.110933
vt 0.317858 0.159737
vt 0.316661 0.159737
vt 0.301220 0.159737
vt 0.297337 0.159737
vt 0.158217 0.698736
vt 0.158217 0.605117
vt 0.197170 0.605117
vt 0.197170 0.706785
vt 0.163240 0.699786
vt 0.197170 0.706785
vt 0.228084 0.605117
vt 0.228084 0.716439
vt 0.255428 0.741186
vt 0.236061 0.736047
vt 0.236061 0.624725
vt 0.275014 0.624725
vt 0.275014 0.731519
vt 0.318194 0.624725
vt 0.318194 0.713268
vt 0.151571 0.697855
vt 0.136886 0.682780
vt 0.136805 0.630016
vt 0.136794 0.605117
vt 0.535448 0.379795
vt 0.535448 0.321661
vt 0.579475 0.321661
vt 0.579475 0.434496
vt 0.573930 0.434574
vt 0.614415 0.321661
vt 0.614415 0.440671
vt 0.998008 0.603940
vt 0.953981 0.603940
vt 0.953981 0.472564
vt 0.998008 0.484930
vt 0.905177 0.455217
vt 0.953981 0.472564
vt 0.486644 0.321661
vt 0.486644 0.330854
vt 0.479085 0.321661
vt 0.486644 0.330854
vt 0.489430 0.335125
vt 0.617472 0.681621
vt 0.609990 0.681515
vt 0.609990 0.624725
vt 0.648943 0.624725
vt 0.648943 0.636822
vt 0.579077 0.686978
vt 0.579077 0.624725
vt 0.361373 0.697919
vt 0.361373 0.624725
vt 0.400326 0.624725
vt 0.400326 0.686978
vt 0.318194 0.713268
vt 0.661405 0.624725
s 0
usemtl lambert2SG
f 582/650/209 584/651/209 581/652/209
f 613/653/210 611/654/210 587/655/210 588/656/210 615/657/210 616/658/210 617/659/210 618/660/210 619/661/210 621/662/210 620/663/210 622/664/210 623/665/210 614/666/210
f 595/667/211 597/668/211 586/669/211
f 592/670/212 593/671/212 603/672/212 602/673/212
f 604/674/213 605/675/213 607/676/213 606/677/213 602/678/213 603/679/213
f 591/680/214 593/681/214 592/682/214 585/683/214
f 594/684/215 598/685/215 600/686/215 601/687/215 596/688/215 595/689/215 586/690/215
f 624/691/216 625/692/216 596/693/216 601/694/216 627/695/216 621/696/216 619/697/216
s 1
f 629/698/217 628/699/218 556/700/219 557/701/220 609/702/221
f 630/703/222 629/698/217 609/704/221 612/705/223
f 631/706/224 630/707/222 612/708/223 564/709/225 567/710/226
f 632/711/227 631/706/224 567/712/226 571/713/228
f 628/699/218 583/714/229 538/715/229 541/716/229 545/717/229 555/718/229 556/719/219
s 0
f 610/720/230 587/721/230 611/722/230 565/723/230 561/724/230 607/725/230 605/726/230 608/727/230
f 597/728/231 589/729/231 591/730/231 585/731/231 581/732/231 584/733/231 586/734/231
s 1
f 626/735/232 643/736/232 644/737/232 645/738/232 646/739/232 637/740/232 636/741/232 635/742/232 634/743/232 633/744/232 590/745/232 549/746/232 546/747/232 550/748/232
f 539/749/233 540/750/233 519/751/233 520/752/233 521/753/233 522/754/233 523/755/233 641/756/233 640/757/233 639/758/233 529/759/233 642/760/233 599/761/233 547/762/233 548/763/233
f 559/764/234 524/765/235 525/766/236 560/767/237 558/768/238
f 560/769/237 525/766/236 526/770/239 563/771/240
f 562/772/241 563/773/240 526/774/239 527/775/242 566/776/243
f 566/776/243 527/775/242 528/777/244 570/778/245
f 554/779/246 544/780/246 543/781/246 542/782/246 524/765/235 559/764/234
f 580/783/247 638/784/248 530/785/249 574/786/250 575/787/251
f 530/785/249 531/788/252 573/789/253 574/786/250
f 531/790/252 532/791/254 569/792/255 573/793/253
f 532/791/254 632/711/227 571/794/228 569/795/255
f 533/796/256 551/797/257 552/798/246
f 551/799/257 533/796/256 638/784/248 580/783/247 553/800/258
f 577/801/259 576/802/260 535/803/261 534/804/262 579/805/263
f 572/806/264 536/807/265 535/803/261 576/802/260
f 568/808/266 537/809/267 536/810/265 572/811/264
f 570/812/245 528/777/244 537/809/267 568/808/266
f 534/804/262 578/813/268 579/805/263
o Pot_cell.007
v 0.000000 -0.427148 0.698165
v -0.215744 -0.427148 0.663994
v -0.410370 -0.427148 0.564827
v -0.564826 -0.427148 0.410371
v -0.663993 -0.427148 0.215745
v -0.698164 -0.427148 0.000001
v 0.463822 -0.747149 0.638397
v 0.215744 -0.427148 0.663994
v -0.789102 -0.616487 0.000001
v -0.247917 -0.747149 -0.038206
v -0.769971 -0.641049 -0.120787
v -0.681216 -0.427148 -0.107009
v 0.683965 -0.747149 0.114863
v 0.685189 -0.747149 0.109194
v 0.412982 -0.427148 0.109462
v 0.422050 -0.427148 0.067449
v 0.430957 -0.590237 0.655143
v 0.463822 -0.624520 0.638397
v 0.316601 -0.427148 0.545047
v 0.597761 -0.747149 0.504459
v -0.769902 -0.111005 -0.121223
v -0.681185 -0.078343 -0.107201
v 0.000000 -0.119194 0.789102
v 0.243846 -0.395446 0.750481
v -0.243846 0.177262 0.750480
v -0.319266 0.275882 0.712052
v 0.299626 -0.427148 0.621254
v 0.215744 -0.339823 0.663994
v 0.000000 -0.095408 0.698165
v -0.215744 0.166884 0.663994
v -0.294568 0.269955 0.623831
v -0.638397 -0.573485 0.463823
v -0.463822 -0.584396 0.638397
v -0.750481 -0.584543 0.243847
v 0.000000 -0.665810 0.789102
v -0.243846 -0.616209 0.750481
v 0.303503 -0.747149 0.720084
v 0.243846 -0.728343 0.750481
v -0.769930 -0.081291 -0.121049
v -0.681221 -0.039678 -0.106974
v -0.638397 0.088215 0.463823
v -0.750481 -0.002961 0.243847
v -0.789102 -0.066371 0.000001
v -0.775793 -0.076512 -0.084027
v -0.688851 -0.033458 -0.058801
v -0.698164 -0.026362 0.000001
v -0.663993 0.029741 0.215745
v -0.463823 0.198263 0.638397
v -0.564826 0.110419 0.410371
v -0.410370 0.207775 0.564827
v -0.789102 -0.616487 0.000001
v -0.769971 -0.641049 -0.120787
v 0.303503 -0.747149 0.720084
v 0.303503 -0.747149 0.720084
v -0.247917 -0.747149 -0.038206
v 0.685189 -0.747149 0.109194
v 0.412982 -0.427148 0.109462
v 0.422050 -0.427148 0.067449
v 0.683965 -0.747149 0.114863
v 0.430957 -0.590237 0.655143
v 0.463822 -0.624520 0.638397
v 0.597761 -0.747149 0.504459
v 0.597761 -0.747149 0.504459
v 0.316601 -0.427148 0.545047
v -0.769902 -0.111005 -0.121223
v -0.681216 -0.427148 -0.107009
v -0.681216 -0.427148 -0.107009
v -0.681185 -0.078343 -0.107201
v 0.000000 -0.095408 0.698165
v -0.215744 0.166884 0.663994
v -0.294568 0.269955 0.623831
v -0.243846 0.177262 0.750480
v -0.319266 0.275882 0.712052
v 0.000000 -0.119194 0.789102
v 0.243846 -0.395446 0.750481
v 0.299626 -0.427148 0.621254
v 0.299626 -0.427148 0.621254
v 0.215744 -0.339823 0.663994
v 0.000000 -0.665810 0.789102
v -0.243846 -0.616209 0.750481
v -0.463822 -0.584396 0.638397
v -0.638397 -0.573485 0.463823
v -0.750481 -0.584543 0.243847
v 0.243846 -0.728343 0.750481
v -0.681221 -0.039678 -0.106974
v -0.769930 -0.081291 -0.121049
v -0.698164 -0.026362 0.000001
v -0.663993 0.029741 0.215745
v -0.688851 -0.033458 -0.058801
v -0.789102 -0.066371 0.000001
v -0.775793 -0.076512 -0.084027
v -0.750481 -0.002961 0.243847
v -0.638397 0.088215 0.463823
v -0.463823 0.198263 0.638397
v -0.410370 0.207775 0.564827
v -0.564826 0.110419 0.410371
v 0.000000 -0.427148 0.698165
v -0.215744 -0.427148 0.663994
v -0.410370 -0.427148 0.564827
v -0.564826 -0.427148 0.410371
v -0.663993 -0.427148 0.215745
v -0.698164 -0.427148 0.000001
v 0.463822 -0.747149 0.638397
v 0.215744 -0.427148 0.663994
vn -0.3967 0.9017 -0.1716
vn 0.7517 0.6393 0.1622
vn 0.7511 0.6389 0.1662
vn 0.1561 -0.0008 -0.9877
vn 0.7506 0.6392 0.1672
vn 0.1540 0.0059 -0.9881
vn -0.3944 0.9013 -0.1788
vn 0.0221 -0.0000 0.9998
vn -0.0853 -0.0000 0.9964
vn -0.3912 -0.0000 0.9203
vn -0.2937 -0.0000 0.9559
vn -0.4540 -0.0000 0.8910
vn -0.5523 -0.0000 0.8337
vn -0.5809 -0.0000 0.8140
vn -0.7860 -0.0000 0.6182
vn -0.8090 -0.0000 0.5878
vn -0.9537 -0.0000 0.3009
vn -0.9415 -0.0000 0.3370
vn -0.9999 -0.0000 -0.0161
vn -0.9998 -0.0000 0.0179
vn -0.9877 -0.0000 -0.1564
vn -0.2210 -0.9619 0.1609
vn -0.0000 -1.0000 -0.0000
vn -0.0000 1.0000 -0.0000
vn -0.0000 -0.0000 -1.0000
vn 0.3090 -0.0000 -0.9511
vn 0.3912 -0.0000 -0.9203
vn 0.0853 -0.0000 -0.9964
vn 0.4540 -0.0000 -0.8910
vn 0.5878 -0.0000 -0.8090
vn 0.5523 -0.0000 -0.8337
vn 0.8090 -0.0000 -0.5878
vn 0.7860 -0.0000 -0.6182
vn 0.9511 -0.0000 -0.3090
vn 0.9415 -0.0000 -0.3370
vn 1.0000 -0.0000 -0.0000
vn 0.9998 -0.0000 -0.0179
vn 0.9877 -0.0000 0.1564
vn 0.3337 -0.0000 0.9427
vn 0.2343 -0.0000 0.9722
vn 0.5878 -0.0000 0.8090
vn 0.5356 -0.0000 0.8445
vn 0.4540 -0.0000 0.8910
vn 0.7071 -0.0000 0.7071
vn -0.3090 -0.0000 -0.9511
vn -0.2343 -0.0000 -0.9722
vn -0.4540 -0.0000 -0.8910
vt 0.923176 0.583222
vt 1.000000 0.590432
vt 1.000000 0.685247
vt 0.890217 0.674943
vt 0.599627 0.567134
vt 0.972807 0.372499
vt 0.210688 0.166599
vt 0.171078 0.000000
vt 0.290225 0.000000
vt 0.321957 0.133460
vt 0.458909 0.332860
vt 0.666075 0.487837
vt 1.000000 0.641455
vt 1.000000 0.951623
vt 0.947431 0.947431
vt 0.610389 0.610389
vt 0.641693 0.000000
vt 0.799829 0.000000
vt 0.833049 0.058743
vt 0.951836 0.377892
vt 0.951623 0.951623
vt 0.641455 0.641455
vt 1.000000 0.947431
vt 0.767805 0.767805
vt 0.277427 0.277427
vt 0.291621 0.000000
vt 0.379468 0.000000
vt 0.359397 0.358142
vt 1.000000 0.610389
vt 0.769876 0.098107
vt 0.709775 0.000000
vt 0.828922 0.000000
vt 0.886428 0.093871
vt 0.955155 0.371258
vt 0.918153 0.625091
vt 0.799829 0.799829
vt 0.641693 0.641693
vt 0.744899 0.646442
vt 0.797944 0.568107
vt 0.830683 0.343527
vt 1.000000 0.620533
vt 1.000000 0.708379
vt 0.533092 0.533092
vt 0.392443 0.392443
vt 0.590432 0.590432
vt 1.000000 0.392443
vt 1.000000 0.533092
vt 0.685247 0.685247
vt 0.713381 0.337940
vt 0.713381 0.447341
vt 0.664577 0.506675
vt 0.664577 0.347868
vt 0.664577 0.506675
vt 0.649482 0.526413
vt 0.620550 0.510878
vt 0.620550 0.354235
vt 0.869840 0.168996
vt 0.869840 0.036562
vt 0.904780 0.034378
vt 0.904780 0.191021
vt 0.825813 0.034348
vt 0.869840 0.036562
vt 0.869840 0.168996
vt 0.825813 0.150748
vt 0.777009 0.027955
vt 0.825813 0.034348
vt 0.777009 0.138057
vt 0.752782 0.135070
vt 0.752748 0.129123
vt 0.752835 0.023039
vt 0.777009 0.027955
vt 0.760192 0.136027
vt 0.594879 0.506775
vt 0.570483 0.371053
vt 0.636197 0.263354
vt 0.785589 0.194219
vt 0.834999 0.008246
vt 1.000000 0.277427
vt 1.000000 0.767805
vt 0.962889 0.844516
vt 0.895868 0.807702
vt 0.707000 0.657234
vt 0.252755 0.287507
vt 0.220668 0.243343
vt 0.110306 0.143615
vt 0.297061 0.159737
vt 0.296816 0.159737
vt 0.279562 0.246658
vt 0.076666 0.482810
vt 0.073274 0.461393
vt 0.080113 0.418214
vt 0.099960 0.379261
vt 0.130874 0.348348
vt 0.169827 0.328500
vt 0.213006 0.461393
vt 0.256186 0.328500
vt 0.272974 0.337054
vt 0.276372 0.338785
vt 0.295662 0.434537
vt 0.297477 0.433947
vt 0.489702 0.859752
vt 0.446522 0.859752
vt 0.446522 0.740861
vt 0.489702 0.793357
vt 0.430746 0.720232
vt 0.407569 0.859752
vt 0.407569 0.732677
vt 0.001992 0.605117
vt 0.032905 0.605117
vt 0.032905 0.712707
vt 0.001992 0.732192
vt 0.071858 0.605117
vt 0.071858 0.696560
vt 0.115038 0.605117
vt 0.115038 0.685331
vt 0.136455 0.605117
vt 0.136493 0.674928
vt 0.136448 0.682666
vt 0.126807 0.683911
vt 0.762185 0.325425
vt 0.762185 0.392052
vt 0.713381 0.447341
vt 0.806211 0.321661
vt 0.806211 0.346204
vt 0.799633 0.353066
vt 0.762185 0.392052
vt 0.762185 0.325425
vt 0.774125 0.321661
vt 0.358874 0.346204
vt 0.358874 0.321661
vt 0.385681 0.321661
vt 0.532881 0.859752
vt 0.532881 0.842274
vt 0.549670 0.859752
s 0
usemtl lambert2SG
f 733/814/269 735/815/269 737/816/269 736/817/269 738/818/269 739/819/269 740/820/269 719/821/269 717/822/269 741/823/269 742/824/269 734/825/269
f 703/826/270 705/827/270 702/828/270 704/829/270
f 710/830/271 706/831/271 707/832/271 708/833/271 705/834/271 703/835/271
f 702/836/272 701/837/272 657/838/272 711/839/272 714/840/272 712/841/272 704/842/272
f 716/843/273 717/844/273 719/845/273 718/846/273 720/847/273 721/848/273 706/849/273 710/850/273 722/851/273 724/852/273 715/853/273
f 714/854/274 711/855/274 732/856/274 731/857/274
f 735/858/275 731/859/275 732/860/275 737/861/275
s 1
f 725/862/276 669/863/277 671/864/278 726/865/279
f 726/865/279 671/866/278 672/867/280 694/868/281 727/869/282
f 687/870/283 728/871/284 727/872/282 694/873/281
f 729/874/285 728/875/284 687/876/283 688/877/286
f 697/878/287 729/879/285 688/877/286 689/880/288
f 685/881/289 667/882/289 698/883/289 697/884/287 689/880/288 690/885/289
s 0
f 682/886/290 679/887/290 678/888/290 680/889/290 655/890/290 657/891/290 701/892/290 699/893/290 730/894/290 681/895/290
s 1
f 749/896/291 700/897/291 656/898/291 660/899/291 659/900/291 709/901/291
f 713/902/292 748/903/292 747/904/292 746/905/292 745/906/292 744/907/292 743/908/292 750/909/292 723/910/292 665/911/292 661/912/292 662/913/292
f 647/914/293 648/915/294 676/916/295 675/917/296
f 677/918/297 676/916/295 648/915/294 649/919/298 696/920/299
f 649/921/298 650/922/300 695/923/301 696/924/299
f 695/923/301 650/922/300 651/925/302 693/926/303
f 693/926/303 651/925/302 652/927/304 692/928/305
f 692/928/305 652/927/304 658/929/306 668/930/306 686/931/306 691/932/306
f 684/933/307 670/934/308 669/935/277 725/862/276
f 653/936/309 664/937/310 663/938/311 670/939/308 684/940/307 683/941/311
f 664/942/310 653/943/309 666/944/312
f 654/945/313 647/914/293 675/917/296 674/946/314
f 674/946/314 673/947/315 654/945/313
o Pot_cell.008
v -0.750481 0.747149 -0.243846
v -0.638397 0.747149 -0.463823
v -0.463823 0.747149 -0.638397
v -0.663994 0.747149 -0.215745
v -0.564827 0.747149 -0.410371
v -0.410371 0.747149 -0.564827
v -0.750481 0.448290 -0.243846
v -0.750481 0.627605 -0.243846
v -0.950007 0.448290 -0.243846
v -0.950007 0.627605 -0.243846
v -0.354865 0.649928 -0.693914
v -0.355255 0.154871 -0.693715
v -0.314578 0.155938 -0.613636
v -0.737626 0.031187 -0.269075
v -0.651004 0.047234 -0.241239
v -0.564827 0.082197 -0.410371
v -0.638397 0.071445 -0.463823
v -0.463823 0.126051 -0.638397
v -0.410371 0.130510 -0.564827
v -0.753688 0.023802 -0.223597
v -0.750481 0.026249 -0.243846
v -0.669228 0.038250 -0.182696
v -0.663994 0.042244 -0.215744
v -0.959830 0.448290 -0.206895
v -0.970645 0.627605 -0.166214
v -0.769616 0.448290 -0.123029
v -0.780815 0.747149 -0.052324
v -0.695807 0.747149 -0.014881
v -0.776336 0.627605 -0.080604
v -0.314397 0.592153 -0.613728
v -0.338953 0.747149 -0.601216
v -0.370137 0.747149 -0.686132
v -0.314578 0.155938 -0.613636
v -0.314397 0.592153 -0.613728
v -0.737626 0.031187 -0.269075
v -0.638397 0.071445 -0.463823
v -0.463823 0.126051 -0.638397
v -0.355255 0.154871 -0.693715
v -0.410371 0.130510 -0.564827
v -0.564827 0.082197 -0.410371
v -0.651004 0.047234 -0.241239
v -0.669228 0.038250 -0.182696
v -0.663994 0.042244 -0.215744
v -0.753688 0.023802 -0.223597
v -0.750481 0.026249 -0.243846
v -0.959830 0.448290 -0.206895
v -0.959830 0.448290 -0.206895
v -0.970645 0.627605 -0.166214
v -0.970645 0.627605 -0.166214
v -0.769616 0.448290 -0.123029
v -0.769616 0.448290 -0.123029
v -0.354865 0.649928 -0.693914
v -0.780815 0.747149 -0.052324
v -0.780815 0.747149 -0.052324
v -0.695807 0.747149 -0.014881
v -0.695807 0.747149 -0.014881
v -0.776336 0.627605 -0.080604
v -0.776336 0.627605 -0.080604
v -0.338953 0.747149 -0.601216
v -0.338953 0.747149 -0.601216
v -0.370137 0.747149 -0.686132
v -0.370137 0.747149 -0.686132
v -0.750481 0.448290 -0.243846
v -0.750481 0.448290 -0.243846
v -0.750481 0.747149 -0.243846
v -0.638397 0.747149 -0.463823
v -0.663994 0.747149 -0.215745
v -0.564827 0.747149 -0.410371
v -0.463823 0.747149 -0.638397
v -0.410371 0.747149 -0.564827
v -0.950007 0.627605 -0.243846
v -0.950007 0.627605 -0.243846
v -0.950007 0.448290 -0.243846
v -0.950007 0.448290 -0.243846
v -0.750481 0.627605 -0.243846
v -0.750481 0.627605 -0.243846
vn 0.8921 -0.0007 -0.4519
vn 0.2104 -0.9731 -0.0939
vn 0.2078 -0.9745 -0.0848
vn 0.9242 0.1733 -0.3404
vn -0.3927 -0.2258 0.8915
vn -0.9334 -0.0000 -0.3587
vn -0.9511 -0.0000 -0.3090
vn -0.8090 -0.0000 -0.5878
vn -0.8208 -0.0000 -0.5712
vn -0.8910 -0.0000 -0.4540
vn -0.9556 -0.0000 -0.2948
vn -0.9877 -0.0000 -0.1564
vn -0.0000 1.0000 -0.0000
vn -0.6061 -0.0000 -0.7954
vn -0.5878 -0.0000 -0.8090
vn -0.4540 -0.0000 -0.8910
vn 0.8208 -0.0000 0.5712
vn 0.8090 -0.0000 0.5878
vn 0.9511 -0.0000 0.3090
vn 0.9556 -0.0000 0.2948
vn 0.8910 -0.0000 0.4540
vn 0.6061 -0.0000 0.7954
vn 0.5878 -0.0000 0.8090
vn 0.4540 -0.0000 0.8910
vn 0.9877 -0.0000 0.1564
vn -0.9664 -0.0000 -0.2569
vn -0.0000 -1.0000 -0.0000
vn -0.0000 -0.0000 -1.0000
vt 1.000000 0.814681
vt 0.184986 0.000000
vt 0.287189 0.000000
vt 1.000000 0.712520
vt 0.797568 0.338735
vt 0.840305 0.683504
vt 0.818328 0.818328
vt 0.718178 0.718178
vt 0.737568 0.599217
vt 0.699756 0.294179
vt 0.603018 0.000000
vt 0.686179 0.000000
vt 1.000000 0.372582
vt 1.000000 0.506642
vt 0.871525 0.585489
vt 0.686179 0.686179
vt 0.603018 0.603018
vt 0.790322 0.501265
vt 0.969135 0.146295
vt 0.963376 0.238103
vt 0.718466 0.000000
vt 0.818656 0.000000
vt 0.930865 0.631074
vt 0.764476 0.589959
vt 0.851003 0.075213
vt 0.833839 0.277338
vt 0.531920 0.014806
vt 0.506642 0.506642
vt 0.372582 0.372582
vt 0.930847 0.524949
vt 0.728206 0.276951
vt 0.728206 0.300876
vt 0.684179 0.300876
vt 0.684179 0.165639
vt 0.723157 0.157582
vt 0.728206 0.156594
vt 0.728206 0.241062
vt 0.752386 0.241062
vt 0.732259 0.156104
vt 0.344386 0.162715
vt 0.350752 0.242513
vt 0.370600 0.267292
vt 0.401513 0.292958
vt 0.415807 0.300241
vt 0.409566 0.297061
vt 0.390815 0.287507
vt 0.355875 0.252567
vt 0.333443 0.208541
vt 0.327372 0.170209
vt 0.812347 0.429176
vt 0.812347 0.304868
vt 0.831097 0.304868
vt 0.834154 0.324325
vt 0.834076 0.423408
vt 0.197170 0.707059
vt 0.197170 0.840144
vt 0.158218 0.840144
vt 0.158217 0.699062
vt 0.163320 0.700061
vt 0.228084 0.716728
vt 0.228084 0.840144
vt 0.197170 0.707059
vt 0.255291 0.741495
vt 0.255270 0.828731
vt 0.250355 0.859752
vt 0.236061 0.859752
vt 0.236061 0.736336
vt 0.151603 0.698263
vt 0.118016 0.840144
vt 0.848840 0.690003
vt 0.848840 0.705540
vt 0.812951 0.705540
vt 0.812951 0.698145
vt 0.684179 0.165639
vt 0.649239 0.300876
vt 0.649239 0.176568
vt 0.766537 0.300876
vt 0.760877 0.276951
vt 0.866836 0.656736
vt 0.868802 0.656736
vt 0.908736 0.607932
vt 0.904906 0.632113
vt 0.802009 0.863743
vt 0.837897 0.903677
vt 0.963979 0.672868
vt 0.969153 0.705540
vt 0.929220 0.705540
vt 0.925089 0.690003
s 0
usemtl lambert2SG
f 788/948/316 802/949/316 784/950/316 783/951/316
f 786/952/317 787/953/317 788/954/317 783/955/317 789/956/317 790/957/317 791/958/317 785/959/317
f 792/960/318 794/961/318 795/962/318 785/963/318 791/964/318 793/965/318
f 811/966/319 809/967/319 784/968/319 802/969/319
f 803/970/320 807/971/320 798/972/320 796/973/320 800/974/320 794/975/320 792/976/320 805/977/320
s 1
f 825/978/321 815/979/322 816/980/323 767/981/324 764/982/325 771/983/326 813/984/321
f 801/985/327 813/984/321 771/983/326 770/986/327
f 806/987/328 817/988/328 818/989/328 820/990/328 810/991/328 812/992/328 819/993/328 752/994/328 751/995/328 804/996/328
f 768/997/329 753/998/330 782/999/331 761/1000/331 762/1001/331
f 766/1002/332 755/1003/333 754/1004/334 773/1005/335 765/1006/336
f 769/1007/337 756/1008/338 755/1003/333 766/1009/332
f 763/1010/339 780/1011/339 781/1012/339 756/1013/338 769/1014/337
f 772/1015/340 773/1005/335 754/1004/334 778/1016/340
f 799/1017/341 821/1018/341 823/1019/341 797/1020/341
f 767/1021/324 816/980/323 753/1022/330 768/1023/329
f 777/1024/327 815/979/322 825/978/321 808/1025/327
f 774/1026/342 824/1027/342 814/1028/342 776/1029/342
f 757/1030/343 759/1031/343 822/1031/343 826/1030/343
f 779/1032/328 758/1033/328 760/1034/328 775/1035/328
o Pot_cell.009
v -0.243846 0.747149 -0.750480
v 0.000000 0.747149 -0.789102
v -0.215745 0.747149 -0.663994
v 0.000000 0.747149 -0.698163
v 0.638397 0.747149 -0.463823
v 0.463823 0.747149 -0.638397
v 0.243846 0.747149 -0.750480
v 0.564827 0.747149 -0.410371
v 0.410371 0.747149 -0.564827
v 0.215745 0.747149 -0.663994
v 0.524452 0.465264 -0.450746
v 0.638397 0.475321 -0.463823
v 0.648741 0.459919 -0.443522
v 0.598337 0.505691 -0.503883
v 0.580846 0.410802 -0.378931
v 0.564827 0.434655 -0.410371
v -0.215745 0.627734 -0.663994
v -0.243846 0.693567 -0.750480
v 0.000000 0.722909 -0.789102
v 0.000000 0.653693 -0.698163
v 0.215745 0.627639 -0.663994
v 0.243846 0.693459 -0.750480
v 0.463823 0.608102 -0.638397
v 0.410371 0.552118 -0.564827
v 0.583526 0.407023 -0.373672
v 0.652174 0.455077 -0.436784
v 0.584371 0.425393 -0.372013
v 0.653257 0.478611 -0.434659
v 0.657744 0.582869 -0.425852
v 0.589609 0.547081 -0.361734
v -0.313163 0.593093 -0.614357
v -0.353821 0.652946 -0.694445
v -0.337538 0.747149 -0.601938
v -0.368726 0.747149 -0.686851
v 0.598092 0.747149 -0.345084
v 0.664710 0.747149 -0.412180
v 0.524452 0.465264 -0.450746
v 0.564827 0.434655 -0.410371
v 0.638397 0.475321 -0.463823
v 0.598337 0.505691 -0.503883
v 0.648741 0.459919 -0.443522
v 0.580846 0.410802 -0.378931
v 0.215745 0.627639 -0.663994
v 0.410371 0.552118 -0.564827
v 0.000000 0.653693 -0.698163
v -0.215745 0.627734 -0.663994
v -0.243846 0.693567 -0.750480
v 0.000000 0.722909 -0.789102
v 0.243846 0.693459 -0.750480
v -0.353821 0.652946 -0.694445
v 0.463823 0.608102 -0.638397
v 0.583526 0.407023 -0.373672
v 0.652174 0.455077 -0.436784
v 0.584371 0.425393 -0.372013
v 0.653257 0.478611 -0.434659
v 0.589609 0.547081 -0.361734
v 0.657744 0.582869 -0.425852
v -0.337538 0.747149 -0.601938
v -0.337538 0.747149 -0.601938
v -0.368726 0.747149 -0.686851
v -0.368726 0.747149 -0.686851
v -0.313163 0.593093 -0.614357
v 0.598092 0.747149 -0.345084
v 0.598092 0.747149 -0.345084
v 0.664710 0.747149 -0.412180
v 0.664710 0.747149 -0.412180
v -0.215745 0.747149 -0.663994
v -0.243846 0.747149 -0.750480
v 0.000000 0.747149 -0.789102
v 0.000000 0.747149 -0.698163
v 0.638397 0.747149 -0.463823
v 0.564827 0.747149 -0.410371
v 0.463823 0.747149 -0.638397
v 0.410371 0.747149 -0.564827
v 0.243846 0.747149 -0.750480
v 0.215745 0.747149 -0.663994
vn 0.0009 -0.7965 -0.6047
vn -0.0018 -0.7964 -0.6048
vn 0.0216 -0.8066 -0.5907
vn 0.7092 -0.0957 0.6985
vn 0.7071 -0.0897 0.7014
vn -0.9244 -0.1736 0.3395
vn 0.7069 -0.0884 0.7018
vn 0.6194 -0.0000 -0.7851
vn 0.5878 -0.0000 -0.8090
vn 0.8090 -0.0000 -0.5878
vn 0.8390 -0.0000 -0.5441
vn 0.7071 -0.0000 -0.7071
vn 0.4540 -0.0000 0.8910
vn 0.3282 -0.0000 0.9446
vn 0.3090 -0.0000 0.9511
vn -0.0000 -0.0000 1.0000
vn -0.3286 -0.0000 -0.9445
vn -0.3090 -0.0000 -0.9511
vn -0.0000 -0.0000 -1.0000
vn -0.4540 -0.0000 -0.8910
vn -0.0000 1.0000 -0.0000
vn -0.8910 -0.0000 0.4540
vn -0.8090 -0.0000 0.5878
vn -0.8390 -0.0000 0.5441
vn -0.5878 -0.0000 0.8090
vn -0.6194 -0.0000 0.7851
vn -0.7071 -0.0000 0.7071
vn -0.3090 -0.0000 0.9511
vn -0.3292 -0.0000 0.9443
vn 0.3292 -0.0000 -0.9443
vn 0.3090 -0.0000 -0.9511
vn 0.8910 -0.0000 -0.4540
vt 1.000000 0.504787
vt 1.000000 0.572487
vt 0.591134 0.472162
vt 0.426445 0.426445
vt 0.332873 0.332873
vt 0.587920 0.403674
vt 0.776789 0.370927
vt 0.820457 0.238055
vt 0.777010 0.081790
vt 0.714154 0.000000
vt 0.816137 0.000000
vt 0.887275 0.092566
vt 0.936384 0.269186
vt 0.887024 0.419363
vt 0.744031 0.528398
vt 0.572487 0.572487
vt 0.504787 0.504787
vt 0.650273 0.467396
vt 1.000000 0.332873
vt 1.000000 0.426445
vt 0.569037 0.000000
vt 0.663600 0.000000
vt 1.000000 0.662450
vt 0.663600 0.663600
vt 0.569037 0.569037
vt 1.000000 0.567564
vt 0.662450 0.662450
vt 0.567564 0.567564
vt 0.543545 0.000000
vt 0.634416 0.000000
vt 0.968355 0.823493
vt 0.819262 0.819262
vt 0.719011 0.719011
vt 0.962834 0.725932
vt 0.548836 0.421822
vt 0.450551 0.323407
vt 1.000000 0.365584
vt 1.000000 0.456455
vt 0.614415 0.592905
vt 0.614415 0.620734
vt 0.579475 0.620734
vt 0.579475 0.566329
vt 0.587493 0.572408
vt 0.255630 0.828339
vt 0.275014 0.835852
vt 0.275014 0.859752
vt 0.250638 0.859752
vt 0.318194 0.841048
vt 0.318194 0.859752
vt 0.856373 0.315592
vt 0.856373 0.304868
vt 0.905177 0.304868
vt 0.905177 0.309719
vt 0.831380 0.304868
vt 0.856373 0.315592
vt 0.834363 0.323721
vt 0.440466 0.310831
vt 0.483646 0.317670
vt 0.526826 0.292630
vt 0.565779 0.272783
vt 0.596692 0.241869
vt 0.603350 0.246706
vt 0.616682 0.202963
vt 0.611416 0.252567
vt 0.576477 0.287507
vt 0.532450 0.309940
vt 0.434842 0.309940
vt 0.409848 0.297205
vt 0.416090 0.300385
vt 0.623057 0.859752
vt 0.609990 0.859752
vt 0.609990 0.797209
vt 0.616282 0.792435
vt 0.617335 0.791678
vt 0.617667 0.795355
vt 0.619724 0.819710
vt 0.609990 0.797209
vt 0.579077 0.859752
vt 0.579077 0.820718
vt 0.601909 0.803335
vt 0.400326 0.820718
vt 0.400326 0.859752
vt 0.361373 0.859752
vt 0.361373 0.835833
vt 0.953981 0.315613
vt 0.953981 0.304868
vt 0.998008 0.304868
vt 0.998008 0.332696
vt 0.569139 0.620734
vt 0.571875 0.587854
vt 0.573638 0.566987
vt 0.574063 0.562277
vt 0.575412 0.563246
s 0
usemtl lambert2SG
f 863/1036/344 866/1037/344 865/1038/344 867/1039/344 868/1040/344 864/1041/344
f 869/1042/345 871/1043/345 872/1044/345 888/1045/345 876/1046/345 873/1047/345 874/1048/345 875/1049/345 877/1050/345 866/1051/345 863/1052/345 870/1053/345
f 868/1054/346 867/1055/346 879/1056/346 878/1057/346
f 880/1058/347 878/1059/347 879/1060/347 881/1061/347
f 880/1062/348 881/1063/348 883/1064/348 882/1065/348
f 886/1066/349 876/1067/349 888/1068/349 884/1069/349
f 891/1070/350 889/1071/350 882/1072/350 883/1073/350
s 1
f 849/1074/351 899/1075/352 831/1076/353 838/1077/354 840/1078/355
f 857/1079/356 843/1080/357 893/1081/358 885/1082/356
f 846/1083/359 896/1084/359 893/1081/358 843/1080/357
f 844/1085/360 894/1086/361 895/1087/362 845/1088/362
f 887/1089/363 894/1086/361 844/1090/360 858/1091/363
f 829/1092/364 830/1093/364 902/1094/364 900/1095/364 898/1096/364 890/1097/364 892/1098/364 897/1099/364 832/1100/364 901/1101/364 828/1093/364 827/1102/364 860/1103/364 859/1104/364
f 861/1105/365 834/1106/366 842/1107/367 841/1108/365 851/1109/365 853/1110/365 856/1111/365
f 842/1112/367 834/1106/366 835/1113/368 850/1114/369 837/1115/370
f 850/1116/369 835/1117/368 836/1118/371 847/1119/372
f 847/1119/372 836/1118/371 896/1084/359 846/1083/359
f 848/1120/373 833/1121/374 899/1122/352 849/1123/351
f 845/1088/362 895/1087/362 833/1121/374 848/1120/373
f 838/1077/354 831/1076/353 862/1124/375 855/1125/375 854/1126/375 852/1127/375 839/1128/375
