# Blender 5.0.0
# www.blender.org
mtllib Potlid.mtl
o Potlid_cell
v 0.000625 0.045704 -0.001186
v 0.000000 -0.041545 -0.120338
v 0.114448 -0.041545 -0.037187
v 0.097356 -0.041545 -0.070734
v 0.070733 -0.041545 -0.097357
v 0.037186 -0.041545 -0.114449
v 0.000000 0.133884 -0.120338
v 0.037186 0.133884 -0.114449
v 0.143957 -0.160459 -0.441826
v 0.144011 -0.041545 -0.441665
v 0.276141 -0.160459 -0.356461
v 0.592899 -0.041545 -0.151769
v 0.784740 -0.160459 -0.027538
v 0.784712 -0.041545 -0.027720
v -0.130071 -0.041545 -0.404705
v 0.000426 0.135595 -0.112524
v 0.045199 0.133884 -0.110367
v 0.070733 0.123398 -0.097357
v 0.120157 0.045758 -0.001150
v 0.114448 0.074849 -0.037187
v 0.097356 0.101922 -0.070734
v 0.120167 0.008670 -0.001087
v 0.282256 -0.041545 -0.000953
v 0.788975 -0.041545 -0.000802
v 0.789007 -0.160459 -0.000600
v 0.666099 -0.160459 -0.000637
v 0.000510 -0.160459 -0.001438
v 0.120157 -0.041545 -0.001149
v -0.013656 -0.160459 -0.045055
v -0.047399 -0.041545 -0.149003
v -0.128792 -0.160459 -0.400701
v -0.125648 -0.041545 -0.390709
v -0.036226 -0.041545 -0.114601
v -0.036205 0.096516 -0.114604
v -0.006093 0.133884 -0.119373
v -0.128792 -0.160459 -0.400701
v 0.143957 -0.160459 -0.441826
v 0.144011 -0.041545 -0.441665
v 0.592899 -0.041545 -0.151769
v 0.276141 -0.160459 -0.356461
v 0.784740 -0.160459 -0.027538
v 0.784740 -0.160459 -0.027538
v 0.784712 -0.041545 -0.027720
v 0.784712 -0.041545 -0.027720
v -0.006093 0.133884 -0.119373
v -0.006093 0.133884 -0.119373
v 0.000426 0.135595 -0.112524
v 0.037186 0.133884 -0.114449
v 0.037186 0.133884 -0.114449
v -0.130071 -0.041545 -0.404705
v 0.070733 0.123398 -0.097357
v 0.097356 0.101922 -0.070734
v 0.045199 0.133884 -0.110367
v 0.120157 0.045758 -0.001150
v 0.114448 0.074849 -0.037187
v 0.120167 0.008670 -0.001087
v 0.788975 -0.041545 -0.000802
v 0.788975 -0.041545 -0.000802
v 0.789007 -0.160459 -0.000600
v 0.789007 -0.160459 -0.000600
v 0.282256 -0.041545 -0.000953
v 0.666099 -0.160459 -0.000637
v 0.120157 -0.041545 -0.001149
v 0.120157 -0.041545 -0.001149
v 0.000510 -0.160459 -0.001438
v -0.047399 -0.041545 -0.149003
v -0.125648 -0.041545 -0.390709
v -0.013656 -0.160459 -0.045055
v -0.036226 -0.041545 -0.114601
v -0.036226 -0.041545 -0.114601
v -0.036205 0.096516 -0.114604
v 0.000000 0.133884 -0.120338
v 0.000000 -0.041545 -0.120338
v 0.114448 -0.041545 -0.037187
v 0.097356 -0.041545 -0.070734
v 0.070733 -0.041545 -0.097357
v 0.037186 -0.041545 -0.114449
vn 0.5431 -0.0012 -0.8397
vn -0.0000 -1.0000 -0.0000
vn -0.0003 0.7807 0.6250
vn -0.0003 0.0017 1.0000
vn -0.0012 -0.0012 1.0000
vn -0.9514 -0.0007 0.3080
vn -0.9535 -0.0001 0.3013
vn -0.9511 0.0001 0.3089
vn -0.6542 0.5879 0.4758
vn 0.9877 -0.0000 -0.1564
vn 0.5425 0.0009 -0.8400
vn 0.0133 0.9766 -0.2145
vn -0.0010 0.9769 -0.2138
vn -0.0336 0.9767 -0.2120
vn 0.0341 0.9759 -0.2155
vn -0.1413 -0.0167 -0.9898
vn -0.0000 1.0000 -0.0000
vn -0.0000 -0.0000 -1.0000
vn -0.1564 -0.0000 -0.9877
vn 0.9877 -0.0000 -0.1565
vn 0.9511 -0.0000 -0.3090
vn 0.9285 -0.0000 -0.3714
vn 0.8090 -0.0000 -0.5878
vn 0.7726 -0.0000 -0.6348
vn 0.5878 -0.0000 -0.8090
vn 0.5497 -0.0000 -0.8353
vn 0.3090 -0.0000 -0.9511
vn 0.4540 -0.0000 -0.8910
vt 0.806137 0.061055
vt 0.806256 0.806256
vt 0.342054 0.342054
vt 0.342009 0.061010
vt 0.295186 0.110781
vt 0.336742 0.130580
vt 0.496633 0.241409
vt 0.497974 0.249877
vt 0.459335 0.182026
vt 0.250090 0.249572
vt 0.245637 0.002672
vt 0.209028 0.008470
vt 0.529142 0.085117
vt 0.465498 0.054220
vt 0.461018 0.043272
vt 0.455003 0.000000
vt 1.000000 0.000000
vt 1.000000 0.144768
vt 0.823608 0.137931
vt 0.659421 0.117303
vt 0.144768 0.144768
vt 0.000000 0.000000
vt 0.144757 0.000000
vt 0.954733 0.612800
vt 0.341036 0.000000
vt 0.805843 0.000000
vt 0.954700 0.148639
vt 0.144757 0.144757
vt 0.805356 0.000000
vt 0.805843 0.805843
vt 0.341036 0.341036
vt 0.340917 0.144779
vt 0.400810 0.000000
vt 1.000000 0.598609
vt 1.000000 0.880791
vt 0.118353 0.000000
vt 0.598609 0.598609
vt 1.000000 0.598633
vt 0.880791 0.880791
vt 0.400810 0.400810
vt 0.118354 0.118354
vt 0.194644 0.000000
vt 1.000000 0.307930
vt 0.460981 0.307462
vt 0.307930 0.307930
vt 0.544450 0.003577
vt 0.534601 0.054702
vt 0.347429 0.702367
vt 0.347429 0.693899
vt 0.384812 0.693842
vt 0.384812 0.702304
vt 0.598986 0.598986
vt 1.000000 0.342054
vt 1.000000 0.806256
vt 0.881914 0.881914
vt 0.253207 0.539691
vt 0.255514 0.539691
vt 0.255211 0.541606
vt 0.253663 0.528000
vt 0.253060 0.539557
vt 1.000000 0.881914
vt 0.119202 0.000000
vt 0.401367 0.000000
vt 1.000000 0.598986
vt 0.681701 0.998008
vt 0.693392 0.785913
vt 0.703938 0.780540
vt 0.712308 0.772171
vt 0.717681 0.761624
vt 0.719476 0.762207
vt 0.770436 0.749934
vt 0.929736 0.749934
vt 0.928396 0.749934
vt 0.868095 0.749934
vt 0.726975 0.812247
vt 0.640810 0.991531
vt 0.642200 0.991752
vt 0.666800 0.995648
vt 0.670313 0.996204
vt 0.024093 0.560728
vt 0.024093 0.615879
vt 0.012704 0.615879
vt 0.012711 0.572476
vt 0.022178 0.560728
vt 0.118985 0.532105
vt 0.118985 0.520775
vt 0.155576 0.520775
vt 0.146431 0.532104
vt 0.134771 0.532124
vt 0.155576 0.520775
vt 0.118985 0.510229
vt 0.164087 0.510229
vt 0.118985 0.501859
vt 0.170839 0.501859
vt 0.164087 0.510229
vt 0.046330 0.615879
vt 0.035783 0.615879
vt 0.035783 0.560728
vt 0.038302 0.560728
vt 0.046330 0.564025
s 0
usemtl lambert2SG
f 41/1/1 40/2/1 39/3/1 43/4/1
s 1
f 37/5/2 11/6/2 42/7/2 60/8/2 26/9/2 27/10/2 29/11/2 36/12/2
s 0
f 51/13/3 53/14/3 48/15/3 47/16/3 1/17/3 54/18/3 55/19/3 52/20/3
f 54/21/4 1/22/4 56/23/4
f 57/24/4 61/25/4 62/26/4 59/27/4
f 56/28/5 1/22/5 65/29/5 62/30/5 61/31/5 63/32/5
f 66/33/6 67/34/6 31/35/6 68/36/6
f 67/37/7 50/38/7 31/39/7
f 66/40/8 68/41/8 65/42/8 1/17/8 71/43/8 69/44/8
f 71/45/9 1/22/9 47/46/9 45/47/9
s 1
f 25/48/10 13/49/10 44/50/10 58/51/10
s 0
f 38/52/11 39/53/11 40/54/11 9/55/11
s 1
f 16/56/12 72/57/13 46/58/14
f 49/59/15 72/57/13 16/60/12
s 0
f 9/61/16 31/62/16 50/63/16 38/64/16
s 1
f 73/65/17 77/66/17 76/67/17 75/68/17 74/69/17 64/70/17 23/71/17 24/72/17 14/73/17 12/74/17 10/75/17 15/76/17 32/77/17 30/78/17 70/79/17
f 7/80/18 2/81/18 33/82/19 34/83/19 35/84/19
f 28/85/20 3/86/21 20/87/22 19/88/20 22/89/20
f 20/90/22 3/86/21 4/91/23 21/92/24
f 4/91/23 5/93/25 18/94/26 21/95/24
f 5/96/25 6/97/27 8/98/27 17/99/28 18/100/26
f 6/97/27 2/81/18 7/80/18 8/98/27
o Potlid_cell.001
v -0.001248 0.044644 0.005552
v -0.037187 0.133884 0.114449
v 0.000000 0.133884 0.120338
v 0.037186 0.133884 0.114449
v -0.053140 0.129829 0.106320
v -0.049211 0.135819 0.098611
v 0.051054 0.044998 0.107382
v 0.037186 0.035336 0.114449
v 0.000000 0.013095 0.120338
v 0.052276 0.133884 0.106760
v 0.000000 0.159553 0.004101
v 0.003679 0.157830 0.011323
v -0.052829 0.010716 0.106479
v -0.037187 -0.005302 0.114449
v -0.053140 0.129829 0.106320
v -0.053140 0.129829 0.106320
v -0.049211 0.135819 0.098611
v -0.037187 -0.005302 0.114449
v 0.000000 0.013095 0.120338
v 0.051054 0.044998 0.107382
v 0.037186 0.035336 0.114449
v 0.052276 0.133884 0.106760
v 0.052276 0.133884 0.106760
v 0.003679 0.157830 0.011323
v 0.000000 0.159553 0.004101
v -0.052829 0.010716 0.106479
v -0.037187 0.133884 0.114449
v 0.000000 0.133884 0.120338
v 0.037186 0.133884 0.114449
vn 0.4664 -0.8516 -0.2391
vn 0.8894 -0.0154 -0.4568
vn -0.8888 0.0001 -0.4582
vn -0.4879 -0.7212 -0.4918
vn -0.0156 0.9763 0.2158
vn -0.0822 0.9730 0.2156
vn -0.0000 0.9765 0.2156
vn 0.0666 0.9765 0.2051
vn 0.0373 0.9760 0.2145
vn 0.0991 0.9759 0.1944
vn -0.1277 0.9682 0.2152
vn -0.2869 -0.0000 0.9580
vn -0.0510 -0.0000 0.9987
vn -0.0000 -0.0000 1.0000
vn -0.2975 -0.0000 0.9547
vn 0.2560 -0.0000 0.9667
vn 0.3090 -0.0000 0.9511
vn 0.4540 -0.0000 0.8910
vn -0.4540 -0.0000 0.8910
vt 0.709123 0.000000
vt 1.000000 0.000000
vt 1.000000 0.162092
vt 0.944369 0.140169
vt 0.816526 0.073312
vt 0.699151 0.163947
vt 0.162092 0.162092
vt 0.000000 0.000000
vt 0.693280 0.001371
vt 0.694191 0.012811
vt 1.000000 0.742405
vt 0.692984 0.692984
vt 0.272119 0.000000
vt 1.000000 0.721805
vt 0.290765 0.006348
vt 0.272119 0.272119
vt 0.215636 0.540356
vt 0.181703 0.551381
vt 0.179851 0.539691
vt 0.216394 0.539691
vt 0.181703 0.528000
vt 0.214123 0.538534
vt 0.184120 0.523256
vt 0.186682 0.555161
vt 0.184258 0.556397
vt 0.018605 0.513151
vt 0.030166 0.519037
vt 0.030166 0.557010
vt 0.018475 0.557010
vt 0.041857 0.526029
vt 0.041857 0.557010
vt 0.046217 0.529066
vt 0.046601 0.557010
vt 0.018475 0.513253
vt 0.013460 0.555735
vt 0.013558 0.518289
s 0
usemtl lambert2SG
f 95/101/29 78/102/29 97/103/29 98/104/29 96/105/29
f 99/106/30 97/107/30 78/108/30 102/109/30 101/110/30
f 94/111/31 102/112/31 78/108/31 103/113/31 92/114/31
f 95/115/32 103/116/32 78/108/32
s 1
f 88/117/33 104/118/34 105/119/35
f 88/120/33 105/119/35 106/121/36 89/122/37
f 106/121/36 100/123/38 89/122/37
f 83/124/39 93/125/39 104/118/34 88/117/33
f 91/126/40 86/127/41 80/128/42 79/129/43
f 85/130/44 81/131/45 80/128/42 86/127/41
f 84/132/46 87/133/46 81/131/45 85/130/44
f 91/134/40 79/129/43 82/135/47 90/136/47
o Potlid_cell.002
v 0.000782 0.044658 0.000764
v -0.122410 -0.130516 0.379873
v 0.463822 -0.160459 0.638396
v 0.638397 -0.160459 0.463822
v 0.750481 -0.160459 0.243845
v 0.750480 -0.041545 0.243845
v 0.638397 -0.041545 0.463822
v 0.463822 -0.041545 0.638396
v 0.000000 -0.041545 0.120338
v 0.037186 -0.041545 0.114449
v 0.070733 -0.041545 0.097355
v 0.097356 -0.041545 0.070734
v 0.114448 -0.041545 0.037186
v -0.036210 -0.007944 0.114604
v -0.059840 -0.041545 0.187323
v -0.076239 -0.160459 0.237413
v 0.000469 -0.160459 0.000924
v -0.036251 -0.041545 0.114597
v 0.000000 0.010542 0.120338
v 0.037186 0.032844 0.114449
v 0.103083 -0.041545 0.508405
v 0.054276 0.044784 0.105741
v 0.070733 0.044787 0.097355
v 0.097356 0.044781 0.070734
v 0.114448 0.044763 0.037186
v 0.120095 0.044736 0.001543
v 0.120212 0.007926 0.000805
v 0.281058 -0.041545 0.000859
v 0.788935 -0.160459 0.001057
v 0.788922 -0.041545 0.001139
v 0.667688 -0.160459 0.000991
v 0.120205 -0.041545 0.000843
v -0.120883 -0.160459 0.375371
v 0.309213 -0.041545 0.611961
v 0.433956 -0.160459 0.653614
v 0.413281 -0.041545 0.664148
v -0.059840 -0.041545 0.187323
v -0.036251 -0.041545 0.114597
v -0.036251 -0.041545 0.114597
v -0.036210 -0.007944 0.114604
v -0.076239 -0.160459 0.237413
v 0.000469 -0.160459 0.000924
v 0.103083 -0.041545 0.508405
v 0.037186 0.032844 0.114449
v 0.054276 0.044784 0.105741
v 0.000000 0.010542 0.120338
v 0.114448 0.044763 0.037186
v 0.120095 0.044736 0.001543
v 0.070733 0.044787 0.097355
v 0.097356 0.044781 0.070734
v 0.281058 -0.041545 0.000859
v 0.788922 -0.041545 0.001139
v 0.788922 -0.041545 0.001139
v 0.788935 -0.160459 0.001057
v 0.788935 -0.160459 0.001057
v 0.667688 -0.160459 0.000991
v 0.120205 -0.041545 0.000843
v 0.120205 -0.041545 0.000843
v 0.120212 0.007926 0.000805
v -0.120883 -0.160459 0.375371
v 0.433956 -0.160459 0.653614
v 0.433956 -0.160459 0.653614
v 0.413281 -0.041545 0.664148
v 0.413281 -0.041545 0.664148
v 0.309213 -0.041545 0.611961
v 0.463822 -0.160459 0.638396
v 0.463822 -0.041545 0.638396
v 0.638397 -0.160459 0.463822
v 0.638397 -0.041545 0.463822
v 0.750481 -0.160459 0.243845
v 0.750480 -0.041545 0.243845
v 0.000000 -0.041545 0.120338
v 0.037186 -0.041545 0.114449
v 0.070733 -0.041545 0.097355
v 0.097356 -0.041545 0.070734
v 0.114448 -0.041545 0.037186
vn -0.9512 0.0012 -0.3085
vn -0.4713 0.8490 0.2391
vn -0.0006 1.0000 -0.0009
vn 0.0065 0.0201 -0.9998
vn 0.0006 0.0007 -1.0000
vn 0.0001 -0.0008 -1.0000
vn -0.9514 -0.0022 -0.3079
vn -0.4437 -0.1514 0.8833
vn 0.4540 -0.0000 0.8910
vn 0.5878 -0.0000 0.8090
vn 0.8090 -0.0000 0.5878
vn 0.9511 -0.0000 0.3090
vn 0.9877 -0.0000 0.1564
vn -0.0000 -1.0000 -0.0000
vn -0.4428 -0.1552 0.8831
vn -0.0000 1.0000 -0.0000
vn -0.1564 -0.0000 0.9877
vn -0.0000 -0.0000 1.0000
vn 0.0494 -0.0000 0.9988
vn 0.3090 -0.0000 0.9511
vn 0.3605 -0.0000 0.9328
vn 0.9510 -0.0000 0.3091
vn 0.9877 -0.0000 0.1565
vt 1.000000 0.000000
vt 1.000000 0.507901
vt 0.868075 0.567879
vt 1.000000 0.699718
vt 1.000000 1.000000
vt 0.195035 0.195035
vt 0.624027 0.000000
vt 0.507901 0.507901
vt 0.000000 0.000000
vt 0.505706 0.000000
vt 1.000000 0.834231
vt 0.699718 0.699718
vt 0.804934 0.732891
vt 0.931955 0.793170
vt 1.000000 0.857649
vt 0.834231 0.834231
vt 0.847687 0.822872
vt 0.890140 0.817217
vt 0.943469 0.829621
vt 0.855855 0.855855
vt 1.000000 0.855905
vt 1.000000 0.661840
vt 0.387934 0.048854
vt 0.853876 0.049017
vt 1.000000 0.195361
vt 0.661840 0.661840
vt 0.195361 0.195361
vt 1.000000 0.195036
vt 0.855905 0.855905
vt 0.855822 0.661762
vt 1.000000 0.375973
vt 0.627329 0.000000
vt 1.000000 0.494294
vt 0.494498 0.494498
vt 0.261230 0.511248
vt 0.261230 0.501859
vt 0.298614 0.501859
vt 0.298614 0.517748
vt 0.347429 0.903252
vt 0.347429 0.848370
vt 0.384812 0.848370
vt 0.384812 0.903252
vt 0.347429 0.779215
vt 0.384812 0.779215
vt 0.384812 0.702914
vt 0.347429 0.702888
vt 0.459834 0.250066
vt 0.497951 0.250066
vt 0.485863 0.326726
vt 0.450626 0.395881
vt 0.395744 0.450763
vt 0.386355 0.437840
vt 0.211927 0.492122
vt 0.225962 0.494345
vt 0.250078 0.250269
vt 0.921951 0.380830
vt 1.000000 0.494498
vt 0.627329 0.627329
vt 0.473797 0.403772
vt 0.719491 0.737655
vt 0.717681 0.723793
vt 0.712308 0.707807
vt 0.703938 0.681496
vt 0.693392 0.503711
vt 0.681701 0.501859
vt 0.670305 0.503664
vt 0.662889 0.692036
vt 0.714108 0.506992
vt 0.778911 0.524472
vt 0.811627 0.541141
vt 0.827516 0.549237
vt 0.882398 0.604119
vt 0.917634 0.673274
vt 0.929719 0.749576
vt 0.770059 0.721224
vt 0.018782 0.512423
vt 0.018769 0.501859
vt 0.030166 0.501859
vt 0.030166 0.518234
vt 0.041857 0.501859
vt 0.041857 0.525245
vt 0.047230 0.528999
vt 0.041857 0.525245
vt 0.052403 0.501859
vt 0.052403 0.529000
vt 0.146125 0.563072
vt 0.118985 0.563072
vt 0.118985 0.554702
vt 0.146124 0.554702
vt 0.118985 0.544156
vt 0.146118 0.544156
vt 0.134537 0.532719
vt 0.146109 0.532951
vt 0.118985 0.532731
s 0
usemtl lambert2SG
f 108/137/48 143/138/48 144/139/48 146/140/48 107/141/48 148/142/48 147/143/48
f 143/144/49 108/145/49 149/146/49
f 151/147/49 107/141/49 146/148/49 152/149/49 150/150/49
f 154/151/50 107/141/50 151/152/50 155/153/50 156/154/50 153/155/50
f 154/156/51 165/157/51 107/141/51
f 157/158/52 158/159/52 160/160/52 162/161/52
f 157/162/53 162/163/53 148/164/53 107/141/53 165/165/53 163/166/53
f 108/137/54 147/167/54 166/168/54
f 149/169/55 108/141/55 171/170/55
s 1
f 168/171/56 172/172/57 173/173/57 169/174/56
f 172/175/57 174/176/58 175/177/58 173/178/57
f 174/176/58 176/179/59 177/180/59 175/177/58
f 159/181/60 177/180/59 176/179/59 161/182/60
f 137/183/61 135/184/61 111/185/61 110/186/61 109/187/61 167/188/61 139/189/61 122/190/61 123/191/61
s 0
f 170/192/62 171/193/62 108/141/62 166/194/62 141/195/62
s 1
f 164/196/63 182/197/63 181/198/63 180/199/63 179/200/63 178/201/63 145/202/63 121/203/63 127/204/63 140/205/63 142/206/63 114/207/63 113/208/63 112/209/63 136/210/63 134/211/63
f 120/212/64 124/213/64 115/214/65 125/215/66
f 125/215/66 115/214/65 116/216/67 126/217/68
f 128/218/56 126/219/68 116/216/67 117/220/57 129/221/57
f 129/222/57 117/223/57 118/224/58 130/225/58
f 130/225/58 118/224/58 119/226/59 131/227/69
f 133/228/70 132/229/70 131/227/69 119/226/59 138/230/70
o Potlid_cell.003
v -0.750481 -0.160459 -0.243846
v -0.638398 -0.160459 -0.463823
v -0.001788 0.044512 0.003060
v -0.192447 -0.080856 0.375683
v -0.750481 -0.041545 -0.243846
v -0.256960 -0.068936 0.366815
v -0.124642 -0.129926 0.379298
v -0.638398 -0.041545 -0.463824
v -0.070734 -0.041545 -0.097357
v -0.097356 -0.041545 -0.070734
v -0.114449 -0.041545 -0.037187
v -0.120339 -0.041545 0.000000
v -0.114449 -0.041545 0.037186
v -0.097356 -0.041545 0.070734
v -0.070734 -0.041545 0.097355
v -0.314152 -0.041545 0.303044
v -0.758539 -0.160459 -0.192968
v -0.758563 -0.041545 -0.192816
v -0.304074 -0.041545 0.314170
v -0.271949 -0.160459 0.349931
v -0.183423 -0.160459 0.364695
v -0.266003 -0.041545 0.302021
v -0.622884 -0.041545 -0.479338
v -0.622839 -0.160459 -0.479382
v -0.132684 -0.160459 -0.404430
v -0.132539 -0.041545 -0.404386
v -0.123101 -0.160459 0.374547
v -0.097195 -0.160459 0.295174
v -0.038021 -0.006935 0.114024
v -0.038028 -0.033347 0.114020
v -0.041844 -0.041545 0.125704
v -0.062396 -0.041545 0.188673
v -0.132663 -0.041545 0.258841
v -0.054316 0.009972 0.105721
v -0.120339 0.061223 0.000000
v -0.114449 0.075450 -0.037187
v -0.114449 0.045459 0.037186
v -0.097356 0.029699 0.070734
v -0.039060 0.096379 -0.113495
v -0.070734 0.015489 0.097355
v -0.070734 0.094006 -0.097357
v -0.097356 0.086746 -0.070734
v -0.001284 -0.160459 0.000376
v -0.038275 -0.041545 -0.113895
v -0.049348 -0.041545 -0.148841
v -0.015449 -0.160459 -0.044329
v -0.038041 -0.041545 0.114014
v -0.758539 -0.160459 -0.192968
v -0.758539 -0.160459 -0.192968
v -0.758563 -0.041545 -0.192816
v -0.758563 -0.041545 -0.192816
v -0.314152 -0.041545 0.303044
v -0.304074 -0.041545 0.314170
v -0.271949 -0.160459 0.349931
v -0.183423 -0.160459 0.364695
v -0.266003 -0.041545 0.302021
v -0.132663 -0.041545 0.258841
v -0.622839 -0.160459 -0.479382
v -0.622839 -0.160459 -0.479382
v -0.132684 -0.160459 -0.404430
v -0.622884 -0.041545 -0.479338
v -0.622884 -0.041545 -0.479338
v -0.132539 -0.041545 -0.404386
v -0.123101 -0.160459 0.374547
v -0.038021 -0.006935 0.114024
v -0.038028 -0.033347 0.114020
v -0.097195 -0.160459 0.295174
v -0.041844 -0.041545 0.125704
v -0.062396 -0.041545 0.188673
v -0.054316 0.009972 0.105721
v -0.070734 0.094006 -0.097357
v -0.097356 0.086746 -0.070734
v -0.114449 0.075450 -0.037187
v -0.120339 0.061223 0.000000
v -0.114449 0.045459 0.037186
v -0.097356 0.029699 0.070734
v -0.070734 0.015489 0.097355
v -0.039060 0.096379 -0.113495
v -0.038275 -0.041545 -0.113895
v -0.038275 -0.041545 -0.113895
v -0.049348 -0.041545 -0.148841
v -0.015449 -0.160459 -0.044329
v -0.001284 -0.160459 0.000376
v -0.038041 -0.041545 0.114014
v -0.038041 -0.041545 0.114014
v -0.750481 -0.160459 -0.243846
v -0.638398 -0.160459 -0.463823
v -0.750481 -0.041545 -0.243846
v -0.638398 -0.041545 -0.463824
v -0.070734 -0.041545 -0.097357
v -0.097356 -0.041545 -0.070734
v -0.114449 -0.041545 -0.037187
v -0.120339 -0.041545 0.000000
v -0.114449 -0.041545 0.037186
v -0.097356 -0.041545 0.070734
v -0.070734 -0.041545 0.097355
vn -0.7411 0.0154 0.6712
vn -0.1626 -0.1532 0.9747
vn -0.1621 -0.1522 0.9750
vn 0.1189 0.9204 0.3725
vn 0.1511 0.0003 -0.9885
vn -0.1591 -0.1596 0.9743
vn 0.9506 -0.0003 0.3103
vn 0.4926 0.7170 0.4933
vn 0.1202 0.9207 0.3713
vn 0.9533 0.0063 -0.3020
vn 0.9509 -0.0017 0.3094
vn -0.9511 -0.0000 -0.3090
vn -0.8090 -0.0000 -0.5878
vn -0.7071 -0.0000 -0.7071
vn -0.9877 -0.0000 -0.1564
vn -0.7447 -0.0011 0.6674
vn -0.0000 1.0000 -0.0000
vn -0.0000 -1.0000 -0.0000
vn -0.4540 -0.0000 -0.8910
vn -0.5878 -0.0000 -0.8090
vn -0.5768 -0.0000 -0.8169
vn -0.7940 -0.0000 -0.6079
vn -0.9401 -0.0000 -0.3408
vn -1.0000 -0.0000 -0.0000
vn -0.9993 -0.0000 -0.0386
vn -0.9511 -0.0000 0.3090
vn -0.9626 -0.0000 0.2708
vn -0.8090 -0.0000 0.5878
vn -0.8306 -0.0000 0.5568
vn -0.5878 -0.0000 0.8090
vn -0.6135 -0.0000 0.7897
vn -0.4540 -0.0000 0.8910
vn 0.9509 -0.0010 -0.3096
vt 0.098012 0.000000
vt 0.098169 0.098169
vt 0.000000 0.000000
vt 0.622079 0.000000
vt 1.000000 0.000000
vt 1.000000 1.000000
vt 0.354483 0.354483
vt 0.134913 0.000000
vt 1.000000 0.901988
vt 0.880594 0.000000
vt 0.880823 0.694195
vt 0.694369 0.095895
vt 0.598182 0.000000
vt 0.621857 0.000000
vt 1.000000 0.377921
vt 1.000000 0.294930
vt 0.694891 0.000000
vt 0.621857 0.621857
vt 0.196770 0.000000
vt 0.662764 0.000000
vt 1.000000 0.493340
vt 0.686434 0.000000
vt 0.493340 0.493340
vt 0.294930 0.294930
vt 0.275509 0.000000
vt 0.661416 0.232301
vt 0.750982 0.322098
vt 0.766093 0.379492
vt 0.705267 0.398863
vt 0.574461 0.378318
vt 0.386486 0.319867
vt 0.275509 0.275509
vt 0.311906 0.000000
vt 0.506168 0.118893
vt 1.000000 0.401142
vt 0.846412 0.308165
vt 0.311906 0.311906
vt 0.803525 0.000000
vt 1.000000 0.118940
vt 0.196475 0.000000
vt 1.000000 0.305109
vt 0.968136 0.305384
vt 1.000000 0.337236
vt 1.000000 0.803230
vt 0.390528 0.779215
vt 0.427911 0.779215
vt 0.427911 0.848370
vt 0.390528 0.848370
vt 0.390528 0.853262
vt 0.427911 0.853247
vt 0.427911 0.763172
vt 0.390528 0.763220
vt 0.686434 0.686434
vt 0.134913 0.134913
vt 0.210089 0.071435
vt 0.354483 0.000000
vt 1.000000 0.098169
vt 0.493207 0.354453
vt 0.651095 0.727697
vt 0.645722 0.738243
vt 0.643870 0.762226
vt 0.645721 0.776075
vt 0.651095 0.792059
vt 0.659465 0.818371
vt 0.669669 0.786966
vt 0.666188 0.797679
vt 0.640035 0.878171
vt 0.485882 0.900625
vt 0.481005 0.895748
vt 0.445769 0.826593
vt 0.443228 0.810550
vt 0.582940 0.678179
vt 0.586108 0.680481
vt 0.598077 0.689177
vt 0.639995 0.692530
vt 0.662086 0.689563
vt 0.668547 0.709448
vt 0.669743 0.713128
vt 0.659464 0.719327
vt 0.208218 0.121689
vt 0.245073 0.235119
vt 0.249526 0.250066
vt 0.219374 0.292122
vt 0.211230 0.303332
vt 0.192267 0.329433
vt 0.164436 0.312181
vt 0.011464 0.189402
vt 0.013997 0.173407
vt 0.049234 0.104252
vt 0.054125 0.099361
vt 0.012060 0.615879
vt 0.001856 0.615879
vt 0.001856 0.573265
vt 0.011813 0.572519
vt 0.058119 0.563072
vt 0.058119 0.554703
vt 0.098450 0.554703
vt 0.100733 0.563072
vt 0.058119 0.544156
vt 0.094899 0.544156
vt 0.058119 0.532466
vt 0.090426 0.532466
vt 0.094899 0.544156
vt 0.058119 0.520775
vt 0.085471 0.520775
vt 0.058119 0.510229
vt 0.080516 0.510229
vt 0.085471 0.520775
vt 0.058119 0.501859
vt 0.076049 0.501859
vt 0.007929 0.519789
vt 0.007929 0.501859
vt 0.018207 0.501859
vt 0.018211 0.504436
vt 0.018213 0.512740
vt 0.013090 0.518055
vt 0.119406 0.000000
vt 0.401818 0.000000
vt 0.401142 0.401142
vt 0.118940 0.118940
s 0
usemtl lambert2SG
f 235/231/71 234/232/71 188/233/71
f 237/234/72 189/235/72 188/236/72 236/237/72
f 189/233/73 186/235/73 188/236/73
f 188/236/74 186/233/74 238/238/74 235/239/74
f 242/240/75 240/241/75 243/242/75 245/243/75
f 246/244/76 189/235/76 237/245/76
f 247/246/77 248/247/77 185/235/77
f 189/236/77 246/248/77 249/249/77 250/250/77 251/251/77
f 239/252/78 186/235/78 189/236/78 251/253/78
f 247/254/78 185/233/78 252/255/78
f 254/256/79 255/257/79 256/258/79 257/259/79 258/260/79 259/261/79 252/262/79 185/233/79 260/263/79 253/264/79
f 263/265/80 261/266/80 260/267/80 185/233/80 265/268/80 264/269/80
f 265/270/81 185/235/81 248/271/81 266/272/81 250/273/81 249/274/81
s 1
f 268/275/82 270/276/82 271/277/83 269/278/83
f 241/279/84 269/278/83 271/277/83 244/280/84
f 232/281/85 270/276/82 268/275/82 230/282/85
s 0
f 186/236/79 239/283/79 238/284/79
f 231/285/86 236/286/86 188/235/86 234/287/86 233/288/86
s 1
f 277/289/87 276/290/87 275/291/87 274/292/87 273/293/87 272/294/87 262/295/87 227/296/87 208/297/87 205/298/87 190/299/87 187/300/87 200/301/87 198/302/87 201/303/87 204/304/87 215/305/87 214/306/87 213/307/87 267/308/87 278/309/87
f 207/310/88 228/311/88 225/312/88 210/313/88 209/314/88 203/315/88 202/316/88 199/317/88 183/318/88 184/319/88 206/320/88
f 226/321/89 191/322/90 223/323/91 221/324/89
f 191/325/90 192/326/83 224/327/92 223/328/91
f 192/326/83 193/329/82 218/330/93 224/327/92
f 193/329/82 194/331/94 217/332/95 218/333/93
f 194/331/94 195/334/96 219/335/97 217/332/95
f 195/334/96 196/336/98 220/337/99 219/338/97
f 220/337/99 196/336/98 197/339/100 222/340/101
f 222/341/101 197/342/100 229/343/102 212/344/102 211/345/102 216/346/102
s 0
f 242/347/103 245/348/103 263/349/103 264/350/103
o Potlid_cell.004
v 0.750481 -0.160459 -0.243846
v 0.638397 -0.160459 -0.463823
v 0.463823 -0.160459 -0.638398
v 0.750481 -0.041545 -0.243846
v 0.463823 -0.041545 -0.638398
v 0.638397 -0.041545 -0.463824
v 0.244496 -0.041545 -0.750151
v 0.244440 -0.160459 -0.750179
v 0.144711 -0.160459 -0.443389
v 0.144698 -0.041545 -0.443200
v 0.784284 -0.041545 -0.030423
v 0.784237 -0.160459 -0.030717
v 0.244496 -0.041545 -0.750151
v 0.244496 -0.041545 -0.750151
v 0.144698 -0.041545 -0.443200
v 0.244440 -0.160459 -0.750179
v 0.244440 -0.160459 -0.750179
v 0.144711 -0.160459 -0.443389
v 0.784284 -0.041545 -0.030423
v 0.784284 -0.041545 -0.030423
v 0.784237 -0.160459 -0.030717
v 0.784237 -0.160459 -0.030717
v 0.750481 -0.160459 -0.243846
v 0.638397 -0.160459 -0.463823
v 0.750481 -0.041545 -0.243846
v 0.638397 -0.041545 -0.463824
v 0.463823 -0.160459 -0.638398
v 0.463823 -0.041545 -0.638398
vn -0.0000 1.0000 -0.0000
vn 0.9511 -0.0000 -0.3090
vn 0.8090 -0.0000 -0.5878
vn 0.5878 -0.0000 -0.8090
vn 0.4540 -0.0000 -0.8910
vn 0.9877 -0.0000 -0.1564
vn -0.0000 -1.0000 -0.0000
vn -0.9510 0.0005 -0.3092
vn -0.5422 -0.0016 0.8402
vt 0.827516 0.950630
vt 0.758565 0.855727
vt 0.727191 0.812545
vt 0.928261 0.749934
vt 0.917634 0.826593
vt 0.882398 0.895748
vt 0.347429 0.625896
vt 0.347429 0.556741
vt 0.384812 0.556741
vt 0.384812 0.625896
vt 0.347429 0.501859
vt 0.384812 0.501859
vt 0.304329 0.501859
vt 0.341713 0.501859
vt 0.341713 0.570828
vt 0.304329 0.570811
vt 0.347429 0.692899
vt 0.384812 0.692992
vt 0.295423 0.110052
vt 0.326776 0.014229
vt 0.395745 0.049370
vt 0.450627 0.104252
vt 0.485863 0.173407
vt 0.496475 0.240409
vt 1.000000 0.400768
vt 0.822841 0.224667
vt 0.225101 0.119528
vt 1.000000 0.118347
vt 0.726667 0.067520
vt 0.400768 0.400768
vt 0.118347 0.118347
vt 0.263066 0.067706
s 1
usemtl lambert2SG
f 283/351/104 291/352/104 288/353/104 297/354/104 282/355/104 284/356/104
f 301/357/105 302/358/106 304/359/106 303/360/105
f 302/358/106 305/361/107 306/362/107 304/359/106
f 306/363/107 305/364/107 294/365/108 292/366/108
f 299/367/109 301/357/105 303/360/105 298/368/109
f 287/369/110 295/370/110 281/371/110 280/372/110 279/373/110 300/374/110
s 0
f 293/375/111 285/376/111 286/377/111 296/378/111
f 289/379/112 293/380/112 296/381/112 290/382/112
o Potlid_cell.005
v 0.001749 0.046686 0.000118
v 0.070733 0.133884 0.097355
v 0.097356 0.133884 0.070734
v 0.114448 0.133884 0.037186
v 0.120339 0.133884 0.000000
v 0.114448 0.133884 -0.037187
v 0.097356 0.133884 -0.070734
v 0.070733 0.133884 -0.097357
v 0.035372 0.135181 -0.108865
v 0.001134 0.136127 -0.110003
v 0.051255 0.133884 -0.107281
v 0.111398 0.081777 -0.043173
v 0.097356 0.104171 -0.070734
v 0.070733 0.125812 -0.097357
v 0.001210 0.160178 -0.000393
v 0.114448 0.076930 -0.037187
v 0.120323 0.046733 0.000102
v 0.097356 0.046770 0.070734
v 0.114448 0.046755 0.037186
v 0.070733 0.046785 0.097355
v 0.055265 0.046794 0.105237
v 0.055170 0.070209 0.105285
v 0.055027 0.133884 0.105358
v 0.004573 0.158741 0.006294
v 0.111398 0.081777 -0.043173
v 0.097356 0.104171 -0.070734
v 0.035372 0.135181 -0.108865
v 0.001134 0.136127 -0.110003
v 0.051255 0.133884 -0.107281
v 0.051255 0.133884 -0.107281
v 0.070733 0.125812 -0.097357
v 0.114448 0.076930 -0.037187
v 0.120323 0.046733 0.000102
v 0.114448 0.046755 0.037186
v 0.097356 0.046770 0.070734
v 0.070733 0.046785 0.097355
v 0.055265 0.046794 0.105237
v 0.055170 0.070209 0.105285
v 0.055027 0.133884 0.105358
v 0.055027 0.133884 0.105358
v 0.004573 0.158741 0.006294
v 0.070733 0.133884 0.097355
v 0.097356 0.133884 0.070734
v 0.114448 0.133884 0.037186
v 0.120339 0.133884 0.000000
v 0.114448 0.133884 -0.037187
v 0.097356 0.133884 -0.070734
v 0.070733 0.133884 -0.097357
v 0.001210 0.160178 -0.000393
vn -0.0005 -0.7762 -0.6305
vn -1.0000 -0.0047 0.0017
vn 0.0002 -0.7771 -0.6294
vn -0.8911 -0.0046 0.4537
vn -0.8914 -0.0025 0.4532
vn 0.0991 0.9759 0.1944
vn 0.1278 0.9766 0.1730
vn 0.1536 0.9761 0.1535
vn 0.1751 0.9765 0.1253
vn 0.1599 0.9863 -0.0396
vn 0.2047 0.9766 0.0666
vn 0.2155 0.9765 0.0001
vn 0.2051 0.9765 -0.0666
vn 0.1743 0.9765 -0.1267
vn 0.1265 0.9766 -0.1742
vn 0.0989 0.9760 -0.1938
vn 0.0717 0.9767 -0.2025
vn 0.0341 0.9762 -0.2142
vn 0.4540 -0.0000 0.8910
vn 0.5878 -0.0000 0.8090
vn 0.8090 -0.0000 0.5878
vn 0.9511 -0.0000 0.3090
vn 0.9991 -0.0001 0.0435
vn 1.0000 -0.0001 0.0001
vn 0.9690 -0.0002 -0.2469
vn 0.9511 -0.0001 -0.3089
vn 0.8406 -0.0000 -0.5416
vn 0.8090 -0.0000 -0.5878
vn 0.8910 -0.0000 -0.4540
vn 0.6211 -0.0000 -0.7837
vn 0.5878 -0.0000 -0.8090
vn 0.4540 -0.0000 -0.8910
vn 0.0003 -1.0000 0.0008
vt 0.786297 0.000000
vt 1.000000 0.000000
vt 1.000000 0.545334
vt 0.933431 0.472918
vt 0.902559 0.434103
vt 0.864789 0.347069
vt 0.813305 0.163580
vt 0.545334 0.545334
vt 0.000000 0.000000
vt 0.691184 0.016914
vt 0.856544 0.000000
vt 1.000000 0.213703
vt 0.977959 0.184141
vt 1.000000 0.856054
vt 1.000000 1.000000
vt 0.834602 0.834602
vt 1.000000 0.305170
vt 0.856053 0.856053
vt 0.855625 0.466226
vt 0.990975 0.313989
vt 0.184560 0.522392
vt 0.187076 0.517454
vt 0.215704 0.538253
vt 0.195446 0.509084
vt 0.217187 0.539009
vt 0.205992 0.503711
vt 0.217516 0.539176
vt 0.217683 0.501859
vt 0.229373 0.503711
vt 0.217683 0.539261
vt 0.217807 0.539311
vt 0.239920 0.509084
vt 0.217959 0.539311
vt 0.248289 0.517454
vt 0.218206 0.539311
vt 0.251409 0.523577
vt 0.251907 0.528570
vt 0.218850 0.539312
vt 0.251907 0.528570
vt 0.252266 0.539334
vt 0.047541 0.529631
vt 0.052403 0.529628
vt 0.052403 0.557010
vt 0.047465 0.557010
vt 0.047510 0.536992
vt 0.146749 0.554702
vt 0.174135 0.554702
vt 0.174135 0.563072
vt 0.146753 0.563072
vt 0.146744 0.544156
vt 0.174135 0.544156
vt 0.146763 0.532466
vt 0.174135 0.532466
vt 0.156230 0.520775
vt 0.174135 0.520775
vt 0.164794 0.510229
vt 0.174135 0.510229
vt 0.156230 0.520775
vt 0.157754 0.518893
vt 0.171597 0.501859
vt 0.174135 0.501859
vt 0.046330 0.563266
vt 0.040206 0.560728
vt 0.046330 0.560728
vt 0.958519 0.874383
vt 0.935391 0.867722
vt 1.000000 0.834602
vt 0.856544 0.856544
vt 0.902604 0.858429
s 0
usemtl lambert2SG
f 331/383/113 307/384/113 334/385/113 333/386/113 335/387/113 337/388/113 332/389/113
f 334/390/114 307/391/114 321/392/114
f 339/393/115 307/384/115 331/394/115 338/395/115
f 344/396/116 307/397/116 343/398/116
f 321/399/117 307/397/117 344/400/117 345/401/117 347/402/117
s 1
f 346/403/118 348/404/119 330/405/120
f 330/405/120 348/404/119 349/406/121 355/407/122
f 355/407/122 349/406/121 350/408/123
f 355/409/122 350/408/123 351/410/124
f 352/411/125 355/412/122 351/410/124
f 355/413/122 352/411/125 353/414/126
f 355/415/122 353/414/126 354/416/127
f 355/417/122 354/416/127 336/418/128 315/419/129
f 355/420/122 315/421/129 316/422/130
f 327/423/131 342/424/132 308/425/132 329/426/131 328/427/131
f 341/428/133 309/429/133 308/430/132 342/431/132
f 340/432/134 310/433/134 309/429/133 341/428/133
f 323/434/135 311/435/136 310/433/134 340/432/134
f 322/436/137 312/437/138 311/435/136 323/434/135
f 319/438/139 313/439/140 312/437/138 322/440/137 318/441/141
f 320/442/142 314/443/143 313/439/140 319/438/139
f 320/444/142 317/445/144 314/446/143
s 0
f 324/447/145 326/448/145 343/449/145 307/397/145 339/450/145 325/451/145
o Potlid_cell.006
v -0.463823 -0.160459 -0.638398
v -0.243846 -0.160459 -0.750482
v 0.000000 -0.160459 -0.789103
v 0.000000 -0.041545 -0.789103
v -0.243846 -0.041545 -0.750482
v -0.463823 -0.041545 -0.638398
v 0.242750 -0.160459 -0.750656
v 0.242952 -0.041545 -0.750624
v 0.158872 -0.160459 -0.490743
v 0.195114 -0.041545 -0.602387
v 0.143569 -0.160459 -0.443666
v 0.143535 -0.041545 -0.443721
v -0.021376 -0.041545 -0.421271
v -0.099246 -0.160459 -0.410610
v -0.216104 -0.160459 -0.419026
v -0.415757 -0.041545 -0.449672
v -0.132021 -0.160459 -0.406195
v -0.131987 -0.041545 -0.406368
v -0.621113 -0.160459 -0.481108
v -0.621078 -0.041545 -0.481144
v 0.242952 -0.041545 -0.750624
v 0.242952 -0.041545 -0.750624
v 0.195114 -0.041545 -0.602387
v 0.242750 -0.160459 -0.750656
v 0.242750 -0.160459 -0.750656
v 0.158872 -0.160459 -0.490743
v 0.143535 -0.041545 -0.443721
v 0.143569 -0.160459 -0.443666
v -0.099246 -0.160459 -0.410610
v -0.021376 -0.041545 -0.421271
v -0.216104 -0.160459 -0.419026
v -0.132021 -0.160459 -0.406195
v -0.131987 -0.041545 -0.406368
v -0.415757 -0.041545 -0.449672
v -0.621113 -0.160459 -0.481108
v -0.621113 -0.160459 -0.481108
v -0.621078 -0.041545 -0.481144
v -0.621078 -0.041545 -0.481144
v -0.463823 -0.041545 -0.638398
v -0.463823 -0.160459 -0.638398
v -0.243846 -0.160459 -0.750482
v -0.243846 -0.041545 -0.750482
v 0.000000 -0.160459 -0.789103
v 0.000000 -0.041545 -0.789103
vn 0.9517 -0.0017 0.3071
vn 0.9510 0.0004 0.3092
vn 0.1349 0.0005 0.9909
vn -0.1509 0.0015 0.9886
vn 0.1335 0.0014 0.9910
vn -0.1515 0.0003 0.9885
vn -0.7071 -0.0000 -0.7071
vn -0.5878 -0.0000 -0.8090
vn -0.3090 -0.0000 -0.9511
vn -0.0000 -0.0000 -1.0000
vn -0.0000 1.0000 -0.0000
vn -0.0000 -1.0000 -0.0000
vn 0.1564 -0.0000 -0.9877
vt 0.598334 0.000000
vt 0.880824 0.000000
vt 0.880987 0.656616
vt 0.598427 0.374489
vt 0.598197 0.000000
vt 0.880783 0.000000
vt 1.000000 0.119176
vt 1.000000 0.401666
vt 0.598332 0.000000
vt 0.880983 0.000000
vt 0.880783 0.880783
vt 0.598197 0.598197
vt 1.000000 0.118951
vt 1.000000 0.401444
vt 0.598471 0.000000
vt 0.881024 0.000000
vt 0.401444 0.401444
vt 0.118951 0.118951
vt 0.119017 0.000000
vt 0.401668 0.000000
vt 0.881298 0.308543
vt 0.881024 0.881024
vt 0.598471 0.598471
vt 0.598610 0.308250
vt 0.427911 0.853815
vt 0.427911 0.903252
vt 0.390528 0.903252
vt 0.390528 0.853804
vt 0.341713 0.793488
vt 0.304329 0.793488
vt 0.304329 0.724333
vt 0.341713 0.724333
vt 0.304329 0.647674
vt 0.341713 0.647674
vt 0.726826 0.888811
vt 0.743041 0.938715
vt 0.758080 0.985001
vt 0.681701 0.787765
vt 0.605042 0.985866
vt 0.535887 0.950630
vt 0.486450 0.901193
vt 0.550998 0.929832
vt 0.640208 0.991436
vt 0.674981 0.996944
vt 0.249930 0.250066
vt 0.326244 0.014079
vt 0.299875 0.009903
vt 0.295064 0.009141
vt 0.218730 0.006934
vt 0.208426 0.122330
vt 0.181992 0.040976
vt 0.054668 0.098818
vt 0.104116 0.049370
vt 0.173271 0.014134
vt 0.341713 0.571360
vt 0.304329 0.571296
s 0
usemtl lambert2SG
f 378/452/146 381/453/146 379/454/146 376/455/146
f 382/456/147 383/457/147 381/458/147 378/459/147
f 385/460/148 384/461/148 383/462/148 382/463/148
f 387/464/149 388/465/149 389/466/149 386/467/149
f 388/468/150 387/469/150 384/470/150 385/471/150
f 390/472/151 386/473/151 389/474/151 392/475/151
s 1
f 393/476/152 394/477/153 395/478/153 391/479/152
f 395/480/153 394/481/153 397/482/154 396/483/154
f 396/483/154 397/482/154 399/484/155 398/485/155
f 367/486/156 365/487/156 377/488/156 359/489/156 360/490/156 361/491/156 375/492/156 371/493/156 373/494/156 368/495/156
f 358/496/157 380/497/157 364/498/157 366/499/157 369/500/157 372/501/157 370/502/157 374/503/157 356/504/157 357/505/157
f 362/506/158 398/485/155 399/484/155 363/507/158
o Potlid_cell.007
v -0.638397 -0.160459 0.463822
v -0.258887 -0.067928 0.368145
v -0.750481 -0.160459 0.243845
v -0.789102 -0.160459 0.000000
v -0.789102 -0.041545 0.000000
v -0.750481 -0.041545 0.243845
v -0.638397 -0.041545 0.463822
v -0.463823 -0.041545 0.638396
v -0.313901 -0.041545 0.306613
v -0.304296 -0.041545 0.317390
v -0.259146 -0.041545 0.379523
v -0.758883 -0.041545 -0.190797
v -0.758904 -0.160459 -0.190665
v -0.634119 -0.160459 -0.051177
v -0.274516 -0.160459 0.351160
v -0.463823 -0.096864 0.638396
v -0.451589 -0.041545 0.644630
v -0.280425 -0.160459 0.359349
v -0.474985 -0.160459 0.627234
v -0.274405 -0.041545 0.400670
v -0.313901 -0.041545 0.306613
v -0.304296 -0.041545 0.317390
v -0.259146 -0.041545 0.379523
v -0.758904 -0.160459 -0.190665
v -0.758904 -0.160459 -0.190665
v -0.634119 -0.160459 -0.051177
v -0.758883 -0.041545 -0.190797
v -0.758883 -0.041545 -0.190797
v -0.274516 -0.160459 0.351160
v -0.451589 -0.041545 0.644630
v -0.451589 -0.041545 0.644630
v -0.274405 -0.041545 0.400670
v -0.463823 -0.096864 0.638396
v -0.474985 -0.160459 0.627234
v -0.474985 -0.160459 0.627234
v -0.280425 -0.160459 0.359349
v -0.463823 -0.041545 0.638396
v -0.638397 -0.041545 0.463822
v -0.638397 -0.160459 0.463822
v -0.750481 -0.160459 0.243845
v -0.750481 -0.041545 0.243845
v -0.789102 -0.160459 0.000000
v -0.789102 -0.041545 0.000000
vn 0.7465 0.0048 -0.6654
vn 0.7827 0.2530 -0.5687
vn 0.7453 -0.0009 -0.6667
vn 0.7456 -0.0036 -0.6664
vn 0.7858 -0.2381 0.5707
vn 0.7878 -0.2374 0.5684
vn -0.5878 -0.0000 0.8090
vn -0.6899 -0.0000 0.7239
vn -0.4540 -0.0000 0.8910
vn -0.8090 -0.0000 0.5878
vn -0.7071 -0.0000 0.7071
vn -0.9511 -0.0000 0.3090
vn -1.0000 -0.0000 -0.0000
vn -0.9877 -0.0000 -0.1564
vn -0.0000 1.0000 -0.0000
vn -0.0000 -1.0000 -0.0000
vt 0.094732 0.094732
vt 0.000000 0.000000
vt 0.094864 0.000000
vt 0.905364 0.000000
vt 1.000000 0.000000
vt 1.000000 0.094732
vt 0.094864 0.094864
vt 0.646987 0.000000
vt 0.862149 0.073069
vt 0.862131 0.355427
vt 0.646986 0.646986
vt 0.649408 0.000000
vt 0.891896 0.491222
vt 0.786728 0.517376
vt 0.657782 0.539397
vt 0.118578 0.000000
vt 0.400851 0.000000
vt 1.000000 0.094636
vt 0.400851 0.400851
vt 0.118578 0.118578
vt 0.350592 0.000000
vt 0.298614 0.793488
vt 0.281223 0.793488
vt 0.298614 0.789642
vt 0.427911 0.556741
vt 0.390528 0.556741
vt 0.390528 0.505368
vt 0.410520 0.501859
vt 0.427911 0.501859
vt 0.427911 0.625896
vt 0.390528 0.625896
vt 0.427911 0.702556
vt 0.390528 0.702556
vt 0.427911 0.762538
vt 0.390528 0.762496
vt 0.600232 0.637801
vt 0.586038 0.680430
vt 0.583018 0.678236
vt 0.443128 0.809916
vt 0.433627 0.749934
vt 0.445769 0.673274
vt 0.481005 0.604119
vt 0.535887 0.549237
vt 0.539733 0.554531
vt 0.595435 0.631198
vt 0.013997 0.326726
vt 0.001856 0.250066
vt 0.011349 0.190126
vt 0.050578 0.185293
vt 0.163629 0.312768
vt 0.161771 0.314117
vt 0.100607 0.447254
vt 0.049234 0.395881
s 0
usemtl lambert2SG
f 421/508/159 401/509/159 420/510/159
f 422/511/160 401/512/160 421/513/160
f 420/514/161 401/509/161 425/515/161 423/516/161 426/517/161
f 425/518/162 401/509/162 428/519/162
f 429/520/163 432/521/163 433/522/163 435/523/163 431/524/163
f 401/512/164 422/525/164 431/526/164 435/527/164 428/528/164
s 1
f 436/529/165 415/530/166 430/531/167
f 437/532/168 438/533/168 434/534/169 415/535/166 436/536/165
f 438/533/168 437/532/168 440/537/170 439/538/170
f 439/538/170 440/537/170 442/539/171 441/540/171
f 441/540/171 442/539/171 427/541/172 424/542/172
f 410/543/173 409/544/173 408/545/173 411/546/173 404/547/173 405/548/173 406/549/173 407/550/173 416/551/173 419/552/173
f 402/553/174 403/554/174 412/555/174 413/556/174 414/557/174 417/558/174 418/559/174 400/560/174
o Potlid_cell.008
v 0.000000 -0.160459 0.789102
v -0.243846 -0.160459 0.750480
v -0.463823 -0.160459 0.638396
v -0.257490 -0.069331 0.369001
v -0.192498 -0.081030 0.377669
v -0.124295 -0.130143 0.380808
v -0.243846 -0.041545 0.750480
v 0.000000 -0.041545 0.789103
v 0.243846 -0.160459 0.750480
v 0.243846 -0.041545 0.750480
v -0.471373 -0.147657 0.630846
v -0.272516 -0.160459 0.352210
v -0.473588 -0.160459 0.628631
v -0.168508 -0.160459 0.368781
v -0.449984 -0.041545 0.645447
v -0.463823 -0.104427 0.638396
v -0.256752 -0.041545 0.381155
v -0.200309 -0.041545 0.393071
v -0.122716 -0.160459 0.376197
v 0.101075 -0.041545 0.509494
v -0.034215 -0.160459 0.420531
v 0.172020 -0.041545 0.545034
v 0.411288 -0.041545 0.665164
v 0.432006 -0.160459 0.654607
v -0.157055 -0.041545 0.409560
v 0.004766 -0.041545 0.472064
v -0.471373 -0.147657 0.630846
v -0.473588 -0.160459 0.628631
v -0.473588 -0.160459 0.628631
v -0.272516 -0.160459 0.352210
v -0.168508 -0.160459 0.368781
v -0.449984 -0.041545 0.645447
v -0.449984 -0.041545 0.645447
v -0.256752 -0.041545 0.381155
v -0.463823 -0.104427 0.638396
v -0.200309 -0.041545 0.393071
v -0.122716 -0.160459 0.376197
v 0.101075 -0.041545 0.509494
v 0.172020 -0.041545 0.545034
v -0.034215 -0.160459 0.420531
v 0.411288 -0.041545 0.665164
v 0.411288 -0.041545 0.665164
v 0.432006 -0.160459 0.654607
v 0.432006 -0.160459 0.654607
v -0.157055 -0.041545 0.409560
v 0.004766 -0.041545 0.472064
v 0.000000 -0.160459 0.789102
v -0.243846 -0.160459 0.750480
v -0.243846 -0.041545 0.750480
v 0.000000 -0.041545 0.789103
v -0.463823 -0.160459 0.638396
v 0.243846 -0.160459 0.750480
v 0.243846 -0.041545 0.750480
vn -0.7860 0.2350 -0.5718
vn 0.1555 0.1542 -0.9757
vn 0.1903 0.3892 -0.9013
vn 0.1584 0.1576 -0.9747
vn 0.1579 0.1565 -0.9750
vn 0.4423 0.1573 -0.8830
vn 0.4432 0.1556 -0.8828
vn 0.3303 0.3996 -0.8551
vn 0.3266 0.3988 -0.8569
vn 0.3325 0.3969 -0.8555
vn -0.0000 -0.0000 1.0000
vn -0.3090 -0.0000 0.9511
vn -0.4752 -0.0000 0.8799
vn -0.5878 -0.0000 0.8090
vn -0.4540 -0.0000 0.8910
vn -0.7071 -0.0000 0.7071
vn 0.3090 -0.0000 0.9511
vn 0.4540 -0.0000 0.8910
vn -0.0000 -1.0000 -0.0000
vn -0.0000 1.0000 -0.0000
vn -0.7843 0.2436 -0.5706
vt 0.443428 0.000000
vt 1.000000 0.000000
vt 1.000000 0.645429
vt 0.443139 0.090388
vt 0.645429 0.645429
vt 0.000000 0.000000
vt 0.647819 0.000000
vt 1.000000 1.000000
vt 0.900532 0.900532
vt 0.864335 0.000000
vt 0.379633 0.000000
vt 1.000000 0.352180
vt 0.502690 0.000000
vt 1.000000 0.342242
vt 1.000000 0.806561
vt 0.379633 0.379633
vt 0.806561 0.806561
vt 0.342242 0.342242
vt 0.342193 0.086692
vt 0.806466 0.308613
vt 0.740070 0.000000
vt 1.000000 0.260458
vt 0.260458 0.260458
vt 1.000000 0.135665
vt 1.000000 0.497310
vt 0.740070 0.740070
vt 0.261230 0.647674
vt 0.298614 0.647674
vt 0.298614 0.724333
vt 0.261230 0.724333
vt 0.278845 0.793488
vt 0.261230 0.793488
vt 0.298614 0.789137
vt 0.390528 0.504929
vt 0.390528 0.501859
vt 0.408143 0.501859
vt 0.394553 0.504233
vt 0.261230 0.571014
vt 0.298614 0.571014
vt 0.298614 0.518374
vt 0.261230 0.511861
vt 0.104116 0.450763
vt 0.101046 0.447693
vt 0.164258 0.312311
vt 0.196955 0.322980
vt 0.211351 0.303165
vt 0.239174 0.496437
vt 0.385742 0.436996
vt 0.326589 0.485999
vt 0.249930 0.498141
vt 0.173271 0.485999
vt 0.758361 0.514001
vt 0.811001 0.540822
vt 0.735780 0.510425
vt 0.713477 0.506892
vt 0.683199 0.502096
vt 0.632327 0.681976
vt 0.618729 0.663260
vt 0.600655 0.638383
vt 0.540238 0.555225
vt 0.605042 0.514001
vt 0.681701 0.712102
vt 1.000000 0.900698
vt 1.000000 0.556572
vt 0.891812 0.464494
vt 0.737237 0.324995
s 0
usemtl lambert2SG
f 469/561/175 446/562/175 472/563/175 470/564/175
f 472/565/176 446/566/176 473/567/176
f 447/562/177 446/568/177 459/569/177 478/570/177
f 447/566/178 448/562/178 446/568/178
f 446/568/179 448/566/179 479/571/179 473/572/179
f 448/566/180 480/573/180 481/574/180 482/575/180 479/576/180
f 482/577/181 481/578/181 483/579/181 485/580/181
f 488/581/182 448/562/182 487/582/182
f 487/583/183 448/566/183 447/562/183 478/584/183
f 480/585/184 448/568/184 488/586/184
s 1
f 489/587/185 492/588/185 491/589/186 490/590/186
f 477/591/187 493/592/188 490/590/186 491/589/186 475/593/189
f 471/594/190 493/595/188 477/596/187 453/597/190
f 489/587/185 494/598/191 495/599/191 492/588/185
f 484/600/192 495/599/191 494/598/191 486/601/192
f 445/602/193 455/603/193 454/604/193 456/605/193 461/606/193 463/607/193 466/608/193 451/609/193 443/610/193 444/611/193
f 452/612/194 465/613/194 464/614/194 462/615/194 468/616/194 467/617/194 460/618/194 476/619/194 474/620/194 449/621/194 450/622/194
s 0
f 459/623/195 446/562/195 469/624/195 458/625/195 457/626/195
o Potlid_cell.009
v -0.000977 0.047405 -0.000170
v -0.037187 0.133884 -0.114449
v -0.070734 0.133884 -0.097357
v -0.097356 0.133884 -0.070734
v -0.114449 0.133884 -0.037187
v -0.120339 0.133884 0.000000
v -0.114449 0.133884 0.037186
v -0.097356 0.133884 0.070734
v -0.070734 0.133884 0.097355
v -0.000908 0.136017 -0.110535
v -0.001129 0.160151 -0.000820
v -0.004028 0.158946 0.005544
v -0.054815 0.133884 0.105466
v -0.054763 0.082620 0.105493
v -0.037948 0.098134 -0.114061
v -0.008967 0.133884 -0.118918
v -0.114449 0.077229 -0.037187
v -0.114449 0.047275 0.037186
v -0.120339 0.063026 0.000000
v -0.097356 0.031517 0.070734
v -0.054839 0.011945 0.105454
v -0.070734 0.017296 0.097355
v -0.070734 0.095716 -0.097357
v -0.097356 0.088493 -0.070734
v -0.004028 0.158946 0.005544
v -0.054815 0.133884 0.105466
v -0.054815 0.133884 0.105466
v -0.054763 0.082620 0.105493
v -0.000908 0.136017 -0.110535
v -0.008967 0.133884 -0.118918
v -0.008967 0.133884 -0.118918
v -0.037948 0.098134 -0.114061
v -0.070734 0.095716 -0.097357
v -0.054839 0.011945 0.105454
v -0.070734 0.017296 0.097355
v -0.097356 0.031517 0.070734
v -0.114449 0.047275 0.037186
v -0.120339 0.063026 0.000000
v -0.114449 0.077229 -0.037187
v -0.097356 0.088493 -0.070734
v -0.037187 0.133884 -0.114449
v -0.070734 0.133884 -0.097357
v -0.097356 0.133884 -0.070734
v -0.114449 0.133884 -0.037187
v -0.120339 0.133884 0.000000
v -0.114449 0.133884 0.037186
v -0.097356 0.133884 0.070734
v -0.070734 0.133884 0.097355
v -0.001129 0.160151 -0.000820
vn 0.8921 0.0013 0.4518
vn 0.6509 -0.5922 -0.4751
vn -0.1210 -0.9208 -0.3708
vn 0.8910 -0.0012 0.4540
vn -0.0342 0.9761 -0.2148
vn -0.0665 0.9766 -0.2047
vn -0.1664 0.9849 -0.0473
vn -0.1266 0.9765 -0.1744
vn -0.1745 0.9765 -0.1267
vn -0.2050 0.9765 -0.0665
vn -0.2152 0.9766 0.0001
vn -0.2042 0.9767 0.0664
vn -0.1847 0.9767 0.1090
vn -0.1742 0.9766 0.1260
vn -0.1268 0.9765 0.1745
vn -0.0991 0.9759 0.1944
vn 1.0000 0.0014 0.0017
vn -0.3726 -0.0021 -0.9280
vn -0.3068 -0.0038 -0.9518
vn -0.1564 -0.0074 -0.9877
vn -0.5977 -0.0000 -0.8017
vn -0.5878 -0.0000 -0.8090
vn -0.8226 -0.0000 -0.5686
vn -0.8090 -0.0000 -0.5878
vn -0.9605 -0.0000 -0.2783
vn -0.9511 -0.0000 -0.3090
vn -0.9993 -0.0000 0.0377
vn -1.0000 -0.0000 -0.0000
vn -0.9380 -0.0000 0.3467
vn -0.9511 -0.0000 0.3090
vn -0.7857 -0.0000 0.6186
vn -0.8090 -0.0000 0.5878
vn -0.5602 -0.0000 0.8283
vn -0.5878 -0.0000 0.8090
vn -0.4540 -0.0000 0.8910
vt 0.988346 0.672262
vt 0.784069 0.314391
vt 0.784002 0.000000
vt 1.000000 0.000000
vt 0.998716 0.689843
vt 0.537299 0.067703
vt 0.456471 0.000000
vt 0.986566 0.304589
vt 0.310978 0.310978
vt 0.000000 0.000000
vt 0.280346 0.000000
vt 0.388052 0.065516
vt 0.576752 0.197032
vt 0.708376 0.308929
vt 0.770030 0.390241
vt 0.755678 0.433013
vt 0.666728 0.433059
vt 0.511892 0.390376
vt 0.280346 0.280346
vt 0.215998 0.000000
vt 0.255068 0.542510
vt 0.253663 0.551381
vt 0.218770 0.540044
vt 0.252432 0.539976
vt 0.248289 0.561928
vt 0.218770 0.540044
vt 0.239920 0.570297
vt 0.218171 0.540045
vt 0.229373 0.575671
vt 0.217941 0.540046
vt 0.217798 0.540046
vt 0.217683 0.577522
vt 0.217683 0.540071
vt 0.205992 0.575671
vt 0.217245 0.540294
vt 0.217535 0.540147
vt 0.195446 0.570297
vt 0.217245 0.540294
vt 0.187076 0.561928
vt 0.184526 0.556923
vt 0.215940 0.540957
vt 0.691626 0.691626
vt 0.543529 0.000000
vt 0.012402 0.571606
vt 0.012402 0.560728
vt 0.021274 0.560728
vt 0.001856 0.572727
vt 0.001856 0.560728
vt 0.012163 0.571967
vt 0.098999 0.554703
vt 0.113269 0.554703
vt 0.113269 0.563072
vt 0.101270 0.563072
vt 0.095458 0.544156
vt 0.113269 0.544156
vt 0.098999 0.554703
vt 0.090993 0.532466
vt 0.113269 0.532466
vt 0.086042 0.520775
vt 0.113269 0.520775
vt 0.081088 0.510229
vt 0.113269 0.510229
vt 0.076617 0.501859
vt 0.113269 0.501859
vt 0.012950 0.540894
vt 0.012933 0.557010
vt 0.007929 0.557010
vt 0.007929 0.520357
vt 0.012926 0.518675
s 0
usemtl lambert2SG
f 520/627/196 521/628/196 523/629/196 496/630/196 506/631/196
f 525/632/197 524/633/197 496/630/197 527/634/197
f 527/635/198 496/636/198 529/637/198 530/638/198 531/639/198 532/640/198 533/641/198 534/642/198 535/643/198 528/644/198
f 529/645/199 496/636/199 523/646/199
s 1
f 526/647/200 536/648/201 544/649/202 505/650/200
f 536/648/201 537/651/203 544/652/202
f 537/651/203 538/653/204 544/654/202
f 538/653/204 539/655/205 544/656/202
f 544/657/202 539/655/205 540/658/206
f 544/659/202 540/658/206 541/660/207
f 507/661/208 544/662/202 541/660/207 542/663/209
f 507/664/208 542/663/209 543/665/210
f 543/665/210 522/666/211 507/667/208
s 0
f 506/668/212 496/636/212 524/669/212
s 1
f 510/670/213 497/671/214 511/672/215
f 518/673/216 498/674/217 497/671/214 510/675/213
f 519/676/218 499/677/219 498/678/217 518/679/216
f 512/680/220 500/681/221 499/677/219 519/682/218
f 514/683/222 501/684/223 500/681/221 512/680/220
f 513/685/224 502/686/225 501/684/223 514/683/222
f 515/687/226 503/688/227 502/686/225 513/685/224
f 517/689/228 504/690/229 503/688/227 515/687/226
f 509/691/230 508/692/230 504/693/229 517/694/228 516/695/230
o Potlid_cell.010
v -0.190800 -0.080038 0.376443
v -0.165550 -0.041545 0.326898
v -0.198478 -0.041545 0.391476
v -0.123377 -0.128183 0.380152
v -0.132280 -0.041545 0.261938
v -0.062154 -0.041545 0.192366
v 0.096820 -0.041545 0.505709
v -0.155455 -0.041545 0.408226
v -0.165550 -0.041545 0.326898
v -0.132280 -0.041545 0.261938
v -0.062154 -0.041545 0.192366
v 0.096820 -0.041545 0.505709
v -0.155455 -0.041545 0.408226
v -0.198478 -0.041545 0.391476
vn -0.8900 -0.0029 -0.4559
vn -0.8909 -0.0003 -0.4542
vn -0.3325 -0.3999 0.8541
vn -0.4879 -0.7212 -0.4918
vn -0.0000 1.0000 -0.0000
vn 0.4704 -0.8496 -0.2386
vn -0.3304 -0.3994 0.8551
vt 1.000000 0.132392
vt 0.691270 0.000000
vt 1.000000 0.000000
vt 1.000000 0.132553
vt 0.867608 0.000000
vt 0.000000 0.000000
vt 1.000000 0.255912
vt 0.132553 0.132553
vt 0.691270 0.691270
vt 0.498703 0.000000
vt 1.000000 1.000000
vt 0.712139 0.506680
vt 0.662162 0.689797
vt 0.640116 0.692696
vt 0.629656 0.678300
vt 0.619305 0.664052
vt 0.632830 0.682668
vt 0.495047 0.495047
vt 0.501297 0.000000
vt 0.495047 0.000000
vt 0.255912 0.255912
s 0
usemtl lambert2SG
f 553/696/231 554/697/231 545/698/231
f 545/698/232 558/699/232 553/700/232
f 545/701/233 548/698/233 552/702/233 558/703/233
f 554/704/234 555/705/234 548/698/234 545/706/234
s 1
f 556/707/235 550/708/235 549/709/235 546/710/235 547/711/235 557/712/235
s 0
f 551/713/236 548/701/236 555/714/236
f 548/701/237 551/715/237 552/716/237
o Potlid_cell.011
v -0.193104 -0.079082 0.376592
v -0.263249 -0.041545 0.306343
v -0.257163 -0.066804 0.367218
v -0.136087 -0.041545 0.264782
v -0.200479 -0.041545 0.391168
v -0.256509 -0.041545 0.378315
v -0.300623 -0.041545 0.318708
v -0.183611 -0.041545 0.280292
v -0.256509 -0.041545 0.378315
v -0.200479 -0.041545 0.391168
v -0.136087 -0.041545 0.264782
v -0.300623 -0.041545 0.318708
v -0.263249 -0.041545 0.306343
v -0.183611 -0.041545 0.280292
vn -0.1212 -0.9207 -0.3708
vn -0.1224 -0.9210 -0.3699
vn -0.2060 -0.3891 0.8979
vn 0.8910 -0.0012 0.4540
vn -0.0000 1.0000 -0.0000
vn -0.7815 -0.2339 0.5784
vt 0.703235 0.000000
vt 1.000000 0.000000
vt 1.000000 0.129507
vt 1.000000 0.129610
vt 0.129507 0.129507
vt 0.000000 0.000000
vt 1.000000 0.091003
vt 0.908891 0.000000
vt 1.000000 1.000000
vt 0.870348 0.870348
vt 0.703235 0.703235
vt 1.000000 0.870348
vt 0.623978 0.670485
vt 0.598942 0.689806
vt 0.587193 0.681269
vt 0.601061 0.638942
vt 0.618676 0.663186
vt 0.638919 0.691049
vt 0.091003 0.091003
vt 0.091176 0.000000
s 0
usemtl lambert2SG
f 569/717/238 559/718/238 571/719/238 572/720/238
f 571/721/239 559/722/239 561/718/239 565/723/239
f 567/724/240 561/718/240 559/725/240 568/726/240
f 559/725/241 569/727/241 568/728/241
s 1
f 566/729/242 560/730/242 570/731/242 564/732/242 563/733/242 562/734/242
s 0
f 565/735/243 561/722/243 567/736/243
