# This file uses centimeters as units for non-parametric coordinates.

mtllib BaguetteBread.mtl
g default
v -1.335074 0.039317 0.033910
v -1.335074 0.015018 0.054868
v -1.335074 -0.015018 0.054868
v -1.335074 -0.039317 0.033910
v -1.335074 -0.048598 -0.000000
v -1.335074 -0.039317 -0.033911
v -1.335074 -0.015018 -0.054868
v -1.335074 0.015018 -0.054868
v -1.335074 0.039317 -0.033911
v -1.335074 0.048598 0.000000
v -1.285558 0.077665 0.066985
v -1.285558 0.029666 0.108385
v -1.285558 -0.029666 0.108385
v -1.285558 -0.077665 0.066985
v -1.285558 -0.096000 -0.000000
v -1.285558 -0.077665 -0.066985
v -1.285558 -0.029666 -0.108385
v -1.285558 0.029666 -0.108384
v -1.285558 0.077665 -0.066985
v -1.285558 0.096000 0.000000
v -1.093561 0.147728 0.127414
v -1.093561 0.056427 0.206159
v -1.093561 -0.056427 0.206159
v -1.093561 -0.147728 0.127414
v -1.093561 -0.182602 -0.000000
v -1.093561 -0.147728 -0.127413
v -1.093561 -0.056427 -0.206159
v -1.093561 0.056427 -0.206159
v -1.093561 0.147728 -0.127413
v -1.093561 0.182602 0.000000
v -0.743524 0.203331 0.167792
v -0.712008 0.077665 0.271493
v -0.712008 -0.077665 0.271493
v -0.743524 -0.203331 0.167792
v -0.794519 -0.251330 -0.000000
v -0.845513 -0.203330 -0.167792
v -0.877029 -0.077665 -0.271493
v -0.877029 0.077665 -0.271493
v -0.845513 0.203330 -0.167792
v -0.794519 0.251330 0.000000
v -0.349642 0.239029 0.194601
v -0.307579 0.091301 0.314871
v -0.307579 -0.091301 0.314871
v -0.349642 -0.239029 0.194601
v -0.417703 -0.295457 -0.000000
v -0.485764 -0.239029 -0.194601
v -0.527827 -0.091301 -0.314871
v -0.527827 0.091301 -0.314871
v -0.485764 0.239029 -0.194601
v -0.417703 0.295457 0.000000
v 0.050259 0.251330 0.210862
v 0.081321 0.096000 0.341182
v 0.081321 -0.096000 0.341182
v 0.050259 -0.251330 0.210862
v 0.000000 -0.310661 -0.000000
v -0.050260 -0.251330 -0.210862
v -0.081320 -0.096000 -0.341182
v -0.081320 0.096000 -0.341182
v -0.050260 0.251330 -0.210862
v 0.000000 0.310661 0.000000
v 0.454128 0.239029 0.202916
v 0.476641 0.091301 0.328325
v 0.476641 -0.091301 0.328325
v 0.454128 -0.239029 0.202916
v 0.417703 -0.295457 -0.000000
v 0.381278 -0.239029 -0.202916
v 0.358766 -0.091301 -0.328325
v 0.358766 0.091301 -0.328325
v 0.381278 0.239029 -0.202916
v 0.417703 0.295457 0.000000
v 0.832356 0.203331 0.171239
v 0.855742 0.077665 0.277070
v 0.855742 -0.077665 0.277070
v 0.832356 -0.203331 0.171239
v 0.794518 -0.251330 -0.000000
v 0.756680 -0.203330 -0.171239
v 0.733294 -0.077665 -0.277070
v 0.733294 0.077665 -0.277070
v 0.756680 0.203330 -0.171239
v 0.794518 0.251330 0.000000
v 1.093561 0.147728 0.127413
v 1.093561 0.056427 0.206159
v 1.093561 -0.056427 0.206159
v 1.093561 -0.147728 0.127413
v 1.093561 -0.182602 -0.000000
v 1.093561 -0.147728 -0.127414
v 1.093562 -0.056427 -0.206159
v 1.093562 0.056427 -0.206159
v 1.093561 0.147728 -0.127414
v 1.093561 0.182602 0.000000
v 1.285559 0.077665 0.066985
v 1.285558 0.029666 0.108384
v 1.285558 -0.029666 0.108385
v 1.285559 -0.077665 0.066985
v 1.285559 -0.096000 -0.000000
v 1.285558 -0.077665 -0.066985
v 1.285559 -0.029666 -0.108385
v 1.285558 0.029666 -0.108384
v 1.285558 0.077665 -0.066985
v 1.285559 0.096000 0.000000
v 1.335073 0.039317 0.033911
v 1.335073 0.015018 0.054868
v 1.335073 -0.015018 0.054868
v 1.335073 -0.039317 0.033911
v 1.335073 -0.048598 -0.000000
v 1.335073 -0.039317 -0.033910
v 1.335073 -0.015018 -0.054868
v 1.335073 0.015018 -0.054868
v 1.335073 0.039317 -0.033910
v 1.335073 0.048598 0.000000
v -1.351716 0.000000 0.000000
v 1.351716 0.000000 0.000000
vt 0.480825 0.571579
vt 0.451770 0.592689
vt 0.433360 0.579313
vt 0.444458 0.545157
vt 0.410604 0.579313
vt 0.399506 0.545157
vt 0.392194 0.592689
vt 0.363139 0.571579
vt 0.385161 0.614331
vt 0.349248 0.614331
vt 0.392194 0.635974
vt 0.363139 0.657083
vt 0.410604 0.649349
vt 0.399506 0.683505
vt 0.433360 0.649349
vt 0.444458 0.683505
vt 0.451770 0.635974
vt 0.480825 0.657083
vt 0.458802 0.614331
vt 0.494716 0.614331
vt 0.533908 0.533012
vt 0.464734 0.482754
vt 0.379230 0.482754
vt 0.310056 0.533011
vt 0.283633 0.614331
vt 0.310056 0.695650
vt 0.379230 0.745908
vt 0.464734 0.745908
vt 0.533908 0.695650
vt 0.560330 0.614331
vt 0.576035 0.507241
vt 0.480825 0.441056
vt 0.363139 0.441056
vt 0.267928 0.507241
vt 0.001776 0.301064
vt 0.001776 0.219745
vt 0.053848 0.219745
vt 0.062727 0.326835
vt 0.001776 0.138426
vt 0.044968 0.112655
vt 0.363139 0.787606
vt 0.267928 0.721421
vt 0.480825 0.787606
vt 0.576035 0.721421
vt 0.389361 0.301064
vt 0.389361 0.219745
vt 0.441433 0.219745
vt 0.432553 0.326835
vt 0.389361 0.138426
vt 0.450312 0.112655
vt 0.518898 0.095545
vt 0.455800 0.046470
vt 0.526223 0.018785
vt 0.143684 0.927585
vt 0.133353 0.998008
vt 0.015667 0.998008
vt 0.005336 0.927585
vt 0.138638 0.420705
vt 0.068215 0.393020
vt 0.131313 0.343945
vt 0.119462 0.219745
vt 0.107611 0.095545
vt 0.039480 0.046470
vt 0.100286 0.018785
vt 0.120551 0.501862
vt 0.130882 0.441056
vt 0.248569 0.441056
vt 0.258900 0.501862
vt 0.487871 0.420705
vt 0.427065 0.393020
vt 0.495196 0.343945
vt 0.507047 0.219745
vt 0.588533 0.085166
vt 0.593941 0.001992
vt 0.147244 0.859867
vt 0.001776 0.859867
vt 0.206356 0.437498
vt 0.200948 0.354324
vt 0.192196 0.219745
vt 0.183445 0.085166
vt 0.178036 0.001992
vt 0.116991 0.579611
vt 0.262460 0.579611
vt 0.565621 0.437498
vt 0.571030 0.354324
vt 0.579781 0.219745
vt 0.658858 0.090238
vt 0.662778 0.010198
vt 0.143684 0.791030
vt 0.005336 0.791030
vt 0.275193 0.429292
vt 0.271273 0.349252
vt 0.264930 0.219745
vt 0.258588 0.090238
vt 0.254668 0.010198
vt 0.120551 0.656243
vt 0.258900 0.656243
vt 0.642253 0.429292
vt 0.646173 0.349252
vt 0.652515 0.219745
vt 0.724719 0.110455
vt 0.728791 0.042910
vt 0.133353 0.725017
vt 0.015667 0.725017
vt 0.341206 0.396580
vt 0.337133 0.329035
vt 0.330545 0.219745
vt 0.323956 0.110455
vt 0.319884 0.042910
vt 0.130882 0.721459
vt 0.248569 0.721459
vt 0.707469 0.396580
vt 0.711541 0.329035
vt 0.718130 0.219745
vt 0.847484 0.699210
vt 0.889611 0.727181
vt 0.794401 0.794726
vt 0.778310 0.749468
vt 0.676715 0.794726
vt 0.692806 0.749468
vt 0.581504 0.727181
vt 0.623631 0.699210
vt 0.382617 0.301064
vt 0.382617 0.219745
vt 0.382617 0.138425
vt 0.623631 0.536571
vt 0.581504 0.508601
vt 0.676715 0.441056
vt 0.692806 0.486314
vt 0.794401 0.441056
vt 0.778310 0.486314
vt 0.889611 0.508601
vt 0.847484 0.536571
vt 0.770202 0.301064
vt 0.770202 0.219745
vt 0.770202 0.138426
vt 0.794401 0.660643
vt 0.758034 0.687065
vt 0.713082 0.687065
vt 0.676715 0.660643
vt 0.597209 0.617891
vt 0.662824 0.617891
vt 0.676715 0.575139
vt 0.713082 0.548716
vt 0.758034 0.548716
vt 0.794401 0.575139
vt 0.873906 0.617891
vt 0.808292 0.617891
vt 0.765346 0.639534
vt 0.746936 0.652909
vt 0.724180 0.652909
vt 0.705770 0.639534
vt 0.698737 0.617891
vt 0.705770 0.596248
vt 0.724180 0.582873
vt 0.746936 0.582873
vt 0.765346 0.596248
vt 0.772378 0.617891
vt 0.421982 0.614331
vt 0.735558 0.617891
vn -0.461581 0.756637 0.463080
vn -0.755998 0.558309 0.341699
vn -0.787034 0.222011 0.575577
vn -0.498312 0.312010 0.808909
vn -0.498312 0.312010 0.808909
vn -0.787034 0.222011 0.575577
vn -0.787033 -0.222011 0.575577
vn -0.498313 -0.312010 0.808909
vn -0.498313 -0.312010 0.808909
vn -0.787033 -0.222011 0.575577
vn -0.755997 -0.558309 0.341700
vn -0.461581 -0.756638 0.463079
vn -0.461581 -0.756638 0.463079
vn -0.755997 -0.558309 0.341700
vn -0.738560 -0.674188 -0.000001
vn -0.442569 -0.896734 -0.000000
vn -0.442569 -0.896734 -0.000000
vn -0.738560 -0.674188 -0.000001
vn -0.755997 -0.558308 -0.341703
vn -0.461579 -0.756637 -0.463082
vn -0.461579 -0.756637 -0.463082
vn -0.755997 -0.558308 -0.341703
vn -0.787032 -0.222007 -0.575580
vn -0.498312 -0.312009 -0.808910
vn -0.498312 -0.312009 -0.808910
vn -0.787032 -0.222007 -0.575580
vn -0.787033 0.222007 -0.575579
vn -0.498312 0.312010 -0.808910
vn -0.498312 0.312010 -0.808910
vn -0.787033 0.222007 -0.575579
vn -0.755998 0.558308 -0.341700
vn -0.461580 0.756637 -0.463082
vn -0.461580 0.756637 -0.463082
vn -0.755998 0.558308 -0.341700
vn -0.738560 0.674188 -0.000001
vn -0.442569 0.896734 0.000000
vn -0.442569 0.896734 0.000000
vn -0.738560 0.674188 -0.000001
vn -0.755998 0.558309 0.341699
vn -0.461581 0.756637 0.463080
vn -0.248195 0.799440 0.547078
vn -0.461581 0.756637 0.463080
vn -0.498312 0.312010 0.808909
vn -0.244541 0.325404 0.913407
vn -0.244541 0.325404 0.913407
vn -0.498312 0.312010 0.808909
vn -0.498313 -0.312010 0.808909
vn -0.244541 -0.325404 0.913407
vn -0.244541 -0.325404 0.913407
vn -0.498313 -0.312010 0.808909
vn -0.461581 -0.756638 0.463079
vn -0.248195 -0.799441 0.547078
vn -0.248195 -0.799441 0.547078
vn -0.461581 -0.756638 0.463079
vn -0.442569 -0.896734 -0.000000
vn -0.268683 -0.962217 0.044128
vn -0.268683 -0.962217 0.044128
vn -0.442569 -0.896734 -0.000000
vn -0.461579 -0.756637 -0.463082
vn -0.307732 -0.825692 -0.472794
vn -0.307732 -0.825692 -0.472794
vn -0.461579 -0.756637 -0.463082
vn -0.498312 -0.312009 -0.808910
vn -0.348306 -0.345470 -0.871397
vn -0.348306 -0.345470 -0.871397
vn -0.498312 -0.312009 -0.808910
vn -0.498312 0.312010 -0.808910
vn -0.348306 0.345470 -0.871397
vn -0.348306 0.345470 -0.871397
vn -0.498312 0.312010 -0.808910
vn -0.461580 0.756637 -0.463082
vn -0.307732 0.825692 -0.472794
vn -0.307732 0.825692 -0.472794
vn -0.461580 0.756637 -0.463082
vn -0.442569 0.896734 0.000000
vn -0.268683 0.962217 0.044128
vn -0.268683 0.962217 0.044128
vn -0.442569 0.896734 0.000000
vn -0.461581 0.756637 0.463080
vn -0.248195 0.799440 0.547078
vn -0.142358 0.815526 0.560938
vn -0.248195 0.799440 0.547078
vn -0.244541 0.325404 0.913407
vn -0.139094 0.330847 0.933377
vn -0.244541 0.325404 0.913407
vn -0.244541 -0.325404 0.913407
vn -0.139094 -0.330847 0.933377
vn -0.139094 0.330847 0.933377
vn -0.244541 -0.325404 0.913407
vn -0.248195 -0.799441 0.547078
vn -0.142358 -0.815526 0.560938
vn -0.139094 -0.330847 0.933377
vn -0.248195 -0.799441 0.547078
vn -0.268683 -0.962217 0.044128
vn -0.151288 -0.987550 0.043090
vn -0.142358 -0.815526 0.560938
vn -0.268683 -0.962217 0.044128
vn -0.307732 -0.825692 -0.472794
vn -0.165665 -0.851815 -0.496957
vn -0.151288 -0.987550 0.043090
vn -0.307732 -0.825692 -0.472794
vn -0.348306 -0.345470 -0.871397
vn -0.179818 -0.357649 -0.916380
vn -0.165665 -0.851815 -0.496957
vn -0.348306 -0.345470 -0.871397
vn -0.348306 0.345470 -0.871397
vn -0.179818 0.357649 -0.916380
vn -0.179818 -0.357649 -0.916380
vn -0.348306 0.345470 -0.871397
vn -0.307732 0.825692 -0.472794
vn -0.165665 0.851815 -0.496957
vn -0.179818 0.357649 -0.916380
vn -0.307732 0.825692 -0.472794
vn -0.268683 0.962217 0.044128
vn -0.151288 0.987550 0.043089
vn -0.165665 0.851815 -0.496957
vn -0.268683 0.962217 0.044128
vn -0.248195 0.799440 0.547078
vn -0.142358 0.815526 0.560938
vn -0.151288 0.987550 0.043089
vn -0.075714 0.834670 0.545521
vn -0.142358 0.815526 0.560938
vn -0.139094 0.330847 0.933377
vn -0.086107 0.341637 0.935879
vn -0.086107 0.341637 0.935879
vn -0.139094 0.330847 0.933377
vn -0.139094 -0.330847 0.933377
vn -0.086107 -0.341637 0.935879
vn -0.086107 -0.341637 0.935879
vn -0.139094 -0.330847 0.933377
vn -0.142358 -0.815526 0.560938
vn -0.075714 -0.834670 0.545521
vn -0.075714 -0.834670 0.545521
vn -0.142358 -0.815526 0.560938
vn -0.151288 -0.987550 0.043090
vn -0.070402 -0.997378 0.016745
vn -0.070402 -0.997378 0.016745
vn -0.151288 -0.987550 0.043090
vn -0.165665 -0.851815 -0.496957
vn -0.075834 -0.851173 -0.519379
vn -0.075834 -0.851173 -0.519379
vn -0.165665 -0.851815 -0.496957
vn -0.179818 -0.357649 -0.916380
vn -0.085907 -0.355547 -0.930702
vn -0.085907 -0.355547 -0.930702
vn -0.179818 -0.357649 -0.916380
vn -0.179818 0.357649 -0.916380
vn -0.085907 0.355547 -0.930702
vn -0.085907 0.355547 -0.930702
vn -0.179818 0.357649 -0.916380
vn -0.165665 0.851815 -0.496957
vn -0.075834 0.851173 -0.519379
vn -0.075834 0.851173 -0.519379
vn -0.165665 0.851815 -0.496957
vn -0.151288 0.987550 0.043089
vn -0.070402 0.997378 0.016745
vn -0.070402 0.997378 0.016745
vn -0.151288 0.987550 0.043089
vn -0.142358 0.815526 0.560938
vn -0.075714 0.834670 0.545521
vn -0.005335 0.846089 0.533015
vn -0.075714 0.834670 0.545521
vn -0.086107 0.341637 0.935879
vn -0.013381 0.349652 0.936784
vn -0.013381 0.349652 0.936784
vn -0.086107 0.341637 0.935879
vn -0.086107 -0.341637 0.935879
vn -0.013381 -0.349652 0.936784
vn -0.013381 -0.349652 0.936784
vn -0.086107 -0.341637 0.935879
vn -0.075714 -0.834670 0.545521
vn -0.005335 -0.846089 0.533015
vn -0.005335 -0.846089 0.533015
vn -0.075714 -0.834670 0.545521
vn -0.070402 -0.997378 0.016745
vn -0.001072 -0.999991 -0.004080
vn -0.001072 -0.999991 -0.004080
vn -0.070402 -0.997378 0.016745
vn -0.075834 -0.851173 -0.519379
vn -0.005489 -0.843137 -0.537671
vn -0.005489 -0.843137 -0.537671
vn -0.075834 -0.851173 -0.519379
vn -0.085907 -0.355547 -0.930702
vn -0.013112 -0.348445 -0.937238
vn -0.013112 -0.348445 -0.937238
vn -0.085907 -0.355547 -0.930702
vn -0.085907 0.355547 -0.930702
vn -0.013112 0.348445 -0.937238
vn -0.013112 0.348445 -0.937238
vn -0.085907 0.355547 -0.930702
vn -0.075834 0.851173 -0.519379
vn -0.005489 0.843137 -0.537671
vn -0.005489 0.843137 -0.537671
vn -0.075834 0.851173 -0.519379
vn -0.070402 0.997378 0.016745
vn -0.001072 0.999991 -0.004081
vn -0.001072 0.999991 -0.004081
vn -0.070402 0.997378 0.016745
vn -0.075714 0.834670 0.545521
vn -0.005335 0.846089 0.533015
vn 0.073736 0.851143 0.519729
vn -0.005335 0.846089 0.533015
vn -0.013381 0.349652 0.936784
vn 0.080333 0.355993 0.931029
vn 0.080333 0.355993 0.931029
vn -0.013381 0.349652 0.936784
vn -0.013381 -0.349652 0.936784
vn 0.080333 -0.355994 0.931029
vn 0.080333 -0.355994 0.931029
vn -0.013381 -0.349652 0.936784
vn -0.005335 -0.846089 0.533015
vn 0.073736 -0.851143 0.519729
vn 0.073736 -0.851143 0.519729
vn -0.005335 -0.846089 0.533015
vn -0.001072 -0.999991 -0.004080
vn 0.069763 -0.997465 -0.014055
vn 0.069763 -0.997465 -0.014055
vn -0.001072 -0.999991 -0.004080
vn -0.005489 -0.843137 -0.537671
vn 0.071152 -0.838209 -0.540687
vn 0.071152 -0.838209 -0.540687
vn -0.005489 -0.843137 -0.537671
vn -0.013112 -0.348445 -0.937238
vn 0.075329 -0.345905 -0.935241
vn 0.075329 -0.345905 -0.935241
vn -0.013112 -0.348445 -0.937238
vn -0.013112 0.348445 -0.937238
vn 0.075329 0.345905 -0.935241
vn 0.075329 0.345905 -0.935241
vn -0.013112 0.348445 -0.937238
vn -0.005489 0.843137 -0.537671
vn 0.071152 0.838209 -0.540687
vn 0.071152 0.838209 -0.540687
vn -0.005489 0.843137 -0.537671
vn -0.001072 0.999991 -0.004081
vn 0.069763 0.997465 -0.014055
vn 0.069763 0.997465 -0.014055
vn -0.001072 0.999991 -0.004081
vn -0.005335 0.846089 0.533015
vn 0.073736 0.851143 0.519729
vn 0.164862 0.850414 0.499616
vn 0.073736 0.851143 0.519729
vn 0.080333 0.355993 0.931029
vn 0.183888 0.360141 0.914595
vn 0.183888 0.360141 0.914595
vn 0.080333 0.355993 0.931029
vn 0.080333 -0.355994 0.931029
vn 0.183888 -0.360142 0.914594
vn 0.183888 -0.360142 0.914594
vn 0.080333 -0.355994 0.931029
vn 0.073736 -0.851143 0.519729
vn 0.164862 -0.850414 0.499616
vn 0.164862 -0.850414 0.499616
vn 0.073736 -0.851143 0.519729
vn 0.069763 -0.997465 -0.014055
vn 0.152401 -0.987998 -0.025189
vn 0.152401 -0.987998 -0.025189
vn 0.069763 -0.997465 -0.014055
vn 0.071152 -0.838209 -0.540687
vn 0.154204 -0.828217 -0.538774
vn 0.154204 -0.828217 -0.538774
vn 0.071152 -0.838209 -0.540687
vn 0.075329 -0.345905 -0.935241
vn 0.163623 -0.342126 -0.925299
vn 0.163623 -0.342126 -0.925299
vn 0.075329 -0.345905 -0.935241
vn 0.075329 0.345905 -0.935241
vn 0.163623 0.342126 -0.925299
vn 0.163623 0.342126 -0.925299
vn 0.075329 0.345905 -0.935241
vn 0.071152 0.838209 -0.540687
vn 0.154204 0.828217 -0.538774
vn 0.154204 0.828217 -0.538774
vn 0.071152 0.838209 -0.540687
vn 0.069763 0.997465 -0.014055
vn 0.152401 0.987998 -0.025189
vn 0.152401 0.987998 -0.025189
vn 0.069763 0.997465 -0.014055
vn 0.073736 0.851143 0.519729
vn 0.164862 0.850414 0.499616
vn 0.302573 0.824670 0.477879
vn 0.164862 0.850414 0.499616
vn 0.183888 0.360141 0.914595
vn 0.342139 0.346138 0.873573
vn 0.342139 0.346138 0.873573
vn 0.183888 0.360141 0.914595
vn 0.183888 -0.360142 0.914594
vn 0.342139 -0.346139 0.873573
vn 0.342139 -0.346139 0.873573
vn 0.183888 -0.360142 0.914594
vn 0.164862 -0.850414 0.499616
vn 0.302573 -0.824670 0.477879
vn 0.302573 -0.824670 0.477879
vn 0.164862 -0.850414 0.499616
vn 0.152401 -0.987998 -0.025189
vn 0.269335 -0.962499 -0.032463
vn 0.269335 -0.962499 -0.032463
vn 0.152401 -0.987998 -0.025189
vn 0.154204 -0.828217 -0.538774
vn 0.258625 -0.805389 -0.533349
vn 0.258625 -0.805389 -0.533349
vn 0.154204 -0.828217 -0.538774
vn 0.163623 -0.342126 -0.925299
vn 0.263874 -0.330953 -0.906002
vn 0.263874 -0.330953 -0.906002
vn 0.163623 -0.342126 -0.925299
vn 0.163623 0.342126 -0.925299
vn 0.263874 0.330953 -0.906002
vn 0.263874 0.330953 -0.906002
vn 0.163623 0.342126 -0.925299
vn 0.154204 0.828217 -0.538774
vn 0.258625 0.805389 -0.533350
vn 0.258625 0.805389 -0.533350
vn 0.154204 0.828217 -0.538774
vn 0.152401 0.987998 -0.025189
vn 0.269335 0.962499 -0.032463
vn 0.269335 0.962499 -0.032463
vn 0.152401 0.987998 -0.025189
vn 0.164862 0.850414 0.499616
vn 0.302573 0.824670 0.477879
vn 0.461580 0.756637 0.463082
vn 0.302573 0.824670 0.477879
vn 0.342139 0.346138 0.873573
vn 0.498312 0.312009 0.808910
vn 0.498312 0.312009 0.808910
vn 0.342139 0.346138 0.873573
vn 0.342139 -0.346139 0.873573
vn 0.498312 -0.312009 0.808910
vn 0.498312 -0.312009 0.808910
vn 0.342139 -0.346139 0.873573
vn 0.302573 -0.824670 0.477879
vn 0.461580 -0.756637 0.463082
vn 0.461580 -0.756637 0.463082
vn 0.302573 -0.824670 0.477879
vn 0.269335 -0.962499 -0.032463
vn 0.442569 -0.896734 -0.000000
vn 0.442569 -0.896734 -0.000000
vn 0.269335 -0.962499 -0.032463
vn 0.258625 -0.805389 -0.533349
vn 0.461580 -0.756638 -0.463080
vn 0.461580 -0.756638 -0.463080
vn 0.258625 -0.805389 -0.533349
vn 0.263874 -0.330953 -0.906002
vn 0.498313 -0.312010 -0.808909
vn 0.498313 -0.312010 -0.808909
vn 0.263874 -0.330953 -0.906002
vn 0.263874 0.330953 -0.906002
vn 0.498313 0.312010 -0.808909
vn 0.498313 0.312010 -0.808909
vn 0.263874 0.330953 -0.906002
vn 0.258625 0.805389 -0.533350
vn 0.461581 0.756637 -0.463080
vn 0.461581 0.756637 -0.463080
vn 0.258625 0.805389 -0.533350
vn 0.269335 0.962499 -0.032463
vn 0.442569 0.896734 0.000000
vn 0.442569 0.896734 0.000000
vn 0.269335 0.962499 -0.032463
vn 0.302573 0.824670 0.477879
vn 0.461580 0.756637 0.463082
vn 0.755998 0.558307 0.341703
vn 0.461580 0.756637 0.463082
vn 0.498312 0.312009 0.808910
vn 0.787032 0.222007 0.575580
vn 0.787032 0.222007 0.575580
vn 0.498312 0.312009 0.808910
vn 0.498312 -0.312009 0.808910
vn 0.787033 -0.222005 0.575581
vn 0.787033 -0.222005 0.575581
vn 0.498312 -0.312009 0.808910
vn 0.461580 -0.756637 0.463082
vn 0.755998 -0.558306 0.341703
vn 0.755998 -0.558306 0.341703
vn 0.461580 -0.756637 0.463082
vn 0.442569 -0.896734 -0.000000
vn 0.738560 -0.674187 -0.000000
vn 0.738560 -0.674187 -0.000000
vn 0.442569 -0.896734 -0.000000
vn 0.461580 -0.756638 -0.463080
vn 0.755997 -0.558309 -0.341701
vn 0.755997 -0.558309 -0.341701
vn 0.461580 -0.756638 -0.463080
vn 0.498313 -0.312010 -0.808909
vn 0.787034 -0.222010 -0.575578
vn 0.787034 -0.222010 -0.575578
vn 0.498313 -0.312010 -0.808909
vn 0.498313 0.312010 -0.808909
vn 0.787034 0.222011 -0.575577
vn 0.787034 0.222011 -0.575577
vn 0.498313 0.312010 -0.808909
vn 0.461581 0.756637 -0.463080
vn 0.755997 0.558309 -0.341700
vn 0.755997 0.558309 -0.341700
vn 0.461581 0.756637 -0.463080
vn 0.442569 0.896734 0.000000
vn 0.738560 0.674188 0.000000
vn 0.738560 0.674188 0.000000
vn 0.442569 0.896734 0.000000
vn 0.461580 0.756637 0.463082
vn 0.755998 0.558307 0.341703
vn -0.787034 0.222011 0.575577
vn -0.755998 0.558309 0.341699
vn -1.000000 0.000000 -0.000001
vn -0.787033 -0.222011 0.575577
vn -0.787034 0.222011 0.575577
vn -1.000000 0.000000 -0.000001
vn -0.755997 -0.558309 0.341700
vn -0.787033 -0.222011 0.575577
vn -1.000000 0.000000 -0.000001
vn -0.738560 -0.674188 -0.000001
vn -0.755997 -0.558309 0.341700
vn -1.000000 0.000000 -0.000001
vn -0.755997 -0.558308 -0.341703
vn -0.738560 -0.674188 -0.000001
vn -1.000000 0.000000 -0.000001
vn -0.787032 -0.222007 -0.575580
vn -0.755997 -0.558308 -0.341703
vn -1.000000 0.000000 -0.000001
vn -0.787033 0.222007 -0.575579
vn -0.787032 -0.222007 -0.575580
vn -1.000000 0.000000 -0.000001
vn -0.755998 0.558308 -0.341700
vn -0.787033 0.222007 -0.575579
vn -1.000000 0.000000 -0.000001
vn -0.738560 0.674188 -0.000001
vn -0.755998 0.558308 -0.341700
vn -1.000000 0.000000 -0.000001
vn -0.755998 0.558309 0.341699
vn -0.738560 0.674188 -0.000001
vn -1.000000 0.000000 -0.000001
vn 1.000000 0.000000 -0.000001
vn 0.755998 0.558307 0.341703
vn 0.787032 0.222007 0.575580
vn 1.000000 0.000000 -0.000001
vn 0.787032 0.222007 0.575580
vn 0.787033 -0.222005 0.575581
vn 1.000000 0.000000 -0.000001
vn 0.787033 -0.222005 0.575581
vn 0.755998 -0.558306 0.341703
vn 1.000000 0.000000 -0.000001
vn 0.755998 -0.558306 0.341703
vn 0.738560 -0.674187 -0.000000
vn 1.000000 0.000000 -0.000001
vn 0.738560 -0.674187 -0.000000
vn 0.755997 -0.558309 -0.341701
vn 1.000000 0.000000 -0.000001
vn 0.755997 -0.558309 -0.341701
vn 0.787034 -0.222010 -0.575578
vn 1.000000 0.000000 -0.000001
vn 0.787034 -0.222010 -0.575578
vn 0.787034 0.222011 -0.575577
vn 1.000000 0.000000 -0.000001
vn 0.787034 0.222011 -0.575577
vn 0.755997 0.558309 -0.341700
vn 1.000000 0.000000 -0.000001
vn 0.755997 0.558309 -0.341700
vn 0.738560 0.674188 0.000000
vn 1.000000 0.000000 -0.000001
vn 0.738560 0.674188 0.000000
vn 0.755998 0.558307 0.341703
s off
g BaguetteBread:pSphere1
usemtl lambert2SG
f 11/1/1 1/2/2 2/3/3 12/4/4
f 12/4/5 2/3/6 3/5/7 13/6/8
f 13/6/9 3/5/10 4/7/11 14/8/12
f 14/8/13 4/7/14 5/9/15 15/10/16
f 15/10/17 5/9/18 6/11/19 16/12/20
f 16/12/21 6/11/22 7/13/23 17/14/24
f 17/14/25 7/13/26 8/15/27 18/16/28
f 18/16/29 8/15/30 9/17/31 19/18/32
f 19/18/33 9/17/34 10/19/35 20/20/36
f 20/20/37 10/19/38 1/2/39 11/1/40
f 21/21/41 11/1/42 12/4/43 22/22/44
f 22/22/45 12/4/46 13/6/47 23/23/48
f 23/23/49 13/6/50 14/8/51 24/24/52
f 24/24/53 14/8/54 15/10/55 25/25/56
f 25/25/57 15/10/58 16/12/59 26/26/60
f 26/26/61 16/12/62 17/14/63 27/27/64
f 27/27/65 17/14/66 18/16/67 28/28/68
f 28/28/69 18/16/70 19/18/71 29/29/72
f 29/29/73 19/18/74 20/20/75 30/30/76
f 30/30/77 20/20/78 11/1/79 21/21/80
f 31/31/81 21/21/82 22/22/83 32/32/84
f 22/22/85 23/23/86 33/33/87 32/32/88
f 23/23/89 24/24/90 34/34/91 33/33/92
f 24/35/93 25/36/94 35/37/95 34/38/96
f 25/36/97 26/39/98 36/40/99 35/37/100
f 26/26/101 27/27/102 37/41/103 36/42/104
f 27/27/105 28/28/106 38/43/107 37/41/108
f 28/28/109 29/29/110 39/44/111 38/43/112
f 29/45/113 30/46/114 40/47/115 39/48/116
f 30/46/117 21/49/118 31/50/119 40/47/120
f 41/51/121 31/50/122 32/52/123 42/53/124
f 42/54/125 32/55/126 33/56/127 43/57/128
f 43/58/129 33/59/130 34/38/131 44/60/132
f 44/60/133 34/38/134 35/37/135 45/61/136
f 45/61/137 35/37/138 36/40/139 46/62/140
f 46/62/141 36/40/142 37/63/143 47/64/144
f 47/65/145 37/66/146 38/67/147 48/68/148
f 48/69/149 38/70/150 39/48/151 49/71/152
f 49/71/153 39/48/154 40/47/155 50/72/156
f 50/72/157 40/47/158 31/50/159 41/51/160
f 51/73/161 41/51/162 42/53/163 52/74/164
f 52/75/165 42/54/166 43/57/167 53/76/168
f 53/77/169 43/58/170 44/60/171 54/78/172
f 54/78/173 44/60/174 45/61/175 55/79/176
f 55/79/177 45/61/178 46/62/179 56/80/180
f 56/80/181 46/62/182 47/64/183 57/81/184
f 57/82/185 47/65/186 48/68/187 58/83/188
f 58/84/189 48/69/190 49/71/191 59/85/192
f 59/85/193 49/71/194 50/72/195 60/86/196
f 60/86/197 50/72/198 41/51/199 51/73/200
f 61/87/201 51/73/202 52/74/203 62/88/204
f 62/89/205 52/75/206 53/76/207 63/90/208
f 63/91/209 53/77/210 54/78/211 64/92/212
f 64/92/213 54/78/214 55/79/215 65/93/216
f 65/93/217 55/79/218 56/80/219 66/94/220
f 66/94/221 56/80/222 57/81/223 67/95/224
f 67/96/225 57/82/226 58/83/227 68/97/228
f 68/98/229 58/84/230 59/85/231 69/99/232
f 69/99/233 59/85/234 60/86/235 70/100/236
f 70/100/237 60/86/238 51/73/239 61/87/240
f 71/101/241 61/87/242 62/88/243 72/102/244
f 72/103/245 62/89/246 63/90/247 73/104/248
f 73/105/249 63/91/250 64/92/251 74/106/252
f 74/106/253 64/92/254 65/93/255 75/107/256
f 75/107/257 65/93/258 66/94/259 76/108/260
f 76/108/261 66/94/262 67/95/263 77/109/264
f 77/110/265 67/96/266 68/97/267 78/111/268
f 78/112/269 68/98/270 69/99/271 79/113/272
f 79/113/273 69/99/274 70/100/275 80/114/276
f 80/114/277 70/100/278 61/87/279 71/101/280
f 81/115/281 71/116/282 72/117/283 82/118/284
f 82/118/285 72/117/286 73/119/287 83/120/288
f 83/120/289 73/119/290 74/121/291 84/122/292
f 84/123/293 74/106/294 75/107/295 85/124/296
f 85/124/297 75/107/298 76/108/299 86/125/300
f 86/126/301 76/127/302 77/128/303 87/129/304
f 87/129/305 77/128/306 78/130/307 88/131/308
f 88/131/309 78/130/310 79/132/311 89/133/312
f 89/134/313 79/113/314 80/114/315 90/135/316
f 90/135/317 80/114/318 71/101/319 81/136/320
f 91/137/321 81/115/322 82/118/323 92/138/324
f 92/138/325 82/118/326 83/120/327 93/139/328
f 93/139/329 83/120/330 84/122/331 94/140/332
f 94/140/333 84/122/334 85/141/335 95/142/336
f 95/142/337 85/141/338 86/126/339 96/143/340
f 96/143/341 86/126/342 87/129/343 97/144/344
f 97/144/345 87/129/346 88/131/347 98/145/348
f 98/145/349 88/131/350 89/133/351 99/146/352
f 99/146/353 89/133/354 90/147/355 100/148/356
f 100/148/357 90/147/358 81/115/359 91/137/360
f 101/149/361 91/137/362 92/138/363 102/150/364
f 102/150/365 92/138/366 93/139/367 103/151/368
f 103/151/369 93/139/370 94/140/371 104/152/372
f 104/152/373 94/140/374 95/142/375 105/153/376
f 105/153/377 95/142/378 96/143/379 106/154/380
f 106/154/381 96/143/382 97/144/383 107/155/384
f 107/155/385 97/144/386 98/145/387 108/156/388
f 108/156/389 98/145/390 99/146/391 109/157/392
f 109/157/393 99/146/394 100/148/395 110/158/396
f 110/158/397 100/148/398 91/137/399 101/149/400
f 2/3/401 1/2/402 111/159/403
f 3/5/404 2/3/405 111/159/406
f 4/7/407 3/5/408 111/159/409
f 5/9/410 4/7/411 111/159/412
f 6/11/413 5/9/414 111/159/415
f 7/13/416 6/11/417 111/159/418
f 8/15/419 7/13/420 111/159/421
f 9/17/422 8/15/423 111/159/424
f 10/19/425 9/17/426 111/159/427
f 1/2/428 10/19/429 111/159/430
f 112/160/431 101/149/432 102/150/433
f 112/160/434 102/150/435 103/151/436
f 112/160/437 103/151/438 104/152/439
f 112/160/440 104/152/441 105/153/442
f 112/160/443 105/153/444 106/154/445
f 112/160/446 106/154/447 107/155/448
f 112/160/449 107/155/450 108/156/451
f 112/160/452 108/156/453 109/157/454
f 112/160/455 109/157/456 110/158/457
f 112/160/458 110/158/459 101/149/460
