# This file uses centimeters as units for non-parametric coordinates.

mtllib Diamond.mtl
g default
v 0.000000 0.000000 0.000000
v -1.566010 4.312851 -4.819694
v -4.099767 4.312851 -2.978700
v -0.798303 6.180267 -2.456926
v -5.067657 4.312851 0.000000
v -2.089987 6.180267 -1.518464
v -2.583361 6.180267 0.000000
v -4.099767 4.312851 2.978699
v 0.000000 6.180267 0.000000
v 2.089986 6.180267 -1.518464
v 1.565987 4.312851 -4.819694
v 0.798303 6.180267 -2.456926
v -2.089986 6.180267 1.518464
v 4.099761 4.312851 -2.978705
v -1.566010 4.312851 4.819693
v -0.798303 6.180267 2.456926
v 2.583361 6.180267 0.000000
v 0.798303 6.180267 2.456926
v 5.067662 4.312851 0.000000
v 2.089986 6.180267 1.518464
v 4.099756 4.312851 2.978699
v 1.565987 4.312851 4.819693
vt 0.166560 0.487363
vt 0.166559 0.343380
vt 0.321115 0.342160
vt 0.246408 0.503113
vt 0.719294 0.548469
vt 0.644583 0.387518
vt 0.799142 0.388738
vt 0.799142 0.532720
vt 0.953701 0.387518
vt 0.878990 0.548469
vt 0.166563 0.012000
vt 0.799142 0.057361
vt 0.166561 0.616758
vt 0.477979 0.681127
vt 0.408825 0.845023
vt 0.325534 0.826625
vt 0.325537 0.686258
vt 0.799142 0.662114
vt 0.086713 0.503114
vt 0.412822 0.503112
vt 0.338114 0.342160
vt 0.492671 0.343379
vt 0.492669 0.487363
vt 0.325534 0.956906
vt 0.492668 0.616758
vt 0.242244 0.845022
vt 0.173093 0.681128
vt 0.492666 0.012000
vt 0.572517 0.503114
vt 0.325533 0.353947
vt 0.635935 0.857719
vt 0.719226 0.876116
vt 0.635936 0.988000
vt 0.552645 0.876117
vt 0.012000 0.342159
vt 0.788377 0.712222
vt 0.635933 0.717352
vt 0.483490 0.712221
vt 0.635937 0.385041
vt 0.647230 0.342159
vn -0.364481 0.784542 -0.501645
vn -0.303589 -0.186728 -0.934327
vn -0.794791 -0.186728 -0.577443
vn -0.364481 0.784542 -0.501645
vn -0.589732 0.784537 -0.191622
vn -0.794791 -0.186728 -0.577443
vn -0.982411 -0.186734 0.000000
vn -0.589732 0.784537 -0.191622
vn -0.589732 0.784536 0.191622
vn -0.982411 -0.186734 0.000000
vn -0.794791 -0.186728 0.577443
vn -0.589732 0.784537 0.191622
vn 0.000001 -1.000000 0.000000
vn -0.794791 -0.186728 -0.577443
vn -0.303589 -0.186728 -0.934327
vn -0.794791 -0.186728 -0.577443
vn 0.000001 -1.000000 0.000000
vn -0.982411 -0.186734 0.000000
vn 0.000000 1.000000 0.000000
vn 0.000000 1.000000 0.000000
vn 0.000000 1.000000 0.000000
vn 0.303587 -0.186728 -0.934327
vn 0.364480 0.784541 -0.501647
vn 0.364480 0.784541 -0.501647
vn 0.794789 -0.186729 -0.577446
vn 0.000000 1.000000 0.000000
vn 0.000000 1.000000 0.000000
vn 0.000000 1.000000 0.000000
vn 0.000000 1.000000 0.000000
vn 0.000000 1.000000 0.000000
vn 0.000000 1.000000 0.000000
vn -0.982411 -0.186734 0.000000
vn 0.000001 -1.000000 0.000000
vn -0.794791 -0.186728 0.577443
vn 0.000000 1.000000 0.000000
vn 0.000000 1.000000 0.000000
vn 0.000000 1.000000 0.000000
vn -0.364481 0.784542 0.501645
vn -0.794791 -0.186728 0.577443
vn -0.303590 -0.186728 0.934326
vn -0.364481 0.784542 0.501645
vn 0.000000 1.000000 0.000000
vn 0.000000 1.000000 0.000000
vn 0.000000 1.000000 0.000000
vn 0.000000 1.000000 0.000000
vn 0.000000 1.000000 0.000000
vn 0.000000 1.000000 0.000000
vn 0.794789 -0.186729 -0.577446
vn 0.589731 0.784537 -0.191623
vn 0.589731 0.784537 -0.191623
vn 0.982410 -0.186734 0.000001
vn 0.000000 1.000000 0.000000
vn 0.000000 1.000000 0.000000
vn 0.000000 1.000000 0.000000
vn -0.794791 -0.186728 0.577443
vn 0.000001 -1.000000 0.000000
vn -0.303590 -0.186728 0.934326
vn 0.000000 1.000000 0.000000
vn 0.000000 1.000000 0.000000
vn 0.000000 1.000000 0.000000
vn 0.794789 -0.186729 -0.577446
vn 0.000001 -1.000000 0.000000
vn 0.303587 -0.186728 -0.934327
vn 0.000000 1.000000 0.000000
vn 0.000000 1.000000 0.000000
vn 0.000000 1.000000 0.000000
vn 0.000000 1.000000 0.000000
vn 0.000000 1.000000 0.000000
vn 0.000000 1.000000 0.000000
vn 0.303587 -0.186728 -0.934327
vn -0.303589 -0.186728 -0.934327
vn -0.000000 0.784548 -0.620068
vn -0.000000 0.784548 -0.620068
vn 0.982410 -0.186734 0.000001
vn 0.589732 0.784536 0.191624
vn 0.589732 0.784536 0.191624
vn 0.794789 -0.186729 0.577446
vn 0.794789 -0.186729 0.577446
vn 0.364481 0.784541 0.501647
vn 0.364481 0.784541 0.501647
vn 0.303588 -0.186728 0.934327
vn 0.982410 -0.186734 0.000001
vn 0.000001 -1.000000 0.000000
vn 0.794789 -0.186729 -0.577446
vn 0.000001 -1.000000 0.000000
vn -0.303589 -0.186728 -0.934327
vn 0.303587 -0.186728 -0.934327
vn 0.303588 -0.186728 0.934327
vn 0.000001 -1.000000 0.000000
vn 0.794789 -0.186729 0.577446
vn 0.794789 -0.186729 0.577446
vn 0.000001 -1.000000 0.000000
vn 0.982410 -0.186734 0.000001
vn -0.303590 -0.186728 0.934326
vn 0.303588 -0.186728 0.934327
vn 0.000000 0.784548 0.620068
vn 0.000000 0.784548 0.620068
vn 0.000001 -1.000000 0.000000
vn 0.303588 -0.186728 0.934327
vn -0.303590 -0.186728 0.934326
s off
g Diamond:polySurface2
usemtl lambert2SG
f 4/1/1 2/2/2 3/3/3 6/4/4
f 6/5/5 3/6/6 5/7/7 7/8/8
f 7/8/9 5/7/10 8/9/11 13/10/12
f 1/11/13 3/3/14 2/2/15
f 3/6/16 1/12/17 5/7/18
f 4/1/19 6/4/20 9/13/21
f 11/14/22 12/15/23 10/16/24 14/17/25
f 6/5/26 7/8/27 9/18/28
f 12/19/29 4/1/30 9/13/31
f 5/7/32 1/12/33 8/9/34
f 7/8/35 13/10/36 9/18/37
f 13/20/38 8/21/39 15/22/40 16/23/41
f 10/16/42 12/15/43 9/24/44
f 13/20/45 16/23/46 9/25/47
f 14/17/48 10/16/49 17/26/50 19/27/51
f 17/26/52 10/16/53 9/24/54
f 8/21/55 1/28/56 15/22/57
f 16/23/58 18/29/59 9/25/60
f 14/17/61 1/30/62 11/14/63
f 20/31/64 17/32/65 9/33/66
f 18/34/67 20/31/68 9/33/69
f 11/35/70 2/2/71 4/1/72 12/19/73
f 19/36/74 17/32/75 20/31/76 21/37/77
f 21/37/78 20/31/79 18/34/80 22/38/81
f 19/27/82 1/30/83 14/17/84
f 1/11/85 2/2/86 11/35/87
f 22/38/88 1/39/89 21/37/90
f 21/37/91 1/39/92 19/36/93
f 15/22/94 22/40/95 18/29/96 16/23/97
f 1/28/98 22/40/99 15/22/100
