# This file uses centimeters as units for non-parametric coordinates.

mtllib item1.mtl
g default
v 0.950370 -1.591000 -1.646088
v -0.950367 -1.591000 -1.646088
v -1.900736 -1.591000 0.000000
v -0.950367 -1.591000 1.646088
v 0.950369 -1.591000 1.646088
v 1.900738 -1.591000 0.000000
v 1.155692 0.532028 -2.001717
v -1.155689 0.532028 -2.001717
v -2.311380 0.532028 0.000000
v -1.155690 0.532028 2.001717
v 1.155692 0.532028 2.001717
v 2.311381 0.532028 0.000000
v 0.000001 -1.591000 0.000000
v 0.000001 1.591000 0.000000
vt 0.951655 0.201091
vt 0.802134 0.183260
vt 0.806176 0.012000
vt 0.988000 0.033683
vt 0.651938 0.194017
vt 0.623531 0.025081
vt 0.506484 0.232974
vt 0.446653 0.072454
vt 0.371018 0.298726
vt 0.281920 0.152411
vt 0.250424 0.388902
vt 0.135272 0.262069
vt 0.149053 0.500249
vt 0.012000 0.397472
vt 0.370419 0.666654
vt 0.223129 0.635347
vt 0.323887 0.523444
vt 0.471177 0.554751
vt 0.424645 0.411541
vt 0.277355 0.380233
vt 0.176597 0.492136
vt 0.621884 0.212177
vt 0.793582 0.304118
vt 0.628110 0.406842
vt 0.799807 0.498783
vt 0.634336 0.601507
vt 0.462638 0.509566
vt 0.456412 0.314901
vn 0.000000 -0.165208 -0.986259
vn 0.000000 -0.165208 -0.986259
vn 0.000000 -0.165208 -0.986259
vn 0.000000 -0.165208 -0.986259
vn -0.854125 -0.165208 -0.493129
vn -0.854125 -0.165208 -0.493129
vn -0.854125 -0.165208 -0.493129
vn -0.854125 -0.165208 -0.493129
vn -0.854125 -0.165208 0.493129
vn -0.854125 -0.165208 0.493129
vn -0.854125 -0.165208 0.493129
vn -0.854125 -0.165208 0.493129
vn 0.000000 -0.165208 0.986259
vn 0.000000 -0.165208 0.986259
vn 0.000000 -0.165208 0.986259
vn 0.000000 -0.165208 0.986259
vn 0.854125 -0.165208 0.493129
vn 0.854125 -0.165208 0.493129
vn 0.854125 -0.165208 0.493129
vn 0.854125 -0.165208 0.493129
vn 0.854125 -0.165208 -0.493129
vn 0.854125 -0.165208 -0.493129
vn 0.854125 -0.165208 -0.493129
vn 0.854125 -0.165208 -0.493129
vn 0.000000 -1.000000 0.000000
vn 0.000000 -1.000000 0.000000
vn 0.000000 -1.000000 0.000000
vn 0.000000 -1.000000 0.000000
vn 0.000000 -1.000000 0.000000
vn 0.000000 -1.000000 0.000000
vn 0.000000 -1.000000 0.000000
vn 0.000000 -1.000000 0.000000
vn 0.000000 -1.000000 0.000000
vn 0.000000 -1.000000 0.000000
vn 0.000000 -1.000000 0.000000
vn 0.000000 -1.000000 0.000000
vn 0.000000 -1.000000 0.000000
vn 0.000000 -1.000000 0.000000
vn 0.000000 -1.000000 0.000000
vn 0.000000 -1.000000 0.000000
vn 0.000000 -1.000000 0.000000
vn 0.000000 -1.000000 0.000000
vn 0.208260 0.909127 -0.360717
vn -0.208260 0.909127 -0.360717
vn 0.000000 1.000000 0.000000
vn -0.208260 0.909127 -0.360717
vn -0.416520 0.909127 0.000000
vn 0.000000 1.000000 0.000000
vn -0.416520 0.909127 0.000000
vn -0.208260 0.909127 0.360717
vn 0.000000 1.000000 0.000000
vn -0.208260 0.909127 0.360717
vn 0.208260 0.909127 0.360717
vn 0.000000 1.000000 0.000000
vn 0.208260 0.909127 0.360717
vn 0.416520 0.909127 0.000000
vn 0.000000 1.000000 0.000000
vn 0.416520 0.909127 0.000000
vn 0.208260 0.909127 -0.360717
vn 0.000000 1.000000 0.000000
s off
g item1:pCylinder16
usemtl lambert2SG
f 1/1/1 2/2/2 8/3/3 7/4/4
f 2/2/5 3/5/6 9/6/7 8/3/8
f 3/5/9 4/7/10 10/8/11 9/6/12
f 4/7/13 5/9/14 11/10/15 10/8/16
f 5/9/17 6/11/18 12/12/19 11/10/20
f 6/11/21 1/13/22 7/14/23 12/12/24
f 2/15/25 1/16/26 13/17/27
f 3/18/28 2/15/29 13/17/30
f 4/19/31 3/18/32 13/17/33
f 5/20/34 4/19/35 13/17/36
f 6/21/37 5/20/38 13/17/39
f 1/16/40 6/21/41 13/17/42
f 7/22/43 8/23/44 14/24/45
f 8/23/46 9/25/47 14/24/48
f 9/25/49 10/26/50 14/24/51
f 10/26/52 11/27/53 14/24/54
f 11/27/55 12/28/56 14/24/57
f 12/28/58 7/22/59 14/24/60
