# This file uses centimeters as units for non-parametric coordinates.

mtllib Jupajub.mtl
g default
v 0.142822 0.335380 -0.046407
v 0.088271 0.335380 -0.121490
v 0.000002 0.335380 -0.150171
v -0.088267 0.335380 -0.121490
v -0.142822 0.335380 -0.046407
v -0.142822 0.335380 0.046407
v -0.088267 0.335380 0.121490
v 0.000002 0.335380 0.150171
v 0.088271 0.335380 0.121490
v 0.142822 0.335380 0.046407
v 0.414486 0.428193 -0.134675
v 0.256167 0.428193 -0.352583
v 0.000002 0.428193 -0.435815
v -0.256164 0.428193 -0.352583
v -0.414483 0.428193 -0.134675
v -0.414483 0.428193 0.134675
v -0.256164 0.428193 0.352583
v 0.000002 0.428193 0.435815
v 0.256167 0.428193 0.352583
v 0.414486 0.428193 0.134675
v 0.645578 0.604730 -0.209759
v 0.398992 0.604730 -0.549160
v 0.000002 0.604730 -0.678799
v -0.398988 0.604730 -0.549160
v -0.645576 0.604730 -0.209759
v -0.645576 0.604730 0.209759
v -0.398988 0.604730 0.549160
v 0.000002 0.604730 0.678799
v 0.398992 0.604730 0.549160
v 0.645578 0.604730 0.209759
v 0.813477 0.847711 -0.264314
v 0.502756 0.847711 -0.691984
v 0.000002 0.847711 -0.855336
v -0.502752 0.847711 -0.691984
v -0.813473 0.847711 -0.264314
v -0.813473 0.847711 0.264314
v -0.502752 0.847711 0.691984
v 0.000002 0.847711 0.855336
v 0.502756 0.847711 0.691984
v 0.813473 0.847711 0.264314
v 0.901744 1.133358 -0.292995
v 0.557311 1.133358 -0.767068
v 0.000002 1.133358 -0.948150
v -0.557307 1.133358 -0.767068
v -0.901741 1.133358 -0.292995
v -0.901741 1.133358 0.292995
v -0.557307 1.133358 0.767068
v 0.000002 1.133358 0.948150
v 0.557311 1.133358 0.767068
v 0.901744 1.133358 0.292995
v 0.813477 1.719344 -0.264314
v 0.502756 1.719344 -0.691984
v 0.000002 1.719344 -0.855336
v -0.502752 1.719344 -0.691984
v -0.813473 1.719344 -0.264314
v -0.813473 1.719344 0.264314
v -0.502752 1.719344 0.691984
v 0.000002 1.719344 0.855336
v 0.502756 1.719344 0.691984
v 0.813473 1.719344 0.264314
v 0.645578 1.962329 -0.209759
v 0.398992 1.962329 -0.549160
v 0.000002 1.962329 -0.678799
v -0.398988 1.962329 -0.549160
v -0.645576 1.962329 -0.209759
v -0.645576 1.962329 0.209759
v -0.398988 1.962329 0.549160
v 0.000002 1.962329 0.678799
v 0.398992 1.962329 0.549160
v 0.645578 1.962329 0.209759
v 0.414486 2.138866 -0.134675
v 0.256167 2.138866 -0.352583
v 0.000002 2.138866 -0.435815
v -0.256164 2.138866 -0.352583
v -0.414483 2.138866 -0.134675
v -0.414483 2.138866 0.134675
v -0.256164 2.138866 0.352583
v 0.000002 2.138866 0.435815
v 0.256167 2.138866 0.352583
v 0.414486 2.138866 0.134675
v 0.142822 2.231679 -0.046407
v 0.088271 2.231679 -0.121490
v 0.000002 2.231679 -0.150171
v -0.088267 2.231679 -0.121490
v -0.142822 2.231679 -0.046407
v -0.142822 2.231679 0.046407
v -0.088267 2.231679 0.121490
v 0.000002 2.231679 0.150171
v 0.088271 2.231679 0.121490
v 0.142822 2.231679 0.046407
v 0.000002 2.243498 0.000000
v 0.901744 1.246177 -0.292995
v 0.901744 1.246177 0.292995
v 0.557311 1.246177 0.767068
v 0.000002 1.246177 0.948150
v -0.557307 1.246177 0.767068
v -0.901741 1.246177 0.292995
v -0.901741 1.246177 -0.292995
v -0.557307 1.246177 -0.767068
v 0.000002 1.246177 -0.948150
v 0.557311 1.246177 -0.767068
v 0.879677 1.392671 -0.285823
v 0.879677 1.392671 0.285823
v 0.543673 1.392671 0.748298
v 0.000002 1.392671 0.924945
v -0.543670 1.392671 0.748298
v -0.879674 1.392671 0.285823
v -0.879674 1.392671 -0.285823
v -0.543670 1.392671 -0.748298
v 0.000002 1.392671 -0.924945
v 0.543673 1.392671 -0.748298
v 0.598267 1.400029 -0.823438
v 0.968009 1.400029 -0.314524
v 0.992292 1.321447 -0.322416
v 0.613271 1.321447 -0.844094
v 0.000002 1.400029 -1.017825
v 0.000002 1.321447 -1.043358
v -0.598263 1.400029 -0.823438
v -0.613267 1.321447 -0.844094
v -0.968005 1.400029 -0.314524
v -0.992292 1.321447 -0.322416
v -0.968005 1.400029 0.314524
v -0.992292 1.321447 0.322416
v -0.598263 1.400029 0.823438
v -0.613267 1.321447 0.844094
v 0.000002 1.400029 1.017825
v 0.000002 1.321447 1.043358
v 0.598267 1.400029 0.823438
v 0.613271 1.321447 0.844094
v 0.968009 1.400029 0.314524
v 0.992292 1.321447 0.322416
v 0.992292 1.238819 0.322416
v 0.992292 1.238819 -0.322416
v 0.613271 1.238819 0.844094
v 0.000002 1.238819 1.043358
v -0.613267 1.238819 0.844094
v -0.992292 1.238819 0.322416
v -0.992292 1.238819 -0.322416
v -0.613267 1.238819 -0.844094
v 0.000002 1.238819 -1.043358
v 0.613271 1.238819 -0.844094
v 0.142822 -2.231679 -0.046407
v 0.088271 -2.231679 -0.121490
v 0.000002 -2.243498 0.000000
v 0.000002 -2.231679 -0.150171
v -0.088267 -2.231679 -0.121490
v -0.142822 -2.231679 -0.046407
v -0.142822 -2.231679 0.046407
v -0.088267 -2.231679 0.121490
v 0.000002 -2.231679 0.150171
v 0.088271 -2.231679 0.121490
v 0.142822 -2.231679 0.046407
vt 0.957131 0.493537
vt 0.909076 0.509151
vt 0.899426 0.495869
vt 0.929125 0.454992
vt 0.883812 0.490796
vt 0.883812 0.440268
vt 0.868198 0.495869
vt 0.838499 0.454992
vt 0.858549 0.509151
vt 0.810494 0.493537
vt 0.858549 0.525568
vt 0.810494 0.541182
vt 0.868198 0.538850
vt 0.838499 0.579728
vt 0.883812 0.543923
vt 0.883812 0.594451
vt 0.899426 0.538850
vt 0.929125 0.579728
vt 0.909076 0.525568
vt 0.957131 0.541182
vt 0.998008 0.480255
vt 0.954389 0.420219
vt 0.883812 0.397287
vt 0.813236 0.420219
vt 0.769617 0.480255
vt 0.346188 0.547883
vt 0.314960 0.534601
vt 0.314960 0.486956
vt 0.346188 0.473674
vt 0.769617 0.554464
vt 0.813236 0.614500
vt 0.883812 0.637432
vt 0.954389 0.614500
vt 0.998008 0.554464
vt 0.195360 0.632851
vt 0.164132 0.619569
vt 0.164132 0.571924
vt 0.195360 0.558642
vt 0.238341 0.548992
vt 0.195360 0.498606
vt 0.238341 0.473342
vt 0.972744 0.394955
vt 0.883812 0.366060
vt 0.794880 0.394955
vt 0.389169 0.633183
vt 0.346188 0.607919
vt 0.389169 0.557533
vt 0.389169 0.464024
vt 0.346188 0.413638
vt 0.389169 0.388374
vt 0.794880 0.639764
vt 0.883812 0.668660
vt 0.972744 0.639764
vt 0.238341 0.718150
vt 0.195360 0.692887
vt 0.238341 0.642500
vt 0.288868 0.543919
vt 0.288868 0.460060
vt 0.230681 0.735424
vt 0.281209 0.745074
vt 0.281209 0.834006
vt 0.230681 0.834006
vt 0.281209 0.922938
vt 0.230681 0.932588
vt 0.439696 0.646465
vt 0.439696 0.562606
vt 0.439696 0.458951
vt 0.439696 0.375092
vt 0.339210 0.932588
vt 0.288683 0.922938
vt 0.288683 0.834006
vt 0.339210 0.834006
vt 0.288683 0.745074
vt 0.339210 0.735424
vt 0.288868 0.731432
vt 0.288868 0.647574
vt 0.308825 0.543919
vt 0.308825 0.460060
vt 0.210725 0.834006
vt 0.210725 0.735424
vt 0.210725 0.932588
vt 0.459653 0.562606
vt 0.459653 0.646465
vt 0.459653 0.458951
vt 0.459653 0.375092
vt 0.359167 0.834006
vt 0.359167 0.932588
vt 0.359167 0.735424
vt 0.308825 0.647574
vt 0.308825 0.731432
vt 0.528955 0.378746
vt 0.528955 0.468768
vt 0.515055 0.467372
vt 0.515055 0.375092
vt 0.140563 0.843905
vt 0.140563 0.738078
vt 0.154463 0.735424
vt 0.154463 0.843905
vt 0.140563 0.949731
vt 0.154463 0.952386
vt 0.494304 0.580040
vt 0.494304 0.670061
vt 0.480404 0.673715
vt 0.480404 0.581436
vt 0.494304 0.468768
vt 0.480404 0.467372
vt 0.494304 0.378746
vt 0.480404 0.375092
vt 0.204160 0.843905
vt 0.204160 0.949731
vt 0.190259 0.952386
vt 0.190259 0.843905
vt 0.204160 0.738078
vt 0.190259 0.735424
vt 0.528955 0.580040
vt 0.528955 0.670061
vt 0.515055 0.673715
vt 0.515055 0.581436
vt 0.126769 0.555321
vt 0.083788 0.545671
vt 0.083788 0.470021
vt 0.126769 0.495285
vt 0.719863 0.623533
vt 0.738218 0.648797
vt 0.649286 0.677693
vt 0.649286 0.646465
vt 0.560354 0.648797
vt 0.578709 0.623533
vt 0.102758 0.958289
vt 0.059777 0.983553
vt 0.059777 0.907903
vt 0.102758 0.898253
vt 0.059777 0.814394
vt 0.102758 0.824044
vt 0.059777 0.738744
vt 0.102758 0.764008
vt 0.578709 0.429252
vt 0.560354 0.403988
vt 0.649286 0.375092
vt 0.649286 0.406320
vt 0.738218 0.403988
vt 0.719863 0.429252
vt 0.126769 0.689566
vt 0.083788 0.714830
vt 0.083788 0.639180
vt 0.126769 0.629530
vt 0.722604 0.550215
vt 0.763482 0.563497
vt 0.694599 0.588761
vt 0.649286 0.603484
vt 0.603973 0.588761
vt 0.535091 0.563497
vt 0.575968 0.550215
vt 0.133986 0.884971
vt 0.133986 0.837326
vt 0.575968 0.502570
vt 0.535091 0.489288
vt 0.603973 0.464024
vt 0.649286 0.449301
vt 0.694599 0.464024
vt 0.763482 0.489288
vt 0.722604 0.502570
vt 0.157997 0.616248
vt 0.157997 0.568603
vt 0.674550 0.534601
vt 0.664900 0.547883
vt 0.649286 0.552956
vt 0.633672 0.547883
vt 0.624022 0.534601
vt 0.624022 0.518184
vt 0.633672 0.504902
vt 0.649286 0.499829
vt 0.664900 0.504902
vt 0.674550 0.518184
vt 0.536150 0.686757
vt 0.545799 0.700039
vt 0.520535 0.708248
vt 0.520535 0.681684
vt 0.504922 0.686757
vt 0.495272 0.700039
vt 0.495272 0.716457
vt 0.504922 0.729739
vt 0.520535 0.734812
vt 0.536150 0.729739
vt 0.545799 0.716457
vt 0.649286 0.526393
vt 0.500439 0.581436
vt 0.500439 0.467372
vt 0.500439 0.673715
vt 0.175644 0.843905
vt 0.175644 0.735424
vt 0.175644 0.952386
vt 0.465788 0.467372
vt 0.465788 0.375092
vt 0.465788 0.581436
vt 0.465788 0.673715
vt 0.169078 0.843905
vt 0.169078 0.952386
vt 0.169078 0.735424
vt 0.500439 0.375092
vt 0.026003 0.642985
vt 0.026003 0.541867
vt 0.026003 0.724792
vt 0.424426 0.746626
vt 0.366641 0.746626
vt 0.366641 0.650456
vt 0.424426 0.657694
vt 0.424426 0.835558
vt 0.366641 0.842795
vt 0.001992 0.810589
vt 0.001992 0.728783
vt 0.001992 0.911708
vt 0.001992 0.993515
vt 0.430956 0.773876
vt 0.488741 0.773876
vt 0.488741 0.870046
vt 0.430956 0.862808
vt 0.430956 0.684944
vt 0.488741 0.677707
vt 0.026003 0.460060
vt 0.807498 0.314391
vt 0.866933 0.232585
vt 0.882558 0.237662
vt 0.817155 0.327683
vt 0.711328 0.345639
vt 0.711328 0.362068
vt 0.615159 0.314391
vt 0.605502 0.327683
vt 0.555723 0.232585
vt 0.540098 0.237662
vt 0.555723 0.131466
vt 0.540098 0.126389
vt 0.615159 0.049660
vt 0.605502 0.036368
vt 0.711328 0.018412
vt 0.711328 0.001983
vt 0.807498 0.049660
vt 0.817155 0.036368
vt 0.866933 0.131466
vt 0.882558 0.126389
vt 0.516525 0.238370
vt 0.516526 0.134714
vt 0.532543 0.129510
vt 0.532543 0.243574
vt 0.455598 0.322228
vt 0.465498 0.335853
vt 0.357016 0.354260
vt 0.357016 0.371101
vt 0.258435 0.322228
vt 0.248536 0.335853
vt 0.197508 0.238370
vt 0.181491 0.243574
vt 0.197508 0.134714
vt 0.181491 0.129510
vt 0.258435 0.050856
vt 0.248536 0.037231
vt 0.357016 0.018825
vt 0.357016 0.001983
vt 0.455599 0.050856
vt 0.465498 0.037231
vt 0.044973 0.456068
vt 0.031691 0.456068
vt 0.031691 0.001983
vt 0.044973 0.001983
vt 0.068473 0.001983
vt 0.084088 0.001983
vt 0.084088 0.456068
vt 0.068473 0.456068
vt 0.052860 0.001983
vt 0.052860 0.456068
vt 0.105121 0.456068
vt 0.091839 0.456068
vt 0.091839 0.001983
vt 0.105121 0.001983
vt 0.121538 0.456068
vt 0.121538 0.001983
vt 0.134820 0.456068
vt 0.134820 0.001983
vt 0.158125 0.456068
vt 0.142512 0.456068
vt 0.142512 0.001983
vt 0.158125 0.001983
vt 0.173739 0.456068
vt 0.173739 0.001983
vt 0.015274 0.456068
vt 0.001992 0.456068
vt 0.001992 0.001983
vt 0.015274 0.001983
vn 0.492615 -0.855401 -0.160060
vn 0.293893 -0.951056 -0.095491
vn 0.181636 -0.951056 -0.250001
vn 0.304451 -0.855402 -0.419043
vn 0.304451 -0.855402 -0.419043
vn 0.181636 -0.951056 -0.250001
vn 0.000000 -0.951056 -0.309018
vn 0.000000 -0.855402 -0.517965
vn 0.000000 -0.855402 -0.517965
vn 0.000000 -0.951056 -0.309018
vn -0.181637 -0.951056 -0.250000
vn -0.304452 -0.855402 -0.419042
vn -0.304452 -0.855402 -0.419042
vn -0.181637 -0.951056 -0.250000
vn -0.293893 -0.951056 -0.095492
vn -0.492615 -0.855401 -0.160060
vn -0.492615 -0.855401 -0.160060
vn -0.293893 -0.951056 -0.095492
vn -0.293893 -0.951056 0.095491
vn -0.492615 -0.855401 0.160060
vn -0.492615 -0.855401 0.160060
vn -0.293893 -0.951056 0.095491
vn -0.181637 -0.951056 0.250000
vn -0.304452 -0.855402 0.419042
vn -0.304452 -0.855402 0.419042
vn -0.181637 -0.951056 0.250000
vn 0.000000 -0.951056 0.309018
vn 0.000000 -0.855402 0.517965
vn 0.000000 -0.855402 0.517965
vn 0.000000 -0.951056 0.309018
vn 0.181636 -0.951056 0.250001
vn 0.304451 -0.855402 0.419043
vn 0.304451 -0.855402 0.419043
vn 0.181636 -0.951056 0.250001
vn 0.293893 -0.951056 0.095492
vn 0.492615 -0.855401 0.160060
vn 0.492615 -0.855401 0.160060
vn 0.293893 -0.951056 0.095492
vn 0.293893 -0.951056 -0.095491
vn 0.492615 -0.855401 -0.160060
vn 0.703004 -0.673506 -0.228419
vn 0.492615 -0.855401 -0.160060
vn 0.304451 -0.855402 -0.419043
vn 0.434480 -0.673506 -0.598010
vn 0.434480 -0.673506 -0.598010
vn 0.304451 -0.855402 -0.419043
vn 0.000000 -0.855402 -0.517965
vn 0.000000 -0.673506 -0.739181
vn 0.000000 -0.673506 -0.739181
vn 0.000000 -0.855402 -0.517965
vn -0.304452 -0.855402 -0.419042
vn -0.434481 -0.673506 -0.598010
vn -0.434481 -0.673506 -0.598010
vn -0.304452 -0.855402 -0.419042
vn -0.492615 -0.855401 -0.160060
vn -0.703003 -0.673506 -0.228419
vn -0.703003 -0.673506 -0.228419
vn -0.492615 -0.855401 -0.160060
vn -0.492615 -0.855401 0.160060
vn -0.703003 -0.673506 0.228419
vn -0.703003 -0.673506 0.228419
vn -0.492615 -0.855401 0.160060
vn -0.304452 -0.855402 0.419042
vn -0.434481 -0.673506 0.598010
vn -0.434481 -0.673506 0.598010
vn -0.304452 -0.855402 0.419042
vn 0.000000 -0.855402 0.517965
vn 0.000000 -0.673506 0.739182
vn 0.000000 -0.673506 0.739182
vn 0.000000 -0.855402 0.517965
vn 0.304451 -0.855402 0.419043
vn 0.434481 -0.673505 0.598011
vn 0.434481 -0.673505 0.598011
vn 0.304451 -0.855402 0.419043
vn 0.492615 -0.855401 0.160060
vn 0.703004 -0.673505 0.228420
vn 0.703004 -0.673505 0.228420
vn 0.492615 -0.855401 0.160060
vn 0.492615 -0.855401 -0.160060
vn 0.703004 -0.673506 -0.228419
vn 0.858747 -0.429768 -0.279022
vn 0.703004 -0.673506 -0.228419
vn 0.434480 -0.673506 -0.598010
vn 0.530734 -0.429767 -0.730494
vn 0.530734 -0.429767 -0.730494
vn 0.434480 -0.673506 -0.598010
vn 0.000000 -0.673506 -0.739181
vn 0.000000 -0.429766 -0.902941
vn 0.000000 -0.429766 -0.902941
vn 0.000000 -0.673506 -0.739181
vn -0.434481 -0.673506 -0.598010
vn -0.530736 -0.429765 -0.730494
vn -0.530736 -0.429765 -0.730494
vn -0.434481 -0.673506 -0.598010
vn -0.703003 -0.673506 -0.228419
vn -0.858748 -0.429765 -0.279024
vn -0.858748 -0.429765 -0.279024
vn -0.703003 -0.673506 -0.228419
vn -0.703003 -0.673506 0.228419
vn -0.858748 -0.429765 0.279024
vn -0.858748 -0.429765 0.279024
vn -0.703003 -0.673506 0.228419
vn -0.434481 -0.673506 0.598010
vn -0.530736 -0.429765 0.730494
vn -0.530736 -0.429765 0.730494
vn -0.434481 -0.673506 0.598010
vn 0.000000 -0.673506 0.739182
vn 0.000000 -0.429765 0.902941
vn 0.000000 -0.429765 0.902941
vn 0.000000 -0.673506 0.739182
vn 0.434481 -0.673505 0.598011
vn 0.530735 -0.429766 0.730494
vn 0.530735 -0.429766 0.730494
vn 0.434481 -0.673505 0.598011
vn 0.703004 -0.673505 0.228420
vn 0.858747 -0.429767 0.279025
vn 0.858747 -0.429767 0.279025
vn 0.703004 -0.673505 0.228420
vn 0.703004 -0.673506 -0.228419
vn 0.858747 -0.429768 -0.279022
vn 0.927802 -0.219787 -0.301459
vn 0.858747 -0.429768 -0.279022
vn 0.530734 -0.429767 -0.730494
vn 0.573412 -0.219785 -0.789236
vn 0.573412 -0.219785 -0.789236
vn 0.530734 -0.429767 -0.730494
vn 0.000000 -0.429766 -0.902941
vn 0.000000 -0.219784 -0.975549
vn 0.000000 -0.219784 -0.975549
vn 0.000000 -0.429766 -0.902941
vn -0.530736 -0.429765 -0.730494
vn -0.573414 -0.219783 -0.789235
vn -0.573414 -0.219783 -0.789235
vn -0.530736 -0.429765 -0.730494
vn -0.858748 -0.429765 -0.279024
vn -0.927802 -0.219783 -0.301461
vn -0.927802 -0.219783 -0.301461
vn -0.858748 -0.429765 -0.279024
vn -0.858748 -0.429765 0.279024
vn -0.927802 -0.219783 0.301461
vn -0.927802 -0.219783 0.301461
vn -0.858748 -0.429765 0.279024
vn -0.530736 -0.429765 0.730494
vn -0.573413 -0.219783 0.789235
vn -0.573413 -0.219783 0.789235
vn -0.530736 -0.429765 0.730494
vn 0.000000 -0.429765 0.902941
vn 0.000000 -0.219784 0.975549
vn 0.000000 -0.219784 0.975549
vn 0.000000 -0.429765 0.902941
vn 0.530735 -0.429766 0.730494
vn 0.573413 -0.219785 0.789235
vn 0.573413 -0.219785 0.789235
vn 0.530735 -0.429766 0.730494
vn 0.858747 -0.429767 0.279025
vn 0.927801 -0.219786 0.301462
vn 0.927801 -0.219786 0.301462
vn 0.858747 -0.429767 0.279025
vn 0.858747 -0.429768 -0.279022
vn 0.927802 -0.219787 -0.301459
vn 0.951057 0.000000 -0.309016
vn 0.927802 -0.219787 -0.301459
vn 0.573412 -0.219785 -0.789236
vn 0.587784 0.000000 -0.809018
vn 0.573412 -0.219785 -0.789236
vn 0.000000 -0.219784 -0.975549
vn 0.000000 0.000000 -1.000000
vn 0.587784 0.000000 -0.809018
vn 0.000000 -0.219784 -0.975549
vn -0.573414 -0.219783 -0.789235
vn -0.587786 0.000000 -0.809017
vn 0.000000 0.000000 -1.000000
vn -0.573414 -0.219783 -0.789235
vn -0.927802 -0.219783 -0.301461
vn -0.951056 0.000000 -0.309017
vn -0.587786 0.000000 -0.809017
vn -0.927802 -0.219783 -0.301461
vn -0.927802 -0.219783 0.301461
vn -0.951057 0.000000 0.309017
vn -0.951056 0.000000 -0.309017
vn -0.927802 -0.219783 0.301461
vn -0.573413 -0.219783 0.789235
vn -0.587786 0.000000 0.809017
vn -0.951057 0.000000 0.309017
vn -0.573413 -0.219783 0.789235
vn 0.000000 -0.219784 0.975549
vn 0.000000 0.000000 1.000000
vn -0.587786 0.000000 0.809017
vn 0.000000 -0.219784 0.975549
vn 0.573413 -0.219785 0.789235
vn 0.587785 0.000000 0.809017
vn 0.000000 0.000000 1.000000
vn 0.573413 -0.219785 0.789235
vn 0.927801 -0.219786 0.301462
vn 0.951056 0.000000 0.309019
vn 0.587785 0.000000 0.809017
vn 0.927801 -0.219786 0.301462
vn 0.927802 -0.219787 -0.301459
vn 0.951057 0.000000 -0.309016
vn 0.951056 0.000000 0.309019
vn 0.559019 0.309016 -0.769420
vn 0.904506 0.309024 -0.293892
vn 0.940215 0.150562 -0.305494
vn 0.581084 0.150558 -0.799796
vn 0.000000 0.309014 -0.951057
vn 0.559019 0.309016 -0.769420
vn 0.581084 0.150558 -0.799796
vn 0.000000 0.150557 -0.988601
vn -0.559019 0.309016 -0.769420
vn 0.000000 0.309014 -0.951057
vn 0.000000 0.150557 -0.988601
vn -0.581085 0.150558 -0.799795
vn -0.904506 0.309025 -0.293892
vn -0.559019 0.309016 -0.769420
vn -0.581085 0.150558 -0.799795
vn -0.940215 0.150562 -0.305494
vn -0.904506 0.309025 0.293892
vn -0.904506 0.309025 -0.293892
vn -0.940215 0.150562 -0.305494
vn -0.940215 0.150562 0.305494
vn -0.559019 0.309016 0.769420
vn -0.904506 0.309025 0.293892
vn -0.940215 0.150562 0.305494
vn -0.581085 0.150558 0.799796
vn 0.000000 0.309014 0.951057
vn -0.559019 0.309016 0.769420
vn -0.581085 0.150558 0.799796
vn 0.000000 0.150557 0.988601
vn 0.559018 0.309016 0.769420
vn 0.000000 0.309014 0.951057
vn 0.000000 0.150557 0.988601
vn 0.581084 0.150558 0.799796
vn 0.904506 0.309025 0.293892
vn 0.559018 0.309016 0.769420
vn 0.581084 0.150558 0.799796
vn 0.940215 0.150562 0.305494
vn 0.904506 0.309024 -0.293892
vn 0.904506 0.309025 0.293892
vn 0.940215 0.150562 0.305494
vn 0.940215 0.150562 -0.305494
vn 0.703004 0.673506 -0.228419
vn 0.884848 0.366588 -0.287503
vn 0.546865 0.366588 -0.752696
vn 0.434480 0.673506 -0.598010
vn 0.434480 0.673506 -0.598010
vn 0.546865 0.366588 -0.752696
vn 0.000000 0.366587 -0.930384
vn 0.000000 0.673506 -0.739182
vn 0.000000 0.673506 -0.739182
vn 0.000000 0.366587 -0.930384
vn -0.546866 0.366587 -0.752696
vn -0.434481 0.673506 -0.598010
vn -0.434481 0.673506 -0.598010
vn -0.546866 0.366587 -0.752696
vn -0.884847 0.366588 -0.287504
vn -0.703003 0.673506 -0.228419
vn -0.703003 0.673506 -0.228419
vn -0.884847 0.366588 -0.287504
vn -0.884847 0.366588 0.287504
vn -0.703003 0.673506 0.228419
vn -0.703003 0.673506 0.228419
vn -0.884847 0.366588 0.287504
vn -0.546866 0.366587 0.752696
vn -0.434481 0.673506 0.598010
vn -0.434481 0.673506 0.598010
vn -0.546866 0.366587 0.752696
vn 0.000000 0.366587 0.930384
vn 0.000000 0.673506 0.739182
vn 0.000000 0.673506 0.739182
vn 0.000000 0.366587 0.930384
vn 0.546865 0.366588 0.752697
vn 0.434481 0.673505 0.598011
vn 0.434481 0.673505 0.598011
vn 0.546865 0.366588 0.752697
vn 0.884847 0.366588 0.287505
vn 0.703005 0.673505 0.228420
vn 0.703005 0.673505 0.228420
vn 0.884847 0.366588 0.287505
vn 0.884848 0.366588 -0.287503
vn 0.703004 0.673506 -0.228419
vn 0.492615 0.855401 -0.160060
vn 0.703004 0.673506 -0.228419
vn 0.434480 0.673506 -0.598010
vn 0.304452 0.855402 -0.419043
vn 0.304452 0.855402 -0.419043
vn 0.434480 0.673506 -0.598010
vn 0.000000 0.673506 -0.739182
vn 0.000000 0.855402 -0.517965
vn 0.000000 0.855402 -0.517965
vn 0.000000 0.673506 -0.739182
vn -0.434481 0.673506 -0.598010
vn -0.304453 0.855402 -0.419043
vn -0.304453 0.855402 -0.419043
vn -0.434481 0.673506 -0.598010
vn -0.703003 0.673506 -0.228419
vn -0.492615 0.855401 -0.160060
vn -0.492615 0.855401 -0.160060
vn -0.703003 0.673506 -0.228419
vn -0.703003 0.673506 0.228419
vn -0.492615 0.855401 0.160060
vn -0.492615 0.855401 0.160060
vn -0.703003 0.673506 0.228419
vn -0.434481 0.673506 0.598010
vn -0.304453 0.855402 0.419043
vn -0.304453 0.855402 0.419043
vn -0.434481 0.673506 0.598010
vn 0.000000 0.673506 0.739182
vn 0.000000 0.855402 0.517965
vn 0.000000 0.855402 0.517965
vn 0.000000 0.673506 0.739182
vn 0.434481 0.673505 0.598011
vn 0.304452 0.855402 0.419043
vn 0.304452 0.855402 0.419043
vn 0.434481 0.673505 0.598011
vn 0.703005 0.673505 0.228420
vn 0.492615 0.855401 0.160060
vn 0.492615 0.855401 0.160060
vn 0.703005 0.673505 0.228420
vn 0.703004 0.673506 -0.228419
vn 0.492615 0.855401 -0.160060
vn 0.276999 0.956646 -0.090003
vn 0.492615 0.855401 -0.160060
vn 0.304452 0.855402 -0.419043
vn 0.171195 0.956646 -0.235630
vn 0.171195 0.956646 -0.235630
vn 0.304452 0.855402 -0.419043
vn 0.000000 0.855402 -0.517965
vn 0.000000 0.956646 -0.291254
vn 0.000000 0.956646 -0.291254
vn 0.000000 0.855402 -0.517965
vn -0.304453 0.855402 -0.419043
vn -0.171196 0.956646 -0.235630
vn -0.171196 0.956646 -0.235630
vn -0.304453 0.855402 -0.419043
vn -0.492615 0.855401 -0.160060
vn -0.276999 0.956646 -0.090003
vn -0.276999 0.956646 -0.090003
vn -0.492615 0.855401 -0.160060
vn -0.492615 0.855401 0.160060
vn -0.276999 0.956646 0.090003
vn -0.276999 0.956646 0.090003
vn -0.492615 0.855401 0.160060
vn -0.304453 0.855402 0.419043
vn -0.171196 0.956645 0.235630
vn -0.171196 0.956645 0.235630
vn -0.304453 0.855402 0.419043
vn 0.000000 0.855402 0.517965
vn 0.000000 0.956646 0.291254
vn 0.000000 0.956646 0.291254
vn 0.000000 0.855402 0.517965
vn 0.304452 0.855402 0.419043
vn 0.171195 0.956646 0.235630
vn 0.171195 0.956646 0.235630
vn 0.304452 0.855402 0.419043
vn 0.492615 0.855401 0.160060
vn 0.276999 0.956646 0.090003
vn 0.276999 0.956646 0.090003
vn 0.492615 0.855401 0.160060
vn 0.492615 0.855401 -0.160060
vn 0.276999 0.956646 -0.090003
vn 0.046117 -0.996918 -0.063472
vn 0.074619 -0.996917 -0.024243
vn 0.000000 -1.000000 0.000000
vn 0.000000 -0.996917 -0.078458
vn 0.046117 -0.996918 -0.063472
vn 0.000000 -1.000000 0.000000
vn -0.046117 -0.996918 -0.063473
vn 0.000000 -0.996917 -0.078458
vn 0.000000 -1.000000 0.000000
vn -0.074620 -0.996917 -0.024245
vn -0.046117 -0.996918 -0.063473
vn 0.000000 -1.000000 0.000000
vn -0.074620 -0.996917 0.024245
vn -0.074620 -0.996917 -0.024245
vn 0.000000 -1.000000 0.000000
vn -0.046117 -0.996918 0.063473
vn -0.074620 -0.996917 0.024245
vn 0.000000 -1.000000 0.000000
vn 0.000000 -0.996917 0.078458
vn -0.046117 -0.996918 0.063473
vn 0.000000 -1.000000 0.000000
vn 0.046117 -0.996917 0.063474
vn 0.000000 -0.996917 0.078458
vn 0.000000 -1.000000 0.000000
vn 0.074619 -0.996917 0.024245
vn 0.046117 -0.996917 0.063474
vn 0.000000 -1.000000 0.000000
vn 0.074619 -0.996917 -0.024243
vn 0.074619 -0.996917 0.024245
vn 0.000000 -1.000000 0.000000
vn 0.000000 1.000000 0.000000
vn 0.276999 0.956646 -0.090003
vn 0.171195 0.956646 -0.235630
vn 0.000000 1.000000 0.000000
vn 0.171195 0.956646 -0.235630
vn 0.000000 0.956646 -0.291254
vn 0.000000 1.000000 0.000000
vn 0.000000 0.956646 -0.291254
vn -0.171196 0.956646 -0.235630
vn 0.000000 1.000000 0.000000
vn -0.171196 0.956646 -0.235630
vn -0.276999 0.956646 -0.090003
vn 0.000000 1.000000 0.000000
vn -0.276999 0.956646 -0.090003
vn -0.276999 0.956646 0.090003
vn 0.000000 1.000000 0.000000
vn -0.276999 0.956646 0.090003
vn -0.171196 0.956645 0.235630
vn 0.000000 1.000000 0.000000
vn -0.171196 0.956645 0.235630
vn 0.000000 0.956646 0.291254
vn 0.000000 1.000000 0.000000
vn 0.000000 0.956646 0.291254
vn 0.171195 0.956646 0.235630
vn 0.000000 1.000000 0.000000
vn 0.171195 0.956646 0.235630
vn 0.276999 0.956646 0.090003
vn 0.000000 1.000000 0.000000
vn 0.276999 0.956646 0.090003
vn 0.276999 0.956646 -0.090003
vn 0.940215 0.150562 0.305494
vn 0.951056 0.000000 0.309018
vn 0.951056 0.000000 -0.309018
vn 0.940215 0.150562 -0.305494
vn 0.581084 0.150558 0.799796
vn 0.587785 0.000000 0.809017
vn 0.951056 0.000000 0.309018
vn 0.940215 0.150562 0.305494
vn 0.000000 0.150557 0.988601
vn 0.000000 0.000000 1.000000
vn 0.587785 0.000000 0.809017
vn 0.581084 0.150558 0.799796
vn -0.581085 0.150558 0.799796
vn -0.587785 0.000000 0.809017
vn 0.000000 0.000000 1.000000
vn 0.000000 0.150557 0.988601
vn -0.940215 0.150562 0.305494
vn -0.951056 0.000000 0.309018
vn -0.587785 0.000000 0.809017
vn -0.581085 0.150558 0.799796
vn -0.940215 0.150562 -0.305494
vn -0.951056 0.000000 -0.309018
vn -0.951056 0.000000 0.309018
vn -0.940215 0.150562 0.305494
vn -0.581085 0.150558 -0.799795
vn -0.587786 0.000000 -0.809017
vn -0.951056 0.000000 -0.309018
vn -0.940215 0.150562 -0.305494
vn 0.000000 0.150557 -0.988601
vn 0.000000 0.000000 -1.000000
vn -0.587786 0.000000 -0.809017
vn -0.581085 0.150558 -0.799795
vn 0.581084 0.150558 -0.799796
vn 0.587785 0.000000 -0.809017
vn 0.000000 0.000000 -1.000000
vn 0.000000 0.150557 -0.988601
vn 0.940215 0.150562 -0.305494
vn 0.951056 0.000000 -0.309018
vn 0.587785 0.000000 -0.809017
vn 0.581084 0.150558 -0.799796
vn 0.884847 0.366588 0.287505
vn 0.930173 0.208408 0.302232
vn 0.930174 0.208406 -0.302231
vn 0.884848 0.366588 -0.287503
vn 0.546865 0.366588 0.752697
vn 0.574880 0.208408 0.791252
vn 0.930173 0.208408 0.302232
vn 0.884847 0.366588 0.287505
vn 0.000000 0.366587 0.930384
vn 0.000000 0.208406 0.978042
vn 0.574880 0.208408 0.791252
vn 0.546865 0.366588 0.752697
vn -0.546866 0.366587 0.752696
vn -0.574880 0.208405 0.791253
vn 0.000000 0.208406 0.978042
vn 0.000000 0.366587 0.930384
vn -0.884847 0.366588 0.287504
vn -0.930174 0.208405 0.302231
vn -0.574880 0.208405 0.791253
vn -0.546866 0.366587 0.752696
vn -0.884847 0.366588 -0.287504
vn -0.930174 0.208405 -0.302231
vn -0.930174 0.208405 0.302231
vn -0.884847 0.366588 0.287504
vn -0.546866 0.366587 -0.752696
vn -0.574880 0.208405 -0.791252
vn -0.930174 0.208405 -0.302231
vn -0.884847 0.366588 -0.287504
vn 0.000000 0.366587 -0.930384
vn 0.000000 0.208405 -0.978043
vn -0.574880 0.208405 -0.791252
vn -0.546866 0.366587 -0.752696
vn 0.546865 0.366588 -0.752696
vn 0.574879 0.208406 -0.791253
vn 0.000000 0.208405 -0.978043
vn 0.000000 0.366587 -0.930384
vn 0.884848 0.366588 -0.287503
vn 0.930174 0.208406 -0.302231
vn 0.574879 0.208406 -0.791253
vn 0.546865 0.366588 -0.752696
vn -0.067135 0.996551 0.048776
vn -0.067135 0.996551 0.048776
vn -0.067135 0.996551 0.048776
vn -0.067135 0.996551 0.048776
vn -0.025643 0.996551 0.078922
vn -0.025643 0.996551 0.078922
vn -0.025643 0.996551 0.078922
vn -0.025643 0.996551 0.078922
vn 0.025643 0.996551 0.078922
vn 0.025643 0.996551 0.078922
vn 0.025643 0.996551 0.078922
vn 0.025643 0.996551 0.078922
vn 0.067135 0.996551 0.048776
vn 0.067135 0.996551 0.048776
vn 0.067135 0.996551 0.048776
vn 0.067135 0.996551 0.048776
vn 0.082984 0.996551 0.000000
vn 0.082984 0.996551 0.000000
vn 0.082984 0.996551 0.000000
vn 0.082984 0.996551 0.000000
vn 0.067135 0.996551 -0.048776
vn 0.067135 0.996551 -0.048776
vn 0.067135 0.996551 -0.048776
vn 0.067135 0.996551 -0.048776
vn 0.025643 0.996551 -0.078922
vn 0.025643 0.996551 -0.078922
vn 0.025643 0.996551 -0.078922
vn 0.025643 0.996551 -0.078922
vn -0.025643 0.996551 -0.078922
vn -0.025643 0.996551 -0.078922
vn -0.025643 0.996551 -0.078922
vn -0.025643 0.996551 -0.078922
vn -0.067135 0.996551 -0.048776
vn -0.067135 0.996551 -0.048776
vn -0.067135 0.996551 -0.048776
vn -0.067135 0.996551 -0.048776
vn -0.082984 0.996551 0.000000
vn -0.082984 0.996551 0.000000
vn -0.082984 0.996551 0.000000
vn -0.082984 0.996551 0.000000
vn -0.080966 -0.996717 0.000000
vn -0.080966 -0.996717 0.000000
vn -0.080966 -0.996717 0.000000
vn -0.080966 -0.996717 0.000000
vn -0.065503 -0.996717 -0.047590
vn -0.065503 -0.996717 -0.047590
vn -0.065503 -0.996717 -0.047590
vn -0.065503 -0.996717 -0.047590
vn -0.025020 -0.996717 -0.077003
vn -0.025020 -0.996717 -0.077003
vn -0.025020 -0.996717 -0.077003
vn -0.025020 -0.996717 -0.077003
vn 0.025020 -0.996717 -0.077003
vn 0.025020 -0.996717 -0.077003
vn 0.025020 -0.996717 -0.077003
vn 0.025020 -0.996717 -0.077003
vn 0.065503 -0.996717 -0.047590
vn 0.065503 -0.996717 -0.047590
vn 0.065503 -0.996717 -0.047590
vn 0.065503 -0.996717 -0.047590
vn 0.080965 -0.996717 0.000000
vn 0.080965 -0.996717 0.000000
vn 0.080965 -0.996717 0.000000
vn 0.080965 -0.996717 0.000000
vn 0.065503 -0.996717 0.047590
vn 0.065503 -0.996717 0.047590
vn 0.065503 -0.996717 0.047590
vn 0.065503 -0.996717 0.047590
vn 0.025020 -0.996717 0.077003
vn 0.025020 -0.996717 0.077003
vn 0.025020 -0.996717 0.077003
vn 0.025020 -0.996717 0.077003
vn -0.025020 -0.996717 0.077003
vn -0.025020 -0.996717 0.077003
vn -0.025020 -0.996717 0.077003
vn -0.025020 -0.996717 0.077003
vn -0.065504 -0.996717 0.047591
vn -0.065504 -0.996717 0.047591
vn -0.065504 -0.996717 0.047591
vn -0.065504 -0.996717 0.047591
vn 0.809020 0.000000 -0.587781
vn 0.809020 0.000000 -0.587781
vn 0.809020 0.000000 -0.587781
vn 0.809020 0.000000 -0.587781
vn 0.309012 0.000000 -0.951058
vn 0.309012 0.000000 -0.951058
vn 0.309012 0.000000 -0.951058
vn 0.309012 0.000000 -0.951058
vn -0.309018 0.000000 -0.951056
vn -0.309018 0.000000 -0.951056
vn -0.309018 0.000000 -0.951056
vn -0.309018 0.000000 -0.951056
vn -0.809020 0.000000 -0.587781
vn -0.809020 0.000000 -0.587781
vn -0.809020 0.000000 -0.587781
vn -0.809020 0.000000 -0.587781
vn -1.000000 0.000000 0.000000
vn -1.000000 0.000000 0.000000
vn -1.000000 0.000000 0.000000
vn -1.000000 0.000000 0.000000
vn -0.809020 0.000000 0.587781
vn -0.809020 0.000000 0.587781
vn -0.809020 0.000000 0.587781
vn -0.809020 0.000000 0.587781
vn -0.309018 0.000000 0.951056
vn -0.309018 0.000000 0.951056
vn -0.309018 0.000000 0.951056
vn -0.309018 0.000000 0.951056
vn 0.309013 0.000000 0.951058
vn 0.309013 0.000000 0.951058
vn 0.309013 0.000000 0.951058
vn 0.309013 0.000000 0.951058
vn 0.809020 0.000000 0.587781
vn 0.809020 0.000000 0.587781
vn 0.809020 0.000000 0.587781
vn 0.809020 0.000000 0.587781
vn 1.000000 0.000000 0.000000
vn 1.000000 0.000000 0.000000
vn 1.000000 0.000000 0.000000
vn 1.000000 0.000000 0.000000
s off
g Jupajub:pSphere2
usemtl lambert2SG
f 11/1/1 1/2/2 2/3/3 12/4/4
f 12/4/5 2/3/6 3/5/7 13/6/8
f 13/6/9 3/5/10 4/7/11 14/8/12
f 14/8/13 4/7/14 5/9/15 15/10/16
f 15/10/17 5/9/18 6/11/19 16/12/20
f 16/12/21 6/11/22 7/13/23 17/14/24
f 17/14/25 7/13/26 8/15/27 18/16/28
f 18/16/29 8/15/30 9/17/31 19/18/32
f 19/18/33 9/17/34 10/19/35 20/20/36
f 20/20/37 10/19/38 1/2/39 11/1/40
f 21/21/41 11/1/42 12/4/43 22/22/44
f 22/22/45 12/4/46 13/6/47 23/23/48
f 23/23/49 13/6/50 14/8/51 24/24/52
f 24/24/53 14/8/54 15/10/55 25/25/56
f 25/26/57 15/27/58 16/28/59 26/29/60
f 26/30/61 16/12/62 17/14/63 27/31/64
f 27/31/65 17/14/66 18/16/67 28/32/68
f 28/32/69 18/16/70 19/18/71 29/33/72
f 29/33/73 19/18/74 20/20/75 30/34/76
f 30/35/77 20/36/78 11/37/79 21/38/80
f 31/39/81 21/38/82 22/40/83 32/41/84
f 32/42/85 22/22/86 23/23/87 33/43/88
f 33/43/89 23/23/90 24/24/91 34/44/92
f 34/45/93 24/46/94 25/26/95 35/47/96
f 35/47/97 25/26/98 26/29/99 36/48/100
f 36/48/101 26/29/102 27/49/103 37/50/104
f 37/51/105 27/31/106 28/32/107 38/52/108
f 38/52/109 28/32/110 29/33/111 39/53/112
f 39/54/113 29/55/114 30/35/115 40/56/116
f 40/56/117 30/35/118 21/38/119 31/39/120
f 41/57/121 31/39/122 32/41/123 42/58/124
f 42/59/125 32/60/126 33/61/127 43/62/128
f 43/62/129 33/61/130 34/63/131 44/64/132
f 44/65/133 34/45/134 35/47/135 45/66/136
f 45/66/137 35/47/138 36/48/139 46/67/140
f 46/67/141 36/48/142 37/50/143 47/68/144
f 47/69/145 37/70/146 38/71/147 48/72/148
f 48/72/149 38/71/150 39/73/151 49/74/152
f 49/75/153 39/54/154 40/56/155 50/76/156
f 50/76/157 40/56/158 31/39/159 41/57/160
f 92/77/161 41/57/162 42/58/163 101/78/164
f 42/59/165 43/62/166 100/79/167 101/80/168
f 43/62/169 44/64/170 99/81/171 100/79/172
f 44/65/173 45/66/174 98/82/175 99/83/176
f 45/66/177 46/67/178 97/84/179 98/82/180
f 46/67/181 47/68/182 96/85/183 97/84/184
f 47/69/185 48/72/186 95/86/187 96/87/188
f 48/72/189 49/74/190 94/88/191 95/86/192
f 49/75/193 50/76/194 93/89/195 94/90/196
f 50/76/197 41/57/198 92/77/199 93/89/200
f 112/91/201 113/92/202 114/93/203 115/94/204
f 116/95/205 112/96/206 115/97/207 117/98/208
f 118/99/209 116/95/210 117/98/211 119/100/212
f 120/101/213 118/102/214 119/103/215 121/104/216
f 122/105/217 120/101/218 121/104/219 123/106/220
f 124/107/221 122/105/222 123/106/223 125/108/224
f 126/109/225 124/110/226 125/111/227 127/112/228
f 128/113/229 126/109/230 127/112/231 129/114/232
f 130/115/233 128/116/234 129/117/235 131/118/236
f 113/92/237 130/115/238 131/118/239 114/93/240
f 61/119/241 51/120/242 52/121/243 62/122/244
f 62/123/245 52/124/246 53/125/247 63/126/248
f 63/126/249 53/125/250 54/127/251 64/128/252
f 64/129/253 54/130/254 55/131/255 65/132/256
f 65/132/257 55/131/258 56/133/259 66/134/260
f 66/134/261 56/133/262 57/135/263 67/136/264
f 67/137/265 57/138/266 58/139/267 68/140/268
f 68/140/269 58/139/270 59/141/271 69/142/272
f 69/143/273 59/144/274 60/145/275 70/146/276
f 70/146/277 60/145/278 51/120/279 61/119/280
f 71/147/281 61/148/282 62/123/283 72/149/284
f 72/149/285 62/123/286 63/126/287 73/150/288
f 73/150/289 63/126/290 64/128/291 74/151/292
f 74/151/293 64/128/294 65/152/295 75/153/296
f 75/154/297 65/132/298 66/134/299 76/155/300
f 76/156/301 66/157/302 67/137/303 77/158/304
f 77/158/305 67/137/306 68/140/307 78/159/308
f 78/159/309 68/140/310 69/142/311 79/160/312
f 79/160/313 69/142/314 70/161/315 80/162/316
f 80/163/317 70/146/318 61/119/319 71/164/320
f 81/165/321 71/147/322 72/149/323 82/166/324
f 82/166/325 72/149/326 73/150/327 83/167/328
f 83/167/329 73/150/330 74/151/331 84/168/332
f 84/168/333 74/151/334 75/153/335 85/169/336
f 85/169/337 75/153/338 76/156/339 86/170/340
f 86/170/341 76/156/342 77/158/343 87/171/344
f 87/171/345 77/158/346 78/159/347 88/172/348
f 88/172/349 78/159/350 79/160/351 89/173/352
f 89/173/353 79/160/354 80/162/355 90/174/356
f 90/174/357 80/162/358 71/147/359 81/165/360
f 143/175/361 142/176/362 144/177/363
f 145/178/364 143/175/365 144/177/366
f 146/179/367 145/178/368 144/177/369
f 147/180/370 146/179/371 144/177/372
f 148/181/373 147/180/374 144/177/375
f 149/182/376 148/181/377 144/177/378
f 150/183/379 149/182/380 144/177/381
f 151/184/382 150/183/383 144/177/384
f 152/185/385 151/184/386 144/177/387
f 142/176/388 152/185/389 144/177/390
f 91/186/391 81/165/392 82/166/393
f 91/186/394 82/166/395 83/167/396
f 91/186/397 83/167/398 84/168/399
f 91/186/400 84/168/401 85/169/402
f 91/186/403 85/169/404 86/170/405
f 91/186/406 86/170/407 87/171/408
f 91/186/409 87/171/410 88/172/411
f 91/186/412 88/172/413 89/173/414
f 91/186/415 89/173/416 90/174/417
f 91/186/418 90/174/419 81/165/420
f 131/118/421 132/187/422 133/188/423 114/93/424
f 129/117/425 134/189/426 132/187/427 131/118/428
f 127/112/429 135/190/430 134/191/431 129/114/432
f 125/111/433 136/192/434 135/190/435 127/112/436
f 123/106/437 137/193/438 136/194/439 125/108/440
f 121/104/441 138/195/442 137/193/443 123/106/444
f 119/103/445 139/196/446 138/195/447 121/104/448
f 117/98/449 140/197/450 139/198/451 119/100/452
f 115/97/453 141/199/454 140/197/455 117/98/456
f 114/93/457 133/188/458 141/200/459 115/94/460
f 60/145/461 103/201/462 102/202/463 51/120/464
f 59/144/465 104/203/466 103/201/467 60/145/468
f 58/204/469 105/205/470 104/206/471 59/207/472
f 57/208/473 106/209/474 105/205/475 58/204/476
f 56/133/477 107/210/478 106/211/479 57/135/480
f 55/131/481 108/212/482 107/210/483 56/133/484
f 54/130/485 109/213/486 108/212/487 55/131/488
f 53/214/489 110/215/490 109/216/491 54/217/492
f 52/218/493 111/219/494 110/215/495 53/214/496
f 51/120/497 102/202/498 111/220/499 52/121/500
f 111/221/501 102/222/502 113/223/503 112/224/504
f 110/225/505 111/221/506 112/224/507 116/226/508
f 109/227/509 110/225/510 116/226/511 118/228/512
f 108/229/513 109/227/514 118/228/515 120/230/516
f 107/231/517 108/229/518 120/230/519 122/232/520
f 106/233/521 107/231/522 122/232/523 124/234/524
f 105/235/525 106/233/526 124/234/527 126/236/528
f 104/237/529 105/235/530 126/236/531 128/238/532
f 103/239/533 104/237/534 128/238/535 130/240/536
f 102/222/537 103/239/538 130/240/539 113/223/540
f 93/241/541 92/242/542 133/243/543 132/244/544
f 94/245/545 93/241/546 132/244/547 134/246/548
f 95/247/549 94/245/550 134/246/551 135/248/552
f 96/249/553 95/247/554 135/248/555 136/250/556
f 97/251/557 96/249/558 136/250/559 137/252/560
f 98/253/561 97/251/562 137/252/563 138/254/564
f 99/255/565 98/253/566 138/254/567 139/256/568
f 100/257/569 99/255/570 139/256/571 140/258/572
f 101/259/573 100/257/574 140/258/575 141/260/576
f 92/242/577 101/259/578 141/260/579 133/243/580
f 2/261/581 1/262/582 142/263/583 143/264/584
f 3/265/585 2/266/586 143/267/587 145/268/588
f 4/269/589 3/265/590 145/268/591 146/270/592
f 5/271/593 4/272/594 146/273/595 147/274/596
f 6/275/597 5/271/598 147/274/599 148/276/600
f 7/277/601 6/275/602 148/276/603 149/278/604
f 8/279/605 7/280/606 149/281/607 150/282/608
f 9/283/609 8/279/610 150/282/611 151/284/612
f 10/285/613 9/286/614 151/287/615 152/288/616
f 1/262/617 10/285/618 152/288/619 142/263/620
