# This file uses centimeters as units for non-parametric coordinates.

mtllib window.mtl
g default
v -46.354306 84.308412 83.202881
v 23.828601 84.308412 83.202881
v -46.354306 159.471287 83.202881
v 23.828601 159.471287 83.202881
v -46.354306 159.471287 80.585831
v 23.828601 159.471287 80.585831
v -46.354306 84.308412 80.585831
v 23.828601 84.308412 80.585831
v 2.773732 84.308412 83.202881
v 2.773732 159.471287 83.202881
v 2.773732 159.471287 80.585831
v 2.773732 84.308412 80.585831
v -26.703094 84.308412 83.202881
v -26.703094 159.471287 83.202881
v -26.703094 159.471287 80.585831
v -26.703094 84.308412 80.585831
v -46.354306 112.783545 83.202881
v -46.354306 112.783545 80.585831
v -22.324584 105.248431 80.585297
v -1.569355 105.248431 80.585297
v 23.828601 112.783545 80.585831
v 23.828601 112.783545 83.202881
v -1.569355 105.248431 83.202881
v -22.324584 105.248431 83.202881
v -46.354306 141.560673 80.585831
v -46.354306 141.560673 83.202881
v -26.703094 145.347172 83.132256
v 4.030633 141.874516 83.132256
v 23.828601 141.560673 83.202881
v 23.828601 141.560673 80.585831
v 4.030633 141.874516 80.585831
v -26.703094 145.347172 80.585831
v 4.879218 84.308466 83.202881
v 0.970439 106.001940 83.202881
v 6.010429 141.843159 83.139328
v 4.879218 159.471287 83.202881
v 4.879218 159.471287 80.585831
v 6.010429 141.843159 80.585831
v 0.970438 106.001940 80.585342
v 4.879218 84.308466 80.585831
v -28.668214 84.308412 83.202881
v -24.727554 106.001940 83.202881
v -28.668214 144.968526 83.139328
v -28.668214 159.471287 83.202881
v -28.668214 159.471287 80.585831
v -28.668214 144.968526 80.585831
v -24.727557 106.001940 80.585342
v -28.668214 84.308412 80.585831
v -46.354306 110.463252 83.202881
v -46.354306 110.463252 80.585831
v -25.048660 104.234209 80.585388
v -22.681365 103.542138 80.585342
v -1.215462 103.542138 80.585342
v 1.288950 104.234209 80.585388
v 23.828601 110.463252 80.585831
v 23.828601 110.463252 83.202881
v 1.288950 104.234209 83.202881
v -1.215460 103.542138 83.202881
v -22.681365 103.542138 83.202881
v -25.048660 104.234209 83.202881
v -46.354306 143.201638 80.585831
v -46.354306 143.201638 83.202881
v -28.668214 146.297272 83.145149
v -26.703094 146.641255 83.138725
v 3.915474 143.486775 83.138725
v 5.906787 143.458230 83.145149
v 23.828601 143.201638 83.202881
v 23.828601 143.201638 80.585831
v 5.906787 143.458230 80.585831
v 3.915474 143.486775 80.585831
v -26.703094 146.641255 80.585831
v -28.668214 146.297272 80.585831
v 0.970439 106.001940 84.034981
v 6.010429 141.843159 83.931015
v 4.030633 141.874516 83.919441
v -1.569355 105.248431 84.034981
v -24.727554 106.001940 84.034981
v -28.668214 144.968526 83.931015
v -22.324584 105.248431 84.034981
v -26.703094 145.347172 83.919441
v 1.288950 104.234209 84.034981
v -1.215460 103.542138 84.034981
v -22.681365 103.542138 84.034981
v -25.048660 104.234209 84.034981
v -28.668214 146.297272 83.940536
v -26.703094 146.641255 83.930023
v 3.915474 143.486775 83.930023
v 5.906787 143.458230 83.940536
v 6.010429 141.843159 79.754105
v 0.970438 106.001940 79.753288
v -1.569355 105.248431 79.753204
v 4.030633 141.874516 79.754105
v -28.668214 144.968526 79.754105
v -24.727557 106.001940 79.753288
v -26.703094 145.347172 79.754105
v -22.324584 105.248431 79.753204
v -25.048660 104.234209 79.753365
v -22.681365 103.542138 79.753288
v -1.215462 103.542138 79.753288
v 1.288950 104.234209 79.753365
v 5.906787 143.458230 79.754105
v 3.915474 143.486775 79.754105
v -26.703094 146.641255 79.754105
v -28.668214 146.297272 79.754105
v -9.707682 143.426865 80.585831
v -9.733710 143.429795 83.132256
v -11.587917 143.639283 80.585831
v -11.598392 143.640473 83.132256
v -11.587917 115.924199 80.585831
v -11.598392 115.925400 83.132256
v -9.707682 115.711766 80.585831
v -9.733710 115.714703 83.132256
v -11.587917 105.231245 80.585831
v -11.598392 105.232446 83.132256
v -9.707682 105.018810 80.585831
v -9.733710 105.021749 83.132256
v -11.587917 128.589829 80.113533
v -11.598392 128.591042 83.521835
v -9.733710 128.380326 83.521835
v -9.707682 128.377415 80.113533
v -11.587917 126.353749 80.113533
v -11.598392 126.354939 83.521835
v -9.733710 126.144250 83.521835
v -9.707682 126.141312 80.113533
v -24.927737 130.106053 80.585831
v -24.938213 130.107262 83.132256
v -24.927737 127.869969 80.585831
v -24.938213 127.871167 83.132256
v 2.066359 123.956265 83.132256
v 2.092388 123.953351 80.585831
v 2.066359 121.720185 83.132256
v 2.092388 121.717248 80.585831
vt 0.156578 0.361944
vt 0.156578 0.239906
vt 0.199044 0.239906
vt 0.199044 0.361944
vt 0.202811 0.239906
vt 0.202811 0.361944
vt 0.249535 0.239906
vt 0.249535 0.361944
vt 0.252199 0.239906
vt 0.252199 0.361944
vt 0.278615 0.239906
vt 0.278615 0.361944
vt 0.282018 0.321215
vt 0.282018 0.199177
vt 0.324484 0.199177
vt 0.324484 0.321215
vt 0.328252 0.199177
vt 0.328252 0.321215
vt 0.374976 0.199177
vt 0.374976 0.321215
vt 0.377640 0.199177
vt 0.377640 0.321215
vt 0.404056 0.199177
vt 0.404056 0.321215
vt 0.131091 0.065549
vt 0.131091 0.184294
vt 0.071623 0.184319
vt 0.071623 0.062256
vt 0.131091 0.223079
vt 0.071623 0.223121
vt 0.071623 0.023454
vt 0.131091 0.028842
vt 0.199928 0.181025
vt 0.134823 0.184319
vt 0.134823 0.062256
vt 0.199928 0.062281
vt 0.199928 0.217733
vt 0.134823 0.223121
vt 0.134823 0.023454
vt 0.199928 0.023496
vt 0.367511 0.326046
vt 0.370475 0.384239
vt 0.333557 0.384239
vt 0.328710 0.326046
vt 0.370203 0.386862
vt 0.333113 0.386862
vt 0.367511 0.323176
vt 0.328710 0.323176
vt 0.415326 0.337252
vt 0.418289 0.273984
vt 0.457091 0.273984
vt 0.452243 0.337252
vt 0.418289 0.271114
vt 0.457091 0.271114
vt 0.415597 0.339410
vt 0.452688 0.339410
vt 0.286872 0.384239
vt 0.286895 0.326046
vt 0.325695 0.326046
vt 0.325658 0.384239
vt 0.286893 0.323176
vt 0.325691 0.323176
vt 0.286872 0.386862
vt 0.325658 0.386862
vt 0.412289 0.326046
vt 0.412311 0.389314
vt 0.373526 0.389314
vt 0.373489 0.326046
vt 0.412311 0.391471
vt 0.373526 0.391471
vt 0.412291 0.323176
vt 0.373492 0.323176
vt 0.284700 0.041621
vt 0.284698 0.160365
vt 0.260263 0.182389
vt 0.260265 0.023454
vt 0.312469 0.045478
vt 0.312473 0.164222
vt 0.288039 0.182389
vt 0.288033 0.023454
vt 0.294308 0.761596
vt 0.303413 0.879990
vt 0.286102 0.881322
vt 0.276997 0.762927
vt 0.309798 0.742184
vt 0.321986 0.900651
vt 0.331837 0.762577
vt 0.340949 0.880971
vt 0.323638 0.882303
vt 0.314526 0.763909
vt 0.347032 0.739320
vt 0.359226 0.897786
vt 0.451183 0.053098
vt 0.481937 0.053098
vt 0.481937 0.175136
vt 0.451183 0.175136
vt 0.485354 0.053098
vt 0.485354 0.175136
vt 0.536609 0.053098
vt 0.536609 0.175136
vt 0.540271 0.053098
vt 0.540271 0.175136
vt 0.573221 0.053098
vt 0.573221 0.175136
vt 0.031040 0.239906
vt 0.061794 0.239906
vt 0.061794 0.361944
vt 0.031040 0.361944
vt 0.065211 0.239906
vt 0.065211 0.361944
vt 0.116466 0.239906
vt 0.116466 0.361944
vt 0.120128 0.239906
vt 0.120128 0.361944
vt 0.153078 0.239906
vt 0.153078 0.361944
vt 0.203767 0.062239
vt 0.230050 0.062239
vt 0.230032 0.180983
vt 0.203767 0.180983
vt 0.257209 0.062239
vt 0.233320 0.062239
vt 0.203767 0.023454
vt 0.257209 0.023454
vt 0.233274 0.180983
vt 0.257209 0.180983
vt 0.257209 0.217691
vt 0.203767 0.217691
vt 0.032267 0.062256
vt 0.068357 0.062256
vt 0.068357 0.184319
vt 0.032267 0.184319
vt 0.032267 0.023454
vt 0.068357 0.023454
vt 0.068357 0.223121
vt 0.032267 0.223121
vt 0.150311 0.368260
vt 0.150311 0.363905
vt 0.189113 0.363905
vt 0.189113 0.368260
vt 0.150311 0.405586
vt 0.189113 0.405586
vt 0.150311 0.409702
vt 0.189113 0.409702
vt 0.271317 0.420609
vt 0.271018 0.424026
vt 0.233927 0.424026
vt 0.234418 0.420609
vt 0.271317 0.367368
vt 0.234418 0.367368
vt 0.271018 0.363904
vt 0.233927 0.363904
vt 0.147295 0.405585
vt 0.147297 0.409702
vt 0.108498 0.409702
vt 0.108495 0.405585
vt 0.147295 0.368259
vt 0.108495 0.368259
vt 0.147297 0.363904
vt 0.108498 0.363904
vt 0.192128 0.367368
vt 0.192128 0.363904
vt 0.230913 0.363904
vt 0.230913 0.367368
vt 0.192128 0.420609
vt 0.230913 0.420609
vt 0.192128 0.424026
vt 0.230913 0.424026
vt 0.407460 0.317920
vt 0.407478 0.199176
vt 0.410747 0.199176
vt 0.410702 0.317920
vt 0.352988 0.023454
vt 0.353006 0.182389
vt 0.329810 0.160366
vt 0.329792 0.041621
vt 0.379818 0.023454
vt 0.379800 0.182389
vt 0.356604 0.164222
vt 0.356622 0.045478
vt 0.383461 0.182389
vt 0.383415 0.023454
vt 0.403934 0.041621
vt 0.403979 0.160366
vt 0.407355 0.182389
vt 0.407400 0.023454
vt 0.427918 0.045478
vt 0.427874 0.164222
vt 0.510407 0.511646
vt 0.631334 0.511646
vt 0.656083 0.638861
vt 0.510407 0.678630
vt 0.672270 0.634443
vt 0.644771 0.511646
vt 0.658279 0.650146
vt 0.510407 0.693443
vt 0.819042 0.634443
vt 0.846317 0.511646
vt 0.631334 0.898927
vt 0.510407 0.877170
vt 0.860715 0.511646
vt 0.836165 0.638861
vt 0.631334 0.907410
vt 0.510407 0.887647
vt 0.990280 0.678630
vt 0.990280 0.511646
vt 0.631334 0.991519
vt 0.510407 0.991519
vt 0.990280 0.693443
vt 0.833987 0.650146
vt 0.644771 0.909605
vt 0.644771 0.991519
vt 0.990280 0.877170
vt 0.868448 0.878972
vt 0.854125 0.889465
vt 0.846317 0.991519
vt 0.990280 0.887647
vt 0.867740 0.889285
vt 0.860715 0.991519
vt 0.990280 0.991519
vt 0.492653 0.678531
vt 0.346979 0.638759
vt 0.371728 0.511547
vt 0.492653 0.511547
vt 0.492653 0.693339
vt 0.344786 0.650041
vt 0.330794 0.634338
vt 0.358295 0.511547
vt 0.492653 0.877066
vt 0.371728 0.898823
vt 0.184019 0.634338
vt 0.156750 0.511547
vt 0.492653 0.887541
vt 0.371728 0.907310
vt 0.166898 0.638759
vt 0.142346 0.511547
vt 0.492653 0.991413
vt 0.371728 0.991413
vt 0.012779 0.678531
vt 0.012779 0.511547
vt 0.358295 0.909503
vt 0.358295 0.991413
vt 0.169073 0.650041
vt 0.012779 0.693339
vt 0.148942 0.889363
vt 0.156750 0.991413
vt 0.134615 0.878872
vt 0.012779 0.877066
vt 0.142346 0.991413
vt 0.135321 0.889183
vt 0.012779 0.887540
vt 0.012779 0.991413
vt 0.949516 0.230601
vt 0.984624 0.463735
vt 0.970834 0.463941
vt 0.931822 0.225700
vt 0.983904 0.474242
vt 0.970032 0.474427
vt 0.934288 0.214602
vt 0.951734 0.219103
vt 0.756736 0.494946
vt 0.756736 0.486528
vt 0.787238 0.225700
vt 0.784753 0.214602
vt 0.743047 0.492709
vt 0.743047 0.484066
vt 0.770498 0.230601
vt 0.768262 0.219103
vt 0.485202 0.462381
vt 0.520307 0.229269
vt 0.537998 0.224372
vt 0.498991 0.462583
vt 0.518088 0.217776
vt 0.535532 0.213273
vt 0.499792 0.473069
vt 0.485922 0.472885
vt 0.685050 0.213273
vt 0.682565 0.224372
vt 0.713063 0.485167
vt 0.713063 0.493585
vt 0.701539 0.217776
vt 0.699303 0.229269
vt 0.726751 0.482705
vt 0.726751 0.491352
vt 0.257298 0.816000
vt 0.270011 0.817343
vt 0.270011 0.884843
vt 0.257298 0.883508
vt 0.257298 0.750158
vt 0.270011 0.751501
vt 0.257298 0.736042
vt 0.270011 0.737377
vt 0.257298 0.641033
vt 0.270011 0.642368
vt 0.245579 0.708540
vt 0.232972 0.709871
vt 0.232972 0.642364
vt 0.245579 0.641035
vt 0.245579 0.774383
vt 0.232972 0.775714
vt 0.245579 0.788501
vt 0.232972 0.789831
vt 0.245579 0.883509
vt 0.232972 0.884840
vt 0.416293 0.453323
vt 0.084904 0.451589
vt 0.084957 0.441457
vt 0.416346 0.443191
vt 0.023475 0.444398
vt 0.023528 0.434266
vt 0.467081 0.436586
vt 0.467028 0.446718
vt 0.405457 0.466725
vt 0.074067 0.465009
vt 0.074120 0.454876
vt 0.405510 0.456592
vt 0.023264 0.484792
vt 0.023317 0.474659
vt 0.466870 0.476959
vt 0.466817 0.487092
vn 0.000000 0.000000 1.000000
vn -0.000000 0.000000 1.000000
vn -0.000000 0.000000 1.000000
vn 0.000000 0.000000 1.000000
vn 0.000000 1.000000 0.000000
vn 0.000000 1.000000 0.000000
vn 0.000000 1.000000 0.000000
vn 0.000000 1.000000 0.000000
vn -0.000014 -0.000009 -1.000000
vn -0.000014 -0.000010 -1.000000
vn -0.000013 -0.000009 -1.000000
vn -0.000013 -0.000009 -1.000000
vn 0.000000 -1.000000 0.000000
vn 0.000000 -1.000000 0.000000
vn 0.000000 -1.000000 0.000000
vn 0.000000 -1.000000 0.000000
vn 1.000000 0.000000 0.000000
vn 1.000000 0.000000 0.000000
vn 1.000000 0.000000 0.000000
vn 1.000000 0.000000 0.000000
vn -1.000000 0.000000 0.000000
vn -1.000000 0.000000 0.000000
vn -1.000000 0.000000 0.000000
vn -1.000000 0.000000 0.000000
vn 0.000000 0.000000 1.000000
vn -0.000000 0.000000 1.000000
vn 0.000000 0.000000 1.000000
vn 0.000000 0.000000 1.000000
vn 0.000000 1.000000 0.000000
vn 0.000000 1.000000 0.000000
vn 0.000000 1.000000 0.000000
vn 0.000000 1.000000 0.000000
vn 0.000001 -0.000025 -1.000000
vn 0.000001 -0.000025 -1.000000
vn 0.000013 -0.000010 -1.000000
vn 0.000012 -0.000010 -1.000000
vn 0.000002 -1.000000 0.000000
vn 0.000002 -1.000000 0.000000
vn 0.000000 -1.000000 0.000000
vn 0.000000 -1.000000 0.000000
vn -0.000000 0.000000 1.000000
vn -0.000000 0.000000 1.000000
vn 0.000000 1.000000 0.000000
vn 0.000000 1.000000 0.000000
vn -0.000001 -0.000025 -1.000000
vn -0.000001 -0.000025 -1.000000
vn 0.000000 -1.000000 0.000000
vn 0.000000 -1.000000 0.000000
vn -1.000000 0.000000 0.000000
vn -1.000000 0.000000 0.000000
vn -1.000000 0.000000 0.000000
vn -1.000000 0.000000 0.000000
vn -0.000000 0.000000 -1.000000
vn -0.000000 0.000000 -1.000000
vn -0.000000 0.000000 -1.000000
vn -0.000000 0.000000 -1.000000
vn 0.000000 0.000000 -1.000000
vn 0.000000 0.000000 -1.000000
vn 0.000000 0.000000 -1.000000
vn 0.000000 0.000000 -1.000000
vn 0.000000 0.000000 -1.000000
vn 0.000000 0.000000 -1.000000
vn 1.000000 0.000000 0.000000
vn 1.000000 0.000000 0.000000
vn 1.000000 0.000000 0.000000
vn 1.000000 0.000000 0.000000
vn -0.000322 -0.004427 0.999990
vn -0.000346 -0.004417 0.999990
vn -0.001717 -0.002017 0.999997
vn -0.001580 -0.002060 0.999997
vn -0.000107 -0.004475 0.999990
vn -0.000102 -0.004475 0.999990
vn 0.002026 -0.001961 0.999996
vn 0.001959 -0.002146 0.999996
vn 0.001826 -0.002204 0.999996
vn 0.001804 -0.001961 0.999997
vn -1.000000 0.000000 0.000000
vn -1.000000 0.000000 0.000000
vn -1.000000 0.000000 0.000000
vn -1.000000 0.000000 0.000000
vn 0.001631 0.000992 0.999998
vn 0.001553 0.000944 0.999998
vn 0.001800 0.000902 0.999998
vn 0.001769 0.000947 0.999998
vn -0.002992 0.003345 0.999990
vn -0.003220 0.003087 0.999990
vn -0.002480 -0.000047 0.999997
vn -0.001740 0.001946 0.999997
vn 1.000000 0.000000 0.000000
vn 1.000000 0.000000 0.000000
vn 1.000000 0.000000 0.000000
vn 1.000000 0.000000 0.000000
vn 0.000013 0.000021 -1.000000
vn 0.000015 0.000019 -1.000000
vn 0.000009 -0.000009 -1.000000
vn 0.000009 0.000014 -1.000000
vn -0.000011 0.000006 -1.000000
vn -0.000011 0.000006 -1.000000
vn -0.000013 0.000005 -1.000000
vn -0.000012 0.000006 -1.000000
vn -0.112277 -0.993677 0.000002
vn -0.112277 -0.993677 0.000002
vn -0.112277 -0.993677 0.000002
vn -0.112277 -0.993677 0.000002
vn 0.000000 1.000000 0.000000
vn 0.000000 1.000000 0.000000
vn 0.000000 1.000000 0.000000
vn 0.000000 1.000000 0.000000
vn -0.988512 0.151140 0.000000
vn -0.988512 0.151140 0.000000
vn -0.988512 0.151140 0.000000
vn -0.988513 0.151140 0.000000
vn 0.994091 0.108548 0.000000
vn 0.994091 0.108548 0.000000
vn 0.994091 0.108548 0.000000
vn 0.994091 0.108548 0.000000
vn -0.000000 0.000000 1.000000
vn 0.000000 0.000000 1.000000
vn -0.001812 0.000992 0.999998
vn -0.001812 0.000993 0.999998
vn -0.001573 0.001011 0.999998
vn -0.001658 0.001066 0.999998
vn -0.001746 -0.001844 0.999997
vn -0.001579 -0.001839 0.999997
vn 0.000000 1.000000 0.000000
vn 0.000000 1.000000 0.000000
vn 0.000000 0.000000 -1.000000
vn 0.000000 0.000000 -1.000000
vn 0.000012 0.000006 -1.000000
vn 0.000012 0.000005 -1.000000
vn 0.000011 0.000006 -1.000000
vn 0.000011 0.000006 -1.000000
vn 0.000013 -0.000009 -1.000000
vn 0.000012 -0.000009 -1.000000
vn -0.000003 -1.000000 0.000000
vn -0.000003 -1.000000 0.000000
vn 0.003013 0.002820 0.999991
vn 0.002807 0.002971 0.999992
vn 0.001694 0.001793 0.999997
vn 0.001664 -0.000912 0.999998
vn -0.000019 0.000018 -1.000000
vn -0.000018 0.000019 -1.000000
vn -0.000011 0.000012 -1.000000
vn -0.000012 -0.000009 -1.000000
vn -0.000005 -0.000048 -1.000000
vn -0.000042 -0.000037 -1.000000
vn 0.000005 -0.000048 -1.000000
vn 0.000040 -0.000038 -1.000000
vn 0.000000 0.000000 1.000000
vn 0.000000 0.000000 1.000000
vn 0.000000 0.000000 1.000000
vn 0.000002 0.000000 1.000000
vn -0.000381 -0.007331 0.999973
vn 0.007028 -0.007664 0.999946
vn -0.001072 -0.007273 0.999973
vn -0.005663 -0.006613 0.999962
vn 0.000000 0.000000 -1.000000
vn 0.000000 0.000000 -1.000000
vn 0.000000 0.000000 -1.000000
vn 0.000001 0.000000 -1.000000
vn 0.990257 -0.139249 0.000000
vn 0.990257 -0.139249 0.000000
vn 0.990257 -0.139249 0.000000
vn 0.990257 -0.139249 0.000000
vn -0.988512 0.151141 0.000000
vn -0.988512 0.151141 0.000000
vn -0.988512 0.151141 0.000000
vn -0.988512 0.151141 0.000000
vn -0.994925 -0.100616 0.000000
vn -0.994925 -0.100616 0.000000
vn -0.994925 -0.100616 0.000000
vn -0.994925 -0.100616 0.000000
vn 0.994091 0.108548 0.000000
vn 0.994091 0.108548 0.000000
vn 0.994091 0.108548 0.000000
vn 0.994091 0.108548 0.000000
vn 0.266357 -0.963874 0.000000
vn 0.266357 -0.963874 0.000000
vn 0.266357 -0.963874 0.000000
vn 0.266357 -0.963874 0.000000
vn 0.984152 0.177325 0.000000
vn 0.984152 0.177325 0.000000
vn 0.984152 0.177325 0.000000
vn 0.984152 0.177325 0.000000
vn 0.000000 1.000000 0.000000
vn 0.000000 1.000000 0.000000
vn 0.000000 1.000000 0.000000
vn 0.000000 1.000000 0.000000
vn 0.000000 -1.000000 0.000000
vn 0.000000 -1.000000 0.000000
vn 0.000000 -1.000000 0.000000
vn 0.000000 -1.000000 0.000000
vn -0.983899 0.178723 0.000000
vn -0.983899 0.178723 0.000000
vn -0.983899 0.178723 0.000000
vn -0.983899 0.178723 0.000000
vn -0.280601 -0.959825 0.000000
vn -0.280601 -0.959825 0.000000
vn -0.280601 -0.959825 0.000000
vn -0.280601 -0.959825 0.000000
vn -0.172422 0.985023 0.000000
vn -0.172422 0.985023 0.000000
vn -0.172422 0.985023 0.000000
vn -0.172422 0.985023 0.000000
vn -1.000000 0.000000 0.000000
vn -1.000000 0.000000 0.000000
vn -1.000000 0.000000 0.000000
vn -1.000000 0.000000 0.000000
vn 0.102483 0.994735 0.000000
vn 0.102483 0.994735 0.000000
vn 0.102483 0.994735 0.000000
vn 0.102483 0.994735 0.000000
vn -0.112277 -0.993677 -0.000015
vn -0.112277 -0.993677 -0.000015
vn -0.112277 -0.993677 -0.000015
vn -0.112277 -0.993677 -0.000015
vn -0.112277 -0.993677 -0.000015
vn -0.112277 -0.993677 -0.000015
vn 0.014333 0.999897 0.000000
vn 0.014333 0.999897 0.000000
vn 0.014333 0.999897 0.000000
vn 0.014333 0.999897 0.000000
vn 0.997947 0.064040 0.000000
vn 0.997947 0.064040 0.000000
vn 0.997947 0.064040 0.000000
vn 0.997947 0.064040 0.000000
vn 0.990257 -0.139250 0.000000
vn 0.990257 -0.139250 0.000000
vn 0.990257 -0.139250 0.000000
vn 0.990257 -0.139250 0.000000
vn -0.988513 0.151139 0.000000
vn -0.988513 0.151139 0.000000
vn -0.988513 0.151139 0.000000
vn -0.988513 0.151139 0.000000
vn -0.994925 -0.100616 0.000000
vn -0.994925 -0.100616 0.000000
vn -0.994925 -0.100616 0.000000
vn -0.994925 -0.100616 0.000000
vn 0.994091 0.108548 0.000000
vn 0.994091 0.108548 0.000000
vn 0.994091 0.108548 0.000000
vn 0.994091 0.108548 0.000000
vn -0.280601 -0.959825 0.000000
vn -0.280601 -0.959825 0.000000
vn -0.280601 -0.959825 0.000000
vn -0.280601 -0.959825 0.000000
vn -0.983900 0.178721 0.000000
vn -0.983900 0.178720 0.000000
vn -0.983900 0.178721 0.000000
vn -0.983900 0.178720 0.000000
vn 0.000000 -1.000000 0.000000
vn 0.000000 -1.000000 0.000000
vn 0.000000 -1.000000 0.000000
vn 0.000000 -1.000000 0.000000
vn 0.000000 1.000000 0.000000
vn 0.000000 1.000000 0.000000
vn 0.000000 1.000000 0.000000
vn 0.000000 1.000000 0.000000
vn 0.266357 -0.963874 0.000000
vn 0.266357 -0.963874 0.000000
vn 0.266357 -0.963874 0.000000
vn 0.266357 -0.963874 0.000000
vn 0.984152 0.177325 0.000000
vn 0.984152 0.177325 0.000000
vn 0.984152 0.177325 0.000000
vn 0.984152 0.177325 0.000000
vn 0.014334 0.999897 0.000000
vn 0.014334 0.999897 0.000000
vn 0.014334 0.999897 0.000000
vn 0.014334 0.999897 0.000000
vn 0.997947 0.064040 0.000000
vn 0.997947 0.064040 0.000000
vn 0.997947 0.064040 0.000000
vn 0.997947 0.064040 0.000000
vn -0.112278 -0.993677 0.000014
vn -0.112278 -0.993677 0.000014
vn -0.112278 -0.993677 0.000014
vn -0.112278 -0.993677 0.000014
vn -0.112278 -0.993677 0.000014
vn -0.112278 -0.993677 0.000014
vn 0.102482 0.994735 0.000000
vn 0.102482 0.994735 0.000000
vn 0.102482 0.994735 0.000000
vn 0.102482 0.994735 0.000000
vn -1.000000 0.000000 0.000000
vn -1.000000 0.000000 0.000000
vn -1.000000 0.000000 0.000000
vn -1.000000 0.000000 0.000000
vn -0.172422 0.985023 0.000000
vn -0.172422 0.985023 0.000000
vn -0.172422 0.985023 0.000000
vn -0.172422 0.985023 0.000000
vn -0.112279 -0.993677 -0.000002
vn -0.112279 -0.993677 -0.000002
vn -0.112279 -0.993677 -0.000002
vn -0.112279 -0.993677 -0.000002
vn -0.112274 -0.993677 0.000003
vn -0.112274 -0.993677 0.000003
vn -0.112274 -0.993677 0.000003
vn -0.112274 -0.993677 0.000003
vn -0.999994 0.000010 -0.003518
vn -0.999994 0.000010 -0.003518
vn -0.999994 0.000010 -0.003518
vn -0.999994 0.000010 -0.003518
vn 0.003544 0.031367 -0.999502
vn 0.003544 0.031367 -0.999502
vn 0.003025 0.026779 -0.999637
vn 0.003140 0.027793 -0.999609
vn 0.999962 -0.000024 0.008742
vn 0.999962 -0.000024 0.008742
vn 0.999962 -0.000024 0.008742
vn 0.999962 -0.000024 0.008742
vn 0.002922 0.025878 0.999661
vn 0.002922 0.025878 0.999661
vn 0.002589 0.022928 0.999734
vn 0.002495 0.022091 0.999753
vn -0.999992 0.000000 -0.004114
vn -0.999992 0.000000 -0.004114
vn -0.999992 0.000000 -0.004114
vn -0.999992 0.000000 -0.004114
vn 0.000000 0.000000 -1.000000
vn 0.000000 0.000000 -1.000000
vn 0.000000 0.000000 -1.000000
vn 0.000000 0.000000 -1.000000
vn 0.999948 0.000000 0.010221
vn 0.999948 0.000000 0.010221
vn 0.999948 0.000000 0.010221
vn 0.999948 0.000000 0.010221
vn 0.000000 0.000000 1.000000
vn 0.000000 0.000000 1.000000
vn 0.000000 0.000000 1.000000
vn 0.000000 0.000000 1.000000
vn -0.999992 0.000000 -0.004114
vn -0.999992 0.000000 -0.004114
vn -0.999992 0.000000 -0.004114
vn -0.999992 0.000000 -0.004114
vn -0.003380 -0.029930 0.999546
vn -0.003555 -0.031486 0.999498
vn 0.999948 0.000000 0.010221
vn 0.999948 0.000000 0.010221
vn 0.999948 0.000000 0.010221
vn 0.999948 0.000000 0.010221
vn -0.004315 -0.038162 -0.999262
vn -0.004102 -0.036277 -0.999333
vn -0.999994 -0.000014 -0.003518
vn -0.999994 -0.000014 -0.003518
vn -0.999994 -0.000014 -0.003518
vn -0.999994 -0.000014 -0.003518
vn -0.004215 -0.037327 0.999294
vn -0.004215 -0.037327 0.999294
vn 0.999962 0.000035 0.008742
vn 0.999962 0.000035 0.008742
vn 0.999962 0.000035 0.008742
vn 0.999962 0.000035 0.008742
vn -0.005115 -0.045238 -0.998963
vn -0.005115 -0.045238 -0.998963
vn 0.112934 0.993603 -0.000008
vn 0.112934 0.993603 -0.000008
vn 0.112934 0.993603 -0.000008
vn 0.112934 0.993603 -0.000008
vn -0.035383 0.000000 -0.999374
vn -0.035383 0.000000 -0.999374
vn -0.035383 0.000000 -0.999374
vn -0.035383 0.000000 -0.999374
vn -0.112934 -0.993603 0.000002
vn -0.112934 -0.993603 0.000002
vn -0.112934 -0.993603 0.000002
vn -0.112934 -0.993602 0.000002
vn -0.029191 0.000000 0.999574
vn -0.029191 0.000000 0.999574
vn -0.029191 0.000000 0.999574
vn -0.029191 0.000000 0.999574
vn 0.351049 0.936355 0.002154
vn 0.351049 0.936355 0.002154
vn 0.351049 0.936355 0.002154
vn 0.351049 0.936355 0.002154
vn 0.032997 0.000000 0.999456
vn 0.032997 0.000000 0.999455
vn 0.032997 0.000000 0.999455
vn 0.032997 0.000000 0.999455
vn -0.351049 -0.936355 -0.002146
vn -0.351049 -0.936355 -0.002146
vn -0.351049 -0.936355 -0.002146
vn -0.351049 -0.936355 -0.002146
vn 0.039994 0.000000 -0.999200
vn 0.039994 0.000000 -0.999200
vn 0.039994 0.000000 -0.999200
vn 0.039994 0.000000 -0.999200
s 1
g pasted__pCube91 group36
usemtl initialShadingGroup
f 1/189/1 41/190/2 60/191/3 49/192/4
s 2
f 3/93/5 44/94/6 45/95/7 5/96/8
s 3
f 50/221/9 51/222/10 48/223/11 7/224/12
s 4
f 7/105/13 48/106/14 41/107/15 1/108/16
s 5
f 2/1/17 8/2/18 55/3/19 56/4/20
s 6
f 7/13/21 1/14/22 49/15/23 50/16/24
s 1
f 33/201/25 57/202/26 58/197/27 9/198/28
s 2
f 11/100/29 10/99/30 36/101/31 37/102/32
s 3
f 12/232/33 53/231/34 54/235/35 40/236/36
s 4
f 9/112/37 12/111/38 40/113/39 33/114/40
s 1
f 58/197/27 59/193/41 13/194/42 9/198/28
s 2
f 15/98/43 14/97/44 10/99/30 11/100/29
s 3
f 16/228/45 52/227/46 53/231/34 12/232/33
s 4
f 13/110/47 16/109/48 12/111/38 9/112/37
s 6
f 61/22/49 62/21/50 3/23/51 5/24/52
s 3
f 5/237/53 45/238/54 72/234/55 61/233/56
f 70/245/57 71/241/58 15/242/59 11/246/60
f 37/249/61 69/250/62 70/245/57 11/246/60
s 5
f 67/10/63 68/9/64 6/11/65 4/12/66
s 1
f 10/216/67 65/215/68 66/218/69 36/219/70
f 14/212/71 64/211/72 65/215/68 10/216/67
f 62/204/73 63/203/74 44/207/75 3/208/76
s 6
f 18/18/77 17/17/78 26/19/79 25/20/80
s 1
f 17/196/81 42/195/82 43/199/83 26/200/84
s 16
f 73/253/85 74/254/86 75/255/87 76/256/88
s 5
f 22/6/89 21/5/90 30/7/91 29/8/92
s 17
f 89/269/93 90/270/94 91/271/95 92/272/96
s 3
f 25/229/97 46/230/98 47/226/99 18/225/100
s off
f 32/117/101 107/118/102 108/119/103 27/120/104
f 24/129/105 23/130/106 20/131/107 19/132/108
f 28/25/109 31/26/110 20/27/111 23/28/112
f 27/33/113 24/34/114 19/35/115 32/36/116
s 1
f 56/205/117 57/202/26 33/201/25 2/206/118
f 29/213/119 35/214/120 34/210/121 22/209/122
f 36/219/70 66/218/69 67/217/123 4/220/124
s 2
f 37/102/32 36/101/31 4/103/125 6/104/126
s 3
f 68/251/127 69/250/62 37/249/61 6/252/128
f 21/244/129 39/243/130 38/247/131 30/248/132
f 40/236/36 54/235/35 55/239/133 8/240/134
s 4
f 33/114/40 40/113/39 8/115/135 2/116/136
s 1
f 59/193/41 60/191/3 41/190/2 13/194/42
s 16
f 78/266/137 77/267/138 79/263/139 80/262/140
s 1
f 44/207/75 63/203/74 64/211/72 14/212/71
s 2
f 45/95/7 44/94/6 14/97/44 15/98/43
s 3
f 71/241/58 72/234/55 45/238/54 15/242/59
s 17
f 94/282/141 93/283/142 95/279/143 96/278/144
s 3
f 48/223/11 51/222/10 52/227/46 16/228/45
s 4
f 41/107/15 48/106/14 16/109/48 13/110/47
s 6
f 50/16/24 49/15/23 17/17/78 18/18/77
s 3
f 18/225/100 47/226/99 51/222/10 50/221/9
s 17
f 98/277/145 97/281/146 94/282/141 96/278/144
f 99/274/147 98/277/145 96/278/144 91/271/95
f 100/273/148 99/274/147 91/271/95 90/270/94
s 3
f 55/239/133 54/235/35 39/243/130 21/244/129
s 5
f 56/4/20 55/3/19 21/5/90 22/6/89
s 1
f 22/209/122 34/210/121 57/202/26 56/205/117
s 16
f 82/259/149 81/260/150 73/253/85 76/256/88
f 76/256/88 79/263/139 83/264/151 82/259/149
f 77/267/138 84/268/152 83/264/151 79/263/139
s 1
f 49/192/4 60/191/3 42/195/82 17/196/81
s 6
f 25/20/80 26/19/79 62/21/50 61/22/49
s 1
f 26/200/84 43/199/83 63/203/74 62/204/73
s 16
f 86/261/153 85/265/154 78/266/137 80/262/140
f 87/258/155 86/261/153 80/262/140 75/255/87
f 88/257/156 87/258/155 75/255/87 74/254/86
s 1
f 67/217/123 66/218/69 35/214/120 29/213/119
s 5
f 29/8/92 30/7/91 68/9/64 67/10/63
s 3
f 30/248/132 38/247/131 69/250/62 68/251/127
s 17
f 102/275/157 101/276/158 89/269/93 92/272/96
f 92/272/96 95/279/143 103/280/159 102/275/157
f 93/283/142 104/284/160 103/280/159 95/279/143
s 3
f 61/233/56 72/234/55 46/230/98 25/229/97
s off
f 34/41/161 35/42/162 74/43/163 73/44/164
f 28/25/165 23/28/166 76/31/167 75/32/168
f 43/49/169 42/50/170 77/51/171 78/52/172
f 24/34/173 27/33/174 80/37/175 79/38/176
f 58/137/177 57/138/178 81/139/179 82/140/180
f 57/47/181 34/41/182 73/44/183 81/48/184
f 23/130/185 24/129/186 79/133/187 76/134/188
f 59/141/189 58/137/190 82/140/191 83/142/192
f 42/50/193 60/53/194 84/54/195 77/51/196
f 60/143/197 59/141/198 83/142/199 84/144/200
f 64/145/201 63/146/202 85/147/203 86/148/204
f 63/55/205 43/49/206 78/52/207 85/56/208
f 65/149/209 64/145/210 86/148/211 87/150/212
f 27/120/213 108/119/214 106/125/215 28/126/216 75/127/217 80/128/218
f 66/151/219 65/149/220 87/150/221 88/152/222
f 35/42/223 66/45/224 88/46/225 74/43/226
f 38/57/227 39/58/228 90/59/229 89/60/230
f 20/27/231 31/26/232 92/29/233 91/30/234
f 47/65/235 46/66/236 93/67/237 94/68/238
f 32/36/239 19/35/240 96/39/241 95/40/242
f 52/153/243 51/154/244 97/155/245 98/156/246
f 51/71/247 47/65/248 94/68/249 97/72/250
f 53/157/251 52/153/252 98/156/253 99/158/254
f 19/132/255 20/131/256 91/135/257 96/136/258
f 54/159/259 53/157/260 99/158/261 100/160/262
f 39/58/263 54/61/264 100/62/265 90/59/266
f 70/161/267 69/162/268 101/163/269 102/164/270
f 69/63/271 38/57/272 89/60/273 101/64/274
f 31/121/275 105/122/276 107/118/277 32/117/278 95/123/279 92/124/280
f 71/165/281 70/161/282 102/164/283 103/166/284
f 46/66/285 72/69/286 104/70/287 93/67/288
f 72/167/289 71/165/290 103/166/291 104/168/292
f 106/125/293 105/122/294 31/121/295 28/126/296
f 114/169/297 113/170/298 115/171/299 116/172/300
f 108/73/301 107/74/302 117/75/303 118/76/304
s 22
f 107/293/305 105/294/306 120/292/307 117/291/308
s off
f 105/77/309 106/78/310 119/79/311 120/80/312
s 23
f 106/303/313 108/304/314 118/302/315 119/301/316
s off
f 110/81/317 109/82/318 113/83/319 114/84/320
f 109/285/321 111/286/322 115/287/323 113/288/324
f 111/87/325 112/88/326 116/89/327 115/90/328
f 112/295/329 110/296/330 114/297/331 116/298/332
f 126/305/333 125/306/334 127/307/335 128/308/336
s 23
f 119/301/316 118/302/315 122/300/337 123/299/338
s off
f 130/313/339 129/314/340 131/315/341 132/316/342
s 22
f 117/291/308 120/292/307 124/290/343 121/289/344
s off
f 122/85/345 121/86/346 109/82/347 110/81/348
s 23
f 123/299/338 122/300/337 110/296/349 112/295/350
s off
f 124/91/351 123/92/352 112/88/353 111/87/354
s 22
f 121/289/344 124/290/343 111/286/355 109/285/356
s off
f 118/173/357 117/174/358 125/175/359 126/176/360
f 117/309/361 121/310/362 127/307/363 125/306/364
f 121/177/365 122/178/366 128/179/367 127/180/368
f 122/311/369 118/312/370 126/305/371 128/308/372
f 120/181/373 119/182/374 129/183/375 130/184/376
f 119/317/377 123/318/378 131/315/379 129/314/380
f 123/185/381 124/186/382 132/187/383 131/188/384
f 124/319/385 120/320/386 130/313/387 132/316/388
