# This file uses centimeters as units for non-parametric coordinates.

mtllib item3.mtl
g default
v -1.922888 -2.011810 1.018211
v 1.922889 -2.011810 0.892876
v -1.922888 -1.319727 1.018211
v 1.922889 -1.266518 0.892876
v -1.922888 -1.250120 -1.018211
v 1.922889 -1.266518 -0.892868
v -1.922888 -2.011810 -1.018211
v 1.922889 -2.011810 -0.892868
v -0.615841 -2.011810 1.366852
v -0.615841 -1.141308 1.366852
v -0.615841 -1.162081 -1.366844
v -0.615841 -2.011810 -1.366844
v 1.098722 -2.011810 1.366852
v 1.098722 -1.091196 1.366852
v 1.098722 -0.831610 -1.366844
v 1.098722 -2.011810 -1.366844
v -1.922888 -1.014236 -0.651802
v -1.922889 -2.011810 -0.651802
v -0.615841 -2.011810 -0.874985
v 1.098722 -2.011810 -0.874985
v 1.922889 -2.011810 -0.571564
v 1.922889 -1.266518 -0.571564
v 0.952271 -0.974218 -0.748215
v -0.481732 -0.946871 -0.751152
v -1.922888 -1.014236 0.453789
v -1.922888 -2.011810 0.453789
v -0.615841 -2.011810 0.609169
v 1.098722 -2.011810 0.609169
v 1.922889 -2.011810 0.397926
v 1.922889 -1.266518 0.397926
v 0.952271 -0.974218 0.482399
v -0.469390 -0.946871 0.482399
v 0.952271 1.704454 -0.748215
v -0.469390 1.731800 -0.748215
v -0.469390 1.731800 0.482399
v 0.952271 1.704454 0.482399
v -1.922889 -2.011810 0.249008
v -1.922888 -1.014236 0.249008
v -0.542791 -0.946611 0.294464
v -0.542791 1.747120 0.294464
v 1.025673 1.716949 0.294464
v 1.025673 -0.976780 0.294464
v 1.922889 -1.266518 0.218361
v 1.922889 -2.011810 0.218361
v 1.098722 -2.011810 0.334274
v -0.615841 -2.011810 0.334274
v -1.922889 -2.011810 -0.381561
v -1.922888 -1.014236 -0.381561
v -0.542791 -0.946611 -0.479889
v -0.542791 1.747120 -0.479889
v 1.025673 1.716949 -0.479889
v 1.025673 -0.976780 -0.479889
v 1.922889 -1.266518 -0.334587
v 1.922889 -2.011810 -0.334587
v 1.098722 -2.011810 -0.512207
v -0.615841 -2.011810 -0.512207
v 0.755809 -2.011810 1.366852
v 0.755809 -0.828058 1.366852
v 0.711980 -0.970745 0.545937
v 0.711980 1.722984 0.545937
v 0.711980 1.992504 0.294464
v 0.711980 1.992504 -0.479889
v 0.711980 1.722984 -0.811752
v 0.711980 -0.970745 -0.811752
v 0.755809 -1.127758 -1.366844
v 0.755809 -2.011810 -1.366844
v 0.755809 -2.011810 -0.874985
v 0.755809 -2.011810 -0.512207
v 0.755809 -2.011810 0.334274
v 0.755809 -2.011810 0.609169
v -0.341511 -2.011810 1.366852
v -0.341511 -1.097357 1.366852
v -0.291837 -0.951437 0.545937
v -0.291837 1.742292 0.545937
v -0.291837 2.011812 0.294464
v -0.291837 2.011812 -0.479889
v -0.291837 1.742292 -0.811752
v -0.291837 -0.951437 -0.811752
v -0.341511 -1.124931 -1.366844
v -0.341511 -2.011810 -1.366844
v -0.341511 -2.011810 -0.874985
v -0.341511 -2.011810 -0.512207
v -0.341511 -2.011810 0.334274
v -0.341511 -2.011810 0.609169
v 0.210071 -0.961092 0.662491
v 0.207149 -0.822372 1.366852
v 0.207149 -2.011810 1.366852
v 0.207149 -2.011810 0.609169
v 0.207149 -2.011810 0.334274
v 0.207149 -2.011810 -0.512207
v 0.207149 -2.011810 -0.874985
v 0.207149 -2.011810 -1.366844
v 0.207149 -1.172857 -1.366844
v 0.210071 -0.961092 -0.928307
v 0.210071 1.732637 -0.928307
v 0.210071 2.002157 -0.562653
v 0.210071 2.002157 0.294464
v 0.210071 1.732637 0.662491
vt 0.634510 0.677893
vt 0.492153 0.726170
vt 0.471010 0.633976
vt 0.611323 0.605987
vt 0.441328 0.538035
vt 0.602883 0.535971
vt 0.590638 0.372427
vt 0.449133 0.386171
vt 0.449321 0.299393
vt 0.585384 0.281049
vt 0.585925 0.111860
vt 0.440668 0.093498
vt 0.435874 0.012000
vt 0.584422 0.049330
vt 0.196583 0.690573
vt 0.145457 0.673037
vt 0.170851 0.595366
vt 0.222089 0.611495
vt 0.659145 0.555252
vt 0.693061 0.658469
vt 0.460811 0.732900
vt 0.445363 0.633315
vt 0.427545 0.539202
vt 0.425645 0.393019
vt 0.423078 0.300657
vt 0.409600 0.094945
vt 0.403973 0.013708
vt 0.315538 0.635138
vt 0.294394 0.729227
vt 0.219978 0.555915
vt 0.333269 0.540081
vt 0.288695 0.315653
vt 0.307439 0.414117
vt 0.209213 0.415468
vt 0.197282 0.314363
vt 0.237026 0.033747
vt 0.247925 0.116207
vt 0.162893 0.159771
vt 0.153744 0.104258
vt 0.845279 0.608229
vt 0.807398 0.620727
vt 0.773394 0.517586
vt 0.819311 0.529480
vt 0.449429 0.249556
vt 0.587840 0.237596
vt 0.421099 0.249983
vt 0.184836 0.274285
vt 0.275507 0.271649
vt 0.070576 0.562666
vt 0.045225 0.639795
vt 0.012000 0.628860
vt 0.037350 0.551747
vt 0.330034 0.465047
vt 0.212172 0.453554
vt 0.434649 0.455020
vt 0.420564 0.455076
vt 0.593707 0.420990
vt 0.779458 0.629946
vt 0.745461 0.526799
vt 0.448196 0.211967
vt 0.588530 0.206038
vt 0.418869 0.212570
vt 0.177451 0.245300
vt 0.267070 0.235370
vt 0.095083 0.570705
vt 0.069729 0.647875
vt 0.327692 0.480901
vt 0.213679 0.480159
vt 0.428358 0.787160
vt 0.386119 0.784683
vt 0.393010 0.765108
vt 0.420833 0.751959
vt 0.596660 0.449818
vt 0.438851 0.471875
vt 0.680095 0.987466
vt 0.679256 0.711911
vt 0.699648 0.712316
vt 0.699382 0.986334
vt 0.728092 0.712372
vt 0.727838 0.987927
vt 0.827943 0.712437
vt 0.847234 0.711987
vt 0.846980 0.987543
vt 0.827691 0.986452
vt 0.137277 0.980433
vt 0.137279 0.704877
vt 0.165736 0.705139
vt 0.165734 0.979155
vt 0.680296 0.548284
vt 0.714249 0.651469
vt 0.444163 0.524199
vt 0.600991 0.514295
vt 0.807050 0.988000
vt 0.807304 0.712444
vt 0.537102 0.767304
vt 0.502771 0.778667
vt 0.502935 0.741656
vt 0.525089 0.749018
vt 0.037427 0.705138
vt 0.058067 0.704876
vt 0.058065 0.980432
vt 0.037425 0.979154
vt 0.219031 0.536578
vt 0.328567 0.528987
vt 0.126898 0.666806
vt 0.152272 0.589384
vt 0.252062 0.145889
vt 0.166409 0.180424
vt 0.411886 0.124123
vt 0.442545 0.122768
vt 0.586539 0.134816
vt 0.349908 0.622705
vt 0.334132 0.738422
vt 0.351786 0.540092
vt 0.012000 0.981049
vt 0.012002 0.705493
vt 0.243426 0.818797
vt 0.241646 0.861472
vt 0.208445 0.843596
vt 0.223129 0.822753
vt 0.322569 0.822099
vt 0.320789 0.864773
vt 0.350424 0.828062
vt 0.362190 0.850681
vt 0.191161 0.705495
vt 0.191159 0.981050
vt 0.336083 0.400110
vt 0.348802 0.462975
vt 0.321237 0.311048
vt 0.310444 0.262432
vt 0.303156 0.226410
vt 0.289659 0.138068
vt 0.285913 0.108979
vt 0.276098 0.027260
vt 0.394348 0.620998
vt 0.398415 0.744186
vt 0.391137 0.544022
vt 0.899690 0.986604
vt 0.899944 0.711048
vt 0.952654 0.710109
vt 0.952400 0.985665
vt 0.556526 0.873439
vt 0.518193 0.879095
vt 0.511986 0.828652
vt 0.557565 0.819176
vt 0.435981 0.888110
vt 0.423541 0.837552
vt 0.390856 0.891604
vt 0.377388 0.838894
vt 0.574671 0.985812
vt 0.573833 0.710257
vt 0.626544 0.711084
vt 0.627383 0.986639
vt 0.380563 0.395676
vt 0.384318 0.453526
vt 0.371949 0.305411
vt 0.365562 0.254399
vt 0.360855 0.217243
vt 0.350637 0.129255
vt 0.347577 0.100260
vt 0.339820 0.018936
vn -0.257725 0.000000 0.966218
vn -0.210339 0.000000 0.977629
vn -0.196377 0.000000 0.980528
vn -0.257725 0.000000 0.966218
vn -0.126485 0.941590 0.312105
vn -0.124355 0.947787 0.293660
vn -0.112865 0.961656 0.249959
vn -0.111397 0.961128 0.252632
vn -0.257725 0.000000 -0.966218
vn -0.203757 0.000000 -0.979022
vn -0.212561 0.000000 -0.977148
vn -0.257725 0.000000 -0.966218
vn 0.000000 -1.000000 0.000000
vn 0.000000 -1.000000 0.000000
vn 0.000000 -1.000000 0.000000
vn 0.000000 -1.000000 0.000000
vn 1.000000 0.000000 0.000000
vn 1.000000 0.000000 0.000000
vn 1.000000 0.000000 0.000000
vn 1.000000 0.000000 0.000000
vn -1.000000 0.000000 0.000000
vn -1.000000 0.000000 0.000000
vn -1.000000 0.000000 0.000000
vn -1.000000 0.000000 0.000000
vn -0.196377 0.000000 0.980528
vn -0.210339 0.000000 0.977629
vn 0.000000 0.000000 1.000000
vn 0.000000 0.000000 1.000000
vn -0.195393 0.978464 0.066554
vn -0.191332 0.978861 0.072266
vn -0.112865 0.961656 0.249959
vn -0.124355 0.947787 0.293660
vn -0.212561 0.000000 -0.977148
vn -0.203757 0.000000 -0.979022
vn 0.000000 0.000000 -1.000000
vn 0.000000 0.000000 -1.000000
vn 0.000000 -1.000000 0.000000
vn 0.000000 -1.000000 0.000000
vn 0.000000 -1.000000 0.000000
vn 0.000000 -1.000000 0.000000
vn 0.270271 0.000000 0.962784
vn 0.352739 0.000000 0.935722
vn 0.498535 0.000000 0.866869
vn 0.498535 0.000000 0.866869
vn 0.275106 0.959935 0.053299
vn 0.308514 0.950888 0.025132
vn 0.313107 0.949548 0.017966
vn 0.267245 0.962158 0.053222
vn 0.369549 0.000000 -0.929211
vn 0.409483 0.000000 -0.912318
vn 0.498535 0.000000 -0.866869
vn 0.498535 0.000000 -0.866869
vn 0.000000 -1.000000 0.000000
vn 0.000000 -1.000000 0.000000
vn 0.000000 -1.000000 0.000000
vn 0.000000 -1.000000 0.000000
vn -1.000000 0.000000 0.000000
vn -1.000000 0.000000 0.000000
vn -1.000000 0.000000 0.000000
vn -1.000000 0.000000 0.000000
vn 0.000000 -1.000000 0.000000
vn 0.000000 -1.000000 0.000000
vn 0.000000 -1.000000 0.000000
vn 0.000000 -1.000000 0.000000
vn 0.000000 -1.000000 0.000000
vn 0.000000 -1.000000 0.000000
vn 0.000000 -1.000000 0.000000
vn 0.000000 -1.000000 0.000000
vn 0.000000 -1.000000 0.000000
vn 0.000000 -1.000000 0.000000
vn 0.000000 -1.000000 0.000000
vn 0.000000 -1.000000 0.000000
vn 1.000000 0.000000 0.000000
vn 1.000000 0.000000 0.000000
vn 1.000000 0.000000 0.000000
vn 1.000000 0.000000 0.000000
vn 0.079891 0.990457 0.112303
vn 0.164410 0.982022 0.092750
vn 0.308721 0.945802 0.100751
vn 0.308921 0.932011 0.189537
vn -0.115282 0.914833 -0.387028
vn -0.098205 0.953397 -0.285290
vn -0.036802 0.940897 -0.336688
vn -0.031662 0.940086 -0.339464
vn -0.095016 0.958037 -0.270438
vn -0.098205 0.953397 -0.285290
vn -0.115282 0.914833 -0.387028
vn -0.116790 0.908461 -0.401322
vn -1.000000 0.000000 0.000000
vn -1.000000 0.000000 0.000000
vn -1.000000 0.000000 0.000000
vn -1.000000 0.000000 0.000000
vn 0.000000 -1.000000 0.000000
vn 0.000000 -1.000000 0.000000
vn 0.000000 -1.000000 0.000000
vn 0.000000 -1.000000 0.000000
vn 0.000000 -1.000000 0.000000
vn 0.000000 -1.000000 0.000000
vn 0.000000 -1.000000 0.000000
vn 0.000000 -1.000000 0.000000
vn 0.000000 -1.000000 0.000000
vn 0.000000 -1.000000 0.000000
vn 0.000000 -1.000000 0.000000
vn 0.000000 -1.000000 0.000000
vn 1.000000 0.000000 0.000000
vn 1.000000 0.000000 0.000000
vn 1.000000 0.000000 0.000000
vn 1.000000 0.000000 0.000000
vn 0.308721 0.945802 0.100751
vn 0.164410 0.982022 0.092750
vn 0.306014 0.951930 -0.013624
vn 0.306423 0.951849 -0.009365
vn -0.270790 0.949525 -0.158351
vn -0.210553 0.791058 -0.574364
vn -0.534426 0.736407 -0.414842
vn -0.694873 0.712553 -0.097056
vn -0.048751 0.998810 -0.001539
vn -0.048702 0.998811 -0.001930
vn -0.098205 0.953397 -0.285290
vn -0.095016 0.958037 -0.270438
vn -0.251265 0.000332 -0.967918
vn -0.251183 0.000331 -0.967939
vn -0.320076 0.001254 -0.947391
vn -0.320076 0.001254 -0.947391
vn -0.970308 0.002361 -0.241859
vn -0.997938 0.000627 -0.064183
vn -0.998105 0.000601 -0.061533
vn -0.970308 0.002361 -0.241859
vn -0.336926 0.000000 0.941531
vn -0.255092 0.000000 0.966917
vn -0.255217 0.000000 0.966884
vn -0.336926 0.000000 0.941531
vn 0.997702 0.000000 -0.067758
vn 0.997575 0.000000 -0.069606
vn 0.964562 0.000000 -0.263858
vn 0.964562 0.000000 -0.263858
vn -1.000000 0.000000 0.000000
vn -1.000000 0.000000 0.000000
vn -1.000000 0.000000 0.000000
vn -1.000000 0.000000 0.000000
vn -0.111397 0.961128 0.252632
vn -0.112865 0.961656 0.249959
vn -0.048650 0.998813 0.002539
vn -0.048706 0.998811 0.002053
vn -0.997459 0.000000 0.071246
vn -0.997110 0.000000 0.075966
vn -0.931475 0.000000 0.363805
vn -0.931475 0.000000 0.363805
vn -0.161947 0.751429 0.639631
vn -0.273889 0.944593 0.180913
vn -0.703079 0.703755 0.102024
vn -0.513537 0.678329 0.525500
vn 0.931475 0.000000 0.363805
vn 0.997175 0.000000 0.075117
vn 0.997397 0.000000 0.072106
vn 0.931475 0.000000 0.363805
vn 0.306153 0.951921 0.010834
vn 0.305760 0.951999 0.014467
vn 0.308514 0.950888 0.025132
vn 0.275106 0.959935 0.053299
vn 1.000000 0.000000 0.000000
vn 1.000000 0.000000 0.000000
vn 1.000000 0.000000 0.000000
vn 1.000000 0.000000 0.000000
vn 0.000000 -1.000000 0.000000
vn 0.000000 -1.000000 0.000000
vn 0.000000 -1.000000 0.000000
vn 0.000000 -1.000000 0.000000
vn 0.000000 -1.000000 0.000000
vn 0.000000 -1.000000 0.000000
vn 0.000000 -1.000000 0.000000
vn 0.000000 -1.000000 0.000000
vn 0.000000 -1.000000 0.000000
vn 0.000000 -1.000000 0.000000
vn 0.000000 -1.000000 0.000000
vn 0.000000 -1.000000 0.000000
vn -1.000000 0.000000 0.000000
vn -1.000000 0.000000 0.000000
vn -1.000000 0.000000 0.000000
vn -1.000000 0.000000 0.000000
vn -0.048706 0.998811 0.002053
vn -0.048650 0.998813 0.002539
vn -0.048702 0.998811 -0.001930
vn -0.048751 0.998810 -0.001539
vn -0.998105 0.000601 -0.061533
vn -0.997938 0.000627 -0.064183
vn -0.997110 0.000000 0.075966
vn -0.997459 0.000000 0.071246
vn -0.273889 0.944593 0.180913
vn -0.270790 0.949525 -0.158351
vn -0.694873 0.712553 -0.097056
vn -0.703079 0.703755 0.102024
vn 0.997397 0.000000 0.072106
vn 0.997175 0.000000 0.075117
vn 0.997575 0.000000 -0.069606
vn 0.997702 0.000000 -0.067758
vn 0.306423 0.951849 -0.009365
vn 0.306014 0.951930 -0.013624
vn 0.305760 0.951999 0.014467
vn 0.306153 0.951921 0.010834
vn 1.000000 0.000000 0.000000
vn 1.000000 0.000000 0.000000
vn 1.000000 0.000000 0.000000
vn 1.000000 0.000000 0.000000
vn 0.000000 -1.000000 0.000000
vn 0.000000 -1.000000 0.000000
vn 0.000000 -1.000000 0.000000
vn 0.000000 -1.000000 0.000000
vn 0.000000 -1.000000 0.000000
vn 0.000000 -1.000000 0.000000
vn 0.000000 -1.000000 0.000000
vn 0.000000 -1.000000 0.000000
vn 0.000000 -1.000000 0.000000
vn 0.000000 -1.000000 0.000000
vn 0.000000 -1.000000 0.000000
vn 0.000000 -1.000000 0.000000
vn 0.000000 0.000000 1.000000
vn 0.000000 0.000000 1.000000
vn 0.352739 0.000000 0.935722
vn 0.270271 0.000000 0.962784
vn 0.308514 0.950888 0.025132
vn 0.197804 0.972103 -0.126056
vn 0.155578 0.978111 -0.138182
vn 0.313107 0.949548 0.017966
vn 0.235098 0.000000 0.971972
vn 0.236034 0.000000 0.971745
vn 0.255632 0.000000 0.966774
vn 0.255632 0.000000 0.966774
vn 0.634499 0.765408 0.107527
vn 0.289132 0.940494 0.178534
vn 0.187353 0.753025 0.630755
vn 0.443089 0.718989 0.535469
vn 0.625407 0.773505 -0.102744
vn 0.287121 0.944963 -0.156864
vn 0.289132 0.940494 0.178534
vn 0.634499 0.765408 0.107527
vn 0.462267 0.779464 -0.422783
vn 0.233828 0.794243 -0.560805
vn 0.287121 0.944963 -0.156864
vn 0.625407 0.773505 -0.102744
vn 0.255632 0.000000 -0.966774
vn 0.236034 0.000000 -0.971745
vn 0.235098 0.000000 -0.971972
vn 0.255632 0.000000 -0.966774
vn -0.158703 0.952320 -0.260575
vn -0.209890 0.950011 -0.231139
vn 0.164410 0.982022 0.092750
vn 0.079891 0.990457 0.112303
vn 0.000000 0.000000 -1.000000
vn 0.000000 0.000000 -1.000000
vn 0.409483 0.000000 -0.912318
vn 0.369549 0.000000 -0.929211
vn 0.000000 -1.000000 0.000000
vn 0.000000 -1.000000 0.000000
vn 0.000000 -1.000000 0.000000
vn 0.000000 -1.000000 0.000000
vn 0.000000 -1.000000 0.000000
vn 0.000000 -1.000000 0.000000
vn 0.000000 -1.000000 0.000000
vn 0.000000 -1.000000 0.000000
vn 0.000000 -1.000000 0.000000
vn 0.000000 -1.000000 0.000000
vn 0.000000 -1.000000 0.000000
vn 0.000000 -1.000000 0.000000
vn 0.000000 -1.000000 0.000000
vn 0.000000 -1.000000 0.000000
vn 0.000000 -1.000000 0.000000
vn 0.000000 -1.000000 0.000000
vn 0.000000 -1.000000 0.000000
vn 0.000000 -1.000000 0.000000
vn 0.000000 -1.000000 0.000000
vn 0.000000 -1.000000 0.000000
vn 0.000000 0.000000 1.000000
vn 0.000000 0.000000 1.000000
vn 0.000000 0.000000 1.000000
vn 0.000000 0.000000 1.000000
vn 0.155578 0.978111 -0.138182
vn 0.197804 0.972103 -0.126056
vn -0.126537 0.987536 -0.093598
vn -0.119843 0.987888 -0.098567
vn -0.004968 0.000000 0.999988
vn 0.004968 0.000000 0.999988
vn 0.236034 0.000000 0.971745
vn 0.235098 0.000000 0.971972
vn 0.187353 0.753025 0.630755
vn 0.289132 0.940494 0.178534
vn 0.018255 0.972342 0.232846
vn 0.015903 0.754304 0.656332
vn 0.289132 0.940494 0.178534
vn 0.287121 0.944963 -0.156864
vn 0.017805 0.966108 -0.257523
vn 0.018255 0.972342 0.232846
vn 0.287121 0.944963 -0.156864
vn 0.233828 0.794243 -0.560805
vn 0.017443 0.791138 -0.611389
vn 0.017805 0.966108 -0.257523
vn 0.235098 0.000000 -0.971972
vn 0.236034 0.000000 -0.971745
vn 0.004968 0.000000 -0.999988
vn -0.004968 0.000000 -0.999988
vn 0.008944 0.934868 -0.354884
vn 0.008959 0.934847 -0.354939
vn -0.209890 0.950011 -0.231139
vn -0.158703 0.952320 -0.260575
vn 0.000000 0.000000 -1.000000
vn 0.000000 0.000000 -1.000000
vn 0.000000 0.000000 -1.000000
vn 0.000000 0.000000 -1.000000
vn 0.000000 -1.000000 0.000000
vn 0.000000 -1.000000 0.000000
vn 0.000000 -1.000000 0.000000
vn 0.000000 -1.000000 0.000000
vn 0.000000 -1.000000 0.000000
vn 0.000000 -1.000000 0.000000
vn 0.000000 -1.000000 0.000000
vn 0.000000 -1.000000 0.000000
vn 0.000000 -1.000000 0.000000
vn 0.000000 -1.000000 0.000000
vn 0.000000 -1.000000 0.000000
vn 0.000000 -1.000000 0.000000
vn 0.000000 -1.000000 0.000000
vn 0.000000 -1.000000 0.000000
vn 0.000000 -1.000000 0.000000
vn 0.000000 -1.000000 0.000000
vn 0.000000 -1.000000 0.000000
vn 0.000000 -1.000000 0.000000
vn 0.000000 -1.000000 0.000000
vn 0.000000 -1.000000 0.000000
vn -0.119843 0.987888 -0.098567
vn -0.126537 0.987536 -0.093598
vn -0.191332 0.978861 0.072266
vn -0.195393 0.978464 0.066554
vn 0.000000 0.000000 1.000000
vn 0.000000 0.000000 1.000000
vn 0.000000 0.000000 1.000000
vn 0.000000 0.000000 1.000000
vn 0.000000 -1.000000 0.000000
vn 0.000000 -1.000000 0.000000
vn 0.000000 -1.000000 0.000000
vn 0.000000 -1.000000 0.000000
vn 0.000000 -1.000000 0.000000
vn 0.000000 -1.000000 0.000000
vn 0.000000 -1.000000 0.000000
vn 0.000000 -1.000000 0.000000
vn 0.000000 -1.000000 0.000000
vn 0.000000 -1.000000 0.000000
vn 0.000000 -1.000000 0.000000
vn 0.000000 -1.000000 0.000000
vn 0.000000 -1.000000 0.000000
vn 0.000000 -1.000000 0.000000
vn 0.000000 -1.000000 0.000000
vn 0.000000 -1.000000 0.000000
vn 0.000000 -1.000000 0.000000
vn 0.000000 -1.000000 0.000000
vn 0.000000 -1.000000 0.000000
vn 0.000000 -1.000000 0.000000
vn 0.000000 0.000000 -1.000000
vn 0.000000 0.000000 -1.000000
vn 0.000000 0.000000 -1.000000
vn 0.000000 0.000000 -1.000000
vn -0.031662 0.940086 -0.339464
vn -0.036802 0.940897 -0.336688
vn 0.008959 0.934847 -0.354939
vn 0.008944 0.934868 -0.354884
vn -0.004968 0.000000 -0.999988
vn 0.004968 0.000000 -0.999988
vn -0.251183 0.000331 -0.967939
vn -0.251265 0.000332 -0.967918
vn 0.017805 0.966108 -0.257523
vn 0.017443 0.791138 -0.611389
vn -0.210553 0.791058 -0.574364
vn -0.270790 0.949525 -0.158351
vn 0.018255 0.972342 0.232846
vn 0.017805 0.966108 -0.257523
vn -0.270790 0.949525 -0.158351
vn -0.273889 0.944593 0.180913
vn 0.015903 0.754304 0.656332
vn 0.018255 0.972342 0.232846
vn -0.273889 0.944593 0.180913
vn -0.161947 0.751429 0.639631
vn -0.255217 0.000000 0.966884
vn -0.255092 0.000000 0.966917
vn 0.004968 0.000000 0.999988
vn -0.004968 0.000000 0.999988
s off
g item3:pCube76
usemtl lambert2SG
f 1/1/1 9/2/2 10/3/3 3/4/4
f 3/4/5 10/3/6 32/5/7 25/6/8
f 5/7/9 11/8/10 12/9/11 7/10/12
f 26/11/13 27/12/14 9/13/15 1/14/16
f 2/15/17 29/16/18 30/17/19 4/18/20
f 25/19/21 26/20/22 1/1/23 3/4/24
f 10/3/25 9/2/26 71/21/27 72/22/28
f 72/22/29 73/23/30 32/5/31 10/3/32
f 12/9/33 11/8/34 79/24/35 80/25/36
f 9/13/37 27/12/38 84/26/39 71/27/40
f 14/28/41 13/29/42 2/15/43 4/18/44
f 30/30/45 31/31/46 14/28/47 4/18/48
f 16/32/49 15/33/50 6/34/51 8/35/52
f 13/36/53 28/37/54 29/38/55 2/39/56
f 7/40/57 18/41/58 17/42/59 5/43/60
f 7/10/61 12/9/62 19/44/63 18/45/64
f 80/25/65 81/46/66 19/44/67 12/9/68
f 21/47/69 20/48/70 16/32/71 8/35/72
f 22/49/73 21/50/74 8/51/75 6/52/76
f 15/33/77 23/53/78 22/54/79 6/34/80
f 11/8/81 24/55/82 78/56/83 79/24/84
f 17/57/85 24/55/86 11/8/87 5/7/88
f 17/42/89 18/41/90 47/58/91 48/59/92
f 18/45/93 19/44/94 56/60/95 47/61/96
f 81/46/97 82/62/98 56/60/99 19/44/100
f 54/63/101 55/64/102 20/48/103 21/47/104
f 53/65/105 54/66/106 21/50/107 22/49/108
f 22/54/109 23/53/110 52/67/111 53/68/112
f 76/69/113 77/70/114 34/71/115 50/72/116
f 48/73/117 49/74/118 24/55/119 17/57/120
f 77/75/121 78/76/122 24/77/123 34/78/124
f 24/77/125 49/79/126 50/80/127 34/78/128
f 32/81/129 73/82/130 74/83/131 35/84/132
f 51/85/133 52/86/134 23/87/135 33/88/136
f 38/89/137 37/90/138 26/20/139 25/19/140
f 25/6/141 32/5/142 39/91/143 38/92/144
f 40/93/145 39/94/146 32/81/147 35/84/148
f 74/95/149 75/96/150 40/97/151 35/98/152
f 31/99/153 42/100/154 41/101/155 36/102/156
f 43/103/157 42/104/158 31/31/159 30/30/160
f 30/17/161 29/16/162 44/105/163 43/106/164
f 29/38/165 28/37/166 45/107/167 44/108/168
f 83/109/169 84/26/170 27/12/171 46/110/172
f 37/111/173 46/110/174 27/12/175 26/11/176
f 48/59/177 47/58/178 37/90/179 38/89/180
f 38/92/181 39/91/182 49/74/183 48/73/184
f 50/80/185 49/79/186 39/94/187 40/93/188
f 75/96/189 76/69/190 50/72/191 40/97/192
f 41/101/193 42/100/194 52/86/195 51/85/196
f 53/68/197 52/67/198 42/104/199 43/103/200
f 43/106/201 44/105/202 54/66/203 53/65/204
f 44/108/205 45/107/206 55/64/207 54/63/208
f 82/62/209 83/109/210 46/110/211 56/60/212
f 47/61/213 56/60/214 46/110/215 37/111/216
f 58/112/217 57/113/218 13/29/219 14/28/220
f 31/31/221 59/114/222 58/112/223 14/28/224
f 60/115/225 59/116/226 31/99/227 36/102/228
f 41/117/229 61/118/230 60/119/231 36/120/232
f 51/121/233 62/122/234 61/118/235 41/117/236
f 33/123/237 63/124/238 62/122/239 51/121/240
f 23/87/241 64/125/242 63/126/243 33/88/244
f 65/127/245 64/128/246 23/53/247 15/33/248
f 66/129/249 65/127/250 15/33/251 16/32/252
f 20/48/253 67/130/254 66/129/255 16/32/256
f 55/64/257 68/131/258 67/130/259 20/48/260
f 45/107/261 69/132/262 68/131/263 55/64/264
f 28/37/265 70/133/266 69/132/267 45/107/268
f 57/134/269 70/133/270 28/37/271 13/36/272
f 86/135/273 87/136/274 57/113/275 58/112/276
f 58/112/277 59/114/278 85/137/279 86/135/280
f 98/138/281 85/139/282 59/140/283 60/141/284
f 60/142/285 61/143/286 97/144/287 98/145/288
f 61/143/289 62/146/290 96/147/291 97/144/292
f 62/146/293 63/148/294 95/149/295 96/147/296
f 63/150/297 64/151/298 94/152/299 95/153/300
f 93/154/301 94/155/302 64/128/303 65/127/304
f 92/156/305 93/154/306 65/127/307 66/129/308
f 66/129/309 67/130/310 91/157/311 92/156/312
f 67/130/313 68/131/314 90/158/315 91/157/316
f 68/131/317 69/132/318 89/159/319 90/158/320
f 69/132/321 70/133/322 88/160/323 89/159/324
f 87/161/325 88/160/326 70/133/327 57/134/328
f 86/135/329 85/137/330 73/23/331 72/22/332
f 72/22/333 71/21/334 87/136/335 86/135/336
f 71/27/337 84/26/338 88/160/339 87/161/340
f 89/159/341 88/160/342 84/26/343 83/109/344
f 90/158/345 89/159/346 83/109/347 82/62/348
f 91/157/349 90/158/350 82/62/351 81/46/352
f 92/156/353 91/157/354 81/46/355 80/25/356
f 80/25/357 79/24/358 93/154/359 92/156/360
f 79/24/361 78/56/362 94/155/363 93/154/364
f 95/153/365 94/152/366 78/76/367 77/75/368
f 96/147/369 95/149/370 77/70/371 76/69/372
f 97/144/373 96/147/374 76/69/375 75/96/376
f 98/145/377 97/144/378 75/96/379 74/95/380
f 74/83/381 73/82/382 85/139/383 98/138/384
