# This file uses centimeters as units for non-parametric coordinates.

mtllib Pan.mtl
g default
v 0.206154 -0.053910 -0.288052
v 0.073752 -0.053910 -0.547907
v -0.132472 -0.053910 -0.754130
v -0.392327 -0.053910 -0.886532
v -0.680379 -0.053910 -0.932155
v -0.968430 -0.053910 -0.886532
v -1.228286 -0.053910 -0.754130
v -1.434508 -0.053910 -0.547907
v -1.566910 -0.053910 -0.288052
v -1.612533 -0.053910 0.000000
v -1.566910 -0.053910 0.288051
v -1.434508 -0.053910 0.547907
v -1.228286 -0.053910 0.754129
v -0.968430 -0.053910 0.886532
v -0.680379 -0.053910 0.932155
v -0.392327 -0.053910 0.886532
v -0.132472 -0.053910 0.754129
v 0.073750 -0.053910 0.547907
v 0.206154 -0.053910 0.288051
v 0.251777 -0.053910 0.000000
v 0.206154 0.129203 -0.288052
v 0.073752 0.129203 -0.547907
v -0.132472 0.129203 -0.754130
v -0.392327 0.129203 -0.886532
v -0.680379 0.129203 -0.932155
v -0.968430 0.129203 -0.886532
v -1.228286 0.129203 -0.754130
v -1.434508 0.129203 -0.547907
v -1.566910 0.129203 -0.288052
v -1.612533 0.129203 0.000000
v -1.566910 0.129203 0.288051
v -1.434508 0.129203 0.547907
v -1.228286 0.129203 0.754129
v -0.968430 0.129203 0.886532
v -0.680379 0.129203 0.932155
v -0.392327 0.129203 0.886532
v -0.132472 0.129203 0.754129
v 0.073750 0.129203 0.547907
v 0.206154 0.129203 0.288051
v 0.251777 0.129203 0.000000
v 0.087175 -0.011019 -0.249393
v -0.027459 -0.011019 -0.474373
v -0.680379 -0.011019 0.000000
v -0.206006 -0.011019 -0.652919
v -0.430986 -0.011019 -0.767552
v -0.680379 -0.011019 -0.807052
v -0.929771 -0.011019 -0.767552
v -1.154751 -0.011019 -0.652919
v -1.333298 -0.011019 -0.474373
v -1.447930 -0.011019 -0.249393
v -1.487430 -0.011019 0.000000
v -1.447930 -0.011019 0.249393
v -1.333298 -0.011019 0.474373
v -1.154751 -0.011019 0.652918
v -0.929771 -0.011019 0.767552
v -0.680379 -0.011019 0.807052
v -0.430986 -0.011019 0.767552
v -0.206006 -0.011019 0.652918
v -0.027459 -0.011019 0.474373
v 0.087173 -0.011019 0.249393
v 0.126673 -0.011019 0.000000
v 0.228964 -0.053910 0.144026
v 0.228964 0.129203 0.144026
v 0.228965 -0.053910 -0.144026
v 0.228965 0.129203 -0.144026
v 0.106924 -0.011019 -0.124697
v 0.247698 -0.021165 0.000000
v 0.233045 -0.021165 -0.092515
v 0.233045 0.096458 -0.092515
v 0.247698 0.096458 0.000000
v 0.233044 -0.021165 0.092515
v 0.233044 0.096458 0.092515
v 1.612533 -0.021165 0.000000
v 1.557290 -0.021165 -0.092515
v 1.557290 0.096458 -0.092515
v 1.612533 0.096458 0.000000
v 1.557290 -0.021165 0.092515
v 1.557290 0.096458 0.092515
v 0.056302 -0.129203 -0.239362
v -0.053722 -0.129203 -0.455293
v -0.680379 -0.129203 0.000000
v -0.225085 -0.129203 -0.626657
v -0.441017 -0.129203 -0.736680
v -0.680379 -0.129203 -0.774591
v -0.919741 -0.129203 -0.736680
v -1.135672 -0.129203 -0.626657
v -1.307036 -0.129203 -0.455293
v -1.417057 -0.129203 -0.239362
v -1.454969 -0.129203 0.000000
v -1.417057 -0.129203 0.239361
v -1.307036 -0.129203 0.455293
v -1.135672 -0.129203 0.626657
v -0.919741 -0.129203 0.736679
v -0.680379 -0.129203 0.774590
v -0.441017 -0.129203 0.736679
v -0.225085 -0.129203 0.626657
v -0.053722 -0.129203 0.455293
v 0.056301 -0.129203 0.239361
v 0.075257 -0.129203 0.119681
v 0.094212 -0.129203 0.000000
v 0.075257 -0.129203 -0.119681
vt 0.168916 0.124598
vt 0.210537 0.124598
vt 0.210537 0.423201
vt 0.168916 0.423201
vt 0.243567 0.124598
vt 0.243567 0.423201
vt 0.425218 0.300421
vt 0.383598 0.300421
vt 0.383598 0.001818
vt 0.425218 0.001818
vt 0.337461 0.300421
vt 0.337461 0.001818
vt 0.291324 0.300421
vt 0.291324 0.001818
vt 0.249704 0.300421
vt 0.249704 0.001818
vt 0.432905 0.124598
vt 0.465936 0.124598
vt 0.465936 0.423201
vt 0.432905 0.423201
vt 0.507556 0.124598
vt 0.507556 0.423201
vt 0.553693 0.124598
vt 0.553693 0.423201
vt 0.599829 0.124598
vt 0.599829 0.423201
vt 0.641450 0.124598
vt 0.641450 0.423201
vt 0.674480 0.124598
vt 0.674480 0.423201
vt 0.682371 0.124598
vt 0.723992 0.124598
vt 0.723992 0.423201
vt 0.682371 0.423201
vt 0.770128 0.124598
vt 0.770128 0.423201
vt 0.816265 0.124598
vt 0.816265 0.423201
vt 0.857886 0.124598
vt 0.857886 0.423201
vt 0.001992 0.124598
vt 0.035022 0.124598
vt 0.035022 0.423201
vt 0.001992 0.423201
vt 0.076643 0.124598
vt 0.076643 0.423201
vt 0.099711 0.124598
vt 0.099711 0.423201
vt 0.560398 0.679313
vt 0.560398 0.688161
vt 0.368590 0.688161
vt 0.368590 0.679313
vt 0.709651 0.478334
vt 0.727273 0.512919
vt 0.609280 0.551257
vt 0.682204 0.450886
vt 0.647618 0.433264
vt 0.609280 0.427192
vt 0.570942 0.433264
vt 0.536357 0.450886
vt 0.508910 0.478334
vt 0.491287 0.512919
vt 0.485215 0.551257
vt 0.491287 0.589595
vt 0.508910 0.624180
vt 0.536357 0.651627
vt 0.570942 0.669250
vt 0.609280 0.675322
vt 0.647618 0.669250
vt 0.682203 0.651627
vt 0.709651 0.624180
vt 0.727273 0.589595
vt 0.733345 0.551257
vt 0.730309 0.570426
vt 0.730309 0.532088
vt 0.991681 0.596401
vt 0.973321 0.632436
vt 0.868744 0.556456
vt 0.944723 0.661033
vt 0.908689 0.679394
vt 0.868744 0.685720
vt 0.828799 0.679394
vt 0.792765 0.661033
vt 0.764167 0.632436
vt 0.745807 0.596401
vt 0.739480 0.556456
vt 0.745807 0.516511
vt 0.764167 0.480477
vt 0.792765 0.451880
vt 0.828799 0.433519
vt 0.868744 0.427192
vt 0.908689 0.433519
vt 0.944723 0.451880
vt 0.973321 0.480477
vt 0.991681 0.516511
vt 0.998008 0.556456
vt 0.994845 0.576429
vt 0.479080 0.594116
vt 0.479080 0.635737
vt 0.250419 0.623959
vt 0.250419 0.587924
vt 0.479080 0.668767
vt 0.250419 0.652556
vt 0.177506 0.901420
vt 0.135886 0.901420
vt 0.129694 0.672759
vt 0.165729 0.672759
vt 0.089749 0.901420
vt 0.089749 0.672759
vt 0.043613 0.901420
vt 0.049804 0.672759
vt 0.001992 0.901420
vt 0.013770 0.672759
vt 0.244284 0.427192
vt 0.244284 0.460223
vt 0.015622 0.472000
vt 0.015622 0.443403
vt 0.244284 0.501843
vt 0.015622 0.508035
vt 0.244284 0.547980
vt 0.015622 0.547980
vt 0.244284 0.594116
vt 0.015622 0.587925
vt 0.244284 0.635737
vt 0.015622 0.623959
vt 0.244284 0.668767
vt 0.015622 0.652556
vt 0.185388 0.672759
vt 0.227009 0.672759
vt 0.233201 0.901420
vt 0.197166 0.901420
vt 0.273146 0.672759
vt 0.273146 0.901420
vt 0.319282 0.672759
vt 0.313090 0.901420
vt 0.360903 0.672759
vt 0.349125 0.901420
vt 0.479080 0.427192
vt 0.479080 0.460222
vt 0.250419 0.472000
vt 0.250419 0.443403
vt 0.479080 0.501843
vt 0.250419 0.508035
vt 0.479080 0.524911
vt 0.479080 0.547980
vt 0.250419 0.547980
vt 0.479080 0.571048
vt 0.250419 0.567952
vt 0.759191 0.698560
vt 0.567383 0.698560
vt 0.567383 0.689712
vt 0.759191 0.689712
vt 0.145848 0.423201
vt 0.145848 0.124598
vt 0.122780 0.124598
vt 0.137597 0.177996
vt 0.122780 0.177996
vt 0.137597 0.369803
vt 0.122780 0.423201
vt 0.122780 0.369803
vt 0.107961 0.177996
vt 0.107961 0.369803
vt 0.780994 0.908315
vt 0.766176 0.910662
vt 0.766176 0.698560
vt 0.780994 0.689712
vt 0.560398 0.900263
vt 0.368590 0.900263
vt 0.832842 0.910662
vt 0.818024 0.908315
vt 0.818024 0.689712
vt 0.832842 0.698560
vt 0.759191 0.910662
vt 0.567383 0.910662
vt 0.795812 0.910662
vt 0.795812 0.698560
vt 0.803206 0.910662
vt 0.803206 0.698560
vt 0.161118 0.001818
vt 0.195703 0.001818
vt 0.223150 0.001818
vt 0.410385 0.423201
vt 0.375799 0.423201
vt 0.337461 0.423201
vt 0.299123 0.423201
vt 0.264538 0.423201
vt 0.453322 0.001818
vt 0.480769 0.001818
vt 0.515355 0.001818
vt 0.553693 0.001818
vt 0.592031 0.001818
vt 0.626616 0.001818
vt 0.654063 0.001818
vt 0.697205 0.001818
vt 0.731790 0.001818
vt 0.770128 0.001818
vt 0.808467 0.001818
vt 0.843052 0.001818
vt 0.022409 0.001818
vt 0.049856 0.001818
vt 0.084441 0.001818
vt 0.103610 0.001818
vt 0.122780 0.001818
vt 0.141949 0.001818
vn 0.933443 0.000000 -0.358727
vn 0.809017 0.000000 -0.587785
vn 0.809017 0.000000 -0.587785
vn 0.933443 0.000000 -0.358727
vn 0.809017 0.000000 -0.587785
vn 0.587785 0.000000 -0.809017
vn 0.587785 0.000000 -0.809017
vn 0.809017 0.000000 -0.587785
vn 0.587785 0.000000 -0.809017
vn 0.309017 0.000000 -0.951057
vn 0.309017 0.000000 -0.951057
vn 0.587785 0.000000 -0.809017
vn 0.309017 0.000000 -0.951057
vn -0.000000 0.000000 -1.000000
vn -0.000000 0.000000 -1.000000
vn 0.309017 0.000000 -0.951057
vn -0.000000 0.000000 -1.000000
vn -0.309017 0.000001 -0.951057
vn -0.309017 0.000001 -0.951057
vn -0.000000 0.000000 -1.000000
vn -0.309017 0.000001 -0.951057
vn -0.587786 0.000000 -0.809017
vn -0.587786 0.000000 -0.809017
vn -0.309017 0.000001 -0.951057
vn -0.587786 0.000000 -0.809017
vn -0.809017 0.000000 -0.587785
vn -0.809017 0.000000 -0.587785
vn -0.587786 0.000000 -0.809017
vn -0.809017 0.000000 -0.587785
vn -0.951057 0.000000 -0.309017
vn -0.951057 0.000000 -0.309017
vn -0.809017 0.000000 -0.587785
vn -0.951057 0.000000 -0.309017
vn -1.000000 0.000000 0.000000
vn -1.000000 0.000000 0.000000
vn -0.951057 0.000000 -0.309017
vn -1.000000 0.000000 0.000000
vn -0.951056 0.000000 0.309017
vn -0.951056 0.000000 0.309017
vn -1.000000 0.000000 0.000000
vn -0.951056 0.000000 0.309017
vn -0.809017 0.000000 0.587785
vn -0.809017 0.000000 0.587785
vn -0.951056 0.000000 0.309017
vn -0.809017 0.000000 0.587785
vn -0.587785 0.000000 0.809017
vn -0.587785 0.000000 0.809017
vn -0.809017 0.000000 0.587785
vn -0.587785 0.000000 0.809017
vn -0.309017 0.000000 0.951057
vn -0.309017 0.000000 0.951057
vn -0.587785 0.000000 0.809017
vn -0.309017 0.000000 0.951057
vn 0.000000 0.000001 1.000000
vn 0.000000 0.000001 1.000000
vn -0.309017 0.000000 0.951057
vn 0.000000 0.000001 1.000000
vn 0.309017 0.000000 0.951056
vn 0.309017 0.000000 0.951056
vn 0.000000 0.000001 1.000000
vn 0.309017 0.000000 0.951056
vn 0.587785 0.000000 0.809017
vn 0.587785 0.000000 0.809017
vn 0.309017 0.000000 0.951056
vn 0.587785 0.000000 0.809017
vn 0.809017 0.000000 0.587785
vn 0.809017 0.000000 0.587785
vn 0.587785 0.000000 0.809017
vn 0.809017 0.000000 0.587785
vn 0.933442 0.000000 0.358728
vn 0.933442 0.000000 0.358728
vn 0.809017 0.000000 0.587785
vn 0.933442 0.000000 0.358728
vn 0.987688 0.000000 0.156434
vn 0.987688 0.000000 0.156434
vn 0.933442 0.000000 0.358728
vn 1.000000 0.000000 0.000005
vn 0.858579 0.000000 -0.512682
vn 0.858579 0.000000 -0.512682
vn 1.000000 0.000000 0.000005
vn 0.000000 -1.000000 0.000000
vn 0.000000 -1.000000 0.000000
vn 0.000000 -1.000000 0.000000
vn 0.000000 -1.000000 0.000000
vn 0.000000 -1.000000 0.000000
vn 0.000000 -1.000000 0.000000
vn 0.000000 -1.000000 0.000000
vn 0.000000 -1.000000 0.000000
vn 0.000000 -1.000000 0.000000
vn 0.000000 -1.000000 0.000000
vn 0.000000 -1.000000 0.000000
vn 0.000000 -1.000000 0.000000
vn 0.000000 -1.000000 0.000000
vn 0.000000 -1.000000 0.000000
vn 0.000000 -1.000000 0.000000
vn 0.000000 -1.000000 0.000000
vn 0.000000 -1.000000 0.000000
vn 0.000000 -1.000000 0.000000
vn 0.000000 -1.000000 0.000000
vn 0.000000 -1.000000 0.000000
vn 0.000000 -1.000000 0.000000
vn 0.000000 -1.000000 0.000000
vn 0.000000 -1.000000 0.000000
vn 0.000000 -1.000000 0.000000
vn 0.000000 -1.000000 0.000000
vn 0.000000 -1.000000 0.000000
vn 0.000000 -1.000000 0.000000
vn 0.000000 -1.000000 0.000000
vn 0.000000 -1.000000 0.000000
vn 0.000000 -1.000000 0.000000
vn 0.000000 -1.000000 0.000000
vn 0.000000 -1.000000 0.000000
vn 0.000000 -1.000000 0.000000
vn 0.000000 -1.000000 0.000000
vn 0.000000 -1.000000 0.000000
vn 0.000000 -1.000000 0.000000
vn 0.000000 -1.000000 0.000000
vn 0.000000 -1.000000 0.000000
vn 0.000000 -1.000000 0.000000
vn 0.000000 -1.000000 0.000000
vn 0.000000 -1.000000 0.000000
vn 0.000000 -1.000000 0.000000
vn 0.000000 -1.000000 0.000000
vn 0.000000 -1.000000 0.000000
vn 0.000000 -1.000000 0.000000
vn 0.000000 -1.000000 0.000000
vn 0.000000 -1.000000 0.000000
vn 0.000000 -1.000000 0.000000
vn 0.000000 -1.000000 0.000000
vn 0.000000 -1.000000 0.000000
vn 0.000000 -1.000000 0.000000
vn 0.000000 -1.000000 0.000000
vn 0.000000 -1.000000 0.000000
vn 0.000000 -1.000000 0.000000
vn 0.000000 -1.000000 0.000000
vn 0.000000 -1.000000 0.000000
vn 0.000000 -1.000000 0.000000
vn 0.000000 -1.000000 0.000000
vn 0.000000 -1.000000 0.000000
vn 0.000000 -1.000000 0.000000
vn 0.000000 -1.000000 0.000000
vn 0.000000 -1.000000 0.000000
vn 0.000000 1.000000 0.000000
vn 0.000000 1.000000 0.000000
vn 0.000000 1.000000 0.000000
vn 0.000000 1.000000 0.000000
vn 0.000000 1.000000 0.000000
vn 0.000000 1.000000 0.000000
vn 0.000000 1.000000 0.000000
vn 0.000000 1.000000 0.000000
vn 0.000000 1.000000 0.000000
vn 0.000000 1.000000 0.000000
vn 0.000000 1.000000 0.000000
vn 0.000000 1.000000 0.000000
vn 0.000000 1.000000 0.000000
vn 0.000000 1.000000 0.000000
vn 0.000000 1.000000 0.000000
vn 0.000000 1.000000 0.000000
vn 0.000000 1.000000 0.000000
vn 0.000000 1.000000 0.000000
vn 0.000000 1.000000 0.000000
vn 0.000000 1.000000 0.000000
vn 0.000000 1.000000 0.000000
vn 0.000000 1.000000 0.000000
vn 0.000000 1.000000 0.000000
vn 0.000000 1.000000 0.000000
vn 0.000000 1.000000 0.000000
vn 0.000000 1.000000 0.000000
vn 0.000000 1.000000 0.000000
vn 0.000000 1.000000 0.000000
vn 0.000000 1.000000 0.000000
vn 0.000000 1.000000 0.000000
vn 0.000000 1.000000 0.000000
vn 0.000000 1.000000 0.000000
vn 0.000000 1.000000 0.000000
vn 0.000000 1.000000 0.000000
vn 0.000000 1.000000 0.000000
vn 0.000000 1.000000 0.000000
vn 0.000000 1.000000 0.000000
vn 0.000000 1.000000 0.000000
vn 0.000000 1.000000 0.000000
vn 0.000000 1.000000 0.000000
vn 0.000000 1.000000 0.000000
vn 0.000000 1.000000 0.000000
vn 0.000000 1.000000 0.000000
vn 0.000000 1.000000 0.000000
vn 0.000000 1.000000 0.000000
vn 0.000000 1.000000 0.000000
vn 0.000000 1.000000 0.000000
vn 0.000000 1.000000 0.000000
vn 0.000000 1.000000 0.000000
vn 0.000000 1.000000 0.000000
vn 0.000000 1.000000 0.000000
vn 0.000000 1.000000 0.000000
vn 0.000000 1.000000 0.000000
vn 0.000000 1.000000 0.000000
vn 0.000000 1.000000 0.000000
vn 0.000000 1.000000 0.000000
vn 0.000000 1.000000 0.000000
vn 0.000000 1.000000 0.000000
vn 0.000000 1.000000 0.000000
vn 0.000000 1.000000 0.000000
vn 0.000000 1.000000 0.000000
vn -0.668497 0.661130 0.340616
vn -0.668497 0.661130 0.340616
vn -0.668497 0.661130 0.340616
vn -0.668497 0.661130 0.340616
vn -0.530521 0.661130 0.530522
vn -0.530521 0.661130 0.530522
vn -0.530521 0.661130 0.530522
vn -0.530521 0.661130 0.530522
vn -0.340616 0.661130 0.668497
vn -0.340616 0.661130 0.668497
vn -0.340616 0.661130 0.668497
vn -0.340616 0.661130 0.668497
vn -0.117368 0.661130 0.741034
vn -0.117368 0.661130 0.741034
vn -0.117368 0.661130 0.741034
vn -0.117368 0.661130 0.741034
vn 0.117369 0.661130 0.741035
vn 0.117369 0.661130 0.741035
vn 0.117369 0.661130 0.741035
vn 0.117369 0.661130 0.741035
vn 0.340616 0.661130 0.668497
vn 0.340616 0.661130 0.668497
vn 0.340616 0.661130 0.668497
vn 0.340616 0.661130 0.668497
vn 0.530522 0.661130 0.530522
vn 0.530522 0.661130 0.530522
vn 0.530522 0.661130 0.530522
vn 0.530522 0.661130 0.530522
vn 0.668497 0.661130 0.340616
vn 0.668497 0.661130 0.340616
vn 0.668497 0.661130 0.340616
vn 0.668497 0.661130 0.340616
vn 0.741034 0.661130 0.117369
vn 0.741034 0.661130 0.117369
vn 0.741034 0.661130 0.117369
vn 0.741034 0.661130 0.117369
vn 0.741035 0.661130 -0.117369
vn 0.741035 0.661130 -0.117369
vn 0.741035 0.661130 -0.117369
vn 0.741035 0.661130 -0.117369
vn 0.668497 0.661129 -0.340617
vn 0.668497 0.661129 -0.340617
vn 0.668497 0.661129 -0.340617
vn 0.668497 0.661129 -0.340617
vn 0.530522 0.661130 -0.530522
vn 0.530522 0.661130 -0.530522
vn 0.530522 0.661130 -0.530522
vn 0.530522 0.661130 -0.530522
vn 0.340616 0.661130 -0.668497
vn 0.340616 0.661130 -0.668497
vn 0.340616 0.661130 -0.668497
vn 0.340616 0.661130 -0.668497
vn 0.117368 0.661129 -0.741035
vn 0.117368 0.661130 -0.741035
vn 0.117368 0.661129 -0.741035
vn 0.117368 0.661129 -0.741035
vn -0.117368 0.661129 -0.741035
vn -0.117368 0.661129 -0.741035
vn -0.117368 0.661130 -0.741035
vn -0.117368 0.661129 -0.741035
vn -0.340616 0.661130 -0.668497
vn -0.340616 0.661130 -0.668497
vn -0.340616 0.661130 -0.668497
vn -0.340616 0.661130 -0.668497
vn -0.530522 0.661130 -0.530522
vn -0.530522 0.661130 -0.530522
vn -0.530522 0.661130 -0.530522
vn -0.530522 0.661130 -0.530522
vn -0.668498 0.661129 -0.340616
vn -0.668498 0.661129 -0.340616
vn -0.668498 0.661129 -0.340616
vn -0.668498 0.661129 -0.340616
vn -0.741035 0.661129 -0.117369
vn -0.741035 0.661129 -0.117369
vn -0.741035 0.661129 -0.117369
vn -0.741035 0.661129 -0.117369
vn -0.741035 0.661129 -0.117369
vn -0.741035 0.661130 0.117368
vn -0.741035 0.661129 0.117367
vn -0.741035 0.661129 0.117367
vn -0.741035 0.661129 0.117368
vn 0.858575 0.000000 0.512688
vn 0.858575 0.000000 0.512688
vn 1.000000 0.000000 0.000005
vn 1.000000 0.000000 0.000005
vn 0.987689 0.000000 -0.156433
vn 0.987689 0.000000 -0.156433
vn 0.933443 0.000000 -0.358727
vn 0.933443 0.000000 -0.358727
vn -0.741035 0.661129 0.117367
vn -0.741035 0.661129 0.117367
vn -0.741035 0.661129 0.117367
vn -0.741035 0.661129 0.117367
vn 0.980296 0.122117 -0.155263
vn 0.980296 0.122117 -0.155263
vn 0.980296 0.122117 -0.155263
vn 0.980296 0.122117 -0.155263
vn 0.996879 0.000000 -0.078946
vn 0.996879 0.000000 -0.078946
vn 0.996879 0.000000 -0.078946
vn 0.996879 0.000000 -0.078946
vn 0.980296 -0.122117 -0.155263
vn 0.980296 -0.122117 -0.155263
vn 0.980296 -0.122117 -0.155263
vn 0.980296 -0.122117 -0.155263
vn 0.996879 0.000000 0.078945
vn 0.996879 0.000000 0.078945
vn 0.996879 0.000000 0.078945
vn 0.996879 0.000000 0.078945
vn 0.980296 0.122119 0.155266
vn 0.980296 0.122119 0.155266
vn 0.980296 0.122119 0.155266
vn 0.980296 0.122119 0.155266
vn 0.980296 -0.122119 0.155266
vn 0.980296 -0.122119 0.155266
vn 0.980296 -0.122119 0.155266
vn 0.980296 -0.122119 0.155266
vn 0.000000 -1.000000 0.000000
vn 0.000000 -1.000000 0.000000
vn 0.000000 -1.000000 0.000000
vn 0.000000 -1.000000 0.000000
vn 0.000000 0.000000 -1.000000
vn 0.000000 0.000000 -1.000000
vn 0.000000 0.000000 -1.000000
vn 0.000000 0.000000 -1.000000
vn 0.000000 1.000000 0.000000
vn 0.000000 1.000000 0.000000
vn 0.000000 1.000000 0.000000
vn 0.000000 1.000000 0.000000
vn 0.000000 0.000000 1.000000
vn 0.000000 0.000000 1.000000
vn 0.000000 0.000000 1.000000
vn 0.000000 0.000000 1.000000
vn 0.000000 -1.000000 0.000000
vn 0.000000 -1.000000 0.000000
vn 0.000000 -1.000000 0.000000
vn 0.000000 -1.000000 0.000000
vn 0.000000 1.000000 0.000000
vn 0.000000 1.000000 0.000000
vn 0.000000 1.000000 0.000000
vn 0.000000 1.000000 0.000000
vn 0.388050 -0.900180 -0.197721
vn 0.388050 -0.900180 -0.197721
vn 0.388050 -0.900180 -0.197721
vn 0.388050 -0.900180 -0.197721
vn 0.307958 -0.900180 -0.307958
vn 0.307958 -0.900180 -0.307958
vn 0.307958 -0.900180 -0.307958
vn 0.307958 -0.900180 -0.307958
vn 0.197721 -0.900180 -0.388049
vn 0.197721 -0.900180 -0.388049
vn 0.197721 -0.900180 -0.388049
vn 0.197721 -0.900180 -0.388049
vn 0.068130 -0.900180 -0.430156
vn 0.068130 -0.900180 -0.430156
vn 0.068130 -0.900180 -0.430156
vn 0.068130 -0.900180 -0.430156
vn -0.068130 -0.900180 -0.430156
vn -0.068130 -0.900180 -0.430156
vn -0.068130 -0.900180 -0.430156
vn -0.068130 -0.900180 -0.430156
vn -0.197721 -0.900180 -0.388050
vn -0.197721 -0.900180 -0.388050
vn -0.197721 -0.900180 -0.388050
vn -0.197721 -0.900180 -0.388050
vn -0.307958 -0.900180 -0.307958
vn -0.307958 -0.900180 -0.307958
vn -0.307958 -0.900180 -0.307958
vn -0.307958 -0.900180 -0.307958
vn -0.388050 -0.900180 -0.197721
vn -0.388050 -0.900180 -0.197721
vn -0.388050 -0.900180 -0.197721
vn -0.388050 -0.900180 -0.197721
vn -0.430156 -0.900180 -0.068130
vn -0.430156 -0.900180 -0.068130
vn -0.430156 -0.900180 -0.068130
vn -0.430156 -0.900180 -0.068130
vn -0.430156 -0.900180 0.068130
vn -0.430156 -0.900180 0.068130
vn -0.430156 -0.900180 0.068130
vn -0.430156 -0.900180 0.068130
vn -0.388050 -0.900180 0.197721
vn -0.388050 -0.900180 0.197721
vn -0.388050 -0.900180 0.197721
vn -0.388050 -0.900180 0.197721
vn -0.307958 -0.900180 0.307958
vn -0.307958 -0.900180 0.307958
vn -0.307958 -0.900180 0.307958
vn -0.307958 -0.900180 0.307958
vn -0.197721 -0.900180 0.388049
vn -0.197721 -0.900180 0.388050
vn -0.197721 -0.900180 0.388049
vn -0.197721 -0.900180 0.388050
vn -0.068130 -0.900180 0.430156
vn -0.068130 -0.900180 0.430156
vn -0.068130 -0.900180 0.430156
vn -0.068130 -0.900180 0.430156
vn 0.068130 -0.900180 0.430156
vn 0.068130 -0.900180 0.430156
vn 0.068130 -0.900180 0.430156
vn 0.068130 -0.900180 0.430156
vn 0.197721 -0.900180 0.388050
vn 0.197721 -0.900180 0.388050
vn 0.197721 -0.900180 0.388050
vn 0.197721 -0.900180 0.388050
vn 0.307958 -0.900180 0.307958
vn 0.307958 -0.900180 0.307958
vn 0.307958 -0.900180 0.307958
vn 0.307958 -0.900180 0.307958
vn 0.388050 -0.900180 0.197721
vn 0.388050 -0.900180 0.197721
vn 0.388050 -0.900180 0.197721
vn 0.388050 -0.900180 0.197721
vn 0.430156 -0.900180 0.068131
vn 0.430156 -0.900180 0.068131
vn 0.430156 -0.900180 0.068131
vn 0.430156 -0.900180 0.068131
vn 0.430156 -0.900180 0.068130
vn 0.430156 -0.900180 0.068130
vn 0.430156 -0.900180 0.068130
vn 0.430156 -0.900180 0.068130
vn 0.430156 -0.900180 -0.068129
vn 0.430156 -0.900180 -0.068129
vn 0.430156 -0.900180 -0.068129
vn 0.430156 -0.900180 -0.068129
vn 0.430156 -0.900180 -0.068129
vn 0.430156 -0.900180 -0.068129
vn 0.430156 -0.900180 -0.068129
vn 0.430156 -0.900180 -0.068129
s off
g Pan:pCylinder6
usemtl lambert2SG
f 1/1/1 2/2/2 22/3/3 21/4/4
f 2/2/5 3/5/6 23/6/7 22/3/8
f 3/7/9 4/8/10 24/9/11 23/10/12
f 4/8/13 5/11/14 25/12/15 24/9/16
f 5/11/17 6/13/18 26/14/19 25/12/20
f 6/13/21 7/15/22 27/16/23 26/14/24
f 7/17/25 8/18/26 28/19/27 27/20/28
f 8/18/29 9/21/30 29/22/31 28/19/32
f 9/21/33 10/23/34 30/24/35 29/22/36
f 10/23/37 11/25/38 31/26/39 30/24/40
f 11/25/41 12/27/42 32/28/43 31/26/44
f 12/27/45 13/29/46 33/30/47 32/28/48
f 13/31/49 14/32/50 34/33/51 33/34/52
f 14/32/53 15/35/54 35/36/55 34/33/56
f 15/35/57 16/37/58 36/38/59 35/36/60
f 16/37/61 17/39/62 37/40/63 36/38/64
f 17/41/65 18/42/66 38/43/67 37/44/68
f 18/42/69 19/45/70 39/46/71 38/43/72
f 19/45/73 62/47/74 63/48/75 39/46/76
f 73/49/77 74/50/78 75/51/79 76/52/80
f 80/53/81 79/54/82 81/55/83
f 82/56/84 80/53/85 81/55/86
f 83/57/87 82/56/88 81/55/89
f 84/58/90 83/57/91 81/55/92
f 85/59/93 84/58/94 81/55/95
f 86/60/96 85/59/97 81/55/98
f 87/61/99 86/60/100 81/55/101
f 88/62/102 87/61/103 81/55/104
f 89/63/105 88/62/106 81/55/107
f 90/64/108 89/63/109 81/55/110
f 91/65/111 90/64/112 81/55/113
f 92/66/114 91/65/115 81/55/116
f 93/67/117 92/66/118 81/55/119
f 94/68/120 93/67/121 81/55/122
f 95/69/123 94/68/124 81/55/125
f 96/70/126 95/69/127 81/55/128
f 97/71/129 96/70/130 81/55/131
f 98/72/132 97/71/133 81/55/134
f 100/73/135 99/74/136 98/72/137 81/55/138
f 79/54/139 101/75/140 100/73/141 81/55/142
f 41/76/143 42/77/144 43/78/145
f 42/77/146 44/79/147 43/78/148
f 44/79/149 45/80/150 43/78/151
f 45/80/152 46/81/153 43/78/154
f 46/81/155 47/82/156 43/78/157
f 47/82/158 48/83/159 43/78/160
f 48/83/161 49/84/162 43/78/163
f 49/84/164 50/85/165 43/78/166
f 50/85/167 51/86/168 43/78/169
f 51/86/170 52/87/171 43/78/172
f 52/87/173 53/88/174 43/78/175
f 53/88/176 54/89/177 43/78/178
f 54/89/179 55/90/180 43/78/181
f 55/90/182 56/91/183 43/78/184
f 56/91/185 57/92/186 43/78/187
f 57/92/188 58/93/189 43/78/190
f 58/93/191 59/94/192 43/78/193
f 59/94/194 60/95/195 43/78/196
f 60/95/197 61/96/198 43/78/199
f 61/96/200 66/97/201 41/76/202 43/78/203
f 21/98/204 22/99/205 42/100/206 41/101/207
f 22/99/208 23/102/209 44/103/210 42/100/211
f 23/104/212 24/105/213 45/106/214 44/107/215
f 24/105/216 25/108/217 46/109/218 45/106/219
f 25/108/220 26/110/221 47/111/222 46/109/223
f 26/110/224 27/112/225 48/113/226 47/111/227
f 27/114/228 28/115/229 49/116/230 48/117/231
f 28/115/232 29/118/233 50/119/234 49/116/235
f 29/118/236 30/120/237 51/121/238 50/119/239
f 30/120/240 31/122/241 52/123/242 51/121/243
f 31/122/244 32/124/245 53/125/246 52/123/247
f 32/124/248 33/126/249 54/127/250 53/125/251
f 33/128/252 34/129/253 55/130/254 54/131/255
f 34/129/256 35/132/257 56/133/258 55/130/259
f 35/132/260 36/134/261 57/135/262 56/133/263
f 36/134/264 37/136/265 58/137/266 57/135/267
f 37/138/268 38/139/269 59/140/270 58/141/271
f 38/139/272 39/142/273 60/143/274 59/140/275
f 39/142/276 63/144/277 40/145/278 61/146/279 60/143/280
f 40/145/281 65/147/282 66/148/283 61/146/284
f 78/149/285 77/150/286 73/151/287 76/152/288
f 65/153/289 64/154/290 1/1/291 21/4/292
f 66/148/293 65/147/294 21/98/295 41/101/296
f 20/155/297 64/154/298 68/156/299 67/157/300
f 64/154/301 65/153/302 69/158/303 68/156/304
f 65/153/305 40/159/306 70/160/307 69/158/308
f 63/48/309 62/47/310 71/161/311 72/162/312
f 62/47/313 20/155/314 67/157/315 71/161/316
f 40/159/317 63/48/318 72/162/319 70/160/320
f 67/163/321 68/164/322 74/165/323 73/166/324
f 68/167/325 69/168/326 75/51/327 74/50/328
f 69/169/329 70/170/330 76/171/331 75/172/332
f 72/173/333 71/174/334 77/150/335 78/149/336
f 71/175/337 67/163/338 73/166/339 77/176/340
f 70/170/341 72/177/342 78/178/343 76/171/344
f 2/2/345 1/1/346 79/179/347 80/180/348
f 3/5/349 2/2/350 80/180/351 82/181/352
f 4/8/353 3/7/354 82/182/355 83/183/356
f 5/11/357 4/8/358 83/183/359 84/184/360
f 6/13/361 5/11/362 84/184/363 85/185/364
f 7/15/365 6/13/366 85/185/367 86/186/368
f 8/18/369 7/17/370 86/187/371 87/188/372
f 9/21/373 8/18/374 87/188/375 88/189/376
f 10/23/377 9/21/378 88/189/379 89/190/380
f 11/25/381 10/23/382 89/190/383 90/191/384
f 12/27/385 11/25/386 90/191/387 91/192/388
f 13/29/389 12/27/390 91/192/391 92/193/392
f 14/32/393 13/31/394 92/194/395 93/195/396
f 15/35/397 14/32/398 93/195/399 94/196/400
f 16/37/401 15/35/402 94/196/403 95/197/404
f 17/39/405 16/37/406 95/197/407 96/198/408
f 18/42/409 17/41/410 96/199/411 97/200/412
f 19/45/413 18/42/414 97/200/415 98/201/416
f 20/155/417 62/47/418 99/202/419 100/203/420
f 62/47/421 19/45/422 98/201/423 99/202/424
f 1/1/425 64/154/426 101/204/427 79/179/428
f 64/154/429 20/155/430 100/203/431 101/204/432
