# This file uses centimeters as units for non-parametric coordinates.

mtllib plate.mtl
g default
v -4.388916 -0.851081 1.271744
v 3.322746 -0.851081 3.136765
v -5.841156 1.000371 1.692551
v 4.422203 1.000371 4.174667
v -4.422211 1.000371 -4.174698
v 5.841164 1.000371 -1.692551
v -3.322746 -0.851081 -3.136765
v 4.388924 -0.851081 -1.271744
v -5.337868 1.222611 1.546707
v 4.041191 1.222611 3.814957
v 5.337868 1.222611 -1.546738
v -4.041183 1.222611 -3.814987
v -3.891846 0.139005 1.127701
v 2.946434 0.139005 2.781479
v 3.891853 0.139005 -1.127731
v -2.946434 0.139005 -2.781509
v 6.842247 1.000371 1.654739
v -6.842247 1.000371 -1.654770
v 4.231697 1.271070 3.994827
v -0.864464 1.222611 3.574448
v -5.589516 1.271070 1.619614
v 5.589516 1.271070 -1.619644
v 6.252708 1.222611 1.512161
v -4.231697 1.271070 -3.994827
v 0.864464 1.222611 -3.574478
v -6.252701 1.222611 -1.512192
v 3.977684 0.835055 3.755020
v -5.253990 0.835055 1.522415
v 5.253990 0.835055 -1.522415
v -3.977676 0.835055 -3.755051
v -0.576271 -1.053691 2.382828
v 4.485710 0.198573 4.234634
v -0.945961 1.000371 3.911484
v -5.925041 0.198573 1.716843
v -0.638161 -0.104613 2.638718
v 4.615837 -0.104613 1.116287
v 0.638161 -0.104613 -2.638718
v -4.615829 -0.104613 -1.116318
v 0.945976 1.000371 -3.911514
v 5.925041 0.198573 -1.716873
v 0.576271 -1.053691 -2.382858
v -4.485710 0.198573 -4.234634
v 5.205376 -0.798726 1.258865
v -5.205376 -0.798726 -1.258896
v -0.959557 0.198573 3.967667
v 0.000008 -0.417836 -0.000015
v 0.959557 0.198573 -3.967667
v 0.000008 -1.271070 -0.000015
v 6.940498 0.198573 1.678513
v -6.940498 0.198573 -1.678513
v -0.905205 1.271070 3.742966
v 6.547478 1.271070 1.583450
v 0.905220 1.271070 -3.742996
v -6.547470 1.271070 -1.583481
v -0.850868 0.835055 3.518295
v 6.154442 0.835055 1.488388
v 0.850883 0.835055 -3.518295
v -6.154442 0.835055 -1.488419
vt 0.704247 0.578377
vt 0.578309 0.720572
vt 0.534816 0.657981
vt 0.691270 0.501021
vt 0.401220 0.789283
vt 0.333275 0.750204
vt 0.314809 0.722732
vt 0.517261 0.632742
vt 0.671964 0.474105
vt 0.567503 0.467993
vt 0.469418 0.564055
vt 0.410941 0.480088
vt 0.557218 0.374924
vt 0.345288 0.622698
vt 0.261565 0.580799
vt 0.253070 0.488226
vt 0.353096 0.397045
vt 0.473320 0.334859
vt 0.499197 0.232471
vt 0.306993 0.330878
vt 0.290202 0.306760
vt 0.482431 0.201170
vt 0.148032 0.477012
vt 0.124492 0.450409
vt 0.125867 0.361949
vt 0.249970 0.248956
vt 0.399015 0.171778
vt 0.197060 0.172937
vt 0.397710 0.063309
vt 0.024593 0.323043
vt 0.012000 0.209278
vt 0.141773 0.093501
vt 0.295407 0.012000
vt 0.316662 0.879255
vt 0.245762 0.839536
vt 0.288100 0.988000
vt 0.212244 0.968439
vt 0.180727 0.958244
vt 0.217931 0.822837
vt 0.929924 0.541723
vt 0.818046 0.530553
vt 0.805567 0.450247
vt 0.938058 0.463807
vt 0.799626 0.418338
vt 0.939507 0.430716
vt 0.510259 0.622692
vt 0.656418 0.472051
vt 0.318250 0.707460
vt 0.322563 0.697634
vt 0.506373 0.617116
vt 0.645685 0.472700
vt 0.165236 0.645830
vt 0.179371 0.636197
vt 0.163645 0.479949
vt 0.174470 0.479920
vt 0.189814 0.629101
vt 0.313705 0.340507
vt 0.496565 0.248118
vt 0.492801 0.258252
vt 0.317422 0.345837
vt 0.651622 0.307126
vt 0.637701 0.317067
vt 0.627423 0.324400
vt 0.497819 0.604839
vt 0.630454 0.467712
vt 0.323174 0.681624
vt 0.202763 0.620367
vt 0.189689 0.485613
vt 0.325691 0.357701
vt 0.492859 0.274502
vt 0.614731 0.333504
vn -0.245608 -0.930180 0.272840
vn -0.075258 -0.947365 0.311186
vn -0.204098 -0.496117 0.843926
vn -0.555911 -0.559223 0.615006
vn -0.075258 -0.947365 0.311186
vn 0.093788 -0.930180 0.354921
vn 0.213443 -0.559223 0.801069
vn -0.204098 -0.496117 0.843926
vn -0.204098 -0.496117 0.843926
vn 0.213443 -0.559223 0.801069
vn 0.269141 0.254628 0.928831
vn -0.230249 0.201413 0.952060
vn -0.555911 -0.559223 0.615006
vn -0.204098 -0.496117 0.843926
vn -0.230249 0.201413 0.952060
vn -0.663836 0.254628 0.703197
vn 0.250289 0.931161 -0.265130
vn 0.080471 0.939578 -0.332742
vn -0.000000 1.000000 -0.000000
vn 0.198196 0.978990 0.047932
vn 0.080471 0.939578 -0.332742
vn -0.101476 0.931161 -0.350202
vn -0.198196 0.978990 -0.047932
vn -0.000000 1.000000 -0.000000
vn -0.000000 1.000000 -0.000000
vn -0.198196 0.978990 -0.047932
vn -0.250289 0.931161 0.265130
vn -0.080471 0.939578 0.332742
vn 0.198196 0.978990 0.047932
vn -0.000000 1.000000 -0.000000
vn -0.080471 0.939578 0.332742
vn 0.101476 0.931161 0.350202
vn -0.269141 0.254628 -0.928831
vn 0.230249 0.201413 -0.952060
vn 0.204098 -0.496117 -0.843926
vn -0.213443 -0.559223 -0.801069
vn 0.230249 0.201413 -0.952060
vn 0.663836 0.254628 -0.703197
vn 0.555911 -0.559223 -0.615006
vn 0.204098 -0.496117 -0.843926
vn 0.204098 -0.496117 -0.843926
vn 0.555911 -0.559223 -0.615006
vn 0.245608 -0.930180 -0.272840
vn 0.075258 -0.947365 -0.311186
vn -0.213443 -0.559223 -0.801069
vn 0.204098 -0.496117 -0.843926
vn 0.075258 -0.947365 -0.311186
vn -0.093789 -0.930180 -0.354921
vn -0.093789 -0.930180 -0.354921
vn 0.075258 -0.947365 -0.311186
vn 0.000000 -1.000000 0.000000
vn -0.247247 -0.967106 -0.059795
vn 0.075258 -0.947365 -0.311186
vn 0.245608 -0.930180 -0.272840
vn 0.247247 -0.967106 0.059795
vn 0.000000 -1.000000 0.000000
vn 0.000000 -1.000000 0.000000
vn 0.247247 -0.967106 0.059795
vn 0.093788 -0.930180 0.354921
vn -0.075258 -0.947365 0.311186
vn -0.247247 -0.967106 -0.059795
vn 0.000000 -1.000000 0.000000
vn -0.075258 -0.947365 0.311186
vn -0.245608 -0.930180 0.272840
vn 0.093788 -0.930180 0.354921
vn 0.247247 -0.967106 0.059795
vn 0.744367 -0.643048 0.180020
vn 0.213443 -0.559223 0.801069
vn 0.247247 -0.967106 0.059795
vn 0.245608 -0.930180 -0.272840
vn 0.555911 -0.559223 -0.615006
vn 0.744367 -0.643048 0.180020
vn 0.744367 -0.643048 0.180020
vn 0.555911 -0.559223 -0.615006
vn 0.663836 0.254628 -0.703197
vn 0.914612 0.338465 0.221193
vn 0.213443 -0.559223 0.801069
vn 0.744367 -0.643048 0.180020
vn 0.914612 0.338465 0.221193
vn 0.269141 0.254628 0.928831
vn -0.093789 -0.930180 -0.354921
vn -0.247247 -0.967106 -0.059795
vn -0.744367 -0.643048 -0.180020
vn -0.213443 -0.559223 -0.801069
vn -0.247247 -0.967106 -0.059795
vn -0.245608 -0.930180 0.272840
vn -0.555911 -0.559223 0.615006
vn -0.744367 -0.643048 -0.180020
vn -0.744367 -0.643048 -0.180020
vn -0.555911 -0.559223 0.615006
vn -0.663836 0.254628 0.703197
vn -0.914612 0.338465 -0.221193
vn -0.213443 -0.559223 -0.801069
vn -0.744367 -0.643048 -0.180020
vn -0.914612 0.338465 -0.221193
vn -0.269141 0.254628 -0.928831
vn -0.663836 0.254628 0.703197
vn -0.230249 0.201413 0.952060
vn -0.143950 0.790563 0.595221
vn -0.369469 0.842804 0.391375
vn -0.230249 0.201413 0.952060
vn 0.269141 0.254628 0.928831
vn 0.149796 0.842803 0.516956
vn -0.143950 0.790563 0.595221
vn -0.143950 0.790563 0.595221
vn 0.149796 0.842803 0.516956
vn -0.214449 0.637408 -0.740083
vn 0.201058 0.518095 -0.831356
vn -0.369469 0.842804 0.391375
vn -0.143950 0.790563 0.595221
vn 0.201058 0.518095 -0.831356
vn 0.528938 0.637408 -0.560300
vn 0.269141 0.254628 0.928831
vn 0.914612 0.338465 0.221193
vn 0.393556 0.914360 0.095179
vn 0.149796 0.842803 0.516956
vn 0.914612 0.338465 0.221193
vn 0.663836 0.254628 -0.703197
vn 0.369469 0.842804 -0.391375
vn 0.393556 0.914360 0.095179
vn 0.393556 0.914360 0.095179
vn 0.369469 0.842804 -0.391375
vn -0.528938 0.637408 0.560300
vn -0.667134 0.727256 -0.161342
vn 0.149796 0.842803 0.516956
vn 0.393556 0.914360 0.095179
vn -0.667134 0.727256 -0.161342
vn -0.214449 0.637408 -0.740083
vn 0.663836 0.254628 -0.703197
vn 0.230249 0.201413 -0.952060
vn 0.143950 0.790563 -0.595221
vn 0.369469 0.842804 -0.391375
vn 0.230249 0.201413 -0.952060
vn -0.269141 0.254628 -0.928831
vn -0.149796 0.842803 -0.516956
vn 0.143950 0.790563 -0.595221
vn 0.143950 0.790563 -0.595221
vn -0.149796 0.842803 -0.516956
vn 0.214449 0.637408 0.740083
vn -0.201058 0.518095 0.831356
vn 0.369469 0.842804 -0.391375
vn 0.143950 0.790563 -0.595221
vn -0.201058 0.518095 0.831356
vn -0.528938 0.637408 0.560300
vn -0.269141 0.254628 -0.928831
vn -0.914612 0.338465 -0.221193
vn -0.393556 0.914360 -0.095179
vn -0.149796 0.842803 -0.516956
vn -0.914612 0.338465 -0.221193
vn -0.663836 0.254628 0.703197
vn -0.369469 0.842804 0.391375
vn -0.393556 0.914360 -0.095179
vn -0.393556 0.914360 -0.095179
vn -0.369469 0.842804 0.391375
vn 0.528938 0.637408 -0.560300
vn 0.667134 0.727256 0.161342
vn -0.149796 0.842803 -0.516956
vn -0.393556 0.914360 -0.095179
vn 0.667134 0.727256 0.161342
vn 0.214449 0.637408 0.740083
vn 0.528938 0.637408 -0.560300
vn 0.201058 0.518095 -0.831356
vn 0.186211 0.610310 -0.769966
vn 0.498739 0.687129 -0.528311
vn 0.201058 0.518095 -0.831356
vn -0.214449 0.637408 -0.740083
vn -0.202205 0.687129 -0.697830
vn 0.186211 0.610310 -0.769966
vn 0.186211 0.610310 -0.769966
vn -0.202205 0.687129 -0.697830
vn -0.101476 0.931161 -0.350202
vn 0.080471 0.939578 -0.332742
vn 0.498739 0.687129 -0.528311
vn 0.186211 0.610310 -0.769966
vn 0.080471 0.939578 -0.332742
vn 0.250289 0.931161 -0.265130
vn -0.214449 0.637408 -0.740083
vn -0.667134 0.727256 -0.161342
vn -0.579186 0.803071 -0.140072
vn -0.202205 0.687129 -0.697830
vn -0.667134 0.727256 -0.161342
vn -0.528938 0.637408 0.560300
vn -0.498739 0.687129 0.528311
vn -0.579186 0.803071 -0.140072
vn -0.579186 0.803071 -0.140072
vn -0.498739 0.687129 0.528311
vn -0.250289 0.931161 0.265130
vn -0.198196 0.978990 -0.047932
vn -0.202205 0.687129 -0.697830
vn -0.579186 0.803071 -0.140072
vn -0.198196 0.978990 -0.047932
vn -0.101476 0.931161 -0.350202
vn -0.528938 0.637408 0.560300
vn -0.201058 0.518095 0.831356
vn -0.186211 0.610310 0.769966
vn -0.498739 0.687129 0.528311
vn -0.201058 0.518095 0.831356
vn 0.214449 0.637408 0.740083
vn 0.202205 0.687129 0.697830
vn -0.186211 0.610310 0.769966
vn -0.186211 0.610310 0.769966
vn 0.202205 0.687129 0.697830
vn 0.101476 0.931161 0.350202
vn -0.080471 0.939578 0.332742
vn -0.498739 0.687129 0.528311
vn -0.186211 0.610310 0.769966
vn -0.080471 0.939578 0.332742
vn -0.250289 0.931161 0.265130
vn 0.214449 0.637408 0.740083
vn 0.667134 0.727256 0.161342
vn 0.579186 0.803071 0.140072
vn 0.202205 0.687129 0.697830
vn 0.667134 0.727256 0.161342
vn 0.528938 0.637408 -0.560300
vn 0.498739 0.687129 -0.528311
vn 0.579186 0.803071 0.140072
vn 0.579186 0.803071 0.140072
vn 0.498739 0.687129 -0.528311
vn 0.250289 0.931161 -0.265130
vn 0.198196 0.978990 0.047932
vn 0.202205 0.687129 0.697830
vn 0.579186 0.803071 0.140072
vn 0.198196 0.978990 0.047932
vn 0.101476 0.931161 0.350202
s off
g plate:pCube72
usemtl lambert2SG
f 1/1/1 31/2/2 45/3/3 34/4/4
f 31/2/5 2/5/6 32/6/7 45/3/8
f 45/3/9 32/6/10 4/7/11 33/8/12
f 34/4/13 45/3/14 33/8/15 3/9/16
f 13/10/17 35/11/18 46/12/19 38/13/20
f 35/11/21 14/14/22 36/15/23 46/12/24
f 46/12/25 36/15/26 15/16/27 37/17/28
f 38/13/29 46/12/30 37/17/31 16/18/32
f 5/19/33 39/20/34 47/21/35 42/22/36
f 39/20/37 6/23/38 40/24/39 47/21/40
f 47/21/41 40/24/42 8/25/43 41/26/44
f 42/22/45 47/21/46 41/26/47 7/27/48
f 7/27/49 41/26/50 48/28/51 44/29/52
f 41/26/53 8/25/54 43/30/55 48/28/56
f 48/28/57 43/30/58 2/31/59 31/32/60
f 44/29/61 48/28/62 31/32/63 1/33/64
f 2/5/65 43/34/66 49/35/67 32/6/68
f 43/34/69 8/36/70 40/37/71 49/35/72
f 49/35/73 40/37/74 6/38/75 17/39/76
f 32/6/77 49/35/78 17/39/79 4/7/80
f 7/40/81 44/41/82 50/42/83 42/43/84
f 44/41/85 1/1/86 34/4/87 50/42/88
f 50/42/89 34/4/90 3/9/91 18/44/92
f 42/43/93 50/42/94 18/44/95 5/45/96
f 3/9/97 33/8/98 51/46/99 21/47/100
f 33/8/101 4/7/102 19/48/103 51/46/104
f 51/46/105 19/48/106 10/49/107 20/50/108
f 21/47/109 51/46/110 20/50/111 9/51/112
f 4/7/113 17/52/114 52/53/115 19/48/116
f 17/52/117 6/23/118 22/54/119 52/53/120
f 52/53/121 22/54/122 11/55/123 23/56/124
f 19/48/125 52/53/126 23/56/127 10/49/128
f 6/23/129 39/20/130 53/57/131 22/54/132
f 39/20/133 5/19/134 24/58/135 53/57/136
f 53/57/137 24/58/138 12/59/139 25/60/140
f 22/54/141 53/57/142 25/60/143 11/55/144
f 5/19/145 18/61/146 54/62/147 24/58/148
f 18/61/149 3/9/150 21/47/151 54/62/152
f 54/62/153 21/47/154 9/51/155 26/63/156
f 24/58/157 54/62/158 26/63/159 12/59/160
f 9/51/161 20/50/162 55/64/163 28/65/164
f 20/50/165 10/49/166 27/66/167 55/64/168
f 55/64/169 27/66/170 14/14/171 35/11/172
f 28/65/173 55/64/174 35/11/175 13/10/176
f 10/49/177 23/56/178 56/67/179 27/66/180
f 23/56/181 11/55/182 29/68/183 56/67/184
f 56/67/185 29/68/186 15/16/187 36/15/188
f 27/66/189 56/67/190 36/15/191 14/14/192
f 11/55/193 25/60/194 57/69/195 29/68/196
f 25/60/197 12/59/198 30/70/199 57/69/200
f 57/69/201 30/70/202 16/18/203 37/17/204
f 29/68/205 57/69/206 37/17/207 15/16/208
f 12/59/209 26/63/210 58/71/211 30/70/212
f 26/63/213 9/51/214 28/65/215 58/71/216
f 58/71/217 28/65/218 13/10/219 38/13/220
f 30/70/221 58/71/222 38/13/223 16/18/224
