# This file uses centimeters as units for non-parametric coordinates.

mtllib Potlid.mtl
g default
v -0.750481 -0.160459 -0.243846
v -0.638398 -0.160459 -0.463823
v -0.463823 -0.160459 -0.638398
v -0.243846 -0.160459 -0.750482
v 0.000000 -0.160459 -0.789103
v 0.000000 -0.160459 0.789102
v -0.243846 -0.160459 0.750480
v -0.463823 -0.160459 0.638396
v -0.638397 -0.160459 0.463822
v -0.750481 -0.160459 0.243845
v -0.789102 -0.160459 -0.000000
v 0.000000 -0.160459 -0.000000
v -0.750481 -0.041545 -0.243846
v -0.789102 -0.041545 -0.000000
v -0.750481 -0.041545 0.243845
v -0.638397 -0.041545 0.463822
v -0.463823 -0.041545 0.638396
v -0.243846 -0.041545 0.750480
v 0.000000 -0.041545 0.789103
v 0.000000 -0.041545 -0.789103
v -0.243846 -0.041545 -0.750482
v -0.463823 -0.041545 -0.638398
v -0.638398 -0.041545 -0.463824
v 0.750481 -0.160459 -0.243846
v 0.638397 -0.160459 -0.463823
v 0.463823 -0.160459 -0.638398
v 0.243846 -0.160459 -0.750482
v 0.243846 -0.160459 0.750480
v 0.463822 -0.160459 0.638396
v 0.638397 -0.160459 0.463822
v 0.750481 -0.160459 0.243845
v 0.789102 -0.160459 -0.000000
v 0.750481 -0.041545 -0.243846
v 0.789102 -0.041545 -0.000000
v 0.750480 -0.041545 0.243845
v 0.638397 -0.041545 0.463822
v 0.463822 -0.041545 0.638396
v 0.243846 -0.041545 0.750480
v 0.243846 -0.041545 -0.750482
v 0.463823 -0.041545 -0.638398
v 0.638397 -0.041545 -0.463824
v -0.037187 -0.041545 0.114449
v 0.000000 -0.041545 0.120338
v 0.037186 -0.041545 0.114449
v 0.070733 -0.041545 0.097355
v -0.037187 -0.041545 -0.114449
v 0.000000 -0.041545 -0.120338
v 0.097356 -0.041545 0.070734
v -0.070734 -0.041545 -0.097357
v 0.114448 -0.041545 0.037186
v -0.097356 -0.041545 -0.070734
v 0.120339 -0.041545 -0.000000
v -0.114449 -0.041545 -0.037187
v 0.114448 -0.041545 -0.037187
v -0.120339 -0.041545 -0.000000
v 0.097356 -0.041545 -0.070734
v -0.114449 -0.041545 0.037186
v 0.070733 -0.041545 -0.097357
v -0.097356 -0.041545 0.070734
v 0.037186 -0.041545 -0.114449
v -0.070734 -0.041545 0.097355
v 0.000000 0.160459 -0.000000
v -0.037187 0.133884 0.114449
v 0.000000 0.133884 0.120338
v 0.037186 0.133884 0.114449
v 0.070733 0.133884 0.097355
v -0.037187 0.133884 -0.114449
v 0.000000 0.133884 -0.120338
v 0.097356 0.133884 0.070734
v -0.070734 0.133884 -0.097357
v 0.114448 0.133884 0.037186
v -0.097356 0.133884 -0.070734
v 0.120339 0.133884 -0.000000
v -0.114449 0.133884 -0.037187
v 0.114448 0.133884 -0.037187
v -0.120339 0.133884 -0.000000
v 0.097356 0.133884 -0.070734
v -0.114449 0.133884 0.037186
v 0.070733 0.133884 -0.097357
v -0.097356 0.133884 0.070734
v 0.037186 0.133884 -0.114449
v -0.070734 0.133884 0.097355
vt 0.390528 0.779215
vt 0.427911 0.779215
vt 0.427911 0.848370
vt 0.390528 0.848370
vt 0.427911 0.903252
vt 0.390528 0.903252
vt 0.341713 0.793488
vt 0.304329 0.793488
vt 0.304329 0.724333
vt 0.341713 0.724333
vt 0.304329 0.647674
vt 0.341713 0.647674
vt 0.261230 0.647674
vt 0.298614 0.647674
vt 0.298614 0.724333
vt 0.261230 0.724333
vt 0.298614 0.793488
vt 0.261230 0.793488
vt 0.390528 0.501859
vt 0.427911 0.501859
vt 0.427911 0.556741
vt 0.390528 0.556741
vt 0.427911 0.625896
vt 0.390528 0.625896
vt 0.427911 0.702556
vt 0.390528 0.702556
vt 0.049234 0.104252
vt 0.249930 0.250066
vt 0.013997 0.173407
vt 0.104116 0.049370
vt 0.173271 0.014134
vt 0.249930 0.001992
vt 0.173271 0.485999
vt 0.249930 0.498141
vt 0.104116 0.450763
vt 0.049234 0.395881
vt 0.013997 0.326726
vt 0.001856 0.250066
vt 0.347429 0.625896
vt 0.347429 0.556741
vt 0.384812 0.556741
vt 0.384812 0.625896
vt 0.347429 0.501859
vt 0.384812 0.501859
vt 0.341713 0.501859
vt 0.341713 0.571015
vt 0.304329 0.571015
vt 0.304329 0.501859
vt 0.261230 0.571014
vt 0.298614 0.571014
vt 0.261230 0.501859
vt 0.298614 0.501859
vt 0.347429 0.903252
vt 0.347429 0.848370
vt 0.384812 0.848370
vt 0.384812 0.903252
vt 0.347429 0.779215
vt 0.384812 0.779215
vt 0.347429 0.702556
vt 0.384812 0.702556
vt 0.450627 0.104252
vt 0.485863 0.173407
vt 0.395745 0.049370
vt 0.326589 0.014134
vt 0.326589 0.485999
vt 0.395744 0.450763
vt 0.450626 0.395881
vt 0.485863 0.326726
vt 0.498004 0.250066
vt 0.217683 0.539691
vt 0.181703 0.551381
vt 0.179851 0.539691
vt 0.181703 0.528000
vt 0.187076 0.517454
vt 0.253663 0.551381
vt 0.255514 0.539691
vt 0.195446 0.509084
vt 0.248289 0.561928
vt 0.205992 0.503711
vt 0.239920 0.570297
vt 0.217683 0.501859
vt 0.229373 0.575671
vt 0.229373 0.503711
vt 0.217683 0.577522
vt 0.239920 0.509084
vt 0.205992 0.575671
vt 0.248289 0.517454
vt 0.195446 0.570297
vt 0.253663 0.528000
vt 0.187076 0.561928
vt 0.605042 0.514001
vt 0.681701 0.501859
vt 0.681701 0.712102
vt 0.670011 0.713954
vt 0.758361 0.514001
vt 0.693392 0.713954
vt 0.827516 0.549237
vt 0.703938 0.719327
vt 0.681701 0.998008
vt 0.605042 0.985866
vt 0.670011 0.785913
vt 0.681701 0.787765
vt 0.882398 0.604119
vt 0.712308 0.727697
vt 0.535887 0.950630
vt 0.659464 0.780540
vt 0.917634 0.673274
vt 0.717681 0.738243
vt 0.481005 0.895748
vt 0.651095 0.772171
vt 0.929776 0.749934
vt 0.719533 0.749934
vt 0.445769 0.826593
vt 0.645722 0.761624
vt 0.917634 0.826593
vt 0.717681 0.761624
vt 0.433627 0.749934
vt 0.643870 0.749934
vt 0.882398 0.895748
vt 0.712308 0.772171
vt 0.445769 0.673274
vt 0.645722 0.738243
vt 0.827516 0.950630
vt 0.703938 0.780540
vt 0.481005 0.604119
vt 0.651095 0.727697
vt 0.758361 0.985866
vt 0.693392 0.785913
vt 0.535887 0.549237
vt 0.659464 0.719327
vt 0.018475 0.501859
vt 0.030166 0.501859
vt 0.030166 0.557010
vt 0.018475 0.557010
vt 0.041857 0.501859
vt 0.041857 0.557010
vt 0.052403 0.501859
vt 0.052403 0.557010
vt 0.024093 0.615879
vt 0.012402 0.615879
vt 0.012402 0.560728
vt 0.024093 0.560728
vt 0.118985 0.563072
vt 0.118985 0.554702
vt 0.174135 0.554702
vt 0.174135 0.563072
vt 0.001856 0.615879
vt 0.001856 0.560728
vt 0.118985 0.544156
vt 0.174135 0.544156
vt 0.058119 0.563072
vt 0.058119 0.554703
vt 0.113269 0.554703
vt 0.113269 0.563072
vt 0.118985 0.532466
vt 0.174135 0.532466
vt 0.058119 0.544156
vt 0.113269 0.544156
vt 0.118985 0.520775
vt 0.174135 0.520775
vt 0.058119 0.532466
vt 0.113269 0.532466
vt 0.118985 0.510229
vt 0.174135 0.510229
vt 0.058119 0.520775
vt 0.113269 0.520775
vt 0.118985 0.501859
vt 0.174135 0.501859
vt 0.058119 0.510229
vt 0.113269 0.510229
vt 0.046330 0.615879
vt 0.035783 0.615879
vt 0.035783 0.560728
vt 0.046330 0.560728
vt 0.058119 0.501859
vt 0.113269 0.501859
vt 0.007929 0.501859
vt 0.007929 0.557010
vn -0.951057 0.000000 -0.309016
vn -0.951057 0.000000 -0.309016
vn -0.809017 0.000000 -0.587785
vn -0.809017 0.000000 -0.587785
vn -0.809017 0.000000 -0.587785
vn -0.809017 0.000000 -0.587785
vn -0.587785 0.000000 -0.809017
vn -0.587785 0.000000 -0.809017
vn -0.587785 0.000000 -0.809017
vn -0.587785 0.000000 -0.809017
vn -0.309017 0.000000 -0.951057
vn -0.309017 0.000000 -0.951057
vn -0.309017 0.000000 -0.951057
vn -0.309017 0.000000 -0.951057
vn 0.000000 0.000000 -1.000000
vn 0.000000 0.000000 -1.000000
vn 0.000000 0.000000 1.000000
vn 0.000000 0.000000 1.000000
vn -0.309017 0.000000 0.951056
vn -0.309017 0.000000 0.951056
vn -0.309017 0.000000 0.951056
vn -0.309017 0.000000 0.951056
vn -0.587786 0.000000 0.809017
vn -0.587785 0.000000 0.809017
vn -0.587785 0.000000 0.809017
vn -0.587786 0.000000 0.809017
vn -0.809017 0.000000 0.587786
vn -0.809017 0.000000 0.587785
vn -0.809017 0.000000 0.587785
vn -0.809017 0.000000 0.587786
vn -0.951057 0.000000 0.309017
vn -0.951057 0.000000 0.309017
vn -0.951057 0.000000 0.309017
vn -0.951057 0.000000 0.309017
vn -1.000000 -0.000001 0.000001
vn -1.000000 -0.000001 0.000001
vn -1.000000 -0.000001 0.000001
vn -1.000000 -0.000001 0.000001
vn -0.951057 0.000000 -0.309016
vn -0.951057 0.000000 -0.309016
vn 0.000000 -1.000000 0.000000
vn 0.000000 -1.000000 0.000000
vn 0.000000 -1.000000 0.000000
vn 0.000000 -1.000000 0.000000
vn 0.000000 -1.000000 0.000000
vn 0.000000 -1.000000 0.000000
vn 0.000000 -1.000000 0.000000
vn 0.000000 -1.000000 0.000000
vn 0.000000 -1.000000 0.000000
vn 0.000000 -1.000000 0.000000
vn 0.000000 -1.000000 0.000000
vn 0.000000 -1.000000 0.000000
vn 0.000000 -1.000000 0.000000
vn 0.000000 -1.000000 0.000000
vn 0.000000 -1.000000 0.000000
vn 0.000000 -1.000000 0.000000
vn 0.000000 -1.000000 0.000000
vn 0.000000 -1.000000 0.000000
vn 0.000000 -1.000000 0.000000
vn 0.000000 -1.000000 0.000000
vn 0.000000 -1.000000 0.000000
vn 0.000000 -1.000000 0.000000
vn 0.000000 -1.000000 0.000000
vn 0.000000 -1.000000 0.000000
vn 0.000000 -1.000000 0.000000
vn 0.000000 -1.000000 0.000000
vn 0.000000 -1.000000 0.000000
vn 0.000000 -1.000000 0.000000
vn 0.000000 -1.000000 0.000000
vn 0.000000 -1.000000 0.000000
vn 0.951057 0.000000 -0.309016
vn 0.809017 0.000000 -0.587785
vn 0.809017 0.000000 -0.587785
vn 0.951057 0.000000 -0.309016
vn 0.809017 0.000000 -0.587785
vn 0.587785 0.000000 -0.809017
vn 0.587785 0.000000 -0.809017
vn 0.809017 0.000000 -0.587785
vn 0.587785 0.000000 -0.809017
vn 0.309017 0.000000 -0.951057
vn 0.309017 0.000000 -0.951057
vn 0.587785 0.000000 -0.809017
vn 0.309017 0.000000 -0.951057
vn 0.000000 0.000000 -1.000000
vn 0.000000 0.000000 -1.000000
vn 0.309017 0.000000 -0.951057
vn 0.000000 0.000000 1.000000
vn 0.309017 0.000000 0.951056
vn 0.309017 0.000000 0.951056
vn 0.000000 0.000000 1.000000
vn 0.309017 0.000000 0.951056
vn 0.587785 -0.000000 0.809017
vn 0.587785 -0.000000 0.809017
vn 0.309017 0.000000 0.951056
vn 0.587785 -0.000000 0.809017
vn 0.809017 -0.000000 0.587785
vn 0.809017 -0.000000 0.587786
vn 0.587785 -0.000000 0.809017
vn 0.809017 -0.000000 0.587785
vn 0.951057 0.000001 0.309017
vn 0.951057 0.000001 0.309017
vn 0.809017 -0.000000 0.587786
vn 0.951057 0.000001 0.309017
vn 1.000000 0.000000 0.000001
vn 1.000000 0.000000 0.000001
vn 0.951057 0.000001 0.309017
vn 1.000000 0.000000 0.000001
vn 0.951057 0.000000 -0.309016
vn 0.951057 0.000000 -0.309016
vn 1.000000 0.000000 0.000001
vn 0.000000 -1.000000 0.000000
vn 0.000000 -1.000000 0.000000
vn 0.000000 -1.000000 0.000000
vn 0.000000 -1.000000 0.000000
vn 0.000000 -1.000000 0.000000
vn 0.000000 -1.000000 0.000000
vn 0.000000 -1.000000 0.000000
vn 0.000000 -1.000000 0.000000
vn 0.000000 -1.000000 0.000000
vn 0.000000 -1.000000 0.000000
vn 0.000000 -1.000000 0.000000
vn 0.000000 -1.000000 0.000000
vn 0.000000 -1.000000 0.000000
vn 0.000000 -1.000000 0.000000
vn 0.000000 -1.000000 0.000000
vn 0.000000 -1.000000 0.000000
vn 0.000000 -1.000000 0.000000
vn 0.000000 -1.000000 0.000000
vn 0.000000 -1.000000 0.000000
vn 0.000000 -1.000000 0.000000
vn 0.000000 -1.000000 0.000000
vn 0.000000 -1.000000 0.000000
vn 0.000000 -1.000000 0.000000
vn 0.000000 -1.000000 0.000000
vn 0.000000 -1.000000 0.000000
vn 0.000000 -1.000000 0.000000
vn 0.000000 -1.000000 0.000000
vn 0.000000 -1.000000 0.000000
vn 0.000000 -1.000000 0.000000
vn 0.000000 -1.000000 0.000000
vn 0.000000 1.000000 0.000000
vn -0.066636 0.976473 0.205085
vn 0.000000 0.976473 0.215639
vn 0.066636 0.976473 0.205086
vn 0.000000 1.000000 0.000000
vn 0.000000 0.976473 0.215639
vn 0.126748 0.976473 0.174456
vn 0.000000 1.000000 0.000000
vn 0.066636 0.976473 0.205086
vn -0.066636 0.976473 -0.205085
vn 0.000000 1.000000 0.000000
vn -0.000000 0.976473 -0.215639
vn 0.174456 0.976473 0.126748
vn 0.000000 1.000000 0.000000
vn 0.126748 0.976473 0.174456
vn -0.126748 0.976473 -0.174456
vn 0.000000 1.000000 0.000000
vn -0.066636 0.976473 -0.205085
vn 0.205085 0.976473 0.066636
vn 0.000000 1.000000 0.000000
vn 0.174456 0.976473 0.126748
vn -0.174456 0.976473 -0.126747
vn 0.000000 1.000000 0.000000
vn -0.126748 0.976473 -0.174456
vn 0.215639 0.976473 0.000000
vn 0.000000 1.000000 0.000000
vn 0.205085 0.976473 0.066636
vn -0.205085 0.976473 -0.066636
vn 0.000000 1.000000 0.000000
vn -0.174456 0.976473 -0.126747
vn 0.205085 0.976473 -0.066636
vn 0.000000 1.000000 0.000000
vn 0.215639 0.976473 0.000000
vn -0.215638 0.976473 -0.000000
vn 0.000000 1.000000 0.000000
vn -0.205085 0.976473 -0.066636
vn 0.174456 0.976473 -0.126748
vn 0.000000 1.000000 0.000000
vn 0.205085 0.976473 -0.066636
vn -0.215638 0.976473 -0.000000
vn -0.205085 0.976473 0.066636
vn 0.000000 1.000000 0.000000
vn 0.126748 0.976473 -0.174456
vn 0.000000 1.000000 0.000000
vn 0.174456 0.976473 -0.126748
vn 0.000000 1.000000 0.000000
vn -0.205085 0.976473 0.066636
vn -0.174456 0.976473 0.126748
vn 0.066636 0.976473 -0.205086
vn 0.000000 1.000000 0.000000
vn 0.126748 0.976473 -0.174456
vn 0.000000 1.000000 0.000000
vn -0.174456 0.976473 0.126748
vn -0.126748 0.976473 0.174456
vn -0.000000 0.976473 -0.215639
vn 0.000000 1.000000 0.000000
vn 0.066636 0.976473 -0.205086
vn 0.000000 1.000000 0.000000
vn -0.126748 0.976473 0.174456
vn -0.066636 0.976473 0.205085
vn 0.000000 1.000000 0.000000
vn 0.000000 1.000000 0.000000
vn 0.000000 1.000000 0.000000
vn 0.000000 1.000000 0.000000
vn 0.000000 1.000000 0.000000
vn 0.000000 1.000000 0.000000
vn 0.000000 1.000000 0.000000
vn 0.000000 1.000000 0.000000
vn 0.000000 1.000000 0.000000
vn 0.000000 1.000000 0.000000
vn 0.000000 1.000000 0.000000
vn 0.000000 1.000000 0.000000
vn 0.000000 1.000000 0.000000
vn 0.000000 1.000000 0.000000
vn 0.000000 1.000000 0.000000
vn 0.000000 1.000000 0.000000
vn 0.000000 1.000000 0.000000
vn 0.000000 1.000000 0.000000
vn 0.000000 1.000000 0.000000
vn 0.000000 1.000000 0.000000
vn 0.000000 1.000000 0.000000
vn 0.000000 1.000000 0.000000
vn 0.000000 1.000000 0.000000
vn 0.000000 1.000000 0.000000
vn 0.000000 1.000000 0.000000
vn 0.000000 1.000000 0.000000
vn 0.000000 1.000000 0.000000
vn 0.000000 1.000000 0.000000
vn 0.000000 1.000000 0.000000
vn 0.000000 1.000000 0.000000
vn 0.000000 1.000000 0.000000
vn 0.000000 1.000000 0.000000
vn 0.000000 1.000000 0.000000
vn 0.000000 1.000000 0.000000
vn 0.000000 1.000000 0.000000
vn 0.000000 1.000000 0.000000
vn 0.000000 1.000000 0.000000
vn 0.000000 1.000000 0.000000
vn 0.000000 1.000000 0.000000
vn 0.000000 1.000000 0.000000
vn 0.000000 1.000000 0.000000
vn 0.000000 1.000000 0.000000
vn 0.000000 1.000000 0.000000
vn 0.000000 1.000000 0.000000
vn 0.000000 1.000000 0.000000
vn 0.000000 1.000000 0.000000
vn 0.000000 1.000000 0.000000
vn 0.000000 1.000000 0.000000
vn 0.000000 1.000000 0.000000
vn 0.000000 1.000000 0.000000
vn 0.000000 1.000000 0.000000
vn 0.000000 1.000000 0.000000
vn 0.000000 1.000000 0.000000
vn 0.000000 1.000000 0.000000
vn 0.000000 1.000000 0.000000
vn 0.000000 1.000000 0.000000
vn 0.000000 1.000000 0.000000
vn 0.000000 1.000000 0.000000
vn 0.000000 1.000000 0.000000
vn 0.000000 1.000000 0.000000
vn 0.000000 1.000000 0.000000
vn 0.000000 1.000000 0.000000
vn 0.000000 1.000000 0.000000
vn 0.000000 1.000000 0.000000
vn 0.000000 1.000000 0.000000
vn 0.000000 1.000000 0.000000
vn 0.000000 1.000000 0.000000
vn 0.000000 1.000000 0.000000
vn 0.000000 1.000000 0.000000
vn 0.000000 1.000000 0.000000
vn 0.000000 1.000000 0.000000
vn 0.000000 1.000000 0.000000
vn 0.000000 1.000000 0.000000
vn 0.000000 1.000000 0.000000
vn 0.000000 1.000000 0.000000
vn 0.000000 1.000000 0.000000
vn 0.000000 1.000000 0.000000
vn 0.000000 1.000000 0.000000
vn 0.000000 1.000000 0.000000
vn 0.000000 1.000000 0.000000
vn -0.309014 0.000000 0.951058
vn 0.000000 0.000000 1.000000
vn 0.000000 0.000000 1.000000
vn -0.309014 0.000000 0.951058
vn 0.000000 0.000000 1.000000
vn 0.309015 0.000000 0.951057
vn 0.309015 0.000000 0.951057
vn 0.000000 0.000000 1.000000
vn 0.309015 0.000000 0.951057
vn 0.587778 0.000000 0.809022
vn 0.587778 0.000000 0.809022
vn 0.309015 0.000000 0.951057
vn -0.000000 0.000000 -1.000000
vn -0.309014 0.000000 -0.951058
vn -0.309014 0.000000 -0.951058
vn -0.000000 0.000000 -1.000000
vn 0.587778 0.000000 0.809022
vn 0.809021 0.000000 0.587780
vn 0.809021 0.000000 0.587780
vn 0.587778 0.000000 0.809022
vn -0.309014 0.000000 -0.951058
vn -0.587778 0.000000 -0.809022
vn -0.587778 0.000000 -0.809022
vn -0.309014 0.000000 -0.951058
vn 0.809021 0.000000 0.587780
vn 0.951057 0.000000 0.309015
vn 0.951057 0.000000 0.309015
vn 0.809021 0.000000 0.587780
vn -0.587778 0.000000 -0.809022
vn -0.809023 0.000000 -0.587777
vn -0.809023 0.000000 -0.587777
vn -0.587778 0.000000 -0.809022
vn 0.951057 0.000000 0.309015
vn 1.000000 0.000000 0.000000
vn 1.000000 0.000000 0.000000
vn 0.951057 0.000000 0.309015
vn -0.809023 0.000000 -0.587777
vn -0.951057 0.000000 -0.309015
vn -0.951057 0.000000 -0.309015
vn -0.809023 0.000000 -0.587777
vn 1.000000 0.000000 0.000000
vn 0.951057 0.000000 -0.309015
vn 0.951057 0.000000 -0.309015
vn 1.000000 0.000000 0.000000
vn -0.951057 0.000000 -0.309015
vn -1.000000 0.000000 0.000000
vn -1.000000 0.000000 0.000000
vn -0.951057 0.000000 -0.309015
vn 0.951057 0.000000 -0.309015
vn 0.809021 0.000000 -0.587780
vn 0.809021 0.000000 -0.587780
vn 0.951057 0.000000 -0.309015
vn -1.000000 0.000000 0.000000
vn -0.951057 0.000000 0.309015
vn -0.951057 0.000000 0.309015
vn -1.000000 0.000000 0.000000
vn 0.809021 0.000000 -0.587780
vn 0.587778 0.000000 -0.809022
vn 0.587778 0.000000 -0.809022
vn 0.809021 0.000000 -0.587780
vn -0.951057 0.000000 0.309015
vn -0.809023 0.000000 0.587778
vn -0.809023 0.000000 0.587778
vn -0.951057 0.000000 0.309015
vn 0.587778 0.000000 -0.809022
vn 0.309015 0.000000 -0.951057
vn 0.309015 0.000000 -0.951057
vn 0.587778 0.000000 -0.809022
vn -0.809023 0.000000 0.587778
vn -0.587778 0.000000 0.809022
vn -0.587778 0.000000 0.809022
vn -0.809023 0.000000 0.587778
vn 0.309015 0.000000 -0.951057
vn -0.000000 0.000000 -1.000000
vn -0.000000 0.000000 -1.000000
vn 0.309015 0.000000 -0.951057
vn -0.587778 0.000000 0.809022
vn -0.309014 0.000000 0.951058
vn -0.309014 0.000000 0.951058
vn -0.587778 0.000000 0.809022
s off
g Potlid:pCylinder10
usemtl lambert2SG
f 1/1/1 13/2/2 23/3/3 2/4/4
f 2/4/5 23/3/6 22/5/7 3/6/8
f 3/7/9 22/8/10 21/9/11 4/10/12
f 4/10/13 21/9/14 20/11/15 5/12/16
f 6/13/17 19/14/18 18/15/19 7/16/20
f 7/16/21 18/15/22 17/17/23 8/18/24
f 8/19/25 17/20/26 16/21/27 9/22/28
f 9/22/29 16/21/30 15/23/31 10/24/32
f 10/24/33 15/23/34 14/25/35 11/26/36
f 11/26/37 14/25/38 13/2/39 1/1/40
f 2/27/41 12/28/42 1/29/43
f 3/30/44 12/28/45 2/27/46
f 4/31/47 12/28/48 3/30/49
f 5/32/50 12/28/51 4/31/52
f 7/33/53 12/28/54 6/34/55
f 8/35/56 12/28/57 7/33/58
f 9/36/59 12/28/60 8/35/61
f 10/37/62 12/28/63 9/36/64
f 11/38/65 12/28/66 10/37/67
f 1/29/68 12/28/69 11/38/70
f 24/39/71 25/40/72 41/41/73 33/42/74
f 25/40/75 26/43/76 40/44/77 41/41/78
f 26/45/79 27/46/80 39/47/81 40/48/82
f 27/46/83 5/12/84 20/11/85 39/47/86
f 6/13/87 28/49/88 38/50/89 19/14/90
f 28/49/91 29/51/92 37/52/93 38/50/94
f 29/53/95 30/54/96 36/55/97 37/56/98
f 30/54/99 31/57/100 35/58/101 36/55/102
f 31/57/103 32/59/104 34/60/105 35/58/106
f 32/59/107 24/39/108 33/42/109 34/60/110
f 25/61/111 24/62/112 12/28/113
f 26/63/114 25/61/115 12/28/116
f 27/64/117 26/63/118 12/28/119
f 5/32/120 27/64/121 12/28/122
f 28/65/123 6/34/124 12/28/125
f 29/66/126 28/65/127 12/28/128
f 30/67/129 29/66/130 12/28/131
f 31/68/132 30/67/133 12/28/134
f 32/69/135 31/68/136 12/28/137
f 24/62/138 32/69/139 12/28/140
f 62/70/141 63/71/142 64/72/143
f 65/73/144 62/70/145 64/72/146
f 66/74/147 62/70/148 65/73/149
f 67/75/150 62/70/151 68/76/152
f 69/77/153 62/70/154 66/74/155
f 70/78/156 62/70/157 67/75/158
f 71/79/159 62/70/160 69/77/161
f 72/80/162 62/70/163 70/78/164
f 73/81/165 62/70/166 71/79/167
f 74/82/168 62/70/169 72/80/170
f 75/83/171 62/70/172 73/81/173
f 76/84/174 62/70/175 74/82/176
f 77/85/177 62/70/178 75/83/179
f 76/84/180 78/86/181 62/70/182
f 79/87/183 62/70/184 77/85/185
f 62/70/186 78/86/187 80/88/188
f 81/89/189 62/70/190 79/87/191
f 62/70/192 80/88/193 82/90/194
f 68/76/195 62/70/196 81/89/197
f 62/70/198 82/90/199 63/71/200
f 18/91/201 19/92/202 43/93/203 42/94/204
f 19/92/205 38/95/206 44/96/207 43/93/208
f 38/95/209 37/97/210 45/98/211 44/96/212
f 20/99/213 21/100/214 46/101/215 47/102/216
f 37/97/217 36/103/218 48/104/219 45/98/220
f 21/100/221 22/105/222 49/106/223 46/101/224
f 36/103/225 35/107/226 50/108/227 48/104/228
f 22/105/229 23/109/230 51/110/231 49/106/232
f 35/107/233 34/111/234 52/112/235 50/108/236
f 23/109/237 13/113/238 53/114/239 51/110/240
f 34/111/241 33/115/242 54/116/243 52/112/244
f 13/113/245 14/117/246 55/118/247 53/114/248
f 33/115/249 41/119/250 56/120/251 54/116/252
f 14/117/253 15/121/254 57/122/255 55/118/256
f 41/119/257 40/123/258 58/124/259 56/120/260
f 15/121/261 16/125/262 59/126/263 57/122/264
f 40/123/265 39/127/266 60/128/267 58/124/268
f 16/125/269 17/129/270 61/130/271 59/126/272
f 39/127/273 20/99/274 47/102/275 60/128/276
f 17/129/277 18/91/278 42/94/279 61/130/280
f 42/131/281 43/132/282 64/133/283 63/134/284
f 43/132/285 44/135/286 65/136/287 64/133/288
f 44/135/289 45/137/290 66/138/291 65/136/292
f 47/139/293 46/140/294 67/141/295 68/142/296
f 45/143/297 48/144/298 69/145/299 66/146/300
f 46/140/301 49/147/302 70/148/303 67/141/304
f 48/144/305 50/149/306 71/150/307 69/145/308
f 49/151/309 51/152/310 72/153/311 70/154/312
f 50/149/313 52/155/314 73/156/315 71/150/316
f 51/152/317 53/157/318 74/158/319 72/153/320
f 52/155/321 54/159/322 75/160/323 73/156/324
f 53/157/325 55/161/326 76/162/327 74/158/328
f 54/159/329 56/163/330 77/164/331 75/160/332
f 55/161/333 57/165/334 78/166/335 76/162/336
f 56/163/337 58/167/338 79/168/339 77/164/340
f 57/165/341 59/169/342 80/170/343 78/166/344
f 58/171/345 60/172/346 81/173/347 79/174/348
f 59/169/349 61/175/350 82/176/351 80/170/352
f 60/172/353 47/139/354 68/142/355 81/173/356
f 61/177/357 42/131/358 63/134/359 82/178/360
