# This file uses centimeters as units for non-parametric coordinates.

mtllib wall1.mtl
g default
v 29.655297 84.397809 83.202884
v 99.838202 84.397809 83.202884
v 29.655297 159.560692 83.202884
v 99.838202 159.560692 83.202884
v 29.655297 159.560692 80.585833
v 99.838202 159.560692 80.585833
v 29.655297 84.397809 80.585833
v 99.838202 84.397809 80.585833
v 75.525620 84.397809 83.202884
v 78.783334 159.560692 83.202884
v 78.783334 159.560692 80.585833
v 75.525620 84.397809 80.585833
v 52.564200 84.397809 83.202884
v 49.306500 159.560692 83.202884
v 49.306500 159.560692 80.585833
v 52.564200 84.397809 80.585833
v 29.655297 141.816244 83.202884
v 29.655297 141.816244 80.585833
v 47.133497 141.816244 80.585833
v 80.956336 138.197585 80.585833
v 99.838202 141.816244 80.585833
v 99.838202 141.816244 83.202884
v 80.956336 138.197585 83.160899
v 47.133497 141.816244 83.160899
v 29.655297 143.590687 80.585833
v 29.655297 143.590687 83.202884
v 47.350795 146.244314 83.202884
v 75.828784 141.394007 83.202884
v 99.838202 143.590687 83.202884
v 99.838202 143.590687 80.585833
v 75.828784 141.394007 80.585833
v 47.350795 146.244314 80.585833
v 77.956887 84.397809 83.202884
v 84.361175 138.559448 83.202884
v 84.868490 141.918353 83.202884
v 80.888802 159.560692 83.202884
v 80.888802 159.560692 80.585833
v 84.868490 141.918353 80.585833
v 84.361175 138.559448 80.585833
v 77.956887 84.397809 80.585833
v 50.273315 84.397809 83.202884
v 41.769868 141.816244 83.202884
v 42.684150 148.341160 83.202884
v 47.341383 159.560692 83.202884
v 47.341383 159.560692 80.585833
v 42.684150 148.341160 80.585833
v 41.769864 141.816244 80.585833
v 50.273315 84.397809 80.585833
v 77.956887 84.397809 86.475990
v 84.361175 138.559448 86.475990
v 80.956336 138.197585 86.328979
v 75.525620 84.397809 86.475990
v 47.350795 146.244314 86.475990
v 75.828784 141.394007 86.475990
v 47.133497 141.816244 86.328979
v 84.868490 141.918353 86.475990
v 50.273315 84.397809 86.475990
v 41.769868 141.816244 86.475990
v 52.564200 84.397809 86.475990
v 42.684150 148.341160 86.475990
v 80.956336 138.197585 77.312727
v 75.525620 84.397809 77.312727
v 84.361175 138.559448 77.312727
v 77.956887 84.397809 77.312727
v 84.868490 141.918353 77.312727
v 75.828784 141.394007 77.312727
v 47.133497 141.816244 77.312727
v 47.350795 146.244314 77.312727
v 42.684150 148.341160 77.312727
v 41.769864 141.816244 77.312727
v 50.273315 84.397809 77.312727
v 52.564200 84.397809 77.312727
vt 0.330356 0.987909
vt 0.330356 0.780638
vt 0.488694 0.780638
vt 0.488694 0.987909
vt 0.493588 0.780638
vt 0.493588 0.987909
vt 0.537627 0.780638
vt 0.537627 0.987909
vt 0.190394 0.761533
vt 0.190394 0.554262
vt 0.348733 0.554262
vt 0.348733 0.761533
vt 0.353626 0.554262
vt 0.353626 0.761533
vt 0.397665 0.554262
vt 0.397665 0.761533
vt 0.158138 0.786157
vt 0.158138 0.990102
vt 0.009779 0.990102
vt 0.009779 0.782832
vt 0.321174 0.986776
vt 0.162836 0.990102
vt 0.162836 0.782832
vt 0.321174 0.782832
vt 0.406732 0.556025
vt 0.458052 0.556025
vt 0.458052 0.759675
vt 0.406732 0.759675
vt 0.463754 0.556025
vt 0.463754 0.759675
vt 0.549286 0.556025
vt 0.549286 0.759675
vt 0.555396 0.556025
vt 0.555396 0.759675
vt 0.610381 0.556025
vt 0.610381 0.759675
vt 0.541888 0.780638
vt 0.602779 0.780638
vt 0.602779 0.987908
vt 0.541888 0.987908
vt 0.609545 0.780638
vt 0.609545 0.987908
vt 0.114333 0.761532
vt 0.114333 0.554261
vt 0.121513 0.554261
vt 0.121513 0.761532
vt 0.186135 0.554261
vt 0.186135 0.761532
vt 0.010185 0.554261
vt 0.110073 0.554261
vt 0.110073 0.758207
vt 0.010185 0.758207
vt 0.109431 0.761532
vt 0.010826 0.761532
vt 0.007451 0.042056
vt 0.150283 0.042056
vt 0.116423 0.413468
vt 0.007451 0.413468
vt 0.166153 0.042056
vt 0.128531 0.413468
vt 0.117778 0.424947
vt 0.007451 0.424947
vt 0.130037 0.424947
vt 0.129971 0.528249
vt 0.007451 0.528249
vt 0.143585 0.528249
vt 0.361333 0.403880
vt 0.347785 0.528249
vt 0.374566 0.405986
vt 0.362372 0.528249
vt 0.375920 0.392401
vt 0.362838 0.390062
vt 0.493644 0.424947
vt 0.493644 0.528249
vt 0.493644 0.413468
vt 0.342061 0.042056
vt 0.325217 0.042056
vt 0.493644 0.042056
vt 0.621594 0.529339
vt 0.621594 0.420369
vt 0.992998 0.386512
vt 0.992998 0.529339
vt 0.610111 0.529339
vt 0.610111 0.419019
vt 0.621594 0.408259
vt 0.992998 0.370637
vt 0.506814 0.529339
vt 0.506814 0.406821
vt 0.610111 0.406760
vt 0.506814 0.393212
vt 0.644997 0.173957
vt 0.631178 0.175456
vt 0.506814 0.189013
vt 0.629070 0.162230
vt 0.642653 0.160871
vt 0.506814 0.174419
vt 0.621594 0.043145
vt 0.610111 0.043145
vt 0.992998 0.211579
vt 0.992998 0.194728
vt 0.506814 0.043145
vt 0.992998 0.043145
vt 0.342061 0.042056
vt 0.375920 0.392401
vt 0.362838 0.390062
vt 0.325217 0.042056
vt 0.992998 0.211579
vt 0.644997 0.173957
vt 0.642653 0.160871
vt 0.992998 0.194728
vt 0.109431 0.761532
vt 0.010826 0.761532
vt 0.010185 0.758207
vt 0.110073 0.758207
vt 0.374566 0.405986
vt 0.361333 0.403880
vt 0.629070 0.162230
vt 0.631178 0.175456
vt 0.621594 0.408259
vt 0.610111 0.406760
vt 0.116423 0.413468
vt 0.150283 0.042056
vt 0.166153 0.042056
vt 0.128531 0.413468
vt 0.117778 0.424947
vt 0.130037 0.424947
vt 0.621594 0.420369
vt 0.610111 0.419019
vt 0.992998 0.386512
vt 0.992998 0.370637
vn 0.000000 0.000000 1.000000
vn 0.000000 0.000000 1.000000
vn 0.000000 0.000000 1.000000
vn 0.000000 0.000000 1.000000
vn 0.000000 1.000000 0.000000
vn 0.000000 1.000000 0.000000
vn 0.000000 1.000000 0.000000
vn 0.000000 1.000000 0.000000
vn 0.000000 0.000000 -1.000000
vn 0.000000 0.000000 -1.000000
vn 0.000000 0.000000 -1.000000
vn 0.000000 0.000000 -1.000000
vn 0.000000 -1.000000 0.000000
vn 0.000000 -1.000000 0.000000
vn 0.000000 -1.000000 0.000000
vn 0.000000 -1.000000 0.000000
vn 1.000000 0.000000 0.000000
vn 1.000000 0.000000 0.000000
vn 1.000000 0.000000 0.000000
vn 1.000000 0.000000 0.000000
vn -1.000000 0.000000 0.000000
vn -1.000000 0.000000 0.000000
vn -1.000000 0.000000 0.000000
vn -1.000000 0.000000 0.000000
vn -0.025439 0.004150 0.999668
vn -0.023189 -0.000639 0.999731
vn -0.019871 -0.008639 0.999765
vn -0.025439 0.004150 0.999668
vn 0.000000 1.000000 0.000000
vn 0.000000 1.000000 0.000000
vn 0.000000 1.000000 0.000000
vn 0.000000 1.000000 0.000000
vn -0.000000 0.000000 -1.000000
vn -0.000000 0.000000 -1.000000
vn -0.000000 0.000000 -1.000000
vn -0.000000 0.000000 -1.000000
vn 0.000000 -1.000000 0.000000
vn 0.000000 -1.000000 0.000000
vn 0.000000 -1.000000 0.000000
vn 0.000000 -1.000000 0.000000
vn 0.000000 1.000000 0.000000
vn 0.000000 1.000000 0.000000
vn -1.000000 0.000000 0.000000
vn -1.000000 0.000000 0.000000
vn -1.000000 0.000000 0.000000
vn -1.000000 0.000000 0.000000
vn 0.000000 0.000000 -1.000000
vn 0.000000 0.000000 -1.000000
vn 0.000000 0.000000 -1.000000
vn 0.000000 0.000000 -1.000000
vn 0.000000 0.000000 -1.000000
vn 0.000000 0.000000 -1.000000
vn 0.000000 0.000000 -1.000000
vn 0.000000 0.000000 -1.000000
vn 0.000000 0.000000 -1.000000
vn 0.000000 0.000000 -1.000000
vn 1.000000 0.000000 0.000000
vn 1.000000 0.000000 0.000000
vn 1.000000 0.000000 0.000000
vn 1.000000 0.000000 0.000000
vn 0.000000 0.000000 1.000000
vn 0.000000 0.000000 1.000000
vn 0.000000 0.000000 1.000000
vn 0.000000 0.000000 1.000000
vn 0.000000 0.000000 1.000000
vn 0.000000 0.000000 1.000000
vn 0.000000 0.000000 1.000000
vn 0.000000 0.000000 1.000000
vn 0.000000 0.000000 1.000000
vn 0.000000 0.000000 1.000000
vn -0.005981 -0.041442 0.999123
vn -0.001589 -0.035619 0.999364
vn 0.011014 -0.011698 0.999871
vn -0.009723 -0.029269 0.999524
vn -0.000000 0.000000 -1.000000
vn -0.000000 0.000000 -1.000000
vn -0.000000 0.000000 -1.000000
vn -0.000000 0.000000 -1.000000
vn 0.000000 0.000000 1.000000
vn 0.000000 0.000000 1.000000
vn 0.000000 0.000000 1.000000
vn 0.000000 0.000000 1.000000
vn 0.000000 0.000000 1.000000
vn 0.000000 0.000000 1.000000
vn 0.000000 1.000000 0.000000
vn 0.000000 1.000000 0.000000
vn 0.000000 0.000000 -1.000000
vn 0.000000 0.000000 -1.000000
vn 0.000000 0.000000 -1.000000
vn 0.000000 0.000000 -1.000000
vn 0.000000 0.000000 -1.000000
vn 0.000000 0.000000 -1.000000
vn 0.000000 -1.000000 0.000000
vn 0.000000 -1.000000 0.000000
vn 0.018338 0.001538 0.999831
vn 0.019202 0.003610 0.999809
vn 0.019202 0.003610 0.999809
vn 0.011598 -0.014618 0.999826
vn -0.000000 0.000000 -1.000000
vn -0.000000 0.000000 -1.000000
vn 0.000000 0.000000 -1.000000
vn 0.000000 0.000000 -1.000000
vn 0.000000 -1.000000 0.000000
vn 0.000000 -1.000000 0.000000
vn -0.106381 -0.994325 0.000000
vn -0.106381 -0.994325 0.000000
vn -0.106381 -0.994325 0.000000
vn -0.106381 -0.994325 0.000000
vn -0.994944 0.100433 0.000000
vn -0.994944 0.100433 0.000000
vn -0.994944 0.100433 0.000000
vn -0.994944 0.100433 0.000000
vn 0.995557 0.094161 0.000000
vn 0.995557 0.094161 0.000000
vn 0.995557 0.094161 0.000000
vn 0.995557 0.094161 0.000000
vn 0.993082 -0.117426 0.000000
vn 0.993082 -0.117426 0.000000
vn 0.993082 -0.117426 0.000000
vn 0.993082 -0.117426 0.000000
vn -0.994944 0.100433 0.000000
vn -0.994944 0.100433 0.000000
vn -0.994944 0.100433 0.000000
vn -0.994944 0.100433 0.000000
vn 0.000000 -1.000000 0.000000
vn 0.000000 -1.000000 0.000000
vn 0.000000 -1.000000 0.000000
vn 0.000000 -1.000000 0.000000
vn 0.167900 0.985804 0.000000
vn 0.167900 0.985804 0.000000
vn 0.167900 0.985804 0.000000
vn 0.167900 0.985804 0.000000
vn -0.106381 -0.994325 0.000000
vn -0.106381 -0.994325 0.000000
vn -0.106381 -0.994325 0.000000
vn -0.106381 -0.994325 0.000000
vn 0.988786 -0.149342 0.000000
vn 0.988786 -0.149342 0.000000
vn 0.988786 -0.149342 0.000000
vn 0.988786 -0.149342 0.000000
vn -0.057907 0.998322 0.000000
vn -0.057907 0.998322 0.000000
vn -0.057907 0.998322 0.000000
vn -0.057907 0.998322 0.000000
vn -0.989211 -0.146498 0.000000
vn -0.989211 -0.146498 0.000000
vn -0.989211 -0.146498 0.000000
vn -0.989211 -0.146498 0.000000
vn 0.000000 -1.000000 0.000000
vn 0.000000 -1.000000 0.000000
vn 0.000000 -1.000000 0.000000
vn 0.000000 -1.000000 0.000000
vn 0.995557 0.094161 0.000000
vn 0.995557 0.094161 0.000000
vn 0.995557 0.094161 0.000000
vn 0.995557 0.094161 0.000000
vn -0.990325 0.138766 0.000000
vn -0.990325 0.138766 0.000000
vn -0.990325 0.138766 0.000000
vn -0.990325 0.138766 0.000000
vn 0.409854 0.912151 0.000000
vn 0.409854 0.912151 0.000000
vn 0.409854 0.912151 0.000000
vn 0.409854 0.912151 0.000000
vn -0.994944 0.100433 0.000000
vn -0.994944 0.100433 0.000000
vn -0.994944 0.100433 0.000000
vn -0.994944 0.100433 0.000000
vn 0.993082 -0.117426 0.000000
vn 0.993082 -0.117426 0.000000
vn 0.993082 -0.117426 0.000000
vn 0.993082 -0.117426 0.000000
vn 0.000000 -1.000000 0.000000
vn 0.000000 -1.000000 0.000000
vn 0.000000 -1.000000 0.000000
vn 0.000000 -1.000000 0.000000
vn 0.988786 -0.149342 0.000000
vn 0.988786 -0.149342 0.000000
vn 0.988786 -0.149342 0.000000
vn 0.988786 -0.149342 0.000000
vn -0.057907 0.998322 0.000000
vn -0.057907 0.998322 0.000000
vn -0.057907 0.998322 0.000000
vn -0.057907 0.998322 0.000000
vn -0.106381 -0.994325 0.000000
vn -0.106381 -0.994325 0.000000
vn -0.106381 -0.994325 0.000000
vn -0.106381 -0.994325 0.000000
vn 0.167900 0.985804 0.000000
vn 0.167900 0.985804 0.000000
vn 0.167900 0.985804 0.000000
vn 0.167900 0.985804 0.000000
vn -0.990325 0.138767 0.000000
vn -0.990325 0.138767 0.000000
vn -0.990325 0.138767 0.000000
vn -0.990325 0.138767 0.000000
vn 0.409853 0.912151 0.000000
vn 0.409853 0.912151 0.000000
vn 0.409853 0.912151 0.000000
vn 0.409853 0.912151 0.000000
vn -0.989211 -0.146498 0.000000
vn -0.989211 -0.146498 0.000000
vn -0.989211 -0.146498 0.000000
vn -0.989211 -0.146498 0.000000
vn 0.995557 0.094161 0.000000
vn 0.995557 0.094161 0.000000
vn 0.995557 0.094161 0.000000
vn 0.995557 0.094161 0.000000
vn 0.000000 -1.000000 0.000000
vn 0.000000 -1.000000 0.000000
vn 0.000000 -1.000000 0.000000
vn 0.000000 -1.000000 0.000000
s 1
g polySurface1 pasted__pCube91 group35
usemtl initialShadingGroup
f 1/55/1 41/56/2 42/57/3 17/58/4
s 2
f 3/25/5 44/26/6 45/27/7 5/28/8
s 3
f 18/79/9 47/80/10 48/81/11 7/82/12
s 4
f 7/37/13 48/38/14 41/39/15 1/40/16
s 5
f 2/1/17 8/2/18 21/3/19 22/4/20
s 6
f 7/9/21 1/10/22 17/11/23 18/12/24
s 7
f 49/103/25 50/104/26 51/105/27 52/106/28
s 2
f 11/32/29 10/31/30 36/33/31 37/34/32
s 9
f 62/107/33 61/108/34 63/109/35 64/110/36
s 10
f 9/43/37 12/44/38 40/45/39 33/46/40
s 2
f 15/30/41 14/29/42 10/31/30 11/32/29
s 6
f 25/14/43 26/13/44 3/15/45 5/16/46
s 3
f 5/87/47 45/88/48 46/84/49 25/83/50
f 31/92/51 32/89/52 15/90/53 11/93/54
f 37/96/55 38/94/56 31/92/51 11/93/54
s 5
f 29/6/57 30/5/58 6/7/59 4/8/60
s 1
f 10/68/61 28/67/62 35/69/63 36/70/64
f 14/66/65 27/63/66 28/67/62 10/68/61
f 26/62/67 43/61/68 44/64/69 3/65/70
s 6
f 18/12/24 17/11/23 26/13/44 25/14/43
s 1
f 17/58/4 42/57/3 43/61/68 26/62/67
s 7
f 54/111/71 53/112/72 55/113/73 51/114/27
f 50/104/26 56/115/74 54/116/71 51/105/27
s 5
f 22/4/20 21/3/19 30/5/58 29/6/57
s 9
f 65/117/75 63/109/35 61/108/34 66/118/76
f 61/108/34 67/119/77 68/120/78 66/118/76
s 3
f 25/83/50 46/84/49 47/80/10 18/79/9
s 1
f 22/75/79 34/71/80 33/76/81 2/78/82
f 29/73/83 35/69/63 34/71/80 22/75/79
f 36/70/64 35/69/63 29/73/83 4/74/84
s 2
f 37/34/32 36/33/31 4/35/85 6/36/86
s 3
f 30/98/87 38/94/56 37/96/55 6/101/88
f 21/97/89 39/95/90 38/94/56 30/98/87
f 40/100/91 39/95/90 21/97/89 8/102/92
s 10
f 33/46/40 40/45/39 8/47/93 2/48/94
s 7
f 58/121/95 57/122/96 59/123/97 55/124/73
f 60/125/98 58/121/95 55/124/73 53/126/72
s 1
f 44/64/69 43/61/68 27/63/66 14/66/65
s 2
f 45/27/7 44/26/6 14/29/42 15/30/41
s 3
f 46/84/49 45/88/48 15/90/53 32/89/52
s 9
f 70/127/99 69/128/100 68/120/78 67/119/77
f 71/129/101 70/127/99 67/119/77 72/130/102
s 4
f 41/39/15 48/38/14 16/41/103 13/42/104
s off
f 19/49/105 20/50/106 23/51/107 24/52/108
f 23/17/109 20/18/110 12/19/111 9/20/112
f 24/21/113 13/22/114 16/23/115 19/24/116
f 33/76/117 34/71/118 50/104/119 49/103/120
f 23/72/121 9/77/122 52/106/123 51/105/124
f 9/77/125 33/76/126 49/103/127 52/106/128
f 28/99/129 27/91/130 53/108/131 54/107/132
f 24/95/133 23/100/134 51/110/135 55/109/136
f 34/100/137 35/99/138 56/107/139 50/110/140
f 35/53/141 28/54/142 54/112/143 56/111/144
f 42/52/145 41/51/146 57/114/147 58/113/148
f 41/71/149 13/69/150 59/115/151 57/104/152
f 13/69/153 24/67/154 55/116/155 59/115/156
f 43/94/157 42/95/158 58/109/159 60/117/160
f 27/92/161 43/94/162 60/117/163 53/118/164
f 12/91/165 20/85/166 61/119/167 62/108/168
f 39/89/169 40/92/170 64/118/171 63/120/172
f 40/57/173 12/56/174 62/122/175 64/121/176
f 38/56/177 39/59/178 63/123/179 65/122/180
f 31/59/181 38/60/182 65/124/183 66/123/184
f 20/61/185 19/57/186 67/121/187 61/125/188
f 32/63/189 31/61/190 66/125/191 68/126/192
f 47/80/193 46/84/194 69/128/195 70/127/196
f 46/84/197 32/89/198 68/120/199 69/128/200
f 48/81/201 47/80/202 70/127/203 71/129/204
f 19/85/205 16/86/206 72/130/207 67/119/208
f 16/86/209 48/81/210 71/129/211 72/130/212
