# This file uses centimeters as units for non-parametric coordinates.

mtllib wall2.mtl
g default
v -122.527908 84.496216 83.202881
v -52.345005 84.496216 83.202881
v -122.527908 159.659103 83.202881
v -52.345005 159.659103 83.202881
v -122.527908 159.659103 80.585831
v -52.345005 159.659103 80.585831
v -122.527908 84.496216 80.585831
v -52.345005 84.496216 80.585831
vt 0.026040 0.972807
vt 0.026040 0.895155
vt 0.499483 0.895155
vt 0.499483 0.972807
vt 0.510027 0.895156
vt 0.983468 0.895156
vt 0.983468 0.972808
vt 0.510027 0.972808
vt 0.516278 0.797172
vt 0.989719 0.797172
vt 0.989719 0.874824
vt 0.516278 0.874824
vt 0.019231 0.796826
vt 0.492673 0.796826
vt 0.492673 0.874478
vt 0.019231 0.874478
vt 0.016996 0.169173
vt 0.486827 0.169173
vt 0.486827 0.639003
vt 0.016996 0.639003
vt 0.504901 0.633128
vt 0.504901 0.163297
vt 0.974724 0.163297
vt 0.974724 0.633128
vn 0.000000 0.000000 1.000000
vn 0.000000 0.000000 1.000000
vn 0.000000 0.000000 1.000000
vn 0.000000 0.000000 1.000000
vn 0.000000 1.000000 0.000000
vn 0.000000 1.000000 0.000000
vn 0.000000 1.000000 0.000000
vn 0.000000 1.000000 0.000000
vn 0.000000 0.000000 -1.000000
vn 0.000000 0.000000 -1.000000
vn 0.000000 0.000000 -1.000000
vn 0.000000 0.000000 -1.000000
vn 0.000000 -1.000000 0.000000
vn 0.000000 -1.000000 0.000000
vn 0.000000 -1.000000 0.000000
vn 0.000000 -1.000000 0.000000
vn 1.000000 0.000000 0.000000
vn 1.000000 0.000000 0.000000
vn 1.000000 0.000000 0.000000
vn 1.000000 0.000000 0.000000
vn -1.000000 0.000000 0.000000
vn -1.000000 0.000000 0.000000
vn -1.000000 0.000000 0.000000
vn -1.000000 0.000000 0.000000
s off
g pCube91
usemtl initialShadingGroup
f 1/17/1 2/18/2 4/19/3 3/20/4
f 3/9/5 4/10/6 6/11/7 5/12/8
f 5/21/9 6/22/10 8/23/11 7/24/12
f 7/13/13 8/14/14 2/15/15 1/16/16
f 2/1/17 8/2/18 6/3/19 4/4/20
f 7/5/21 1/6/22 3/7/23 5/8/24
