# This file uses centimeters as units for non-parametric coordinates.

mtllib Door1.mtl
g default
v 113.972115 82.882370 79.793182
v 108.541412 140.300797 79.783730
v 142.364258 136.682144 79.735138
v 136.933533 82.882370 79.744591
v 142.364258 136.682144 81.996468
v 108.541412 140.300797 81.996468
v 113.972115 82.882370 82.015373
v 136.933533 82.882370 82.015373
vt 0.889555 0.001434
vt 0.889319 0.718506
vt 0.861685 0.718506
vt 0.861803 0.001434
vt 0.897909 0.673314
vt 0.897673 0.001434
vt 0.926032 0.001434
vt 0.926150 0.673314
vt 0.961902 0.001434
vt 0.961295 0.423832
vt 0.933661 0.423832
vt 0.933661 0.001434
vt 0.969649 0.001434
vt 0.998008 0.001434
vt 0.998008 0.288189
vt 0.970256 0.288189
vt 0.069813 0.718506
vt 0.001992 0.001434
vt 0.424389 0.046626
vt 0.356568 0.718506
vt 0.854342 0.673314
vt 0.431944 0.718506
vt 0.499766 0.001434
vt 0.786520 0.001434
vn -0.001722 -0.000170 -0.999999
vn -0.001722 -0.000170 -0.999999
vn -0.001722 -0.000170 -0.999999
vn -0.001722 -0.000170 -0.999999
vn 0.000022 0.000340 1.000000
vn 0.000022 0.000340 1.000000
vn 0.000022 0.000340 1.000000
vn 0.000022 0.000340 1.000000
vn 0.106381 0.994325 0.000000
vn 0.106381 0.994325 0.000000
vn 0.106381 0.994325 0.000000
vn 0.106381 0.994325 0.000000
vn -0.995557 -0.094161 0.000000
vn -0.995557 -0.094161 0.000000
vn -0.995557 -0.094161 0.000000
vn -0.995557 -0.094161 0.000000
vn 0.994944 -0.100433 0.000000
vn 0.994944 -0.100433 0.000000
vn 0.994944 -0.100433 0.000000
vn 0.994944 -0.100433 0.000000
vn 0.000000 -1.000000 0.000000
vn 0.000000 -1.000000 0.000000
vn 0.000000 -1.000000 0.000000
vn 0.000000 -1.000000 0.000000
s off
g polySurface3
usemtl initialShadingGroup
f 1/17/1 2/18/2 3/19/3 4/20/4
f 5/21/5 6/22/6 7/23/7 8/24/8
f 3/9/9 2/10/10 6/11/11 5/12/12
f 7/1/13 6/2/14 2/3/15 1/4/16
f 5/5/17 8/6/18 4/7/19 3/8/20
f 4/13/21 8/14/22 7/15/23 1/16/24
