# This file uses centimeters as units for non-parametric coordinates.

mtllib BaguetteBread.mtl
g default
v 6.793523 -0.039317 -0.033910
v 6.793523 -0.015018 -0.054868
v 6.793523 0.015018 -0.054868
v 6.793523 0.039317 -0.033910
v 6.793523 0.048598 0.000000
v 6.793523 0.039317 0.033911
v 6.793523 0.015018 0.054868
v 6.793523 -0.015018 0.054868
v 6.793523 -0.039317 0.033911
v 6.793523 -0.048598 0.000000
v 6.843039 -0.077665 -0.066985
v 6.843039 -0.029666 -0.108385
v 6.843039 0.029666 -0.108385
v 6.843039 0.077665 -0.066985
v 6.843039 0.096000 0.000000
v 6.843039 0.077665 0.066985
v 6.843039 0.029666 0.108385
v 6.843039 -0.029666 0.108384
v 6.843039 -0.077665 0.066985
v 6.843039 -0.096000 0.000000
v 7.035036 -0.147728 -0.127414
v 7.035036 -0.056427 -0.206159
v 7.035036 0.056427 -0.206159
v 7.035036 0.147728 -0.127414
v 7.035036 0.182602 -0.000000
v 7.035036 0.147728 0.127413
v 7.035036 0.056427 0.206159
v 7.035036 -0.056427 0.206159
v 7.035036 -0.147728 0.127413
v 7.035036 -0.182602 -0.000000
v 7.385073 -0.203331 -0.167792
v 7.416589 -0.077665 -0.271493
v 7.416589 0.077665 -0.271493
v 7.385073 0.203331 -0.167792
v 7.334078 0.251330 0.000000
v 7.283084 0.203330 0.167792
v 7.251568 0.077665 0.271493
v 7.251568 -0.077665 0.271493
v 7.283084 -0.203330 0.167792
v 7.334078 -0.251330 0.000000
v 7.778955 -0.239029 -0.194601
v 7.821018 -0.091301 -0.314871
v 7.821018 0.091301 -0.314871
v 7.778955 0.239029 -0.194601
v 7.710894 0.295457 0.000000
v 7.642833 0.239029 0.194601
v 7.600770 0.091301 0.314871
v 7.600770 -0.091301 0.314871
v 7.642833 -0.239029 0.194601
v 7.710894 -0.295457 0.000000
v 8.178856 -0.251330 -0.210862
v 8.209918 -0.096000 -0.341182
v 8.209918 0.096000 -0.341182
v 8.178856 0.251330 -0.210862
v 8.128597 0.310661 -0.000000
v 8.078338 0.251330 0.210862
v 8.047277 0.096000 0.341182
v 8.047277 -0.096000 0.341182
v 8.078338 -0.251330 0.210862
v 8.128597 -0.310661 -0.000000
v 8.582726 -0.239029 -0.202916
v 8.605238 -0.091301 -0.328325
v 8.605238 0.091301 -0.328325
v 8.582726 0.239029 -0.202916
v 8.546300 0.295457 -0.000000
v 8.509875 0.239029 0.202916
v 8.487363 0.091301 0.328325
v 8.487363 -0.091301 0.328325
v 8.509875 -0.239029 0.202916
v 8.546300 -0.295457 -0.000000
v 8.960954 -0.203331 -0.171239
v 8.984340 -0.077665 -0.277070
v 8.984340 0.077665 -0.277070
v 8.960954 0.203331 -0.171239
v 8.923116 0.251330 -0.000000
v 8.885277 0.203330 0.171239
v 8.861892 0.077665 0.277070
v 8.861892 -0.077665 0.277070
v 8.885277 -0.203330 0.171239
v 8.923116 -0.251330 -0.000000
v 9.222158 -0.147728 -0.127413
v 9.222158 -0.056427 -0.206159
v 9.222158 0.056427 -0.206159
v 9.222158 0.147728 -0.127413
v 9.222158 0.182602 0.000000
v 9.222158 0.147728 0.127414
v 9.222159 0.056427 0.206159
v 9.222159 -0.056427 0.206159
v 9.222158 -0.147728 0.127414
v 9.222158 -0.182602 0.000000
v 9.414156 -0.077665 -0.066985
v 9.414155 -0.029666 -0.108384
v 9.414155 0.029666 -0.108385
v 9.414156 0.077665 -0.066985
v 9.414156 0.096000 -0.000000
v 9.414155 0.077665 0.066985
v 9.414156 0.029666 0.108385
v 9.414155 -0.029666 0.108384
v 9.414155 -0.077665 0.066985
v 9.414156 -0.096000 -0.000000
v 9.463671 -0.039317 -0.033911
v 9.463671 -0.015018 -0.054868
v 9.463671 0.015018 -0.054868
v 9.463671 0.039317 -0.033911
v 9.463671 0.048598 -0.000000
v 9.463671 0.039317 0.033910
v 9.463671 0.015018 0.054868
v 9.463671 -0.015018 0.054868
v 9.463671 -0.039317 0.033910
v 9.463671 -0.048598 -0.000000
v 6.776881 -0.000000 0.000000
v 9.480313 -0.000000 0.000000
vt 0.131313 0.343945
vt 0.062727 0.326835
vt 0.053848 0.219745
vt 0.119462 0.219745
vt 0.138638 0.420705
vt 0.068215 0.393020
vt 0.001776 0.301064
vt 0.001776 0.219745
vt 0.044968 0.112655
vt 0.107611 0.095545
vt 0.200948 0.354324
vt 0.192196 0.219745
vt 0.206356 0.437498
vt 0.001776 0.138426
vt 0.039480 0.046470
vt 0.100286 0.018785
vt 0.183445 0.085166
vt 0.271273 0.349252
vt 0.264930 0.219745
vt 0.275193 0.429292
vt 0.178036 0.001992
vt 0.258588 0.090238
vt 0.337133 0.329035
vt 0.330545 0.219745
vt 0.341206 0.396580
vt 0.254668 0.010198
vt 0.323956 0.110455
vt 0.382617 0.301064
vt 0.382617 0.219745
vt 0.319884 0.042910
vt 0.382617 0.138425
vt 0.495196 0.343945
vt 0.432553 0.326835
vt 0.441433 0.219745
vt 0.507047 0.219745
vt 0.487871 0.420705
vt 0.427065 0.393020
vt 0.389361 0.301064
vt 0.389361 0.219745
vt 0.450312 0.112655
vt 0.518898 0.095545
vt 0.571030 0.354324
vt 0.579781 0.219745
vt 0.565621 0.437498
vt 0.389361 0.138426
vt 0.455800 0.046470
vt 0.526223 0.018785
vt 0.588533 0.085166
vt 0.646173 0.349252
vt 0.652515 0.219745
vt 0.642253 0.429292
vt 0.593941 0.001992
vt 0.658858 0.090238
vt 0.711541 0.329035
vt 0.718130 0.219745
vt 0.707469 0.396580
vt 0.662778 0.010198
vt 0.724719 0.110455
vt 0.770202 0.301064
vt 0.770202 0.219745
vt 0.728791 0.042910
vt 0.770202 0.138426
vt 0.480825 0.571579
vt 0.451770 0.592689
vt 0.433360 0.579313
vt 0.444458 0.545157
vt 0.494716 0.614331
vt 0.458802 0.614331
vt 0.421982 0.614331
vt 0.410604 0.579313
vt 0.399506 0.545157
vt 0.533908 0.533012
vt 0.464734 0.482754
vt 0.480825 0.657083
vt 0.451770 0.635974
vt 0.560330 0.614331
vt 0.392194 0.592689
vt 0.363139 0.571579
vt 0.379230 0.482754
vt 0.576035 0.507241
vt 0.480825 0.441056
vt 0.444458 0.683505
vt 0.433360 0.649349
vt 0.533908 0.695650
vt 0.385161 0.614331
vt 0.349248 0.614331
vt 0.310056 0.533011
vt 0.363139 0.441056
vt 0.399506 0.683505
vt 0.410604 0.649349
vt 0.464734 0.745908
vt 0.392194 0.635974
vt 0.363139 0.657083
vt 0.283633 0.614331
vt 0.267928 0.507241
vt 0.379230 0.745908
vt 0.576035 0.721421
vt 0.480825 0.787606
vt 0.310056 0.695650
vt 0.363139 0.787606
vt 0.267928 0.721421
vt 0.794401 0.660643
vt 0.847484 0.699210
vt 0.778310 0.749468
vt 0.758034 0.687065
vt 0.808292 0.617891
vt 0.873906 0.617891
vt 0.889611 0.727181
vt 0.794401 0.794726
vt 0.692806 0.749468
vt 0.713082 0.687065
vt 0.765346 0.639534
vt 0.746936 0.652909
vt 0.794401 0.575139
vt 0.847484 0.536571
vt 0.772378 0.617891
vt 0.676715 0.794726
vt 0.623631 0.699210
vt 0.676715 0.660643
vt 0.724180 0.652909
vt 0.735558 0.617891
vt 0.758034 0.548716
vt 0.778310 0.486314
vt 0.765346 0.596248
vt 0.581504 0.727181
vt 0.597209 0.617891
vt 0.662824 0.617891
vt 0.705770 0.639534
vt 0.713082 0.548716
vt 0.692806 0.486314
vt 0.794401 0.441056
vt 0.889611 0.508601
vt 0.746936 0.582873
vt 0.623631 0.536571
vt 0.676715 0.575139
vt 0.698737 0.617891
vt 0.676715 0.441056
vt 0.724180 0.582873
vt 0.705770 0.596248
vt 0.581504 0.508601
vt 0.143684 0.927585
vt 0.133353 0.998008
vt 0.015667 0.998008
vt 0.005336 0.927585
vt 0.147244 0.859867
vt 0.001776 0.859867
vt 0.143684 0.791030
vt 0.005336 0.791030
vt 0.133353 0.725017
vt 0.015667 0.725017
vt 0.120551 0.501862
vt 0.130882 0.441056
vt 0.248569 0.441056
vt 0.258900 0.501862
vt 0.116991 0.579611
vt 0.262460 0.579611
vt 0.120551 0.656243
vt 0.258900 0.656243
vt 0.130882 0.721459
vt 0.248569 0.721459
vn -0.461581 -0.756637 -0.463080
vn -0.755998 -0.558309 -0.341699
vn -0.787034 -0.222011 -0.575577
vn -0.498312 -0.312010 -0.808909
vn -0.787033 0.222011 -0.575577
vn -0.498313 0.312010 -0.808909
vn -0.755997 0.558309 -0.341700
vn -0.461581 0.756638 -0.463079
vn -0.738560 0.674188 0.000001
vn -0.442569 0.896734 0.000000
vn -0.755997 0.558308 0.341703
vn -0.461579 0.756637 0.463082
vn -0.787032 0.222007 0.575580
vn -0.498312 0.312009 0.808910
vn -0.787033 -0.222007 0.575579
vn -0.498312 -0.312010 0.808910
vn -0.755998 -0.558308 0.341700
vn -0.461580 -0.756637 0.463082
vn -0.738560 -0.674188 0.000001
vn -0.442569 -0.896734 0.000000
vn -0.248195 -0.799440 -0.547078
vn -0.244541 -0.325404 -0.913407
vn -0.244541 0.325404 -0.913407
vn -0.248195 0.799441 -0.547078
vn -0.268683 0.962217 -0.044128
vn -0.307732 0.825692 0.472794
vn -0.348306 0.345470 0.871397
vn -0.348306 -0.345470 0.871397
vn -0.307732 -0.825692 0.472794
vn -0.268683 -0.962217 -0.044128
vn -0.142358 -0.815526 -0.560938
vn -0.139094 -0.330847 -0.933377
vn -0.139094 0.330847 -0.933377
vn -0.142358 0.815526 -0.560938
vn -0.151288 0.987550 -0.043090
vn -0.165665 0.851815 0.496957
vn -0.179818 0.357649 0.916380
vn -0.179818 -0.357649 0.916380
vn -0.165665 -0.851815 0.496957
vn -0.151288 -0.987550 -0.043089
vn -0.075714 -0.834670 -0.545521
vn -0.086107 -0.341637 -0.935879
vn -0.086107 0.341637 -0.935879
vn -0.075714 0.834670 -0.545521
vn -0.070402 0.997378 -0.016745
vn -0.075834 0.851173 0.519379
vn -0.085907 0.355547 0.930702
vn -0.085907 -0.355547 0.930702
vn -0.075834 -0.851173 0.519379
vn -0.070402 -0.997378 -0.016745
vn -0.005335 -0.846089 -0.533015
vn -0.013381 -0.349652 -0.936784
vn -0.013381 0.349652 -0.936784
vn -0.005335 0.846089 -0.533015
vn -0.001072 0.999991 0.004080
vn -0.005489 0.843137 0.537671
vn -0.013112 0.348445 0.937238
vn -0.013112 -0.348445 0.937238
vn -0.005489 -0.843137 0.537671
vn -0.001072 -0.999991 0.004081
vn 0.073736 -0.851143 -0.519729
vn 0.080333 -0.355993 -0.931029
vn 0.080333 0.355994 -0.931029
vn 0.073736 0.851143 -0.519729
vn 0.069763 0.997465 0.014055
vn 0.071152 0.838209 0.540687
vn 0.075329 0.345905 0.935241
vn 0.075329 -0.345905 0.935241
vn 0.071152 -0.838209 0.540687
vn 0.069763 -0.997465 0.014055
vn 0.164862 -0.850414 -0.499616
vn 0.183888 -0.360141 -0.914595
vn 0.183888 0.360142 -0.914594
vn 0.164862 0.850414 -0.499616
vn 0.152401 0.987998 0.025189
vn 0.154204 0.828217 0.538774
vn 0.163623 0.342126 0.925298
vn 0.163623 -0.342126 0.925298
vn 0.154204 -0.828217 0.538774
vn 0.152401 -0.987998 0.025189
vn 0.302573 -0.824670 -0.477879
vn 0.342139 -0.346138 -0.873573
vn 0.342139 0.346139 -0.873573
vn 0.302573 0.824670 -0.477879
vn 0.269335 0.962499 0.032463
vn 0.258625 0.805389 0.533349
vn 0.263874 0.330953 0.906002
vn 0.263874 -0.330953 0.906002
vn 0.258625 -0.805389 0.533350
vn 0.269335 -0.962499 0.032463
vn 0.461580 -0.756637 -0.463082
vn 0.498312 -0.312009 -0.808910
vn 0.498312 0.312009 -0.808910
vn 0.461580 0.756637 -0.463082
vn 0.442569 0.896734 -0.000000
vn 0.461580 0.756637 0.463080
vn 0.498313 0.312010 0.808909
vn 0.498313 -0.312010 0.808909
vn 0.461581 -0.756637 0.463080
vn 0.442569 -0.896734 0.000000
vn 0.755998 -0.558307 -0.341703
vn 0.787032 -0.222007 -0.575580
vn 0.787033 0.222005 -0.575581
vn 0.755998 0.558306 -0.341703
vn 0.738560 0.674187 0.000000
vn 0.755997 0.558309 0.341701
vn 0.787034 0.222010 0.575578
vn 0.787034 -0.222011 0.575577
vn 0.755997 -0.558309 0.341700
vn 0.738560 -0.674188 0.000000
vn -1.000000 0.000000 0.000001
vn 1.000000 0.000000 0.000001
s 1
g pSphere1
usemtl initialShadingGroup
f 11/63/1 1/64/2 2/65/3 12/66/4
f 12/66/4 2/65/3 3/70/5 13/71/6
f 13/71/6 3/70/5 4/77/7 14/78/8
f 14/78/8 4/77/7 5/85/9 15/86/10
f 15/86/10 5/85/9 6/92/11 16/93/12
f 16/93/12 6/92/11 7/90/13 17/89/14
f 17/89/14 7/90/13 8/83/15 18/82/16
f 18/82/16 8/83/15 9/75/17 19/74/18
f 19/74/18 9/75/17 10/68/19 20/67/20
f 20/67/20 10/68/19 1/64/2 11/63/1
f 21/72/21 11/63/1 12/66/4 22/73/22
f 22/73/22 12/66/4 13/71/6 23/79/23
f 23/79/23 13/71/6 14/78/8 24/87/24
f 24/87/24 14/78/8 15/86/10 25/94/25
f 25/94/25 15/86/10 16/93/12 26/99/26
f 26/99/26 16/93/12 17/89/14 27/96/27
f 27/96/27 17/89/14 18/82/16 28/91/28
f 28/91/28 18/82/16 19/74/18 29/84/29
f 29/84/29 19/74/18 20/67/20 30/76/30
f 30/76/30 20/67/20 11/63/1 21/72/21
f 31/80/31 21/72/21 22/73/22 32/81/32
f 22/73/22 23/79/23 33/88/33 32/81/32
f 23/79/23 24/87/24 34/95/34 33/88/33
f 24/7/24 25/8/25 35/3/35 34/2/34
f 25/8/25 26/14/26 36/9/36 35/3/35
f 26/99/26 27/96/27 37/100/37 36/101/36
f 27/96/27 28/91/28 38/98/38 37/100/37
f 28/91/28 29/84/29 39/97/39 38/98/38
f 29/38/29 30/39/30 40/34/40 39/33/39
f 30/39/30 21/45/21 31/40/31 40/34/40
f 41/41/41 31/40/31 32/46/32 42/47/42
f 42/141/42 32/142/32 33/143/33 43/144/43
f 43/5/43 33/6/33 34/2/34 44/1/44
f 44/1/44 34/2/34 35/3/35 45/4/45
f 45/4/45 35/3/35 36/9/36 46/10/46
f 46/10/46 36/9/36 37/15/37 47/16/47
f 47/151/47 37/152/37 38/153/38 48/154/48
f 48/36/48 38/37/38 39/33/39 49/32/49
f 49/32/49 39/33/39 40/34/40 50/35/50
f 50/35/50 40/34/40 31/40/31 41/41/41
f 51/48/51 41/41/41 42/47/42 52/52/52
f 52/145/52 42/141/42 43/144/43 53/146/53
f 53/13/53 43/5/43 44/1/44 54/11/54
f 54/11/54 44/1/44 45/4/45 55/12/55
f 55/12/55 45/4/45 46/10/46 56/17/56
f 56/17/56 46/10/46 47/16/47 57/21/57
f 57/155/57 47/151/47 48/154/48 58/156/58
f 58/44/58 48/36/48 49/32/49 59/42/59
f 59/42/59 49/32/49 50/35/50 60/43/60
f 60/43/60 50/35/50 41/41/41 51/48/51
f 61/53/61 51/48/51 52/52/52 62/57/62
f 62/147/62 52/145/52 53/146/53 63/148/63
f 63/20/63 53/13/53 54/11/54 64/18/64
f 64/18/64 54/11/54 55/12/55 65/19/65
f 65/19/65 55/12/55 56/17/56 66/22/66
f 66/22/66 56/17/56 57/21/57 67/26/67
f 67/157/67 57/155/57 58/156/58 68/158/68
f 68/51/68 58/44/58 59/42/59 69/49/69
f 69/49/69 59/42/59 60/43/60 70/50/70
f 70/50/70 60/43/60 51/48/51 61/53/61
f 71/58/71 61/53/61 62/57/62 72/61/72
f 72/149/72 62/147/62 63/148/63 73/150/73
f 73/25/73 63/20/63 64/18/64 74/23/74
f 74/23/74 64/18/64 65/19/65 75/24/75
f 75/24/75 65/19/65 66/22/66 76/27/76
f 76/27/76 66/22/66 67/26/67 77/30/77
f 77/159/77 67/157/67 68/158/68 78/160/78
f 78/56/78 68/51/68 69/49/69 79/54/79
f 79/54/79 69/49/69 70/50/70 80/55/80
f 80/55/80 70/50/70 61/53/61 71/58/71
f 81/103/81 71/108/71 72/109/72 82/104/82
f 82/104/82 72/109/72 73/117/73 83/110/83
f 83/110/83 73/117/73 74/125/74 84/118/84
f 84/28/84 74/23/74 75/24/75 85/29/85
f 85/29/85 75/24/75 76/27/76 86/31/86
f 86/134/86 76/140/76 77/137/77 87/130/87
f 87/130/87 77/137/77 78/131/78 88/123/88
f 88/123/88 78/131/78 79/132/79 89/115/89
f 89/59/89 79/54/79 80/55/80 90/60/90
f 90/60/90 80/55/80 71/58/71 81/62/81
f 91/102/91 81/103/81 82/104/82 92/105/92
f 92/105/92 82/104/82 83/110/83 93/111/93
f 93/111/93 83/110/83 84/118/84 94/119/94
f 94/119/94 84/118/84 85/126/85 95/127/95
f 95/127/95 85/126/85 86/134/86 96/135/96
f 96/135/96 86/134/86 87/130/87 97/129/97
f 97/129/97 87/130/87 88/123/88 98/122/98
f 98/122/98 88/123/88 89/115/89 99/114/99
f 99/114/99 89/115/89 90/107/90 100/106/100
f 100/106/100 90/107/90 81/103/81 91/102/91
f 101/112/101 91/102/91 92/105/92 102/113/102
f 102/113/102 92/105/92 93/111/93 103/120/103
f 103/120/103 93/111/93 94/119/94 104/128/104
f 104/128/104 94/119/94 95/127/95 105/136/105
f 105/136/105 95/127/95 96/135/96 106/139/106
f 106/139/106 96/135/96 97/129/97 107/138/107
f 107/138/107 97/129/97 98/122/98 108/133/108
f 108/133/108 98/122/98 99/114/99 109/124/109
f 109/124/109 99/114/99 100/106/100 110/116/110
f 110/116/110 100/106/100 91/102/91 101/112/101
f 2/65/3 1/64/2 111/69/111
f 3/70/5 2/65/3 111/69/111
f 4/77/7 3/70/5 111/69/111
f 5/85/9 4/77/7 111/69/111
f 6/92/11 5/85/9 111/69/111
f 7/90/13 6/92/11 111/69/111
f 8/83/15 7/90/13 111/69/111
f 9/75/17 8/83/15 111/69/111
f 10/68/19 9/75/17 111/69/111
f 1/64/2 10/68/19 111/69/111
f 112/121/112 101/112/101 102/113/102
f 112/121/112 102/113/102 103/120/103
f 112/121/112 103/120/103 104/128/104
f 112/121/112 104/128/104 105/136/105
f 112/121/112 105/136/105 106/139/106
f 112/121/112 106/139/106 107/138/107
f 112/121/112 107/138/107 108/133/108
f 112/121/112 108/133/108 109/124/109
f 112/121/112 109/124/109 110/116/110
f 112/121/112 110/116/110 101/112/101
