# This file uses centimeters as units for non-parametric coordinates.

mtllib barrel.mtl
g default
v 1.655563 2.358179 -7.702266
v 1.201647 2.358179 -8.032056
v 0.640575 2.358179 -8.032056
v 0.186659 2.358179 -7.702266
v 0.013278 2.358179 -7.168655
v 0.186659 2.358179 -6.635045
v 0.640575 2.358179 -6.305255
v 1.201647 2.358179 -6.305255
v 1.655563 2.358179 -6.635045
v 1.828944 2.358179 -7.168655
v 1.781054 2.867045 -7.793440
v 1.249580 2.867045 -8.179579
v 0.592642 2.867045 -8.179579
v 0.061168 2.867045 -7.793440
v -0.141837 2.867045 -7.168655
v 0.061168 2.867045 -6.543870
v 0.592642 2.867045 -6.157732
v 1.249580 2.867045 -6.157732
v 1.781054 2.867045 -6.543870
v 1.984059 2.867045 -7.168655
v 1.832011 3.121984 -7.830463
v 1.269044 3.121984 -8.239483
v 0.573178 3.121984 -8.239483
v 0.010211 3.121984 -7.830463
v -0.204823 3.121984 -7.168655
v 0.010211 3.121984 -6.506847
v 0.573178 3.121984 -6.097828
v 1.269044 3.121984 -6.097828
v 1.832011 3.121984 -6.506848
v 2.047046 3.121984 -7.168655
v 1.795892 4.361195 -7.804221
v 1.255247 4.325173 -8.197021
v 0.586975 4.325173 -8.197021
v 0.046331 4.325173 -7.804220
v -0.160177 4.343184 -7.168655
v 0.046331 4.343184 -6.533090
v 0.586975 4.343184 -6.140289
v 1.255248 4.339958 -6.140290
v 1.795891 4.343184 -6.533091
v 2.002399 4.343184 -7.168655
v 1.681906 4.789749 -7.721406
v 1.211709 4.789749 -8.063024
v 0.630513 4.789749 -8.063024
v 0.160316 4.789749 -7.721405
v -0.019283 4.789749 -7.168655
v 0.160316 4.789749 -6.615906
v 0.630513 4.789749 -6.274287
v 1.211709 4.789749 -6.274288
v 1.681906 4.789749 -6.615906
v 1.861505 4.789749 -7.168655
v 1.579229 4.789749 -7.646806
v 1.172490 4.789749 -7.942319
v 0.669733 4.789749 -7.942319
v 0.262994 4.789749 -7.646806
v 0.107633 4.789749 -7.168655
v 0.262994 4.789749 -6.690505
v 0.669733 4.789749 -6.394992
v 1.172490 4.789749 -6.394992
v 1.579229 4.789749 -6.690505
v 1.734589 4.789749 -7.168655
v 1.543010 2.358179 -7.620492
v 1.158655 2.358179 -7.899742
v 0.683567 2.358179 -7.899742
v 0.299212 2.358179 -7.620492
v 0.152401 2.358179 -7.168655
v 0.299212 2.358179 -6.716819
v 0.683567 2.358179 -6.437569
v 1.158656 2.358179 -6.437569
v 1.543010 2.358179 -6.716819
v 1.689821 2.358179 -7.168655
v 1.840717 4.068002 -7.836789
v 2.057807 4.068002 -7.168655
v 1.840717 4.068002 -6.500523
v 1.272370 4.066457 -6.087594
v 0.569853 4.068002 -6.087594
v 0.001505 4.068002 -6.500522
v -0.215585 4.068002 -7.168655
v 0.001505 4.050749 -7.836788
v 0.569853 4.050749 -8.249718
v 1.272369 4.050749 -8.249718
v 1.821508 2.831901 -7.822832
v 1.265032 2.831901 -8.227136
v 1.285412 3.098832 -8.289858
v 1.874863 3.098832 -7.861597
v 0.577190 2.831901 -8.227136
v 0.556810 3.098832 -8.289858
v 0.020714 2.831901 -7.822832
v -0.032640 3.098832 -7.861597
v -0.191841 2.831901 -7.168655
v -0.257791 3.098832 -7.168655
v 0.020714 2.831901 -6.514479
v -0.032640 3.098832 -6.475714
v 0.577190 2.831901 -6.110175
v 0.556811 3.098832 -6.047453
v 1.265032 2.831901 -6.110175
v 1.285412 3.098832 -6.047453
v 1.821508 2.831901 -6.514479
v 1.874863 3.098832 -6.475714
v 2.034063 2.831901 -7.168655
v 2.100013 3.098832 -7.168655
v 1.883978 4.089355 -7.868219
v 2.111280 4.089355 -7.168655
v 1.837044 4.396339 -7.834120
v 2.053266 4.377482 -7.168655
v 1.883978 4.089355 -6.469091
v 1.837044 4.377482 -6.503191
v 1.288894 4.087736 -6.036737
v 1.270966 4.374104 -6.091912
v 0.553329 4.089355 -6.036737
v 0.571256 4.377482 -6.091912
v -0.041756 4.089355 -6.469091
v 0.005179 4.377482 -6.503191
v -0.269058 4.089355 -7.168655
v -0.211043 4.377482 -7.168655
v -0.041756 4.071289 -7.868219
v 0.005178 4.358624 -7.834119
v 0.553329 4.071289 -8.300573
v 0.571256 4.358624 -8.245399
v 1.288894 4.071289 -8.300573
v 1.270966 4.358624 -8.245399
v 1.874413 3.692792 -7.861269
v 2.099456 3.692792 -7.168655
v 1.874413 3.692792 -6.476041
v 1.285240 3.691826 -6.047983
v 0.556983 3.692792 -6.047983
v -0.032190 3.692792 -6.476041
v -0.257234 3.692792 -7.168655
v -0.032190 3.682003 -7.861269
v 0.556982 3.682003 -8.289329
v 1.285240 3.682003 -8.289329
v 1.873410 3.583815 -7.860541
v 2.098217 3.583815 -7.168655
v 1.873410 3.583815 -6.476770
v 1.284857 3.583027 -6.049161
v 0.557366 3.583815 -6.049161
v -0.031187 3.583815 -6.476770
v -0.255994 3.583815 -7.168655
v -0.031187 3.575013 -7.860540
v 0.557365 3.575013 -8.288149
v 1.284857 3.575013 -8.288150
v 1.890706 3.582905 -7.873108
v 2.119597 3.582905 -7.168655
v 1.891727 3.693862 -7.873850
v 2.120859 3.693862 -7.168655
v 1.890706 3.582905 -6.464203
v 1.891727 3.693862 -6.463461
v 1.291464 3.582103 -6.028828
v 1.291854 3.692878 -6.027628
v 0.550759 3.582905 -6.028828
v 0.550369 3.693862 -6.027627
v -0.048484 3.582905 -6.464203
v -0.049505 3.693862 -6.463461
v -0.277374 3.582905 -7.168655
v -0.278636 3.693862 -7.168655
v -0.048484 3.573943 -7.873107
v -0.049505 3.682877 -7.873849
v 0.550759 3.573943 -8.308483
v 0.550369 3.682877 -8.309683
v 1.291464 3.573943 -8.308483
v 1.291854 3.682877 -8.309683
vt 0.444836 0.174068
vt 0.493703 0.149285
vt 0.521280 0.193313
vt 0.464064 0.222330
vt 0.537329 0.116134
vt 0.572360 0.154497
vt 0.574297 0.075692
vt 0.615644 0.107145
vt 0.097180 0.084388
vt 0.135597 0.123456
vt 0.101987 0.163071
vt 0.057006 0.117327
vt 0.180401 0.154995
vt 0.154447 0.199999
vt 0.230139 0.177981
vt 0.212683 0.226912
vt 0.283194 0.191667
vt 0.274803 0.242936
vt 0.337845 0.195608
vt 0.338792 0.247551
vt 0.392315 0.189678
vt 0.402568 0.240607
vt 0.244839 0.441746
vt 0.175971 0.441746
vt 0.175971 0.414852
vt 0.244839 0.414852
vt 0.107229 0.441746
vt 0.107229 0.414852
vt 0.038837 0.441746
vt 0.038837 0.414852
vt 0.722090 0.441746
vt 0.655339 0.441746
vt 0.655339 0.414852
vt 0.722090 0.414852
vt 0.587622 0.441746
vt 0.587622 0.414852
vt 0.519514 0.441746
vt 0.519514 0.414852
vt 0.451108 0.441746
vt 0.451108 0.414852
vt 0.382470 0.441746
vt 0.382470 0.414852
vt 0.313683 0.441746
vt 0.313683 0.414852
vt 0.529966 0.294411
vt 0.596499 0.280580
vt 0.607067 0.323830
vt 0.537684 0.339127
vt 0.661913 0.262169
vt 0.675454 0.304582
vt 0.725894 0.239268
vt 0.742343 0.280640
vt 0.059746 0.262669
vt 0.125210 0.280905
vt 0.114528 0.325007
vt 0.046319 0.305119
vt 0.191762 0.294646
vt 0.184104 0.339372
vt 0.259094 0.303827
vt 0.254497 0.348971
vt 0.326895 0.308408
vt 0.325385 0.353683
vt 0.394851 0.308357
vt 0.396429 0.353707
vt 0.462646 0.303685
vt 0.467305 0.348822
vt 0.112022 0.876369
vt 0.065612 0.822891
vt 0.107387 0.800698
vt 0.140714 0.842027
vt 0.043610 0.757078
vt 0.090247 0.749245
vt 0.042268 0.689538
vt 0.090699 0.694082
vt 0.426009 0.678249
vt 0.426863 0.745544
vt 0.381614 0.740962
vt 0.378269 0.685114
vt 0.408700 0.812686
vt 0.367366 0.793258
vt 0.367833 0.870388
vt 0.335952 0.836581
vt 0.309533 0.908457
vt 0.291914 0.867139
vt 0.241649 0.923334
vt 0.240247 0.877583
vt 0.172394 0.912547
vt 0.187463 0.869155
vt 0.117838 0.794949
vt 0.148496 0.832859
vt 0.102115 0.747812
vt 0.102632 0.698614
vt 0.369681 0.739914
vt 0.366535 0.690185
vt 0.356536 0.788007
vt 0.327616 0.827872
vt 0.287216 0.855815
vt 0.239908 0.865421
vt 0.191419 0.857725
vt 0.631453 0.921431
vt 0.583697 0.921431
vt 0.583697 0.683979
vt 0.631453 0.683979
vt 0.535961 0.921431
vt 0.535961 0.683979
vt 0.488251 0.921431
vt 0.488251 0.683979
vt 0.965800 0.921431
vt 0.918074 0.921430
vt 0.918074 0.683979
vt 0.965800 0.683979
vt 0.870325 0.921430
vt 0.870325 0.683979
vt 0.822559 0.921431
vt 0.822559 0.683979
vt 0.774783 0.921431
vt 0.774783 0.683979
vt 0.727002 0.921431
vt 0.727002 0.683979
vt 0.679224 0.921431
vt 0.679224 0.683979
vt 0.318800 0.641865
vt 0.249334 0.641865
vt 0.249334 0.612877
vt 0.318800 0.612877
vt 0.388188 0.641865
vt 0.388188 0.612877
vt 0.457533 0.641865
vt 0.457533 0.612877
vt 0.526780 0.641865
vt 0.526780 0.612877
vt 0.595887 0.641865
vt 0.595887 0.612877
vt 0.664809 0.641865
vt 0.664809 0.612877
vt 0.733314 0.641865
vt 0.733314 0.612877
vt 0.110570 0.641865
vt 0.041533 0.641865
vt 0.041533 0.612877
vt 0.110570 0.612877
vt 0.179821 0.641865
vt 0.179821 0.612877
vt 0.244839 0.447373
vt 0.175971 0.447373
vt 0.175971 0.409206
vt 0.244839 0.409206
vt 0.107229 0.447373
vt 0.107229 0.409206
vt 0.038837 0.447373
vt 0.038837 0.409206
vt 0.722090 0.447373
vt 0.655339 0.447373
vt 0.655339 0.409206
vt 0.722090 0.409206
vt 0.587622 0.447373
vt 0.587622 0.409206
vt 0.519514 0.447373
vt 0.519514 0.409206
vt 0.451108 0.447373
vt 0.451108 0.409206
vt 0.382470 0.447373
vt 0.382470 0.409206
vt 0.313683 0.447373
vt 0.313683 0.409206
vt 0.318800 0.647398
vt 0.249334 0.647398
vt 0.249334 0.607190
vt 0.318800 0.607190
vt 0.388188 0.647398
vt 0.388188 0.607190
vt 0.457533 0.647398
vt 0.457533 0.607190
vt 0.526780 0.647398
vt 0.526780 0.607190
vt 0.595887 0.647398
vt 0.595887 0.607190
vt 0.664809 0.647397
vt 0.664809 0.607190
vt 0.733314 0.647397
vt 0.733314 0.607190
vt 0.110570 0.647398
vt 0.041533 0.647398
vt 0.041533 0.607190
vt 0.110570 0.607190
vt 0.179821 0.647398
vt 0.179821 0.607190
vt 0.297525 0.574581
vt 0.226759 0.574581
vt 0.226759 0.538599
vt 0.297525 0.538599
vt 0.369524 0.574581
vt 0.369524 0.538599
vt 0.442401 0.574581
vt 0.442401 0.538599
vt 0.515865 0.574581
vt 0.515865 0.538599
vt 0.589535 0.574581
vt 0.589535 0.538599
vt 0.663080 0.574581
vt 0.663080 0.538599
vt 0.736338 0.574581
vt 0.736338 0.538599
vt 0.089773 0.574581
vt 0.024727 0.574581
vt 0.024727 0.538599
vt 0.089773 0.538599
vt 0.157061 0.574581
vt 0.157061 0.538599
vt 0.329394 0.499173
vt 0.257745 0.499173
vt 0.257745 0.488315
vt 0.329394 0.488315
vt 0.401043 0.499173
vt 0.401043 0.488315
vt 0.472693 0.499173
vt 0.472693 0.488315
vt 0.544343 0.499173
vt 0.544343 0.488315
vt 0.615995 0.499173
vt 0.615995 0.488315
vt 0.687649 0.499173
vt 0.687649 0.488315
vt 0.759672 0.499173
vt 0.759672 0.488315
vt 0.114486 0.499173
vt 0.042467 0.499173
vt 0.042467 0.488315
vt 0.114486 0.488315
vt 0.186112 0.499173
vt 0.186112 0.488315
vt 0.329394 0.501167
vt 0.257745 0.501167
vt 0.257745 0.486315
vt 0.329394 0.486315
vt 0.401043 0.501167
vt 0.401043 0.486315
vt 0.472693 0.501167
vt 0.472693 0.486315
vt 0.544343 0.501167
vt 0.544343 0.486315
vt 0.615995 0.501167
vt 0.615995 0.486315
vt 0.687649 0.501167
vt 0.687649 0.486315
vt 0.759672 0.501167
vt 0.759672 0.486315
vt 0.114486 0.501167
vt 0.042467 0.501167
vt 0.042467 0.486315
vt 0.114486 0.486315
vt 0.186112 0.501167
vt 0.186112 0.486315
vn 0.564542 -0.278440 -0.777022
vn 0.564542 -0.278440 -0.777022
vn 0.564542 -0.278440 -0.777022
vn 0.564542 -0.278440 -0.777023
vn 0.000000 -0.278441 -0.960453
vn 0.000000 -0.278441 -0.960453
vn 0.000000 -0.278441 -0.960453
vn 0.000000 -0.278441 -0.960453
vn -0.564542 -0.278440 -0.777022
vn -0.564542 -0.278440 -0.777022
vn -0.564542 -0.278440 -0.777022
vn -0.564542 -0.278440 -0.777022
vn -0.913446 -0.278441 -0.296796
vn -0.913446 -0.278441 -0.296796
vn -0.913446 -0.278441 -0.296796
vn -0.913446 -0.278441 -0.296796
vn -0.913446 -0.278440 0.296796
vn -0.913446 -0.278440 0.296796
vn -0.913446 -0.278440 0.296796
vn -0.913446 -0.278440 0.296796
vn -0.564540 -0.278440 0.777024
vn -0.564540 -0.278440 0.777024
vn -0.564540 -0.278440 0.777024
vn -0.564540 -0.278440 0.777024
vn 0.000000 -0.278440 0.960454
vn 0.000000 -0.278440 0.960454
vn 0.000000 -0.278440 0.960454
vn 0.000000 -0.278440 0.960454
vn 0.564540 -0.278441 0.777023
vn 0.564540 -0.278441 0.777023
vn 0.564540 -0.278441 0.777023
vn 0.564540 -0.278441 0.777023
vn 0.913446 -0.278440 0.296796
vn 0.913446 -0.278440 0.296796
vn 0.913446 -0.278440 0.296796
vn 0.913446 -0.278440 0.296796
vn 0.913446 -0.278440 -0.296797
vn 0.913446 -0.278440 -0.296797
vn 0.913446 -0.278440 -0.296797
vn 0.913446 -0.278440 -0.296797
vn 0.572201 -0.228745 -0.787567
vn 0.572201 -0.228745 -0.787567
vn 0.572201 -0.228745 -0.787567
vn 0.572201 -0.228745 -0.787567
vn 0.000000 -0.228745 -0.973486
vn 0.000000 -0.228745 -0.973486
vn 0.000000 -0.228745 -0.973486
vn 0.000000 -0.228745 -0.973486
vn -0.572200 -0.228745 -0.787567
vn -0.572201 -0.228745 -0.787567
vn -0.572201 -0.228745 -0.787567
vn -0.572201 -0.228745 -0.787567
vn -0.925841 -0.228744 -0.300823
vn -0.925841 -0.228744 -0.300824
vn -0.925841 -0.228744 -0.300824
vn -0.925841 -0.228744 -0.300824
vn -0.925841 -0.228745 0.300824
vn -0.925841 -0.228745 0.300824
vn -0.925841 -0.228745 0.300824
vn -0.925841 -0.228745 0.300824
vn -0.572201 -0.228745 0.787567
vn -0.572201 -0.228745 0.787567
vn -0.572201 -0.228745 0.787567
vn -0.572201 -0.228745 0.787567
vn 0.000000 -0.228745 0.973486
vn 0.000000 -0.228745 0.973486
vn 0.000000 -0.228745 0.973486
vn 0.000000 -0.228745 0.973486
vn 0.572201 -0.228745 0.787567
vn 0.572201 -0.228745 0.787567
vn 0.572201 -0.228745 0.787567
vn 0.572201 -0.228745 0.787567
vn 0.925841 -0.228745 0.300824
vn 0.925841 -0.228745 0.300824
vn 0.925841 -0.228745 0.300824
vn 0.925841 -0.228745 0.300824
vn 0.925841 -0.228744 -0.300824
vn 0.925841 -0.228744 -0.300824
vn 0.925841 -0.228744 -0.300824
vn 0.925841 -0.228744 -0.300824
vn 0.585017 -0.105794 -0.804091
vn 0.585017 -0.105794 -0.804091
vn 0.585017 -0.105794 -0.804091
vn 0.585017 -0.105794 -0.804091
vn -0.000001 -0.106810 -0.994280
vn -0.000001 -0.106810 -0.994280
vn -0.000001 -0.106810 -0.994280
vn -0.000001 -0.106810 -0.994280
vn -0.584422 -0.106810 -0.804390
vn -0.584422 -0.106810 -0.804390
vn -0.584422 -0.106810 -0.804389
vn -0.584422 -0.106810 -0.804390
vn -0.945921 -0.105794 -0.306660
vn -0.945921 -0.105794 -0.306660
vn -0.945921 -0.105794 -0.306660
vn -0.945921 -0.105794 -0.306660
vn -0.945820 -0.104797 0.307316
vn -0.945820 -0.104797 0.307316
vn -0.945819 -0.104797 0.307316
vn -0.945820 -0.104797 0.307316
vn -0.584549 -0.104797 0.804562
vn -0.584549 -0.104797 0.804562
vn -0.584549 -0.104797 0.804562
vn -0.584549 -0.104797 0.804562
vn -0.000058 -0.104885 0.994484
vn -0.000058 -0.104885 0.994484
vn -0.000058 -0.104885 0.994484
vn -0.000058 -0.104885 0.994484
vn 0.584590 -0.104885 0.804521
vn 0.584590 -0.104885 0.804521
vn 0.584590 -0.104885 0.804521
vn 0.584590 -0.104885 0.804521
vn 0.945819 -0.104798 0.307316
vn 0.945819 -0.104798 0.307316
vn 0.945819 -0.104798 0.307316
vn 0.945819 -0.104798 0.307316
vn 0.945820 -0.104797 -0.307315
vn 0.945820 -0.104797 -0.307315
vn 0.945820 -0.104797 -0.307316
vn 0.945820 -0.104797 -0.307316
vn 0.556263 0.287394 -0.779728
vn 0.556263 0.287394 -0.779728
vn 0.556263 0.287394 -0.779728
vn 0.556263 0.287394 -0.779728
vn 0.000000 0.277133 -0.960832
vn 0.000000 0.277133 -0.960832
vn 0.000000 0.277133 -0.960832
vn 0.000000 0.277133 -0.960832
vn -0.564763 0.277133 -0.777329
vn -0.564763 0.277133 -0.777329
vn -0.564762 0.277133 -0.777329
vn -0.564763 0.277133 -0.777329
vn -0.911143 0.282177 -0.300325
vn -0.911143 0.282177 -0.300325
vn -0.911143 0.282177 -0.300325
vn -0.911143 0.282177 -0.300325
vn -0.910931 0.287404 0.295980
vn -0.910931 0.287404 0.295980
vn -0.910931 0.287404 0.295980
vn -0.910931 0.287404 0.295980
vn -0.562987 0.287404 0.774884
vn -0.562987 0.287404 0.774884
vn -0.562987 0.287404 0.774884
vn -0.562987 0.287404 0.774884
vn 0.000740 0.286454 0.958094
vn 0.000740 0.286454 0.958094
vn 0.000740 0.286454 0.958094
vn 0.000740 0.286454 0.958094
vn 0.562555 0.286454 0.775549
vn 0.562555 0.286454 0.775549
vn 0.562555 0.286454 0.775549
vn 0.562555 0.286454 0.775549
vn 0.910931 0.287404 0.295980
vn 0.910931 0.287404 0.295980
vn 0.910931 0.287404 0.295980
vn 0.910931 0.287404 0.295980
vn 0.910667 0.292814 -0.291455
vn 0.910667 0.292814 -0.291455
vn 0.910667 0.292814 -0.291455
vn 0.910667 0.292814 -0.291455
vn 0.000000 1.000000 0.000000
vn 0.000000 1.000000 0.000000
vn 0.000000 1.000000 0.000000
vn 0.000000 1.000000 0.000000
vn 0.000000 1.000000 -0.000003
vn 0.000000 1.000000 -0.000003
vn 0.000000 1.000000 -0.000003
vn 0.000000 1.000000 -0.000003
vn 0.000000 1.000000 -0.000001
vn 0.000000 1.000000 -0.000001
vn 0.000000 1.000000 -0.000001
vn 0.000000 1.000000 -0.000001
vn 0.000000 1.000000 0.000000
vn 0.000000 1.000000 0.000000
vn 0.000000 1.000000 0.000000
vn 0.000000 1.000000 0.000000
vn 0.000000 1.000000 -0.000001
vn 0.000000 1.000000 -0.000001
vn 0.000000 1.000000 -0.000001
vn 0.000000 1.000000 -0.000001
vn 0.000000 1.000000 0.000000
vn 0.000000 1.000000 0.000000
vn 0.000000 1.000000 0.000000
vn 0.000000 1.000000 0.000000
vn 0.000000 1.000000 0.000002
vn 0.000000 1.000000 0.000002
vn 0.000000 1.000000 0.000002
vn 0.000000 1.000000 0.000002
vn 0.000000 1.000000 0.000001
vn 0.000000 1.000000 0.000001
vn 0.000000 1.000000 0.000001
vn 0.000000 1.000000 0.000001
vn 0.000000 1.000000 0.000000
vn 0.000000 1.000000 0.000000
vn 0.000000 1.000000 0.000000
vn 0.000000 1.000000 0.000000
vn 0.000000 1.000000 -0.000001
vn 0.000000 1.000000 -0.000001
vn 0.000000 1.000000 -0.000001
vn 0.000000 1.000000 -0.000001
vn -0.587695 0.017507 0.808894
vn -0.587695 0.017507 0.808894
vn -0.587695 0.017507 0.808894
vn -0.587695 0.017507 0.808894
vn 0.000000 0.017507 0.999847
vn 0.000000 0.017507 0.999847
vn 0.000000 0.017507 0.999847
vn 0.000000 0.017507 0.999847
vn 0.587695 0.017508 0.808893
vn 0.587695 0.017508 0.808894
vn 0.587695 0.017508 0.808894
vn 0.587695 0.017508 0.808894
vn 0.950911 0.017507 0.308969
vn 0.950911 0.017507 0.308969
vn 0.950911 0.017507 0.308969
vn 0.950911 0.017507 0.308969
vn 0.950911 0.017507 -0.308970
vn 0.950911 0.017507 -0.308970
vn 0.950911 0.017507 -0.308969
vn 0.950911 0.017507 -0.308969
vn 0.587694 0.017508 -0.808894
vn 0.587694 0.017508 -0.808894
vn 0.587694 0.017508 -0.808894
vn 0.587694 0.017508 -0.808894
vn 0.000000 0.017508 -0.999847
vn 0.000000 0.017508 -0.999847
vn 0.000000 0.017508 -0.999847
vn 0.000000 0.017508 -0.999847
vn -0.587694 0.017508 -0.808894
vn -0.587694 0.017508 -0.808894
vn -0.587694 0.017508 -0.808894
vn -0.587694 0.017508 -0.808894
vn -0.950911 0.017507 -0.308969
vn -0.950911 0.017507 -0.308969
vn -0.950911 0.017507 -0.308969
vn -0.950911 0.017507 -0.308969
vn -0.950911 0.017507 0.308969
vn -0.950911 0.017507 0.308969
vn -0.950911 0.017507 0.308969
vn -0.950911 0.017507 0.308969
vn 0.935854 0.182318 -0.301558
vn 0.935854 0.182318 -0.301558
vn 0.935854 0.182318 -0.301558
vn 0.935854 0.182318 -0.301558
vn 0.934084 0.188077 0.303502
vn 0.934084 0.188077 0.303502
vn 0.934084 0.188077 0.303502
vn 0.934084 0.188077 0.303502
vn 0.576702 0.188633 0.794879
vn 0.576702 0.188633 0.794879
vn 0.576702 0.188633 0.794879
vn 0.576702 0.188633 0.794879
vn 0.000657 0.188632 0.982048
vn 0.000657 0.188632 0.982048
vn 0.000657 0.188632 0.982048
vn 0.000657 0.188632 0.982048
vn -0.577296 0.188077 0.794579
vn -0.577296 0.188077 0.794579
vn -0.577296 0.188077 0.794579
vn -0.577296 0.188077 0.794579
vn -0.934084 0.188078 0.303502
vn -0.934084 0.188078 0.303502
vn -0.934084 0.188078 0.303502
vn -0.934084 0.188078 0.303502
vn -0.932531 0.188325 -0.308091
vn -0.932531 0.188325 -0.308091
vn -0.932531 0.188325 -0.308091
vn -0.932531 0.188325 -0.308091
vn -0.577239 0.188576 -0.794502
vn -0.577239 0.188576 -0.794502
vn -0.577239 0.188576 -0.794502
vn -0.577239 0.188576 -0.794502
vn 0.000000 0.188574 -0.982059
vn 0.000000 0.188574 -0.982059
vn 0.000000 0.188574 -0.982059
vn 0.000000 0.188574 -0.982059
vn 0.572154 0.182548 -0.799573
vn 0.572154 0.182548 -0.799573
vn 0.572154 0.182548 -0.799573
vn 0.572154 0.182548 -0.799573
vn -0.349333 -0.804228 0.480817
vn -0.349333 -0.804228 0.480817
vn -0.349333 -0.804228 0.480817
vn -0.349333 -0.804228 0.480817
vn 0.245454 0.908634 -0.337840
vn 0.245454 0.908634 -0.337840
vn 0.245454 0.908634 -0.337840
vn 0.245454 0.908634 -0.337840
vn 0.000000 -0.804227 0.594322
vn 0.000000 -0.804227 0.594322
vn 0.000000 -0.804227 0.594322
vn 0.000000 -0.804227 0.594322
vn 0.000000 0.908634 -0.417594
vn 0.000000 0.908634 -0.417594
vn 0.000000 0.908634 -0.417594
vn 0.000000 0.908634 -0.417594
vn 0.349334 -0.804227 0.480817
vn 0.349334 -0.804227 0.480817
vn 0.349334 -0.804227 0.480817
vn 0.349334 -0.804227 0.480817
vn -0.245454 0.908635 -0.337837
vn -0.245454 0.908635 -0.337837
vn -0.245454 0.908635 -0.337837
vn -0.245454 0.908635 -0.337837
vn 0.565234 -0.804227 0.183655
vn 0.565234 -0.804227 0.183655
vn 0.565234 -0.804227 0.183655
vn 0.565234 -0.804227 0.183655
vn -0.397154 0.908634 -0.129043
vn -0.397154 0.908634 -0.129043
vn -0.397154 0.908634 -0.129043
vn -0.397154 0.908634 -0.129043
vn 0.565233 -0.804228 -0.183656
vn 0.565233 -0.804228 -0.183656
vn 0.565233 -0.804228 -0.183656
vn 0.565233 -0.804228 -0.183656
vn -0.397155 0.908634 0.129042
vn -0.397155 0.908634 0.129042
vn -0.397155 0.908634 0.129042
vn -0.397155 0.908634 0.129042
vn 0.349333 -0.804228 -0.480815
vn 0.349333 -0.804228 -0.480815
vn 0.349333 -0.804229 -0.480815
vn 0.349333 -0.804228 -0.480815
vn -0.245455 0.908635 0.337839
vn -0.245455 0.908635 0.337839
vn -0.245455 0.908635 0.337839
vn -0.245455 0.908635 0.337839
vn 0.000000 -0.804228 -0.594321
vn 0.000000 -0.804228 -0.594321
vn 0.000000 -0.804228 -0.594320
vn 0.000000 -0.804228 -0.594320
vn 0.000000 0.908635 0.417592
vn 0.000000 0.908635 0.417592
vn 0.000000 0.908635 0.417592
vn 0.000000 0.908635 0.417592
vn -0.349334 -0.804227 -0.480817
vn -0.349334 -0.804227 -0.480817
vn -0.349334 -0.804227 -0.480817
vn -0.349334 -0.804227 -0.480817
vn 0.245454 0.908635 0.337839
vn 0.245454 0.908635 0.337839
vn 0.245454 0.908635 0.337839
vn 0.245454 0.908635 0.337839
vn -0.565232 -0.804229 -0.183655
vn -0.565232 -0.804229 -0.183655
vn -0.565232 -0.804229 -0.183655
vn -0.565232 -0.804229 -0.183655
vn 0.397152 0.908636 0.129042
vn 0.397152 0.908636 0.129042
vn 0.397152 0.908636 0.129042
vn 0.397152 0.908636 0.129042
vn -0.565232 -0.804228 0.183656
vn -0.565232 -0.804229 0.183656
vn -0.565232 -0.804229 0.183656
vn -0.565232 -0.804228 0.183656
vn 0.397153 0.908635 -0.129043
vn 0.397153 0.908635 -0.129043
vn 0.397153 0.908635 -0.129043
vn 0.397153 0.908635 -0.129043
vn 0.368173 -0.922029 -0.119627
vn 0.368173 -0.922029 -0.119627
vn 0.368173 -0.922029 -0.119627
vn 0.368173 -0.922029 -0.119627
vn -0.547640 0.812224 0.200952
vn -0.547640 0.812224 0.200952
vn -0.547640 0.812224 0.200952
vn -0.547640 0.812224 0.200952
vn 0.368172 -0.922030 0.119626
vn 0.368172 -0.922030 0.119626
vn 0.368172 -0.922030 0.119626
vn 0.368172 -0.922030 0.119626
vn -0.550049 0.815785 -0.178721
vn -0.550049 0.815785 -0.178721
vn -0.550049 0.815785 -0.178721
vn -0.550049 0.815785 -0.178721
vn 0.228851 -0.922265 0.311535
vn 0.228851 -0.922265 0.311535
vn 0.228851 -0.922265 0.311535
vn 0.228851 -0.922265 0.311535
vn -0.342632 0.816383 -0.464890
vn -0.342632 0.816383 -0.464890
vn -0.342632 0.816383 -0.464890
vn -0.342632 0.816383 -0.464890
vn -0.002029 -0.922263 0.386558
vn -0.002029 -0.922263 0.386558
vn -0.002029 -0.922263 0.386558
vn -0.002029 -0.922263 0.386558
vn 0.003941 0.816384 -0.577497
vn 0.003941 0.816384 -0.577496
vn 0.003941 0.816384 -0.577496
vn 0.003941 0.816384 -0.577496
vn -0.227544 -0.922028 0.313190
vn -0.227544 -0.922028 0.313190
vn -0.227544 -0.922028 0.313190
vn -0.227544 -0.922028 0.313190
vn 0.339950 0.815787 -0.467896
vn 0.339950 0.815786 -0.467896
vn 0.339950 0.815787 -0.467896
vn 0.339950 0.815786 -0.467896
vn -0.368172 -0.922030 0.119627
vn -0.368172 -0.922030 0.119627
vn -0.368172 -0.922030 0.119627
vn -0.368172 -0.922030 0.119627
vn 0.550050 0.815784 -0.178721
vn 0.550050 0.815784 -0.178721
vn 0.550050 0.815784 -0.178721
vn 0.550050 0.815784 -0.178721
vn -0.369117 -0.924405 -0.096063
vn -0.369117 -0.924405 -0.096063
vn -0.369117 -0.924405 -0.096063
vn -0.369117 -0.924405 -0.096063
vn 0.552190 0.818954 0.156208
vn 0.552190 0.818954 0.156208
vn 0.552190 0.818954 0.156208
vn 0.552190 0.818954 0.156208
vn -0.220124 -0.927228 -0.302975
vn -0.220124 -0.927228 -0.302975
vn -0.220124 -0.927228 -0.302975
vn -0.220124 -0.927228 -0.302975
vn 0.334291 0.822523 0.460115
vn 0.334291 0.822523 0.460115
vn 0.334291 0.822523 0.460115
vn 0.334291 0.822523 0.460115
vn 0.000000 -0.927227 -0.374501
vn 0.000000 -0.927227 -0.374501
vn 0.000000 -0.927227 -0.374501
vn 0.000000 -0.927227 -0.374501
vn 0.000000 0.822523 0.568732
vn 0.000000 0.822523 0.568732
vn 0.000000 0.822523 0.568732
vn 0.000000 0.822523 0.568732
vn 0.242159 -0.924406 -0.294675
vn 0.242159 -0.924406 -0.294675
vn 0.242159 -0.924406 -0.294675
vn 0.242159 -0.924406 -0.294675
vn -0.375160 0.815004 0.441616
vn -0.375160 0.815004 0.441616
vn -0.375160 0.815004 0.441616
vn -0.375160 0.815004 0.441616
vn 0.945801 0.104987 -0.307309
vn 0.945801 0.104987 -0.307309
vn 0.945801 0.104987 -0.307309
vn 0.945801 0.104987 -0.307309
vn 0.945801 0.104987 0.307309
vn 0.945801 0.104987 0.307309
vn 0.945801 0.104987 0.307309
vn 0.945801 0.104987 0.307309
vn 0.584383 0.105067 0.804648
vn 0.584383 0.105067 0.804648
vn 0.584383 0.105067 0.804648
vn 0.584383 0.105067 0.804648
vn 0.000186 0.105067 0.994465
vn 0.000186 0.105067 0.994465
vn 0.000186 0.105067 0.994465
vn 0.000186 0.105067 0.994465
vn -0.584537 0.104987 0.804546
vn -0.584537 0.104987 0.804546
vn -0.584537 0.104987 0.804546
vn -0.584537 0.104987 0.804546
vn -0.945801 0.104987 0.307309
vn -0.945801 0.104987 0.307309
vn -0.945801 0.104987 0.307309
vn -0.945801 0.104987 0.307309
vn -0.945066 0.105889 -0.309253
vn -0.945066 0.105889 -0.309253
vn -0.945066 0.105889 -0.309253
vn -0.945066 0.105889 -0.309253
vn -0.584424 0.106807 -0.804388
vn -0.584424 0.106807 -0.804388
vn -0.584424 0.106807 -0.804388
vn -0.584424 0.106807 -0.804388
vn 0.000000 0.106806 -0.994280
vn 0.000000 0.106806 -0.994280
vn 0.000000 0.106806 -0.994280
vn 0.000000 0.106806 -0.994280
vn 0.582801 0.105888 -0.805686
vn 0.582801 0.105888 -0.805686
vn 0.582801 0.105888 -0.805686
vn 0.582801 0.105888 -0.805686
vn 0.951001 -0.010817 -0.308999
vn 0.951001 -0.010817 -0.308999
vn 0.951001 -0.010817 -0.308999
vn 0.951001 -0.010817 -0.308999
vn 0.951001 -0.010817 0.308999
vn 0.951001 -0.010817 0.308999
vn 0.951001 -0.010817 0.308999
vn 0.951001 -0.010817 0.308999
vn 0.587761 -0.010826 0.808962
vn 0.587761 -0.010826 0.808962
vn 0.587761 -0.010826 0.808962
vn 0.587761 -0.010826 0.808962
vn -0.000013 -0.010825 0.999941
vn -0.000013 -0.010825 0.999941
vn -0.000013 -0.010825 0.999941
vn -0.000013 -0.010825 0.999941
vn -0.587750 -0.010817 0.808971
vn -0.587750 -0.010817 0.808971
vn -0.587750 -0.010817 0.808971
vn -0.587750 -0.010817 0.808971
vn -0.951001 -0.010817 0.309000
vn -0.951001 -0.010817 0.309000
vn -0.951001 -0.010817 0.309000
vn -0.951001 -0.010817 0.309000
vn -0.951045 -0.010917 -0.308859
vn -0.951045 -0.010917 -0.308859
vn -0.951045 -0.010917 -0.308859
vn -0.951045 -0.010917 -0.308859
vn -0.587751 -0.011016 -0.808967
vn -0.587751 -0.011016 -0.808967
vn -0.587751 -0.011016 -0.808967
vn -0.587751 -0.011016 -0.808967
vn 0.000000 -0.011013 -0.999939
vn 0.000000 -0.011013 -0.999939
vn 0.000000 -0.011013 -0.999939
vn 0.000000 -0.011013 -0.999939
vn 0.587868 -0.010914 -0.808883
vn 0.587868 -0.010914 -0.808883
vn 0.587868 -0.010914 -0.808883
vn 0.587868 -0.010914 -0.808883
vn -0.042511 -0.999001 0.013813
vn -0.042511 -0.999000 0.013813
vn -0.042511 -0.999000 0.013813
vn -0.042511 -0.999001 0.013813
vn -0.049915 0.998622 0.016219
vn -0.049915 0.998622 0.016219
vn -0.049915 0.998622 0.016219
vn -0.049915 0.998622 0.016219
vn -0.042512 -0.999000 -0.013813
vn -0.042512 -0.999001 -0.013813
vn -0.042512 -0.999000 -0.013813
vn -0.042512 -0.999000 -0.013813
vn -0.049915 0.998622 -0.016218
vn -0.049915 0.998622 -0.016218
vn -0.049915 0.998622 -0.016218
vn -0.049915 0.998622 -0.016218
vn -0.025604 -0.998984 -0.037075
vn -0.025604 -0.998984 -0.037075
vn -0.025604 -0.998984 -0.037075
vn -0.025604 -0.998984 -0.037075
vn -0.031668 0.998643 -0.041350
vn -0.031668 0.998643 -0.041350
vn -0.031668 0.998643 -0.041350
vn -0.031668 0.998643 -0.041350
vn -0.001082 -0.998984 -0.045052
vn -0.001082 -0.998984 -0.045052
vn -0.001082 -0.998984 -0.045052
vn -0.001082 -0.998984 -0.045052
vn 0.001325 0.998644 -0.052052
vn 0.001325 0.998644 -0.052052
vn 0.001325 0.998644 -0.052052
vn 0.001325 0.998644 -0.052052
vn 0.026274 -0.999000 -0.036167
vn 0.026274 -0.999000 -0.036167
vn 0.026274 -0.999000 -0.036167
vn 0.026274 -0.999000 -0.036167
vn 0.030849 0.998622 -0.042465
vn 0.030849 0.998622 -0.042465
vn 0.030849 0.998622 -0.042465
vn 0.030849 0.998622 -0.042465
vn 0.042512 -0.999000 -0.013817
vn 0.042512 -0.999000 -0.013817
vn 0.042512 -0.999000 -0.013817
vn 0.042512 -0.999000 -0.013817
vn 0.049915 0.998622 -0.016217
vn 0.049915 0.998622 -0.016217
vn 0.049915 0.998622 -0.016217
vn 0.049915 0.998622 -0.016217
vn 0.042503 -0.998744 0.026517
vn 0.042503 -0.998744 0.026517
vn 0.042503 -0.998744 0.026517
vn 0.042503 -0.998744 0.026517
vn 0.049922 0.998753 0.000665
vn 0.049922 0.998753 0.000665
vn 0.049922 0.998753 0.000665
vn 0.049922 0.998753 0.000665
vn 0.030881 -0.998619 0.042501
vn 0.030881 -0.998619 0.042501
vn 0.030881 -0.998619 0.042501
vn 0.030881 -0.998619 0.042501
vn 0.025210 0.999080 0.034693
vn 0.025210 0.999080 0.034693
vn 0.025210 0.999080 0.034693
vn 0.025210 0.999080 0.034693
vn 0.000000 -0.998619 0.052530
vn 0.000000 -0.998619 0.052530
vn 0.000000 -0.998619 0.052530
vn 0.000000 -0.998619 0.052530
vn 0.000000 0.999080 0.042887
vn 0.000000 0.999080 0.042887
vn 0.000000 0.999080 0.042887
vn 0.000000 0.999080 0.042887
vn -0.018801 -0.998744 0.046447
vn -0.018801 -0.998744 0.046447
vn -0.018801 -0.998744 0.046447
vn -0.018801 -0.998744 0.046447
vn -0.039998 0.998753 0.029878
vn -0.039998 0.998753 0.029878
vn -0.039998 0.998753 0.029878
vn -0.039998 0.998753 0.029878
s off
g Nut1:Barrel Nut1:Nut
usemtl lambert64SG
f 1/1/1 2/2/2 12/3/3 11/4/4
f 2/2/5 3/5/6 13/6/7 12/3/8
f 3/5/9 4/7/10 14/8/11 13/6/12
f 4/9/13 5/10/14 15/11/15 14/12/16
f 5/10/17 6/13/18 16/14/19 15/11/20
f 6/13/21 7/15/22 17/16/23 16/14/24
f 7/15/25 8/17/26 18/18/27 17/16/28
f 8/17/29 9/19/30 19/20/31 18/18/32
f 9/19/33 10/21/34 20/22/35 19/20/36
f 10/21/37 1/1/38 11/4/39 20/22/40
f 81/23/41 82/24/42 83/25/43 84/26/44
f 82/24/45 85/27/46 86/28/47 83/25/48
f 85/27/49 87/29/50 88/30/51 86/28/52
f 87/31/53 89/32/54 90/33/55 88/34/56
f 89/32/57 91/35/58 92/36/59 90/33/60
f 91/35/61 93/37/62 94/38/63 92/36/64
f 93/37/65 95/39/66 96/40/67 94/38/68
f 95/39/69 97/41/70 98/42/71 96/40/72
f 97/41/73 99/43/74 100/44/75 98/42/76
f 99/43/77 81/23/78 84/26/79 100/44/80
f 21/45/81 22/46/82 140/47/83 131/48/84
f 22/46/85 23/49/86 139/50/87 140/47/88
f 23/49/89 24/51/90 138/52/91 139/50/92
f 24/53/93 25/54/94 137/55/95 138/56/96
f 25/54/97 26/57/98 136/58/99 137/55/100
f 26/57/101 27/59/102 135/60/103 136/58/104
f 27/59/105 28/61/106 134/62/107 135/60/108
f 28/61/109 29/63/110 133/64/111 134/62/112
f 29/63/113 30/65/114 132/66/115 133/64/116
f 30/65/117 21/45/118 131/48/119 132/66/120
f 31/67/121 32/68/122 42/69/123 41/70/124
f 32/68/125 33/71/126 43/72/127 42/69/128
f 33/71/129 34/73/130 44/74/131 43/72/132
f 34/75/133 35/76/134 45/77/135 44/78/136
f 35/76/137 36/79/138 46/80/139 45/77/140
f 36/79/141 37/81/142 47/82/143 46/80/144
f 37/81/145 38/83/146 48/84/147 47/82/148
f 38/83/149 39/85/150 49/86/151 48/84/152
f 39/85/153 40/87/154 50/88/155 49/86/156
f 40/87/157 31/67/158 41/70/159 50/88/160
f 41/70/161 42/69/162 52/89/163 51/90/164
f 42/69/165 43/72/166 53/91/167 52/89/168
f 43/72/169 44/74/170 54/92/171 53/91/172
f 44/78/173 45/77/174 55/93/175 54/94/176
f 45/77/177 46/80/178 56/95/179 55/93/180
f 46/80/181 47/82/182 57/96/183 56/95/184
f 47/82/185 48/84/186 58/97/187 57/96/188
f 48/84/189 49/86/190 59/98/191 58/97/192
f 49/86/193 50/88/194 60/99/195 59/98/196
f 50/88/197 41/70/198 51/90/199 60/99/200
f 51/100/201 52/101/202 62/102/203 61/103/204
f 52/101/205 53/104/206 63/105/207 62/102/208
f 53/104/209 54/106/210 64/107/211 63/105/212
f 54/108/213 55/109/214 65/110/215 64/111/216
f 55/109/217 56/112/218 66/113/219 65/110/220
f 56/112/221 57/114/222 67/115/223 66/113/224
f 57/114/225 58/116/226 68/117/227 67/115/228
f 58/116/229 59/118/230 69/119/231 68/117/232
f 59/118/233 60/120/234 70/121/235 69/119/236
f 60/120/237 51/100/238 61/103/239 70/121/240
f 102/122/241 101/123/242 103/124/243 104/125/244
f 105/126/245 102/122/246 104/125/247 106/127/248
f 107/128/249 105/126/250 106/127/251 108/129/252
f 109/130/253 107/128/254 108/129/255 110/131/256
f 111/132/257 109/130/258 110/131/259 112/133/260
f 113/134/261 111/132/262 112/133/263 114/135/264
f 115/136/265 113/134/266 114/135/267 116/137/268
f 117/138/269 115/139/270 116/140/271 118/141/272
f 119/142/273 117/138/274 118/141/275 120/143/276
f 101/123/277 119/142/278 120/143/279 103/124/280
f 11/144/281 12/145/282 82/24/283 81/23/284
f 22/146/285 21/147/286 84/26/287 83/25/288
f 12/145/289 13/148/290 85/27/291 82/24/292
f 23/149/293 22/146/294 83/25/295 86/28/296
f 13/148/297 14/150/298 87/29/299 85/27/300
f 24/151/301 23/149/302 86/28/303 88/30/304
f 14/152/305 15/153/306 89/32/307 87/31/308
f 25/154/309 24/155/310 88/34/311 90/33/312
f 15/153/313 16/156/314 91/35/315 89/32/316
f 26/157/317 25/154/318 90/33/319 92/36/320
f 16/156/321 17/158/322 93/37/323 91/35/324
f 27/159/325 26/157/326 92/36/327 94/38/328
f 17/158/329 18/160/330 95/39/331 93/37/332
f 28/161/333 27/159/334 94/38/335 96/40/336
f 18/160/337 19/162/338 97/41/339 95/39/340
f 29/163/341 28/161/342 96/40/343 98/42/344
f 19/162/345 20/164/346 99/43/347 97/41/348
f 30/165/349 29/163/350 98/42/351 100/44/352
f 20/164/353 11/144/354 81/23/355 99/43/356
f 21/147/357 30/165/358 100/44/359 84/26/360
f 72/166/361 71/167/362 101/123/363 102/122/364
f 31/168/365 40/169/366 104/125/367 103/124/368
f 73/170/369 72/166/370 102/122/371 105/126/372
f 40/169/373 39/171/374 106/127/375 104/125/376
f 74/172/377 73/170/378 105/126/379 107/128/380
f 39/171/381 38/173/382 108/129/383 106/127/384
f 75/174/385 74/172/386 107/128/387 109/130/388
f 38/173/389 37/175/390 110/131/391 108/129/392
f 76/176/393 75/174/394 109/130/395 111/132/396
f 37/175/397 36/177/398 112/133/399 110/131/400
f 77/178/401 76/176/402 111/132/403 113/134/404
f 36/177/405 35/179/406 114/135/407 112/133/408
f 78/180/409 77/178/410 113/134/411 115/136/412
f 35/179/413 34/181/414 116/137/415 114/135/416
f 79/182/417 78/183/418 115/139/419 117/138/420
f 34/184/421 33/185/422 118/141/423 116/140/424
f 80/186/425 79/182/426 117/138/427 119/142/428
f 33/185/429 32/187/430 120/143/431 118/141/432
f 71/167/433 80/186/434 119/142/435 101/123/436
f 32/187/437 31/168/438 103/124/439 120/143/440
f 122/188/441 121/189/442 71/190/443 72/191/444
f 123/192/445 122/188/446 72/191/447 73/193/448
f 124/194/449 123/192/450 73/193/451 74/195/452
f 125/196/453 124/194/454 74/195/455 75/197/456
f 126/198/457 125/196/458 75/197/459 76/199/460
f 127/200/461 126/198/462 76/199/463 77/201/464
f 128/202/465 127/200/466 77/201/467 78/203/468
f 129/204/469 128/205/470 78/206/471 79/207/472
f 130/208/473 129/204/474 79/207/475 80/209/476
f 121/189/477 130/208/478 80/209/479 71/190/480
f 142/210/481 141/211/482 143/212/483 144/213/484
f 145/214/485 142/210/486 144/213/487 146/215/488
f 147/216/489 145/214/490 146/215/491 148/217/492
f 149/218/493 147/216/494 148/217/495 150/219/496
f 151/220/497 149/218/498 150/219/499 152/221/500
f 153/222/501 151/220/502 152/221/503 154/223/504
f 155/224/505 153/222/506 154/223/507 156/225/508
f 157/226/509 155/227/510 156/228/511 158/229/512
f 159/230/513 157/226/514 158/229/515 160/231/516
f 141/211/517 159/230/518 160/231/519 143/212/520
f 132/232/521 131/233/522 141/211/523 142/210/524
f 121/234/525 122/235/526 144/213/527 143/212/528
f 133/236/529 132/232/530 142/210/531 145/214/532
f 122/235/533 123/237/534 146/215/535 144/213/536
f 134/238/537 133/236/538 145/214/539 147/216/540
f 123/237/541 124/239/542 148/217/543 146/215/544
f 135/240/545 134/238/546 147/216/547 149/218/548
f 124/239/549 125/241/550 150/219/551 148/217/552
f 136/242/553 135/240/554 149/218/555 151/220/556
f 125/241/557 126/243/558 152/221/559 150/219/560
f 137/244/561 136/242/562 151/220/563 153/222/564
f 126/243/565 127/245/566 154/223/567 152/221/568
f 138/246/569 137/244/570 153/222/571 155/224/572
f 127/245/573 128/247/574 156/225/575 154/223/576
f 139/248/577 138/249/578 155/227/579 157/226/580
f 128/250/581 129/251/582 158/229/583 156/228/584
f 140/252/585 139/248/586 157/226/587 159/230/588
f 129/251/589 130/253/590 160/231/591 158/229/592
f 131/233/593 140/252/594 159/230/595 141/211/596
f 130/253/597 121/234/598 143/212/599 160/231/600
