#File written by LIBUNFOLD3D. Compilation :Dec 22 2011,11:53:02
mtllib bathroom2.mtl
#begin vertices
v 26.153358000000001 296.06189000000001 75.372635000000002
v 51.913555000000002 296.06189000000001 75.372635000000002
v 26.153358000000001 321.28289799999999 75.345153999999994
v 51.913555000000002 321.28289799999999 75.345153999999994
v 26.153358000000001 321.30450400000001 69.213531000000003
v 51.913555000000002 321.30450400000001 69.213531000000003
v 26.153358000000001 295.69500699999998 71.995743000000004
v 51.913555000000002 295.69500699999998 71.995743000000004
v 39.033454999999996 291.352509 75.060256999999993
v 39.033454999999996 325.92526199999998 75.687714
v 39.033454999999996 325.89810199999999 68.460373000000004
v 39.033454999999996 291.046875 72.246628000000001
v 21.505289000000001 308.40033 75.348343
v 21.505289000000001 308.47247299999998 70.353515999999999
v 56.561619 308.47247299999998 70.353515999999999
v 56.561619 308.40033 75.348343
v 23.311174000000001 308.47247299999998 70.353515999999999
v 39.033454999999996 292.84216300000003 72.051590000000004
v 27.480366 297.01144399999998 71.826537999999999
v 54.755737000000003 308.47247299999998 70.353515999999999
v 50.586551999999998 297.01144399999998 71.826537999999999
v 27.480366 319.98245200000002 69.330971000000005
v 39.033454999999996 324.10281400000002 68.655417999999997
v 50.586551999999998 319.98245200000002 69.330971000000005
v 23.311174000000001 308.626892 71.774895000000001
v 39.033454999999996 308.626892 71.774895000000001
v 39.033454999999996 292.99658199999999 73.472977
v 27.480366 297.165863 73.247924999999995
v 54.755737000000003 308.626892 71.774895000000001
v 50.586551999999998 297.165863 73.247924999999995
v 27.480366 320.13687099999999 70.752357000000003
v 39.033454999999996 324.25723299999999 70.076796999999999
v 50.586551999999998 320.13687099999999 70.752357000000003
v 26.153358000000001 296.06189000000001 75.372635000000002
v 39.033454999999996 291.352509 75.060256999999993
v 39.033454999999996 308.40033 75.348358000000005
v 21.505289000000001 308.40033 75.348343
v 56.561619 308.40033 75.348343
v 51.913555000000002 296.06189000000001 75.372635000000002
v 39.033454999999996 325.92526199999998 75.687714
v 51.913555000000002 321.28289799999999 75.345153999999994
v 26.153358000000001 321.28289799999999 75.345153999999994
#end vertices

#begin 87 textures vertices 
vt 0.85124847164297379 0.47232338701744381 0
vt 0.54677503679335004 0.45793621734954071 0
vt 0.83219307841348555 0.65444267543998114 0
vt 0.56549749365434088 0.64015944996597107 0
vt 0.74439779125259931 0.73802241096623544 0
vt 0.65360420759736304 0.72338759696684218 0
vt 0.80652767938322578 0.41838273598753861 0
vt 0.59123998172197756 0.4037155934173341 0
vt 0.94868089182058113 0.44443069615966863 0
vt 0.92305130003367819 0.69824439744566591 0
vt 0.91032795432689051 0.82959159687110395 0
vt 0.4439859882259225 0.376765574929461 0
vt 0.80752877692022706 0.55895347872208567 0
vt 0.70710472650898415 0.55713340720043747 0
vt 0.69074021513269679 0.54294814753247178 0
vt 0.59044792402563462 0.54459151737902389 0
vt 0.13272816383513933 0.56731188213293748 0
vt 0.43149915923999921 0.46773714232686703 0
vt 0.10165446213086991 0.47789501666688672 0
vt 0.31107087414291357 0.58845642015320443 0
vt 0.34222590046354251 0.49910202452274538 0
vt 0.10146397099987448 0.65666237066279398 0
vt 0.012047779230477331 0.68774013344198104 0
vt 0.34241625865880826 0.6777442711043955 0
vt 0.9323385201461889 0.22475907297890083 0
vt 0.71957942373261718 0.22475907632355935 0
vt 0.7195794237999048 0.012000000000000455 0
vt 0.87593455828567524 0.068404053478448412 0
vt 0.50682031378605663 0.22475907282201396 0
vt 0.56322418104683181 0.068404053366352524 0
vt 0.87593456321765495 0.38111420984038297 0
vt 0.71957942364301497 0.43751859306763852 0
vt 0.56322417588426177 0.38111420972188514 0
vt 0.077666284704878158 0.075383404218645977 0
vt 0.25218222742601692 0.012000000000000455 0
vt 0.25020565277104367 0.24324942960903356 0
vt 0.012000000000000455 0.2416540550676019 0
vt 0.4884018415616031 0.24572222305591335 0
vt 0.42559797007977807 0.078351802674443555 0
vt 0.24818208955964255 0.48153540883955415 0
vt 0.42218644189512639 0.41868452532436351 0
vt 0.075264913066441425 0.41573289202963754 0
vt 0.6268056241359572 0.75241147860787028 0
vt 0.60499894747376615 0.8654191286078794 0
vt 0.23888180532451186 0.85067532352861752 0
vt 0.17563211152920219 0.57913580056828806 0
vt 0.27469515555504959 0.63817037938816268 0
vt 0.29741633293093683 0.7512950726115718 0
vt 0.66262627128840668 0.96500264916342315 0
vt 0.77684024335907187 0.98800000000000043 0
vt 0.65398797295756372 0.77129876517832241 0
vt 0.73258595760295564 0.72756409909433739 0
vt 0.63924640471833816 0.8596474260084247 0
vt 0.24751650302612527 0.6571722842567822 0
vt 0.26317835953067409 0.74551902366743061 0
vt 0.77075931845827272 0.95379797095990559 0
vt 0.68215538183902913 0.93827612906842262 0
vt 0.21938798312639662 0.82384228144712435 0
vt 0.4317933217335177 0.74879730062931049 0
vt 0.12959535034555725 0.68485003927475541 0
vt 0.12984587262246738 0.44976721845922885 0
vt 0.27119159293555373 0.58849891611192007 0
vt 0.012341854783380693 0.40676007949252524 0
vt 0.31403056335707608 0.47096838346564984 0
vt 0.31428096450736343 0.70593779052854622 0
vt 0.17259483963699021 0.56735436452576293 0
vt 0.075264913066441425 0.41573289202963754 0
vt 0.42559797007977807 0.078351802674443555 0
vt 0.24818208955964255 0.48153540883955415 0
vt 0.077666284704878158 0.075383404218645977 0
vt 0.25218222742601692 0.012000000000000455 0
vt 0.4884018415616031 0.24572222305591335 0
vt 0.012000000000000455 0.2416540550676019 0
vt 0.42218644189512639 0.41868452532436351 0
vt 0.48804280448684162 0.81521782485313332 0
vt 0.95388717996088879 0.39114175881620239 0
vt 0.25020565277104367 0.24324942960903356 0
vt 0.47452525884443841 0.68393436572816546 0
vt 0.012304678431168489 0.44662698122303118 0
vt 0.4494267756274537 0.43003741686205782 0
vt 0.43145136722753846 0.4278588840553374 0
vt 0.012000000000000455 0.72760700822929258 0
vt 0.43175613565602794 0.70891904670787564 0
vt 0.72710601958256316 0.69327821165990522 0
vt 0.16955612586721658 0.61333846745733511 0
vt 0.13136767679501696 0.83968443071975996 0
vt 0.12588721507774353 0.87400512988244927 0
#end 87 textures vertices 

#begin 138 normals 
vn 0.0091039999999999992 -0.0075370000000000003 0.99992999999999999
vn -0 -0.0075370000000000003 0.99997199999999997
vn 0 -0.0085640000000000004 0.99996300000000005
vn -0.00057200000000000003 -0.0085699999999999995 0.99996300000000005
vn -0.337505 0.94132400000000005 -0.00038999999999999999
vn -0 1 -0.00041100000000000002
vn -0 1 -0.00041100000000000002
vn -0.337505 0.94132400000000005 -0.00038999999999999999
vn -0.0098060000000000005 -0.108 -0.99410299999999996
vn -0 -0.108005 -0.99414999999999998
vn -0 -0.117747 -0.99304400000000004
vn -0.0098060000000000005 -0.117742 -0.99299599999999999
vn -0.339445 -0.93512300000000004 0.101595
vn 0 -0.99414999999999998 0.108004
vn 0 -0.99414999999999998 0.108004
vn -0.339445 -0.93512300000000004 0.101595
vn 0.93801599999999996 -0.34637699999999999 0.012194
vn 0.93801599999999996 -0.34637699999999999 0.012194
vn 0.99696499999999999 0.077549999999999994 0.0068919999999999997
vn 0.99881200000000003 0.048174000000000002 0.007306
vn -0.93801599999999996 -0.34637800000000002 0.012194
vn -0.93801599999999996 -0.34637800000000002 0.012194
vn -0.99881200000000003 0.048174000000000002 0.007306
vn -0.99696499999999999 0.077549999999999994 0.0068919999999999997
vn 0.00057200000000000003 -0.0085699999999999995 0.99996300000000005
vn -0.0091039999999999992 -0.0075370000000000003 0.99992999999999999
vn 0.33750400000000003 0.94132400000000005 -0.00038499999999999998
vn 0.33750400000000003 0.94132400000000005 -0.00038499999999999998
vn 0.0098060000000000005 -0.108 -0.99410299999999996
vn 0.0098049999999999995 -0.117741 -0.99299599999999999
vn 0.339445 -0.93512399999999996 0.101589
vn 0.339445 -0.93512399999999996 0.101589
vn -0.94038900000000003 0.34008899999999997 0.0028660000000000001
vn -0.94038900000000003 0.34008899999999997 0.0028660000000000001
vn -0.0098060000000000005 -0.098247000000000001 -0.99511400000000005
vn -0 -0.098252000000000006 -0.99516199999999999
vn 0.0098060000000000005 -0.098247000000000001 -0.99511400000000005
vn 0.94038900000000003 0.34008899999999997 0.0028660000000000001
vn 0.94038900000000003 0.34008899999999997 0.0028660000000000001
vn 0 -0.0095560000000000003 0.99995400000000001
vn 0.0098060000000000005 -0.0095549999999999993 0.99990599999999996
vn -0.0098060000000000005 -0.0095549999999999993 0.99990599999999996
vn -0.019608 -0.107984 -0.99395900000000004
vn -0.019608 -0.107984 -0.99395900000000004
vn -0.019608 -0.107984 -0.99395900000000004
vn -0.019608 -0.107984 -0.99395900000000004
vn -1.9999999999999999e-006 -0.12747800000000001 -0.99184099999999997
vn -1.9999999999999999e-006 -0.12747800000000001 -0.99184099999999997
vn -1.9999999999999999e-006 -0.12747800000000001 -0.99184099999999997
vn -1.9999999999999999e-006 -0.12747800000000001 -0.99184099999999997
vn 3.0000000000000001e-006 -0.12747700000000001 -0.99184099999999997
vn 3.0000000000000001e-006 -0.12747700000000001 -0.99184099999999997
vn 3.0000000000000001e-006 -0.12747700000000001 -0.991842
vn 3.0000000000000001e-006 -0.12747700000000001 -0.99184099999999997
vn 0.019608 -0.107985 -0.99395900000000004
vn 0.019608 -0.107985 -0.99395900000000004
vn 0.019608 -0.107985 -0.99395900000000004
vn 0.019608 -0.107985 -0.99395900000000004
vn -0.019609999999999999 -0.10798199999999999 -0.99395999999999995
vn -0.019609999999999999 -0.10798199999999999 -0.99395999999999995
vn -0.019609999999999999 -0.10798199999999999 -0.99395900000000004
vn -0.019609999999999999 -0.10798199999999999 -0.99395900000000004
vn -3.0000000000000001e-006 -0.088489999999999999 -0.99607699999999999
vn -3.0000000000000001e-006 -0.088489999999999999 -0.99607699999999999
vn -3.0000000000000001e-006 -0.088489999999999999 -0.99607699999999999
vn -3.0000000000000001e-006 -0.088489999999999999 -0.99607699999999999
vn 0.019609999999999999 -0.10798099999999999 -0.99395999999999995
vn 0.019609999999999999 -0.10798099999999999 -0.99395999999999995
vn 0.019609999999999999 -0.10798099999999999 -0.99395999999999995
vn 0.019609999999999999 -0.10798099999999999 -0.99395999999999995
vn 3.9999999999999998e-006 -0.088489999999999999 -0.99607699999999999
vn 3.9999999999999998e-006 -0.088489999999999999 -0.99607699999999999
vn 3.9999999999999998e-006 -0.088489999999999999 -0.99607699999999999
vn 3.9999999999999998e-006 -0.088489999999999999 -0.99607699999999999
vn 0.339447 0.93512399999999996 -0.101587
vn 0.33944600000000003 0.93512399999999996 -0.101587
vn 0.339447 0.93512399999999996 -0.101587
vn 0.33944600000000003 0.93512399999999996 -0.101587
vn 0.94062599999999996 0.33745999999999998 -0.036660999999999999
vn 0.94062599999999996 0.33745999999999998 -0.036660999999999999
vn 0.94062599999999996 0.33745999999999998 -0.036660999999999999
vn 0.94062599999999996 0.33745999999999998 -0.036660999999999999
vn -0.94062599999999996 0.33745999999999998 -0.036660999999999999
vn -0.94062599999999996 0.33745999999999998 -0.036660999999999999
vn -0.94062599999999996 0.33745999999999998 -0.036660999999999999
vn -0.94062599999999996 0.33745999999999998 -0.036660999999999999
vn -0.339445 0.93512399999999996 -0.101587
vn -0.339445 0.93512399999999996 -0.101587
vn -0.339445 0.93512399999999996 -0.101587
vn -0.339445 0.93512399999999996 -0.101587
vn 0.33944800000000003 -0.93512200000000001 0.101601
vn 0.33944800000000003 -0.93512200000000001 0.101601
vn 0.33944800000000003 -0.93512200000000001 0.101601
vn 0.33944800000000003 -0.93512200000000001 0.101601
vn 0.94062599999999996 -0.33745900000000001 0.036660999999999999
vn 0.94062599999999996 -0.33745900000000001 0.036660999999999999
vn 0.94062599999999996 -0.33745900000000001 0.036660999999999999
vn 0.94062599999999996 -0.33745900000000001 0.036660999999999999
vn -0.339449 -0.93512099999999998 0.101601
vn -0.339449 -0.93512099999999998 0.101601
vn -0.339449 -0.93512099999999998 0.101601
vn -0.339449 -0.93512099999999998 0.101601
vn -0.94062599999999996 -0.33745999999999998 0.036660999999999999
vn -0.94062599999999996 -0.33745999999999998 0.036660999999999999
vn -0.94062599999999996 -0.33745999999999998 0.036660999999999999
vn -0.94062599999999996 -0.33745999999999998 0.036660999999999999
vn 0 0 0
vn 0 0 0
vn 0 0 0
vn 0 0 0
vn 0 0 0
vn 0 0 0
vn 0 0 0
vn 0 0 0
vn 0 0 0
vn 0 0 0
vn 0 0 0
vn 0 0 0
vn 0 0 0
vn 0 0 0
vn 0 0 0
vn 0 0 0
vn 0 0 0
vn 0 0 0
vn 0 0 0
vn 0 0 0
vn 0 0 0
vn 0 0 0
vn 0 0 0
vn 0 0 0
vn 0 0 0
vn 0 0 0
vn 0 0 0
vn 0 0 0
vn 0 0 0
vn 0 0 0
vn 0 0 0
vn 0 0 0
#end 138 normals 

#begin 40 faces
usemtl initialShadingGroup
g pCube91
s 1
f 34/34/1 35/35/2 36/36/3 37/37/4 
s 2
f 3/3/5 10/10/6 11/11/7 5/5/8 
s 3
f 25/25/9 26/26/10 27/27/11 28/28/12 
s 4
f 7/7/13 12/76/14 9/9/15 1/1/16 
s 5
f 2/2/17 8/8/18 15/15/19 16/16/20 
s 6
f 7/7/21 1/1/22 13/13/23 14/14/24 
s 1
f 38/38/25 36/77/3 35/35/2 39/39/26 
s 2
f 11/75/7 10/78/6 4/4/27 6/6/28 
s 3
f 27/27/11 26/26/10 29/29/29 30/30/30 
s 4
f 9/80/15 12/12/14 8/8/31 2/2/32 
s 6
f 14/14/24 13/13/23 3/3/33 5/5/34 
s 3
f 31/31/35 32/32/36 26/26/10 25/25/9 
f 29/29/29 26/26/10 32/32/36 33/33/37 
s 5
f 16/16/20 15/15/19 6/6/38 4/4/39 
s 1
f 40/40/40 36/77/3 38/38/25 41/41/41 
f 37/37/4 36/36/3 40/40/40 42/42/42 
s off
f 12/63/43 7/61/44 19/19/45 18/79/46 
f 7/61/47 14/66/48 17/17/49 19/19/50 
f 15/62/51 8/64/52 21/21/53 20/20/54 
f 8/64/55 12/81/56 18/18/57 21/21/58 
f 5/60/59 11/82/60 23/23/61 22/22/62 
f 14/66/63 5/60/64 22/22/65 17/17/66 
f 11/59/67 6/65/68 24/24/69 23/83/70 
f 6/65/71 15/62/72 20/20/73 24/24/74 
f 18/52/75 19/51/76 28/43/77 27/84/78 
f 19/51/79 17/53/80 25/44/81 28/43/82 
f 20/55/83 21/54/84 30/47/85 29/48/86 
f 21/54/87 18/85/88 27/46/89 30/47/90 
f 22/57/91 23/56/92 32/50/93 31/49/94 
f 17/53/95 22/57/96 31/49/97 25/44/98 
f 23/86/99 24/58/100 33/45/101 32/87/102 
f 24/58/103 20/55/104 29/48/105 33/45/106 
f 1/70/107 9/71/108 35/35/109 34/34/110 
f 13/73/111 1/70/112 34/34/113 37/37/114 
f 9/71/115 2/68/116 39/39/117 35/35/118 
f 2/68/119 16/72/120 38/38/121 39/39/122 
f 16/72/123 4/74/124 41/41/125 38/38/126 
f 4/74/127 10/69/128 40/40/129 41/41/130 
f 10/69/131 3/67/132 42/42/133 40/40/134 
f 3/67/135 13/73/136 37/37/137 42/42/138 
#end 40 faces
#begin 5 properties
#U3D EDG SEL 35 36
#U3D EDG SEL 37 76
#U3D EDG SEL 34 76
#U3D EDG SEL 39 35
#U3D SYM 0 0 0 1 0 0 0.0001 0
#end 5 properties
