#File written by LIBUNFOLD3D. Compilation :Dec 22 2011,11:53:02
mtllib Bin.mtl
#begin vertices
v 302.78863100000001 -5.1198969999999999 321.29486500000002
v 300.67190499999998 -5.1198969999999999 318.38151199999999
v 297.24703599999998 -5.1198969999999999 317.26868100000002
v 293.82221099999998 -5.1198969999999999 318.38151199999999
v 291.70550700000001 -5.1198969999999999 321.29486500000002
v 291.70550700000001 -5.1198969999999999 324.89604100000003
v 293.82221099999998 -5.1198969999999999 327.809371
v 297.24703599999998 -5.1198969999999999 328.92222400000003
v 300.67190499999998 -5.1198969999999999 327.809371
v 302.78863100000001 -5.1198969999999999 324.89604100000003
v 302.78863100000001 8.7065079999999995 321.29486500000002
v 300.67190499999998 8.7065079999999995 318.38151199999999
v 297.24703599999998 8.7065079999999995 317.26868100000002
v 293.82221099999998 8.7065079999999995 318.38151199999999
v 291.70550700000001 8.7065079999999995 321.29486500000002
v 291.70550700000001 8.7065079999999995 324.89604100000003
v 293.82221099999998 8.7065079999999995 327.809371
v 297.24703599999998 8.7065079999999995 328.92222400000003
v 300.67190499999998 8.7065079999999995 327.809371
v 302.78863100000001 8.7065079999999995 324.89604100000003
v 303.55593900000002 8.7065079999999995 321.04554100000001
v 301.14614599999999 8.7065079999999995 317.72876300000001
v 297.24703599999998 8.7065079999999995 316.46183000000002
v 293.34790299999997 8.7065079999999995 317.72876300000001
v 290.938109 8.7065079999999995 321.04554100000001
v 290.938109 8.7065079999999995 325.14536399999997
v 293.34790299999997 8.7065079999999995 328.46214199999997
v 297.24703599999998 8.7065079999999995 329.72907500000002
v 301.14614599999999 8.7065079999999995 328.46214199999997
v 303.55593900000002 8.7065079999999995 325.14536399999997
v 303.55593900000002 10.237368999999999 321.04554100000001
v 301.14614599999999 10.237368999999999 317.72876300000001
v 297.24703599999998 10.237368999999999 316.46183000000002
v 293.34790299999997 10.237368999999999 317.72876300000001
v 290.938109 10.237368999999999 321.04554100000001
v 290.938109 10.237368999999999 325.14536399999997
v 293.34790299999997 10.237368999999999 328.46214199999997
v 297.24703599999998 10.237368999999999 329.72907500000002
v 301.14614599999999 10.237368999999999 328.46214199999997
v 303.55593900000002 10.237368999999999 325.14536399999997
v 298.09562899999997 10.237368999999999 322.81972300000001
v 297.77148799999998 10.237368999999999 322.37357700000001
v 297.24701299999998 10.237368999999999 322.20316000000003
v 296.72253799999999 10.237368999999999 322.37357700000001
v 296.39837599999998 10.237368999999999 322.81972300000001
v 296.39837599999998 10.237368999999999 323.37120399999998
v 296.72253799999999 10.237368999999999 323.81737299999998
v 297.24701299999998 10.237368999999999 323.98776700000002
v 297.77148799999998 10.237368999999999 323.81737299999998
v 298.09562899999997 10.237368999999999 323.37120399999998
v 298.09562899999997 11.677813 322.81972300000001
v 297.24701299999998 11.677813 323.09547500000002
v 297.77148799999998 11.677813 322.37357700000001
v 297.24701299999998 11.677813 322.20316000000003
v 296.72253799999999 11.677813 322.37357700000001
v 296.39837599999998 11.677813 322.81972300000001
v 296.39837599999998 11.677813 323.37120399999998
v 296.72253799999999 11.677813 323.81737299999998
v 297.24701299999998 11.677813 323.98776700000002
v 297.77148799999998 11.677813 323.81737299999998
v 298.09562899999997 11.677813 323.37120399999998
#end vertices

#begin 127 textures vertices 
vt 0.11747933446145689 0.012000000000000665 0
vt 0.22295739227220482 0.012000000000000455 0
vt 0.32843531116076036 0.012000000000000875 0
vt 0.4339120043586191 0.012000000000001185 0
vt 0.0120000000000016 0.42918657606428362 0
vt 0.11747933446145782 0.42918657606428495 0
vt 0.22295646849550813 0.42918657606428534 0
vt 0.32843336082733149 0.42918657606428534 0
vt 0.4339114788475375 0.42918657606428495 0
vt 0.012000000000000455 0.012000000000001291 0
vt 0.11747933446145728 0.41697881730705477 0
vt 0.22295739227220499 0.41697881730705455 0
vt 0.32843531116076008 0.41697881730705472 0
vt 0.4339120043586186 0.41697881730705477 0
vt 0.53938968340440885 0.41697881730705494 0
vt 0.11747933446145678 0.8341653933713391 0
vt 0.22295646849550813 0.83416539337133955 0
vt 0.3284333608273321 0.83416539337133955 0
vt 0.4339114788475385 0.83416539337133866 0
vt 0.53938899164850418 0.83416539337133799 0
vt 0.73978894888321378 0.7896458448458773 0
vt 0.85746629560622634 0.76572850562945283 0
vt 0.938612101577597 0.67721067582675798 0
vt 0.95222928470600277 0.5579011027854619 0
vt 0.8931187805841625 0.45337383608322662 0
vt 0.8896049358883189 0.40933892739066335 0
vt 0.76952241497393514 0.40890378073281541 0
vt 0.67211651952588525 0.47913406926706581 0
vt 0.63459569661864068 0.59320525698809012 0
vt 0.67128878510069012 0.70754516386495936 0
vt 0.13208482824771717 0.94825950445269991 0
vt 0.25216812037016112 0.94825950445268514 0
vt 0.37225162473162354 0.94825950445269513 0
vt 0.49233576979520965 0.94825950445270968 0
vt 0.61241907913409721 0.94825950445271623 0
vt 0.13208482824771411 0.89121244891206219 0
vt 0.25216813758662004 0.89121244891212803 0
vt 0.37225228265021898 0.89121244891210261 0
vt 0.49233578701169306 0.89121244891202622 0
vt 0.6124190791341444 0.8912124489119303 0
vt 0.74838631664556643 0.22796854283568491 0
vt 0.73487713821303913 0.22481338954082863 0
vt 0.72580248441916584 0.21432029813041592 0
vt 0.72462885763889873 0.20049723375107473 0
vt 0.73180402790573662 0.18862380422773181 0
vt 0.74458814246542082 0.18323581155925284 0
vt 0.7580980615828079 0.1863912385959525 0
vt 0.767172149696981 0.19688458946314744 0
vt 0.76834643157980553 0.21070739803700367 0
vt 0.76117043957537323 0.22258050774215923 0
vt 0.65149655475658641 0.8181950228189635 0
vt 0.65646544690198805 0.79253620716303674 0
vt 0.63736352892920944 0.81037438853599053 0
vt 0.63052644369956445 0.79574014748038968 0
vt 0.63359717602032906 0.7798821101262563 0
vt 0.64540240939822235 0.76885700765355358 0
vt 0.66143359505023436 0.76687686363473273 0
vt 0.6755673648747651 0.7746980257900824 0
vt 0.68240378150971837 0.7893323494293305 0
vt 0.67933371778364493 0.80519030419981685 0
vt 0.66752774040859797 0.81621487880014254 0
vt 0.84583308096216292 0.7451576255319905 0
vt 0.74246853199611718 0.76616692577195578 0
vt 0.65822851247166536 0.59329154981931431 0
vt 0.9171090850888769 0.66740595282464432 0
vt 0.92906945585571288 0.56260956768147508 0
vt 0.96732887398699985 0.49409747856332709 0
vt 0.88221969579677761 0.43178923042380901 0
vt 0.77674325138892975 0.43140781317538224 0
vt 0.69118540855871169 0.49309436232688347 0
vt 0.64649523964490285 0.72240601680401506 0
vt 0.25216812037015984 0.90342020766935627 0
vt 0.1320848282477082 0.90342020766937148 0
vt 0.49233578701165964 0.84637315212869846 0
vt 0.3722516247316276 0.90342020766936715 0
vt 0.49233576979521348 0.90342020766938125 0
vt 0.012000000000063724 0.84637315212856634 0
vt 0.13208482824776147 0.84637315212873221 0
vt 0.25216813758662576 0.8463731521288006 0
vt 0.37225228265019839 0.84637315212877484 0
vt 0.012000000000000455 0.90342020766939835 0
vt 0.64599004932219795 0.37189364070707537 0
vt 0.76292612209448385 0.39920579188018962 0
vt 0.93569442164725258 0.24979439472300238 0
vt 0.56743931970208039 0.28106502210723189 0
vt 0.55727989115619514 0.1614113875175113 0
vt 0.61938999047677545 0.058638168021675069 0
vt 0.73004821048371127 0.012000000000000455 0
vt 0.8469842596027225 0.039312169861548243 0
vt 0.92553525393620562 0.13014137550717289 0
vt 0.87358433957460002 0.35256761301043898 0
vt 0.87455762186306296 0.82023509701295561 0
vt 0.95569450921455013 0.76583637773366464 0
vt 0.89071016778082135 0.82023509701295572 0
vt 0.90686277579658336 0.82023509701295583 0
vt 0.92301538381234582 0.82023509701295627 0
vt 0.93916829127942758 0.82023509701295627 0
vt 0.92338865689197713 0.76583637773366464 0
vt 0.93954210936855509 0.76583637773366453 0
vt 0.97184690906054649 0.7658363777336652 0
vt 0.9880000000000001 0.76583637773366553 0
vt 0.89071016778082124 0.77804413649089321 0
vt 0.87455762186306218 0.77804413649089321 0
vt 0.90686277579658336 0.77804413649089321 0
vt 0.92301538381234582 0.77804413649089343 0
vt 0.9072356421967378 0.72364541721160291 0
vt 0.9233886568919758 0.72364541721160225 0
vt 0.93954210936855476 0.72364541721160214 0
vt 0.95569450921455146 0.72364541721160214 0
vt 0.97184690906054649 0.72364541721160291 0
vt 0.85840460716782496 0.77804413649089366 0
vt 0.53938968340440929 0.012000000000001185 0
vt 0.012000000000000455 0.83416539337133799 0
vt 0.5393889916485034 0.42918657606428456 0
vt 0.012000000000001055 0.41697881730705533 0
vt 0.61241907913409888 0.9034202076693878 0
vt 0.012000000000000455 0.89121244891189577 0
vt 0.61241907913410776 0.8463731521286022 0
vt 0.012000000000010445 0.94825950445272655 0
vt 0.93916829127942791 0.77804413649089366 0
vt 0.90723564219674036 0.76583637773366497 0
vt 0.98800000000000043 0.72364541721160291 0
vt 0.85840460716782618 0.82023509701295583 0
vt 0.87714886432276928 0.4707956637684178 0
vt 0.9864989966771629 0.48027486298839078 0
vt 0.6904573269597194 0.69372465802259831 0
vt 0.63052644369956434 0.73982545809230926 0
#end 127 textures vertices 

#begin 191 normals 
vn 0.95105499999999998 0 -0.30902099999999999
vn 0.95105499999999998 0 -0.30902099999999999
vn 0.58778300000000006 0 -0.80901800000000001
vn 0.58778300000000006 0 -0.80901800000000001
vn -0 0 -1
vn -0 0 -1
vn -0.58778799999999998 0 -0.80901500000000004
vn -0.58778799999999998 0 -0.80901500000000004
vn -0.95105600000000001 0 -0.30901800000000001
vn -0.95105600000000001 0 -0.30901800000000001
vn -0.95105600000000001 0 0.30901899999999999
vn -0.95105600000000001 0 0.30901899999999999
vn -0.58778799999999998 0 0.80901500000000004
vn -0.58778799999999998 0 0.80901500000000004
vn 0 0 1
vn 0 0 1
vn 0.58778300000000006 0 0.80901800000000001
vn 0.58778300000000006 0 0.80901800000000001
vn 0.95105499999999998 0 0.30902200000000002
vn 0.95105499999999998 0 0.30902200000000002
vn -0 1 0
vn -9.9999999999999995e-007 1 -9.9999999999999995e-007
vn -9.9999999999999995e-007 1 -9.9999999999999995e-007
vn 0 1 0
vn 9.9999999999999995e-007 1 -9.9999999999999995e-007
vn 9.9999999999999995e-007 1 -9.9999999999999995e-007
vn 9.9999999999999995e-007 1 9.9999999999999995e-007
vn 9.9999999999999995e-007 1 9.9999999999999995e-007
vn 0 1 0
vn -9.9999999999999995e-007 1 9.9999999999999995e-007
vn -9.9999999999999995e-007 1 9.9999999999999995e-007
vn 0 -1 0
vn 0 -1 0
vn 0 -1 0
vn 0 -1 0
vn 0 -1 -9.9999999999999995e-007
vn 0 -1 -9.9999999999999995e-007
vn 0 -1 -9.9999999999999995e-007
vn 0 -1 -9.9999999999999995e-007
vn 0 -1 -9.9999999999999995e-007
vn 0 -1 -9.9999999999999995e-007
vn 0 -1 -9.9999999999999995e-007
vn 0 -1 -9.9999999999999995e-007
vn 0 -1 0
vn 0 -1 0
vn 0 -1 0
vn 0 -1 0
vn 0 -1 0
vn 0 -1 0
vn 0 -1 0
vn 0 -1 0
vn 0 -1 0
vn 0 -1 0
vn 0 -1 0
vn 0 -1 0
vn 0 -1 9.9999999999999995e-007
vn 0 -1 9.9999999999999995e-007
vn 0 -1 9.9999999999999995e-007
vn 0 -1 9.9999999999999995e-007
vn 0 -1 9.9999999999999995e-007
vn 0 -1 9.9999999999999995e-007
vn 0 -1 9.9999999999999995e-007
vn 0 -1 9.9999999999999995e-007
vn 0 -1 -0
vn 0 -1 -0
vn 0 -1 -0
vn 0 -1 -0
vn 0 -1 0
vn 0 -1 0
vn 0 -1 0
vn 0 -1 0
vn 0.80901500000000004 0 -0.58778699999999995
vn 0.80901500000000004 0 -0.58778699999999995
vn 0.80901500000000004 0 -0.58778699999999995
vn 0.80901500000000004 0 -0.58778699999999995
vn 0.30902499999999999 0 -0.95105399999999995
vn 0.30902499999999999 0 -0.95105399999999995
vn 0.30902499999999999 0 -0.95105399999999995
vn 0.30902499999999999 0 -0.95105399999999995
vn -0.30902299999999999 0 -0.95105399999999995
vn -0.30902299999999999 0 -0.95105399999999995
vn -0.30902299999999999 0 -0.95105399999999995
vn -0.30902299999999999 0 -0.95105399999999995
vn -0.80901500000000004 0 -0.58778699999999995
vn -0.80901500000000004 0 -0.58778699999999995
vn -0.80901500000000004 0 -0.58778699999999995
vn -0.80901500000000004 0 -0.58778699999999995
vn -1 0 0
vn -1 0 0
vn -1 0 0
vn -1 0 0
vn -0.80901500000000004 0 0.58778699999999995
vn -0.80901500000000004 0 0.58778699999999995
vn -0.80901500000000004 0 0.58778699999999995
vn -0.80901500000000004 0 0.58778699999999995
vn -0.30902299999999999 0 0.95105399999999995
vn -0.30902299999999999 0 0.95105399999999995
vn -0.30902299999999999 0 0.95105399999999995
vn -0.30902299999999999 0 0.95105399999999995
vn 0.30902499999999999 0 0.95105399999999995
vn 0.30902499999999999 0 0.95105399999999995
vn 0.30902499999999999 0 0.95105399999999995
vn 0.30902499999999999 0 0.95105399999999995
vn 0.80901500000000004 0 0.58778699999999995
vn 0.80901500000000004 0 0.58778699999999995
vn 0.80901500000000004 0 0.58778699999999995
vn 0.80901500000000004 0 0.58778699999999995
vn 1 0 0
vn 1 0 0
vn 1 0 0
vn 1 0 0
vn 0 1 0
vn 0 1 0
vn 0 1 0
vn 0 1 0
vn 0 1 0
vn 0 1 0
vn 0 1 0
vn 0 1 0
vn 0 1 -0
vn 0 1 -0
vn 0 1 -0
vn 0 1 -0
vn 0 1 0
vn 0 1 0
vn 0 1 0
vn 0 1 0
vn 0 1 0
vn 0 1 0
vn 0 1 0
vn 0 1 0
vn 0 1 0
vn 0 1 0
vn 0 1 0
vn 0 1 0
vn 0 1 0
vn 0 1 0
vn 0 1 0
vn 0 1 0
vn 0 1 -0
vn 0 1 -0
vn 0 1 -0
vn 0 1 -0
vn 0 1 0
vn 0 1 0
vn 0 1 0
vn 0 1 0
vn 0 1 0
vn 0 1 0
vn 0 1 0
vn 0 1 0
vn 0.80901999999999996 0 -0.587781
vn 0.80901999999999996 0 -0.587781
vn 0.80901999999999996 0 -0.587781
vn 0.80901999999999996 0 -0.587781
vn 0.30902400000000002 0 -0.95105399999999995
vn 0.30902400000000002 0 -0.95105399999999995
vn 0.30902400000000002 0 -0.95105399999999995
vn 0.30902400000000002 0 -0.95105399999999995
vn -0.30902400000000002 0 -0.95105399999999995
vn -0.30902400000000002 0 -0.95105399999999995
vn -0.30902400000000002 0 -0.95105399999999995
vn -0.30902400000000002 0 -0.95105399999999995
vn -0.80900099999999997 0 -0.587808
vn -0.80900099999999997 0 -0.587808
vn -0.80900099999999997 0 -0.587808
vn -0.80900099999999997 0 -0.587808
vn -1 0 0
vn -1 0 0
vn -1 0 0
vn -1 0 0
vn -0.80901500000000004 0 0.58778799999999998
vn -0.80901500000000004 0 0.58778799999999998
vn -0.80901500000000004 0 0.58778799999999998
vn -0.80901500000000004 0 0.58778799999999998
vn -0.30898799999999998 0 0.95106599999999997
vn -0.30898799999999998 0 0.95106599999999997
vn -0.30898799999999998 0 0.95106599999999997
vn -0.30898799999999998 0 0.95106599999999997
vn 0.30898799999999998 0 0.95106599999999997
vn 0.30898799999999998 0 0.95106599999999997
vn 0.30898799999999998 0 0.95106599999999997
vn 0.30898799999999998 0 0.95106599999999997
vn 0.80903400000000003 0 0.58776200000000001
vn 0.80903400000000003 0 0.58776200000000001
vn 0.80903400000000003 0 0.58776200000000001
vn 0.80903400000000003 0 0.58776200000000001
vn 1 0 0
vn 1 0 0
vn 1 0 0
vn 1 0 0
#end 191 normals 

#begin 60 faces
usemtl initialShadingGroup
g pCylinder24
s 1
f 11/11/1 1/1/2 2/2/3 12/12/4 
f 12/12/4 2/2/3 3/3/5 13/13/6 
f 13/13/6 3/3/5 4/4/7 14/14/8 
f 14/14/8 4/4/7 5/112/9 15/15/10 
f 15/113/10 5/5/9 6/6/11 16/16/12 
f 16/16/12 6/6/11 7/7/13 17/17/14 
f 17/17/14 7/7/13 8/8/15 18/18/16 
f 18/18/16 8/8/15 9/9/17 19/19/18 
f 19/19/18 9/9/17 10/114/19 20/20/20 
f 20/115/20 10/10/19 1/1/2 11/11/1 
s 2
f 52/52/21 51/51/22 53/53/23 
f 52/52/21 53/53/23 54/54/24 
f 52/52/21 54/54/24 55/55/25 
f 52/52/21 55/55/25 56/56/26 
f 52/52/21 56/56/26 57/57/27 
f 52/52/21 57/57/27 58/58/28 
f 52/52/21 58/58/28 59/59/29 
f 52/52/21 59/59/29 60/60/30 
f 52/52/21 60/60/30 61/61/31 
f 52/52/21 61/61/31 51/51/22 
s off
f 11/63/32 12/62/33 22/22/34 21/21/35 
f 12/62/36 13/65/37 23/23/38 22/22/39 
f 13/65/40 14/66/41 24/24/42 23/23/43 
f 14/66/44 15/124/45 25/25/46 24/24/47 
f 15/67/48 16/68/49 26/26/50 25/125/51 
f 16/68/52 17/69/53 27/27/54 26/26/55 
f 17/69/56 18/70/57 28/28/58 27/27/59 
f 18/70/60 19/64/61 29/29/62 28/28/63 
f 19/64/64 20/126/65 30/30/66 29/29/67 
f 20/71/68 11/63/69 21/21/70 30/127/71 
f 21/73/72 22/72/73 32/32/74 31/31/75 
f 22/72/76 23/75/77 33/33/78 32/32/79 
f 23/75/80 24/76/81 34/34/82 33/33/83 
f 24/76/84 25/116/85 35/35/86 34/34/87 
f 25/77/88 26/78/89 36/36/90 35/117/91 
f 26/78/92 27/79/93 37/37/94 36/36/95 
f 27/79/96 28/80/97 38/38/98 37/37/99 
f 28/80/100 29/74/101 39/39/102 38/38/103 
f 29/74/104 30/118/105 40/40/106 39/39/107 
f 30/81/108 21/73/109 31/31/110 40/119/111 
f 31/83/112 32/82/113 42/42/114 41/41/115 
f 32/82/116 33/85/117 43/43/118 42/42/119 
f 33/85/120 34/86/121 44/44/122 43/43/123 
f 34/86/124 35/87/125 45/45/126 44/44/127 
f 35/87/128 36/88/129 46/46/130 45/45/131 
f 36/88/132 37/89/133 47/47/134 46/46/135 
f 37/89/136 38/90/137 48/48/138 47/47/139 
f 38/90/140 39/84/141 49/49/142 48/48/143 
f 39/84/144 40/91/145 50/50/146 49/49/147 
f 40/91/148 31/83/149 41/41/150 50/50/151 
f 41/103/152 42/102/153 53/94/154 51/92/155 
f 42/102/156 43/104/157 54/95/158 53/94/159 
f 43/104/160 44/105/161 55/96/162 54/95/163 
f 44/105/164 45/120/165 56/97/166 55/96/167 
f 45/106/168 46/107/169 57/98/170 56/121/171 
f 46/107/172 47/108/173 58/99/174 57/98/175 
f 47/108/176 48/109/177 59/93/178 58/99/179 
f 48/109/180 49/110/181 60/100/182 59/93/183 
f 49/110/184 50/122/185 61/101/186 60/100/187 
f 50/111/188 41/103/189 51/92/190 61/123/191 
#end 60 faces
#begin 1 properties
#U3D SYM 0 0 0 1 0 0 0.0001 1
#end 1 properties
