# This file uses centimeters as units for non-parametric coordinates.

mtllib book.mtl
g default
v 7.088613 2.373514 -4.852300
v 4.795439 2.373514 -2.330572
v 7.088613 2.500788 -4.852300
v 4.795439 2.500788 -2.330572
v 8.982635 2.500788 -3.129941
v 6.689462 2.500788 -0.608213
v 8.982635 2.373514 -3.129941
v 6.689462 2.373514 -0.608213
v 6.038485 2.574177 -3.697509
v 7.932508 2.574177 -1.975150
v 7.932508 2.446903 -1.975150
v 6.038485 2.446903 -3.697509
v 5.845566 2.446903 -3.485363
v 7.739589 2.446903 -1.763004
v 7.739589 2.574177 -1.763004
v 5.845566 2.574177 -3.485363
v 5.909068 2.489422 -3.555194
v 5.909068 2.362148 -3.555194
v 7.803091 2.362148 -1.832835
v 7.803091 2.489422 -1.832835
v 7.869005 2.489422 -1.905319
v 7.869005 2.362148 -1.905319
v 5.974983 2.362148 -3.627678
v 5.974983 2.489422 -3.627678
v 6.690930 2.500788 -0.774113
v 4.960454 2.500788 -2.347749
v 5.934342 2.574177 -3.418702
v 7.664818 2.574177 -1.845066
v 5.993235 2.489422 -3.483464
v 7.723710 2.489422 -1.909828
v 5.447398 2.633569 -2.883225
v 7.177874 2.633569 -1.309590
v 5.203926 2.615418 -2.615487
v 6.934402 2.615418 -1.041851
v 5.690870 2.620728 -3.150964
v 7.421346 2.620728 -1.577328
v 5.569134 2.634249 -3.017094
v 7.299611 2.634249 -1.443459
v 5.812606 2.605908 -3.284833
v 7.543082 2.605908 -1.711197
v 5.082190 2.577419 -2.481618
v 6.812666 2.577419 -0.907982
v 5.325663 2.626450 -2.749356
v 7.056138 2.626450 -1.175720
v 4.988603 2.605329 -2.378704
v 6.719079 2.605329 -0.805068
v 5.109642 2.682652 -2.511805
v 6.840117 2.682652 -0.938169
v 6.066638 2.518508 -3.564184
v 7.797115 2.518508 -1.990548
v 7.729585 2.640461 -1.916287
v 5.999108 2.640461 -3.489923
v 5.481264 2.734689 -2.920466
v 7.211740 2.734689 -1.346831
v 5.606518 2.732389 -3.058204
v 7.336994 2.732389 -1.484568
v 5.233040 2.720004 -2.647503
v 6.963516 2.720004 -1.073867
v 5.357677 2.728947 -2.784561
v 7.088152 2.728947 -1.210926
v 5.730703 2.716359 -3.194767
v 7.461180 2.716359 -1.621131
v 5.857726 2.698237 -3.334450
v 7.588202 2.698237 -1.760814
v 8.817619 2.500788 -3.112764
v 7.087144 2.500788 -4.686400
v 6.113255 2.574177 -3.615447
v 7.843731 2.574177 -2.041811
v 6.054363 2.489421 -3.550685
v 7.784840 2.489421 -1.977049
v 6.600199 2.633569 -4.150924
v 8.330676 2.633569 -2.577288
v 6.843671 2.615418 -4.418662
v 8.574147 2.615418 -2.845026
v 6.356727 2.620728 -3.883185
v 8.087203 2.620728 -2.309549
v 6.478463 2.634249 -4.017055
v 8.208940 2.634249 -2.443419
v 6.234992 2.605909 -3.749316
v 7.965468 2.605909 -2.175680
v 6.965407 2.571031 -4.552531
v 8.695884 2.571031 -2.978895
v 6.721935 2.626449 -4.284793
v 8.452412 2.626449 -2.711157
v 7.058994 2.605329 -4.655445
v 8.789471 2.605329 -3.081809
v 6.937956 2.676264 -4.522344
v 8.668432 2.676264 -2.948708
v 5.980958 2.518507 -3.469965
v 7.711435 2.518507 -1.896329
v 7.778965 2.640461 -1.970590
v 6.048489 2.640461 -3.544226
v 6.566334 2.734689 -4.113683
v 8.296810 2.734689 -2.540047
v 6.441080 2.732389 -3.975945
v 8.171556 2.732389 -2.402309
v 6.814557 2.720004 -4.386646
v 8.545033 2.720004 -2.813010
v 6.689920 2.728947 -4.249588
v 8.420397 2.728947 -2.675951
v 6.316894 2.716359 -3.839382
v 8.047371 2.716359 -2.265746
v 6.189871 2.698237 -3.699699
v 7.920347 2.698237 -2.126063
v 6.777785 2.946436 -0.869624
v 5.047308 2.946436 -2.443260
v 5.156759 2.927171 -2.563618
v 6.887235 2.927171 -0.989983
v 6.023652 2.596444 -3.516912
v 7.754128 2.596444 -1.943276
v 7.697585 2.713148 -1.881098
v 5.967109 2.713148 -3.454734
v 7.226468 2.895826 -1.363026
v 5.495992 2.895826 -2.936662
v 5.609715 2.880830 -3.061720
v 7.340191 2.880830 -1.488084
v 7.000634 2.915885 -1.114685
v 5.270158 2.915885 -2.688320
v 5.384004 2.904188 -2.813512
v 7.114480 2.904188 -1.239876
v 7.450956 2.849747 -1.609889
v 5.720480 2.849747 -3.183525
v 5.835249 2.804987 -3.309733
v 7.565725 2.804987 -1.736097
v 6.890255 3.454190 -0.993305
v 5.159779 3.416121 -2.566941
v 5.258548 3.298361 -2.675553
v 6.988767 3.356804 -1.101635
v 6.022570 2.591620 -3.515723
v 7.753046 2.596720 -1.942087
v 7.744004 2.704739 -1.932144
v 6.013528 2.693951 -3.505780
v 7.323887 3.158605 -1.470155
v 5.593987 3.079735 -3.044425
v 5.702630 3.014736 -3.163896
v 7.432837 3.087763 -1.589964
v 7.099246 3.282573 -1.223124
v 5.369419 3.208782 -2.797474
v 5.482457 3.138238 -2.921779
v 7.212186 3.217452 -1.347322
v 7.530097 2.993859 -1.696917
v 5.799620 2.935648 -3.270553
v 5.896608 2.849745 -3.377208
v 7.627085 2.887191 -1.803572
v 6.739908 2.746386 -0.827972
v 5.009431 2.746386 -2.401608
v 5.119236 2.762476 -2.522357
v 6.849713 2.762476 -0.948721
v 6.023810 2.597231 -3.517087
v 7.754286 2.597231 -1.943450
v 7.706077 2.688174 -1.890437
v 5.975601 2.688174 -3.464073
v 7.191516 2.794490 -1.324591
v 5.461040 2.794490 -2.898227
v 5.576995 2.790291 -3.025739
v 7.307471 2.790291 -1.452103
v 6.963101 2.782062 -1.073410
v 5.232625 2.782062 -2.647046
v 5.347771 2.790456 -2.773669
v 7.078248 2.790456 -1.200033
v 7.421989 2.774091 -1.578035
v 5.691513 2.774091 -3.151671
v 5.810697 2.754490 -3.282733
v 7.541173 2.754490 -1.709098
v 7.043593 3.654154 -1.161924
v 5.313116 3.654154 -2.735560
v 5.404639 3.544543 -2.836204
v 7.135115 3.544543 -1.262568
v 6.025946 2.597966 -3.519436
v 7.756423 2.597966 -1.945800
v 7.745884 2.705883 -1.934212
v 6.015409 2.705883 -3.507848
v 7.443452 3.295204 -1.601637
v 5.712976 3.295204 -3.175273
v 5.804575 3.195961 -3.276001
v 7.535051 3.195961 -1.702366
v 7.239357 3.457062 -1.377200
v 5.508881 3.457062 -2.950836
v 5.613166 3.375741 -3.065515
v 7.343642 3.375741 -1.491879
v 7.609588 3.068874 -1.784331
v 5.879112 3.068874 -3.357967
v 5.949659 2.925843 -3.435546
v 7.680135 2.925843 -1.861910
v 8.144046 3.974374 -2.372057
v 6.413569 3.974374 -3.945693
v 6.371819 3.812400 -3.899781
v 8.102295 3.812400 -2.326145
v 6.023987 2.595470 -3.517281
v 7.754463 2.595470 -1.943645
v 7.747247 2.698150 -1.935710
v 6.016770 2.698150 -3.509346
v 7.907825 3.402046 -2.112293
v 6.177349 3.402046 -3.685929
v 6.115135 3.263668 -3.617514
v 7.845611 3.263668 -2.043878
v 8.042085 3.666529 -2.259934
v 6.311609 3.666529 -3.833570
v 6.245554 3.530687 -3.760931
v 7.976030 3.530687 -2.187295
v 7.801096 3.110229 -1.994927
v 6.070621 3.110229 -3.568563
v 6.030774 2.943336 -3.524745
v 7.761250 2.943336 -1.951109
v 8.441819 3.732115 -2.699508
v 6.711342 3.675673 -4.273144
v 6.620770 3.506876 -4.173544
v 8.350230 3.589070 -2.598791
v 6.025234 2.599929 -3.518652
v 7.755710 2.599929 -1.945017
v 7.754763 2.705839 -1.943976
v 6.024287 2.701088 -3.517612
v 8.022533 3.279638 -2.238435
v 6.292665 3.193810 -3.812738
v 6.197738 3.115439 -3.708350
v 7.928214 3.183612 -2.134714
v 8.240281 3.464152 -2.477884
v 6.511901 3.371077 -4.053825
v 6.400327 3.269027 -3.931130
v 8.129110 3.362423 -2.355633
v 7.862950 3.064912 -2.062945
v 6.132473 3.015735 -3.636581
v 6.076911 2.900294 -3.575480
v 7.807386 2.929273 -2.001844
v 8.592318 3.399613 -2.865007
v 6.861842 3.361876 -4.438643
v 6.765190 3.244682 -4.332357
v 8.495666 3.302413 -2.758721
v 6.024720 2.590187 -3.518088
v 7.755196 2.595850 -1.944452
v 7.764237 2.702876 -1.954394
v 6.033762 2.691484 -3.528030
v 8.178103 3.131689 -2.409509
v 6.447628 3.053983 -3.983145
v 6.343297 2.998739 -3.868417
v 8.073773 3.071253 -2.294781
v 8.390090 3.234129 -2.642624
v 6.659613 3.161687 -4.216259
v 6.553113 3.101337 -4.099144
v 8.283590 3.179043 -2.525509
v 7.978145 2.983401 -2.189621
v 6.247669 2.924997 -3.763258
v 6.150681 2.842649 -3.656602
v 7.881157 2.880547 -2.082966
v 8.688921 3.047910 -2.971238
v 6.958444 3.047910 -4.544874
v 6.849366 2.989542 -4.424924
v 8.579842 2.989542 -2.851288
v 6.023498 2.594995 -3.516743
v 7.753973 2.594995 -1.943107
v 7.775383 2.697453 -1.966650
v 6.044907 2.697453 -3.540287
v 8.244398 2.962660 -2.482412
v 6.513923 2.962660 -4.056048
v 6.403047 2.947569 -3.934122
v 8.133524 2.947569 -2.360486
v 8.466543 2.967738 -2.726697
v 6.736067 2.967738 -4.300333
v 6.623905 2.961808 -4.176991
v 8.354380 2.961808 -2.603355
v 8.026885 2.897550 -2.243219
v 6.296409 2.897550 -3.816855
v 6.186132 2.830514 -3.695587
v 7.916608 2.830514 -2.121951
v 8.763754 2.803720 -3.053529
v 7.033277 2.803720 -4.627165
v 6.923139 2.813579 -4.506050
v 8.653615 2.813579 -2.932414
v 6.023645 2.597231 -3.516905
v 7.754121 2.597231 -1.943269
v 7.799501 2.690813 -1.993172
v 6.069025 2.690813 -3.566809
v 8.310750 2.826183 -2.555377
v 6.580275 2.826183 -4.129013
v 6.464150 2.815399 -4.001316
v 8.194627 2.815399 -2.427680
v 8.539808 2.826728 -2.807263
v 6.809331 2.826728 -4.380899
v 6.693989 2.828591 -4.254061
v 8.424465 2.828591 -2.680425
v 8.080441 2.792716 -2.302112
v 6.349964 2.792716 -3.875748
v 6.231464 2.766384 -3.745438
v 7.961941 2.766384 -2.171802
vt 0.375612 0.719053
vt 0.375585 0.971135
vt 0.221862 0.971009
vt 0.221893 0.718324
vt 0.212570 0.971125
vt 0.212570 0.718997
vt 0.202920 0.718997
vt 0.202920 0.971125
vt 0.193632 0.719670
vt 0.193622 0.971241
vt 0.039911 0.971115
vt 0.039843 0.718940
vt 0.375561 0.983678
vt 0.221838 0.983426
vt 0.212549 0.988295
vt 0.212570 0.975761
vt 0.202921 0.975745
vt 0.202901 0.988279
vt 0.193599 0.983892
vt 0.039900 0.983639
vt 0.027367 0.718997
vt 0.222039 0.705112
vt 0.375755 0.706570
vt 0.388123 0.971125
vt 0.212565 0.714913
vt 0.212684 0.702373
vt 0.203031 0.702281
vt 0.202912 0.714821
vt 0.193759 0.707803
vt 0.039903 0.706344
vt 0.027367 0.971125
vt 0.388123 0.718997
vt 0.141061 0.402592
vt 0.159069 0.402592
vt 0.159069 0.636727
vt 0.141061 0.636727
vt 0.301457 0.636727
vt 0.291410 0.636727
vt 0.291410 0.402592
vt 0.301457 0.402592
vt 0.214362 0.402592
vt 0.232998 0.402592
vt 0.232998 0.636727
vt 0.214362 0.636727
vt 0.177429 0.402592
vt 0.195974 0.402592
vt 0.195974 0.636727
vt 0.177429 0.636727
vt 0.251475 0.402592
vt 0.270374 0.402592
vt 0.270374 0.636727
vt 0.251475 0.636727
vt 0.129789 0.402592
vt 0.129789 0.636727
vt 0.147163 0.653953
vt 0.150678 0.665822
vt 0.165790 0.674601
vt 0.162362 0.662653
vt 0.159313 0.365860
vt 0.162741 0.377808
vt 0.147629 0.369029
vt 0.144115 0.357160
vt 0.273058 0.355869
vt 0.282223 0.359172
vt 0.273792 0.373018
vt 0.265706 0.365492
vt 0.268755 0.662285
vt 0.276841 0.669811
vt 0.285273 0.655965
vt 0.276108 0.652663
vt 0.207959 0.669028
vt 0.212187 0.680509
vt 0.227825 0.680248
vt 0.223158 0.669106
vt 0.220109 0.372312
vt 0.224776 0.383455
vt 0.209138 0.383716
vt 0.204910 0.372235
vt 0.177561 0.666968
vt 0.181196 0.678842
vt 0.196757 0.679857
vt 0.192760 0.668220
vt 0.189711 0.371427
vt 0.193708 0.383064
vt 0.178147 0.382049
vt 0.174512 0.370174
vt 0.238357 0.667571
vt 0.243331 0.678428
vt 0.259189 0.676371
vt 0.253556 0.665888
vt 0.250507 0.369095
vt 0.256140 0.379577
vt 0.240281 0.381635
vt 0.235308 0.370777
vt 0.297145 0.061603
vt 0.297145 0.290020
vt 0.278259 0.290020
vt 0.278259 0.061603
vt 0.132279 0.290020
vt 0.132279 0.061603
vt 0.147704 0.061603
vt 0.147704 0.290020
vt 0.223785 0.061603
vt 0.223785 0.290020
vt 0.205603 0.290020
vt 0.205603 0.061603
vt 0.259845 0.061603
vt 0.259845 0.290020
vt 0.241733 0.290020
vt 0.241733 0.061603
vt 0.187509 0.061603
vt 0.187509 0.290020
vt 0.168987 0.290020
vt 0.168987 0.061603
vt 0.308141 0.061603
vt 0.308141 0.290020
vt 0.285230 0.299796
vt 0.270031 0.307771
vt 0.266604 0.319719
vt 0.281716 0.311665
vt 0.271363 0.027321
vt 0.286562 0.019346
vt 0.283047 0.031215
vt 0.267936 0.039269
vt 0.157618 0.018056
vt 0.164971 0.027678
vt 0.156885 0.035204
vt 0.148453 0.021358
vt 0.163639 0.308128
vt 0.156286 0.298505
vt 0.147122 0.301808
vt 0.155553 0.315654
vt 0.224435 0.314871
vt 0.209236 0.314949
vt 0.204568 0.326091
vt 0.220206 0.326352
vt 0.210567 0.034499
vt 0.225766 0.034421
vt 0.221538 0.045902
vt 0.205900 0.045641
vt 0.254832 0.312811
vt 0.239633 0.314063
vt 0.235636 0.325700
vt 0.251197 0.324685
vt 0.240965 0.033613
vt 0.256164 0.032361
vt 0.252529 0.044235
vt 0.236968 0.045250
vt 0.194037 0.313414
vt 0.178838 0.311731
vt 0.173205 0.322213
vt 0.189064 0.324271
vt 0.180170 0.031281
vt 0.195369 0.032964
vt 0.190395 0.043821
vt 0.174536 0.041764
vt 0.607917 0.682827
vt 0.623915 0.682827
vt 0.623915 0.911244
vt 0.607917 0.911244
vt 0.758591 0.911244
vt 0.744546 0.911244
vt 0.744546 0.682827
vt 0.758591 0.682827
vt 0.673253 0.682827
vt 0.689825 0.682827
vt 0.689825 0.911244
vt 0.673253 0.911244
vt 0.640412 0.682827
vt 0.656977 0.682827
vt 0.656977 0.911244
vt 0.640412 0.911244
vt 0.706187 0.682827
vt 0.723409 0.682827
vt 0.723409 0.911244
vt 0.706187 0.911244
vt 0.789585 0.681705
vt 0.807357 0.681705
vt 0.807357 0.910100
vt 0.789585 0.910100
vt 0.944745 0.910100
vt 0.934394 0.910100
vt 0.934394 0.681705
vt 0.944745 0.681705
vt 0.860182 0.681705
vt 0.877310 0.681705
vt 0.877310 0.910100
vt 0.860182 0.910100
vt 0.825312 0.681705
vt 0.842999 0.681705
vt 0.842999 0.910100
vt 0.825312 0.910100
vt 0.893753 0.681705
vt 0.910700 0.681705
vt 0.910700 0.910100
vt 0.893753 0.910100
vt 0.428556 0.684553
vt 0.444572 0.684532
vt 0.444868 0.912949
vt 0.428853 0.912970
vt 0.581660 0.912772
vt 0.570354 0.912786
vt 0.570057 0.684369
vt 0.581364 0.684355
vt 0.494321 0.684468
vt 0.511157 0.684446
vt 0.511454 0.912863
vt 0.494617 0.912885
vt 0.461141 0.684511
vt 0.477875 0.684489
vt 0.478171 0.912906
vt 0.461438 0.912928
vt 0.527855 0.684424
vt 0.545260 0.684402
vt 0.545557 0.912818
vt 0.528151 0.912841
vt 0.431056 0.374682
vt 0.448117 0.374682
vt 0.448117 0.603099
vt 0.431056 0.603099
vt 0.583463 0.603099
vt 0.572814 0.603099
vt 0.572814 0.374682
vt 0.583463 0.374682
vt 0.499072 0.374682
vt 0.515525 0.374682
vt 0.515525 0.603099
vt 0.499072 0.603099
vt 0.465493 0.374682
vt 0.482587 0.374682
vt 0.482587 0.603099
vt 0.465493 0.603099
vt 0.531990 0.374682
vt 0.549309 0.374682
vt 0.549309 0.603099
vt 0.531990 0.603099
vt 0.760157 0.373360
vt 0.760157 0.601777
vt 0.743218 0.601777
vt 0.743218 0.373360
vt 0.610166 0.601777
vt 0.610166 0.373360
vt 0.620248 0.373360
vt 0.620248 0.601777
vt 0.694143 0.373360
vt 0.694143 0.601777
vt 0.677890 0.601777
vt 0.677890 0.373360
vt 0.726505 0.373360
vt 0.726505 0.601777
vt 0.710137 0.601777
vt 0.710137 0.373360
vt 0.661572 0.373360
vt 0.661572 0.601777
vt 0.644278 0.601777
vt 0.644278 0.373360
vt 0.944372 0.369493
vt 0.944372 0.597907
vt 0.924192 0.597907
vt 0.924192 0.369493
vt 0.790251 0.597907
vt 0.790251 0.369493
vt 0.800360 0.369493
vt 0.800360 0.597907
vt 0.867496 0.369493
vt 0.867496 0.597907
vt 0.851320 0.597907
vt 0.851320 0.369493
vt 0.903836 0.369493
vt 0.903836 0.597907
vt 0.884856 0.597907
vt 0.884856 0.369493
vt 0.837045 0.369493
vt 0.837045 0.597907
vt 0.822364 0.597907
vt 0.822364 0.369493
vt 0.584400 0.064057
vt 0.584400 0.292447
vt 0.566881 0.292447
vt 0.566881 0.064057
vt 0.434897 0.292447
vt 0.434897 0.064057
vt 0.445151 0.064057
vt 0.445151 0.292447
vt 0.517415 0.064057
vt 0.517415 0.292447
vt 0.501253 0.292447
vt 0.501253 0.064057
vt 0.549860 0.064057
vt 0.549860 0.292447
vt 0.533407 0.292447
vt 0.533407 0.064057
vt 0.485278 0.064057
vt 0.485278 0.292447
vt 0.468528 0.292447
vt 0.468528 0.064057
vt 0.760225 0.064247
vt 0.760225 0.298201
vt 0.744008 0.298201
vt 0.744008 0.064247
vt 0.613677 0.298201
vt 0.613677 0.064247
vt 0.624408 0.064247
vt 0.624408 0.298201
vt 0.694137 0.064247
vt 0.694137 0.298201
vt 0.677653 0.298201
vt 0.677653 0.064247
vt 0.727164 0.064247
vt 0.727164 0.298201
vt 0.710488 0.298201
vt 0.710488 0.064247
vt 0.661799 0.064247
vt 0.661799 0.298201
vt 0.645404 0.298201
vt 0.645404 0.064247
vt 0.950736 0.062065
vt 0.950736 0.290482
vt 0.934720 0.290482
vt 0.934720 0.062065
vt 0.797926 0.290482
vt 0.797926 0.062065
vt 0.809191 0.062065
vt 0.809191 0.290482
vt 0.884900 0.062065
vt 0.884900 0.290482
vt 0.868011 0.290482
vt 0.868011 0.062065
vt 0.918151 0.062065
vt 0.918151 0.290482
vt 0.901407 0.290482
vt 0.901407 0.062065
vt 0.851289 0.062065
vt 0.851289 0.290482
vt 0.833898 0.290482
vt 0.833898 0.062065
vn -0.739838 0.000000 -0.672785
vn -0.739838 0.000000 -0.672785
vn -0.739838 0.000000 -0.672785
vn -0.739838 0.000000 -0.672785
vn 0.031598 0.998897 -0.034747
vn 0.031598 0.998897 -0.034747
vn -0.004620 0.999976 0.005080
vn -0.004620 0.999976 0.005080
vn 0.739838 0.000000 0.672785
vn 0.739838 0.000000 0.672785
vn 0.739838 0.000000 0.672785
vn 0.739838 0.000000 0.672785
vn -0.672784 0.000000 0.739839
vn -0.672784 0.000000 0.739839
vn -0.672784 0.000000 0.739839
vn -0.672784 0.000000 0.739839
vn 0.672784 0.000000 -0.739839
vn 0.672784 0.000000 -0.739839
vn 0.672784 0.000000 -0.739839
vn 0.672784 0.000000 -0.739839
vn -0.739838 0.000000 -0.672785
vn -0.739838 0.000000 -0.672785
vn -0.739838 0.000000 -0.672785
vn -0.739838 0.000000 -0.672785
vn -0.031598 0.998897 0.034747
vn -0.031598 0.998897 0.034747
vn 0.004620 0.999977 -0.005080
vn 0.004620 0.999976 -0.005080
vn 0.739839 0.000000 0.672785
vn 0.739839 0.000000 0.672785
vn 0.739839 0.000000 0.672784
vn 0.739839 0.000000 0.672784
vn -0.271269 0.915110 0.298306
vn -0.271269 0.915110 0.298307
vn 0.739838 0.000000 0.672786
vn 0.739838 0.000000 0.672785
vn -0.739837 0.000000 -0.672786
vn -0.739838 0.000000 -0.672785
vn 0.271270 0.915110 -0.298307
vn 0.271271 0.915109 -0.298307
vn 0.739839 0.000000 0.672784
vn 0.739840 0.000000 0.672783
vn -0.739836 0.000000 -0.672787
vn -0.739836 0.000000 -0.672787
vn -0.265663 0.918736 0.292142
vn -0.202504 0.953626 0.222687
vn -0.202504 0.953626 0.222687
vn -0.265663 0.918736 0.292141
vn 0.519464 0.635489 -0.571237
vn 0.337026 0.865481 -0.370616
vn 0.337026 0.865481 -0.370616
vn 0.519464 0.635489 -0.571237
vn -0.006262 0.999957 0.006886
vn 0.033222 0.998780 -0.036533
vn 0.033222 0.998780 -0.036533
vn -0.006262 0.999957 0.006886
vn -0.083825 0.992208 0.092179
vn -0.026757 0.999209 0.029424
vn -0.026757 0.999209 0.029424
vn -0.083825 0.992208 0.092179
vn 0.061281 0.995843 -0.067389
vn 0.125740 0.982380 -0.138272
vn 0.125740 0.982380 -0.138272
vn 0.061281 0.995843 -0.067389
vn -0.624613 0.371580 0.686868
vn -0.624613 0.371579 0.686868
vn -0.624613 0.371580 0.686868
vn -0.624613 0.371579 0.686868
vn -0.739838 -0.000004 -0.672785
vn -0.739838 -0.000004 -0.672785
vn -0.739840 0.000002 -0.672783
vn -0.739839 -0.000001 -0.672784
vn 0.739840 0.000003 0.672783
vn 0.739839 0.000001 0.672783
vn 0.739840 0.000004 0.672783
vn 0.739840 0.000004 0.672783
vn 0.739837 -0.000004 0.672786
vn 0.739837 -0.000004 0.672786
vn 0.739838 -0.000002 0.672785
vn 0.739838 -0.000001 0.672785
vn -0.739839 -0.000003 -0.672784
vn -0.739840 -0.000004 -0.672783
vn -0.739842 -0.000004 -0.672781
vn -0.739842 -0.000004 -0.672781
vn -0.739839 -0.000002 -0.672784
vn -0.739839 -0.000001 -0.672784
vn -0.739839 0.000000 -0.672783
vn -0.739839 0.000000 -0.672784
vn 0.739838 -0.000006 0.672785
vn 0.739839 -0.000006 0.672784
vn 0.739838 -0.000005 0.672785
vn 0.739838 -0.000004 0.672785
vn -0.739840 0.000001 -0.672783
vn -0.739839 -0.000001 -0.672784
vn -0.739839 -0.000003 -0.672784
vn -0.739838 -0.000003 -0.672785
vn 0.739839 0.000001 0.672784
vn 0.739839 -0.000001 0.672784
vn 0.739839 0.000002 0.672784
vn 0.739839 0.000001 0.672784
vn -0.739840 -0.000003 -0.672783
vn -0.739840 -0.000006 -0.672783
vn -0.739838 -0.000005 -0.672785
vn -0.739839 -0.000007 -0.672783
vn 0.739839 0.000000 0.672785
vn 0.739839 0.000000 0.672785
vn 0.739839 -0.000002 0.672784
vn 0.739839 -0.000004 0.672784
vn 0.246783 0.930297 -0.271379
vn 0.246783 0.930297 -0.271379
vn 0.202504 0.953626 -0.222687
vn 0.202504 0.953626 -0.222687
vn -0.519462 0.635492 0.571235
vn -0.519462 0.635492 0.571235
vn -0.337026 0.865481 0.370617
vn -0.337026 0.865481 0.370617
vn 0.006262 0.999957 -0.006886
vn 0.006262 0.999957 -0.006886
vn -0.033222 0.998780 0.036533
vn -0.033222 0.998780 0.036533
vn 0.095173 0.989944 -0.104659
vn 0.095173 0.989944 -0.104659
vn 0.026757 0.999209 -0.029424
vn 0.026757 0.999209 -0.029424
vn -0.061281 0.995843 0.067389
vn -0.061281 0.995843 0.067389
vn -0.125740 0.982380 0.138272
vn -0.125740 0.982380 0.138272
vn 0.624615 0.371573 -0.686870
vn 0.624615 0.371573 -0.686870
vn 0.624615 0.371573 -0.686870
vn 0.624615 0.371573 -0.686870
vn -0.739838 0.000004 -0.672785
vn -0.739838 0.000007 -0.672785
vn -0.739837 0.000011 -0.672786
vn -0.739838 0.000004 -0.672785
vn 0.739838 -0.000000 0.672785
vn 0.739838 0.000002 0.672785
vn 0.739838 0.000002 0.672785
vn 0.739838 -0.000003 0.672785
vn 0.739838 0.000000 0.672785
vn 0.739839 0.000004 0.672784
vn 0.739838 0.000002 0.672785
vn 0.739838 0.000000 0.672785
vn -0.739838 -0.000002 -0.672786
vn -0.739837 -0.000002 -0.672786
vn -0.739837 -0.000002 -0.672786
vn -0.739837 -0.000002 -0.672786
vn -0.739839 -0.000002 -0.672784
vn -0.739839 -0.000001 -0.672784
vn -0.739838 0.000002 -0.672785
vn -0.739839 -0.000003 -0.672784
vn 0.739838 0.000007 0.672785
vn 0.739839 0.000004 0.672784
vn 0.739838 0.000004 0.672785
vn 0.739838 0.000009 0.672785
vn -0.739837 0.000010 -0.672786
vn -0.739839 0.000003 -0.672785
vn -0.739839 0.000001 -0.672785
vn -0.739838 0.000007 -0.672785
vn 0.739839 -0.000004 0.672784
vn 0.739839 -0.000006 0.672784
vn 0.739839 -0.000007 0.672784
vn 0.739840 -0.000001 0.672783
vn -0.739839 0.000003 -0.672784
vn -0.739839 -0.000001 -0.672784
vn -0.739838 -0.000001 -0.672785
vn -0.739839 0.000002 -0.672784
vn 0.739839 -0.000002 0.672785
vn 0.739839 0.000005 0.672784
vn 0.739839 -0.000000 0.672784
vn 0.739839 0.000002 0.672784
vn 0.079118 0.993061 -0.087003
vn 0.061791 0.995774 -0.067949
vn 0.061791 0.995773 -0.067949
vn 0.079118 0.993061 -0.087003
vn 0.545952 0.584378 -0.600365
vn 0.401841 0.802032 -0.441892
vn 0.401841 0.802032 -0.441892
vn 0.545952 0.584378 -0.600365
vn 0.046728 0.997585 -0.051385
vn 0.092036 0.990599 -0.101209
vn 0.092036 0.990599 -0.101209
vn 0.046728 0.997585 -0.051385
vn 0.045673 0.997693 -0.050225
vn 0.040133 0.998219 -0.044133
vn 0.040133 0.998219 -0.044133
vn 0.045673 0.997693 -0.050225
vn 0.148461 0.975349 -0.163259
vn 0.234922 0.937056 -0.258336
vn 0.234922 0.937056 -0.258336
vn 0.148461 0.975349 -0.163259
vn 0.385670 0.806149 -0.448757
vn 0.334761 0.853541 -0.399253
vn 0.333889 0.854281 -0.398400
vn 0.385670 0.806149 -0.448757
vn 0.667041 0.126745 -0.734161
vn 0.551853 0.563161 -0.615067
vn 0.551298 0.564348 -0.614477
vn 0.667041 0.126745 -0.734161
vn 0.219465 0.932423 -0.287095
vn 0.282495 0.892789 -0.350891
vn 0.283307 0.892211 -0.351706
vn 0.219764 0.932258 -0.287401
vn 0.255934 0.911304 -0.322527
vn 0.215525 0.934603 -0.282958
vn 0.215298 0.934726 -0.282726
vn 0.255497 0.911574 -0.322109
vn 0.344683 0.844692 -0.409498
vn 0.422314 0.768015 -0.481461
vn 0.422945 0.767288 -0.482065
vn 0.344963 0.844472 -0.409718
vn -0.066008 0.995175 0.072587
vn -0.071936 0.994267 0.079106
vn -0.071936 0.994267 0.079106
vn -0.066008 0.995175 0.072587
vn 0.528458 0.618890 -0.581126
vn 0.299170 0.895692 -0.328987
vn 0.299170 0.895692 -0.328988
vn 0.528458 0.618890 -0.581126
vn 0.000326 1.000000 -0.000358
vn 0.039991 0.998232 -0.043977
vn 0.039991 0.998232 -0.043977
vn 0.000326 1.000000 -0.000358
vn -0.055229 0.996625 0.060734
vn -0.024612 0.999331 0.027065
vn -0.024612 0.999331 0.027065
vn -0.055229 0.996625 0.060734
vn 0.068973 0.994731 -0.075848
vn 0.134144 0.979921 -0.147514
vn 0.134144 0.979921 -0.147514
vn 0.068973 0.994731 -0.075848
vn 0.422119 0.778680 -0.464191
vn 0.377301 0.827947 -0.414906
vn 0.377301 0.827947 -0.414906
vn 0.422119 0.778680 -0.464191
vn 0.665808 0.143630 -0.732168
vn 0.635836 0.326837 -0.699207
vn 0.635836 0.326837 -0.699207
vn 0.665808 0.143630 -0.732168
vn 0.359395 0.845364 -0.395216
vn 0.454584 0.737199 -0.499891
vn 0.454584 0.737199 -0.499891
vn 0.359395 0.845364 -0.395216
vn 0.321782 0.878205 -0.353853
vn 0.316706 0.882273 -0.348271
vn 0.316706 0.882272 -0.348271
vn 0.321782 0.878205 -0.353853
vn 0.525781 0.623905 -0.578184
vn 0.587483 0.487340 -0.646036
vn 0.587483 0.487340 -0.646036
vn 0.525781 0.623905 -0.578184
vn -0.628253 0.357769 0.690869
vn -0.628253 0.357769 0.690869
vn -0.603605 0.441677 0.663764
vn -0.603605 0.441677 0.663764
vn -0.669144 -0.103898 0.735834
vn -0.669144 -0.103898 0.735834
vn -0.672502 0.028987 0.739528
vn -0.672502 0.028987 0.739528
vn -0.544440 0.587486 0.598703
vn -0.544440 0.587486 0.598703
vn -0.591090 0.477610 0.650002
vn -0.591090 0.477610 0.650002
vn -0.559913 0.554426 0.615718
vn -0.559913 0.554426 0.615718
vn -0.537060 0.602306 0.590588
vn -0.537060 0.602306 0.590588
vn -0.626496 0.364512 0.688937
vn -0.626496 0.364512 0.688937
vn -0.660441 0.190674 0.726265
vn -0.660441 0.190674 0.726265
vn -0.522472 0.655486 0.545309
vn -0.522472 0.655485 0.545309
vn -0.483728 0.721900 0.494841
vn -0.484940 0.720012 0.496403
vn -0.672712 -0.013585 0.739779
vn -0.672712 -0.013585 0.739779
vn -0.654868 0.237201 0.717554
vn -0.654930 0.236812 0.717626
vn -0.348990 0.874475 0.336897
vn -0.349554 0.873969 0.337624
vn -0.446252 0.769602 0.456698
vn -0.444576 0.771778 0.454655
vn -0.412703 0.815349 0.406056
vn -0.411807 0.816340 0.404974
vn -0.352496 0.873351 0.336163
vn -0.353121 0.872833 0.336851
vn -0.543546 0.608205 0.578484
vn -0.544113 0.606992 0.579225
vn -0.611200 0.430110 0.664409
vn -0.610790 0.431491 0.663891
vn -0.414400 0.801357 0.431393
vn -0.414400 0.801357 0.431393
vn -0.364454 0.854606 0.369894
vn -0.365296 0.853799 0.370926
vn -0.667599 0.127951 0.733444
vn -0.667599 0.127951 0.733444
vn -0.555865 0.572490 0.602719
vn -0.556447 0.571224 0.603382
vn -0.237685 0.947164 0.215376
vn -0.237951 0.947027 0.215685
vn -0.304868 0.905651 0.294705
vn -0.304091 0.906213 0.293780
vn -0.282657 0.920483 0.269844
vn -0.282213 0.920779 0.269299
vn -0.235519 0.948251 0.212959
vn -0.235751 0.948132 0.213231
vn -0.363694 0.855290 0.369061
vn -0.363907 0.855061 0.369381
vn -0.431868 0.777288 0.457507
vn -0.431311 0.778010 0.456805
vn -0.227887 0.940886 0.250600
vn -0.227887 0.940886 0.250600
vn -0.158587 0.971822 0.174393
vn -0.158587 0.971822 0.174393
vn -0.642509 0.296608 0.706546
vn -0.642509 0.296608 0.706546
vn -0.469496 0.716253 0.516290
vn -0.469496 0.716253 0.516290
vn -0.029155 0.999061 0.032060
vn -0.029155 0.999061 0.032060
vn -0.132824 0.980318 0.146062
vn -0.132824 0.980318 0.146062
vn -0.055490 0.996593 0.061021
vn -0.055490 0.996593 0.061021
vn -0.010347 0.999882 0.011378
vn -0.010347 0.999882 0.011378
vn -0.229596 0.939968 0.252479
vn -0.229596 0.939968 0.252479
vn -0.317499 0.881642 0.349144
vn -0.317499 0.881642 0.349144
vn 0.040447 0.998191 -0.044477
vn 0.040447 0.998191 -0.044477
vn 0.046395 0.997620 -0.051018
vn 0.046395 0.997620 -0.051018
vn -0.545786 0.584721 0.600183
vn -0.545786 0.584721 0.600183
vn -0.323142 0.877101 0.355348
vn -0.323142 0.877102 0.355348
vn -0.025961 0.999255 0.028549
vn -0.025961 0.999255 0.028549
vn -0.065463 0.995255 0.071987
vn -0.065463 0.995255 0.071987
vn 0.029624 0.999030 -0.032577
vn 0.029624 0.999030 -0.032577
vn -0.001077 0.999999 0.001185
vn -0.001077 0.999999 0.001185
vn -0.094404 0.990106 0.103813
vn -0.094404 0.990106 0.103813
vn -0.159501 0.971491 0.175398
vn -0.159501 0.971491 0.175398
s 1
g Win1:bookOpen Win1:Win
usemtl lambert2SG
f 9/3/1 3/2/2 1/13/3 12/14/4
s 2
f 5/1/5 3/2/6 9/3/7 10/4/8
s 3
f 11/22/9 7/23/10 5/1/11 10/4/12
s off
f 2/31/13 8/21/14 6/12/15 4/11/16
f 7/32/17 1/24/18 3/2/19 5/1/20
s 1
f 2/20/21 4/11/22 16/10/23 13/19/24
s 2
f 4/11/25 6/12/26 15/9/27 16/10/28
s 3
f 6/12/29 8/30/30 14/29/31 15/9/32
s 2
f 24/5/33 21/6/34 10/4/8 9/3/7
s 3
f 21/25/35 22/26/36 11/22/9 10/4/12
s 1
f 23/15/37 24/16/38 9/3/1 12/14/4
s 2
f 15/9/27 20/7/39 17/8/40 16/10/28
s 3
f 14/29/31 19/27/41 20/28/42 15/9/32
s 1
f 16/10/23 17/17/43 18/18/44 13/19/24
s 3
f 19/27/41 22/26/36 21/25/35 20/28/42
s 1
f 17/17/43 24/16/38 23/15/37 18/18/44
s 2
f 20/7/39 21/6/34 24/5/33 17/8/40
s 7
f 46/33/45 48/34/46 47/35/47 45/36/48
f 49/37/49 52/38/50 51/39/51 50/40/52
f 54/41/53 56/42/54 55/43/55 53/44/56
f 58/45/57 60/46/58 59/47/59 57/48/60
f 62/49/61 64/50/62 63/51/63 61/52/64
f 56/42/54 62/49/61 61/52/64 55/43/55
f 64/50/62 51/39/51 52/38/50 63/51/63
f 48/34/46 58/45/57 57/48/60 47/35/47
f 60/46/58 54/41/53 53/44/56 59/47/59
s off
f 25/53/65 46/33/66 45/36/67 26/54/68
s 10
f 26/55/69 45/56/70 47/57/71 41/58/72
s 11
f 42/59/73 48/60/74 46/61/75 25/62/76
f 30/63/77 50/64/78 51/65/79 28/66/80
s 10
f 27/67/81 52/68/82 49/69/83 29/70/84
f 31/71/85 53/72/86 55/73/87 37/74/88
s 11
f 38/75/89 56/76/90 54/77/91 32/78/92
s 10
f 33/79/93 57/80/94 59/81/95 43/82/96
s 11
f 44/83/97 60/84/98 58/85/99 34/86/100
s 10
f 35/87/101 61/88/102 63/89/103 39/90/104
s 11
f 40/91/105 64/92/106 62/93/107 36/94/108
s 10
f 37/74/88 55/73/87 61/88/102 35/87/101
s 11
f 36/94/108 62/93/107 56/76/90 38/75/89
s 10
f 39/90/104 63/89/103 52/68/82 27/67/81
s 11
f 28/66/80 51/65/79 64/92/106 40/91/105
s 10
f 41/58/72 47/57/71 57/80/94 33/79/93
s 11
f 34/86/100 58/85/99 48/60/74 42/59/73
s 10
f 43/82/96 59/81/95 53/72/86 31/71/85
s 11
f 32/78/92 54/77/91 60/84/98 44/83/97
s 16
f 86/95/109 85/96/110 87/97/111 88/98/112
f 89/99/113 90/100/114 91/101/115 92/102/116
f 94/103/117 93/104/118 95/105/119 96/106/120
f 98/107/121 97/108/122 99/109/123 100/110/124
f 102/111/125 101/112/126 103/113/127 104/114/128
f 96/106/120 95/105/119 101/112/126 102/111/125
f 104/114/128 103/113/127 92/102/116 91/101/115
f 88/98/112 87/97/111 97/108/122 98/107/121
f 100/110/124 99/109/123 93/104/118 94/103/117
s off
f 65/115/129 66/116/130 85/96/131 86/95/132
s 19
f 66/117/133 81/118/134 87/119/135 85/120/136
s 20
f 82/121/137 65/122/138 86/123/139 88/124/140
f 70/125/141 68/126/142 91/127/143 90/128/144
s 19
f 67/129/145 69/130/146 89/131/147 92/132/148
f 71/133/149 77/134/150 95/135/151 93/136/152
s 20
f 78/137/153 72/138/154 94/139/155 96/140/156
s 19
f 73/141/157 83/142/158 99/143/159 97/144/160
s 20
f 84/145/161 74/146/162 98/147/163 100/148/164
s 19
f 75/149/165 79/150/166 103/151/167 101/152/168
s 20
f 80/153/169 76/154/170 102/155/171 104/156/172
s 19
f 77/134/150 75/149/165 101/152/168 95/135/151
s 20
f 76/154/170 78/137/153 96/140/156 102/155/171
s 19
f 79/150/166 67/129/145 92/132/148 103/151/167
s 20
f 68/126/142 80/153/169 104/156/172 91/127/143
s 19
f 81/118/134 73/141/157 97/144/160 87/119/135
s 20
f 74/146/162 82/121/137 88/124/140 98/147/163
s 19
f 83/142/158 71/133/149 93/136/152 99/143/159
s 20
f 72/138/154 84/145/161 100/148/164 94/139/155
s 25
f 105/157/173 108/158/174 107/159/175 106/160/176
f 109/161/177 112/162/178 111/163/179 110/164/180
f 113/165/181 116/166/182 115/167/183 114/168/184
f 117/169/185 120/170/186 119/171/187 118/172/188
f 121/173/189 124/174/190 123/175/191 122/176/192
f 116/166/182 121/173/189 122/176/192 115/167/183
f 124/174/190 111/163/179 112/162/178 123/175/191
f 108/158/174 117/169/185 118/172/188 107/159/175
f 120/170/186 113/165/181 114/168/184 119/171/187
s 28
f 125/177/193 128/178/194 127/179/195 126/180/196
f 129/181/197 132/182/198 131/183/199 130/184/200
f 133/185/201 136/186/202 135/187/203 134/188/204
f 137/189/205 140/190/206 139/191/207 138/192/208
f 141/193/209 144/194/210 143/195/211 142/196/212
f 136/186/202 141/193/209 142/196/212 135/187/203
f 144/194/210 131/183/199 132/182/198 143/195/211
f 128/178/194 137/189/205 138/192/208 127/179/195
f 140/190/206 133/185/201 134/188/204 139/191/207
s 31
f 145/197/213 148/198/214 147/199/215 146/200/216
f 149/201/217 152/202/218 151/203/219 150/204/220
f 153/205/221 156/206/222 155/207/223 154/208/224
f 157/209/225 160/210/226 159/211/227 158/212/228
f 161/213/229 164/214/230 163/215/231 162/216/232
f 156/206/222 161/213/229 162/216/232 155/207/223
f 164/214/230 151/203/219 152/202/218 163/215/231
f 148/198/214 157/209/225 158/212/228 147/199/215
f 160/210/226 153/205/221 154/208/224 159/211/227
s 34
f 165/217/233 168/218/234 167/219/235 166/220/236
f 169/221/237 172/222/238 171/223/239 170/224/240
f 173/225/241 176/226/242 175/227/243 174/228/244
f 177/229/245 180/230/246 179/231/247 178/232/248
f 181/233/249 184/234/250 183/235/251 182/236/252
f 176/226/242 181/233/249 182/236/252 175/227/243
f 184/234/250 171/223/239 172/222/238 183/235/251
f 168/218/234 177/229/245 178/232/248 167/219/235
f 180/230/246 173/225/241 174/228/244 179/231/247
s 37
f 185/237/253 186/238/254 187/239/255 188/240/256
f 189/241/257 190/242/258 191/243/259 192/244/260
f 193/245/261 194/246/262 195/247/263 196/248/264
f 197/249/265 198/250/266 199/251/267 200/252/268
f 201/253/269 202/254/270 203/255/271 204/256/272
f 196/248/264 195/247/263 202/254/270 201/253/269
f 204/256/272 203/255/271 192/244/260 191/243/259
f 188/240/256 187/239/255 198/250/266 197/249/265
f 200/252/268 199/251/267 194/246/262 193/245/261
s 40
f 205/257/273 206/258/274 207/259/275 208/260/276
f 209/261/277 210/262/278 211/263/279 212/264/280
f 213/265/281 214/266/282 215/267/283 216/268/284
f 217/269/285 218/270/286 219/271/287 220/272/288
f 221/273/289 222/274/290 223/275/291 224/276/292
f 216/268/284 215/267/283 222/274/290 221/273/289
f 224/276/292 223/275/291 212/264/280 211/263/279
f 208/260/276 207/259/275 218/270/286 217/269/285
f 220/272/288 219/271/287 214/266/282 213/265/281
s 43
f 225/277/293 226/278/294 227/279/295 228/280/296
f 229/281/297 230/282/298 231/283/299 232/284/300
f 233/285/301 234/286/302 235/287/303 236/288/304
f 237/289/305 238/290/306 239/291/307 240/292/308
f 241/293/309 242/294/310 243/295/311 244/296/312
f 236/288/304 235/287/303 242/294/310 241/293/309
f 244/296/312 243/295/311 232/284/300 231/283/299
f 228/280/296 227/279/295 238/290/306 237/289/305
f 240/292/308 239/291/307 234/286/302 233/285/301
s 46
f 245/297/313 246/298/314 247/299/315 248/300/316
f 249/301/317 250/302/318 251/303/319 252/304/320
f 253/305/321 254/306/322 255/307/323 256/308/324
f 257/309/325 258/310/326 259/311/327 260/312/328
f 261/313/329 262/314/330 263/315/331 264/316/332
f 256/308/324 255/307/323 262/314/330 261/313/329
f 264/316/332 263/315/331 252/304/320 251/303/319
f 248/300/316 247/299/315 258/310/326 257/309/325
f 260/312/328 259/311/327 254/306/322 253/305/321
s 49
f 265/317/333 266/318/334 267/319/335 268/320/336
f 269/321/337 270/322/338 271/323/339 272/324/340
f 273/325/341 274/326/342 275/327/343 276/328/344
f 277/329/345 278/330/346 279/331/347 280/332/348
f 281/333/349 282/334/350 283/335/351 284/336/352
f 276/328/344 275/327/343 282/334/350 281/333/349
f 284/336/352 283/335/351 272/324/340 271/323/339
f 268/320/336 267/319/335 278/330/346 277/329/345
f 280/332/348 279/331/347 274/326/342 273/325/341
