# Blender 4.5.4 LTS
# www.blender.org
mtllib Bottle.mtl
o bottle:pCylinder23_cell
v 0.008469 0.062314 0.042957
v 0.014559 0.063724 0.013541
v 0.019529 0.046902 0.001266
v -0.007358 0.038907 0.011465
v 0.003552 0.039022 0.006032
v 0.018854 0.035170 0.021487
v 0.007125 0.032658 0.036967
v -0.007918 0.034321 0.032391
v 0.028723 0.043707 0.010160
v 0.033900 0.049340 0.004526
v 0.029915 0.062314 0.013440
v 0.018486 0.067884 0.017111
v 0.004526 0.072932 0.025395
v -0.029786 0.046548 0.027575
v -0.013699 0.035276 0.030691
v -0.004411 0.070354 0.026444
v -0.012007 0.067180 0.028843
v -0.023605 0.062314 0.032536
v 0.018854 0.035170 0.021487
v 0.007125 0.032658 0.036967
v 0.007125 0.032658 0.036967
v -0.007918 0.034321 0.032391
v 0.028723 0.043707 0.010160
v 0.033900 0.049340 0.004526
v 0.018486 0.067884 0.017111
v 0.004526 0.072932 0.025395
v 0.004526 0.072932 0.025395
v -0.029786 0.046548 0.027575
v -0.013699 0.035276 0.030691
v -0.004411 0.070354 0.026444
v -0.012007 0.067180 0.028843
v -0.023605 0.062314 0.032536
v -0.023605 0.062314 0.032536
v 0.008469 0.062314 0.042957
v 0.008469 0.062314 0.042957
v 0.008469 0.062314 0.042957
v 0.029915 0.062314 0.013440
v 0.029915 0.062314 0.013440
vn -0.0487 -0.9794 -0.1959
vn 0.2597 -0.7917 -0.5529
vn 0.2361 -0.8439 -0.4817
vn 0.0847 0.5818 -0.8089
vn 0.0502 0.6035 -0.7958
vn -0.2150 0.6746 -0.7061
vn -0.5021 -0.8044 -0.3175
vn -0.0971 -0.9717 -0.2156
vn -0.4210 0.3467 -0.8382
vn -0.4284 0.4210 -0.7995
vn -0.3780 0.4702 -0.7975
vn -0.4306 0.4202 -0.7988
vn -0.3042 -0.1753 0.9363
vn 0.7994 -0.1536 0.5808
vn -0.1748 0.8247 0.5379
vn 0.4999 0.7863 0.3632
vt 1.000000 0.000000
vt 1.000000 0.178244
vt 0.780661 0.137839
vt 0.695441 0.000000
vt 0.000000 0.000000
vt 0.204879 0.000000
vt 0.131685 0.131685
vt 1.000000 0.131685
vt 0.202671 0.202671
vt 0.204879 0.204879
vt 0.157964 0.000000
vt 1.000000 0.059542
vt 0.157964 0.157964
vt 0.512021 0.000000
vt 0.456099 0.029142
vt 0.052045 0.052045
vt 0.617453 0.000000
vt 1.000000 0.237031
vt 0.237031 0.237031
vt 1.000000 0.304559
vt 1.000000 1.000000
vt 1.000000 0.287883
vt 0.690789 0.000000
vt 0.487979 0.000000
vt 0.382547 0.000000
vt 0.686587 0.462575
vt 0.690789 0.690789
vt 0.136622 0.211980
vt 0.163598 0.207152
vt 0.234077 0.198333
vt 0.250498 0.333387
vt 0.099017 0.336030
vt 0.064471 0.264684
vt 0.234077 0.198333
vt 0.336918 0.185790
vt 0.396213 0.207927
vt 0.435722 0.224084
vt 0.409090 0.291992
vt 0.144109 0.373901
vt 0.099017 0.336030
vt 0.210749 0.418440
vt 0.173670 0.398605
vt 0.573761 0.668397
vt 0.716080 0.587094
vt 0.698380 0.643850
vt 0.658441 0.708937
s 0
usemtl lambert4
f 5/1/1 19/2/1 20/3/1 22/4/1
f 3/5/2 24/6/2 23/7/2
f 3/1/3 23/8/3 19/9/3 5/5/3
f 24/10/4 3/5/4 38/11/4
f 2/1/5 25/12/5 38/13/5 3/5/5
f 2/5/6 30/14/6 26/15/6 25/16/6
f 28/17/7 4/1/7 29/18/7
f 29/19/8 4/5/8 5/1/8 22/20/8
f 4/5/9 3/1/9 5/21/9
f 30/22/10 3/21/10 4/5/10 31/23/10
f 2/1/11 3/21/11 30/24/11
f 4/5/12 28/25/12 32/26/12 31/27/12
s 1
f 15/28/13 8/29/13 21/30/13 34/31/13 33/32/13 14/33/13
f 35/31/14 7/34/14 6/35/14 9/36/14 10/37/14 37/38/14
f 17/39/15 18/40/15 36/31/15 27/41/15 16/42/15
f 1/43/16 11/44/16 12/45/16 13/46/16
o bottle:pCylinder23_cell.001
v -0.002798 0.091932 -0.000170
v 0.012873 0.064496 0.012094
v 0.018069 0.047512 0.000366
v 0.010507 0.045818 -0.028643
v -0.042030 0.062314 0.026549
v -0.006913 0.038709 0.008162
v 0.000978 0.039346 0.004523
v -0.014876 0.038938 -0.000253
v 0.000997 0.040851 -0.014802
v -0.004351 0.036970 0.000568
v -0.011047 0.082010 -0.006415
v -0.011047 0.082010 0.006415
v -0.013715 0.089770 -0.008149
v -0.006569 0.092981 -0.011547
v -0.012715 0.086860 0.007499
v -0.000919 0.082010 -0.009706
v -0.000610 0.068091 -0.031150
v -0.042030 0.062314 0.011337
v -0.040381 0.053732 0.014791
v -0.022753 0.074569 -0.014022
v -0.039372 0.048683 0.024860
v -0.039155 0.047347 0.017591
v -0.032608 0.047903 0.026912
v -0.006311 0.088469 0.010119
v -0.029528 0.054389 0.029127
v -0.026482 0.061989 0.031540
v -0.001462 0.072793 0.023662
v -0.000611 0.082010 0.009806
v -0.013715 0.089770 -0.008149
v -0.013715 0.089770 -0.008149
v -0.006569 0.092981 -0.011547
v -0.012715 0.086860 0.007499
v -0.012715 0.086860 0.007499
v -0.000919 0.082010 -0.009706
v -0.000919 0.082010 -0.009706
v -0.000610 0.068091 -0.031150
v -0.022753 0.074569 -0.014022
v -0.022753 0.074569 -0.014022
v -0.042030 0.062314 0.011337
v -0.042030 0.062314 0.011337
v -0.040381 0.053732 0.014791
v -0.039372 0.048683 0.024860
v -0.039372 0.048683 0.024860
v -0.032608 0.047903 0.026912
v -0.039155 0.047347 0.017591
v -0.029528 0.054389 0.029127
v -0.026482 0.061989 0.031540
v -0.026482 0.061989 0.031540
v -0.006311 0.088469 0.010119
v -0.000611 0.082010 0.009806
v -0.000611 0.082010 0.009806
v -0.001462 0.072793 0.023662
v -0.042030 0.062314 0.026549
v -0.042030 0.062314 0.026549
v -0.042030 0.062314 0.026549
v -0.011047 0.082010 -0.006415
v -0.011047 0.082010 -0.006415
v -0.011047 0.082010 -0.006415
v -0.011047 0.082010 0.006415
v -0.011047 0.082010 0.006415
v -0.011047 0.082010 0.006415
vn -0.3244 0.9260 0.1929
vn -0.6320 -0.3907 -0.6693
vn -0.2081 -0.9631 0.1707
vn -0.1786 -0.9579 0.2249
vn -0.6280 -0.4106 -0.6610
vn -0.3162 0.9265 0.2038
vn 0.3992 -0.4789 0.7819
vn 0.4094 -0.4592 0.7884
vn 0.4228 -0.4238 0.8010
vn 0.4270 -0.3959 0.8130
vn 0.8865 0.4140 -0.2067
vn 0.6867 0.5851 0.4314
vn -0.4113 -0.7308 -0.5448
vn 0.4244 -0.9036 -0.0579
vn 0.2963 -0.9454 -0.1357
vn -0.1934 -0.9686 0.1566
vn -0.1538 -0.9440 -0.2919
vn 0.2066 -0.9362 0.2842
vn 0.4251 -0.9047 -0.0293
vn -0.9818 -0.1897 0.0018
vn -0.3042 -0.1753 0.9363
vn -0.1748 0.8247 -0.5379
vn -0.5365 0.8439 -0.0000
vn -0.1730 0.8200 0.5456
vn -0.2944 -0.3037 -0.9061
vn -0.9457 -0.3251 -0.0000
vn -0.2944 -0.3037 0.9061
vn 0.8769 0.4090 -0.2527
vt 0.846251 0.000000
vt 1.000000 0.000000
vt 1.000000 0.334456
vt 0.895472 0.390648
vt 0.452239 0.452239
vt 0.000000 0.000000
vt 0.619681 0.000000
vt 0.768167 0.183268
vt 0.768679 0.519032
vt 0.997342 0.501981
vt 0.427920 0.427920
vt 0.501673 0.501673
vt 0.441599 0.000000
vt 1.000000 0.427920
vt 0.619681 0.619681
vt 1.000000 0.153749
vt 0.700762 0.000000
vt 0.441599 0.441599
vt 1.000000 0.572304
vt 0.496946 0.496946
vt 1.000000 0.504734
vt 0.572304 0.572304
vt 0.504734 0.504734
vt 0.522975 0.000000
vt 1.000000 1.000000
vt 0.700762 0.700762
vt 0.810312 0.528669
vt 0.477025 0.000000
vt 0.568518 0.517100
vt 0.601118 0.523238
vt 0.608759 0.585563
vt 0.540421 0.585563
vt 0.555936 0.546307
vt 0.085972 0.336258
vt 0.012000 0.337549
vt 0.019927 0.275201
vt 0.055647 0.277741
vt 0.068355 0.300399
vt 0.903128 0.433746
vt 0.862652 0.492156
vt 0.814818 0.491321
vt 0.785663 0.380230
vt 0.518312 0.750490
vt 0.460672 0.750490
vt 0.426501 0.688181
vt 0.168423 0.491296
vt 0.119136 0.492156
vt 0.085972 0.336258
vt 0.182742 0.417821
vt 0.814818 0.491321
vt 0.871004 0.528896
vt 0.835498 0.543417
vt 0.523180 0.773532
vt 0.452884 0.787353
vt 0.113916 0.515120
vt 0.145041 0.522164
vt 1.000000 0.452239
vt 0.316459 0.094847
vt 0.334456 0.334456
s 0
usemtl lambert4
f 70/47/17 39/48/17 69/49/17 67/50/17
f 74/51/18 42/52/18 79/53/18 77/54/18 75/55/18
f 46/52/19 44/48/19 80/56/19 83/57/19
f 80/58/20 44/52/20 82/59/20
f 46/48/21 83/60/21 79/61/21 42/52/21
f 70/62/22 87/63/22 39/48/22
f 44/52/23 45/48/23 82/64/23
f 45/52/24 41/48/24 84/65/24 82/66/24
f 41/52/25 40/48/25 85/67/25 84/68/25
f 85/69/26 40/52/26 90/70/26
f 40/52/27 41/48/27 39/71/27
f 40/48/28 39/71/28 87/72/28 88/73/28 90/74/28
f 46/48/29 42/71/29 47/52/29
f 42/71/30 41/52/30 48/48/30
f 47/48/31 42/71/31 48/52/31
f 48/52/32 44/48/32 46/71/32
f 47/52/33 48/48/33 46/71/33
f 48/52/34 45/48/34 44/71/34
f 48/52/35 41/48/35 45/71/35
s 1
f 60/75/36 81/76/36 91/77/36 78/78/36 57/79/36
f 86/80/37 93/81/37 59/82/37 61/83/37 63/84/37
f 76/85/38 94/86/38 73/87/38 55/88/38
f 56/78/39 92/77/39 97/89/39 95/90/39 58/91/39
f 89/92/40 98/93/40 43/81/40 64/94/40 65/95/40
f 72/96/41 96/86/41 68/97/41 52/98/41
f 49/90/42 99/89/42 71/99/42 51/100/42
f 53/101/43 50/93/43 66/92/43 62/102/43
s 0
f 39/71/44 41/52/44 42/48/44 74/103/44 54/104/44 69/105/44
o bottle:pCylinder23_cell.002
v -0.014904 0.093229 0.008922
v -0.004109 0.093229 -0.000478
v -0.014272 0.091391 -0.008511
v -0.007410 0.089695 0.010173
v -0.013162 0.088159 0.007789
v -0.004109 0.093229 -0.000478
v -0.014272 0.091391 -0.008511
v -0.014272 0.091391 -0.008511
v -0.007410 0.089695 0.010173
v -0.007410 0.089695 0.010173
v -0.013162 0.088159 0.007789
v -0.013162 0.088159 0.007789
v -0.014904 0.093229 0.008922
v -0.014904 0.093229 0.008922
vn 0.3289 -0.9218 -0.2051
vn 0.3304 -0.9217 -0.2034
vn 0.0596 0.9959 0.0685
vn -0.9457 -0.3251 -0.0000
vn -0.2944 -0.3037 0.9061
vt 0.000000 0.000000
vt 0.143889 0.000000
vt 0.386206 0.346977
vt 1.000000 0.856111
vt 1.000000 1.000000
vt 0.707836 0.707836
vt 0.660477 0.809489
vt 0.628123 0.785982
vt 0.613247 0.713984
vt 0.660477 0.729330
vt 0.529571 0.803786
vt 0.451257 0.795053
vt 0.524484 0.779703
vt 0.141076 0.544679
vt 0.107062 0.545273
vt 0.112518 0.521271
s 0
usemtl lambert4
f 105/106/45 110/107/45 106/108/45
f 110/109/46 105/110/46 108/111/46
s 1
f 113/112/47 109/113/47 101/114/47 107/115/47
f 112/116/48 102/117/48 111/118/48
f 103/119/49 100/120/49 104/121/49
o bottle:pCylinder23_cell.003
v -0.001649 0.092536 0.002081
v 0.013106 0.065889 0.013201
v 0.002066 0.093229 0.014436
v -0.004717 0.089590 0.011013
v 0.004323 0.081750 0.006582
v 0.016749 0.069577 0.015835
v 0.006632 0.093229 0.008151
v 0.001571 0.080890 0.012233
v 0.000756 0.073207 0.023748
v -0.001649 0.092536 0.002081
v -0.004717 0.089590 0.011013
v -0.004717 0.089590 0.011013
v 0.004323 0.081750 0.006582
v 0.004323 0.081750 0.006582
v 0.004323 0.081750 0.006582
v 0.016749 0.069577 0.015835
v 0.001571 0.080890 0.012233
v 0.001571 0.080890 0.012233
v 0.001571 0.080890 0.012233
v 0.001571 0.080890 0.012233
v 0.000756 0.073207 0.023748
v 0.006632 0.093229 0.008151
v 0.006632 0.093229 0.008151
v 0.002066 0.093229 0.014436
v 0.002066 0.093229 0.014436
vn 0.5916 -0.0088 -0.8062
vn -0.7026 -0.5680 -0.4287
vn 0.1903 -0.6880 0.7003
vn 0.4526 0.7572 0.4709
vn -0.3813 -0.1477 0.9126
vn 0.8444 -0.1793 0.5048
vn -0.2969 0.9542 0.0358
vt 1.000000 0.610776
vt 0.986405 0.986405
vt 0.927572 0.815056
vt 1.000000 0.000000
vt 1.000000 0.595233
vt 0.952475 0.000000
vt 1.000000 0.733924
vt 1.000000 1.000000
vt 0.610776 0.610776
vt 0.689152 0.538673
vt 0.638891 0.456096
vt 0.595233 0.595233
vt 0.000000 0.000000
vt 0.469849 0.000000
vt 0.469848 0.469848
vt 0.058385 0.000000
vt 0.704532 0.654513
vt 0.749144 0.730959
vt 0.721901 0.739317
vt 0.666281 0.712690
vt 0.177305 0.493863
vt 0.187209 0.543874
vt 0.153182 0.527309
vt 0.218971 0.529420
vt 0.177305 0.493863
vt 0.197263 0.482616
vt 0.600965 0.782788
vt 0.616643 0.777642
vt 0.584241 0.834260
vt 0.563729 0.806028
s 0
usemtl lambert4
f 128/122/50 123/123/50 135/124/50
f 115/125/50 126/126/50 129/127/50
f 124/128/51 123/129/51 128/130/51 132/131/51
f 130/132/51 126/133/51 115/134/51 134/135/51
f 134/136/52 115/134/52 129/137/52
s 1
f 119/138/53 127/139/53 131/140/53 122/141/53
f 133/142/54 138/143/54 125/144/54
f 136/145/55 137/143/55 121/146/55 118/147/55
f 114/148/56 117/149/56 116/150/56 120/151/56
o bottle:pCylinder23_cell.004
v 0.027933 0.001167 0.000000
v -0.002845 0.035631 -0.000288
v 0.003622 0.038125 0.004522
v 0.002728 0.039694 -0.017052
v 0.019496 0.046428 -0.000089
v 0.029275 0.042972 0.009207
v 0.034856 0.048891 0.003090
v 0.023555 0.047072 -0.018164
v 0.021635 0.034669 0.017526
v 0.019946 0.021633 0.016404
v 0.017379 0.001167 0.014527
v 0.012794 0.044689 -0.032344
v 0.008634 0.035108 -0.035538
v 0.006406 0.001167 -0.029630
v -0.003101 0.001167 -0.000447
v 0.029275 0.042972 0.009207
v 0.034856 0.048891 0.003090
v 0.034856 0.048891 0.003090
v 0.021635 0.034669 0.017526
v 0.019946 0.021633 0.016404
v 0.017379 0.001167 0.014527
v 0.017379 0.001167 0.014527
v 0.023555 0.047072 -0.018164
v 0.008634 0.035108 -0.035538
v 0.006406 0.001167 -0.029630
v 0.006406 0.001167 -0.029630
v -0.003101 0.001167 -0.000447
v 0.027933 0.001167 0.000000
v 0.027933 0.001167 0.000000
v 0.012794 0.044689 -0.032344
vn -0.2421 0.7983 0.5515
vn -0.1582 0.9874 -0.0004
vn -0.4329 0.8936 0.1187
vn -0.2514 0.7906 0.5583
vn -0.2028 0.9792 -0.0107
vn -0.4020 0.9150 0.0342
vn -0.4345 0.8977 0.0732
vn -0.5846 0.0059 0.8113
vn -0.5897 -0.0009 0.8076
vn -0.7995 0.4713 -0.3724
vn -0.9504 0.0251 -0.3099
vn -0.9508 0.0085 -0.3097
vn -0.5970 0.0007 0.8023
vn 0.7994 -0.1536 0.5808
vn 0.8262 -0.1374 -0.5463
vn -0.0000 -1.0000 -0.0000
vt 0.000000 0.000000
vt 0.139149 0.000000
vt 0.217818 0.217818
vt 0.805520 0.000000
vt 1.000000 0.000000
vt 0.963303 0.239795
vt 1.000000 1.000000
vt 1.000000 0.860851
vt 0.209084 0.000000
vt 0.805521 0.805521
vt 0.189284 0.000000
vt 0.209084 0.209084
vt 0.424093 0.179630
vt 0.189284 0.189284
vt 0.424034 0.000000
vt 0.959864 0.959864
vt 0.749711 0.000000
vt 1.000000 0.619534
vt 0.619534 0.619534
vt 0.684997 0.283041
vt 1.000000 0.592938
vt 0.575966 0.000000
vt 0.442700 0.220153
vt 0.400132 0.203454
vt 0.341825 0.179656
vt 0.326487 0.122411
vt 0.303032 0.032372
vt 0.381081 0.012000
vt 0.700312 0.245287
vt 0.623058 0.233523
vt 0.521881 0.217400
vt 0.600707 0.012000
vt 0.759903 0.053552
vt 0.733456 0.221280
vt 0.229451 0.672023
vt 0.125981 0.741779
vt 0.125981 0.577249
vt 0.164339 0.605118
s 0
usemtl lambert4
f 143/152/57 154/153/57 155/154/57
f 161/155/58 143/156/58 155/157/58
f 140/152/59 141/156/59 143/158/59
f 154/159/60 143/158/60 141/152/60 157/160/60
f 168/156/61 143/158/61 161/161/61
f 168/152/62 142/156/62 143/158/62
f 142/152/63 140/156/63 143/158/63
f 141/152/64 158/162/64 157/163/64
f 159/164/65 158/165/65 141/152/65 165/166/65
f 168/167/66 162/168/66 142/156/66
f 142/152/67 162/169/67 140/158/67
f 140/158/68 162/170/68 163/171/68 165/172/68
f 165/173/69 141/156/69 140/158/69
s 1
f 156/174/70 144/175/70 147/176/70 148/177/70 160/178/70 166/179/70
f 150/180/71 146/181/71 145/182/71 167/183/71 164/184/71 151/185/71
f 153/186/72 152/187/72 139/188/72 149/189/72
o bottle:pCylinder23_cell.005
v -0.030283 0.001167 -0.018916
v -0.004716 0.035244 -0.001043
v -0.014448 0.037073 -0.000954
v -0.000696 0.039008 -0.015651
v 0.007040 0.034807 -0.037342
v 0.005312 0.007263 -0.031623
v -0.016843 0.034052 -0.029441
v -0.036317 0.032575 -0.009880
v -0.036023 0.031047 -0.022646
v -0.036390 0.032955 -0.000944
v 0.004838 0.001167 -0.030327
v -0.004985 0.001167 -0.000928
v -0.010643 0.001167 -0.000872
v -0.030283 0.001167 -0.000872
v 0.007040 0.034807 -0.037342
v 0.005312 0.007263 -0.031623
v -0.016843 0.034052 -0.029441
v -0.036023 0.031047 -0.022646
v -0.036023 0.031047 -0.022646
v -0.036317 0.032575 -0.009880
v -0.036390 0.032955 -0.000944
v 0.004838 0.001167 -0.030327
v 0.004838 0.001167 -0.030327
v -0.004985 0.001167 -0.000928
v -0.010643 0.001167 -0.000872
v -0.030283 0.001167 -0.000872
v -0.030283 0.001167 -0.000872
v -0.030283 0.001167 -0.018916
v -0.030283 0.001167 -0.018916
vn 0.9382 0.1694 0.3018
vn 0.9514 0.0043 0.3081
vn -0.1051 0.9687 -0.2251
vn -0.1953 0.9732 -0.1210
vn -0.1843 0.9819 -0.0432
vn 0.1792 0.9397 0.2914
vn 0.9484 -0.0064 0.3169
vn 0.0098 0.0033 0.9999
vn -0.0000 0.0023 1.0000
vn -0.3042 -0.1753 -0.9363
vn -0.9820 -0.1887 -0.0000
vn -0.0000 -1.0000 -0.0000
vt 0.284244 0.284244
vt 0.000000 0.000000
vt 1.000000 0.000000
vt 0.333140 0.000000
vt 0.393100 0.393100
vt 1.000000 0.284244
vt 0.822311 0.000000
vt 1.000000 1.000000
vt 0.822311 0.822311
vt 0.862245 0.611363
vt 1.000000 0.608209
vt 0.608209 0.608209
vt 0.715654 0.000000
vt 0.913335 0.594042
vt 1.000000 0.666860
vt 0.593163 0.593163
vt 1.000000 0.593163
vt 0.419508 0.000000
vt 0.622719 0.249560
vt 0.580492 0.000000
vt 1.000000 0.284346
vt 0.747378 0.208135
vt 0.764893 0.082738
vt 0.769201 0.054992
vt 0.935072 0.057887
vt 0.952036 0.194547
vt 0.860429 0.206662
vt 0.485250 0.451261
vt 0.445110 0.449526
vt 0.387759 0.442535
vt 0.404517 0.305849
vt 0.485575 0.305849
vt 0.244203 0.666115
vt 0.278446 0.662224
vt 0.387507 0.662224
vt 0.287613 0.799717
vt 0.129836 0.748452
s 0
usemtl lambert4
f 183/190/73 172/191/73 170/192/73
f 170/191/74 184/193/74 183/194/74
f 172/192/75 183/195/75 185/196/75
f 172/197/76 185/198/76 186/199/76 188/200/76
f 171/192/77 172/197/77 188/201/77 189/202/77
f 171/191/78 170/192/78 172/197/78
f 190/203/79 184/204/79 170/197/79 192/205/79
f 192/206/80 170/197/80 171/191/80 193/207/80
f 194/208/81 193/209/81 171/192/81 189/210/81
s 1
f 173/211/82 174/212/82 191/213/82 196/214/82 187/215/82 175/216/82
f 178/217/83 176/218/83 177/219/83 197/220/83 195/221/83
f 180/222/84 181/223/84 182/224/84 169/225/84 179/226/84
o bottle:pCylinder23_cell.006
v -0.030283 0.001167 0.018916
v -0.005566 0.035292 0.000939
v -0.008448 0.036889 0.010143
v -0.016637 0.037766 0.001460
v -0.014062 0.018938 0.027514
v -0.013104 0.001167 0.024497
v -0.007236 0.001167 0.006291
v -0.014949 0.033330 0.029921
v -0.036020 0.031030 0.000827
v -0.005553 0.001167 0.000917
v -0.030283 0.001167 0.000829
v -0.035135 0.046156 0.025764
v -0.038946 0.046261 0.021273
v -0.013104 0.001167 0.024497
v -0.013104 0.001167 0.024497
v -0.007236 0.001167 0.006291
v -0.014062 0.018938 0.027514
v -0.014949 0.033330 0.029921
v -0.036020 0.031030 0.000827
v -0.030283 0.001167 0.000829
v -0.030283 0.001167 0.000829
v -0.005553 0.001167 0.000917
v -0.030283 0.001167 0.018916
v -0.030283 0.001167 0.018916
v -0.035135 0.046156 0.025764
v -0.035135 0.046156 0.025764
v -0.038946 0.046261 0.021273
vn 0.9518 -0.0008 0.3068
vn 0.9497 0.0061 0.3132
vn 0.4659 0.8314 0.3028
vn 0.0036 0.0006 -1.0000
vn 0.9543 0.0002 0.2988
vn 0.2872 0.9549 -0.0757
vn 0.2175 0.9625 -0.1621
vn -0.2447 0.7605 -0.6015
vn -0.0157 0.1382 -0.9903
vn 0.2064 0.9618 -0.1799
vn -0.9759 -0.1928 0.1024
vn -0.3042 -0.1753 0.9363
vn -0.0000 -1.0000 -0.0000
vt 0.583870 0.000000
vt 1.000000 0.000000
vt 1.000000 0.208725
vt 0.781070 0.196830
vt 0.208725 0.208725
vt 0.000000 0.000000
vt 0.237871 0.000000
vt 0.388189 0.000000
vt 0.237871 0.237871
vt 0.646041 0.000000
vt 1.000000 0.405062
vt 0.712588 0.363976
vt 0.405062 0.405062
vt 1.000000 0.416130
vt 1.000000 0.611811
vt 1.000000 1.000000
vt 0.476800 0.476800
vt 0.487905 0.000000
vt 1.000000 0.265919
vt 0.613521 0.000000
vt 0.265919 0.265919
vt 1.000000 0.512095
vt 0.493206 0.442455
vt 0.493214 0.305849
vt 0.574467 0.305849
vt 0.600087 0.514826
vt 0.567504 0.508644
vt 0.020779 0.266825
vt 0.046716 0.057887
vt 0.127849 0.056471
vt 0.129360 0.137545
vt 0.130059 0.203215
vt 0.250187 0.662224
vt 0.323518 0.574151
vt 0.339811 0.596576
vt 0.387507 0.662224
s 0
usemtl lambert4
f 213/227/85 200/228/85 214/229/85 211/230/85
f 214/231/86 200/232/86 215/233/86
f 222/234/87 215/235/87 200/232/87
f 216/236/88 199/228/88 219/237/88 217/238/88
f 219/239/89 199/232/89 200/228/89 213/240/89
f 222/241/90 200/242/90 199/232/90
f 222/243/91 199/232/91 224/244/91
f 201/228/92 216/245/92 224/246/92
f 216/247/93 201/232/93 199/228/93
f 199/242/94 201/232/94 224/248/94
s 1
f 206/249/95 218/250/95 220/251/95 223/252/95 210/253/95
f 209/254/96 221/255/96 212/256/96 202/257/96 205/258/96
f 207/259/97 204/260/97 203/261/97 198/262/97 208/262/97
o bottle:pCylinder23_cell.007
v -0.042030 0.062314 -0.026549
v -0.017946 0.039114 -0.000470
v 0.001697 0.040201 -0.018794
v 0.010836 0.046263 -0.031012
v -0.036566 0.033870 -0.011327
v -0.036866 0.035434 -0.000458
v -0.038874 0.045883 0.014299
v -0.013504 0.035906 -0.030873
v -0.036313 0.032556 -0.022834
v 0.000158 0.066922 -0.033192
v -0.006912 0.068978 -0.027741
v -0.042030 0.062314 0.008941
v -0.023899 0.073840 -0.014767
v 0.007415 0.039071 -0.038262
v 0.009973 0.042615 -0.035680
v 0.004064 0.064457 -0.038240
v 0.008387 0.060486 -0.042588
v -0.036566 0.033870 -0.011327
v -0.036866 0.035434 -0.000458
v -0.038874 0.045883 0.014299
v -0.036313 0.032556 -0.022834
v -0.036313 0.032556 -0.022834
v -0.013504 0.035906 -0.030873
v 0.000158 0.066922 -0.033192
v -0.006912 0.068978 -0.027741
v -0.023899 0.073840 -0.014767
v -0.023899 0.073840 -0.014767
v -0.042030 0.062314 0.008941
v -0.042030 0.062314 0.008941
v 0.007415 0.039071 -0.038262
v 0.007415 0.039071 -0.038262
v 0.004064 0.064457 -0.038240
v -0.042030 0.062314 -0.026549
v -0.042030 0.062314 -0.026549
v -0.042030 0.062314 -0.026549
v 0.008387 0.060486 -0.042588
v 0.008387 0.060486 -0.042588
v 0.008387 0.060486 -0.042588
v 0.009973 0.042615 -0.035680
vn 0.1890 -0.9712 0.1450
vn 0.1552 -0.7962 0.5849
vn 0.1841 -0.9761 0.1155
vn 0.6301 0.3961 0.6679
vn 0.6249 0.3812 0.6813
vn 0.6109 0.4072 0.6790
vn 0.2989 -0.9436 0.1426
vn 0.7710 -0.5631 0.2974
vn 0.9525 0.2734 0.1344
vn 0.7981 0.4543 0.3957
vn -0.3042 -0.1753 -0.9363
vn -0.9820 -0.1887 -0.0000
vn 0.7994 -0.1536 -0.5808
vn -0.1862 0.7856 -0.5901
vn -0.5365 0.8439 -0.0000
vt 0.406538 0.406538
vt 0.000000 0.000000
vt 1.000000 0.000000
vt 1.000000 0.254046
vt 0.254046 0.254046
vt 0.284349 0.000000
vt 1.000000 0.406538
vt 0.876748 0.280849
vt 0.838166 0.000000
vt 1.000000 1.000000
vt 0.410616 0.000000
vt 1.000000 0.489529
vt 1.000000 0.448180
vt 0.489529 0.489529
vt 0.477266 0.253918
vt 0.784500 0.250859
vt 0.620300 0.000000
vt 0.838166 0.838166
vt 0.996607 0.738686
vt 1.000000 0.743578
vt 0.954507 0.000000
vt 0.912954 0.751463
vt 1.000000 0.812373
vt 0.954507 0.954507
vt 1.000000 0.589384
vt 0.812373 0.812373
vt 0.969788 0.337549
vt 0.732302 0.325063
vt 0.744160 0.227536
vt 0.844034 0.214835
vt 0.952893 0.201447
vt 0.551448 0.531544
vt 0.529658 0.585563
vt 0.370225 0.585563
vt 0.386913 0.449436
vt 0.438609 0.455446
vt 0.487433 0.462601
vt 0.742042 0.227434
vt 0.744160 0.227536
vt 0.732302 0.325063
vt 0.756361 0.350850
vt 0.736519 0.333478
vt 0.907093 0.428024
vt 0.817194 0.387831
vt 0.779708 0.370837
vt 0.529658 0.585563
vt 0.423154 0.682078
s 0
usemtl lambert4
f 242/263/98 227/264/98 226/265/98 243/266/98
f 243/267/99 226/264/99 244/268/99
f 227/265/100 242/269/100 245/270/100 247/271/100
f 227/272/101 228/264/101 248/273/101 249/274/101
f 244/275/102 227/272/102 249/276/102 250/277/102 252/278/102
f 244/279/103 226/265/103 227/272/103
f 247/280/104 254/281/104 263/282/104 227/272/104
f 263/283/105 228/265/105 227/272/105
f 261/284/106 256/285/106 228/272/106 263/286/106
f 248/287/107 228/272/107 256/288/107
s 1
f 257/289/108 260/290/108 255/291/108 232/292/108 246/293/108
f 231/294/109 253/295/109 258/296/109 233/297/109 229/298/109 230/299/109
f 239/300/110 238/301/110 262/302/110
f 240/303/111 241/304/111 259/289/111 251/305/111 235/306/111 234/307/111
f 225/296/112 236/308/112 237/309/112
o bottle:pCylinder23_cell.008
v 0.005696 0.001167 0.030606
v -0.003973 0.035432 0.001595
v 0.001081 0.037748 0.005076
v -0.006498 0.036923 0.009025
v -0.003940 0.001167 0.001682
v 0.018636 0.020600 0.017935
v 0.016157 0.001167 0.016208
v -0.012433 0.017629 0.027798
v -0.011489 0.001167 0.025022
v -0.009279 0.032669 0.031639
v 0.018220 0.033529 0.021926
v 0.007047 0.030948 0.036622
v 0.018636 0.020600 0.017935
v 0.016157 0.001167 0.016208
v 0.016157 0.001167 0.016208
v -0.012433 0.017629 0.027798
v -0.011489 0.001167 0.025022
v -0.011489 0.001167 0.025022
v -0.009279 0.032669 0.031639
v 0.007047 0.030948 0.036622
v 0.007047 0.030948 0.036622
v 0.018220 0.033529 0.021926
v 0.005696 0.001167 0.030606
v 0.005696 0.001167 0.030606
v -0.003940 0.001167 0.001682
vn -0.9469 -0.0017 -0.3215
vn -0.2418 0.9322 -0.2692
vn 0.5677 -0.0015 -0.8232
vn 0.5868 -0.0046 -0.8097
vn -0.9518 -0.0044 -0.3068
vn -0.0114 0.9830 0.1835
vn -0.9716 0.2236 -0.0774
vn 0.7106 0.2283 -0.6656
vn 0.0411 0.9783 0.2031
vn -0.3042 -0.1753 0.9363
vn 0.7994 -0.1536 0.5808
vn -0.0000 -1.0000 -0.0000
vt 1.000000 0.000000
vt 1.000000 1.000000
vt 0.585430 0.000000
vt 0.000000 0.000000
vt 1.000000 0.595726
vt 0.422193 0.237734
vt 0.420120 0.420120
vt 0.199172 0.000000
vt 1.000000 0.414570
vt 0.791351 0.206222
vt 0.775982 0.000000
vt 0.696620 0.000000
vt 1.000000 0.744658
vt 0.775982 0.775982
vt 0.782492 0.782492
vt 1.000000 0.800828
vt 0.696620 0.696620
vt 0.787997 0.639432
vt 1.000000 0.807188
vt 0.136607 0.131448
vt 0.135479 0.056338
vt 0.216640 0.054921
vt 0.233130 0.190545
vt 0.137765 0.200927
vt 0.316318 0.180961
vt 0.293997 0.034730
vt 0.316573 0.120147
vt 0.231163 0.653668
vt 0.168779 0.608344
vt 0.287613 0.524732
vt 0.335326 0.590402
s 0
usemtl lambert4
f 267/310/113 265/311/113 288/312/113
f 267/313/114 266/310/114 265/311/114
f 265/311/115 266/313/115 288/314/115
f 277/315/116 288/316/116 266/313/116 276/317/116
f 288/318/117 280/319/117 279/320/117 267/310/117
f 267/311/118 282/321/118 266/310/118
f 282/322/119 267/311/119 279/323/119
f 266/311/120 285/324/120 276/325/120
f 266/311/121 282/326/121 283/327/121 285/328/121
s 1
f 271/329/122 281/330/122 286/331/122 284/332/122 273/333/122
f 274/334/123 275/332/123 287/331/123 278/335/123 269/336/123
f 268/337/124 270/338/124 264/339/124 272/340/124
o bottle:pCylinder23_cell.009
v -0.001309 0.093009 -0.000565
v 0.039680 0.062314 -0.000000
v 0.014706 0.064827 0.011233
v 0.019677 0.047633 -0.000256
v 0.012236 0.047249 -0.029820
v 0.008697 0.082010 -0.000000
v 0.002066 0.093229 -0.014436
v 0.012554 0.093229 -0.000000
v 0.001514 0.067803 -0.032281
v 0.007992 0.063599 -0.040832
v 0.000844 0.075439 -0.020354
v 0.000638 0.082010 -0.010212
v -0.004910 0.093229 -0.012169
v 0.012578 0.075054 0.009720
v 0.007923 0.093229 0.006375
v 0.005472 0.082010 0.004439
v 0.018754 0.069069 0.014177
v 0.035177 0.050340 0.003031
v 0.023609 0.048337 -0.018425
v 0.031471 0.062314 0.011299
v 0.001514 0.067803 -0.032281
v 0.007992 0.063599 -0.040832
v 0.007992 0.063599 -0.040832
v 0.007992 0.063599 -0.040832
v 0.000844 0.075439 -0.020354
v 0.000638 0.082010 -0.010212
v 0.000638 0.082010 -0.010212
v 0.000638 0.082010 -0.010212
v 0.000638 0.082010 -0.010212
v -0.004910 0.093229 -0.012169
v -0.004910 0.093229 -0.012169
v 0.012236 0.047249 -0.029820
v 0.012578 0.075054 0.009720
v 0.005472 0.082010 0.004439
v 0.005472 0.082010 0.004439
v 0.007923 0.093229 0.006375
v 0.007923 0.093229 0.006375
v 0.018754 0.069069 0.014177
v 0.039680 0.062314 -0.000000
v 0.039680 0.062314 -0.000000
v 0.039680 0.062314 -0.000000
v 0.031471 0.062314 0.011299
v 0.031471 0.062314 0.011299
v 0.002066 0.093229 -0.014436
v 0.002066 0.093229 -0.014436
v 0.012554 0.093229 -0.000000
v 0.012554 0.093229 -0.000000
v -0.001309 0.093009 -0.000565
v 0.008697 0.082010 -0.000000
v 0.008697 0.082010 -0.000000
v 0.008697 0.082010 -0.000000
v 0.035177 0.050340 0.003031
v 0.035177 0.050340 0.003031
v 0.023609 0.048337 -0.018425
vn -0.8010 -0.4633 -0.3792
vn -0.8746 -0.4292 0.2257
vn -0.8764 -0.4143 0.2454
vn -0.8817 -0.3896 0.2662
vn -0.6008 -0.0067 0.7994
vn -0.5867 -0.0023 0.8098
vn 0.1722 -0.9851 -0.0009
vn 0.1099 -0.9938 -0.0147
vn -0.0704 -0.5814 0.8105
vn -0.0870 -0.5590 0.8246
vn 0.7994 -0.1536 0.5808
vn 0.7852 -0.2090 -0.5829
vn -0.0109 0.9999 0.0075
vn -0.1748 0.8247 -0.5379
vn 0.4999 0.7863 0.3632
vn 0.4937 0.7896 -0.3645
vn -0.2944 -0.3037 -0.9061
vn 0.7794 -0.2680 0.5663
vn 0.7651 -0.2886 -0.5757
vt 0.835079 0.291236
vt 1.000000 0.000000
vt 1.000000 0.415356
vt 0.000000 0.000000
vt 1.000000 0.566314
vt 0.415356 0.415356
vt 0.566314 0.566314
vt 1.000000 0.498262
vt 0.498262 0.498262
vt 1.000000 0.059062
vt 0.962557 0.342404
vt 1.000000 0.130937
vt 0.442580 0.018865
vt 0.914050 0.332644
vt 0.054025 0.000000
vt 0.130937 0.130937
vt 1.000000 0.196783
vt 0.777696 0.000000
vt 1.000000 0.039914
vt 0.196783 0.196783
vt 1.000000 0.829148
vt 1.000000 1.000000
vt 0.777696 0.777696
vt 0.941037 0.000000
vt 0.829167 0.801890
vt 0.462333 0.223723
vt 0.481300 0.273145
vt 0.421505 0.286556
vt 0.622387 0.239292
vt 0.698599 0.254814
vt 0.725593 0.331900
vt 0.500488 0.273145
vt 0.519455 0.223723
vt 0.537125 0.769410
vt 0.584241 0.704559
vt 0.615581 0.714742
vt 0.599407 0.769410
vt 0.557930 0.798046
vt 0.805021 0.491150
vt 0.736101 0.343682
vt 0.775061 0.377756
vt 0.793417 0.438747
vt 0.726404 0.581196
vt 0.780881 0.550075
vt 0.780881 0.715001
vt 0.759480 0.727227
vt 0.734016 0.683524
vt 0.711278 0.643468
vt 0.830930 0.743593
vt 0.977750 0.673304
vt 0.827527 0.544449
vt 0.794579 0.543874
vt 0.807465 0.491193
vt 0.206797 0.477484
vt 0.229231 0.467276
vt 0.260169 0.510672
vt 0.227951 0.525333
vt 0.752557 0.467275
vt 0.721619 0.510672
s 0
usemtl lambert4
f 310/341/125 320/342/125 309/343/125
f 320/344/126 292/342/126 313/345/126 309/346/126
f 313/347/127 292/344/127 291/342/127 314/348/127
f 314/349/128 291/344/128 336/350/128 318/351/128
f 336/344/129 291/342/129 321/352/129 322/353/129 324/354/129
f 291/344/130 326/355/130 321/356/130
f 292/342/131 342/357/131 340/358/131
f 292/344/132 320/359/132 342/360/132
f 331/361/133 292/362/133 340/363/133
f 326/364/134 291/342/134 292/362/134 331/365/134
s 1
f 341/366/135 327/367/135 330/368/135
f 307/369/136 293/370/136 311/371/136 329/372/136 306/373/136
f 334/374/137 332/375/137 319/376/137 289/377/137 325/378/137
f 315/379/138 312/380/138 297/381/138 299/382/138
f 308/383/139 328/384/139 337/385/139 323/386/139 302/387/139 305/388/139
f 316/389/140 339/385/140 290/384/140 298/390/140
f 301/391/141 333/392/141 317/393/141
f 304/394/142 338/395/142 335/396/142 303/397/142
f 294/398/143 300/379/143 295/392/143 296/399/143
