#File written by LIBUNFOLD3D. Compilation :Dec 22 2011,11:53:02
mtllib Bulb.mtl
#begin vertices
v 0.039281999999999997 0.34700500000000001 -0.020739
v 0.024098999999999999 0.34700500000000001 -0.035922000000000003
v 0.0033600000000000001 0.34700500000000001 -0.041479000000000002
v -0.01738 0.34700500000000001 -0.035922000000000003
v -0.032562000000000001 0.34700500000000001 -0.020739
v -0.038119 0.34700500000000001 0
v -0.032562000000000001 0.34700500000000001 0.020739
v -0.01738 0.34700500000000001 0.035922000000000003
v 0.0033600000000000001 0.34700500000000001 0.041479000000000002
v 0.024098999999999999 0.34700500000000001 0.035922000000000003
v 0.039281999999999997 0.34700500000000001 0.020739
v 0.044838999999999997 0.34700500000000001 0
v 0.072755 0.36301499999999998 -0.040065999999999997
v 0.043424999999999998 0.36301499999999998 -0.069395999999999999
v 0.0033600000000000001 0.36301499999999998 -0.080130999999999994
v -0.036706000000000003 0.36301499999999998 -0.069395999999999999
v -0.066035999999999997 0.36301499999999998 -0.040065999999999997
v -0.076771000000000006 0.36301499999999998 0
v -0.066035999999999997 0.36301499999999998 0.040065999999999997
v -0.036706000000000003 0.36301499999999998 0.069395999999999999
v 0.0033600000000000001 0.36301499999999998 0.080130999999999994
v 0.043424999999999998 0.36301499999999998 0.069395999999999999
v 0.072755 0.36301499999999998 0.040065999999999997
v 0.083490999999999996 0.36301499999999998 0
v 0.10150000000000001 0.388484 -0.056661000000000003
v 0.060020999999999998 0.388484 -0.098140000000000005
v 0.0033600000000000001 0.388484 -0.11332200000000001
v -0.053301000000000001 0.388484 -0.098140000000000005
v -0.094780000000000003 0.388484 -0.056661000000000003
v -0.10996300000000001 0.388484 0
v -0.094780000000000003 0.388484 0.056661000000000003
v -0.053301000000000001 0.388484 0.098140000000000005
v 0.0033600000000000001 0.388484 0.11332200000000001
v 0.060020999999999998 0.388484 0.098140000000000005
v 0.10150000000000001 0.388484 0.056661000000000003
v 0.11668199999999999 0.388484 0
v 0.123556 0.42167500000000002 -0.069395999999999999
v 0.072755 0.42167500000000002 -0.120197
v 0.0033600000000000001 0.42167500000000002 -0.138791
v -0.066035999999999997 0.42167500000000002 -0.120197
v -0.116837 0.42167500000000002 -0.069395999999999999
v -0.135431 0.42167500000000002 0
v -0.116837 0.42167500000000002 0.069395999999999999
v -0.066035999999999997 0.42167500000000002 0.120197
v 0.0033600000000000001 0.42167500000000002 0.138791
v 0.072755 0.42167500000000002 0.120197
v 0.123556 0.42167500000000002 0.069395999999999999
v 0.142151 0.42167500000000002 0
v 0.13742199999999999 0.46032699999999999 -0.077400999999999998
v 0.080759999999999998 0.46032699999999999 -0.13406199999999999
v 0.0033600000000000001 0.46032699999999999 -0.15480099999999999
v -0.074040999999999996 0.46032699999999999 -0.13406199999999999
v -0.13070200000000001 0.46032699999999999 -0.077400999999999998
v -0.15144099999999999 0.46032699999999999 0
v -0.13070200000000001 0.46032699999999999 0.077400999999999998
v -0.074040999999999996 0.46032699999999999 0.13406199999999999
v 0.0033600000000000001 0.46032699999999999 0.15480099999999999
v 0.080759999999999998 0.46032699999999999 0.13406199999999999
v 0.13742199999999999 0.46032699999999999 0.077400999999999998
v 0.158161 0.46032699999999999 0
v 0.142151 0.50180599999999997 -0.080130999999999994
v 0.083490999999999996 0.50180599999999997 -0.138791
v 0.0033600000000000001 0.50180599999999997 -0.16026199999999999
v -0.076771000000000006 0.50180599999999997 -0.138791
v -0.135431 0.50180599999999997 -0.080130999999999994
v -0.15690200000000001 0.50180599999999997 0
v -0.135431 0.50180599999999997 0.080130999999999994
v -0.076771000000000006 0.50180599999999997 0.138791
v 0.0033600000000000001 0.50180599999999997 0.16026199999999999
v 0.083490999999999996 0.50180599999999997 0.138791
v 0.142151 0.50180599999999997 0.080130999999999994
v 0.16362199999999999 0.50180599999999997 0
v 0.13742199999999999 0.54328500000000002 -0.077400999999999998
v 0.080759999999999998 0.54328500000000002 -0.13406199999999999
v 0.0033600000000000001 0.54328500000000002 -0.15480099999999999
v -0.074040999999999996 0.54328500000000002 -0.13406199999999999
v -0.13070200000000001 0.54328500000000002 -0.077400999999999998
v -0.15144099999999999 0.54328500000000002 0
v -0.13070200000000001 0.54328500000000002 0.077400999999999998
v -0.074040999999999996 0.54328500000000002 0.13406199999999999
v 0.0033600000000000001 0.54328500000000002 0.15480099999999999
v 0.080759999999999998 0.54328500000000002 0.13406199999999999
v 0.13742199999999999 0.54328500000000002 0.077400999999999998
v 0.158161 0.54328500000000002 0
v 0.0033600000000000001 0.34154400000000001 0
v 0.106617 0.63162099999999999 -0.059616000000000002
v 0.062976000000000004 0.63162099999999999 -0.103258
v 0.0033600000000000001 0.63162099999999999 -0.119232
v -0.056256 0.63162099999999999 -0.103258
v -0.099898000000000001 0.63162099999999999 -0.059616000000000002
v -0.115872 0.63162099999999999 0
v -0.099898000000000001 0.63162099999999999 0.059616000000000002
v -0.056256 0.63162099999999999 0.103258
v 0.0033600000000000001 0.63162099999999999 0.119232
v 0.062976000000000004 0.63162099999999999 0.103258
v 0.106617 0.63162099999999999 0.059616000000000002
v 0.12259200000000001 0.63162099999999999 0
v 0.071720999999999993 0.76632699999999998 -0.039468000000000003
v 0.042827999999999998 0.76632699999999998 -0.068361000000000005
v 0.0033600000000000001 0.76632699999999998 -0.078936999999999993
v -0.036108000000000001 0.76632699999999998 -0.068361000000000005
v -0.065001000000000003 0.76632699999999998 -0.039468000000000003
v -0.075577000000000005 0.76632699999999998 0
v -0.065001000000000003 0.76632699999999998 0.039468000000000003
v -0.036108000000000001 0.76632699999999998 0.068361000000000005
v 0.0033600000000000001 0.76632699999999998 0.078936999999999993
v 0.042827999999999998 0.76632699999999998 0.068361000000000005
v 0.071720999999999993 0.76632699999999998 0.039468000000000003
v 0.082295999999999994 0.76632699999999998 0
v 0.047725999999999998 0.79259000000000002 -0.025614999999999999
v 0.028974 0.79259000000000002 -0.044366000000000003
v 0.0033600000000000001 0.79259000000000002 -0.051228999999999997
v -0.022255 0.79259000000000002 -0.044366000000000003
v -0.041006000000000001 0.79259000000000002 -0.025614999999999999
v -0.047870000000000003 0.79259000000000002 0
v -0.041006000000000001 0.79259000000000002 0.025614999999999999
v -0.022255 0.79259000000000002 0.044366000000000003
v 0.0033600000000000001 0.79259000000000002 0.051228999999999997
v 0.028974 0.79259000000000002 0.044366000000000003
v 0.047725999999999998 0.79259000000000002 0.025614999999999999
v 0.054588999999999999 0.79259000000000002 0
v -0.051082000000000002 0.80159899999999995 0
v -0.043788000000000001 0.80159899999999995 0.027220000000000001
v 0.0033600000000000001 0.80159899999999995 0.054441000000000003
v -0.023861 0.80159899999999995 0.047147000000000001
v 0.03058 0.80159899999999995 0.047147000000000001
v 0.03058 0.80159899999999995 -0.047147000000000001
v 0.0033600000000000001 0.80159899999999995 -0.054441000000000003
v 0.050507000000000003 0.80159899999999995 -0.027220000000000001
v -0.023861 0.80159899999999995 -0.047147000000000001
v 0.050507000000000003 0.80159899999999995 0.027220000000000001
v 0.057799999999999997 0.80159899999999995 -0
v -0.043788000000000001 0.80159899999999995 -0.027220000000000001
v -0.047870000000000003 0.81283899999999998 0
v -0.041006000000000001 0.81283899999999998 0.025614999999999999
v 0.0033600000000000001 0.81283899999999998 0.051228999999999997
v -0.022255 0.81283899999999998 0.044366000000000003
v 0.028974 0.81283899999999998 0.044366000000000003
v 0.028974 0.81283899999999998 -0.044366000000000003
v 0.0033600000000000001 0.81283899999999998 -0.051228999999999997
v 0.047725999999999998 0.81283899999999998 -0.025614999999999999
v -0.022255 0.81283899999999998 -0.044366000000000003
v 0.047725999999999998 0.81283899999999998 0.025614999999999999
v 0.054588999999999999 0.81283899999999998 -0
v -0.041006000000000001 0.81283899999999998 -0.025614999999999999
v -0.047870000000000003 0.82291599999999998 0
v -0.041006000000000001 0.82291599999999998 0.025614999999999999
v 0.0033600000000000001 0.82291599999999998 0.051228999999999997
v -0.022255 0.82291599999999998 0.044366000000000003
v 0.028974 0.82291599999999998 0.044366000000000003
v 0.028974 0.82291599999999998 -0.044366000000000003
v 0.0033600000000000001 0.82291599999999998 -0.051228999999999997
v 0.047725999999999998 0.82291599999999998 -0.025614999999999999
v -0.022255 0.82291599999999998 -0.044366000000000003
v 0.047725999999999998 0.82291599999999998 0.025614999999999999
v 0.054588999999999999 0.82291599999999998 -0
v -0.041006000000000001 0.82291599999999998 -0.025614999999999999
v -0.037819999999999999 0.83404 0
v -0.032302999999999998 0.83404 0.020590000000000001
v 0.0033600000000000001 0.83404 0.041179
v -0.017229999999999999 0.83404 0.035661999999999999
v 0.023949000000000002 0.83404 0.035661999999999999
v 0.023949000000000002 0.83404 -0.035661999999999999
v 0.0033600000000000001 0.83404 -0.041179
v 0.039022000000000001 0.83404 -0.020590000000000001
v -0.017229999999999999 0.83404 -0.035661999999999999
v 0.039022000000000001 0.83404 0.020590000000000001
v 0.044539000000000002 0.83404 -0
v -0.032302999999999998 0.83404 -0.020590000000000001
v 0.0033600000000000001 0.84145199999999998 -0
v -0.009391 0.84145199999999998 0
v -0.0076819999999999996 0.84145199999999998 0.0063749999999999996
v 0.0033600000000000001 0.84145199999999998 0.012749999999999999
v -0.003016 0.84145199999999998 0.011042
v 0.0097350000000000006 0.84145199999999998 0.011042
v 0.0097350000000000006 0.84145199999999998 -0.011042
v 0.0033600000000000001 0.84145199999999998 -0.012749999999999999
v 0.014402 0.84145199999999998 -0.0063749999999999996
v -0.003016 0.84145199999999998 -0.011042
v 0.014402 0.84145199999999998 0.0063749999999999996
v 0.016109999999999999 0.84145199999999998 -0
v -0.0076819999999999996 0.84145199999999998 -0.0063749999999999996
#end vertices

#begin 269 textures vertices 
vt 0.64451823112496487 0.052733085642832786 0
vt 0.66687184957183598 0.052694492794409686 0
vt 0.68641787262227472 0.043247099773230796 0
vt 0.38292699267407637 0.052753506300871084 0
vt 0.40523877117140766 0.052672319973494308 0
vt 0.42465699842107452 0.042887741946539361 0
vt 0.1226637890479178 0.05271576652586895 0
vt 0.14497473765190241 0.052711985965511889 0
vt 0.16450678973877855 0.043299619992135469 0
vt 0.79934482601220069 0.47011356830494372 0
vt 0.82169840664113702 0.47015573229589575 0
vt 0.84119606232769861 0.4604811390218117 0
vt 0.63438663885124169 0.092894611166734087 0
vt 0.67680835968279762 0.093060668183250234 0
vt 0.71566856195827266 0.077810950228296011 0
vt 0.37318087709841835 0.093160645860919447 0
vt 0.4155311926564858 0.092776910104563029 0
vt 0.4546974418098092 0.076925076087213079 0
vt 0.11251047803441054 0.092872911465556193 0
vt 0.15486665647443201 0.093067068576289547 0
vt 0.19351403356123342 0.077922054819227538 0
vt 0.78940302786548022 0.51047848046061706 0
vt 0.83182424936844435 0.51031831667553607 0
vt 0.87115961013606502 0.49465948535754273 0
vt 0.25784745584733915 0.46130666117918123 0
vt 0.62605042151296442 0.13283108747419631 0
vt 0.74134474140394646 0.1160047356341995 0
vt 0.27054964994352176 0.46131241647495125 0
vt 0.24514523679427594 0.46131240228789311 0
vt 0.47928451975913522 0.11604230094242902 0
vt 0.84015354580641377 0.550257348347297 0
vt 0.78156429348741607 0.5502857443586926 0
vt 0.21864460625117044 0.11627420582051427 0
vt 0.16289112636043185 0.13281834517525787 0
vt 0.42407826417975547 0.13257482627218375 0
vt 0.89577407281368271 0.53381513235137268 0
vt 0.62068435785994236 0.17272287622663776 0
vt 0.69093446394667513 0.172673538559316 0
vt 0.75945778756511206 0.15864186949281059 0
vt 0.35951775936971792 0.17282997223480043 0
vt 0.42988441713533082 0.17264498127881256 0
vt 0.49916266391118413 0.15792801759802719 0
vt 0.098301918899548299 0.17263733801285777 0
vt 0.16867601950641845 0.17284424762176095 0
vt 0.23819530773045336 0.15828983755215736 0
vt 0.77526709702906105 0.59008856347511962 0
vt 0.84551401948579519 0.59015297951546875 0
vt 0.91596415341120796 0.57559472237190079 0
vt 0.61676817225594549 0.21267377990782335 0
vt 0.69421360861969483 0.21269319754311286 0
vt 0.77219564555476639 0.20304163841103223 0
vt 0.35624311310490647 0.21275899678802312 0
vt 0.43326640032391706 0.21265335506609409 0
vt 0.51235837258849237 0.20255362448538664 0
vt 0.094919322433072481 0.21251855491423824 0
vt 0.17195034828401964 0.2128963427241129 0
vt 0.25114407900028413 0.20296597483723633 0
vt 0.77198293234125615 0.63010881119288342 0
vt 0.84942792424619395 0.63010500742349562 0
vt 0.92741526116772188 0.62051870376700269 0
vt 0.61499414383709949 0.25286886225074845 0
vt 0.69525268957371367 0.25279021150732328 0
vt 0.77762011709543355 0.24899506138147698 0
vt 0.35440633968853302 0.25289310314535601 0
vt 0.43526238298489534 0.25250593666426768 0
vt 0.51619382385012269 0.24880034403075896 0
vt 0.092950432431598104 0.25254065705448836 0
vt 0.17380576338777964 0.25285923671433541 0
vt 0.25479628562028755 0.24918999217145704 0
vt 0.77093950055923854 0.67020796879462885 0
vt 0.85120495775747618 0.67029677008670074 0
vt 0.93138509420296256 0.66640893451643035 0
vt 0.61590603074517025 0.29334987640257909 0
vt 0.69520225867204288 0.29281754357317136 0
vt 0.77414282448938621 0.294892154446799 0
vt 0.35551040828062858 0.2928896971882371 0
vt 0.43422460576456423 0.29254497860836259 0
vt 0.51460370686020485 0.29535312542724051 0
vt 0.093978312973639816 0.29257280674456038 0
vt 0.17270167859987989 0.29286188276121677 0
vt 0.25306883739993502 0.29556896245124492 0
vt 0.77100284775390915 0.71024077579142142 0
vt 0.85029538753022882 0.71077251787575069 0
vt 0.92962576608017022 0.71252128809538884 0
vt 0.65583209639775719 0.012000000000000011 0
vt 0.62331057907706444 0.3858061217441674 0
vt 0.68792205999768352 0.38640267882050078 0
vt 0.75083059465794078 0.39476053484518925 0
vt 0.3624863815875724 0.38599874475777174 0
vt 0.42720217733900856 0.38661144078387283 0
vt 0.48935188111207528 0.39440302122237203 0
vt 0.10096725759079725 0.38667721257360649 0
vt 0.16570982419422495 0.38593111622601151 0
vt 0.2279233842448766 0.39366120327247467 0
vt 0.77828870888822954 0.80382650656925547 0
vt 0.84289946774725555 0.80322857825368232 0
vt 0.90642576019065135 0.81189928460137906 0
vt 0.63513555489856066 0.52593684611635683 0
vt 0.67560941693387622 0.52575072512281895 0
vt 0.71585569412170624 0.53489864071414495 0
vt 0.37389153902682676 0.52575213882234872 0
vt 0.41445233660812958 0.52616494430898542 0
vt 0.45463325507703539 0.53530081888808356 0
vt 0.11361076600831506 0.52594873025082212 0
vt 0.15413303562124406 0.52596197552328228 0
vt 0.19434952787797619 0.53484152271211138 0
vt 0.79060213602580742 0.9431786132560771 0
vt 0.83107822479011495 0.94335901500413366 0
vt 0.87050133644064676 0.95261323341283255 0
vt 0.64137843424890661 0.56359804675717617 0
vt 0.6698869523936648 0.56301180686564878 0
vt 0.69639781428900815 0.5701248157727139 0
vt 0.37969600426924621 0.56323689707534097 0
vt 0.4082560511256107 0.56297984063029594 0
vt 0.43498041261625292 0.57092559415769717 0
vt 0.11960105512135545 0.56286762089690778 0
vt 0.14813926484387641 0.56334624687239143 0
vt 0.17496648881184915 0.570901031089594 0
vt 0.7963240766996813 0.9804397224020841 0
vt 0.82483649821805705 0.98102376408497238 0
vt 0.8512941290575603 0.98799999999999999 0
vt 0.20421049142158018 0.52650053239742234 0
vt 0.2320179886788826 0.52437446133165277 0
vt 0.28747553942022031 0.52645722151044805 0
vt 0.25952326859143837 0.52438762749987911 0
vt 0.2282710383593711 0.58364598540943369 0
vt 0.53244563775735654 0.52581150786770314 0
vt 0.56040522932461556 0.52787859134010251 0
vt 0.50492671458239835 0.5257871411196402 0
vt 0.50504534396248191 0.46668582210816639 0
vt 0.2557994773163213 0.58355259180963892 0
vt 0.47714938924022388 0.52787507001831546 0
vt 0.53255620221732702 0.46660697768697756 0
vt 0.20595091750616762 0.5385656667440134 0
vt 0.23249658970058618 0.53598693525747421 0
vt 0.28566322017929952 0.53843524671281562 0
vt 0.2591054009038794 0.53595290007146379 0
vt 0.22871608768161586 0.5952126964404173 0
vt 0.53201874724598697 0.53737931963324204 0
vt 0.5585766425775035 0.53983196104469011 0
vt 0.50539040912669098 0.53739290581544019 0
vt 0.5054773855481387 0.47824819291269316 0
vt 0.25534277382544546 0.5951538847345279 0
vt 0.47886079260795839 0.53997153780381257 0
vt 0.53208936958207009 0.47821518517966505 0
vt 0.20705684776050487 0.54901055981446989 0
vt 0.23308473298415688 0.54592274209721992 0
vt 0.28448735421021337 0.54897595275444488 0
vt 0.25859759197708676 0.5459279053318733 0
vt 0.22929709423286251 0.60514093127486757 0
vt 0.53151614939280711 0.54737439938227728 0
vt 0.55738987893715031 0.55033004218447512 0
vt 0.5059869571898673 0.54730851261885693 0
vt 0.50605840556017945 0.48815648436215442 0
vt 0.25481801293744971 0.60513059176163375 0
vt 0.47996098884304 0.55045573214536991 0
vt 0.5315750652111445 0.48820109607347623 0
vt 0.5521760168400236 0.50587521291994597 0
vt 0.23426488835142648 0.56059039464954064 0
vt 0.27946579958235879 0.56355206441703032 0
vt 0.25739153851235502 0.56097337559320459 0
vt 0.23040347018278184 0.61961146914568943 0
vt 0.53030008339603796 0.56184398717109818 0
vt 0.55234391928106485 0.56518944354354483 0
vt 0.50721119205471654 0.56234291918669943 0
vt 0.50716774993154634 0.50320059279042328 0
vt 0.25348427761455122 0.62016431233080282 0
vt 0.27546759491066958 0.62294039874046447 0
vt 0.53027806913548847 0.50287129338531322 0
vt 0.3094792980120698 0.11646820966280899 0
vt 0.57042932820020253 0.11638486566225707 0
vt 0.25149365882192032 0.47231674474951379 0
vt 0.68464447713559606 0.13286924784078358 0
vt 0.24681527296244687 0.46768262607528666 0
vt 0.24682649023348077 0.45494626162199214 0
vt 0.26886840907715215 0.45494627637849083 0
vt 0.48512196664375462 0.56502972070567681 0
vt 0.26422216618963862 0.45027282578278788 0
vt 0.2688796478460635 0.46768263685103073 0
vt 0.25147277257004608 0.45027282798284646 0
vt 0.25784746616667187 0.4485977192587039 0
vt 0.26420125154364182 0.47231674356263442 0
vt 0.36335694662018547 0.043411906175761739 0
vt 0.28069897189408893 0.60835999398026219 0
vt 0.27705917432368771 0.20300983035423917 0
vt 0.20457459942117909 0.5165955291915767 0
vt 0.33448136211176605 0.078111406224022614 0
vt 0.28998278788946541 0.15838284703627142 0
vt 0.77980064748988376 0.46066327525973033 0
vt 0.10409735954612628 0.13276810600879524 0
vt 0.75054472070433753 0.49522475941577421 0
vt 0.13402736536124416 0.012000000000000011 0
vt 0.7067451379940064 0.57605410778263422 0
vt 0.69400427152237465 0.62045776834107702 0
vt 0.47754204995750327 0.51796411682992549 0
vt 0.27340626833334897 0.24922070304955785 0
vt 0.68858092980396213 0.6664170526145986 0
vt 0.27513686659888648 0.29559043929133338 0
vt 0.69205833096166181 0.71231385890252008 0
vt 0.30025790566010607 0.39368806200765277 0
vt 0.715379234420494 0.81218200052104172 0
vt 0.33366281943804177 0.53457368652155379 0
vt 0.75035507313169747 0.95231733667168239 0
vt 0.53269706771337988 0.51636522975201216 0
vt 0.50478266473238986 0.51624287473454222 0
vt 0.35285584479117776 0.57067050918060758 0
vt 0.47756484219148121 0.45907638342620155 0
vt 0.50476204223330545 0.45724228332978778 0
vt 0.53267584519017652 0.45706089382499582 0
vt 0.23184511338088259 0.5148311275962919 0
vt 0.25975303730628818 0.5149401519555582 0
vt 0.76980706578753244 0.98754580784913426 0
vt 0.20075421293922879 0.57605853893196568 0
vt 0.22796126072141654 0.57420373265334523 0
vt 0.25589366373384304 0.57400575635697426 0
vt 0.23679216244047113 0.497765409618454 0
vt 0.25784745311245727 0.50338577137891982 0
vt 0.29429429941736168 0.4823359979522639 0
vt 0.21574312090687492 0.46128768733444581 0
vt 0.22140061719357215 0.48233599119821607 0
vt 0.2214077497457187 0.44024749726642176 0
vt 0.29995178924462462 0.46128768223385108 0
vt 0.29428717943263383 0.44024749292399429 0
vt 0.27887093227012094 0.42486469939648741 0
vt 0.23682396695244945 0.42486471562562395 0
vt 0.25784744748211696 0.41921177248981928 0
vt 0.2789027474436479 0.49776541342423636 0
vt 0.28700280960364882 0.51673149171775645 0
vt 0.20036628159314854 0.58576227571638528 0
vt 0.47901923589521761 0.48072876867952991 0
vt 0.2032902522524411 0.6080627313070972 0
vt 0.55995083125940104 0.51816021380162924 0
vt 0.47714938924022388 0.46878900775240839 0
vt 0.20225598616767448 0.59767396900957448 0
vt 0.48004055430226289 0.49116702259733114 0
vt 0.20828963957558139 0.6229054327697775 0
vt 0.48500985102322436 0.50572759048535565 0
vt 0.10320882109521741 0.043001406488316088 0
vt 0.55875372575324977 0.48080222104671927 0
vt 0.72486532852184782 0.53341756769530746 0
vt 0.21226844835427058 0.56350405948960736 0
vt 0.015833413447273428 0.2025849854061986 0
vt 0.073313555027853611 0.077120490272030634 0
vt 0.55746059433359751 0.49137752026972453 0
vt 0.029012277259525442 0.15800483063511334 0
vt 0.36527405486763614 0.13300169425492425 0
vt 0.62502219999711084 0.043055516581467002 0
vt 0.048842056389050155 0.11622296014365971 0
vt 0.59505281980535385 0.077230847931775315 0
vt 0.5502269610187005 0.15816851215450961 0
vt 0.53877984268545065 0.20310306015926352 0
vt 0.012000000000000011 0.24882207298851863 0
vt 0.53481253666669792 0.24899829314431654 0
vt 0.013590075368918687 0.29536716165489718 0
vt 0.53658093997235967 0.29511048645104127 0
vt 0.39371543016653276 0.012000000000000011 0
vt 0.8103919552999802 0.42942078192927119 0
vt 0.038808202806922362 0.39442795681137355 0
vt 0.5597871381428684 0.39448561947886962 0
vt 0.073412031689757878 0.53503323131917846 0
vt 0.5957119373223978 0.53519329305601082 0
vt 0.092867758724037366 0.57069213619888037 0
vt 0.61492696469271113 0.5705804398325458 0
vt 0.25784745723148345 0.47405243582671075 0
vt 0.28199255637355503 0.59776009241478578 0
vt 0.56041465761914488 0.46868530956428373 0
vt 0.55999442678872202 0.45876677332784493 0
vt 0.28363211137764432 0.58561404457207522 0
vt 0.2831899194813432 0.57568914469042753 0
#end 269 textures vertices 

#begin 577 normals 
vn 0.27868199999999999 -0.91906100000000002 -0.27868300000000001
vn 0.27868199999999999 -0.91906100000000002 -0.27868300000000001
vn 0.27868199999999999 -0.91906100000000002 -0.27868300000000001
vn 0.27868199999999999 -0.91906100000000002 -0.27868300000000001
vn 0.102005 -0.91906100000000002 -0.380687
vn 0.102005 -0.91906100000000002 -0.380687
vn 0.102005 -0.91906100000000002 -0.380687
vn 0.102005 -0.91906100000000002 -0.380687
vn -0.102004 -0.91906100000000002 -0.380687
vn -0.102004 -0.91906100000000002 -0.380687
vn -0.102004 -0.91906100000000002 -0.380687
vn -0.102004 -0.91906100000000002 -0.380687
vn -0.27868199999999999 -0.91906100000000002 -0.27868199999999999
vn -0.27868199999999999 -0.91906100000000002 -0.27868199999999999
vn -0.27868199999999999 -0.91906100000000002 -0.27868199999999999
vn -0.27868199999999999 -0.91906100000000002 -0.27868199999999999
vn -0.380687 -0.91906100000000002 -0.102005
vn -0.380687 -0.91906100000000002 -0.102005
vn -0.380687 -0.91906100000000002 -0.102005
vn -0.380687 -0.91906100000000002 -0.102005
vn -0.380687 -0.91906100000000002 0.102005
vn -0.380687 -0.91906100000000002 0.102005
vn -0.380687 -0.91906100000000002 0.102005
vn -0.380687 -0.91906100000000002 0.102005
vn -0.27868199999999999 -0.91906100000000002 0.27868199999999999
vn -0.27868199999999999 -0.91906100000000002 0.27868199999999999
vn -0.27868199999999999 -0.91906100000000002 0.27868199999999999
vn -0.27868199999999999 -0.91906100000000002 0.27868199999999999
vn -0.102004 -0.91906100000000002 0.380687
vn -0.102004 -0.91906100000000002 0.380687
vn -0.102004 -0.91906100000000002 0.380687
vn -0.102004 -0.91906100000000002 0.380687
vn 0.102005 -0.91906100000000002 0.380687
vn 0.102005 -0.91906100000000002 0.380687
vn 0.102005 -0.91906100000000002 0.380687
vn 0.102005 -0.91906100000000002 0.380687
vn 0.27868199999999999 -0.91906100000000002 0.27868300000000001
vn 0.27868199999999999 -0.91906100000000002 0.27868300000000001
vn 0.27868199999999999 -0.91906100000000002 0.27868300000000001
vn 0.27868199999999999 -0.91906100000000002 0.27868300000000001
vn 0.380687 -0.91906100000000002 0.102003
vn 0.380687 -0.91906100000000002 0.102003
vn 0.380687 -0.91906100000000002 0.102003
vn 0.380687 -0.91906100000000002 0.102003
vn 0.380687 -0.91906100000000002 -0.102004
vn 0.380687 -0.91906100000000002 -0.102004
vn 0.380687 -0.91906100000000002 -0.102004
vn 0.380687 -0.91906100000000002 -0.102004
vn 0.439832 -0.78300400000000003 -0.439832
vn 0.439832 -0.78300400000000003 -0.439832
vn 0.439832 -0.78300400000000003 -0.439832
vn 0.439832 -0.78300400000000003 -0.439832
vn 0.16098999999999999 -0.78300499999999995 -0.60082100000000005
vn 0.16098999999999999 -0.78300499999999995 -0.60082100000000005
vn 0.16098999999999999 -0.78300499999999995 -0.60082100000000005
vn 0.16098999999999999 -0.78300499999999995 -0.60082100000000005
vn -0.16098899999999999 -0.78300499999999995 -0.60082100000000005
vn -0.16098899999999999 -0.78300499999999995 -0.60082100000000005
vn -0.16098899999999999 -0.78300499999999995 -0.60082100000000005
vn -0.16098899999999999 -0.78300499999999995 -0.60082100000000005
vn -0.439832 -0.78300400000000003 -0.43983100000000003
vn -0.439832 -0.78300400000000003 -0.43983100000000003
vn -0.439832 -0.78300400000000003 -0.43983100000000003
vn -0.439832 -0.78300400000000003 -0.43983100000000003
vn -0.60082100000000005 -0.78300400000000003 -0.16098999999999999
vn -0.60082100000000005 -0.78300400000000003 -0.16098999999999999
vn -0.60082100000000005 -0.78300400000000003 -0.16098999999999999
vn -0.60082100000000005 -0.78300400000000003 -0.16098999999999999
vn -0.60082100000000005 -0.78300400000000003 0.16098999999999999
vn -0.60082100000000005 -0.78300400000000003 0.16098999999999999
vn -0.60082100000000005 -0.78300400000000003 0.16098999999999999
vn -0.60082100000000005 -0.78300400000000003 0.16098999999999999
vn -0.439832 -0.78300400000000003 0.43983100000000003
vn -0.43983299999999997 -0.78300400000000003 0.43983100000000003
vn -0.43983299999999997 -0.78300400000000003 0.43983100000000003
vn -0.439832 -0.78300400000000003 0.43983100000000003
vn -0.16098899999999999 -0.78300499999999995 0.60082100000000005
vn -0.16098899999999999 -0.78300499999999995 0.60082100000000005
vn -0.16098899999999999 -0.78300499999999995 0.60082100000000005
vn -0.16098899999999999 -0.78300499999999995 0.60082100000000005
vn 0.16098999999999999 -0.78300499999999995 0.60082100000000005
vn 0.16098999999999999 -0.78300499999999995 0.60082100000000005
vn 0.16098999999999999 -0.78300499999999995 0.60082100000000005
vn 0.16098999999999999 -0.78300499999999995 0.60082100000000005
vn 0.439832 -0.78300400000000003 0.439832
vn 0.439832 -0.78300400000000003 0.439832
vn 0.439832 -0.78300400000000003 0.439832
vn 0.439832 -0.78300400000000003 0.439832
vn 0.60082199999999997 -0.78300400000000003 0.16098999999999999
vn 0.60082199999999997 -0.78300400000000003 0.16098999999999999
vn 0.60082199999999997 -0.78300400000000003 0.16098999999999999
vn 0.60082199999999997 -0.78300400000000003 0.16098999999999999
vn 0.60082199999999997 -0.78300400000000003 -0.16098999999999999
vn 0.60082199999999997 -0.78300400000000003 -0.16098999999999999
vn 0.60082199999999997 -0.78300400000000003 -0.16098999999999999
vn 0.60082199999999997 -0.78300400000000003 -0.16098999999999999
vn 0.56808099999999995 -0.59545700000000001 -0.56808000000000003
vn 0.56808099999999995 -0.59545700000000001 -0.56808000000000003
vn 0.56808099999999995 -0.59545700000000001 -0.56808000000000003
vn 0.56808099999999995 -0.59545800000000004 -0.56808000000000003
vn 0.20793200000000001 -0.59545599999999999 -0.77601299999999995
vn 0.20793200000000001 -0.59545599999999999 -0.77601299999999995
vn 0.20793200000000001 -0.59545599999999999 -0.77601299999999995
vn 0.20793200000000001 -0.59545599999999999 -0.77601299999999995
vn -0.20793200000000001 -0.59545599999999999 -0.77601299999999995
vn -0.20793200000000001 -0.59545599999999999 -0.77601299999999995
vn -0.20793200000000001 -0.59545599999999999 -0.77601299999999995
vn -0.20793200000000001 -0.59545599999999999 -0.77601299999999995
vn -0.56808099999999995 -0.59545599999999999 -0.56808099999999995
vn -0.56808099999999995 -0.59545599999999999 -0.56808099999999995
vn -0.56808099999999995 -0.59545599999999999 -0.56808099999999995
vn -0.56808099999999995 -0.59545599999999999 -0.56808099999999995
vn -0.77601299999999995 -0.59545599999999999 -0.20793200000000001
vn -0.77601299999999995 -0.59545599999999999 -0.20793200000000001
vn -0.77601299999999995 -0.59545599999999999 -0.20793200000000001
vn -0.77601299999999995 -0.59545599999999999 -0.20793200000000001
vn -0.77601299999999995 -0.59545599999999999 0.20793200000000001
vn -0.77601299999999995 -0.59545599999999999 0.20793200000000001
vn -0.77601299999999995 -0.59545599999999999 0.20793200000000001
vn -0.77601299999999995 -0.59545599999999999 0.20793200000000001
vn -0.56808099999999995 -0.59545599999999999 0.56808099999999995
vn -0.56808099999999995 -0.59545599999999999 0.56808099999999995
vn -0.56808099999999995 -0.59545599999999999 0.56808099999999995
vn -0.56808099999999995 -0.59545599999999999 0.56808099999999995
vn -0.20793200000000001 -0.59545599999999999 0.77601299999999995
vn -0.20793200000000001 -0.59545599999999999 0.77601299999999995
vn -0.20793200000000001 -0.59545599999999999 0.77601299999999995
vn -0.20793200000000001 -0.59545599999999999 0.77601299999999995
vn 0.20793200000000001 -0.59545599999999999 0.77601299999999995
vn 0.20793200000000001 -0.59545599999999999 0.77601299999999995
vn 0.20793200000000001 -0.59545599999999999 0.77601299999999995
vn 0.20793200000000001 -0.59545599999999999 0.77601299999999995
vn 0.56808099999999995 -0.59545800000000004 0.56808000000000003
vn 0.56808099999999995 -0.59545800000000004 0.56808000000000003
vn 0.56808099999999995 -0.59545800000000004 0.56808000000000003
vn 0.56808099999999995 -0.59545800000000004 0.56808000000000003
vn 0.77601299999999995 -0.59545700000000001 0.20793200000000001
vn 0.77601299999999995 -0.59545700000000001 0.20793200000000001
vn 0.77601299999999995 -0.59545700000000001 0.20793200000000001
vn 0.77601299999999995 -0.59545700000000001 0.20793200000000001
vn 0.77601299999999995 -0.59545700000000001 -0.20793200000000001
vn 0.77601299999999995 -0.59545700000000001 -0.20793200000000001
vn 0.77601299999999995 -0.59545700000000001 -0.20793200000000001
vn 0.77601299999999995 -0.59545700000000001 -0.20793200000000001
vn 0.65651000000000004 -0.37146899999999999 -0.65651099999999996
vn 0.65651000000000004 -0.37146899999999999 -0.65651099999999996
vn 0.65651000000000004 -0.37146899999999999 -0.65651099999999996
vn 0.65651000000000004 -0.37146899999999999 -0.65651099999999996
vn 0.24030000000000001 -0.37147000000000002 -0.89680899999999997
vn 0.24030000000000001 -0.37147000000000002 -0.89680899999999997
vn 0.24030000000000001 -0.37147000000000002 -0.89680899999999997
vn 0.24030000000000001 -0.37147000000000002 -0.89680899999999997
vn -0.24029900000000001 -0.37147000000000002 -0.89680899999999997
vn -0.24029900000000001 -0.37147000000000002 -0.89680899999999997
vn -0.24029900000000001 -0.37147000000000002 -0.89680899999999997
vn -0.24029900000000001 -0.37147000000000002 -0.89680899999999997
vn -0.65651000000000004 -0.37146899999999999 -0.65651000000000004
vn -0.65651000000000004 -0.37146899999999999 -0.65651000000000004
vn -0.65651000000000004 -0.37146899999999999 -0.65651000000000004
vn -0.65651000000000004 -0.37146899999999999 -0.65651000000000004
vn -0.89680899999999997 -0.37147000000000002 -0.24029900000000001
vn -0.89680899999999997 -0.37147000000000002 -0.24029900000000001
vn -0.89680899999999997 -0.37147000000000002 -0.24029900000000001
vn -0.89680899999999997 -0.37147000000000002 -0.24029900000000001
vn -0.89680899999999997 -0.37147000000000002 0.24029900000000001
vn -0.89680899999999997 -0.37147000000000002 0.24029900000000001
vn -0.89680899999999997 -0.37147000000000002 0.24029900000000001
vn -0.89680899999999997 -0.37147000000000002 0.24029900000000001
vn -0.65651000000000004 -0.37146899999999999 0.65651000000000004
vn -0.65651000000000004 -0.37146899999999999 0.65651000000000004
vn -0.65651000000000004 -0.37146899999999999 0.65651000000000004
vn -0.65651000000000004 -0.37146899999999999 0.65651000000000004
vn -0.24029900000000001 -0.37147000000000002 0.89680899999999997
vn -0.24029900000000001 -0.37147000000000002 0.89680899999999997
vn -0.24029900000000001 -0.37147000000000002 0.89680899999999997
vn -0.24029900000000001 -0.37147000000000002 0.89680899999999997
vn 0.24030000000000001 -0.37147000000000002 0.89680899999999997
vn 0.24030000000000001 -0.37147000000000002 0.89680899999999997
vn 0.24030000000000001 -0.37147000000000002 0.89680899999999997
vn 0.24030000000000001 -0.37147000000000002 0.89680899999999997
vn 0.65651000000000004 -0.37146899999999999 0.65651099999999996
vn 0.65651000000000004 -0.37146899999999999 0.65651099999999996
vn 0.65651000000000004 -0.37146899999999999 0.65651099999999996
vn 0.65651000000000004 -0.37146899999999999 0.65651099999999996
vn 0.89680899999999997 -0.37147000000000002 0.24029800000000001
vn 0.89680899999999997 -0.37147000000000002 0.24029800000000001
vn 0.89680899999999997 -0.37147000000000002 0.24029800000000001
vn 0.89680899999999997 -0.37147000000000002 0.24029800000000001
vn 0.89680899999999997 -0.37147000000000002 -0.24029800000000001
vn 0.89680899999999997 -0.37147000000000002 -0.24029800000000001
vn 0.89680899999999997 -0.37147000000000002 -0.24029800000000001
vn 0.89680899999999997 -0.37147000000000002 -0.24029800000000001
vn 0.701457 -0.12615199999999999 -0.70145800000000003
vn 0.701457 -0.12615199999999999 -0.70145800000000003
vn 0.701457 -0.12615199999999999 -0.70145800000000003
vn 0.701457 -0.12615199999999999 -0.70145800000000003
vn 0.25675199999999998 -0.12615100000000001 -0.95820899999999998
vn 0.25675199999999998 -0.12615100000000001 -0.95820899999999998
vn 0.25675199999999998 -0.12615100000000001 -0.95820899999999998
vn 0.25675199999999998 -0.12615100000000001 -0.95820899999999998
vn -0.25675100000000001 -0.12615100000000001 -0.95820899999999998
vn -0.25675100000000001 -0.12615100000000001 -0.95820899999999998
vn -0.25675100000000001 -0.12615100000000001 -0.95820899999999998
vn -0.25675100000000001 -0.12615100000000001 -0.95820899999999998
vn -0.70145800000000003 -0.12615199999999999 -0.70145800000000003
vn -0.70145800000000003 -0.12615199999999999 -0.70145800000000003
vn -0.70145800000000003 -0.12615199999999999 -0.70145800000000003
vn -0.70145800000000003 -0.12615199999999999 -0.70145800000000003
vn -0.95820899999999998 -0.12615000000000001 -0.25675199999999998
vn -0.95820899999999998 -0.12615000000000001 -0.25675199999999998
vn -0.95820899999999998 -0.12615000000000001 -0.25675199999999998
vn -0.95820899999999998 -0.12615000000000001 -0.25675199999999998
vn -0.95820899999999998 -0.12615000000000001 0.25675199999999998
vn -0.95820899999999998 -0.12615000000000001 0.25675199999999998
vn -0.95820899999999998 -0.12615000000000001 0.25675199999999998
vn -0.95820899999999998 -0.12615000000000001 0.25675199999999998
vn -0.70145800000000003 -0.12615199999999999 0.70145800000000003
vn -0.70145800000000003 -0.12615199999999999 0.70145800000000003
vn -0.70145800000000003 -0.12615199999999999 0.70145800000000003
vn -0.70145800000000003 -0.12615199999999999 0.70145800000000003
vn -0.25675100000000001 -0.12615100000000001 0.95820899999999998
vn -0.25675100000000001 -0.12615100000000001 0.95820899999999998
vn -0.25675100000000001 -0.12615100000000001 0.95820899999999998
vn -0.25675100000000001 -0.12615100000000001 0.95820899999999998
vn 0.25675199999999998 -0.12615100000000001 0.95820899999999998
vn 0.25675199999999998 -0.12615100000000001 0.95820899999999998
vn 0.25675199999999998 -0.12615100000000001 0.95820899999999998
vn 0.25675199999999998 -0.12615100000000001 0.95820899999999998
vn 0.701457 -0.12615199999999999 0.70145800000000003
vn 0.701457 -0.12615199999999999 0.70145800000000003
vn 0.701457 -0.12615199999999999 0.70145800000000003
vn 0.701457 -0.12615199999999999 0.70145800000000003
vn 0.95821000000000001 -0.12614900000000001 0.25674999999999998
vn 0.95821000000000001 -0.12614900000000001 0.25674999999999998
vn 0.95821000000000001 -0.12614900000000001 0.25674999999999998
vn 0.95821000000000001 -0.12614900000000001 0.25674999999999998
vn 0.95821000000000001 -0.12614900000000001 -0.25674999999999998
vn 0.95821000000000001 -0.12614900000000001 -0.25674999999999998
vn 0.95821000000000001 -0.12614900000000001 -0.25674999999999998
vn 0.95821000000000001 -0.12614900000000001 -0.25674999999999998
vn 0.701457 0.12615199999999999 -0.70145800000000003
vn 0.701457 0.12615199999999999 -0.70145800000000003
vn 0.67875300000000005 0.280335 -0.67875399999999997
vn 0.67875300000000005 0.28033400000000003 -0.67875399999999997
vn 0.25675199999999998 0.12615100000000001 -0.95820899999999998
vn 0.25675199999999998 0.12615100000000001 -0.95820899999999998
vn 0.248442 0.28033400000000003 -0.92719399999999996
vn 0.248442 0.28033400000000003 -0.92719399999999996
vn -0.25675100000000001 0.12615100000000001 -0.95820899999999998
vn -0.25675100000000001 0.12615100000000001 -0.95820899999999998
vn -0.248441 0.28033400000000003 -0.92719499999999999
vn -0.248441 0.28033400000000003 -0.92719499999999999
vn -0.70145800000000003 0.12615199999999999 -0.70145800000000003
vn -0.70145800000000003 0.12615199999999999 -0.70145800000000003
vn -0.67875300000000005 0.280333 -0.67875399999999997
vn -0.67875300000000005 0.280333 -0.67875399999999997
vn -0.95820899999999998 0.12615000000000001 -0.25675199999999998
vn -0.95820899999999998 0.12615000000000001 -0.25675199999999998
vn -0.92719499999999999 0.280333 -0.248441
vn -0.92719499999999999 0.280333 -0.248441
vn -0.95820899999999998 0.12615000000000001 0.25675199999999998
vn -0.95820899999999998 0.12615000000000001 0.25675199999999998
vn -0.92719499999999999 0.280333 0.248441
vn -0.92719499999999999 0.280333 0.248441
vn -0.70145800000000003 0.12615199999999999 0.70145800000000003
vn -0.70145800000000003 0.12615199999999999 0.70145800000000003
vn -0.67875300000000005 0.280333 0.67875399999999997
vn -0.67875300000000005 0.280333 0.67875399999999997
vn -0.25675100000000001 0.12615100000000001 0.95820899999999998
vn -0.25675100000000001 0.12615100000000001 0.95820899999999998
vn -0.248441 0.28033400000000003 0.92719499999999999
vn -0.248441 0.28033400000000003 0.92719499999999999
vn 0.25675199999999998 0.12615100000000001 0.95820899999999998
vn 0.25675199999999998 0.12615100000000001 0.95820899999999998
vn 0.248442 0.28033400000000003 0.92719399999999996
vn 0.248442 0.28033400000000003 0.92719399999999996
vn 0.701457 0.12615199999999999 0.70145800000000003
vn 0.701457 0.12615199999999999 0.70145800000000003
vn 0.67875300000000005 0.28033400000000003 0.67875399999999997
vn 0.67875300000000005 0.280335 0.67875399999999997
vn 0.95821000000000001 0.12614900000000001 0.25674999999999998
vn 0.95821000000000001 0.12614900000000001 0.25674999999999998
vn 0.92719499999999999 0.28033400000000003 0.248441
vn 0.92719499999999999 0.280333 0.248441
vn 0.95821000000000001 0.12614900000000001 -0.25674999999999998
vn 0.95821000000000001 0.12614900000000001 -0.25674999999999998
vn 0.92719499999999999 0.280333 -0.248441
vn 0.92719499999999999 0.280333 -0.248441
vn 0.095492999999999995 -0.99083900000000003 -0.095493999999999996
vn 0.095492999999999995 -0.99083900000000003 -0.095493999999999996
vn 0.095492999999999995 -0.99083900000000003 -0.095493999999999996
vn 0.034952999999999998 -0.99083900000000003 -0.13044600000000001
vn 0.034952999999999998 -0.99083900000000003 -0.13044600000000001
vn 0.034952999999999998 -0.99083900000000003 -0.13044600000000001
vn -0.034952999999999998 -0.99083900000000003 -0.13044700000000001
vn -0.034952999999999998 -0.99083900000000003 -0.13044700000000001
vn -0.034952999999999998 -0.99083900000000003 -0.13044700000000001
vn -0.095492999999999995 -0.99083900000000003 -0.095493999999999996
vn -0.095492999999999995 -0.99083900000000003 -0.095493999999999996
vn -0.095492999999999995 -0.99083900000000003 -0.095493999999999996
vn -0.13044600000000001 -0.99083900000000003 -0.034951999999999997
vn -0.13044600000000001 -0.99083900000000003 -0.034951999999999997
vn -0.13044600000000001 -0.99083900000000003 -0.034951999999999997
vn -0.13044600000000001 -0.99083900000000003 0.034952999999999998
vn -0.13044600000000001 -0.99083900000000003 0.034952999999999998
vn -0.13044600000000001 -0.99083900000000003 0.034952999999999998
vn -0.095492999999999995 -0.99083900000000003 0.095493999999999996
vn -0.095492999999999995 -0.99083900000000003 0.095493999999999996
vn -0.095492999999999995 -0.99083900000000003 0.095493999999999996
vn -0.034952999999999998 -0.99083900000000003 0.13044700000000001
vn -0.034952999999999998 -0.99083900000000003 0.13044700000000001
vn -0.034952999999999998 -0.99083900000000003 0.13044700000000001
vn 0.034952999999999998 -0.99083900000000003 0.13044600000000001
vn 0.034952999999999998 -0.99083900000000003 0.13044600000000001
vn 0.034952999999999998 -0.99083900000000003 0.13044600000000001
vn 0.095492999999999995 -0.99083900000000003 0.095493999999999996
vn 0.095492999999999995 -0.99083900000000003 0.095493999999999996
vn 0.095492999999999995 -0.99083900000000003 0.095493999999999996
vn 0.13044700000000001 -0.99083900000000003 0.034951999999999997
vn 0.13044700000000001 -0.99083900000000003 0.034951999999999997
vn 0.13044700000000001 -0.99083900000000003 0.034951999999999997
vn 0.13044700000000001 -0.99083900000000003 -0.034951999999999997
vn 0.13044700000000001 -0.99083900000000003 -0.034951999999999997
vn 0.13044700000000001 -0.99083900000000003 -0.034951999999999997
vn 0.66963099999999998 0.32122600000000001 -0.66963300000000003
vn 0.66963099999999998 0.32122600000000001 -0.66963300000000003
vn 0.24510399999999999 0.32122499999999998 -0.91473400000000005
vn 0.24510399999999999 0.32122499999999998 -0.91473400000000005
vn -0.24510299999999999 0.32122499999999998 -0.91473400000000005
vn -0.24510299999999999 0.32122499999999998 -0.91473400000000005
vn -0.66963200000000001 0.32122499999999998 -0.66963300000000003
vn -0.66963099999999998 0.32122499999999998 -0.66963300000000003
vn -0.91473499999999996 0.32122499999999998 -0.24510199999999999
vn -0.91473499999999996 0.32122499999999998 -0.24510199999999999
vn -0.91473499999999996 0.32122499999999998 0.24510199999999999
vn -0.91473499999999996 0.32122499999999998 0.24510199999999999
vn -0.66963099999999998 0.32122499999999998 0.66963300000000003
vn -0.66963099999999998 0.32122499999999998 0.66963300000000003
vn -0.24510299999999999 0.32122499999999998 0.91473400000000005
vn -0.24510299999999999 0.32122499999999998 0.91473400000000005
vn 0.24510399999999999 0.32122499999999998 0.91473400000000005
vn 0.24510399999999999 0.32122499999999998 0.91473400000000005
vn 0.66963099999999998 0.32122600000000001 0.66963300000000003
vn 0.66963099999999998 0.32122600000000001 0.66963300000000003
vn 0.91473400000000005 0.32122600000000001 0.24510299999999999
vn 0.91473400000000005 0.32122600000000001 0.24510299999999999
vn 0.91473400000000005 0.32122600000000001 -0.24510299999999999
vn 0.91473400000000005 0.32122600000000001 -0.24510299999999999
vn 0.66533900000000001 0.33859499999999998 -0.66534000000000004
vn 0.66533900000000001 0.33859499999999998 -0.66534000000000004
vn 0.243533 0.33859499999999998 -0.90886999999999996
vn 0.243533 0.33859499999999998 -0.90886999999999996
vn -0.243531 0.33859600000000001 -0.90886999999999996
vn -0.243531 0.33859499999999998 -0.90887099999999998
vn -0.66533900000000001 0.33859499999999998 -0.66534099999999996
vn -0.66533900000000001 0.33859499999999998 -0.66534099999999996
vn -0.90887099999999998 0.33859499999999998 -0.243531
vn -0.90887099999999998 0.33859499999999998 -0.243531
vn -0.90887099999999998 0.33859499999999998 0.243531
vn -0.90887099999999998 0.33859499999999998 0.243531
vn -0.66533799999999998 0.33859499999999998 0.66534099999999996
vn -0.66533900000000001 0.33859499999999998 0.66534099999999996
vn -0.243531 0.33859499999999998 0.90887099999999998
vn -0.243531 0.33859600000000001 0.90887099999999998
vn 0.243533 0.33859499999999998 0.90886999999999996
vn 0.243533 0.33859499999999998 0.90886999999999996
vn 0.66533900000000001 0.33859499999999998 0.66534000000000004
vn 0.66533900000000001 0.33859499999999998 0.66534000000000004
vn 0.90886999999999996 0.33859600000000001 0.243532
vn 0.90886999999999996 0.33859600000000001 0.243532
vn 0.90886999999999996 0.33859600000000001 -0.243532
vn 0.90886999999999996 0.33859600000000001 -0.243532
vn 0.49525999999999998 0.71374800000000005 -0.49525999999999998
vn 0.49525999999999998 0.71374800000000005 -0.495259
vn 0.181279 0.71374800000000005 -0.67653700000000005
vn 0.181279 0.71374800000000005 -0.67653700000000005
vn -0.18127699999999999 0.71374700000000002 -0.67653799999999997
vn -0.18127699999999999 0.71374700000000002 -0.67653799999999997
vn -0.49525999999999998 0.71374599999999999 -0.49526100000000001
vn -0.49525999999999998 0.71374599999999999 -0.49526100000000001
vn -0.67653799999999997 0.71374599999999999 -0.181279
vn -0.67653799999999997 0.71374599999999999 -0.181279
vn -0.67653799999999997 0.71374599999999999 0.181279
vn -0.67653799999999997 0.71374599999999999 0.181279
vn -0.49525999999999998 0.71374599999999999 0.49526199999999998
vn -0.49525999999999998 0.71374599999999999 0.49526199999999998
vn -0.18127699999999999 0.71374700000000002 0.67653799999999997
vn -0.18127699999999999 0.71374700000000002 0.67653799999999997
vn 0.181279 0.71374800000000005 0.67653700000000005
vn 0.181279 0.71374800000000005 0.67653700000000005
vn 0.49525999999999998 0.71374800000000005 0.495259
vn 0.49525999999999998 0.71374800000000005 0.495259
vn 0.67653600000000003 0.71374899999999997 0.18127799999999999
vn 0.67653600000000003 0.71374899999999997 0.18127799999999999
vn 0.67653600000000003 0.71374899999999997 -0.18127799999999999
vn 0.67653600000000003 0.71374899999999997 -0.18127799999999999
vn 0 1 0
vn 0 1 0
vn 0 1 0
vn 0 1 0
vn 0 1 -5.0000000000000004e-006
vn 0 1 3.9999999999999998e-006
vn 0 1 -3.9999999999999998e-006
vn 0 1 0
vn 0 1 -1.9999999999999999e-006
vn 0 1 5.0000000000000004e-006
vn 0 1 1.9999999999999999e-006
vn 0 1 -0
vn 0 1 -0
vn -0.91330699999999998 -0.325544 0.244727
vn -0.91330699999999998 -0.325544 0.244727
vn -0.96592299999999998 0.0016260000000000001 0.25882500000000003
vn -0.96592299999999998 0.0016260000000000001 0.25882500000000003
vn -0.24471699999999999 -0.32554300000000003 0.91330999999999996
vn -0.24471699999999999 -0.32554300000000003 0.91330999999999996
vn -0.25881500000000002 0.0016260000000000001 0.96592599999999995
vn -0.25881500000000002 0.001627 0.96592599999999995
vn 0.244722 -0.32554100000000002 0.91330999999999996
vn 0.244722 -0.32554100000000002 0.91330999999999996
vn 0.25881900000000002 0.0016260000000000001 0.96592500000000003
vn 0.25881900000000002 0.0016260000000000001 0.96592500000000003
vn 0.244722 -0.32554100000000002 -0.91330900000000004
vn 0.244722 -0.32554100000000002 -0.91330999999999996
vn 0.25881900000000002 0.0016260000000000001 -0.965924
vn 0.25881900000000002 0.0016260000000000001 -0.965924
vn 0.66859000000000002 -0.325542 -0.66858700000000004
vn 0.66859000000000002 -0.325542 -0.66858700000000004
vn 0.70710799999999996 0.0016260000000000001 -0.70710399999999995
vn 0.70710799999999996 0.0016260000000000001 -0.70710399999999995
vn -0.24471699999999999 -0.325542 -0.91330999999999996
vn -0.24471699999999999 -0.325542 -0.91330999999999996
vn -0.25881500000000002 0.001627 -0.96592599999999995
vn -0.25881500000000002 0.0016260000000000001 -0.96592599999999995
vn -0.66859100000000005 -0.32554499999999997 0.66858600000000001
vn -0.66859100000000005 -0.32554499999999997 0.66858600000000001
vn -0.70710799999999996 0.0016260000000000001 0.70710300000000004
vn -0.70710799999999996 0.0016260000000000001 0.70710300000000004
vn 0.66859000000000002 -0.325542 0.66858799999999996
vn 0.66859000000000002 -0.325542 0.66858799999999996
vn 0.70710700000000004 0.0016260000000000001 0.70710399999999995
vn 0.70710700000000004 0.0016260000000000001 0.70710399999999995
vn 0.91331200000000001 -0.32553599999999999 -0.24471999999999999
vn 0.91331200000000001 -0.32553599999999999 -0.24471999999999999
vn 0.96592500000000003 0.0016260000000000001 -0.25881700000000002
vn 0.96592500000000003 0.0016260000000000001 -0.25881700000000002
vn -0.91330699999999998 -0.325544 -0.244727
vn -0.91330699999999998 -0.325544 -0.244727
vn -0.96592299999999998 0.001627 -0.25882500000000003
vn -0.96592299999999998 0.0016260000000000001 -0.25882500000000003
vn 0.91331200000000001 -0.32553599999999999 0.24471999999999999
vn 0.91331200000000001 -0.32553599999999999 0.24471999999999999
vn 0.96592500000000003 0.0016260000000000001 0.25881700000000002
vn 0.96592500000000003 0.0016260000000000001 0.25881700000000002
vn -0.66859000000000002 -0.32554499999999997 -0.66858600000000001
vn -0.66859000000000002 -0.32554499999999997 -0.66858600000000001
vn -0.70710799999999996 0.0016260000000000001 -0.70710399999999995
vn -0.70710799999999996 0.0016260000000000001 -0.70710300000000004
vn -0.95514299999999996 0.14899599999999999 0.25593500000000002
vn -0.95514200000000005 0.14899699999999999 0.25593500000000002
vn -0.25592599999999999 0.14899499999999999 0.95514500000000002
vn -0.25592599999999999 0.14899599999999999 0.95514500000000002
vn 0.25592999999999999 0.14899499999999999 0.95514399999999999
vn 0.25592999999999999 0.14899399999999999 0.95514399999999999
vn 0.25592999999999999 0.14899499999999999 -0.95514399999999999
vn 0.25592999999999999 0.14899499999999999 -0.95514399999999999
vn 0.69921599999999995 0.14899599999999999 -0.69921199999999994
vn 0.69921599999999995 0.14899599999999999 -0.69921199999999994
vn -0.25592599999999999 0.14899599999999999 -0.95514500000000002
vn -0.25592599999999999 0.14899499999999999 -0.95514500000000002
vn -0.69921599999999995 0.14899599999999999 0.69921199999999994
vn -0.69921599999999995 0.14899699999999999 0.69921199999999994
vn 0.69921599999999995 0.14899599999999999 0.69921199999999994
vn 0.69921599999999995 0.14899599999999999 0.69921199999999994
vn 0.95514399999999999 0.14899299999999999 -0.25592999999999999
vn 0.95514500000000002 0.14899299999999999 -0.25592999999999999
vn -0.95514200000000005 0.14899699999999999 -0.25593500000000002
vn -0.95514200000000005 0.14899699999999999 -0.25593500000000002
vn 0.95514399999999999 0.14899299999999999 0.25592999999999999
vn 0.95514399999999999 0.14899299999999999 0.25592999999999999
vn -0.69921599999999995 0.14899699999999999 -0.69921199999999994
vn -0.69921599999999995 0.14899699999999999 -0.69921199999999994
vn -0.89380000000000004 0.37916100000000003 0.23949699999999999
vn -0.89380000000000004 0.37916100000000003 0.23949699999999999
vn -0.23949000000000001 0.37916100000000003 0.89380199999999999
vn -0.23949000000000001 0.37916 0.89380199999999999
vn 0.23949400000000001 0.37916100000000003 0.89380099999999996
vn 0.23949400000000001 0.37916100000000003 0.89380099999999996
vn 0.23949400000000001 0.37916100000000003 -0.89380099999999996
vn 0.23949400000000001 0.37916100000000003 -0.89380099999999996
vn 0.65430999999999995 0.37916100000000003 -0.65430500000000003
vn 0.65430999999999995 0.37916100000000003 -0.65430500000000003
vn -0.23949000000000001 0.37916100000000003 -0.89380199999999999
vn -0.23949000000000001 0.37916100000000003 -0.89380199999999999
vn -0.654308 0.37916100000000003 0.65430699999999997
vn -0.654308 0.37916100000000003 0.65430699999999997
vn 0.65430999999999995 0.379162 0.65430500000000003
vn 0.65430999999999995 0.37916100000000003 0.65430500000000003
vn 0.89380000000000004 0.379162 -0.23949400000000001
vn 0.89380000000000004 0.379162 -0.23949400000000001
vn -0.89380000000000004 0.37916 -0.23949699999999999
vn -0.89380000000000004 0.37916100000000003 -0.23949699999999999
vn 0.89380000000000004 0.37916299999999997 0.23949300000000001
vn 0.89380000000000004 0.37916299999999997 0.23949300000000001
vn -0.654308 0.37916100000000003 -0.65430699999999997
vn -0.654308 0.37916100000000003 -0.65430699999999997
vn -0.72776200000000002 0.65752100000000002 0.19500700000000001
vn -0.72776200000000002 0.65752100000000002 0.19500700000000001
vn -0.19500100000000001 0.65752200000000005 0.72776300000000005
vn -0.19500100000000001 0.65752200000000005 0.72776300000000005
vn 0.19500400000000001 0.65752200000000005 0.72776200000000002
vn 0.19500400000000001 0.65752200000000005 0.72776300000000005
vn 0.19500400000000001 0.65752200000000005 -0.72776300000000005
vn 0.19500400000000001 0.65752200000000005 -0.72776300000000005
vn 0.53276100000000004 0.65752100000000002 -0.53275799999999995
vn 0.53276100000000004 0.65752100000000002 -0.53275799999999995
vn -0.19500100000000001 0.65752299999999997 -0.72776300000000005
vn -0.19500100000000001 0.65752299999999997 -0.72776300000000005
vn -0.53276000000000001 0.65752200000000005 0.53275899999999998
vn -0.53276000000000001 0.65752200000000005 0.53275899999999998
vn 0.53276100000000004 0.65752100000000002 0.53275799999999995
vn 0.53276100000000004 0.65752100000000002 0.53275799999999995
vn 0.72776200000000002 0.65752299999999997 -0.19500300000000001
vn 0.72776200000000002 0.65752299999999997 -0.19500300000000001
vn -0.72776200000000002 0.65752100000000002 -0.19500700000000001
vn -0.72776200000000002 0.65752100000000002 -0.19500700000000001
vn 0.72776200000000002 0.65752299999999997 0.19500200000000001
vn 0.72776200000000002 0.65752299999999997 0.19500200000000001
vn -0.53276000000000001 0.65752100000000002 -0.53275899999999998
vn -0.53276000000000001 0.65752100000000002 -0.53275899999999998
vn -0.25172099999999997 0.96544600000000003 0.067449999999999996
vn -0.25172099999999997 0.96544600000000003 0.067449999999999996
vn -0.25172099999999997 0.96544600000000003 0.067449999999999996
vn -0.25172099999999997 0.96544600000000003 0.067449999999999996
vn -0.067447999999999994 0.96544600000000003 0.25172299999999997
vn -0.067447999999999994 0.96544600000000003 0.25172299999999997
vn -0.067447999999999994 0.96544600000000003 0.25172299999999997
vn -0.067447999999999994 0.96544600000000003 0.25172299999999997
vn 0.067448999999999995 0.96544600000000003 0.25172099999999997
vn 0.067448999999999995 0.96544600000000003 0.25172099999999997
vn 0.067448999999999995 0.96544600000000003 0.25172099999999997
vn 0.067448999999999995 0.96544600000000003 0.25172099999999997
vn 0.067448999999999995 0.96544700000000006 -0.25172099999999997
vn 0.067448999999999995 0.96544700000000006 -0.25172099999999997
vn 0.067448999999999995 0.96544700000000006 -0.25172099999999997
vn 0.067448999999999995 0.96544700000000006 -0.25172099999999997
vn 0.18427299999999999 0.96544700000000006 -0.18427099999999999
vn 0.18427299999999999 0.96544700000000006 -0.18427099999999999
vn 0.18427299999999999 0.96544700000000006 -0.18427099999999999
vn 0.18427299999999999 0.96544700000000006 -0.18427099999999999
vn -0.067447999999999994 0.96544700000000006 -0.251722
vn -0.067447999999999994 0.96544600000000003 -0.251722
vn -0.067447999999999994 0.96544700000000006 -0.251722
vn -0.067447999999999994 0.96544600000000003 -0.251722
vn -0.18427299999999999 0.96544600000000003 0.18427299999999999
vn -0.18427299999999999 0.96544600000000003 0.18427299999999999
vn -0.18427299999999999 0.96544600000000003 0.18427299999999999
vn -0.18427299999999999 0.96544600000000003 0.18427299999999999
vn 0.18427299999999999 0.96544700000000006 0.18426999999999999
vn 0.18427299999999999 0.96544700000000006 0.18426999999999999
vn 0.18427299999999999 0.96544700000000006 0.18426999999999999
vn 0.18427299999999999 0.96544700000000006 0.18426999999999999
vn 0.25172099999999997 0.96544700000000006 -0.067447999999999994
vn 0.25172099999999997 0.96544700000000006 -0.067447999999999994
vn 0.25172099999999997 0.96544700000000006 -0.067447999999999994
vn 0.25172099999999997 0.96544700000000006 -0.067447999999999994
vn -0.25172099999999997 0.96544600000000003 -0.067449999999999996
vn -0.25172099999999997 0.96544600000000003 -0.067449999999999996
vn -0.25172099999999997 0.96544600000000003 -0.067449999999999996
vn -0.25172099999999997 0.96544600000000003 -0.067449999999999996
vn 0.25172099999999997 0.96544700000000006 0.067447999999999994
vn 0.25172099999999997 0.96544700000000006 0.067447999999999994
vn 0.25172099999999997 0.96544700000000006 0.067447999999999994
vn 0.25172099999999997 0.96544700000000006 0.067447999999999994
vn -0.18427299999999999 0.96544700000000006 -0.18427199999999999
vn -0.18427299999999999 0.96544700000000006 -0.18427199999999999
vn -0.18427299999999999 0.96544700000000006 -0.18427199999999999
vn -0.18427299999999999 0.96544700000000006 -0.18427199999999999
#end 577 normals 

#begin 192 faces
usemtl initialShadingGroup
g pSphere1
s off
f 1/1/1 2/2/2 14/14/3 13/13/4 
f 2/2/5 3/3/6 15/15/7 14/14/8 
f 3/183/9 4/4/10 16/16/11 15/187/12 
f 4/4/13 5/5/14 17/17/15 16/16/16 
f 5/5/17 6/6/18 18/18/19 17/17/20 
f 6/238/21 7/7/22 19/19/23 18/243/24 
f 7/7/25 8/8/26 20/20/27 19/19/28 
f 8/8/29 9/9/30 21/21/31 20/20/32 
f 9/189/33 10/10/34 22/22/35 21/191/36 
f 10/10/37 11/11/38 23/23/39 22/22/40 
f 11/11/41 12/12/42 24/24/43 23/23/44 
f 12/247/45 1/1/46 13/13/47 24/249/48 
f 13/13/49 14/14/50 26/173/51 25/26/52 
f 14/14/53 15/15/54 27/27/55 26/173/56 
f 15/187/57 16/16/58 28/246/59 27/170/60 
f 16/16/61 17/17/62 29/35/63 28/246/64 
f 17/17/65 18/18/66 30/30/67 29/35/68 
f 18/243/69 19/19/70 31/190/71 30/248/72 
f 19/19/73 20/20/74 32/34/75 31/190/76 
f 20/20/77 21/21/78 33/33/79 32/34/80 
f 21/191/81 22/22/82 34/32/83 33/240/84 
f 22/22/85 23/23/86 35/31/87 34/32/88 
f 23/23/89 24/24/90 36/36/91 35/31/92 
f 24/249/93 13/13/94 25/26/95 36/171/96 
f 25/26/97 26/173/98 38/38/99 37/37/100 
f 26/173/101 27/27/102 39/39/103 38/38/104 
f 27/170/105 28/246/106 40/40/107 39/188/108 
f 28/246/109 29/35/110 41/41/111 40/40/112 
f 29/35/113 30/30/114 42/42/115 41/41/116 
f 30/248/117 31/190/118 43/43/119 42/245/120 
f 31/190/121 32/34/122 44/44/123 43/43/124 
f 32/34/125 33/33/126 45/45/127 44/44/128 
f 33/240/129 34/32/130 46/46/131 45/193/132 
f 34/32/133 35/31/134 47/47/135 46/46/136 
f 35/31/137 36/36/138 48/48/139 47/47/140 
f 36/171/141 25/26/142 37/37/143 48/250/144 
f 37/37/145 38/38/146 50/50/147 49/49/148 
f 38/38/149 39/39/150 51/51/151 50/50/152 
f 39/188/153 40/40/154 52/52/155 51/185/156 
f 40/40/157 41/41/158 53/53/159 52/52/160 
f 41/41/161 42/42/162 54/54/163 53/53/164 
f 42/245/165 43/43/166 55/55/167 54/242/168 
f 43/43/169 44/44/170 56/56/171 55/55/172 
f 44/44/173 45/45/174 57/57/175 56/56/176 
f 45/193/177 46/46/178 58/58/179 57/194/180 
f 46/46/181 47/47/182 59/59/183 58/58/184 
f 47/47/185 48/48/186 60/60/187 59/59/188 
f 48/250/189 37/37/190 49/49/191 60/251/192 
f 49/49/193 50/50/194 62/62/195 61/61/196 
f 50/50/197 51/51/198 63/63/199 62/62/200 
f 51/185/201 52/52/202 64/64/203 63/196/204 
f 52/52/205 53/53/206 65/65/207 64/64/208 
f 53/53/209 54/54/210 66/66/211 65/65/212 
f 54/242/213 55/55/214 67/67/215 66/252/216 
f 55/55/217 56/56/218 68/68/219 67/67/220 
f 56/56/221 57/57/222 69/69/223 68/68/224 
f 57/194/225 58/58/226 70/70/227 69/197/228 
f 58/58/229 59/59/230 71/71/231 70/70/232 
f 59/59/233 60/60/234 72/72/235 71/71/236 
f 60/251/237 49/49/238 61/61/239 72/253/240 
s 1
f 61/61/241 62/62/242 74/74/243 73/73/244 
s 2
f 62/62/245 63/63/246 75/75/247 74/74/248 
s 3
f 63/196/249 64/64/250 76/76/251 75/198/252 
s 4
f 64/64/253 65/65/254 77/77/255 76/76/256 
s 5
f 65/65/257 66/66/258 78/78/259 77/77/260 
s 6
f 66/252/261 67/67/262 79/79/263 78/254/264 
s 7
f 67/67/265 68/68/266 80/80/267 79/79/268 
s 8
f 68/68/269 69/69/270 81/81/271 80/80/272 
s 9
f 69/197/273 70/70/274 82/82/275 81/199/276 
s 10
f 70/70/277 71/71/278 83/83/279 82/82/280 
s 11
f 71/71/281 72/72/282 84/84/283 83/83/284 
s 12
f 72/253/285 61/61/286 73/73/287 84/255/288 
s off
f 2/2/289 1/1/290 85/85/291 
f 3/3/292 2/2/293 85/85/294 
f 4/4/295 3/183/296 85/256/297 
f 5/5/298 4/4/299 85/256/300 
f 6/6/301 5/5/302 85/256/303 
f 7/7/304 6/238/305 85/192/306 
f 8/8/307 7/7/308 85/192/309 
f 9/9/310 8/8/311 85/192/312 
f 10/10/313 9/189/314 85/257/315 
f 11/11/316 10/10/317 85/257/318 
f 12/12/319 11/11/320 85/257/321 
f 1/1/322 12/247/323 85/85/324 
s 1
f 73/73/244 74/74/243 87/87/325 86/86/326 
s 2
f 74/74/248 75/75/247 88/88/327 87/87/328 
s 3
f 75/198/252 76/76/251 89/89/329 88/200/330 
s 4
f 76/76/256 77/77/255 90/90/331 89/89/332 
s 5
f 77/77/260 78/78/259 91/91/333 90/90/334 
s 6
f 78/254/264 79/79/263 92/92/335 91/258/336 
s 7
f 79/79/268 80/80/267 93/93/337 92/92/338 
s 8
f 80/80/272 81/81/271 94/94/339 93/93/340 
s 9
f 81/199/276 82/82/275 95/95/341 94/201/342 
s 10
f 82/82/280 83/83/279 96/96/343 95/95/344 
s 11
f 83/83/284 84/84/283 97/97/345 96/96/346 
s 12
f 84/255/288 73/73/287 86/86/347 97/259/348 
s 1
f 86/86/326 87/87/325 99/99/349 98/98/350 
s 2
f 87/87/328 88/88/327 100/100/351 99/99/352 
s 3
f 88/200/330 89/89/329 101/101/353 100/202/354 
s 4
f 89/89/332 90/90/331 102/102/355 101/101/356 
s 5
f 90/90/334 91/91/333 103/103/357 102/102/358 
s 6
f 91/258/336 92/92/335 104/104/359 103/260/360 
s 7
f 92/92/338 93/93/337 105/105/361 104/104/362 
s 8
f 93/93/340 94/94/339 106/106/363 105/105/364 
s 9
f 94/201/342 95/95/341 107/107/365 106/203/366 
s 10
f 95/95/344 96/96/343 108/108/367 107/107/368 
s 11
f 96/96/346 97/97/345 109/109/369 108/108/370 
s 12
f 97/259/348 86/86/347 98/98/371 109/261/372 
s 1
f 98/98/350 99/99/349 111/111/373 110/110/374 
s 2
f 99/99/352 100/100/351 112/112/375 111/111/376 
s 3
f 100/202/354 101/101/353 113/113/377 112/206/378 
s 4
f 101/101/356 102/102/355 114/114/379 113/113/380 
s 5
f 102/102/358 103/103/357 115/115/381 114/114/382 
s 6
f 103/260/360 104/104/359 116/116/383 115/262/384 
s 7
f 104/104/362 105/105/361 117/117/385 116/116/386 
s 8
f 105/105/364 106/106/363 118/118/387 117/117/388 
s 9
f 106/203/366 107/107/365 119/119/389 118/212/390 
s 10
f 107/107/368 108/108/367 120/120/391 119/119/392 
s 11
f 108/108/370 109/109/369 121/121/393 120/120/394 
s 12
f 109/261/372 98/98/371 110/110/395 121/263/396 
s 13
f 170/25/397 171/264/398 172/172/399 
f 173/29/400 170/25/397 174/174/401 
f 175/175/402 170/25/397 173/29/400 
f 176/176/403 177/28/404 170/25/397 
f 176/176/403 170/25/397 178/178/405 
f 170/25/397 177/28/404 179/179/406 
f 170/25/397 172/172/399 174/174/401 
f 180/180/407 170/25/397 175/175/402 
f 178/178/405 170/25/397 181/181/408 
f 170/25/397 182/182/409 171/264/398 
f 181/181/408 170/25/397 180/180/407 
f 170/25/397 179/179/406 182/182/409 
s 16
f 115/186/410 116/210/411 123/123/412 122/122/413 
s 17
f 117/211/414 118/228/415 124/124/416 125/125/417 
s 18
f 118/213/418 119/214/419 126/126/420 124/229/421 
s 19
f 111/204/422 112/232/423 128/128/424 127/127/425 
s 20
f 110/205/426 111/204/427 127/127/428 129/129/429 
s 21
f 112/207/430 113/208/431 130/130/432 128/233/433 
s 22
f 116/210/434 117/211/435 125/125/436 123/123/437 
s 23
f 119/214/438 120/215/439 131/131/440 126/126/441 
s 24
f 121/195/442 110/205/443 129/129/444 132/132/445 
s 25
f 114/209/446 115/267/447 122/266/448 133/133/449 
s 26
f 120/215/450 121/269/451 132/268/452 131/131/453 
s 27
f 113/208/454 114/209/455 133/133/456 130/130/457 
s 16
f 122/122/413 123/123/412 135/135/458 134/134/459 
s 17
f 125/125/417 124/124/416 136/136/460 137/137/461 
s 18
f 124/229/421 126/126/420 138/138/462 136/234/463 
s 19
f 127/127/425 128/128/424 140/140/464 139/139/465 
s 20
f 129/129/429 127/127/428 139/139/466 141/141/467 
s 21
f 128/233/433 130/130/432 142/142/468 140/230/469 
s 22
f 123/123/437 125/125/436 137/137/470 135/135/471 
s 23
f 126/126/441 131/131/440 143/143/472 138/138/473 
s 24
f 132/132/445 129/129/444 141/141/474 144/144/475 
s 25
f 133/133/449 122/266/448 134/239/476 145/145/477 
s 26
f 131/131/453 132/268/452 144/265/478 143/143/479 
s 27
f 130/130/457 133/133/456 145/145/480 142/142/481 
s 16
f 134/134/459 135/135/458 147/147/482 146/146/483 
s 17
f 137/137/461 136/136/460 148/148/484 149/149/485 
s 18
f 136/234/463 138/138/462 150/150/486 148/231/487 
s 19
f 139/139/465 140/140/464 152/152/488 151/151/489 
s 20
f 141/141/467 139/139/466 151/151/490 153/153/491 
s 21
f 140/230/469 142/142/468 154/154/492 152/235/493 
s 22
f 135/135/471 137/137/470 149/149/494 147/147/495 
s 23
f 138/138/473 143/143/472 155/155/496 150/150/497 
s 24
f 144/144/475 141/141/474 153/153/498 156/156/499 
s 25
f 145/145/477 134/239/476 146/244/500 157/157/501 
s 26
f 143/143/479 144/265/478 156/184/502 155/155/503 
s 27
f 142/142/481 145/145/480 157/157/504 154/154/505 
s 16
f 146/146/483 147/147/482 159/159/506 158/241/507 
s 17
f 149/149/485 148/148/484 160/160/508 161/161/509 
s 18
f 148/231/487 150/150/486 162/162/510 160/236/511 
s 19
f 151/151/489 152/152/488 164/164/512 163/163/513 
s 20
f 153/153/491 151/151/490 163/163/514 165/165/515 
s 21
f 152/235/493 154/154/492 166/166/516 164/237/517 
s 22
f 147/147/495 149/149/494 161/161/518 159/159/519 
s 23
f 150/150/497 155/155/496 167/167/520 162/162/521 
s 24
f 156/156/499 153/153/498 165/165/522 168/177/523 
s 25
f 157/157/501 146/244/500 158/158/524 169/169/525 
s 26
f 155/155/503 156/184/502 168/168/526 167/167/527 
s 27
f 154/154/505 157/157/504 169/169/528 166/166/529 
s off
f 158/217/530 159/216/531 172/172/532 171/264/533 
f 161/220/534 160/219/535 173/29/536 174/174/537 
f 160/219/538 162/221/539 175/175/540 173/29/541 
f 163/223/542 164/222/543 177/28/544 176/176/545 
f 165/224/546 163/223/547 176/176/548 178/178/549 
f 164/222/550 166/218/551 179/179/552 177/28/553 
f 159/216/554 161/220/555 174/174/556 172/172/557 
f 162/221/558 167/225/559 180/180/560 175/175/561 
f 168/226/562 165/224/563 178/178/564 181/181/565 
f 169/227/566 158/217/567 171/264/568 182/182/569 
f 167/225/570 168/226/571 181/181/572 180/180/573 
f 166/218/574 169/227/575 182/182/576 179/179/577 
#end 192 faces
#begin 1 properties
#U3D SYM 0 0 0 1 0 0 0.0001 0
#end 1 properties
