# This file uses centimeters as units for non-parametric coordinates.

mtllib candle.mtl
g default
v 12.980395 6.357870 2.777844
v 13.016760 6.375315 2.751424
v 12.994286 6.374334 2.735095
v 12.966506 6.379373 2.735095
v 12.944032 6.384722 2.751423
v 12.935448 6.382939 2.777843
v 12.944032 6.376926 2.804264
v 12.966506 6.369878 2.820592
v 12.994285 6.366590 2.820592
v 13.016759 6.369878 2.804264
v 13.025344 6.375563 2.777843
v 13.030446 6.396798 2.741480
v 12.999513 6.392676 2.719006
v 12.961278 6.397281 2.719005
v 12.930346 6.404856 2.741479
v 12.918530 6.405139 2.777843
v 12.930345 6.402543 2.814207
v 12.961278 6.399845 2.836681
v 12.999513 6.394904 2.836681
v 13.030446 6.402078 2.814208
v 13.042261 6.401995 2.777843
v 13.039233 6.424590 2.735095
v 13.002870 6.429160 2.708676
v 12.957921 6.424590 2.708675
v 12.921557 6.426657 2.735096
v 12.907667 6.426657 2.777843
v 12.921557 6.429742 2.820592
v 12.957921 6.438170 2.847012
v 13.002870 6.437328 2.847012
v 13.039233 6.449664 2.820592
v 13.053123 6.432822 2.777843
v 13.042261 6.458918 2.732895
v 13.004026 6.474398 2.705116
v 12.956764 6.458686 2.705116
v 12.918530 6.450288 2.732895
v 12.903925 6.450288 2.777843
v 12.918530 6.459280 2.822792
v 12.956765 6.474375 2.850571
v 13.003901 6.480144 2.850476
v 13.037993 6.502851 2.819520
v 13.056866 6.471710 2.777843
v 13.039233 6.490644 2.735095
v 13.002870 6.506758 2.708676
v 12.957921 6.487928 2.708675
v 12.921557 6.473918 2.735096
v 12.907667 6.473918 2.777843
v 12.921557 6.486727 2.820592
v 12.957921 6.508195 2.847012
v 13.000822 6.511109 2.845443
v 13.027773 6.546062 2.811982
v 13.051132 6.510283 2.776318
v 13.030446 6.518900 2.741480
v 12.999513 6.532355 2.719006
v 12.961278 6.520534 2.719005
v 12.930346 6.504338 2.741479
v 12.918530 6.501779 2.777843
v 12.930345 6.515927 2.814207
v 12.961259 6.535860 2.836667
v 12.996116 6.533064 2.834077
v 13.038846 6.533917 2.775225
v 13.016671 6.564136 2.751357
v 12.994286 6.570908 2.735095
v 12.966506 6.577003 2.735095
v 12.944032 6.571377 2.751423
v 12.935448 6.566633 2.777843
v 12.944032 6.571031 2.804264
v 12.966506 6.575749 2.820592
v 12.992382 6.570749 2.819132
v 13.012512 6.564894 2.801007
v 13.022937 6.563130 2.775998
v 12.966740 6.659772 2.779739
v 13.024694 5.377356 2.893209
v 13.087184 5.377356 2.847807
v 13.111053 5.377356 2.774347
v 13.087183 5.377356 2.700886
v 13.024694 5.377356 2.655484
v 12.947453 5.377356 2.655484
v 12.884962 5.377356 2.700885
v 12.861093 5.377356 2.774347
v 12.884962 5.377356 2.847808
v 12.947452 5.377356 2.893209
v 13.024694 6.234026 2.893209
v 13.087184 6.203655 2.847807
v 13.111053 6.207879 2.774347
v 13.087183 6.238748 2.700886
v 13.024694 6.238748 2.655484
v 12.947453 6.238748 2.655484
v 12.884962 6.247570 2.700885
v 12.861093 6.290091 2.774347
v 12.884962 6.284150 2.847808
v 12.947452 6.243614 2.893209
v 13.012465 6.224154 2.855569
v 13.055165 6.179909 2.824545
v 13.071476 6.181385 2.774346
v 13.055165 6.227288 2.724148
v 13.012465 6.234955 2.693124
v 12.959682 6.236171 2.693124
v 12.916981 6.262695 2.724148
v 12.900670 6.322812 2.774346
v 12.916981 6.315275 2.824545
v 12.959682 6.254496 2.855569
v 13.001468 6.193045 2.821727
v 12.986073 6.168437 2.774346
v 13.026377 6.172340 2.803629
v 13.035892 6.172351 2.774346
v 13.026377 6.193344 2.745064
v 13.001468 6.201537 2.726967
v 12.970678 6.201537 2.726967
v 12.945768 6.227309 2.745064
v 12.936255 6.292875 2.774346
v 12.945768 6.287506 2.803629
v 12.970678 6.224258 2.821727
v 12.986073 6.152698 2.774346
v 12.984719 6.369359 2.776972
v 12.961739 6.261029 2.772686
v 12.976411 6.261029 2.781191
v 12.961739 6.261029 2.789697
v 12.970823 6.315194 2.773753
v 12.985248 6.315194 2.782307
v 12.970823 6.315194 2.790765
v 12.973957 6.206863 2.767562
v 12.988381 6.206863 2.776117
v 12.973957 6.206863 2.784575
v 13.231879 4.908507 2.595757
v 13.079963 4.908507 2.485384
v 12.892183 4.908507 2.485384
v 12.740267 4.908507 2.595757
v 12.682240 4.908507 2.774346
v 12.740267 4.908507 2.952935
v 12.892183 4.908507 3.063308
v 13.079963 4.908507 3.063308
v 13.231878 4.908507 2.952935
v 13.289906 4.908507 2.774346
v 13.231879 4.939432 2.595757
v 13.079963 4.939432 2.485384
v 12.892183 4.939432 2.485384
v 12.740267 4.939432 2.595757
v 12.682240 4.939432 2.774346
v 12.740267 4.939432 2.952935
v 12.892183 4.939432 3.063308
v 13.079963 4.939432 3.063308
v 13.231878 4.939432 2.952935
v 13.289906 4.939432 2.774346
v 13.173431 4.973874 2.638222
v 13.057637 4.973874 2.554092
v 12.914508 4.973874 2.554092
v 12.798714 4.973874 2.638222
v 12.754485 4.973874 2.774346
v 12.798714 4.973874 2.910470
v 12.914508 4.973874 2.994600
v 13.057637 4.973874 2.994600
v 13.173431 4.973874 2.910470
v 13.217661 4.973874 2.774346
v 13.173431 4.991306 2.638222
v 13.057637 4.991306 2.554092
v 12.914508 4.991306 2.554092
v 12.798714 4.991306 2.638222
v 12.754485 4.991306 2.774346
v 12.798714 4.991306 2.910470
v 12.914508 4.991306 2.994600
v 13.057637 4.991306 2.994600
v 13.173431 4.991306 2.910470
v 13.217661 4.991306 2.774346
v 13.154696 4.987180 2.651834
v 13.050481 4.987180 2.576118
v 12.921665 4.987180 2.576118
v 12.817450 4.987180 2.651834
v 12.777643 4.987180 2.774346
v 12.817450 4.987180 2.896858
v 12.921665 4.987180 2.972574
v 13.050481 4.987180 2.972574
v 13.154696 4.987180 2.896858
v 13.194502 4.987180 2.774346
v 13.098488 5.016084 2.692671
v 13.029012 5.016084 2.642194
v 12.943134 5.016084 2.642194
v 12.873657 5.016084 2.692672
v 12.847120 5.016084 2.774346
v 12.873657 5.016084 2.856021
v 12.943134 5.016084 2.906498
v 13.029012 5.016084 2.906498
v 13.098488 5.016084 2.856021
v 13.125026 5.016084 2.774346
v 13.098488 5.029842 2.692671
v 13.029012 5.029842 2.642194
v 12.943134 5.029842 2.642194
v 12.873657 5.029842 2.692672
v 12.847120 5.029842 2.774346
v 12.873657 5.029842 2.856021
v 12.943134 5.029842 2.906498
v 13.029012 5.029842 2.906498
v 13.098488 5.029842 2.856021
v 13.125026 5.029842 2.774346
v 13.083500 5.029842 2.703561
v 13.023287 5.029842 2.659814
v 12.948859 5.029842 2.659814
v 12.888646 5.029842 2.703562
v 12.865647 5.029842 2.774346
v 12.888646 5.029842 2.845131
v 12.948859 5.029842 2.888878
v 13.023287 5.029842 2.888878
v 13.083500 5.029842 2.845131
v 13.106499 5.029842 2.774346
v 13.083500 5.119292 2.703561
v 13.023287 5.119292 2.659814
v 12.948859 5.119292 2.659814
v 12.888646 5.119292 2.703562
v 12.865647 5.119292 2.774346
v 12.888646 5.119292 2.845131
v 12.948859 5.119292 2.888878
v 13.023287 5.119292 2.888878
v 13.083500 5.119292 2.845131
v 13.106499 5.119292 2.774346
v 13.069665 5.162237 2.713613
v 13.018003 5.162237 2.676078
v 12.954144 5.162237 2.676078
v 12.902481 5.162237 2.713613
v 12.882748 5.162237 2.774346
v 12.902481 5.162237 2.835079
v 12.954144 5.162237 2.872614
v 13.018003 5.162237 2.872614
v 13.069665 5.162237 2.835079
v 13.089398 5.162237 2.774346
v 13.047071 5.196466 2.730028
v 13.009373 5.196466 2.702637
v 12.962773 5.196466 2.702637
v 12.925074 5.196466 2.730028
v 12.910674 5.196466 2.774346
v 12.925074 5.196466 2.818665
v 12.962773 5.196466 2.846055
v 13.009373 5.196466 2.846055
v 13.047071 5.196466 2.818665
v 13.061472 5.196466 2.774346
v 13.047071 5.258814 2.730028
v 13.009373 5.258814 2.702637
v 12.962773 5.258814 2.702637
v 12.925074 5.258814 2.730028
v 12.910674 5.258814 2.774346
v 12.925074 5.258814 2.818665
v 12.962773 5.258814 2.846055
v 13.009373 5.258814 2.846055
v 13.047071 5.258814 2.818665
v 13.061472 5.258814 2.774346
v 13.091754 5.298025 2.697564
v 13.026440 5.298025 2.650111
v 12.945706 5.298025 2.650111
v 12.880392 5.298025 2.697565
v 12.855444 5.298025 2.774346
v 12.880392 5.298025 2.851128
v 12.945706 5.298025 2.898581
v 13.026440 5.298025 2.898581
v 13.091753 5.298025 2.851128
v 13.116701 5.298025 2.774346
v 13.235044 5.359605 2.593458
v 13.081171 5.359605 2.481663
v 12.890974 5.359605 2.481663
v 12.737102 5.359605 2.593459
v 12.678328 5.359605 2.774346
v 12.737103 5.359605 2.955235
v 12.890974 5.359605 3.067028
v 13.081171 5.359605 3.067028
v 13.235044 5.359605 2.955235
v 13.293818 5.359605 2.774346
v 13.235044 5.393305 2.593458
v 13.081171 5.393305 2.481663
v 12.890974 5.393305 2.481663
v 12.737102 5.393305 2.593459
v 12.678328 5.393305 2.774346
v 12.737103 5.393305 2.955235
v 12.890974 5.393305 3.067028
v 13.081171 5.393305 3.067028
v 13.235044 5.393305 2.955235
v 13.293818 5.393305 2.774346
v 13.172801 5.377356 2.638680
v 12.986073 5.377357 2.774346
v 13.057397 5.377356 2.554834
v 12.914749 5.377356 2.554834
v 12.799345 5.377356 2.638680
v 12.755264 5.377356 2.774346
v 12.799345 5.377356 2.910012
v 12.914749 5.377356 2.993857
v 13.057397 5.377356 2.993857
v 13.172801 5.377356 2.910012
v 13.216882 5.377356 2.774346
vt 0.225617 0.763709
vt 0.233966 0.765506
vt 0.233966 0.773860
vt 0.222474 0.773886
vt 0.246254 0.765952
vt 0.245838 0.771433
vt 0.233966 0.783603
vt 0.220456 0.788926
vt 0.203549 0.765102
vt 0.204117 0.773475
vt 0.247477 0.781001
vt 0.233966 0.795893
vt 0.220795 0.805735
vt 0.206461 0.786388
vt 0.258214 0.773909
vt 0.257462 0.782683
vt 0.248172 0.791850
vt 0.234449 0.808085
vt 0.224678 0.818153
vt 0.209566 0.799612
vt 0.255214 0.796678
vt 0.247477 0.801877
vt 0.234794 0.815554
vt 0.212419 0.809488
vt 0.252944 0.806805
vt 0.245459 0.810808
vt 0.234550 0.824786
vt 0.225618 0.825252
vt 0.250335 0.814957
vt 0.242338 0.825104
vt 0.241163 0.858533
vt 0.246347 0.827246
vt 0.220156 0.828715
vt 0.286639 0.790853
vt 0.295239 0.798042
vt 0.291024 0.803164
vt 0.280850 0.794791
vt 0.292950 0.788009
vt 0.299587 0.792759
vt 0.304402 0.804547
vt 0.300595 0.812272
vt 0.286396 0.808789
vt 0.275698 0.799985
vt 0.274961 0.777634
vt 0.274168 0.787941
vt 0.307053 0.796503
vt 0.290111 0.783537
vt 0.310279 0.808307
vt 0.305232 0.819452
vt 0.295333 0.819732
vt 0.281768 0.814413
vt 0.271593 0.806040
vt 0.268597 0.796928
vt 0.312320 0.798023
vt 0.298988 0.828766
vt 0.289433 0.825834
vt 0.276311 0.821044
vt 0.267154 0.814531
vt 0.264277 0.805159
vt 0.291517 0.836118
vt 0.282194 0.831534
vt 0.263608 0.836480
vt 0.256391 0.832434
vt 0.259902 0.814838
vt 0.283636 0.840677
vt 0.269035 0.842701
vt 0.252200 0.831460
vt 0.271997 0.847022
vt 0.108206 0.803089
vt 0.258725 0.770569
vt 0.103940 0.789958
vt 0.122013 0.803089
vt 0.097036 0.794974
vt 0.119376 0.811205
vt 0.094400 0.803089
vt 0.112473 0.816220
vt 0.097036 0.811205
vt 0.103940 0.816220
vt 0.178689 0.773073
vt 0.181985 0.783084
vt 0.187216 0.795345
vt 0.192774 0.806598
vt 0.198649 0.816745
vt 0.214382 0.818109
vt 0.204186 0.824655
vt 0.212302 0.835989
vt 0.112473 0.789958
vt 0.268034 0.768864
vt 0.119376 0.794974
vt 0.153747 0.487475
vt 0.153747 0.209596
vt 0.168475 0.209596
vt 0.168475 0.477623
vt 0.192303 0.209596
vt 0.192303 0.478993
vt 0.216132 0.209596
vt 0.216132 0.489006
vt 0.230859 0.209596
vt 0.230859 0.489006
vt 0.255914 0.209596
vt 0.255914 0.489006
vt 0.051581 0.489006
vt 0.051581 0.209596
vt 0.066308 0.209596
vt 0.066308 0.491868
vt 0.090137 0.209596
vt 0.090137 0.505660
vt 0.113965 0.209596
vt 0.113965 0.503733
vt 0.128693 0.209596
vt 0.128693 0.490584
vt 0.316756 0.389585
vt 0.301367 0.384585
vt 0.307245 0.376496
vt 0.316756 0.373405
vt 0.326266 0.376496
vt 0.332144 0.384585
vt 0.332144 0.394585
vt 0.280064 0.471902
vt 0.291258 0.455878
vt 0.299975 0.461999
vt 0.322149 0.471902
vt 0.320333 0.481805
vt 0.298943 0.487926
vt 0.288387 0.487926
vt 0.290376 0.381014
vt 0.278151 0.377042
vt 0.292897 0.356746
vt 0.300452 0.367145
vt 0.316756 0.348994
vt 0.316756 0.361848
vt 0.340614 0.356746
vt 0.333059 0.367145
vt 0.355360 0.377042
vt 0.343136 0.381014
vt 0.355360 0.402129
vt 0.343136 0.398157
vt 0.340615 0.422425
vt 0.333059 0.412026
vt 0.316756 0.430177
vt 0.316756 0.417323
vt 0.332273 0.471902
vt 0.342851 0.475152
vt 0.337477 0.499490
vt 0.329724 0.488879
vt 0.300452 0.412026
vt 0.292896 0.422425
vt 0.278151 0.402129
vt 0.290376 0.398157
vt 0.302971 0.444433
vt 0.311942 0.454925
vt 0.309169 0.499371
vt 0.301367 0.394585
vt 0.087755 0.603330
vt 0.090785 0.619376
vt 0.085745 0.619376
vt 0.153401 0.590673
vt 0.152669 0.613048
vt 0.149176 0.613048
vt 0.241082 0.669741
vt 0.237244 0.652583
vt 0.241813 0.652583
vt 0.238021 0.635425
vt 0.233374 0.635425
vt 0.236251 0.618268
vt 0.240820 0.618268
vt 0.147060 0.635423
vt 0.150573 0.635423
vt 0.150112 0.657798
vt 0.146619 0.657798
vt 0.087263 0.635423
vt 0.092302 0.635423
vt 0.092619 0.651469
vt 0.087579 0.651469
vt 0.240653 0.601111
vt 0.152316 0.680172
vt 0.088533 0.667515
vt 0.684546 0.546823
vt 0.674217 0.546823
vt 0.674217 0.509959
vt 0.684546 0.509959
vt 0.879244 0.746402
vt 0.888303 0.746402
vt 0.888303 0.801413
vt 0.879244 0.801413
vt 0.668606 0.702983
vt 0.658277 0.702983
vt 0.658277 0.666119
vt 0.668606 0.666119
vt 0.658277 0.606471
vt 0.668606 0.606471
vt 0.658277 0.546824
vt 0.668606 0.546824
vt 0.658277 0.509959
vt 0.668606 0.509959
vt 0.905285 0.801412
vt 0.896226 0.801412
vt 0.896226 0.746402
vt 0.905285 0.746402
vt 0.684546 0.702983
vt 0.674217 0.702983
vt 0.674217 0.666119
vt 0.684546 0.666119
vt 0.674217 0.606471
vt 0.684546 0.606471
vt 0.544769 0.365354
vt 0.584718 0.310368
vt 0.609408 0.344351
vt 0.609408 0.386356
vt 0.584718 0.420339
vt 0.544769 0.433320
vt 0.504819 0.420339
vt 0.480129 0.386356
vt 0.480129 0.344351
vt 0.504819 0.310368
vt 0.544769 0.297387
vt 0.881054 0.554368
vt 0.894212 0.536258
vt 0.928412 0.583330
vt 0.907122 0.590247
vt 0.928412 0.641514
vt 0.907122 0.634597
vt 0.894212 0.688587
vt 0.881054 0.670476
vt 0.838876 0.706566
vt 0.838876 0.684181
vt 0.783539 0.688587
vt 0.796697 0.670476
vt 0.749339 0.641514
vt 0.770629 0.634597
vt 0.749339 0.583330
vt 0.770629 0.590247
vt 0.783539 0.536258
vt 0.796697 0.554368
vt 0.838876 0.518278
vt 0.838876 0.540664
vt 0.473260 0.533510
vt 0.467438 0.533510
vt 0.467438 0.505412
vt 0.473260 0.505412
vt 0.912485 0.744010
vt 0.917591 0.744010
vt 0.917591 0.785936
vt 0.912485 0.785936
vt 0.462721 0.652536
vt 0.456898 0.652536
vt 0.456898 0.624438
vt 0.462721 0.624438
vt 0.456898 0.578974
vt 0.462721 0.578974
vt 0.456898 0.533511
vt 0.462721 0.533511
vt 0.456898 0.505413
vt 0.462721 0.505413
vt 0.928913 0.785938
vt 0.923806 0.785938
vt 0.923806 0.744008
vt 0.928913 0.744008
vt 0.473260 0.652537
vt 0.467438 0.652537
vt 0.467438 0.624438
vt 0.473260 0.624438
vt 0.467438 0.578974
vt 0.473260 0.578974
vt 0.602664 0.532421
vt 0.606788 0.526745
vt 0.632278 0.561828
vt 0.625605 0.563996
vt 0.632278 0.605193
vt 0.625605 0.603024
vt 0.606788 0.640276
vt 0.602664 0.634599
vt 0.565546 0.653677
vt 0.565546 0.646660
vt 0.524303 0.640276
vt 0.528427 0.634599
vt 0.498814 0.605193
vt 0.505487 0.603024
vt 0.498814 0.561828
vt 0.505487 0.563996
vt 0.524303 0.526745
vt 0.528427 0.532422
vt 0.565546 0.513344
vt 0.565546 0.520361
vt 0.590292 0.549451
vt 0.605585 0.570501
vt 0.605585 0.596519
vt 0.590291 0.617570
vt 0.565546 0.625610
vt 0.540800 0.617570
vt 0.525507 0.596519
vt 0.525507 0.570501
vt 0.540800 0.549451
vt 0.565546 0.541411
vt 0.683380 0.750043
vt 0.678785 0.750043
vt 0.678785 0.733187
vt 0.683380 0.733187
vt 0.934930 0.740933
vt 0.938962 0.740933
vt 0.938962 0.766101
vt 0.934930 0.766101
vt 0.693569 0.824429
vt 0.688974 0.824429
vt 0.688974 0.807572
vt 0.693569 0.807572
vt 0.688974 0.780295
vt 0.693569 0.780295
vt 0.688974 0.753018
vt 0.693569 0.753018
vt 0.688974 0.736161
vt 0.693569 0.736161
vt 0.949151 0.766101
vt 0.945119 0.766101
vt 0.945119 0.740933
vt 0.949151 0.740933
vt 0.683380 0.821448
vt 0.678785 0.821448
vt 0.678785 0.804592
vt 0.683380 0.804592
vt 0.678785 0.777318
vt 0.683380 0.777318
vt 0.449559 0.705574
vt 0.452750 0.701183
vt 0.467538 0.721538
vt 0.462376 0.723215
vt 0.467538 0.746697
vt 0.462376 0.745020
vt 0.452749 0.767052
vt 0.449559 0.762660
vt 0.428821 0.774826
vt 0.428821 0.769398
vt 0.404893 0.767052
vt 0.408084 0.762660
vt 0.390105 0.746697
vt 0.395267 0.745020
vt 0.390105 0.721538
vt 0.395267 0.723215
vt 0.404893 0.701183
vt 0.408084 0.705574
vt 0.428821 0.693408
vt 0.428821 0.698836
vt 0.555938 0.716886
vt 0.555938 0.686258
vt 0.570917 0.686258
vt 0.570917 0.716886
vt 0.743798 0.789979
vt 0.743798 0.817949
vt 0.720524 0.817949
vt 0.720524 0.789979
vt 0.588716 0.762808
vt 0.588716 0.732180
vt 0.603695 0.732180
vt 0.603695 0.762808
vt 0.627932 0.732180
vt 0.627932 0.762808
vt 0.652170 0.732180
vt 0.652170 0.762808
vt 0.667149 0.732180
vt 0.667149 0.762808
vt 0.791849 0.774321
vt 0.791849 0.746350
vt 0.815122 0.746350
vt 0.815122 0.774321
vt 0.492484 0.716886
vt 0.492484 0.686258
vt 0.507463 0.686258
vt 0.507463 0.716886
vt 0.531700 0.686258
vt 0.531700 0.716886
vt 0.552496 0.731591
vt 0.565348 0.731591
vt 0.742145 0.776549
vt 0.722176 0.776549
vt 0.594285 0.777513
vt 0.607137 0.777513
vt 0.627932 0.777513
vt 0.648728 0.777513
vt 0.661580 0.777513
vt 0.793501 0.787750
vt 0.813470 0.787750
vt 0.498052 0.731591
vt 0.510905 0.731591
vt 0.531700 0.731591
vt 0.751235 0.765846
vt 0.758300 0.776549
vt 0.739446 0.765846
vt 0.724875 0.765846
vt 0.706021 0.776549
vt 0.713086 0.765846
vt 0.612757 0.789233
vt 0.627932 0.789233
vt 0.643108 0.789233
vt 0.784411 0.798454
vt 0.777346 0.787750
vt 0.796200 0.798454
vt 0.810772 0.798454
vt 0.829625 0.787750
vt 0.822560 0.798454
vt 0.516526 0.743311
vt 0.531700 0.743311
vt 0.546876 0.743311
vt 0.546876 0.764660
vt 0.556254 0.743311
vt 0.556254 0.764660
vt 0.739446 0.746350
vt 0.724875 0.746350
vt 0.603379 0.810581
vt 0.603379 0.789233
vt 0.612757 0.810581
vt 0.627932 0.810581
vt 0.643108 0.810581
vt 0.652486 0.789233
vt 0.652486 0.810581
vt 0.796200 0.817950
vt 0.810772 0.817950
vt 0.507147 0.764660
vt 0.507147 0.743311
vt 0.516526 0.764660
vt 0.531700 0.764660
vt 0.759259 0.333185
vt 0.769141 0.346786
vt 0.760803 0.358262
vt 0.744815 0.353066
vt 0.760803 0.372446
vt 0.744815 0.377641
vt 0.769141 0.383922
vt 0.759259 0.397522
vt 0.601642 0.824007
vt 0.627932 0.824007
vt 0.654223 0.824007
vt 0.806003 0.397522
vt 0.796122 0.383922
vt 0.804459 0.372446
vt 0.820448 0.377641
vt 0.804459 0.358262
vt 0.820448 0.353066
vt 0.796122 0.346786
vt 0.806003 0.333185
vt 0.505410 0.778086
vt 0.531700 0.778086
vt 0.557991 0.778086
vt 0.727570 0.289568
vt 0.693540 0.336406
vt 0.693540 0.394301
vt 0.727570 0.441139
vt 0.782631 0.405117
vt 0.782632 0.459030
vt 0.837693 0.441139
vt 0.871723 0.394301
vt 0.871723 0.336406
vt 0.837693 0.289568
vt 0.782631 0.325591
vt 0.782632 0.271677
vt 0.718555 0.547548
vt 0.707299 0.547548
vt 0.707299 0.510211
vt 0.718555 0.510211
vt 0.843164 0.746530
vt 0.853037 0.746530
vt 0.853037 0.802252
vt 0.843164 0.802252
vt 0.701504 0.705715
vt 0.690249 0.705715
vt 0.690249 0.668376
vt 0.701504 0.668376
vt 0.690249 0.607960
vt 0.701504 0.607960
vt 0.690249 0.547544
vt 0.701504 0.547544
vt 0.690249 0.510205
vt 0.701504 0.510205
vt 0.871151 0.802250
vt 0.861279 0.802250
vt 0.861279 0.746532
vt 0.871151 0.746532
vt 0.718555 0.705709
vt 0.707299 0.705709
vt 0.707299 0.668372
vt 0.718555 0.668372
vt 0.707299 0.607960
vt 0.718555 0.607960
vt 0.598035 0.292039
vt 0.630955 0.337350
vt 0.630955 0.393357
vt 0.598034 0.438668
vt 0.544768 0.455975
vt 0.491502 0.438668
vt 0.458582 0.393357
vt 0.458582 0.337350
vt 0.491502 0.292039
vt 0.544768 0.274732
vn -0.094386 -0.990442 -0.100582
vn 0.157224 -0.797669 -0.582241
vn 0.569001 -0.745523 -0.347034
vn -0.318674 -0.767765 -0.555863
vn -0.593639 -0.721648 -0.356114
vn -0.708336 -0.703635 -0.056201
vn -0.636940 -0.689021 0.345771
vn -0.304689 -0.694569 0.651719
vn 0.227968 -0.707369 0.669074
vn 0.637258 -0.676966 0.368265
vn 0.734829 -0.678244 -0.003398
vn 0.272001 -0.455769 -0.847520
vn 0.741019 -0.438773 -0.508301
vn -0.288366 -0.478272 -0.829519
vn -0.712366 -0.503820 -0.488568
vn -0.867217 -0.497929 0.001117
vn -0.718815 -0.434557 0.542647
vn -0.284431 -0.367439 0.885487
vn 0.314137 -0.351450 0.881930
vn 0.765147 -0.327390 0.554406
vn 0.920099 -0.385624 0.068641
vn 0.304318 -0.181632 -0.935094
vn 0.789125 -0.207654 -0.578068
vn -0.258145 -0.221682 -0.940329
vn -0.768455 -0.264846 -0.582523
vn -0.960333 -0.277884 0.023262
vn -0.752562 -0.235655 0.614913
vn -0.267276 -0.181515 0.946370
vn 0.352928 -0.154531 0.922801
vn 0.798631 -0.099209 0.593588
vn 0.981964 -0.171963 0.078582
vn 0.311605 0.021939 -0.949959
vn 0.807373 -0.015703 -0.589833
vn -0.273096 -0.005736 -0.961970
vn -0.796204 -0.008298 -0.604972
vn -0.999858 -0.009179 0.014113
vn -0.791827 -0.005194 0.610723
vn -0.292778 0.011810 0.956107
vn 0.372671 0.042106 0.927008
vn 0.805625 0.137516 0.576245
vn 0.997142 0.039896 0.064151
vn 0.292804 0.262019 -0.919571
vn 0.800330 0.195954 -0.566634
vn -0.361989 0.224500 -0.904745
vn -0.799179 0.233957 -0.553694
vn -0.970181 0.241162 -0.024276
vn -0.821283 0.229352 0.522392
vn -0.349096 0.259150 0.900540
vn 0.327100 0.261487 0.908092
vn 0.748184 0.404683 0.525787
vn 0.965988 0.258547 -0.004500
vn 0.292842 0.366862 -0.882981
vn 0.750030 0.375356 -0.544576
vn -0.411745 0.309107 -0.857274
vn -0.813533 0.288071 -0.505153
vn -0.953546 0.297093 -0.049856
vn -0.844756 0.315349 0.432369
vn -0.366921 0.379919 0.849135
vn 0.211253 0.432669 0.876453
vn 0.876926 0.445159 -0.181201
vn 0.340221 0.427332 -0.837638
vn 0.757239 0.440283 -0.482432
vn -0.325986 0.370637 -0.869691
vn -0.803084 0.291145 -0.519895
vn -0.961031 0.275306 -0.025005
vn -0.818200 0.315518 0.480621
vn -0.294679 0.396885 0.869279
vn 0.378925 0.451547 0.807788
vn 0.725610 0.509314 0.462698
vn 0.869266 0.493767 -0.023888
vn -0.053176 0.998571 0.005320
vn 0.251805 0.000000 0.967778
vn 0.305391 0.000000 0.952227
vn 0.807522 0.000000 0.589838
vn 0.790028 0.000000 0.613071
vn 0.999994 0.000000 -0.003412
vn 0.999029 0.000000 -0.044060
vn 0.807291 0.000000 -0.590154
vn 0.780152 0.000000 -0.625590
vn 0.309023 0.000000 -0.951055
vn 0.309023 0.000000 -0.951055
vn -0.309805 0.000000 -0.950800
vn -0.320576 0.000000 -0.947223
vn -0.811795 0.000000 -0.583942
vn -0.843494 0.000000 -0.537138
vn -0.999995 0.000000 0.003299
vn -0.998363 0.000000 0.057202
vn -0.811479 0.000000 0.584381
vn -0.848374 0.000000 0.529397
vn -0.313443 0.000000 0.949607
vn -0.366178 0.000000 0.930545
vn 0.622955 0.778991 -0.071417
vn 0.380841 0.697197 -0.607352
vn 0.047791 0.916201 -0.397859
vn -0.212619 0.904660 0.369301
vn -0.233559 0.731002 0.641160
vn -0.133981 0.741196 0.657782
vn 0.417033 0.753117 0.508820
vn 0.820530 0.543326 -0.177563
vn 0.749773 0.541442 -0.380370
vn 0.847667 0.529025 -0.039907
vn 0.787410 0.547107 -0.284006
vn 0.293470 0.846054 -0.445049
vn 0.236957 0.923254 -0.302413
vn -0.176302 0.898139 -0.402820
vn -0.152391 0.904710 -0.397840
vn -0.399047 0.874091 0.276994
vn -0.382307 0.883183 0.271714
vn -0.162229 0.900267 0.403982
vn -0.206474 0.842520 0.497522
vn -0.030695 0.989659 0.140116
vn -0.073603 0.933546 0.350821
vn 0.065363 0.992326 -0.104956
vn 0.235525 0.960151 0.150459
vn -0.086117 0.855953 -0.509833
vn 0.255347 0.817754 -0.515825
vn -0.458828 0.837303 -0.297323
vn -0.105630 0.954924 -0.277419
vn -0.138727 0.822948 0.550919
vn 0.100540 0.921719 0.374601
vn 0.268997 0.882328 0.386185
vn 0.524956 0.820234 0.227237
vn -0.975890 -0.218265 0.000000
vn -0.975607 -0.219523 0.000000
vn -0.975621 -0.219462 0.000000
vn 0.505185 -0.049690 0.861579
vn 0.504444 0.001594 0.863443
vn 0.504197 0.009991 0.863531
vn 0.510090 0.006373 -0.860098
vn 0.501937 0.140709 -0.853382
vn 0.503084 0.128273 -0.854665
vn 0.504764 0.063446 -0.860923
vn 0.504739 0.064227 -0.860879
vn 0.505737 -0.069844 -0.859856
vn 0.506002 -0.070773 -0.859624
vn 0.503312 -0.037249 0.863302
vn 0.503390 -0.032816 0.863436
vn 0.504155 -0.032693 0.862994
vn 0.503591 -0.050238 0.862480
vn -0.999362 -0.035725 0.000000
vn -0.999763 -0.021785 0.000000
vn -0.981630 0.190795 0.000000
vn -0.981260 0.192687 0.000000
vn 0.508472 -0.079523 -0.857399
vn 0.503763 0.089505 0.859193
vn -0.968626 0.248524 0.000000
vn 0.809017 0.000000 -0.587785
vn 0.809017 0.000000 -0.587785
vn 0.309015 0.000000 -0.951057
vn 0.309015 0.000000 -0.951057
vn -0.309015 0.000000 -0.951057
vn -0.309015 0.000000 -0.951057
vn -0.809017 0.000000 -0.587785
vn -0.809017 0.000000 -0.587785
vn -1.000000 0.000000 -0.000000
vn -1.000000 0.000000 -0.000000
vn -0.809017 0.000000 0.587785
vn -0.809017 0.000000 0.587785
vn -0.309015 0.000000 0.951057
vn -0.309015 0.000000 0.951057
vn 0.309017 0.000000 0.951057
vn 0.309017 0.000000 0.951057
vn 0.809019 0.000000 0.587783
vn 0.809019 0.000000 0.587783
vn 1.000000 0.000000 0.000003
vn 1.000000 0.000000 0.000003
vn -0.000000 1.000000 0.000000
vn -0.089603 0.993848 0.065100
vn -0.034225 0.993848 0.105336
vn 0.034226 0.993848 0.105336
vn 0.089603 0.993848 0.065099
vn 0.110756 0.993848 -0.000000
vn 0.089604 0.993848 -0.065102
vn 0.034225 0.993847 -0.105339
vn -0.034225 0.993848 -0.105335
vn -0.089603 0.993848 -0.065100
vn -0.110756 0.993848 -0.000001
vn 0.348153 0.902667 -0.252948
vn 0.348153 0.902667 -0.252947
vn 0.132985 0.902665 -0.409281
vn 0.132983 0.902665 -0.409282
vn -0.132984 0.902666 -0.409280
vn -0.132984 0.902666 -0.409280
vn -0.348156 0.902665 -0.252948
vn -0.348157 0.902665 -0.252946
vn -0.430347 0.902664 0.000000
vn -0.430347 0.902664 0.000000
vn -0.348155 0.902666 0.252948
vn -0.348156 0.902666 0.252947
vn -0.132982 0.902666 0.409280
vn -0.132982 0.902666 0.409280
vn 0.132985 0.902666 0.409279
vn 0.132983 0.902666 0.409280
vn 0.348153 0.902667 0.252946
vn 0.348153 0.902667 0.252946
vn 0.430340 0.902667 0.000001
vn 0.430340 0.902667 0.000001
vn 0.809015 0.000000 -0.587788
vn 0.809015 0.000000 -0.587788
vn 0.309016 0.000000 -0.951057
vn 0.309016 0.000000 -0.951057
vn -0.309018 0.000000 -0.951056
vn -0.309018 0.000000 -0.951056
vn -0.809016 0.000000 -0.587786
vn -0.809016 0.000000 -0.587786
vn -1.000000 0.000000 0.000000
vn -1.000000 0.000000 0.000000
vn -0.809017 0.000000 0.587786
vn -0.809017 0.000000 0.587786
vn -0.309016 0.000000 0.951057
vn -0.309016 0.000000 0.951057
vn 0.309016 0.000000 0.951057
vn 0.309016 0.000000 0.951057
vn 0.809015 0.000000 0.587788
vn 0.809015 0.000000 0.587788
vn 1.000000 0.000000 -0.000000
vn 1.000000 0.000000 -0.000000
vn -0.141905 0.984497 0.103099
vn -0.141905 0.984497 0.103099
vn -0.054202 0.984494 0.166835
vn -0.054203 0.984494 0.166835
vn 0.054204 0.984493 0.166840
vn 0.054201 0.984493 0.166841
vn 0.141908 0.984495 0.103109
vn 0.141908 0.984495 0.103109
vn 0.175410 0.984496 -0.000005
vn 0.175410 0.984496 -0.000005
vn 0.141906 0.984495 -0.103111
vn 0.141905 0.984495 -0.103111
vn 0.054203 0.984493 -0.166840
vn 0.054201 0.984493 -0.166841
vn -0.054202 0.984494 -0.166835
vn -0.054203 0.984494 -0.166835
vn -0.141906 0.984496 -0.103099
vn -0.141906 0.984497 -0.103099
vn -0.175400 0.984497 -0.000000
vn -0.175400 0.984497 -0.000000
vn 0.310750 0.923288 -0.225773
vn 0.310750 0.923288 -0.225773
vn 0.118696 0.923287 -0.365312
vn 0.118697 0.923287 -0.365312
vn -0.118698 0.923286 -0.365314
vn -0.118698 0.923286 -0.365314
vn -0.310748 0.923289 -0.225772
vn -0.310748 0.923289 -0.225772
vn -0.384108 0.923288 0.000002
vn -0.384108 0.923288 0.000001
vn -0.310750 0.923288 0.225774
vn -0.310750 0.923288 0.225774
vn -0.118694 0.923287 0.365312
vn -0.118694 0.923287 0.365312
vn 0.118696 0.923288 0.365308
vn 0.118696 0.923288 0.365308
vn 0.310750 0.923288 0.225771
vn 0.310750 0.923288 0.225772
vn 0.384112 0.923287 -0.000001
vn 0.384112 0.923287 -0.000001
vn 0.809016 0.000000 -0.587787
vn 0.809016 0.000000 -0.587787
vn 0.309014 0.000000 -0.951058
vn 0.309014 0.000000 -0.951058
vn -0.309017 0.000000 -0.951057
vn -0.309017 0.000000 -0.951057
vn -0.809019 0.000000 -0.587783
vn -0.809019 0.000000 -0.587783
vn -1.000000 0.000000 0.000000
vn -1.000000 0.000000 0.000000
vn -0.809019 0.000000 0.587783
vn -0.809019 0.000000 0.587783
vn -0.309012 0.000000 0.951058
vn -0.309012 0.000000 0.951058
vn 0.309012 0.000000 0.951058
vn 0.309012 0.000000 0.951058
vn 0.809016 0.000000 0.587787
vn 0.809016 0.000000 0.587787
vn 1.000000 0.000000 -0.000000
vn 1.000000 0.000000 -0.000000
vn 0.000000 1.000000 0.000008
vn 0.000000 1.000000 0.000008
vn 0.000000 1.000000 -0.000000
vn 0.000000 1.000000 0.000000
vn 0.000000 1.000000 -0.000011
vn 0.000000 1.000000 -0.000011
vn 0.000000 1.000000 -0.000003
vn 0.000000 1.000000 -0.000003
vn 0.000000 1.000000 -0.000000
vn 0.000000 1.000000 -0.000000
vn 0.000000 1.000000 0.000003
vn 0.000000 1.000000 0.000003
vn 0.000000 1.000000 0.000011
vn 0.000000 1.000000 0.000011
vn 0.000000 1.000000 0.000000
vn 0.000000 1.000000 -0.000000
vn 0.000000 1.000000 -0.000008
vn 0.000000 1.000000 -0.000008
vn 0.000000 1.000000 0.000000
vn 0.000000 1.000000 -0.000000
vn 0.803584 0.115702 -0.583837
vn 0.809017 0.000000 -0.587785
vn 0.309014 0.000000 -0.951057
vn 0.306939 0.115702 -0.944670
vn -0.309018 0.000000 -0.951056
vn -0.306942 0.115701 -0.944669
vn -0.809017 0.000000 -0.587785
vn -0.803584 0.115700 -0.583837
vn -1.000000 0.000000 -0.000000
vn -0.993284 0.115703 -0.000000
vn -0.809019 0.000000 0.587782
vn -0.803585 0.115704 0.583835
vn -0.309014 0.000000 0.951057
vn -0.306939 0.115703 0.944670
vn 0.309014 0.000000 0.951057
vn 0.306939 0.115702 0.944670
vn 0.809019 0.000000 0.587782
vn 0.803585 0.115701 0.583835
vn 1.000000 0.000000 -0.000000
vn 0.993284 0.115700 -0.000000
vn 0.711584 0.475780 -0.516994
vn 0.271801 0.475781 -0.836515
vn -0.271803 0.475777 -0.836516
vn -0.711586 0.475772 -0.516998
vn -0.879568 0.475773 -0.000001
vn -0.711583 0.475781 0.516993
vn -0.271799 0.475782 0.836514
vn 0.271800 0.475782 0.836515
vn 0.711584 0.475783 0.516991
vn 0.879565 0.475779 0.000000
vn 0.626853 0.632166 -0.455435
vn 0.239439 0.632168 -0.736908
vn -0.239440 0.632164 -0.736911
vn -0.626862 0.632155 -0.455438
vn -0.774846 0.632150 -0.000002
vn -0.626859 0.632161 0.455434
vn -0.239435 0.632170 0.736907
vn 0.239438 0.632169 0.736907
vn 0.626851 0.632174 0.455428
vn 0.774828 0.632173 0.000000
vn 0.809018 0.000000 -0.587784
vn 0.809018 0.000000 -0.587784
vn 0.309022 0.000000 -0.951055
vn 0.309022 0.000000 -0.951055
vn -0.309018 0.000000 -0.951056
vn -0.309018 0.000000 -0.951056
vn -0.809018 0.000000 -0.587784
vn -0.809018 0.000000 -0.587784
vn -1.000000 0.000000 0.000000
vn -1.000000 0.000000 0.000000
vn -0.809017 0.000000 0.587785
vn -0.809017 0.000000 0.587785
vn -0.309011 0.000000 0.951058
vn -0.309011 0.000000 0.951058
vn 0.309014 0.000000 0.951057
vn 0.309014 0.000000 0.951057
vn 0.809017 0.000000 0.587785
vn 0.809017 0.000000 0.587785
vn 1.000000 0.000000 0.000000
vn 1.000000 0.000000 0.000000
vn 0.288435 -0.934285 -0.209562
vn 0.468345 -0.815396 -0.340269
vn 0.178892 -0.815394 -0.550573
vn 0.110173 -0.934285 -0.339078
vn -0.178894 -0.815394 -0.550573
vn -0.110172 -0.934286 -0.339076
vn -0.468348 -0.815392 -0.340275
vn -0.288434 -0.934286 -0.209560
vn -0.578905 -0.815395 -0.000004
vn -0.356525 -0.934286 0.000000
vn -0.468342 -0.815395 0.340274
vn -0.288435 -0.934286 0.209561
vn -0.178890 -0.815394 0.550573
vn -0.110171 -0.934285 0.339078
vn 0.178890 -0.815392 0.550577
vn 0.110171 -0.934285 0.339078
vn 0.468347 -0.815392 0.340275
vn 0.288435 -0.934286 0.209561
vn 0.578902 -0.815397 0.000006
vn 0.356525 -0.934286 -0.000000
vn 0.265679 -0.944539 -0.193029
vn 0.101480 -0.944539 -0.312326
vn -0.101480 -0.944540 -0.312324
vn -0.265677 -0.944541 -0.193026
vn -0.328396 -0.944540 0.000001
vn -0.265678 -0.944540 0.193028
vn -0.101479 -0.944539 0.312325
vn 0.101479 -0.944540 0.312325
vn 0.265679 -0.944540 0.193027
vn 0.328397 -0.944540 -0.000001
vn 0.809019 0.000000 -0.587782
vn 0.809019 0.000000 -0.587782
vn 0.309017 0.000000 -0.951057
vn 0.309017 0.000000 -0.951057
vn -0.309018 0.000000 -0.951056
vn -0.309018 0.000000 -0.951056
vn -0.809019 0.000000 -0.587782
vn -0.809019 0.000000 -0.587782
vn -1.000000 0.000000 0.000005
vn -1.000000 0.000000 0.000005
vn -0.809016 0.000000 0.587787
vn -0.809016 0.000000 0.587787
vn -0.309013 0.000000 0.951058
vn -0.309013 0.000000 0.951058
vn 0.309013 0.000000 0.951058
vn 0.309013 0.000000 0.951058
vn 0.809018 0.000000 0.587784
vn 0.809018 0.000000 0.587784
vn 1.000000 0.000000 0.000000
vn 1.000000 0.000000 0.000000
vn -0.164226 0.979180 0.119317
vn -0.062728 0.979179 0.193063
vn 0.062729 0.979180 0.193059
vn 0.164224 0.979181 0.119314
vn 0.202992 0.979180 0.000000
vn 0.164225 0.979180 -0.119318
vn 0.062729 0.979179 -0.193063
vn -0.062728 0.979180 -0.193060
vn -0.164225 0.979180 -0.119316
vn -0.202994 0.979180 -0.000001
s 1
g candle Win1:Win
usemtl lambert86SG
f 1/69/1 3/87/2 2/89/3
f 1/69/1 4/71/4 3/87/2
f 1/69/1 5/73/5 4/71/4
f 1/69/1 6/75/6 5/73/5
f 1/69/1 7/77/7 6/75/6
f 1/69/1 8/78/8 7/77/7
f 1/69/1 9/76/9 8/78/8
f 1/69/1 10/74/10 9/76/9
f 1/69/1 11/72/11 10/74/10
f 1/69/1 2/89/3 11/72/11
f 2/5/3 3/70/2 13/15/12 12/6/13
f 3/70/2 4/88/4 14/44/14 13/15/12
f 4/47/4 5/38/5 15/34/15 14/44/14
f 5/38/5 6/39/6 16/35/16 15/34/15
f 6/39/6 7/46/7 17/40/17 16/35/16
f 7/46/7 8/54/8 18/48/18 17/40/17
f 8/79/8 9/9/9 19/10/19 18/80/18
f 9/9/9 10/1/10 20/4/20 19/10/19
f 10/1/10 11/2/11 21/3/21 20/4/20
f 11/2/11 2/5/3 12/6/13 21/3/21
f 12/6/13 13/15/12 23/16/22 22/11/23
f 13/15/12 14/44/14 24/45/24 23/16/22
f 14/44/14 15/34/15 25/37/25 24/45/24
f 15/34/15 16/35/16 26/36/26 25/37/25
f 16/35/16 17/40/17 27/41/27 26/36/26
f 17/40/17 18/48/18 28/49/28 27/41/27
f 18/80/18 19/10/19 29/14/29 28/81/28
f 19/10/19 20/4/20 30/8/30 29/14/29
f 20/4/20 21/3/21 31/7/31 30/8/30
f 21/3/21 12/6/13 22/11/23 31/7/31
f 22/11/23 23/16/22 33/21/32 32/17/33
f 23/16/22 24/45/24 34/53/34 33/21/32
f 24/45/24 25/37/25 35/43/35 34/53/34
f 25/37/25 26/36/26 36/42/36 35/43/35
f 26/36/26 27/41/27 37/50/37 36/42/36
f 27/41/27 28/49/28 38/55/38 37/50/37
f 28/81/28 29/14/29 39/20/39 38/82/38
f 29/14/29 30/8/30 40/13/40 39/20/39
f 30/8/30 31/7/31 41/12/41 40/13/40
f 31/7/31 22/11/23 32/17/33 41/12/41
f 32/17/33 33/21/32 43/25/42 42/22/43
f 33/21/32 34/53/34 44/59/44 43/25/42
f 34/53/34 35/43/35 45/52/45 44/59/44
f 35/43/35 36/42/36 46/51/46 45/52/45
f 36/42/36 37/50/37 47/56/47 46/51/46
f 37/50/37 38/55/38 48/60/48 47/56/47
f 38/82/38 39/20/39 49/24/49 48/83/48
f 39/20/39 40/13/40 50/19/50 49/24/49
f 40/13/40 41/12/41 51/18/51 50/19/50
f 41/12/41 32/17/33 42/22/43 51/18/51
f 42/22/43 43/25/42 53/29/52 52/26/53
f 43/25/42 44/59/44 54/64/54 53/29/52
f 44/59/44 45/52/45 55/58/55 54/64/54
f 45/52/45 46/51/46 56/57/56 55/58/55
f 46/51/46 47/56/47 57/61/57 56/57/56
f 47/56/47 48/60/48 58/65/58 57/61/57
f 48/83/48 49/24/49 59/84/59 58/85/58
f 49/24/49 50/19/50 59/84/59
f 50/19/50 51/18/51 60/23/60
f 51/18/51 42/22/43 52/26/53 60/23/60
f 52/26/53 53/29/52 62/32/61 61/30/62
f 53/29/52 54/64/54 63/67/63 62/32/61
f 54/64/54 55/58/55 64/63/64 63/67/63
f 55/58/55 56/57/56 65/62/65 64/63/64
f 56/57/56 57/61/57 66/66/66 65/62/65
f 57/61/57 58/65/58 67/68/67 66/66/66
f 58/85/58 59/84/59 68/33/68 67/86/67
f 59/84/59 50/19/50 69/28/69 68/33/68
f 50/19/50 60/23/60 70/27/70 69/28/69
f 60/23/60 52/26/53 61/30/62 70/27/70
f 61/30/62 62/32/61 71/31/71
f 62/32/61 63/67/63 71/31/71
f 63/67/63 64/63/64 71/31/71
f 64/63/64 65/62/65 71/31/71
f 65/62/65 66/66/66 71/31/71
f 66/66/66 67/68/67 71/31/71
f 67/86/67 68/33/68 71/31/71
f 68/33/68 69/28/69 71/31/71
f 69/28/69 70/27/70 71/31/71
f 70/27/70 61/30/62 71/31/71
s 2
f 82/90/72 72/91/73 73/92/74 83/93/75
f 83/93/75 73/92/74 74/94/76 84/95/77
f 84/95/77 74/94/76 75/96/78 85/97/79
f 85/97/79 75/96/78 76/98/80 86/99/81
f 86/99/81 76/98/80 77/100/82 87/101/83
f 87/102/83 77/103/82 78/104/84 88/105/85
f 88/105/85 78/104/84 79/106/86 89/107/87
f 89/107/87 79/106/86 80/108/88 90/109/89
f 90/109/89 80/108/88 81/110/90 91/111/91
f 91/111/91 81/110/90 72/91/73 82/90/72
s 3
f 103/112/92 102/113/93 104/114/94
f 103/112/92 104/114/94 105/115/95
f 103/112/92 105/115/95 106/116/96
f 103/112/92 106/116/96 107/117/97
f 103/112/92 107/117/97 108/118/98
f 103/119/92 108/120/98 109/121/99
f 103/119/92 109/121/99 110/122/100
f 103/119/92 110/122/100 111/123/101
f 103/119/92 111/123/101 112/124/102
f 103/119/92 112/124/102 102/125/93
f 92/126/103 82/127/104 83/128/105 93/129/106
f 93/129/106 83/128/105 84/130/107 94/131/108
f 94/131/108 84/130/107 85/132/109 95/133/110
f 95/133/110 85/132/109 86/134/111 96/135/112
f 96/135/112 86/134/111 87/136/113 97/137/114
f 97/137/114 87/136/113 88/138/115 98/139/116
f 98/139/116 88/138/115 89/140/117 99/141/118
f 99/142/118 89/143/117 90/144/119 100/145/120
f 100/146/120 90/147/119 91/148/121 101/149/122
f 101/149/122 91/148/121 82/127/104 92/126/103
f 102/113/93 92/126/103 93/129/106 104/114/94
f 104/114/94 93/129/106 94/131/108 105/115/95
f 105/115/95 94/131/108 95/133/110 106/116/96
f 106/116/96 95/133/110 96/135/112 107/117/97
f 107/117/97 96/135/112 97/137/114 108/118/98
f 108/120/98 97/150/114 98/151/116 109/121/99
f 109/121/99 98/151/116 99/142/118 110/122/100
f 110/122/100 99/142/118 100/145/120 111/123/101
f 111/123/101 100/145/120 101/152/122 112/124/102
f 112/153/102 101/149/122 92/126/103 102/113/93
s 5
f 113/154/123 123/155/124 121/156/125
s 6
f 113/157/126 122/158/127 123/159/128
s 7
f 113/160/129 121/161/130 122/162/131
f 116/163/132 115/164/133 118/165/134 119/166/135
s 6
f 117/167/136 116/168/137 119/169/138 120/170/139
s 5
f 115/171/140 117/172/141 120/173/142 118/174/143
s 7
f 119/166/135 118/165/134 114/175/144
s 6
f 120/170/139 119/169/138 114/176/145
s 5
f 118/174/143 120/173/142 114/177/146
s 7
f 122/162/131 121/161/130 115/164/133 116/163/132
s 6
f 123/159/128 122/158/127 116/168/137 117/167/136
s 5
f 121/156/125 123/155/124 117/172/141 115/171/140
s 8
f 134/178/147 124/179/148 125/180/149 135/181/150
f 135/182/150 125/183/149 126/184/151 136/185/152
f 136/186/152 126/187/151 127/188/153 137/189/154
f 137/189/154 127/188/153 128/190/155 138/191/156
f 138/191/156 128/190/155 129/192/157 139/193/158
f 139/193/158 129/192/157 130/194/159 140/195/160
f 140/196/160 130/197/159 131/198/161 141/199/162
f 141/200/162 131/201/161 132/202/163 142/203/164
f 142/203/164 132/202/163 133/204/165 143/205/166
f 143/205/166 133/204/165 124/179/148 134/178/147
s 9
f 275/206/167 274/207/168 276/208/169
f 275/206/167 276/208/169 277/209/170
f 275/206/167 277/209/170 278/210/171
f 275/206/167 278/210/171 279/211/172
f 275/206/167 279/211/172 280/212/173
f 275/206/167 280/212/173 281/213/174
f 275/206/167 281/213/174 282/214/175
f 275/206/167 282/214/175 283/215/176
f 275/206/167 283/215/176 284/216/177
f 275/206/167 284/216/177 274/207/168
s 10
f 144/217/178 134/218/179 135/219/180 145/220/181
f 145/220/181 135/219/180 136/221/182 146/222/183
f 146/222/183 136/221/182 137/223/184 147/224/185
f 147/224/185 137/223/184 138/225/186 148/226/187
f 148/226/187 138/225/186 139/227/188 149/228/189
f 149/228/189 139/227/188 140/229/190 150/230/191
f 150/230/191 140/229/190 141/231/192 151/232/193
f 151/232/193 141/231/192 142/233/194 152/234/195
f 152/234/195 142/233/194 143/235/196 153/236/197
f 153/236/197 143/235/196 134/218/179 144/217/178
s 11
f 154/237/198 144/238/199 145/239/200 155/240/201
f 155/241/201 145/242/200 146/243/202 156/244/203
f 156/245/203 146/246/202 147/247/204 157/248/205
f 157/248/205 147/247/204 148/249/206 158/250/207
f 158/250/207 148/249/206 149/251/208 159/252/209
f 159/252/209 149/251/208 150/253/210 160/254/211
f 160/255/211 150/256/210 151/257/212 161/258/213
f 161/259/213 151/260/212 152/261/214 162/262/215
f 162/262/215 152/261/214 153/263/216 163/264/217
f 163/264/217 153/263/216 144/238/199 154/237/198
s 12
f 164/265/218 154/266/219 155/267/220 165/268/221
f 165/268/221 155/267/220 156/269/222 166/270/223
f 166/270/223 156/269/222 157/271/224 167/272/225
f 167/272/225 157/271/224 158/273/226 168/274/227
f 168/274/227 158/273/226 159/275/228 169/276/229
f 169/276/229 159/275/228 160/277/230 170/278/231
f 170/278/231 160/277/230 161/279/232 171/280/233
f 171/280/233 161/279/232 162/281/234 172/282/235
f 172/282/235 162/281/234 163/283/236 173/284/237
f 173/284/237 163/283/236 154/266/219 164/265/218
s 13
f 174/285/238 164/265/239 165/268/240 175/286/241
f 175/286/241 165/268/240 166/270/242 176/287/243
f 176/287/243 166/270/242 167/272/244 177/288/245
f 177/288/245 167/272/244 168/274/246 178/289/247
f 178/289/247 168/274/246 169/276/248 179/290/249
f 179/290/249 169/276/248 170/278/250 180/291/251
f 180/291/251 170/278/250 171/280/252 181/292/253
f 181/292/253 171/280/252 172/282/254 182/293/255
f 182/293/255 172/282/254 173/284/256 183/294/257
f 183/294/257 173/284/256 164/265/239 174/285/238
s 14
f 184/295/258 174/296/259 175/297/260 185/298/261
f 185/299/261 175/300/260 176/301/262 186/302/263
f 186/303/263 176/304/262 177/305/264 187/306/265
f 187/306/265 177/305/264 178/307/266 188/308/267
f 188/308/267 178/307/266 179/309/268 189/310/269
f 189/310/269 179/309/268 180/311/270 190/312/271
f 190/313/271 180/314/270 181/315/272 191/316/273
f 191/317/273 181/318/272 182/319/274 192/320/275
f 192/320/275 182/319/274 183/321/276 193/322/277
f 193/322/277 183/321/276 174/296/259 184/295/258
s 15
f 194/323/278 184/324/279 185/325/280 195/326/281
f 195/326/281 185/325/280 186/327/282 196/328/283
f 196/328/283 186/327/282 187/329/284 197/330/285
f 197/330/285 187/329/284 188/331/286 198/332/287
f 198/332/287 188/331/286 189/333/288 199/334/289
f 199/334/289 189/333/288 190/335/290 200/336/291
f 200/336/291 190/335/290 191/337/292 201/338/293
f 201/338/293 191/337/292 192/339/294 202/340/295
f 202/340/295 192/339/294 193/341/296 203/342/297
f 203/342/297 193/341/296 184/324/279 194/323/278
s 16
f 204/343/298 194/344/299 195/345/300 205/346/301
f 205/347/301 195/348/300 196/349/302 206/350/303
f 206/351/303 196/352/302 197/353/304 207/354/305
f 207/354/305 197/353/304 198/355/306 208/356/307
f 208/356/307 198/355/306 199/357/308 209/358/309
f 209/358/309 199/357/308 200/359/310 210/360/311
f 210/361/311 200/362/310 201/363/312 211/364/313
f 211/365/313 201/366/312 202/367/314 212/368/315
f 212/368/315 202/367/314 203/369/316 213/370/317
f 213/370/317 203/369/316 194/344/299 204/343/298
f 214/371/318 204/343/298 205/346/301 215/372/319
f 215/373/319 205/347/301 206/350/303 216/374/320
f 216/375/320 206/351/303 207/354/305 217/376/321
f 217/376/321 207/354/305 208/356/307 218/377/322
f 218/377/322 208/356/307 209/358/309 219/378/323
f 219/378/323 209/358/309 210/360/311 220/379/324
f 220/380/324 210/361/311 211/364/313 221/381/325
f 221/382/325 211/365/313 212/368/315 222/383/326
f 222/383/326 212/368/315 213/370/317 223/384/327
f 223/384/327 213/370/317 204/343/298 214/371/318
f 224/385/328 214/386/318 215/373/319 225/387/329
f 225/387/329 215/373/319 216/374/320 226/388/330
f 226/388/330 216/374/320 217/389/321 227/390/331
f 227/391/331 217/376/321 218/377/322 228/392/332
f 228/392/332 218/377/322 219/378/323 229/393/333
f 229/394/333 219/395/323 220/380/324 230/396/334
f 230/396/334 220/380/324 221/381/325 231/397/335
f 231/397/335 221/381/325 222/398/326 232/399/336
f 232/400/336 222/383/326 223/384/327 233/401/337
f 233/401/337 223/384/327 214/371/318 224/402/328
s 17
f 234/403/338 224/402/339 225/404/340 235/405/341
f 235/406/341 225/387/340 226/388/342 236/407/343
f 236/408/343 226/409/342 227/391/344 237/410/345
f 237/410/345 227/391/344 228/392/346 238/411/347
f 238/411/347 228/392/346 229/393/348 239/412/349
f 239/412/349 229/393/348 230/413/350 240/414/351
f 240/415/351 230/396/350 231/397/352 241/416/353
f 241/417/353 231/418/352 232/400/354 242/419/355
f 242/419/355 232/400/354 233/401/356 243/420/357
f 243/420/357 233/401/356 224/402/339 234/403/338
s 18
f 244/421/358 234/422/359 235/423/360 245/424/361
f 245/424/361 235/423/360 236/425/362 246/426/363
f 246/426/363 236/425/362 237/427/364 247/428/365
f 247/429/365 237/410/364 238/411/366 248/430/367
f 248/430/367 238/411/366 239/412/368 249/431/369
f 249/432/369 239/433/368 240/434/370 250/435/371
f 250/435/371 240/434/370 241/436/372 251/437/373
f 251/437/373 241/436/372 242/438/374 252/439/375
f 252/440/375 242/419/374 243/420/376 253/441/377
f 253/441/377 243/420/376 234/403/359 244/442/358
f 254/443/378 244/421/358 245/424/361 255/444/379
f 255/444/379 245/424/361 246/426/363 256/445/380
f 256/445/380 246/426/363 247/428/365 257/446/381
f 257/446/381 247/428/365 248/447/367 258/448/382
f 258/448/382 248/447/367 249/432/369 259/449/383
f 259/449/383 249/432/369 250/435/371 260/450/384
f 260/450/384 250/435/371 251/437/373 261/451/385
f 261/451/385 251/437/373 252/439/375 262/452/386
f 262/452/386 252/439/375 253/453/377 263/454/387
f 263/454/387 253/453/377 244/421/358 254/443/378
s 19
f 264/455/388 254/456/389 255/457/390 265/458/391
f 265/459/391 255/460/390 256/461/392 266/462/393
f 266/463/393 256/464/392 257/465/394 267/466/395
f 267/466/395 257/465/394 258/467/396 268/468/397
f 268/468/397 258/467/396 259/469/398 269/470/399
f 269/470/399 259/469/398 260/471/400 270/472/401
f 270/473/401 260/474/400 261/475/402 271/476/403
f 271/477/403 261/478/402 262/479/404 272/480/405
f 272/480/405 262/479/404 263/481/406 273/482/407
f 273/482/407 263/481/406 254/456/389 264/455/388
s 9
f 274/207/168 264/483/408 265/484/409 276/208/169
f 276/208/169 265/484/409 266/485/410 277/209/170
f 277/209/170 266/485/410 267/486/411 278/210/171
f 278/210/171 267/486/411 268/487/412 279/211/172
f 279/211/172 268/487/412 269/488/413 280/212/173
f 280/212/173 269/488/413 270/489/414 281/213/174
f 281/213/174 270/489/414 271/490/415 282/214/175
f 282/214/175 271/490/415 272/491/416 283/215/176
f 283/215/176 272/491/416 273/492/417 284/216/177
f 274/207/168 284/216/177 273/492/417 264/483/408
