# This file uses centimeters as units for non-parametric coordinates.

mtllib ChairUV.mtl
g default
v -0.487280 0.763907 0.638657
v -0.487280 0.781895 0.638657
v -0.500000 0.781895 0.625937
v -0.500000 0.763907 0.625937
v -0.250000 0.760417 0.626173
v -0.237752 0.772901 0.626409
v -0.241305 0.785198 0.638657
v -0.259675 0.782577 0.638657
v -0.262297 0.764206 0.638657
v 0.000000 0.785621 0.638657
v 0.000000 0.772901 0.625937
v -0.500000 0.904249 0.625937
v -0.487280 0.904249 0.638657
v -0.487280 0.916969 0.625937
v -0.258994 0.916969 0.625937
v -0.258994 0.904249 0.638657
v -0.241006 0.904249 0.638657
v -0.241006 0.916969 0.625937
v 0.000000 0.916969 0.625937
v 0.000000 0.904249 0.638657
v -0.500000 0.904249 0.397651
v -0.487280 0.916969 0.397651
v -0.487280 0.916969 0.379663
v -0.500000 0.904249 0.379663
v -0.258994 0.916969 0.379663
v -0.258994 0.916968 0.397651
v -0.241006 0.916968 0.397651
v -0.241006 0.916969 0.379663
v 0.000000 0.916968 0.379663
v 0.000000 0.916968 0.397651
v -0.487947 0.933847 -0.328760
v -0.488196 0.981597 -0.367691
v -0.500000 0.977991 -0.379813
v -0.500000 0.945521 -0.363880
v -0.500000 0.921745 -0.334325
v -0.241006 0.933847 -0.328955
v -0.241006 0.981650 -0.367699
v -0.258994 0.981650 -0.367699
v -0.258994 0.933847 -0.328955
v 0.000000 0.981650 -0.367699
v 0.000000 0.933847 -0.328955
v -0.284432 0.760457 -0.390794
v -0.272378 0.772901 -0.373133
v -0.272378 0.772901 -0.360186
v -0.284432 0.760457 -0.375266
v 0.000000 0.772901 -0.352349
v 0.000000 0.772901 -0.370337
v -0.500000 0.764206 0.400954
v -0.500000 0.782577 0.398333
v -0.500000 0.785739 0.379580
v -0.487516 0.772901 0.376173
v -0.487516 0.760418 0.388657
v -0.262247 0.760653 0.388657
v -0.258695 0.772901 0.376360
v -0.240324 0.772901 0.378981
v -0.237162 0.772901 0.397734
v -0.250000 0.760653 0.400905
v 0.000000 0.772901 0.397651
v 0.000000 0.772901 0.379663
v -0.487280 0.916969 -0.245337
v -0.500000 0.904249 -0.245337
v -0.500000 0.904249 -0.227349
v -0.487280 0.916969 -0.227349
v -0.258994 0.916969 -0.227349
v -0.241006 0.916969 -0.227349
v -0.241006 0.916969 -0.245337
v -0.258994 0.916969 -0.245337
v 0.000000 0.916969 -0.227349
v 0.000000 0.916969 -0.245337
v -0.500246 0.763673 -0.375266
v -0.500000 0.781895 -0.370977
v -0.500000 0.781895 -0.388965
v -0.500246 0.763673 -0.390794
v -0.489469 0.760661 -0.275123
v -0.489469 0.772901 -0.258448
v -0.500000 0.785198 -0.248469
v -0.500000 0.782577 -0.267537
v -0.500246 0.763931 -0.285739
v 0.000000 0.772901 -0.245337
v 0.000000 0.772901 -0.227349
v -0.284432 0.760864 -0.285696
v -0.272683 0.772901 -0.275911
v -0.274569 0.772901 -0.262688
v -0.288066 0.772901 -0.260413
v -0.295005 0.760864 -0.275123
v -0.487274 0.940981 -0.502054
v -0.487280 0.907949 -0.499374
v -0.500000 0.907964 -0.486639
v -0.500000 0.941038 -0.489219
v -0.241006 0.940951 -0.502049
v -0.240980 0.907949 -0.499374
v -0.258994 0.907975 -0.499374
v -0.258994 0.940951 -0.502049
v -0.295048 0.763931 -0.502186
v -0.280231 0.782577 -0.499374
v -0.255512 0.785739 -0.499374
v -0.272548 0.772901 -0.490139
v -0.284432 0.760661 -0.491410
v -0.500246 0.763673 -0.488268
v -0.500000 0.781895 -0.486655
v -0.487280 0.781895 -0.499374
v -0.489265 0.763673 -0.499248
v 0.000000 0.907975 -0.499374
v 0.000000 0.940951 -0.502049
v 0.000000 0.772901 -0.486655
v 0.000000 0.785621 -0.499374
v -0.500000 1.831725 -0.513633
v -0.487280 1.831871 -0.500789
v -0.487280 1.844445 -0.515425
v -0.241006 1.859377 -0.514563
v -0.258994 1.859377 -0.514563
v -0.258994 1.847655 -0.500919
v -0.241006 1.847655 -0.500919
v -0.241006 1.845733 -0.638657
v -0.258994 1.845733 -0.638657
v -0.258994 1.859377 -0.626935
v -0.241006 1.859377 -0.626935
v -0.487280 1.844445 -0.628017
v -0.486198 1.830801 -0.638657
v -0.500000 1.831725 -0.625931
v 0.000000 1.861297 -0.514563
v 0.000000 1.849575 -0.500919
v 0.000000 1.847653 -0.638657
v 0.000000 1.861297 -0.626935
v -0.495928 0.010437 -0.436310
v -0.495928 0.010437 -0.447843
v -0.487042 0.002282 -0.447843
v -0.487042 0.002282 -0.436310
v -0.330166 0.002282 -0.436310
v -0.330166 0.002282 -0.447843
v -0.321279 0.010437 -0.447843
v -0.321279 0.010437 -0.436310
v -0.487042 0.002282 -0.522418
v -0.495928 0.010437 -0.522418
v -0.487042 0.010437 -0.530573
v -0.330166 0.002282 -0.522418
v -0.330166 0.010437 -0.530573
v -0.321279 0.010437 -0.522418
v -0.330166 0.002282 -0.370090
v -0.321279 0.010437 -0.370090
v -0.330166 0.010437 -0.361934
v -0.487042 0.002282 -0.370090
v -0.487042 0.010437 -0.361934
v -0.495928 0.010437 -0.370090
v -0.290010 0.011173 0.419039
v -0.280380 0.011173 0.428667
v -0.290010 0.001546 0.428667
v -0.290010 0.001546 0.598647
v -0.280380 0.011173 0.598647
v -0.290010 0.011173 0.608275
v -0.459991 0.001546 0.598647
v -0.459991 0.011173 0.608275
v -0.469619 0.011173 0.598647
v -0.459991 0.001546 0.428667
v -0.469619 0.011173 0.428667
v -0.459991 0.011173 0.419039
v -0.488072 0.954038 -0.353259
v -0.258994 0.954065 -0.353361
v -0.241006 0.954065 -0.353361
v 0.000000 0.954065 -0.353361
v 0.487280 0.763907 0.638657
v 0.487280 0.781895 0.638657
v 0.500000 0.781895 0.625937
v 0.500000 0.763907 0.625937
v 0.250000 0.760417 0.626173
v 0.237752 0.772901 0.626409
v 0.241305 0.785198 0.638657
v 0.259675 0.782577 0.638657
v 0.262297 0.764206 0.638657
v 0.500000 0.904249 0.625937
v 0.487280 0.904249 0.638657
v 0.487280 0.916969 0.625937
v 0.258994 0.916969 0.625937
v 0.258994 0.904249 0.638657
v 0.241006 0.904249 0.638657
v 0.241006 0.916969 0.625937
v 0.500000 0.904249 0.397651
v 0.487280 0.916969 0.397651
v 0.487280 0.916969 0.379663
v 0.500000 0.904249 0.379663
v 0.258994 0.916969 0.379663
v 0.258994 0.916968 0.397651
v 0.241006 0.916968 0.397651
v 0.241006 0.916969 0.379663
v 0.487947 0.933847 -0.328760
v 0.488196 0.981597 -0.367691
v 0.500000 0.977991 -0.379813
v 0.500000 0.945521 -0.363880
v 0.500000 0.921745 -0.334325
v 0.241006 0.933847 -0.328955
v 0.241006 0.981650 -0.367699
v 0.258994 0.981650 -0.367699
v 0.258994 0.933847 -0.328955
v 0.284432 0.760457 -0.390794
v 0.272378 0.772901 -0.373133
v 0.272378 0.772901 -0.360186
v 0.284432 0.760457 -0.375266
v 0.500000 0.764206 0.400954
v 0.500000 0.782577 0.398333
v 0.500000 0.785739 0.379580
v 0.487516 0.772901 0.376173
v 0.487516 0.760418 0.388657
v 0.262247 0.760653 0.388657
v 0.258695 0.772901 0.376360
v 0.240324 0.772901 0.378981
v 0.237162 0.772901 0.397734
v 0.250000 0.760653 0.400905
v 0.487280 0.916969 -0.245337
v 0.500000 0.904249 -0.245337
v 0.500000 0.904249 -0.227349
v 0.487280 0.916969 -0.227349
v 0.258994 0.916969 -0.227349
v 0.241006 0.916969 -0.227349
v 0.241006 0.916969 -0.245337
v 0.258994 0.916969 -0.245337
v 0.500246 0.763673 -0.375266
v 0.500000 0.781895 -0.370977
v 0.500000 0.781895 -0.388965
v 0.500246 0.763673 -0.390794
v 0.489469 0.760661 -0.275123
v 0.489469 0.772901 -0.258448
v 0.500000 0.785198 -0.248469
v 0.500000 0.782577 -0.267537
v 0.500246 0.763931 -0.285739
v 0.284432 0.760864 -0.285696
v 0.272683 0.772901 -0.275911
v 0.274569 0.772901 -0.262688
v 0.288066 0.772901 -0.260413
v 0.295005 0.760864 -0.275123
v 0.487274 0.940981 -0.502054
v 0.487280 0.907949 -0.499374
v 0.500000 0.907964 -0.486639
v 0.500000 0.941038 -0.489219
v 0.241006 0.940951 -0.502049
v 0.240980 0.907949 -0.499374
v 0.258994 0.907975 -0.499374
v 0.258994 0.940951 -0.502049
v 0.295048 0.763931 -0.502186
v 0.280231 0.782577 -0.499374
v 0.255512 0.785739 -0.499374
v 0.272548 0.772901 -0.490139
v 0.284432 0.760661 -0.491410
v 0.500246 0.763673 -0.488268
v 0.500000 0.781895 -0.486655
v 0.487280 0.781895 -0.499374
v 0.489265 0.763673 -0.499248
v 0.500000 1.831725 -0.513633
v 0.487280 1.831871 -0.500789
v 0.487280 1.844445 -0.515425
v 0.241006 1.859377 -0.514563
v 0.258994 1.859377 -0.514563
v 0.258994 1.847655 -0.500919
v 0.241006 1.847655 -0.500919
v 0.241006 1.845733 -0.638657
v 0.258994 1.845733 -0.638657
v 0.258994 1.859377 -0.626935
v 0.241006 1.859377 -0.626935
v 0.487280 1.844445 -0.628017
v 0.486198 1.830801 -0.638657
v 0.500000 1.831725 -0.625931
v 0.495928 0.010437 -0.436310
v 0.495928 0.010437 -0.447843
v 0.487042 0.002282 -0.447843
v 0.487042 0.002282 -0.436310
v 0.330166 0.002282 -0.436310
v 0.330166 0.002282 -0.447843
v 0.321279 0.010437 -0.447843
v 0.321279 0.010437 -0.436310
v 0.487042 0.002282 -0.522418
v 0.495928 0.010437 -0.522418
v 0.487042 0.010437 -0.530573
v 0.330166 0.002282 -0.522418
v 0.330166 0.010437 -0.530573
v 0.321279 0.010437 -0.522418
v 0.330166 0.002282 -0.370090
v 0.321279 0.010437 -0.370090
v 0.330166 0.010437 -0.361934
v 0.487042 0.002282 -0.370090
v 0.487042 0.010437 -0.361934
v 0.495928 0.010437 -0.370090
v 0.290010 0.011173 0.419039
v 0.280380 0.011173 0.428667
v 0.290010 0.001546 0.428667
v 0.290010 0.001546 0.598647
v 0.280380 0.011173 0.598647
v 0.290010 0.011173 0.608275
v 0.459991 0.001546 0.598647
v 0.459991 0.011173 0.608275
v 0.469619 0.011173 0.598647
v 0.459991 0.001546 0.428667
v 0.469619 0.011173 0.428667
v 0.459991 0.011173 0.419039
v 0.488072 0.954038 -0.353259
v 0.258994 0.954065 -0.353361
v 0.241006 0.954065 -0.353361
vt 0.541519 0.281932
vt 0.537012 0.282055
vt 0.532794 0.091625
vt 0.536235 0.091510
vt 0.073356 0.336331
vt 0.072621 0.331888
vt 0.130620 0.326094
vt 0.132448 0.330422
vt 0.068906 0.337202
vt 0.078188 0.365124
vt 0.073910 0.366436
vt 0.038803 0.368141
vt 0.043317 0.368310
vt 0.042769 0.425477
vt 0.038166 0.424387
vt 0.601936 0.276922
vt 0.597683 0.278329
vt 0.579171 0.088355
vt 0.582607 0.087961
vt 0.138292 0.326000
vt 0.133990 0.324783
vt 0.135927 0.269438
vt 0.140319 0.268611
vt 0.137464 0.330575
vt 0.200219 0.326016
vt 0.200222 0.330440
vt 0.139189 0.361217
vt 0.134686 0.361491
vt 0.073555 0.369298
vt 0.078004 0.369366
vt 0.078062 0.425634
vt 0.073518 0.425645
vt 0.134860 0.366111
vt 0.139327 0.365881
vt 0.139744 0.423830
vt 0.135223 0.423964
vt 0.200213 0.360425
vt 0.200214 0.364967
vt 0.073529 0.430110
vt 0.043762 0.430232
vt 0.078050 0.430070
vt 0.135203 0.428524
vt 0.139723 0.428410
vt 0.200207 0.423257
vt 0.200206 0.427824
vt 0.073445 0.583743
vt 0.043293 0.587696
vt 0.135599 0.580896
vt 0.077978 0.583786
vt 0.140114 0.580773
vt 0.200186 0.579770
vt 0.080187 0.610601
vt 0.075596 0.611855
vt 0.073353 0.588453
vt 0.078072 0.588507
vt 0.674586 0.678840
vt 0.675766 0.671092
vt 0.732801 0.673362
vt 0.732386 0.681170
vt 0.670188 0.678457
vt 0.673938 0.896667
vt 0.669469 0.897125
vt 0.671989 0.669604
vt 0.641239 0.674094
vt 0.640519 0.665756
vt 0.079331 0.620253
vt 0.039213 0.621972
vt 0.039760 0.617554
vt 0.141145 0.606358
vt 0.136743 0.606482
vt 0.135761 0.585371
vt 0.140255 0.585232
vt 0.736927 0.681245
vt 0.737152 0.673448
vt 0.797663 0.674154
vt 0.797598 0.681971
vt 0.735642 0.901134
vt 0.731131 0.901093
vt 0.467076 0.566705
vt 0.463164 0.566870
vt 0.470322 0.377946
vt 0.473223 0.377815
vt 0.132404 0.073264
vt 0.128120 0.068662
vt 0.128507 0.043362
vt 0.132781 0.043808
vt 0.132349 0.076517
vt 0.200074 0.075140
vt 0.200076 0.079677
vt 0.128084 0.072529
vt 0.131579 0.097823
vt 0.127573 0.094763
vt 0.076657 0.103618
vt 0.127717 0.101741
vt 0.134673 0.262868
vt 0.077514 0.260598
vt 0.039203 0.589946
vt 0.039267 0.431220
vt 0.139334 0.263820
vt 0.131110 0.101179
vt 0.200095 0.110987
vt 0.200185 0.263892
vt 0.480545 0.281510
vt 0.476197 0.280337
vt 0.486455 0.091182
vt 0.489885 0.091342
vt 0.077192 0.265017
vt 0.133282 0.267089
vt 0.662737 0.266823
vt 0.658467 0.267769
vt 0.624898 0.086943
vt 0.628124 0.085661
vt 0.200187 0.268431
vt 0.042342 0.592346
vt 0.200186 0.584252
vt 0.577378 0.562993
vt 0.573473 0.563056
vt 0.556125 0.373850
vt 0.559024 0.373804
vt 0.035089 0.618200
vt 0.037275 0.596658
vt 0.352427 0.658151
vt 0.352555 0.662739
vt 0.327975 0.661116
vt 0.327965 0.656515
vt 0.603647 0.561675
vt 0.599891 0.562696
vt 0.575674 0.373540
vt 0.578702 0.373369
vt 0.076324 0.098444
vt 0.125401 0.097090
vt 0.200092 0.106469
vt 0.655775 0.554282
vt 0.652113 0.555139
vt 0.617793 0.368059
vt 0.620750 0.367382
vt 0.636675 0.674604
vt 0.641883 0.901488
vt 0.637204 0.901770
vt 0.636239 0.666265
vt 0.578980 0.675456
vt 0.578790 0.667161
vt 0.326121 0.692650
vt 0.321645 0.692349
vt 0.323413 0.660872
vt 0.574418 0.675511
vt 0.580256 0.905042
vt 0.575768 0.905096
vt 0.574271 0.667192
vt 0.513417 0.676197
vt 0.513305 0.667878
vt 0.265070 0.690205
vt 0.260618 0.690214
vt 0.264510 0.659526
vt 0.270866 0.658540
vt 0.496274 0.566220
vt 0.492423 0.565654
vt 0.491930 0.376539
vt 0.494955 0.376337
vt 0.275039 0.654008
vt 0.324125 0.656315
vt 0.137054 0.039931
vt 0.200054 0.041362
vt 0.200056 0.045892
vt 0.548961 0.563451
vt 0.545057 0.563550
vt 0.534343 0.374227
vt 0.537375 0.374147
vt 0.643108 0.934659
vt 0.638667 0.934082
vt 0.636959 0.906066
vt 0.641433 0.905700
vt 0.639682 0.938784
vt 0.581948 0.942279
vt 0.581525 0.937755
vt 0.576953 0.937947
vt 0.577168 0.942472
vt 0.516010 0.943980
vt 0.515957 0.939452
vt 0.575826 0.909651
vt 0.580235 0.909550
vt 0.515641 0.911042
vt 0.515591 0.906505
vt 0.468220 0.331887
vt 0.468489 0.334906
vt 0.451738 0.336462
vt 0.451083 0.333539
vt 0.471379 0.334786
vt 0.471361 0.331707
vt 0.490735 0.331903
vt 0.490332 0.334833
vt 0.473070 0.374785
vt 0.470230 0.374897
vt 0.453678 0.378189
vt 0.453960 0.375232
vt 0.491396 0.373587
vt 0.493213 0.334478
vt 0.494257 0.373790
vt 0.451092 0.375669
vt 0.448871 0.336346
vt 0.624971 0.084315
vt 0.629116 0.042992
vt 0.632555 0.043065
vt 0.583180 0.084244
vt 0.579759 0.084393
vt 0.583282 0.039915
vt 0.586598 0.040556
vt 0.586505 0.037119
vt 0.629864 0.039710
vt 0.200102 0.690236
vt 0.200102 0.659469
vt 0.356273 0.704121
vt 0.796185 0.902136
vt 0.200184 0.605658
vt 0.440664 0.567920
vt 0.419749 0.275410
vt 0.443794 0.087474
vt 0.068108 0.332730
vt 0.036380 0.428186
vt 0.034630 0.622011
vt 0.035848 0.593422
vt 0.268459 0.655380
vt 0.271563 0.652480
vt 0.082251 0.618445
vt 0.137360 0.614329
vt 0.141497 0.614274
vt 0.200182 0.613633
vt 0.823465 0.280190
vt 0.822488 0.090242
vt 0.825901 0.090200
vt 0.828011 0.280126
vt 0.327094 0.336355
vt 0.267986 0.330414
vt 0.269817 0.326088
vt 0.327830 0.331912
vt 0.331544 0.337228
vt 0.326527 0.366464
vt 0.322251 0.365145
vt 0.361617 0.368176
vt 0.362242 0.424420
vt 0.357638 0.425508
vt 0.357103 0.368344
vt 0.762168 0.277635
vt 0.776565 0.089704
vt 0.779956 0.089079
vt 0.766534 0.278869
vt 0.262144 0.325966
vt 0.260057 0.268550
vt 0.264451 0.269373
vt 0.266448 0.324756
vt 0.262972 0.330545
vt 0.265752 0.361491
vt 0.261244 0.361211
vt 0.326865 0.369325
vt 0.326889 0.425671
vt 0.322345 0.425655
vt 0.322415 0.369386
vt 0.265567 0.366108
vt 0.265189 0.423973
vt 0.260666 0.423841
vt 0.261105 0.365881
vt 0.356643 0.430263
vt 0.326877 0.430135
vt 0.322357 0.430091
vt 0.265206 0.428536
vt 0.260686 0.428422
vt 0.357081 0.587725
vt 0.326930 0.583772
vt 0.322397 0.583811
vt 0.264775 0.580912
vt 0.260260 0.580789
vt 0.320179 0.610626
vt 0.322298 0.588532
vt 0.327016 0.588481
vt 0.324770 0.611880
vt 0.920373 0.681052
vt 0.862745 0.682310
vt 0.862472 0.674495
vt 0.919352 0.673277
vt 0.924749 0.680761
vt 0.923266 0.899141
vt 0.918775 0.898614
vt 0.923161 0.671852
vt 0.954641 0.668810
vt 0.953549 0.677091
vt 0.360606 0.617586
vt 0.361151 0.622004
vt 0.321034 0.620278
vt 0.259223 0.606373
vt 0.260118 0.585247
vt 0.264610 0.585388
vt 0.263625 0.606500
vt 0.858214 0.682303
vt 0.858123 0.674504
vt 0.861320 0.902135
vt 0.856798 0.902103
vt 0.872413 0.560983
vt 0.860706 0.372357
vt 0.863609 0.372403
vt 0.876327 0.561034
vt 0.267740 0.073186
vt 0.267329 0.043731
vt 0.271603 0.043280
vt 0.272020 0.068579
vt 0.267799 0.076439
vt 0.272060 0.072447
vt 0.272596 0.094681
vt 0.268593 0.097745
vt 0.323522 0.103473
vt 0.322853 0.260459
vt 0.265697 0.262796
vt 0.272460 0.101655
vt 0.361170 0.589980
vt 0.361139 0.431255
vt 0.261037 0.263757
vt 0.269067 0.101101
vt 0.884722 0.277206
vt 0.868509 0.087991
vt 0.871916 0.087679
vt 0.889038 0.275851
vt 0.323181 0.264877
vt 0.267092 0.267016
vt 0.701091 0.268672
vt 0.731553 0.083628
vt 0.734677 0.085106
vt 0.705382 0.269542
vt 0.358027 0.592376
vt 0.762049 0.560521
vt 0.774824 0.370874
vt 0.777723 0.370834
vt 0.765954 0.560469
vt 0.363094 0.596690
vt 0.365276 0.618232
vt 0.047777 0.658151
vt 0.072240 0.656515
vt 0.072230 0.661117
vt 0.047650 0.662739
vt 0.735752 0.559977
vt 0.755142 0.371018
vt 0.758174 0.371100
vt 0.739537 0.560888
vt 0.274770 0.097002
vt 0.323850 0.098299
vt 0.683429 0.554123
vt 0.712936 0.366272
vt 0.715912 0.366862
vt 0.687114 0.554871
vt 0.958063 0.677721
vt 0.955708 0.904269
vt 0.950992 0.903919
vt 0.390327 0.669682
vt 0.447804 0.668672
vt 0.447929 0.676989
vt 0.390466 0.678017
vt 0.074083 0.692650
vt 0.076792 0.660872
vt 0.078560 0.692349
vt 0.452477 0.676935
vt 0.455350 0.906572
vt 0.450851 0.906600
vt 0.452368 0.668609
vt 0.135134 0.690205
vt 0.129339 0.658540
vt 0.135695 0.659526
vt 0.139586 0.690214
vt 0.843212 0.561359
vt 0.838939 0.371520
vt 0.841970 0.371632
vt 0.847045 0.560680
vt 0.076080 0.656315
vt 0.125165 0.654008
vt 0.263052 0.039858
vt 0.790467 0.560142
vt 0.796474 0.370579
vt 0.799506 0.370569
vt 0.794372 0.560126
vt 0.388562 0.937696
vt 0.389571 0.908748
vt 0.394054 0.909002
vt 0.392989 0.937020
vt 0.450313 0.939329
vt 0.449985 0.943862
vt 0.392078 0.941744
vt 0.454898 0.939444
vt 0.454770 0.943972
vt 0.450990 0.911111
vt 0.455406 0.911123
vt 0.393672 0.904725
vt 0.864357 0.326301
vt 0.881536 0.327450
vt 0.880966 0.330391
vt 0.864176 0.329327
vt 0.861283 0.329290
vt 0.842340 0.329897
vt 0.841851 0.326980
vt 0.861211 0.326212
vt 0.863612 0.369350
vt 0.860771 0.369325
vt 0.879884 0.369207
vt 0.880253 0.372155
vt 0.842418 0.368666
vt 0.839564 0.368953
vt 0.839451 0.329627
vt 0.883828 0.330191
vt 0.882764 0.369560
vt 0.736259 0.038840
vt 0.739648 0.039492
vt 0.735012 0.082466
vt 0.776837 0.087067
vt 0.782910 0.045616
vt 0.786285 0.045835
vt 0.739649 0.036125
vt 0.783766 0.042297
vt 0.043931 0.704121
vt 0.898849 0.561421
vt 0.914299 0.082101
vt 0.945305 0.268497
vt 0.332343 0.332756
vt 0.364027 0.428221
vt 0.365735 0.622044
vt 0.364521 0.593454
vt 0.959058 0.669560
vt 0.128642 0.652480
vt 0.131746 0.655380
vt 0.318114 0.618470
vt 0.263007 0.614347
vt 0.258868 0.614289
vn -0.707104 0.000000 0.707110
vn -0.707104 0.000000 0.707110
vn -0.707104 0.000000 0.707110
vn -0.707104 0.000000 0.707110
vn 0.000000 0.000000 1.000000
vn 0.000000 0.000000 1.000000
vn 0.000000 0.000000 1.000000
vn 0.000000 0.000000 1.000000
vn -0.707103 0.000000 0.707110
vn -0.707103 0.000000 0.707110
vn -0.707103 0.000000 0.707110
vn -0.707103 0.000000 0.707110
vn -1.000000 0.000000 0.000000
vn -1.000000 0.000000 0.000000
vn -1.000000 0.000000 0.000000
vn -1.000000 0.000000 0.000000
vn 0.709709 -0.000311 0.704495
vn 0.709709 -0.000311 0.704495
vn 0.709709 -0.000311 0.704495
vn 0.709709 -0.000311 0.704495
vn 0.702120 -0.712058 0.000542
vn 0.702120 -0.712058 0.000542
vn 0.672411 -0.738429 -0.050856
vn 0.671260 -0.739342 -0.052748
vn 0.055421 -0.675051 0.735687
vn 0.050530 -0.678016 0.733308
vn 0.001271 -0.706376 0.707835
vn 0.001271 -0.706376 0.707835
vn 0.000000 0.000000 1.000000
vn 0.000000 0.000000 1.000000
vn 0.000000 0.000000 1.000000
vn 0.000000 0.000000 1.000000
vn -0.707099 0.707114 0.000000
vn -0.707099 0.707114 0.000000
vn -0.707099 0.707114 0.000000
vn -0.707099 0.707114 0.000000
vn 0.000000 0.707112 0.707101
vn 0.000000 0.707112 0.707101
vn 0.000000 0.707113 0.707101
vn 0.000000 0.707113 0.707101
vn 0.000000 1.000000 -0.000001
vn 0.000000 1.000000 -0.000001
vn 0.000000 1.000000 0.000000
vn 0.000000 1.000000 0.000000
vn 0.000000 0.707110 0.707104
vn 0.000000 0.707110 0.707104
vn 0.000000 0.707109 0.707105
vn 0.000000 0.707109 0.707105
vn -1.000000 0.000000 0.000000
vn -1.000000 0.000000 0.000000
vn -1.000000 0.000000 0.000000
vn -1.000000 0.000000 0.000000
vn 0.000000 1.000000 0.000001
vn 0.000001 1.000000 0.000000
vn 0.000000 1.000000 0.000000
vn 0.000000 1.000000 0.000001
vn 0.000000 1.000000 0.000001
vn 0.000000 1.000000 0.000000
vn 0.000000 1.000000 -0.000001
vn 0.000000 1.000000 0.000001
vn -1.000000 0.000000 0.000000
vn -1.000000 0.000000 0.000000
vn -1.000000 0.000000 0.000000
vn -1.000000 0.000000 0.000000
vn 0.000000 1.000000 0.000001
vn 0.000000 1.000000 0.000001
vn 0.000000 1.000000 0.000000
vn 0.000000 1.000000 0.000000
vn -0.707093 0.707121 0.000000
vn -0.707087 0.707127 0.000000
vn -0.707087 0.707127 0.000000
vn -0.707093 0.707121 0.000000
vn 0.000000 1.000000 0.000000
vn 0.000000 1.000000 0.000000
vn 0.000000 1.000000 0.000001
vn 0.000000 1.000000 0.000001
vn 0.000000 1.000000 0.000000
vn 0.000000 1.000000 0.000001
vn 0.000000 1.000000 0.000001
vn 0.000000 1.000000 0.000000
vn -0.752880 0.651856 0.090860
vn -0.756750 0.646025 0.099903
vn -0.710266 0.703926 0.003111
vn -0.710266 0.703927 0.003110
vn 0.000199 0.761422 0.648256
vn 0.000255 0.630381 0.776286
vn 0.000256 0.630705 0.776023
vn 0.000185 0.761211 0.648504
vn -0.720394 0.116553 0.683701
vn -0.721380 0.118302 0.682360
vn -0.714335 0.105948 0.691737
vn -0.714335 0.105948 0.691737
vn -1.000000 0.000000 0.000000
vn -1.000000 0.000001 0.000000
vn -1.000000 0.000001 0.000000
vn -1.000000 0.000000 0.000000
vn -1.000000 0.000002 0.000000
vn -1.000000 0.000000 0.000000
vn -1.000000 0.000000 0.000000
vn -1.000000 0.000002 0.000000
vn 0.000000 1.000000 0.000000
vn 0.000000 1.000000 0.000000
vn 0.000000 1.000000 0.000000
vn 0.000000 1.000000 0.000000
vn 0.000000 0.758504 0.651668
vn 0.000000 0.629657 0.776873
vn 0.000000 0.629657 0.776873
vn 0.000000 0.758504 0.651668
vn 0.000000 0.150676 0.988583
vn 0.000000 0.150676 0.988583
vn 0.000000 0.150676 0.988583
vn 0.000000 0.150676 0.988583
vn 1.000000 0.000000 0.000000
vn 1.000000 -0.000001 0.000000
vn 1.000000 -0.000001 0.000000
vn 1.000000 0.000000 0.000000
vn 0.707114 -0.707098 -0.001239
vn 0.707114 -0.707098 -0.001239
vn 0.707115 -0.707097 -0.001432
vn 0.707115 -0.707097 -0.001432
vn 0.000000 -1.000000 0.000000
vn 0.000000 -1.000000 0.000000
vn 0.000000 -1.000000 0.000000
vn 0.000000 -1.000000 0.000000
vn 0.706345 -0.707863 0.002554
vn 0.706345 -0.707863 0.002554
vn 0.642804 -0.758790 0.105074
vn 0.648677 -0.754937 0.096381
vn 0.000000 -1.000000 0.000000
vn 0.000000 -1.000000 0.000000
vn 0.000000 -1.000000 0.000000
vn 0.000000 -1.000000 0.000000
vn -0.754335 -0.649250 0.097229
vn -0.737323 -0.673642 -0.050614
vn -0.738820 -0.671753 -0.053789
vn -0.757849 -0.643870 0.105342
vn 0.000000 -1.000000 0.000000
vn 0.000000 -1.000000 0.000000
vn 0.000000 -1.000000 0.000000
vn 0.000000 -1.000000 0.000000
vn 0.000000 -1.000000 0.000000
vn 0.000000 -1.000000 0.000000
vn 0.000000 -1.000000 0.000000
vn 0.000000 -1.000000 0.000000
vn -0.704491 -0.000311 -0.709713
vn -0.704491 -0.000311 -0.709713
vn -0.704491 -0.000311 -0.709713
vn -0.704491 -0.000311 -0.709713
vn 0.000659 -0.707852 -0.706360
vn 0.000659 -0.707852 -0.706360
vn 0.055913 -0.736807 -0.673787
vn 0.050552 -0.734152 -0.677101
vn 0.707108 -0.000446 -0.707106
vn 0.707108 -0.000446 -0.707106
vn 0.707108 -0.000446 -0.707106
vn 0.707108 -0.000446 -0.707106
vn 0.000000 -1.000000 0.000000
vn 0.000000 -1.000000 0.000000
vn 0.000000 -1.000000 0.000000
vn 0.000000 -1.000000 0.000000
vn 0.000000 1.000000 0.000000
vn 0.000000 1.000000 0.000000
vn 0.000000 1.000000 0.000000
vn 0.000000 1.000000 0.000000
vn -1.000000 0.000000 0.000000
vn -1.000000 0.000002 0.000000
vn -1.000000 0.000002 0.000000
vn -1.000000 0.000000 0.000000
vn 0.000000 1.000000 0.000000
vn 0.000000 1.000000 0.000000
vn 0.000000 1.000000 0.000000
vn 0.000000 1.000000 0.000000
vn -1.000000 0.000000 0.000000
vn -1.000000 0.000000 0.000000
vn -1.000000 0.000000 0.000000
vn -1.000000 0.000000 0.000000
vn -1.000000 0.000002 0.000000
vn -1.000000 0.000000 0.000000
vn -1.000000 0.000000 0.000000
vn -1.000000 0.000002 0.000000
vn -1.000000 0.000000 0.000000
vn -1.000000 0.000000 0.000000
vn -1.000000 0.000000 0.000000
vn -1.000000 0.000000 0.000000
vn -0.704492 -0.000311 0.709712
vn -0.704492 -0.000311 0.709712
vn -0.704492 -0.000311 0.709712
vn -0.704492 -0.000311 0.709712
vn -0.000542 -0.712078 0.702100
vn -0.000542 -0.712078 0.702100
vn 0.050856 -0.738446 0.672392
vn 0.052746 -0.739358 0.671244
vn 0.000000 -1.000000 0.000000
vn 0.000000 -1.000000 0.000000
vn 0.000000 -1.000000 0.000000
vn 0.000000 -1.000000 0.000000
vn 0.707108 -0.000446 0.707105
vn 0.707108 -0.000446 0.707105
vn 0.707108 -0.000446 0.707105
vn 0.707108 -0.000446 0.707105
vn -0.692145 -0.107406 -0.713722
vn -0.692208 -0.107199 -0.713692
vn -0.691846 -0.108386 -0.713864
vn -0.691846 -0.108386 -0.713864
vn 0.000001 -0.009459 -0.999955
vn 0.000000 -0.149234 -0.988802
vn 0.000000 -0.149235 -0.988802
vn 0.000001 -0.009484 -0.999955
vn -0.707504 -0.006199 -0.706682
vn -0.707513 -0.006556 -0.706670
vn -0.707297 0.000038 -0.706917
vn -0.707297 0.000038 -0.706917
vn 0.000000 -0.149239 -0.988801
vn 0.000000 -0.149235 -0.988802
vn 0.000000 -0.150676 -0.988583
vn 0.000000 -0.150676 -0.988583
vn 0.000000 -0.009654 -0.999953
vn 0.000000 -0.149239 -0.988801
vn 0.000000 -0.149238 -0.988801
vn 0.000000 -0.009670 -0.999953
vn 0.000001 -0.009484 -0.999955
vn 0.000000 -0.009654 -0.999953
vn 0.000000 0.000000 -1.000000
vn 0.000000 0.000000 -1.000000
vn 0.709710 -0.000311 -0.704494
vn 0.709710 -0.000311 -0.704494
vn 0.709710 -0.000311 -0.704494
vn 0.709710 -0.000311 -0.704494
vn 0.000000 0.000000 -1.000000
vn 0.000000 0.000000 -1.000000
vn 0.000000 0.000000 -1.000000
vn 0.000000 0.000000 -1.000000
vn 0.050613 -0.673645 -0.737320
vn 0.053788 -0.671757 -0.738816
vn 0.000171 -0.702508 -0.711676
vn 0.000171 -0.702509 -0.711675
vn -0.707103 0.000000 -0.707110
vn -0.707103 0.000000 -0.707110
vn -0.707103 0.000000 -0.707110
vn -0.707103 0.000000 -0.707110
vn -0.707119 0.707095 0.000000
vn -0.707119 0.707095 0.000000
vn -0.707119 0.707095 0.000000
vn -0.707119 0.707095 0.000000
vn -0.002461 0.758520 0.651645
vn -0.002461 0.758520 0.651645
vn -0.002287 0.758520 0.651646
vn -0.002287 0.758520 0.651646
vn 0.000000 0.758522 0.651648
vn 0.000000 0.758522 0.651648
vn 0.000000 0.758522 0.651648
vn 0.000000 0.758522 0.651648
vn 0.000000 1.000000 0.000000
vn 0.000000 1.000000 0.000000
vn 0.000000 1.000000 0.000000
vn 0.000000 1.000000 0.000000
vn 0.000000 0.651675 -0.758498
vn 0.000000 0.651675 -0.758498
vn 0.000000 0.651675 -0.758498
vn 0.000000 0.651675 -0.758498
vn 0.001700 0.635229 -0.772322
vn 0.001701 0.635226 -0.772324
vn 0.001838 0.633889 -0.773422
vn 0.001838 0.633889 -0.773422
vn -0.707108 -0.707106 0.000000
vn -0.707108 -0.707106 0.000000
vn -0.707108 -0.707105 0.000000
vn -0.707108 -0.707105 0.000000
vn -0.707106 -0.707107 0.000000
vn -0.707106 -0.707107 0.000000
vn -0.707106 -0.707107 0.000000
vn -0.707106 -0.707107 0.000000
vn 0.000000 -1.000000 0.000000
vn 0.000000 -1.000000 0.000000
vn 0.000000 -1.000000 0.000000
vn 0.000000 -1.000000 0.000000
vn 0.707107 -0.707107 0.000000
vn 0.707107 -0.707107 0.000000
vn 0.707109 -0.707105 0.000000
vn 0.707109 -0.707105 0.000000
vn 0.707092 -0.707121 0.000000
vn 0.707092 -0.707121 0.000000
vn 0.707092 -0.707122 0.000000
vn 0.707092 -0.707122 0.000000
vn 0.000000 -0.707107 -0.707107
vn 0.000000 -0.707107 -0.707107
vn 0.000000 -0.707107 -0.707107
vn 0.000000 -0.707107 -0.707107
vn 0.000000 -0.707107 0.707106
vn 0.000000 -0.707107 0.707106
vn 0.000000 -0.707107 0.707106
vn 0.000000 -0.707107 0.707106
vn 0.000000 -0.707107 -0.707107
vn 0.000000 -0.707107 -0.707107
vn 0.000000 -0.707107 -0.707107
vn 0.000000 -0.707107 -0.707107
vn 0.707098 -0.707115 0.000000
vn 0.707098 -0.707115 0.000000
vn 0.707098 -0.707115 0.000000
vn 0.707098 -0.707115 0.000000
vn 0.000000 -0.707107 0.707107
vn 0.000000 -0.707107 0.707107
vn 0.000000 -0.707107 0.707107
vn 0.000000 -0.707107 0.707107
vn -0.707098 -0.707115 0.000000
vn -0.707098 -0.707115 0.000000
vn -0.707098 -0.707115 0.000000
vn -0.707098 -0.707115 0.000000
vn 0.000000 0.000000 1.000000
vn 0.000000 0.000000 1.000000
vn 0.000000 0.000000 1.000000
vn 0.000000 0.000000 1.000000
vn 0.000000 0.000000 1.000000
vn 0.000000 0.000000 1.000000
vn 0.000000 0.000000 1.000000
vn 0.000000 0.000000 1.000000
vn 0.000001 1.000000 -0.000001
vn 0.000000 1.000000 -0.000001
vn 0.000000 1.000000 0.000000
vn 0.000001 1.000000 0.000000
vn 0.000000 1.000000 -0.000001
vn 0.000000 1.000000 -0.000001
vn 0.000000 1.000000 -0.000001
vn 0.000000 1.000000 0.000000
vn 0.000001 -0.009459 -0.999955
vn 0.000001 -0.009484 -0.999955
vn 0.000000 0.000000 -1.000000
vn 0.000000 0.000000 -1.000000
vn 0.000000 -0.009654 -0.999953
vn 0.000000 -0.009670 -0.999953
vn 0.000000 0.000000 -1.000000
vn 0.000000 0.000000 -1.000000
vn 0.000000 -1.000000 0.000000
vn 0.000000 -1.000000 0.000000
vn 0.000000 -1.000000 0.000000
vn 0.000000 -1.000000 0.000000
vn 0.000000 -1.000000 0.000000
vn 0.000000 -1.000000 0.000000
vn 0.000000 -1.000000 0.000000
vn 0.000000 -1.000000 0.000000
vn -1.000000 0.000000 0.000000
vn -1.000000 0.000000 0.000000
vn -1.000000 0.000000 0.000000
vn -1.000000 0.000000 0.000000
vn 0.000000 1.000000 0.000000
vn 0.000000 1.000000 0.000000
vn 0.000000 1.000000 0.000000
vn 0.000000 1.000000 0.000000
vn 0.000000 -1.000000 0.000000
vn 0.000000 -1.000000 0.000000
vn 0.000000 -1.000000 0.000000
vn 0.000000 -1.000000 0.000000
vn -1.000000 0.000000 0.000000
vn -1.000000 0.000000 0.000000
vn -1.000000 0.000000 0.000000
vn -1.000000 0.000000 0.000000
vn 0.000000 1.000000 0.000000
vn 0.000000 1.000000 0.000000
vn 0.000000 1.000000 0.000000
vn 0.000000 1.000000 0.000000
vn 0.000000 -1.000000 0.000000
vn 0.000000 -1.000000 0.000000
vn 0.000000 -1.000000 0.000000
vn 0.000000 -1.000000 0.000000
vn 0.000000 0.150676 0.988583
vn 0.000000 0.150676 0.988583
vn 0.000000 0.150676 0.988583
vn 0.000000 0.150676 0.988583
vn 0.000000 -0.149235 -0.988802
vn 0.000000 -0.149234 -0.988802
vn 0.000000 -0.150676 -0.988583
vn 0.000000 -0.150676 -0.988583
vn -1.000000 0.000001 0.000000
vn -1.000000 0.000001 0.000000
vn -1.000000 0.000001 0.000000
vn -1.000000 0.000001 0.000000
vn 0.000000 0.150676 0.988583
vn 0.000000 0.150676 0.988583
vn 0.000000 0.150676 0.988583
vn 0.000000 0.150676 0.988583
vn 0.000000 -0.149238 -0.988801
vn 0.000000 -0.149239 -0.988801
vn 0.000000 -0.150676 -0.988583
vn 0.000000 -0.150676 -0.988583
vn 0.000000 -1.000000 0.000000
vn 0.000000 -1.000000 0.000000
vn 0.000000 -1.000000 0.000000
vn 0.000000 -1.000000 0.000000
vn 0.000000 -1.000000 0.000000
vn 0.000000 -1.000000 0.000000
vn 0.000000 -1.000000 0.000000
vn 0.000000 -1.000000 0.000000
vn -1.000000 0.000002 0.000000
vn -1.000000 0.000002 0.000000
vn -1.000000 0.000002 0.000000
vn -1.000000 0.000002 0.000000
vn 0.000000 1.000000 0.000000
vn 0.000000 1.000000 0.000000
vn 0.000000 1.000000 0.000000
vn 0.000000 1.000000 0.000000
vn 0.000000 1.000000 0.000000
vn 0.000000 1.000000 0.000000
vn 0.000000 1.000000 0.000000
vn 0.000000 1.000000 0.000000
vn -1.000000 0.000000 0.000000
vn -1.000000 0.000000 0.000000
vn -1.000000 0.000000 0.000000
vn -1.000000 0.000000 0.000000
vn 0.000000 0.000000 -1.000000
vn 0.000000 0.000000 -1.000000
vn 0.000000 0.000000 -1.000000
vn 0.000000 0.000000 -1.000000
vn 1.000000 0.000000 0.000000
vn 1.000000 0.000000 0.000000
vn 1.000000 0.000000 0.000000
vn 1.000000 0.000000 0.000000
vn 1.000000 -0.000001 0.000000
vn 1.000000 -0.000001 0.000000
vn 1.000000 -0.000001 0.000000
vn 1.000000 -0.000001 0.000000
vn -0.000001 0.000000 1.000000
vn -0.000001 0.000000 1.000000
vn -0.000001 0.000000 1.000000
vn -0.000001 0.000000 1.000000
vn -1.000000 0.000000 0.000000
vn -1.000000 0.000000 0.000000
vn -1.000000 0.000000 0.000000
vn -1.000000 0.000000 0.000000
vn 1.000000 0.000000 0.000000
vn 1.000000 0.000000 0.000000
vn 1.000000 0.000000 0.000000
vn 1.000000 0.000000 0.000000
vn 0.000000 0.000000 1.000000
vn 0.000000 0.000000 1.000000
vn 0.000000 0.000000 1.000000
vn 0.000000 0.000000 1.000000
vn -1.000000 0.000000 0.000000
vn -1.000000 0.000000 0.000000
vn -1.000000 0.000000 0.000000
vn -1.000000 0.000000 0.000000
vn 0.000000 0.000000 -1.000000
vn 0.000000 0.000000 -1.000000
vn 0.000000 0.000000 -1.000000
vn 0.000000 0.000000 -1.000000
vn -0.707104 0.000000 0.707110
vn -0.707103 0.000000 0.707110
vn -0.707103 0.000000 0.707110
vn -0.707104 0.000000 0.707110
vn 0.395503 -0.396317 0.828559
vn 0.050530 -0.678016 0.733308
vn 0.055421 -0.675051 0.735687
vn 0.395503 -0.396317 0.828559
vn 0.395503 -0.396317 0.828559
vn -0.577335 0.577385 0.577331
vn -0.577335 0.577385 0.577331
vn -0.577335 0.577385 0.577331
vn 0.000000 0.707113 0.707101
vn 0.000000 0.707113 0.707101
vn 0.000000 0.707110 0.707104
vn 0.000000 0.707110 0.707104
vn -0.707099 0.707114 0.000000
vn -0.707099 0.707114 0.000000
vn -0.707093 0.707121 0.000000
vn -0.707093 0.707121 0.000000
vn 0.000000 1.000000 0.000001
vn 0.000000 1.000000 0.000000
vn 0.000000 1.000000 0.000000
vn 0.000000 1.000000 0.000001
vn -0.826349 0.416878 0.378629
vn -0.744086 0.421066 0.518690
vn -0.721380 0.118302 0.682360
vn -0.720394 0.116553 0.683701
vn 0.000000 0.629657 0.776873
vn 0.000000 0.629657 0.776873
vn 0.000000 0.758504 0.651668
vn 0.000185 0.761211 0.648504
vn 0.707114 -0.707098 -0.001239
vn 0.707114 -0.707098 -0.001239
vn 0.706345 -0.707863 0.002554
vn 0.706345 -0.707863 0.002554
vn -0.828010 -0.395553 -0.397413
vn -0.828010 -0.395553 -0.397413
vn -0.738820 -0.671753 -0.053789
vn -0.737323 -0.673642 -0.050614
vn -0.828010 -0.395553 -0.397413
vn 0.050552 -0.734152 -0.677101
vn 0.055913 -0.736807 -0.673787
vn 0.392121 -0.831282 -0.393970
vn 0.671260 -0.739342 -0.052748
vn 0.672411 -0.738429 -0.050856
vn -0.710266 0.703927 0.003110
vn -0.710266 0.703926 0.003111
vn -0.707087 0.707127 0.000000
vn -0.707087 0.707127 0.000000
vn 0.000000 1.000000 0.000000
vn 0.000000 1.000000 0.000000
vn 0.000000 1.000000 0.000000
vn 0.000000 1.000000 0.000000
vn -1.000000 0.000000 0.000000
vn -1.000000 0.000002 0.000000
vn -1.000000 0.000000 0.000000
vn -1.000000 0.000000 0.000000
vn -0.828555 -0.396331 0.395498
vn -0.754335 -0.649250 0.097229
vn -0.757849 -0.643870 0.105342
vn -0.828555 -0.396331 0.395498
vn -0.828555 -0.396331 0.395498
vn 0.648677 -0.754937 0.096381
vn 0.642804 -0.758790 0.105074
vn 0.393973 -0.831277 0.392127
vn 0.052746 -0.739358 0.671244
vn 0.050856 -0.738446 0.672392
vn -0.692145 -0.107406 -0.713722
vn -0.707513 -0.006556 -0.706670
vn -0.707504 -0.006199 -0.706682
vn -0.692208 -0.107199 -0.713692
vn 0.000000 -0.149239 -0.988801
vn 0.000000 -0.009654 -0.999953
vn 0.000001 -0.009484 -0.999955
vn 0.000000 -0.149235 -0.988802
vn 0.397410 -0.395564 -0.828006
vn 0.397410 -0.395564 -0.828006
vn 0.053788 -0.671757 -0.738816
vn 0.050613 -0.673645 -0.737320
vn 0.397410 -0.395564 -0.828006
vn -0.707103 0.000000 -0.707110
vn -0.707297 0.000038 -0.706917
vn -0.707297 0.000038 -0.706917
vn -0.707103 0.000000 -0.707110
vn -0.554718 0.631145 0.542165
vn -0.554718 0.631146 0.542165
vn -0.554718 0.631145 0.542165
vn 0.000000 0.758522 0.651648
vn -0.002287 0.758520 0.651646
vn -0.002287 0.758520 0.651646
vn 0.000000 0.758522 0.651648
vn 0.000000 0.651675 -0.758498
vn 0.001701 0.635226 -0.772324
vn 0.001700 0.635229 -0.772322
vn 0.000000 0.651675 -0.758498
vn -0.580465 0.471620 -0.663803
vn -0.580465 0.471620 -0.663804
vn -0.580465 0.471620 -0.663804
vn -0.707108 -0.707106 0.000000
vn -0.707106 -0.707107 0.000000
vn -0.707106 -0.707107 0.000000
vn -0.707108 -0.707106 0.000000
vn 0.707107 -0.707107 0.000000
vn 0.707092 -0.707121 0.000000
vn 0.707092 -0.707121 0.000000
vn 0.707107 -0.707107 0.000000
vn -0.577339 -0.577372 -0.577339
vn -0.577339 -0.577372 -0.577339
vn -0.577339 -0.577372 -0.577339
vn 0.577339 -0.577372 -0.577339
vn 0.577339 -0.577372 -0.577339
vn 0.577339 -0.577372 -0.577339
vn 0.577337 -0.577374 0.577340
vn 0.577337 -0.577374 0.577340
vn 0.577337 -0.577374 0.577340
vn -0.577335 -0.577375 0.577341
vn -0.577335 -0.577375 0.577341
vn -0.577335 -0.577375 0.577341
vn 0.577336 -0.577374 -0.577341
vn 0.577336 -0.577374 -0.577341
vn 0.577336 -0.577374 -0.577341
vn 0.577337 -0.577374 0.577340
vn 0.577337 -0.577374 0.577340
vn 0.577337 -0.577374 0.577340
vn -0.577337 -0.577374 0.577340
vn -0.577337 -0.577374 0.577340
vn -0.577337 -0.577374 0.577340
vn -0.577336 -0.577374 -0.577341
vn -0.577336 -0.577374 -0.577341
vn -0.577336 -0.577374 -0.577341
vn -0.752880 0.651856 0.090860
vn -0.744086 0.421066 0.518690
vn -0.826349 0.416878 0.378629
vn -0.756750 0.646025 0.099903
vn 0.000256 0.630705 0.776023
vn 0.000255 0.630381 0.776286
vn 0.000199 0.761422 0.648256
vn 0.000185 0.761211 0.648504
vn 0.000000 0.758504 0.651668
vn 0.000000 0.629657 0.776873
vn 0.000000 0.629657 0.776873
vn 0.000185 0.761211 0.648504
vn 0.000000 0.629657 0.776873
vn 0.000000 0.629657 0.776873
vn 0.000000 0.758504 0.651668
vn 0.000000 0.758504 0.651668
vn 0.707104 0.000000 0.707110
vn 0.707104 0.000000 0.707110
vn 0.707104 0.000000 0.707110
vn 0.707104 0.000000 0.707110
vn 0.000000 0.000000 1.000000
vn 0.000000 0.000000 1.000000
vn 0.000000 0.000000 1.000000
vn 0.000000 0.000000 1.000000
vn 0.707103 0.000000 0.707110
vn 0.707103 0.000000 0.707110
vn 0.707103 0.000000 0.707110
vn 0.707103 0.000000 0.707110
vn 1.000000 0.000000 0.000000
vn 1.000000 0.000000 0.000000
vn 1.000000 0.000000 0.000000
vn 1.000000 0.000000 0.000000
vn -0.709709 -0.000311 0.704495
vn -0.709709 -0.000311 0.704495
vn -0.709709 -0.000311 0.704495
vn -0.709709 -0.000311 0.704495
vn -0.702120 -0.712058 0.000542
vn -0.671260 -0.739342 -0.052748
vn -0.672411 -0.738429 -0.050856
vn -0.702120 -0.712058 0.000542
vn -0.055421 -0.675051 0.735687
vn -0.001271 -0.706376 0.707835
vn -0.001271 -0.706376 0.707835
vn -0.050530 -0.678016 0.733308
vn 0.000000 0.000000 1.000000
vn 0.000000 0.000000 1.000000
vn 0.000000 0.000000 1.000000
vn 0.000000 0.000000 1.000000
vn 0.707099 0.707114 0.000000
vn 0.707099 0.707114 0.000000
vn 0.707099 0.707114 0.000000
vn 0.707099 0.707114 0.000000
vn 0.000000 0.707112 0.707101
vn 0.000000 0.707113 0.707101
vn 0.000000 0.707113 0.707101
vn 0.000000 0.707112 0.707101
vn 0.000000 1.000000 -0.000001
vn 0.000000 1.000000 0.000000
vn 0.000000 1.000000 0.000000
vn 0.000000 1.000000 -0.000001
vn 0.000000 0.707110 0.707104
vn 0.000000 0.707109 0.707105
vn 0.000000 0.707109 0.707105
vn 0.000000 0.707110 0.707104
vn 1.000000 0.000000 0.000000
vn 1.000000 0.000000 0.000000
vn 1.000000 0.000000 0.000000
vn 1.000000 0.000000 0.000000
vn 0.000000 1.000000 0.000001
vn 0.000000 1.000000 0.000001
vn 0.000000 1.000000 0.000000
vn -0.000001 1.000000 0.000000
vn 0.000000 1.000000 0.000001
vn 0.000000 1.000000 0.000001
vn 0.000000 1.000000 -0.000001
vn 0.000000 1.000000 0.000000
vn 1.000000 0.000000 0.000000
vn 1.000000 0.000000 0.000000
vn 1.000000 0.000000 0.000000
vn 1.000000 0.000000 0.000000
vn 0.000000 1.000000 0.000001
vn 0.000000 1.000000 0.000000
vn 0.000000 1.000000 0.000000
vn 0.000000 1.000000 0.000001
vn 0.707093 0.707121 0.000000
vn 0.707093 0.707121 0.000000
vn 0.707087 0.707127 0.000000
vn 0.707087 0.707127 0.000000
vn 0.000000 1.000000 0.000000
vn 0.000000 1.000000 0.000001
vn 0.000000 1.000000 0.000001
vn 0.000000 1.000000 0.000000
vn 0.000000 1.000000 0.000000
vn 0.000000 1.000000 0.000000
vn 0.000000 1.000000 0.000001
vn 0.000000 1.000000 0.000001
vn 0.752880 0.651856 0.090860
vn 0.710266 0.703927 0.003110
vn 0.710266 0.703926 0.003111
vn 0.756750 0.646025 0.099903
vn -0.000199 0.761422 0.648256
vn -0.000185 0.761211 0.648504
vn -0.000256 0.630705 0.776023
vn -0.000255 0.630381 0.776286
vn 0.720394 0.116553 0.683701
vn 0.714335 0.105948 0.691737
vn 0.714335 0.105948 0.691737
vn 0.721380 0.118302 0.682360
vn 1.000000 0.000000 0.000000
vn 1.000000 0.000000 0.000000
vn 1.000000 0.000001 0.000000
vn 1.000000 0.000001 0.000000
vn 1.000000 0.000002 0.000000
vn 1.000000 0.000002 0.000000
vn 1.000000 0.000000 0.000000
vn 1.000000 0.000000 0.000000
vn 0.000000 1.000000 0.000000
vn 0.000000 1.000000 0.000000
vn 0.000000 1.000000 0.000000
vn 0.000000 1.000000 0.000000
vn 0.000000 0.758504 0.651668
vn 0.000000 0.758504 0.651668
vn 0.000000 0.629657 0.776873
vn 0.000000 0.629657 0.776873
vn 0.000000 0.150676 0.988583
vn 0.000000 0.150676 0.988583
vn 0.000000 0.150676 0.988583
vn 0.000000 0.150676 0.988583
vn -1.000000 0.000000 0.000000
vn -1.000000 0.000000 0.000000
vn -1.000000 -0.000001 0.000000
vn -1.000000 -0.000001 0.000000
vn -0.707114 -0.707098 -0.001239
vn -0.707115 -0.707097 -0.001432
vn -0.707115 -0.707097 -0.001432
vn -0.707114 -0.707098 -0.001239
vn 0.000000 -1.000000 0.000000
vn 0.000000 -1.000000 0.000000
vn 0.000000 -1.000000 0.000000
vn 0.000000 -1.000000 0.000000
vn -0.706345 -0.707863 0.002554
vn -0.648677 -0.754937 0.096381
vn -0.642804 -0.758790 0.105074
vn -0.706345 -0.707863 0.002554
vn 0.000000 -1.000000 0.000000
vn 0.000000 -1.000000 0.000000
vn 0.000000 -1.000000 0.000000
vn 0.000000 -1.000000 0.000000
vn 0.754335 -0.649250 0.097229
vn 0.757849 -0.643870 0.105342
vn 0.738820 -0.671753 -0.053789
vn 0.737323 -0.673642 -0.050614
vn 0.000000 -1.000000 0.000000
vn 0.000000 -1.000000 0.000000
vn 0.000000 -1.000000 0.000000
vn 0.000000 -1.000000 0.000000
vn 0.000000 -1.000000 0.000000
vn 0.000000 -1.000000 0.000000
vn 0.000000 -1.000000 0.000000
vn 0.000000 -1.000000 0.000000
vn 0.704491 -0.000311 -0.709713
vn 0.704491 -0.000311 -0.709713
vn 0.704491 -0.000311 -0.709713
vn 0.704491 -0.000311 -0.709713
vn -0.000659 -0.707852 -0.706360
vn -0.050552 -0.734152 -0.677101
vn -0.055913 -0.736807 -0.673787
vn -0.000659 -0.707852 -0.706360
vn -0.707108 -0.000446 -0.707106
vn -0.707108 -0.000446 -0.707106
vn -0.707108 -0.000446 -0.707106
vn -0.707108 -0.000446 -0.707106
vn 0.000000 -1.000000 0.000000
vn 0.000000 -1.000000 0.000000
vn 0.000000 -1.000000 0.000000
vn 0.000000 -1.000000 0.000000
vn 0.000000 1.000000 0.000000
vn 0.000000 1.000000 0.000000
vn 0.000000 1.000000 0.000000
vn 0.000000 1.000000 0.000000
vn 1.000000 0.000000 0.000000
vn 1.000000 0.000000 0.000000
vn 1.000000 0.000002 0.000000
vn 1.000000 0.000002 0.000000
vn 0.000000 1.000000 0.000000
vn 0.000000 1.000000 0.000000
vn 0.000000 1.000000 0.000000
vn 0.000000 1.000000 0.000000
vn 1.000000 0.000000 0.000000
vn 1.000000 0.000000 0.000000
vn 1.000000 0.000000 0.000000
vn 1.000000 0.000000 0.000000
vn 1.000000 0.000002 0.000000
vn 1.000000 0.000002 0.000000
vn 1.000000 0.000000 0.000000
vn 1.000000 0.000000 0.000000
vn 1.000000 0.000000 0.000000
vn 1.000000 0.000000 0.000000
vn 1.000000 0.000000 0.000000
vn 1.000000 0.000000 0.000000
vn 0.704492 -0.000311 0.709712
vn 0.704492 -0.000311 0.709712
vn 0.704492 -0.000311 0.709712
vn 0.704492 -0.000311 0.709712
vn 0.000542 -0.712078 0.702100
vn -0.052746 -0.739358 0.671244
vn -0.050856 -0.738446 0.672392
vn 0.000542 -0.712078 0.702100
vn 0.000000 -1.000000 0.000000
vn 0.000000 -1.000000 0.000000
vn 0.000000 -1.000000 0.000000
vn 0.000000 -1.000000 0.000000
vn -0.707108 -0.000446 0.707105
vn -0.707108 -0.000446 0.707105
vn -0.707108 -0.000446 0.707105
vn -0.707108 -0.000446 0.707105
vn 0.692145 -0.107406 -0.713722
vn 0.691846 -0.108386 -0.713864
vn 0.691846 -0.108386 -0.713864
vn 0.692208 -0.107199 -0.713692
vn -0.000001 -0.009459 -0.999955
vn -0.000001 -0.009484 -0.999955
vn 0.000000 -0.149235 -0.988802
vn 0.000000 -0.149234 -0.988802
vn 0.707504 -0.006199 -0.706682
vn 0.707297 0.000038 -0.706917
vn 0.707297 0.000038 -0.706917
vn 0.707513 -0.006556 -0.706670
vn 0.000000 -0.149239 -0.988801
vn 0.000000 -0.150676 -0.988583
vn 0.000000 -0.150676 -0.988583
vn 0.000000 -0.149235 -0.988802
vn 0.000000 -0.009654 -0.999953
vn 0.000000 -0.009670 -0.999953
vn 0.000000 -0.149238 -0.988801
vn 0.000000 -0.149239 -0.988801
vn -0.000001 -0.009484 -0.999955
vn 0.000000 0.000000 -1.000000
vn 0.000000 0.000000 -1.000000
vn 0.000000 -0.009654 -0.999953
vn -0.709710 -0.000311 -0.704494
vn -0.709710 -0.000311 -0.704494
vn -0.709710 -0.000311 -0.704494
vn -0.709710 -0.000311 -0.704494
vn 0.000000 0.000000 -1.000000
vn 0.000000 0.000000 -1.000000
vn 0.000000 0.000000 -1.000000
vn 0.000000 0.000000 -1.000000
vn -0.050613 -0.673645 -0.737320
vn -0.000171 -0.702509 -0.711675
vn -0.000171 -0.702508 -0.711676
vn -0.053788 -0.671757 -0.738816
vn 0.707103 0.000000 -0.707110
vn 0.707103 0.000000 -0.707110
vn 0.707103 0.000000 -0.707110
vn 0.707103 0.000000 -0.707110
vn 0.707119 0.707095 0.000000
vn 0.707119 0.707095 0.000000
vn 0.707119 0.707095 0.000000
vn 0.707119 0.707095 0.000000
vn 0.002461 0.758520 0.651645
vn 0.002287 0.758520 0.651646
vn 0.002287 0.758520 0.651646
vn 0.002461 0.758520 0.651645
vn 0.000000 0.758522 0.651648
vn 0.000000 0.758522 0.651648
vn 0.000000 0.758522 0.651648
vn 0.000000 0.758522 0.651648
vn 0.000000 1.000000 0.000000
vn 0.000000 1.000000 0.000000
vn 0.000000 1.000000 0.000000
vn 0.000000 1.000000 0.000000
vn 0.000000 0.651675 -0.758498
vn 0.000000 0.651675 -0.758498
vn 0.000000 0.651675 -0.758498
vn 0.000000 0.651675 -0.758498
vn -0.001700 0.635229 -0.772322
vn -0.001838 0.633889 -0.773422
vn -0.001838 0.633889 -0.773422
vn -0.001701 0.635226 -0.772324
vn 0.707108 -0.707106 0.000000
vn 0.707108 -0.707105 0.000000
vn 0.707108 -0.707105 0.000000
vn 0.707108 -0.707106 0.000000
vn 0.707106 -0.707107 0.000000
vn 0.707106 -0.707107 0.000000
vn 0.707106 -0.707107 0.000000
vn 0.707106 -0.707107 0.000000
vn 0.000000 -1.000000 0.000000
vn 0.000000 -1.000000 0.000000
vn 0.000000 -1.000000 0.000000
vn 0.000000 -1.000000 0.000000
vn -0.707107 -0.707107 0.000000
vn -0.707109 -0.707105 0.000000
vn -0.707109 -0.707105 0.000000
vn -0.707107 -0.707107 0.000000
vn -0.707092 -0.707121 0.000000
vn -0.707092 -0.707122 0.000000
vn -0.707092 -0.707122 0.000000
vn -0.707092 -0.707121 0.000000
vn 0.000000 -0.707107 -0.707107
vn 0.000000 -0.707107 -0.707107
vn 0.000000 -0.707107 -0.707107
vn 0.000000 -0.707107 -0.707107
vn 0.000000 -0.707107 0.707106
vn 0.000000 -0.707107 0.707106
vn 0.000000 -0.707107 0.707106
vn 0.000000 -0.707107 0.707106
vn 0.000000 -0.707107 -0.707107
vn 0.000000 -0.707107 -0.707107
vn 0.000000 -0.707107 -0.707107
vn 0.000000 -0.707107 -0.707107
vn -0.707098 -0.707115 0.000000
vn -0.707098 -0.707115 0.000000
vn -0.707098 -0.707115 0.000000
vn -0.707098 -0.707115 0.000000
vn 0.000000 -0.707107 0.707107
vn 0.000000 -0.707107 0.707107
vn 0.000000 -0.707107 0.707107
vn 0.000000 -0.707107 0.707107
vn 0.707098 -0.707115 0.000000
vn 0.707098 -0.707115 0.000000
vn 0.707098 -0.707115 0.000000
vn 0.707098 -0.707115 0.000000
vn 0.000000 0.000000 1.000000
vn 0.000000 0.000000 1.000000
vn 0.000000 0.000000 1.000000
vn 0.000000 0.000000 1.000000
vn 0.000000 0.000000 1.000000
vn 0.000000 0.000000 1.000000
vn 0.000000 0.000000 1.000000
vn 0.000000 0.000000 1.000000
vn -0.000001 1.000000 -0.000001
vn -0.000001 1.000000 0.000000
vn 0.000000 1.000000 0.000000
vn 0.000000 1.000000 -0.000001
vn 0.000000 1.000000 -0.000001
vn 0.000000 1.000000 0.000000
vn 0.000000 1.000000 -0.000001
vn 0.000000 1.000000 -0.000001
vn -0.000001 -0.009459 -0.999955
vn 0.000000 0.000000 -1.000000
vn 0.000000 0.000000 -1.000000
vn -0.000001 -0.009484 -0.999955
vn 0.000000 -0.009654 -0.999953
vn 0.000000 0.000000 -1.000000
vn 0.000000 0.000000 -1.000000
vn 0.000000 -0.009670 -0.999953
vn 0.000000 -1.000000 0.000000
vn 0.000000 -1.000000 0.000000
vn 0.000000 -1.000000 0.000000
vn 0.000000 -1.000000 0.000000
vn 0.000000 -1.000000 0.000000
vn 0.000000 -1.000000 0.000000
vn 0.000000 -1.000000 0.000000
vn 0.000000 -1.000000 0.000000
vn 1.000000 0.000000 0.000000
vn 1.000000 0.000000 0.000000
vn 1.000000 0.000000 0.000000
vn 1.000000 0.000000 0.000000
vn 0.000000 1.000000 0.000000
vn 0.000000 1.000000 0.000000
vn 0.000000 1.000000 0.000000
vn 0.000000 1.000000 0.000000
vn 0.000000 -1.000000 0.000000
vn 0.000000 -1.000000 0.000000
vn 0.000000 -1.000000 0.000000
vn 0.000000 -1.000000 0.000000
vn 1.000000 0.000000 0.000000
vn 1.000000 0.000000 0.000000
vn 1.000000 0.000000 0.000000
vn 1.000000 0.000000 0.000000
vn 0.000000 1.000000 0.000000
vn 0.000000 1.000000 0.000000
vn 0.000000 1.000000 0.000000
vn 0.000000 1.000000 0.000000
vn 0.000000 -1.000000 0.000000
vn 0.000000 -1.000000 0.000000
vn 0.000000 -1.000000 0.000000
vn 0.000000 -1.000000 0.000000
vn 0.000000 0.150676 0.988583
vn 0.000000 0.150676 0.988583
vn 0.000000 0.150676 0.988583
vn 0.000000 0.150676 0.988583
vn 0.000000 -0.149235 -0.988802
vn 0.000000 -0.150676 -0.988583
vn 0.000000 -0.150676 -0.988583
vn 0.000000 -0.149234 -0.988802
vn 1.000000 0.000001 0.000000
vn 1.000000 0.000001 0.000000
vn 1.000000 0.000001 0.000000
vn 1.000000 0.000001 0.000000
vn 0.000000 0.150676 0.988583
vn 0.000000 0.150676 0.988583
vn 0.000000 0.150676 0.988583
vn 0.000000 0.150676 0.988583
vn 0.000000 -0.149238 -0.988801
vn 0.000000 -0.150676 -0.988583
vn 0.000000 -0.150676 -0.988583
vn 0.000000 -0.149239 -0.988801
vn 0.000000 -1.000000 0.000000
vn 0.000000 -1.000000 0.000000
vn 0.000000 -1.000000 0.000000
vn 0.000000 -1.000000 0.000000
vn 0.000000 -1.000000 0.000000
vn 0.000000 -1.000000 0.000000
vn 0.000000 -1.000000 0.000000
vn 0.000000 -1.000000 0.000000
vn 1.000000 0.000002 0.000000
vn 1.000000 0.000002 0.000000
vn 1.000000 0.000002 0.000000
vn 1.000000 0.000002 0.000000
vn 0.000000 1.000000 0.000000
vn 0.000000 1.000000 0.000000
vn 0.000000 1.000000 0.000000
vn 0.000000 1.000000 0.000000
vn 0.000000 1.000000 0.000000
vn 0.000000 1.000000 0.000000
vn 0.000000 1.000000 0.000000
vn 0.000000 1.000000 0.000000
vn 1.000000 0.000000 0.000000
vn 1.000000 0.000000 0.000000
vn 1.000000 0.000000 0.000000
vn 1.000000 0.000000 0.000000
vn 0.000000 0.000000 -1.000000
vn 0.000000 0.000000 -1.000000
vn 0.000000 0.000000 -1.000000
vn 0.000000 0.000000 -1.000000
vn -1.000000 0.000000 0.000000
vn -1.000000 0.000000 0.000000
vn -1.000000 0.000000 0.000000
vn -1.000000 0.000000 0.000000
vn -1.000000 -0.000001 0.000000
vn -1.000000 -0.000001 0.000000
vn -1.000000 -0.000001 0.000000
vn -1.000000 -0.000001 0.000000
vn 0.000001 0.000000 1.000000
vn 0.000001 0.000000 1.000000
vn 0.000001 0.000000 1.000000
vn 0.000001 0.000000 1.000000
vn 1.000000 0.000000 0.000000
vn 1.000000 0.000000 0.000000
vn 1.000000 0.000000 0.000000
vn 1.000000 0.000000 0.000000
vn -1.000000 0.000000 0.000000
vn -1.000000 0.000000 0.000000
vn -1.000000 0.000000 0.000000
vn -1.000000 0.000000 0.000000
vn 0.000000 0.000000 1.000000
vn 0.000000 0.000000 1.000000
vn 0.000000 0.000000 1.000000
vn 0.000000 0.000000 1.000000
vn 1.000000 0.000000 0.000000
vn 1.000000 0.000000 0.000000
vn 1.000000 0.000000 0.000000
vn 1.000000 0.000000 0.000000
vn 0.000000 0.000000 -1.000000
vn 0.000000 0.000000 -1.000000
vn 0.000000 0.000000 -1.000000
vn 0.000000 0.000000 -1.000000
vn 0.707104 0.000000 0.707110
vn 0.707104 0.000000 0.707110
vn 0.707103 0.000000 0.707110
vn 0.707103 0.000000 0.707110
vn -0.395503 -0.396317 0.828559
vn -0.395503 -0.396317 0.828559
vn -0.395503 -0.396317 0.828559
vn -0.055421 -0.675051 0.735687
vn -0.050530 -0.678016 0.733308
vn 0.577335 0.577385 0.577331
vn 0.577335 0.577385 0.577331
vn 0.577335 0.577385 0.577331
vn 0.000000 0.707113 0.707101
vn 0.000000 0.707110 0.707104
vn 0.000000 0.707110 0.707104
vn 0.000000 0.707113 0.707101
vn 0.707099 0.707114 0.000000
vn 0.707093 0.707121 0.000000
vn 0.707093 0.707121 0.000000
vn 0.707099 0.707114 0.000000
vn 0.000000 1.000000 0.000001
vn 0.000000 1.000000 0.000001
vn 0.000000 1.000000 0.000000
vn 0.000000 1.000000 0.000000
vn 0.826349 0.416878 0.378629
vn 0.720394 0.116553 0.683701
vn 0.721380 0.118302 0.682360
vn 0.744086 0.421067 0.518690
vn 0.000000 0.629657 0.776873
vn -0.000185 0.761211 0.648504
vn 0.000000 0.758504 0.651668
vn 0.000000 0.629657 0.776873
vn -0.707114 -0.707098 -0.001239
vn -0.706345 -0.707863 0.002554
vn -0.706345 -0.707863 0.002554
vn -0.707114 -0.707098 -0.001239
vn 0.828010 -0.395553 -0.397413
vn 0.828010 -0.395553 -0.397413
vn 0.737323 -0.673642 -0.050614
vn 0.738820 -0.671753 -0.053789
vn 0.828010 -0.395553 -0.397413
vn -0.050552 -0.734152 -0.677101
vn -0.672411 -0.738429 -0.050856
vn -0.671260 -0.739342 -0.052748
vn -0.392121 -0.831282 -0.393970
vn -0.055913 -0.736807 -0.673787
vn 0.710266 0.703927 0.003110
vn 0.707087 0.707127 0.000000
vn 0.707087 0.707127 0.000000
vn 0.710266 0.703926 0.003111
vn 0.000000 1.000000 0.000000
vn 0.000000 1.000000 0.000000
vn 0.000000 1.000000 0.000000
vn 0.000000 1.000000 0.000000
vn 1.000000 0.000000 0.000000
vn 1.000000 0.000000 0.000000
vn 1.000000 0.000000 0.000000
vn 1.000000 0.000002 0.000000
vn 0.828555 -0.396331 0.395498
vn 0.828555 -0.396331 0.395498
vn 0.828555 -0.396331 0.395498
vn 0.757849 -0.643870 0.105342
vn 0.754335 -0.649250 0.097229
vn -0.648677 -0.754937 0.096381
vn -0.050856 -0.738446 0.672392
vn -0.052746 -0.739358 0.671244
vn -0.393973 -0.831277 0.392127
vn -0.642804 -0.758790 0.105074
vn 0.692145 -0.107406 -0.713722
vn 0.692208 -0.107199 -0.713692
vn 0.707504 -0.006199 -0.706682
vn 0.707513 -0.006556 -0.706670
vn 0.000000 -0.149239 -0.988801
vn 0.000000 -0.149235 -0.988802
vn -0.000001 -0.009484 -0.999955
vn 0.000000 -0.009654 -0.999953
vn -0.397410 -0.395564 -0.828006
vn -0.397410 -0.395564 -0.828006
vn -0.050613 -0.673645 -0.737320
vn -0.053788 -0.671757 -0.738816
vn -0.397410 -0.395564 -0.828006
vn 0.707103 0.000000 -0.707110
vn 0.707103 0.000000 -0.707110
vn 0.707297 0.000038 -0.706917
vn 0.707297 0.000038 -0.706917
vn 0.554718 0.631145 0.542165
vn 0.554718 0.631145 0.542165
vn 0.554718 0.631146 0.542165
vn 0.000000 0.758522 0.651648
vn 0.000000 0.758522 0.651648
vn 0.002287 0.758520 0.651646
vn 0.002287 0.758520 0.651646
vn 0.000000 0.651675 -0.758498
vn 0.000000 0.651675 -0.758498
vn -0.001700 0.635229 -0.772322
vn -0.001701 0.635226 -0.772324
vn 0.580465 0.471620 -0.663803
vn 0.580465 0.471620 -0.663804
vn 0.580465 0.471620 -0.663804
vn 0.707108 -0.707106 0.000000
vn 0.707108 -0.707106 0.000000
vn 0.707106 -0.707107 0.000000
vn 0.707106 -0.707107 0.000000
vn -0.707107 -0.707107 0.000000
vn -0.707107 -0.707107 0.000000
vn -0.707092 -0.707121 0.000000
vn -0.707092 -0.707121 0.000000
vn 0.577339 -0.577372 -0.577339
vn 0.577339 -0.577372 -0.577339
vn 0.577339 -0.577372 -0.577339
vn -0.577339 -0.577372 -0.577339
vn -0.577339 -0.577372 -0.577339
vn -0.577339 -0.577372 -0.577339
vn -0.577337 -0.577374 0.577340
vn -0.577337 -0.577374 0.577340
vn -0.577337 -0.577374 0.577340
vn 0.577335 -0.577375 0.577341
vn 0.577335 -0.577375 0.577341
vn 0.577335 -0.577375 0.577341
vn -0.577336 -0.577374 -0.577341
vn -0.577336 -0.577374 -0.577341
vn -0.577336 -0.577374 -0.577341
vn -0.577337 -0.577374 0.577340
vn -0.577337 -0.577374 0.577340
vn -0.577337 -0.577374 0.577340
vn 0.577337 -0.577374 0.577340
vn 0.577337 -0.577374 0.577340
vn 0.577337 -0.577374 0.577340
vn 0.577336 -0.577374 -0.577341
vn 0.577336 -0.577374 -0.577341
vn 0.577336 -0.577374 -0.577341
vn 0.752880 0.651856 0.090860
vn 0.756750 0.646025 0.099903
vn 0.826349 0.416878 0.378629
vn 0.744086 0.421067 0.518690
vn -0.000256 0.630705 0.776023
vn -0.000185 0.761211 0.648504
vn -0.000199 0.761422 0.648256
vn -0.000255 0.630381 0.776286
vn 0.000000 0.758504 0.651668
vn -0.000185 0.761211 0.648504
vn 0.000000 0.629657 0.776873
vn 0.000000 0.629657 0.776873
vn 0.000000 0.629657 0.776873
vn 0.000000 0.758504 0.651668
vn 0.000000 0.758504 0.651668
vn 0.000000 0.629657 0.776873
s off
g ChairUV1
usemtl lambert2SG
f 1/1/1 4/2/2 153/3/3 152/4/4
f 2/5/5 1/6/6 9/7/7 8/8/8
f 3/9/9 2/5/10 13/10/11 12/11/12
f 4/12/13 3/13/14 49/14/15 48/15/16
f 5/16/17 9/17/18 150/18/19 149/19/20
f 6/20/21 5/21/22 57/22/23 56/23/24
f 7/24/25 6/20/26 11/25/27 10/26/28
f 8/8/29 7/24/30 17/27/31 16/28/32
f 12/29/33 14/30/34 22/31/35 21/32/36
f 14/30/37 13/10/38 16/28/39 15/33/40
f 15/33/41 18/34/42 27/35/43 26/36/44
f 18/34/45 17/27/46 20/37/47 19/38/48
f 21/32/49 24/39/50 50/40/51 49/14/52
f 23/41/53 22/31/54 26/36/55 25/42/56
f 28/43/57 27/35/58 30/44/59 29/45/60
f 24/39/61 62/46/62 76/47/63 50/40/64
f 23/41/65 25/42/66 64/48/67 63/49/68
f 23/41/69 63/49/70 62/46/71 24/39/72
f 65/50/73 64/48/74 25/42/75 28/43/76
f 65/50/77 28/43/78 29/45/79 68/51/80
f 31/52/81 35/53/82 61/54/83 60/55/84
f 32/56/85 157/57/86 158/58/87 38/59/88
f 33/60/89 32/56/90 108/61/91 107/62/92
f 34/63/93 33/60/94 89/64/95 88/65/96
f 35/53/97 34/66/98 72/67/99 71/68/100
f 36/69/101 39/70/102 67/71/103 66/72/104
f 37/73/105 159/74/106 160/75/107 40/76/108
f 38/59/109 37/73/110 113/77/111 112/78/112
f 42/79/113 45/80/114 132/81/115 131/82/116
f 43/83/117 42/84/118 98/85/119 97/86/120
f 44/87/121 43/83/122 47/88/123 46/89/124
f 45/90/125 44/87/126 82/91/127 81/92/128
f 75/93/129 84/94/130 54/95/131 51/96/132
f 75/97/133 51/98/134 50/40/135 76/47/136
f 55/99/137 54/95/138 84/94/139 83/100/140
f 55/99/141 83/100/142 80/101/143 59/102/144
f 48/103/145 52/104/146 156/105/147 155/106/148
f 52/107/149 51/96/150 54/95/151 53/108/152
f 53/109/153 57/110/154 146/111/155 145/112/156
f 56/23/157 55/99/158 59/102/159 58/113/160
f 60/55/161 63/49/162 64/48/163 67/71/164
f 62/46/165 61/54/166 77/114/167 76/47/168
f 66/72/169 65/50/170 68/51/171 69/115/172
f 70/116/173 73/117/174 126/118/175 125/119/176
f 71/68/177 70/120/178 78/121/179 77/114/180
f 73/122/181 72/123/182 100/124/183 99/125/184
f 74/126/185 78/127/186 144/128/187 143/129/188
f 75/93/189 74/130/190 85/131/191 84/94/192
f 79/132/193 80/101/194 83/100/195 82/91/196
f 81/133/197 85/134/198 141/135/199 140/136/200
f 86/137/201 89/64/202 120/138/203 119/139/204
f 87/140/205 86/137/206 93/141/207 92/142/208
f 88/143/209 87/144/210 101/145/211 100/124/212
f 90/146/213 93/141/214 115/147/215 114/148/216
f 91/149/217 90/146/218 104/150/219 103/151/220
f 92/152/221 91/153/222 96/154/223 95/155/224
f 94/156/225 98/157/226 138/158/227 137/159/228
f 95/155/229 94/160/230 102/161/231 101/145/232
f 97/86/233 96/162/234 106/163/235 105/164/236
f 99/165/237 102/166/238 135/167/239 134/168/240
f 107/169/241 109/170/242 118/171/243 120/172/244
f 109/170/245 108/173/246 112/174/247 111/175/248
f 110/176/249 113/177/250 122/178/251 121/179/252
f 111/175/253 110/176/254 117/180/255 116/181/256
f 114/148/257 117/180/258 124/182/259 123/183/260
f 116/181/261 115/147/262 119/139/263 118/171/264
f 125/184/265 128/185/266 142/186/267 144/187/268
f 127/188/269 126/189/270 134/190/271 133/191/272
f 128/185/273 127/188/274 130/192/275 129/193/276
f 129/193/277 132/81/278 140/194/279 139/195/280
f 131/82/281 130/192/282 136/196/283 138/158/284
f 133/191/285 135/197/286 137/198/287 136/196/288
f 139/195/289 141/199/290 143/200/291 142/186/292
f 145/112/293 147/201/294 154/202/295 156/203/296
f 147/201/297 146/111/298 149/19/299 148/204/300
f 148/204/301 150/205/302 152/206/303 151/207/304
f 151/207/305 153/208/306 155/209/307 154/202/308
f 2/5/309 8/8/310 16/28/311 13/10/312
f 7/24/313 10/26/314 20/37/315 17/27/316
f 14/30/317 15/33/318 26/36/319 22/31/320
f 18/34/321 19/38/322 30/44/323 27/35/324
f 87/144/325 92/152/326 95/155/327 101/145/328
f 91/153/329 103/210/330 106/211/331 96/154/332
f 44/87/333 46/89/334 79/132/335 82/91/336
f 56/23/337 58/113/338 11/25/339 6/20/340
f 49/14/341 3/13/342 12/29/343 21/32/344
f 109/170/345 111/175/346 116/181/347 118/171/348
f 130/192/349 127/188/350 133/191/351 136/196/352
f 72/123/353 34/212/354 88/143/355 100/124/356
f 110/176/357 121/179/358 124/182/359 117/180/360
f 47/88/361 43/83/362 97/86/363 105/164/364
f 32/56/365 38/59/366 112/78/367 108/61/368
f 93/141/369 86/137/370 119/139/371 115/147/372
f 89/64/373 33/60/374 107/62/375 120/138/376
f 37/73/377 40/76/378 122/213/379 113/77/380
f 104/150/381 90/146/382 114/148/383 123/183/384
f 129/193/385 139/195/386 142/186/387 128/185/388
f 147/201/389 148/204/390 151/207/391 154/202/392
f 71/68/393 77/114/394 61/54/395 35/53/396
f 66/72/397 69/115/398 41/214/399 36/69/400
f 60/55/401 67/71/402 39/70/403 31/52/404
f 73/117/405 99/165/406 134/168/407 126/118/408
f 102/166/409 94/156/410 137/159/411 135/167/412
f 98/157/413 42/79/414 131/82/415 138/158/416
f 45/80/417 81/215/418 140/194/419 132/81/420
f 85/134/421 74/126/422 143/129/423 141/135/424
f 78/127/425 70/116/426 125/119/427 144/128/428
f 57/110/429 5/16/430 149/19/431 146/111/432
f 9/17/433 1/1/434 152/4/435 150/18/436
f 4/2/437 48/103/438 155/106/439 153/3/440
f 52/104/441 53/216/442 145/217/443 156/105/444
f 1/6/445 2/5/446 3/9/447 4/218/448
f 5/21/449 6/20/450 7/24/451 8/8/452 9/7/453
f 12/11/454 13/10/455 14/30/456
f 15/33/457 16/28/458 17/27/459 18/34/460
f 21/32/461 22/31/462 23/41/463 24/39/464
f 25/42/465 26/36/466 27/35/467 28/43/468
f 34/63/469 157/57/470 32/56/471 33/60/472
f 158/58/473 159/74/474 37/73/475 38/59/476
f 42/84/477 43/83/478 44/87/479 45/90/480
f 48/15/481 49/14/482 50/40/483 51/98/484 52/219/485
f 53/108/486 54/95/487 55/99/488 56/23/489 57/22/490
f 60/55/491 61/54/492 62/46/493 63/49/494
f 64/48/495 65/50/496 66/72/497 67/71/498
f 70/120/499 71/68/500 72/67/501 73/220/502
f 74/221/503 75/97/504 76/47/505 77/114/506 78/121/507
f 81/92/508 82/91/509 83/100/510 84/94/511 85/131/512
f 86/137/513 87/140/514 88/65/515 89/64/516
f 90/146/517 91/149/518 92/142/519 93/141/520
f 94/160/521 95/155/522 96/154/523 97/222/524 98/223/525
f 99/125/526 100/124/527 101/145/528 102/161/529
f 107/169/530 108/173/531 109/170/532
f 110/176/533 111/175/534 112/174/535 113/177/536
f 114/148/537 115/147/538 116/181/539 117/180/540
f 118/171/541 119/139/542 120/172/543
f 125/184/544 126/189/545 127/188/546 128/185/547
f 129/193/548 130/192/549 131/82/550 132/81/551
f 133/191/552 134/190/553 135/197/554
f 136/196/555 137/198/556 138/158/557
f 139/195/558 140/194/559 141/199/560
f 142/186/561 143/200/562 144/187/563
f 145/112/564 146/111/565 147/201/566
f 148/204/567 149/19/568 150/205/569
f 151/207/570 152/206/571 153/208/572
f 154/202/573 155/209/574 156/203/575
f 31/52/576 157/224/577 34/66/578 35/53/579
f 158/225/580 157/224/581 31/52/582 39/70/583
f 36/69/584 159/226/585 158/225/586 39/70/587
f 160/227/588 159/226/589 36/69/590 41/214/591
f 161/228/592 288/229/593 289/230/594 164/231/595
f 162/232/596 168/233/597 169/234/598 161/235/599
f 163/236/600 170/237/601 171/238/602 162/232/603
f 164/239/604 198/240/605 199/241/606 163/242/607
f 165/243/608 285/244/609 286/245/610 169/246/611
f 166/247/612 206/248/613 207/249/614 165/250/615
f 167/251/616 10/26/617 11/25/618 166/247/619
f 168/233/620 174/252/621 175/253/622 167/251/623
f 170/254/624 177/255/625 178/256/626 172/257/627
f 172/257/628 173/258/629 174/252/630 171/238/631
f 173/258/632 182/259/633 183/260/634 176/261/635
f 176/261/636 19/38/637 20/37/638 175/253/639
f 177/255/640 199/241/641 200/262/642 180/263/643
f 179/264/644 181/265/645 182/259/646 178/256/647
f 184/266/648 29/45/649 30/44/650 183/260/651
f 180/263/652 200/262/653 222/267/654 210/268/655
f 179/264/656 211/269/657 212/270/658 181/265/659
f 179/264/660 180/263/661 210/268/662 211/269/663
f 213/271/664 184/266/665 181/265/666 212/270/667
f 213/271/668 68/51/669 29/45/670 184/266/671
f 185/272/672 208/273/673 209/274/674 189/275/675
f 186/276/676 192/277/677 294/278/678 293/279/679
f 187/280/680 247/281/681 248/282/682 186/276/683
f 188/283/684 232/284/685 233/285/686 187/280/687
f 189/275/688 217/286/689 218/287/690 188/288/691
f 190/289/692 214/290/693 215/291/694 193/292/695
f 191/293/696 40/76/697 160/75/698 295/294/699
f 192/277/700 252/295/701 253/296/702 191/293/703
f 194/297/704 267/298/705 268/299/706 197/300/707
f 195/301/708 241/302/709 242/303/710 194/304/711
f 196/305/712 46/89/713 47/88/714 195/301/715
f 197/306/716 225/307/717 226/308/718 196/305/719
f 221/309/720 201/310/721 204/311/722 228/312/723
f 221/313/724 222/267/725 200/262/726 201/314/727
f 205/315/728 227/316/729 228/312/730 204/311/731
f 205/315/732 59/102/733 80/101/734 227/316/735
f 198/317/736 291/318/737 292/319/738 202/320/739
f 202/321/740 203/322/741 204/311/742 201/310/743
f 203/323/744 281/324/745 282/325/746 207/326/747
f 206/248/748 58/113/749 59/102/750 205/315/751
f 208/273/752 215/291/753 212/270/754 211/269/755
f 210/268/756 222/267/757 223/327/758 209/274/759
f 214/290/760 69/115/761 68/51/762 213/271/763
f 216/328/764 261/329/765 262/330/766 219/331/767
f 217/286/768 223/327/769 224/332/770 216/333/771
f 219/334/772 243/335/773 244/336/774 218/337/775
f 220/338/776 279/339/777 280/340/778 224/341/779
f 221/309/780 228/312/781 229/342/782 220/343/783
f 79/132/784 226/308/785 227/316/786 80/101/787
f 225/344/788 276/345/789 277/346/790 229/347/791
f 230/348/792 259/349/793 260/350/794 233/285/795
f 231/351/796 236/352/797 237/353/798 230/354/799
f 232/355/800 244/336/801 245/356/802 231/357/803
f 234/358/804 254/359/805 255/360/806 237/353/807
f 235/361/808 103/151/809 104/150/810 234/358/811
f 236/362/812 239/363/813 240/364/814 235/365/815
f 238/366/816 273/367/817 274/368/818 242/369/819
f 239/363/820 245/356/821 246/370/822 238/371/823
f 241/302/824 105/164/825 106/163/826 240/372/827
f 243/373/828 270/374/829 271/375/830 246/376/831
f 247/377/832 260/378/833 258/379/834 249/380/835
f 249/380/836 251/381/837 252/382/838 248/383/839
f 250/384/840 121/179/841 122/178/842 253/385/843
f 251/381/844 256/386/845 257/387/846 250/384/847
f 254/359/848 123/183/849 124/182/850 257/387/851
f 256/386/852 258/379/853 259/388/854 255/360/855
f 261/389/856 280/390/857 278/391/858 264/392/859
f 263/393/860 269/394/861 270/395/862 262/396/863
f 264/392/864 265/397/865 266/398/866 263/393/867
f 265/397/868 275/399/869 276/400/870 268/299/871
f 267/298/872 274/368/873 272/401/874 266/398/875
f 269/394/876 272/401/877 273/402/878 271/403/879
f 275/399/880 278/391/881 279/404/882 277/405/883
f 281/324/884 292/406/885 290/407/886 283/408/887
f 283/408/888 284/409/889 285/244/890 282/325/891
f 284/409/892 287/410/893 288/411/894 286/245/895
f 287/410/896 290/407/897 291/412/898 289/413/899
f 162/232/900 171/238/901 174/252/902 168/233/903
f 167/251/904 175/253/905 20/37/906 10/26/907
f 172/257/908 178/256/909 182/259/910 173/258/911
f 176/261/912 183/260/913 30/44/914 19/38/915
f 231/357/916 245/356/917 239/363/918 236/362/919
f 235/365/920 240/364/921 106/211/922 103/210/923
f 196/305/924 226/308/925 79/132/926 46/89/927
f 206/248/928 166/247/929 11/25/930 58/113/931
f 199/241/932 177/255/933 170/254/934 163/242/935
f 249/380/936 258/379/937 256/386/938 251/381/939
f 266/398/940 272/401/941 269/394/942 263/393/943
f 218/337/944 244/336/945 232/355/946 188/414/947
f 250/384/948 257/387/949 124/182/950 121/179/951
f 47/88/952 105/164/953 241/302/954 195/301/955
f 186/276/956 248/282/957 252/295/958 192/277/959
f 237/353/960 255/360/961 259/388/962 230/354/963
f 233/285/964 260/350/965 247/281/966 187/280/967
f 191/293/968 253/296/969 122/213/970 40/76/971
f 104/150/972 123/183/973 254/359/974 234/358/975
f 265/397/976 264/392/977 278/391/978 275/399/979
f 283/408/980 290/407/981 287/410/982 284/409/983
f 217/286/984 189/275/985 209/274/986 223/327/987
f 214/290/988 190/289/989 41/214/990 69/115/991
f 208/273/992 185/272/993 193/292/994 215/291/995
f 219/331/996 262/330/997 270/374/998 243/373/999
f 246/376/1000 271/375/1001 273/367/1002 238/366/1003
f 242/369/1004 274/368/1005 267/298/1006 194/297/1007
f 197/300/1008 268/299/1009 276/400/1010 225/415/1011
f 229/347/1012 277/346/1013 279/339/1014 220/338/1015
f 224/341/1016 280/340/1017 261/329/1018 216/328/1019
f 207/326/1020 282/325/1021 285/244/1022 165/243/1023
f 169/246/1024 286/245/1025 288/229/1026 161/228/1027
f 164/231/1028 289/230/1029 291/318/1030 198/317/1031
f 202/320/1032 292/319/1033 281/416/1034 203/417/1035
f 161/235/1036 164/418/1037 163/236/1038 162/232/1039
f 165/250/1040 169/234/1041 168/233/1042 167/251/1043 166/247/1044
f 170/237/1045 172/257/1046 171/238/1047
f 173/258/1048 176/261/1049 175/253/1050 174/252/1051
f 177/255/1052 180/263/1053 179/264/1054 178/256/1055
f 181/265/1056 184/266/1057 183/260/1058 182/259/1059
f 188/283/1060 187/280/1061 186/276/1062 293/279/1063
f 294/278/1064 192/277/1065 191/293/1066 295/294/1067
f 194/304/1068 197/306/1069 196/305/1070 195/301/1071
f 198/240/1072 202/419/1073 201/314/1074 200/262/1075 199/241/1076
f 203/322/1077 207/249/1078 206/248/1079 205/315/1080 204/311/1081
f 208/273/1082 211/269/1083 210/268/1084 209/274/1085
f 212/270/1086 215/291/1087 214/290/1088 213/271/1089
f 216/333/1090 219/420/1091 218/287/1092 217/286/1093
f 220/421/1094 224/332/1095 223/327/1096 222/267/1097 221/313/1098
f 225/307/1099 229/342/1100 228/312/1101 227/316/1102 226/308/1103
f 230/348/1104 233/285/1105 232/284/1106 231/422/1107
f 234/358/1108 237/353/1109 236/352/1110 235/361/1111
f 238/371/1112 242/423/1113 241/424/1114 240/364/1115 239/363/1116
f 243/335/1117 246/370/1118 245/356/1119 244/336/1120
f 247/377/1121 249/380/1122 248/383/1123
f 250/384/1124 253/385/1125 252/382/1126 251/381/1127
f 254/359/1128 257/387/1129 256/386/1130 255/360/1131
f 258/379/1132 260/378/1133 259/388/1134
f 261/389/1135 264/392/1136 263/393/1137 262/396/1138
f 265/397/1139 268/299/1140 267/298/1141 266/398/1142
f 269/394/1143 271/403/1144 270/395/1145
f 272/401/1146 274/368/1147 273/402/1148
f 275/399/1149 277/405/1150 276/400/1151
f 278/391/1152 280/390/1153 279/404/1154
f 281/324/1155 283/408/1156 282/325/1157
f 284/409/1158 286/245/1159 285/244/1160
f 287/410/1161 289/413/1162 288/411/1163
f 290/407/1164 292/406/1165 291/412/1166
f 185/272/1167 189/275/1168 188/288/1169 293/425/1170
f 294/426/1171 193/292/1172 185/272/1173 293/425/1174
f 190/289/1175 193/292/1176 294/426/1177 295/427/1178
f 160/227/1179 41/214/1180 190/289/1181 295/427/1182
