#File written by LIBUNFOLD3D. Compilation :Dec 22 2011,11:53:02
mtllib CoffeeTable.mtl
#begin vertices
v -3.7207669999999999 1.6427290000000001 -0.49413200000000002
v -2.2146569999999999 1.6427290000000001 1.011978
v -2.7910200000000001 1.6427290000000001 0.89733200000000002
v -3.2796370000000001 1.6427290000000001 0.57084900000000005
v -3.6061209999999999 1.6427290000000001 0.082230999999999999
v -3.7207669999999999 1.7772969999999999 -0.49413200000000002
v -3.6061209999999999 1.7772969999999999 0.082230999999999999
v -3.2796370000000001 1.7772969999999999 0.57084900000000005
v -2.7910200000000001 1.7772969999999999 0.89733200000000002
v -2.2146569999999999 1.7772969999999999 1.011978
v 3.2674789999999998 1.6427290000000001 -0.49413200000000002
v 3.1528330000000002 1.6427290000000001 0.082230999999999999
v 2.826349 1.6427290000000001 0.57084900000000005
v 2.3377319999999999 1.6427290000000001 0.89733200000000002
v 1.761369 1.6427290000000001 1.011978
v 3.2674789999999998 1.7772969999999999 -0.49413200000000002
v 1.761369 1.7772969999999999 1.011978
v 2.3377319999999999 1.7772969999999999 0.89733200000000002
v 2.826349 1.7772969999999999 0.57084900000000005
v 3.1528330000000002 1.7772969999999999 0.082230999999999999
v -2.7910200000000001 1.7772969999999999 -3.1769769999999999
v -3.2796370000000001 1.7772969999999999 -2.8504939999999999
v -3.6061209999999999 1.7772969999999999 -2.3618769999999998
v -3.7207669999999999 1.7772969999999999 -1.7855129999999999
v -2.2146569999999999 1.7772969999999999 -3.291623
v -3.7207669999999999 1.6427290000000001 -1.7855129999999999
v -3.6061209999999999 1.6427290000000001 -2.3618769999999998
v -3.2796370000000001 1.6427290000000001 -2.8504939999999999
v -2.7910200000000001 1.6427290000000001 -3.1769769999999999
v -2.2146569999999999 1.6427290000000001 -3.291623
v 3.1528330000000002 1.7772969999999999 -2.3618769999999998
v 2.826349 1.7772969999999999 -2.8504939999999999
v 2.3377319999999999 1.7772969999999999 -3.1769769999999999
v 1.761369 1.7772969999999999 -3.291623
v 3.2674789999999998 1.7772969999999999 -1.7855129999999999
v 3.2674789999999998 1.6427290000000001 -1.7855129999999999
v 1.761369 1.6427290000000001 -3.291623
v 2.3377319999999999 1.6427290000000001 -3.1769769999999999
v 2.826349 1.6427290000000001 -2.8504939999999999
v 3.1528330000000002 1.6427290000000001 -2.3618769999999998
v -3.851861 1.7287790000000001 -0.46990599999999999
v -3.851861 1.7287790000000001 -1.809739
v -3.7329150000000002 1.7287790000000001 -2.4077259999999998
v -3.3941819999999998 1.7287790000000001 -2.914676
v -2.887232 1.7287790000000001 -3.253409
v -2.2892440000000001 1.7287790000000001 -3.3723559999999999
v 1.8359559999999999 1.7287790000000001 -3.3723559999999999
v 2.4339439999999999 1.7287790000000001 -3.253409
v 2.9408940000000001 1.7287790000000001 -2.914676
v 3.2796270000000001 1.7287790000000001 -2.4077259999999998
v 3.398574 1.7287790000000001 -1.809739
v 3.398574 1.7287790000000001 -0.46990599999999999
v 3.2796270000000001 1.7287790000000001 0.128081
v 2.9408940000000001 1.7287790000000001 0.63503100000000001
v 2.4339439999999999 1.7287790000000001 0.97376300000000005
v 1.8359559999999999 1.7287790000000001 1.092711
v -2.2892440000000001 1.7287790000000001 1.092711
v -2.887232 1.7287790000000001 0.97376300000000005
v -3.3941819999999998 1.7287790000000001 0.63503100000000001
v -3.7329150000000002 1.7287790000000001 0.128081
v -2.7322649999999999 0.93207799999999996 -0.67679999999999996
v -1.6522399999999999 0.93207799999999996 0.403225
v -2.0655480000000002 0.93207799999999996 0.32101299999999999
v -2.4159329999999999 0.93207799999999996 0.086892999999999998
v -2.6500530000000002 0.93207799999999996 -0.26349299999999998
v -2.7943169999999999 1.0408219999999999 -0.66533399999999998
v -2.71007 1.0408219999999999 -0.24179
v -2.470151 1.0408219999999999 0.117272
v -2.1110890000000002 1.0408219999999999 0.35719099999999998
v -1.6875439999999999 1.0408219999999999 0.441438
v 2.2789769999999998 0.93207799999999996 -0.67679999999999996
v 2.1967660000000002 0.93207799999999996 -0.26349299999999998
v 1.962645 0.93207799999999996 0.086892999999999998
v 1.61226 0.93207799999999996 0.32101299999999999
v 1.198952 0.93207799999999996 0.403225
v 2.3410289999999998 1.0408219999999999 -0.66533399999999998
v 1.2342569999999999 1.0408219999999999 0.441438
v 1.6578010000000001 1.0408219999999999 0.35719099999999998
v 2.0168629999999999 1.0408219999999999 0.117272
v 2.2567819999999998 1.0408219999999999 -0.24179
v -2.1110890000000002 1.0408219999999999 -2.6368360000000002
v -2.470151 1.0408219999999999 -2.3969179999999999
v -2.71007 1.0408219999999999 -2.037855
v -2.7943169999999999 1.0408219999999999 -1.614312
v -1.6875439999999999 1.0408219999999999 -2.7210839999999998
v -2.7322649999999999 0.93207799999999996 -1.6028450000000001
v -2.6500530000000002 0.93207799999999996 -2.0161530000000001
v -2.4159329999999999 0.93207799999999996 -2.3665379999999998
v -2.0655480000000002 0.93207799999999996 -2.6006580000000001
v -1.6522399999999999 0.93207799999999996 -2.6828699999999999
v 2.2567819999999998 1.0408219999999999 -2.037855
v 2.0168629999999999 1.0408219999999999 -2.3969179999999999
v 1.6578010000000001 1.0408219999999999 -2.6368360000000002
v 1.2342569999999999 1.0408219999999999 -2.7210839999999998
v 2.3410289999999998 1.0408219999999999 -1.614312
v 2.2789769999999998 0.93207799999999996 -1.6028450000000001
v 1.198952 0.93207799999999996 -2.6828699999999999
v 1.61226 0.93207799999999996 -2.6006580000000001
v 1.962645 0.93207799999999996 -2.3665379999999998
v 2.1967660000000002 0.93207799999999996 -2.0161530000000001
v -2.8320249999999998 0.98645000000000005 -0.65836600000000001
v -2.8320249999999998 0.98645000000000005 -1.6212800000000001
v -2.74654 0.98645000000000005 -2.0510429999999999
v -2.503098 0.98645000000000005 -2.4153790000000002
v -2.138763 0.98645000000000005 -2.6588210000000001
v -1.7089989999999999 0.98645000000000005 -2.7443059999999999
v 1.255711 0.98645000000000005 -2.7443059999999999
v 1.6854750000000001 0.98645000000000005 -2.6588210000000001
v 2.0498099999999999 0.98645000000000005 -2.4153790000000002
v 2.2932519999999998 0.98645000000000005 -2.0510429999999999
v 2.3787370000000001 0.98645000000000005 -1.6212800000000001
v 2.3787370000000001 0.98645000000000005 -0.65836600000000001
v 2.2932519999999998 0.98645000000000005 -0.228602
v 2.0498099999999999 0.98645000000000005 0.13573399999999999
v 1.6854750000000001 0.98645000000000005 0.37917499999999998
v 1.255711 0.98645000000000005 0.46466000000000002
v -1.7089989999999999 0.98645000000000005 0.46466000000000002
v -2.138763 0.98645000000000005 0.37917499999999998
v -2.503098 0.98645000000000005 0.13573399999999999
v -2.74654 0.98645000000000005 -0.228602
v -1.966896 0 -0.11880599999999999
v -2.0164390000000001 0 -0.15480099999999999
v -2.077677 0 -0.15480099999999999
v -2.1272199999999999 0 -0.11880599999999999
v -2.1461440000000001 0 -0.060565000000000001
v -2.1272199999999999 0 -0.0023240000000000001
v -2.077677 0 0.033672000000000001
v -2.016438 0 0.033672000000000001
v -1.9668950000000001 0 -0.0023240000000000001
v -1.947972 0 -0.060565000000000001
v -1.966896 1.71082 -0.11880599999999999
v -2.0164390000000001 1.71082 -0.15480099999999999
v -2.077677 1.71082 -0.15480099999999999
v -2.1272199999999999 1.71082 -0.11880599999999999
v -2.1461440000000001 1.71082 -0.060565000000000001
v -2.1272199999999999 1.71082 -0.0023240000000000001
v -2.077677 1.71082 0.033672000000000001
v -2.016438 1.71082 0.033672000000000001
v -1.9668950000000001 1.71082 -0.0023240000000000001
v -1.947972 1.71082 -0.060565000000000001
v -2.0470579999999998 0 -0.060565000000000001
v -2.0470579999999998 1.71082 -0.060565000000000001
v -1.966896 0 -2.210423
v -2.0164390000000001 0 -2.2464179999999998
v -2.077677 0 -2.2464179999999998
v -2.1272199999999999 0 -2.210423
v -2.1461440000000001 0 -2.1521819999999998
v -2.1272199999999999 0 -2.0939399999999999
v -2.077677 0 -2.0579450000000001
v -2.016438 0 -2.0579450000000001
v -1.9668950000000001 0 -2.0939399999999999
v -1.947972 0 -2.1521819999999998
v -1.966896 1.71082 -2.210423
v -2.0164390000000001 1.71082 -2.2464179999999998
v -2.077677 1.71082 -2.2464179999999998
v -2.1272199999999999 1.71082 -2.210423
v -2.1461440000000001 1.71082 -2.1521819999999998
v -2.1272199999999999 1.71082 -2.0939399999999999
v -2.077677 1.71082 -2.0579450000000001
v -2.016438 1.71082 -2.0579450000000001
v -1.9668950000000001 1.71082 -2.0939399999999999
v -1.947972 1.71082 -2.1521819999999998
v -2.0470579999999998 0 -2.1521819999999998
v -2.0470579999999998 1.71082 -2.1521819999999998
v 1.7472000000000001 0 -2.210423
v 1.697657 0 -2.2464179999999998
v 1.6364190000000001 0 -2.2464179999999998
v 1.586876 0 -2.210423
v 1.567952 0 -2.1521819999999998
v 1.586876 0 -2.0939399999999999
v 1.6364190000000001 0 -2.0579450000000001
v 1.697657 0 -2.0579450000000001
v 1.747201 0 -2.0939399999999999
v 1.766124 0 -2.1521819999999998
v 1.7472000000000001 1.71082 -2.210423
v 1.697657 1.71082 -2.2464179999999998
v 1.6364190000000001 1.71082 -2.2464179999999998
v 1.586876 1.71082 -2.210423
v 1.567952 1.71082 -2.1521819999999998
v 1.586876 1.71082 -2.0939399999999999
v 1.6364190000000001 1.71082 -2.0579450000000001
v 1.697657 1.71082 -2.0579450000000001
v 1.747201 1.71082 -2.0939399999999999
v 1.766124 1.71082 -2.1521819999999998
v 1.667038 0 -2.1521819999999998
v 1.667038 1.71082 -2.1521819999999998
v 1.7472000000000001 0 -0.11880599999999999
v 1.697657 0 -0.15480099999999999
v 1.6364190000000001 0 -0.15480099999999999
v 1.586876 0 -0.11880599999999999
v 1.567952 0 -0.060565000000000001
v 1.586876 0 -0.0023240000000000001
v 1.6364190000000001 0 0.033672000000000001
v 1.697657 0 0.033672000000000001
v 1.747201 0 -0.0023240000000000001
v 1.766124 0 -0.060565000000000001
v 1.7472000000000001 1.71082 -0.11880599999999999
v 1.697657 1.71082 -0.15480099999999999
v 1.6364190000000001 1.71082 -0.15480099999999999
v 1.586876 1.71082 -0.11880599999999999
v 1.567952 1.71082 -0.060565000000000001
v 1.586876 1.71082 -0.0023240000000000001
v 1.6364190000000001 1.71082 0.033672000000000001
v 1.697657 1.71082 0.033672000000000001
v 1.747201 1.71082 -0.0023240000000000001
v 1.766124 1.71082 -0.060565000000000001
v 1.667038 0 -0.060565000000000001
v 1.667038 1.71082 -0.060565000000000001
#end vertices

#begin 336 textures vertices 
vt 0.45613005757331848 0.68624836206436157 0
vt 0.56618547439575195 0.57499599456787109 0
vt 0.55793285369873047 0.6173667311668396 0
vt 0.5342249870300293 0.65335619449615479 0
vt 0.49849110841751099 0.67753911018371582 0
vt 0.84145081043243408 0.16833320260047913 0
vt 0.88400626182556152 0.17584486305713654 0
vt 0.92040127515792847 0.19908344745635986 0
vt 0.94503307342529297 0.2346377968788147 0
vt 0.95429849624633789 0.27685993909835815 0
vt 0.45380133390426636 0.17257434129714966 0
vt 0.49621379375457764 0.18079610168933868 0
vt 0.53215044736862183 0.20464815199375153 0
vt 0.55611783266067505 0.24068042635917664 0
vt 0.56471139192581177 0.2830149233341217 0
vt 0.85225456953048706 0.68189394474029541 0
vt 0.96052849292755127 0.56884396076202393 0
vt 0.95301973819732666 0.61135518550872803 0
vt 0.92985045909881592 0.64775753021240234 0
vt 0.89446401596069336 0.67252737283706665 0
vt 0.64566391706466675 0.24097190797328949 0
vt 0.6688312292098999 0.20456984639167786 0
vt 0.70421695709228516 0.17979878187179565 0
vt 0.74642652273178101 0.17043092846870422 0
vt 0.63816016912460327 0.28348138928413391 0
vt 0.36095127463340759 0.68684613704681396 0
vt 0.3185330331325531 0.67862874269485474 0
vt 0.28258740901947021 0.65477955341339111 0
vt 0.25862058997154236 0.61874401569366455 0
vt 0.25003564357757568 0.57639753818511963 0
vt 0.71467924118041992 0.6764754056930542 0
vt 0.6782875657081604 0.65323644876480103 0
vt 0.65365517139434814 0.61768323183059692 0
vt 0.64438718557357788 0.57546442747116089 0
vt 0.75723278522491455 0.68398851156234741 0
vt 0.35863059759140015 0.17316104471683502 0
vt 0.24855881929397583 0.28440758585929871 0
vt 0.25682348012924194 0.24203380942344666 0
vt 0.28053593635559082 0.20604513585567474 0
vt 0.31627118587493896 0.1818656325340271 0
vt 0.4581623375415802 0.69775062799453735 0
vt 0.35906007885932922 0.6983909010887146 0
vt 0.3144848644733429 0.68964290618896484 0
vt 0.2764756977558136 0.66459506750106812 0
vt 0.25093543529510498 0.62669122219085693 0
vt 0.24141804873943329 0.58209294080734253 0
vt 0.2398945540189743 0.27877771854400635 0
vt 0.24908521771430969 0.23414602875709534 0
vt 0.2743639349937439 0.19626657664775848 0
vt 0.31212484836578369 0.170887291431427 0
vt 0.35660117864608765 0.16165846586227417 0
vt 0.45569512248039246 0.16102960705757141 0
vt 0.50026452541351318 0.16978304088115692 0
vt 0.53826326131820679 0.19483356177806854 0
vt 0.56380176544189453 0.23273184895515442 0
vt 0.57332068681716919 0.27731794118881226 0
vt 0.57485771179199219 0.58062398433685303 0
vt 0.56567293405532837 0.62525147199630737 0
vt 0.54039859771728516 0.66313362121582031 0
vt 0.50263994932174683 0.68851649761199951 0
vt 0.60696786642074585 0.88152605295181274 0
vt 0.68738359212875366 0.9598160982131958 0
vt 0.6569526195526123 0.95416486263275146 0
vt 0.63100069761276245 0.93736052513122559 0
vt 0.61345028877258301 0.91185766458511353 0
vt 0.20593975484371185 0.80557990074157715 0
vt 0.21240407228469849 0.77461093664169312 0
vt 0.23024946451187134 0.74852496385574341 0
vt 0.25687658786773682 0.73118680715560913 0
vt 0.2879035472869873 0.72506088018417358 0
vt 0.97529768943786621 0.87688344717025757 0
vt 0.96965324878692627 0.90735214948654175 0
vt 0.95276260375976563 0.93328070640563965 0
vt 0.92707729339599609 0.95069068670272827 0
vt 0.89675527811050415 0.95708489418029785 0
vt 0.58342623710632324 0.80825358629226685 0
vt 0.50259250402450562 0.72625893354415894 0
vt 0.53373241424560547 0.73288637399673462 0
vt 0.55995988845825195 0.75064218044281006 0
vt 0.57739412784576416 0.77705776691436768 0
vt 0.25518524646759033 0.95090222358703613 0
vt 0.22896198928356171 0.93314504623413086 0
vt 0.21153447031974792 0.90672874450683594 0
vt 0.20550982654094696 0.87553441524505615 0
vt 0.28632503747940063 0.95753693580627441 0
vt 0.60600298643112183 0.81331121921539307 0
vt 0.6116483211517334 0.78284686803817749 0
vt 0.62853771448135376 0.756916344165802 0
vt 0.6542242169380188 0.73950666189193726 0
vt 0.68455213308334351 0.73311680555343628 0
vt 0.57655864953994751 0.90920007228851318 0
vt 0.55871951580047607 0.93529766798019409 0
vt 0.53208702802658081 0.95263707637786865 0
vt 0.50104063749313354 0.95875155925750732 0
vt 0.58301496505737305 0.8782227635383606 0
vt 0.97433567047119141 0.80867177248001099 0
vt 0.89392346143722534 0.73038363456726074 0
vt 0.92435532808303833 0.73604178428649902 0
vt 0.95030677318572998 0.75284713506698608 0
vt 0.96785581111907959 0.77834665775299072 0
vt 0.59863501787185669 0.88309592008590698 0
vt 0.59763836860656738 0.81197440624237061 0
vt 0.60361725091934204 0.77999210357666016 0
vt 0.62134033441543579 0.75263434648513794 0
vt 0.64832484722137451 0.73415297269821167 0
vt 0.68021327257156372 0.72715836763381958 0
vt 0.89812004566192627 0.7243196964263916 0
vt 0.93012368679046631 0.7305530309677124 0
vt 0.95740467309951782 0.74840223789215088 0
vt 0.97581160068511963 0.7752874493598938 0
vt 0.9826589822769165 0.8071020245552063 0
vt 0.98367190361022949 0.87821894884109497 0
vt 0.9776841402053833 0.91020756959915161 0
vt 0.95995974540710449 0.93756264448165894 0
vt 0.93297743797302246 0.95604389905929565 0
vt 0.90109515190124512 0.96303915977478027 0
vt 0.68318825960159302 0.96588426828384399 0
vt 0.65118592977523804 0.95965427160263062 0
vt 0.62390351295471191 0.94180607795715332 0
vt 0.60549467802047729 0.91491800546646118 0
vt 0.015977846458554268 0.99282151460647583 0
vt 0.011476917192339897 0.99282151460647583 0
vt 0.051985271275043488 0.99282151460647583 0
vt 0.047484353184700012 0.99282151460647583 0
vt 0.042983442544937134 0.99282151460647583 0
vt 0.038482528179883957 0.99282151460647583 0
vt 0.0339815653860569 0.99282151460647583 0
vt 0.029480602592229843 0.99282151460647583 0
vt 0.024979639798402786 0.99282151460647583 0
vt 0.020478755235671997 0.99282151460647583 0
vt 0.015977846458554268 0.86707919836044312 0
vt 0.011476917192339897 0.86707919836044312 0
vt 0.051985271275043488 0.86707919836044312 0
vt 0.047484353184700012 0.86707919836044312 0
vt 0.042983442544937134 0.86707919836044312 0
vt 0.038482528179883957 0.86707919836044312 0
vt 0.0339815653860569 0.86707919836044312 0
vt 0.029480602592229843 0.86707919836044312 0
vt 0.024979639798402786 0.86707919836044312 0
vt 0.020478755235671997 0.86707919836044312 0
vt 0.17285794019699097 0.945903480052948 0
vt 0.14325319230556488 0.93978440761566162 0
vt 0.014982209540903568 0.85427945852279663 0
vt 0.010481278412044048 0.85427945852279663 0
vt 0.050989687442779541 0.85427945852279663 0
vt 0.046488769352436066 0.85427945852279663 0
vt 0.041987854987382889 0.85427945852279663 0
vt 0.037486877292394638 0.85427945852279663 0
vt 0.032985955476760864 0.85427945852279663 0
vt 0.028484996408224106 0.85427945852279663 0
vt 0.023984074592590332 0.85427945852279663 0
vt 0.019483119249343872 0.85427945852279663 0
vt 0.014982209540903568 0.72853714227676392 0
vt 0.010481278412044048 0.72853714227676392 0
vt 0.050989687442779541 0.72853714227676392 0
vt 0.046488769352436066 0.72853714227676392 0
vt 0.041987854987382889 0.72853714227676392 0
vt 0.037486877292394638 0.72853714227676392 0
vt 0.032985955476760864 0.72853714227676392 0
vt 0.028484996408224106 0.72853714227676392 0
vt 0.023984074592590332 0.72853714227676392 0
vt 0.019483119249343872 0.72853714227676392 0
vt 0.14346444606781006 0.887381911277771 0
vt 0.17254361510276794 0.88931870460510254 0
vt 0.071963787078857422 0.85348260402679443 0
vt 0.067462868988513947 0.85348260402679443 0
vt 0.10797125101089478 0.85348260402679443 0
vt 0.1034703329205513 0.85348260402679443 0
vt 0.098969422280788422 0.85348260402679443 0
vt 0.094468444585800171 0.85348260402679443 0
vt 0.089967519044876099 0.85348260402679443 0
vt 0.085466638207435608 0.85348260402679443 0
vt 0.08096565306186676 0.85348260402679443 0
vt 0.0764646977186203 0.85348260402679443 0
vt 0.071963787078857422 0.72774034738540649 0
vt 0.067462868988513947 0.72774034738540649 0
vt 0.10797125101089478 0.72774034738540649 0
vt 0.1034703329205513 0.72774034738540649 0
vt 0.098969422280788422 0.72774034738540649 0
vt 0.094468444585800171 0.72774034738540649 0
vt 0.089967519044876099 0.72774034738540649 0
vt 0.085466638207435608 0.72774034738540649 0
vt 0.08096565306186676 0.72774034738540649 0
vt 0.0764646977186203 0.72774034738540649 0
vt 0.14346444606781006 0.91353011131286621 0
vt 0.17658138275146484 0.91964900493621826 0
vt 0.071963787078857422 0.99102902412414551 0
vt 0.067462868988513947 0.99102902412414551 0
vt 0.10797120630741119 0.99102902412414551 0
vt 0.10347028076648712 0.99102902412414551 0
vt 0.098969370126724243 0.99102902412414551 0
vt 0.094468459486961365 0.99102902412414551 0
vt 0.089967496693134308 0.99102902412414551 0
vt 0.08546660840511322 0.99102902412414551 0
vt 0.080965586006641388 0.99102902412414551 0
vt 0.0764646977186203 0.99102902412414551 0
vt 0.071963787078857422 0.86528676748275757 0
vt 0.067462868988513947 0.86528676748275757 0
vt 0.10797120630741119 0.86528676748275757 0
vt 0.10347028076648712 0.86528676748275757 0
vt 0.098969370126724243 0.86528676748275757 0
vt 0.094468459486961365 0.86528676748275757 0
vt 0.089967496693134308 0.86528676748275757 0
vt 0.08546660840511322 0.86528676748275757 0
vt 0.080965586006641388 0.86528676748275757 0
vt 0.0764646977186203 0.86528676748275757 0
vt 0.17285794019699097 0.97205162048339844 0
vt 0.1448788046836853 0.96585434675216675 0
vt 0.96755373477935791 0.57424116134643555 0
vt 0.2078612893819809 0.77278518676757813 0
vt 0.84306454658508301 0.15802471339702606 0
vt 0.2522118091583252 0.95465236902236938 0
vt 0.96109044551849365 0.27118071913719177 0
vt 0.16642780601978302 0.94932246208190918 0
vt 0.63113260269165039 0.2780851423740387 0
vt 0.58110207319259644 0.91102403402328491 0
vt 0.63759690523147583 0.58114415407180786 0
vt 0.58786273002624512 0.87896227836608887 0
vt 0.75561869144439697 0.69429701566696167 0
vt 0.53670370578765869 0.72913521528244019 0
vt 0.85432201623916626 0.69212603569030762 0
vt 0.50438022613525391 0.72194379568099976 0
vt 0.88741189241409302 0.16588321328163147 0
vt 0.17809665203094482 0.9509623646736145 0
vt 0.7443583607673645 0.16019894182682037 0
vt 0.28453576564788818 0.96184653043746948 0
vt 0.92543315887451172 0.19009827077388763 0
vt 0.17412257194519043 0.95307540893554688 0
vt 0.95124328136444092 0.2271607518196106 0
vt 0.16966547071933746 0.95244902372360229 0
vt 0.056486152112483978 0.99282151460647583 0
vt 0.95952785015106201 0.6185683012008667 0
vt 0.22634707391262054 0.74559140205383301 0
vt 0.93524277210235596 0.65652990341186523 0
vt 0.25396007299423218 0.72739201784133911 0
vt 0.89829283952713013 0.68233484029769897 0
vt 0.28616255521774292 0.72073066234588623 0
vt 0.70038735866546631 0.16999195516109467 0
vt 0.50278007984161377 0.96308749914169312 0
vt 0.66343861818313599 0.19579784572124481 0
vt 0.53500193357467651 0.9564329981803894 0
vt 0.63915491104125977 0.23375985026359558 0
vt 0.56262195110321045 0.93823093175888062 0
vt 0.64744532108306885 0.62516027688980103 0
vt 0.58829504251480103 0.80759507417678833 0
vt 0.67325538396835327 0.66222113370895386 0
vt 0.58197355270385742 0.77532434463500977 0
vt 0.71127277612686157 0.68643701076507568 0
vt 0.56391811370849609 0.74778187274932861 0
vt 0.20109221339225769 0.80483865737915039 0
vt 0.20064100623130798 0.87619113922119141 0
vt 0.20695431530475616 0.90846043825149536 0
vt 0.2250024825334549 0.93600368499755859 0
vt 0.056486152112483978 0.86707919836044312 0
vt 0.13876956701278687 0.93404561281204224 0
vt 0.13625267148017883 0.93777704238891602 0
vt 0.14299900829792023 0.93250620365142822 0
vt 0.14732557535171509 0.9337468147277832 0
vt 0.18006974458694458 0.94691699743270874 0
vt 0.15009663999080658 0.93729358911514282 0
vt 0.17928814888000488 0.94248449802398682 0
vt 0.15025369822978973 0.94179171323776245 0
vt 0.17605048418045044 0.93935781717300415 0
vt 0.14773683249950409 0.94552326202392578 0
vt 0.1715933233499527 0.93873137235641479 0
vt 0.14350731670856476 0.94706267118453979 0
vt 0.1676192432641983 0.94084453582763672 0
vt 0.1391807347536087 0.94582200050354004 0
vt 0.16564621031284332 0.94488990306854248 0
vt 0.13640974462032318 0.94227522611618042 0
vt 0.13703426718711853 0.89080089330673218 0
vt 0.14027196168899536 0.89392751455307007 0
vt 0.055490568280220032 0.85427945852279663 0
vt 0.055490568280220032 0.72853714227676392 0
vt 0.16805998980998993 0.88357996940612793 0
vt 0.1655430942773819 0.88731139898300171 0
vt 0.14472904801368713 0.89455389976501465 0
vt 0.17228943109512329 0.88204056024551392 0
vt 0.14870312809944153 0.89244085550308228 0
vt 0.17661599814891815 0.8832811713218689 0
vt 0.15067622065544128 0.88839548826217651 0
vt 0.17938706278800964 0.88682788610458374 0
vt 0.14989463984966278 0.88396286964416504 0
vt 0.17954413592815399 0.89132612943649292 0
vt 0.14665694534778595 0.88083630800247192 0
vt 0.17702725529670715 0.8950575590133667 0
vt 0.14219978451728821 0.88020986318588257 0
vt 0.17279773950576782 0.89659702777862549 0
vt 0.13822570443153381 0.88232290744781494 0
vt 0.16847117245197296 0.89535641670227051 0
vt 0.13625267148017883 0.88636839389801025 0
vt 0.16570016741752625 0.89180952310562134 0
vt 0.13703428208827972 0.91694909334182739 0
vt 0.14027197659015656 0.92007565498352051 0
vt 0.11247215420007706 0.85348260402679443 0
vt 0.11247215420007706 0.72774034738540649 0
vt 0.17209780216217041 0.91391021013259888 0
vt 0.16958089172840118 0.91764163970947266 0
vt 0.14472906291484833 0.92070209980010986 0
vt 0.17632722854614258 0.91237086057662964 0
vt 0.14870314300060272 0.91858899593353271 0
vt 0.18065381050109863 0.91361147165298462 0
vt 0.15067622065544128 0.91454362869262695 0
vt 0.18342490494251251 0.91715818643569946 0
vt 0.14989463984966278 0.91011106967926025 0
vt 0.18358196318149567 0.92165642976760864 0
vt 0.14665694534778595 0.90698444843292236 0
vt 0.18106508255004883 0.92538785934448242 0
vt 0.14219985902309418 0.90635806322097778 0
vt 0.17683559656143188 0.92692726850509644 0
vt 0.13822570443153381 0.90847110748291016 0
vt 0.17250895500183105 0.92568665742874146 0
vt 0.13625267148017883 0.91251653432846069 0
vt 0.16973794996738434 0.92213982343673706 0
vt 0.16642780601978302 0.97547060251235962 0
vt 0.16966553032398224 0.97859722375869751 0
vt 0.11247209459543228 0.99102902412414551 0
vt 0.11247209459543228 0.86528676748275757 0
vt 0.14039517939090729 0.96011555194854736 0
vt 0.13787829875946045 0.96384698152542114 0
vt 0.17412257194519043 0.97922360897064209 0
vt 0.14462463557720184 0.95857620239257813 0
vt 0.17809665203094482 0.97711056470870972 0
vt 0.14895118772983551 0.95981681346893311 0
vt 0.18006974458694458 0.97306519746780396 0
vt 0.151722252368927 0.96336352825164795 0
vt 0.17928814888000488 0.96863263845443726 0
vt 0.15187931060791016 0.96786171197891235 0
vt 0.17605048418045044 0.96550595760345459 0
vt 0.14936244487762451 0.97159320116043091 0
vt 0.17159338295459747 0.96487957239151001 0
vt 0.14513298869132996 0.97313261032104492 0
vt 0.1676192432641983 0.96699267625808716 0
vt 0.14080633223056793 0.97189193964004517 0
vt 0.16564621031284332 0.9710381031036377 0
vt 0.13803534209728241 0.96834516525268555 0
#end 336 textures vertices 

#begin 448 normals 
vn 0.046095999999999998 -0.044269999999999997 0.99795599999999995
vn -0.046095999999999998 -0.044269999999999997 0.99795599999999995
vn -0.010416999999999999 -0.68896800000000002 0.72471699999999994
vn 0.010416999999999999 -0.68896800000000002 0.72471699999999994
vn -0.010416999999999999 -0.68896800000000002 -0.72471699999999994
vn -0.046095999999999998 -0.044269999999999997 -0.99795599999999995
vn 0.046095999999999998 -0.044269999999999997 -0.99795599999999995
vn 0.010418 -0.68896800000000002 -0.72471699999999994
vn 0.997811 -0.0087460000000000003 -0.065548999999999996
vn 0.997811 -0.0087449999999999993 0.065548999999999996
vn 0.54439800000000005 -0.83823700000000001 0.031466000000000001
vn 0.54439800000000005 -0.83823700000000001 -0.031466000000000001
vn -0.997811 -0.0087449999999999993 0.065548999999999996
vn -0.997811 -0.0087460000000000003 -0.065548999999999996
vn -0.54439800000000005 -0.83823700000000001 -0.031466000000000001
vn -0.54439800000000005 -0.83823700000000001 0.031466000000000001
vn -0.49656899999999998 -0.84264700000000003 0.20824400000000001
vn -0.92595099999999997 -0.013879000000000001 0.377388
vn -0.38949299999999998 -0.82455500000000004 0.41037200000000001
vn -0.73050800000000005 -0.01311 0.682778
vn -0.215503 -0.77204099999999998 0.59792199999999995
vn -0.437637 -0.010861000000000001 0.89908600000000005
vn 0.215503 -0.77204099999999998 0.59792199999999995
vn 0.437637 -0.010861000000000001 0.89908600000000005
vn 0.389492 -0.82455500000000004 0.41037299999999999
vn 0.73050800000000005 -0.01311 0.682778
vn 0.49656899999999998 -0.84264700000000003 0.20824400000000001
vn 0.92595099999999997 -0.013879000000000001 0.377388
vn -0.92595099999999997 -0.013880999999999999 -0.377388
vn -0.49656899999999998 -0.84264700000000003 -0.20824400000000001
vn -0.73050800000000005 -0.01311 -0.682778
vn -0.38949299999999998 -0.82455400000000001 -0.41037299999999999
vn -0.437637 -0.010861000000000001 -0.89908600000000005
vn -0.215503 -0.77204099999999998 -0.59792199999999995
vn 0.437637 -0.010861000000000001 -0.89908600000000005
vn 0.215503 -0.77204099999999998 -0.59792199999999995
vn 0.73050800000000005 -0.01311 -0.682778
vn 0.38949299999999998 -0.82455400000000001 -0.41037299999999999
vn 0.92595099999999997 -0.013880999999999999 -0.377388
vn 0.49656899999999998 -0.84264700000000003 -0.20824400000000001
vn 0 1 -0
vn 0 1 -0
vn 0 1 -0
vn 0 1 -0
vn 0 1 -0
vn 0 1 -0
vn 0 1 -0
vn 0 1 -0
vn 0 1 -0
vn 0 1 -0
vn 0 1 -0
vn 0 1 -0
vn 0 1 -0
vn 0 1 -0
vn 0 1 -0
vn 0 1 -0
vn 0 1 -0
vn 0 1 -0
vn 0 1 -0
vn 0 1 -0
vn 0 -1 0
vn 0 -1 0
vn 0 -1 0
vn 0 -1 0
vn 0 -1 0
vn 0 -1 0
vn 0 -1 0
vn 0 -1 0
vn 0 -1 0
vn 0 -1 0
vn 0 -1 0
vn 0 -1 0
vn 0 -1 0
vn 0 -1 0
vn 0 -1 0
vn 0 -1 0
vn 0 -1 0
vn 0 -1 0
vn 0 -1 0
vn 0 -1 0
vn -0.34381200000000001 0.93883099999999997 -0.019734999999999999
vn -0.34381099999999998 0.93883099999999997 0.019734999999999999
vn -0.31253900000000001 0.94079500000000005 -0.131242
vn -0.247812 0.93252199999999996 -0.26266499999999998
vn -0.14072999999999999 0.90642400000000001 -0.39823500000000001
vn -0.0065909999999999996 0.85978600000000005 -0.51061299999999998
vn 0.0065909999999999996 0.85978600000000005 -0.51061299999999998
vn 0.14072999999999999 0.90642400000000001 -0.39823599999999998
vn 0.247812 0.93252100000000004 -0.26266499999999998
vn 0.31253900000000001 0.94079500000000005 -0.131242
vn 0.34381099999999998 0.93883099999999997 -0.019734999999999999
vn 0.34381099999999998 0.93883099999999997 0.019734999999999999
vn 0.31253799999999998 0.94079500000000005 0.131242
vn 0.247812 0.93252199999999996 0.26266499999999998
vn 0.14072999999999999 0.90642400000000001 0.39823500000000001
vn 0.0065909999999999996 0.85978600000000005 0.51061299999999998
vn -0.0065909999999999996 0.85978600000000005 0.51061299999999998
vn -0.14072999999999999 0.90642400000000001 0.39823599999999998
vn -0.247812 0.93252100000000004 0.26266499999999998
vn -0.31253799999999998 0.94079500000000005 0.131242
vn 0.038782999999999998 -0.28359899999999999 0.95815799999999995
vn -0.038782999999999998 -0.28359899999999999 0.95815899999999998
vn -0.0090690000000000007 -0.75295699999999999 0.65800800000000004
vn 0.0090690000000000007 -0.75295699999999999 0.65800800000000004
vn -0.0090690000000000007 -0.75295699999999999 -0.65800800000000004
vn -0.038782999999999998 -0.28359899999999999 -0.95815899999999998
vn 0.038782999999999998 -0.28359899999999999 -0.95815799999999995
vn 0.0090690000000000007 -0.75295699999999999 -0.65800800000000004
vn 0.87383699999999997 -0.48289900000000002 -0.056723000000000003
vn 0.87383699999999997 -0.48289900000000002 0.056723000000000003
vn 0.47448400000000002 -0.87983900000000004 0.027345999999999999
vn 0.47448400000000002 -0.87983900000000004 -0.027345999999999999
vn -0.87383699999999997 -0.48289900000000002 0.056723000000000003
vn -0.87383699999999997 -0.48289900000000002 -0.056723000000000003
vn -0.47448400000000002 -0.87983900000000004 -0.027345999999999999
vn -0.47448400000000002 -0.87983900000000004 0.027345999999999999
vn -0.43220599999999998 -0.883351 0.18135299999999999
vn -0.81057199999999996 -0.48287400000000003 0.33137
vn -0.340447 -0.868788 0.35958699999999999
vn -0.64358199999999999 -0.46301199999999998 0.60944399999999999
vn -0.190197 -0.82514100000000001 0.53194799999999998
vn -0.38796900000000001 -0.41475099999999998 0.82308099999999995
vn 0.190197 -0.82513999999999998 0.53194799999999998
vn 0.38796900000000001 -0.41475099999999998 0.82308099999999995
vn 0.340447 -0.868788 0.35958800000000002
vn 0.64358199999999999 -0.46301199999999998 0.60944399999999999
vn 0.43220599999999998 -0.883351 0.18135299999999999
vn 0.81057199999999996 -0.48287400000000003 0.33137
vn -0.81057199999999996 -0.48287400000000003 -0.33137
vn -0.43220599999999998 -0.883351 -0.18135299999999999
vn -0.64358300000000002 -0.46301100000000001 -0.60944399999999999
vn -0.340447 -0.868788 -0.35958800000000002
vn -0.38796900000000001 -0.41475099999999998 -0.82308099999999995
vn -0.190197 -0.82513999999999998 -0.53194799999999998
vn 0.38796900000000001 -0.41475099999999998 -0.82308099999999995
vn 0.190197 -0.82514100000000001 -0.53194799999999998
vn 0.64358199999999999 -0.46301199999999998 -0.60944399999999999
vn 0.340447 -0.868788 -0.35958699999999999
vn 0.81057199999999996 -0.48287400000000003 -0.33137
vn 0.43220599999999998 -0.883351 -0.18135299999999999
vn 0 1 0
vn 0 1 0
vn 0 1 0
vn 0 1 0
vn 0 1 0
vn 0 1 0
vn 0 1 0
vn 0 1 0
vn 0 1 0
vn 0 1 0
vn 0 1 0
vn 0 1 0
vn 0 1 0
vn 0 1 0
vn 0 1 0
vn 0 1 0
vn 0 1 0
vn 0 1 0
vn 0 1 0
vn 0 1 0
vn 0 -1 0
vn 0 -1 0
vn 0 -1 0
vn 0 -1 0
vn 0 -1 0
vn 0 -1 0
vn 0 -1 0
vn 0 -1 0
vn 0 -1 0
vn 0 -1 0
vn 0 -1 0
vn 0 -1 0
vn 0 -1 0
vn 0 -1 0
vn 0 -1 0
vn 0 -1 0
vn 0 -1 0
vn 0 -1 0
vn 0 -1 0
vn 0 -1 0
vn -0.81787200000000004 0.57338100000000003 -0.048155000000000003
vn -0.81787200000000004 0.57338100000000003 0.048155000000000003
vn -0.75148800000000004 0.58023100000000005 -0.31400400000000001
vn -0.578009 0.55376000000000003 -0.59938000000000002
vn -0.30862499999999998 0.48736299999999999 -0.81684000000000001
vn -0.016372999999999999 0.39817399999999997 -0.91716399999999998
vn 0.016372999999999999 0.398175 -0.91716399999999998
vn 0.30862499999999998 0.48736299999999999 -0.81684000000000001
vn 0.578009 0.553759 -0.59938000000000002
vn 0.75148700000000002 0.58023100000000005 -0.31400400000000001
vn 0.81787200000000004 0.57338199999999995 -0.048155000000000003
vn 0.81787200000000004 0.57338199999999995 0.048155000000000003
vn 0.75148700000000002 0.58023100000000005 0.31400400000000001
vn 0.578009 0.553759 0.59938000000000002
vn 0.30862499999999998 0.48736200000000002 0.81684100000000004
vn 0.016372999999999999 0.39817399999999997 0.91716399999999998
vn -0.016372999999999999 0.39817399999999997 0.91716399999999998
vn -0.30862499999999998 0.48736200000000002 0.81684100000000004
vn -0.578009 0.553759 0.59938000000000002
vn -0.75148800000000004 0.58023100000000005 0.31400400000000001
vn 0.58778399999999997 0 -0.80901800000000001
vn 0.58778399999999997 0 -0.80901800000000001
vn 0.58778399999999997 0 -0.80901800000000001
vn 0.58778399999999997 0 -0.80901800000000001
vn 0 0 -1
vn 0 0 -1
vn 0 0 -1
vn 0 0 -1
vn -0.58778600000000003 0 -0.80901699999999999
vn -0.58778600000000003 0 -0.80901699999999999
vn -0.58778600000000003 0 -0.80901699999999999
vn -0.58778600000000003 0 -0.80901699999999999
vn -0.95105600000000001 0 -0.30901800000000001
vn -0.95105600000000001 0 -0.30901800000000001
vn -0.95105600000000001 0 -0.30901800000000001
vn -0.95105600000000001 0 -0.30901800000000001
vn -0.95105700000000004 0 0.30901699999999999
vn -0.95105700000000004 0 0.30901699999999999
vn -0.95105700000000004 0 0.30901699999999999
vn -0.95105700000000004 0 0.30901699999999999
vn -0.58778600000000003 0 0.80901699999999999
vn -0.58778600000000003 0 0.80901699999999999
vn -0.58778600000000003 0 0.80901699999999999
vn -0.58778600000000003 0 0.80901699999999999
vn 0 0 1
vn 0 0 1
vn 0 0 1
vn 0 0 1
vn 0.58778600000000003 0 0.80901599999999996
vn 0.58778600000000003 0 0.80901599999999996
vn 0.58778600000000003 0 0.80901599999999996
vn 0.58778600000000003 0 0.80901599999999996
vn 0.95105700000000004 0 0.30901699999999999
vn 0.95105700000000004 0 0.30901699999999999
vn 0.95105700000000004 0 0.30901699999999999
vn 0.95105700000000004 0 0.30901699999999999
vn 0.95105600000000001 0 -0.30901800000000001
vn 0.95105600000000001 0 -0.30901800000000001
vn 0.95105600000000001 0 -0.30901800000000001
vn 0.95105600000000001 0 -0.30901800000000001
vn 0 -1 0
vn 0 -1 0
vn 0 -1 0
vn 0 -1 0
vn 0 -1 0
vn 0 -1 0
vn 0 -1 0
vn 0 -1 0
vn 0 -1 0
vn 0 -1 0
vn 0 -1 0
vn 0 1 0
vn 0 1 3.0000000000000001e-006
vn 0 1 -0
vn 0 1 -0
vn 0 1 1.9999999999999999e-006
vn 0 1 0
vn 0 1 -3.0000000000000001e-006
vn 0 1 0
vn 0 1 -9.9999999999999995e-007
vn 0 1 -9.9999999999999995e-007
vn 0 1 -3.0000000000000001e-006
vn 0.587785 0 -0.80901699999999999
vn 0.587785 0 -0.80901699999999999
vn 0.587785 0 -0.80901699999999999
vn 0.587785 0 -0.80901699999999999
vn 0 0 -1
vn 0 0 -1
vn 0 0 -1
vn 0 0 -1
vn -0.587785 0 -0.80901699999999999
vn -0.587785 0 -0.80901699999999999
vn -0.587785 0 -0.80901699999999999
vn -0.587785 0 -0.80901699999999999
vn -0.95105700000000004 0 -0.30901699999999999
vn -0.95105700000000004 0 -0.30901699999999999
vn -0.95105700000000004 0 -0.30901699999999999
vn -0.95105700000000004 0 -0.30901699999999999
vn -0.95105700000000004 0 0.30901699999999999
vn -0.95105700000000004 0 0.30901699999999999
vn -0.95105700000000004 0 0.30901699999999999
vn -0.95105700000000004 0 0.30901699999999999
vn -0.58778399999999997 0 0.80901800000000001
vn -0.58778399999999997 0 0.80901800000000001
vn -0.58778399999999997 0 0.80901800000000001
vn -0.58778399999999997 0 0.80901800000000001
vn -9.9999999999999995e-007 0 1
vn -9.9999999999999995e-007 0 1
vn -9.9999999999999995e-007 0 1
vn -9.9999999999999995e-007 0 1
vn 0.58778600000000003 0 0.80901699999999999
vn 0.58778600000000003 0 0.80901699999999999
vn 0.58778600000000003 0 0.80901699999999999
vn 0.58778600000000003 0 0.80901699999999999
vn 0.95105700000000004 0 0.30901699999999999
vn 0.95105700000000004 0 0.30901699999999999
vn 0.95105700000000004 0 0.30901699999999999
vn 0.95105700000000004 0 0.30901699999999999
vn 0.95105600000000001 0 -0.30901899999999999
vn 0.95105600000000001 0 -0.30901899999999999
vn 0.95105600000000001 0 -0.30901899999999999
vn 0.95105600000000001 0 -0.30901899999999999
vn 0 -1 0
vn 0 -1 0
vn 0 -1 0
vn 0 -1 0
vn 0 -1 0
vn 0 -1 0
vn 0 -1 0
vn 0 -1 0
vn 0 -1 0
vn 0 -1 0
vn 0 -1 0
vn 0 1 0
vn 0 1 3.0000000000000001e-006
vn 0 1 -0
vn 0 1 -0
vn 0 1 1.9999999999999999e-006
vn 0 1 0
vn 0 1 -3.0000000000000001e-006
vn 0 1 0
vn 0 1 -9.9999999999999995e-007
vn 0 1 -9.9999999999999995e-007
vn 0 1 -3.0000000000000001e-006
vn 0.587785 0 -0.80901699999999999
vn 0.587785 0 -0.80901699999999999
vn 0.587785 0 -0.80901699999999999
vn 0.587785 0 -0.80901699999999999
vn 0 0 -1
vn 0 0 -1
vn 0 0 -1
vn 0 0 -1
vn -0.58778399999999997 0 -0.80901800000000001
vn -0.58778399999999997 0 -0.80901800000000001
vn -0.58778399999999997 0 -0.80901800000000001
vn -0.58778399999999997 0 -0.80901800000000001
vn -0.95105700000000004 0 -0.30901499999999998
vn -0.95105700000000004 0 -0.30901499999999998
vn -0.95105700000000004 0 -0.30901499999999998
vn -0.95105700000000004 0 -0.30901499999999998
vn -0.95105700000000004 0 0.30901699999999999
vn -0.95105700000000004 0 0.30901699999999999
vn -0.95105700000000004 0 0.30901699999999999
vn -0.95105700000000004 0 0.30901699999999999
vn -0.587785 0 0.80901699999999999
vn -0.587785 0 0.80901699999999999
vn -0.587785 0 0.80901699999999999
vn -0.587785 0 0.80901699999999999
vn -9.9999999999999995e-007 0 1
vn -9.9999999999999995e-007 0 1
vn -9.9999999999999995e-007 0 1
vn -9.9999999999999995e-007 0 1
vn 0.587785 0 0.80901699999999999
vn 0.587785 0 0.80901699999999999
vn 0.587785 0 0.80901699999999999
vn 0.587785 0 0.80901699999999999
vn 0.95105700000000004 0 0.30901699999999999
vn 0.95105700000000004 0 0.30901699999999999
vn 0.95105700000000004 0 0.30901699999999999
vn 0.95105700000000004 0 0.30901699999999999
vn 0.95105600000000001 0 -0.30901899999999999
vn 0.95105600000000001 0 -0.30901899999999999
vn 0.95105600000000001 0 -0.30901899999999999
vn 0.95105600000000001 0 -0.30901899999999999
vn 0 -1 0
vn 0 -1 0
vn 0 -1 0
vn 0 -1 0
vn 0 -1 0
vn 0 -1 0
vn 0 -1 0
vn 0 -1 0
vn 0 -1 0
vn 0 -1 0
vn 0 -1 0
vn 0 1 0
vn 0 1 0
vn 0 1 -9.9999999999999995e-007
vn 0 1 -9.9999999999999995e-007
vn 0 1 -9.9999999999999995e-007
vn 0 1 0
vn 0 1 0
vn 0 1 0
vn 0 1 9.9999999999999995e-007
vn 0 1 -1.9999999999999999e-006
vn 0 1 -3.0000000000000001e-006
vn 0.58778399999999997 0 -0.80901800000000001
vn 0.58778399999999997 0 -0.80901800000000001
vn 0.58778399999999997 0 -0.80901800000000001
vn 0.58778399999999997 0 -0.80901800000000001
vn 0 0 -1
vn 0 0 -1
vn 0 0 -1
vn 0 0 -1
vn -0.587785 0 -0.80901699999999999
vn -0.587785 0 -0.80901699999999999
vn -0.587785 0 -0.80901699999999999
vn -0.587785 0 -0.80901699999999999
vn -0.95105700000000004 0 -0.30901600000000001
vn -0.95105700000000004 0 -0.30901600000000001
vn -0.95105700000000004 0 -0.30901600000000001
vn -0.95105700000000004 0 -0.30901600000000001
vn -0.95105700000000004 0 0.30901699999999999
vn -0.95105700000000004 0 0.30901699999999999
vn -0.95105700000000004 0 0.30901699999999999
vn -0.95105700000000004 0 0.30901699999999999
vn -0.58778600000000003 0 0.80901599999999996
vn -0.58778600000000003 0 0.80901599999999996
vn -0.58778600000000003 0 0.80901599999999996
vn -0.58778600000000003 0 0.80901599999999996
vn 0 0 1
vn 0 0 1
vn 0 0 1
vn 0 0 1
vn 0.58778600000000003 0 0.80901699999999999
vn 0.58778600000000003 0 0.80901699999999999
vn 0.58778600000000003 0 0.80901699999999999
vn 0.58778600000000003 0 0.80901699999999999
vn 0.95105700000000004 0 0.30901699999999999
vn 0.95105700000000004 0 0.30901699999999999
vn 0.95105700000000004 0 0.30901699999999999
vn 0.95105700000000004 0 0.30901699999999999
vn 0.95105600000000001 0 -0.30901800000000001
vn 0.95105600000000001 0 -0.30901800000000001
vn 0.95105600000000001 0 -0.30901800000000001
vn 0.95105600000000001 0 -0.30901800000000001
vn 0 -1 0
vn 0 -1 0
vn 0 -1 0
vn 0 -1 0
vn 0 -1 0
vn 0 -1 0
vn 0 -1 0
vn 0 -1 0
vn 0 -1 0
vn 0 -1 0
vn 0 -1 0
vn 0 1 0
vn 0 1 0
vn 0 1 -9.9999999999999995e-007
vn 0 1 -9.9999999999999995e-007
vn 0 1 -9.9999999999999995e-007
vn 0 1 0
vn 0 1 0
vn 0 1 0
vn 0 1 9.9999999999999995e-007
vn 0 1 -1.9999999999999999e-006
vn 0 1 -3.0000000000000001e-006
#end 448 normals 

#begin 204 faces
usemtl initialShadingGroup
g pCube1 Table
s 1
f 56/56/1 57/57/2 2/2/3 15/15/4 
f 30/30/5 46/46/6 47/47/7 37/37/8 
f 51/51/9 52/52/10 11/11/11 36/36/12 
f 41/41/13 42/42/14 26/26/15 1/1/16 
f 1/1/16 5/5/17 60/60/18 41/41/13 
f 5/5/17 4/4/19 59/59/20 60/60/18 
f 4/4/19 3/3/21 58/58/22 59/59/20 
f 3/3/21 2/2/3 57/57/2 58/58/22 
f 15/15/4 14/14/23 55/55/24 56/56/1 
f 14/14/23 13/13/25 54/54/26 55/55/24 
f 13/13/25 12/12/27 53/53/28 54/54/26 
f 12/12/27 11/11/11 52/52/10 53/53/28 
f 42/42/14 43/43/29 27/27/30 26/26/15 
f 43/43/29 44/44/31 28/28/32 27/27/30 
f 44/44/31 45/45/33 29/29/34 28/28/32 
f 45/45/33 46/46/6 30/30/5 29/29/34 
f 47/47/7 48/48/35 38/38/36 37/37/8 
f 48/48/35 49/49/37 39/39/38 38/38/36 
f 49/49/37 50/50/39 40/40/40 39/39/38 
f 50/50/39 51/51/9 36/36/12 40/40/40 
s off
f 31/31/41 32/32/42 33/33/43 34/34/44 25/25/45 21/21/46 22/22/47 23/23/48 24/24/49 6/6/50 7/7/51 8/8/52 9/9/53 10/10/54 17/17/55 18/18/56 19/19/57 20/20/58 16/16/59 35/35/60 
f 36/36/61 11/11/62 12/12/63 13/13/64 14/14/65 15/15/66 2/2/67 3/3/68 4/4/69 5/5/70 1/1/71 26/26/72 27/27/73 28/28/74 29/29/75 30/30/76 37/37/77 38/38/78 39/39/79 40/40/80 
s 1
f 24/24/81 42/225/14 41/211/13 6/6/82 
f 24/24/81 23/23/83 43/238/29 42/225/14 
f 23/23/83 22/22/84 44/240/31 43/238/29 
f 22/22/84 21/21/85 45/242/33 44/240/31 
f 21/21/85 25/25/86 46/215/6 45/242/33 
f 47/217/7 46/215/6 25/25/86 34/34/87 
f 34/34/87 33/33/88 48/244/35 47/217/7 
f 33/33/88 32/32/89 49/246/37 48/244/35 
f 32/32/89 31/31/90 50/248/39 49/246/37 
f 31/31/90 35/35/91 51/219/9 50/248/39 
f 16/16/92 52/221/10 51/219/9 35/35/91 
f 53/236/28 52/221/10 16/16/92 20/20/93 
f 54/234/26 53/236/28 20/20/93 19/19/94 
f 55/232/24 54/234/26 19/19/94 18/18/95 
f 56/209/1 55/232/24 18/18/95 17/17/96 
f 10/10/97 57/213/2 56/209/1 17/17/96 
f 58/229/22 57/213/2 10/10/97 9/9/98 
f 59/227/20 58/229/22 9/9/98 8/8/99 
f 60/223/18 59/227/20 8/8/99 7/7/100 
f 41/211/13 60/223/18 7/7/100 6/6/82 
usemtl initialShadingGroup
g Table pCube2
s 1
f 116/116/101 117/117/102 62/62/103 75/75/104 
f 90/90/105 106/106/106 107/107/107 97/97/108 
f 111/111/109 112/112/110 71/71/111 96/96/112 
f 101/101/113 102/102/114 86/86/115 61/61/116 
f 61/61/116 65/65/117 120/120/118 101/101/113 
f 65/65/117 64/64/119 119/119/120 120/120/118 
f 64/64/119 63/63/121 118/118/122 119/119/120 
f 63/63/121 62/62/103 117/117/102 118/118/122 
f 75/75/104 74/74/123 115/115/124 116/116/101 
f 74/74/123 73/73/125 114/114/126 115/115/124 
f 73/73/125 72/72/127 113/113/128 114/114/126 
f 72/72/127 71/71/111 112/112/110 113/113/128 
f 102/102/114 103/103/129 87/87/130 86/86/115 
f 103/103/129 104/104/131 88/88/132 87/87/130 
f 104/104/131 105/105/133 89/89/134 88/88/132 
f 105/105/133 106/106/106 90/90/105 89/89/134 
f 107/107/107 108/108/135 98/98/136 97/97/108 
f 108/108/135 109/109/137 99/99/138 98/98/136 
f 109/109/137 110/110/139 100/100/140 99/99/138 
f 110/110/139 111/111/109 96/96/112 100/100/140 
s off
f 91/91/141 92/92/142 93/93/143 94/94/144 85/85/145 81/81/146 82/82/147 83/83/148 84/84/149 66/66/150 67/67/151 68/68/152 69/69/153 70/70/154 77/77/155 78/78/156 79/79/157 80/80/158 76/76/159 95/95/160 
f 96/96/161 71/71/162 72/72/163 73/73/164 74/74/165 75/75/166 62/62/167 63/63/168 64/64/169 65/65/170 61/61/171 86/86/172 87/87/173 88/88/174 89/89/175 90/90/176 97/97/177 98/98/178 99/99/179 100/100/180 
s 1
f 84/84/181 102/251/114 101/250/113 66/66/182 
f 84/84/181 83/83/183 103/252/129 102/251/114 
f 83/83/183 82/82/184 104/253/131 103/252/129 
f 82/82/184 81/81/185 105/212/133 104/253/131 
f 81/81/185 85/85/186 106/226/106 105/212/133 
f 107/239/107 106/226/106 85/85/186 94/94/187 
f 94/94/187 93/93/188 108/241/135 107/239/107 
f 93/93/188 92/92/189 109/243/137 108/241/135 
f 92/92/189 91/91/190 110/216/139 109/243/137 
f 91/91/190 95/95/191 111/218/109 110/216/139 
f 76/76/192 112/245/110 111/218/109 95/95/191 
f 113/247/128 112/245/110 76/76/192 80/80/193 
f 114/249/126 113/247/128 80/80/193 79/79/194 
f 115/220/124 114/249/126 79/79/194 78/78/195 
f 116/222/101 115/220/124 78/78/195 77/77/196 
f 70/70/197 117/237/102 116/222/101 77/77/196 
f 118/235/122 117/237/102 70/70/197 69/69/198 
f 119/233/120 118/235/122 69/69/198 68/68/199 
f 120/210/118 119/233/120 68/68/199 67/67/200 
f 101/250/113 120/210/118 67/67/200 66/66/182 
usemtl initialShadingGroup
g Table pCylinder3
s off
f 121/121/201 122/122/202 132/132/203 131/131/204 
f 122/231/205 123/123/206 133/133/207 132/254/208 
f 123/123/209 124/124/210 134/134/211 133/133/212 
f 124/124/213 125/125/214 135/135/215 134/134/216 
f 125/125/217 126/126/218 136/136/219 135/135/220 
f 126/126/221 127/127/222 137/137/223 136/136/224 
f 127/127/225 128/128/226 138/138/227 137/137/228 
f 128/128/229 129/129/230 139/139/231 138/138/232 
f 129/129/233 130/130/234 140/140/235 139/139/236 
f 130/130/237 121/121/238 131/131/239 140/140/240 
s 1
f 122/230/241 121/214/242 141/141/243 
f 123/228/244 122/230/241 141/141/243 
f 124/224/245 123/228/244 141/141/243 
f 125/259/246 124/224/245 141/141/243 
f 126/261/247 125/259/246 141/141/243 
f 127/263/248 126/261/247 141/141/243 
f 128/265/249 127/263/248 141/141/243 
f 129/267/250 128/265/249 141/141/243 
f 130/269/251 129/267/250 141/141/243 
f 121/214/242 130/269/251 141/141/243 
s 2
f 131/256/252 132/255/253 142/142/254 
f 132/255/253 133/257/255 142/142/254 
f 133/257/255 134/258/256 142/142/254 
f 134/258/256 135/260/257 142/142/254 
f 135/260/257 136/262/258 142/142/254 
f 136/262/258 137/264/259 142/142/254 
f 137/264/259 138/266/260 142/142/254 
f 138/266/260 139/268/261 142/142/254 
f 139/268/261 140/270/262 142/142/254 
f 140/270/262 131/256/252 142/142/254 
usemtl initialShadingGroup
g Table pCylinder4
s off
f 143/143/263 144/144/264 154/154/265 153/153/266 
f 144/273/267 145/145/268 155/155/269 154/274/270 
f 145/145/271 146/146/272 156/156/273 155/155/274 
f 146/146/275 147/147/276 157/157/277 156/156/278 
f 147/147/279 148/148/280 158/158/281 157/157/282 
f 148/148/283 149/149/284 159/159/285 158/158/286 
f 149/149/287 150/150/288 160/160/289 159/159/290 
f 150/150/291 151/151/292 161/161/293 160/160/294 
f 151/151/295 152/152/296 162/162/297 161/161/298 
f 152/152/299 143/143/300 153/153/301 162/162/302 
s 1
f 144/272/303 143/271/304 163/163/305 
f 145/277/306 144/272/303 163/163/305 
f 146/279/307 145/277/306 163/163/305 
f 147/281/308 146/279/307 163/163/305 
f 148/283/309 147/281/308 163/163/305 
f 149/285/310 148/283/309 163/163/305 
f 150/287/311 149/285/310 163/163/305 
f 151/289/312 150/287/311 163/163/305 
f 152/291/313 151/289/312 163/163/305 
f 143/271/304 152/291/313 163/163/305 
s 2
f 153/276/314 154/275/315 164/164/316 
f 154/275/315 155/278/317 164/164/316 
f 155/278/317 156/280/318 164/164/316 
f 156/280/318 157/282/319 164/164/316 
f 157/282/319 158/284/320 164/164/316 
f 158/284/320 159/286/321 164/164/316 
f 159/286/321 160/288/322 164/164/316 
f 160/288/322 161/290/323 164/164/316 
f 161/290/323 162/292/324 164/164/316 
f 162/292/324 153/276/314 164/164/316 
usemtl initialShadingGroup
g Table pCylinder1
s off
f 165/165/325 166/166/326 176/176/327 175/175/328 
f 166/295/329 167/167/330 177/177/331 176/296/332 
f 167/167/333 168/168/334 178/178/335 177/177/336 
f 168/168/337 169/169/338 179/179/339 178/178/340 
f 169/169/341 170/170/342 180/180/343 179/179/344 
f 170/170/345 171/171/346 181/181/347 180/180/348 
f 171/171/349 172/172/350 182/182/351 181/181/352 
f 172/172/353 173/173/354 183/183/355 182/182/356 
f 173/173/357 174/174/358 184/184/359 183/183/360 
f 174/174/361 165/165/362 175/175/363 184/184/364 
s 1
f 166/294/365 165/293/366 185/185/367 
f 167/299/368 166/294/365 185/185/367 
f 168/301/369 167/299/368 185/185/367 
f 169/303/370 168/301/369 185/185/367 
f 170/305/371 169/303/370 185/185/367 
f 171/307/372 170/305/371 185/185/367 
f 172/309/373 171/307/372 185/185/367 
f 173/311/374 172/309/373 185/185/367 
f 174/313/375 173/311/374 185/185/367 
f 165/293/366 174/313/375 185/185/367 
s 2
f 175/298/376 176/297/377 186/186/378 
f 176/297/377 177/300/379 186/186/378 
f 177/300/379 178/302/380 186/186/378 
f 178/302/380 179/304/381 186/186/378 
f 179/304/381 180/306/382 186/186/378 
f 180/306/382 181/308/383 186/186/378 
f 181/308/383 182/310/384 186/186/378 
f 182/310/384 183/312/385 186/186/378 
f 183/312/385 184/314/386 186/186/378 
f 184/314/386 175/298/376 186/186/378 
usemtl initialShadingGroup
g Table pCylinder2
s off
f 187/187/387 188/188/388 198/198/389 197/197/390 
f 188/317/391 189/189/392 199/199/393 198/318/394 
f 189/189/395 190/190/396 200/200/397 199/199/398 
f 190/190/399 191/191/400 201/201/401 200/200/402 
f 191/191/403 192/192/404 202/202/405 201/201/406 
f 192/192/407 193/193/408 203/203/409 202/202/410 
f 193/193/411 194/194/412 204/204/413 203/203/414 
f 194/194/415 195/195/416 205/205/417 204/204/418 
f 195/195/419 196/196/420 206/206/421 205/205/422 
f 196/196/423 187/187/424 197/197/425 206/206/426 
s 1
f 188/316/427 187/315/428 207/207/429 
f 189/321/430 188/316/427 207/207/429 
f 190/323/431 189/321/430 207/207/429 
f 191/325/432 190/323/431 207/207/429 
f 192/327/433 191/325/432 207/207/429 
f 193/329/434 192/327/433 207/207/429 
f 194/331/435 193/329/434 207/207/429 
f 195/333/436 194/331/435 207/207/429 
f 196/335/437 195/333/436 207/207/429 
f 187/315/428 196/335/437 207/207/429 
s 2
f 197/320/438 198/319/439 208/208/440 
f 198/319/439 199/322/441 208/208/440 
f 199/322/441 200/324/442 208/208/440 
f 200/324/442 201/326/443 208/208/440 
f 201/326/443 202/328/444 208/208/440 
f 202/328/444 203/330/445 208/208/440 
f 203/330/445 204/332/446 208/208/440 
f 204/332/446 205/334/447 208/208/440 
f 205/334/447 206/336/448 208/208/440 
f 206/336/448 197/320/438 208/208/440 
#end 204 faces
#begin 2 properties
#U3D SUB SEL 9
#U3D SYM 0 0 0 1 0 0 0.0001 0
#end 2 properties
