#File written by LIBUNFOLD3D. Compilation :Dec 22 2011,11:53:02
mtllib cupboard.mtl
#begin vertices
v 34.541409000000002 2.6335150000000001 348.82647700000001
v 82.045293999999998 2.6335150000000001 348.82647700000001
v 34.427666000000002 61.3127 348.82647700000001
v 83.616612000000003 66.031272999999999 348.82647700000001
v 34.427666000000002 61.3127 335.80273899999997
v 83.616612000000003 66.031272999999999 335.80273899999997
v 34.541409000000002 2.6335150000000001 335.80273899999997
v 82.045293999999998 2.6335150000000001 335.80273899999997
v 34.427666000000002 49.542451999999997 348.82647700000001
v 34.427666000000002 49.542451999999997 335.80273899999997
v 83.616612000000003 49.455548999999998 335.80273899999997
v 83.616612000000003 49.455548999999998 348.82647700000001
v 34.427666000000002 50.914949999999997 335.80273899999997
v 34.427669999999999 50.914949999999997 348.82647700000001
v 83.616612000000003 50.828046999999998 348.82647700000001
v 83.616612000000003 50.828046999999998 335.80273899999997
v 36.853248000000001 35.071165000000001 348.82647700000001
v 37.687936000000001 35.071165000000001 335.80273899999997
v 82.317269999999994 33.151091000000001 335.80273899999997
v 82.317269999999994 33.151091000000001 348.82647700000001
v 36.853248000000001 33.540388999999998 348.82647700000001
v 37.687936000000001 33.540388999999998 335.80273899999997
v 82.317269999999994 31.620315000000002 335.80273899999997
v 82.317269999999994 31.620315000000002 348.82647700000001
v 34.361479000000003 17.380942000000001 348.82647700000001
v 34.361479000000003 17.380946999999999 335.80273899999997
v 83.616612000000003 18.560927 335.80273899999997
v 83.616612000000003 18.560921 348.82647700000001
v 34.361479000000003 15.967361 348.82647700000001
v 34.361483 15.967358000000001 335.80273899999997
v 83.616612000000003 17.147335999999999 335.80273899999997
v 83.616612000000003 17.147338999999999 348.82647700000001
v 36.222442000000001 15.915865 335.80273899999997
v 81.823819999999998 17.198295999999999 335.80273899999997
v 80.465992999999997 4.0431929999999996 335.80273899999997
v 36.222437999999997 4.0431929999999996 335.80273899999997
v 36.222437999999997 59.750830000000001 335.80273899999997
v 81.699848000000003 63.227930999999998 335.80273899999997
v 81.809010999999998 47.931437000000003 335.80273899999997
v 36.222437999999997 50.782060999999999 335.80273899999997
v 81.809010999999998 46.730040000000002 335.80273899999997
v 36.222437999999997 49.580663999999999 335.80273899999997
v 80.465992999999997 32.964283000000002 335.80273899999997
v 40.003864 34.494280000000003 335.80273899999997
v 80.465992999999997 31.624338999999999 335.80273899999997
v 40.003864 33.154339999999998 335.80273899999997
v 81.823819999999998 18.435661 335.80273899999997
v 36.222437999999997 17.153227999999999 335.80273899999997
v 36.222442000000001 15.915865 348.251485
v 81.823819999999998 17.198295999999999 348.251485
v 80.465992999999997 4.0431929999999996 348.251485
v 36.222437999999997 4.0431929999999996 348.251485
v 36.222437999999997 59.750830000000001 348.251485
v 81.699848000000003 63.227930999999998 348.251485
v 81.809010999999998 47.931437000000003 348.251485
v 36.222437999999997 50.782060999999999 348.251485
v 36.222437999999997 49.580663999999999 348.251485
v 81.809010999999998 46.730040000000002 348.251485
v 80.465992999999997 32.964283000000002 348.251485
v 40.003864 34.494280000000003 348.251485
v 40.003864 33.154339999999998 348.251485
v 80.465992999999997 31.624338999999999 348.251485
v 81.823819999999998 18.435661 348.251485
v 36.222437999999997 17.153227999999999 348.251485
v 36.120359999999998 2.6335150000000001 335.80273899999997
v 36.113447000000001 2.6335160000000002 348.82647700000001
v 80.224422000000004 2.6335150000000001 335.80273899999997
v 80.159103999999999 2.6335150000000001 348.82647700000001
v 34.541409000000002 -5.5594669999999997 335.80273899999997
v 36.120359999999998 -5.5594669999999997 335.80273899999997
v 36.113447000000001 -5.5594669999999997 348.82647700000001
v 34.541409000000002 -5.5594669999999997 348.82647700000001
v 80.224422000000004 -5.5594669999999997 335.80273899999997
v 80.159103999999999 -5.5594669999999997 348.82647700000001
v 82.045293999999998 -5.5594669999999997 335.80273899999997
v 82.045293999999998 -5.5594669999999997 348.82647700000001
#end vertices

#begin 222 textures vertices 
vt 0.013055570449120433 0.060064634456829469 0
vt 0.29174004306131041 0.060064634456996863 0
vt 0.86590704603824931 0.012000000000000705 0
vt 0.86590704603824931 0.30189466949193533 0
vt 0.78950248342227736 0.012000000000000455 0
vt 0.78950248342227736 0.30189466949193522 0
vt 0.41432714127119658 0.060062706684467428 0
vt 0.39469341984933104 0.060064634456754765 0
vt 0.49037787052899834 0.33823718447726869 0
vt 0.41398154440260299 0.33935908019211247 0
vt 0.39469341991520196 0.33592806011036702 0
vt 0.30095827706949074 0.33474898610387427 0
vt 0.41409977491045014 0.34741005650143747 0
vt 0.49049610088598067 0.34628816043646077 0
vt 0.31828885729159795 0.34397990424589714 0
vt 0.39469341990756884 0.34397990431832787 0
vt 0.48911388747307244 0.25216547894231356 0
vt 0.41255278563142289 0.25234623569241921 0
vt 0.3946934200061642 0.23997369731872079 0
vt 0.31828885739019497 0.23997369724630677 0
vt 0.4890926840764061 0.2431851144946586 0
vt 0.41253158236905219 0.24336586647944483 0
vt 0.39469342001467617 0.23099330545710145 0
vt 0.31828885739870522 0.23099330538469259 0
vt 0.48995273933796307 0.14726817206632584 0
vt 0.41355124519692682 0.14658310160976271 0
vt 0.39469342008763325 0.15400132551812665 0
vt 0.31828885747166208 0.15400129041932867 0
vt 0.012000000000000455 0.13828846479126264 0
vt 0.41362560336473059 0.13829052185263954 0
vt 0.39469342007671826 0.14570840668998877 0
vt 0.30095827706790962 0.1452108785383163 0
vt 0.33716218542746207 0.88478288808002847 0
vt 0.069638887525153792 0.89230634867484249 0
vt 0.73337696003016872 0.90132154046123669 0
vt 0.63423283199316705 0.88533581637807934 0
vt 0.5413547802975478 0.83823474859010327 0
vt 0.27455874831676519 0.85863337616358049 0
vt 0.33282004013084659 0.91115055926405031 0
vt 0.60025648358709638 0.92787392085982179 0
vt 0.33282004013084499 0.90410248963049789 0
vt 0.60025648358709749 0.92082585122626948 0
vt 0.6784020369600352 0.87944592609424077 0
vt 0.91577561348285796 0.88842174790415773 0
vt 0.67840203696003143 0.87158506193604857 0
vt 0.91577561348285508 0.88056090721221181 0
vt 0.069638887525152959 0.89956542679982565 0
vt 0.33716220889370818 0.89204195447188817 0
vt 0.5504711330343135 0.58974741519711593 0
vt 0.282947835132006 0.59727087579192861 0
vt 0.29091361101318242 0.52009565229748667 0
vt 0.55047115650056011 0.52009565229748633 0
vt 0.70745548736043673 0.673973158221569 0
vt 0.4406594553796625 0.69437178579504755 0
vt 0.44001904390418317 0.60463395986305812 0
vt 0.70745548736043706 0.6213573214588296 0
vt 0.70745548736043706 0.51718107959811332 0
vt 0.44001904390418317 0.50045771800234184 0
vt 0.44789794187305987 0.41970005513606234 0
vt 0.68527151839586942 0.42867587694611026 0
vt 0.92881876990504408 0.43357424375184628 0
vt 0.69144519338223409 0.42459839847555159 0
vt 0.68347941750105778 0.3472262051718405 0
vt 0.95100273886961206 0.3397027328439044 0
vt 0.90337910978210578 0.9510476586107206 0
vt 0.02227802837980972 0.060064640323990753 0
vt 0.37609247768359455 0.8770658534059117 0
vt 0.2806745930376216 0.060064634457046885 0
vt 0.7816489229836685 0.90452514172844367 0
vt 0.78220494570285437 0.89527883125829488 0
vt 0.85846930175250891 0.89990558280642685 0
vt 0.85791571342142725 0.90911141086518565 0
vt 0.75199263343716971 0.89424051712003161 0
vt 0.74630790100992861 0.97043426910750741 0
vt 0.7626491356541456 0.89498186408906322 0
vt 0.75734667139941858 0.97120220954467773 0
vt 0.55188392098322492 0.84739755532139682 0
vt 0.41499546326636033 0.40840252250482106 0
vt 0.91264212325389538 0.90298302415396714 0
vt 0.41475817851702407 0.012000000000000455 0
vt 0.49002710228257262 0.13897565135484183 0
vt 0.49072862732001332 0.060747871377194416 0
vt 0.31828885723336015 0.060064634659609199 0
vt 0.012000000000000455 0.85003924667894326 0
vt 0.6798716593390427 0.31845089886495714 0
vt 0.31828885720704342 0.43317056770071727 0
vt 0.30095827707035322 0.43199149376662843 0
vt 0.67760296552090127 0.060064293840313518 0
vt 0.31828885746073582 0.14570842439025536 0
vt 0.49139178892125296 0.40728062570884704 0
vt 0.012388290122376895 0.40430969410147538 0
vt 0.39469341982301503 0.43317056777314966 0
vt 0.26331393403548387 0.87507935498878298 0
vt 0.90337910978210645 0.90298302415396714 0
vt 0.088404573379412099 0.80197460635562801 0
vt 0.1926318900880041 0.70929651814493866 0
vt 0.79970533648109043 0.7979177871831733 0
vt 0.79970533648109043 0.7203325520748991 0
vt 0.54219894808769054 0.72025345444425315 0
vt 0.1926318900880041 0.4416674513755604 0
vt 0.56960279114122947 0.86386463153194915 0
vt 0.2850783308563849 0.68476954803550782 0
vt 0.56960279114122925 0.79421286863231544 0
vt 0.64229315847393142 0.89213909537969649 0
vt 0.01200000000000058 0.80197460635562801 0
vt 0.022278028383729328 0.012000000000747106 0
vt 0.87589164824697485 0.94764948966890694 0
vt 0.01305557045301234 0.012000000000000455 0
vt 0.49115966641786579 0.012685174727142859 0
vt 0.7148936592554932 0.97819780397115619 0
vt 0.3480796162327543 0.88508497494194127 0
vt 0.012388313588082844 0.34331065212593037 0
vt 0.55188392098321426 0.78639851334586863 0
vt 0.72667399991340653 0.70855221141698521 0
vt 0.89002128152509186 0.78345629970396935 0
vt 0.89002128152509186 0.69371618866181639 0
vt 0.6991865383782756 0.012000000000000455 0
vt 0.72667399991340653 0.44097749907000816 0
vt 0.69918653837827549 0.3325746435065991 0
vt 0.6991865383782756 0.27995880674385987 0
vt 0.3009582770695623 0.34280083031182945 0
vt 0.32221563732505398 0.92814370056642514 0
vt 0.61078562427277516 0.92060167817037608 0
vt 0.012388290121764903 0.33525880791796442 0
vt 0.31828885729923168 0.33592806003793685 0
vt 0.65991873618523123 0.97619295568845454 0
vt 0.77221787494595928 0.27995880674386031 0
vt 0.81698994495740829 0.69371618866181639 0
vt 0.77221787494595928 0.012000000000000621 0
vt 0.012000000000000455 0.42433988433562603 0
vt 0.012000000000000455 0.78522012579477318 0
vt 0.012000000000000621 0.69229869107948627 0
vt 0.70938939143708823 0.78243252797440244 0
vt 0.025586534517977037 0.86520391878645397 0
vt 0.026618116596263765 0.25036210977125212 0
vt 0.085031336567683941 0.69229869107948616 0
vt 0.63635805486940455 0.78243252797440244 0
vt 0.085031336567684107 0.42433988433562603 0
vt 0.08503133656768419 0.78522012579477363 0
vt 0.81698994495740829 0.68193584800390283 0
vt 0.63635805486940455 0.69118944946708183 0
vt 0.08503133656768419 0.70407903173739961 0
vt 0.81698994495740829 0.44439263044466426 0
vt 0.29333560704883899 0.2390978771689331 0
vt 0.66754140620517477 0.88054184675334413 0
vt 0.92936214800083283 0.88282568749213675 0
vt 0.026618116596081896 0.24138171790961901 0
vt 0.89002128152509197 0.68193584800390317 0
vt 0.70938939143708823 0.69118944946708183 0
vt 0.012000000000000455 0.70407903173739961 0
vt 0.89002128152509197 0.44439263044466409 0
vt 0.58373242441934692 0.34600040604313437 0
vt 0.10231594504400249 0.79019426569771478 0
vt 0.58373242441934814 0.10845718759719666 0
vt 0.29333560704876455 0.23011748530733916 0
vt 0.66754140620517555 0.87156145489171133 0
vt 0.012000000000251561 0.14658132495381779 0
vt 0.70480047661300471 0.8931996363771938 0
vt 0.51070108785166302 0.34600040604313342 0
vt 0.17534728161168631 0.79019426569771511 0
vt 0.17534728161168606 0.71241309906969408 0
vt 0.17534728161168581 0.70063275841178074 0
vt 0.51070108785166435 0.10845718759719698 0
vt 0.17534728161168581 0.43300366785559324 0
vt 0.5107010878516629 0.012000000000001289 0
vt 0.30095827706797135 0.15350374456735993 0
vt 0.05912136263165358 0.90030030751845158 0
vt 0.10231594504400232 0.43300366785559335 0
vt 0.58373242441934647 0.012000000000000455 0
vt 0.10231594504400232 0.71241309906969397 0
vt 0.10231594504400232 0.70063275841178052 0
vt 0.2656632266556877 0.70929651814493855 0
vt 0.72667399991340653 0.7979177871831733 0
vt 0.2656632266556877 0.44166745137556046 0
vt 0.64263412770891315 0.86386463153194881 0
vt 0.53221489192470273 0.79259911598243082 0
vt 0.72667399991340664 0.7203325520748991 0
vt 0.2750942746933972 0.75711520957368583 0
vt 0.64263412770891304 0.79421286863231577 0
vt 0.79970533648109021 0.70855221141698577 0
vt 0.81698994495740829 0.78345629970396935 0
vt 0.7997053364810901 0.44097749907000838 0
vt 0.77221787494595928 0.33257464350659971 0
vt 0.60119798345669584 0.060351940307949457 0
vt 0.60346968558669223 0.31908116866142427 0
vt 0.088404573379411933 0.85003924081238125 0
vt 0.67742201495976695 0.012000000000000455 0
vt 0.28067459303744036 0.012000000000289579 0
vt 0.60101703289566477 0.012287646467889504 0
vt 0.88657390619317045 0.89958485521215348 0
vt 0.31828885710574589 0.012000000202856556 0
vt 0.29174004306112927 0.012000000000247561 0
vt 0.87589164824697485 0.89958485521215348 0
vt 0.39469341972171718 0.012000000000000455 0
vt 0.37467528650580384 0.88533581637809122 0
vt 0.36541021973739907 0.87706585340593535 0
vt 0.7241118932617826 0.89305157748905784 0
vt 0.72541118414899253 0.97849676395567897 0
vt 0.67169907684314445 0.98573521972007361 0
vt 0.059121362631654503 0.89200738869031859 0
vt 0.63243127465010018 0.97006082125150483 0
vt 0.63483167887898084 0.87706585340590137 0
vt 0.5413547802975377 0.78561891182736143 0
vt 0.644094692350767 0.8770658534059621 0
vt 0.91264212325389471 0.9510476586107206 0
vt 0.63243129811634702 0.90040905835187501 0
vt 0.6704362610791651 0.79421286863231566 0
vt 0.64334870545539247 0.97036290811341686 0
vt 0.26331393403550363 0.78588869153396079 0
vt 0.27391833684130779 0.76889555023159906 0
vt 0.65991873618566321 0.79494774935089607 0
vt 0.61078562427277161 0.92865352237833687 0
vt 0.32221563732505032 0.92009185635846491 0
vt 0.67052313899105143 0.96020358896050662 0
vt 0.034183968964568337 0.95032478998885928 0
vt 0.044713109650245018 0.95010061693296088 0
vt 0.012000000000000455 0.8618195873368566 0
vt 0.92936214800083383 0.89180607935375333 0
vt 0.68528561136112087 0.98800000000000043 0
vt 0.69388304580771254 0.89186370881213151 0
vt 0.34807963969900058 0.89337788203695112 0
vt 0.88657390619317045 0.94764948966890694 0
#end 222 textures vertices 

#begin 256 normals 
vn -0 0 1
vn -0 0 1
vn -0 0 1
vn -0 0 1
vn -0 0 1
vn -0 0 1
vn -0.095489000000000004 0.99543000000000004 0
vn -0.095489000000000004 0.99543000000000004 0
vn -0.095489000000000004 0.99543000000000004 0
vn -0.095489000000000004 0.99543000000000004 0
vn 0 0 -1
vn 0 0 -1
vn 0 0 -1
vn 0 0 -1
vn 0 -1 0
vn 0 -1 0
vn 0 -1 0
vn 0 -1 0
vn 0.99419100000000005 -0.10763499999999999 0
vn 0.99419100000000005 -0.10763499999999999 0
vn 0.99516899999999997 -0.098178000000000001 0
vn 0.99516899999999997 -0.098178000000000001 0
vn -0.99990900000000005 -0.013493 -0
vn -0.99990900000000005 -0.013493 -0
vn -0.99992599999999998 -0.012200000000000001 -0
vn -0.99992599999999998 -0.012200000000000001 -0
vn -1 0 0
vn -1 0 0
vn -1 -0 0
vn -1 -0 0
vn 0 0 -1
vn 0 0 -1
vn 0 0 -1
vn 0 0 -1
vn 1 0 0
vn 1 0 0
vn 1 0 0
vn 1 0 0
vn 0 0 1
vn 0 0 1
vn 0 0 1
vn 0 0 1
vn -0.98387199999999997 -0.176541 -0.028797
vn -0.98387199999999997 -0.176541 -0.028797
vn 0 0 1
vn 0 0 1
vn 0.997309 -0.073306999999999997 0
vn 0.997309 -0.073306999999999997 0
vn 0 0 -1
vn 0 0 -1
vn 0 0 -1
vn 0 0 -1
vn -0.98400399999999999 -0.17476 -0.034557999999999998
vn -0.98398699999999995 -0.17485899999999999 -0.034541000000000002
vn -0 0 -1
vn -0 0 -1
vn -0 0 -1
vn -0 0 -1
vn 0.99735700000000005 -0.072660000000000002 0
vn 0.99735700000000005 -0.072660000000000002 0
vn 0 0 1
vn 0 0 1
vn -0.98617200000000005 0.162129 -0.034344
vn -0.98616000000000004 0.16220499999999999 -0.034329999999999999
vn 0 0 -1
vn 0 0 -1
vn 0 0 -1
vn 0 0 -1
vn 0.996058 0.088705000000000006 0
vn 0.996058 0.088705000000000006 0
vn 0 0 1
vn 0 0 1
vn -0.98615600000000003 0.16325200000000001 -0.029059000000000001
vn -0.98615600000000003 0.16325200000000001 -0.029059000000000001
vn 0 0 -1
vn 0 0 -1
vn 0 0 -1
vn 0 0 -1
vn 0.99599400000000005 0.089417999999999997 0
vn 0.99599400000000005 0.089417999999999997 0
vn 0 0 1
vn 0 0 1
vn 0 0 -1
vn 0 0 -1
vn 0 0 -1
vn 0 0 -1
vn 0 0 -1
vn 0 0 -1
vn 0 0 -1
vn 0 0 -1
vn 0 0 -1
vn 0 0 -1
vn 0 0 -1
vn 0 0 -1
vn 0 0 -1
vn 0 0 -1
vn 0 0 -1
vn 0 0 -1
vn 0 0 -1
vn 0 0 -1
vn 0 0 -1
vn 0 0 -1
vn 0 0 -1
vn 0 0 -1
vn 0 0 -1
vn 0 0 -1
vn 0 0 -1
vn 0 0 -1
vn 0 0 -1
vn 0 0 -1
vn 0 0 -1
vn 0 0 -1
vn 0 0 -1
vn 0 0 -1
vn 0 0 -1
vn 0 0 -1
vn 0 0 -1
vn 0 0 -1
vn 0 0 -1
vn 0 0 -1
vn 0 0 -1
vn 0 0 -1
vn 0 0 -1
vn 0 0 -1
vn 0 0 -1
vn 0 0 -1
vn 0 0 -1
vn 0 0 -1
vn 0 0 -1
vn 0 0 -1
vn 0 0 -1
vn 0 0 -1
vn 0 0 -1
vn 0 0 -1
vn 0 0 -1
vn 0 0 -1
vn 0 0 -1
vn 0 0 -1
vn 0 0 -1
vn 0 0 -1
vn 0 0 -1
vn 0 0 -1
vn 0 0 -1
vn 0 0 -1
vn 0 0 -1
vn 0 0 -1
vn 0 0 -1
vn 0 0 -1
vn 0 0 -1
vn 0.028112000000000002 -0.99960499999999997 0
vn 0.028112000000000002 -0.99960499999999997 0
vn 0.028112000000000002 -0.99960499999999997 0
vn 0.028112000000000002 -0.99960499999999997 0
vn -0.99471500000000002 0.102671 0
vn -0.99471500000000002 0.102671 0
vn -0.99471500000000002 0.102671 0
vn -0.99471500000000002 0.102671 0
vn 0 1 0
vn 0 1 0
vn 0 1 0
vn 0 1 0
vn 1 -0 0
vn 1 -0 0
vn 1 -0 0
vn 1 -0 0
vn 0.076234999999999997 -0.99709000000000003 0
vn 0.076234999999999997 -0.99709000000000003 0
vn 0.076234999999999997 -0.99709000000000003 0
vn 0.076234999999999997 -0.99709000000000003 0
vn -0.99997400000000003 -0.007136 0
vn -0.99997400000000003 -0.007136 0
vn -0.99997400000000003 -0.007136 0
vn -0.99997400000000003 -0.007136 0
vn 0.06241 0.99805100000000002 0
vn 0.06241 0.99805100000000002 0
vn 0.06241 0.99805100000000002 0
vn 0.06241 0.99805100000000002 0
vn 1 0 0
vn 1 0 0
vn 1 0 0
vn 1 0 0
vn -0.06241 -0.99805100000000002 0
vn -0.06241 -0.99805100000000002 0
vn -0.06241 -0.99805100000000002 0
vn -0.06241 -0.99805100000000002 0
vn -0.99527399999999999 0.097101000000000007 0
vn -0.99527399999999999 0.097101000000000007 0
vn -0.99527399999999999 0.097101000000000007 0
vn -0.99527399999999999 0.097101000000000007 0
vn 0.037786 0.99928600000000001 0
vn 0.037786 0.99928600000000001 0
vn 0.037786 0.99928600000000001 0
vn 0.037786 0.99928600000000001 0
vn 0.96999400000000002 0.24313000000000001 0
vn 0.96999400000000002 0.24313000000000001 0
vn 0.96999400000000002 0.24313000000000001 0
vn 0.96999400000000002 0.24313000000000001 0
vn -0.037786 -0.99928600000000001 0
vn -0.037786 -0.99928600000000001 0
vn -0.037786 -0.99928600000000001 0
vn -0.037786 -0.99928600000000001 0
vn -0.99474200000000002 -0.102413 0
vn -0.99474200000000002 -0.102413 0
vn -0.99474200000000002 -0.102413 0
vn -0.99474200000000002 -0.102413 0
vn -0.028112000000000002 0.99960499999999997 0
vn -0.028112000000000002 0.99960499999999997 0
vn -0.028112000000000002 0.99960499999999997 0
vn -0.028112000000000002 0.99960499999999997 0
vn 0.973194 -0.229988 0
vn 0.973194 -0.229988 0
vn 0.973194 -0.229988 0
vn 0.973194 -0.229988 0
vn 0 0 -1
vn 0 0 -1
vn -0 -1 0
vn -0 -1 0
vn -0 -1 0
vn -0 -1 0
vn 0 0 -1
vn 0 -1 0
vn 0 -1 0
vn 0 -1 0
vn 0 -1 0
vn 0 0 -1
vn 0 0 -1
vn 0 0 -1
vn 0 0 -1
vn 1 0 0.000531
vn 1 0 0.000531
vn 1 0 0.000531
vn 1 0 0.000531
vn 0 0 1
vn 0 0 1
vn 0 0 1
vn 0 0 1
vn -1 0 0
vn -1 0 0
vn -1 0 0
vn -1 0 0
vn -0.99998699999999996 0 -0.0050150000000000004
vn -0.99998699999999996 0 -0.0050150000000000004
vn -0.99998699999999996 0 -0.0050150000000000004
vn -0.99998699999999996 0 -0.0050150000000000004
vn 0 0 -1
vn 0 0 -1
vn 0 0 -1
vn 0 0 -1
vn 1 0 0
vn 1 0 0
vn 1 0 0
vn 1 0 0
vn 0 0 1
vn 0 0 1
vn 0 0 1
vn 0 0 1
#end 256 normals 

#begin 74 faces
usemtl initialShadingGroup
g pCube18
s 1
f 1/1/1 66/66/2 68/68/3 2/2/4 32/32/5 29/29/6 
s off
f 3/3/7 4/4/8 6/6/9 5/5/10 
f 49/49/11 50/50/12 51/51/13 52/52/14 
f 69/69/15 70/70/16 71/71/17 72/72/18 
s 2
f 2/83/19 8/8/20 31/31/21 32/89/22 
s 3
f 7/7/23 1/82/24 29/81/25 30/30/26 
f 13/13/27 14/14/28 3/90/29 5/78/30 
s off
f 53/53/31 54/54/32 55/55/33 56/56/34 
s 2
f 15/15/35 16/16/36 6/92/37 4/86/38 
s 1
f 14/112/39 15/121/40 4/87/41 3/91/42 
s 3
f 10/10/43 9/9/44 14/14/28 13/13/27 
s 1
f 9/124/45 12/12/46 15/121/40 14/112/39 
s 2
f 12/125/47 11/11/48 16/16/36 15/15/35 
s off
f 40/40/49 39/39/50 41/41/51 42/42/52 
s 3
f 18/18/53 17/17/54 9/9/44 10/10/43 
s off
f 57/57/55 58/58/56 59/59/57 60/60/58 
s 2
f 20/20/59 19/19/60 11/11/48 12/125/47 
s 1
f 17/135/61 20/144/62 12/12/46 9/124/45 
s 3
f 22/22/63 21/21/64 17/17/54 18/18/53 
s off
f 44/44/65 43/43/66 45/45/67 46/46/68 
s 2
f 24/24/69 23/23/70 19/19/60 20/20/59 
s 1
f 21/147/71 24/155/72 20/144/62 17/135/61 
s 3
f 26/26/73 25/25/74 21/21/64 22/22/63 
s off
f 61/61/75 62/62/76 63/63/77 64/64/78 
s 2
f 28/28/79 27/27/80 23/23/70 24/24/69 
s 1
f 25/157/81 28/166/82 24/155/72 21/147/71 
s 3
f 30/30/26 29/81/25 25/25/74 26/26/73 
s off
f 48/48/83 47/47/84 34/34/85 33/33/86 
s 2
f 32/89/22 31/31/21 27/27/80 28/28/79 
s 1
f 29/29/6 32/32/5 28/166/82 25/157/81 
s off
f 31/110/87 8/197/88 35/35/89 34/198/90 
s 7
f 36/36/91 65/202/92 7/204/93 
s off
f 7/104/94 30/208/95 33/201/96 36/206/97 
f 5/77/98 6/93/99 38/38/100 37/37/101 
f 6/93/102 16/209/103 39/210/104 38/38/105 
f 13/113/106 5/77/107 37/37/108 40/203/109 
f 16/122/110 11/213/111 41/41/112 39/39/113 
f 10/123/114 13/212/115 40/40/116 42/42/117 
f 11/126/118 19/145/119 43/43/120 41/214/121 
f 18/134/122 10/216/123 42/215/124 44/217/125 
f 19/145/126 23/156/127 45/45/128 43/43/129 
f 22/146/130 18/218/131 44/44/132 46/46/133 
f 23/156/134 27/211/135 47/207/136 45/45/137 
f 26/158/138 22/219/139 46/199/140 48/220/141 
f 27/167/142 31/200/143 34/34/144 47/47/145 
f 30/111/146 26/221/147 48/48/148 33/33/149 
f 33/174/150 34/172/151 50/96/152 49/100/153 
f 34/173/154 35/177/155 51/98/156 50/97/157 
f 35/176/158 36/178/159 52/102/160 51/99/161 
f 36/179/162 33/175/163 49/101/164 52/103/165 
f 37/182/166 38/180/167 54/114/168 53/118/169 
f 38/181/170 39/128/171 55/116/172 54/115/173 
f 39/129/174 40/127/175 56/120/176 55/117/177 
f 40/127/178 37/183/179 53/119/180 56/120/181 
f 42/132/182 41/130/183 58/138/184 57/136/185 
f 41/131/186 43/150/187 59/142/188 58/139/189 
f 43/151/190 44/148/191 60/140/192 59/143/193 
f 44/149/194 42/133/195 57/137/196 60/141/197 
f 46/154/198 45/152/199 62/159/200 61/163/201 
f 45/153/202 47/170/203 63/161/204 62/160/205 
f 47/171/206 48/168/207 64/164/208 63/162/209 
f 48/169/210 46/154/211 61/163/212 64/165/213 
s 7
f 35/195/214 67/67/215 65/202/92 36/36/91 
s off
f 66/85/216 65/185/217 67/184/218 68/88/219 
s 7
f 8/196/220 67/67/215 35/195/214 
s off
f 74/74/221 73/73/222 75/75/223 76/76/224 
f 7/205/225 65/65/226 70/94/227 69/79/228 
f 65/186/229 66/84/230 71/105/231 70/95/232 
f 66/66/233 1/1/234 72/108/235 71/106/236 
f 1/82/237 7/7/238 69/80/239 72/109/240 
f 68/88/241 67/184/242 73/189/243 74/187/244 
f 67/222/245 8/107/246 75/193/247 73/190/248 
f 8/8/249 2/83/250 76/191/251 75/194/252 
f 2/2/253 68/68/254 74/188/255 76/192/256 
#end 74 faces
#begin 1 properties
#U3D SYM 0 0 0 1 0 0 0.0001 0
#end 1 properties
