#File written by LIBUNFOLD3D. Compilation :Dec 22 2011,11:53:02
mtllib Diamond.mtl
#begin vertices
v 0 0 0
v -1.5660099999999999 4.3128510000000002 -4.8196940000000001
v -4.0997669999999999 4.3128510000000002 -2.9786999999999999
v -0.79830299999999998 6.1802669999999997 -2.4569260000000002
v -5.0676569999999996 4.3128510000000002 0
v -2.0899869999999998 6.1802669999999997 -1.518464
v -2.583361 6.1802669999999997 0
v -4.0997669999999999 4.3128510000000002 2.9786990000000002
v 0 6.1802669999999997 0
v 2.0899860000000001 6.1802669999999997 -1.518464
v 1.565987 4.3128510000000002 -4.8196940000000001
v 0.79830299999999998 6.1802669999999997 -2.4569260000000002
v -2.0899860000000001 6.1802669999999997 1.518464
v 4.099761 4.3128510000000002 -2.9787050000000002
v -1.5660099999999999 4.3128510000000002 4.819693
v -0.79830299999999998 6.1802669999999997 2.4569260000000002
v 2.583361 6.1802669999999997 0
v 0.79830299999999998 6.1802669999999997 2.4569260000000002
v 5.0676620000000003 4.3128510000000002 0
v 2.0899860000000001 6.1802669999999997 1.518464
v 4.0997560000000002 4.3128510000000002 2.9786990000000002
v 1.565987 4.3128510000000002 4.819693
#end vertices

#begin 40 textures vertices 
vt 0.16656317571846443 0.012000000000000455 0
vt 0.16655880398254097 0.3433795313051044 0
vt 0.32111534396906277 0.34215956047791779 0
vt 0.166560064002377 0.48736331292806456 0
vt 0.79914196306465368 0.38873826214318324 0
vt 0.24640781753262256 0.50311254546981632 0
vt 0.79914197030429657 0.53271966233107881 0
vt 0.95370095629521923 0.38751786498105445 0
vt 0.49266844574124319 0.61675767192039588 0
vt 0.32553432872721932 0.82662538401660224 0
vt 0.47797918502341291 0.68112732073645077 0
vt 0.40882489940989158 0.84502274587124948 0
vt 0.8789895501297762 0.54846902839605449 0
vt 0.32553677665964503 0.68625813385411849 0
vt 0.49267071875609891 0.34337949640569843 0
vt 0.49266947538957118 0.48736324340791409 0
vt 0.24224379209368568 0.84502210438991388 0
vt 0.57251681049909675 0.50311374610550974 0
vt 0.17309254477220612 0.68112805396917731 0
vt 0.63593514653719208 0.85771921757477665 0
vt 0.63593278999957747 0.71735212535828186 0
vt 0.48349037494304153 0.71222135255522523 0
vt 0.64458291971524728 0.38751787333942828 0
vt 0.71929439609678858 0.5484689895116166 0
vt 0.33811417600227062 0.34215952815716788 0
vt 0.41282177023732752 0.50311249263189328 0
vt 0.79914195743401795 0.057361284445028575 0
vt 0.79914198307257156 0.66211381705661421 0
vt 0.55264462755337629 0.87611658729028075 0
vt 0.49266635510438256 0.012000000000000455 0
vt 0.63593562981386775 0.98800000000000043 0
vt 0.64722952310765192 0.34215861968990041 0
vt 0.63593665805922228 0.38504104513428977 0
vt 0.71922563230872383 0.87611595689736688 0
vt 0.78837688323507038 0.71222206765987772 0
vt 0.32553384297136034 0.95690619190449488 0
vt 0.012000000000000455 0.34215865614889002 0
vt 0.086712727257311856 0.50311381781799569 0
vt 0.16656109214207021 0.61675774438539277 0
vt 0.32553278530932417 0.35394681985149384 0
#end 40 textures vertices 

#begin 42 normals 
vn -0.364481 0.78454199999999996 -0.50164500000000001
vn -0.303589 -0.18672800000000001 -0.93432700000000002
vn -0.79479100000000003 -0.18672800000000001 -0.57744300000000004
vn -0.364481 0.78454199999999996 -0.50164500000000001
vn -0.58973200000000003 0.78453700000000004 -0.19162199999999999
vn -0.98241100000000003 -0.18673400000000001 0
vn -0.58973200000000003 0.78453700000000004 -0.19162199999999999
vn -0.58973200000000003 0.78453600000000001 0.19162199999999999
vn -0.79479100000000003 -0.18672800000000001 0.57744300000000004
vn -0.58973200000000003 0.78453700000000004 0.19162199999999999
vn 9.9999999999999995e-007 -1 0
vn 0 1 -0
vn 0 1 -0
vn 0 1 0
vn 0.303587 -0.18672800000000001 -0.93432700000000002
vn 0.36448000000000003 0.78454100000000004 -0.50164699999999995
vn 0.36448000000000003 0.78454100000000004 -0.50164699999999995
vn 0.79478899999999997 -0.18672900000000001 -0.57744600000000001
vn 0 1 0
vn 0 1 0
vn 0 1 0
vn -0.364481 0.78454199999999996 0.50164500000000001
vn -0.30359000000000003 -0.18672800000000001 0.93432700000000002
vn -0.364481 0.78454199999999996 0.50164500000000001
vn 0 1 0
vn 0 1 0
vn 0.58973100000000001 0.78453700000000004 -0.19162299999999999
vn 0.58973100000000001 0.78453700000000004 -0.19162299999999999
vn 0.98241000000000001 -0.18673400000000001 9.9999999999999995e-007
vn 0 1 0
vn 0 1 0
vn 0 1 0
vn -0 0.78454800000000002 -0.62006799999999995
vn -0 0.78454800000000002 -0.62006799999999995
vn 0.58973200000000003 0.78453600000000001 0.19162399999999999
vn 0.58973200000000003 0.78453600000000001 0.19162399999999999
vn 0.79478899999999997 -0.18672900000000001 0.57744600000000001
vn 0.364481 0.78454100000000004 0.50164699999999995
vn 0.364481 0.78454100000000004 0.50164699999999995
vn 0.30358800000000002 -0.18672800000000001 0.93432700000000002
vn 0 0.78454800000000002 0.62006799999999995
vn 0 0.78454800000000002 0.62006799999999995
#end 42 normals 

#begin 30 faces
usemtl initialShadingGroup
g polySurface2
s 1
f 4/4/1 2/2/2 3/3/3 6/6/4 
f 6/24/5 3/23/3 5/5/6 7/7/7 
f 7/7/8 5/5/6 8/8/9 13/13/10 
f 1/1/11 3/3/3 2/2/2 
f 3/23/3 1/27/11 5/5/6 
s 4
f 4/4/12 6/6/13 9/39/14 
s 1
f 11/11/15 12/12/16 10/10/17 14/14/18 
s 4
f 6/24/13 7/7/19 9/28/14 
f 12/38/20 4/4/12 9/39/14 
s 1
f 5/5/6 1/27/11 8/8/9 
s 4
f 7/7/19 13/13/21 9/28/14 
s 1
f 13/26/22 8/25/9 15/15/23 16/16/24 
s 4
f 10/10/25 12/12/20 9/36/14 
f 13/26/21 16/16/26 9/9/14 
s 1
f 14/14/18 10/10/27 17/17/28 19/19/29 
s 4
f 17/17/30 10/10/25 9/36/14 
s 1
f 8/25/9 1/30/11 15/15/23 
s 4
f 16/16/26 18/18/31 9/9/14 
s 1
f 14/14/18 1/40/11 11/11/15 
s 4
f 20/20/32 17/34/30 9/31/14 
f 18/29/31 20/20/32 9/31/14 
s 1
f 11/37/15 2/2/2 4/4/33 12/38/34 
f 19/35/29 17/34/35 20/20/36 21/21/37 
f 21/21/37 20/20/38 18/29/39 22/22/40 
f 19/19/29 1/40/11 14/14/18 
f 1/1/11 2/2/2 11/37/15 
f 22/22/40 1/33/11 21/21/37 
f 21/21/37 1/33/11 19/35/29 
f 15/15/23 22/32/40 18/18/41 16/16/42 
f 1/30/11 22/32/40 15/15/23 
#end 30 faces
#begin 7 properties
#U3D EDG SEL 6 23
#U3D EDG SEL 12 6
#U3D EDG SEL 15 25
#U3D EDG SEL 15 17
#U3D EDG SEL 19 33
#U3D EDG SEL 28 19
#U3D SYM 0 0 0 1 0 0 0.0001 0
#end 7 properties
