# This file uses centimeters as units for non-parametric coordinates.

mtllib Fridge.mtl
g default
v 181.743805 -3.006687 201.123703
v 207.252228 -3.006687 201.123703
v 181.743805 52.885811 201.123703
v 207.252228 52.885811 201.123703
v 181.743805 52.885811 175.615280
v 207.252228 52.885811 175.615280
v 181.743805 -3.006687 175.615280
v 207.252228 -3.006687 175.615280
v 181.743805 -3.006685 175.615280
v 207.252228 -3.006685 175.615280
v 207.252228 -3.006685 201.123703
v 181.743805 -3.006685 201.123703
v 204.557495 -5.172196 201.123703
v 207.252228 -5.172196 201.123703
v 203.913452 -3.006687 201.123703
v 207.252228 -3.006687 201.123703
v 203.913452 -3.006687 198.428970
v 207.252228 -3.006687 198.428970
v 204.557495 -5.172196 198.428970
v 207.252228 -5.172196 198.428970
v 181.743805 -5.172196 201.123703
v 184.438538 -5.172196 201.123703
v 181.743805 -3.006687 201.123703
v 185.082581 -3.006687 201.123703
v 181.743805 -3.006687 198.428970
v 185.082581 -3.006687 198.428970
v 181.743805 -5.172196 198.428970
v 184.438538 -5.172196 198.428970
v 181.743805 -5.172196 178.310013
v 184.438538 -5.172196 178.310013
v 181.743805 -3.006687 178.310013
v 185.082581 -3.006687 178.310013
v 181.743805 -3.006687 175.615280
v 185.082581 -3.006687 175.615280
v 181.743805 -5.172196 175.615280
v 184.438538 -5.172196 175.615280
v 204.557495 -5.172196 178.310013
v 207.252228 -5.172196 178.310013
v 203.913452 -3.006687 178.310013
v 207.252228 -3.006687 178.310013
v 203.913452 -3.006687 175.615280
v 207.252228 -3.006687 175.615280
v 204.557495 -5.172196 175.615280
v 207.252228 -5.172196 175.615280
v 181.743805 32.764511 175.615295
v 181.743805 32.764511 201.123703
v 207.252228 32.764511 201.123703
v 207.252228 32.764511 175.615295
v 181.743805 30.975952 175.615295
v 181.743805 30.975952 201.123703
v 207.252228 30.975952 201.123703
v 207.252228 30.975952 175.615295
v 181.743805 32.764511 201.875992
v 207.252228 32.764511 201.875992
v 207.252228 52.885811 201.875992
v 181.743805 52.885811 201.875992
v 181.743805 -3.006687 201.875992
v 181.743805 30.975952 201.875992
v 207.252228 -3.006687 201.875992
v 207.252228 30.975952 201.875992
v 204.658005 40.702026 203.205231
v 205.658005 40.702026 203.205231
v 204.658005 47.225986 203.205231
v 205.658005 47.225986 203.205231
v 204.658005 47.225986 202.562775
v 205.658005 47.225986 202.562775
v 204.658005 40.702026 202.562775
v 205.658005 40.702026 202.562775
v 204.658005 46.410492 202.562775
v 204.658005 46.410492 203.205231
v 205.658005 46.410492 203.205231
v 205.658005 46.410492 202.562775
v 204.658005 41.517521 203.205231
v 204.658005 41.517521 202.562775
v 205.658005 41.517521 202.562775
v 205.658005 41.517521 203.205231
v 204.658005 41.517521 201.729889
v 205.658005 41.517521 201.729889
v 205.658005 40.702026 201.729889
v 204.658005 40.702026 201.729889
v 204.658005 47.225986 201.729889
v 205.658005 47.225986 201.729889
v 205.658005 46.410492 201.729889
v 204.658005 46.410492 201.729889
v 204.658005 21.960709 203.205231
v 205.658005 21.960709 203.205231
v 204.658005 28.484669 203.205231
v 205.658005 28.484669 203.205231
v 204.658005 28.484669 202.562775
v 205.658005 28.484669 202.562775
v 204.658005 21.960709 202.562775
v 205.658005 21.960709 202.562775
v 204.658005 27.669172 202.562775
v 204.658005 27.669172 203.205231
v 205.658005 27.669172 203.205231
v 205.658005 27.669172 202.562775
v 204.658005 22.776203 203.205231
v 204.658005 22.776203 202.562775
v 205.658005 22.776203 202.562775
v 205.658005 22.776203 203.205231
v 204.658005 22.776203 201.729889
v 205.658005 22.776203 201.729889
v 205.658005 21.960709 201.729889
v 204.658005 21.960709 201.729889
v 204.658005 28.484669 201.729889
v 205.658005 28.484669 201.729889
v 205.658005 27.669172 201.729889
v 204.658005 27.669172 201.729889
vt 0.030609 0.960197
vt 0.030609 0.936855
vt 0.049367 0.936855
vt 0.049367 0.960197
vt 0.054841 0.960197
vt 0.054841 0.936855
vt 0.073599 0.936855
vt 0.073599 0.960197
vt 0.079073 0.960197
vt 0.079073 0.936855
vt 0.097831 0.936855
vt 0.097831 0.960197
vt 0.103306 0.960197
vt 0.103306 0.936855
vt 0.122064 0.936855
vt 0.122064 0.960197
vt 0.127538 0.960197
vt 0.127538 0.936855
vt 0.146296 0.936855
vt 0.146296 0.960197
vt 0.151770 0.960197
vt 0.151770 0.936855
vt 0.170528 0.936855
vt 0.170528 0.960197
vt 0.176003 0.962635
vt 0.176003 0.939293
vt 0.194760 0.939293
vt 0.194760 0.962635
vt 0.200235 0.962635
vt 0.200235 0.939293
vt 0.218993 0.939293
vt 0.218993 0.962635
vt 0.019637 0.570783
vt 0.240593 0.570783
vt 0.240593 0.745076
vt 0.019636 0.745076
vt 0.019637 0.555290
vt 0.240593 0.555290
vt 0.247110 0.570783
vt 0.247110 0.745076
vt 0.019636 0.260928
vt 0.240593 0.260928
vt 0.247110 0.260928
vt 0.247110 0.555290
vt 0.555826 0.318856
vt 0.776783 0.318856
vt 0.776783 0.493149
vt 0.555826 0.493149
vt 0.555826 0.303363
vt 0.776783 0.303363
vt 0.549309 0.493149
vt 0.549309 0.318856
vt 0.555826 0.009002
vt 0.776783 0.009002
vt 0.549309 0.303363
vt 0.549309 0.009002
vt 0.040430 0.768678
vt 0.045995 0.768678
vt 0.045995 0.775742
vt 0.040430 0.775742
vt 0.053210 0.768678
vt 0.053210 0.775742
vt 0.040430 0.818125
vt 0.045995 0.818125
vt 0.045995 0.825189
vt 0.040430 0.825189
vt 0.053210 0.818125
vt 0.053210 0.825189
vt 0.099550 0.768678
vt 0.105115 0.768678
vt 0.105115 0.775742
vt 0.099550 0.775742
vt 0.105115 0.818125
vt 0.099550 0.818125
vt 0.092336 0.775742
vt 0.092336 0.768678
vt 0.105115 0.825189
vt 0.099550 0.825189
vt 0.092336 0.825189
vt 0.092336 0.818125
vt 0.124102 0.768678
vt 0.129667 0.768678
vt 0.129667 0.775742
vt 0.124102 0.775742
vt 0.136881 0.768678
vt 0.136881 0.775742
vt 0.124102 0.818125
vt 0.129667 0.818125
vt 0.129667 0.825189
vt 0.124102 0.825189
vt 0.136881 0.818125
vt 0.136881 0.825189
vt 0.178726 0.768678
vt 0.184291 0.768678
vt 0.184291 0.775742
vt 0.178726 0.775742
vt 0.184291 0.818125
vt 0.178726 0.818125
vt 0.171511 0.775742
vt 0.171511 0.768678
vt 0.184291 0.825189
vt 0.178726 0.825189
vt 0.171511 0.825189
vt 0.171511 0.818125
vt 0.296674 0.771226
vt 0.517630 0.771226
vt 0.517630 0.992183
vt 0.296674 0.992183
vt 0.296674 0.764709
vt 0.517630 0.764709
vt 0.301196 0.013774
vt 0.522153 0.013774
vt 0.522153 0.234731
vt 0.301196 0.234731
vt 0.296674 0.583900
vt 0.517630 0.583900
vt 0.517630 0.590416
vt 0.296674 0.590416
vt 0.300088 0.242299
vt 0.521045 0.242299
vt 0.521045 0.248816
vt 0.300088 0.248816
vt 0.521045 0.549694
vt 0.300088 0.549694
vt 0.300088 0.543177
vt 0.521045 0.543177
vt 0.077016 0.839760
vt 0.085678 0.839760
vt 0.085679 0.845325
vt 0.077016 0.845326
vt 0.085679 0.852539
vt 0.077017 0.852540
vt 0.077015 0.777685
vt 0.085677 0.777683
vt 0.085678 0.783248
vt 0.077016 0.783249
vt 0.077013 0.770470
vt 0.085675 0.770468
vt 0.060687 0.819652
vt 0.069349 0.819655
vt 0.069344 0.826871
vt 0.060682 0.826865
vt 0.069349 0.777271
vt 0.060687 0.777269
vt 0.060690 0.770054
vt 0.069352 0.770057
vt 0.159395 0.837881
vt 0.168057 0.837883
vt 0.168054 0.843449
vt 0.159392 0.843445
vt 0.168051 0.850663
vt 0.159389 0.850659
vt 0.159397 0.775804
vt 0.168059 0.775807
vt 0.168057 0.781371
vt 0.159395 0.781370
vt 0.159399 0.768589
vt 0.168062 0.768593
vt 0.142795 0.816919
vt 0.151457 0.816919
vt 0.151457 0.824134
vt 0.142795 0.824134
vt 0.151457 0.774536
vt 0.142795 0.774536
vt 0.142795 0.767322
vt 0.151457 0.767322
vt 0.038792 0.896662
vt 0.038792 0.873320
vt 0.057550 0.873320
vt 0.057550 0.902241
vt 0.063024 0.902241
vt 0.063024 0.873320
vt 0.081782 0.873320
vt 0.081782 0.896662
vt 0.087257 0.902241
vt 0.087257 0.878899
vt 0.106015 0.873320
vt 0.106015 0.902241
vt 0.111489 0.902241
vt 0.111489 0.873320
vt 0.130247 0.878899
vt 0.130247 0.902241
vt 0.135722 0.902241
vt 0.135722 0.878899
vt 0.154479 0.873320
vt 0.154479 0.902241
vt 0.159954 0.908758
vt 0.159954 0.879837
vt 0.178712 0.885416
vt 0.178712 0.908758
vt 0.184186 0.903179
vt 0.184186 0.879837
vt 0.202944 0.879837
vt 0.202944 0.908758
vt 0.208419 0.908758
vt 0.208419 0.879837
vt 0.227177 0.879837
vt 0.227177 0.903179
vt 0.545307 0.505083
vt 0.766264 0.505083
vt 0.766264 0.679376
vt 0.545307 0.679376
vt 0.766264 0.694869
vt 0.545307 0.694869
vt 0.766264 0.989231
vt 0.545307 0.989231
vt 0.520099 0.574475
vt 0.299142 0.574475
vt 0.299142 0.558982
vt 0.520099 0.558982
vt 0.085678 0.790313
vt 0.077016 0.790313
vt 0.077016 0.832696
vt 0.085678 0.832696
vt 0.168057 0.788435
vt 0.159395 0.788435
vt 0.159395 0.830818
vt 0.168057 0.830818
vn 0.000000 1.000000 0.000000
vn 0.000000 1.000000 0.000000
vn 0.000000 1.000000 0.000000
vn 0.000000 1.000000 0.000000
vn 0.000000 -1.000000 0.000000
vn 0.000000 -1.000000 0.000000
vn 0.000000 -1.000000 0.000000
vn 0.000000 -1.000000 0.000000
vn 0.000000 0.000000 1.000000
vn 0.000000 0.000000 1.000000
vn 0.000000 0.000000 1.000000
vn 0.000000 0.000000 1.000000
vn -1.000000 0.000000 0.000000
vn -1.000000 0.000000 0.000000
vn -1.000000 0.000000 0.000000
vn -1.000000 0.000000 0.000000
vn 0.000000 0.000000 -1.000000
vn 0.000000 0.000000 -1.000000
vn 0.000000 0.000000 -1.000000
vn 0.000000 0.000000 -1.000000
vn 1.000000 0.000000 0.000000
vn 1.000000 0.000000 0.000000
vn 1.000000 0.000000 0.000000
vn 1.000000 0.000000 0.000000
vn 0.000000 0.000000 1.000000
vn 0.000000 0.000000 1.000000
vn 0.000000 0.000000 1.000000
vn 0.000000 0.000000 1.000000
vn 0.000000 0.000000 -1.000000
vn 0.000000 0.000000 -1.000000
vn 0.000000 0.000000 -1.000000
vn 0.000000 0.000000 -1.000000
vn 1.000000 0.000000 0.000000
vn 1.000000 0.000000 0.000000
vn 1.000000 0.000000 0.000000
vn 1.000000 0.000000 0.000000
vn -0.958506 -0.285072 0.000000
vn -0.958506 -0.285072 0.000000
vn -0.958506 -0.285072 0.000000
vn -0.958506 -0.285072 0.000000
vn 0.000000 0.000000 1.000000
vn 0.000000 0.000000 1.000000
vn 0.000000 0.000000 1.000000
vn 0.000000 0.000000 1.000000
vn 0.000000 0.000000 -1.000000
vn 0.000000 0.000000 -1.000000
vn 0.000000 0.000000 -1.000000
vn 0.000000 0.000000 -1.000000
vn 0.958506 -0.285072 0.000000
vn 0.958506 -0.285072 0.000000
vn 0.958506 -0.285072 0.000000
vn 0.958506 -0.285072 0.000000
vn -1.000000 0.000000 0.000000
vn -1.000000 0.000000 0.000000
vn -1.000000 0.000000 0.000000
vn -1.000000 0.000000 0.000000
vn 0.000000 0.000000 1.000000
vn 0.000000 0.000000 1.000000
vn 0.000000 0.000000 1.000000
vn 0.000000 0.000000 1.000000
vn 0.000000 0.000000 -1.000000
vn 0.000000 0.000000 -1.000000
vn 0.000000 0.000000 -1.000000
vn 0.000000 0.000000 -1.000000
vn 0.958507 -0.285070 0.000000
vn 0.958507 -0.285070 0.000000
vn 0.958507 -0.285070 0.000000
vn 0.958507 -0.285070 0.000000
vn -1.000000 0.000000 0.000000
vn -1.000000 0.000000 0.000000
vn -1.000000 0.000000 0.000000
vn -1.000000 0.000000 0.000000
vn 0.000000 0.000000 1.000000
vn 0.000000 0.000000 1.000000
vn 0.000000 0.000000 1.000000
vn 0.000000 0.000000 1.000000
vn 0.000000 0.000000 -1.000000
vn 0.000000 0.000000 -1.000000
vn 0.000000 0.000000 -1.000000
vn 0.000000 0.000000 -1.000000
vn 1.000000 0.000000 0.000000
vn 1.000000 0.000000 0.000000
vn 1.000000 0.000000 0.000000
vn 1.000000 0.000000 0.000000
vn -0.958507 -0.285070 0.000000
vn -0.958507 -0.285070 0.000000
vn -0.958507 -0.285070 0.000000
vn -0.958507 -0.285070 0.000000
vn -1.000000 0.000000 0.000000
vn -1.000000 0.000000 0.000000
vn -1.000000 0.000000 0.000000
vn -1.000000 0.000000 0.000000
vn 0.000000 -0.000001 -1.000000
vn 0.000000 -0.000001 -1.000000
vn 0.000000 -0.000001 -1.000000
vn 0.000000 -0.000001 -1.000000
vn 1.000000 0.000000 0.000000
vn 1.000000 0.000000 0.000000
vn 1.000000 0.000000 0.000000
vn 1.000000 0.000000 0.000000
vn 0.000000 0.000000 1.000000
vn 0.000000 0.000000 1.000000
vn 0.000000 0.000000 1.000000
vn 0.000000 0.000000 1.000000
vn -1.000000 -0.000000 0.000000
vn -1.000000 -0.000000 0.000000
vn -1.000000 -0.000000 0.000000
vn -1.000000 -0.000000 0.000000
vn 0.000000 0.000000 1.000000
vn 0.000000 0.000000 1.000000
vn 0.000000 0.000000 1.000000
vn 0.000000 0.000000 1.000000
vn 1.000000 0.000000 0.000000
vn 1.000000 0.000000 0.000000
vn 1.000000 0.000000 0.000000
vn 1.000000 0.000000 0.000000
vn 0.000000 0.000000 -1.000000
vn 0.000000 0.000000 -1.000000
vn 0.000000 0.000000 -1.000000
vn 0.000000 0.000000 -1.000000
vn 0.000000 0.000000 1.000000
vn 0.000000 0.000000 1.000000
vn 0.000000 0.000000 1.000000
vn 0.000000 0.000000 1.000000
vn 0.000000 -1.000000 0.000000
vn 0.000000 -1.000000 0.000000
vn 0.000000 -1.000000 0.000000
vn 0.000000 -1.000000 0.000000
vn 1.000000 0.000000 0.000000
vn 1.000000 0.000000 0.000000
vn 0.000000 1.000000 0.000000
vn 0.000000 1.000000 0.000000
vn -1.000000 0.000000 0.000000
vn -1.000000 0.000000 0.000000
vn -1.000000 0.000000 0.000000
vn -1.000000 0.000000 0.000000
vn 0.000000 -1.000000 0.000000
vn 0.000000 -1.000000 0.000000
vn 0.000000 -1.000000 0.000000
vn 0.000000 -1.000000 0.000000
vn 1.000000 0.000000 0.000000
vn 1.000000 0.000000 0.000000
vn 0.000000 1.000000 0.000000
vn 0.000000 1.000000 0.000000
vn 0.000000 1.000000 0.000000
vn 0.000000 1.000000 0.000000
vn 0.000000 0.000000 1.000000
vn 0.000000 0.000000 1.000000
vn 0.000000 0.000000 1.000000
vn 0.000000 0.000000 1.000000
vn 0.000000 1.000000 0.000000
vn 0.000000 1.000000 0.000000
vn 0.000000 1.000000 0.000000
vn 0.000000 1.000000 0.000000
vn 0.000000 -1.000000 0.000000
vn 0.000000 -1.000000 0.000000
vn 0.000000 -1.000000 0.000000
vn 0.000000 -1.000000 0.000000
vn 1.000000 0.000000 0.000000
vn 1.000000 0.000000 0.000000
vn 1.000000 0.000000 0.000000
vn 1.000000 0.000000 0.000000
vn -1.000000 0.000000 0.000000
vn -1.000000 0.000000 0.000000
vn -1.000000 0.000000 0.000000
vn -1.000000 0.000000 0.000000
vn -1.000000 0.000000 0.000000
vn -1.000000 0.000000 0.000000
vn -1.000000 0.000000 0.000000
vn -1.000000 0.000000 0.000000
vn 1.000000 0.000000 0.000000
vn 1.000000 0.000000 0.000000
vn 1.000000 0.000000 0.000000
vn 1.000000 0.000000 0.000000
vn 0.000000 0.000000 1.000000
vn 0.000000 0.000000 1.000000
vn 0.000000 0.000000 1.000000
vn 0.000000 0.000000 1.000000
vn 0.000000 0.000000 -1.000000
vn 0.000000 0.000000 -1.000000
vn 0.000000 0.000000 -1.000000
vn 0.000000 0.000000 -1.000000
vn 0.000000 1.000000 0.000000
vn 0.000000 1.000000 0.000000
vn 0.000000 1.000000 0.000000
vn 0.000000 1.000000 0.000000
vn 1.000000 0.000000 0.000000
vn 1.000000 0.000000 0.000000
vn 0.000000 -1.000000 0.000000
vn 0.000000 -1.000000 0.000000
vn -1.000000 0.000000 0.000000
vn -1.000000 0.000000 0.000000
vn 0.000000 1.000000 0.000000
vn 0.000000 1.000000 0.000000
vn 1.000000 0.000000 0.000000
vn 1.000000 0.000000 0.000000
vn 0.000000 -1.000000 0.000000
vn 0.000000 -1.000000 0.000000
vn 0.000000 -1.000000 0.000000
vn 0.000000 -1.000000 0.000000
vn -1.000000 0.000000 0.000000
vn -1.000000 0.000000 0.000000
vn 0.000000 0.000000 1.000000
vn 0.000000 0.000000 1.000000
vn 0.000000 0.000000 1.000000
vn 0.000000 0.000000 1.000000
vn 0.000000 1.000000 0.000000
vn 0.000000 1.000000 0.000000
vn 0.000000 1.000000 0.000000
vn 0.000000 1.000000 0.000000
vn 0.000000 -1.000000 0.000000
vn 0.000000 -1.000000 0.000000
vn 0.000000 -1.000000 0.000000
vn 0.000000 -1.000000 0.000000
vn 1.000000 0.000000 0.000000
vn 1.000000 0.000000 0.000000
vn 1.000000 0.000000 0.000000
vn 1.000000 0.000000 0.000000
vn -1.000000 0.000000 0.000000
vn -1.000000 0.000000 0.000000
vn -1.000000 0.000000 0.000000
vn -1.000000 0.000000 0.000000
vn -1.000000 0.000000 0.000000
vn -1.000000 0.000000 0.000000
vn -1.000000 0.000000 0.000000
vn -1.000000 0.000000 0.000000
vn 1.000000 0.000000 0.000000
vn 1.000000 0.000000 0.000000
vn 1.000000 0.000000 0.000000
vn 1.000000 0.000000 0.000000
vn 0.000000 0.000000 1.000000
vn 0.000000 0.000000 1.000000
vn 0.000000 0.000000 1.000000
vn 0.000000 0.000000 1.000000
vn 0.000000 0.000000 -1.000000
vn 0.000000 0.000000 -1.000000
vn 0.000000 0.000000 -1.000000
vn 0.000000 0.000000 -1.000000
vn 0.000000 1.000000 0.000000
vn 0.000000 1.000000 0.000000
vn 0.000000 1.000000 0.000000
vn 0.000000 1.000000 0.000000
vn 1.000000 0.000000 0.000000
vn 1.000000 0.000000 0.000000
vn 0.000000 -1.000000 0.000000
vn 0.000000 -1.000000 0.000000
vn -1.000000 0.000000 0.000000
vn -1.000000 0.000000 0.000000
vn 0.000000 1.000000 0.000000
vn 0.000000 1.000000 0.000000
vn 1.000000 0.000000 0.000000
vn 1.000000 0.000000 0.000000
vn 0.000000 -1.000000 0.000000
vn 0.000000 -1.000000 0.000000
vn 0.000000 -1.000000 0.000000
vn 0.000000 -1.000000 0.000000
vn -1.000000 0.000000 0.000000
vn -1.000000 0.000000 0.000000
s 1
g Fridge
usemtl initialShadingGroup
f 3/105/1 4/106/2 6/107/3 5/108/4
s off
f 9/111/5 10/112/6 11/113/7 12/114/8
f 7//9 8//10 10//11 9//12
f 8//13 2//14 11//15 10//16
f 2//17 1//18 12//19 11//20
f 1//21 7//22 9//23 12//24
f 13/167/25 14/168/26 16/169/27 15/170/28
f 17/171/29 18/172/30 20/173/31 19/174/32
f 14/1/33 20/2/34 18/3/35 16/4/36
f 19/5/37 13/6/38 15/7/39 17/8/40
f 21/175/41 22/176/42 24/177/43 23/178/44
f 25/179/45 26/180/46 28/181/47 27/182/48
f 22/9/49 28/10/50 26/11/51 24/12/52
f 27/13/53 21/14/54 23/15/55 25/16/56
f 29/183/57 30/184/58 32/185/59 31/186/60
f 33/187/61 34/188/62 36/189/63 35/190/64
f 30/17/65 36/18/66 34/19/67 32/20/68
f 35/21/69 29/22/70 31/23/71 33/24/72
f 37/191/73 38/192/74 40/193/75 39/194/76
f 41/195/77 42/196/78 44/197/79 43/198/80
f 38/25/81 44/26/82 42/27/83 40/28/84
f 43/29/85 37/30/86 39/31/87 41/32/88
s 2
f 45/33/89 46/34/90 3/35/91 5/36/92
s 3
f 5/199/93 6/200/94 48/201/95 45/202/96
s 4
f 47/45/97 48/46/98 6/47/99 4/48/100
s off
f 53/118/101 54/117/102 55/110/103 56/109/104
s 2
f 7/41/105 1/42/106 50/38/107 49/37/108
s off
f 58/125/109 57/122/110 59/121/111 60/126/112
s 4
f 2/53/113 8/54/114 52/50/115 51/49/116
s 3
f 8/205/117 7/206/118 49/204/119 52/203/120
s 2
f 46/34/90 45/33/89 49/37/108 50/38/107
s 3
f 52/203/120 49/204/119 45/202/96 48/201/95
s 4
f 51/49/116 52/50/115 48/46/98 47/45/97
s off
f 47/207/121 46/208/122 50/209/123 51/210/124
f 46/115/125 47/116/126 54/117/127 53/118/128
s 4
f 47/45/97 4/48/100 55/51/129 54/52/130
s 1
f 4/106/2 3/105/1 56/109/131 55/110/132
s 2
f 3/35/91 46/34/90 53/39/133 56/40/134
f 50/38/107 1/42/106 57/43/135 58/44/136
s off
f 1/119/137 2/120/138 59/121/139 57/122/140
s 4
f 2/53/113 51/49/116 60/55/141 59/56/142
s off
f 51/123/143 50/124/144 58/125/145 60/126/146
s 6
f 61/136/147 62/135/148 76/211/149 73/212/150
s 7
f 63/127/151 64/128/152 66/129/153 65/130/154
s 8
f 67/133/155 68/134/156 62/135/157 61/136/158
s 9
f 62/57/159 68/58/160 75/59/161 76/60/162
s 10
f 67/69/163 61/70/164 73/71/165 74/72/166
f 69/74/167 70/73/168 63/77/169 65/78/170
s 9
f 71/63/171 72/64/172 66/65/173 64/66/174
s 6
f 70/213/175 71/214/176 64/128/177 63/127/178
s 10
f 74/72/166 73/71/165 70/73/168 69/74/167
s off
f 75/140/179 74/139/180 69/144/181 72/143/182
s 9
f 71/63/171 76/60/162 75/59/161 72/64/172
s 6
f 70/213/175 73/212/150 76/211/149 71/214/176
s off
f 74/139/183 75/140/184 78/141/185 77/142/186
s 9
f 75/59/161 68/58/160 79/61/187 78/62/188
s 8
f 68/134/156 67/133/155 80/137/189 79/138/190
s 10
f 67/69/163 74/72/166 77/75/191 80/76/192
s 7
f 65/130/154 66/129/153 82/131/193 81/132/194
s 9
f 66/65/173 72/64/172 83/67/195 82/68/196
s off
f 72/143/197 69/144/198 84/145/199 83/146/200
s 10
f 69/74/167 65/78/170 81/79/201 84/80/202
s 11
f 85/156/203 86/155/204 100/215/205 97/216/206
s 12
f 87/147/207 88/148/208 90/149/209 89/150/210
s 13
f 91/153/211 92/154/212 86/155/213 85/156/214
s 14
f 86/81/215 92/82/216 99/83/217 100/84/218
s 15
f 91/93/219 85/94/220 97/95/221 98/96/222
f 93/98/223 94/97/224 87/101/225 89/102/226
s 14
f 95/87/227 96/88/228 90/89/229 88/90/230
s 11
f 94/217/231 95/218/232 88/148/233 87/147/234
s 15
f 98/96/222 97/95/221 94/97/224 93/98/223
s off
f 99/160/235 98/159/236 93/164/237 96/163/238
s 14
f 95/87/227 100/84/218 99/83/217 96/88/228
s 11
f 94/217/231 97/216/206 100/215/205 95/218/232
s off
f 98/159/239 99/160/240 102/161/241 101/162/242
s 14
f 99/83/217 92/82/216 103/85/243 102/86/244
s 13
f 92/154/212 91/153/211 104/157/245 103/158/246
s 15
f 91/93/219 98/96/222 101/99/247 104/100/248
s 12
f 89/150/210 90/149/209 106/151/249 105/152/250
s 14
f 90/89/229 96/88/228 107/91/251 106/92/252
s off
f 96/163/253 93/164/254 108/165/255 107/166/256
s 15
f 93/98/223 89/102/226 105/103/257 108/104/258
