#File written by LIBUNFOLD3D. Compilation :Dec 22 2011,11:53:02
mtllib FridgeShelf.mtl
#begin vertices
v 170.076492 56.261119999999998 174.12645000000001
v 170.076492 56.261119999999998 199.59845000000001
v 170.076492 68.537323000000001 199.59845000000001
v 170.076492 68.537323000000001 174.12645000000001
v 181.52091999999999 57.164703000000003 199.59845000000001
v 181.52091999999999 67.633742999999996 199.59845000000001
v 170.98580899999999 67.633742999999996 199.59845000000001
v 170.98580899999999 57.164703000000003 199.59845000000001
v 181.52091999999999 57.164703000000003 179.27075199999999
v 181.52091999999999 67.633742999999996 179.27075199999999
v 170.98580899999999 67.633742999999996 179.27075199999999
v 170.98580899999999 57.164703000000003 179.27075199999999
v 182.43017599999999 56.261124000000002 174.12645000000001
v 182.43017599999999 56.261124000000002 199.59845000000001
v 182.43017599999999 68.537330999999995 199.59845000000001
v 182.43017599999999 68.537330999999995 174.12645000000001
v 170.076492 43.984917000000003 174.12645000000001
v 170.076492 43.984917000000003 199.59845000000001
v 181.52091999999999 44.888500000000001 199.59845000000001
v 181.52091999999999 55.357536000000003 199.59845000000001
v 170.98582500000001 55.357536000000003 199.59845000000001
v 170.98582500000001 44.888500000000001 199.59845000000001
v 181.52091999999999 44.888500000000001 179.27075199999999
v 181.52091999999999 55.357536000000003 179.27075199999999
v 170.98582500000001 55.357536000000003 179.27075199999999
v 170.98582500000001 44.888500000000001 179.27075199999999
v 182.43017599999999 43.984921 174.12645000000001
v 182.43017599999999 43.984921 199.598434
v 170.076492 31.708714000000001 174.12645000000001
v 170.076492 31.708714000000001 199.59845000000001
v 181.52091999999999 32.612296999999998 199.59845000000001
v 181.52091999999999 43.081333000000001 199.59845000000001
v 170.98582500000001 43.081333000000001 199.59845000000001
v 170.98582500000001 32.612296999999998 199.59845000000001
v 181.52091999999999 32.612296999999998 179.27075199999999
v 181.52091999999999 43.081333000000001 179.27075199999999
v 170.98582500000001 43.081333000000001 179.27075199999999
v 170.98582500000001 32.612296999999998 179.27075199999999
v 182.43017599999999 31.708717 174.12645000000001
v 182.43017599999999 31.708717 199.598434
v 170.076492 19.432510000000001 174.12645000000001
v 170.076492 19.432510000000001 199.59845000000001
v 181.52091999999999 20.336093999999999 199.59845000000001
v 181.52091999999999 30.805129999999998 199.59845000000001
v 170.98582500000001 30.805129999999998 199.59845000000001
v 170.98582500000001 20.336093999999999 199.59845000000001
v 181.52091999999999 20.336093999999999 179.27075199999999
v 181.52091999999999 30.805129999999998 179.27075199999999
v 170.98582500000001 30.805129999999998 179.27075199999999
v 170.98582500000001 20.336093999999999 179.27075199999999
v 182.43017599999999 19.432514000000001 174.12645000000001
v 182.43017599999999 19.432514000000001 199.598434
v 170.076492 7.1563059999999998 174.12645000000001
v 170.076492 7.1563059999999998 199.59845000000001
v 181.52091999999999 8.0598880000000008 199.59845000000001
v 181.52091999999999 18.528926999999999 199.59845000000001
v 170.98582500000001 18.528926999999999 199.59845000000001
v 170.98582500000001 8.0598880000000008 199.59845000000001
v 181.52091999999999 8.0598880000000008 179.27075199999999
v 181.52091999999999 18.528926999999999 179.27075199999999
v 170.98582500000001 18.528926999999999 179.27075199999999
v 170.98582500000001 8.0598880000000008 179.27075199999999
v 182.43017599999999 7.1563100000000004 174.12645000000001
v 182.43017599999999 7.1563100000000004 199.598434
v 170.076492 -5.1198980000000001 174.12645000000001
v 170.076492 -5.1198980000000001 199.59845000000001
v 181.52091999999999 -4.2163149999999998 199.59845000000001
v 181.52091999999999 6.2527239999999997 199.59845000000001
v 170.98582500000001 6.2527239999999997 199.59845000000001
v 170.98582500000001 -4.2163149999999998 199.59845000000001
v 181.52091999999999 -4.2163149999999998 179.27075199999999
v 181.52091999999999 6.2527239999999997 179.27075199999999
v 170.98582500000001 6.2527239999999997 179.27075199999999
v 170.98582500000001 -4.2163149999999998 179.27075199999999
v 182.43017599999999 -5.1198949999999996 174.12645000000001
v 182.43017599999999 -5.1198949999999996 199.598434
v 211.52943400000001 -5.1198949999999996 199.59845000000001
v 212.68812600000001 -5.1198949999999996 199.59845000000001
v 211.52943400000001 68.537330999999995 199.59845000000001
v 212.68812600000001 68.537330999999995 199.59845000000001
v 211.52943400000001 68.537330999999995 174.12645000000001
v 212.68812600000001 68.537330999999995 174.12645000000001
v 211.52943400000001 -5.1198949999999996 174.12645000000001
v 212.68812600000001 -5.1198949999999996 174.12645000000001
v 211.52943400000001 54.897098999999997 199.59845000000001
v 211.52943400000001 54.897098999999997 174.12645000000001
v 212.68812600000001 54.897098999999997 174.12645000000001
v 212.68812600000001 54.897098999999997 199.59845000000001
v 211.52943400000001 56.261124000000002 174.12645000000001
v 211.52943400000001 56.261124000000002 199.59845000000001
v 212.68812600000001 56.261124000000002 199.59845000000001
v 212.68812600000001 56.261124000000002 174.12645000000001
v 211.52943400000001 56.261124000000002 200.45141599999999
v 211.52943400000001 68.537330999999995 200.45141599999999
v 182.43017599999999 68.537330999999995 200.45141599999999
v 182.43017599999999 56.261124000000002 200.45141599999999
#end vertices

#begin 262 textures vertices 
vt 0.15578357248899774 0.31112829444565837 0
vt 0.27991634454761344 0.31112829444565865 0
vt 0.27991634454761327 0.37095395041080864 0
vt 0.15578357248899774 0.37095395041080809 0
vt 0.11299399462772422 0.43423749721830435 0
vt 0.61430553379591024 0.54394936011754125 0
vt 0.48329059871393365 0.39181228669446444 0
vt 0.25163928748166164 0.51312242999886526 0
vt 0.57856525531763903 0.61893208722703608 0
vt 0.57856525531763903 0.66995089046166745 0
vt 0.52722446808557155 0.66995089046166745 0
vt 0.52722446808557155 0.61893208722703641 0
vt 0.73459044617601899 0.31112831393671214 0
vt 0.34100174842293146 0.50114046562478221 0
vt 0.93493039699748592 0.072203244348953893 0
vt 0.81079762493887042 0.072203244348952422 0
vt 0.15578357248899732 0.25130263848050843 0
vt 0.27991634454761316 0.25130263848050899 0
vt 0.2606258827640176 0.64639728055968682 0
vt 0.26062588471882697 0.69167644791605809 0
vt 0.2149886953883022 0.6916765629081898 0
vt 0.21498870734998593 0.64639717558760135 0
vt 0.64646297546459575 0.66735750229018143 0
vt 0.64646297546459608 0.7183762860316012 0
vt 0.59512226620537545 0.7183762860316012 0
vt 0.59512226620537545 0.66735750229018143 0
vt 0.73459044617817004 0.25130265797156087 0
vt 0.2679086624758738 0.63912420286360605 0
vt 0.15578357248899705 0.1914769825153588 0
vt 0.27991634454761316 0.19147698251535919 0
vt 0.8477421355222543 0.63631910887100984 0
vt 0.8477421374083175 0.68159827686825536 0
vt 0.80210494933259813 0.68159839049682913 0
vt 0.80210495997504516 0.63631900401070984 0
vt 0.3389258898631311 0.67613793683206724 0
vt 0.3389258898631311 0.72715672057348701 0
vt 0.28758518060391053 0.72715672057348713 0
vt 0.2875851806039107 0.67613793683206724 0
vt 0.73459044618031466 0.19147699713310853 0
vt 0.85502491680391113 0.62904602522255759 0
vt 0.15578357248899705 0.13165132167690594 0
vt 0.27991634454761316 0.13165132167690644 0
vt 0.9276218977548395 0.63631940681758814 0
vt 0.92762189823477248 0.68159857361123755 0
vt 0.8819847113497421 0.68159868869415907 0
vt 0.88198472058621791 0.6363193005031007 0
vt 0.40682368798293522 0.67613793683206724 0
vt 0.40682368798293544 0.72715672057348668 0
vt 0.35548297872371454 0.72715672057348668 0
vt 0.35548297872371465 0.67613793683206724 0
vt 0.7345904461824585 0.13165134116795948 0
vt 0.93490467929779852 0.6290463233985244 0
vt 0.15578357248899705 0.071825660838453362 0
vt 0.27991634454761327 0.071825660838453778 0
vt 0.76786237491827425 0.63495022724237937 0
vt 0.76786237687283221 0.68022941032599971 0
vt 0.722225186906293 0.68022952531883452 0
vt 0.72222519886820447 0.63495012227048298 0
vt 0.063340709259220793 0.65584080577107839 0
vt 0.063340709259221209 0.70685960413240689 0
vt 0.012000000000000594 0.70685960413240689 0
vt 0.012000000000000455 0.65584080577107839 0
vt 0.73459044618460145 0.071825680329507577 0
vt 0.77514515431205722 0.6276771549734822 0
vt 0.15578357248899719 0.012000000000000455 0
vt 0.44734471542368087 0.61893191381626644 0
vt 0.50026516679058597 0.6262052885481737 0
vt 0.50026516586438974 0.67148447254474575 0
vt 0.45462797996456866 0.67148458615256967 0
vt 0.45462798779506963 0.62620518370894418 0
vt 0.1312385073790247 0.66464789118727707 0
vt 0.13123850737902482 0.71566668954860591 0
vt 0.079897798119804381 0.71566668954860557 0
vt 0.07989779811980452 0.66464789118727707 0
vt 0.73459044618674418 0.012000014617752585 0
vt 0.4433507954398373 0.012000000000000524 0
vt 0.95458119742800396 0.62904602522256559 0
vt 0.96022785453863957 0.62904602522255759 0
vt 0.93493039699748814 0.21401274342200749 0
vt 0.93493039699748859 0.21965940053264429 0
vt 0.81079762493887153 0.21401274342200896 0
vt 0.58713428999050388 0.37095398939049867 0
vt 0.29956714497799419 0.012000000000000455 0
vt 0.58713428995598682 0.012000014613659361 0
vt 0.95458119742816283 0.92152701752188526 0
vt 0.59278094710202867 0.30448100691221369 0
vt 0.58713428999139072 0.30448100691289093 0
vt 0.96022785453879789 0.92152701752188937 0
vt 0.59278094710274176 0.31112831393222456 0
vt 0.9545811974281343 0.92817432454163096 0
vt 0.01200000016320645 0.31112830203569769 0
vt 0.58713428999208883 0.31112831393239521 0
vt 0.9685830765107033 0.31183304397966538 0
vt 0.9685830765107033 0.37165871943802675 0
vt 0.82677357743764812 0.37165871943802675 0
vt 0.82677357743764779 0.31183304397966538 0
vt 0.012000001924931428 0.012000000000000455 0
vt 0.012000000963921106 0.37095397740060709 0
vt 0.012000000000000455 0.30448099505232229 0
vt 0.13613277360490683 0.3709539754052279 0
vt 0.136132772991296 0.3044809927972752 0
vt 0.13613277273996077 0.012000003251188997 0
vt 0.13613277297241017 0.31112829985341417 0
vt 0.9602278545387688 0.92817432454165594 0
vt 0.81079762493887264 0.012000000000000455 0
vt 0.79479369052497328 0.31112829444565215 0
vt 0.79479369053568238 0.012000000000000455 0
vt 0.79479369052711069 0.2513026384805056 0
vt 0.79479369053139648 0.13165132167690474 0
vt 0.20770541811002358 0.69894983931957499 0
vt 0.27991634454761344 0.012000000000001074 0
vt 0.79482167244009294 0.6888716665540594 0
vt 0.12782565561613657 0.65266592681319402 0
vt 0.79479369052925319 0.19147698251535672 0
vt 0.87470143493398 0.68887196473002787 0
vt 0.71494190994620599 0.68750279630294064 0
vt 0.7947936905335391 0.071825660838452571 0
vt 0.44734470559168454 0.67875785045458681 0
vt 0.59278094710111506 0.37095398939065616 0
vt 0.79479369052286497 0.37095395041078594 0
vt 0.93493039699748814 0.012000000000002876 0
vt 0.18802891215687631 0.65266575263171178 0
vt 0.81833649493988203 0.29033507734434422 0
vt 0.73459044617396385 0.37095398939503388 0
vt 0.9602278545385019 0.98800000000000032 0
vt 0.81079762493887153 0.21965940053264565 0
vt 0.27959720435452196 0.39325892379900457 0
vt 0.56748348952560623 0.25130264335381225 0
vt 0.56748348952560623 0.13165132655020911 0
vt 0.56748348952560623 0.012000000000000455 0
vt 0.59278094706662321 0.012000014612977523 0
vt 0.56748348952560623 0.19147698251535911 0
vt 0.56748348952560623 0.071825665711756206 0
vt 0.29956714497799392 0.30448099229920478 0
vt 0.29956714497799364 0.31112829931896197 0
vt 0.4433507954398373 0.25130264335381192 0
vt 0.4433507954398373 0.13165132655020911 0
vt 0.50754794995550423 0.61893220424978157 0
vt 0.44335071746699023 0.3111282993189618 0
vt 0.56748348952560579 0.31112829931896208 0
vt 0.4433507954398373 0.19147698251535911 0
vt 0.4433507954398373 0.07182566571175629 0
vt 0.42369991703661003 0.01200000000000111 0
vt 0.42369991703661003 0.30448099229920395 0
vt 0.42369991703661003 0.31112829931896119 0
vt 0.40284126917181579 0.32311026369304435 0
vt 0.4642458132402254 0.43099180551882149 0
vt 0.95293895790408867 0.24116745586125563 0
vt 0.95458119742786685 0.98799999999997512 0
vt 0.81865177133545364 0.24090794085223821 0
vt 0.18802889998947989 0.5928402903658142 0
vt 0.95262453089158705 0.29059131593296944 0
vt 0.1278256678323465 0.59284005765557579 0
vt 0.7149419289129928 0.62767685849559751 0
vt 0.267908681409189 0.69894958186032874 0
vt 0.93490469270876375 0.6888717006958428 0
vt 0.20770543707656852 0.63912390638540262 0
vt 0.85502493382233091 0.68887141052807765 0
vt 0.77514517324629595 0.68750253884423129 0
vt 0.87470144837342745 0.62904602522255759 0
vt 0.79482168948699305 0.62904573505479189 0
vt 0.50754795975901645 0.67875759416285542 0
vt 0.81079762493887042 0.23188343569253811 0
vt 0.81105025053930369 0.29987918096256122 0
vt 0.96022658841238939 0.23162467258958291 0
vt 0.96048415482089766 0.29961210672845612 0
vt 0.5152425037114885 0.49293055688290993 0
vt 0.014006660055764168 0.43810938614308353 0
vt 0.5152425037114885 0.54394936011754125 0
vt 0.59453741713628627 0.40038583636886788 0
vt 0.35070231756608311 0.51312242999886526 0
vt 0.012000000000000455 0.38680782915863132 0
vt 0.57448594385506946 0.35312258581559913 0
vt 0.35070231756608283 0.56414123323349674 0
vt 0.18074610910214184 0.64539260432854773 0
vt 0.50334207199515058 0.43907553724773341 0
vt 0.1807461124983058 0.60011338285115701 0
vt 0.61430553379591013 0.49293055688290993 0
vt 0.13510883294024448 0.64539269606053462 0
vt 0.25163928748166142 0.56414123323349674 0
vt 0.13510884455589256 0.6001133061513092 0
vt 0.11098733457196078 0.38293594023385202 0
vt 0.012000000000000734 0.59284005765557579 0
vt 0.48815287223663939 0.43574741328804178 0
vt 0.012000000000000455 0.64385884139699534 0
vt 0.85872548243520253 0.51152896785518287 0
vt 0.31475642444383367 0.57612319760757991 0
vt 0.52061078305914277 0.47552620729035172 0
vt 0.88747783769624344 0.55406331273297149 0
vt 0.314756424443834 0.62714198134899968 0
vt 0.11106303008442256 0.64385884139699534 0
vt 0.94079643835003124 0.45605066466615957 0
vt 0.11106303008442256 0.59284005765557579 0
vt 0.41139881246943544 0.49837566760475965 0
vt 0.96954879361107316 0.49858500954394797 0
vt 0.21569339435941257 0.62714198134899968 0
vt 0.21569339435941229 0.57612319760757991 0
vt 0.44385672329193865 0.53815446160706981 0
vt 0.74689381494376073 0.56467626773092694 0
vt 0.91950359516001379 0.38364068381210986 0
vt 0.74689381494376073 0.61569505147234616 0
vt 0.57115833745720945 0.43841424260267137 0
vt 0.96178250064431825 0.56604527710705466 0
vt 0.95196150251685452 0.42341948064226204 0
vt 0.59991068527961511 0.48094859250882688 0
vt 0.96178250064431825 0.61706406084847465 0
vt 0.84595684502818269 0.61569505147234616 0
vt 0.65322930307438209 0.38293595376666095 0
vt 0.84595684502818269 0.56467626773092638 0
vt 0.84274952993642493 0.44626893144175594 0
vt 0.68198165089678697 0.42547030367281613 0
vt 0.86271947055989739 0.61706406084847443 0
vt 0.86271947055989684 0.56604527710705443 0
vt 0.87520743729326533 0.48604772827190762 0
vt 0.33151904997554837 0.61313718871656453 0
vt 0.20857371552169343 0.38293591478489136 0
vt 0.33151904997554837 0.66415597245798419 0
vt 0.73890583869437232 0.43054360051470408 0
vt 0.69817928441449129 0.6043567541746786 0
vt 0.24103161871363207 0.42271471501343727 0
vt 0.7676581780474695 0.47307795614593628 0
vt 0.69817928441449129 0.65537553791609848 0
vt 0.43058208005996995 0.66415597245798419 0
vt 0.82097681535820966 0.37506532802041087 0
vt 0.43058208005996995 0.61313718871656453 0
vt 0.13181964374083088 0.44556415437826619 0
vt 0.84972915471130595 0.41759968365164329 0
vt 0.59911625433006976 0.65537553791609848 0
vt 0.59911625433006976 0.6043567541746786 0
vt 0.16427754693276941 0.48534295460681198 0
vt 0.099867738743276147 0.52983929492016435 0
vt 0.70782221700956904 0.42696697727127964 0
vt 0.099867738743276147 0.58085809328149274 0
vt 0.18773547748655189 0.48059420356476146 0
vt 0.73013118941204636 0.54135599143926705 0
vt 0.7402801291565404 0.46674577019287677 0
vt 0.21648782778829426 0.52312855179493489 0
vt 0.73013118941204636 0.59237478980059555 0
vt 0.19893076882769753 0.58085809328149274 0
vt 0.26980643986988229 0.42511590994481457 0
vt 0.19893076882769767 0.52983929492016391 0
vt 0.63106815932762472 0.48959523414358735 0
vt 0.29855879017162479 0.46765025817498834 0
vt 0.63106815932762461 0.59237478980059555 0
vt 0.63106815932762461 0.54135599143926705 0
vt 0.66352607147459564 0.52937402706518411 0
vt 0.36746494309779759 0.55013642598115275 0
vt 0.81995054564975134 0.45049884633475729 0
vt 0.36746494309779759 0.60115522434248136 0
vt 0.031969940623472214 0.50188040351141128 0
vt 0.58235362879835506 0.55593132449162452 0
vt 0.85221911490280122 0.49043138777154627 0
vt 0.06079375387897927 0.54436635668009326 0
vt 0.58235362879835506 0.60695012285295302 0
vt 0.466527973182219 0.60115522434248136 0
vt 0.1139475236690088 0.44626422054710496 0
vt 0.466527973182219 0.55013642598115275 0
vt 0.7428998268190663 0.51276176192005452 0
vt 0.14277133692451591 0.48875017371578727 0
vt 0.48329059871393365 0.60695012285295302 0
vt 0.48329059871393365 0.55593132449162452 0
vt 0.77516839607211652 0.55269430335684377 0
#end 262 textures vertices 

#begin 346 normals 
vn -1 0 0
vn -1 0 0
vn -1 0 0
vn -1 0 0
vn 0 0 1
vn 0 0 1
vn 0 0 1
vn 0 0 1
vn -9.9999999999999995e-007 1 0
vn -9.9999999999999995e-007 1 0
vn -9.9999999999999995e-007 1 0
vn -9.9999999999999995e-007 1 0
vn 9.9999999999999995e-007 0 -1
vn 9.9999999999999995e-007 0 -1
vn 9.9999999999999995e-007 0 -1
vn 9.9999999999999995e-007 0 -1
vn 3.1000000000000001e-005 0 1
vn 3.1000000000000001e-005 0 1
vn 3.1000000000000001e-005 0 1
vn 3.1000000000000001e-005 0 1
vn 0 0 1
vn 0 0 1
vn 0 0 1
vn 0 0 1
vn -6.9999999999999999e-006 0 1
vn -6.9999999999999999e-006 0 1
vn -6.9999999999999999e-006 0 1
vn -6.9999999999999999e-006 0 1
vn 0 0 1
vn 0 0 1
vn 0 0 1
vn 0 0 1
vn -1 0 0
vn -1 0 0
vn -1 0 0
vn -1 0 0
vn 0 -1 0
vn 0 -1 0
vn 0 -1 0
vn 0 -1 0
vn 1 0 0
vn 1 0 0
vn 1 0 0
vn 1 0 0
vn 0 1 0
vn 0 1 0
vn 0 1 0
vn 0 1 0
vn -1 0 0
vn -1 0 0
vn -1 0 0
vn -1 0 0
vn 0 0 1
vn 0 0 1
vn 0 0 1
vn 0 0 1
vn 0 0 -1
vn 0 0 -1
vn 0 0 -1
vn 0 0 -1
vn 6.9999999999999999e-006 -9.9999999999999995e-007 1
vn 6.9999999999999999e-006 -9.9999999999999995e-007 1
vn 6.9999999999999999e-006 -9.9999999999999995e-007 1
vn 6.9999999999999999e-006 -9.9999999999999995e-007 1
vn 0 0 1
vn 0 0 1
vn 0 0 1
vn 0 0 1
vn 1.2999999999999999e-005 0 1
vn 1.2999999999999999e-005 0 1
vn 1.2999999999999999e-005 0 1
vn 1.2999999999999999e-005 0 1
vn 0 -7.9999999999999996e-006 1
vn 0 -7.9999999999999996e-006 1
vn 0 -7.9999999999999996e-006 1
vn 0 -7.9999999999999996e-006 1
vn -1 0 0
vn -1 0 0
vn -1 0 0
vn -1 0 0
vn 0 -1 0
vn 0 -1 0
vn 0 -1 0
vn 0 -1 0
vn 1 0 0
vn 1 0 0
vn 1 0 0
vn 1 0 0
vn 0 1 0
vn 0 1 0
vn 0 1 0
vn 0 1 0
vn 1 1.9999999999999999e-006 0
vn 1 1.9999999999999999e-006 0
vn 1 1.9999999999999999e-006 0
vn 1 1.9999999999999999e-006 0
vn -1 0 0
vn -1 0 0
vn -1 0 0
vn -1 0 0
vn 0 0 1
vn 0 0 1
vn 0 0 1
vn 0 0 1
vn 0 0 -1
vn 0 0 -1
vn 0 0 -1
vn 0 0 -1
vn 6.9999999999999999e-006 0 1
vn 6.9999999999999999e-006 0 1
vn 6.9999999999999999e-006 0 1
vn 6.9999999999999999e-006 0 1
vn 0 7.9999999999999996e-006 1
vn 0 7.9999999999999996e-006 1
vn 0 7.9999999999999996e-006 1
vn 0 7.9999999999999996e-006 1
vn 1.2999999999999999e-005 0 1
vn 1.2999999999999999e-005 0 1
vn 1.2999999999999999e-005 0 1
vn 1.2999999999999999e-005 0 1
vn 0 -7.9999999999999996e-006 1
vn 0 -7.9999999999999996e-006 1
vn 0 -7.9999999999999996e-006 1
vn 0 -7.9999999999999996e-006 1
vn -1 0 0
vn -1 0 0
vn -1 0 0
vn -1 0 0
vn 0 -1 0
vn 0 -1 0
vn 0 -1 0
vn 0 -1 0
vn 1 0 0
vn 1 0 0
vn 1 0 0
vn 1 0 0
vn 0 1 0
vn 0 1 0
vn 0 1 0
vn 0 1 0
vn 1 0 0
vn 1 0 0
vn 1 0 0
vn 1 0 0
vn -1 0 0
vn -1 0 0
vn -1 0 0
vn -1 0 0
vn 0 0 1
vn 0 0 1
vn 0 0 1
vn 0 0 1
vn 0 0 -1
vn 0 0 -1
vn 0 0 -1
vn 0 0 -1
vn 6.9999999999999999e-006 0 1
vn 6.9999999999999999e-006 0 1
vn 6.9999999999999999e-006 0 1
vn 6.9999999999999999e-006 0 1
vn 0 7.9999999999999996e-006 1
vn 0 7.9999999999999996e-006 1
vn 0 7.9999999999999996e-006 1
vn 0 7.9999999999999996e-006 1
vn 1.2999999999999999e-005 0 1
vn 1.2999999999999999e-005 0 1
vn 1.2999999999999999e-005 0 1
vn 1.2999999999999999e-005 0 1
vn 0 -7.9999999999999996e-006 1
vn 0 -7.9999999999999996e-006 1
vn 0 -7.9999999999999996e-006 1
vn 0 -7.9999999999999996e-006 1
vn -1 0 0
vn -1 0 0
vn -1 0 0
vn -1 0 0
vn 0 -1 0
vn 0 -1 0
vn 0 -1 0
vn 0 -1 0
vn 1 0 0
vn 1 0 0
vn 1 0 0
vn 1 0 0
vn 0 1 0
vn 0 1 0
vn 0 1 0
vn 0 1 0
vn 1 0 0
vn 1 0 0
vn 1 0 0
vn 1 0 0
vn -1 0 0
vn -1 0 0
vn -1 0 0
vn -1 0 0
vn 0 0 1
vn 0 0 1
vn 0 0 1
vn 0 0 1
vn 0 0 -1
vn 0 0 -1
vn 0 0 -1
vn 0 0 -1
vn 4.1e-005 0 1
vn 4.1e-005 0 1
vn 4.1e-005 0 1
vn 4.1e-005 0 1
vn 0 7.9999999999999996e-006 1
vn 0 7.9999999999999996e-006 1
vn 0 7.9999999999999996e-006 1
vn 0 7.9999999999999996e-006 1
vn -1.0000000000000001e-005 0 1
vn -1.0000000000000001e-005 0 1
vn -1.0000000000000001e-005 0 1
vn -1.0000000000000001e-005 0 1
vn 0 -7.9999999999999996e-006 1
vn 0 -7.9999999999999996e-006 1
vn 0 -7.9999999999999996e-006 1
vn 0 -7.9999999999999996e-006 1
vn -1 0 0
vn -1 0 0
vn -1 0 0
vn -1 0 0
vn 0 -1 0
vn 0 -1 0
vn 0 -1 0
vn 0 -1 0
vn 1 0 0
vn 1 0 0
vn 1 0 0
vn 1 0 0
vn 0 1 0
vn 0 1 0
vn 0 1 0
vn 0 1 0
vn 1 0 0
vn 1 0 0
vn 1 0 0
vn 1 0 0
vn -1 0 0
vn -1 0 0
vn -1 0 0
vn -1 0 0
vn 0 0 1
vn 0 0 1
vn 0 0 1
vn 0 0 1
vn 0 0 -1
vn 0 0 -1
vn 0 0 -1
vn 0 0 -1
vn 3.1000000000000001e-005 0 1
vn 3.1000000000000001e-005 0 1
vn 3.1000000000000001e-005 0 1
vn 3.1000000000000001e-005 0 1
vn 9.9999999999999995e-007 7.9999999999999996e-006 1
vn 9.9999999999999995e-007 7.9999999999999996e-006 1
vn 9.9999999999999995e-007 7.9999999999999996e-006 1
vn 9.9999999999999995e-007 7.9999999999999996e-006 1
vn -3.1000000000000001e-005 0 1
vn -3.1000000000000001e-005 0 1
vn -3.1000000000000001e-005 0 1
vn -3.1000000000000001e-005 0 1
vn 9.9999999999999995e-007 -7.9999999999999996e-006 1
vn 9.9999999999999995e-007 -7.9999999999999996e-006 1
vn 9.9999999999999995e-007 -7.9999999999999996e-006 1
vn 9.9999999999999995e-007 -7.9999999999999996e-006 1
vn -1 0 0
vn -1 0 0
vn -1 0 0
vn -1 0 0
vn 0 -1 0
vn 0 -1 0
vn 0 -1 0
vn 0 -1 0
vn 1 0 0
vn 1 0 0
vn 1 0 0
vn 1 0 0
vn 0 1 0
vn 0 1 0
vn 0 1 0
vn 0 1 0
vn 1 0 0
vn 1 0 0
vn 1 0 0
vn 1 0 0
vn 0 0 1
vn 0 0 1
vn 0 0 1
vn 0 0 1
vn 0 1 0
vn 0 1 0
vn 0 1 0
vn 0 1 0
vn 0 0 -1
vn 0 0 -1
vn 0 0 -1
vn 0 0 -1
vn 1 0 0
vn 1 0 0
vn 1 0 0
vn 1 0 0
vn -1 0 0
vn -1 0 0
vn -1 0 0
vn -1 0 0
vn 0 0 -1
vn 0 0 -1
vn 0 0 -1
vn 0 0 -1
vn 1 0 0
vn 1 0 0
vn 1 0 0
vn 1 0 0
vn 0 0 1
vn 0 0 1
vn 0 0 1
vn 0 0 1
vn -1 0 0
vn -1 0 0
vn 0 -1 0
vn 0 -1 0
vn 0 -1 0
vn 0 -1 0
vn 0 0 1
vn 0 0 1
vn 0 0 1
vn 0 0 1
vn 0 1 0
vn 0 1 0
vn 0 0 -1
vn 0 0 -1
vn 1 0 0
vn 1 0 0
vn 1 0 0
vn 1 0 0
vn 0 1 0
vn 0 1 0
vn -1 0 0
vn -1 0 0
vn -1 0 0
vn -1 0 0
vn 0 -1 0
vn 0 -1 0
#end 346 normals 

#begin 92 faces
usemtl initialShadingGroup
g FridgeShelf
s off
f 1/1/1 2/2/2 3/3/3 4/4/4 
f 9/9/5 10/10/6 11/11/7 12/12/8 
f 15/15/9 16/16/10 4/105/11 3/121/12 
f 16/124/13 13/13/14 1/106/15 4/120/16 
f 14/151/17 15/122/18 6/175/19 5/177/20 
f 15/122/21 3/113/22 7/179/23 6/175/24 
f 3/113/25 2/153/26 8/181/27 7/179/28 
f 2/153/29 14/151/30 5/177/31 8/181/32 
f 5/178/33 6/6/34 10/169/35 9/167/36 
f 6/176/37 7/7/38 11/173/39 10/170/40 
f 7/180/41 8/8/42 12/171/43 11/174/44 
f 8/182/45 5/5/46 9/168/47 12/172/48 
f 17/17/49 18/18/50 2/2/51 1/1/52 
f 23/23/53 24/24/54 25/25/55 26/26/56 
f 13/13/57 27/27/58 17/108/59 1/106/60 
f 28/28/61 14/155/62 20/20/63 19/19/64 
f 14/155/65 2/110/66 21/21/67 20/20/68 
f 2/110/69 18/157/70 22/22/71 21/21/72 
f 18/157/73 28/28/74 19/19/75 22/22/76 
f 19/193/77 20/191/78 24/185/79 23/183/80 
f 20/192/81 21/195/82 25/189/83 24/186/84 
f 21/196/85 22/197/86 26/187/87 25/190/88 
f 22/198/89 19/194/90 23/184/91 26/188/92 
f 27/128/93 13/140/94 14/139/95 28/136/96 
f 29/29/97 30/30/98 18/18/99 17/17/100 
f 35/35/101 36/36/102 37/37/103 38/38/104 
f 27/27/105 39/39/106 29/114/107 17/108/108 
f 40/40/109 28/158/110 32/32/111 31/31/112 
f 28/158/113 18/112/114 33/33/115 32/32/116 
f 18/112/117 30/161/118 34/34/119 33/33/120 
f 30/161/121 40/40/122 31/31/123 34/34/124 
f 31/209/125 32/207/126 36/201/127 35/199/128 
f 32/208/129 33/211/130 37/205/131 36/202/132 
f 33/212/133 34/213/134 38/203/135 37/206/136 
f 34/214/137 31/210/138 35/200/139 38/204/140 
f 39/132/141 27/128/142 28/136/143 40/141/144 
f 41/41/145 42/42/146 30/30/147 29/29/148 
f 47/47/149 48/48/150 49/49/151 50/50/152 
f 39/39/153 51/51/154 41/109/155 29/114/156 
f 52/52/157 40/156/158 44/44/159 43/43/160 
f 40/156/161 30/115/162 45/45/163 44/44/164 
f 30/115/165 42/160/166 46/46/167 45/45/168 
f 42/160/169 52/52/170 43/43/171 46/46/172 
f 43/225/173 44/223/174 48/217/175 47/215/176 
f 44/224/177 45/227/178 49/221/179 48/218/180 
f 45/228/181 46/229/182 50/219/183 49/222/184 
f 46/230/185 43/226/186 47/216/187 50/220/188 
f 51/129/189 39/132/190 40/141/191 52/137/192 
f 53/53/193 54/54/194 42/42/195 41/41/196 
f 59/59/197 60/60/198 61/61/199 62/62/200 
f 51/51/201 63/63/202 53/117/203 41/109/204 
f 64/64/205 52/159/206 56/56/207 55/55/208 
f 52/159/209 42/116/210 57/57/211 56/56/212 
f 42/116/213 54/154/214 58/58/215 57/57/216 
f 54/154/217 64/64/218 55/55/219 58/58/220 
f 55/241/221 56/239/222 60/233/223 59/231/224 
f 56/240/225 57/243/226 61/237/227 60/234/228 
f 57/244/229 58/245/230 62/235/231 61/238/232 
f 58/246/233 55/242/234 59/232/235 62/236/236 
f 63/133/237 51/129/238 52/137/239 64/142/240 
f 65/65/241 66/111/242 54/54/243 53/53/244 
f 71/71/245 72/72/246 73/73/247 74/74/248 
f 63/63/249 75/75/250 65/107/251 53/117/252 
f 76/138/253 64/162/254 68/68/255 67/67/256 
f 64/162/257 54/118/258 69/69/259 68/68/260 
f 54/118/261 66/66/262 70/70/263 69/69/264 
f 66/66/265 76/138/266 67/67/267 70/70/268 
f 67/257/269 68/255/270 72/249/271 71/247/272 
f 68/256/273 69/259/274 73/253/275 72/250/276 
f 69/260/277 70/261/278 74/251/279 73/254/280 
f 70/262/281 67/258/282 71/248/283 74/252/284 
f 75/130/285 63/133/286 64/142/287 76/76/288 
s 1
f 77/77/289 78/78/290 88/88/291 85/85/292 
s 2
f 79/79/293 80/80/294 82/126/295 81/81/296 
s 3
f 86/86/297 87/87/298 84/84/299 83/131/300 
s 4
f 78/97/301 84/102/302 87/101/303 88/99/304 
s 5
f 83/83/305 77/143/306 85/144/307 86/134/308 
s 3
f 81/119/309 82/82/310 92/92/311 89/89/312 
s 4
f 91/91/313 92/103/314 82/100/315 80/98/316 
s 1
f 90/90/317 91/104/318 80/125/319 79/149/320 
s 5
f 86/134/308 85/144/307 90/145/321 89/135/322 
s 1
f 85/85/292 88/88/291 91/104/318 90/90/317 
s 4
f 88/99/304 87/101/303 92/103/314 91/91/313 
s 3
f 89/89/312 92/92/311 87/87/298 86/86/297 
s 6
f 89/146/323 90/147/324 14/14/325 13/127/326 
s off
f 93/93/327 94/94/328 95/95/329 96/96/330 
s 2
f 79/79/293 81/81/296 16/16/331 15/15/332 
s 3
f 81/119/309 89/89/312 13/13/333 16/124/334 
s off
f 90/150/335 79/123/336 94/164/337 93/163/338 
s 2
f 79/123/293 15/152/332 95/166/339 94/164/340 
s off
f 15/152/341 14/148/342 96/165/343 95/166/344 
s 6
f 14/148/325 90/150/324 93/163/345 96/165/346 
#end 92 faces
#begin 1 properties
#U3D SYM 0 0 0 1 0 0 0.0001 1
#end 1 properties
