#File written by LIBUNFOLD3D. Compilation :Dec 22 2011,11:53:02
mtllib item3.mtl
#begin vertices
v -2.0043660000000001 18.674091000000001 102.085566
v 1.841412 18.674091000000001 101.96022499999999
v -2.0043660000000001 19.366174999999998 102.085566
v 1.841412 19.419384000000001 101.96022499999999
v -2.0043660000000001 19.435782 100.049144
v 1.841412 19.419384000000001 100.174485
v -2.0043660000000001 18.674091000000001 100.049144
v 1.841412 18.674091000000001 100.174485
v -0.69731900000000002 18.674091000000001 102.434203
v -0.69731900000000002 19.544594 102.434203
v -0.69731900000000002 19.523820000000001 99.700507999999999
v -0.69731900000000002 18.674091000000001 99.700507999999999
v 1.017244 18.674091000000001 102.434203
v 1.017244 19.594705999999999 102.434203
v 1.017244 19.854291 99.700507999999999
v 1.017244 18.674091000000001 99.700507999999999
v -2.0043660000000001 19.671665000000001 100.415549
v -2.0043669999999998 18.674091000000001 100.415549
v -0.69731900000000002 18.674091000000001 100.19237
v 1.017244 18.674091000000001 100.19237
v 1.841412 18.674091000000001 100.495786
v 1.841412 19.419384000000001 100.495786
v 0.87079300000000004 19.711684000000002 100.31914
v -0.56320999999999999 19.73903 100.31619999999999
v -2.0043660000000001 19.671665000000001 101.521142
v -2.0043660000000001 18.674091000000001 101.521142
v -0.69731900000000002 18.674091000000001 101.676519
v 1.017244 18.674091000000001 101.676519
v 1.841412 18.674091000000001 101.465281
v 1.841412 19.419384000000001 101.465281
v 0.87079300000000004 19.711684000000002 101.54975
v -0.55086800000000002 19.73903 101.54975
v 0.87079300000000004 22.390357000000002 100.31914
v -0.55086800000000002 22.417701999999998 100.31914
v -0.55086800000000002 22.417701999999998 101.54975
v 0.87079300000000004 22.390357000000002 101.54975
v -2.0043669999999998 18.674091000000001 101.316363
v -2.0043660000000001 19.671665000000001 101.316363
v -0.62426899999999996 19.739291000000001 101.36181500000001
v -0.62426899999999996 22.433021 101.36181500000001
v 0.94419500000000001 22.402850999999998 101.36181500000001
v 0.94419500000000001 19.709122000000001 101.36181500000001
v 1.841412 19.419384000000001 101.28571100000001
v 1.841412 18.674091000000001 101.28570999999999
v 1.017244 18.674091000000001 101.401624
v -0.69731900000000002 18.674091000000001 101.401624
v -2.0043669999999998 18.674091000000001 100.685794
v -2.0043660000000001 19.671665000000001 100.685794
v -0.62426899999999996 19.739291000000001 100.587467
v -0.62426899999999996 22.433021 100.587467
v 0.94419500000000001 22.402851999999999 100.587467
v 0.94419500000000001 19.709122000000001 100.587467
v 1.841412 19.419384000000001 100.732764
v 1.841412 18.674091000000001 100.732764
v 1.017244 18.674091000000001 100.55514599999999
v -0.69731900000000002 18.674091000000001 100.55514599999999
v 0.67433100000000001 18.674091000000001 102.434203
v 0.67433100000000001 19.857844 102.434203
v 0.63050200000000001 19.715156 101.613287
v 0.63050200000000001 22.408885999999999 101.613287
v 0.63050200000000001 22.678405000000001 101.36181500000001
v 0.63050200000000001 22.678405000000001 100.587467
v 0.63050200000000001 22.408885999999999 100.25560299999999
v 0.63050200000000001 19.715156 100.25560299999999
v 0.67433100000000001 19.558143999999999 99.700507999999999
v 0.67433100000000001 18.674091000000001 99.700507999999999
v 0.67433100000000001 18.674091000000001 100.19237
v 0.67433100000000001 18.674091000000001 100.55514599999999
v 0.67433100000000001 18.674091000000001 101.401624
v 0.67433100000000001 18.674091000000001 101.676519
v -0.422989 18.674091000000001 102.434203
v -0.422989 19.588545 102.434203
v -0.37331500000000001 19.734463999999999 101.613287
v -0.37331500000000001 22.428194000000001 101.613287
v -0.37331500000000001 22.697713 101.36181500000001
v -0.37331500000000001 22.697713 100.587467
v -0.37331500000000001 22.428194000000001 100.25560299999999
v -0.37331500000000001 19.734463999999999 100.25560299999999
v -0.422989 19.560970000000001 99.700507999999999
v -0.422989 18.674091000000001 99.700507999999999
v -0.422989 18.674091000000001 100.19237
v -0.422989 18.674091000000001 100.55514599999999
v -0.422989 18.674091000000001 101.401624
v -0.422989 18.674091000000001 101.676519
v 0.12859300000000001 19.724810000000002 101.72984599999999
v 0.125671 19.863529 102.434203
v 0.125671 18.674091000000001 102.434203
v 0.125671 18.674091000000001 101.676519
v 0.125671 18.674091000000001 101.401624
v 0.125671 18.674091000000001 100.55514599999999
v 0.125671 18.674091000000001 100.19237
v 0.125671 18.674091000000001 99.700507999999999
v 0.125671 19.513045000000002 99.700507999999999
v 0.12859300000000001 19.724810000000002 100.139044
v 0.12859300000000001 22.41854 100.139044
v 0.12859300000000001 22.688058999999999 100.504698
v 0.12859300000000001 22.688058999999999 101.36181500000001
v 0.12859300000000001 22.41854 101.72984599999999
#end vertices

#begin 161 textures vertices 
vt 0.63450950869184708 0.6778933081172227 0
vt 0.19658264526575689 0.69057272709563944 0
vt 0.61132317318746188 0.60598721634192942 0
vt 0.2220889108292225 0.61149461370452507 0
vt 0.59063798701084391 0.37242667157680776 0
vt 0.20921337907963206 0.41546785033042805 0
vt 0.58538439323847125 0.28104923551090261 0
vt 0.19728175178052093 0.31436302650629983 0
vt 0.58442152716281748 0.049330483617148903 0
vt 0.15374375813156296 0.10425775298029334 0
vt 0.012000000000000455 0.62886024613398106 0
vt 0.037349666261851627 0.5517469199865318 0
vt 0.84527855934605156 0.60822940426181316 0
vt 0.8193113260717152 0.52948013712531417 0
vt 0.49215334671186578 0.72617015048660538 0
vt 0.43587356096238972 0.012000000000000455 0
vt 0.47101045820795745 0.63397563328873274 0
vt 0.44913321632337683 0.38617064828658532 0
vt 0.44932113294835341 0.29939324812704166 0
vt 0.2943936112509532 0.72922740354781357 0
vt 0.23702638056398664 0.03374712682359883 0
vt 0.31553850513287224 0.63513801324654906 0
vt 0.30743941869021441 0.41411725191369092 0
vt 0.28869482439803795 0.31565259186525246 0
vt 0.77339435474305729 0.51758603733157216 0
vt 0.59370708393163429 0.42098978243599938 0
vt 0.8073985175211329 0.62072670133608088 0
vt 0.58784019731446047 0.23759612933310692 0
vt 0.4494287199507756 0.24955616294497898 0
vt 0.27550723690921086 0.27164920563052691 0
vt 0.18483649864823956 0.27428515208290183 0
vt 0.045224653756553629 0.63979526736119829 0
vt 0.21217159974411007 0.45355393131476474 0
vt 0.070575611436264452 0.56266573832324684 0
vt 0.33003386867619355 0.46504684666502499 0
vt 0.43464850368366542 0.45501962998779993 0
vt 0.65914538646528509 0.55525169600371704 0
vt 0.6028826097084774 0.53597062312788901 0
vt 0.6930607346208747 0.65846929152621358 0
vt 0.58592470114917072 0.11186018984492875 0
vt 0.44066756679741026 0.093497616249197571 0
vt 0.24792508721539649 0.11620713880045697 0
vt 0.16289299944437197 0.15977120597751712 0
vt 0.14545725193647344 0.67303672264325998 0
vt 0.21997821561650518 0.55591511186370213 0
vt 0.17085133224964827 0.59536615160021344 0
vt 0.33326899530239856 0.54008110101762075 0
vt 0.44132752124095842 0.53803521244352093 0
vt 0.1657337026673861 0.97915471343060245 0
vt 0.39301019204344689 0.76510781547036222 0
vt 0.82769060303009201 0.98645193739553594 0
vt 0.037425406208791728 0.97915376416924338 0
vt 0.71424900915553902 0.65146945991727545 0
vt 0.58653937955709368 0.13481636609453052 0
vt 0.68029617008290688 0.54828433915026131 0
vt 0.60099081784996211 0.51429504775769774 0
vt 0.44416347456311123 0.52419863955510537 0
vt 0.80705004591900176 0.98800000000000043 0
vt 0.05806455745048425 0.98043199309027662 0
vt 0.058066596088981855 0.70487644675559169 0
vt 0.219031155785301 0.53657837684967347 0
vt 0.15227233426175396 0.58938358831193738 0
vt 0.16640906964256288 0.18042398893886619 0
vt 0.12689796757673943 0.66680548910934212 0
vt 0.2520624412888437 0.1458885831905174 0
vt 0.44254475764846241 0.12276778079240853 0
vt 0.77945761023499793 0.6299460671905851 0
vt 0.58852988702771392 0.20603813547820723 0
vt 0.74546078871756183 0.52679904416195833 0
vt 0.59665989209151349 0.44981776735170548 0
vt 0.43885147205702379 0.47187458440985142 0
vt 0.42083288408862685 0.75195903396553954 0
vt 0.13727664084533736 0.9804326814190536 0
vt 0.32769200038137075 0.4809012025352184 0
vt 0.2136785655101052 0.48015903300537827 0
vt 0.095082795489456862 0.57070475435766044 0
vt 0.17745093666821188 0.2453000028314109 0
vt 0.069728615119850235 0.6478747171646807 0
vt 0.26706989075196236 0.23536988209200707 0
vt 0.44819610170131907 0.21196683785207812 0
vt 0.33413183780053413 0.73842188592756708 0
vt 0.27609769641520193 0.027260011207784238 0
vt 0.34990835935933129 0.62270548776439316 0
vt 0.35178625128370511 0.54009167834824301 0
vt 0.012000000000000455 0.98104900382253624 0
vt 0.2416460211166836 0.86147187292347827 0
vt 0.32078929082756585 0.86477293573520764 0
vt 0.36218998494161281 0.85068080691655212 0
vt 0.57383250742298164 0.71025722381221934 0
vt 0.33608291214838232 0.40010995705461866 0
vt 0.32123682099304446 0.31104751588631385 0
vt 0.31044362310026696 0.26243241316814142 0
vt 0.3031561153123612 0.22641021682684595 0
vt 0.289659415384179 0.13806796677242131 0
vt 0.28591254892826878 0.10897857607054537 0
vt 0.46081066913360413 0.73289954529399559 0
vt 0.40397316310250042 0.013707721988635485 0
vt 0.44536285060228614 0.63331460482763058 0
vt 0.42754544393690014 0.53920206737145593 0
vt 0.84698032775267063 0.98754297396320634 0
vt 0.50277149587774872 0.77866662650071394 0
vt 0.42835806061766846 0.78716024822159325 0
vt 0.38611912185281311 0.78468261036506326 0
vt 0.42056442774742409 0.45507553059699191 0
vt 0.42564543719198544 0.39301884588418423 0
vt 0.42307771466950894 0.30065725652652669 0
vt 0.42109863613381671 0.24998249967341926 0
vt 0.41886857093697549 0.21256981840029054 0
vt 0.41188592162003013 0.12412277046015997 0
vt 0.40959978595756663 0.094945259101515994 0
vt 0.39113721378991723 0.54402199298484533 0
vt 0.39434773317606964 0.62099768187146931 0
vt 0.39841455891126043 0.74418649006571347 0
vt 0.33982046699213103 0.018936332202623349 0
vt 0.34757734637705195 0.1002598663250516 0
vt 0.35063727895350272 0.12925503795118826 0
vt 0.36085487649077042 0.21724263842114416 0
vt 0.36556234363598006 0.25439851437397343 0
vt 0.37194891471554459 0.30541095234967142 0
vt 0.38056350481018608 0.39567562726408878 0
vt 0.62654446730793056 0.71108434146707422 0
vt 0.37738757475760354 0.83889411095662936 0
vt 0.42354148055772889 0.83755251159352462 0
vt 0.51198557036631764 0.82865152820511545 0
vt 0.89969031289571355 0.98660393163323556 0
vt 0.16573572991136543 0.70513932362451348 0
vt 0.84723395783218902 0.71198744205035425 0
vt 0.8279428153128241 0.71243676594922822 0
vt 0.67925632754982046 0.71191145942522249 0
vt 0.69964808654884203 0.7123156061484287 0
vt 0.13727867948459066 0.70487703278917002 0
vt 0.037427433452772323 0.70513837436315285 0
vt 0.89994394297523184 0.71104839972038369 0
vt 0.72809162615475254 0.71237155879601199 0
vt 0.80730367599852049 0.71244446808714879 0
vt 0.3843179038709133 0.45352621108473096 0
vt 0.32856680614156264 0.52898679937811277 0
vt 0.012002038639254899 0.70549335519265122 0
vt 0.34880217798925561 0.46297543274894848 0
vt 0.95265402776175279 0.710109357482128 0
vt 0.51819297906262651 0.87909451555324969 0
vt 0.55652585223688045 0.87343861978795723 0
vt 0.43598098465844809 0.88810962671804106 0
vt 0.57467124042490303 0.9858115959839272 0
vt 0.19116111946960115 0.70549468066261312 0
vt 0.68009506055174351 0.98746583159693113 0
vt 0.69938242512589566 0.98633383846593459 0
vt 0.50293514570176812 0.74165583284600944 0
vt 0.6273832003098524 0.98663871363878208 0
vt 0.72783799607523247 0.98792709070886331 0
vt 0.53710156333130465 0.76730361151300475 0
vt 0.52508878081698585 0.74901763139067956 0
vt 0.24342597106006633 0.81879741730771527 0
vt 0.35042370823626567 0.82806227586967207 0
vt 0.32256923795757203 0.82209854757130174 0
vt 0.22312909224858832 0.8227528115566114 0
vt 0.20844493266537845 0.84359552422939643 0
vt 0.19115908083034786 0.98105032929249647 0
vt 0.95240039768223483 0.98566488939497998 0
vt 0.55756508515366743 0.81917629255206015 0
vt 0.39085633120984165 0.89160383266657928 0
#end 161 textures vertices 

#begin 186 normals 
vn -0.25772499999999998 0 0.96621800000000002
vn -0.210339 0 0.97762899999999997
vn -0.196377 0 0.98052799999999996
vn -0.25772499999999998 0 0.96621800000000002
vn -0.12648499999999999 0.94159000000000004 0.31210500000000002
vn -0.12435499999999999 0.94778700000000005 0.29365999999999998
vn -0.11286499999999999 0.96165599999999996 0.24995899999999999
vn -0.111397 0.96112799999999998 0.25263200000000002
vn -0.25772499999999998 0 -0.96621800000000002
vn -0.20375699999999999 0 -0.97902199999999995
vn -0.212561 0 -0.97714800000000002
vn -0.25772499999999998 0 -0.96621800000000002
vn 0 -1 0
vn 0 -1 0
vn 0 -1 0
vn 0 -1 0
vn 1 0 -0
vn 1 0 -0
vn 1 0 -0
vn 1 0 -0
vn -1 0 0
vn -1 0 0
vn -1 0 0
vn -1 0 0
vn -0 0 1
vn -0 0 1
vn -0.19539300000000001 0.978464 0.066554000000000002
vn -0.191332 0.97886099999999998 0.072265999999999997
vn -0 0 -1
vn -0 0 -1
vn 0 -1 0
vn 0 -1 0
vn 0.27027099999999998 0 0.96278399999999997
vn 0.35273900000000002 0 0.93572200000000005
vn 0.49853500000000001 0 0.866869
vn 0.49853500000000001 0 0.866869
vn 0.27510600000000002 0.95993499999999998 0.053298999999999999
vn 0.30851400000000001 0.95088799999999996 0.025132000000000002
vn 0.31310700000000002 0.94954799999999995 0.017965999999999999
vn 0.26724500000000001 0.96215799999999996 0.053221999999999998
vn 0.36954900000000002 0 -0.92921100000000001
vn 0.40948299999999999 0 -0.91231799999999996
vn 0.49853500000000001 0 -0.866869
vn 0.49853500000000001 0 -0.866869
vn 0 -1 0
vn 0 -1 0
vn 0 -1 0
vn 0 -1 0
vn -1 0 -0
vn -1 0 -0
vn -1 0 -0
vn -1 0 -0
vn 0 -1 -0
vn 0 -1 -0
vn 0 -1 -0
vn 0 -1 -0
vn 0 -1 -0
vn 0 -1 -0
vn 0 -1 0
vn 0 -1 0
vn 0 -1 0
vn 0 -1 0
vn 1 0 0
vn 1 0 0
vn 1 0 0
vn 1 0 0
vn 0.079891000000000004 0.99045700000000003 0.112303
vn 0.16441 0.98202199999999995 0.092749999999999999
vn 0.30872100000000002 0.94580200000000003 0.10075099999999999
vn 0.308921 0.93201100000000003 0.18953700000000001
vn -0.115282 0.91483300000000001 -0.38702799999999998
vn -0.098205000000000001 0.95339700000000005 -0.28528999999999999
vn -0.036802000000000001 0.94089699999999998 -0.33668799999999999
vn -0.031662000000000003 0.94008599999999998 -0.33946399999999999
vn -0.095016000000000003 0.95803700000000003 -0.27043800000000001
vn -0.11679 0.90846000000000005 -0.40132200000000001
vn -1 0 0
vn -1 0 0
vn 0 -1 0
vn 0 -1 0
vn 0 -1 0
vn 0 -1 0
vn 0 -1 0
vn 1 0 0
vn 1 0 0
vn 0.30601400000000001 0.95193000000000005 -0.013624000000000001
vn 0.306423 0.95184899999999995 -0.0093650000000000001
vn -0.27078999999999998 0.94952499999999995 -0.15835099999999999
vn -0.21055299999999999 0.79105800000000004 -0.57436399999999999
vn -0.53442599999999996 0.73640700000000003 -0.41484199999999999
vn -0.69487299999999996 0.71255299999999999 -0.097056000000000003
vn -0.048751000000000003 0.99880999999999998 -0.001539
vn -0.048702000000000002 0.998811 -0.0019300000000000001
vn -0.25126500000000002 0.00033199999999999999 -0.96791799999999995
vn -0.25118299999999999 0.00033100000000000002 -0.96793899999999999
vn -0.32007600000000003 0.0012539999999999999 -0.94739099999999998
vn -0.32007600000000003 0.0012539999999999999 -0.94739099999999998
vn -0.97030799999999995 0.0023609999999999998 -0.24185899999999999
vn -0.99793799999999999 0.00062699999999999995 -0.064183000000000004
vn -0.99810500000000002 0.00060099999999999997 -0.061532999999999997
vn -0.97030799999999995 0.0023609999999999998 -0.24185899999999999
vn -0.336926 0 0.94153100000000001
vn -0.25509199999999999 0 0.96691700000000003
vn -0.25521700000000003 0 0.96688399999999997
vn -0.336926 0 0.94153100000000001
vn 0.99770199999999998 0 -0.067757999999999999
vn 0.99757499999999999 0 -0.069606000000000001
vn 0.96456200000000003 0 -0.26385799999999998
vn 0.96456200000000003 0 -0.26385799999999998
vn -1 0 0
vn -1 0 0
vn -0.048649999999999999 0.99881299999999995 0.002539
vn -0.048705999999999999 0.998811 0.0020530000000000001
vn -0.99745899999999998 0 0.071246000000000004
vn -0.99711000000000005 0 0.075966000000000006
vn -0.93147500000000005 0 0.36380499999999999
vn -0.93147500000000005 0 0.36380499999999999
vn -0.16194700000000001 0.75142900000000001 0.63963099999999995
vn -0.27388899999999999 0.94459300000000002 0.18091299999999999
vn -0.70307900000000001 0.70375500000000002 0.102024
vn -0.51353700000000002 0.67832899999999996 0.52549999999999997
vn 0.93147500000000005 0 0.36380499999999999
vn 0.99717500000000003 0 0.075117000000000003
vn 0.99739699999999998 0 0.072106000000000003
vn 0.93147500000000005 0 0.36380499999999999
vn 0.30615300000000001 0.95192100000000002 0.010834
vn 0.30575999999999998 0.95199900000000004 0.014467000000000001
vn 1 0 0
vn 1 0 0
vn 0 -1 0
vn 0 -1 0
vn 0 -1 0
vn 0 -1 -0
vn 0 -1 -0
vn 0 0 1
vn 0 0 1
vn 0.19780400000000001 0.97210300000000005 -0.126056
vn 0.15557799999999999 0.97811099999999995 -0.138182
vn 0.235098 0 0.97197199999999995
vn 0.23603399999999999 0 0.97174499999999997
vn 0.25563200000000003 0 0.96677400000000002
vn 0.25563200000000003 0 0.96677400000000002
vn 0.63449900000000004 0.76540799999999998 0.107527
vn 0.289132 0.94049400000000005 0.178534
vn 0.18735299999999999 0.75302500000000006 0.63075499999999995
vn 0.44308900000000001 0.71898899999999999 0.53546899999999997
vn 0.62540700000000005 0.773505 -0.102744
vn 0.28712100000000002 0.944963 -0.156864
vn 0.46226699999999998 0.77946400000000005 -0.42278300000000002
vn 0.23382800000000001 0.79424300000000003 -0.560805
vn 0.25563200000000003 0 -0.96677400000000002
vn 0.23603399999999999 0 -0.97174499999999997
vn 0.235098 0 -0.97197199999999995
vn 0.25563200000000003 0 -0.96677400000000002
vn -0.15870300000000001 0.95232000000000006 -0.260575
vn -0.20988999999999999 0.95001100000000005 -0.23113900000000001
vn 0 0 -1
vn 0 0 -1
vn 0 -1 -0
vn 0 -1 -0
vn 0 -1 0
vn 0 -1 -0
vn 0 -1 0
vn 0 -1 0
vn -0 0 1
vn -0 0 1
vn -0.12653700000000001 0.98753599999999997 -0.093598000000000001
vn -0.11984300000000001 0.98788799999999999 -0.098567000000000002
vn -0.0049680000000000002 0 0.99998799999999999
vn 0.0049680000000000002 0 0.99998799999999999
vn 0.018255 0.97234200000000004 0.232846
vn 0.015903 0.75430399999999997 0.65633200000000003
vn 0.017805000000000001 0.96610799999999997 -0.257523
vn 0.017443 0.79113800000000001 -0.61138899999999996
vn 0.0049680000000000002 0 -0.99998799999999999
vn -0.0049680000000000002 0 -0.99998799999999999
vn 0.0089440000000000006 0.93486800000000003 -0.35488399999999998
vn 0.0089589999999999999 0.93484599999999995 -0.354939
vn 0 0 -1
vn 0 0 -1
vn 0 -1 -0
vn 0 -1 -0
vn 0 -1 -0
vn 0 -1 -0
vn 0 -1 0
vn 0 -1 0
#end 186 normals 

#begin 96 faces
usemtl initialShadingGroup
g pCube76
s 1
f 1/1/1 9/15/2 10/17/3 3/3/4 
s 2
f 3/3/5 10/17/6 32/48/7 25/38/8 
s 3
f 5/5/9 11/18/10 12/19/11 7/7/12 
s 4
f 26/40/13 27/41/14 9/16/15 1/9/16 
s 5
f 2/2/17 29/44/18 30/46/19 4/4/20 
s 6
f 25/37/21 26/39/22 1/1/23 3/3/24 
s 1
f 10/17/3 9/15/2 71/96/25 72/98/26 
s 2
f 72/98/27 73/99/28 32/48/7 10/17/6 
s 3
f 12/19/11 11/18/10 79/105/29 80/106/30 
s 4
f 9/16/15 27/41/14 84/110/31 71/97/32 
s 1
f 14/22/33 13/20/34 2/2/35 4/4/36 
s 2
f 30/45/37 31/47/38 14/22/39 4/4/40 
s 3
f 16/24/41 15/23/42 6/6/43 8/8/44 
s 4
f 13/21/45 28/42/46 29/43/47 2/10/48 
s 6
f 7/13/49 18/27/50 17/25/51 5/14/52 
s 4
f 7/7/53 12/19/54 19/29/55 18/28/56 
f 80/106/57 81/107/58 19/29/55 12/19/54 
f 21/31/59 20/30/60 16/24/61 8/8/62 
s 5
f 22/34/63 21/32/64 8/11/65 6/12/66 
s 2
f 15/23/67 23/35/68 22/33/69 6/6/70 
f 11/18/71 24/36/72 78/104/73 79/105/74 
f 17/26/75 24/36/72 11/18/71 5/5/76 
s 6
f 17/25/51 18/27/50 47/67/77 48/69/78 
s 4
f 18/28/56 19/29/55 56/80/79 47/68/80 
f 81/107/58 82/108/81 56/80/79 19/29/55 
f 54/77/82 55/79/83 20/30/60 21/31/59 
s 5
f 53/76/84 54/78/85 21/32/64 22/34/63 
s 2
f 22/33/69 23/35/68 52/74/86 53/75/87 
s 17
f 76/102/88 77/103/89 34/50/90 50/72/91 
s 2
f 48/70/92 49/71/93 24/36/72 17/26/75 
s 18
f 77/146/94 78/129/95 24/130/96 34/147/97 
s 19
f 24/130/98 49/134/99 50/150/100 34/147/101 
s 20
f 32/128/102 73/127/103 74/100/104 35/51/105 
s 21
f 51/73/106 52/131/107 23/126/108 33/49/109 
s 6
f 38/55/110 37/53/111 26/39/22 25/37/21 
s 2
f 25/38/8 32/48/7 39/57/112 38/56/113 
s 19
f 40/58/114 39/135/115 32/128/116 35/51/117 
s 17
f 74/151/118 75/101/119 40/148/120 35/152/121 
s 21
f 31/132/122 42/60/123 41/59/124 36/52/125 
s 2
f 43/61/126 42/137/127 31/47/38 30/45/37 
s 5
f 30/46/19 29/44/18 44/64/128 43/62/129 
s 4
f 29/43/47 28/42/46 45/65/130 44/63/131 
f 83/109/132 84/110/31 27/41/14 46/66/133 
f 37/54/134 46/66/133 27/41/14 26/40/13 
s 6
f 48/69/78 47/67/77 37/53/111 38/55/110 
s 2
f 38/56/113 39/57/112 49/71/93 48/70/92 
s 19
f 50/150/100 49/134/99 39/135/115 40/58/114 
s 17
f 75/101/119 76/102/88 50/72/91 40/148/120 
s 21
f 41/59/124 42/60/123 52/131/107 51/73/106 
s 2
f 53/75/87 52/74/86 42/137/127 43/61/126 
s 5
f 43/62/129 44/64/128 54/78/85 53/76/84 
s 4
f 44/63/131 45/65/130 55/79/83 54/77/82 
f 82/108/81 83/109/132 46/66/133 56/80/79 
f 47/68/80 56/80/79 46/66/133 37/54/134 
s 1
f 58/83/135 57/81/136 13/20/34 14/22/33 
s 2
f 31/47/38 59/84/137 58/83/138 14/22/39 
s 20
f 60/85/139 59/138/140 31/132/141 36/52/142 
s 17
f 41/153/143 61/86/144 60/157/145 36/156/146 
f 51/155/147 62/87/148 61/86/144 41/153/143 
f 33/154/149 63/88/150 62/87/148 51/155/147 
s 18
f 23/126/151 64/145/152 63/158/153 33/49/154 
s 2
f 65/90/155 64/139/156 23/35/68 15/23/67 
s 3
f 66/91/157 65/90/158 15/23/42 16/24/41 
s 4
f 20/30/60 67/92/159 66/91/160 16/24/61 
f 55/79/83 68/93/161 67/92/159 20/30/60 
f 45/65/130 69/94/162 68/93/161 55/79/83 
f 28/42/46 70/95/163 69/94/162 45/65/130 
f 57/82/164 70/95/163 28/42/46 13/21/45 
s 1
f 86/112/165 87/113/166 57/81/136 58/83/135 
s 2
f 58/83/138 59/84/137 85/111/167 86/112/168 
s 20
f 98/125/169 85/133/170 59/140/140 60/159/139 
s 17
f 60/142/145 61/141/144 97/124/171 98/160/172 
f 61/141/144 62/143/148 96/123/173 97/124/171 
f 62/143/148 63/161/150 95/122/174 96/123/173 
s 18
f 63/144/153 64/89/152 94/121/175 95/149/176 
s 2
f 93/120/177 94/136/178 64/139/156 65/90/155 
s 3
f 92/119/179 93/120/180 65/90/158 66/91/157 
s 4
f 66/91/160 67/92/159 91/118/181 92/119/182 
f 67/92/159 68/93/161 90/117/183 91/118/181 
f 68/93/161 69/94/162 89/116/184 90/117/183 
f 69/94/162 70/95/163 88/115/185 89/116/184 
f 87/114/186 88/115/185 70/95/163 57/82/164 
s 2
f 86/112/168 85/111/167 73/99/28 72/98/27 
s 1
f 72/98/26 71/96/25 87/113/166 86/112/165 
s 4
f 71/97/32 84/110/31 88/115/185 87/114/186 
f 89/116/184 88/115/185 84/110/31 83/109/132 
f 90/117/183 89/116/184 83/109/132 82/108/81 
f 91/118/181 90/117/183 82/108/81 81/107/58 
f 92/119/182 91/118/181 81/107/58 80/106/57 
s 3
f 80/106/30 79/105/29 93/120/180 92/119/179 
s 2
f 79/105/74 78/104/73 94/136/178 93/120/177 
s 18
f 95/149/176 94/121/175 78/129/95 77/146/94 
s 17
f 96/123/173 95/122/174 77/103/89 76/102/88 
f 97/124/171 96/123/173 76/102/88 75/101/119 
f 98/160/172 97/124/171 75/101/119 74/151/118 
s 20
f 74/100/104 73/127/103 85/133/170 98/125/169 
#end 96 faces
#begin 1 properties
#U3D SYM 0 0 0 1 0 0 0.0001 0
#end 1 properties
