#File written by LIBUNFOLD3D. Compilation :Dec 22 2011,11:53:02
mtllib item4.mtl
#begin vertices
v -7.8325509999999996 18.242007999999998 103.14971799999999
v -4.7012590000000003 18.242007999999998 103.14971799999999
v -7.8325509999999996 21.3733 103.14971799999999
v -4.7012590000000003 21.3733 103.14971799999999
v -7.8325509999999996 21.3733 100.018427
v -4.7012590000000003 21.3733 100.018427
v -7.8325509999999996 18.242007999999998 100.018427
v -4.7012590000000003 18.242007999999998 100.018427
#end vertices

#begin 14 textures vertices 
vt 0.46846583640222245 0.95646584143755176 0
vt 0.24023288175721566 0.92493167280444666 0
vt 0.50000000503532749 0.72823288679254417 0
vt 0.27176705039032029 0.69669871815943929 0
vt 0.53153416359777483 0.50000000503532771 0
vt 0.30330120895276758 0.46846583640222283 0
vt 0.56306833223087949 0.27176705039032023 0
vt 0.33483537758587234 0.24023288175721555 0
vt 0.59460249079332672 0.043534168633104359 0
vt 0.36636953614831957 0.011999999999999567 0
vt 0.011999999999999567 0.89339751424199965 0
vt 0.043534168633103963 0.66516455959699228 0
vt 0.6966987181594384 0.98799999999999955 0
vt 0.72823288679254383 0.7597670453549924 0
#end 14 textures vertices 

#begin 24 normals 
vn 0 0 1
vn 0 0 1
vn 0 0 1
vn 0 0 1
vn 0 1 0
vn 0 1 0
vn 0 1 0
vn 0 1 0
vn 0 0 -1
vn 0 0 -1
vn 0 0 -1
vn 0 0 -1
vn 0 -1 0
vn 0 -1 0
vn 0 -1 0
vn 0 -1 0
vn 1 0 0
vn 1 0 0
vn 1 0 0
vn 1 0 0
vn -1 0 0
vn -1 0 0
vn -1 0 0
vn -1 0 0
#end 24 normals 

#begin 6 faces
usemtl initialShadingGroup
g pasted__pCube81 group15
s off
f 1/1/1 2/2/2 4/4/3 3/3/4 
f 3/3/5 4/4/6 6/6/7 5/5/8 
f 5/5/9 6/6/10 8/8/11 7/7/12 
f 7/7/13 8/8/14 2/10/15 1/9/16 
f 2/2/17 8/11/18 6/12/19 4/4/20 
f 7/13/21 1/1/22 3/3/23 5/14/24 
#end 6 faces
#begin 1 properties
#U3D SYM 0 0 0 1 0 0 0.0001 0
#end 1 properties
