#File written by LIBUNFOLD3D. Compilation :Dec 22 2011,11:53:02
mtllib item1.mtl
#begin vertices
v 12.765294000000001 18.372275999999999 99.432817
v 10.864557 18.372275999999999 99.432817
v 9.9141879999999993 18.372275999999999 101.078903
v 10.864557 18.372275999999999 102.72498899999999
v 12.765293 18.372275999999999 102.72498899999999
v 13.715662 18.372275999999999 101.078903
v 12.970616 20.495304999999998 99.077189000000004
v 10.659235000000001 20.495304999999998 99.077188000000007
v 9.5035439999999998 20.495304999999998 101.078903
v 10.659234 20.495304999999998 103.080618
v 12.970616 20.495304999999998 103.080618
v 14.126306 20.495304999999998 101.078903
v 11.814925000000001 18.372275999999999 101.078903
v 11.814925000000001 21.554275000000001 101.078903
#end vertices

#begin 28 textures vertices 
vt 0.22312891841660562 0.63534683530567493 0
vt 0.37041875878013858 0.66665424605249068 0
vt 0.47117672204545785 0.55475125709578332 0
vt 0.42464476745633412 0.41154084092106452 0
vt 0.27735500458371171 0.38023344664544423 0
vt 0.17659704131839229 0.49213643560215165 0
vt 0.95165458141148618 0.20109147421595033 0
vt 0.8021336573216552 0.1832604814979967 0
vt 0.65193799947069975 0.19401736122861729 0
vt 0.50648417822368574 0.23297415759923823 0
vt 0.37101785150566013 0.29872597513250138 0
vt 0.25042432008742682 0.38890161640496423 0
vt 0.14905266103854162 0.50024891503049285 0
vt 0.98800000000000043 0.033683295732915335 0
vt 0.80617588645989213 0.012000000000000455 0
vt 0.62353120288633146 0.025080857802334718 0
vt 0.44665283898781438 0.072454048074482011 0
vt 0.28191958345829071 0.15241126860046217 0
vt 0.13527246131280779 0.2620689009769871 0
vt 0.012000000000000455 0.39747218722873445 0
vt 0.46263775235043791 0.50956593317596588 0
vt 0.63433549847779824 0.60150674763164103 0
vt 0.79980736138024022 0.49878254563945834 0
vt 0.7935815447774035 0.30411756640321025 0
vt 0.62188383321121832 0.2121768620878266 0
vt 0.45641201155965833 0.31490099359215923 0
vt 0.32388688168192503 0.52344384634896746 0
vt 0.62810968359689989 0.40684177232105101 0
#end 28 textures vertices 

#begin 38 normals 
vn 0 -0.16520799999999999 -0.986259
vn 0 -0.16520799999999999 -0.986259
vn 0 -0.16520799999999999 -0.986259
vn 0 -0.16520799999999999 -0.986259
vn -0.85412500000000002 -0.16520799999999999 -0.49312899999999998
vn -0.85412500000000002 -0.16520799999999999 -0.49312899999999998
vn -0.85412500000000002 -0.16520799999999999 -0.49312899999999998
vn -0.85412500000000002 -0.16520799999999999 -0.49312899999999998
vn -0.85412500000000002 -0.16520799999999999 0.49312899999999998
vn -0.85412500000000002 -0.16520799999999999 0.49312899999999998
vn -0.85412500000000002 -0.16520799999999999 0.49312899999999998
vn -0.85412500000000002 -0.16520799999999999 0.49312899999999998
vn 0 -0.16520799999999999 0.986259
vn 0 -0.16520799999999999 0.986259
vn 0 -0.16520799999999999 0.986259
vn 0 -0.16520799999999999 0.986259
vn 0.85412500000000002 -0.16520799999999999 0.49312899999999998
vn 0.85412500000000002 -0.16520799999999999 0.49312899999999998
vn 0.85412500000000002 -0.16520799999999999 0.49312899999999998
vn 0.85412500000000002 -0.16520799999999999 0.49312899999999998
vn 0.85412500000000002 -0.16520799999999999 -0.49312899999999998
vn 0.85412500000000002 -0.16520799999999999 -0.49312899999999998
vn 0.85412500000000002 -0.16520799999999999 -0.49312899999999998
vn 0.85412500000000002 -0.16520799999999999 -0.49312899999999998
vn 0 -1 0
vn 0 -1 0
vn 0 -1 0
vn 0 -1 0
vn 0 -1 0
vn 0 -1 -0
vn 0 -1 0
vn 0.20826 0.90912599999999999 -0.36071700000000001
vn -0.20826 0.90912599999999999 -0.36071700000000001
vn -0 1 0
vn -0.41652 0.90912599999999999 -0
vn -0.20826 0.90912599999999999 0.36071700000000001
vn 0.20826 0.90912599999999999 0.36071700000000001
vn 0.41652 0.90912599999999999 0
#end 38 normals 

#begin 18 faces
usemtl initialShadingGroup
g pCylinder16
s off
f 1/7/1 2/8/2 8/15/3 7/14/4 
f 2/8/5 3/9/6 9/16/7 8/15/8 
f 3/9/9 4/10/10 10/17/11 9/16/12 
f 4/10/13 5/11/14 11/18/15 10/17/16 
f 5/11/17 6/12/18 12/19/19 11/18/20 
f 6/12/21 1/13/22 7/20/23 12/19/24 
s 1
f 2/2/25 1/1/26 13/27/27 
f 3/3/28 2/2/25 13/27/27 
f 4/4/29 3/3/28 13/27/27 
f 5/5/30 4/4/29 13/27/27 
f 6/6/31 5/5/30 13/27/27 
f 1/1/26 6/6/31 13/27/27 
s 2
f 7/25/32 8/24/33 14/28/34 
f 8/24/33 9/23/35 14/28/34 
f 9/23/35 10/22/36 14/28/34 
f 10/22/36 11/21/37 14/28/34 
f 11/21/37 12/26/38 14/28/34 
f 12/26/38 7/25/32 14/28/34 
#end 18 faces
#begin 1 properties
#U3D SYM 0 0 0 1 0 0 0.0001 0
#end 1 properties
