# This file uses centimeters as units for non-parametric coordinates.

mtllib Jupajub.mtl
g default
v -5.412348 1.449254 -0.013213
v -5.427880 1.449254 -0.034591
v -5.453012 1.449254 -0.042757
v -5.478144 1.449254 -0.034591
v -5.493677 1.449254 -0.013213
v -5.493677 1.449254 0.013213
v -5.478144 1.449254 0.034591
v -5.453012 1.449254 0.042757
v -5.427880 1.449254 0.034591
v -5.412348 1.449254 0.013213
v -5.334999 1.475680 -0.038345
v -5.380076 1.475680 -0.100388
v -5.453012 1.475680 -0.124086
v -5.525948 1.475680 -0.100388
v -5.571025 1.475680 -0.038345
v -5.571025 1.475680 0.038345
v -5.525948 1.475680 0.100388
v -5.453012 1.475680 0.124086
v -5.380076 1.475680 0.100388
v -5.334999 1.475680 0.038345
v -5.269202 1.525944 -0.059723
v -5.339411 1.525944 -0.156358
v -5.453012 1.525944 -0.193269
v -5.566613 1.525944 -0.156358
v -5.636822 1.525944 -0.059723
v -5.636822 1.525944 0.059723
v -5.566613 1.525944 0.156358
v -5.453012 1.525944 0.193269
v -5.339411 1.525944 0.156358
v -5.269202 1.525944 0.059723
v -5.221398 1.595126 -0.075256
v -5.309867 1.595126 -0.197023
v -5.453012 1.595126 -0.243533
v -5.596157 1.595126 -0.197023
v -5.684626 1.595126 -0.075256
v -5.684626 1.595126 0.075256
v -5.596157 1.595126 0.197023
v -5.453012 1.595126 0.243533
v -5.309867 1.595126 0.197023
v -5.221399 1.595126 0.075256
v -5.196266 1.676456 -0.083422
v -5.294334 1.676456 -0.218401
v -5.453012 1.676456 -0.269959
v -5.611690 1.676456 -0.218401
v -5.709758 1.676456 -0.083422
v -5.709758 1.676456 0.083422
v -5.611690 1.676456 0.218401
v -5.453012 1.676456 0.269959
v -5.294334 1.676456 0.218401
v -5.196266 1.676456 0.083422
v -5.221398 1.843299 -0.075256
v -5.309867 1.843299 -0.197023
v -5.453012 1.843299 -0.243533
v -5.596157 1.843299 -0.197023
v -5.684626 1.843299 -0.075256
v -5.684626 1.843299 0.075256
v -5.596157 1.843299 0.197023
v -5.453012 1.843299 0.243533
v -5.309867 1.843299 0.197023
v -5.221399 1.843299 0.075256
v -5.269202 1.912482 -0.059723
v -5.339411 1.912482 -0.156358
v -5.453012 1.912482 -0.193269
v -5.566613 1.912482 -0.156358
v -5.636822 1.912482 -0.059723
v -5.636822 1.912482 0.059723
v -5.566613 1.912482 0.156358
v -5.453012 1.912482 0.193269
v -5.339411 1.912482 0.156358
v -5.269202 1.912482 0.059723
v -5.334999 1.962746 -0.038345
v -5.380076 1.962746 -0.100388
v -5.453012 1.962746 -0.124086
v -5.525948 1.962746 -0.100388
v -5.571025 1.962746 -0.038345
v -5.571025 1.962746 0.038345
v -5.525948 1.962746 0.100388
v -5.453012 1.962746 0.124086
v -5.380076 1.962746 0.100388
v -5.334999 1.962746 0.038345
v -5.412348 1.989172 -0.013213
v -5.427880 1.989172 -0.034591
v -5.453012 1.989172 -0.042757
v -5.478144 1.989172 -0.034591
v -5.493677 1.989172 -0.013213
v -5.493677 1.989172 0.013213
v -5.478144 1.989172 0.034591
v -5.453012 1.989172 0.042757
v -5.427880 1.989172 0.034591
v -5.412348 1.989172 0.013213
v -5.453012 1.992537 0.000000
v -5.196266 1.708578 -0.083422
v -5.196266 1.708578 0.083422
v -5.294334 1.708578 0.218401
v -5.453012 1.708578 0.269959
v -5.611690 1.708578 0.218401
v -5.709758 1.708578 0.083422
v -5.709758 1.708578 -0.083422
v -5.611690 1.708578 -0.218401
v -5.453012 1.708578 -0.269959
v -5.294334 1.708578 -0.218401
v -5.202549 1.750288 -0.081380
v -5.202549 1.750288 0.081380
v -5.298217 1.750288 0.213057
v -5.453012 1.750288 0.263352
v -5.607807 1.750288 0.213057
v -5.703475 1.750288 0.081380
v -5.703475 1.750288 -0.081380
v -5.607807 1.750288 -0.213057
v -5.453012 1.750288 -0.263352
v -5.298217 1.750288 -0.213057
v -5.282673 1.752383 -0.234451
v -5.177399 1.752383 -0.089552
v -5.170485 1.730009 -0.091799
v -5.278401 1.730009 -0.240332
v -5.453012 1.752383 -0.289797
v -5.453012 1.730009 -0.297067
v -5.623351 1.752383 -0.234451
v -5.627623 1.730009 -0.240332
v -5.728625 1.752383 -0.089552
v -5.735540 1.730009 -0.091799
v -5.728625 1.752383 0.089552
v -5.735540 1.730009 0.091799
v -5.623351 1.752383 0.234451
v -5.627623 1.730009 0.240332
v -5.453012 1.752383 0.289797
v -5.453012 1.730009 0.297067
v -5.282673 1.752383 0.234451
v -5.278401 1.730009 0.240332
v -5.177399 1.752383 0.089552
v -5.170485 1.730009 0.091799
v -5.170485 1.706483 0.091799
v -5.170485 1.706483 -0.091799
v -5.278401 1.706483 0.240332
v -5.453012 1.706483 0.297067
v -5.627623 1.706483 0.240332
v -5.735540 1.706483 0.091799
v -5.735540 1.706483 -0.091799
v -5.627623 1.706483 -0.240332
v -5.453012 1.706483 -0.297067
v -5.278401 1.706483 -0.240332
v -5.412348 0.718356 -0.013213
v -5.427880 0.718356 -0.034591
v -5.453012 0.714991 0.000000
v -5.453012 0.718356 -0.042757
v -5.478144 0.718356 -0.034591
v -5.493677 0.718356 -0.013213
v -5.493677 0.718356 0.013213
v -5.478144 0.718356 0.034591
v -5.453012 0.718356 0.042757
v -5.427880 0.718356 0.034591
v -5.412348 0.718356 0.013213
vt 0.439696 0.562606
vt 0.389169 0.557533
vt 0.389169 0.464024
vt 0.439696 0.458951
vt 0.439696 0.646465
vt 0.389169 0.633183
vt 0.346188 0.547883
vt 0.346188 0.473674
vt 0.389169 0.388374
vt 0.439696 0.375092
vt 0.459653 0.458951
vt 0.459653 0.562606
vt 0.346188 0.607919
vt 0.459653 0.646465
vt 0.314960 0.534601
vt 0.314960 0.486956
vt 0.346188 0.413638
vt 0.459653 0.375092
vt 0.288868 0.647574
vt 0.238341 0.642500
vt 0.238341 0.548992
vt 0.288868 0.543919
vt 0.288868 0.731432
vt 0.238341 0.718150
vt 0.195360 0.632851
vt 0.195360 0.558642
vt 0.238341 0.473342
vt 0.288868 0.460060
vt 0.308825 0.543919
vt 0.308825 0.647574
vt 0.195360 0.692887
vt 0.308825 0.731432
vt 0.164132 0.619569
vt 0.164132 0.571924
vt 0.195360 0.498606
vt 0.308825 0.460060
vt 0.494304 0.468768
vt 0.494304 0.580040
vt 0.480404 0.581436
vt 0.480404 0.467372
vt 0.494304 0.670061
vt 0.480404 0.673715
vt 0.465788 0.581436
vt 0.465788 0.467372
vt 0.494304 0.378746
vt 0.480404 0.375092
vt 0.465788 0.673715
vt 0.465788 0.375092
vt 0.528955 0.468768
vt 0.528955 0.580040
vt 0.515055 0.581436
vt 0.515055 0.467372
vt 0.528955 0.670061
vt 0.515055 0.673715
vt 0.500439 0.581436
vt 0.500439 0.467372
vt 0.528955 0.378746
vt 0.515055 0.375092
vt 0.500439 0.673715
vt 0.500439 0.375092
vt 0.083788 0.639180
vt 0.026003 0.642985
vt 0.026003 0.541867
vt 0.083788 0.545671
vt 0.083788 0.714830
vt 0.026003 0.724792
vt 0.026003 0.460060
vt 0.083788 0.470021
vt 0.126769 0.629530
vt 0.126769 0.555321
vt 0.126769 0.689566
vt 0.126769 0.495285
vt 0.157997 0.616248
vt 0.157997 0.568603
vt 0.059777 0.907903
vt 0.001992 0.911708
vt 0.001992 0.810589
vt 0.059777 0.814394
vt 0.059777 0.983553
vt 0.001992 0.993515
vt 0.001992 0.728783
vt 0.059777 0.738744
vt 0.102758 0.898253
vt 0.102758 0.824044
vt 0.102758 0.958289
vt 0.102758 0.764008
vt 0.133986 0.884971
vt 0.133986 0.837326
vt 0.121538 0.456068
vt 0.105121 0.456068
vt 0.105121 0.001983
vt 0.121538 0.001983
vt 0.091839 0.456068
vt 0.091839 0.001983
vt 0.134820 0.456068
vt 0.134820 0.001983
vt 0.031691 0.456068
vt 0.015274 0.456068
vt 0.015274 0.001983
vt 0.031691 0.001983
vt 0.001992 0.456068
vt 0.001992 0.001983
vt 0.044973 0.456068
vt 0.044973 0.001983
vt 0.957131 0.493537
vt 0.909076 0.509151
vt 0.899426 0.495869
vt 0.929125 0.454992
vt 0.957131 0.541182
vt 0.909076 0.525568
vt 0.883812 0.490796
vt 0.883812 0.440268
vt 0.998008 0.480255
vt 0.954389 0.420219
vt 0.929125 0.579728
vt 0.899426 0.538850
vt 0.868198 0.495869
vt 0.838499 0.454992
vt 0.883812 0.397287
vt 0.883812 0.594451
vt 0.883812 0.543923
vt 0.954389 0.614500
vt 0.998008 0.554464
vt 0.858549 0.509151
vt 0.810494 0.493537
vt 0.813236 0.420219
vt 0.972744 0.394955
vt 0.883812 0.366060
vt 0.838499 0.579728
vt 0.868198 0.538850
vt 0.883812 0.637432
vt 0.858549 0.525568
vt 0.810494 0.541182
vt 0.769617 0.480255
vt 0.794880 0.394955
vt 0.813236 0.614500
vt 0.883812 0.668660
vt 0.972744 0.639764
vt 0.769617 0.554464
vt 0.794880 0.639764
vt 0.722604 0.550215
vt 0.763482 0.563497
vt 0.719863 0.623533
vt 0.694599 0.588761
vt 0.649286 0.646465
vt 0.649286 0.603484
vt 0.674550 0.534601
vt 0.664900 0.547883
vt 0.738218 0.648797
vt 0.649286 0.677693
vt 0.578709 0.623533
vt 0.603973 0.588761
vt 0.649286 0.552956
vt 0.674550 0.518184
vt 0.722604 0.502570
vt 0.649286 0.526393
vt 0.560354 0.648797
vt 0.535091 0.563497
vt 0.575968 0.550215
vt 0.633672 0.547883
vt 0.664900 0.504902
vt 0.694599 0.464024
vt 0.624022 0.534601
vt 0.649286 0.499829
vt 0.649286 0.449301
vt 0.719863 0.429252
vt 0.763482 0.489288
vt 0.575968 0.502570
vt 0.624022 0.518184
vt 0.633672 0.504902
vt 0.603973 0.464024
vt 0.649286 0.406320
vt 0.578709 0.429252
vt 0.649286 0.375092
vt 0.738218 0.403988
vt 0.535091 0.489288
vt 0.560354 0.403988
vt 0.536150 0.686757
vt 0.545799 0.700039
vt 0.520535 0.708248
vt 0.545799 0.716457
vt 0.520535 0.681684
vt 0.536150 0.729739
vt 0.504922 0.686757
vt 0.520535 0.734812
vt 0.495272 0.700039
vt 0.504922 0.729739
vt 0.495272 0.716457
vt 0.807498 0.314391
vt 0.866933 0.232585
vt 0.882558 0.237662
vt 0.817155 0.327683
vt 0.866933 0.131466
vt 0.882558 0.126389
vt 0.711328 0.345639
vt 0.711328 0.362068
vt 0.807498 0.049660
vt 0.817155 0.036368
vt 0.615159 0.314391
vt 0.605502 0.327683
vt 0.711328 0.018412
vt 0.711328 0.001983
vt 0.555723 0.232585
vt 0.540098 0.237662
vt 0.615159 0.049660
vt 0.605502 0.036368
vt 0.555723 0.131466
vt 0.540098 0.126389
vt 0.516525 0.238370
vt 0.516526 0.134714
vt 0.532543 0.129510
vt 0.532543 0.243574
vt 0.455599 0.050856
vt 0.465498 0.037231
vt 0.455598 0.322228
vt 0.465498 0.335853
vt 0.357016 0.018825
vt 0.357016 0.001983
vt 0.357016 0.354260
vt 0.357016 0.371101
vt 0.258435 0.050856
vt 0.248536 0.037231
vt 0.258435 0.322228
vt 0.248536 0.335853
vt 0.197508 0.134714
vt 0.181491 0.129510
vt 0.197508 0.238370
vt 0.181491 0.243574
vt 0.230681 0.735424
vt 0.281209 0.745074
vt 0.281209 0.834006
vt 0.230681 0.834006
vt 0.281209 0.922938
vt 0.230681 0.932588
vt 0.210725 0.834006
vt 0.210725 0.735424
vt 0.210725 0.932588
vt 0.339210 0.932588
vt 0.288683 0.922938
vt 0.288683 0.834006
vt 0.339210 0.834006
vt 0.288683 0.745074
vt 0.339210 0.735424
vt 0.359167 0.834006
vt 0.359167 0.932588
vt 0.359167 0.735424
vt 0.140563 0.843905
vt 0.140563 0.738078
vt 0.154463 0.735424
vt 0.154463 0.843905
vt 0.169078 0.735424
vt 0.169078 0.843905
vt 0.140563 0.949731
vt 0.154463 0.952386
vt 0.169078 0.952386
vt 0.204160 0.843905
vt 0.204160 0.949731
vt 0.190259 0.952386
vt 0.190259 0.843905
vt 0.175644 0.952386
vt 0.175644 0.843905
vt 0.204160 0.738078
vt 0.190259 0.735424
vt 0.175644 0.735424
vt 0.424426 0.746626
vt 0.366641 0.746626
vt 0.366641 0.650456
vt 0.424426 0.657694
vt 0.424426 0.835558
vt 0.366641 0.842795
vt 0.430956 0.773876
vt 0.488741 0.773876
vt 0.488741 0.870046
vt 0.430956 0.862808
vt 0.430956 0.684944
vt 0.488741 0.677707
vt 0.068473 0.001983
vt 0.084088 0.001983
vt 0.084088 0.456068
vt 0.068473 0.456068
vt 0.052860 0.001983
vt 0.052860 0.456068
vt 0.158125 0.456068
vt 0.142512 0.456068
vt 0.142512 0.001983
vt 0.158125 0.001983
vt 0.173739 0.456068
vt 0.173739 0.001983
vn 0.492615 -0.855401 -0.160060
vn 0.293893 -0.951056 -0.095491
vn 0.181636 -0.951056 -0.250001
vn 0.304451 -0.855402 -0.419043
vn -0.000000 -0.951056 -0.309018
vn -0.000000 -0.855402 -0.517965
vn -0.181637 -0.951056 -0.250000
vn -0.304452 -0.855402 -0.419042
vn -0.293893 -0.951056 -0.095492
vn -0.492615 -0.855401 -0.160060
vn -0.293893 -0.951056 0.095491
vn -0.492615 -0.855401 0.160060
vn -0.181637 -0.951056 0.250000
vn -0.304452 -0.855402 0.419042
vn -0.000000 -0.951056 0.309018
vn -0.000000 -0.855402 0.517965
vn 0.181636 -0.951056 0.250001
vn 0.304451 -0.855402 0.419043
vn 0.293893 -0.951056 0.095492
vn 0.492615 -0.855401 0.160060
vn 0.703004 -0.673506 -0.228419
vn 0.434480 -0.673506 -0.598010
vn -0.000000 -0.673506 -0.739181
vn -0.434481 -0.673506 -0.598010
vn -0.703003 -0.673506 -0.228419
vn -0.703003 -0.673506 0.228419
vn -0.434481 -0.673506 0.598010
vn 0.000000 -0.673506 0.739182
vn 0.434481 -0.673505 0.598011
vn 0.703004 -0.673505 0.228420
vn 0.858747 -0.429768 -0.279022
vn 0.530734 -0.429767 -0.730494
vn -0.000000 -0.429766 -0.902941
vn -0.530736 -0.429765 -0.730494
vn -0.858748 -0.429765 -0.279024
vn -0.858748 -0.429765 0.279024
vn -0.530736 -0.429765 0.730494
vn 0.000000 -0.429765 0.902941
vn 0.530735 -0.429766 0.730495
vn 0.858747 -0.429767 0.279025
vn 0.927802 -0.219787 -0.301459
vn 0.573412 -0.219785 -0.789235
vn -0.000000 -0.219784 -0.975549
vn -0.573414 -0.219783 -0.789235
vn -0.927802 -0.219783 -0.301461
vn -0.927802 -0.219783 0.301461
vn -0.573413 -0.219783 0.789235
vn 0.000000 -0.219784 0.975549
vn 0.573413 -0.219785 0.789235
vn 0.927801 -0.219786 0.301462
vn 0.951057 0.000000 -0.309016
vn 0.587784 0.000000 -0.809018
vn -0.000000 0.000000 -1.000000
vn -0.587786 0.000000 -0.809017
vn -0.951056 0.000000 -0.309017
vn -0.951057 0.000000 0.309017
vn -0.587786 0.000000 0.809017
vn 0.000000 0.000000 1.000000
vn 0.587785 0.000000 0.809017
vn 0.951056 0.000000 0.309019
vn 0.559019 0.309016 -0.769420
vn 0.904506 0.309024 -0.293892
vn 0.940215 0.150562 -0.305494
vn 0.581084 0.150558 -0.799796
vn -0.000000 0.309014 -0.951057
vn -0.000000 0.150557 -0.988601
vn -0.559019 0.309016 -0.769420
vn -0.581085 0.150558 -0.799795
vn -0.904506 0.309025 -0.293892
vn -0.940215 0.150562 -0.305494
vn -0.904506 0.309025 0.293892
vn -0.940215 0.150562 0.305494
vn -0.559019 0.309016 0.769420
vn -0.581085 0.150558 0.799796
vn 0.000000 0.309014 0.951057
vn 0.000000 0.150557 0.988601
vn 0.559018 0.309016 0.769420
vn 0.581084 0.150558 0.799796
vn 0.904506 0.309025 0.293892
vn 0.940215 0.150562 0.305494
vn 0.703004 0.673506 -0.228419
vn 0.884848 0.366588 -0.287503
vn 0.546865 0.366588 -0.752696
vn 0.434480 0.673506 -0.598010
vn -0.000000 0.366587 -0.930384
vn -0.000000 0.673506 -0.739182
vn -0.546866 0.366587 -0.752696
vn -0.434481 0.673506 -0.598010
vn -0.884848 0.366588 -0.287504
vn -0.703003 0.673506 -0.228419
vn -0.884847 0.366588 0.287504
vn -0.703003 0.673506 0.228419
vn -0.546866 0.366587 0.752696
vn -0.434481 0.673506 0.598010
vn 0.000000 0.366587 0.930384
vn 0.000000 0.673506 0.739182
vn 0.546865 0.366588 0.752697
vn 0.434481 0.673505 0.598011
vn 0.884847 0.366588 0.287505
vn 0.703005 0.673505 0.228420
vn 0.492615 0.855401 -0.160060
vn 0.304452 0.855402 -0.419043
vn -0.000000 0.855402 -0.517965
vn -0.304453 0.855402 -0.419043
vn -0.492615 0.855401 -0.160060
vn -0.492615 0.855401 0.160060
vn -0.304453 0.855402 0.419043
vn -0.000000 0.855402 0.517965
vn 0.304452 0.855402 0.419043
vn 0.492615 0.855401 0.160060
vn 0.276999 0.956646 -0.090003
vn 0.171195 0.956646 -0.235630
vn -0.000000 0.956646 -0.291254
vn -0.171196 0.956646 -0.235630
vn -0.276999 0.956646 -0.090003
vn -0.276999 0.956646 0.090003
vn -0.171196 0.956645 0.235630
vn -0.000000 0.956646 0.291254
vn 0.171195 0.956646 0.235630
vn 0.276999 0.956646 0.090003
vn 0.046117 -0.996918 -0.063472
vn 0.074619 -0.996917 -0.024243
vn -0.000000 -1.000000 0.000000
vn 0.000000 -0.996917 -0.078458
vn -0.046117 -0.996917 -0.063473
vn -0.074620 -0.996917 -0.024245
vn -0.074620 -0.996917 0.024245
vn -0.046117 -0.996917 0.063473
vn 0.000000 -0.996917 0.078458
vn 0.046117 -0.996917 0.063474
vn 0.074619 -0.996917 0.024245
vn -0.000000 1.000000 0.000000
vn 0.951056 0.000000 0.309018
vn 0.951056 0.000000 -0.309018
vn 0.587785 0.000000 0.809017
vn -0.000000 0.000000 1.000000
vn -0.587785 0.000000 0.809017
vn -0.951056 0.000000 0.309018
vn -0.951056 0.000000 -0.309018
vn -0.587786 0.000000 -0.809017
vn -0.000000 0.000000 -1.000000
vn 0.587785 0.000000 -0.809017
vn 0.930173 0.208408 0.302232
vn 0.930174 0.208406 -0.302231
vn 0.574880 0.208408 0.791252
vn 0.000000 0.208406 0.978042
vn -0.574880 0.208405 0.791253
vn -0.930174 0.208405 0.302231
vn -0.930174 0.208405 -0.302231
vn -0.574880 0.208405 -0.791252
vn -0.000000 0.208405 -0.978042
vn 0.574879 0.208406 -0.791253
vn -0.067135 0.996551 0.048776
vn -0.067135 0.996551 0.048776
vn -0.067135 0.996551 0.048776
vn -0.067135 0.996551 0.048776
vn -0.025643 0.996551 0.078922
vn -0.025643 0.996551 0.078922
vn -0.025643 0.996551 0.078922
vn -0.025643 0.996551 0.078922
vn 0.025643 0.996551 0.078922
vn 0.025643 0.996551 0.078922
vn 0.025643 0.996551 0.078922
vn 0.025643 0.996551 0.078922
vn 0.067135 0.996551 0.048776
vn 0.067135 0.996551 0.048776
vn 0.067135 0.996551 0.048776
vn 0.067135 0.996551 0.048776
vn 0.082984 0.996551 0.000000
vn 0.082984 0.996551 0.000000
vn 0.082984 0.996551 0.000000
vn 0.082984 0.996551 0.000000
vn 0.067135 0.996551 -0.048776
vn 0.067135 0.996551 -0.048776
vn 0.067135 0.996551 -0.048776
vn 0.067135 0.996551 -0.048776
vn 0.025643 0.996551 -0.078922
vn 0.025643 0.996551 -0.078922
vn 0.025643 0.996551 -0.078922
vn 0.025643 0.996551 -0.078922
vn -0.025643 0.996551 -0.078922
vn -0.025643 0.996551 -0.078922
vn -0.025643 0.996551 -0.078922
vn -0.025643 0.996551 -0.078922
vn -0.067135 0.996551 -0.048776
vn -0.067135 0.996551 -0.048776
vn -0.067135 0.996551 -0.048776
vn -0.067135 0.996551 -0.048776
vn -0.082984 0.996551 0.000000
vn -0.082984 0.996551 0.000000
vn -0.082984 0.996551 0.000000
vn -0.082984 0.996551 0.000000
vn -0.080966 -0.996717 -0.000000
vn -0.080966 -0.996717 -0.000000
vn -0.080966 -0.996717 -0.000000
vn -0.080966 -0.996717 -0.000000
vn -0.065503 -0.996717 -0.047590
vn -0.065503 -0.996717 -0.047590
vn -0.065503 -0.996717 -0.047590
vn -0.065503 -0.996717 -0.047590
vn -0.025020 -0.996717 -0.077003
vn -0.025020 -0.996717 -0.077003
vn -0.025020 -0.996717 -0.077003
vn -0.025020 -0.996717 -0.077003
vn 0.025020 -0.996717 -0.077003
vn 0.025020 -0.996717 -0.077003
vn 0.025020 -0.996717 -0.077003
vn 0.025020 -0.996717 -0.077003
vn 0.065503 -0.996717 -0.047590
vn 0.065503 -0.996717 -0.047590
vn 0.065503 -0.996717 -0.047590
vn 0.065503 -0.996717 -0.047590
vn 0.080965 -0.996717 0.000000
vn 0.080965 -0.996717 0.000000
vn 0.080965 -0.996717 0.000000
vn 0.080965 -0.996717 0.000000
vn 0.065503 -0.996717 0.047590
vn 0.065503 -0.996717 0.047590
vn 0.065503 -0.996717 0.047590
vn 0.065503 -0.996717 0.047590
vn 0.025020 -0.996717 0.077003
vn 0.025020 -0.996717 0.077003
vn 0.025020 -0.996717 0.077003
vn 0.025020 -0.996717 0.077003
vn -0.025020 -0.996717 0.077003
vn -0.025020 -0.996717 0.077003
vn -0.025020 -0.996717 0.077003
vn -0.025020 -0.996717 0.077003
vn -0.065504 -0.996717 0.047591
vn -0.065504 -0.996717 0.047591
vn -0.065504 -0.996717 0.047591
vn -0.065504 -0.996717 0.047591
vn 0.809020 0.000000 -0.587781
vn 0.809020 0.000000 -0.587781
vn 0.809020 0.000000 -0.587781
vn 0.809020 0.000000 -0.587781
vn 0.309012 0.000000 -0.951058
vn 0.309012 0.000000 -0.951058
vn 0.309012 0.000000 -0.951058
vn 0.309012 0.000000 -0.951058
vn -0.309018 0.000000 -0.951056
vn -0.309018 0.000000 -0.951056
vn -0.309018 0.000000 -0.951056
vn -0.309018 0.000000 -0.951056
vn -0.809020 0.000000 -0.587781
vn -0.809020 0.000000 -0.587781
vn -0.809020 0.000000 -0.587781
vn -0.809020 0.000000 -0.587781
vn -1.000000 0.000000 0.000000
vn -1.000000 0.000000 0.000000
vn -1.000000 0.000000 0.000000
vn -1.000000 0.000000 0.000000
vn -0.809020 0.000000 0.587781
vn -0.809020 0.000000 0.587781
vn -0.809020 0.000000 0.587781
vn -0.809020 0.000000 0.587781
vn -0.309018 0.000000 0.951056
vn -0.309018 0.000000 0.951056
vn -0.309018 0.000000 0.951056
vn -0.309018 0.000000 0.951056
vn 0.309013 0.000000 0.951058
vn 0.309013 0.000000 0.951058
vn 0.309013 0.000000 0.951058
vn 0.309013 0.000000 0.951058
vn 0.809020 0.000000 0.587781
vn 0.809020 0.000000 0.587781
vn 0.809020 0.000000 0.587781
vn 0.809020 0.000000 0.587781
vn 1.000000 0.000000 0.000000
vn 1.000000 0.000000 0.000000
vn 1.000000 0.000000 0.000000
vn 1.000000 0.000000 0.000000
s 1
g pSphere2
usemtl initialShadingGroup
f 11/105/1 1/106/2 2/107/3 12/108/4
f 12/108/4 2/107/3 3/111/5 13/112/6
f 13/112/6 3/111/5 4/117/7 14/118/8
f 14/118/8 4/117/7 5/124/9 15/125/10
f 15/125/10 5/124/9 6/132/11 16/133/12
f 16/133/12 6/132/11 7/130/13 17/129/14
f 17/129/14 7/130/13 8/121/15 18/120/16
f 18/120/16 8/121/15 9/116/17 19/115/18
f 19/115/18 9/116/17 10/110/19 20/109/20
f 20/109/20 10/110/19 1/106/2 11/105/1
f 21/113/21 11/105/1 12/108/4 22/114/22
f 22/114/22 12/108/4 13/112/6 23/119/23
f 23/119/23 13/112/6 14/118/8 24/126/24
f 24/126/24 14/118/8 15/125/10 25/134/25
f 25/7/25 15/15/10 16/16/12 26/8/26
f 26/139/26 16/133/12 17/129/14 27/136/27
f 27/136/27 17/129/14 18/120/16 28/131/28
f 28/131/28 18/120/16 19/115/18 29/122/29
f 29/122/29 19/115/18 20/109/20 30/123/30
f 30/25/30 20/33/20 11/34/1 21/26/21
f 31/21/31 21/26/21 22/35/22 32/27/32
f 32/127/32 22/114/22 23/119/23 33/128/33
f 33/128/33 23/119/23 24/126/24 34/135/34
f 34/6/34 24/13/24 25/7/25 35/2/35
f 35/2/35 25/7/25 26/8/26 36/3/36
f 36/3/36 26/8/26 27/17/27 37/9/37
f 37/140/37 27/136/27 28/131/28 38/137/38
f 38/137/38 28/131/28 29/122/29 39/138/39
f 39/24/39 29/31/29 30/25/30 40/20/40
f 40/20/40 30/25/30 21/26/21 31/21/31
f 41/22/41 31/21/31 32/27/32 42/28/42
f 42/229/42 32/230/32 33/231/33 43/232/43
f 43/232/43 33/231/33 34/233/34 44/234/44
f 44/5/44 34/6/34 35/2/35 45/1/45
f 45/1/45 35/2/35 36/3/36 46/4/46
f 46/4/46 36/3/36 37/9/37 47/10/47
f 47/238/47 37/239/37 38/240/38 48/241/48
f 48/241/48 38/240/38 39/242/39 49/243/49
f 49/23/49 39/24/39 40/20/40 50/19/50
f 50/19/50 40/20/40 31/21/31 41/22/41
f 92/29/51 41/22/41 42/28/42 101/36/52
f 42/229/42 43/232/43 100/235/53 101/236/52
f 43/232/43 44/234/44 99/237/54 100/235/53
f 44/5/44 45/1/45 98/12/55 99/14/54
f 45/1/45 46/4/46 97/11/56 98/12/55
f 46/4/46 47/10/47 96/18/57 97/11/56
f 47/238/47 48/241/48 95/244/58 96/245/57
f 48/241/48 49/243/49 94/246/59 95/244/58
f 49/23/49 50/19/50 93/30/60 94/32/59
f 50/19/50 41/22/41 92/29/51 93/30/60
s 2
f 112/57/61 113/49/62 114/52/63 115/58/64
f 116/247/65 112/248/61 115/249/64 117/250/66
f 118/253/67 116/247/65 117/250/66 119/254/68
f 120/38/69 118/41/67 119/42/68 121/39/70
f 122/37/71 120/38/69 121/39/70 123/40/72
f 124/45/73 122/37/71 123/40/72 125/46/74
f 126/256/75 124/257/73 125/258/74 127/259/76
f 128/262/77 126/256/75 127/259/76 129/263/78
f 130/50/79 128/53/77 129/54/78 131/51/80
f 113/49/62 130/50/79 131/51/80 114/52/63
s 3
f 61/70/81 51/64/82 52/68/83 62/72/84
f 62/143/84 52/149/83 53/150/85 63/145/86
f 63/145/86 53/150/85 54/157/87 64/151/88
f 64/85/88 54/79/87 55/75/89 65/83/90
f 65/83/90 55/75/89 56/78/91 66/84/92
f 66/84/92 56/78/91 57/82/93 67/86/94
f 67/173/94 57/177/93 58/174/95 68/172/96
f 68/172/96 58/174/95 59/175/97 69/166/98
f 69/71/98 59/65/97 60/61/99 70/69/100
f 70/69/100 60/61/99 51/64/82 61/70/81
f 71/141/101 61/142/81 62/143/84 72/144/102
f 72/144/102 62/143/84 63/145/86 73/146/103
f 73/146/103 63/145/86 64/151/88 74/152/104
f 74/152/104 64/151/88 65/158/90 75/159/105
f 75/87/105 65/83/90 66/84/92 76/88/106
f 76/168/106 66/176/92 67/173/94 77/171/107
f 77/171/107 67/173/94 68/172/96 78/165/108
f 78/165/108 68/172/96 69/166/98 79/162/109
f 79/162/109 69/166/98 70/167/100 80/155/110
f 80/73/110 70/69/100 61/70/81 71/74/101
f 81/147/111 71/141/101 72/144/102 82/148/112
f 82/148/112 72/144/102 73/146/103 83/153/113
f 83/153/113 73/146/103 74/152/104 84/160/114
f 84/160/114 74/152/104 75/159/105 85/163/115
f 85/163/115 75/159/105 76/168/106 86/169/116
f 86/169/116 76/168/106 77/171/107 87/170/117
f 87/170/117 77/171/107 78/165/108 88/164/118
f 88/164/118 78/165/108 79/162/109 89/161/119
f 89/161/119 79/162/109 80/155/110 90/154/120
f 90/154/120 80/155/110 71/141/101 81/147/111
s 4
f 143/178/121 142/179/122 144/180/123
f 145/182/124 143/178/121 144/180/123
f 146/184/125 145/182/124 144/180/123
f 147/186/126 146/184/125 144/180/123
f 148/188/127 147/186/126 144/180/123
f 149/187/128 148/188/127 144/180/123
f 150/185/129 149/187/128 144/180/123
f 151/183/130 150/185/129 144/180/123
f 152/181/131 151/183/130 144/180/123
f 142/179/122 152/181/131 144/180/123
s 3
f 91/156/132 81/147/111 82/148/112
f 91/156/132 82/148/112 83/153/113
f 91/156/132 83/153/113 84/160/114
f 91/156/132 84/160/114 85/163/115
f 91/156/132 85/163/115 86/169/116
f 91/156/132 86/169/116 87/170/117
f 91/156/132 87/170/117 88/164/118
f 91/156/132 88/164/118 89/161/119
f 91/156/132 89/161/119 90/154/120
f 91/156/132 90/154/120 81/147/111
s 2
f 131/51/80 132/55/133 133/56/134 114/52/63
f 129/54/78 134/59/135 132/55/133 131/51/80
f 127/259/76 135/261/136 134/264/135 129/263/78
f 125/258/74 136/260/137 135/261/136 127/259/76
f 123/40/72 137/44/138 136/48/137 125/46/74
f 121/39/70 138/43/139 137/44/138 123/40/72
f 119/42/68 139/47/140 138/43/139 121/39/70
f 117/250/66 140/252/141 139/255/140 119/254/68
f 115/249/64 141/251/142 140/252/141 117/250/66
f 114/52/63 133/56/134 141/60/142 115/58/64
s 3
f 60/61/99 103/62/143 102/63/144 51/64/82
f 59/65/97 104/66/145 103/62/143 60/61/99
f 58/265/95 105/266/146 104/267/145 59/268/97
f 57/269/93 106/270/147 105/266/146 58/265/95
f 56/78/91 107/77/148 106/81/147 57/82/93
f 55/75/89 108/76/149 107/77/148 56/78/91
f 54/79/87 109/80/150 108/76/149 55/75/89
f 53/271/85 110/272/151 109/273/150 54/274/87
f 52/275/83 111/276/152 110/272/151 53/271/85
f 51/64/82 102/63/144 111/67/152 52/68/83
s off
f 111/189/153 102/190/154 113/191/155 112/192/156
f 110/195/157 111/189/158 112/192/159 116/196/160
f 109/199/161 110/195/162 116/196/163 118/200/164
f 108/203/165 109/199/166 118/200/167 120/204/168
f 107/207/169 108/203/170 120/204/171 122/208/172
f 106/205/173 107/207/174 122/208/175 124/206/176
f 105/201/177 106/205/178 124/206/179 126/202/180
f 104/197/181 105/201/182 126/202/183 128/198/184
f 103/193/185 104/197/186 128/198/187 130/194/188
f 102/190/189 103/193/190 130/194/191 113/191/192
f 93/209/193 92/210/194 133/211/195 132/212/196
f 94/215/197 93/209/198 132/212/199 134/216/200
f 95/219/201 94/215/202 134/216/203 135/220/204
f 96/223/205 95/219/206 135/220/207 136/224/208
f 97/227/209 96/223/210 136/224/211 137/228/212
f 98/225/213 97/227/214 137/228/215 138/226/216
f 99/221/217 98/225/218 138/226/219 139/222/220
f 100/217/221 99/221/222 139/222/223 140/218/224
f 101/213/225 100/217/226 140/218/227 141/214/228
f 92/210/229 101/213/230 141/214/231 133/211/232
f 2/103/233 1/97/234 142/100/235 143/104/236
f 3/277/237 2/278/238 143/279/239 145/280/240
f 4/281/241 3/277/242 145/280/243 146/282/244
f 5/90/245 4/93/246 146/94/247 147/91/248
f 6/89/249 5/90/250 147/91/251 148/92/252
f 7/95/253 6/89/254 148/92/255 149/96/256
f 8/283/257 7/284/258 149/285/259 150/286/260
f 9/287/261 8/283/262 150/286/263 151/288/264
f 10/98/265 9/101/266 151/102/267 152/99/268
f 1/97/269 10/98/270 152/99/271 142/100/272
