#File written by LIBUNFOLD3D. Compilation :Dec 22 2011,11:53:02
mtllib Lamp.mtl
#begin vertices
v 0.476997 0.41955399999999998 -0.34655900000000001
v 0.182197 0.41955399999999998 -0.56074400000000002
v -0.182197 0.41955399999999998 -0.56074400000000002
v -0.476997 0.41955399999999998 -0.34655900000000001
v -0.58960100000000004 0.41955399999999998 -0
v -0.476997 0.41955399999999998 0.34655799999999998
v -0.182197 0.41955399999999998 0.56074299999999999
v 0.182197 0.41955399999999998 0.56074299999999999
v 0.476997 0.41955399999999998 0.34655799999999998
v 0.58960100000000004 0.41955399999999998 -0
v 0.081259999999999999 0.89944199999999996 -0.059039000000000001
v 0.031039000000000001 0.89944199999999996 -0.095527000000000001
v -0.031039000000000001 0.89944199999999996 -0.095527000000000001
v -0.081261 0.89944199999999996 -0.059039000000000001
v -0.100443 0.89944199999999996 -0
v -0.081261 0.89944199999999996 0.059039000000000001
v -0.031039000000000001 0.89944199999999996 0.095526
v 0.031039000000000001 0.89944199999999996 0.095526
v 0.081259999999999999 0.89944199999999996 0.059039000000000001
v 0.100442 0.89944199999999996 -0
v 0.086893999999999999 0.91300099999999995 -0.063131999999999994
v 0.033190999999999998 0.91300099999999995 -0.10215
v -0.033190999999999998 0.91300099999999995 -0.10215
v -0.086893999999999999 0.91300099999999995 -0.063131999999999994
v -0.107406 0.91300099999999995 -0
v -0.086893999999999999 0.91300099999999995 0.063131999999999994
v -0.033190999999999998 0.91300099999999995 0.102149
v 0.033190999999999998 0.91300099999999995 0.102149
v 0.086893999999999999 0.91300099999999995 0.063131999999999994
v 0.107406 0.91300099999999995 -0
v 0.081259999999999999 0.93079199999999995 -0.059039000000000001
v 0.031039000000000001 0.93079199999999995 -0.095527000000000001
v -0.031039000000000001 0.93079199999999995 -0.095527000000000001
v -0.081261 0.93079199999999995 -0.059039000000000001
v -0.100443 0.93079199999999995 -0
v -0.081261 0.93079199999999995 0.059039000000000001
v -0.031039000000000001 0.93079199999999995 0.095526
v 0.031039000000000001 0.93079199999999995 0.095526
v 0.081259999999999999 0.93079199999999995 0.059039000000000001
v 0.100442 0.93079199999999995 -0
v 0.045421999999999997 0.93079199999999995 -0.033001000000000003
v 0.017350000000000001 0.93079199999999995 -0.053395999999999999
v -0.017350000000000001 0.93079199999999995 -0.053395999999999999
v -0.045421999999999997 0.93079199999999995 -0.033001000000000003
v -0.056143999999999999 0.93079199999999995 -0
v -0.045421999999999997 0.93079199999999995 0.033000000000000002
v -0.017350000000000001 0.93079199999999995 0.053395999999999999
v 0.017350000000000001 0.93079199999999995 0.053395999999999999
v 0.045421999999999997 0.93079199999999995 0.033000000000000002
v 0.056143999999999999 0.93079199999999995 -0
v 0.43194500000000002 0.41955399999999998 -0.31382599999999999
v -0 0.86895 -0
v 0.164988 0.41955399999999998 -0.50778100000000004
v -0.164988 0.41955399999999998 -0.50778100000000004
v -0.43194500000000002 0.41955399999999998 -0.31382599999999999
v -0.53391299999999997 0.41955399999999998 -0
v -0.43194399999999999 0.41955399999999998 0.31382599999999999
v -0.164988 0.41955399999999998 0.50778100000000004
v 0.164988 0.41955399999999998 0.50778100000000004
v 0.43194399999999999 0.41955399999999998 0.31382599999999999
v 0.53391299999999997 0.41955399999999998 -0
v 0.056143999999999999 1.0202629999999999 -0
v 0.045421999999999997 1.0202629999999999 -0.033001000000000003
v 0.017350000000000001 1.0202629999999999 -0.053395999999999999
v -0.017350000000000001 1.0202629999999999 -0.053395999999999999
v -0.045421999999999997 1.0202629999999999 -0.033001000000000003
v -0.056143999999999999 1.0202629999999999 -0
v -0.045421999999999997 1.0202629999999999 0.033000000000000002
v -0.017350000000000001 1.0202629999999999 0.053395999999999999
v 0.017350000000000001 1.0202629999999999 0.053395999999999999
v 0.045421999999999997 1.0202629999999999 0.033000000000000002
v 0.056143999999999999 0.95316000000000001 -0
v 0.045421999999999997 0.95316000000000001 0.033000000000000002
v 0.017350000000000001 0.95316000000000001 0.053395999999999999
v -0.017350000000000001 0.95316000000000001 0.053395999999999999
v -0.045421999999999997 0.95316000000000001 0.033000000000000002
v -0.056143999999999999 0.95316000000000001 -0
v -0.045421999999999997 0.95316000000000001 -0.033001000000000003
v -0.017350000000000001 0.95316000000000001 -0.053395999999999999
v 0.017350000000000001 0.95316000000000001 -0.053395999999999999
v 0.045421999999999997 0.95316000000000001 -0.033001000000000003
v 0.056143999999999999 0.99789499999999998 -0
v 0.045421999999999997 0.99789499999999998 0.033000000000000002
v 0.017350000000000001 0.99789499999999998 0.053395999999999999
v -0.017350000000000001 0.99789499999999998 0.053395999999999999
v -0.045421999999999997 0.99789499999999998 0.033000000000000002
v -0.056143999999999999 0.99789499999999998 -0
v -0.045421999999999997 0.99789499999999998 -0.033001000000000003
v -0.017350000000000001 0.99789499999999998 -0.053395999999999999
v 0.017350000000000001 0.99789499999999998 -0.053395999999999999
v 0.045421999999999997 0.99789499999999998 -0.033001000000000003
v 0.056143999999999999 1.0090790000000001 -0
v 0.045421999999999997 1.0090790000000001 0.033000000000000002
v 0.017350000000000001 1.0090790000000001 0.053395999999999999
v -0.017350000000000001 1.0090790000000001 0.053395999999999999
v -0.045421999999999997 1.0090790000000001 0.033000000000000002
v -0.056143999999999999 1.0090790000000001 -0
v -0.045421999999999997 1.0090790000000001 -0.033001000000000003
v -0.017350000000000001 1.0090790000000001 -0.053395999999999999
v 0.017350000000000001 1.0090790000000001 -0.053395999999999999
v 0.045421999999999997 1.0090790000000001 -0.033001000000000003
v 0.056143999999999999 0.94197600000000004 -0
v 0.045421999999999997 0.94197600000000004 0.033000000000000002
v 0.017350000000000001 0.94197600000000004 0.053395999999999999
v -0.017350000000000001 0.94197600000000004 0.053395999999999999
v -0.045421999999999997 0.94197600000000004 0.033000000000000002
v -0.056143999999999999 0.94197600000000004 -0
v -0.045421999999999997 0.94197600000000004 -0.033001000000000003
v -0.017350000000000001 0.94197600000000004 -0.053395999999999999
v 0.017350000000000001 0.94197600000000004 -0.053395999999999999
v 0.045421999999999997 0.94197600000000004 -0.033001000000000003
v 0.059650000000000002 0.99929199999999996 -0
v 0.048258000000000002 0.99929199999999996 0.035061000000000002
v 0.059650000000000002 1.011174 -0
v 0.048258000000000002 1.011174 0.035061000000000002
v 0.018433000000000001 0.99929199999999996 0.056730000000000003
v 0.018433000000000001 1.011174 0.056730000000000003
v -0.018433000000000001 0.99929199999999996 0.056730000000000003
v -0.018433000000000001 1.011174 0.056730000000000003
v -0.048259000000000003 0.99929199999999996 0.035061000000000002
v -0.048259000000000003 1.011174 0.035061000000000002
v -0.059650000000000002 0.99929199999999996 -0
v -0.059650000000000002 1.011174 -0
v -0.048259000000000003 0.99929199999999996 -0.035061000000000002
v -0.048259000000000003 1.011174 -0.035061000000000002
v -0.018433000000000001 0.99929199999999996 -0.056730999999999997
v -0.018433000000000001 1.011174 -0.056730999999999997
v 0.018433000000000001 0.99929199999999996 -0.056730999999999997
v 0.018433000000000001 1.011174 -0.056730999999999997
v 0.048258000000000002 0.99929199999999996 -0.035061000000000002
v 0.048258000000000002 1.011174 -0.035061000000000002
v 0.059650000000000002 0.93988099999999997 -0
v 0.048258000000000002 0.93988099999999997 0.035061000000000002
v 0.059650000000000002 0.95176300000000003 -0
v 0.048258000000000002 0.95176300000000003 0.035061000000000002
v 0.018433000000000001 0.93988099999999997 0.056730000000000003
v 0.018433000000000001 0.95176300000000003 0.056730000000000003
v -0.018433000000000001 0.93988099999999997 0.056730000000000003
v -0.018433000000000001 0.95176300000000003 0.056730000000000003
v -0.048259000000000003 0.93988099999999997 0.035061000000000002
v -0.048259000000000003 0.95176300000000003 0.035061000000000002
v -0.059650000000000002 0.93988099999999997 -0
v -0.059650000000000002 0.95176300000000003 -0
v -0.048259000000000003 0.93988099999999997 -0.035061000000000002
v -0.048259000000000003 0.95176300000000003 -0.035061000000000002
v -0.018433000000000001 0.93988099999999997 -0.056730999999999997
v -0.018433000000000001 0.95176300000000003 -0.056730999999999997
v 0.018433000000000001 0.93988099999999997 -0.056730999999999997
v 0.018433000000000001 0.95176300000000003 -0.056730999999999997
v 0.048258000000000002 0.93988099999999997 -0.035061000000000002
v 0.048258000000000002 0.95176300000000003 -0.035061000000000002
v -0.0082220000000000001 1.0449379999999999 0.025302999999999999
v -0.021524999999999999 1.0449379999999999 0.015637999999999999
v 0.0082209999999999991 1.0449379999999999 0.025302999999999999
v 0.021524000000000001 1.0449379999999999 0.015637999999999999
v -0.0082220000000000001 1.0449379999999999 -0.025302999999999999
v 0.0082209999999999991 1.0449379999999999 -0.025302999999999999
v 0.026605 1.0449379999999999 -0
v -0.021524999999999999 1.0449379999999999 -0.015637999999999999
v 0.021524000000000001 1.0449379999999999 -0.015637999999999999
v -0.026605 1.0449379999999999 -0
v -0.002826 1.0449379999999999 0.0086979999999999991
v -0.0073990000000000002 1.0449379999999999 0.0053759999999999997
v 0.002826 1.0449379999999999 0.0086979999999999991
v 0.0073990000000000002 1.0449379999999999 0.0053759999999999997
v -0.002826 1.0449379999999999 -0.0086979999999999991
v 0.002826 1.0449379999999999 -0.0086979999999999991
v 0.0091459999999999996 1.0449379999999999 -0
v -0.0073990000000000002 1.0449379999999999 -0.0053759999999999997
v 0.0073990000000000002 1.0449379999999999 -0.0053759999999999997
v -0.0091459999999999996 1.0449379999999999 -0
v -0.002826 1.0668120000000001 0.0086979999999999991
v -0.0073990000000000002 1.0668120000000001 0.0053759999999999997
v 0.002826 1.0668120000000001 0.0086979999999999991
v 0.0073990000000000002 1.0668120000000001 0.0053759999999999997
v -0.002826 1.0668120000000001 -0.0086990000000000001
v 0.002826 1.0668120000000001 -0.0086990000000000001
v 0.0091459999999999996 1.0668120000000001 -0
v -0.0073990000000000002 1.0668120000000001 -0.0053759999999999997
v 0.0073990000000000002 1.0668120000000001 -0.0053759999999999997
v -0.0091459999999999996 1.0668120000000001 -0
v -0.0035969999999999999 1.0558749999999999 0.011070999999999999
v -0.0094179999999999993 1.0558749999999999 0.006842
v -0.011641 1.0558749999999999 -0
v -0.0094179999999999993 1.0558749999999999 -0.006842
v -0.0035969999999999999 1.0558749999999999 -0.011070999999999999
v 0.0035969999999999999 1.0558749999999999 -0.011070999999999999
v 0.0094179999999999993 1.0558749999999999 -0.006842
v 0.011641 1.0558749999999999 -0
v 0.0094179999999999993 1.0558749999999999 0.006842
v 0.0035969999999999999 1.0558749999999999 0.011070999999999999
v -0.001939 1.0668120000000001 0.0059659999999999999
v -0.0050749999999999997 1.0668120000000001 0.0036870000000000002
v 0.0019380000000000001 1.0668120000000001 0.0059659999999999999
v 0.0050749999999999997 1.0668120000000001 0.0036870000000000002
v -0.001939 1.0668120000000001 -0.0059670000000000001
v 0.0019380000000000001 1.0668120000000001 -0.0059670000000000001
v 0.0062729999999999999 1.0668120000000001 -0
v -0.0050749999999999997 1.0668120000000001 -0.0036879999999999999
v 0.0050749999999999997 1.0668120000000001 -0.0036879999999999999
v -0.0062729999999999999 1.0668120000000001 -0
v -0.001939 1.94008 0.0059750000000000003
v -0 1.94008 1.9999999999999999e-006
v -0.0050749999999999997 1.94008 0.0036870000000000002
v 0.0019380000000000001 1.94008 0.0059750000000000003
v 0.0050749999999999997 1.94008 0.0036870000000000002
v -0.001939 1.94008 -0.0059750000000000003
v 0.0019380000000000001 1.94008 -0.0059670000000000001
v 0.0062729999999999999 1.9400809999999999 -0
v -0.0050749999999999997 1.94008 -0.0036879999999999999
v 0.0050749999999999997 1.9400809999999999 -0.003679
v -0.0062729999999999999 1.9400809999999999 -0
v 0.46788800000000003 0.46754299999999999 -0.33994000000000002
v 0.57833999999999997 0.46754299999999999 -0
v 0.467887 0.46754299999999999 0.33994000000000002
v 0.17871699999999999 0.46754299999999999 0.55003400000000002
v -0.17871699999999999 0.46754299999999999 0.55003400000000002
v -0.467887 0.46754299999999999 0.33994000000000002
v -0.57834099999999999 0.46754299999999999 -0
v -0.467887 0.46754299999999999 -0.33994000000000002
v -0.17871699999999999 0.46754299999999999 -0.55003400000000002
v 0.17871699999999999 0.46754299999999999 -0.55003400000000002
v 0.47567999999999999 0.44354900000000003 -0.34560200000000002
v 0.58797299999999997 0.44354900000000003 -0
v 0.47567999999999999 0.44354900000000003 0.34560200000000002
v 0.18169399999999999 0.44354900000000003 0.559195
v -0.18169399999999999 0.44354900000000003 0.559195
v -0.47567999999999999 0.44354900000000003 0.34560200000000002
v -0.58797299999999997 0.44354900000000003 -0
v -0.47567999999999999 0.44354900000000003 -0.34560200000000002
v -0.18169399999999999 0.44354900000000003 -0.559195
v 0.18169399999999999 0.44354900000000003 -0.55919600000000003
#end vertices

#begin 445 textures vertices 
vt 0.55613775630867457 0.70617282879170473 0
vt 0.6888821243067218 0.74348503934222732 0
vt 0.14475006733833892 0.73840234700989837 0
vt 0.28145455480744053 0.71959637496126749 0
vt 0.41944843357719808 0.71957627680416614 0
vt 0.55615205471946272 0.73839884325224225 0
vt 0.68890717631600074 0.77566945080605576 0
vt 0.14473671816930947 0.70616415801190136 0
vt 0.28144241974632506 0.68733622430414876 0
vt 0.41943596218849938 0.6873399236435378 0
vt 0.88451433982187 0.70974373374147715 0
vt 0.90825503358677628 0.70860298195567362 0
vt 0.81262074111500926 0.73467310243827655 0
vt 0.8365754282672242 0.73528151671562847 0
vt 0.8605426279751861 0.73537240979051999 0
vt 0.8845016273302434 0.73468526239133458 0
vt 0.9082391541658712 0.73347752349463524 0
vt 0.81260422493147055 0.70978235970288805 0
vt 0.83656539380530359 0.71028109911121406 0
vt 0.86054209751159749 0.71017032369267485 0
vt 0.88471671321369483 0.71541853683234513 0
vt 0.90938798258394293 0.71429239567435443 0
vt 0.81237337193908721 0.74039030659306937 0
vt 0.836480646229395 0.74100014362416156 0
vt 0.86061316947288147 0.74100479477560988 0
vt 0.88475819454971383 0.74039717264708549 0
vt 0.90939431015648298 0.73925983185050836 0
vt 0.81239366614605457 0.71541012642614377 0
vt 0.83652221357744461 0.71600479784059201 0
vt 0.86061360122617103 0.71598286373601028 0
vt 0.88497479944754931 0.722543205566194 0
vt 0.70502906690276901 0.74867533630656036 0
vt 0.81214112315474385 0.74764806230912706 0
vt 0.83642751517557024 0.74818252145793895 0
vt 0.86070054054471601 0.7480572552567778 0
vt 0.88495319871564737 0.74758433995986084 0
vt 0.22857158340711531 0.75818857250911087 0
vt 0.81214320241356341 0.72252887035026758 0
vt 0.8364056395417041 0.72319341185431474 0
vt 0.86070257966832231 0.7233071472357091 0
vt 0.72399103035944712 0.76377906566513809 0
vt 0.84146112521929073 0.79155639391214294 0
vt 0.28469017378955347 0.76479852049072772 0
vt 0.27495181641298033 0.77357655735568354 0
vt 0.26191349308670908 0.77495370126139129 0
vt 0.25055593038738594 0.76840459847426168 0
vt 0.54219857360219637 0.79330159484101015 0
vt 0.75801534255783032 0.768309100928671 0
vt 0.74648406381752352 0.7745480888101961 0
vt 0.73348826723447424 0.77281769898202024 0
vt 0.51753643102217661 0.5373807755000215 0
vt 0.69234802410749285 0.73167204388365725 0
vt 0.44994591613966251 0.64296162301561943 0
vt 0.44962565575565938 0.38391656103987559 0
vt 0.33825379961627083 0.3241423508093304 0
vt 0.21157918088821426 0.32418314225170564 0
vt 0.1001898020024429 0.3838803617823856 0
vt 0.032455194844287466 0.48932983949643138 0
vt 0.8670352156513943 0.53740486936407472 0
vt 0.75565090730675555 0.47773351249195301 0
vt 0.62898730595755215 0.47768412749112132 0
vt 0.88268878047117083 0.7638739191268038 0
vt 0.89413848565456089 0.76810943096707651 0
vt 0.15627389091031013 0.78166626971392472 0
vt 0.16620904968415143 0.77373780991639374 0
vt 0.17757675466615688 0.76936013154546246 0
vt 0.18967650557651433 0.76941605195787011 0
vt 0.20112862767384035 0.77361426827696012 0
vt 0.84933248857741295 0.77622976837298407 0
vt 0.8592308062920665 0.7681589100689159 0
vt 0.87060989316639226 0.76388804502919117 0
vt 0.44509908540728149 0.75932014144978899 0
vt 0.43198859427287167 0.7593201414497891 0
vt 0.41887770722536555 0.75932014144978888 0
vt 0.39058392657596847 0.79607705908353577 0
vt 0.37551874559327636 0.75020788469035982 0
vt 0.36240825445886632 0.75020788469035959 0
vt 0.34929740397167719 0.75020788469035926 0
vt 0.33618673901537571 0.75020788469035948 0
vt 0.48905461331841382 0.7814463183638739 0
vt 0.45820993589447057 0.75932014144978877 0
vt 0.44509908540728149 0.77622299941585604 0
vt 0.43198859427287117 0.77622299941585582 0
vt 0.4188777072253651 0.77622299941585571 0
vt 0.40576651528566421 0.77622299941585515 0
vt 0.37551874559327642 0.76711074265642676 0
vt 0.36240825445886637 0.76711074265642643 0
vt 0.3492974039716773 0.7671107426564262 0
vt 0.33618673901537605 0.76711074265642643 0
vt 0.32307554707567515 0.76711074265642676 0
vt 0.45820993589447068 0.77622299941585571 0
vt 0.8833078455827077 0.7596968898092723 0
vt 0.86979443986622795 0.75975768390787812 0
vt 0.85721078352528712 0.76451612443312067 0
vt 0.067545175454173795 0.79906913123941536 0
vt 0.20307527605837222 0.76986163579492284 0
vt 0.19031725917375666 0.76523904392283149 0
vt 0.17678737375120041 0.76523354239891161 0
vt 0.16421707977725974 0.77006912712380537 0
vt 0.30381322948093875 0.78649428607747451 0
vt 0.89606230723541158 0.76433988906130457 0
vt 0.81523960977580101 0.7957822028647239 0
vt 0.80212911864139247 0.79578220286471446 0
vt 0.78901823159388873 0.79578220286470824 0
vt 0.55678039694150894 0.77395687451135564 0
vt 0.5290876865546833 0.79752740379353937 0
vt 0.51597719542027631 0.79752740379353282 0
vt 0.50286634493308835 0.79752740379353937 0
vt 0.48975567997678682 0.79752740379355136 0
vt 0.45829544015361146 0.78854179102049182 0
vt 0.82835046026299419 0.79578220286471779 0
vt 0.10830127717340103 0.79362902849639416 0
vt 0.094725773722507262 0.7936244110170293 0
vt 0.10835071299547501 0.79815861978813718 0
vt 0.094690395891350754 0.79815734871269384 0
vt 0.081111990316408228 0.79341510649726954 0
vt 0.081040840999813152 0.79790425560790001 0
vt 0.067356858511533307 0.79289610445308911 0
vt 0.067127312139992984 0.79753088227751789 0
vt 0.358140877860541 0.78077589667101643 0
vt 0.35826977531804727 0.78526010959040304 0
vt 0.3445649850031427 0.78089939961951682 0
vt 0.34458131375015016 0.78543498205920537 0
vt 0.33096520081007036 0.78088800029327743 0
vt 0.33094551056181348 0.78541844524454663 0
vt 0.31733862178753386 0.78075239249176875 0
vt 0.31730368150268717 0.78523700966927001 0
vt 0.30357843425682846 0.78032775791605791 0
vt 0.30338722131139151 0.78495947225971041 0
vt 0.12187872127129043 0.79340299611991927 0
vt 0.1220370012923412 0.79788168510660251 0
vt 0.43114695081379251 0.78952430800132478 0
vt 0.41749859757224245 0.78952188932027323 0
vt 0.43112570307722803 0.79405425068589275 0
vt 0.41753717409389884 0.79405440520111514 0
vt 0.40381578185952055 0.78975232269525564 0
vt 0.40395668147000996 0.79423642633049762 0
vt 0.39001585467423761 0.79005838202353451 0
vt 0.39007813224678056 0.79469236600797699 0
vt 0.54325961611418416 0.77501688667977275 0
vt 0.54318624386841696 0.77950454336636554 0
vt 0.52960001164758608 0.77481435658593023 0
vt 0.52958053311502018 0.77934598797433807 0
vt 0.51595202398341733 0.77481211158508989 0
vt 0.51599285840134179 0.77934532121934019 0
vt 0.50225936231126589 0.77507134098201313 0
vt 0.50242185055259947 0.77954987076542126 0
vt 0.48845748349565365 0.77543549175514037 0
vt 0.48854551858723355 0.78006390169195094 0
vt 0.4447965558686941 0.78972969731042242 0
vt 0.44474371646309746 0.79421393328192336 0
vt 0.59519128926063047 0.78903239757529353 0
vt 0.1933238874701543 0.78616689942943729 0
vt 0.8668639807974946 0.78042022030368086 0
vt 0.87329409853295481 0.77826515411297859 0
vt 0.17382056762863468 0.78598416865106591 0
vt 0.16895483588492494 0.79035978392148665 0
vt 0.88010554356804427 0.77839198316115799 0
vt 0.18028398446115093 0.78395592692110294 0
vt 0.88639776178625007 0.78080646174049295 0
vt 0.18706357388690992 0.78365442859056 0
vt 0.7052684071098434 0.79617204499039351 0
vt 0.58793035500386404 0.78701599061989946 0
vt 0.22005328534249832 0.79768622006544154 0
vt 0.22176596617974942 0.79641035926903425 0
vt 0.58233891364545365 0.78702721080497207 0
vt 0.5816830511397808 0.78905958023223455 0
vt 0.22390166653083807 0.79638491575349102 0
vt 0.58406410658172547 0.78576832012078479 0
vt 0.22564434345410478 0.79761980056724402 0
vt 0.58619995404074454 0.78576396191856801 0
vt 0.050382803946888439 0.80186297436470788 0
vt 0.70310633387154986 0.80477622208585342 0
vt 0.61745441560477277 0.80242521218447371 0
vt 0.61973594609018767 0.80242921188046923 0
vt 0.69620751478356646 0.80473549713606185 0
vt 0.69398544719199351 0.804943830168241 0
vt 0.62206037478859855 0.80249131580227084 0
vt 0.69848927340270073 0.8047395607900204 0
vt 0.62435301632958029 0.80246585657615188 0
vt 0.70081369569179608 0.80480167023904903 0
vt 0.70611079189937764 0.80055398053685256 0
vt 0.70343982759257118 0.80055713824792607 0
vt 0.70090517394820928 0.80055969931433379 0
vt 0.69841024810244756 0.8005623930534097 0
vt 0.6958625620385015 0.8005654247520555 0
vt 0.69321607144419894 0.80053703654309893 0
vt 0.62468649684974964 0.7982467698422222 0
vt 0.62215184548572733 0.79824934063813591 0
vt 0.61965692588670918 0.79825204451026766 0
vt 0.61710925219842994 0.79825508722324034 0
vt 0.95649014140949729 0.65122469586681231 0
vt 0.048981174219844034 0.80033247697646992 0
vt 0.86800061615945201 0.79453588187819146 0
vt 0.86917922286530547 0.79366564031683295 0
vt 0.045162543201620241 0.79997490168171093 0
vt 0.044582042015796061 0.80131987586224851 0
vt 0.87064398627761874 0.79365441230194744 0
vt 0.046422705150598521 0.79922822207694666 0
vt 0.8718359558565264 0.79450642130780047 0
vt 0.047881489055277358 0.79936482494128391 0
vt 0.93286410097993933 0.98799963245165734 0
vt 0.95356092182188923 0.98118428038004013 0
vt 0.90416479076568546 0.7894967209933873 0
vt 0.90642411560405445 0.79112901253025003 0
vt 0.90642356762502851 0.79259608510461754 0
vt 0.901912324545601 0.79260449520474185 0
vt 0.94916430637988058 0.98118389931642691 0
vt 0.90556432222720995 0.7937824052085265 0
vt 0.9019127897021032 0.7911379505260292 0
vt 0.90417431482032318 0.79423531180163476 0
vt 0.90277234045107246 0.78995140787898022 0
vt 0.87559800284860101 0.22411027102621378 0
vt 0.75474097463563727 0.16383404024413489 0
vt 0.61968662704362065 0.16383387967606047 0
vt 0.49882968592944193 0.22411020199808473 0
vt 0.018356794118364259 0.761255915941493 0
vt 0.47001860117969951 0.072276700530645249 0
vt 0.34916154629781537 0.012000000000000011 0
vt 0.2141070819453223 0.012000212454935225 0
vt 0.09325016944333904 0.072276592145761431 0
vt 0.018345978577517099 0.79342328249587213 0
vt 0.55428803645188385 0.71506341048232269 0
vt 0.41881134992829905 0.69641363668929746 0
vt 0.28206073469072312 0.69641043012695469 0
vt 0.14659122436651839 0.71507564855265826 0
vt 0.68626570883220395 0.78438599338979087 0
vt 0.55430387934687109 0.74730437651212978 0
vt 0.41883137544429638 0.72865058255187876 0
vt 0.28207996707174371 0.72867014386014262 0
vt 0.14660315503840454 0.74729945855373292 0
vt 0.68623785488562528 0.75220062196536452 0
vt 0.53778563273664481 0.4845071699378744 0
vt 0.93478192423974371 0.64284038905084451 0
vt 0.014637233700678431 0.78437847417937878 0
vt 0.95523586704842689 0.63796427030501346 0
vt 0.014638981282946767 0.752197065292871 0
vt 0.23480547718827502 0.27810847178281495 0
vt 0.27486675234878233 0.57816988765194244 0
vt 0.51733074169673399 0.48939482926860089 0
vt 0.78772003511275845 0.73928591521473519 0
vt 0.64038520150872247 0.42994225395158309 0
vt 0.78772003511275845 0.71431184430497729 0
vt 0.78827193881761048 0.74653908392150925 0
vt 0.78827917145562088 0.72155126750308507 0
vt 0.28740932915363987 0.75197239293071882 0
vt 0.76367715227485689 0.75648339736364567 0
vt 0.47664448803708376 0.79752740379355169 0
vt 0.7759070396541885 0.79578220286470724 0
vt 0.55718228071803222 0.77547571194391196 0
vt 0.92553831546274079 0.9879995940143389 0
vt 0.38862963264078243 0.75020788469035971 0
vt 0.55692549557617732 0.78010942737510669 0
vt 0.90416894205524156 0.79186646146168171 0
vt 0.47132060085077193 0.75932014144978843 0
vt 0.90277755339505883 0.7937865803648112 0
vt 0.37149936515372922 0.77892373811499671 0
vt 0.45849976974506229 0.79471151765229098 0
vt 0.13525122066938308 0.79153086972683528 0
vt 0.37208217968682011 0.78493644578686728 0
vt 0.37200579566386383 0.78030778043300297 0
vt 0.61446276838706615 0.79822678184232099 0
vt 0.13583828975394752 0.79754438751427537 0
vt 0.90402735672703705 0.77625292476022645 0
vt 0.13575932611657221 0.79291429906768818 0
vt 0.86755862186765398 0.79593251290286227 0
vt 0.21096269155019184 0.78181376312999262 0
vt 0.93286641895482569 0.65804042892386905 0
vt 0.21359829774868477 0.77827424648233146 0
vt 0.90663721347524384 0.77269163655000794 0
vt 0.45871529146552659 0.79007903845963001 0
vt 0.86194509597967683 0.78454757055927349 0
vt 0.23292471777452933 0.79956478853505475 0
vt 0.21941751876721233 0.79972496526211789 0
vt 0.62651505361102489 0.79386166444446538 0
vt 0.62735746014543736 0.7982436029320148 0
vt 0.61523234914375324 0.80263364519981073 0
vt 0.87338469789996043 0.79588786483905138 0
vt 0.55126857830294762 0.18015661740870162 0
vt 0.95684786803276667 0.33199065489300728 0
vt 0.4181494414976919 0.70613809198355326 0
vt 0.55230056790149762 0.72460569714457523 0
vt 0.28273178727155551 0.70613432046342828 0
vt 0.68255648063913976 0.79343079834095986 0
vt 0.14857864577732013 0.72460111487382761 0
vt 0.68251838025092804 0.76125885679420746 0
vt 0.41757951074423411 0.33199015935887566 0
vt 0.55231446896418701 0.75685469744219858 0
vt 0.41816378434890705 0.73835795153183781 0
vt 0.28274576742053187 0.73841055562063829 0
vt 0.14858623215523611 0.75683421431384734 0
vt 0.012000000000000011 0.18015655383106127 0
vt 0.71993111355894457 0.41120609293240107 0
vt 0.73404211768856498 0.42994195151065767 0
vt 0.26990663068237614 0.2489036032443884 0
vt 0.7888626154828704 0.73350266620919347 0
vt 0.2489167481325712 0.25937222324042675 0
vt 0.29336205795619225 0.24890384575938898 0
vt 0.31435189133143926 0.25937208169174469 0
vt 0.32846266919006284 0.27810821533604735 0
vt 0.78885431067047218 0.70853921057112978 0
vt 0.65449647345024808 0.41120600616026159 0
vt 0.67548586163222846 0.40073757745327404 0
vt 0.69894128890583496 0.40073783951132758 0
vt 0.90884937046784253 0.72152892001296953 0
vt 0.70926983133740162 0.77174411935249865 0
vt 0.29919031968153442 0.77315983446229453 0
vt 0.23812275042690437 0.77961126991799656 0
vt 0.30405486511933899 0.75021400314614772 0
vt 0.28176780777649341 0.78886407761485711 0
vt 0.25844214255432157 0.79132789794095404 0
vt 0.9088648274171911 0.74663858488413959 0
vt 0.77013961858025504 0.77984841215287792 0
vt 0.78026854721465244 0.75869233071455922 0
vt 0.74951062169910487 0.79101026251581663 0
vt 0.72626040421300808 0.78791438533716407 0
vt 0.72162080264093831 0.75088443282202122 0
vt 0.82835046026298853 0.79155639391216404 0
vt 0.48975567997678415 0.79330159484099783 0
vt 0.52908768655468796 0.79330159484098539 0
vt 0.47664448803708492 0.79330159484099749 0
vt 0.50286634493308513 0.79330159484098572 0
vt 0.51597719542027598 0.79330159484097906 0
vt 0.24521674974377833 0.75643010436271829 0
vt 0.7890182315938894 0.7915563939121546 0
vt 0.77590703965418895 0.79155639391215327 0
vt 0.80212911864139513 0.79155639391216048 0
vt 0.81523960977580268 0.79155639391216959 0
vt 0.44480949139764175 0.78826807550767086 0
vt 0.43116206267841944 0.78803913355324107 0
vt 0.84146112521929828 0.7957822028646967 0
vt 0.5022534616350951 0.773596727882079 0
vt 0.48886589941800423 0.77391976225082892 0
vt 0.51594290242812868 0.77332745224396771 0
vt 0.52961798327135789 0.77332775562216438 0
vt 0.54327812202997239 0.77352137196247761 0
vt 0.54219857360218704 0.79752740379356435 0
vt 0.40381593945921929 0.78825417487621863 0
vt 0.39043297337701627 0.78854344789826203 0
vt 0.41749248787034821 0.78803599487442566 0
vt 0.41754300755012524 0.79542084148204106 0
vt 0.43111253932055343 0.79541940713779569 0
vt 0.4040041169464052 0.79560115774692286 0
vt 0.40576651528566471 0.75932014144978843 0
vt 0.54311903943686002 0.7808508913618909 0
vt 0.55640711440620072 0.78148859938244009 0
vt 0.52956222086072202 0.78073212701042738 0
vt 0.51599821081808595 0.78071158114723027 0
vt 0.50247163876469858 0.78089424357576165 0
vt 0.32307554707567471 0.75020788469035982 0
vt 0.44468611679223502 0.79555819450399046 0
vt 0.45799278392577153 0.79609485454545326 0
vt 0.10829448309337637 0.7922628966552796 0
vt 0.094743133787149297 0.79225781070085943 0
vt 0.081179199691993956 0.79204042945783415 0
vt 0.067860512875867737 0.79153188556655074 0
vt 0.31739592408740275 0.77939776537534455 0
vt 0.38862963264078249 0.76711074265642654 0
vt 0.35809092288596406 0.77943038168210454 0
vt 0.34455832660104019 0.7795133646783553 0
vt 0.33097726283255235 0.77952304119459914 0
vt 0.30407032224977071 0.77896072529283178 0
vt 0.47132060085077199 0.77622299941585537 0
vt 0.1218274321245299 0.79205971341035164 0
vt 0.094675011929187286 0.79964294044994166 0
vt 0.37166887737668636 0.78645151602123731 0
vt 0.10836222213552783 0.79964279040178421 0
vt 0.081023311301129941 0.79939026366182664 0
vt 0.846785012405608 0.77277004901373081 0
vt 0.35827205507016746 0.78675744782111512 0
vt 0.34458993026234008 0.78692174557491412 0
vt 0.33093160016620687 0.78690444213920785 0
vt 0.31729387785900742 0.78669967313986988 0
vt 0.15375594550283911 0.77818561605840253 0
vt 0.12204631076011382 0.79934459236965016 0
vt 0.13542095075709132 0.7990814284992741 0
vt 0.1981694625790964 0.79028505555996587 0
vt 0.21282092279568868 0.79980355073604104 0
vt 0.59325959930989702 0.78312731590363893 0
vt 0.21467051759353825 0.79387236049030019 0
vt 0.21965319188173785 0.79016097630749293 0
vt 0.57699417545382514 0.78316003770939424 0
vt 0.57508611685849975 0.78907267933934422 0
vt 0.22586554633231151 0.79008724194090119 0
vt 0.58201324647779173 0.77949802437366422 0
vt 0.23093482577615107 0.79367906466712879 0
vt 0.58822591007162539 0.77948598282610859 0
vt 0.89128487836230785 0.78487309993982235 0
vt 0.58859423893856511 0.78904585626652302 0
vt 0.70309964067164787 0.79633669091289183 0
vt 0.61745031824550578 0.79406350756978938 0
vt 0.61528562461650049 0.79388870838712045 0
vt 0.61973286839494124 0.79406634866688564 0
vt 0.69620369228392132 0.79637383289291774 0
vt 0.69403900503525351 0.79619898884836071 0
vt 0.62205581188830639 0.7940043911298077 0
vt 0.69848623030765999 0.79637669958277291 0
vt 0.62434628700712835 0.79402631916423205 0
vt 0.70080916810529259 0.79631475488054149 0
vt 0.22632823428824692 0.79964301329680876 0
vt 0.7052763874973802 0.8049359471147064 0
vt 0.87270897827173743 0.79386167430321108 0
vt 0.049915078307226891 0.79977914876065548 0
vt 0.048311661845287936 0.79836814946522405 0
vt 0.046185090587562115 0.79816925741425915 0
vt 0.044347592231952379 0.79925813063765438 0
vt 0.043501321222853113 0.80121887195011166 0
vt 0.62652330488942365 0.80262552340761562 0
vt 0.87097152035043857 0.7926194571990629 0
vt 0.86883573174677664 0.79263590112153237 0
vt 0.86711768992053406 0.79390453373398207 0
vt 0.86647333816989125 0.79594058185145411 0
vt 0.049302232883423551 0.80176162354150982 0
vt 0.95502537570474388 0.65122469743198519 0
vt 0.92700630395326233 0.65804040417291931 0
vt 0.92554140219107672 0.65804039046790608 0
vt 0.92847137533110435 0.65804040899197203 0
vt 0.95063063775408208 0.65122470212774464 0
vt 0.94916573599184106 0.65122469578083086 0
vt 0.92993618177645243 0.65804041381157297 0
vt 0.95209540345883636 0.65122470056258708 0
vt 0.93140134757700599 0.65804041863067031 0
vt 0.9535605692593847 0.65122469899699631 0
vt 0.87229930019799584 0.79589629402262951 0
vt 0.95502572826684484 0.98118390097067976 0
vt 0.95649249569522354 0.98118389941482287 0
vt 0.95209575602093988 0.98118390410108736 0
vt 0.90556132960805547 0.78994514704986052 0
vt 0.92700321722493584 0.98799960771656925 0
vt 0.92847028990933489 0.98799961253217139 0
vt 0.93139702829292303 0.98799999999999999 0
vt 0.95062921126076927 0.98118390567719893 0
vt 0.9299350963534484 0.98799999518986237 0
vt 0.50318088921345838 0.52219071613217827 0
vt 0.012000000000000011 0.77567578189044173 0
vt 0.429392506202804 0.63809774219422943 0
vt 0.46405023661943412 0.36874867711597353 0
vt 0.34331527177337201 0.30393805277006197 0
vt 0.012000000000000011 0.74349480523270817 0
vt 0.20633905360615065 0.30404037839780185 0
vt 0.085781088912294648 0.36883479390311952 0
vt 0.012000000000000011 0.48445779967999891 0
vt 0.88144309071034177 0.52235754545496971 0
vt 0.76089241631070559 0.45759117427589285 0
vt 0.62394921867126174 0.45747670227739134 0
#end 445 textures vertices 

#begin 742 normals 
vn 0.30138999999999999 0.22079799999999999 -0.92758399999999996
vn 0.78905000000000003 0.22079799999999999 -0.57327899999999998
vn 0.80716200000000005 0.067682999999999993 -0.58643800000000001
vn 0.308307 0.067684999999999995 -0.94887600000000005
vn -0.30138999999999999 0.22079799999999999 -0.92758399999999996
vn -0.30830800000000003 0.067685999999999996 -0.94887600000000005
vn -0.78905000000000003 0.22079799999999999 -0.57327799999999995
vn -0.80716200000000005 0.067683999999999994 -0.58643699999999999
vn -0.97531999999999996 0.22079699999999999 0
vn -0.99770700000000001 0.067682999999999993 0
vn -0.78905000000000003 0.22079699999999999 0.57327799999999995
vn -0.80716200000000005 0.067683999999999994 0.58643699999999999
vn -0.30138999999999999 0.22079799999999999 0.92758399999999996
vn -0.30830800000000003 0.067683999999999994 0.94887600000000005
vn 0.30138999999999999 0.22079699999999999 0.92758399999999996
vn 0.30830800000000003 0.067683999999999994 0.94887600000000005
vn 0.78905000000000003 0.22079699999999999 0.57327899999999998
vn 0.80716200000000005 0.067682999999999993 0.58643800000000001
vn 0.97531999999999996 0.22079699999999999 0
vn 0.99770700000000001 0.067682999999999993 9.9999999999999995e-007
vn -0.52097000000000004 -0.76506399999999997 0.37850699999999998
vn -0 -1 0
vn -0.198993 -0.76506300000000005 0.61243800000000004
vn 0.198993 -0.76506300000000005 0.61243800000000004
vn 0.52097099999999996 -0.76506300000000005 0.37850699999999998
vn 0.64395500000000006 -0.76506300000000005 -0
vn 0.52097099999999996 -0.76506300000000005 -0.37850699999999998
vn 0.198993 -0.76506300000000005 -0.61243800000000004
vn -0.198993 -0.76506300000000005 -0.61243800000000004
vn -0.52097099999999996 -0.76506300000000005 -0.37850800000000001
vn -0.64395500000000006 -0.76506300000000005 -0
vn 0.80901100000000004 0.0044229999999999998 -0.58777699999999999
vn 0.52814700000000003 -0.43888700000000003 -0.72693799999999997
vn 0.52814700000000003 -0.43888700000000003 -0.72693799999999997
vn 0.30901099999999998 0.0044229999999999998 -0.951048
vn 0 -0.438886 -0.89854299999999998
vn 0 -0.438886 -0.89854299999999998
vn -0.30901099999999998 0.0044229999999999998 -0.951048
vn -0.52814700000000003 -0.43888700000000003 -0.72693799999999997
vn -0.52814700000000003 -0.43888700000000003 -0.72693799999999997
vn -0.80901100000000004 0.0044229999999999998 -0.58777699999999999
vn -0.85456799999999999 -0.43888700000000003 -0.27765299999999998
vn -0.85456799999999999 -0.43888700000000003 -0.27765299999999998
vn -0.99999000000000005 0.0044219999999999997 0
vn -0.85456799999999999 -0.43888700000000003 0.27765400000000001
vn -0.85456799999999999 -0.43888700000000003 0.27765400000000001
vn -0.80901100000000004 0.0044229999999999998 0.58777699999999999
vn -0.52814700000000003 -0.43888700000000003 0.72693799999999997
vn -0.52814700000000003 -0.43888700000000003 0.72693799999999997
vn -0.30901099999999998 0.0044229999999999998 0.951048
vn 0 -0.438886 0.89854299999999998
vn 0 -0.438886 0.89854299999999998
vn 0.30901099999999998 0.0044219999999999997 0.951048
vn 0.52814700000000003 -0.43888700000000003 0.72693799999999997
vn 0.52814700000000003 -0.43888700000000003 0.72693799999999997
vn 0.80901100000000004 0.0044229999999999998 0.58777699999999999
vn 0.85456799999999999 -0.43888700000000003 0.27765299999999998
vn 0.85456900000000002 -0.43888700000000003 0.27765299999999998
vn 0.99999000000000005 0.0044219999999999997 -0
vn 0.85456799999999999 -0.43888700000000003 -0.27765299999999998
vn 0.85456799999999999 -0.43888700000000003 -0.27765299999999998
vn 0.75336999999999998 0.36447299999999999 -0.54735100000000003
vn 0.28775800000000001 0.36447099999999999 -0.88563899999999995
vn -0.28775800000000001 0.36447099999999999 -0.88563899999999995
vn -0.75336999999999998 0.36447200000000002 -0.54735100000000003
vn -0.93121500000000001 0.36447000000000002 0
vn -0.75336999999999998 0.36447200000000002 0.54735100000000003
vn -0.28775800000000001 0.36447099999999999 0.88563899999999995
vn 0.28775800000000001 0.36447099999999999 0.88563899999999995
vn 0.75336999999999998 0.36447200000000002 0.54735100000000003
vn 0.93121500000000001 0.36447000000000002 0
vn 0 1 -0
vn 0 1 -0
vn 0 1 -0
vn 0 1 -0
vn 0 1 0
vn 0 1 0
vn 0 1 0
vn 0 1 0
vn 0 1 -0
vn 0 1 -0
vn 0 1 -0
vn 0 1 -0
vn 0 1 0
vn 0 1 0
vn 0 1 0
vn 0 1 0
vn 0 1 -0
vn 0 1 -0
vn 0 1 -0
vn 0 1 -0
vn 0 1 0
vn 0 1 0
vn 0 1 0
vn 0 1 0
vn 0 1 -0
vn 0 1 -0
vn 0 1 -0
vn 0 1 -0
vn 0 1 0
vn 0 1 0
vn 0 1 0
vn 0 1 0
vn 0 1 -0
vn 0 1 -0
vn 0 1 -0
vn 0 1 -0
vn 0 1 0
vn 0 1 0
vn 0 1 0
vn 0 1 0
vn 0 -1 0
vn 0 -1 0
vn 0 -1 0
vn 0 -1 0
vn 0 -1 9.9999999999999995e-007
vn 0 -1 9.9999999999999995e-007
vn 0 -1 9.9999999999999995e-007
vn 0 -1 9.9999999999999995e-007
vn 0 -1 0
vn 0 -1 0
vn 0 -1 0
vn 0 -1 0
vn 0 -1 -9.9999999999999995e-007
vn 0 -1 -9.9999999999999995e-007
vn 0 -1 -9.9999999999999995e-007
vn 0 -1 -9.9999999999999995e-007
vn 0 -1 -0
vn 0 -1 -0
vn 0 -1 -0
vn 0 -1 -0
vn 0 -1 0
vn 0 -1 0
vn 0 -1 0
vn 0 -1 0
vn 0 -1 -0
vn 0 -1 -0
vn 0 -1 -0
vn 0 -1 -0
vn 0 -1 0
vn 0 -1 0
vn 0 -1 0
vn 0 -1 0
vn 0 -1 9.9999999999999995e-007
vn 0 -1 9.9999999999999995e-007
vn 0 -1 9.9999999999999995e-007
vn 0 -1 9.9999999999999995e-007
vn 0 -1 0
vn 0 -1 0
vn 0 -1 0
vn 0 -1 0
vn 0.95106199999999996 0 -0.30900100000000003
vn 0.95106199999999996 0 -0.30900100000000003
vn 0.95106199999999996 0 -0.30900100000000003
vn 0.95106199999999996 0 -0.30900100000000003
vn 0.58778399999999997 0 -0.80901800000000001
vn 0.58778399999999997 0 -0.80901800000000001
vn 0.58778399999999997 0 -0.80901800000000001
vn 0.58778399999999997 0 -0.80901800000000001
vn 0 0 -1
vn 0 0 -1
vn 0 0 -1
vn 0 0 -1
vn -0.58778399999999997 0 -0.80901800000000001
vn -0.58778399999999997 0 -0.80901800000000001
vn -0.58778399999999997 0 -0.80901800000000001
vn -0.58778399999999997 0 -0.80901800000000001
vn -0.95106199999999996 0 -0.30900100000000003
vn -0.95106199999999996 0 -0.30900100000000003
vn -0.95106199999999996 0 -0.30900100000000003
vn -0.95106199999999996 0 -0.30900100000000003
vn -0.95106199999999996 0 0.30900100000000003
vn -0.95106199999999996 0 0.30900100000000003
vn -0.95106199999999996 0 0.30900100000000003
vn -0.95106199999999996 0 0.30900100000000003
vn -0.58778399999999997 0 0.80901800000000001
vn -0.58778399999999997 0 0.80901800000000001
vn -0.58778399999999997 0 0.80901800000000001
vn -0.58778399999999997 0 0.80901800000000001
vn 0 0 1
vn 0 0 1
vn 0 0 1
vn 0 0 1
vn 0.58778399999999997 0 0.80901800000000001
vn 0.58778399999999997 0 0.80901800000000001
vn 0.58778399999999997 0 0.80901800000000001
vn 0.58778399999999997 0 0.80901800000000001
vn 0.95106199999999996 0 0.30900100000000003
vn 0.95106199999999996 0 0.30900100000000003
vn 0.95106199999999996 0 0.30900100000000003
vn 0.95106199999999996 0 0.30900100000000003
vn -6.0000000000000002e-006 1 1.0000000000000001e-005
vn -6.0000000000000002e-006 1 5.0000000000000004e-006
vn 3.9999999999999998e-006 1 3.0000000000000001e-005
vn -9.0000000000000002e-006 1 2.0000000000000002e-005
vn -1.9000000000000001e-005 1 1.5e-005
vn 1.0000000000000001e-005 1 -2.0000000000000002e-005
vn -2.5000000000000001e-005 1 -3.0000000000000001e-005
vn -1.9000000000000001e-005 1 2.0000000000000002e-005
vn 1.9000000000000001e-005 1 -1.5e-005
vn -3.4e-005 1 -5.0000000000000004e-006
vn 1.9000000000000001e-005 1 2.5000000000000001e-005
vn 0.95106199999999996 0 0.30900100000000003
vn 0.95106199999999996 0 0.30900100000000003
vn 0.95106199999999996 0 0.30900100000000003
vn 0.95106199999999996 0 0.30900100000000003
vn 0.58778399999999997 0 0.80901800000000001
vn 0.58778399999999997 0 0.80901800000000001
vn 0.58778399999999997 0 0.80901800000000001
vn 0.58778399999999997 0 0.80901800000000001
vn 0 0 1
vn 0 0 1
vn 0 0 1
vn 0 0 1
vn -0.58778399999999997 0 0.80901800000000001
vn -0.58778399999999997 0 0.80901800000000001
vn -0.58778399999999997 0 0.80901800000000001
vn -0.58778399999999997 0 0.80901800000000001
vn -0.95106199999999996 0 0.30900100000000003
vn -0.95106199999999996 0 0.30900100000000003
vn -0.95106199999999996 0 0.30900100000000003
vn -0.95106199999999996 0 0.30900100000000003
vn -0.95106199999999996 0 -0.30900100000000003
vn -0.95106199999999996 0 -0.30900100000000003
vn -0.95106199999999996 0 -0.30900100000000003
vn -0.95106199999999996 0 -0.30900100000000003
vn -0.58778399999999997 0 -0.80901800000000001
vn -0.58778399999999997 0 -0.80901800000000001
vn -0.58778399999999997 0 -0.80901800000000001
vn -0.58778399999999997 0 -0.80901800000000001
vn 0 0 -1
vn 0 0 -1
vn 0 0 -1
vn 0 0 -1
vn 0.58778399999999997 0 -0.80901800000000001
vn 0.58778399999999997 0 -0.80901800000000001
vn 0.58778399999999997 0 -0.80901800000000001
vn 0.58778399999999997 0 -0.80901800000000001
vn 0.95106199999999996 0 -0.30900100000000003
vn 0.95106199999999996 0 -0.30900100000000003
vn 0.95106199999999996 0 -0.30900100000000003
vn 0.95106199999999996 0 -0.30900100000000003
vn 0.95106199999999996 0 0.30900100000000003
vn 0.95106199999999996 0 0.30900100000000003
vn 0.95106199999999996 0 0.30900100000000003
vn 0.95106199999999996 0 0.30900100000000003
vn 0.58778399999999997 0 0.80901800000000001
vn 0.58778399999999997 0 0.80901800000000001
vn 0.58778399999999997 0 0.80901800000000001
vn 0.58778399999999997 0 0.80901800000000001
vn 0 0 1
vn 0 0 1
vn 0 0 1
vn 0 0 1
vn -0.58778399999999997 0 0.80901800000000001
vn -0.58778399999999997 0 0.80901800000000001
vn -0.58778399999999997 0 0.80901800000000001
vn -0.58778399999999997 0 0.80901800000000001
vn -0.95106199999999996 0 0.30900100000000003
vn -0.95106199999999996 0 0.30900100000000003
vn -0.95106199999999996 0 0.30900100000000003
vn -0.95106199999999996 0 0.30900100000000003
vn -0.95106199999999996 0 -0.30900100000000003
vn -0.95106199999999996 0 -0.30900100000000003
vn -0.95106199999999996 0 -0.30900100000000003
vn -0.95106199999999996 0 -0.30900100000000003
vn -0.58778399999999997 0 -0.80901800000000001
vn -0.58778399999999997 0 -0.80901800000000001
vn -0.58778399999999997 0 -0.80901800000000001
vn -0.58778399999999997 0 -0.80901800000000001
vn 0 0 -1
vn 0 0 -1
vn 0 0 -1
vn 0 0 -1
vn 0.58778399999999997 0 -0.80901800000000001
vn 0.58778399999999997 0 -0.80901800000000001
vn 0.58778399999999997 0 -0.80901800000000001
vn 0.58778399999999997 0 -0.80901800000000001
vn 0.95106199999999996 0 -0.30900100000000003
vn 0.95106199999999996 0 -0.30900100000000003
vn 0.95106199999999996 0 -0.30900100000000003
vn 0.95106199999999996 0 -0.30900100000000003
vn 0.95106199999999996 0 0.30900100000000003
vn 0.95106199999999996 0 0.30900100000000003
vn 0.79384999999999994 0.55070600000000003 0.25792300000000001
vn 0.793852 0.55070399999999997 0.25792399999999999
vn 0.58778399999999997 0 0.80901800000000001
vn 0.58778399999999997 0 0.80901800000000001
vn 0.490624 0.55070399999999997 0.675288
vn 0.49062299999999998 0.550705 0.67528699999999997
vn 0 0 1
vn 0 0 1
vn 0 0.55070399999999997 0.83470100000000003
vn 0 0.55070399999999997 0.83470100000000003
vn -0.58778399999999997 0 0.80901800000000001
vn -0.58778399999999997 0 0.80901800000000001
vn -0.49062299999999998 0.550705 0.67528699999999997
vn -0.490624 0.55070399999999997 0.675288
vn -0.95106199999999996 0 0.30900100000000003
vn -0.95106199999999996 0 0.30900100000000003
vn -0.793852 0.55070399999999997 0.25792399999999999
vn -0.79384999999999994 0.55070600000000003 0.25792300000000001
vn -0.95106199999999996 0 -0.30900100000000003
vn -0.95106199999999996 0 -0.30900100000000003
vn -0.79384999999999994 0.55070600000000003 -0.25792300000000001
vn -0.793852 0.55070399999999997 -0.25792300000000001
vn -0.58778399999999997 0 -0.80901800000000001
vn -0.58778399999999997 0 -0.80901800000000001
vn -0.490624 0.55070399999999997 -0.675288
vn -0.49062299999999998 0.550705 -0.67528699999999997
vn 0 0 -1
vn 0 0 -1
vn 0 0.55070399999999997 -0.83470100000000003
vn 0 0.55070399999999997 -0.83470100000000003
vn 0.58778399999999997 0 -0.80901800000000001
vn 0.58778399999999997 0 -0.80901800000000001
vn 0.49062299999999998 0.550705 -0.67528699999999997
vn 0.490624 0.55070399999999997 -0.675288
vn 0.95106199999999996 0 -0.30900100000000003
vn 0.95106199999999996 0 -0.30900100000000003
vn 0.793852 0.55070399999999997 -0.25792300000000001
vn 0.79384999999999994 0.55070600000000003 -0.25792300000000001
vn 0.95106199999999996 0 0.30900100000000003
vn 0.95106199999999996 0 0.30900100000000003
vn 0.95106199999999996 0 0.30900100000000003
vn 0.95106199999999996 0 0.30900100000000003
vn 0.58778399999999997 0 0.80901800000000001
vn 0.58778399999999997 0 0.80901800000000001
vn 0.58778399999999997 0 0.80901800000000001
vn 0.58778399999999997 0 0.80901800000000001
vn 0 0 1
vn 0 0 1
vn 0 0 1
vn 0 0 1
vn -0.58778399999999997 0 0.80901800000000001
vn -0.58778399999999997 0 0.80901800000000001
vn -0.58778399999999997 0 0.80901800000000001
vn -0.58778399999999997 0 0.80901800000000001
vn -0.95106199999999996 0 0.30900100000000003
vn -0.95106199999999996 0 0.30900100000000003
vn -0.95106199999999996 0 0.30900100000000003
vn -0.95106199999999996 0 0.30900100000000003
vn -0.95106199999999996 0 -0.30900100000000003
vn -0.95106199999999996 0 -0.30900100000000003
vn -0.95106199999999996 0 -0.30900100000000003
vn -0.95106199999999996 0 -0.30900100000000003
vn -0.58778399999999997 0 -0.80901800000000001
vn -0.58778399999999997 0 -0.80901800000000001
vn -0.58778399999999997 0 -0.80901800000000001
vn -0.58778399999999997 0 -0.80901800000000001
vn 0 0 -1
vn 0 0 -1
vn 0 0 -1
vn 0 0 -1
vn 0.58778399999999997 0 -0.80901800000000001
vn 0.58778399999999997 0 -0.80901800000000001
vn 0.58778399999999997 0 -0.80901800000000001
vn 0.58778399999999997 0 -0.80901800000000001
vn 0.95106199999999996 0 -0.30900100000000003
vn 0.95106199999999996 0 -0.30900100000000003
vn 0.95106199999999996 0 -0.30900100000000003
vn 0.95106199999999996 0 -0.30900100000000003
vn 0.36746000000000001 -0.92234499999999997 0.11938799999999999
vn 0.36746000000000001 -0.92234499999999997 0.11938799999999999
vn 0.36746000000000001 -0.92234499999999997 0.11938799999999999
vn 0.36746000000000001 -0.92234499999999997 0.11938799999999999
vn -0.50600299999999998 0.846719 -0.16440099999999999
vn -0.50600299999999998 0.846719 -0.16440099999999999
vn -0.50600299999999998 0.846719 -0.16440099999999999
vn -0.50600299999999998 0.846719 -0.16440099999999999
vn 0.227101 -0.92234400000000005 0.31258000000000002
vn 0.227101 -0.92234400000000005 0.31258000000000002
vn 0.227101 -0.92234400000000005 0.31258000000000002
vn 0.227101 -0.92234400000000005 0.31258000000000002
vn -0.31272499999999998 0.846719 -0.43042999999999998
vn -0.31272499999999998 0.846719 -0.43042999999999998
vn -0.31272499999999998 0.846719 -0.43042999999999998
vn -0.31272499999999998 0.846719 -0.43042999999999998
vn 0 -0.92234499999999997 0.38636799999999999
vn 0 -0.92234499999999997 0.38636799999999999
vn 0 -0.92234499999999997 0.38636799999999999
vn 0 -0.92234499999999997 0.38636799999999999
vn 0 0.84671799999999997 -0.53204099999999999
vn 0 0.84671799999999997 -0.53204099999999999
vn 0 0.84671799999999997 -0.53204099999999999
vn 0 0.84671799999999997 -0.53204099999999999
vn -0.227101 -0.92234400000000005 0.31258000000000002
vn -0.227101 -0.92234400000000005 0.31258000000000002
vn -0.227101 -0.92234400000000005 0.31258000000000002
vn -0.227101 -0.92234400000000005 0.31258000000000002
vn 0.31272499999999998 0.846719 -0.43043100000000001
vn 0.31272499999999998 0.846719 -0.43043100000000001
vn 0.31272499999999998 0.846719 -0.43043100000000001
vn 0.31272499999999998 0.846719 -0.43043100000000001
vn -0.36746000000000001 -0.92234499999999997 0.11938799999999999
vn -0.36746000000000001 -0.92234499999999997 0.11938799999999999
vn -0.36746000000000001 -0.92234499999999997 0.11938799999999999
vn -0.36746000000000001 -0.92234499999999997 0.11938799999999999
vn 0.50600299999999998 0.846719 -0.16440099999999999
vn 0.50600299999999998 0.846719 -0.16440099999999999
vn 0.50600299999999998 0.846719 -0.16440099999999999
vn 0.50600299999999998 0.846719 -0.16440099999999999
vn -0.36745899999999998 -0.92234499999999997 -0.11938799999999999
vn -0.36745899999999998 -0.92234499999999997 -0.11938799999999999
vn -0.36745899999999998 -0.92234499999999997 -0.11938799999999999
vn -0.36745899999999998 -0.92234499999999997 -0.11938799999999999
vn 0.50600299999999998 0.846719 0.16440099999999999
vn 0.50600299999999998 0.846719 0.16440099999999999
vn 0.50600299999999998 0.846719 0.16440099999999999
vn 0.50600299999999998 0.846719 0.16440099999999999
vn -0.227101 -0.92234400000000005 -0.31258000000000002
vn -0.227101 -0.92234400000000005 -0.31258000000000002
vn -0.227101 -0.92234400000000005 -0.31258000000000002
vn -0.227101 -0.92234400000000005 -0.31258000000000002
vn 0.31272499999999998 0.846719 0.43042999999999998
vn 0.31272499999999998 0.846719 0.43042999999999998
vn 0.31272499999999998 0.846719 0.43042999999999998
vn 0.31272499999999998 0.846719 0.43042999999999998
vn 0 -0.92234499999999997 -0.38636799999999999
vn 0 -0.92234499999999997 -0.38636799999999999
vn 0 -0.92234499999999997 -0.38636799999999999
vn 0 -0.92234499999999997 -0.38636799999999999
vn 0 0.84671799999999997 0.53204099999999999
vn 0 0.84671799999999997 0.53204099999999999
vn 0 0.84671799999999997 0.53204099999999999
vn 0 0.84671799999999997 0.53204099999999999
vn 0.227101 -0.92234400000000005 -0.31258000000000002
vn 0.227101 -0.92234400000000005 -0.31258000000000002
vn 0.227101 -0.92234400000000005 -0.31258000000000002
vn 0.227101 -0.92234400000000005 -0.31258000000000002
vn -0.31272499999999998 0.846719 0.43043100000000001
vn -0.31272499999999998 0.846719 0.43043100000000001
vn -0.31272499999999998 0.846719 0.43043100000000001
vn -0.31272499999999998 0.846719 0.43043100000000001
vn 0.36746000000000001 -0.92234499999999997 -0.11938799999999999
vn 0.36746000000000001 -0.92234499999999997 -0.11938799999999999
vn 0.36746000000000001 -0.92234499999999997 -0.11938799999999999
vn 0.36746000000000001 -0.92234499999999997 -0.11938799999999999
vn -0.50600299999999998 0.846719 0.16440099999999999
vn -0.50600299999999998 0.846719 0.16440099999999999
vn -0.50600299999999998 0.846719 0.16440099999999999
vn -0.50600299999999998 0.846719 0.16440099999999999
vn -0.50599300000000003 -0.84672599999999998 -0.16439799999999999
vn -0.50599300000000003 -0.84672599999999998 -0.16439799999999999
vn -0.50599300000000003 -0.84672599999999998 -0.16439799999999999
vn -0.50599300000000003 -0.84672599999999998 -0.16439799999999999
vn 0.36746000000000001 0.92234499999999997 0.11938699999999999
vn 0.36746000000000001 0.92234499999999997 0.11938699999999999
vn 0.36746000000000001 0.92234499999999997 0.11938699999999999
vn 0.36746000000000001 0.92234499999999997 0.11938799999999999
vn -0.31271900000000002 -0.84672599999999998 -0.430421
vn -0.31271900000000002 -0.84672599999999998 -0.430421
vn -0.31271900000000002 -0.84672599999999998 -0.430421
vn -0.31271900000000002 -0.84672599999999998 -0.430421
vn 0.227101 0.92234499999999997 0.31257800000000002
vn 0.227101 0.92234499999999997 0.31257800000000002
vn 0.227101 0.92234499999999997 0.31257800000000002
vn 0.227101 0.92234499999999997 0.31257800000000002
vn 0 -0.84672499999999995 -0.53203100000000003
vn 0 -0.84672499999999995 -0.53203100000000003
vn 0 -0.84672499999999995 -0.53203100000000003
vn 0 -0.84672499999999995 -0.53203100000000003
vn 0 0.92234499999999997 0.38636700000000002
vn 0 0.92234499999999997 0.38636700000000002
vn 0 0.92234499999999997 0.38636700000000002
vn 0 0.92234499999999997 0.38636700000000002
vn 0.31271900000000002 -0.84672499999999995 -0.43042200000000003
vn 0.31271900000000002 -0.84672499999999995 -0.430423
vn 0.31271900000000002 -0.84672499999999995 -0.430423
vn 0.31271900000000002 -0.84672499999999995 -0.43042200000000003
vn -0.227101 0.92234499999999997 0.312579
vn -0.227101 0.92234499999999997 0.312579
vn -0.227101 0.92234499999999997 0.312579
vn -0.227101 0.92234499999999997 0.312579
vn 0.50599300000000003 -0.84672599999999998 -0.16439699999999999
vn 0.50599300000000003 -0.84672599999999998 -0.16439699999999999
vn 0.50599300000000003 -0.84672599999999998 -0.16439699999999999
vn 0.50599300000000003 -0.84672599999999998 -0.16439699999999999
vn -0.36746000000000001 0.92234499999999997 0.11938699999999999
vn -0.36746000000000001 0.92234499999999997 0.11938699999999999
vn -0.36746000000000001 0.92234499999999997 0.11938699999999999
vn -0.36746000000000001 0.92234499999999997 0.11938699999999999
vn 0.50599300000000003 -0.84672599999999998 0.16439699999999999
vn 0.505992 -0.84672599999999998 0.16439699999999999
vn 0.50599300000000003 -0.84672599999999998 0.16439699999999999
vn 0.50599300000000003 -0.84672599999999998 0.16439699999999999
vn -0.36746000000000001 0.92234499999999997 -0.11938699999999999
vn -0.36746000000000001 0.92234499999999997 -0.11938699999999999
vn -0.36745899999999998 0.92234499999999997 -0.11938699999999999
vn -0.36745899999999998 0.92234499999999997 -0.11938699999999999
vn 0.31271900000000002 -0.84672599999999998 0.430421
vn 0.31271900000000002 -0.84672599999999998 0.430421
vn 0.31271900000000002 -0.84672599999999998 0.430421
vn 0.31271900000000002 -0.84672599999999998 0.430421
vn -0.227101 0.92234499999999997 -0.31257800000000002
vn -0.227101 0.92234499999999997 -0.31257800000000002
vn -0.227101 0.92234499999999997 -0.31257800000000002
vn -0.227101 0.92234499999999997 -0.31257800000000002
vn 0 -0.84672499999999995 0.53203100000000003
vn 0 -0.84672499999999995 0.53203100000000003
vn 0 -0.84672499999999995 0.53203100000000003
vn 0 -0.84672499999999995 0.53203100000000003
vn 0 0.92234499999999997 -0.38636700000000002
vn 0 0.92234499999999997 -0.38636700000000002
vn 0 0.92234499999999997 -0.38636700000000002
vn 0 0.92234499999999997 -0.38636700000000002
vn -0.31271900000000002 -0.84672499999999995 0.43042200000000003
vn -0.312718 -0.84672499999999995 0.43042200000000003
vn -0.31271900000000002 -0.84672499999999995 0.43042200000000003
vn -0.31271900000000002 -0.84672499999999995 0.43042200000000003
vn 0.227101 0.92234499999999997 -0.312579
vn 0.227101 0.92234499999999997 -0.312579
vn 0.227101 0.92234499999999997 -0.312579
vn 0.227101 0.92234499999999997 -0.312579
vn -0.50599300000000003 -0.84672599999999998 0.16439699999999999
vn -0.50599300000000003 -0.84672599999999998 0.16439699999999999
vn -0.50599300000000003 -0.84672599999999998 0.16439699999999999
vn -0.50599300000000003 -0.84672599999999998 0.16439699999999999
vn 0.36746000000000001 0.92234499999999997 -0.11938699999999999
vn 0.36746000000000001 0.92234499999999997 -0.11938699999999999
vn 0.36746000000000001 0.92234499999999997 -0.11938699999999999
vn 0.36746000000000001 0.92234499999999997 -0.11938699999999999
vn -0.38789099999999999 0.75133399999999995 0.53388899999999995
vn -0.38789099999999999 0.75133399999999995 0.53388899999999995
vn 0 0.75133399999999995 0.65992200000000001
vn 0 0.75133399999999995 0.65992200000000001
vn 0.38789099999999999 0.75133399999999995 0.53388899999999995
vn 0.38789099999999999 0.75133399999999995 0.53388899999999995
vn 0 0.75133399999999995 -0.65992200000000001
vn 0 0.75133399999999995 -0.65992200000000001
vn 0.62762600000000002 0.75133399999999995 0.20391699999999999
vn 0.62762600000000002 0.75133399999999995 0.20391699999999999
vn -0.38789099999999999 0.75133399999999995 -0.53388899999999995
vn -0.38789099999999999 0.75133399999999995 -0.53388899999999995
vn 0.62762600000000002 0.75133499999999998 -0.20391699999999999
vn 0.62762600000000002 0.75133499999999998 -0.20391699999999999
vn -0.62762600000000002 0.75133399999999995 -0.20391699999999999
vn -0.62762600000000002 0.75133499999999998 -0.20391699999999999
vn 0.38789099999999999 0.75133399999999995 -0.53388899999999995
vn 0.38789099999999999 0.75133399999999995 -0.53388899999999995
vn -0.62762600000000002 0.75133499999999998 0.20391699999999999
vn -0.62762600000000002 0.75133499999999998 0.20391699999999999
vn 0 1 0
vn 0 1 0
vn 0 1 0
vn 0 1 0
vn 0 1 -0
vn 0 1 -0
vn 0 1 -0
vn 0 1 -0
vn 0 1 -0
vn 0 1 -0
vn 0 1 -0
vn 0 1 -0
vn 0 1 0
vn 0 1 0
vn 0 1 0
vn 0 1 0
vn 0 1 0
vn 0 1 0
vn 0 1 0
vn 0 1 0
vn 0 1 0
vn 0 1 0
vn 0 1 0
vn 0 1 0
vn 0 1 0
vn 0 1 0
vn 0 1 0
vn 0 1 0
vn 0 1 0
vn 0 1 0
vn 0 1 0
vn 0 1 0
vn 0 1 0
vn 0 1 0
vn 0 1 0
vn 0 1 0
vn 0 1 0
vn 0 1 0
vn 0 1 0
vn 0 1 0
vn -0.57442400000000005 -0.21204000000000001 0.79061700000000001
vn -0.57442400000000005 -0.21204000000000001 0.79061800000000004
vn -0.58779499999999996 -1.9999999999999999e-006 0.80901000000000001
vn -0.58779499999999996 -3.0000000000000001e-006 0.80901000000000001
vn 0 -0.21204600000000001 0.97726000000000002
vn 0 -0.21204600000000001 0.97726000000000002
vn 0 -1.0000000000000001e-005 1
vn 0 -1.0000000000000001e-005 1
vn 0.57442400000000005 -0.21204000000000001 0.79061800000000004
vn 0.57442400000000005 -0.21204000000000001 0.79061700000000001
vn 0.58779499999999996 -3.0000000000000001e-006 0.80901000000000001
vn 0.58779499999999996 -1.9999999999999999e-006 0.80901000000000001
vn 0 -0.21204600000000001 -0.97726000000000002
vn 0 -0.21204600000000001 -0.97726000000000002
vn 0 -1.0000000000000001e-005 -1
vn 0 -1.0000000000000001e-005 -1
vn 0.92943600000000004 -0.212036 0.301977
vn 0.92943600000000004 -0.212036 0.301977
vn 0.95106100000000005 -0 0.30900300000000003
vn 0.95106100000000005 -0 0.30900300000000003
vn -0.57442400000000005 -0.21204000000000001 -0.79061800000000004
vn -0.57442400000000005 -0.21204000000000001 -0.79061700000000001
vn -0.58779499999999996 -3.0000000000000001e-006 -0.80901000000000001
vn -0.58779499999999996 -1.9999999999999999e-006 -0.80901000000000001
vn 0.92943600000000004 -0.212035 -0.301977
vn 0.92943600000000004 -0.212036 -0.301977
vn 0.95106100000000005 -0 -0.30900300000000003
vn 0.95106100000000005 -0 -0.30900300000000003
vn -0.92943600000000004 -0.212035 -0.301977
vn -0.92943600000000004 -0.212035 -0.301977
vn -0.95106100000000005 -0 -0.30900300000000003
vn -0.95106100000000005 -0 -0.30900300000000003
vn 0.57442400000000005 -0.21204000000000001 -0.79061700000000001
vn 0.57442400000000005 -0.21204000000000001 -0.79061800000000004
vn 0.58779499999999996 -1.9999999999999999e-006 -0.80901000000000001
vn 0.58779499999999996 -3.0000000000000001e-006 -0.80901000000000001
vn -0.92943600000000004 -0.212036 0.301977
vn -0.92943600000000004 -0.212036 0.301977
vn -0.95106100000000005 -0 0.30900300000000003
vn -0.95106100000000005 -0 0.30900300000000003
vn -0.57443599999999995 0.212032 0.79061099999999995
vn -0.57443599999999995 0.212032 0.79061099999999995
vn -0.92943600000000004 0.212035 0.301977
vn -0.92943600000000004 0.212035 0.301977
vn -0.92943600000000004 0.212035 -0.301977
vn -0.92943600000000004 0.212035 -0.301977
vn -0.57443599999999995 0.212032 -0.79061099999999995
vn -0.57443599999999995 0.212032 -0.79061099999999995
vn 0 0.21202799999999999 -0.97726400000000002
vn 0 0.21202799999999999 -0.97726400000000002
vn 0.57443599999999995 0.212032 -0.79061099999999995
vn 0.57443599999999995 0.212032 -0.79061099999999995
vn 0.92943600000000004 0.212035 -0.301977
vn 0.92943600000000004 0.212035 -0.301977
vn 0.92943600000000004 0.212036 0.301977
vn 0.92943600000000004 0.212036 0.301977
vn 0.57443599999999995 0.212032 0.79061099999999995
vn 0.57443599999999995 0.212032 0.79061099999999995
vn 0 0.21202799999999999 0.97726400000000002
vn 0 0.21202799999999999 0.97726400000000002
vn 0 1 -9.9999999999999995e-007
vn 0 1 -9.9999999999999995e-007
vn 0 1 -9.9999999999999995e-007
vn 0 1 -9.9999999999999995e-007
vn 0 1 0
vn 0 1 0
vn 0 1 0
vn 0 1 0
vn 0 1 -0
vn 0 1 -0
vn 0 1 -0
vn 0 1 -0
vn 0 1 -0
vn 0 1 -0
vn 0 1 -0
vn 0 1 -0
vn 0 1 0
vn 0 1 0
vn 0 1 0
vn 0 1 0
vn 0 1 0
vn 0 1 0
vn 0 1 0
vn 0 1 0
vn 0 1 0
vn 0 1 0
vn 0 1 0
vn 0 1 0
vn 0 1 0
vn 0 1 0
vn 0 1 0
vn 0 1 0
vn 0 1 9.9999999999999995e-007
vn 0 1 9.9999999999999995e-007
vn 0 1 9.9999999999999995e-007
vn 0 1 9.9999999999999995e-007
vn 0 1 0
vn 0 1 0
vn 0 1 0
vn 0 1 0
vn -0.58854799999999996 -3.9999999999999998e-006 0.80846200000000001
vn -0.58854799999999996 -3.9999999999999998e-006 0.80846200000000001
vn -0.58854799999999996 -3.9999999999999998e-006 0.80846200000000001
vn -0.58854799999999996 -3.9999999999999998e-006 0.80846200000000001
vn 0 -1.0000000000000001e-005 1
vn 0 -1.0000000000000001e-005 1
vn 0 -1.0000000000000001e-005 1
vn 0 -1.0000000000000001e-005 1
vn 0.58854799999999996 -3.9999999999999998e-006 0.80846200000000001
vn 0.58854799999999996 -3.9999999999999998e-006 0.80846200000000001
vn 0.58854799999999996 -3.9999999999999998e-006 0.80846200000000001
vn 0.58854799999999996 -3.9999999999999998e-006 0.80846200000000001
vn 0.001134 -5.0000000000000004e-006 -0.99999899999999997
vn 0.001134 -5.0000000000000004e-006 -0.99999899999999997
vn 0.001134 -5.0000000000000004e-006 -0.99999899999999997
vn 0.001134 -5.0000000000000004e-006 -0.99999899999999997
vn 0.95106100000000005 -0 0.30900300000000003
vn 0.95106100000000005 -0 0.30900300000000003
vn 0.95106100000000005 -0 0.30900300000000003
vn 0.95106100000000005 -0 0.30900300000000003
vn -0.58854799999999996 -3.9999999999999998e-006 -0.80846200000000001
vn -0.58854799999999996 -3.9999999999999998e-006 -0.80846200000000001
vn -0.58854799999999996 -3.9999999999999998e-006 -0.80846200000000001
vn -0.58854799999999996 -3.9999999999999998e-006 -0.80846200000000001
vn 0.95095300000000005 1.9999999999999999e-006 -0.309336
vn 0.95095300000000005 1.9999999999999999e-006 -0.309336
vn 0.95095300000000005 1.9999999999999999e-006 -0.309336
vn 0.95095300000000005 1.9999999999999999e-006 -0.309336
vn -0.95106100000000005 -0 -0.30900300000000003
vn -0.95106100000000005 -0 -0.30900300000000003
vn -0.95106100000000005 -0 -0.30900300000000003
vn -0.95106100000000005 -0 -0.30900300000000003
vn 0.58854799999999996 3.9999999999999998e-006 -0.80846200000000001
vn 0.58854799999999996 3.9999999999999998e-006 -0.80846200000000001
vn 0.58854799999999996 3.9999999999999998e-006 -0.80846200000000001
vn 0.58854799999999996 3.9999999999999998e-006 -0.80846200000000001
vn -0.95106100000000005 0 0.30900300000000003
vn -0.95106100000000005 0 0.30900300000000003
vn -0.95106100000000005 0 0.30900300000000003
vn -0.95106100000000005 0 0.30900300000000003
vn 0.67049899999999996 0.74190999999999996 0
vn 0.69627799999999995 0.71777199999999997 0
vn 0.56330100000000005 0.71777199999999997 -0.40926200000000001
vn 0.54244499999999995 0.74191099999999999 -0.39410899999999999
vn 0.54244599999999998 0.74190999999999996 0.39410899999999999
vn 0.56330100000000005 0.71777199999999997 0.40926200000000001
vn 0.20719499999999999 0.74190999999999996 0.637683
vn 0.21516099999999999 0.71777199999999997 0.66220000000000001
vn -0.20719499999999999 0.74190999999999996 0.637683
vn -0.21516099999999999 0.71777199999999997 0.66220000000000001
vn -0.54244599999999998 0.74190999999999996 0.39410899999999999
vn -0.56330100000000005 0.71777199999999997 0.40926200000000001
vn -0.67049899999999996 0.74190999999999996 0
vn -0.69627799999999995 0.71777199999999997 0
vn -0.54244599999999998 0.74190999999999996 -0.39410899999999999
vn -0.56330100000000005 0.71777199999999997 -0.40926200000000001
vn -0.20719499999999999 0.74190999999999996 -0.637683
vn -0.21516099999999999 0.71777199999999997 -0.66220000000000001
vn 0.20719499999999999 0.74190999999999996 -0.637683
vn 0.21516099999999999 0.71777199999999997 -0.66220000000000001
#end 742 normals 

#begin 240 faces
usemtl initialShadingGroup
g pCylinder11
s 1
f 232/232/1 223/223/2 1/1/3 2/2/4 
f 231/231/5 232/235/1 2/435/4 3/3/6 
f 230/230/7 231/231/5 3/3/6 4/4/8 
f 229/229/9 230/230/7 4/4/8 5/5/10 
f 228/228/11 229/229/9 5/5/10 6/6/12 
f 227/227/13 228/228/11 6/6/12 7/7/14 
f 226/226/15 227/237/13 7/439/14 8/8/16 
f 225/225/17 226/226/15 8/8/16 9/9/18 
f 224/224/19 225/225/17 9/9/18 10/10/20 
f 223/223/2 224/224/19 10/10/20 1/1/3 
s 2
f 51/51/21 52/52/22 53/53/23 
f 53/240/23 52/239/22 54/54/24 
f 54/54/24 52/239/22 55/55/25 
f 55/55/25 52/239/22 56/56/26 
f 56/56/26 52/239/22 57/57/27 
f 57/57/27 52/239/22 58/58/28 
f 58/234/28 52/52/22 59/59/29 
f 59/59/29 52/52/22 60/60/30 
f 60/60/30 52/52/22 61/61/31 
f 51/51/21 61/61/31 52/52/22 
s 3
f 21/21/32 11/11/33 12/12/34 22/22/35 
f 22/241/35 12/296/36 13/13/37 23/23/38 
f 23/23/38 13/13/39 14/14/40 24/24/41 
f 24/24/41 14/14/42 15/15/43 25/25/44 
f 25/25/44 15/15/45 16/16/46 26/26/47 
f 26/26/47 16/16/48 17/17/49 27/27/50 
f 27/243/50 17/301/51 18/18/52 28/28/53 
f 28/28/53 18/18/54 19/19/55 29/29/56 
f 29/29/56 19/19/57 20/20/58 30/30/59 
f 30/30/59 20/20/60 11/11/61 21/21/32 
f 31/31/62 21/21/32 22/22/35 32/305/63 
f 32/244/63 22/241/35 23/23/38 33/33/64 
f 33/33/64 23/23/38 24/24/41 34/34/65 
f 34/34/65 24/24/41 25/25/44 35/35/66 
f 35/35/66 25/25/44 26/26/47 36/36/67 
f 36/36/67 26/26/47 27/27/50 37/312/68 
f 37/245/68 27/243/50 28/28/53 38/38/69 
f 38/38/69 28/28/53 29/29/56 39/39/70 
f 39/39/70 29/29/56 30/30/59 40/40/71 
f 40/40/71 30/30/59 21/21/32 31/31/62 
s off
f 41/41/72 31/306/73 32/32/74 42/317/75 
f 42/246/76 32/309/77 33/307/78 43/43/79 
f 43/43/80 33/307/81 34/310/82 44/44/83 
f 44/44/84 34/310/85 35/311/86 45/45/87 
f 45/45/88 35/311/89 36/308/90 46/46/91 
f 46/46/92 36/308/93 37/37/94 47/324/95 
f 47/247/96 37/314/97 38/313/98 48/48/99 
f 48/48/100 38/313/101 39/315/102 49/49/103 
f 49/49/104 39/315/105 40/316/106 50/50/107 
f 50/50/108 40/316/109 31/306/110 41/41/111 
f 51/51/112 1/434/113 10/445/114 61/61/115 
f 51/51/116 53/53/117 2/436/118 1/434/119 
f 53/240/120 54/54/121 3/437/122 2/233/123 
f 54/54/124 55/55/125 4/438/126 3/437/127 
f 55/55/128 56/56/129 5/440/130 4/438/131 
f 56/56/132 57/57/133 6/441/134 5/440/135 
f 57/57/136 58/58/137 7/442/138 6/441/139 
f 58/234/140 59/59/141 8/443/142 7/236/143 
f 59/59/144 60/60/145 9/444/146 8/443/147 
f 60/60/148 61/61/149 10/445/150 9/444/151 
f 50/328/152 41/318/153 111/111/154 102/102/155 
f 41/318/156 42/42/157 110/331/158 111/111/159 
f 42/321/160 43/319/161 109/109/162 110/248/163 
f 43/319/164 44/322/165 108/108/166 109/109/167 
f 44/322/168 45/323/169 107/107/170 108/108/171 
f 45/323/172 46/320/173 106/106/174 107/107/175 
f 46/320/176 47/47/177 105/337/178 106/106/179 
f 47/326/180 48/325/181 104/104/182 105/249/183 
f 48/325/184 49/327/185 103/103/186 104/104/187 
f 49/327/188 50/328/189 102/102/190 103/103/191 
s 13
f 202/428/192 203/254/193 204/204/194 
f 205/205/195 203/254/193 202/428/192 
f 206/206/196 203/254/193 205/205/195 
f 207/207/197 203/254/193 208/256/198 
f 209/209/199 203/254/193 206/206/196 
f 210/210/200 203/254/193 207/207/197 
f 211/211/201 203/254/193 209/209/199 
f 212/212/202 203/254/193 210/210/200 
f 211/211/201 208/256/198 203/254/193 
f 204/204/194 203/254/193 212/212/202 
s off
f 83/83/203 73/73/204 72/72/205 82/82/206 
f 84/84/207 74/74/208 73/73/209 83/83/210 
f 85/85/211 75/344/212 74/74/213 84/84/214 
f 86/86/215 76/76/216 75/252/217 85/358/218 
f 87/87/219 77/77/220 76/76/221 86/86/222 
f 88/88/223 78/78/224 77/77/225 87/87/226 
f 89/89/227 79/79/228 78/78/229 88/88/230 
f 90/90/231 80/350/232 79/79/233 89/89/234 
f 91/91/235 81/81/236 80/255/237 90/363/238 
f 82/82/239 72/72/240 81/81/241 91/91/242 
f 113/113/243 112/112/244 114/114/245 115/115/246 
f 116/116/247 113/113/248 115/115/249 117/117/250 
f 118/118/251 116/116/252 117/117/253 119/119/254 
f 120/120/255 118/261/256 119/260/257 121/121/258 
f 122/122/259 120/120/260 121/121/261 123/123/262 
f 124/124/263 122/122/264 123/123/265 125/125/266 
f 126/126/267 124/124/268 125/125/269 127/127/270 
f 128/128/271 126/126/272 127/127/273 129/129/274 
f 130/130/275 128/265/276 129/263/277 131/131/278 
f 112/112/279 130/130/280 131/131/281 114/114/282 
s 15
f 93/93/283 92/92/284 62/62/285 71/71/286 
s 16
f 94/94/287 93/93/288 71/71/289 70/70/290 
s 17
f 95/369/291 94/94/292 70/70/293 69/69/294 
s 18
f 96/96/295 95/269/296 69/267/297 68/68/298 
s 19
f 97/97/299 96/96/300 68/68/301 67/67/302 
s 20
f 98/98/303 97/97/304 67/67/305 66/66/306 
s 21
f 99/99/307 98/98/308 66/66/309 65/65/310 
s 22
f 100/374/311 99/99/312 65/65/313 64/64/314 
s 23
f 101/101/315 100/270/316 64/264/317 63/63/318 
s 24
f 92/92/319 101/101/320 63/63/321 62/62/322 
s off
f 133/133/323 132/132/324 134/134/325 135/135/326 
f 136/136/327 133/133/328 135/135/329 137/137/330 
f 138/138/331 136/136/332 137/137/333 139/139/334 
f 140/140/335 138/250/336 139/253/337 141/141/338 
f 142/142/339 140/140/340 141/141/341 143/143/342 
f 144/144/343 142/142/344 143/143/345 145/145/346 
f 146/146/347 144/144/348 145/145/349 147/147/350 
f 148/148/351 146/146/352 147/147/353 149/149/354 
f 150/150/355 148/271/356 149/258/357 151/151/358 
f 132/132/359 150/150/360 151/151/361 134/134/362 
f 83/354/363 82/353/364 112/112/365 113/113/366 
f 92/367/367 93/365/368 115/115/369 114/114/370 
f 84/355/371 83/354/372 113/113/373 116/116/374 
f 93/365/375 94/368/376 117/117/377 115/115/378 
f 85/356/379 84/355/380 116/116/381 118/118/382 
f 94/368/383 95/95/384 119/119/385 117/117/386 
f 86/359/387 85/257/388 118/261/389 120/120/390 
f 95/366/391 96/370/392 121/121/393 119/260/394 
f 87/360/395 86/359/396 120/120/397 122/122/398 
f 96/370/399 97/371/400 123/123/401 121/121/402 
f 88/361/403 87/360/404 122/122/405 124/124/406 
f 97/371/407 98/372/408 125/125/409 123/123/410 
f 89/357/411 88/361/412 124/124/413 126/126/414 
f 98/372/415 99/373/416 127/127/417 125/125/418 
f 90/362/419 89/357/420 126/126/421 128/128/422 
f 99/373/423 100/100/424 129/129/425 127/127/426 
f 91/364/427 90/259/428 128/265/429 130/130/430 
f 100/376/431 101/375/432 131/131/433 129/263/434 
f 82/353/435 91/364/436 130/130/437 112/112/438 
f 101/375/439 92/367/440 114/114/441 131/131/442 
f 103/340/443 102/330/444 132/132/445 133/133/446 
f 72/342/447 73/341/448 135/135/449 134/134/450 
f 104/338/451 103/340/452 133/133/453 136/136/454 
f 73/341/455 74/343/456 137/137/457 135/135/458 
f 105/339/459 104/338/460 136/136/461 138/138/462 
f 74/343/463 75/75/464 139/139/465 137/137/466 
f 106/336/467 105/105/468 138/250/469 140/140/470 
f 75/346/471 76/345/472 141/141/473 139/253/474 
f 107/335/475 106/336/476 140/140/477 142/142/478 
f 76/345/479 77/347/480 143/143/481 141/141/482 
f 108/334/483 107/335/484 142/142/485 144/144/486 
f 77/347/487 78/348/488 145/145/489 143/143/490 
f 109/332/491 108/334/492 144/144/493 146/146/494 
f 78/348/495 79/349/496 147/147/497 145/145/498 
f 110/333/499 109/332/500 146/146/501 148/148/502 
f 79/349/503 80/80/504 149/149/505 147/147/506 
f 111/329/507 110/110/508 148/271/509 150/150/510 
f 80/352/511 81/351/512 151/151/513 149/258/514 
f 102/330/515 111/329/516 150/150/517 132/132/518 
f 81/351/519 72/342/520 134/134/521 151/151/522 
s 18
f 68/68/298 69/267/297 152/377/523 153/153/524 
s 17
f 69/69/294 70/70/293 154/154/525 152/272/526 
s 16
f 70/70/290 71/71/289 155/155/527 154/154/528 
s 22
f 64/64/314 65/65/313 156/156/529 157/157/530 
s 15
f 71/71/286 62/62/285 158/158/531 155/155/532 
s 21
f 65/65/310 66/66/309 159/159/533 156/156/534 
s 24
f 62/62/322 63/63/321 160/160/535 158/158/536 
s 20
f 66/66/306 67/67/305 161/161/537 159/159/538 
s 23
f 63/63/318 64/264/317 157/388/539 160/160/540 
s 19
f 67/67/302 68/68/301 153/153/541 161/161/542 
s off
f 153/379/543 152/152/544 162/389/545 163/163/546 
f 152/378/547 154/380/548 164/164/549 162/274/550 
f 154/380/551 155/381/552 165/165/553 164/164/554 
f 157/383/555 156/382/556 166/166/557 167/167/558 
f 155/381/559 158/384/560 168/168/561 165/165/562 
f 156/382/563 159/385/564 169/169/565 166/166/566 
f 158/384/567 160/386/568 170/170/569 168/168/570 
f 159/385/571 161/387/572 171/171/573 169/169/574 
f 160/386/575 157/273/576 167/400/577 170/170/578 
f 161/387/579 153/379/580 163/163/581 171/171/582 
s 25
f 163/390/583 162/162/584 182/182/585 183/183/586 
s 26
f 162/392/587 164/391/588 191/191/589 182/262/590 
s 27
f 164/391/591 165/393/592 190/190/593 191/191/594 
s 28
f 167/395/595 166/394/596 186/186/597 187/187/598 
s 29
f 165/393/599 168/396/600 189/189/601 190/190/602 
s 30
f 166/394/603 169/397/604 185/185/605 186/186/606 
s 31
f 168/396/607 170/398/608 188/188/609 189/189/610 
s 32
f 169/397/611 171/399/612 184/184/613 185/185/614 
s 33
f 170/398/615 167/275/616 187/276/617 188/188/618 
s 34
f 171/399/619 163/390/620 183/183/621 184/184/622 
s 25
f 183/183/586 182/182/585 172/401/623 173/173/624 
s 34
f 184/184/622 183/183/621 173/173/625 181/181/626 
s 32
f 185/185/614 184/184/613 181/181/627 179/179/628 
s 30
f 186/186/606 185/185/605 179/179/629 176/176/630 
s 28
f 187/187/598 186/186/597 176/176/631 177/177/632 
s 33
f 188/188/618 187/276/617 177/408/633 180/180/634 
s 31
f 189/189/610 188/188/609 180/180/635 178/178/636 
s 29
f 190/190/602 189/189/601 178/178/637 175/175/638 
s 27
f 191/191/594 190/190/593 175/175/639 174/174/640 
s 26
f 182/262/590 191/191/589 174/174/641 172/277/642 
s off
f 173/403/643 172/172/644 192/413/645 193/193/646 
f 172/412/647 174/411/648 194/194/649 192/266/650 
f 174/411/651 175/410/652 195/195/653 194/194/654 
f 177/407/655 176/406/656 196/196/657 197/197/658 
f 175/410/659 178/409/660 198/198/661 195/195/662 
f 176/406/663 179/405/664 199/199/665 196/196/666 
f 178/409/667 180/402/668 200/200/669 198/198/670 
f 179/405/671 181/404/672 201/201/673 199/199/674 
f 180/402/675 177/278/676 197/424/677 200/200/678 
f 181/404/679 173/403/680 193/193/681 201/201/682 
f 193/414/683 192/192/684 202/426/685 204/425/686 
f 192/416/687 194/415/688 205/429/689 202/251/690 
f 194/415/691 195/417/692 206/430/693 205/429/694 
f 197/419/695 196/418/696 207/432/697 208/208/698 
f 195/417/699 198/420/700 209/433/701 206/430/702 
f 196/418/703 199/421/704 210/427/705 207/432/706 
f 198/420/707 200/422/708 211/431/709 209/433/710 
f 199/421/711 201/423/712 212/203/713 210/427/714 
f 200/422/715 197/268/716 208/202/717 211/431/718 
f 201/423/719 193/414/720 204/425/721 212/203/722 
s 1
f 20/304/723 214/214/724 213/213/725 11/293/726 
f 19/303/727 215/215/728 214/214/724 20/304/723 
f 18/302/729 216/216/730 215/215/728 19/303/727 
f 17/242/731 217/287/732 216/216/730 18/302/729 
f 16/299/733 218/218/734 217/279/732 17/300/731 
f 15/298/735 219/219/736 218/218/734 16/299/733 
f 14/295/737 220/220/738 219/219/736 15/298/735 
f 13/297/739 221/221/740 220/220/738 14/295/737 
f 12/238/741 222/292/742 221/221/740 13/297/739 
f 11/293/726 213/213/725 222/280/742 12/294/741 
f 213/282/725 214/281/724 224/224/19 223/223/2 
f 214/281/724 215/283/728 225/225/17 224/224/19 
f 215/283/728 216/285/730 226/226/15 225/225/17 
f 216/285/730 217/217/732 227/237/13 226/226/15 
f 217/284/732 218/288/734 228/228/11 227/227/13 
f 218/288/734 219/289/736 229/229/9 228/228/11 
f 219/289/736 220/290/738 230/230/7 229/229/9 
f 220/290/738 221/291/740 231/231/5 230/230/7 
f 221/291/740 222/222/742 232/235/1 231/231/5 
f 222/286/742 213/282/725 223/223/2 232/232/1 
#end 240 faces
#begin 1 properties
#U3D SYM 0 0 0 1 0 0 0.0001 0
#end 1 properties
