#File written by LIBUNFOLD3D. Compilation :Dec 22 2011,11:53:02
mtllib leaf.mtl
#begin vertices
v -15.603365999999999 1.439843 62.479554
v -15.358378 1.439843 62.591338999999998
v -23.877448999999999 16.523620999999999 57.652596000000003
v -24.033211000000001 16.944675 57.581519999999998
v -23.839046 16.523620999999999 57.568435999999998
v -23.994807999999999 16.944675 57.497360999999998
v -14.77069 1.439843 60.654671
v -14.525701 1.439843 60.766452999999998
v -16.055229000000001 10.047435 62.700898000000002
v -14.899630999999999 10.047435 60.168304999999997
v -14.685021000000001 10.310560000000001 60.266227999999998
v -15.840623000000001 10.310560000000001 62.798825000000001
v -16.959602 14.426212 58.611579999999996
v -18.581066 14.426212 62.165160999999998
v -18.366458999999999 14.689335 62.263084999999997
v -16.744994999999999 14.689335 58.709502999999998
v -19.839993 16.203437999999998 57.246830000000003
v -21.499565 16.203437999999998 60.883934000000004
v -21.655331 16.624500000000001 60.812859000000003
v -19.995757999999999 16.624500000000001 57.175758999999999
#end vertices

#begin 52 textures vertices 
vt 0.95530487475288395 0.34004145278884274 0
vt 0.96677652062998232 0.3400626611671006 0
vt 0.95106817572812119 0.71829291384360905 0
vt 0.94102797127662263 0.70707574211972246 0
vt 0.075054129846150827 0.6464072543371292 0
vt 0.071660169491013601 0.6654707176841137 0
vt 0.06778035777873595 0.66477997199247507 0
vt 0.071174278810199762 0.64571650841068073 0
vt 0.4015751740637335 0.58651983431164623 0
vt 0.39145174234698904 0.59766202759772469 0
vt 0.37855663683169088 0.21932542168769509 0
vt 0.39002810897894646 0.21938951322083894 0
vt 0.25902729873440056 0.61756628507511835 0
vt 0.25979202379707766 0.60612015138167286 0
vt 0.34505299083921992 0.61181765987503856 0
vt 0.34428813116819973 0.62326379890129857 0
vt 0.052473459137908296 0.012000006073700381 0
vt 0.13792458027738327 0.012000000000000455 0
vt 0.15449407301023663 0.39019349945220838 0
vt 0.035903996450278169 0.39019351348153364 0
vt 0.23575204863539129 0.012000000000000455 0
vt 0.32120303582163706 0.012000003014336014 0
vt 0.33777232098222942 0.37893795186493895 0
vt 0.21918247018434567 0.37893794631517053 0
vt 0.56581926651744585 0.16745105428238863 0
vt 0.73612829349054731 0.16745080086968697 0
vt 0.65294436996158434 0.31737421605921312 0
vt 0.64900351041162352 0.31737415692258497 0
vt 0.81535740169913629 0.85713629924824053 0
vt 0.82252978431710166 0.87512216234354778 0
vt 0.65117432666447261 0.86930797627507272 0
vt 0.64400178625997151 0.85132181776010352 0
vt 0.37855663683169088 0.18589367703724613 0
vt 0.54886552646345299 0.18589393630285606 0
vt 0.46568138950784377 0.33581690647730933 0
vt 0.46174056871417435 0.3358169805662814 0
vt 0.2417080976699198 0.60612015262479124 0
vt 0.23831413098081639 0.62518398805507869 0
vt 0.3616763904638402 0.59416720956522961 0
vt 0.19527831841584567 0.59416722254441712 0
vt 0.84251647901514692 0.90567362770810422 0
vt 0.83247627743598895 0.89445655136199442 0
vt 0.17839811080434254 0.60542276660556882 0
vt 0.012000000000000455 0.60542269770469503 0
vt 0.50873054078583657 0.77470266349761308 0
vt 0.49860722119364553 0.78584476807973969 0
vt 0.56777460887402742 0.012000157571287284 0
vt 0.73417268092194787 0.012000000000000455 0
vt 0.68933291588464585 0.98800000000000032 0
vt 0.6966391187157831 0.97006767635276636 0
vt 0.38051231435179128 0.012000000000000455 0
vt 0.54691042515592458 0.012000272321487331 0
#end 52 textures vertices 

#begin 48 normals 
vn -0.39397500000000002 -0.043581000000000002 0.91808699999999999
vn -0.39397500000000002 -0.043581000000000002 0.91808699999999999
vn -0.35502499999999998 -0.065656000000000006 0.93254899999999996
vn -0.37692399999999998 -0.053317999999999997 0.924709
vn -0.84275999999999995 -0.376666 -0.38455
vn -0.84275999999999995 -0.376666 -0.38455
vn -0.84275999999999995 -0.376666 -0.38455
vn -0.84275999999999995 -0.376666 -0.38455
vn 0.45144299999999998 -0.053317999999999997 -0.89070499999999997
vn 0.47172199999999997 -0.065656000000000006 -0.87929900000000005
vn 0.43526300000000001 -0.043581000000000002 -0.89924800000000005
vn 0.43526300000000001 -0.043581000000000002 -0.89924800000000005
vn 0 -1 0
vn 0 -1 0
vn 0 -1 0
vn 0 -1 0
vn 0.90905000000000002 0.039717000000000002 0.41479100000000002
vn 0.90905000000000002 0.039717000000000002 0.41479100000000002
vn 0.87809800000000005 0.26155 0.40066800000000002
vn 0.87809800000000005 0.26155 0.40066800000000002
vn -0.90914300000000003 -0.037059000000000002 -0.41483300000000001
vn -0.90914300000000003 -0.037059000000000002 -0.41483300000000001
vn -0.87752300000000005 -0.26387500000000003 -0.40040500000000001
vn -0.87752300000000005 -0.26387500000000003 -0.40040500000000001
vn -0.35735899999999998 -0.91962299999999997 -0.16305900000000001
vn -0.35735899999999998 -0.91962299999999997 -0.16305900000000001
vn -0.082769999999999996 -0.99585299999999999 -0.037768000000000003
vn -0.082769999999999996 -0.99585299999999999 -0.037768000000000003
vn -0.094410999999999995 -0.19955899999999999 -0.97532700000000006
vn -0.094410999999999995 -0.19955899999999999 -0.97532700000000006
vn 0.011294 -0.16367100000000001 -0.98645000000000005
vn 0.23139199999999999 -0.082108 -0.96938999999999997
vn 0.35507100000000003 0.92069299999999998 0.16201499999999999
vn 0.35507100000000003 0.92069299999999998 0.16201499999999999
vn 0.082767999999999994 0.99585299999999999 0.037766000000000001
vn 0.082767999999999994 0.99585299999999999 0.037766000000000001
vn -0.58055699999999999 -0.082108 0.81006900000000004
vn -0.73768699999999998 -0.16366800000000001 0.65500400000000003
vn -0.79856000000000005 -0.19955400000000001 0.56787299999999996
vn -0.79856000000000005 -0.19955400000000001 0.56787299999999996
vn -0.64583500000000005 -0.70431200000000005 -0.29468800000000001
vn -0.64583500000000005 -0.70431200000000005 -0.29468800000000001
vn -0.36425200000000002 -0.044649000000000001 0.93022899999999997
vn -0.36234899999999998 -0.046722 0.930871
vn 0.63098600000000005 0.720391 0.28791299999999997
vn 0.63098600000000005 0.720391 0.28791299999999997
vn 0.46565299999999998 -0.046719999999999998 -0.88373400000000002
vn 0.46392 -0.044646999999999999 -0.88475099999999995
#end 48 normals 

#begin 18 faces
usemtl initialShadingGroup
g polySurface6 pasted__pCylinder18 group38
s 1
f 1/1/1 2/2/2 12/3/3 9/4/4 
s off
f 3/5/5 4/6/6 6/7/7 5/8/8 
s 2
f 10/9/9 11/10/10 8/11/11 7/12/12 
s off
f 7/13/13 8/14/14 2/15/15 1/16/16 
s 3
f 2/17/17 8/18/18 11/19/19 12/20/20 
s 4
f 7/21/21 1/22/22 9/23/23 10/24/24 
f 17/25/25 18/26/26 3/27/27 5/28/28 
s 2
f 5/29/29 6/30/30 20/31/31 17/32/32 
s 3
f 19/33/33 20/34/34 6/35/35 4/36/36 
s 1
f 18/37/37 19/38/38 4/6/39 3/5/40 
s 4
f 10/24/24 9/23/23 14/39/41 13/40/42 
s 1
f 9/4/4 12/3/3 15/41/43 14/42/44 
s 3
f 12/20/20 11/19/19 16/43/45 15/44/46 
s 2
f 13/45/47 16/46/48 11/10/10 10/9/9 
s 4
f 13/47/42 14/48/41 18/26/26 17/25/25 
s 1
f 14/42/44 15/41/43 19/49/38 18/50/37 
s 3
f 15/51/46 16/52/45 20/34/34 19/33/33 
s 2
f 17/32/32 20/31/31 16/46/48 13/45/47 
#end 18 faces
#begin 1 properties
#U3D SYM 0 0 0 1 0 0 0.0001 1
#end 1 properties
