#File written by LIBUNFOLD3D. Compilation :Dec 22 2011,11:53:02
mtllib LolipopRing.mtl
#begin vertices
v 2.3102510000000001 0.75064600000000004 0.148674
v 1.965217 1.4278139999999999 0.148674
v 1.4278139999999999 1.965217 0.148674
v -0 2.4291420000000001 0.148674
v -1.427813 1.9652160000000001 0.148674
v -1.9652160000000001 1.427813 0.148674
v -2.3102499999999999 0.75064600000000004 0.148674
v -2.429141 0 0.148674
v -2.3102499999999999 -0.75064600000000004 0.148674
v -1.9652160000000001 -1.4278120000000001 0.148674
v -1.4278120000000001 -1.9652160000000001 0.148674
v -0.75064600000000004 -2.3102499999999999 0.148674
v 0.75064500000000001 -2.3102499999999999 0.148674
v 1.4278120000000001 -1.9652160000000001 0.148674
v 1.9652160000000001 -1.4278120000000001 0.148674
v 2.3102499999999999 -0.75064500000000001 0.148674
v 2.4291399999999999 0 0.148674
v 2.4764740000000001 0.80465500000000001 0.389233
v 2.1066129999999998 1.530545 0.389233
v 1.530545 2.1066129999999998 0.389233
v -0 2.6039180000000002 0.389233
v -1.530545 2.1066129999999998 0.389233
v -2.1066129999999998 1.5305439999999999 0.389233
v -2.4764729999999999 0.80465500000000001 0.389233
v -2.6039180000000002 0 0.389233
v -2.4764729999999999 -0.80465500000000001 0.389233
v -2.1066129999999998 -1.5305439999999999 0.389233
v -1.5305439999999999 -2.1066129999999998 0.389233
v -0.80407899999999999 -2.4746999999999999 0.38737100000000002
v 0.80465500000000001 -2.4764719999999998 0.389233
v 1.530543 -2.1066129999999998 0.389233
v 2.1066129999999998 -1.530543 0.389233
v 2.4764719999999998 -0.80465500000000001 0.389233
v 2.603917 0 0.389233
v 2.7454260000000001 0.89204300000000003 0.48111900000000002
v 2.3353989999999998 1.6967669999999999 0.48111900000000002
v 1.6967669999999999 2.3353989999999998 0.48111900000000002
v -0 2.886711 0.48111900000000002
v -1.6967669999999999 2.3353980000000001 0.48111900000000002
v -2.3353980000000001 1.6967669999999999 0.48111900000000002
v -2.7454260000000001 0.89204300000000003 0.48111900000000002
v -2.886711 0 0.48111900000000002
v -2.7454260000000001 -0.89204300000000003 0.48111900000000002
v -2.3353980000000001 -1.6967669999999999 0.48111900000000002
v -1.6967669999999999 -2.3353969999999999 0.48111900000000002
v -0.89204300000000003 -2.7454260000000001 0.48111900000000002
v 0.89204300000000003 -2.7454260000000001 0.48111900000000002
v 1.696766 -2.3353969999999999 0.48111900000000002
v 2.3353969999999999 -1.696766 0.48111900000000002
v 2.7454260000000001 -0.89204300000000003 0.48111900000000002
v 2.8867099999999999 0 0.48111900000000002
v -0 3.0353870000000001 0.45757100000000001
v 3.0143800000000001 0.97943199999999997 0.389233
v 2.5641859999999999 1.862989 0.389233
v 1.862989 2.5641850000000002 0.389233
v 0.97943199999999997 3.0143789999999999 0.389233
v -0.97943199999999997 3.0143789999999999 0.389233
v -1.862989 2.5641850000000002 0.389233
v -2.5641850000000002 1.862989 0.389233
v -3.0143789999999999 0.97943100000000005 0.389233
v -3.1695060000000002 0 0.389233
v -3.0143789999999999 -0.97943100000000005 0.389233
v -2.564184 -1.862989 0.389233
v -1.862989 -2.564184 0.389233
v -0.97943100000000005 -3.0143789999999999 0.389233
v 0.97943000000000002 -3.0143789999999999 0.389233
v 1.8629880000000001 -2.564184 0.389233
v 2.5641829999999999 -1.862989 0.389233
v 3.0143789999999999 -0.97943100000000005 0.389233
v 3.1695039999999999 0 0.389233
v 3.1806019999999999 1.0334410000000001 0.148674
v 2.7055829999999998 1.9657199999999999 0.148674
v 1.9657199999999999 2.7055820000000002 0.148674
v 1.0334410000000001 3.1806019999999999 0.148674
v -1.0334410000000001 3.1806019999999999 0.148674
v -1.9657199999999999 2.705581 0.148674
v -2.705581 1.9657199999999999 0.148674
v -3.1806009999999998 1.0334399999999999 0.148674
v -3.3442829999999999 0 0.148674
v -3.1806009999999998 -1.0334399999999999 0.148674
v -2.705581 -1.9657199999999999 0.148674
v -1.9657199999999999 -2.7055799999999999 0.148674
v -1.0334399999999999 -3.1806009999999998 0.148674
v 1.0334399999999999 -3.1806009999999998 0.148674
v 1.9657199999999999 -2.7055799999999999 0.148674
v 2.7055799999999999 -1.9657199999999999 0.148674
v 3.1806009999999998 -1.0334399999999999 0.148674
v 3.3442820000000002 0 0.148674
v 3.1806019999999999 1.0334410000000001 -0.148674
v 2.7055829999999998 1.9657199999999999 -0.148674
v 1.9657199999999999 2.7055820000000002 -0.148674
v 1.0334410000000001 3.1806019999999999 -0.148674
v -1.0334410000000001 3.1806019999999999 -0.148674
v -1.9657199999999999 2.705581 -0.148674
v -2.705581 1.9657199999999999 -0.148674
v -3.1806009999999998 1.0334399999999999 -0.148674
v -3.3442829999999999 0 -0.148674
v -3.1806009999999998 -1.0334399999999999 -0.148674
v -2.705581 -1.9657199999999999 -0.148674
v -1.9657199999999999 -2.7055799999999999 -0.148674
v -1.0334399999999999 -3.1806009999999998 -0.148674
v 1.0334399999999999 -3.1806009999999998 -0.148674
v 1.9657199999999999 -2.7055799999999999 -0.148674
v 2.7055799999999999 -1.9657199999999999 -0.148674
v 3.1806009999999998 -1.0334399999999999 -0.148674
v 3.3442820000000002 0 -0.148674
v 3.0143800000000001 0.97943199999999997 -0.389233
v 2.5641859999999999 1.862989 -0.389233
v 1.862989 2.5641859999999999 -0.389233
v 0.97943199999999997 3.0143800000000001 -0.389233
v -0.97943199999999997 3.0143789999999999 -0.389233
v -1.862989 2.5641850000000002 -0.389233
v -2.5641850000000002 1.862989 -0.389233
v -3.0143789999999999 0.97943100000000005 -0.389233
v -3.1695069999999999 0 -0.389233
v -3.0143789999999999 -0.97943100000000005 -0.389233
v -2.5641850000000002 -1.862989 -0.389233
v -1.862989 -2.564184 -0.389233
v -0.97943100000000005 -3.0143789999999999 -0.389233
v 0.97943000000000002 -3.0143789999999999 -0.389233
v 1.862989 -2.564184 -0.389233
v 2.564184 -1.862989 -0.389233
v 3.0143789999999999 -0.97943100000000005 -0.389233
v 3.1695060000000002 0 -0.389233
v -0 3.0353870000000001 -0.45757100000000001
v 2.7454260000000001 0.89204300000000003 -0.48111900000000002
v 2.3353989999999998 1.6967669999999999 -0.48111900000000002
v 1.6967669999999999 2.3353989999999998 -0.48111900000000002
v -0 2.886711 -0.48111900000000002
v -1.6967669999999999 2.3353980000000001 -0.48111900000000002
v -2.3353980000000001 1.6967669999999999 -0.48111900000000002
v -2.7454260000000001 0.89204300000000003 -0.48111900000000002
v -2.886711 0 -0.48111900000000002
v -2.7454260000000001 -0.89204300000000003 -0.48111900000000002
v -2.3353980000000001 -1.6967669999999999 -0.48111900000000002
v -1.6967669999999999 -2.3353969999999999 -0.48111900000000002
v -0.89204300000000003 -2.7454260000000001 -0.48111900000000002
v 0.89204300000000003 -2.7454260000000001 -0.48111900000000002
v 1.696766 -2.3353969999999999 -0.48111900000000002
v 2.3353969999999999 -1.696766 -0.48111900000000002
v 2.7454260000000001 -0.89204300000000003 -0.48111900000000002
v 2.8867099999999999 0 -0.48111900000000002
v 2.4764740000000001 0.80465500000000001 -0.389233
v 2.1066129999999998 1.530545 -0.389233
v 1.530545 2.1066129999999998 -0.389233
v -0 2.6039180000000002 -0.389233
v -1.5305439999999999 2.1066129999999998 -0.389233
v -2.1066129999999998 1.5305439999999999 -0.389233
v -2.4764729999999999 0.80465500000000001 -0.389233
v -2.603917 0 -0.389233
v -2.4764729999999999 -0.80465500000000001 -0.389233
v -2.1066129999999998 -1.530543 -0.389233
v -1.530543 -2.1066129999999998 -0.389233
v -0.80465500000000001 -2.4764719999999998 -0.389233
v 0.80465399999999998 -2.4764719999999998 -0.389233
v 1.530543 -2.1066129999999998 -0.389233
v 2.1066129999999998 -1.530543 -0.389233
v 2.4764719999999998 -0.80465500000000001 -0.389233
v 2.603917 0 -0.389233
v 2.3102510000000001 0.75064600000000004 -0.148674
v 1.965217 1.427813 -0.148674
v 1.427813 1.9652160000000001 -0.148674
v 0 2.429141 -0.148674
v -1.427813 1.9652160000000001 -0.148674
v -1.9652160000000001 1.427813 -0.148674
v -2.3102499999999999 0.75064500000000001 -0.148674
v -2.429141 0 -0.148674
v -2.3102499999999999 -0.75064500000000001 -0.148674
v -1.9652160000000001 -1.4278120000000001 -0.148674
v -1.4278120000000001 -1.9652160000000001 -0.148674
v -0.75064500000000001 -2.3102499999999999 -0.148674
v 0.75064500000000001 -2.3102499999999999 -0.148674
v 1.4278120000000001 -1.9652160000000001 -0.148674
v 1.9652160000000001 -1.4278120000000001 -0.148674
v 2.3102490000000002 -0.75064500000000001 -0.148674
v 2.4291399999999999 -0 -0.148674
v -0.89145099999999999 -2.7436039999999999 -0.0013500000000000001
v 0.892042 -2.7454260000000001 0
v 0 3.296564 0.45757100000000001
v -9.9999999999999995e-007 3.296564 -0.45757100000000001
v 0.97943199999999997 3.2965629999999999 0.389233
v -0.97943100000000005 3.296564 0.389233
v 1.0334399999999999 3.2965650000000002 0.148674
v -1.0334410000000001 3.2965650000000002 0.148674
v 1.0334399999999999 3.2965650000000002 -0.148674
v -1.0334410000000001 3.2965650000000002 -0.148674
v 0.97943199999999997 3.2965629999999999 -0.389233
v -0.97943199999999997 3.296564 -0.389233
v -0.78200400000000003 3.2965629999999999 2.365713
v 0.41579899999999997 3.2965629999999999 -2.3812310000000001
v 0.94553799999999999 3.2965629999999999 2.3657119999999998
v -2.250759 3.2965629999999999 1.3658570000000001
v 2.0795279999999998 3.2965650000000002 1.536135
v -2.6030340000000001 3.2965659999999999 0.093659000000000006
v 2.6718000000000002 3.2965689999999999 0.060437999999999999
v -2.3027250000000001 3.2965659999999999 -1.2290859999999999
v 1.840498 3.2965620000000002 -1.8351200000000001
v -1.180415 3.2965629999999999 -2.3094830000000002
v -0.78200400000000003 3.741628 2.365713
v 0.41579899999999997 3.741628 -2.3812310000000001
v 0.94553799999999999 3.741628 2.365713
v -2.250759 3.741628 1.365858
v 2.0795279999999998 3.7416299999999998 1.5361389999999999
v -2.6030329999999999 3.7416309999999999 0.093660999999999994
v 2.671799 3.7416339999999999 0.060435999999999997
v -2.3027250000000001 3.7416309999999999 -1.2290859999999999
v 1.840497 3.7416269999999998 -1.8351230000000001
v -1.1804129999999999 3.7416290000000001 -2.309485
v -0.38277600000000001 3.7416290000000001 1.1478170000000001
v 0.292902 3.7416290000000001 -0.978352
v 0.32385000000000003 3.7416290000000001 1.1478170000000001
v -0.95444300000000004 3.7416290000000001 0.73247600000000002
v 0.89551800000000004 3.7416290000000001 0.73247600000000002
v -1.172806 3.7416290000000001 0.060436999999999998
v 1.1138809999999999 3.7416290000000001 0.060436999999999998
v -0.95444399999999996 3.7416290000000001 -0.61160199999999998
v 0.89551800000000004 3.7416290000000001 -0.61160199999999998
v -0.38277600000000001 3.7416290000000001 -1.0269429999999999
v 1.4272370000000001 8.1794799999999999 -0.99791700000000005
v 0.52694700000000005 8.1794799999999999 -1.652015
v -0.58587199999999995 8.1794799999999999 -1.652015
v -1.4861610000000001 8.1794799999999999 -0.99791700000000005
v -1.830041 8.1794799999999999 0.060436999999999998
v -1.4861610000000001 8.1794799999999999 1.1187910000000001
v -0.58587199999999995 8.1794799999999999 1.7728889999999999
v 0.52694700000000005 8.1794799999999999 1.7728889999999999
v 1.4272359999999999 8.1794799999999999 1.1187910000000001
v 1.7711159999999999 8.1794799999999999 0.060436999999999998
v -0.029461999999999999 8.1794799999999999 0.060436999999999998
v 2.832519 6.622312 -2.0189140000000001
v 3.5081479999999998 6.622312 0.060436999999999998
v 2.832519 6.622312 2.1397870000000001
v 1.0637179999999999 6.622312 3.4248970000000001
v -1.1226430000000001 6.622312 3.4248970000000001
v -2.8914439999999999 6.622312 2.1397879999999998
v -3.5670730000000002 6.622312 0.060436999999999998
v -2.8914439999999999 6.622312 -2.018913
v -1.1226430000000001 6.622312 -3.3040229999999999
v 1.0637179999999999 6.622312 -3.3040240000000001
#end vertices

#begin 337 textures vertices 
vt 0.63988786963270572 0.2212634193076207 0
vt 0.6163132233542129 0.25036377183327119 0
vt 0.58811365790251147 0.27383741524974892 0
vt 0.52109504594776324 0.29476760907922073 0
vt 0.45424280861149285 0.27356246848560695 0
vt 0.42580560247386229 0.25009853475488242 0
vt 0.40208218129728712 0.22116955258752075 0
vt 0.38422033240727194 0.18823312478929449 0
vt 0.37323205113641117 0.15238942724803409 0
vt 0.36950368053566579 0.11479699642005238 0
vt 0.3729058809720987 0.076177142021389158 0
vt 0.37743183735249053 0.034681511519938701 0
vt 0.66414004554973971 0.034864484743369034 0
vt 0.66849485538368114 0.076407193554900388 0
vt 0.67250848631220028 0.11498187703397623 0
vt 0.66876176840609969 0.1524914833780294 0
vt 0.65784145933212501 0.18832970075041738 0
vt 0.65164847429115014 0.22925659487984396 0
vt 0.62618814530953326 0.26046246055293826 0
vt 0.595118360024948 0.28621611331072944 0
vt 0.52106084566392119 0.30932287681973242 0
vt 0.4472527897976713 0.28594329834516802 0
vt 0.4159645066212842 0.26026243201482524 0
vt 0.39032462269640905 0.2291522448731847 0
vt 0.37110350427539657 0.19375795731864098 0
vt 0.35924185452463847 0.15527630653184335 0
vt 0.35510056726176076 0.11525923470832647 0
vt 0.35837343712842312 0.075205414401363954 0
vt 0.36521383734068869 0.036411934259378761 0
vt 0.67646591046915339 0.036665157860856987 0
vt 0.68310173527757789 0.075469146407667193 0
vt 0.68683725326827971 0.11538713636217139 0
vt 0.68271530352247711 0.15542218008212913 0
vt 0.67097876187992922 0.19393004791124249 0
vt 0.66347273884167046 0.23724903434580177 0
vt 0.63606542954141421 0.27048374580627926 0
vt 0.60258060218796805 0.29820314116876795 0
vt 0.52102069871035883 0.32376771023046946 0
vt 0.43970329844618378 0.29794545339869749 0
vt 0.40607942250931039 0.27028333618666273 0
vt 0.37857113973188378 0.2370492636933684 0
vt 0.3581195904881182 0.19923038532216589 0
vt 0.34527601910727918 0.15824376462709497 0
vt 0.34051882737998496 0.11557903388690292 0
vt 0.34386945498247529 0.073350508376228793 0
vt 0.35379048868847596 0.034908623896556794 0
vt 0.68781936962383816 0.035185906785812418 0
vt 0.69774299051634492 0.073570489763316566 0
vt 0.70129595828515157 0.11575931122331598 0
vt 0.6966557683065796 0.15838003015935687 0
vt 0.68398931380159367 0.1994401336543169 0
vt 0.5210120125855916 0.33070810095210307 0
vt 0.67531337375397738 0.24519941740069073 0
vt 0.64601778616891936 0.28042834660577404 0
vt 0.61030490855410724 0.30952803640801119 0
vt 0.56845697033304066 0.33216908620123209 0
vt 0.47354326865750951 0.33203737594118993 0
vt 0.43189631697694003 0.30932722754704733 0
vt 0.39623432119633351 0.28014092629728155 0
vt 0.36685578810239428 0.24499414095841104 0
vt 0.34493551976715214 0.20479879356723313 0
vt 0.3312978646693705 0.16111267393794654 0
vt 0.32620700816356163 0.11580821499534656 0
vt 0.3294482300993164 0.070889426994479532 0
vt 0.34312751572051697 0.030011821870897796 0
vt 0.69845806537950506 0.030147908295627086 0
vt 0.71213447290507426 0.071069527313030373 0
vt 0.715637303953501 0.11591720081692411 0
vt 0.71071895590542233 0.16125506186012184 0
vt 0.69701194112922171 0.20491258074725799 0
vt 0.68711218056728485 0.25310814335133441 0
vt 0.6560889192344288 0.2903561423604335 0
vt 0.61831681732469168 0.32077147833604319 0
vt 0.57631309697885613 0.34549310659424848 0
vt 0.46600781298910965 0.34544772359217751 0
vt 0.42363659704366546 0.32053244949017451 0
vt 0.38619475043140045 0.29007237997210777 0
vt 0.3550800154161754 0.25294570436793379 0
vt 0.33183249158687345 0.2103433175014445 0
vt 0.31730323318000925 0.16400853004942217 0
vt 0.31184183530039949 0.11576249126781771 0
vt 0.31542257749113684 0.067372364891417291 0
vt 0.33298438505810918 0.023176272206743287 0
vt 0.70856556931551007 0.023105251672437946 0
vt 0.72607146980323223 0.067405305924717523 0
vt 0.73000903874582701 0.11578853415936992 0
vt 0.72471036698542901 0.16407379615670437 0
vt 0.71017400715366219 0.2104174755337152 0
vt 0.69892285955864097 0.26097443438549206 0
vt 0.66621323924180753 0.30028950732694748 0
vt 0.62688644604822041 0.33210521156590744 0
vt 0.58541361694758709 0.35680436591850095 0
vt 0.45655484289895887 0.35674460982835771 0
vt 0.41526834650311356 0.33166222554924496 0
vt 0.37613339260326206 0.30001531799655701 0
vt 0.34334531143988156 0.26090629865391957 0
vt 0.31876964919405959 0.21590201172878296 0
vt 0.3033948273526475 0.16690509043966856 0
vt 0.29762856800026477 0.11578682015998214 0
vt 0.30185582262179234 0.063701133085853096 0
vt 0.3236737448391146 0.013382625278995777 0
vt 0.71708796770471972 0.013744789968269418 0
vt 0.7398901084630729 0.063333874042115254 0
vt 0.74429378989974659 0.1156075948907712 0
vt 0.73865095034612505 0.16684675323688514 0
vt 0.72329372371961931 0.21586171175700719 0
vt 0.35863356512841499 0.49509440730205784 0
vt 0.392698152515634 0.52548030605708818 0
vt 0.43147576961976525 0.54917815010684001 0
vt 0.47444857475806651 0.56723894424909904 0
vt 0.56787023150683902 0.56743587736457313 0
vt 0.61087260372898777 0.54949570347044574 0
vt 0.64990683888047551 0.52594668739499362 0
vt 0.6837750887166919 0.49531076507468519 0
vt 0.71118985306988824 0.45867766824593242 0
vt 0.73102640289433463 0.41741376515633039 0
vt 0.74286266347683727 0.37316510691952431 0
vt 0.74640614076888867 0.32754157258964095 0
vt 0.73550905181339077 0.28383732089919084 0
vt 0.30615928866272957 0.28384964979200955 0
vt 0.29531512899984741 0.32756543516240266 0
vt 0.29901801810149004 0.37327290754179304 0
vt 0.31109209390336001 0.41745905878650674 0
vt 0.33128130960457652 0.45851136181237057 0
vt 0.52113459445865251 0.56349761634079287 0
vt 0.36921307334168302 0.48553335757420524 0
vt 0.40117359585842505 0.51431300674947522 0
vt 0.43801512880801646 0.5366890486828837 0
vt 0.52114486588296693 0.55638308514184576 0
vt 0.6044683384169488 0.5370894296782337 0
vt 0.64139869962626894 0.51466802581703219 0
vt 0.67327370506473316 0.48577653005137372 0
vt 0.69893627276977421 0.45130377629254953 0
vt 0.71761004691200869 0.41261722293000236 0
vt 0.72861689585574418 0.37118742337214311 0
vt 0.73181118368018039 0.32891232262049136 0
vt 0.72515710758789176 0.29020025450906711 0
vt 0.31647777678808076 0.29025188845204858 0
vt 0.30992237980657505 0.32893110467708914 0
vt 0.31323662156637183 0.37119766273710936 0
vt 0.32457342616899032 0.41256585817905161 0
vt 0.34335278005693493 0.4512028487062526 0
vt 0.37976180897284051 0.47594987547009937 0
vt 0.40957859518331896 0.50310880257884638 0
vt 0.44446555292714562 0.52410802520349808 0
vt 0.52126136664458422 0.54214999328079549 0
vt 0.59811146332968212 0.52444609448302837 0
vt 0.63284017155801675 0.50331685418878847 0
vt 0.66274334194683737 0.476284325152802 0
vt 0.68687944904927123 0.44402282816263672 0
vt 0.70418627157323566 0.40768412832516232 0
vt 0.71416295825619458 0.36894611716117098 0
vt 0.71713227182820849 0.32957453844575541 0
vt 0.71408866916236269 0.29283577921252807 0
vt 0.32754080858659734 0.2928538070532577 0
vt 0.32461643031047072 0.32957943453709021 0
vt 0.32766058957393568 0.36887229871124727 0
vt 0.33795917144673293 0.40758400862678823 0
vt 0.35541273381084709 0.44385078636022135 0
vt 0.39019895513253933 0.46636722418120341 0
vt 0.41796329687502604 0.49169654441986416 0
vt 0.45035371752522935 0.5111509933727314 0
vt 0.52129208671861182 0.52773995358023573 0
vt 0.59224200565086416 0.51141004397585221 0
vt 0.62445981331130485 0.49198116847037732 0
vt 0.6522548752954459 0.46671127759377751 0
vt 0.67468210847452292 0.43664116712365264 0
vt 0.6907524754207226 0.40274933065650403 0
vt 0.6998670157661504 0.3663039251532515 0
vt 0.70227121053281349 0.32888161293732326 0
vt 0.70266420714434275 0.29188227160905417 0
vt 0.33894860832581936 0.29185163134754671 0
vt 0.3394174647344394 0.32880257696305609 0
vt 0.34198427267759779 0.3662473956166884 0
vt 0.35136110106788732 0.40255797303590868 0
vt 0.36758632827253895 0.43638336149215395 0
vt 0.35603376195031222 0.012000000000000455 0
vt 0.68542382255635237 0.012339073388467969 0
vt 0.52099760733974165 0.34322779243862994 0
vt 0.5211243993678697 0.57611360545809898 0
vt 0.5651328902913838 0.34525162781862268 0
vt 0.47697607759303057 0.34509507892796465 0
vt 0.57303534091052799 0.35016105472743808 0
vt 0.46923191426188021 0.35001981333207194 0
vt 0.58171237311358703 0.36045010457131021 0
vt 0.57293051417917007 0.58523342448978855 0
vt 0.47797517521552335 0.58034703204010185 0
vt 0.56430735130917153 0.58053013244965979 0
vt 0.76776543724864366 0.77927117651912581 0
vt 0.97112061461455768 0.89220598383061345 0
vt 0.74647346057210862 0.85831166196159192 0
vt 0.83229788994368248 0.72413668798499542 0
vt 0.77172587325977904 0.92084767315184979 0
vt 0.89471262245794503 0.72345077564946103 0
vt 0.83149426424459572 0.96604203972869218 0
vt 0.95093118587752679 0.75316120474506087 0
vt 0.92848953376409171 0.95069676187784691 0
vt 0.98800000000000043 0.81848965325466405 0
vt 0.27351248155817603 0.20379528556848206 0
vt 0.012000000000000455 0.1319240098137085 0
vt 0.27808733759592885 0.11218857402701908 0
vt 0.22129989794086222 0.28168063758174738 0
vt 0.23359818404422553 0.042396988943667197 0
vt 0.14703950558510925 0.30419811924250689 0
vt 0.14753901724477544 0.012000000000000455 0
vt 0.070853602261578968 0.28606295424202383 0
vt 0.048091449802054279 0.055239429266531657 0
vt 0.014905739386298182 0.21860210549371159 0
vt 0.24599421633546026 0.30836694930130998 0
vt 0.11580011323729539 0.83481501646326495 0
vt 0.16730310695889497 0.78343823680071267 0
vt 0.12593425937392316 0.76346574606256867 0
vt 0.1716424682797201 0.80703045129441442 0
vt 0.10450702509899766 0.77484947192838216 0
vt 0.16116450071131549 0.82911376717660257 0
vt 0.093717367725195858 0.79664072537921637 0
vt 0.13945355520102262 0.84089890809523538 0
vt 0.097753634709431367 0.82051107392785705 0
vt 0.6259012529431105 0.85105044593925028 0
vt 0.6797703560646795 0.83843578498766336 0
vt 0.73171353884947166 0.84863781091063528 0
vt 0.81351084798284334 0.62929675232266202 0
vt 0.86734874735303602 0.64195573697733077 0
vt 0.2106100014442997 0.58830833391846293 0
vt 0.26254915177226773 0.5984990530164559 0
vt 0.33221837442165408 0.81400862874603364 0
vt 0.38619429137065014 0.82627463152245562 0
vt 0.88075940741260572 0.2922638665470213 0
vt 0.88075939642554568 0.37683042845440184 0
vt 0.57917672788623953 0.73655006651720734 0
vt 0.88075941076688991 0.18923126133206714 0
vt 0.43209045352270942 0.71261260938291093 0
vt 0.33270395988059193 0.71281546926064898 0
vt 0.31030356451984858 0.4876048992732322 0
vt 0.20926952445631899 0.48591805882165162 0
vt 0.91419731207115407 0.52758357989535065 0
vt 0.81485724869163156 0.52689776466102589 0
vt 0.77951165463882777 0.7377025380586002 0
vt 0.6784912074067887 0.73608682239323642 0
vt 0.33154200652295857 0.54009895504207706 0
vt 0.82886398840984776 0.3029325111884546 0
vt 0.297757925200902 0.53544818732529864 0
vt 0.27810501803788107 0.82598182983473389 0
vt 0.36669188239876188 0.533764439836523 0
vt 0.33198401195402522 0.89910934833811085 0
vt 0.2323420381716329 0.71209210362097353 0
vt 0.77911672548642452 0.19070122695245126 0
vt 0.88075940942521724 0.016539886989618283 0
vt 0.84679062477324907 0.012000000251390008 0
vt 0.68084276861902515 0.92326437405143014 0
vt 0.91472819410881767 0.012000000000000455 0
vt 0.98240214243678914 0.19070122841941373 0
vt 0.93265482098512809 0.30293247391987599 0
vt 0.68075773523710159 0.56286289973860726 0
vt 0.71488161466201994 0.55848934976835574 0
vt 0.81238290178437522 0.71411484950541582 0
vt 0.64529217123392579 0.55800270271555297 0
vt 0.71383019565779271 0.52859527054480293 0
vt 0.76155754963063971 0.63947308561364635 0
vt 0.84866165648362024 0.34892213157605451 0
vt 0.81345083918700734 0.3553486013314881 0
vt 0.21173048232187025 0.67313110629508777 0
vt 0.77811772731506634 0.34935922451835488 0
vt 0.10992979474294821 0.48659890544295792 0
vt 0.15676911410229391 0.60096757898135955 0
vt 0.149867000675657 0.76683642279627484 0
vt 0.21066186651391969 0.31438494165839165 0
vt 0.17545120125993563 0.30793556104828645 0
vt 0.24087763165404386 0.75479790201485875 0
vt 0.18239556976261323 0.70005501397127634 0
vt 0.067616369610887767 0.90008866050001124 0
vt 0.014423204008573869 0.84573282766097546 0
vt 0.10053001478639227 0.68425827987969989 0
vt 0.25335480432362845 0.82035235136620432 0
vt 0.0460457193043428 0.71602917455594395 0
vt 0.22573859687568384 0.89148624095244666 0
vt 0.012000000000000455 0.77098811581497617 0
vt 0.13373593006977141 0.9293067192280503 0
vt 0.23166964758718298 0.12480673037759819 0
vt 0.22952646351885958 0.18911744244262926 0
vt 0.057511860039320968 0.14140044604822372 0
vt 0.059510725937479442 0.20107257159166692 0
vt 0.19230047183391227 0.24335637773972577 0
vt 0.20272946631676189 0.082220755956984096 0
vt 0.14582944080863181 0.25576300774308525 0
vt 0.15005950305811622 0.059935079703869153 0
vt 0.097547137727661243 0.24348828320535229 0
vt 0.080557303775338748 0.090094128441341542 0
vt 0.84393768071680841 0.88012699072799061 0
vt 0.85551527305930153 0.84097868047659385 0
vt 0.8785333482957185 0.84722535131926102 0
vt 0.88987696227604141 0.80795439567636385 0
vt 0.8650764493856391 0.80129533744493642 0
vt 0.85165591000653651 0.88365641160821995 0
vt 0.87317705216898345 0.80210503711004488 0
vt 0.86104756604309907 0.88617141597343074 0
vt 0.88254714695846037 0.80457905035646038 0
vt 0.86916275137839916 0.88688179594555727 0
vt 0.42619947348121268 0.48024581866331117 0
vt 0.40059026602297376 0.45677208097279232 0
vt 0.67738593705054861 0.39788182443452541 0
vt 0.45538608024823268 0.49760876129810933 0
vt 0.5213500858276815 0.51356774084413814 0
vt 0.58732606050826119 0.49844725597804446 0
vt 0.61600654176265857 0.48033503705608305 0
vt 0.64183713681994081 0.4571082050808814 0
vt 0.66278876748135407 0.42943273458989401 0
vt 0.68572300161425248 0.36368007451699386 0
vt 0.68813290079926004 0.32712713305105851 0
vt 0.69033238581903 0.28681958135279978 0
vt 0.35344701941100604 0.32701490318704052 0
vt 0.3512534034673907 0.2867559324813419 0
vt 0.35595586580789312 0.36348925576441077 0
vt 0.36463915384633949 0.39752847660228618 0
vt 0.37966140409438032 0.42894020045872594 0
vt 0.34808750411985001 0.50461611725861022 0
vt 0.38405228223782978 0.53677499064584422 0
vt 0.42471162954442654 0.56168004404994643 0
vt 0.46778367754555367 0.57994449501752998 0
vt 0.57449711102537482 0.58015775627186439 0
vt 0.61759377813436178 0.56202037432943019 0
vt 0.65850883993390852 0.53726240568811745 0
vt 0.69433358171481951 0.50484629144073634 0
vt 0.72337061313015938 0.46600502703542324 0
vt 0.74443754708774335 0.42224763911747182 0
vt 0.75695455997000816 0.37514670827550234 0
vt 0.76042789569606295 0.32564097152166471 0
vt 0.74574002648237059 0.27464275783270581 0
vt 0.29596372004669963 0.27460404374713882 0
vt 0.28130693554310682 0.32570928092777701 0
vt 0.28491865034250391 0.37521264173589802 0
vt 0.29769581882252993 0.42230110973355411 0
vt 0.31908287181023665 0.46586688176734703 0
vt 0.71517122640444031 0.26987307713064307 0
vt 0.32641936593762449 0.26980890036483807 0
vt 0.46934187892076901 0.58502513699142134 0
vt 0.46036383963075833 0.36056319992181823 0
#end 337 textures vertices 

#begin 373 normals 
vn -0.76558800000000005 -0.55623299999999998 0.32323299999999999
vn -0.900003 -0.29242800000000002 0.32323299999999999
vn -0.52898599999999996 -0.171877 0.83104299999999998
vn -0.44998199999999999 -0.32693100000000003 0.83104299999999998
vn -0.42710599999999999 -0.84382699999999999 0.32486199999999998
vn -0.24951899999999999 -0.48802499999999999 0.83640400000000004
vn 0 -0.53684299999999996 0.84368200000000004
vn 0 -0.94350999999999996 0.331343
vn 0.24951899999999999 -0.48802499999999999 0.83640400000000004
vn 0.42710700000000001 -0.84382699999999999 0.32486300000000001
vn 0.76558800000000005 -0.55623299999999998 0.32323400000000002
vn 0.44998100000000002 -0.32693100000000003 0.831044
vn 0.900003 -0.29242899999999999 0.32323400000000002
vn 0.52898500000000004 -0.171878 0.83104299999999998
vn 0.94631900000000002 0 0.32323400000000002
vn 0.55620800000000004 0 0.83104299999999998
vn 0.900003 0.29242899999999999 0.32323400000000002
vn 0.52898500000000004 0.171878 0.83104299999999998
vn 0.76558800000000005 0.55623299999999998 0.32323299999999999
vn 0.44998100000000002 0.32693100000000003 0.83104299999999998
vn 0.55639499999999997 0.76568899999999995 0.322714
vn 0.32694600000000001 0.44973099999999999 0.83117300000000005
vn 0.430205 0.844638 0.318608
vn 0.25521199999999999 0.50025200000000003 0.82741399999999998
vn -0.55623299999999998 0.76558800000000005 0.32323299999999999
vn -0.43017100000000003 0.84425600000000001 0.31966299999999997
vn -0.25467499999999998 0.49982599999999999 0.82783700000000005
vn -0.32693100000000003 0.44998199999999999 0.83104299999999998
vn -0.76558800000000005 0.55623299999999998 0.32323400000000002
vn -0.44998199999999999 0.32693100000000003 0.83104299999999998
vn -0.900003 0.29242899999999999 0.32323400000000002
vn -0.52898500000000004 0.171878 0.83104299999999998
vn -0.94631900000000002 9.9999999999999995e-007 0.32323400000000002
vn -0.55620899999999995 0 0.83104299999999998
vn 0.044260000000000001 0.014381 0.99891700000000005
vn 0.037649000000000002 0.027354 0.99891700000000005
vn 0.024671999999999999 0.032652 0.99916199999999999
vn -0 0.033121999999999999 0.99945099999999998
vn -0.024671999999999999 0.032652 0.99916199999999999
vn -0.037649000000000002 0.027354 0.99891700000000005
vn -0.044260000000000001 0.014381 0.99891700000000005
vn -0.046537000000000002 0 0.99891700000000005
vn -0.044260000000000001 -0.014381 0.99891700000000005
vn -0.037649000000000002 -0.027354 0.99891700000000005
vn -0.026879 -0.037072000000000001 0.99895100000000003
vn -0.020438000000000001 -0.040801999999999998 0.99895800000000001
vn 0.021389999999999999 -0.041980999999999997 0.99888900000000003
vn 0.027354 -0.037649000000000002 0.99891700000000005
vn 0.037649000000000002 -0.027354 0.99891700000000005
vn 0.044260000000000001 -0.014381 0.99891700000000005
vn 0.046537000000000002 0 0.99891700000000005
vn 0.587198 0.19079099999999999 0.78663700000000003
vn 0.49950099999999997 0.36290899999999998 0.786636
vn 0.29900900000000002 0.435861 0.84889300000000001
vn -0 0.149369 0.98878100000000002
vn 0.158857 0.35051900000000002 0.92298500000000006
vn -0.16334299999999999 0.29207 0.94234499999999999
vn -0.29900900000000002 0.435861 0.84889300000000001
vn -0.49950099999999997 0.36290899999999998 0.786636
vn -0.587198 0.19079199999999999 0.786636
vn -0.61741699999999999 0 0.786636
vn -0.587198 -0.19079199999999999 0.786636
vn -0.49950099999999997 -0.36290899999999998 0.786636
vn -0.36290899999999998 -0.49950099999999997 0.786636
vn -0.28244799999999998 -0.55433600000000005 0.78290099999999996
vn 0.28244799999999998 -0.55433600000000005 0.78290199999999999
vn 0.36290800000000001 -0.49950099999999997 0.786636
vn 0.49950099999999997 -0.36290899999999998 0.786636
vn 0.58719900000000003 -0.19079199999999999 0.786636
vn 0.61741699999999999 -0 0.786636
vn 0.90856400000000004 0.295209 0.295572
vn 0.77287099999999997 0.56152400000000002 0.29557099999999997
vn 0.56152299999999999 0.77287099999999997 0.29557099999999997
vn 0.43417099999999997 0.85210799999999998 0.29224499999999998
vn -0.43417099999999997 0.85210799999999998 0.292244
vn -0.56152400000000002 0.77287099999999997 0.29557
vn -0.77287099999999997 0.56152400000000002 0.29557
vn -0.90856400000000004 0.295211 0.29557099999999997
vn -0.95532099999999998 0 0.295572
vn -0.90856400000000004 -0.295211 0.29557099999999997
vn -0.77287099999999997 -0.56152400000000002 0.29557
vn -0.56152400000000002 -0.77287099999999997 0.29557
vn -0.43417099999999997 -0.85210900000000001 0.292244
vn 0.43417099999999997 -0.85210799999999998 0.29224499999999998
vn 0.56152400000000002 -0.77287099999999997 0.29557099999999997
vn 0.77287099999999997 -0.56152299999999999 0.29557099999999997
vn 0.90856400000000004 -0.295211 0.295572
vn 0.95531999999999995 -9.9999999999999995e-007 0.295572
vn 0.90856400000000004 0.29520999999999997 -0.29557099999999997
vn 0.77287099999999997 0.56152400000000002 -0.29557099999999997
vn 0.56152299999999999 0.77287099999999997 -0.29557099999999997
vn 0.43417099999999997 0.85210900000000001 -0.292244
vn -0.43417099999999997 0.85210799999999998 -0.292244
vn -0.56152400000000002 0.77287099999999997 -0.29557
vn -0.77287099999999997 0.56152400000000002 -0.29557
vn -0.90856400000000004 0.295211 -0.29557099999999997
vn -0.95532099999999998 0 -0.29557099999999997
vn -0.90856400000000004 -0.295211 -0.29557099999999997
vn -0.77287099999999997 -0.56152400000000002 -0.29557
vn -0.56152400000000002 -0.77287099999999997 -0.29557
vn -0.43417099999999997 -0.85210900000000001 -0.292244
vn 0.43417099999999997 -0.85210900000000001 -0.292244
vn 0.56152400000000002 -0.77287099999999997 -0.29557
vn 0.77287099999999997 -0.56152400000000002 -0.29557
vn 0.90856400000000004 -0.295211 -0.29557
vn 0.95532099999999998 -9.9999999999999995e-007 -0.29557099999999997
vn 0.587198 0.19079199999999999 -0.786636
vn 0.49950099999999997 0.36290899999999998 -0.786636
vn 0.29900900000000002 0.435861 -0.84889300000000001
vn 0.16334199999999999 0.29207 -0.94234499999999999
vn -0.158857 0.35052 -0.92298500000000006
vn -0.29900900000000002 0.435861 -0.84889300000000001
vn -0.499502 0.36290899999999998 -0.786636
vn -0.58719900000000003 0.19079299999999999 -0.786636
vn -0.61741699999999999 0 -0.786636
vn -0.587198 -0.19079299999999999 -0.786636
vn -0.49950099999999997 -0.36290899999999998 -0.786636
vn -0.36290899999999998 -0.49950099999999997 -0.786636
vn -0.28244799999999998 -0.55433600000000005 -0.78290099999999996
vn 0.28244799999999998 -0.55433600000000005 -0.78290199999999999
vn 0.36290899999999998 -0.49950099999999997 -0.786636
vn 0.49950099999999997 -0.36290899999999998 -0.786636
vn 0.58719900000000003 -0.19079299999999999 -0.786636
vn 0.61741699999999999 -0 -0.786636
vn 0.044260000000000001 0.014381 -0.99891700000000005
vn 0.037649000000000002 0.027354 -0.99891700000000005
vn 0.024671999999999999 0.032653000000000001 -0.99916199999999999
vn -0.024671999999999999 0.032653000000000001 -0.99916199999999999
vn -0 0.14937 -0.98878100000000002
vn -0 0.033123 -0.99945099999999998
vn -0.037649000000000002 0.027354 -0.99891700000000005
vn -0.044260000000000001 0.014381 -0.99891700000000005
vn -0.046537000000000002 0 -0.99891700000000005
vn -0.044260000000000001 -0.014381 -0.99891700000000005
vn -0.037649000000000002 -0.027354 -0.99891700000000005
vn -0.027354 -0.037649000000000002 -0.99891700000000005
vn -0.021389999999999999 -0.041980999999999997 -0.99888900000000003
vn 0.021389999999999999 -0.041980999999999997 -0.99888900000000003
vn 0.027354 -0.037649000000000002 -0.99891700000000005
vn 0.037649000000000002 -0.027354 -0.99891700000000005
vn 0.044260000000000001 -0.014381 -0.99891700000000005
vn 0.046537000000000002 0 -0.99891700000000005
vn -0.52898500000000004 -0.171877 -0.83104299999999998
vn -0.44998100000000002 -0.32693100000000003 -0.83104299999999998
vn -0.24951899999999999 -0.48802499999999999 -0.83640400000000004
vn 0 -0.53684200000000004 -0.84368299999999996
vn 0.24951899999999999 -0.48802499999999999 -0.83640400000000004
vn 0.44998100000000002 -0.32693100000000003 -0.83104299999999998
vn 0.52898500000000004 -0.171878 -0.83104299999999998
vn 0.55620800000000004 0 -0.83104299999999998
vn 0.52898500000000004 0.171878 -0.83104299999999998
vn 0.44998100000000002 0.32693100000000003 -0.83104299999999998
vn 0.32693100000000003 0.44998100000000002 -0.83104299999999998
vn 0.25467499999999998 0.49982599999999999 -0.82783700000000005
vn -0.25467499999999998 0.49982599999999999 -0.82783700000000005
vn -0.32693100000000003 0.44998199999999999 -0.83104299999999998
vn -0.44998199999999999 0.32693100000000003 -0.83104299999999998
vn -0.52898500000000004 0.171878 -0.83104299999999998
vn -0.55620800000000004 9.9999999999999995e-007 -0.83104299999999998
vn -0.90000400000000003 -0.29242800000000002 -0.32323299999999999
vn -0.76558899999999996 -0.55623299999999998 -0.32323200000000002
vn -0.42710700000000001 -0.84382800000000002 -0.32485999999999998
vn 0 -0.94351099999999999 -0.33134200000000003
vn 0.42710700000000001 -0.84382699999999999 -0.32486199999999998
vn 0.76558800000000005 -0.55623299999999998 -0.32323299999999999
vn 0.900003 -0.29242899999999999 -0.32323299999999999
vn 0.94632000000000005 0 -0.32323299999999999
vn 0.900003 0.29242899999999999 -0.32323299999999999
vn 0.76558800000000005 0.55623299999999998 -0.32323299999999999
vn 0.55623299999999998 0.76558800000000005 -0.32323299999999999
vn 0.43017100000000003 0.84425600000000001 -0.31966299999999997
vn -0.43017100000000003 0.84425700000000004 -0.319662
vn -0.55623299999999998 0.76558800000000005 -0.32323299999999999
vn -0.76558800000000005 0.55623299999999998 -0.32323299999999999
vn -0.900003 0.29242899999999999 -0.32323299999999999
vn -0.94632000000000005 9.9999999999999995e-007 -0.32323299999999999
vn -0.95105600000000001 -0.30901699999999999 0
vn -0.95105700000000004 -0.30901600000000001 9.9999999999999995e-007
vn -0.95105700000000004 -0.30901699999999999 9.9999999999999995e-007
vn 0.95105600000000001 -0.30901800000000001 0
vn 0.95105700000000004 -0.30901699999999999 -9.9999999999999995e-007
vn 0.95105600000000001 -0.30901800000000001 -9.9999999999999995e-007
vn 0.95105600000000001 -0.30901800000000001 -0
vn 0.95105600000000001 -0.30901800000000001 0
vn 0.95105600000000001 -0.30901800000000001 9.9999999999999995e-007
vn 0.95105600000000001 -0.30901699999999999 9.9999999999999995e-007
vn 0.95105600000000001 -0.30901800000000001 0
vn 0.95105600000000001 -0.30901899999999999 0
vn 0.95105600000000001 -0.30901800000000001 9.9999999999999995e-007
vn 0.95105700000000004 -0.30901699999999999 0
vn -0.95105600000000001 -0.30901899999999999 -9.9999999999999995e-007
vn -0.95105600000000001 -0.30901800000000001 -9.9999999999999995e-007
vn -0.95105700000000004 -0.30901600000000001 -9.9999999999999995e-007
vn -0.95105700000000004 -0.30901600000000001 -9.9999999999999995e-007
vn -0.95105600000000001 -0.30901899999999999 9.9999999999999995e-007
vn -0.95105700000000004 -0.30901699999999999 9.9999999999999995e-007
vn -0.95105700000000004 -0.30901699999999999 -9.9999999999999995e-007
vn -0.95105600000000001 -0.30901800000000001 9.9999999999999995e-007
vn 0 -0 1
vn 0.175978 -0 0.98439399999999999
vn 0.23341500000000001 -0 0.97237700000000005
vn -0 0 -1
vn -0.175978 0 -0.98439399999999999
vn -0.23341500000000001 -0 -0.97237700000000005
vn -0.23341500000000001 0 0.97237700000000005
vn 0.98930399999999996 9.9999999999999995e-007 0.145872
vn 0.99158800000000002 9.9999999999999995e-007 0.12943099999999999
vn -0.99158800000000002 0 0.12943199999999999
vn -0.98930300000000004 0 0.145873
vn 0.98930399999999996 9.9999999999999995e-007 -0.145871
vn 0.99158900000000005 9.9999999999999995e-007 -0.12943099999999999
vn -0.99158800000000002 -9.9999999999999995e-007 -0.12943099999999999
vn -0.98930399999999996 -9.9999999999999995e-007 -0.145872
vn 0.23341500000000001 0 -0.97237700000000005
vn -0 -1 -0
vn -0 -1 -0
vn 9.9999999999999995e-007 -1 -9.9999999999999995e-007
vn 0 -1 -0
vn -0 -1 0
vn -0 -1 0
vn -9.9999999999999995e-007 -1 9.9999999999999995e-007
vn -9.9999999999999995e-007 -1 0
vn -0 -1 -9.9999999999999995e-007
vn -0 -1 -9.9999999999999995e-007
vn 1.9999999999999999e-006 -1 -9.9999999999999995e-007
vn 1.9999999999999999e-006 -1 -9.9999999999999995e-007
vn -9.9999999999999995e-007 -1 -9.9999999999999995e-007
vn -9.9999999999999995e-007 -1 -9.9999999999999995e-007
vn 1.9999999999999999e-006 -1 9.9999999999999995e-007
vn 1.9999999999999999e-006 -1 9.9999999999999995e-007
vn -1.9999999999999999e-006 -1 9.9999999999999995e-007
vn -9.9999999999999995e-007 -1 0
vn 9.9999999999999995e-007 -1 1.9999999999999999e-006
vn 0 -1 9.9999999999999995e-007
vn -0.29854999999999998 -9.9999999999999995e-007 0.95439399999999996
vn -0.29854999999999998 -9.9999999999999995e-007 0.95439399999999996
vn 0 -9.9999999999999995e-007 1
vn 0 -9.9999999999999995e-007 1
vn 0.15512500000000001 -1.9999999999999999e-006 -0.98789499999999997
vn 0.15512500000000001 -1.9999999999999999e-006 -0.98789499999999997
vn -0.044901999999999997 -3.0000000000000001e-006 -0.99899099999999996
vn -0.044901999999999997 -3.0000000000000001e-006 -0.99899099999999996
vn -0.56273399999999996 -9.9999999999999995e-007 0.82663799999999998
vn -0.56273399999999996 -9.9999999999999995e-007 0.82663799999999998
vn 0.59043000000000001 -3.9999999999999998e-006 0.80708899999999995
vn 0.59043000000000001 -3.9999999999999998e-006 0.80708899999999995
vn 0.80044899999999997 -1.9999999999999999e-006 0.59940000000000004
vn 0.80044800000000005 -1.9999999999999999e-006 0.59940199999999999
vn -0.99980000000000002 9.9999999999999995e-007 0.020022000000000002
vn -0.99980000000000002 9.9999999999999995e-007 0.020022000000000002
vn -0.96373500000000001 0 0.26686100000000001
vn -0.96373500000000001 0 0.26686100000000001
vn 0.99749600000000005 -9.9999999999999995e-007 -0.070723999999999995
vn 0.99749600000000005 -9.9999999999999995e-007 -0.070725999999999997
vn -0.86052200000000001 9.9999999999999995e-007 -0.50941400000000003
vn -0.86052200000000001 9.9999999999999995e-007 -0.50941400000000003
vn 0.91580300000000003 -1.9999999999999999e-006 -0.40162799999999999
vn 0.91580300000000003 -1.9999999999999999e-006 -0.40162799999999999
vn -0.693527 0 -0.72043100000000004
vn -0.693527 0 -0.72043100000000004
vn 0.35792099999999999 -1.9999999999999999e-006 -0.93375200000000003
vn 0.35792099999999999 -1.9999999999999999e-006 -0.93375200000000003
vn 0 1 0
vn 0 1 0
vn 0 1 0
vn 0 1 0
vn -0 1 -0
vn -0 1 -0
vn -0 1 -0
vn -0 1 -0
vn -0 1 0
vn -0 1 0
vn -0 1 0
vn -0 1 0
vn -9.9999999999999995e-007 1 9.9999999999999995e-007
vn -9.9999999999999995e-007 1 9.9999999999999995e-007
vn -9.9999999999999995e-007 1 9.9999999999999995e-007
vn -9.9999999999999995e-007 1 9.9999999999999995e-007
vn 9.9999999999999995e-007 1 9.9999999999999995e-007
vn 9.9999999999999995e-007 1 9.9999999999999995e-007
vn 9.9999999999999995e-007 1 9.9999999999999995e-007
vn 9.9999999999999995e-007 1 9.9999999999999995e-007
vn -3.0000000000000001e-006 1 9.9999999999999995e-007
vn -3.0000000000000001e-006 1 9.9999999999999995e-007
vn -3.0000000000000001e-006 1 9.9999999999999995e-007
vn -3.0000000000000001e-006 1 9.9999999999999995e-007
vn 1.9999999999999999e-006 1 0
vn 1.9999999999999999e-006 1 0
vn 1.9999999999999999e-006 1 0
vn 1.9999999999999999e-006 1 0
vn -1.9999999999999999e-006 1 -1.9999999999999999e-006
vn -1.9999999999999999e-006 1 -1.9999999999999999e-006
vn -1.9999999999999999e-006 1 -1.9999999999999999e-006
vn -1.9999999999999999e-006 1 -1.9999999999999999e-006
vn 9.9999999999999995e-007 1 0
vn 9.9999999999999995e-007 1 0
vn 9.9999999999999995e-007 1 0
vn 9.9999999999999995e-007 1 0
vn 9.9999999999999995e-007 1 -9.9999999999999995e-007
vn 9.9999999999999995e-007 1 -9.9999999999999995e-007
vn 9.9999999999999995e-007 1 -9.9999999999999995e-007
vn 9.9999999999999995e-007 1 -9.9999999999999995e-007
vn 0.44625799999999999 -0.624838 -0.64065000000000005
vn 0.44625700000000001 -0.624838 -0.64065000000000005
vn 0.57475699999999996 -0.100632 -0.81211299999999997
vn 0.57477699999999998 -0.10033 -0.81213599999999997
vn 0.013263 -0.62415900000000002 -0.78118500000000002
vn 0.013263 -0.62415900000000002 -0.78118399999999999
vn 0.01051 -0.095324999999999993 -0.99539100000000003
vn 0.010493000000000001 -0.093294000000000002 -0.995583
vn -0.46111999999999997 -0.62012299999999998 -0.63467700000000005
vn -0.46111999999999997 -0.62012299999999998 -0.63467700000000005
vn -0.58514299999999997 -0.094711000000000004 -0.80537999999999998
vn -0.58514299999999997 -0.094711000000000004 -0.80537999999999998
vn -0.74610699999999996 -0.62012400000000001 -0.242428
vn -0.74610699999999996 -0.62012400000000001 -0.242428
vn -0.94677999999999995 -0.094712000000000005 -0.30763099999999999
vn -0.94678099999999998 -0.094712000000000005 -0.30763099999999999
vn -0.74610699999999996 -0.62012400000000001 0.242428
vn -0.74610699999999996 -0.62012400000000001 0.242428
vn -0.94677999999999995 -0.094712000000000005 0.30763099999999999
vn -0.94677999999999995 -0.094712000000000005 0.30763099999999999
vn -0.46111999999999997 -0.62012299999999998 0.63467700000000005
vn -0.46111999999999997 -0.62012299999999998 0.63467700000000005
vn -0.58514299999999997 -0.094711000000000004 0.80537999999999998
vn -0.58514299999999997 -0.094711000000000004 0.80537999999999998
vn 0 -0.62012299999999998 0.78450399999999998
vn 0 -0.62012299999999998 0.78450399999999998
vn 0 -0.094713000000000006 0.99550499999999997
vn 0 -0.094713000000000006 0.99550499999999997
vn 0.461121 -0.62012299999999998 0.63467700000000005
vn 0.461121 -0.62012299999999998 0.63467700000000005
vn 0.585144 -0.094711000000000004 0.80537999999999998
vn 0.585144 -0.094711000000000004 0.80537999999999998
vn 0.74610699999999996 -0.62012400000000001 0.242428
vn 0.74610699999999996 -0.62012400000000001 0.242428
vn 0.94677999999999995 -0.094712000000000005 0.30763099999999999
vn 0.94677999999999995 -0.094712000000000005 0.30763099999999999
vn 0.74610699999999996 -0.62012400000000001 -0.242428
vn 0.74610699999999996 -0.62012400000000001 -0.242428
vn 0.94677999999999995 -0.094712000000000005 -0.30763099999999999
vn 0.94677999999999995 -0.094712000000000005 -0.30763099999999999
vn 0 1 -0
vn 0 1 -9.9999999999999995e-007
vn 0 1 0
vn 0 1 0
vn 0 1 9.9999999999999995e-007
vn 0 1 0
vn 0 1 -9.9999999999999995e-007
vn 0 1 0
vn 0 1 9.9999999999999995e-007
vn 0 1 0
vn 0 1 0
vn 0.65233799999999997 0.72768699999999997 -0.21195900000000001
vn 0.65233799999999997 0.72768699999999997 -0.21195900000000001
vn 0.65233799999999997 0.72768699999999997 0.21195900000000001
vn 0.65233799999999997 0.72768699999999997 0.21195900000000001
vn 0.40316800000000003 0.72768600000000006 0.55491299999999999
vn 0.40316800000000003 0.72768600000000006 0.55491299999999999
vn 0 0.72768600000000006 0.68591000000000002
vn 0 0.72768600000000006 0.68591000000000002
vn -0.40316800000000003 0.72768600000000006 0.55491299999999999
vn -0.40316800000000003 0.72768600000000006 0.55491299999999999
vn -0.65233799999999997 0.72768699999999997 0.21195900000000001
vn -0.65233799999999997 0.72768699999999997 0.21195900000000001
vn -0.65233799999999997 0.72768699999999997 -0.21195900000000001
vn -0.65233799999999997 0.72768699999999997 -0.21195900000000001
vn -0.40316800000000003 0.72768600000000006 -0.55491299999999999
vn -0.40316800000000003 0.72768600000000006 -0.55491299999999999
vn -0 0.72768600000000006 -0.68591000000000002
vn -0 0.72768600000000006 -0.68591000000000002
vn 0.40316800000000003 0.72768600000000006 -0.55491299999999999
vn 0.40316800000000003 0.72768600000000006 -0.55491299999999999
#end 373 normals 

#begin 250 faces
usemtl initialShadingGroup
g pTorus2
s 1
f 2/2/1 1/1/2 18/18/3 19/19/4 
f 3/3/5 2/2/1 19/19/4 20/20/6 
f 21/21/7 4/4/8 3/3/5 20/20/6 
f 22/22/9 5/5/10 4/4/8 21/21/7 
f 6/6/11 5/5/10 22/22/9 23/23/12 
f 7/7/13 6/6/11 23/23/12 24/24/14 
f 8/8/15 7/7/13 24/24/14 25/25/16 
f 9/9/17 8/8/15 25/25/16 26/26/18 
f 10/10/19 9/9/17 26/26/18 27/27/20 
f 11/11/21 10/10/19 27/27/20 28/28/22 
f 12/12/23 11/11/21 28/28/22 29/29/24 
f 14/14/25 13/13/26 30/30/27 31/31/28 
f 15/15/29 14/14/25 31/31/28 32/32/30 
f 16/16/31 15/15/29 32/32/30 33/33/32 
f 17/17/33 16/16/31 33/33/32 34/34/34 
f 1/1/2 17/17/33 34/34/34 18/18/3 
f 19/19/4 18/18/3 35/35/35 36/36/36 
f 20/20/6 19/19/4 36/36/36 37/37/37 
f 38/38/38 21/21/7 20/20/6 37/37/37 
f 39/39/39 22/22/9 21/21/7 38/38/38 
f 23/23/12 22/22/9 39/39/39 40/40/40 
f 24/24/14 23/23/12 40/40/40 41/41/41 
f 25/25/16 24/24/14 41/41/41 42/42/42 
f 26/26/18 25/25/16 42/42/42 43/43/43 
f 27/27/20 26/26/18 43/43/43 44/44/44 
f 28/28/22 27/27/20 44/44/44 45/45/45 
f 29/29/24 28/28/22 45/45/45 46/46/46 
f 31/31/28 30/30/27 47/47/47 48/48/48 
f 32/32/30 31/31/28 48/48/48 49/49/49 
f 33/33/32 32/32/30 49/49/49 50/50/50 
f 34/34/34 33/33/32 50/50/50 51/51/51 
f 18/18/3 34/34/34 51/51/51 35/35/35 
f 36/36/36 35/35/35 53/53/52 54/54/53 
f 37/37/37 36/36/36 54/54/53 55/55/54 
f 52/52/55 38/38/38 37/37/37 55/55/54 56/56/56 
f 57/57/57 58/58/58 39/39/39 38/38/38 52/52/55 
f 40/40/40 39/39/39 58/58/58 59/59/59 
f 41/41/41 40/40/40 59/59/59 60/60/60 
f 42/42/42 41/41/41 60/60/60 61/61/61 
f 43/43/43 42/42/42 61/61/61 62/62/62 
f 44/44/44 43/43/43 62/62/62 63/63/63 
f 45/45/45 44/44/44 63/63/63 64/64/64 
f 46/46/46 45/45/45 64/64/64 65/65/65 
f 48/48/48 47/47/47 66/66/66 67/67/67 
f 49/49/49 48/48/48 67/67/67 68/68/68 
f 50/50/50 49/49/49 68/68/68 69/69/69 
f 51/51/51 50/50/50 69/69/69 70/70/70 
f 35/35/35 51/51/51 70/70/70 53/53/52 
f 54/54/53 53/53/52 71/71/71 72/72/72 
f 55/55/54 54/54/53 72/72/72 73/73/73 
f 56/56/56 55/55/54 73/73/73 74/74/74 
f 58/58/58 57/57/57 75/75/75 76/76/76 
f 59/59/59 58/58/58 76/76/76 77/77/77 
f 60/60/60 59/59/59 77/77/77 78/78/78 
f 61/61/61 60/60/60 78/78/78 79/79/79 
f 62/62/62 61/61/61 79/79/79 80/80/80 
f 63/63/63 62/62/62 80/80/80 81/81/81 
f 64/64/64 63/63/63 81/81/81 82/82/82 
f 65/65/65 64/64/64 82/82/82 83/83/83 
f 67/67/67 66/66/66 84/84/84 85/85/85 
f 68/68/68 67/67/67 85/85/85 86/86/86 
f 69/69/69 68/68/68 86/86/86 87/87/87 
f 70/70/70 69/69/69 87/87/87 88/88/88 
f 53/53/52 70/70/70 88/88/88 71/71/71 
f 72/72/72 71/71/71 89/89/89 90/90/90 
f 73/73/73 72/72/72 90/90/90 91/91/91 
f 74/74/74 73/73/73 91/91/91 92/92/92 
f 76/76/76 75/75/75 93/93/93 94/94/94 
f 77/77/77 76/76/76 94/94/94 95/95/95 
f 78/78/78 77/77/77 95/95/95 96/96/96 
f 79/79/79 78/78/78 96/96/96 97/97/97 
f 80/80/80 79/79/79 97/97/97 98/98/98 
f 81/81/81 80/80/80 98/98/98 99/99/99 
f 82/82/82 81/81/81 99/99/99 100/100/100 
f 83/83/83 82/82/82 100/100/100 101/101/101 
f 85/85/85 84/84/84 102/102/102 103/103/103 
f 86/86/86 85/85/85 103/103/103 104/104/104 
f 87/87/87 86/86/86 104/104/104 105/105/105 
f 88/88/88 87/87/87 105/105/105 106/106/106 
f 71/71/71 88/88/88 106/106/106 89/89/89 
f 90/317/90 89/316/89 107/107/107 108/108/108 
f 91/318/91 90/317/90 108/108/108 109/109/109 
f 92/319/92 91/318/91 109/109/109 110/110/110 
f 94/321/94 93/320/93 111/111/111 112/112/112 
f 95/322/95 94/321/94 112/112/112 113/113/113 
f 96/323/96 95/322/95 113/113/113 114/114/114 
f 97/324/97 96/323/96 114/114/114 115/115/115 
f 98/325/98 97/324/97 115/115/115 116/116/116 
f 99/326/99 98/325/98 116/116/116 117/117/117 
f 100/327/100 99/326/99 117/117/117 118/118/118 
f 101/328/101 100/327/100 118/118/118 119/119/119 
f 103/330/103 102/329/102 120/120/120 121/121/121 
f 104/331/104 103/330/103 121/121/121 122/122/122 
f 105/332/105 104/331/104 122/122/122 123/123/123 
f 106/333/106 105/332/105 123/123/123 124/124/124 
f 89/316/89 106/333/106 124/124/124 107/107/107 
f 108/108/108 107/107/107 126/126/125 127/127/126 
f 109/109/109 108/108/108 127/127/126 128/128/127 
f 130/130/128 112/112/112 111/111/111 125/125/129 129/129/130 
f 113/113/113 112/112/112 130/130/128 131/131/131 
f 114/114/114 113/113/113 131/131/131 132/132/132 
f 115/115/115 114/114/114 132/132/132 133/133/133 
f 116/116/116 115/115/115 133/133/133 134/134/134 
f 117/117/117 116/116/116 134/134/134 135/135/135 
f 118/118/118 117/117/117 135/135/135 136/136/136 
f 119/119/119 118/118/118 136/136/136 137/137/137 
f 121/121/121 120/120/120 138/138/138 139/139/139 
f 122/122/122 121/121/121 139/139/139 140/140/140 
f 123/123/123 122/122/122 140/140/140 141/141/141 
f 124/124/124 123/123/123 141/141/141 142/142/142 
f 107/107/107 124/124/124 142/142/142 126/126/125 
f 129/129/130 125/125/129 110/110/110 109/109/109 128/128/127 
f 127/127/126 126/126/125 143/143/143 144/144/144 
f 128/128/127 127/127/126 144/144/144 145/145/145 
f 146/146/146 129/129/130 128/128/127 145/145/145 
f 147/147/147 130/130/128 129/129/130 146/146/146 
f 131/131/131 130/130/128 147/147/147 148/148/148 
f 132/132/132 131/131/131 148/148/148 149/149/149 
f 133/133/133 132/132/132 149/149/149 150/150/150 
f 134/134/134 133/133/133 150/150/150 151/151/151 
f 135/135/135 134/134/134 151/151/151 152/152/152 
f 136/136/136 135/135/135 152/152/152 153/153/153 
f 137/137/137 136/136/136 153/153/153 154/154/154 
f 139/139/139 138/138/138 155/155/155 156/156/156 
f 140/140/140 139/139/139 156/156/156 157/157/157 
f 141/141/141 140/140/140 157/157/157 158/158/158 
f 142/142/142 141/141/141 158/158/158 159/159/159 
f 126/126/125 142/142/142 159/159/159 143/143/143 
f 144/144/144 143/143/143 160/160/160 161/161/161 
f 145/145/145 144/144/144 161/161/161 162/162/162 
f 163/163/163 146/146/146 145/145/145 162/162/162 
f 164/164/164 147/147/147 146/146/146 163/163/163 
f 148/148/148 147/147/147 164/164/164 165/165/165 
f 149/149/149 148/148/148 165/165/165 166/166/166 
f 150/150/150 149/149/149 166/166/166 167/167/167 
f 151/151/151 150/150/150 167/167/167 168/168/168 
f 152/152/152 151/151/151 168/168/168 169/169/169 
f 153/153/153 152/152/152 169/169/169 170/170/170 
f 154/154/154 153/153/153 170/170/170 171/171/171 
f 156/156/156 155/155/155 172/172/172 173/173/173 
f 157/157/157 156/156/156 173/173/173 174/174/174 
f 158/158/158 157/157/157 174/174/174 175/175/175 
f 159/159/159 158/158/158 175/175/175 176/176/176 
f 143/143/143 159/159/159 176/176/176 160/160/160 
f 2/299/1 161/161/161 160/160/160 1/300/2 
f 3/302/5 162/162/162 161/161/161 2/299/1 
f 3/302/5 4/303/8 163/163/163 162/162/162 
f 4/303/8 5/304/10 164/164/164 163/163/163 
f 6/305/11 165/165/165 164/164/164 5/304/10 
f 7/306/13 166/166/166 165/165/165 6/305/11 
f 8/307/15 167/167/167 166/166/166 7/306/13 
f 9/301/17 168/168/168 167/167/167 8/307/15 
f 10/308/19 169/169/169 168/168/168 9/301/17 
f 11/309/21 170/170/170 169/169/169 10/308/19 
f 171/171/171 170/170/170 11/309/21 12/310/23 
f 14/311/25 173/173/173 172/172/172 13/312/26 
f 15/313/29 174/174/174 173/173/173 14/311/25 
f 16/314/31 175/175/175 174/174/174 15/313/29 
f 17/315/33 176/176/176 175/175/175 16/314/31 
f 1/300/2 160/160/160 176/176/176 17/315/33 
s 3
f 178/178/177 47/47/178 30/30/179 
s 4
f 177/177/180 46/46/181 65/65/182 
f 177/177/180 83/83/183 101/101/184 
f 101/328/184 119/119/185 177/334/180 
f 119/119/185 137/137/186 177/334/180 
f 154/154/187 171/171/188 177/334/180 
f 171/171/188 12/310/189 177/334/180 
f 177/177/180 12/12/189 29/29/190 
f 177/177/180 65/65/182 83/83/183 
f 137/137/186 154/154/187 177/334/180 
f 177/177/180 29/29/190 46/46/181 
s 3
f 178/178/177 84/84/191 66/66/192 
f 155/155/193 138/138/194 178/335/177 
f 102/102/195 84/84/191 178/178/177 
f 178/335/177 13/312/196 172/172/197 
f 120/120/198 102/329/195 178/335/177 
f 178/178/177 30/30/179 13/13/196 
f 138/138/194 120/120/198 178/335/177 
f 178/178/177 66/66/192 47/47/178 
f 172/172/197 155/155/193 178/335/177 
s 1
f 179/179/199 52/52/55 56/56/200 181/181/201 
f 180/180/202 125/125/129 111/111/203 188/188/204 
f 182/182/205 57/57/57 52/52/55 179/179/199 
f 181/181/201 56/56/200 74/74/206 183/183/207 
f 184/184/208 75/75/209 57/57/57 182/182/205 
f 183/183/207 74/74/206 92/92/210 185/185/211 
f 186/337/212 93/93/213 75/75/209 184/184/208 
f 185/336/211 92/319/210 110/110/110 187/187/214 
f 188/188/204 111/111/203 93/320/213 186/186/212 
f 187/187/214 110/110/110 125/125/129 180/180/202 
s 8
f 189/189/215 179/290/216 181/289/217 191/191/218 
f 190/190/219 180/291/220 188/292/221 198/198/222 
f 192/192/223 182/293/224 179/290/216 189/189/215 
f 191/191/218 181/289/217 183/294/225 193/193/226 
f 194/194/227 184/295/228 182/293/224 192/192/223 
f 193/193/226 183/294/225 185/296/229 195/195/230 
f 196/196/231 186/297/232 184/295/228 194/194/227 
f 195/195/230 185/296/229 187/298/233 197/197/234 
f 198/198/222 188/292/221 186/297/232 196/196/231 
f 197/197/234 187/298/233 180/291/220 190/190/219 
s 10
f 199/199/235 189/280/236 191/279/237 201/201/238 
s 11
f 200/200/239 190/281/240 198/282/241 208/208/242 
s 10
f 202/202/243 192/283/244 189/280/236 199/199/235 
s 12
f 201/201/245 191/279/246 193/284/247 203/203/248 
s 13
f 204/204/249 194/285/250 192/283/251 202/202/252 
s 12
f 203/203/248 193/284/247 195/286/253 205/205/254 
s 13
f 206/206/255 196/287/256 194/285/250 204/204/249 
s 12
f 205/205/254 195/286/253 197/288/257 207/207/258 
s 13
f 208/208/259 198/282/260 196/287/256 206/206/255 
s 11
f 207/207/261 197/288/262 190/281/240 200/200/239 
s off
f 209/266/263 199/270/264 201/269/265 211/211/266 
f 210/210/267 200/271/268 208/272/269 218/218/270 
f 212/212/271 202/273/272 199/270/273 209/266/274 
f 213/213/275 211/211/276 201/269/277 203/274/278 
f 212/212/279 214/214/280 204/275/281 202/273/282 
f 215/215/283 213/213/284 203/274/285 205/276/286 
f 214/214/287 216/216/288 206/277/289 204/275/290 
f 217/217/291 215/215/292 205/276/293 207/278/294 
f 216/216/295 218/218/296 208/272/297 206/277/298 
f 217/217/299 207/278/300 200/271/301 210/210/302 
s 14
f 217/257/303 210/254/304 239/239/305 230/230/306 
s 15
f 210/254/307 218/255/308 238/238/309 239/239/310 
s 16
f 218/263/311 216/261/312 237/237/313 238/258/314 
s 17
f 216/261/315 214/260/316 236/236/317 237/237/318 
s 18
f 214/268/319 212/267/320 235/235/321 236/264/322 
s 19
f 212/267/323 209/209/324 234/234/325 235/235/326 
s 20
f 209/242/327 211/240/328 233/233/329 234/246/330 
s 21
f 211/240/331 213/244/332 232/232/333 233/233/334 
s 22
f 213/249/335 215/248/336 231/231/337 232/247/338 
s 23
f 215/248/339 217/251/340 230/252/341 231/231/342 
s 24
f 219/219/343 220/220/344 229/250/345 
f 220/220/344 221/221/346 229/250/345 
f 221/259/346 222/222/347 229/256/345 
f 222/222/347 223/223/348 229/256/345 
f 223/265/348 224/224/349 229/262/345 
f 224/224/349 225/225/350 229/262/345 
f 225/243/350 226/226/351 229/245/345 
f 226/226/351 227/227/352 229/245/345 
f 227/241/352 228/228/353 229/229/345 
f 228/228/353 219/253/343 229/229/345 
s 23
f 231/231/342 230/252/341 219/253/354 228/228/355 
s 22
f 232/247/338 231/231/337 228/228/356 227/241/357 
s 21
f 233/233/334 232/232/333 227/227/358 226/226/359 
s 20
f 234/246/330 233/233/329 226/226/360 225/243/361 
s 19
f 235/235/326 234/234/325 225/225/362 224/224/363 
s 18
f 236/264/322 235/235/321 224/224/364 223/265/365 
s 17
f 237/237/318 236/236/317 223/223/366 222/222/367 
s 16
f 238/258/314 237/237/313 222/222/368 221/259/369 
s 15
f 239/239/310 238/238/309 221/221/370 220/220/371 
s 14
f 230/230/306 239/239/305 220/220/372 219/219/373 
#end 250 faces
#begin 1 properties
#U3D SYM 0 0 0 1 0 0 0.0001 0
#end 1 properties
