# This file uses centimeters as units for non-parametric coordinates.

mtllib Microwave.mtl
g default
v 5.224538 0.564747 -3.662265
v 5.326725 0.564747 -3.662265
v 5.224538 1.084944 -3.662265
v 5.326725 1.084944 -3.662265
v 5.224538 1.084944 -3.731103
v 5.326725 1.084944 -3.731103
v 5.224538 0.564747 -3.731103
v 5.326725 0.564747 -3.731103
v 5.224538 0.980905 -3.662265
v 5.224538 0.980905 -3.731103
v 5.326725 0.980905 -3.731103
v 5.326725 0.980905 -3.662265
v 5.224538 0.647979 -3.662265
v 5.224538 0.647979 -3.731103
v 5.326725 0.647979 -3.731103
v 5.326725 0.647979 -3.662265
v 5.224538 0.647979 -3.786352
v 5.326725 0.647979 -3.786352
v 5.326725 0.564747 -3.786352
v 5.224538 0.564747 -3.786352
v 5.224538 1.084944 -3.786352
v 5.326725 1.084944 -3.786352
v 5.326725 0.980905 -3.786352
v 5.224538 0.980905 -3.786352
v 3.358383 0.007498 -3.825485
v 5.883898 0.007498 -3.825485
v 3.358383 1.516933 -3.825485
v 5.883898 1.516933 -3.825485
v 3.358383 1.516933 -5.334919
v 5.883898 1.516933 -5.334919
v 3.358383 0.007498 -5.334919
v 5.883898 0.007498 -5.334919
v 3.560424 0.007498 -3.825485
v 3.560424 1.516933 -3.825485
v 3.560424 1.516933 -5.334919
v 3.560424 0.007498 -5.334919
v 5.681857 0.007498 -3.825485
v 5.681857 1.516933 -3.825485
v 5.681857 1.516933 -5.334919
v 5.681857 0.007498 -5.334919
v 3.358383 1.516933 -3.976428
v 3.358383 0.007498 -3.976428
v 3.560424 0.007498 -3.976428
v 5.681857 0.007498 -3.976428
v 5.883898 0.007498 -3.976428
v 5.883898 1.516933 -3.976428
v 5.681857 1.516933 -3.976428
v 3.560424 1.516933 -3.976428
v 3.358383 0.007498 -5.199070
v 3.358383 1.516933 -5.199070
v 3.560424 1.516933 -5.199070
v 5.681857 1.516933 -5.199070
v 5.883898 1.516933 -5.199070
v 5.883898 0.007498 -5.199070
v 5.681857 0.007498 -5.199070
v 3.560424 0.007498 -5.199070
v 3.358383 -0.138870 -3.976428
v 3.560424 -0.138870 -3.976428
v 3.560424 -0.138870 -3.825485
v 3.358383 -0.138870 -3.825485
v 5.681857 -0.138870 -3.976428
v 5.681857 -0.138870 -3.825485
v 5.883898 -0.138870 -3.976428
v 5.883898 -0.138870 -3.825485
v 3.358383 -0.138870 -5.334919
v 3.560424 -0.138870 -5.334919
v 3.560424 -0.138870 -5.199070
v 3.358383 -0.138870 -5.199070
v 5.883898 -0.138870 -5.199070
v 5.681857 -0.138870 -5.199070
v 5.681857 -0.138870 -5.334919
v 5.883898 -0.138870 -5.334919
v 5.469713 0.007498 -3.825485
v 5.469713 1.516933 -3.825485
v 5.469713 1.516933 -3.976428
v 5.469713 1.516933 -5.199070
v 5.469713 1.516933 -5.334919
v 5.469713 0.007498 -5.334919
v 5.469713 0.007498 -5.199070
v 5.469713 0.007498 -3.976428
v 3.630092 0.062576 -3.825485
v 5.400045 0.062576 -3.825485
v 5.400045 1.461855 -3.825485
v 3.630092 1.461855 -3.825485
v 3.630092 0.062576 -3.766382
v 5.400045 0.062576 -3.766382
v 5.400045 1.461855 -3.766382
v 3.630092 1.461855 -3.766382
vt 0.319835 0.717545
vt 0.331495 0.717545
vt 0.331495 0.731643
vt 0.319835 0.731643
vt 0.340853 0.717545
vt 0.340853 0.731643
vt 0.331495 0.788035
vt 0.319835 0.788035
vt 0.331495 0.805657
vt 0.319835 0.805657
vt 0.340853 0.788035
vt 0.340853 0.805657
vt 0.355977 0.736880
vt 0.367637 0.736880
vt 0.367637 0.750978
vt 0.355977 0.750978
vt 0.367637 0.807370
vt 0.355977 0.807370
vt 0.346619 0.750978
vt 0.346619 0.736880
vt 0.367637 0.824992
vt 0.355977 0.824992
vt 0.346619 0.824992
vt 0.346619 0.807370
vt 0.098692 0.458217
vt 0.124259 0.458217
vt 0.124259 0.713888
vt 0.098692 0.713888
vt 0.098692 0.433425
vt 0.124259 0.433425
vt 0.331353 0.458217
vt 0.331353 0.713888
vt 0.354363 0.458217
vt 0.354363 0.713888
vt 0.331353 0.433425
vt 0.354363 0.433425
vt 0.231929 0.998008
vt 0.231929 0.742337
vt 0.257496 0.742337
vt 0.257496 0.998008
vt 0.024835 0.998008
vt 0.024835 0.742337
vt 0.231929 0.717545
vt 0.257496 0.717545
vt 0.001825 0.742337
vt 0.001825 0.998008
vt 0.001825 0.717545
vt 0.024835 0.717545
vt 0.674957 0.864859
vt 0.674957 0.890426
vt 0.650165 0.890426
vt 0.650165 0.864859
vt 0.707098 0.864859
vt 0.707098 0.890426
vt 0.682306 0.890426
vt 0.682306 0.864859
vt 0.737456 0.889651
vt 0.714446 0.889651
vt 0.714446 0.864859
vt 0.737456 0.864859
vt 0.767811 0.889651
vt 0.744801 0.889651
vt 0.744801 0.864859
vt 0.767811 0.864859
vt 0.274493 0.717545
vt 0.274493 0.954558
vt 0.264482 0.954558
vt 0.264482 0.717545
vt 0.280552 0.954558
vt 0.280552 0.717545
vt 0.290563 0.717545
vt 0.290563 0.954558
vt 0.775155 0.864859
vt 0.792464 0.864859
vt 0.792464 0.876519
vt 0.775155 0.876519
vt 0.792464 0.885877
vt 0.775155 0.885877
vt 0.798368 0.874217
vt 0.815676 0.874217
vt 0.815676 0.885877
vt 0.798368 0.885877
vt 0.798368 0.864859
vt 0.815676 0.864859
vt 0.821580 0.882167
vt 0.821580 0.864859
vt 0.830938 0.864859
vt 0.830938 0.882167
vt 0.847008 0.864859
vt 0.847008 0.882167
vt 0.837650 0.882167
vt 0.837650 0.864859
vt 0.001825 0.429768
vt 0.001825 0.395546
vt 0.027392 0.395546
vt 0.027392 0.429768
vt 0.001825 0.072147
vt 0.027392 0.072147
vt 0.234485 0.395546
vt 0.234485 0.429768
vt 0.027392 0.036214
vt 0.001825 0.036214
vt 0.234485 0.072147
vt 0.257496 0.395546
vt 0.257496 0.429768
vt 0.234485 0.036214
vt 0.027392 0.001992
vt 0.001825 0.001992
vt 0.257496 0.072147
vt 0.234485 0.001992
vt 0.257496 0.036214
vt 0.257496 0.001992
vt 0.396614 0.771102
vt 0.396614 0.736880
vt 0.422182 0.736880
vt 0.422182 0.771102
vt 0.807630 0.395546
vt 0.782063 0.395546
vt 0.782063 0.072147
vt 0.807630 0.072147
vt 0.574969 0.072147
vt 0.574969 0.395546
vt 0.782063 0.036214
vt 0.807630 0.036214
vt 0.574969 0.036214
vt 0.574969 0.429768
vt 0.782063 0.429768
vt 0.551959 0.072147
vt 0.551959 0.395546
vt 0.551959 0.036214
vt 0.782063 0.001992
vt 0.574969 0.001992
vt 0.454322 0.771102
vt 0.428755 0.771102
vt 0.428755 0.736880
vt 0.454322 0.736880
vt 0.460895 0.771102
vt 0.460895 0.736880
vt 0.483905 0.736880
vt 0.483905 0.771102
vt 0.514260 0.736880
vt 0.514260 0.771102
vt 0.491250 0.771102
vt 0.491250 0.736880
vt 0.375616 0.733223
vt 0.375616 0.433425
vt 0.385627 0.433425
vt 0.385627 0.733223
vt 0.369995 0.433425
vt 0.369995 0.733223
vt 0.359984 0.733223
vt 0.359984 0.433425
vt 0.296623 0.717545
vt 0.313931 0.717545
vt 0.313931 0.731643
vt 0.296623 0.731643
vt 0.313931 0.788035
vt 0.296623 0.788035
vt 0.313931 0.805657
vt 0.296623 0.805657
vt 0.373402 0.736880
vt 0.390711 0.736880
vt 0.390711 0.793272
vt 0.373402 0.793272
vt 0.264482 0.429768
vt 0.264482 0.395546
vt 0.520153 0.395546
vt 0.520153 0.429768
vt 0.264482 0.072147
vt 0.520153 0.072147
vt 0.544945 0.395546
vt 0.544945 0.429768
vt 0.520153 0.036214
vt 0.264482 0.036214
vt 0.264482 0.001992
vt 0.520153 0.001992
vt 0.544945 0.001992
vt 0.544945 0.036214
vt 0.521604 0.771102
vt 0.521604 0.736880
vt 0.546396 0.736880
vt 0.546396 0.771102
vt 0.658673 0.826980
vt 0.658673 0.861202
vt 0.633881 0.861202
vt 0.633881 0.826980
vt 0.914344 0.826980
vt 0.914344 0.861202
vt 0.668002 0.815179
vt 0.905015 0.815179
vt 0.658673 0.503581
vt 0.668002 0.515381
vt 0.914344 0.503581
vt 0.905015 0.515381
vt 0.658673 0.467647
vt 0.914344 0.467647
vt 0.658673 0.433425
vt 0.914344 0.433425
vt 0.633881 0.467647
vt 0.633881 0.433425
vt 0.553745 0.771102
vt 0.553745 0.736880
vt 0.578537 0.736880
vt 0.578537 0.771102
vt 0.610677 0.736880
vt 0.610677 0.771102
vt 0.585885 0.771102
vt 0.585885 0.736880
vt 0.642817 0.864859
vt 0.642817 0.899081
vt 0.618025 0.899081
vt 0.618025 0.864859
vt 0.391248 0.733223
vt 0.391248 0.433425
vt 0.628260 0.433425
vt 0.628260 0.733223
vn 0.000000 0.000000 1.000000
vn 0.000000 0.000000 1.000000
vn 0.000000 0.000000 1.000000
vn 0.000000 0.000000 1.000000
vn 0.000000 1.000000 0.000000
vn 0.000000 1.000000 0.000000
vn 0.000000 1.000000 0.000000
vn 0.000000 1.000000 0.000000
vn 0.000000 -1.000000 0.000000
vn 0.000000 -1.000000 0.000000
vn 0.000000 -1.000000 0.000000
vn 0.000000 -1.000000 0.000000
vn 1.000000 0.000000 0.000000
vn 1.000000 0.000000 0.000000
vn 1.000000 0.000000 0.000000
vn 1.000000 0.000000 0.000000
vn -1.000000 0.000000 0.000000
vn -1.000000 0.000000 0.000000
vn -1.000000 0.000000 0.000000
vn -1.000000 0.000000 0.000000
vn -1.000000 0.000000 0.000000
vn -1.000000 0.000000 0.000000
vn -1.000000 0.000000 0.000000
vn -1.000000 0.000000 0.000000
vn 1.000000 0.000000 0.000000
vn 1.000000 0.000000 0.000000
vn 1.000000 0.000000 0.000000
vn 1.000000 0.000000 0.000000
vn 0.000000 0.000000 1.000000
vn 0.000000 0.000000 1.000000
vn 0.000000 0.000000 1.000000
vn 0.000000 0.000000 1.000000
vn 0.000000 0.000000 -1.000000
vn 0.000000 0.000000 -1.000000
vn 0.000000 0.000000 -1.000000
vn 0.000000 0.000000 -1.000000
vn 0.000000 1.000000 0.000000
vn 0.000000 1.000000 0.000000
vn 0.000000 1.000000 0.000000
vn 0.000000 1.000000 0.000000
vn 1.000000 0.000000 0.000000
vn 1.000000 0.000000 0.000000
vn 0.000000 -1.000000 0.000000
vn 0.000000 -1.000000 0.000000
vn -1.000000 0.000000 0.000000
vn -1.000000 0.000000 0.000000
vn 0.000000 1.000000 0.000000
vn 0.000000 1.000000 0.000000
vn 1.000000 0.000000 0.000000
vn 1.000000 0.000000 0.000000
vn 0.000000 -1.000000 0.000000
vn 0.000000 -1.000000 0.000000
vn 0.000000 -1.000000 0.000000
vn 0.000000 -1.000000 0.000000
vn -1.000000 0.000000 0.000000
vn -1.000000 0.000000 0.000000
vn 0.000000 1.000000 0.000000
vn 0.000000 1.000000 0.000000
vn 0.000000 1.000000 0.000000
vn 0.000000 1.000000 0.000000
vn 0.000000 0.000000 -1.000000
vn 0.000000 0.000000 -1.000000
vn 0.000000 0.000000 -1.000000
vn 0.000000 0.000000 -1.000000
vn 0.000000 -1.000000 0.000000
vn 0.000000 -1.000000 0.000000
vn 0.000000 -1.000000 0.000000
vn 0.000000 -1.000000 0.000000
vn 1.000000 0.000000 0.000000
vn 1.000000 0.000000 0.000000
vn 1.000000 0.000000 0.000000
vn 1.000000 0.000000 0.000000
vn -1.000000 0.000000 0.000000
vn -1.000000 0.000000 0.000000
vn -1.000000 0.000000 0.000000
vn -1.000000 0.000000 0.000000
vn 0.000000 1.000000 0.000000
vn 0.000000 1.000000 0.000000
vn 0.000000 0.000000 -1.000000
vn 0.000000 0.000000 -1.000000
vn 0.000000 -1.000000 0.000000
vn 0.000000 -1.000000 0.000000
vn 0.000000 -1.000000 0.000000
vn 0.000000 -1.000000 0.000000
vn 0.000000 1.000000 0.000000
vn 0.000000 1.000000 0.000000
vn 0.000000 1.000000 0.000000
vn 0.000000 1.000000 0.000000
vn 0.000000 0.000000 -1.000000
vn 0.000000 0.000000 -1.000000
vn 0.000000 0.000000 -1.000000
vn 0.000000 0.000000 -1.000000
vn 0.000000 -1.000000 0.000000
vn 0.000000 -1.000000 0.000000
vn 0.000000 -1.000000 0.000000
vn 0.000000 -1.000000 0.000000
vn -1.000000 -0.000000 0.000000
vn -1.000000 -0.000000 0.000000
vn -1.000000 -0.000000 0.000000
vn -1.000000 -0.000000 0.000000
vn 0.000000 -1.000000 0.000000
vn 0.000000 -1.000000 0.000000
vn 0.000000 -1.000000 0.000000
vn 0.000000 -1.000000 0.000000
vn 0.000000 -1.000000 -0.000000
vn 0.000000 -1.000000 0.000000
vn 0.000000 -1.000000 0.000000
vn 0.000000 -1.000000 0.000000
vn 0.000000 -1.000000 0.000000
vn 0.000000 -1.000000 0.000000
vn 0.000000 -1.000000 0.000000
vn 0.000000 -1.000000 0.000000
vn 1.000000 -0.000000 0.000000
vn 1.000000 -0.000000 0.000000
vn 1.000000 -0.000000 0.000000
vn 1.000000 -0.000000 0.000000
vn 0.000000 1.000000 0.000000
vn 0.000000 1.000000 0.000000
vn 0.000000 1.000000 0.000000
vn 0.000000 1.000000 0.000000
vn 0.000000 1.000000 0.000000
vn 0.000000 1.000000 0.000000
vn 0.000000 1.000000 0.000000
vn 0.000000 1.000000 0.000000
vn 0.000000 1.000000 0.000000
vn 0.000000 1.000000 0.000000
vn 0.000000 -1.000000 0.000000
vn 0.000000 -1.000000 0.000000
vn 0.000000 -1.000000 -0.000000
vn 0.000000 -1.000000 0.000000
vn 0.000000 -1.000000 0.000000
vn 0.000000 -1.000000 0.000000
vn 0.000000 0.000000 -1.000000
vn 0.000000 0.000000 -1.000000
vn 0.000000 0.000000 -1.000000
vn 0.000000 0.000000 -1.000000
vn 1.000000 0.000000 0.000000
vn 1.000000 0.000000 0.000000
vn 1.000000 0.000000 0.000000
vn 1.000000 0.000000 0.000000
vn 0.000000 0.000000 1.000000
vn 0.000000 0.000000 1.000000
vn 0.000000 0.000000 1.000000
vn 0.000000 0.000000 1.000000
vn -1.000000 0.000000 0.000000
vn -1.000000 0.000000 0.000000
vn -1.000000 0.000000 0.000000
vn -1.000000 0.000000 0.000000
vn -1.000000 0.000000 0.000000
vn -1.000000 0.000000 0.000000
vn 0.000000 0.000000 -1.000000
vn 0.000000 0.000000 -1.000000
vn 0.000000 0.000000 -1.000000
vn 0.000000 0.000000 -1.000000
vn 1.000000 0.000000 0.000000
vn 1.000000 0.000000 0.000000
vn 0.000000 0.000000 1.000000
vn 0.000000 0.000000 1.000000
vn 0.000000 0.000000 1.000000
vn 0.000000 0.000000 1.000000
vn 0.000000 0.000000 -1.000000
vn 0.000000 0.000000 -1.000000
vn 1.000000 0.000000 0.000000
vn 1.000000 0.000000 0.000000
vn 1.000000 0.000000 0.000000
vn 1.000000 0.000000 0.000000
vn 0.000000 0.000000 1.000000
vn 0.000000 0.000000 1.000000
vn 0.000000 0.000000 1.000000
vn 0.000000 0.000000 1.000000
vn -1.000000 0.000000 0.000000
vn -1.000000 0.000000 0.000000
vn 0.000000 0.000000 1.000000
vn 0.000000 0.000000 1.000000
vn 0.000000 0.000000 1.000000
vn 0.000000 0.000000 1.000000
vn -1.000000 0.000000 -0.000001
vn -1.000000 0.000000 -0.000001
vn -1.000000 0.000000 -0.000001
vn -1.000000 0.000000 -0.000001
vn 0.000000 0.000000 -1.000000
vn 0.000000 0.000000 -1.000000
vn 1.000000 0.000000 0.000000
vn 1.000000 0.000000 0.000000
vn 0.000000 0.000000 1.000000
vn 0.000000 0.000000 1.000000
vn 0.000000 0.000000 1.000000
vn 0.000000 0.000000 1.000000
vn 0.000000 0.000000 1.000000
vn 0.000000 0.000000 1.000000
vn 0.000000 0.000000 1.000000
vn 0.000000 0.000000 1.000000
vn 0.000000 0.000000 1.000000
vn 0.000000 0.000000 1.000000
vn 0.000000 0.000000 1.000000
vn 0.000000 0.000000 1.000000
vn 0.000000 0.000000 1.000000
vn 0.000000 0.000000 1.000000
vn 0.000000 -1.000000 -0.000000
vn 0.000000 -1.000000 0.000000
vn 0.000000 0.000000 1.000000
vn 0.000000 0.000000 1.000000
vn 0.000000 0.000000 1.000000
vn 0.000000 0.000000 1.000000
vn 0.000001 0.000000 1.000000
vn 0.000001 0.000000 1.000000
vn 0.000001 0.000000 1.000000
vn 0.000001 0.000000 1.000000
vn 0.000000 0.000000 1.000000
vn 0.000000 0.000000 1.000000
vn 0.000000 0.000000 1.000000
vn 0.000000 0.000000 1.000000
vn -0.000001 0.000000 1.000000
vn -0.000001 0.000000 1.000000
vn -0.000001 0.000000 1.000000
vn -0.000001 0.000000 1.000000
vn 0.000000 -1.000000 0.000000
vn 0.000000 -1.000000 0.000000
vn 0.000000 -1.000000 0.000000
vn 0.000000 -1.000000 0.000000
vn 1.000000 0.000000 0.000000
vn 1.000000 0.000000 0.000000
vn 1.000000 0.000000 0.000000
vn 1.000000 0.000000 0.000000
vn 0.000000 1.000000 0.000000
vn 0.000000 1.000000 0.000000
vn 0.000000 1.000000 0.000000
vn 0.000000 1.000000 0.000000
vn -1.000000 0.000000 0.000000
vn -1.000000 0.000000 0.000000
vn -1.000000 0.000000 0.000000
vn -1.000000 0.000000 0.000000
s 1
g pCube3
usemtl initialShadingGroup
f 1/153/1 2/154/2 16/155/3 13/156/4
s 2
f 3/73/5 4/74/6 6/75/7 5/76/8
s 3
f 7/79/9 8/80/10 2/81/11 1/82/12
s 4
f 2/1/13 8/2/14 15/3/15 16/4/16
s 5
f 7/13/17 1/14/18 13/15/19 14/16/20
f 10/18/21 9/17/22 3/21/23 5/22/24
s 4
f 12/8/25 11/7/26 6/9/27 4/10/28
s 1
f 9/158/29 12/157/30 4/159/31 3/160/32
s 5
f 14/16/20 13/15/19 9/17/22 10/18/21
s off
f 10/161/33 11/162/34 15/163/35 14/164/36
s 4
f 16/4/16 15/3/15 11/7/26 12/8/25
s 1
f 13/156/4 16/155/3 12/157/30 9/158/29
s off
f 14/85/37 15/86/38 18/87/39 17/88/40
s 4
f 15/3/15 8/2/14 19/5/41 18/6/42
s 3
f 8/80/10 7/79/9 20/83/43 19/84/44
s 5
f 7/13/17 14/16/20 17/19/45 20/20/46
s 2
f 5/76/8 6/75/7 22/77/47 21/78/48
s 4
f 6/9/27 11/7/26 23/11/49 22/12/50
s off
f 11/89/51 10/90/52 24/91/53 23/92/54
s 5
f 10/18/21 5/22/24 21/23/55 24/24/56
s 6
f 27/93/57 34/94/58 48/95/59 41/96/60
s 7
f 29/165/61 35/166/62 36/167/63 31/168/64
s off
f 57/113/65 58/114/66 59/115/67 60/116/68
s 8
f 26/25/69 45/26/70 46/27/71 28/28/72
s 9
f 41/37/73 42/38/74 25/39/75 27/40/76
s 6
f 74/97/77 75/98/78 48/95/59 34/94/58
s 7
f 77/169/79 78/170/80 36/167/63 35/166/62
s 10
f 33/117/81 43/118/82 80/119/83 73/120/84
s 6
f 46/107/85 47/101/86 38/102/87 28/108/88
s 7
f 40/173/89 39/174/90 30/175/91 32/176/92
s off
f 62/133/93 61/134/94 63/135/95 64/136/96
s 9
f 31/45/97 49/42/98 50/41/99 29/46/100
s off
f 65/137/101 66/138/102 67/139/103 68/140/104
s 10
f 78/128/105 79/121/106 56/122/107 36/129/108
s off
f 69/141/109 70/142/110 71/143/111 72/144/112
s 8
f 53/32/113 54/31/114 32/33/115 30/34/116
s 6
f 39/111/117 52/106/118 53/110/119 30/112/120
f 76/103/121 77/109/122 35/104/123 51/99/124
f 50/100/125 51/99/124 35/104/123 29/105/126
s 9
f 50/41/99 49/42/98 42/38/74 41/37/73
s 6
f 41/96/60 48/95/59 51/99/124 50/100/125
f 51/99/124 48/95/59 75/98/78 76/103/121
f 53/110/119 52/106/118 47/101/86 46/107/85
s 8
f 46/27/71 45/26/70 54/31/114 53/32/113
s 10
f 45/131/127 44/123/128 55/125/129 54/132/130
f 79/121/106 80/119/83 43/118/82 56/122/107
f 49/126/131 56/122/107 43/118/82 42/127/132
s off
f 42/179/133 43/180/134 58/181/135 57/182/136
f 43/49/137 33/50/138 59/51/139 58/52/140
f 33/183/141 25/184/142 60/185/143 59/186/144
s 9
f 25/39/75 42/38/74 57/43/145 60/44/146
s off
f 37/53/147 44/54/148 61/55/149 62/56/150
f 44/201/151 45/202/152 63/203/153 61/204/154
s 8
f 45/26/70 26/25/69 64/29/155 63/30/156
s off
f 26/197/157 37/195/158 62/199/159 64/200/160
s 7
f 31/168/64 36/167/63 66/171/161 65/172/162
s off
f 36/57/163 56/58/164 67/59/165 66/60/166
f 56/205/167 49/206/168 68/207/169 67/208/170
s 9
f 49/42/98 31/45/97 65/47/171 68/48/172
s off
f 54/209/173 55/210/174 70/211/175 69/212/176
f 55/61/177 40/62/178 71/63/179 70/64/180
s 7
f 40/173/89 32/176/92 72/177/181 71/178/182
s 8
f 32/33/115 54/31/114 69/35/183 72/36/184
s 16
f 38/196/185 37/195/186 26/197/187 28/198/188
s off
f 33/183/189 34/187/190 27/188/191 25/184/192
f 85/213/193 86/214/194 87/215/195 88/216/196
s 16
f 74/193/197 73/191/198 37/195/186 38/196/185
s 6
f 47/101/86 75/98/78 74/97/77 38/102/87
f 76/103/121 75/98/78 47/101/86 52/106/118
f 39/111/117 77/109/122 76/103/121 52/106/118
s 7
f 40/173/89 78/170/80 77/169/79 39/174/90
s 10
f 55/125/129 79/121/106 78/128/105 40/130/199
f 44/123/128 80/119/83 79/121/106 55/125/129
f 73/120/84 80/119/83 44/123/128 37/124/200
s off
f 33/183/201 73/191/202 82/192/203 81/189/204
f 73/191/205 74/193/206 83/194/207 82/192/208
f 74/193/209 34/187/210 84/190/211 83/194/212
f 34/187/213 33/183/214 81/189/215 84/190/216
f 81/145/217 82/146/218 86/147/219 85/148/220
f 82/65/221 83/66/222 87/67/223 86/68/224
f 83/149/225 84/150/226 88/151/227 87/152/228
f 84/69/229 81/70/230 85/71/231 88/72/232
