#File written by LIBUNFOLD3D. Compilation :Dec 22 2011,11:53:02
mtllib MilkBottle.mtl
#begin vertices
v -4.5182010000000004 0.15448999999999999 -0.079132999999999995
v -4.5545749999999998 0.15448999999999999 -0.15051999999999999
v -4.5143560000000003 0.28320499999999998 -0.17974100000000001
v -4.4709219999999998 0.28320499999999998 -0.094494999999999996
v -4.6112279999999997 0.15448999999999999 -0.207173
v -4.5820100000000004 0.28320499999999998 -0.247393
v -4.6826150000000002 0.15448999999999999 -0.24354700000000001
v -4.6672529999999997 0.28320499999999998 -0.290827
v -4.7617479999999999 0.15448999999999999 -0.25607999999999997
v -4.7617479999999999 0.28320499999999998 -0.30579400000000001
v -4.8408810000000004 0.15448999999999999 -0.24354700000000001
v -4.8562459999999996 0.28320499999999998 -0.290827
v -4.9122690000000002 0.15448999999999999 -0.207173
v -4.9414889999999998 0.28320499999999998 -0.247393
v -4.9689230000000002 0.15448999999999999 -0.15051999999999999
v -5.0091400000000004 0.28320499999999998 -0.17974100000000001
v -5.0052989999999999 0.15448999999999999 -0.079132999999999995
v -5.0525770000000003 0.28320499999999998 -0.094495999999999997
v -5.0178279999999997 0.15448999999999999 0
v -5.0675420000000004 0.28320499999999998 0
v -5.0052989999999999 0.15448999999999999 0.079132999999999995
v -5.0525770000000003 0.28320499999999998 0.094495999999999997
v -4.9689230000000002 0.15448999999999999 0.15051999999999999
v -5.0091400000000004 0.28320499999999998 0.17974100000000001
v -4.9122690000000002 0.15448999999999999 0.207173
v -4.9414889999999998 0.28320499999999998 0.247393
v -4.8408810000000004 0.15448999999999999 0.24354700000000001
v -4.8562440000000002 0.28320499999999998 0.290827
v -4.7617479999999999 0.15448999999999999 0.25607999999999997
v -4.7617479999999999 0.28320499999999998 0.30579400000000001
v -4.6826150000000002 0.15448999999999999 0.24354700000000001
v -4.6672529999999997 0.28320499999999998 0.290827
v -4.6112279999999997 0.15448999999999999 0.207173
v -4.5820100000000004 0.28320499999999998 0.247392
v -4.5545749999999998 0.15448999999999999 0.15051999999999999
v -4.5143560000000003 0.28320499999999998 0.17974100000000001
v -4.5182019999999996 0.15448999999999999 0.079132999999999995
v -4.4709219999999998 0.28320499999999998 0.094494999999999996
v -4.505668 0.15448999999999999 0
v -4.4559550000000003 0.28320499999999998 0
v -4.5262250000000002 0.40934199999999998 -0.17111799999999999
v -4.4848739999999996 0.40934199999999998 -0.089962
v -4.5906310000000001 0.40934199999999998 -0.23552400000000001
v -4.671786 0.40934199999999998 -0.27687400000000001
v -4.7617479999999999 0.40934199999999998 -0.29112300000000002
v -4.8517099999999997 0.40934199999999998 -0.27687400000000001
v -4.9328659999999998 0.40934199999999998 -0.23552300000000001
v -4.9972729999999999 0.40934199999999998 -0.17111799999999999
v -5.0386249999999997 0.40934199999999998 -0.089962
v -5.0528709999999997 0.40934199999999998 0
v -5.0386249999999997 0.40934199999999998 0.089962
v -4.9972729999999999 0.40934199999999998 0.17111799999999999
v -4.9328659999999998 0.40934199999999998 0.23552300000000001
v -4.8517099999999997 0.40934199999999998 0.27687400000000001
v -4.7617479999999999 0.40934199999999998 0.29112300000000002
v -4.671786 0.40934199999999998 0.27687400000000001
v -4.5906310000000001 0.40934199999999998 0.23552300000000001
v -4.5262250000000002 0.40934199999999998 0.17111799999999999
v -4.4848759999999999 0.40934199999999998 0.089962
v -4.4706260000000002 0.40934199999999998 0
v -4.555097 0.52685199999999999 -0.150143
v -4.5188119999999996 0.52685099999999996 -0.078935000000000005
v -4.611605 0.52685199999999999 -0.206654
v -4.6828139999999996 0.52685099999999996 -0.24293699999999999
v -4.7617479999999999 0.52685199999999999 -0.25543900000000003
v -4.8406830000000003 0.52685199999999999 -0.24293699999999999
v -4.9118909999999998 0.52685199999999999 -0.206654
v -4.9684030000000003 0.52685099999999996 -0.150143
v -5.0046850000000003 0.52685099999999996 -0.078935000000000005
v -5.0171869999999998 0.52685199999999999 -0
v -5.0046850000000003 0.52685199999999999 0.078935000000000005
v -4.9684030000000003 0.52685099999999996 0.150143
v -4.9118909999999998 0.52685099999999996 0.206654
v -4.8406830000000003 0.52685199999999999 0.24293699999999999
v -4.7617479999999999 0.52685199999999999 0.25543900000000003
v -4.6828139999999996 0.52685199999999999 0.24293699999999999
v -4.611605 0.52685199999999999 0.206654
v -4.555097 0.52685199999999999 0.150143
v -4.5188119999999996 0.52685199999999999 0.078935000000000005
v -4.50631 0.52685099999999996 0
v -4.5515739999999996 0.64503100000000002 -0.1527
v -4.5146740000000003 0.64503100000000002 -0.080279000000000003
v -4.6090479999999996 0.64503100000000002 -0.210174
v -4.6814689999999999 0.64503100000000002 -0.24707399999999999
v -4.7617479999999999 0.64503100000000002 -0.25978899999999999
v -4.842028 0.64503100000000002 -0.24707399999999999
v -4.9144480000000001 0.64503100000000002 -0.210174
v -4.9719230000000003 0.64503100000000002 -0.1527
v -5.008826 0.64503100000000002 -0.080279000000000003
v -5.0215370000000004 0.64503100000000002 0
v -5.008826 0.64503100000000002 0.080279000000000003
v -4.9719230000000003 0.64503100000000002 0.1527
v -4.9144480000000001 0.64503100000000002 0.210174
v -4.842028 0.64503100000000002 0.24707399999999999
v -4.7617479999999999 0.64503100000000002 0.25978899999999999
v -4.6814689999999999 0.64503100000000002 0.24707399999999999
v -4.6090479999999996 0.64503100000000002 0.210174
v -4.5515739999999996 0.64503100000000002 0.1527
v -4.5146750000000004 0.64503100000000002 0.080279000000000003
v -4.5019590000000003 0.64503100000000002 0
v -4.56386 0.113592 -0.064297999999999994
v -4.5934150000000002 0.113592 -0.12230199999999999
v -4.7617479999999999 0.111979 -0
v -4.6394469999999997 0.113592 -0.16833400000000001
v -4.6974530000000003 0.113592 -0.19788800000000001
v -4.7617479999999999 0.113592 -0.20807200000000001
v -4.8260459999999998 0.113592 -0.19788800000000001
v -4.8840500000000002 0.113592 -0.16833400000000001
v -4.9300819999999996 0.113592 -0.12230199999999999
v -4.9596359999999997 0.113592 -0.064297999999999994
v -4.9698190000000002 0.113592 -0
v -4.9596359999999997 0.113592 0.064297999999999994
v -4.9300819999999996 0.113592 0.12230199999999999
v -4.8840500000000002 0.113592 0.16833400000000001
v -4.8260459999999998 0.113592 0.19788800000000001
v -4.7617479999999999 0.113592 0.20807200000000001
v -4.6974530000000003 0.113592 0.19788800000000001
v -4.6394469999999997 0.113592 0.16833400000000001
v -4.5934150000000002 0.113592 0.12230100000000001
v -4.5638610000000002 0.113592 0.064297999999999994
v -4.5536770000000004 0.113592 0
v -4.5745839999999998 0.77133099999999999 -0.13598299999999999
v -4.5417230000000002 0.77133099999999999 -0.071489999999999998
v -4.6257650000000003 0.77133099999999999 -0.187165
v -4.690258 0.77133099999999999 -0.220025
v -4.7617479999999999 0.77133099999999999 -0.231348
v -4.83324 0.77133099999999999 -0.220025
v -4.8977310000000003 0.77133099999999999 -0.187165
v -4.9489140000000003 0.77133099999999999 -0.13598299999999999
v -4.9817739999999997 0.77133099999999999 -0.071489999999999998
v -4.9930960000000004 0.77133099999999999 -0
v -4.9817739999999997 0.77133099999999999 0.071489999999999998
v -4.9489140000000003 0.77133099999999999 0.13598299999999999
v -4.8977310000000003 0.77133099999999999 0.187164
v -4.83324 0.77133099999999999 0.220025
v -4.7617479999999999 0.77133099999999999 0.231348
v -4.690258 0.77133099999999999 0.220025
v -4.6257650000000003 0.77133099999999999 0.187164
v -4.5745839999999998 0.77133099999999999 0.13598299999999999
v -4.5417249999999996 0.77133099999999999 0.071490999999999999
v -4.5304000000000002 0.77133099999999999 0
v -4.6329950000000002 0.83518599999999998 -0.093545000000000003
v -4.6103889999999996 0.83518700000000001 -0.049180000000000001
v -4.6682030000000001 0.83518599999999998 -0.12875400000000001
v -4.7125690000000002 0.83518700000000001 -0.15135899999999999
v -4.7617479999999999 0.83518700000000001 -0.15914800000000001
v -4.8109289999999998 0.83518700000000001 -0.15135899999999999
v -4.8552939999999998 0.83518700000000001 -0.12875400000000001
v -4.8905029999999998 0.83518700000000001 -0.093545000000000003
v -4.9131080000000003 0.83518700000000001 -0.049179
v -4.9208959999999999 0.83518700000000001 -0
v -4.9131080000000003 0.83518700000000001 0.049179
v -4.8905029999999998 0.83518700000000001 0.093545000000000003
v -4.8552939999999998 0.83518599999999998 0.12875400000000001
v -4.8109289999999998 0.83518700000000001 0.15135899999999999
v -4.7617479999999999 0.83518700000000001 0.15914800000000001
v -4.7125690000000002 0.83518700000000001 0.15135899999999999
v -4.6682030000000001 0.83518700000000001 0.12875400000000001
v -4.6329950000000002 0.83518599999999998 0.093545000000000003
v -4.6103899999999998 0.83518599999999998 0.049179
v -4.6026009999999999 0.83518700000000001 0
v -4.6856059999999999 0.873108 -0.055321000000000002
v -4.672237 0.873108 -0.029083999999999999
v -4.7064269999999997 0.873108 -0.076143000000000002
v -4.7326649999999999 0.873108 -0.089511999999999994
v -4.7617479999999999 0.873108 -0.094117999999999993
v -4.7908330000000001 0.873108 -0.089511999999999994
v -4.8170700000000002 0.873108 -0.076143000000000002
v -4.8378920000000001 0.873108 -0.055321000000000002
v -4.8512599999999999 0.873108 -0.029083999999999999
v -4.8558659999999998 0.873108 -0
v -4.8512599999999999 0.873108 0.029083999999999999
v -4.8378920000000001 0.873108 0.055321000000000002
v -4.8170700000000002 0.873108 0.076143000000000002
v -4.7908330000000001 0.873108 0.089510999999999993
v -4.7617479999999999 0.873108 0.094117999999999993
v -4.7326649999999999 0.873108 0.089510999999999993
v -4.7064269999999997 0.873108 0.076143000000000002
v -4.6856059999999999 0.873108 0.055321000000000002
v -4.672237 0.873108 0.029083999999999999
v -4.6676310000000001 0.873108 0
#end vertices

#begin 285 textures vertices 
vt 0.81735701490995105 0.72569208768652493 0
vt 0.85898030882913956 0.70879634142941317 0
vt 0.89428050243336943 0.78002910896126543 0
vt 0.84162901333346385 0.80158931527908805 0
vt 0.89779753830212428 0.68559707133845105 0
vt 0.94278816764326567 0.75091205148116613 0
vt 0.9330240469483424 0.65589037812119855 0
vt 0.56454215698586896 0.22043401629658368 0
vt 0.10099562855811296 0.59959201441120347 0
vt 0.055597458842646115 0.66536035042528963 0
vt 0.13948901343490361 0.62321335888641594 0
vt 0.104365229642958 0.69443938141697326 0
vt 0.18106702563587151 0.64047071784701959 0
vt 0.157184944980164 0.71563079257837658 0
vt 0.22485695911654133 0.65049523315418556 0
vt 0.21258573985154461 0.72902009422560554 0
vt 0.26954935765416166 0.65381476292549368 0
vt 0.269495096688316 0.73362195277716225 0
vt 0.31411871845142458 0.64993502138239556 0
vt 0.32655265956717405 0.72950284825083744 0
vt 0.35775549406889667 0.63997797067717554 0
vt 0.38210141059211034 0.71596180357776773 0
vt 0.39934870662914806 0.62306190150544305 0
vt 0.43477078052383972 0.69424325335400527 0
vt 0.43810422274061361 0.5997783754540762 0
vt 0.48323666206854088 0.6649880638111888 0
vt 0.47324978291219411 0.56997915340824934 0
vt 0.5647982054147731 0.056268575223964536 0
vt 0.56063167214485099 0.68569624367183113 0
vt 0.51526868090412381 0.75064536751091004 0
vt 0.59929951207034726 0.70912485840210904 0
vt 0.56367638583219037 0.78003889842638763 0
vt 0.640897819304734 0.72604407418873829 0
vt 0.61638536558233503 0.80176944203896872 0
vt 0.68451040377636463 0.73620496617328235 0
vt 0.67201339232861412 0.81510603665859394 0
vt 0.72909669323646253 0.73929580275312556 0
vt 0.72914319486545376 0.81982236453835289 0
vt 0.77372049560217704 0.73592930174939486 0
vt 0.78613799319295241 0.814913453721957 0
vt 0.44271099198329494 0.26518338381644907 0
vt 0.39161985451587028 0.256657578339478 0
vt 0.4934401132285075 0.27658520899534572 0
vt 0.54374870554140042 0.2913902481135065 0
vt 0.083415713311238052 0.11222345396473982 0
vt 0.13412159023268233 0.10060450057757857 0
vt 0.18532196557648753 0.092128296671593404 0
vt 0.23689283536112349 0.087188268079177123 0
vt 0.28858901065380949 0.085469642076989441 0
vt 0.34023403251550649 0.087390686026893649 0
vt 0.39172838328353587 0.09222809708686297 0
vt 0.44286575692603436 0.10048116252972027 0
vt 0.49354468628330667 0.11218473444842078 0
vt 0.54390741572554091 0.12713521315882165 0
vt 0.083360251521300832 0.27657425560143639 0
vt 0.13406788004698239 0.26491298021453397 0
vt 0.1852131268815958 0.25660566519760408 0
vt 0.23669868408801711 0.25174744759633028 0
vt 0.28837737584362089 0.25001148399633943 0
vt 0.340107851747733 0.25161548133004441 0
vt 0.42879559749469109 0.33455306039708455 0
vt 0.38228006770646328 0.32740865917058654 0
vt 0.47451283471454342 0.34518881255919959 0
vt 0.98522248683490121 0.47473997943500751 0
vt 0.10255588190601854 0.18068251452902689 0
vt 0.14814876859376991 0.16986005689660891 0
vt 0.19453385175136104 0.16248588034917366 0
vt 0.24140082624189002 0.15814700528372333 0
vt 0.28851593961236616 0.15688142801984828 0
vt 0.33563250109551401 0.15802428897262441 0
vt 0.38249480470328129 0.16272032604234454 0
vt 0.42893394470356522 0.17042940561745437 0
vt 0.47472680945239426 0.1806554616764959 0
vt 0.524815929826141 0.37214307950844294 0
vt 0.10218386250736024 0.34488868105099502 0
vt 0.14786680706516867 0.33445795319544569 0
vt 0.19430301863853661 0.32704248458714963 0
vt 0.24117976629459029 0.32262488481548907 0
vt 0.28828823802739967 0.32113924734646954 0
vt 0.33539254006668318 0.32269410117507807 0
vt 0.88600061809992992 0.53166232514831202 0
vt 0.84041004510349382 0.52778845948103226 0
vt 0.93180151904879382 0.53686662909409033 0
vt 0.97813848864594666 0.54350049212003426 0
vt 0.10591011566828526 0.43440312033323575 0
vt 0.15171350259128769 0.42930944247826514 0
vt 0.19738157847893092 0.42580682427253902 0
vt 0.24299448571798615 0.42319418744011816 0
vt 0.28862854710219604 0.42243606548274265 0
vt 0.33418909282809456 0.42353534787798713 0
vt 0.37976243514017921 0.4254302646281175 0
vt 0.42539907212575362 0.42923654573322095 0
vt 0.47127750831116855 0.43444942202400411 0
vt 0.51733117394350459 0.44109961073158382 0
vt 0.56660127642826774 0.53682530951609508 0
vt 0.61243503954029144 0.53148551374015529 0
vt 0.65810006996985537 0.52790242433015844 0
vt 0.70372146510520939 0.52557355642259007 0
vt 0.74929226344057831 0.52497759290146773 0
vt 0.79484823079566858 0.52561943498713193 0
vt 0.52094109672174183 0.90271160603410039 0
vt 0.53454582267115291 0.86757691288155758 0
vt 0.72899509385367967 0.70281227481165454 0
vt 0.53662770110983171 0.82995807586254577 0
vt 0.90517505646899088 0.63155030205561813 0
vt 0.50655537598840339 0.76187929522706777 0
vt 0.47734452866570143 0.73808315105467126 0
vt 0.44221026673888403 0.72447803912413078 0
vt 0.40459142972451517 0.72239616067929213 0
vt 0.36817046633470707 0.73204130752261098 0
vt 0.3365126038352656 0.75246930299394621 0
vt 0.31271607368284599 0.78167971911073009 0
vt 0.29911096175460505 0.81681398103967329 0
vt 0.29702908331238365 0.85443281805419313 0
vt 0.44533544854043033 0.54571031623090349 0
vt 0.32710179442512266 0.92251202992341264 0
vt 0.35631148372722898 0.94630688042515154 0
vt 0.39144651766615179 0.95991285480765431 0
vt 0.42906578591376521 0.96199434726848054 0
vt 0.46548631807528801 0.95234958641363154 0
vt 0.49714456656654737 0.93192202215032238 0
vt 0.87827106074033112 0.60612919019412737 0
vt 0.83531842076444285 0.60308732630545059 0
vt 0.92077214074587643 0.61080040203530972 0
vt 0.98799999999999999 0.93960596207561409 0
vt 0.11715083778639987 0.50870779874056304 0
vt 0.1596461841280461 0.5035854392526451 0
vt 0.2024535153257154 0.49985189132439656 0
vt 0.24546323841953652 0.49808838481561879 0
vt 0.28855985854048877 0.49778963969083978 0
vt 0.33168639453168863 0.49806883578900546 0
vt 0.37471829683827129 0.50052244137791391 0
vt 0.41758736104251148 0.5036032597402178 0
vt 0.45998475337535127 0.5083240800097435 0
vt 0.33234461571079787 0.95784027162551555 0
vt 0.57791257303582233 0.61081955398423704 0
vt 0.62034142926601865 0.60607001514712755 0
vt 0.66311331993525224 0.60214378663143664 0
vt 0.70608387649630822 0.6003246166092987 0
vt 0.74914411266259096 0.59985975182296325 0
vt 0.792256499249266 0.60072645566583793 0
vt 0.90512312587816079 0.90901217063131468 0
vt 0.88234463366088967 0.89196514336673893 0
vt 0.92309011002422303 0.93121414405518532 0
vt 0.93485327686491515 0.95737437935455583 0
vt 0.076942342013276446 0.9494081777550869 0
vt 0.094765012233168563 0.92711319709802287 0
vt 0.11765817507205031 0.91016094779655166 0
vt 0.14402676771520045 0.8995220571579986 0
vt 0.17219521165282914 0.89590355484798578 0
vt 0.20032742612580989 0.8996008506722496 0
vt 0.22669084767681325 0.91014226221607453 0
vt 0.24954633886246852 0.92710713364282016 0
vt 0.26745653935139097 0.94937214636260636 0
vt 0.27920410602566131 0.97554266338535678 0
vt 0.73251850081974856 0.93126327567203082 0
vt 0.75037834655755675 0.90902676168670227 0
vt 0.77320173652849689 0.89202019049636994 0
vt 0.79957039925638795 0.8813552137429449 0
vt 0.82777545442269418 0.87776448278030261 0
vt 0.85593374492492569 0.88146938219158111 0
vt 0.87485581481035501 0.9402507861106848 0
vt 0.86093123763138368 0.9300706264214933 0
vt 0.88560166538717278 0.95369448312646998 0
vt 0.89250213323944061 0.96930479686677495 0
vt 0.11432209124235045 0.97186372396513687 0
vt 0.12517255522441706 0.95851814581391237 0
vt 0.13902271424289192 0.94821804189648018 0
vt 0.15503944669089306 0.94174243029956839 0
vt 0.1721743824359637 0.93950313778291306 0
vt 0.18932966365172238 0.94162700926839948 0
vt 0.20533877026603337 0.9481326707775789 0
vt 0.21918250931807662 0.95842642137266965 0
vt 0.22993542626662924 0.97185936213968116 0
vt 0.23684222620848719 0.98747001548170354 0
vt 0.7699678370542129 0.95370435242256213 0
vt 0.78069744947895481 0.94024759153278836 0
vt 0.79461443389386899 0.93005999701905673 0
vt 0.81060489470809649 0.92353372017777546 0
vt 0.82775788387373894 0.92145358871541994 0
vt 0.84492251302840937 0.92355860807416368 0
vt 0.066474379554888607 0.56967069956735494 0
vt 0.5364131092461597 0.61776285872932468 0
vt 0.012000000000000011 0.62984457937041649 0
vt 0.058120127855908164 0.19467274935539322 0
vt 0.52562060687204626 0.65574057845875799 0
vt 0.72062697646313856 0.95742535401704099 0
vt 0.47211837734713363 0.71545200990467728 0
vt 0.033278485103687555 0.1272062271897503 0
vt 0.059699001952565729 0.44090194426187795 0
vt 0.033013997099453962 0.29159536140191844 0
vt 0.057852828753218719 0.35864544801493675 0
vt 0.52045979859593172 0.54372914025284258 0
vt 0.4168285852039354 0.84219566257181699 0
vt 0.52698178226627601 0.79353625000960204 0
vt 0.68996586487992917 0.70007266487501918 0
vt 0.075304659524729395 0.51567826059878319 0
vt 0.065036717328691374 0.97556923568200959 0
vt 0.10743306413276051 0.98755820357444446 0
vt 0.76309327907216618 0.96940563883848518 0
vt 0.84272588802439163 0.67620245195570727 0
vt 0.80616326670365535 0.69039511841382206 0
vt 0.2302753390933433 0.61437536174053542 0
vt 0.87629505721912548 0.65647218493586945 0
vt 0.76806818817411326 0.69970579134462663 0
vt 0.1232008564234731 0.57071134647920296 0
vt 0.15602714398416842 0.59130043709621494 0
vt 0.094800652261543703 0.5451858745023187 0
vt 0.19217470197774222 0.60579005294500421 0
vt 0.26938536954389491 0.61681279412380408 0
vt 0.30852239533532227 0.61428043506702501 0
vt 0.34656057244982197 0.60475213435924369 0
vt 0.38303214214668935 0.59050063463316893 0
vt 0.41652952750301359 0.5707033126931208 0
vt 0.3066742301581864 0.8908537814421541 0
vt 0.58230655155922384 0.65672659339896944 0
vt 0.55363177503932892 0.63160069905197391 0
vt 0.61565229042883762 0.6766961977928998 0
vt 0.65188000115065725 0.69127928484817902 0
vt 0.94352269346835282 0.86857185223954492 0
vt 0.90931045830740342 0.84342164625941174 0
vt 0.97012665113246932 0.90143495727635592 0
vt 0.96233036698566499 0.61759760353229687 0
vt 0.28788953456354266 0.8868419948658961 0
vt 0.012000000000000011 0.95766103788034396 0
vt 0.029779137983206763 0.91963824296595487 0
vt 0.056527226308680192 0.88686369914899121 0
vt 0.090556205997409892 0.86162732284443677 0
vt 0.12992683315034764 0.84570888101851793 0
vt 0.17211426622573089 0.84021434566764963 0
vt 0.21437924765444383 0.84551964455179685 0
vt 0.25381688327958701 0.86153239751198496 0
vt 0.3144947553700318 0.91967377964868824 0
vt 0.50174035236399028 0.51546005326780753 0
vt 0.68533559160727298 0.90140884524177745 0
vt 0.66756689161848237 0.93946039392114433 0
vt 0.71208178040957393 0.86857420137277297 0
vt 0.74623822336678991 0.84340417844519888 0
vt 0.78565043939973511 0.82766176832671512 0
vt 0.8277512821188292 0.82215296733184307 0
vt 0.86993290583088456 0.8274477803094733 0
vt 0.89215162146813931 0.46377605422813106 0
vt 0.84477602038303046 0.45967487414314512 0
vt 0.93906625602871685 0.46909334399948566 0
vt 0.51906331448757104 0.35899846677532904 0
vt 0.51283681782033119 0.47475097988380577 0
vt 0.098843379358548963 0.36656952960822614 0
vt 0.052718440473197674 0.3720921095411901 0
vt 0.14574193271435645 0.36132459411214413 0
vt 0.19312339816122365 0.35718334462635071 0
vt 0.24079639846466896 0.35531472468785796 0
vt 0.2885188276916737 0.35411771173638845 0
vt 0.33635367714030678 0.35450538980369245 0
vt 0.38406478011764467 0.35722538892542416 0
vt 0.43145052562691183 0.36136845741068552 0
vt 0.47832411037127931 0.36668042827040093 0
vt 0.51911295800548807 0.19430304219556455 0
vt 0.5593659870958656 0.46914552407638649 0
vt 0.60625238857305008 0.46377600017497927 0
vt 0.65366188379393408 0.45973939693341903 0
vt 0.70134812992018547 0.45711190343184865 0
vt 0.74923952789801873 0.45589494579265771 0
vt 0.79709300783866932 0.4570907329547334 0
vt 0.45643771931471055 0.19271294183920235 0
vt 0.40078187022866685 0.18387482314576359 0
vt 0.12047899405129318 0.028565580250854924 0
vt 0.51109879948562398 0.20534583214466001 0
vt 0.17603695274642861 0.019740696904273013 0
vt 0.98616030399360677 0.71602426745204761 0
vt 0.23207469246870982 0.014035697897710947 0
vt 0.012000000000000011 0.056039321070982362 0
vt 0.065703169475253745 0.040839015259713105 0
vt 0.28845968081746626 0.012000000000000011 0
vt 0.34495089114355715 0.013593194315651662 0
vt 0.40112763596365097 0.019332541515863191 0
vt 0.45671046463617077 0.028524635484206088 0
vt 0.51136085009839327 0.041103726045697717 0
vt 0.5265255442437935 0.62997839087128393 0
vt 0.065427891044416264 0.20558445130409525 0
vt 0.012000000000000011 0.22084168333557039 0
vt 0.1201020566192644 0.19298080468582907 0
vt 0.17569953418317147 0.18376189210788652 0
vt 0.2319020720385849 0.17804883769805946 0
vt 0.28833875941983705 0.17657593470684335 0
vt 0.34466179924660612 0.17868299450555375 0
#end 285 textures vertices 

#begin 221 normals 
vn 0.83836100000000002 -0.47217700000000001 -0.272397
vn 0.71314999999999995 -0.47217700000000001 -0.51813699999999996
vn 0.80259199999999997 -0.12575800000000001 -0.58312200000000003
vn 0.94350699999999998 -0.12575800000000001 -0.30656099999999997
vn 0.51813399999999998 -0.47217799999999999 -0.71315099999999998
vn 0.583117 -0.12575800000000001 -0.80259499999999995
vn 0.272401 -0.47217999999999999 -0.83835800000000005
vn 0.30656600000000001 -0.12575800000000001 -0.94350500000000004
vn -0 -0.47217900000000002 -0.88150300000000004
vn -0 -0.12575800000000001 -0.99206099999999997
vn -0.27239799999999997 -0.47218100000000002 -0.83835800000000005
vn -0.30656499999999998 -0.12575800000000001 -0.94350599999999996
vn -0.51813500000000001 -0.47217999999999999 -0.71314999999999995
vn -0.58311999999999997 -0.12575800000000001 -0.802593
vn -0.71314500000000003 -0.47217799999999999 -0.51814199999999999
vn -0.80258799999999997 -0.12575700000000001 -0.58312699999999995
vn -0.83835999999999999 -0.47217999999999999 -0.27239600000000003
vn -0.94350699999999998 -0.12575600000000001 -0.306562
vn -0.88149999999999995 -0.47218399999999999 0
vn -0.99206099999999997 -0.12575500000000001 -0
vn -0.83835999999999999 -0.47217999999999999 0.27239600000000003
vn -0.94350699999999998 -0.12575600000000001 0.306562
vn -0.71314599999999995 -0.47217799999999999 0.51814199999999999
vn -0.80258799999999997 -0.12575700000000001 0.58312699999999995
vn -0.51813299999999995 -0.47217900000000002 0.71315200000000001
vn -0.583117 -0.12575800000000001 0.80259499999999995
vn -0.272399 -0.47217999999999999 0.83835899999999997
vn -0.30656299999999997 -0.12575800000000001 0.94350599999999996
vn -0 -0.47217999999999999 0.88150200000000001
vn -0 -0.12575800000000001 0.99206099999999997
vn 0.272401 -0.47217999999999999 0.83835800000000005
vn 0.30656499999999998 -0.12575800000000001 0.94350500000000004
vn 0.51813399999999998 -0.47217799999999999 0.71315099999999998
vn 0.58311800000000003 -0.12575800000000001 0.80259499999999995
vn 0.71314999999999995 -0.47217700000000001 0.51813600000000004
vn 0.80259400000000003 -0.12575600000000001 0.58311999999999997
vn 0.83835999999999999 -0.47217799999999999 0.272397
vn 0.94350699999999998 -0.125754 0.30656099999999997
vn 0.88150399999999995 -0.47217700000000001 9.9999999999999995e-007
vn 0.99206099999999997 -0.12575500000000001 3.9999999999999998e-006
vn 0.79320400000000002 0.196741 -0.57629900000000001
vn 0.93246899999999999 0.196742 -0.30297600000000002
vn 0.57629900000000001 0.19674 -0.79320400000000002
vn 0.30298000000000003 0.19674 -0.93246799999999996
vn 0 0.196741 -0.98045599999999999
vn -0.302977 0.196742 -0.93246799999999996
vn -0.57629799999999998 0.196741 -0.79320500000000005
vn -0.79320199999999996 0.196741 -0.57630199999999998
vn -0.93246899999999999 0.196743 -0.30297499999999999
vn -0.98045499999999997 0.196743 -0
vn -0.93246899999999999 0.196743 0.30297499999999999
vn -0.79320199999999996 0.196741 0.57630199999999998
vn -0.57629600000000003 0.196741 0.79320599999999997
vn -0.302977 0.196741 0.93246899999999999
vn -0 0.196741 0.98045599999999999
vn 0.302979 0.19674 0.93246799999999996
vn 0.57630000000000003 0.19674 0.79320400000000002
vn 0.79320599999999997 0.196742 0.576295
vn 0.93246799999999996 0.196742 0.30297800000000003
vn 0.98045599999999999 0.196739 6.0000000000000002e-006
vn 0.80119300000000004 0.13872999999999999 -0.58210300000000004
vn 0.941859 0.13873199999999999 -0.306033
vn 0.58210399999999995 0.13873099999999999 -0.80119200000000002
vn 0.30602800000000002 0.13873099999999999 -0.94186000000000003
vn 0 0.13873099999999999 -0.99033000000000004
vn -0.306029 0.13873099999999999 -0.94186000000000003
vn -0.58210099999999998 0.13873099999999999 -0.80119399999999996
vn -0.80118999999999996 0.13873099999999999 -0.58210700000000004
vn -0.94186000000000003 0.13872999999999999 -0.30602800000000002
vn -0.99033000000000004 0.13872899999999999 -0
vn -0.94186000000000003 0.13872999999999999 0.30602800000000002
vn -0.80118900000000004 0.13873099999999999 0.58210700000000004
vn -0.58210099999999998 0.13873199999999999 0.80119399999999996
vn -0.30602800000000002 0.13873099999999999 0.94186000000000003
vn 0 0.13872999999999999 0.99033000000000004
vn 0.30602800000000002 0.13873099999999999 0.94186000000000003
vn 0.58210499999999998 0.13873099999999999 0.80119200000000002
vn 0.80119499999999999 0.13872799999999999 0.58210099999999998
vn 0.941859 0.13872699999999999 0.306033
vn 0.99033099999999996 0.13872799999999999 3.9999999999999998e-006
vn 0.80545299999999997 0.093774999999999997 -0.58519399999999999
vn 0.94686499999999996 0.093776999999999999 -0.30765700000000001
vn 0.58519600000000005 0.093776999999999999 -0.80545100000000003
vn 0.30765500000000001 0.093779000000000001 -0.94686499999999996
vn -0 0.093780000000000002 -0.99559299999999995
vn -0.30765599999999999 0.093779000000000001 -0.94686499999999996
vn -0.58519500000000002 0.093778 -0.80545199999999995
vn -0.80544700000000002 0.093778 -0.585202
vn -0.94686700000000001 0.093778 -0.30765100000000001
vn -0.99559299999999995 0.093779000000000001 -0
vn -0.94686700000000001 0.093778 0.30765100000000001
vn -0.805446 0.093778 0.585202
vn -0.58519500000000002 0.093778 0.80545199999999995
vn -0.30765599999999999 0.093779000000000001 0.94686499999999996
vn 0 0.093780000000000002 0.99559299999999995
vn 0.30765500000000001 0.093779000000000001 0.94686499999999996
vn 0.58519600000000005 0.093776999999999999 0.80545100000000003
vn 0.805454 0.093776999999999999 0.58519200000000005
vn 0.94686400000000004 0.093779000000000001 0.30765799999999999
vn 0.99559299999999995 0.093780000000000002 3.9999999999999998e-006
vn 0.0062709999999999997 -0.99997000000000003 -0.0045560000000000002
vn 0.0073720000000000001 -0.99997000000000003 -0.002395
vn 0 -1 0
vn 0.0045560000000000002 -0.99997000000000003 -0.0062709999999999997
vn 0.002395 -0.99997000000000003 -0.0073720000000000001
vn -0 -0.99997000000000003 -0.0077520000000000002
vn -0.002395 -0.99997000000000003 -0.0073720000000000001
vn -0.0045560000000000002 -0.99997000000000003 -0.0062709999999999997
vn -0.0062709999999999997 -0.99997000000000003 -0.0045570000000000003
vn -0.0073720000000000001 -0.99997000000000003 -0.0023960000000000001
vn -0.0077520000000000002 -0.99997000000000003 0
vn -0.0073720000000000001 -0.99997000000000003 0.0023960000000000001
vn -0.0062709999999999997 -0.99997000000000003 0.0045570000000000003
vn -0.0045560000000000002 -0.99997000000000003 0.0062709999999999997
vn -0.002395 -0.99997000000000003 0.0073720000000000001
vn -0 -0.99997000000000003 0.0077520000000000002
vn 0.002395 -0.99997000000000003 0.0073720000000000001
vn 0.0045560000000000002 -0.99997000000000003 0.0062709999999999997
vn 0.0062709999999999997 -0.99997000000000003 0.0045570000000000003
vn 0.0073720000000000001 -0.99997000000000003 0.0023960000000000001
vn 0.0077520000000000002 -0.99997000000000003 -0
vn 0.61673800000000001 -0.76123499999999999 -0.20038900000000001
vn 0.52462600000000004 -0.76123600000000002 -0.38116499999999998
vn 0.38115900000000003 -0.76123799999999997 -0.52462699999999995
vn 0.20038800000000001 -0.76123799999999997 -0.616734
vn 0 -0.76123700000000005 -0.64847399999999999
vn -0.20039000000000001 -0.76123499999999999 -0.61673699999999998
vn -0.381162 -0.76123600000000002 -0.52462900000000001
vn -0.52461800000000003 -0.76124199999999997 -0.381164
vn -0.61672300000000002 -0.76124899999999995 -0.200381
vn -0.64846199999999998 -0.76124700000000001 0
vn -0.61672300000000002 -0.76124899999999995 0.200381
vn -0.52461800000000003 -0.76124199999999997 0.38116499999999998
vn -0.381162 -0.76123600000000002 0.52462900000000001
vn -0.20039000000000001 -0.76123499999999999 0.61673800000000001
vn 0 -0.76123600000000002 0.64847500000000002
vn 0.20038800000000001 -0.76123799999999997 0.61673500000000003
vn 0.38115900000000003 -0.76123799999999997 0.52462799999999998
vn 0.52462699999999995 -0.76123700000000005 0.38116299999999997
vn 0.61673800000000001 -0.76123499999999999 0.20038900000000001
vn 0.64847600000000005 -0.76123499999999999 1.9999999999999999e-006
vn 0.73307800000000001 0.42299199999999998 -0.53261099999999995
vn 0.86178500000000002 0.42299199999999998 -0.28000900000000001
vn 0.53261199999999997 0.42299100000000001 -0.73307699999999998
vn 0.28000999999999998 0.42299199999999998 -0.86178399999999999
vn -0 0.42299300000000001 -0.90613299999999997
vn -0.28001100000000001 0.42299199999999998 -0.86178399999999999
vn -0.532613 0.42299100000000001 -0.73307699999999998
vn -0.73307299999999997 0.42299300000000001 -0.53261700000000001
vn -0.86178299999999997 0.42299700000000001 -0.280005
vn -0.90613100000000002 0.42299700000000001 -0
vn -0.86178299999999997 0.42299700000000001 0.280005
vn -0.73307299999999997 0.42299300000000001 0.53261700000000001
vn -0.532613 0.42299100000000001 0.73307699999999998
vn -0.28001100000000001 0.42299199999999998 0.86178399999999999
vn -0 0.42299300000000001 0.90613299999999997
vn 0.28001100000000001 0.42299199999999998 0.86178399999999999
vn 0.532613 0.42299100000000001 0.73307699999999998
vn 0.73307999999999995 0.42299199999999998 0.53260799999999997
vn 0.86178399999999999 0.42299300000000001 0.28000999999999998
vn 0.906134 0.42299100000000001 6.0000000000000002e-006
vn 0.53596999999999995 0.74906600000000001 -0.38940399999999997
vn 0.63006899999999999 0.74906799999999996 -0.20472000000000001
vn 0.389405 0.74906700000000004 -0.535968
vn 0.20472099999999999 0.74906799999999996 -0.63006899999999999
vn 0 0.74906799999999996 -0.662493
vn -0.20472099999999999 0.74906799999999996 -0.63006799999999996
vn -0.38940599999999997 0.74906700000000004 -0.535968
vn -0.535968 0.74906700000000004 -0.389405
vn -0.63007000000000002 0.74906799999999996 -0.20471700000000001
vn -0.662493 0.74906799999999996 -0
vn -0.63006899999999999 0.74906899999999998 0.20471600000000001
vn -0.535968 0.74906799999999996 0.389405
vn -0.38940599999999997 0.74906700000000004 0.535968
vn -0.20472099999999999 0.74906799999999996 0.63006899999999999
vn 0 0.74906799999999996 0.662493
vn 0.20472099999999999 0.74906799999999996 0.63006899999999999
vn 0.38940599999999997 0.74906700000000004 0.535968
vn 0.53597300000000003 0.74906600000000001 0.389401
vn 0.63007100000000005 0.74906499999999998 0.20472199999999999
vn 0.662493 0.74906799999999996 5.0000000000000004e-006
vn 0.47909099999999999 0.86385199999999995 -0.155664
vn 0.40754000000000001 0.86385199999999995 -0.296093
vn 0.40754000000000001 0.86385199999999995 -0.296093
vn 0.47909200000000002 0.86385199999999995 -0.155664
vn 0.296095 0.86385199999999995 -0.40753800000000001
vn 0.296095 0.86385199999999995 -0.40753899999999998
vn 0.155666 0.86385100000000004 -0.47909200000000002
vn 0.155665 0.86385100000000004 -0.47909299999999999
vn -0 0.86385100000000004 -0.50374799999999997
vn 0 0.86385100000000004 -0.50374799999999997
vn -0.155666 0.86385100000000004 -0.47909200000000002
vn -0.155665 0.86385100000000004 -0.47909200000000002
vn -0.296095 0.86385199999999995 -0.40753800000000001
vn -0.296095 0.86385199999999995 -0.40753899999999998
vn -0.40753899999999998 0.86385199999999995 -0.29609400000000002
vn -0.40753899999999998 0.86385199999999995 -0.296095
vn -0.47909200000000002 0.86385199999999995 -0.155663
vn -0.47909200000000002 0.86385199999999995 -0.155663
vn -0.503749 0.86385000000000001 0
vn -0.503749 0.86385000000000001 0
vn -0.47909200000000002 0.86385199999999995 0.155663
vn -0.47909200000000002 0.86385199999999995 0.15566199999999999
vn -0.40753899999999998 0.86385199999999995 0.29609400000000002
vn -0.40753899999999998 0.86385199999999995 0.296095
vn -0.29609600000000003 0.86385199999999995 0.40753800000000001
vn -0.296095 0.86385199999999995 0.40753899999999998
vn -0.155666 0.86385199999999995 0.47909099999999999
vn -0.155665 0.86385199999999995 0.47909200000000002
vn -0 0.86385100000000004 0.50374699999999994
vn -0 0.86385100000000004 0.50374699999999994
vn 0.155666 0.86385100000000004 0.47909200000000002
vn 0.155665 0.86385100000000004 0.47909200000000002
vn 0.296095 0.86385199999999995 0.40753899999999998
vn 0.296095 0.86385199999999995 0.40753899999999998
vn 0.40754200000000002 0.86385100000000004 0.296093
vn 0.40754200000000002 0.86385100000000004 0.296093
vn 0.47909299999999999 0.86385100000000004 0.155665
vn 0.47909299999999999 0.86385100000000004 0.155665
vn 0.50374799999999997 0.86385100000000004 1.9999999999999999e-006
vn 0.50374799999999997 0.86385100000000004 1.9999999999999999e-006
#end 221 normals 

#begin 180 faces
usemtl lambert10SG
g polySurface5 pCylinder14
s 1
f 1/1/1 2/2/2 3/3/3 4/4/4 
f 2/2/2 5/5/5 6/6/6 3/3/3 
f 5/5/5 7/7/7 8/269/8 6/6/6 
f 7/182/7 9/9/9 10/10/10 8/184/8 
f 9/9/9 11/11/11 12/12/12 10/10/10 
f 11/11/11 13/13/13 14/14/14 12/12/12 
f 13/13/13 15/15/15 16/16/16 14/14/14 
f 15/15/15 17/17/17 18/18/18 16/16/16 
f 17/17/17 19/19/19 20/20/20 18/18/18 
f 19/19/19 21/21/21 22/22/22 20/20/20 
f 21/21/21 23/23/23 24/24/24 22/22/22 
f 23/23/23 25/25/25 26/26/26 24/24/24 
f 25/25/25 27/27/27 28/278/28 26/26/26 
f 27/186/27 29/29/29 30/30/30 28/188/28 
f 29/29/29 31/31/31 32/32/32 30/30/30 
f 31/31/31 33/33/33 34/34/34 32/32/32 
f 33/33/33 35/35/35 36/36/36 34/34/34 
f 35/35/35 37/37/37 38/38/38 36/36/36 
f 37/37/37 39/39/39 40/40/40 38/38/38 
f 39/39/39 1/1/1 4/4/4 40/40/40 
f 4/265/4 3/264/3 41/41/41 42/42/42 
f 3/264/3 6/267/6 43/43/43 41/41/41 
f 6/267/6 8/8/8 44/44/44 43/43/43 
f 8/271/8 10/272/10 45/45/45 44/189/44 
f 10/272/10 12/266/12 46/46/46 45/45/45 
f 12/266/12 14/268/14 47/47/47 46/46/46 
f 14/268/14 16/270/16 48/48/48 47/47/47 
f 16/270/16 18/273/18 49/49/49 48/48/48 
f 18/273/18 20/274/20 50/50/50 49/49/49 
f 20/274/20 22/275/22 51/51/51 50/50/50 
f 22/275/22 24/276/24 52/52/52 51/51/51 
f 24/276/24 26/277/26 53/53/53 52/52/52 
f 26/277/26 28/28/28 54/54/54 53/53/53 
f 28/280/28 30/279/30 55/55/55 54/191/54 
f 30/279/30 32/281/32 56/56/56 55/55/55 
f 32/281/32 34/282/34 57/57/57 56/56/56 
f 34/282/34 36/283/36 58/58/58 57/57/57 
f 36/283/36 38/284/38 59/59/59 58/58/58 
f 38/284/38 40/285/40 60/60/60 59/59/59 
f 40/285/40 4/265/4 42/42/42 60/60/60 
f 42/42/42 41/41/41 61/61/61 62/62/62 
f 41/41/41 43/43/43 63/63/63 61/61/61 
f 43/43/43 44/44/44 64/245/64 63/63/63 
f 44/189/44 45/45/45 65/65/65 64/185/64 
f 45/45/45 46/46/46 66/66/66 65/65/65 
f 46/46/46 47/47/47 67/67/67 66/66/66 
f 47/47/47 48/48/48 68/68/68 67/67/67 
f 48/48/48 49/49/49 69/69/69 68/68/68 
f 49/49/49 50/50/50 70/70/70 69/69/69 
f 50/50/50 51/51/51 71/71/71 70/70/70 
f 51/51/51 52/52/52 72/72/72 71/71/71 
f 52/52/52 53/53/53 73/73/73 72/72/72 
f 53/53/53 54/54/54 74/257/74 73/73/73 
f 54/191/54 55/55/55 75/75/75 74/192/74 
f 55/55/55 56/56/56 76/76/76 75/75/75 
f 56/56/56 57/57/57 77/77/77 76/76/76 
f 57/57/57 58/58/58 78/78/78 77/77/77 
f 58/58/58 59/59/59 79/79/79 78/78/78 
f 59/59/59 60/60/60 80/80/80 79/79/79 
f 60/60/60 42/42/42 62/62/62 80/80/80 
f 62/243/62 61/242/61 81/81/81 82/82/82 
f 61/242/61 63/244/63 83/83/83 81/81/81 
f 63/244/63 64/64/64 84/84/84 83/83/83 
f 64/248/64 65/247/65 85/85/85 84/190/84 
f 65/247/65 66/249/66 86/86/86 85/85/85 
f 66/249/66 67/250/67 87/87/87 86/86/86 
f 67/250/67 68/251/68 88/88/88 87/87/87 
f 68/251/68 69/252/69 89/89/89 88/88/88 
f 69/252/69 70/253/70 90/90/90 89/89/89 
f 70/253/70 71/254/71 91/91/91 90/90/90 
f 71/254/71 72/255/72 92/92/92 91/91/91 
f 72/255/72 73/256/73 93/93/93 92/92/92 
f 73/256/73 74/74/74 94/94/94 93/93/93 
f 74/246/74 75/258/75 95/95/95 94/193/94 
f 75/258/75 76/259/76 96/96/96 95/95/95 
f 76/259/76 77/260/77 97/97/97 96/96/96 
f 77/260/77 78/261/78 98/98/98 97/97/97 
f 78/261/78 79/262/79 99/99/99 98/98/98 
f 79/262/79 80/263/80 100/100/100 99/99/99 
f 80/263/80 62/243/62 82/82/82 100/100/100 
s 2
f 102/102/101 101/101/102 103/194/103 
f 104/104/104 102/102/101 103/194/103 
f 105/195/105 104/104/104 103/194/103 
f 106/106/106 105/195/105 103/194/103 
f 107/107/107 106/106/106 103/194/103 
f 108/108/108 107/107/107 103/194/103 
f 109/109/109 108/108/108 103/194/103 
f 110/110/110 109/109/109 103/194/103 
f 111/111/111 110/110/110 103/194/103 
f 112/112/112 111/111/111 103/194/103 
f 113/113/113 112/112/112 103/194/103 
f 114/114/114 113/113/113 103/194/103 
f 115/215/115 114/114/114 103/194/103 
f 116/116/116 115/215/115 103/194/103 
f 117/117/117 116/116/116 103/194/103 
f 118/118/118 117/117/117 103/194/103 
f 119/119/119 118/118/118 103/194/103 
f 120/120/120 119/119/119 103/194/103 
f 121/121/121 120/120/120 103/194/103 
f 101/101/102 121/121/121 103/194/103 
s 1
f 2/2/2 1/1/1 101/202/122 102/201/123 
f 5/5/5 2/2/2 102/201/123 104/204/124 
f 7/7/7 5/5/5 104/204/124 105/105/125 
f 9/9/9 7/182/7 105/208/125 106/206/126 
f 11/11/11 9/9/9 106/206/126 107/207/127 
f 13/13/13 11/11/11 107/207/127 108/209/128 
f 15/15/15 13/13/13 108/209/128 109/203/129 
f 17/17/17 15/15/15 109/203/129 110/210/130 
f 19/19/19 17/17/17 110/210/130 111/211/131 
f 21/21/21 19/19/19 111/211/131 112/212/132 
f 23/23/23 21/21/21 112/212/132 113/213/133 
f 25/25/25 23/23/23 113/213/133 114/214/134 
f 27/27/27 25/25/25 114/214/134 115/115/135 
f 29/29/29 27/186/27 115/217/135 116/216/136 
f 31/31/31 29/29/29 116/216/136 117/218/137 
f 33/33/33 31/31/31 117/218/137 118/219/138 
f 35/35/35 33/33/33 118/219/138 119/196/139 
f 37/37/37 35/35/35 119/196/139 120/103/140 
f 39/39/39 37/37/37 120/103/140 121/205/141 
f 1/1/1 39/39/39 121/205/141 101/202/122 
f 82/82/82 81/81/81 122/122/142 123/123/143 
f 81/81/81 83/83/83 124/124/144 122/122/142 
f 83/83/83 84/84/84 125/223/145 124/124/144 
f 84/190/84 85/85/85 126/126/146 125/197/145 
f 85/85/85 86/86/86 127/127/147 126/126/146 
f 86/86/86 87/87/87 128/128/148 127/127/147 
f 87/87/87 88/88/88 129/129/149 128/128/148 
f 88/88/88 89/89/89 130/130/150 129/129/149 
f 89/89/89 90/90/90 131/131/151 130/130/150 
f 90/90/90 91/91/91 132/132/152 131/131/151 
f 91/91/91 92/92/92 133/133/153 132/132/152 
f 92/92/92 93/93/93 134/134/154 133/133/153 
f 93/93/93 94/94/94 135/234/155 134/134/154 
f 94/193/94 95/95/95 136/136/156 135/183/155 
f 95/95/95 96/96/96 137/137/157 136/136/156 
f 96/96/96 97/97/97 138/138/158 137/137/157 
f 97/97/97 98/98/98 139/139/159 138/138/158 
f 98/98/98 99/99/99 140/140/160 139/139/159 
f 99/99/99 100/100/100 141/141/161 140/140/160 
f 100/100/100 82/82/82 123/123/143 141/141/161 
f 123/221/143 122/220/142 142/142/162 143/143/163 
f 122/220/142 124/222/144 144/144/164 142/142/162 
f 124/222/144 125/125/145 145/145/165 144/144/164 
f 125/225/145 126/226/146 146/146/166 145/198/165 
f 126/226/146 127/227/147 147/147/167 146/146/166 
f 127/227/147 128/228/148 148/148/168 147/147/167 
f 128/228/148 129/229/149 149/149/169 148/148/168 
f 129/229/149 130/230/150 150/150/170 149/149/169 
f 130/230/150 131/231/151 151/151/171 150/150/170 
f 131/231/151 132/232/152 152/152/172 151/151/171 
f 132/232/152 133/224/153 153/153/173 152/152/172 
f 133/224/153 134/233/154 154/154/174 153/153/173 
f 134/233/154 135/135/155 155/155/175 154/154/174 
f 135/236/155 136/235/156 156/156/176 155/187/175 
f 136/235/156 137/237/157 157/157/177 156/156/176 
f 137/237/157 138/238/158 158/158/178 157/157/177 
f 138/238/158 139/239/159 159/159/179 158/158/178 
f 139/239/159 140/240/160 160/160/180 159/159/179 
f 140/240/160 141/241/161 161/161/181 160/160/180 
f 141/241/161 123/221/143 143/143/163 161/161/181 
s 3
f 143/143/182 142/142/183 162/162/184 163/163/185 
f 142/142/183 144/144/186 164/164/187 162/162/184 
f 144/144/186 145/145/188 165/165/189 164/164/187 
f 145/198/188 146/146/190 166/166/191 165/199/189 
f 146/146/190 147/147/192 167/167/193 166/166/191 
f 147/147/192 148/148/194 168/168/195 167/167/193 
f 148/148/194 149/149/196 169/169/197 168/168/195 
f 149/149/196 150/150/198 170/170/199 169/169/197 
f 150/150/198 151/151/200 171/171/201 170/170/199 
f 151/151/200 152/152/202 172/172/203 171/171/201 
f 152/152/202 153/153/204 173/173/205 172/172/203 
f 153/153/204 154/154/206 174/174/207 173/173/205 
f 154/154/206 155/155/208 175/175/209 174/174/207 
f 155/187/208 156/156/210 176/176/211 175/200/209 
f 156/156/210 157/157/212 177/177/213 176/176/211 
f 157/157/212 158/158/214 178/178/215 177/177/213 
f 158/158/214 159/159/216 179/179/217 178/178/215 
f 159/159/216 160/160/218 180/180/219 179/179/217 
f 160/160/218 161/161/220 181/181/221 180/180/219 
f 161/161/220 143/143/182 163/163/185 181/181/221 
#end 180 faces
#begin 17 properties
#U3D EDG SEL 26 277
#U3D EDG SEL 27 53
#U3D EDG SEL 53 256
#U3D EDG SEL 73 93
#U3D EDG SEL 114 26
#U3D EDG SEL 93 233
#U3D EDG SEL 134 154
#U3D EDG SEL 154 174
#U3D EDG SEL 181 183
#U3D EDG SEL 270 188
#U3D EDG SEL 188 184
#U3D EDG SEL 247 189
#U3D EDG SEL 207 181
#U3D EDG SEL 189 196
#U3D EDG SEL 224 197
#U3D EDG SEL 197 198
#U3D SYM 0 0 0 1 0 0 0.0001 0
#end 17 properties
