#File written by LIBUNFOLD3D. Compilation :Dec 22 2011,11:53:02
mtllib Milk.mtl
#begin vertices
v -4.5352220000000001 0.166745 -0.073603000000000002
v -4.5690540000000004 0.166745 -0.14000099999999999
v -4.6217480000000002 0.166745 -0.19269500000000001
v -4.6881459999999997 0.166745 -0.22652600000000001
v -4.7617479999999999 0.166745 -0.23818400000000001
v -4.8353510000000002 0.166745 -0.22652600000000001
v -4.9017489999999997 0.166745 -0.19269500000000001
v -4.9544439999999996 0.166745 -0.14000099999999999
v -4.9882770000000001 0.166745 -0.073603000000000002
v -4.9999320000000003 0.166745 0
v -4.9882770000000001 0.166745 0.073603000000000002
v -4.9544439999999996 0.166745 0.14000099999999999
v -4.9017489999999997 0.166745 0.19269500000000001
v -4.8353510000000002 0.166745 0.22652600000000001
v -4.7617479999999999 0.166745 0.23818400000000001
v -4.6881459999999997 0.166745 0.22652600000000001
v -4.6217480000000002 0.166745 0.19269500000000001
v -4.5690540000000004 0.166745 0.14000099999999999
v -4.5352230000000002 0.166745 0.073603000000000002
v -4.5235649999999996 0.166745 0
v -4.4913980000000002 0.28583599999999998 -0.087842000000000003
v -4.5317749999999997 0.28583599999999998 -0.16708600000000001
v -4.5946629999999997 0.28583599999999998 -0.22997400000000001
v -4.6739059999999997 0.28583599999999998 -0.27035100000000001
v -4.7617479999999999 0.28583599999999998 -0.28426400000000002
v -4.8495920000000003 0.28583599999999998 -0.27035100000000001
v -4.9288340000000002 0.28583599999999998 -0.22997400000000001
v -4.9917220000000002 0.28583599999999998 -0.16708600000000001
v -5.0320989999999997 0.28583599999999998 -0.087842000000000003
v -5.0460120000000002 0.28583599999999998 0
v -5.0320989999999997 0.28583599999999998 0.087842000000000003
v -4.9917220000000002 0.28583599999999998 0.16708600000000001
v -4.9288340000000002 0.28583599999999998 0.22997400000000001
v -4.8495900000000001 0.28583599999999998 0.27035100000000001
v -4.7617479999999999 0.28583599999999998 0.28426400000000002
v -4.6739069999999998 0.28583599999999998 0.27035100000000001
v -4.5946629999999997 0.28583599999999998 0.22997400000000001
v -4.5317749999999997 0.28583599999999998 0.16708600000000001
v -4.4913980000000002 0.28583599999999998 0.087842000000000003
v -4.4774849999999997 0.28583599999999998 0
v -4.505071 0.40492800000000001 -0.083399000000000001
v -4.5434060000000001 0.40492800000000001 -0.158635
v -4.6031129999999996 0.40492800000000001 -0.21834300000000001
v -4.6783489999999999 0.40492800000000001 -0.25667699999999999
v -4.7617479999999999 0.40492800000000001 -0.26988600000000001
v -4.845148 0.40492800000000001 -0.25667699999999999
v -4.9203840000000003 0.40492800000000001 -0.21834300000000001
v -4.9800909999999998 0.40492800000000001 -0.158635
v -5.0184280000000001 0.40492800000000001 -0.083399000000000001
v -5.0316349999999996 0.40492800000000001 0
v -5.0184280000000001 0.40492800000000001 0.083399000000000001
v -4.9800909999999998 0.40492800000000001 0.158635
v -4.9203840000000003 0.40492800000000001 0.21834300000000001
v -4.845148 0.40492800000000001 0.25667699999999999
v -4.7617479999999999 0.40492800000000001 0.26988600000000001
v -4.6783489999999999 0.40492800000000001 0.25667699999999999
v -4.6031129999999996 0.40492800000000001 0.21834300000000001
v -4.5434060000000001 0.40492800000000001 0.158635
v -4.5050720000000002 0.40492800000000001 0.083399000000000001
v -4.4918639999999996 0.40492800000000001 0
v -4.5392640000000002 0.52402000000000004 -0.072289000000000006
v -4.5724939999999998 0.52402000000000004 -0.13750299999999999
v -4.6242460000000003 0.52402000000000004 -0.18925600000000001
v -4.6894590000000003 0.52402000000000004 -0.22248399999999999
v -4.7617479999999999 0.52402000000000004 -0.233934
v -4.8340379999999996 0.52402000000000004 -0.22248399999999999
v -4.8992509999999996 0.52402000000000004 -0.18925600000000001
v -4.9510050000000003 0.52402000000000004 -0.13750299999999999
v -4.9842329999999997 0.52402000000000004 -0.072289000000000006
v -4.9956820000000004 0.52402000000000004 -0
v -4.9842329999999997 0.52402000000000004 0.072289000000000006
v -4.9510050000000003 0.52402000000000004 0.13750299999999999
v -4.8992509999999996 0.52402000000000004 0.18925600000000001
v -4.8340379999999996 0.52402000000000004 0.22248399999999999
v -4.7617479999999999 0.52402000000000004 0.233934
v -4.6894590000000003 0.52402000000000004 0.22248399999999999
v -4.6242460000000003 0.52402000000000004 0.18925600000000001
v -4.5724939999999998 0.52402000000000004 0.13750299999999999
v -4.5392640000000002 0.52402000000000004 0.072289000000000006
v -4.5278150000000004 0.52402000000000004 -0
v -4.5402480000000001 0.74129599999999995 -0.073603000000000002
v -4.5724970000000003 0.73107 -0.14000099999999999
v -4.6227260000000001 0.71514200000000006 -0.19269500000000001
v -4.6860179999999998 0.69507200000000002 -0.22652600000000001
v -4.7561770000000001 0.67282399999999998 -0.23818400000000001
v -4.8353510000000002 0.64311200000000002 -0.22652600000000001
v -4.9017489999999997 0.64311200000000002 -0.19269500000000001
v -4.9544439999999996 0.64311200000000002 -0.14000099999999999
v -4.9882770000000001 0.64311200000000002 -0.073603000000000002
v -4.9999320000000003 0.64311200000000002 -0
v -4.9882770000000001 0.64311200000000002 0.073603000000000002
v -4.9544439999999996 0.64311200000000002 0.14000099999999999
v -4.9017489999999997 0.64311200000000002 0.19269500000000001
v -4.8353510000000002 0.64311200000000002 0.22652600000000001
v -4.7561770000000001 0.67282399999999998 0.23818400000000001
v -4.6860179999999998 0.69507200000000002 0.22652600000000001
v -4.6227260000000001 0.71514200000000006 0.19269500000000001
v -4.5724970000000003 0.73107 0.14000099999999999
v -4.5402480000000001 0.74129599999999995 0.073603000000000002
v -4.5291360000000003 0.74482000000000004 0
v -4.5716669999999997 0.13367000000000001 -0.061761000000000003
v -4.6000550000000002 0.13367000000000001 -0.117477
v -4.7617479999999999 0.13367000000000001 -0
v -4.644272 0.13367000000000001 -0.161693
v -4.6999870000000001 0.13367000000000001 -0.190082
v -4.7617479999999999 0.13367000000000001 -0.19986400000000001
v -4.8235099999999997 0.13367000000000001 -0.190082
v -4.8792249999999999 0.13367000000000001 -0.161693
v -4.9234419999999997 0.13367000000000001 -0.117477
v -4.9518300000000002 0.13367000000000001 -0.061761000000000003
v -4.9616119999999997 0.13367000000000001 -0
v -4.9518300000000002 0.13367000000000001 0.061761000000000003
v -4.9234419999999997 0.13367000000000001 0.117477
v -4.8792249999999999 0.13367000000000001 0.161693
v -4.8235099999999997 0.13367000000000001 0.190082
v -4.7617479999999999 0.13367000000000001 0.19986400000000001
v -4.6999870000000001 0.13367000000000001 0.190082
v -4.644272 0.13367000000000001 0.161693
v -4.6000550000000002 0.13367000000000001 0.117477
v -4.5716669999999997 0.13367000000000001 0.061761000000000003
v -4.5618850000000002 0.13367000000000001 -0
v -4.7561770000000001 0.67282399999999998 0
#end vertices

#begin 219 textures vertices 
vt 0.75660396220148796 0.66666133442035136 0
vt 0.80235691955298205 0.65338564742342631 0
vt 0.84632194290481266 0.63503733699561238 0
vt 0.44015001322219599 0.50345253298181947 0
vt 0.48176599783979285 0.52663941540620363 0
vt 0.52573108367691868 0.54498752377689874 0
vt 0.57148383281383353 0.55826288685588221 0
vt 0.61844218562897368 0.56629656261417216 0
vt 0.66600657497632265 0.56898607774941812 0
vt 0.71357041117953601 0.56629632762706683 0
vt 0.76052810586646546 0.55826338422032429 0
vt 0.80628137915885434 0.5449877445490704 0
vt 0.85024691894561921 0.52663949786010622 0
vt 0.43622667360130318 0.61185037084037452 0
vt 0.47784314629156088 0.63503767457042837 0
vt 0.52180759916621966 0.65338566017338473 0
vt 0.56756028448134077 0.66666124320841136 0
vt 0.61451818031231764 0.67469490943309607 0
vt 0.6620820047883792 0.67738413230873562 0
vt 0.70964617058795343 0.67469489724289777 0
vt 0.77489025278055756 0.74622069473427111 0
vt 0.8294949167244563 0.73037669356231805 0
vt 0.88196526227707928 0.70847878210779858 0
vt 0.9316327742001409 0.68080613884949037 0
vt 0.44612266372009635 0.60008097949915118 0
vt 0.49859417460589045 0.62197926036601869 0
vt 0.55319790114491507 0.63782240406808655 0
vt 0.60924015608629012 0.64740996630088354 0
vt 0.66600635084566107 0.65061945693088341 0
vt 0.72277210112639922 0.64741007187370225 0
vt 0.77881427810244575 0.63782232150326712 0
vt 0.83341905406465588 0.62197870639560737 0
vt 0.88588959225139208 0.60008125652408129 0
vt 0.93555779477397283 0.57240868245265408 0
vt 0.44219955598056776 0.70847911432570998 0
vt 0.49466928360391255 0.7303767498292828 0
vt 0.54927397032309289 0.74622067250843438 0
vt 0.60531617917075053 0.75580850416930512 0
vt 0.66208236404220766 0.75901816968183589 0
vt 0.71884810466441196 0.75580861379465636 0
vt 0.40140644606231618 0.27220183162444889 0
vt 0.45372123761126543 0.28103197261195423 0
vt 0.505586803803319 0.29325856930170202 0
vt 0.55705790712991854 0.3089418845606397 0
vt 0.086075630223300753 0.11676968177966084 0
vt 0.13792096708816376 0.10448113059768438 0
vt 0.19029671806158949 0.095646228800905383 0
vt 0.24307435510543907 0.090473485228003428 0
vt 0.29599439021174462 0.088675780405922444 0
vt 0.34886354301875394 0.090679997164464676 0
vt 0.40155735933836706 0.095685927170590532 0
vt 0.45386873449122606 0.1044927133016641 0
vt 0.50573036794245996 0.11672336945238256 0
vt 0.55719733369766267 0.13241859657133803 0
vt 0.085919430270049502 0.29322689572030164 0
vt 0.13784320190918253 0.28108090719481371 0
vt 0.19022036880490614 0.27225389456124882 0
vt 0.24293878334488114 0.26697485993017683 0
vt 0.29581441152766885 0.26526998774884847 0
vt 0.3486939543135586 0.26707102406237582 0
vt 0.39082321154365657 0.35132174113209891 0
vt 0.43782656113739127 0.35887801332099262 0
vt 0.48399951463817054 0.36963128645864507 0
vt 0.5287503075658454 0.38383532990092389 0
vt 0.10791528265205917 0.19306682505980133 0
vt 0.15396714891488852 0.1821692648451968 0
vt 0.20086115404881857 0.17444248368395696 0
vt 0.24825861106196917 0.16991550377023024 0
vt 0.29591638215249477 0.16860039797734247 0
vt 0.34357484078571532 0.1698415852242513 0
vt 0.39097119475824027 0.17482576710756331 0
vt 0.43796272997534486 0.18235942640519107 0
vt 0.48412767152897923 0.19310807056454993 0
vt 0.52887183854126352 0.20732015968390033 0
vt 0.1077754021027878 0.36971813411076082 0
vt 0.15383911414911197 0.35855200180352359 0
vt 0.20074677188549769 0.3509453080720682 0
vt 0.2481469804556948 0.34644133622011675 0
vt 0.29579308653905151 0.3451387792207028 0
vt 0.34344649583659237 0.34632100594687237 0
vt 0.71965458340170463 0.5332468421905403 0
vt 0.76681182292492434 0.52648242292689895 0
vt 0.81328010642401993 0.51598095811121447 0
vt 0.85899196285415802 0.50256564977295182 0
vt 0.058112157534573092 0.83738933274330674 0
vt 0.1099968587609351 0.82047198450532677 0
vt 0.15761704930444054 0.82183828281275828 0
vt 0.20525033503715909 0.82267310950500439 0
vt 0.2528897375778657 0.82297634409034059 0
vt 0.30052901726477904 0.82274764997351602 0
vt 0.34816278136071455 0.82198752620740678 0
vt 0.39578562793215855 0.82069558577463997 0
vt 0.44339132564758948 0.8188722947041549 0
vt 0.49097290012987505 0.81651791830027598 0
vt 0.43941955791737292 0.49035634027505992 0
vt 0.48475587788884095 0.50498991721883602 0
vt 0.53063769704867403 0.51781189002666139 0
vt 0.57723813015127534 0.52771046412990052 0
vt 0.62447904700542367 0.53386338069070038 0
vt 0.67208113311044071 0.5357653780609567 0
vt 0.80181087337058154 0.28994450931370841 0
vt 0.83614742470684711 0.26973870464045402 0
vt 0.75543951801102172 0.17143353335483011 0
vt 0.86253233336512225 0.23990753716657878 0
vt 0.87843574908744348 0.20341427041124671 0
vt 0.88242354610756679 0.16379989316605564 0
vt 0.87381658992905964 0.12494703070554736 0
vt 0.85362978802729739 0.090720830807200906 0
vt 0.82401285285397341 0.064226463846878912 0
vt 0.78758992858255628 0.048201858533779229 0
vt 0.74798575795466793 0.044511581995098644 0
vt 0.70908563345282061 0.052812057388657178 0
vt 0.67478914001377721 0.07298983458796604 0
vt 0.64847730098122425 0.10276911424310796 0
vt 0.63243590872035382 0.13912303985956626 0
vt 0.62843561438725393 0.17871681153856359 0
vt 0.63703204665064395 0.21759204607274638 0
vt 0.65709757751337794 0.25197294309281704 0
vt 0.68679297728304534 0.27851044885752185 0
vt 0.72325872095723309 0.29455771721009399 0
vt 0.76289478640573427 0.29837931457540767 0
vt 0.48635132665011477 0.83573246590215644 0
vt 0.76474595976144011 0.39412421132682407 0
vt 0.71795557059308701 0.39435120403176971 0
vt 0.25294937206106327 0.74679369939164819 0
vt 0.81153369700792954 0.39378768467092912 0
vt 0.019119890451712664 0.74018332496677453 0
vt 0.065853605431440573 0.74247039303225093 0
vt 0.11260675008728874 0.74433408531010059 0
vt 0.15937729327119657 0.74567599025301923 0
vt 0.20615996039792678 0.74649590918574416 0
vt 0.29973837726043845 0.74656913313020645 0
vt 0.34652196435566796 0.7458225301192114 0
vt 0.39329511615010465 0.74455367472795664 0
vt 0.44005068791084062 0.74276294306922452 0
vt 0.39044126776239896 0.39428310370088659 0
vt 0.43722355722466999 0.395147555426346 0
vt 0.48401112621546277 0.39558821864743116 0
vt 0.53080091242571248 0.39560624621001245 0
vt 0.57758908289574507 0.39533659661538101 0
vt 0.62437848602261348 0.39495738790585055 0
vt 0.67116674716551317 0.3946108958036782 0
vt 0.81379665179936533 0.31996768836260531 0
vt 0.79562160099828827 0.017237647281230235 0
vt 0.85686546524163465 0.29450011322317299 0
vt 0.88987457186332097 0.25706338965638709 0
vt 0.90967532449672728 0.21136831351710919 0
vt 0.9143272429208833 0.16189925932857141 0
vt 0.90390058131346218 0.11324939066059878 0
vt 0.8788853438729991 0.069985013219844044 0
vt 0.84133735631911311 0.036986352428353436 0
vt 0.74607685407806035 0.012000000000000011 0
vt 0.69748610194829885 0.023000300015350351 0
vt 0.65439451414012606 0.047964606504306832 0
vt 0.62096833902898541 0.085131995018277812 0
vt 0.60119057291530831 0.13102711331187225 0
vt 0.59652866972703389 0.18055950803845711 0
vt 0.60693678546611707 0.22914573201744995 0
vt 0.63195019150982412 0.27221016285743388 0
vt 0.66911502016005098 0.30552663444163869 0
vt 0.71486958857743588 0.32577740655879606 0
vt 0.7648116069537344 0.33102566007313422 0
vt 0.39684269044277959 0.95891395525062728 0
vt 0.4392888395514617 0.980544651801322 0
vt 0.76121332884379367 0.76098680032104715 0
vt 0.36315809556689527 0.92522523009405799 0
vt 0.66318154697839782 0.9589174223022543 0
vt 0.65537383782035941 0.91192206976151602 0
vt 0.66241846301650564 0.85780560139374884 0
vt 0.68457405569123564 0.8156312130556137 0
vt 0.71859936399163338 0.78228596991114874 0
vt 0.80830660448900971 0.75379120033976776 0
vt 0.85533686063960745 0.7613877967155207 0
vt 0.89776779932904993 0.78304928483572733 0
vt 0.93150775483415926 0.8166832297101233 0
vt 0.63117014417977069 0.78167963261485862 0
vt 0.6386196366426129 0.8357418556065177 0
vt 0.63116390888931118 0.88279433276121677 0
vt 0.60953351955950019 0.92524042296445141 0
vt 0.57584477007382118 0.95892499350822669 0
vt 0.53339595355135239 0.98055045496611426 0
vt 0.48634193699235773 0.98799999999999999 0
vt 0.4685717210788235 0.20602820228904534 0
vt 0.41153910818333034 0.1963403849989406 0
vt 0.29587136902848304 0.012000000000000011 0
vt 0.52463327895715406 0.21923688751732645 0
vt 0.012000000000000011 0.058480358681626224 0
vt 0.06706506011453281 0.042412290253699365 0
vt 0.12329232407840315 0.029431134539859315 0
vt 0.1803544980045737 0.020146291933154641 0
vt 0.23792880392950691 0.014143238386553103 0
vt 0.35391966108695444 0.013668633346619012 0
vt 0.4116479208996785 0.019712738952962335 0
vt 0.46870656416846124 0.029454722028544218 0
vt 0.52478045995681566 0.042691869523895115 0
vt 0.012000000000000011 0.23506638711557182 0
vt 0.067049955781554121 0.21921591937124141 0
vt 0.12306989350530638 0.20607938040118215 0
vt 0.18007732911318514 0.19639083586944586 0
vt 0.23775838521043446 0.19042110778297533 0
vt 0.29581020591278184 0.188170464469225 0
vt 0.3538414453897244 0.19043689406805686 0
vt 0.88793816782619872 0.61185029014274639 0
vt 0.5795532041560566 0.05865562339408175 0
vt 0.034776516183670919 0.13259437686533782 0
vt 0.39645509820972696 0.57240818611551492 0
vt 0.063285731359136205 0.2074468857525763 0
vt 0.8918633478431568 0.50345281710842094 0
vt 0.034668174560224627 0.30893878020585769 0
vt 0.39253208700350528 0.68080614768328562 0
vt 0.5794045164473417 0.23518267404100793 0
vt 0.06292680952560864 0.38416996975879003 0
vt 0.85831932292232127 0.3931634840682201 0
vt 0.012000000000000011 0.84935563585794827 0
vt 0.48678330435239309 0.74045058948021614 0
vt 0.3886090757972836 0.47044368602009379 0
vt 0.8076378119776042 0.91077294401529474 0
vt 0.95330319697646015 0.85904486353468257 0
vt 0.34153294132262318 0.88277647251492841 0
#end 219 textures vertices 

#begin 162 normals 
vn 0.84390299999999996 -0.46113300000000002 -0.27419900000000003
vn 0.717866 -0.46113300000000002 -0.52156000000000002
vn 0.80301400000000001 -0.121599 -0.58342300000000002
vn 0.94399999999999995 -0.121598 -0.30672100000000002
vn 0.52156100000000005 -0.46113300000000002 -0.71786499999999998
vn 0.58342300000000002 -0.121599 -0.80301400000000001
vn 0.2742 -0.46113300000000002 -0.84390200000000004
vn 0.306724 -0.121599 -0.94399900000000003
vn -0 -0.46113300000000002 -0.88733099999999998
vn -0 -0.121599 -0.99257899999999999
vn -0.27419900000000003 -0.46113399999999999 -0.84390200000000004
vn -0.306726 -0.121598 -0.94399900000000003
vn -0.52156000000000002 -0.46113300000000002 -0.71786499999999998
vn -0.58342499999999997 -0.121598 -0.80301199999999995
vn -0.71786399999999995 -0.46112999999999998 -0.52156499999999995
vn -0.80301 -0.121597 -0.58342899999999998
vn -0.84390500000000002 -0.46112999999999998 -0.27419700000000002
vn -0.94399900000000003 -0.121599 -0.306724
vn -0.88733099999999998 -0.46113399999999999 0
vn -0.99257899999999999 -0.1216 0
vn -0.84390500000000002 -0.46112999999999998 0.27419700000000002
vn -0.94399900000000003 -0.121599 0.306724
vn -0.71786399999999995 -0.46112999999999998 0.52156499999999995
vn -0.80301 -0.121597 0.58342899999999998
vn -0.52155799999999997 -0.46113199999999999 0.71786799999999995
vn -0.583422 -0.121598 0.80301500000000003
vn -0.27420099999999997 -0.46113300000000002 0.84390200000000004
vn -0.306724 -0.121599 0.94399900000000003
vn 0 -0.46113399999999999 0.88733099999999998
vn 0 -0.121599 0.99257899999999999
vn 0.27420099999999997 -0.46113300000000002 0.84390200000000004
vn 0.306724 -0.121599 0.94399900000000003
vn 0.52156000000000002 -0.46113300000000002 0.717866
vn 0.58342300000000002 -0.121599 0.80301400000000001
vn 0.717866 -0.46113399999999999 0.52155899999999999
vn 0.80301400000000001 -0.121599 0.58342300000000002
vn 0.84390200000000004 -0.46113399999999999 0.27419900000000003
vn 0.94399999999999995 -0.121597 0.30672100000000002
vn 0.88733099999999998 -0.46113300000000002 1.9999999999999999e-006
vn 0.99258000000000002 -0.121596 9.9999999999999995e-007
vn 0.79251300000000002 0.20096 -0.575793
vn 0.93165500000000001 0.200959 -0.30270999999999998
vn 0.57579499999999995 0.200959 -0.79251199999999999
vn 0.30271300000000001 0.200958 -0.93165500000000001
vn 0 0.200958 -0.97960000000000003
vn -0.30271199999999998 0.200959 -0.93165500000000001
vn -0.57579599999999997 0.200959 -0.79251099999999997
vn -0.79250900000000002 0.200957 -0.57579999999999998
vn -0.93165500000000001 0.200958 -0.30271300000000001
vn -0.97960000000000003 0.200958 0
vn -0.93165500000000001 0.200958 0.30271300000000001
vn -0.79250900000000002 0.200957 0.57579999999999998
vn -0.57579400000000003 0.200958 0.79251300000000002
vn -0.30271300000000001 0.200958 0.93165500000000001
vn 0 0.200958 0.97960000000000003
vn 0.30271300000000001 0.200958 0.93165500000000001
vn 0.57579499999999995 0.200959 0.79251199999999999
vn 0.79251300000000002 0.20096 0.575793
vn 0.93165500000000001 0.200959 0.30271100000000001
vn 0.97960000000000003 0.200957 9.9999999999999995e-007
vn 0.81023999999999996 0.112576 -0.57518499999999995
vn 0.94673200000000002 0.114288 -0.30105799999999999
vn 0.59437300000000004 0.112169 -0.79632899999999995
vn 0.31758900000000001 0.116288 -0.94107099999999999
vn 0.0080599999999999995 0.12526699999999999 -0.99209000000000003
vn -0.29780800000000002 0.13480200000000001 -0.94506000000000001
vn -0.58205300000000004 0.13930500000000001 -0.80112899999999998
vn -0.80112499999999998 0.13930400000000001 -0.58206000000000002
vn -0.94178399999999995 0.13930699999999999 -0.306002
vn -0.99024900000000005 0.13930699999999999 0
vn -0.94178399999999995 0.13930699999999999 0.306002
vn -0.80112499999999998 0.13930400000000001 0.58206000000000002
vn -0.58205300000000004 0.13930500000000001 0.80113000000000001
vn -0.29780800000000002 0.13480200000000001 0.94506000000000001
vn 0.0080599999999999995 0.12526699999999999 0.99209000000000003
vn 0.31758900000000001 0.116288 0.94107099999999999
vn 0.59437200000000001 0.112169 0.79632899999999995
vn 0.81024099999999999 0.112576 0.57518400000000003
vn 0.94673200000000002 0.114288 0.30105900000000002
vn 0.99335200000000001 0.11511200000000001 9.9999999999999995e-007
vn 0.828515 -0.0067990000000000004 -0.55992600000000003
vn 0.95648299999999997 0.0016770000000000001 -0.29178199999999999
vn 0.62412000000000001 -0.017918 -0.78112300000000001
vn 0.35774499999999998 -0.027035 -0.93342800000000004
vn 0.055571000000000002 -0.029856000000000001 -0.99800800000000001
vn -0.27601100000000001 -0.031559999999999998 -0.96063600000000005
vn -0.58740899999999996 -0.035666000000000003 -0.808504
vn -0.80849899999999997 -0.035672000000000002 -0.58741600000000005
vn -0.95045299999999999 -0.035674999999999998 -0.30881399999999998
vn -0.99936400000000003 -0.035673000000000003 0
vn -0.95045299999999999 -0.035674999999999998 0.30881399999999998
vn -0.80849800000000005 -0.035672000000000002 0.58741600000000005
vn -0.58740899999999996 -0.035666000000000003 0.808504
vn -0.27601100000000001 -0.031559999999999998 0.96063600000000005
vn 0.055571000000000002 -0.029856000000000001 0.99800800000000001
vn 0.35774499999999998 -0.027035 0.93342800000000004
vn 0.62412000000000001 -0.017918 0.78112300000000001
vn 0.82851600000000003 -0.0067990000000000004 0.55992500000000001
vn 0.95648299999999997 0.001678 0.29178300000000001
vn 0.99998799999999999 0.0047980000000000002 9.9999999999999995e-007
vn 0 -1 0
vn 0 -1 0
vn 0 -1 0
vn 0 -1 0
vn 0 -1 -0
vn 0 -1 0
vn 0 -1 0
vn 0 -1 -0
vn 0 -1 -0
vn 0 -1 0
vn 0 -1 0
vn 0 -1 0
vn 0 -1 0
vn 0 -1 0
vn 0 -1 -0
vn 0 -1 0
vn 0 -1 0
vn 0 -1 0
vn 0 -1 -0
vn 0 -1 0
vn 0 -1 0
vn 0.62141599999999997 -0.75701700000000005 -0.20190900000000001
vn 0.52860700000000005 -0.75701700000000005 -0.38405699999999998
vn 0.38405600000000001 -0.75701700000000005 -0.52860700000000005
vn 0.20191100000000001 -0.75701700000000005 -0.62141599999999997
vn -0 -0.75701499999999999 -0.65339700000000001
vn -0.20191100000000001 -0.75701499999999999 -0.621417
vn -0.38405499999999998 -0.75701600000000002 -0.528609
vn -0.52859999999999996 -0.75702199999999997 -0.38405600000000001
vn -0.62140600000000001 -0.75702700000000001 -0.201902
vn -0.65338700000000005 -0.75702400000000003 -0
vn -0.62140600000000001 -0.75702700000000001 0.201902
vn -0.52859999999999996 -0.75702199999999997 0.38405600000000001
vn -0.38405499999999998 -0.75701600000000002 0.52861000000000002
vn -0.20191100000000001 -0.75701600000000002 0.621417
vn 0 -0.75701600000000002 0.65339700000000001
vn 0.20191100000000001 -0.75701600000000002 0.62141599999999997
vn 0.38405600000000001 -0.75701700000000005 0.52860799999999997
vn 0.52860799999999997 -0.75701700000000005 0.38405499999999998
vn 0.62141599999999997 -0.75701700000000005 0.20190900000000001
vn 0.65339400000000003 -0.75701799999999997 1.9999999999999999e-006
vn -0.328791 0.94440299999999999 0
vn -0.22911799999999999 0.97339900000000001 -0
vn -0.210839 0.97601000000000004 0.054323000000000003
vn -0.30227399999999999 0.95322099999999998 0
vn -0.30227399999999999 0.95322099999999998 0
vn -0.30227399999999999 0.95322099999999998 -0
vn -0.210839 0.97601000000000004 -0.054323000000000003
vn -0.328791 0.94440299999999999 0
vn -0.12099500000000001 0.99265300000000001 0
vn -0.115228 0.99263699999999999 -0.037338999999999997
vn -0.30227399999999999 0.95322099999999998 0
vn -0.098414000000000001 0.99258999999999997 -0.071277999999999994
vn -0.30227399999999999 0.95322099999999998 0
vn -0.071986999999999995 0.99251500000000004 -0.098652000000000004
vn -0.30227399999999999 0.95322099999999998 0
vn -0.30227399999999999 0.95322099999999998 -0
vn -0.071986999999999995 0.99251500000000004 0.098652000000000004
vn -0.30227399999999999 0.95322099999999998 -0
vn -0.098414000000000001 0.99258999999999997 0.071277999999999994
vn -0.30227399999999999 0.95322099999999998 -0
vn -0.115228 0.99263699999999999 0.037338999999999997
#end 162 normals 

#begin 140 faces
usemtl initialShadingGroup
g polySurface6 pCylinder14
s 1
f 1/1/1 2/2/2 22/22/3 21/21/4 
f 2/2/2 3/3/5 23/23/6 22/22/3 
f 3/3/5 4/203/7 24/24/8 23/23/6 
f 4/4/7 5/5/9 25/25/10 24/206/8 
f 5/5/9 6/6/11 26/26/12 25/25/10 
f 6/6/11 7/7/13 27/27/14 26/26/12 
f 7/7/13 8/8/15 28/28/16 27/27/14 
f 8/8/15 9/9/17 29/29/18 28/28/16 
f 9/9/17 10/10/19 30/30/20 29/29/18 
f 10/10/19 11/11/21 31/31/22 30/30/20 
f 11/11/21 12/12/23 32/32/24 31/31/22 
f 12/12/23 13/13/25 33/33/26 32/32/24 
f 13/13/25 14/208/27 34/34/28 33/33/26 
f 14/14/27 15/15/29 35/35/30 34/210/28 
f 15/15/29 16/16/31 36/36/32 35/35/30 
f 16/16/31 17/17/33 37/37/34 36/36/32 
f 17/17/33 18/18/35 38/38/36 37/37/34 
f 18/18/35 19/19/37 39/39/38 38/38/36 
f 19/19/37 20/20/39 40/40/40 39/39/38 
f 20/20/39 1/1/1 21/21/4 40/40/40 
f 21/184/4 22/183/3 42/42/41 41/41/42 
f 22/183/3 23/186/6 43/43/43 42/42/41 
f 23/186/6 24/211/8 44/44/44 43/43/43 
f 24/187/8 25/188/10 45/45/45 44/205/44 
f 25/188/10 26/189/12 46/46/46 45/45/45 
f 26/189/12 27/190/14 47/47/47 46/46/46 
f 27/190/14 28/191/16 48/48/48 47/47/47 
f 28/191/16 29/185/18 49/49/49 48/48/48 
f 29/185/18 30/192/20 50/50/50 49/49/49 
f 30/192/20 31/193/22 51/51/51 50/50/50 
f 31/193/22 32/194/24 52/52/52 51/51/51 
f 32/194/24 33/195/26 53/53/53 52/52/52 
f 33/195/26 34/204/28 54/54/54 53/53/53 
f 34/196/28 35/197/30 55/55/55 54/209/54 
f 35/197/30 36/198/32 56/56/56 55/55/55 
f 36/198/32 37/199/34 57/57/57 56/56/56 
f 37/199/34 38/200/36 58/58/58 57/57/57 
f 38/200/36 39/201/38 59/59/59 58/58/58 
f 39/201/38 40/202/40 60/60/60 59/59/59 
f 40/202/40 21/184/4 41/41/42 60/60/60 
f 41/41/42 42/42/41 62/62/61 61/61/62 
f 42/42/41 43/43/43 63/63/63 62/62/61 
f 43/43/43 44/44/44 64/64/64 63/63/63 
f 44/205/44 45/45/45 65/65/65 64/207/64 
f 45/45/45 46/46/46 66/66/66 65/65/65 
f 46/46/46 47/47/47 67/67/67 66/66/66 
f 47/47/47 48/48/48 68/68/68 67/67/67 
f 48/48/48 49/49/49 69/69/69 68/68/68 
f 49/49/49 50/50/50 70/70/70 69/69/69 
f 50/50/50 51/51/51 71/71/71 70/70/70 
f 51/51/51 52/52/52 72/72/72 71/71/71 
f 52/52/52 53/53/53 73/73/73 72/72/72 
f 53/53/53 54/54/54 74/74/74 73/73/73 
f 54/209/54 55/55/55 75/75/75 74/212/74 
f 55/55/55 56/56/56 76/76/76 75/75/75 
f 56/56/56 57/57/57 77/77/77 76/76/76 
f 57/57/57 58/58/58 78/78/78 77/77/77 
f 58/58/58 59/59/59 79/79/79 78/78/78 
f 59/59/59 60/60/60 80/80/80 79/79/79 
f 60/60/60 41/41/42 61/61/62 80/80/80 
f 61/124/62 62/123/61 82/82/81 81/81/82 
f 62/123/61 63/126/63 83/83/83 82/82/81 
f 63/126/63 64/213/64 84/84/84 83/83/83 
f 64/127/64 65/128/65 85/85/85 84/214/84 
f 65/128/65 66/129/66 86/86/86 85/85/85 
f 66/129/66 67/130/67 87/87/87 86/86/86 
f 67/130/67 68/131/68 88/88/88 87/87/87 
f 68/131/68 69/125/69 89/89/89 88/88/88 
f 69/125/69 70/132/70 90/90/90 89/89/89 
f 70/132/70 71/133/71 91/91/91 90/90/90 
f 71/133/71 72/134/72 92/92/92 91/91/91 
f 72/134/72 73/135/73 93/93/93 92/92/92 
f 73/135/73 74/215/74 94/94/94 93/93/93 
f 74/136/74 75/137/75 95/95/95 94/216/94 
f 75/137/75 76/138/76 96/96/96 95/95/95 
f 76/138/76 77/139/77 97/97/97 96/96/96 
f 77/139/77 78/140/78 98/98/98 97/97/97 
f 78/140/78 79/141/79 99/99/99 98/98/98 
f 79/141/79 80/142/80 100/100/100 99/99/99 
f 80/142/80 61/124/62 81/81/82 100/100/100 
s 2
f 102/102/101 101/101/102 103/103/103 
f 104/104/104 102/102/101 103/103/103 
f 105/105/105 104/104/104 103/103/103 
f 106/106/106 105/105/105 103/103/103 
f 107/107/107 106/106/106 103/103/103 
f 108/108/108 107/107/107 103/103/103 
f 109/109/109 108/108/108 103/103/103 
f 110/110/110 109/109/109 103/103/103 
f 111/111/111 110/110/110 103/103/103 
f 112/112/112 111/111/111 103/103/103 
f 113/113/113 112/112/112 103/103/103 
f 114/114/114 113/113/113 103/103/103 
f 115/115/115 114/114/114 103/103/103 
f 116/116/116 115/115/115 103/103/103 
f 117/117/117 116/116/116 103/103/103 
f 118/118/118 117/117/117 103/103/103 
f 119/119/119 118/118/118 103/103/103 
f 120/120/120 119/119/119 103/103/103 
f 121/121/121 120/120/120 103/103/103 
f 101/101/102 121/121/121 103/103/103 
s 1
f 2/145/2 1/143/1 101/101/122 102/102/123 
f 3/146/5 2/145/2 102/102/123 104/104/124 
f 4/147/7 3/146/5 104/104/124 105/105/125 
f 5/148/9 4/147/7 105/105/125 106/106/126 
f 6/149/11 5/148/9 106/106/126 107/107/127 
f 7/150/13 6/149/11 107/107/127 108/108/128 
f 8/151/15 7/150/13 108/108/128 109/109/129 
f 9/144/17 8/151/15 109/109/129 110/110/130 
f 10/152/19 9/144/17 110/110/130 111/111/131 
f 11/153/21 10/152/19 111/111/131 112/112/132 
f 12/154/23 11/153/21 112/112/132 113/113/133 
f 13/155/25 12/154/23 113/113/133 114/114/134 
f 14/156/27 13/155/25 114/114/134 115/115/135 
f 15/157/29 14/156/27 115/115/135 116/116/136 
f 16/158/31 15/157/29 116/116/136 117/117/137 
f 17/159/33 16/158/31 117/117/137 118/118/138 
f 18/160/35 17/159/33 118/118/138 119/119/139 
f 19/161/37 18/160/35 119/119/139 120/120/140 
f 20/162/39 19/161/37 120/120/140 121/121/141 
f 1/143/1 20/162/39 121/121/141 101/101/122 
s 3
f 95/177/142 122/122/143 94/176/144 
f 100/182/145 122/122/143 99/181/146 
f 81/164/147 122/122/143 100/182/145 
f 86/169/148 122/217/143 85/168/149 
f 90/172/150 122/217/143 89/165/151 
f 99/181/146 122/122/143 98/180/152 
f 89/165/151 122/217/143 88/171/153 
f 98/180/152 122/122/143 97/179/154 
f 88/171/153 122/217/143 87/170/155 
f 97/179/154 122/122/143 96/178/156 
f 87/170/155 122/217/143 86/169/148 
f 96/178/156 122/122/143 95/177/142 
f 122/217/143 84/167/157 85/168/149 
f 94/218/144 122/217/143 93/175/158 
f 122/122/143 83/166/159 84/219/157 
f 93/175/158 122/217/143 92/174/160 
f 82/163/161 83/166/159 122/122/143 
f 92/174/160 122/217/143 91/173/162 
f 82/163/161 122/122/143 81/164/147 
f 91/173/162 122/217/143 90/172/150 
#end 140 faces
#begin 21 properties
#U3D EDG SEL 182 183
#U3D EDG SEL 185 182
#U3D EDG SEL 210 185
#U3D EDG SEL 187 186
#U3D EDG SEL 188 187
#U3D EDG SEL 189 188
#U3D EDG SEL 190 189
#U3D EDG SEL 184 190
#U3D EDG SEL 191 184
#U3D EDG SEL 192 191
#U3D EDG SEL 193 192
#U3D EDG SEL 194 193
#U3D EDG SEL 203 194
#U3D EDG SEL 196 195
#U3D EDG SEL 197 196
#U3D EDG SEL 198 197
#U3D EDG SEL 199 198
#U3D EDG SEL 200 199
#U3D EDG SEL 201 200
#U3D EDG SEL 183 201
#U3D SYM 0 0 0 1 0 0 0.0001 0
#end 21 properties
