# This file uses centimeters as units for non-parametric coordinates.

mtllib Mug.mtl
g default
v -3.583371 0.993416 -0.144863
v -3.413074 0.993416 -0.379255
v -3.137529 0.993416 -0.468785
v -2.861984 0.993416 -0.379255
v -2.691688 0.993416 -0.144863
v -2.691688 0.993416 0.144863
v -2.861984 0.993416 0.379255
v -3.137529 0.993416 0.468785
v -3.413074 0.993416 0.379255
v -3.583370 0.993416 0.144862
v -3.578638 0.039605 -0.143325
v -3.410149 0.039605 -0.375229
v -3.137529 0.039605 -0.463808
v -2.864909 0.039605 -0.375229
v -2.696421 0.039605 -0.143325
v -2.696421 0.039605 0.143325
v -2.864909 0.039605 0.375229
v -3.137530 0.039605 0.463808
v -3.410149 0.039605 0.375229
v -3.578638 0.039605 0.143325
v -3.137529 0.008837 -0.097990
v -3.137529 0.008837 0.097991
v -3.583371 0.254982 -0.144863
v -3.583371 0.254982 0.144862
v -3.413074 0.254982 0.379255
v -3.137530 0.254982 0.468785
v -2.861984 0.254982 0.379255
v -2.691688 0.254982 0.144862
v -2.691688 0.254982 -0.144863
v -2.861984 0.254982 -0.379255
v -3.137530 0.254982 -0.468785
v -3.413074 0.254982 -0.379255
v -2.689215 0.008837 -0.000000
v -2.774836 0.008837 0.263512
v -2.998993 0.008837 0.426372
v -3.276066 0.008837 0.426372
v -3.500223 0.008837 0.263512
v -3.585843 0.008837 -0.000000
v -2.995386 0.008837 -0.096117
v -2.995386 0.008837 0.096117
v -3.137529 0.008837 0.000000
v -3.279673 0.008837 0.096117
v -3.137529 0.008837 0.197959
v -3.605725 0.254982 -0.000000
v -3.516307 0.254982 0.275198
v -3.282210 0.254982 0.445280
v -2.992849 0.254982 0.445280
v -2.758751 0.254982 0.275198
v -2.669334 0.254982 0.000000
v -2.758751 0.254982 -0.275198
v -2.992849 0.254982 -0.445280
v -3.282210 0.254982 -0.445280
v -3.516308 0.254982 -0.275198
v -3.583370 0.131909 0.144862
v -3.583371 0.131909 -0.144863
v -3.413074 0.131909 0.379255
v -3.137529 0.131909 0.468785
v -2.861984 0.131909 0.379255
v -2.691688 0.131909 0.144863
v -2.691688 0.131909 -0.144863
v -2.861984 0.131909 -0.379255
v -3.137529 0.131909 -0.468785
v -3.413074 0.131909 -0.379255
v -3.516308 0.747271 -0.275198
v -3.583371 0.747271 -0.144863
v -3.516307 0.993416 -0.275198
v -3.413074 0.747271 -0.379255
v -3.282210 0.747271 -0.445280
v -3.282210 0.993416 -0.445280
v -3.137530 0.747271 -0.468785
v -2.992849 0.747271 -0.445280
v -2.992849 0.993416 -0.445280
v -2.861984 0.747271 -0.379255
v -2.758751 0.747271 -0.275198
v -2.758751 0.993416 -0.275198
v -2.691688 0.747271 -0.144863
v -2.669334 0.747271 0.000000
v -2.669334 0.993416 0.000000
v -2.691688 0.747271 0.144863
v -2.758751 0.747271 0.275198
v -2.758751 0.993416 0.275198
v -2.861984 0.747271 0.379255
v -2.992849 0.747271 0.445280
v -2.992849 0.993416 0.445280
v -3.137530 0.747271 0.468785
v -3.282210 0.747271 0.445280
v -3.282210 0.993416 0.445280
v -3.413074 0.747271 0.379255
v -3.516307 0.747271 0.275198
v -3.516307 0.993416 0.275198
v -3.583371 0.747271 0.144862
v -3.605725 0.747271 -0.000000
v -3.605725 0.993416 -0.000000
v -3.279673 0.008837 -0.096117
v -3.500223 0.008837 -0.263512
v -3.276066 0.008837 -0.426372
v -3.137529 0.008837 -0.197959
v -3.512287 0.039605 -0.272277
v -3.401373 0.008837 -0.363150
v -3.564438 0.008837 -0.138711
v -3.280674 0.039605 -0.440553
v -3.137529 0.008837 -0.448879
v -2.994385 0.039605 -0.440553
v -2.873685 0.008837 -0.363150
v -2.762772 0.039605 -0.272277
v -2.710620 0.008837 -0.138711
v -2.674304 0.039605 -0.000000
v -2.710620 0.008837 0.138711
v -2.762772 0.039605 0.272277
v -2.873685 0.008837 0.363150
v -2.994385 0.039605 0.440553
v -3.137529 0.008837 0.448878
v -3.280674 0.039605 0.440553
v -3.401373 0.008837 0.363150
v -3.512286 0.039605 0.272277
v -3.564438 0.008837 0.138711
v -3.600754 0.039605 -0.000000
v -2.998993 0.008837 -0.426372
v -2.774836 0.008837 -0.263512
v -3.258291 0.008837 -0.190465
v -3.016767 0.008837 -0.190465
v -2.988259 0.008837 0.000000
v -3.286800 0.008837 0.000000
v -3.016767 0.008837 0.190465
v -3.258291 0.008837 0.190465
v -3.605725 0.131909 -0.000000
v -3.516307 0.131909 0.275198
v -3.282209 0.131909 0.445280
v -2.992849 0.131909 0.445280
v -2.758751 0.131909 0.275198
v -2.669334 0.131909 0.000000
v -2.758751 0.131909 -0.275198
v -2.992849 0.131909 -0.445280
v -3.282210 0.131909 -0.445280
v -3.516308 0.131909 -0.275198
v -3.631547 0.747271 -0.160516
v -3.557237 0.747271 -0.304936
v -3.631547 0.993416 -0.160516
v -3.557237 0.993416 -0.304936
v -3.442849 0.747271 -0.420236
v -3.442849 0.993416 -0.420236
v -3.297843 0.747271 -0.493396
v -3.297843 0.993416 -0.493396
v -3.137530 0.747271 -0.519441
v -3.137529 0.993416 -0.519441
v -2.977215 0.747271 -0.493396
v -2.977215 0.993416 -0.493396
v -2.832209 0.747271 -0.420236
v -2.832210 0.993416 -0.420236
v -2.717822 0.747271 -0.304935
v -2.717822 0.993416 -0.304935
v -2.643512 0.747271 -0.160516
v -2.643512 0.993416 -0.160516
v -2.618742 0.720873 0.000000
v -2.618742 0.993416 0.000000
v -2.643512 0.747271 0.160516
v -2.643512 0.993416 0.160516
v -2.717822 0.747271 0.304935
v -2.717822 0.993416 0.304935
v -2.832210 0.747271 0.420236
v -2.832210 0.993416 0.420236
v -2.977215 0.747271 0.493396
v -2.977215 0.993416 0.493396
v -3.137530 0.747271 0.519440
v -3.137529 0.993416 0.519440
v -3.297844 0.747271 0.493396
v -3.297843 0.993416 0.493396
v -3.442849 0.747271 0.420236
v -3.442849 0.993416 0.420236
v -3.557237 0.747271 0.304935
v -3.557237 0.993416 0.304935
v -3.631547 0.747271 0.160516
v -3.631546 0.993416 0.160516
v -3.656317 0.747271 -0.000000
v -3.656317 0.993416 -0.000000
v -3.137529 -0.041163 -0.097990
v -3.279673 -0.041163 -0.096117
v -3.258291 -0.041163 -0.190465
v -3.137529 -0.041163 -0.197959
v -3.594782 -0.041163 -0.148568
v -3.526000 -0.041163 -0.282242
v -3.420126 -0.041163 -0.388961
v -3.285912 -0.041163 -0.456676
v -3.137530 -0.041163 -0.480783
v -3.626159 0.026683 -0.158765
v -3.552666 0.026714 -0.301614
v -3.439519 0.026683 -0.415653
v -3.296098 0.026714 -0.488022
v -3.137529 0.026684 -0.513775
v -2.978961 0.026714 -0.488022
v -2.989147 -0.041163 -0.456676
v -2.835540 0.026683 -0.415653
v -2.854933 -0.041163 -0.388961
v -2.722393 0.026714 -0.301614
v -2.749057 -0.041163 -0.282241
v -2.648900 0.026684 -0.158765
v -2.680278 -0.041163 -0.148570
v -2.624392 0.026714 0.000000
v -2.657351 -0.041163 0.000000
v -2.648900 0.026683 0.158765
v -2.680278 -0.041163 0.148570
v -2.722393 0.026714 0.301614
v -2.749058 -0.041163 0.282242
v -2.835540 0.026684 0.415653
v -2.854932 -0.041163 0.388961
v -2.978961 0.026714 0.488022
v -2.989147 -0.041163 0.456676
v -3.137530 0.026684 0.513775
v -3.137529 -0.041163 0.480782
v -3.296097 0.026714 0.488022
v -3.285911 -0.041163 0.456676
v -3.439519 0.026683 0.415653
v -3.420126 -0.041163 0.388961
v -3.552665 0.026714 0.301614
v -3.526001 -0.041163 0.282241
v -3.626159 0.026683 0.158765
v -3.594780 -0.041163 0.148570
v -3.650666 0.026714 -0.000000
v -3.617707 -0.041163 -0.000001
v -2.995386 -0.041163 -0.096117
v -3.016767 -0.041163 -0.190465
v -2.995386 -0.041163 0.096117
v -2.988259 -0.041163 0.000000
v -3.137529 -0.041163 0.097991
v -3.137529 -0.041163 0.000000
v -3.286800 -0.041163 0.000000
v -3.279673 -0.041163 0.096117
v -3.137529 -0.041163 0.197959
v -3.016767 -0.041163 0.190465
v -3.258291 -0.041163 0.190465
v -3.631547 0.254982 -0.160516
v -3.656317 0.254982 -0.000000
v -3.631547 0.254982 0.160516
v -3.557237 0.254982 0.304935
v -3.442849 0.254982 0.420236
v -3.297844 0.254982 0.493396
v -3.137530 0.254982 0.519440
v -2.977215 0.254982 0.493396
v -2.832210 0.254982 0.420236
v -2.717822 0.254982 0.304935
v -2.643512 0.254982 0.160516
v -2.618742 0.281061 0.000000
v -2.643512 0.254982 -0.160516
v -2.717822 0.254982 -0.304935
v -2.832210 0.254982 -0.420236
v -2.977215 0.254982 -0.493396
v -3.137530 0.254982 -0.519441
v -3.297844 0.254982 -0.493396
v -3.442849 0.254982 -0.420236
v -3.557237 0.254982 -0.304936
v -3.631546 0.130545 0.160516
v -3.656316 0.130548 -0.000000
v -3.631546 0.130545 -0.160516
v -3.442848 0.130545 0.420235
v -3.557236 0.130548 0.304935
v -3.137529 0.130545 0.519439
v -3.297843 0.130548 0.493395
v -2.832210 0.130545 0.420235
v -2.977216 0.130548 0.493395
v -2.643513 0.130545 0.160516
v -2.717823 0.130548 0.304935
v -2.643513 0.130545 -0.160516
v -2.620177 0.104195 -0.000000
v -2.832210 0.130545 -0.420235
v -2.717822 0.130548 -0.304935
v -3.137529 0.130545 -0.519440
v -2.977216 0.130548 -0.493395
v -3.442848 0.130545 -0.420235
v -3.297843 0.130548 -0.493395
v -3.557236 0.130548 -0.304935
v -3.631547 0.870344 -0.160516
v -3.656317 0.870344 -0.000000
v -3.631547 0.870344 0.160516
v -3.557237 0.870344 0.304935
v -3.442849 0.870344 0.420236
v -3.297843 0.870344 0.493396
v -3.137530 0.870344 0.519440
v -2.977215 0.870344 0.493396
v -2.832210 0.870344 0.420236
v -2.717822 0.870344 0.304935
v -2.643512 0.870344 0.160516
v -2.618742 0.896742 -0.000000
v -2.643512 0.870344 -0.160516
v -2.717822 0.870344 -0.304935
v -2.832210 0.870344 -0.420236
v -2.977215 0.870344 -0.493396
v -3.137530 0.870344 -0.519441
v -3.297843 0.870344 -0.493396
v -3.442849 0.870344 -0.420236
v -3.557237 0.870344 -0.304936
v -2.680511 0.993416 0.072431
v -2.631127 0.993416 0.080258
v -2.630493 0.852775 0.076154
v -2.630494 0.764840 0.076154
v -2.630560 0.237052 0.076584
v -2.630561 0.148606 0.076584
v -2.636646 0.026699 0.079383
v -2.668815 -0.041163 0.074285
v -2.991822 -0.041163 0.048059
v -3.137529 -0.041163 0.048995
v -3.283236 -0.041163 0.048059
v -3.606244 -0.041163 0.074285
v -3.638412 0.026699 0.079383
v -3.643931 0.130546 0.080258
v -3.643932 0.254982 0.080258
v -3.643932 0.747271 0.080258
v -3.643932 0.870344 0.080258
v -3.643932 0.993416 0.080258
v -3.594548 0.993416 0.072431
v -3.594548 0.747271 0.072431
v -3.594548 0.254982 0.072431
v -3.594548 0.131909 0.072431
v -3.589696 0.039605 0.071662
v -3.575140 0.008837 0.069356
v -3.283236 0.008837 0.048059
v -3.137529 0.008837 0.048995
v -2.991822 0.008837 0.048059
v -2.699918 0.008837 0.069356
v -2.685363 0.039605 0.071662
v -2.680511 0.131909 0.072431
v -2.680511 0.254982 0.072431
v -2.680511 0.747271 0.072431
v -2.680511 0.993416 -0.072431
v -2.631127 0.993416 -0.080258
v -2.630493 0.852775 -0.076154
v -2.630494 0.764840 -0.076154
v -2.630560 0.237052 -0.076584
v -2.630561 0.148606 -0.076584
v -2.636646 0.026699 -0.079383
v -2.668815 -0.041163 -0.074285
v -2.991822 -0.041163 -0.048059
v -3.137529 -0.041163 -0.048995
v -3.283236 -0.041163 -0.048059
v -3.606245 -0.041163 -0.074284
v -3.638412 0.026699 -0.079383
v -3.643931 0.130546 -0.080258
v -3.643932 0.254982 -0.080258
v -3.643932 0.747271 -0.080258
v -3.643932 0.870344 -0.080258
v -3.643932 0.993416 -0.080258
v -3.594548 0.993416 -0.072431
v -3.594548 0.747271 -0.072431
v -3.594548 0.254982 -0.072431
v -3.594548 0.131909 -0.072431
v -3.589696 0.039605 -0.071662
v -3.575141 0.008837 -0.069356
v -3.283236 0.008837 -0.048059
v -3.137529 0.008837 -0.048995
v -2.991822 0.008837 -0.048059
v -2.699918 0.008837 -0.069356
v -2.685363 0.039605 -0.071662
v -2.680511 0.131909 -0.072431
v -2.680511 0.254982 -0.072431
v -2.680511 0.747271 -0.072431
v -2.630494 0.808808 -0.083769
v -2.643512 0.808807 -0.160516
v -2.717822 0.808808 -0.304935
v -2.832210 0.808808 -0.420236
v -2.977215 0.808807 -0.493396
v -3.137530 0.808807 -0.519441
v -3.297843 0.808807 -0.493396
v -3.442849 0.808808 -0.420236
v -3.557237 0.808808 -0.304936
v -3.631547 0.808807 -0.160516
v -3.643932 0.808808 -0.080258
v -3.656317 0.808807 -0.000000
v -3.643932 0.808808 0.080258
v -3.631547 0.808808 0.160516
v -3.557237 0.808808 0.304935
v -3.442849 0.808807 0.420236
v -3.297843 0.808807 0.493396
v -3.137530 0.808807 0.519440
v -2.977215 0.808807 0.493396
v -2.832210 0.808807 0.420236
v -2.717822 0.808807 0.304935
v -2.643512 0.808807 0.160516
v -2.630494 0.808808 0.083769
v -2.630560 0.192829 -0.084242
v -2.643512 0.192763 -0.160516
v -2.717822 0.192765 -0.304935
v -2.832210 0.192763 -0.420236
v -2.977216 0.192765 -0.493395
v -3.137530 0.192763 -0.519440
v -3.297843 0.192765 -0.493396
v -3.442849 0.192763 -0.420236
v -3.557237 0.192765 -0.304935
v -3.631546 0.192763 -0.160516
v -3.643931 0.192764 -0.080258
v -3.656316 0.192765 -0.000000
v -3.643931 0.192764 0.080258
v -3.631547 0.192763 0.160516
v -3.557237 0.192765 0.304935
v -3.442848 0.192763 0.420236
v -3.297843 0.192765 0.493395
v -3.137530 0.192763 0.519440
v -2.977216 0.192765 0.493395
v -2.832210 0.192763 0.420236
v -2.717822 0.192765 0.304935
v -2.643512 0.192763 0.160516
v -2.630560 0.192829 0.084242
v -2.616557 0.745984 0.001047
v -2.627198 0.780735 0.055636
v -2.616565 0.255920 -0.001048
v -2.627268 0.221144 -0.056092
v -2.616557 0.871631 -0.001047
v -2.627198 0.836880 -0.055636
v -2.627037 0.838686 0.054381
v -2.627106 0.222948 0.054835
v -2.626611 0.164462 0.056125
v -2.616703 0.129226 0.001048
v -2.625927 0.810009 0.063077
v -2.625992 0.194031 0.063614
v -2.627037 0.778929 -0.054381
v -2.626469 0.162653 -0.054868
v -2.625927 0.807606 -0.063077
v -2.625993 0.191627 -0.063614
v -2.616557 0.745984 0.001047
v -2.627198 0.780735 0.055636
v -2.616565 0.255920 -0.001048
v -2.627268 0.221144 -0.056092
v -2.616557 0.871631 -0.001047
v -2.627198 0.836880 -0.055636
v -2.627037 0.838686 0.054381
v -2.627106 0.222948 0.054835
v -2.626611 0.164462 0.056125
v -2.616703 0.129226 0.001048
v -2.625927 0.810009 0.063077
v -2.625992 0.194031 0.063614
v -2.627037 0.778929 -0.054381
v -2.626469 0.162653 -0.054868
v -2.625927 0.807606 -0.063077
v -2.625993 0.191627 -0.063614
v -2.560216 0.776807 0.055562
v -2.554357 0.742245 0.000856
v -2.560095 0.775307 -0.054537
v -2.556726 0.803824 -0.063127
v -2.555356 0.832905 -0.055567
v -2.543609 0.867037 -0.000858
v -2.555158 0.834378 0.054538
v -2.556675 0.805801 0.063125
v -2.506497 0.756299 0.055488
v -2.513980 0.723770 0.000664
v -2.506644 0.755081 -0.054694
v -2.493874 0.780658 -0.063178
v -2.482601 0.807082 -0.055499
v -2.461359 0.836159 -0.000670
v -2.482167 0.808168 0.054695
v -2.493487 0.782189 0.063172
v -2.464289 0.712453 0.055413
v -2.486117 0.688001 0.000472
v -2.464678 0.711613 -0.054852
v -2.442157 0.729429 -0.063229
v -2.420484 0.748283 -0.055433
v -2.389935 0.766850 -0.000483
v -2.419895 0.748881 0.054850
v -2.441506 0.730385 0.063218
v -2.432327 0.641966 0.055337
v -2.462046 0.628062 0.000279
v -2.432678 0.641461 -0.055011
v -2.405363 0.650946 -0.063281
v -2.378415 0.661303 -0.055367
v -2.344219 0.670203 -0.000297
v -2.377958 0.661512 0.055004
v -2.404826 0.651419 0.063263
v -2.414964 0.550683 0.055261
v -2.447451 0.546231 0.000086
v -2.415102 0.550343 -0.055170
v -2.386211 0.553254 -0.063334
v -2.357495 0.556706 -0.055301
v -2.322572 0.558990 -0.000111
v -2.357326 0.556735 0.055159
v -2.386009 0.553496 0.063308
v -2.415120 0.451884 0.055185
v -2.447460 0.456153 -0.000107
v -2.414998 0.451544 -0.055328
v -2.386030 0.448627 -0.063386
v -2.357264 0.445910 -0.055235
v -2.322548 0.442790 0.000076
v -2.357421 0.445941 0.055314
v -2.386218 0.448869 0.063354
v -2.432745 0.360737 0.055111
v -2.462074 0.374277 -0.000299
v -2.432408 0.360235 -0.055485
v -2.404876 0.350668 -0.063436
v -2.377751 0.341044 -0.055167
v -2.344167 0.331496 0.000265
v -2.378195 0.341256 0.055471
v -2.405400 0.351138 0.063402
v -2.464782 0.290540 0.055039
v -2.486158 0.314253 -0.000489
v -2.464404 0.289705 -0.055640
v -2.441583 0.271640 -0.063484
v -2.419522 0.253472 -0.055096
v -2.389912 0.234710 0.000457
v -2.420095 0.254074 0.055631
v -2.442223 0.272591 0.063451
v -2.506750 0.247019 0.054969
v -2.514023 0.278384 -0.000678
v -2.506608 0.245805 -0.055793
v -2.493570 0.219753 -0.063529
v -2.481648 0.193843 -0.055022
v -2.461417 0.165232 0.000652
v -2.482065 0.194932 0.055793
v -2.493952 0.221282 0.063503
v -2.560170 0.226706 0.054901
v -2.554372 0.259798 -0.000865
v -2.560294 0.225209 -0.055943
v -2.556745 0.196015 -0.063572
v -2.554593 0.167247 -0.054946
v -2.543745 0.134130 0.000850
v -2.554772 0.168723 0.055959
v -2.556793 0.197992 0.063558
vt 0.955225 0.609208
vt 0.931837 0.609210
vt 0.939633 0.609210
vt 0.963020 0.609208
vt 0.970816 0.609208
vt 0.924041 0.608816
vt 0.924041 0.609210
vt 0.955225 0.608816
vt 0.955225 0.609208
vt 0.931837 0.608816
vt 0.931837 0.609210
vt 0.939633 0.608816
vt 0.939633 0.609210
vt 0.963020 0.608816
vt 0.963020 0.609208
vt 0.970816 0.609208
vt 0.970816 0.608816
vt 0.861675 0.617867
vt 0.861675 0.608816
vt 0.869471 0.617867
vt 0.869471 0.608816
vt 0.947429 0.608816
vt 0.947429 0.609210
vt 0.978612 0.608816
vt 0.978612 0.609208
vt 0.877266 0.608816
vt 0.877266 0.617867
vt 0.885062 0.608816
vt 0.885062 0.617867
vt 0.892858 0.608816
vt 0.892858 0.617867
vt 0.900654 0.617867
vt 0.900654 0.608816
vt 0.908450 0.608816
vt 0.908450 0.617867
vt 0.916246 0.617867
vt 0.916246 0.608816
vt 0.924041 0.609210
vt 0.861675 0.617867
vt 0.869471 0.617867
vt 0.947429 0.609210
vt 0.978612 0.609208
vt 0.877266 0.617867
vt 0.885062 0.617867
vt 0.892858 0.617867
vt 0.900654 0.617867
vt 0.908450 0.617867
vt 0.916246 0.617867
vt 0.924041 0.608816
vt 0.955225 0.608816
vt 0.931837 0.608816
vt 0.939633 0.608816
vt 0.963020 0.608816
vt 0.970816 0.608816
vt 0.861675 0.608816
vt 0.869471 0.608816
vt 0.947429 0.608816
vt 0.978612 0.608816
vt 0.877266 0.608816
vt 0.885062 0.608816
vt 0.892858 0.608816
vt 0.900654 0.608816
vt 0.908450 0.608816
vt 0.916246 0.608816
vt 0.343505 0.265655
vt 0.385319 0.265655
vt 0.385319 0.301289
vt 0.343505 0.301289
vt 0.343505 0.247839
vt 0.385319 0.247839
vt 0.408556 0.265655
vt 0.408556 0.301289
vt 0.310121 0.265655
vt 0.310121 0.301289
vt 0.343505 0.230022
vt 0.385319 0.230022
vt 0.408556 0.247839
vt 0.310121 0.247839
vt 0.431794 0.265655
vt 0.431794 0.301289
vt 0.343505 0.087488
vt 0.385319 0.087488
vt 0.408556 0.230022
vt 0.310121 0.230022
vt 0.431794 0.247839
vt 0.455031 0.265655
vt 0.455031 0.301289
vt 0.310121 0.087488
vt 0.343505 0.069474
vt 0.385319 0.069474
vt 0.408556 0.087488
vt 0.431794 0.230022
vt 0.455031 0.247839
vt 0.478268 0.265655
vt 0.478268 0.301289
vt 0.310122 0.069474
vt 0.385319 0.051460
vt 0.343505 0.051461
vt 0.408556 0.069474
vt 0.431794 0.087488
vt 0.455031 0.230022
vt 0.478268 0.247839
vt 0.520082 0.265655
vt 0.520082 0.301289
vt 0.310122 0.051460
vt 0.408556 0.051460
vt 0.385826 0.021388
vt 0.344466 0.021397
vt 0.431794 0.069474
vt 0.455031 0.087488
vt 0.478268 0.230022
vt 0.520082 0.247839
vt 0.553466 0.265655
vt 0.553466 0.301289
vt 0.311448 0.021388
vt 0.431794 0.051460
vt 0.408810 0.021393
vt 0.350075 0.001745
vt 0.388778 0.001745
vt 0.455031 0.069474
vt 0.478268 0.087488
vt 0.520082 0.230022
vt 0.553466 0.247839
vt 0.319177 0.001745
vt 0.455031 0.051460
vt 0.431794 0.021397
vt 0.410286 0.001745
vt 0.478268 0.069474
vt 0.520082 0.087488
vt 0.553466 0.230022
vt 0.478268 0.051459
vt 0.454777 0.021393
vt 0.431793 0.001745
vt 0.520082 0.069474
vt 0.553466 0.087488
vt 0.520082 0.051460
vt 0.477761 0.021388
vt 0.453301 0.001745
vt 0.553465 0.069474
vt 0.553465 0.051460
vt 0.519121 0.021397
vt 0.474809 0.001745
vt 0.552139 0.021388
vt 0.513512 0.001745
vt 0.544410 0.001745
vt 0.912884 0.265655
vt 0.954698 0.265655
vt 0.954698 0.301289
vt 0.912884 0.301289
vt 0.912884 0.247839
vt 0.954698 0.247839
vt 0.988082 0.265655
vt 0.988082 0.301289
vt 0.889647 0.301289
vt 0.888459 0.260569
vt 0.912884 0.230022
vt 0.954698 0.230022
vt 0.988082 0.247839
vt 0.890664 0.247839
vt 0.866410 0.273299
vt 0.866410 0.301289
vt 0.912884 0.087488
vt 0.954698 0.087488
vt 0.988082 0.230022
vt 0.888459 0.235109
vt 0.882518 0.255967
vt 0.884673 0.247491
vt 0.866713 0.266028
vt 0.843172 0.301289
vt 0.844361 0.260569
vt 0.912884 0.069474
vt 0.954698 0.069474
vt 0.988082 0.087488
vt 0.888583 0.082297
vt 0.882155 0.239188
vt 0.850665 0.256490
vt 0.819935 0.265655
vt 0.819935 0.301289
vt 0.954698 0.051461
vt 0.912884 0.051460
vt 0.988082 0.069474
vt 0.890801 0.069493
vt 0.866410 0.222379
vt 0.866410 0.095039
vt 0.866107 0.229649
vt 0.842156 0.247839
vt 0.848147 0.248187
vt 0.819935 0.247839
vt 0.778121 0.265655
vt 0.778121 0.301289
vt 0.988082 0.051460
vt 0.888583 0.056689
vt 0.953737 0.021397
vt 0.912377 0.021388
vt 0.882650 0.077691
vt 0.884828 0.069145
vt 0.844361 0.235109
vt 0.844236 0.082297
vt 0.866713 0.087760
vt 0.850301 0.239711
vt 0.819935 0.230022
vt 0.778121 0.247839
vt 0.744738 0.265655
vt 0.744738 0.301289
vt 0.986755 0.021388
vt 0.882296 0.060756
vt 0.889394 0.021393
vt 0.909426 0.001745
vt 0.948128 0.001745
vt 0.819935 0.087488
vt 0.850533 0.078213
vt 0.778121 0.230022
vt 0.744738 0.247839
vt 0.979027 0.001745
vt 0.866410 0.043830
vt 0.866106 0.051078
vt 0.866410 0.021397
vt 0.887918 0.001745
vt 0.778121 0.087488
vt 0.819935 0.069474
vt 0.842019 0.069493
vt 0.847992 0.069841
vt 0.744738 0.230022
vt 0.844236 0.056689
vt 0.850160 0.061280
vt 0.843426 0.021393
vt 0.866410 0.001745
vt 0.744738 0.087488
vt 0.778121 0.069474
vt 0.819935 0.051460
vt 0.820442 0.021388
vt 0.844902 0.001745
vt 0.744738 0.069474
vt 0.778121 0.051461
vt 0.779083 0.021397
vt 0.823394 0.001745
vt 0.744738 0.051460
vt 0.746065 0.021388
vt 0.784691 0.001745
vt 0.753793 0.001745
vt 0.784945 0.519081
vt 0.784945 0.590348
vt 0.747208 0.590348
vt 0.747208 0.519081
vt 0.815073 0.519081
vt 0.815073 0.590348
vt 0.726237 0.590348
vt 0.726237 0.519081
vt 0.784945 0.376547
vt 0.747208 0.376547
vt 0.815073 0.376547
vt 0.705266 0.590348
vt 0.705266 0.519081
vt 0.726237 0.376547
vt 0.747208 0.340914
vt 0.784945 0.340914
vt 0.815073 0.340914
vt 0.684295 0.590348
vt 0.684295 0.519081
vt 0.705266 0.376547
vt 0.726237 0.340914
vt 0.746763 0.314189
vt 0.784099 0.314189
vt 0.813907 0.314189
vt 0.663324 0.590348
vt 0.663324 0.519081
vt 0.684295 0.376547
vt 0.705266 0.340914
vt 0.726015 0.314189
vt 0.745427 0.305280
vt 0.781561 0.305280
vt 0.810410 0.305280
vt 0.625587 0.590348
vt 0.625587 0.519081
vt 0.663324 0.376547
vt 0.684295 0.340914
vt 0.705266 0.314189
vt 0.725347 0.305280
vt 0.595459 0.590348
vt 0.595459 0.519081
vt 0.625587 0.376547
vt 0.663324 0.340914
vt 0.684517 0.314189
vt 0.705266 0.305280
vt 0.595459 0.376547
vt 0.625587 0.340914
vt 0.663769 0.314189
vt 0.685185 0.305280
vt 0.595459 0.340914
vt 0.626433 0.314189
vt 0.665105 0.305280
vt 0.596625 0.314189
vt 0.628971 0.305280
vt 0.600122 0.305280
vt 0.271881 0.520327
vt 0.271881 0.591594
vt 0.234145 0.591594
vt 0.234145 0.520327
vt 0.292852 0.520327
vt 0.292852 0.591594
vt 0.204017 0.591594
vt 0.204017 0.520327
vt 0.271881 0.377793
vt 0.234145 0.377793
vt 0.313823 0.520327
vt 0.313823 0.591594
vt 0.292852 0.377793
vt 0.204017 0.377793
vt 0.234145 0.342159
vt 0.271881 0.342159
vt 0.334795 0.520327
vt 0.334795 0.591594
vt 0.313823 0.377793
vt 0.292852 0.342159
vt 0.204017 0.342159
vt 0.234990 0.315434
vt 0.272326 0.315434
vt 0.355766 0.520327
vt 0.355766 0.591594
vt 0.334795 0.377793
vt 0.313823 0.342159
vt 0.293075 0.315434
vt 0.205182 0.315434
vt 0.237528 0.306526
vt 0.273662 0.306526
vt 0.393502 0.520327
vt 0.393502 0.591594
vt 0.355766 0.377793
vt 0.334795 0.342159
vt 0.313823 0.315434
vt 0.293743 0.306526
vt 0.208680 0.306526
vt 0.423630 0.520327
vt 0.423630 0.591594
vt 0.393502 0.377793
vt 0.355766 0.342159
vt 0.334572 0.315434
vt 0.313823 0.306526
vt 0.423630 0.377793
vt 0.393502 0.342159
vt 0.355321 0.315434
vt 0.333904 0.306526
vt 0.423630 0.342159
vt 0.392656 0.315434
vt 0.353985 0.306526
vt 0.422464 0.315434
vt 0.390119 0.306526
vt 0.418967 0.306526
vt 0.776935 0.729450
vt 0.761028 0.722370
vt 0.760972 0.705015
vt 0.776913 0.709041
vt 0.776957 0.742144
vt 0.761084 0.732726
vt 0.745010 0.729206
vt 0.744964 0.708895
vt 0.760916 0.681323
vt 0.776891 0.682612
vt 0.745056 0.741792
vt 0.744918 0.682513
vt 0.760860 0.655242
vt 0.776869 0.654006
vt 0.744872 0.653908
vt 0.760805 0.631536
vt 0.776848 0.627616
vt 0.744827 0.627471
vt 0.760750 0.614157
vt 0.776827 0.607292
vt 0.744782 0.607050
vt 0.760695 0.603772
vt 0.776807 0.594691
vt 0.744738 0.594340
vt 0.141019 0.706416
vt 0.099864 0.706958
vt 0.106055 0.679641
vt 0.141019 0.677472
vt 0.141019 0.720602
vt 0.098832 0.720873
vt 0.008630 0.691772
vt 0.028544 0.653069
vt 0.098058 0.602565
vt 0.141019 0.595585
vt 0.182174 0.706958
vt 0.175984 0.679641
vt 0.097801 0.734787
vt 0.141019 0.734787
vt 0.005311 0.713280
vt 0.183206 0.720873
vt 0.059198 0.622170
vt 0.183981 0.602565
vt 0.273408 0.691771
vt 0.253494 0.653069
vt 0.001992 0.734787
vt 0.184238 0.734787
vt 0.141019 0.748973
vt 0.098832 0.748702
vt 0.276727 0.713279
vt 0.222840 0.622170
vt 0.005311 0.756295
vt 0.183206 0.748702
vt 0.280046 0.734787
vt 0.099864 0.762616
vt 0.141019 0.763159
vt 0.008630 0.777803
vt 0.182174 0.762616
vt 0.276727 0.756295
vt 0.141019 0.792103
vt 0.106055 0.789933
vt 0.028544 0.816505
vt 0.175984 0.789933
vt 0.273408 0.777803
vt 0.141019 0.873989
vt 0.098058 0.867010
vt 0.059198 0.847404
vt 0.253494 0.816506
vt 0.183981 0.867010
vt 0.222840 0.847404
vt 0.416535 0.753921
vt 0.416535 0.782865
vt 0.381571 0.780696
vt 0.375380 0.753379
vt 0.457691 0.753379
vt 0.451500 0.780696
vt 0.416535 0.855515
vt 0.376425 0.848998
vt 0.311524 0.801845
vt 0.292931 0.765711
vt 0.374349 0.739464
vt 0.416535 0.739736
vt 0.540140 0.765711
vt 0.521547 0.801845
vt 0.456646 0.848998
vt 0.458722 0.739464
vt 0.340144 0.830694
vt 0.289833 0.745631
vt 0.373317 0.725550
vt 0.416535 0.725550
vt 0.492927 0.830694
vt 0.543238 0.745631
vt 0.459754 0.725550
vt 0.286734 0.725550
vt 0.374349 0.711635
vt 0.416535 0.711364
vt 0.546337 0.725550
vt 0.458722 0.711635
vt 0.289833 0.705469
vt 0.375380 0.697721
vt 0.416535 0.697178
vt 0.543238 0.705469
vt 0.457691 0.697721
vt 0.292932 0.685389
vt 0.381571 0.670404
vt 0.416535 0.668234
vt 0.540139 0.685389
vt 0.451500 0.670404
vt 0.311524 0.649255
vt 0.376425 0.602101
vt 0.416536 0.595585
vt 0.521547 0.649255
vt 0.456646 0.602101
vt 0.340144 0.620406
vt 0.492927 0.620406
vt 0.023112 0.194082
vt 0.042529 0.231818
vt 0.030679 0.240428
vt 0.009164 0.198614
vt 0.072419 0.261946
vt 0.063798 0.273811
vt 0.005578 0.175377
vt 0.019876 0.173111
vt 0.110308 0.281063
vt 0.105782 0.294994
vt 0.016640 0.152139
vt 0.001992 0.152139
vt 0.152198 0.287868
vt 0.152198 0.302534
vt 0.005578 0.128902
vt 0.019876 0.131168
vt 0.194088 0.281063
vt 0.198614 0.294994
vt 0.023112 0.110197
vt 0.009164 0.105665
vt 0.231977 0.261946
vt 0.240598 0.273811
vt 0.042529 0.072461
vt 0.030679 0.063851
vt 0.261866 0.231818
vt 0.273717 0.240428
vt 0.072419 0.042333
vt 0.063798 0.030467
vt 0.281283 0.194082
vt 0.295232 0.198614
vt 0.110308 0.023216
vt 0.105782 0.009285
vt 0.284520 0.173111
vt 0.298818 0.175377
vt 0.152198 0.016411
vt 0.152198 0.001744
vt 0.287756 0.152139
vt 0.302404 0.152139
vt 0.194088 0.023216
vt 0.198614 0.009285
vt 0.284520 0.131168
vt 0.298818 0.128902
vt 0.231977 0.042333
vt 0.240598 0.030467
vt 0.281283 0.110197
vt 0.295232 0.105665
vt 0.261866 0.072461
vt 0.273717 0.063851
vt 0.815640 0.609893
vt 0.799800 0.608197
vt 0.799745 0.596506
vt 0.815618 0.594340
vt 0.815661 0.629287
vt 0.799856 0.626206
vt 0.783762 0.609858
vt 0.783717 0.594382
vt 0.783808 0.629240
vt 0.822696 0.608857
vt 0.838807 0.610963
vt 0.838861 0.622645
vt 0.822715 0.624324
vt 0.854765 0.608816
vt 0.854809 0.624360
vt 0.838915 0.640652
vt 0.822735 0.643704
vt 0.854851 0.643751
vt 0.603520 0.037378
vt 0.561536 0.037378
vt 0.561536 0.001744
vt 0.603520 0.001744
vt 0.603520 0.055195
vt 0.561536 0.055195
vt 0.649936 0.037378
vt 0.649936 0.001744
vt 0.603520 0.073012
vt 0.561536 0.073012
vt 0.649936 0.055195
vt 0.696352 0.037378
vt 0.696352 0.001744
vt 0.603520 0.215545
vt 0.561536 0.215545
vt 0.649936 0.073012
vt 0.696352 0.055195
vt 0.738336 0.037378
vt 0.738336 0.001744
vt 0.649936 0.215545
vt 0.603520 0.233559
vt 0.561536 0.233560
vt 0.696352 0.073012
vt 0.738336 0.055195
vt 0.649936 0.233560
vt 0.696352 0.215545
vt 0.561536 0.251574
vt 0.603520 0.251573
vt 0.738336 0.073012
vt 0.649936 0.251574
vt 0.696352 0.233559
vt 0.738336 0.215545
vt 0.562500 0.281645
vt 0.604026 0.281636
vt 0.696352 0.251573
vt 0.649936 0.281645
vt 0.738336 0.233560
vt 0.606975 0.301289
vt 0.568115 0.301289
vt 0.738336 0.251574
vt 0.695847 0.281636
vt 0.649936 0.301289
vt 0.737372 0.281645
vt 0.692898 0.301289
vt 0.731757 0.301289
vt 0.956024 0.569191
vt 0.998008 0.569191
vt 0.998008 0.604825
vt 0.956024 0.604825
vt 0.956024 0.551374
vt 0.998008 0.551374
vt 0.909608 0.569191
vt 0.909608 0.604825
vt 0.956024 0.533558
vt 0.998008 0.533558
vt 0.909608 0.551374
vt 0.863192 0.569191
vt 0.863192 0.604825
vt 0.956024 0.391024
vt 0.998008 0.391024
vt 0.909608 0.533558
vt 0.863192 0.551374
vt 0.821208 0.569191
vt 0.821208 0.604825
vt 0.909608 0.391024
vt 0.956024 0.373010
vt 0.998008 0.373010
vt 0.863192 0.533558
vt 0.821208 0.551374
vt 0.909608 0.373010
vt 0.863192 0.391024
vt 0.998008 0.354995
vt 0.956024 0.354996
vt 0.821208 0.533558
vt 0.909608 0.354995
vt 0.863192 0.373010
vt 0.821208 0.391024
vt 0.997044 0.324924
vt 0.955519 0.324933
vt 0.863192 0.354996
vt 0.909608 0.324924
vt 0.821208 0.373010
vt 0.952570 0.305280
vt 0.991429 0.305280
vt 0.821208 0.354995
vt 0.863697 0.324933
vt 0.909608 0.305280
vt 0.822172 0.324924
vt 0.866647 0.305280
vt 0.827787 0.305280
vt 0.467655 0.519081
vt 0.467655 0.590348
vt 0.429766 0.590348
vt 0.429765 0.519081
vt 0.509545 0.519081
vt 0.509545 0.590348
vt 0.467655 0.376547
vt 0.429765 0.376547
vt 0.551434 0.519081
vt 0.551434 0.590348
vt 0.509545 0.376547
vt 0.429766 0.340914
vt 0.467655 0.340914
vt 0.589324 0.519081
vt 0.589324 0.590348
vt 0.551434 0.376547
vt 0.509545 0.340914
vt 0.430612 0.314189
vt 0.468100 0.314189
vt 0.589324 0.376547
vt 0.551434 0.340914
vt 0.509545 0.314189
vt 0.433153 0.305280
vt 0.469434 0.305280
vt 0.589324 0.340914
vt 0.550990 0.314189
vt 0.509545 0.305280
vt 0.588477 0.314189
vt 0.549656 0.305280
vt 0.585936 0.305280
vt 0.159992 0.377793
vt 0.159992 0.306526
vt 0.197882 0.306526
vt 0.197881 0.377793
vt 0.118102 0.377793
vt 0.118102 0.306526
vt 0.159992 0.520327
vt 0.197882 0.520327
vt 0.076213 0.377793
vt 0.076213 0.306526
vt 0.118102 0.520327
vt 0.197882 0.555960
vt 0.159992 0.555960
vt 0.038323 0.377793
vt 0.038323 0.306526
vt 0.076212 0.520327
vt 0.118102 0.555960
vt 0.197035 0.582685
vt 0.159547 0.582685
vt 0.038323 0.520327
vt 0.076213 0.555960
vt 0.118102 0.582685
vt 0.194494 0.591594
vt 0.158213 0.591594
vt 0.038323 0.555960
vt 0.076657 0.582685
vt 0.118102 0.591594
vt 0.039170 0.582685
vt 0.077991 0.591594
vt 0.041711 0.591594
vt 0.573132 0.781500
vt 0.574159 0.789952
vt 0.554110 0.791223
vt 0.553740 0.782677
vt 0.588675 0.775536
vt 0.592450 0.783079
vt 0.574782 0.798281
vt 0.553972 0.799612
vt 0.600895 0.762826
vt 0.607502 0.768057
vt 0.595902 0.790581
vt 0.577923 0.807870
vt 0.556799 0.809290
vt 0.610159 0.742405
vt 0.618130 0.745175
vt 0.613890 0.773317
vt 0.601760 0.798865
vt 0.615200 0.715968
vt 0.623587 0.716813
vt 0.625984 0.747962
vt 0.622463 0.778749
vt 0.615170 0.687363
vt 0.623534 0.686520
vt 0.631915 0.717600
vt 0.635707 0.750726
vt 0.610081 0.660981
vt 0.617989 0.658235
vt 0.631849 0.685521
vt 0.641967 0.718503
vt 0.600816 0.640670
vt 0.607336 0.635512
vt 0.625792 0.655236
vt 0.641960 0.684859
vt 0.588665 0.628084
vt 0.592362 0.620679
vt 0.613611 0.630053
vt 0.635692 0.652660
vt 0.573189 0.622228
vt 0.574165 0.613972
vt 0.595626 0.613028
vt 0.622456 0.624677
vt 0.553807 0.621180
vt 0.554129 0.612877
vt 0.574561 0.605552
vt 0.601777 0.604610
vt 0.553761 0.604401
vt 0.577962 0.595670
vt 0.556842 0.594340
vt 0.670209 0.605775
vt 0.669624 0.614250
vt 0.649588 0.613103
vt 0.649409 0.604542
vt 0.691260 0.613363
vt 0.687818 0.620993
vt 0.668646 0.622563
vt 0.649266 0.621475
vt 0.673402 0.595760
vt 0.652278 0.594340
vt 0.709202 0.630487
vt 0.702795 0.635848
vt 0.684113 0.628444
vt 0.697238 0.604765
vt 0.721334 0.655729
vt 0.713457 0.658590
vt 0.696264 0.641045
vt 0.717941 0.624880
vt 0.727349 0.686039
vt 0.719011 0.686886
vt 0.705540 0.661370
vt 0.731186 0.652903
vt 0.727376 0.718117
vt 0.719071 0.717180
vt 0.710643 0.687760
vt 0.737445 0.685126
vt 0.721402 0.748454
vt 0.713623 0.745531
vt 0.710688 0.716365
vt 0.737438 0.718770
vt 0.709260 0.773750
vt 0.703003 0.768395
vt 0.705661 0.742794
vt 0.731171 0.750970
vt 0.691230 0.790915
vt 0.687953 0.783394
vt 0.696407 0.763203
vt 0.717935 0.778952
vt 0.670097 0.798504
vt 0.669658 0.790230
vt 0.684186 0.775898
vt 0.697255 0.799020
vt 0.649286 0.799751
vt 0.649607 0.791448
vt 0.668633 0.781835
vt 0.673441 0.807960
vt 0.649239 0.782973
vt 0.652320 0.809290
vn -0.809017 -0.000000 -0.587786
vn -0.932955 -0.000001 -0.359993
vn -0.932955 -0.000002 -0.359992
vn -0.809017 -0.000001 -0.587786
vn -0.587785 0.000001 -0.809018
vn -0.587785 0.000001 -0.809018
vn -0.309017 0.000001 -0.951056
vn -0.309017 0.000001 -0.951056
vn -0.000000 0.000000 -1.000000
vn 0.000000 -0.000000 -1.000000
vn 0.309017 -0.000000 -0.951057
vn 0.309017 -0.000000 -0.951057
vn 0.587785 0.000001 -0.809017
vn 0.587786 0.000001 -0.809017
vn 0.809017 0.000001 -0.587785
vn 0.809017 0.000001 -0.587785
vn 0.934736 0.000947 -0.355343
vn 0.935368 0.000000 -0.353675
vn 0.988302 0.000001 -0.152508
vn 0.987677 0.005981 -0.156389
vn 0.988302 0.000002 0.152508
vn 0.987743 0.005631 0.155990
vn 0.999995 0.003216 0.000356
vn 1.000000 0.000001 0.000000
vn 0.809017 0.000000 0.587786
vn 0.934736 0.000947 0.355343
vn 0.935368 0.000001 0.353675
vn 0.809017 0.000001 0.587786
vn 0.587785 -0.000000 0.809017
vn 0.587785 -0.000000 0.809017
vn 0.309017 -0.000000 0.951057
vn 0.309017 -0.000001 0.951057
vn -0.000000 0.000000 1.000000
vn 0.000000 0.000000 1.000000
vn -0.309017 -0.000000 0.951057
vn -0.309017 0.000000 0.951057
vn -0.587785 -0.000000 0.809017
vn -0.587785 0.000000 0.809017
vn -0.809017 0.000000 0.587785
vn -0.809017 0.000000 0.587785
vn -0.932955 0.000000 0.359992
vn -0.932955 0.000001 0.359992
vn -1.000000 -0.000000 0.000001
vn -0.988302 0.000001 0.152509
vn -0.988302 0.000003 0.152510
vn -1.000000 -0.000000 0.000001
vn -0.988302 -0.000001 -0.152508
vn -0.988302 -0.000002 -0.152508
vn 0.000000 -1.000000 -0.000000
vn 0.000000 -1.000000 -0.000000
vn 0.000000 -1.000000 -0.000000
vn 0.000000 -1.000000 0.000000
vn -0.257693 -0.961096 -0.099438
vn -0.218669 -0.962779 -0.158873
vn -0.156671 -0.963822 -0.215640
vn -0.082739 -0.963489 -0.254645
vn 0.000000 -0.962569 -0.271036
vn -0.911979 -0.210862 -0.351898
vn -0.790785 -0.211102 -0.574539
vn -0.574533 -0.211153 -0.790776
vn -0.302054 -0.211100 -0.929624
vn 0.000000 -0.211152 -0.977453
vn 0.302054 -0.211099 -0.929624
vn 0.082739 -0.963489 -0.254645
vn 0.574532 -0.211154 -0.790776
vn 0.156671 -0.963822 -0.215640
vn 0.790785 -0.211102 -0.574539
vn 0.218670 -0.962779 -0.158874
vn 0.914942 -0.206653 -0.346663
vn 0.257695 -0.961096 -0.099439
vn 0.966749 -0.208073 -0.148670
vn 0.225669 -0.973582 -0.034819
vn 0.976844 -0.213953 -0.000000
vn 0.966748 -0.208074 0.148670
vn 0.225669 -0.973582 0.034819
vn 0.253084 -0.967444 -0.000000
vn 0.914941 -0.206653 0.346665
vn 0.790786 -0.211100 0.574538
vn 0.218670 -0.962779 0.158873
vn 0.257695 -0.961096 0.099440
vn 0.574532 -0.211152 0.790777
vn 0.156672 -0.963822 0.215641
vn 0.302053 -0.211099 0.929624
vn 0.082739 -0.963489 0.254645
vn -0.000000 -0.211152 0.977453
vn 0.000000 -0.962569 0.271036
vn -0.302054 -0.211100 0.929624
vn -0.082739 -0.963488 0.254645
vn -0.574532 -0.211153 0.790776
vn -0.156671 -0.963823 0.215639
vn -0.790785 -0.211099 0.574540
vn -0.218671 -0.962778 0.158874
vn -0.911979 -0.210859 0.351899
vn -0.257694 -0.961096 0.099440
vn -0.225670 -0.973582 0.034819
vn -0.965552 -0.213325 0.149001
vn -0.977465 -0.211097 0.000001
vn -0.253084 -0.967444 0.000000
vn -0.225670 -0.973581 -0.034819
vn -0.965553 -0.213321 -0.149001
vn 0.000000 -1.000000 0.000000
vn 0.000000 -1.000000 0.000000
vn 0.000000 -1.000000 0.000000
vn 0.000000 -1.000000 0.000000
vn 0.000000 -1.000000 -0.000000
vn 0.000000 -1.000000 0.000000
vn 0.000000 -1.000000 0.000000
vn 0.000000 -1.000000 0.000000
vn 0.000000 -1.000000 -0.000000
vn 0.000000 -1.000000 0.000000
vn 0.000000 -1.000000 0.000000
vn 0.000000 -1.000000 0.000000
vn 0.000000 -1.000000 0.000000
vn 0.000000 -1.000000 -0.000000
vn 0.000000 -1.000000 0.000000
vn 0.000000 -1.000000 0.000000
vn 0.000000 -1.000000 0.000000
vn -0.932955 0.000001 -0.359992
vn -0.932955 -0.000001 -0.359992
vn -0.988302 -0.000001 -0.152507
vn -0.988302 -0.000000 -0.152507
vn -1.000000 0.000000 -0.000001
vn -1.000000 -0.000001 -0.000001
vn -0.988303 -0.000001 0.152506
vn -0.988303 0.000001 0.152506
vn -0.932955 -0.000001 0.359994
vn -0.809016 -0.000001 0.587787
vn -0.809016 0.000000 0.587786
vn -0.932955 0.000001 0.359994
vn -0.587786 -0.000001 0.809017
vn -0.587786 0.000000 0.809017
vn -0.309017 -0.000001 0.951056
vn -0.309017 0.000000 0.951057
vn -0.000000 -0.000001 1.000000
vn 0.000000 -0.000000 1.000000
vn 0.309017 -0.000001 0.951057
vn 0.309016 0.000000 0.951057
vn 0.587785 -0.000001 0.809017
vn 0.587785 0.000000 0.809017
vn 0.809017 -0.000000 0.587785
vn 0.809017 -0.000000 0.587786
vn 0.937145 0.000304 0.348941
vn 0.937108 -0.000306 0.349040
vn 0.988108 -0.001916 0.153752
vn 0.988127 0.001809 0.153631
vn 1.000000 0.000874 0.000097
vn 1.000000 -0.000868 -0.000095
vn 0.988128 -0.001801 -0.153622
vn 0.988107 0.001924 -0.153759
vn 0.937144 0.000304 -0.348942
vn 0.937108 -0.000306 -0.349040
vn 0.809017 -0.000001 -0.587785
vn 0.809017 -0.000000 -0.587785
vn 0.587785 -0.000001 -0.809017
vn 0.587785 -0.000000 -0.809017
vn 0.309017 -0.000001 -0.951057
vn 0.309017 -0.000000 -0.951057
vn -0.000000 -0.000001 -1.000000
vn 0.000000 0.000000 -1.000000
vn -0.309017 -0.000001 -0.951057
vn -0.309017 0.000000 -0.951056
vn -0.587785 -0.000001 -0.809017
vn -0.587785 -0.000000 -0.809018
vn -0.809017 -0.000001 -0.587786
vn -0.809017 0.000000 -0.587786
vn -0.987744 -0.033560 0.152434
vn -0.999426 -0.033880 -0.000000
vn -1.000000 -0.000011 -0.000000
vn -0.988302 -0.000010 0.152507
vn -0.932955 -0.000009 -0.359992
vn -0.988302 -0.000008 -0.152508
vn -0.987744 -0.033561 -0.152434
vn -0.932422 -0.033882 -0.359779
vn -0.587446 -0.033929 0.808552
vn -0.808552 -0.033891 0.587449
vn -0.809016 -0.000010 0.587787
vn -0.587785 -0.000010 0.809017
vn -0.932955 -0.000009 0.359993
vn -0.932422 -0.033884 0.359781
vn 0.000000 -0.033928 0.999424
vn -0.308839 -0.033889 0.950510
vn -0.309018 -0.000009 0.951056
vn -0.000000 -0.000007 1.000000
vn 0.587447 -0.033929 0.808551
vn 0.308839 -0.033888 0.950511
vn 0.309016 -0.000007 0.951057
vn 0.587785 -0.000007 0.809017
vn 0.934307 -0.035995 0.354649
vn 0.808552 -0.033890 0.587447
vn 0.809017 -0.000006 0.587785
vn 0.928489 -0.000008 0.371360
vn 0.934307 -0.035995 -0.354647
vn 0.986761 -0.042311 -0.156565
vn 0.986988 0.000460 -0.160790
vn 0.928490 -0.000009 -0.371359
vn 0.998615 -0.052610 -0.000451
vn 0.986662 -0.042785 0.157062
vn 0.587446 -0.033928 -0.808552
vn 0.808552 -0.033890 -0.587448
vn 0.809017 -0.000005 -0.587785
vn 0.587784 -0.000006 -0.809018
vn 0.000000 -0.033928 -0.999424
vn 0.308839 -0.033888 -0.950511
vn 0.309017 -0.000007 -0.951057
vn 0.000000 -0.000007 -1.000000
vn -0.587447 -0.033927 -0.808552
vn -0.308840 -0.033888 -0.950510
vn -0.309017 -0.000007 -0.951057
vn -0.587785 -0.000009 -0.809017
vn -0.808552 -0.033888 -0.587448
vn -0.809017 -0.000010 -0.587786
vn 0.809017 -0.000000 0.587786
vn 0.809016 -0.000001 0.587786
vn 0.932955 -0.000001 0.359993
vn 0.932955 -0.000000 0.359992
vn 0.587785 -0.000000 0.809017
vn 0.587785 -0.000001 0.809017
vn 0.309017 -0.000000 0.951057
vn 0.309017 -0.000000 0.951057
vn -0.000000 -0.000000 1.000000
vn -0.000000 -0.000000 1.000000
vn -0.309017 -0.000000 0.951057
vn -0.309017 -0.000000 0.951057
vn -0.587785 -0.000000 0.809017
vn -0.587785 -0.000001 0.809017
vn -0.809017 -0.000000 0.587785
vn -0.809017 -0.000000 0.587785
vn -0.932955 0.000000 0.359992
vn -0.932955 0.000000 0.359993
vn -0.988302 0.000000 0.152508
vn -0.988302 0.000000 0.152508
vn -0.988302 0.000000 -0.152508
vn -0.988302 0.000000 -0.152508
vn -1.000000 -0.000000 0.000000
vn -1.000000 -0.000000 -0.000000
vn -0.809017 0.000000 -0.587786
vn -0.809017 0.000000 -0.587786
vn -0.932955 0.000001 -0.359993
vn -0.932955 0.000000 -0.359992
vn -0.587785 -0.000000 -0.809017
vn -0.587785 0.000000 -0.809017
vn -0.309016 -0.000000 -0.951057
vn -0.309016 0.000000 -0.951057
vn 0.000000 -0.000000 -1.000000
vn -0.000000 -0.000000 -1.000000
vn 0.309017 -0.000000 -0.951056
vn 0.309017 -0.000000 -0.951056
vn 0.587785 -0.000000 -0.809017
vn 0.587785 -0.000001 -0.809017
vn 0.809016 -0.000000 -0.587786
vn 0.809017 -0.000001 -0.587786
vn 0.932955 -0.000000 -0.359993
vn 0.932955 -0.000001 -0.359993
vn 1.000000 0.000000 -0.000000
vn 1.000000 0.000000 -0.000001
vn 0.988302 -0.000001 -0.152508
vn 0.988302 -0.000000 -0.152507
vn 0.988302 -0.000001 0.152507
vn 0.988303 -0.000000 0.152506
vn 0.000000 1.000000 -0.000000
vn 0.000000 1.000000 0.000000
vn 0.000000 1.000000 0.000000
vn 0.000000 1.000000 0.000000
vn 0.119215 0.989083 0.086615
vn 0.138451 0.988927 0.053423
vn 0.045273 0.989210 0.139337
vn 0.087632 0.988824 0.120615
vn -0.000000 0.989261 0.146157
vn 0.921842 0.153891 0.355703
vn 0.799351 0.154118 0.580763
vn 0.580763 0.154112 0.799352
vn 0.305325 0.154118 0.939694
vn -0.000000 0.154112 0.988054
vn -0.045273 0.989210 0.139337
vn -0.305326 0.154118 0.939694
vn -0.087632 0.988824 0.120616
vn -0.580763 0.154113 0.799352
vn -0.119215 0.989083 0.086615
vn -0.799351 0.154119 0.580763
vn -0.138451 0.988927 0.053423
vn -0.921842 0.153890 0.355704
vn -0.117407 0.992919 0.018118
vn -0.976201 0.156006 0.150642
vn -0.988053 0.154117 -0.000000
vn -0.133245 0.991083 -0.000000
vn -0.117407 0.992919 -0.018118
vn -0.976202 0.156004 -0.150642
vn -0.921841 0.153891 -0.355705
vn -0.138451 0.988927 -0.053423
vn -0.119215 0.989083 -0.086615
vn -0.799351 0.154118 -0.580763
vn -0.087632 0.988824 -0.120615
vn -0.580763 0.154111 -0.799352
vn -0.045273 0.989210 -0.139337
vn -0.305325 0.154118 -0.939694
vn -0.000000 0.989262 -0.146156
vn 0.000001 0.154112 -0.988054
vn 0.045273 0.989210 -0.139337
vn 0.305326 0.154118 -0.939694
vn 0.087632 0.988824 -0.120615
vn 0.580764 0.154112 -0.799352
vn 0.119216 0.989083 -0.086616
vn 0.799350 0.154119 -0.580763
vn 0.138451 0.988927 -0.053423
vn 0.921841 0.153893 -0.355705
vn 0.976201 0.156009 -0.150642
vn 0.117407 0.992919 -0.018118
vn 0.133245 0.991083 -0.000000
vn 0.988052 0.154119 -0.000000
vn 0.976202 0.156005 0.150641
vn 0.117407 0.992919 0.018117
vn 0.000000 1.000000 0.000000
vn 0.000000 1.000000 0.000000
vn 0.000000 1.000000 0.000000
vn 0.000000 1.000000 -0.000000
vn 0.000000 1.000000 0.000000
vn 0.000000 1.000000 -0.000000
vn 0.000000 1.000000 -0.000000
vn 0.000000 1.000000 -0.000000
vn 0.000000 1.000000 0.000000
vn 0.000000 1.000000 -0.000000
vn 0.000000 1.000000 -0.000000
vn 0.000000 1.000000 -0.000000
vn 0.000000 1.000000 -0.000000
vn 0.000000 1.000000 0.000000
vn 0.000000 1.000000 0.000000
vn 0.000000 1.000000 0.000000
vn 0.000000 1.000000 0.000000
vn 0.932955 0.000000 0.359992
vn 0.988303 0.000000 0.152506
vn 1.000000 0.000000 0.000000
vn 0.988303 0.000000 -0.152506
vn 0.932955 0.000000 -0.359993
vn 0.809016 0.000000 -0.587787
vn 0.587786 0.000000 -0.809017
vn 0.309018 0.000000 -0.951056
vn 0.000000 0.000000 -1.000000
vn -0.309016 0.000000 -0.951057
vn -0.587785 0.000000 -0.809017
vn -0.809017 0.000000 -0.587785
vn -0.932955 0.000000 -0.359992
vn -0.988302 0.000000 -0.152509
vn -1.000000 0.000000 -0.000000
vn -0.988302 0.000000 0.152508
vn -0.932955 -0.000000 0.359992
vn -0.809017 0.000000 0.587785
vn -0.587785 0.000000 0.809017
vn -0.309017 0.000000 0.951057
vn -0.000000 0.000000 1.000000
vn 0.309017 0.000000 0.951057
vn 0.587785 0.000000 0.809017
vn 0.809017 0.000000 0.587786
vn 0.988047 0.022733 -0.152469
vn 0.999737 0.022933 0.000000
vn 0.988047 0.022733 0.152468
vn 0.932710 0.022924 0.359897
vn 0.808804 0.022934 -0.587632
vn 0.587630 0.022959 -0.808804
vn 0.932709 0.022925 -0.359899
vn 0.308936 0.022933 -0.950806
vn -0.000000 0.022958 -0.999736
vn -0.308935 0.022932 -0.950807
vn -0.587630 0.022958 -0.808804
vn -0.808804 0.022932 -0.587631
vn -0.932710 0.022924 -0.359898
vn -0.988047 0.022732 0.152469
vn -0.932710 0.022923 0.359898
vn -0.999737 0.022932 0.000000
vn -0.988047 0.022732 -0.152470
vn -0.808804 0.022933 0.587631
vn -0.587630 0.022958 0.808804
vn -0.308935 0.022932 0.950807
vn -0.000000 0.022958 0.999737
vn 0.308936 0.022933 0.950806
vn 0.587630 0.022958 0.808804
vn 0.808804 0.022932 0.587632
vn 0.000000 1.000000 -0.000000
vn 0.000001 1.000000 -0.000000
vn 0.000001 1.000000 -0.000000
vn 0.000000 1.000000 -0.000000
vn 0.000001 1.000000 -0.000000
vn 0.000001 1.000000 -0.000000
vn 0.000000 1.000000 -0.000001
vn 0.000000 1.000000 -0.000001
vn 0.000000 1.000000 -0.000001
vn 0.000000 1.000000 -0.000001
vn -0.000000 1.000000 -0.000000
vn -0.000000 1.000000 -0.000000
vn -0.000000 1.000000 0.000000
vn -0.000000 1.000000 0.000000
vn -0.000000 1.000000 0.000000
vn -0.000000 1.000000 0.000000
vn 0.000000 1.000000 -0.000000
vn 0.000000 1.000000 -0.000000
vn 0.000000 1.000000 0.000000
vn 0.000000 1.000000 0.000000
vn 0.000000 1.000000 -0.000000
vn 0.000000 1.000000 -0.000000
vn 0.000000 1.000000 -0.000000
vn 0.000000 1.000000 -0.000000
vn 0.000000 1.000000 0.000000
vn 0.000000 1.000000 0.000000
vn 0.000000 1.000000 0.000000
vn 0.000000 1.000000 0.000000
vn 0.000000 1.000000 0.000000
vn 0.000000 1.000000 0.000000
vn 0.000000 1.000000 0.000001
vn 0.000000 1.000000 0.000001
vn 0.000000 1.000000 0.000000
vn 0.000000 1.000000 0.000000
vn 0.000000 1.000000 0.000000
vn 0.000000 1.000000 0.000000
vn 0.000000 1.000000 0.000000
vn 0.000000 1.000000 0.000000
vn 0.000001 1.000000 -0.000000
vn 0.000001 1.000000 -0.000000
vn 0.000001 1.000000 -0.000000
vn 0.000001 1.000000 -0.000000
vn 0.000001 1.000000 -0.000001
vn 0.000001 1.000000 -0.000001
vn 0.000001 1.000000 0.000000
vn 0.000001 1.000000 0.000000
vn 0.000000 1.000000 0.000001
vn 0.000000 1.000000 0.000001
vn -0.932955 0.000003 -0.359993
vn -0.988302 0.000002 -0.152508
vn -1.000000 -0.000000 0.000000
vn -0.988302 -0.000000 0.152508
vn -0.932955 -0.000000 0.359993
vn -0.809016 -0.000000 0.587786
vn -0.587785 -0.000000 0.809017
vn -0.309017 0.000000 0.951057
vn -0.000000 0.000000 1.000000
vn 0.309017 0.000000 0.951057
vn 0.587785 0.000000 0.809017
vn 0.809016 0.000000 0.587786
vn 0.928683 -0.000001 0.370876
vn 0.987171 0.000135 -0.159669
vn 0.928683 -0.000002 -0.370876
vn 0.809017 -0.000000 -0.587785
vn 0.587785 0.000001 -0.809017
vn 0.309017 0.000000 -0.951057
vn -0.000000 0.000000 -1.000000
vn -0.309017 0.000001 -0.951056
vn -0.587784 0.000002 -0.809018
vn -0.809017 0.000003 -0.587786
vn 0.987171 -0.000139 0.159669
vn 0.986958 0.000221 0.160978
vn 0.999266 -0.037408 0.008242
vn 0.982017 -0.043646 0.183679
vn 0.999267 0.037375 -0.008224
vn 0.982039 0.043637 -0.183562
vn 0.999266 0.037404 -0.008242
vn 0.982017 0.043647 -0.183678
vn 0.982742 0.039351 0.180746
vn 0.982763 0.039342 0.180637
vn 0.996677 -0.081020 0.008446
vn 0.978256 -0.070427 0.195077
vn 0.985699 0.003351 0.168485
vn 0.984169 0.005770 0.177139
vn 0.982742 -0.039358 -0.180747
vn 0.979150 -0.067977 -0.191426
vn 0.985699 -0.003351 -0.168485
vn 0.984182 -0.000781 -0.177159
vn 0.000000 0.000000 0.000000
vn 0.000000 0.000000 0.000000
vn 0.000000 0.000000 0.000000
vn 0.000000 0.000000 0.000000
vn 0.000000 0.000000 0.000000
vn 0.000000 0.000000 0.000000
vn 0.000000 0.000000 0.000000
vn 0.000000 0.000000 0.000000
vn 0.000000 0.000000 0.000000
vn 0.000000 0.000000 0.000000
vn 0.000000 0.000000 0.000000
vn 0.000000 0.000000 0.000000
vn 0.000000 0.000000 0.000000
vn 0.000000 0.000000 0.000000
vn 0.000000 0.000000 0.000000
vn 0.000000 0.000000 0.000000
vn 0.000000 0.000000 0.000000
vn 0.000000 0.000000 0.000000
vn 0.000000 0.000000 0.000000
vn 0.000000 0.000000 0.000000
vn 0.000000 0.000000 0.000000
vn 0.000000 0.000000 0.000000
vn 0.000000 0.000000 0.000000
vn 0.000000 0.000000 0.000000
vn 0.000000 0.000000 0.000000
vn 0.000000 0.000000 0.000000
vn 0.000000 0.000000 0.000000
vn 0.000000 0.000000 0.000000
vn 0.000000 0.000000 0.000000
vn 0.000000 0.000000 0.000000
vn 0.000000 0.000000 0.000000
vn 0.000000 0.000000 0.000000
vn 0.000000 0.000000 0.000000
vn 0.000000 0.000000 0.000000
vn 0.000000 0.000000 0.000000
vn 0.000000 0.000000 0.000000
vn 0.000000 0.000000 0.000000
vn 0.000000 0.000000 0.000000
vn 0.000000 0.000000 0.000000
vn 0.000000 0.000000 0.000000
vn 0.000000 0.000000 0.000000
vn 0.000000 0.000000 0.000000
vn 0.000000 0.000000 0.000000
vn 0.000000 0.000000 0.000000
vn 0.000000 0.000000 0.000000
vn 0.000000 0.000000 0.000000
vn 0.000000 0.000000 0.000000
vn 0.000000 0.000000 0.000000
vn 0.000000 0.000000 0.000000
vn 0.000000 0.000000 0.000000
vn 0.000000 0.000000 0.000000
vn 0.000000 0.000000 0.000000
vn 0.000000 0.000000 0.000000
vn 0.000000 0.000000 0.000000
vn 0.000000 0.000000 0.000000
vn 0.000000 0.000000 0.000000
vn 0.000000 0.000000 0.000000
vn 0.000000 0.000000 0.000000
vn 0.000000 0.000000 0.000000
vn 0.000000 0.000000 0.000000
vn 0.000000 0.000000 0.000000
vn 0.000000 0.000000 0.000000
vn 0.000000 0.000000 0.000000
vn 0.000000 0.000000 0.000000
vn -0.160393 0.852606 0.497330
vn -0.196392 0.846915 0.494131
vn -0.051987 0.862777 0.502904
vn -0.051987 0.862777 0.502904
vn -0.194140 0.834450 -0.515754
vn -0.156555 0.839866 -0.519726
vn -0.050818 0.848481 -0.526781
vn -0.050818 0.848481 -0.526781
vn -0.052047 0.245408 -0.968022
vn -0.047736 0.245808 -0.968143
vn -0.014087 0.248767 -0.968461
vn -0.014087 0.248767 -0.968461
vn 0.062731 -0.280369 -0.957840
vn 0.055900 -0.281508 -0.957929
vn 0.018061 -0.287569 -0.957590
vn 0.018061 -0.287569 -0.957590
vn 0.180658 -0.831315 -0.525622
vn 0.188984 -0.829351 -0.525796
vn 0.054979 -0.853338 -0.518452
vn 0.054979 -0.853338 -0.518452
vn 0.186823 -0.816338 0.546525
vn 0.178231 -0.818259 0.546521
vn 0.054447 -0.838700 0.541865
vn 0.054447 -0.838700 0.541865
vn 0.049745 -0.246008 0.967990
vn 0.055964 -0.245608 0.967753
vn 0.015983 -0.248012 0.968625
vn 0.015983 -0.248012 0.968625
vn -0.054328 0.281302 0.958080
vn -0.059078 0.280388 0.958067
vn -0.016419 0.288356 0.957383
vn -0.016419 0.288356 0.957383
vn -0.049177 -0.846814 0.529611
vn -0.049177 -0.846814 0.529611
vn -0.192340 -0.833240 0.518378
vn -0.155052 -0.838496 0.522382
vn -0.050453 -0.861283 -0.505615
vn -0.050453 -0.861283 -0.505615
vn -0.159036 -0.851382 -0.499857
vn -0.194716 -0.845843 -0.496623
vn -0.017114 -0.288052 -0.957462
vn -0.017114 -0.288052 -0.957462
vn -0.055232 -0.280903 -0.958146
vn -0.059837 -0.280010 -0.958131
vn 0.013819 0.248923 -0.968425
vn 0.013819 0.248923 -0.968425
vn 0.047293 0.247283 -0.967788
vn 0.054412 0.246898 -0.967513
vn 0.050682 0.840203 -0.539899
vn 0.050682 0.840203 -0.539899
vn 0.184755 0.817651 -0.545264
vn 0.173994 0.820047 -0.545205
vn 0.051311 0.854891 0.516265
vn 0.051311 0.854891 0.516265
vn 0.176533 0.833168 0.524087
vn 0.187034 0.830701 0.524360
vn 0.016039 0.288854 0.957239
vn 0.016039 0.288854 0.957239
vn 0.061413 0.281936 0.957466
vn 0.053597 0.283171 0.957571
vn -0.014641 -0.248205 0.968597
vn -0.014641 -0.248205 0.968597
vn -0.052624 -0.244824 0.968138
vn -0.048444 -0.245214 0.968258
vn -0.529284 -0.688898 0.495256
vn -0.486558 -0.717946 0.497810
vn -0.494789 -0.724194 -0.480341
vn -0.534593 -0.696522 -0.478611
vn -0.153205 -0.239178 -0.958813
vn -0.160325 -0.234525 -0.958798
vn 0.134765 0.221046 -0.965908
vn 0.144190 0.216085 -0.965669
vn 0.455499 0.701047 -0.548684
vn 0.447765 0.705904 -0.548822
vn 0.452766 0.715059 0.532629
vn 0.460454 0.710140 0.532619
vn 0.158419 0.239852 0.957797
vn 0.148746 0.245834 0.957831
vn -0.144672 -0.211528 0.966605
vn -0.137855 -0.215323 0.966764
vn -0.752590 -0.437264 0.492350
vn -0.740353 -0.458985 0.491131
vn -0.747245 -0.460230 -0.479388
vn -0.758232 -0.440242 -0.480907
vn -0.233952 -0.157193 -0.959457
vn -0.235797 -0.153939 -0.959533
vn 0.215359 0.153481 -0.964398
vn 0.218494 0.149042 -0.964389
vn 0.686774 0.481226 -0.544760
vn 0.681777 0.488217 -0.544815
vn 0.687372 0.493000 0.533358
vn 0.692226 0.486080 0.533432
vn 0.234014 0.161104 0.958793
vn 0.231175 0.165883 0.958666
vn -0.219179 -0.143271 0.965108
vn -0.217174 -0.146177 0.965126
vn -0.831370 -0.236699 0.502789
vn -0.829080 -0.245560 0.502321
vn -0.833292 -0.245396 -0.495383
vn -0.835175 -0.237669 -0.495980
vn -0.263704 -0.081922 -0.961119
vn -0.263877 -0.081075 -0.961143
vn 0.253090 0.082517 -0.963917
vn 0.253693 0.080703 -0.963912
vn 0.801143 0.258061 -0.539976
vn 0.799584 0.262715 -0.540043
vn 0.803661 0.264387 0.533131
vn 0.805074 0.259978 0.533167
vn 0.264626 0.084946 0.960602
vn 0.264251 0.086745 0.960545
vn -0.252638 -0.077648 0.964440
vn -0.252369 -0.078444 0.964446
vn -0.858570 -0.074767 0.507216
vn -0.858360 -0.077225 0.507203
vn -0.859836 -0.076472 -0.504812
vn -0.859943 -0.074886 -0.504867
vn -0.269985 -0.024669 -0.962548
vn -0.269986 -0.024562 -0.962551
vn 0.267171 0.025974 -0.963299
vn 0.267272 0.025312 -0.963289
vn 0.840292 0.079595 -0.536259
vn 0.840088 0.081501 -0.536292
vn 0.841568 0.081829 0.533917
vn 0.841712 0.080208 0.533935
vn 0.271146 0.026190 0.962182
vn 0.271145 0.026755 0.962167
vn -0.266050 -0.024166 0.963656
vn -0.266033 -0.024269 0.963658
vn -0.859996 0.075377 0.504703
vn -0.859873 0.077231 0.504632
vn -0.858531 0.077986 -0.506797
vn -0.858760 0.075263 -0.506821
vn -0.266048 0.025320 -0.963627
vn -0.266082 0.025111 -0.963623
vn 0.270985 -0.025467 -0.962247
vn 0.270985 -0.025488 -0.962246
vn 0.841643 -0.080085 -0.534063
vn 0.841623 -0.080315 -0.534061
vn 0.840263 -0.079985 0.536248
vn 0.840318 -0.079465 0.536238
vn 0.267283 -0.024602 0.963304
vn 0.267269 -0.024694 0.963306
vn -0.269844 0.025513 0.962566
vn -0.269843 0.025730 0.962561
vn -0.835468 0.238138 0.495261
vn -0.833520 0.246170 0.494615
vn -0.829451 0.246329 -0.501331
vn -0.831807 0.237171 -0.501843
vn -0.252209 0.079541 -0.964398
vn -0.252525 0.078617 -0.964391
vn 0.264116 -0.085125 -0.960727
vn 0.264336 -0.084077 -0.960759
vn 0.804986 -0.259869 -0.533354
vn 0.804135 -0.262533 -0.533332
vn 0.800189 -0.260859 0.540046
vn 0.801163 -0.257939 0.540005
vn 0.253612 -0.079821 0.964007
vn 0.253240 -0.080938 0.964012
vn -0.263568 0.082057 0.961145
vn -0.263362 0.083043 0.961116
vn -0.758861 0.440569 0.479614
vn -0.747716 0.460892 0.478016
vn -0.740992 0.459641 -0.489552
vn -0.753376 0.437602 -0.490845
vn -0.216705 0.147260 -0.965067
vn -0.218833 0.144198 -0.965049
vn 0.231542 -0.163657 -0.958960
vn 0.233792 -0.159849 -0.959057
vn 0.692197 -0.485880 -0.533651
vn 0.688888 -0.490614 -0.533602
vn 0.683438 -0.485849 0.544852
vn 0.686876 -0.481020 0.544813
vn 0.218542 -0.147813 0.964568
vn 0.216032 -0.151387 0.964579
vn -0.235215 0.154857 0.959528
vn -0.233252 0.158287 0.959447
vn -0.535973 0.696804 0.476653
vn -0.495853 0.724800 0.478325
vn -0.487814 0.718606 -0.495624
vn -0.530821 0.689246 -0.493122
vn -0.137103 0.216148 -0.966687
vn -0.144122 0.212265 -0.966526
vn 0.150335 -0.243465 -0.958188
vn 0.158785 -0.238169 -0.958156
vn 0.460957 -0.709400 -0.533170
vn 0.455884 -0.712659 -0.533186
vn 0.451024 -0.703553 0.549173
vn 0.456142 -0.700325 0.549071
vn 0.144854 -0.214542 0.965914
vn 0.136608 -0.218954 0.966125
vn -0.159532 0.235172 0.958772
vn -0.152197 0.239934 0.958785
s 1
g pCylinder12
usemtl initialShadingGroup
f 290/65/1 271/66/2 138/67/3 139/68/4
f 289/73/5 290/65/1 139/68/4 141/74/6
f 288/529/7 289/530/5 141/531/6 143/532/8
f 287/535/9 288/529/7 143/532/8 145/536/10
f 286/540/11 287/535/9 145/536/10 147/541/12
f 285/546/13 286/540/11 147/541/12 149/547/14
f 284/147/15 285/152/13 149/153/14 151/148/16
f 283/146/17 284/147/15 151/148/16 153/149/18
f 324/154/19 325/155/20 283/146/17 153/149/18
f 292/169/21 293/170/22 282/160/23 155/161/24
f 280/189/25 281/177/26 157/178/27 159/190/28
f 279/203/29 280/189/25 159/190/28 161/204/30
f 278/574/31 279/575/29 161/576/30 163/577/32
f 277/580/33 278/574/31 163/577/32 165/581/34
f 276/585/35 277/580/33 165/581/34 167/586/36
f 275/591/37 276/585/35 167/586/36 169/592/38
f 274/103/39 275/113/37 169/114/38 171/104/40
f 273/94/41 274/103/39 171/104/40 173/95/42
f 272/79/43 307/86/44 308/87/45 175/80/46
f 271/66/2 339/71/47 340/72/48 138/67/3
f 176/373/49 177/374/50 178/375/51 179/376/52
f 177/374/50 180/379/53 181/380/54 178/375/51
f 178/375/51 181/380/54 182/389/55 183/381/56
f 179/376/52 178/375/51 183/381/56 184/382/57
f 185/107/58 186/108/59 181/118/54 180/119/53
f 186/108/59 187/115/60 182/124/55 181/118/54
f 187/561/60 188/562/61 183/566/56 182/567/55
f 188/562/61 189/564/62 184/570/57 183/566/56
f 189/564/62 190/569/63 191/572/64 184/570/57
f 190/569/63 192/571/65 193/573/66 191/572/64
f 192/205/65 194/193/67 195/209/68 193/214/66
f 194/193/67 196/194/69 197/208/70 195/209/68
f 196/194/69 329/207/71 330/218/72 197/208/70
f 198/217/73 297/226/74 298/232/75 199/227/76
f 200/231/77 202/235/78 203/239/79 201/236/80
f 202/235/78 204/238/81 205/240/82 203/239/79
f 204/606/81 206/607/83 207/611/84 205/612/82
f 206/607/83 208/609/85 209/615/86 207/611/84
f 208/609/85 210/614/87 211/617/88 209/615/86
f 210/614/87 212/616/89 213/618/90 211/617/88
f 212/143/89 214/141/91 215/144/92 213/145/90
f 214/141/91 216/137/93 217/142/94 215/144/92
f 302/138/95 303/132/96 218/126/97 219/133/98
f 334/127/99 335/117/100 185/107/58 180/119/53
f 197/391/70 220/383/101 221/384/102 195/392/68
f 220/383/101 176/373/49 179/376/52 221/384/102
f 221/384/102 179/376/52 184/382/57 191/390/64
f 195/392/68 221/384/102 191/390/64 193/398/66
f 298/406/75 299/400/103 223/394/104 199/401/76
f 299/400/103 300/395/105 225/386/106 223/394/104
f 331/388/107 332/377/108 176/373/49 220/383/101
f 330/397/72 331/388/107 220/383/101 197/391/70
f 301/396/109 302/399/95 219/393/98 226/385/110
f 333/378/111 334/387/99 180/379/53 177/374/50
f 332/377/108 333/378/111 177/374/50 176/373/49
f 300/395/105 301/396/109 226/385/110 225/386/106
f 209/412/86 228/407/112 229/410/113 207/416/84
f 228/407/112 224/403/114 222/405/115 229/410/113
f 229/410/113 222/405/115 201/411/80 203/415/79
f 207/416/84 229/410/113 203/415/79 205/417/82
f 217/404/94 227/402/116 230/408/117 215/409/92
f 227/402/116 224/403/114 228/407/112 230/408/117
f 230/408/117 228/407/112 209/412/86 211/413/88
f 215/409/92 230/408/117 211/413/88 213/414/90
f 136/76/118 231/82/119 337/91/120 338/83/121
f 174/92/122 232/100/123 305/110/124 306/101/125
f 233/121/126 234/129/127 170/122/128 172/111/129
f 170/122/128 234/129/127 235/135/130 168/130/131
f 235/605/130 236/599/132 166/596/133 168/602/131
f 166/596/133 236/599/132 237/593/134 164/589/135
f 237/593/134 238/587/136 162/582/137 164/589/135
f 162/582/137 238/587/136 239/588/138 160/583/139
f 239/228/138 240/219/140 158/212/141 160/223/139
f 158/212/141 240/219/140 241/210/142 156/201/143
f 294/197/144 295/198/145 242/184/146 154/183/147
f 326/165/148 327/174/149 243/162/150 152/156/151
f 243/162/150 244/163/152 150/157/153 152/156/151
f 150/157/153 244/163/152 245/173/154 148/164/155
f 245/560/154 246/554/156 146/551/157 148/557/155
f 146/551/157 246/554/156 247/548/158 144/544/159
f 247/548/158 248/542/160 142/537/161 144/544/159
f 142/537/161 248/542/160 249/543/162 140/538/163
f 249/88/162 250/81/164 137/75/165 140/84/163
f 137/75/165 250/81/164 231/82/119 136/76/118
f 303/132/96 304/125/166 252/116/167 218/126/97
f 389/109/168 390/120/169 305/110/124 232/100/123
f 387/90/170 388/99/171 337/91/120 231/82/119
f 335/117/100 336/106/172 253/97/173 185/107/58
f 212/143/89 254/140/174 255/136/175 214/141/91
f 392/134/176 393/139/177 235/135/130 234/129/127
f 391/128/178 392/134/176 234/129/127 233/121/126
f 214/141/91 255/136/175 251/131/179 216/137/93
f 208/609/85 256/603/180 257/608/181 210/614/87
f 394/604/182 395/598/183 237/593/134 236/599/132
f 393/610/177 394/604/182 236/599/132 235/605/130
f 210/614/87 257/608/181 254/613/174 212/616/89
f 204/606/81 258/600/184 259/601/185 206/607/83
f 396/594/186 397/595/187 239/588/138 238/587/136
f 395/598/183 396/594/186 238/587/136 237/593/134
f 206/607/83 259/601/185 256/603/180 208/609/85
f 200/231/77 260/230/188 261/234/189 202/235/78
f 398/229/190 399/220/191 241/210/142 240/219/140
f 397/233/187 398/229/190 240/219/140 239/228/138
f 202/235/78 261/234/189 258/237/184 204/238/81
f 196/194/69 262/180/192 328/192/193 329/207/71
f 378/182/194 379/171/195 243/162/150 327/174/149
f 198/217/73 263/215/196 296/224/197 297/226/74
f 192/205/65 264/191/198 265/179/199 194/193/67
f 380/172/200 381/181/201 245/173/154 244/163/152
f 379/171/195 380/172/200 244/163/152 243/162/150
f 194/193/67 265/179/199 262/180/192 196/194/69
f 189/564/62 266/558/202 267/563/203 190/569/63
f 382/559/204 383/553/205 247/548/158 246/554/156
f 381/565/201 382/559/204 246/554/156 245/560/154
f 190/569/63 267/563/203 264/568/198 192/571/65
f 187/561/60 268/555/206 269/556/207 188/562/61
f 384/549/208 385/550/209 249/543/162 248/542/160
f 383/553/205 384/549/208 248/542/160 247/548/158
f 188/562/61 269/556/207 266/558/202 189/564/62
f 185/107/58 253/97/173 270/98/210 186/108/59
f 386/89/211 387/90/170 231/82/119 250/81/164
f 385/96/209 386/89/211 250/81/164 249/88/162
f 186/108/59 270/98/210 268/105/206 187/115/60
s 10
f 64/241/212 66/242/213 1/243/214 65/244/215
f 67/245/216 2/246/217 66/242/213 64/241/212
f 68/619/218 69/620/219 2/621/217 67/622/216
f 70/623/220 3/624/221 69/620/219 68/619/218
f 71/627/222 72/628/223 3/624/221 70/623/220
f 73/632/224 4/633/225 72/628/223 71/627/222
f 74/298/226 75/297/227 4/301/225 73/302/224
f 76/295/228 5/296/229 75/297/227 74/298/226
f 354/299/230 323/300/231 5/296/229 76/295/228
f 322/311/232 291/312/233 78/306/234 77/305/235
f 80/326/236 81/327/237 6/319/238 79/318/239
f 82/333/240 7/334/241 81/327/237 80/326/236
f 83/649/242 84/650/243 7/651/241 82/652/240
f 85/653/244 8/654/245 84/650/243 83/649/242
f 86/657/246 87/658/247 8/654/245 85/653/244
f 88/662/248 9/663/249 87/658/247 86/657/246
f 89/274/250 90/273/251 9/279/249 88/280/248
f 91/266/252 10/265/253 90/273/251 89/274/250
f 92/253/254 93/252/255 309/258/256 310/259/257
f 65/244/215 1/243/214 341/247/258 342/248/259
f 21/418/260 97/419/261 120/420/262 94/421/263
f 94/421/263 120/420/262 95/426/264 100/427/265
f 120/420/262 96/425/266 99/434/267 95/426/264
f 97/419/261 102/424/268 96/425/266 120/420/262
f 11/262/269 100/270/265 95/271/264 98/263/270
f 98/263/270 95/271/264 99/272/267 12/264/271
f 12/636/271 99/641/267 96/642/266 101/637/272
f 101/637/272 96/642/266 102/645/268 13/640/273
f 13/640/273 102/645/268 118/647/274 103/644/275
f 103/644/275 118/647/274 104/648/276 14/646/277
f 14/323/277 104/332/276 119/324/278 105/316/279
f 105/316/279 119/324/278 106/325/280 15/317/281
f 15/317/281 106/325/280 350/331/282 351/322/283
f 107/330/284 33/338/285 318/342/286 319/337/287
f 16/341/288 108/345/289 34/347/290 109/344/291
f 109/344/291 34/347/290 110/348/292 17/346/293
f 17/666/293 110/671/292 35/672/294 111/667/295
f 111/667/295 35/672/294 112/675/296 18/670/297
f 18/670/297 112/675/296 36/677/298 113/674/299
f 113/674/299 36/677/298 114/678/300 19/676/301
f 19/292/301 114/294/300 37/293/302 115/290/303
f 115/290/303 37/293/302 116/291/304 20/287/305
f 313/283/306 314/288/307 38/284/308 117/277/309
f 345/269/310 346/278/311 100/270/265 11/262/269
f 106/430/280 119/431/278 121/423/312 39/422/313
f 39/422/313 121/423/312 97/419/261 21/418/260
f 121/423/312 118/432/274 102/424/268 97/419/261
f 119/431/278 104/438/276 118/432/274 121/423/312
f 317/445/314 318/449/286 33/444/285 122/440/315
f 316/443/316 317/445/314 122/440/315 41/437/317
f 348/429/318 349/433/319 39/422/313 21/418/260
f 349/433/319 350/439/282 106/430/280 39/422/313
f 314/446/307 315/442/320 123/436/321 38/441/308
f 346/435/311 347/428/322 94/421/263 100/427/265
f 347/428/322 348/429/318 21/418/260 94/421/263
f 315/442/320 316/443/316 41/437/317 123/436/321
f 112/458/296 35/460/294 124/455/323 43/453/324
f 43/453/324 124/455/323 40/450/325 22/448/326
f 124/455/323 34/459/290 108/454/289 40/450/325
f 35/460/294 110/462/292 34/459/290 124/455/323
f 116/451/304 37/456/302 125/452/327 42/447/328
f 42/447/328 125/452/327 43/453/324 22/448/326
f 125/452/327 36/457/298 112/458/296 43/453/324
f 37/456/302 114/461/300 36/457/298 125/452/327
f 23/250/329 65/244/215 342/248/259 343/254/330
f 44/260/331 92/253/254 310/259/257 311/267/332
f 24/275/333 91/266/252 89/274/250 45/281/334
f 45/281/334 89/274/250 88/280/248 25/285/335
f 25/668/335 88/662/248 86/657/246 46/664/336
f 46/664/336 86/657/246 85/653/244 26/659/337
f 26/659/337 85/653/244 83/649/242 47/655/338
f 47/655/338 83/649/242 82/652/240 27/656/339
f 27/339/339 82/333/240 80/326/236 48/335/340
f 48/335/340 80/326/236 79/318/239 28/328/341
f 321/320/342 322/311/232 77/305/235 49/313/343
f 353/307/344 354/299/230 76/295/228 29/303/345
f 29/303/345 76/295/228 74/298/226 50/304/346
f 50/304/346 74/298/226 73/302/224 30/308/347
f 30/638/347 73/632/224 71/627/222 51/634/348
f 51/634/348 71/627/222 70/623/220 31/629/349
f 31/629/349 70/623/220 68/619/218 52/625/350
f 52/625/350 68/619/218 67/622/216 32/626/351
f 32/251/351 67/245/216 64/241/212 53/249/352
f 53/249/352 64/241/212 65/244/215 23/250/329
f 312/276/353 313/283/306 117/277/309 126/268/354
f 311/267/332 312/276/353 126/268/354 44/260/331
f 343/254/330 344/261/355 55/255/356 23/250/329
f 344/261/355 345/269/310 11/262/269 55/255/356
f 19/292/301 115/290/303 127/286/357 56/289/358
f 56/289/358 127/286/357 45/281/334 25/285/335
f 127/286/357 54/282/359 24/275/333 45/281/334
f 115/290/303 20/287/305 54/282/359 127/286/357
f 18/670/297 113/674/299 128/669/360 57/665/361
f 57/665/361 128/669/360 46/664/336 26/659/337
f 128/669/360 56/673/358 25/668/335 46/664/336
f 113/674/299 19/676/301 56/673/358 128/669/360
f 17/666/293 111/667/295 129/661/362 58/660/363
f 58/660/363 129/661/362 47/655/338 27/656/339
f 129/661/362 57/665/361 26/659/337 47/655/338
f 111/667/295 18/670/297 57/665/361 129/661/362
f 16/341/288 109/344/291 130/340/364 59/336/365
f 59/336/365 130/340/364 48/335/340 28/328/341
f 130/340/364 58/343/363 27/339/339 48/335/340
f 109/344/291 17/346/293 58/343/363 130/340/364
f 15/317/281 351/322/283 352/314/366 60/310/367
f 60/310/367 352/314/366 353/307/344 29/303/345
f 131/321/368 320/329/369 321/320/342 49/313/343
f 107/330/284 319/337/287 320/329/369 131/321/368
f 14/323/277 105/316/279 132/309/370 61/315/371
f 61/315/371 132/309/370 50/304/346 30/308/347
f 132/309/370 60/310/367 29/303/345 50/304/346
f 105/316/279 15/317/281 60/310/367 132/309/370
f 13/640/273 103/644/275 133/639/372 62/635/373
f 62/635/373 133/639/372 51/634/348 31/629/349
f 133/639/372 61/643/371 30/638/347 51/634/348
f 103/644/275 14/646/277 61/643/371 133/639/372
f 12/636/271 101/637/272 134/631/374 63/630/375
f 63/630/375 134/631/374 52/625/350 32/626/351
f 134/631/374 62/635/373 31/629/349 52/625/350
f 101/637/272 13/640/273 62/635/373 134/631/374
f 11/262/269 98/263/270 135/256/376 55/255/356
f 55/255/356 135/256/376 53/249/352 23/250/329
f 135/256/376 63/257/375 32/251/351 53/249/352
f 98/263/270 12/264/271 63/257/375 135/256/376
s 15
f 1/463/377 66/464/378 139/465/379 138/466/380
f 66/464/378 2/467/381 141/468/382 139/465/379
f 2/467/381 69/471/383 143/472/384 141/468/382
f 69/471/383 3/475/385 145/476/386 143/472/384
f 3/475/385 72/479/387 147/480/388 145/476/386
f 72/479/387 4/483/389 149/484/390 147/480/388
f 4/483/389 75/487/391 151/488/392 149/484/390
f 75/487/391 5/491/393 153/492/394 151/488/392
f 5/491/393 323/495/395 324/496/396 153/492/394
f 78/499/397 291/503/398 292/504/399 155/500/400
f 6/507/401 81/509/402 159/510/403 157/508/404
f 81/509/402 7/505/405 161/506/406 159/510/403
f 7/505/405 84/501/407 163/502/408 161/506/406
f 84/501/407 8/497/409 165/498/410 163/502/408
f 8/497/409 87/493/411 167/494/412 165/498/410
f 87/493/411 9/489/413 169/490/414 167/494/412
f 9/489/413 90/485/415 171/486/416 169/490/414
f 90/485/415 10/481/417 173/482/418 171/486/416
f 308/477/419 309/478/420 93/473/421 175/474/422
f 340/469/423 341/470/424 1/463/377 138/466/380
s 1
f 364/70/425 365/77/426 339/71/47 271/66/2
f 366/85/427 367/93/428 307/86/44 272/79/43
f 368/102/429 369/112/430 274/103/39 273/94/41
f 369/112/430 370/123/431 275/113/37 274/103/39
f 370/597/431 371/590/432 276/585/35 275/591/37
f 371/590/432 372/584/433 277/580/33 276/585/35
f 372/584/433 373/578/434 278/574/31 277/580/33
f 373/578/434 374/579/435 279/575/29 278/574/31
f 374/213/435 375/202/436 280/189/25 279/203/29
f 375/202/436 376/188/437 281/177/26 280/189/25
f 325/155/20 355/159/438 356/150/439 283/146/17
f 356/150/439 357/151/440 284/147/15 283/146/17
f 357/151/440 358/158/441 285/152/13 284/147/15
f 358/552/441 359/545/442 286/540/11 285/546/13
f 359/545/442 360/539/443 287/535/9 286/540/11
f 360/539/443 361/533/444 288/529/7 287/535/9
f 361/533/444 362/534/445 289/530/5 288/529/7
f 362/78/445 363/69/446 290/65/1 289/73/5
f 363/69/446 364/70/425 271/66/2 290/65/1
s 15
f 292/504/399 291/503/398 6/507/401 157/508/404
s 1
f 281/177/26 293/170/22 292/169/21 157/178/27
f 376/188/437 377/186/447 293/170/22 281/177/26
f 156/201/143 241/210/142 295/198/145 294/197/144
f 399/220/191 400/221/448 295/198/145 241/210/142
f 297/226/74 296/224/197 260/230/188 200/231/77
f 298/232/75 297/226/74 200/231/77 201/236/80
f 201/411/80 222/405/115 299/400/103 298/406/75
f 222/405/115 224/403/114 300/395/105 299/400/103
f 227/402/116 301/396/109 300/395/105 224/403/114
f 217/404/94 302/399/95 301/396/109 227/402/116
f 216/137/93 303/132/96 302/138/95 217/142/94
f 216/137/93 251/131/179 304/125/166 303/132/96
f 390/120/169 391/128/178 233/121/126 305/110/124
f 305/110/124 233/121/126 172/111/129 306/101/125
f 307/86/44 367/93/428 368/102/429 273/94/41
f 308/87/45 307/86/44 273/94/41 173/95/42
s 15
f 10/481/417 309/478/420 308/477/419 173/482/418
s 10
f 310/259/257 309/258/256 10/265/253 91/266/252
f 311/267/332 310/259/257 91/266/252 24/275/333
f 54/282/359 312/276/353 311/267/332 24/275/333
f 20/287/305 313/283/306 312/276/353 54/282/359
f 20/287/305 116/291/304 314/288/307 313/283/306
f 116/451/304 42/447/328 315/442/320 314/446/307
f 42/447/328 22/448/326 316/443/316 315/442/320
f 40/450/325 317/445/314 316/443/316 22/448/326
f 108/454/289 318/449/286 317/445/314 40/450/325
f 319/337/287 318/342/286 108/345/289 16/341/288
f 320/329/369 319/337/287 16/341/288 59/336/365
f 321/320/342 320/329/369 59/336/365 28/328/341
f 28/328/341 79/318/239 322/311/232 321/320/342
f 79/318/239 6/319/238 291/312/233 322/311/232
s 15
f 324/496/396 323/495/395 78/499/397 155/500/400
s 1
f 282/160/23 325/155/20 324/154/19 155/161/24
f 154/183/147 242/184/146 327/174/149 326/165/148
f 329/207/71 328/192/193 263/215/196 198/217/73
f 330/218/72 329/207/71 198/217/73 199/227/76
f 199/401/76 223/394/104 331/388/107 330/397/72
f 223/394/104 225/386/106 332/377/108 331/388/107
f 226/385/110 333/378/111 332/377/108 225/386/106
f 219/393/98 334/387/99 333/378/111 226/385/110
f 218/126/97 335/117/100 334/127/99 219/133/98
f 218/126/97 252/116/167 336/106/172 335/117/100
f 388/99/171 389/109/168 232/100/123 337/91/120
f 337/91/120 232/100/123 174/92/122 338/83/121
f 339/71/47 365/77/426 366/85/427 272/79/43
f 340/72/48 339/71/47 272/79/43 175/80/46
s 15
f 93/473/421 341/470/424 340/469/423 175/474/422
s 10
f 342/248/259 341/247/258 93/252/255 92/253/254
f 343/254/330 342/248/259 92/253/254 44/260/331
f 126/268/354 344/261/355 343/254/330 44/260/331
f 117/277/309 345/269/310 344/261/355 126/268/354
f 117/277/309 38/284/308 346/278/311 345/269/310
f 38/441/308 123/436/321 347/428/322 346/435/311
f 123/436/321 41/437/317 348/429/318 347/428/322
f 122/440/315 349/433/319 348/429/318 41/437/317
f 33/444/285 350/439/282 349/433/319 122/440/315
f 351/322/283 350/331/282 33/338/285 107/330/284
f 352/314/366 351/322/283 107/330/284 131/321/368
f 353/307/344 352/314/366 131/321/368 49/313/343
f 49/313/343 77/305/235 354/299/230 353/307/344
f 77/305/235 78/306/234 323/300/231 354/299/230
s 1
f 356/150/439 355/159/438 326/165/148 152/156/151
f 152/156/151 150/157/153 357/151/440 356/150/439
f 150/157/153 148/164/155 358/158/441 357/151/440
f 148/557/155 146/551/157 359/545/442 358/552/441
f 146/551/157 144/544/159 360/539/443 359/545/442
f 144/544/159 142/537/161 361/533/444 360/539/443
f 142/537/161 140/538/163 362/534/445 361/533/444
f 140/84/163 137/75/165 363/69/446 362/78/445
f 137/75/165 136/76/118 364/70/425 363/69/446
f 136/76/118 338/83/121 365/77/426 364/70/425
f 366/85/427 365/77/426 338/83/121 174/92/122
f 174/92/122 306/101/125 367/93/428 366/85/427
f 368/102/429 367/93/428 306/101/125 172/111/129
f 172/111/129 170/122/128 369/112/430 368/102/429
f 170/122/128 168/130/131 370/123/431 369/112/430
f 168/602/131 166/596/133 371/590/432 370/597/431
f 166/596/133 164/589/135 372/584/433 371/590/432
f 164/589/135 162/582/137 373/578/434 372/584/433
f 162/582/137 160/583/139 374/579/435 373/578/434
f 160/223/139 158/212/141 375/202/436 374/213/435
f 158/212/141 156/201/143 376/188/437 375/202/436
f 156/201/143 294/197/144 377/186/447 376/188/437
f 262/180/192 379/171/195 378/182/194 328/192/193
f 265/179/199 380/172/200 379/171/195 262/180/192
f 264/191/198 381/181/201 380/172/200 265/179/199
f 267/563/203 382/559/204 381/565/201 264/568/198
f 266/558/202 383/553/205 382/559/204 267/563/203
f 269/556/207 384/549/208 383/553/205 266/558/202
f 268/555/206 385/550/209 384/549/208 269/556/207
f 270/98/210 386/89/211 385/96/209 268/105/206
f 253/97/173 387/90/170 386/89/211 270/98/210
f 336/106/172 388/99/171 387/90/170 253/97/173
f 252/116/167 389/109/168 388/99/171 336/106/172
f 304/125/166 390/120/169 389/109/168 252/116/167
f 251/131/179 391/128/178 390/120/169 304/125/166
f 255/136/175 392/134/176 391/128/178 251/131/179
f 254/140/174 393/139/177 392/134/176 255/136/175
f 257/608/181 394/604/182 393/610/177 254/613/174
f 256/603/180 395/598/183 394/604/182 257/608/181
f 259/601/185 396/594/186 395/598/183 256/603/180
f 258/600/184 397/595/187 396/594/186 259/601/185
f 261/234/189 398/229/190 397/233/187 258/237/184
f 260/230/188 399/220/191 398/229/190 261/234/189
f 296/224/197 400/221/448 399/220/191 260/230/188
f 294/197/144 154/183/147 401/185/449 402/200/450
f 327/174/149 242/184/146 403/199/451 404/195/452
f 325/155/20 282/160/23 405/168/453 406/166/454
f 282/160/23 293/170/22 407/176/455 405/168/453
f 242/184/146 295/198/145 408/211/456 403/199/451
f 296/224/197 263/215/196 410/216/457 409/225/458
f 293/170/22 377/186/447 411/187/459 407/176/455
f 295/198/145 400/221/448 412/222/460 408/211/456
f 154/183/147 326/165/148 413/175/461 401/185/449
f 263/215/196 328/192/193 414/206/462 410/216/457
f 355/159/438 325/155/20 406/166/454 415/167/463
f 378/182/194 327/174/149 404/195/452 416/196/464
f 326/165/148 355/159/438 415/167/463 413/175/461
f 377/186/447 294/197/144 402/200/450 411/187/459
f 328/192/193 378/182/194 416/196/464 414/206/462
f 400/221/448 296/224/197 409/225/458 412/222/460
s off
f 402/38/465 401/7/466 417/49/467 418/6/468
f 404/1/469 403/9/470 419/50/471 420/8/472
f 406/2/473 405/11/474 421/51/475 422/10/476
f 405/3/477 407/13/478 423/52/479 421/12/480
f 403/4/481 408/15/482 424/53/483 419/14/484
f 409/5/485 410/16/486 426/54/487 425/17/488
f 407/39/489 411/18/490 427/55/491 423/19/492
f 408/40/493 412/20/494 428/56/495 424/21/496
f 401/41/497 413/23/498 429/57/499 417/22/500
f 410/42/501 414/25/502 430/58/503 426/24/504
f 415/43/505 406/27/506 422/59/507 431/26/508
f 416/44/509 404/29/510 420/60/511 432/28/512
f 413/45/513 415/31/514 431/61/515 429/30/516
f 411/46/517 402/32/518 418/62/519 427/33/520
f 414/47/521 416/35/522 432/63/523 430/34/524
f 412/48/525 409/36/526 425/64/527 428/37/528
s 18
f 505/523/529 506/522/530 419/526/531 424/527/532
s 19
f 506/522/533 507/525/534 420/528/535 419/526/536
s 20
f 507/679/537 508/680/538 432/681/539 420/682/540
s 21
f 508/680/541 509/685/542 430/686/543 432/681/544
s 22
f 509/685/545 510/690/546 426/691/547 430/686/548
s 23
f 510/735/549 511/727/550 425/730/551 426/736/552
s 24
f 511/727/553 512/728/554 428/729/555 425/730/556
s 25
f 512/728/557 505/733/558 424/734/559 428/729/560
s 18
f 418/515/561 417/516/562 434/512/563 433/511/564
s 19
f 417/516/565 429/519/566 435/517/567 434/512/568
s 20
f 429/720/569 431/721/570 436/717/571 435/716/572
s 21
f 431/721/573 422/724/574 437/722/575 436/717/576
s 22
f 422/724/577 421/726/578 438/725/579 437/722/580
s 23
f 421/774/581 423/769/582 439/765/583 438/772/584
s 24
f 423/769/585 427/770/586 440/766/587 439/765/588
s 25
f 427/770/589 418/773/590 433/771/591 440/766/592
s 18
f 433/511/564 434/512/563 442/513/593 441/514/594
s 19
f 434/512/568 435/517/567 443/518/595 442/513/596
s 20
f 435/716/572 436/717/571 444/713/597 443/712/598
s 21
f 436/717/576 437/722/575 445/718/599 444/713/600
s 22
f 437/722/580 438/725/579 446/723/601 445/718/602
s 23
f 438/772/584 439/765/583 447/761/603 446/768/604
s 24
f 439/765/588 440/766/587 448/762/605 447/761/606
s 25
f 440/766/592 433/771/591 441/767/607 448/762/608
s 18
f 441/353/594 442/354/593 450/350/609 449/349/610
s 19
f 442/354/596 443/359/595 451/355/611 450/350/612
s 20
f 443/712/598 444/713/597 452/709/613 451/708/614
s 21
f 444/713/600 445/718/599 453/714/615 452/709/616
s 22
f 445/718/602 446/723/601 454/719/617 453/714/618
s 23
f 446/768/604 447/761/603 455/757/619 454/764/620
s 24
f 447/761/606 448/762/605 456/758/621 455/757/622
s 25
f 448/762/608 441/767/607 449/763/623 456/758/624
s 18
f 449/349/610 450/350/609 458/351/625 457/352/626
s 19
f 450/350/612 451/355/611 459/356/627 458/351/628
s 20
f 451/708/614 452/709/613 460/705/629 459/704/630
s 21
f 452/709/616 453/714/615 461/710/631 460/705/632
s 22
f 453/714/618 454/719/617 462/715/633 461/710/634
s 23
f 454/764/620 455/757/619 463/753/635 462/760/636
s 24
f 455/757/622 456/758/621 464/754/637 463/753/638
s 25
f 456/758/624 449/763/623 457/759/639 464/754/640
s 18
f 457/352/626 458/351/625 466/357/641 465/358/642
s 19
f 458/351/628 459/356/627 467/360/643 466/357/644
s 20
f 459/704/630 460/705/629 468/701/645 467/700/646
s 21
f 460/705/632 461/710/631 469/706/647 468/701/648
s 22
f 461/710/634 462/715/633 470/711/649 469/706/650
s 23
f 462/760/636 463/753/635 471/749/651 470/756/652
s 24
f 463/753/638 464/754/637 472/750/653 471/749/654
s 25
f 464/754/640 457/759/639 465/755/655 472/750/656
s 18
f 465/358/642 466/357/641 474/361/657 473/362/658
s 19
f 466/357/644 467/360/643 475/363/659 474/361/660
s 20
f 467/700/646 468/701/645 476/697/661 475/696/662
s 21
f 468/701/648 469/706/647 477/702/663 476/697/664
s 22
f 469/706/650 470/711/649 478/707/665 477/702/666
s 23
f 470/756/652 471/749/651 479/745/667 478/752/668
s 24
f 471/749/654 472/750/653 480/746/669 479/745/670
s 25
f 472/750/656 465/755/655 473/751/671 480/746/672
s 18
f 473/362/658 474/361/657 482/364/673 481/365/674
s 19
f 474/361/660 475/363/659 483/366/675 482/364/676
s 20
f 475/696/662 476/697/661 484/693/677 483/692/678
s 21
f 476/697/664 477/702/663 485/698/679 484/693/680
s 22
f 477/702/666 478/707/665 486/703/681 485/698/682
s 23
f 478/752/668 479/745/667 487/741/683 486/748/684
s 24
f 479/745/670 480/746/669 488/742/685 487/741/686
s 25
f 480/746/672 473/751/671 481/747/687 488/742/688
s 18
f 481/365/674 482/364/673 490/367/689 489/368/690
s 19
f 482/364/676 483/366/675 491/369/691 490/367/692
s 20
f 483/692/678 484/693/677 492/688/693 491/687/694
s 21
f 484/693/680 485/698/679 493/694/695 492/688/696
s 22
f 485/698/682 486/703/681 494/699/697 493/694/698
s 23
f 486/748/684 487/741/683 495/737/699 494/744/700
s 24
f 487/741/686 488/742/685 496/738/701 495/737/702
s 25
f 488/742/688 481/747/687 489/743/703 496/738/704
s 18
f 489/368/690 490/367/689 498/370/705 497/371/706
s 19
f 490/367/692 491/369/691 499/372/707 498/370/708
s 20
f 491/687/694 492/688/693 500/684/709 499/683/710
s 21
f 492/688/696 493/694/695 501/689/711 500/684/712
s 22
f 493/694/698 494/699/697 502/695/713 501/689/714
s 23
f 494/744/700 495/737/699 503/731/715 502/740/716
s 24
f 495/737/702 496/738/701 504/732/717 503/731/718
s 25
f 496/738/704 489/743/703 497/739/719 504/732/720
s 18
f 497/520/706 498/521/705 506/522/530 505/523/529
s 19
f 498/521/708 499/524/707 507/525/534 506/522/533
s 20
f 499/683/710 500/684/709 508/680/538 507/679/537
s 21
f 500/684/712 501/689/711 509/685/542 508/680/541
s 22
f 501/689/714 502/695/713 510/690/546 509/685/545
s 23
f 502/740/716 503/731/715 511/727/550 510/735/549
s 24
f 503/731/718 504/732/717 512/728/554 511/727/553
s 25
f 504/732/720 497/739/719 505/733/558 512/728/557
