#File written by LIBUNFOLD3D. Compilation :Dec 22 2011,11:53:02
mtllib NotTrap.mtl
#begin vertices
v 0.018991000000000001 0.071298 -0.51744199999999996
v 0.007254 0.079824999999999993 -0.51744199999999996
v -0.007254 0.079824999999999993 -0.51744199999999996
v -0.018991000000000001 0.071298 -0.51744199999999996
v -0.023473999999999998 0.057500000000000002 -0.51744199999999996
v -0.018991000000000001 0.043701999999999998 -0.51744199999999996
v -0.007254 0.035173999999999997 -0.51744199999999996
v 0.007254 0.035173999999999997 -0.51744199999999996
v 0.018991000000000001 0.043701999999999998 -0.51744199999999996
v 0.023473999999999998 0.057500000000000002 -0.51744199999999996
v 0.018991000000000001 0.071298 0.51744199999999996
v 0.007254 0.079824999999999993 0.51744199999999996
v -0.007254 0.079824999999999993 0.51744199999999996
v -0.018991000000000001 0.071298 0.51744199999999996
v -0.023473999999999998 0.057500000000000002 0.51744199999999996
v -0.018991000000000001 0.043701999999999998 0.51744199999999996
v -0.007254 0.035173999999999997 0.51744199999999996
v 0.007254 0.035173999999999997 0.51744199999999996
v 0.018991000000000001 0.043701999999999998 0.51744199999999996
v 0.023473999999999998 0.057500000000000002 0.51744199999999996
v 0 0.057500000000000002 -0.51744199999999996
v 0 0.057500000000000002 0.51744199999999996
v 0.43470399999999998 0.031120999999999999 -0.31583099999999997
v 0.077673000000000006 0.031120999999999999 -0.51102499999999995
v -0.077673000000000006 0.031120999999999999 -0.51102499999999995
v -0.43470399999999998 0.031120999999999999 -0.31583099999999997
v -0.537323 0.031120999999999999 0
v -0.43470300000000001 0.031120999999999999 0.31583099999999997
v -0.077673000000000006 0.031120999999999999 0.51102400000000003
v 0.077673000000000006 0.031120999999999999 0.51102400000000003
v 0.43470300000000001 0.031120999999999999 0.31583099999999997
v 0.537323 0.031120999999999999 0
v 0.43470399999999998 0.058638000000000003 -0.31583099999999997
v 0.077673000000000006 0.058638000000000003 -0.51102499999999995
v -0.077673000000000006 0.058638000000000003 -0.51102499999999995
v -0.43470399999999998 0.058638000000000003 -0.31583099999999997
v -0.537323 0.058638000000000003 0
v -0.43470300000000001 0.058638000000000003 0.31583099999999997
v -0.077673000000000006 0.058638000000000003 0.51102400000000003
v 0.077673000000000006 0.058638000000000003 0.51102400000000003
v 0.43470300000000001 0.058638000000000003 0.31583099999999997
v 0.537323 0.058638000000000003 0
v 0.38967600000000002 0.034157 -0.28311599999999998
v 0.069627999999999995 0.034157 -0.45809100000000003
v -0.069627999999999995 0.034157 -0.45809100000000003
v -0.38967499999999999 0.034157 -0.28311599999999998
v -0.48166500000000001 0.034157 -0
v -0.38967499999999999 0.034157 0.28311599999999998
v -0.069627999999999995 0.034157 0.45809100000000003
v 0.069627999999999995 0.034157 0.45809100000000003
v 0.38967499999999999 0.034157 0.28311599999999998
v 0.48166500000000001 0.034157 -0
v 0.38894699999999999 0.055654000000000002 -0.282586
v 0.069497000000000003 0.055654000000000002 -0.45723399999999997
v -0.069497000000000003 0.055654000000000002 -0.45723399999999997
v -0.38894699999999999 0.055654000000000002 -0.282586
v -0.48076400000000002 0.055654000000000002 -0
v -0.38894699999999999 0.055654000000000002 0.282586
v -0.069497000000000003 0.055654000000000002 0.45723399999999997
v 0.069497000000000003 0.055654000000000002 0.45723399999999997
v 0.38894600000000001 0.055654000000000002 0.282586
v 0.48076400000000002 0.055654000000000002 -0
v 0.43567 0.034157 0.14155799999999999
v 0.48601299999999997 0.031120999999999999 0.157915
v 0.48601299999999997 0.20758699999999999 0.157915
v 0.43485499999999999 0.20460400000000001 0.141293
v 0.26925900000000003 0.034157 0.37060300000000002
v 0.300373 0.031120999999999999 0.41342800000000002
v 0.300373 0.20758699999999999 0.41342800000000002
v 0.26875500000000002 0.20460400000000001 0.36991000000000002
v -0 0.034157 0.45809100000000003
v -0 0.031120999999999999 0.51102400000000003
v -0 0.087808999999999998 0.51102400000000003
v -0 0.084825999999999999 0.45723399999999997
v -0.26925900000000003 0.034157 0.37060300000000002
v -0.300373 0.031120999999999999 0.41342800000000002
v -0.300373 0.20758699999999999 0.41342800000000002
v -0.26875500000000002 0.20460400000000001 0.36991000000000002
v -0.43567 0.034157 0.14155799999999999
v -0.48601299999999997 0.031120999999999999 0.157915
v -0.48601299999999997 0.20758699999999999 0.157915
v -0.43485499999999999 0.20460400000000001 0.141293
v -0.43567 0.034157 -0.14155799999999999
v -0.48601299999999997 0.031120999999999999 -0.157915
v -0.48601299999999997 0.20758699999999999 -0.157915
v -0.43485499999999999 0.20460400000000001 -0.141293
v -0.26925900000000003 0.034157 -0.37060300000000002
v -0.300373 0.031120999999999999 -0.41342800000000002
v -0.300373 0.20758699999999999 -0.41342800000000002
v -0.26875500000000002 0.20460400000000001 -0.36991000000000002
v 0.26925900000000003 0.034157 -0.37060399999999999
v 0.300373 0.031120999999999999 -0.41342800000000002
v 0.300373 0.20758699999999999 -0.41342800000000002
v 0.26875599999999999 0.20460400000000001 -0.36991000000000002
v 0.43567 0.034157 -0.14155799999999999
v 0.48601299999999997 0.031120999999999999 -0.157915
v 0.48601299999999997 0.20758699999999999 -0.157915
v 0.43485499999999999 0.20460400000000001 -0.141293
v 0 0.034157 -0.45809100000000003
v 0 0.031120999999999999 -0.51102499999999995
v 0 0.087808999999999998 -0.51102499999999995
v 0 0.084825999999999999 -0.45723399999999997
#end vertices

#begin 222 textures vertices 
vt 0.34691817227833116 0.60324686281183459 0
vt 0.35226512588367809 0.59991624034229385 0
vt 0.35761227213318547 0.59658549787452386 0
vt 0.36295922573853251 0.59325487540498312 0
vt 0.36830637235640157 0.58992413270775934 0
vt 0.867091598118648 0.95205061190379214 0
vt 0.8617421492286107 0.95537770840658309 0
vt 0.85639272434309099 0.95870478997973463 0
vt 0.85104327545305325 0.9620318864825268 0
vt 0.84569385019901466 0.9653589682848791 0
vt 0.58450654338496122 0.98466925730277677 0
vt 0.58985349699030953 0.98133863483323858 0
vt 0.59520064323981858 0.9780078923654707 0
vt 0.6005475968451669 0.97467726989593206 0
vt 0.60589474346303629 0.9713465271987084 0
vt 0.62976436578142514 0.57046567785176217 0
vt 0.62441491689138673 0.57379277435455256 0
vt 0.61906549200586536 0.57711985592770176 0
vt 0.61371604311582706 0.58044695243049216 0
vt 0.60836661786178736 0.5837740342328438 0
vt 0.90104895575957877 0.021694402426818079 0
vt 0.94028360167153857 0.021694402426818082 0
vt 0.51180038871138223 0.012000004256128131 0
vt 0.68947862034489149 0.012000005770787702 0
vt 0.045727193393275065 0.10039552276776094 0
vt 0.22340542502677052 0.10039552125385333 0
vt 0.36760310246552247 0.10039552002550872 0
vt 0.51180091408449568 0.10039551879731173 0
vt 0.68947862013526695 0.10039551728416513 0
vt 0.045727193602824755 0.012000000287121506 0
vt 0.22340489965360041 0.012000001799741686 0
vt 0.36760271127259553 0.012000003027652306 0
vt 0.51180038860955457 0.023948444262340787 0
vt 0.68947862024303341 0.023948445777002288 0
vt 0.045727193495083869 0.1123439627739756 0
vt 0.22340542512856504 0.11234396126006725 0
vt 0.3676031025672995 0.11234396003172319 0
vt 0.51180091418625939 0.11234395880352593 0
vt 0.68947862023702189 0.11234395729037978 0
vt 0.045727193501105802 0.023948440293336481 0
vt 0.22340489955186824 0.023948441805955682 0
vt 0.36760271117082616 0.023948443033865351 0
vt 0.24470478243050969 0.61721211560389877 0
vt 0.16849540506365404 0.75605991386292626 0
vt 0.56682268452859486 0.65458200850968906 0
vt 0.49061377838298981 0.51573438653337489 0
vt 0.36766005838733723 0.47584900118329032 0
vt 0.24470585011182419 0.51573288129334549 0
vt 0.16849524027296417 0.65457956815469032 0
vt 0.56682285494066609 0.75605881001201436 0
vt 0.49061271028806908 0.61721186781877502 0
vt 0.36765863563844903 0.57732757576855442 0
vt 0.54631517624041648 0.41378960661273673 0
vt 0.69100761423620327 0.55785893775937501 0
vt 0.6577570280929903 0.2051193333714931 0
vt 0.19056359246012419 0.480301118534182 0
vt 0.36844367379059162 0.43924221728035279 0
vt 0.54632247544173407 0.48030666211361478 0
vt 0.69100896645060872 0.62438191057316372 0
vt 0.045871463173049201 0.5578757013197494 0
vt 0.19055630945232588 0.41379920227424027 0
vt 0.36843467567039689 0.37273252167881221 0
vt 0.42913567296325822 0.59726972179367654 0
vt 0.29550401194706161 0.012000002413688511 0
vt 0.29550401129456783 0.088625121944768653 0
vt 0.27868989014504209 0.38977643357475772 0
vt 0.52867709700504018 0.66944381635039463 0
vt 0.1513063834081336 0.012000001185942563 0
vt 0.15130638275580519 0.088625120717021555 0
vt 0.11736301144134073 0.46845598910409098 0
vt 0.168420082775769 0.68481336581521823 0
vt 0.72320581352854185 0.10039551699694135 0
vt 0.72320581373816584 0.1250105973862391 0
vt 0.70291302362268437 0.65486797340178815 0
vt 0.20664128839944151 0.56796470229542506 0
vt 0.58389943032995839 0.10039551818330021 0
vt 0.58389943098251562 0.17702063771437934 0
vt 0.61951642244387217 0.53496299446491369 0
vt 0.30618295424958136 0.49579094123832623 0
vt 0.43970180179104162 0.1003955194114084 0
vt 0.43970180244369145 0.17702063894248787 0
vt 0.45818863334512544 0.45628521279942263 0
vt 0.42913691838515544 0.49579169385835581 0
vt 0.29550440314000509 0.10039552063967522 0
vt 0.29550440379273146 0.17702064017075472 0
vt 0.27869818313787659 0.45628241590629559 0
vt 0.52867769919350327 0.56796667459431482 0
vt 0.15130655748992344 0.10039552186816643 0
vt 0.15130655814280805 0.17702064139924586 0
vt 0.1173679990796829 0.53495524604098821 0
vt 0.20664025044268947 0.66944470875760731 0
vt 0.58389925624824479 0.012000004870743508 0
vt 0.58389925559503109 0.08862512440182288 0
vt 0.61951128731124683 0.4684426261486806 0
vt 0.30618170882584961 0.59727006247411996 0
vt 0.43970141059812889 0.012000003641872384 0
vt 0.43970140994533247 0.088625123172953291 0
vt 0.45818034031439148 0.3897718039206296 0
vt 0.16842051679100423 0.786293712191515 0
vt 0.7232058137381655 0.012000006058304888 0
vt 0.72320581352832691 0.036615086447602814 0
vt 0.70291290503586912 0.5883445188580243 0
vt 0.27343692921708634 0.43348887232330374 0
vt 0.63423124841299194 0.45026151560613575 0
vt 0.36844405701217692 0.414648994751523 0
vt 0.012000000000000011 0.64681729597349047 0
vt 0.55709461151518491 0.39168456772943555 0
vt 0.46344136149205456 0.36697820661663022 0
vt 0.46345059761987523 0.43349183319349383 0
vt 0.10264789270367104 0.51677392522915899 0
vt 0.71187502083108489 0.54670590166411526 0
vt 0.30614861127218812 0.34870069885294525 0
vt 0.025005244030821348 0.61321921596167384 0
vt 0.17978393147328753 0.45819618971991027 0
vt 0.63423707648873084 0.51678211707477384 0
vt 0.55710282560192048 0.45820245969025902 0
vt 0.012000000000000011 0.58032250577065547 0
vt 0.71187642223886471 0.61322987591756495 0
vt 0.10264215494227183 0.45027527563851044 0
vt 0.025003883201397528 0.54672389903665441 0
vt 0.27342769312940585 0.36698310769946385 0
vt 0.17977572612543807 0.39169472327094323 0
vt 0.36843404132960572 0.34813929915517722 0
vt 0.17884367422991454 0.3519744694179241 0
vt 0.24081236859583327 0.28485886662047721 0
vt 0.081887875528585938 0.29109282486057014 0
vt 0.56080305107112938 0.2660032618433541 0
vt 0.43349622032786622 0.26273088860505456 0
vt 0.49883246995933045 0.19888906349082638 0
vt 0.30614850582435754 0.2627308886065548 0
vt 0.36982236307525962 0.19723080185491881 0
vt 0.17884167507766083 0.26600326184465611 0
vt 0.24081225619119911 0.1988890634937569 0
vt 0.68717830092091214 0.30542740728265183 0
vt 0.081887698057369451 0.20511933337025076 0
vt 0.56080140985088522 0.35197450421629378 0
vt 0.65775678401463156 0.29109280066508603 0
vt 0.43349632577880692 0.34870071272535075 0
vt 0.49883271858665651 0.28485889855496155 0
vt 0.36982247566062654 0.28320061903965177 0
vt 0.24057207481748119 0.27551932284668984 0
vt 0.43444755808354452 0.18872451992828718 0
vt 0.17598946272150476 0.27801704138208594 0
vt 0.051234645911959704 0.28345728482150423 0
vt 0.081420997062404715 0.28176247691228457 0
vt 0.65822368970613254 0.19578897457469002 0
vt 0.3698223630752373 0.18788817282521314 0
vt 0.56365496225370681 0.19204574555211076 0
vt 0.4990728987149875 0.18954953789783255 0
vt 0.30519716806677533 0.1887245199298187 0
vt 0.24057182743573646 0.1895495379007448 0
vt 0.1759897638969937 0.1920457455533352 0
vt 0.081421036444470754 0.19578897457343555 0
vt 0.051234645911959704 0.19748308090005226 0
vt 0.6582236597411818 0.28176245257971333 0
vt 0.56365501821346153 0.27801705339032484 0
vt 0.49907301232017182 0.27551935478001705 0
vt 0.434447671595451 0.27469434415222754 0
vt 0.36982247667835749 0.27385799000993383 0
vt 0.30519728157903692 0.27469433007255606 0
vt 0.2304969865537505 0.59761730362678078 0
vt 0.43624070614960592 0.47389243091570404 0
vt 0.23049822847167503 0.49613794298202146 0
vt 0.18803420147971825 0.65588529298496945 0
vt 0.14539779610066297 0.78623668555644066 0
vt 0.14548133715887979 0.75250959562743969 0
vt 0.54728422771862462 0.55440732139305049 0
vt 0.58983676446931199 0.65103176829513387 0
vt 0.50482163949345271 0.49613918858179862 0
vt 0.36766020654226533 0.45164523967644377 0
vt 0.29907943458313868 0.47389159133057129 0
vt 0.18803492625275914 0.55440512078789461 0
vt 0.14548163749032861 0.65102904606236611 0
vt 0.14539779610066297 0.68475613524611623 0
vt 0.58983646961868597 0.75250836502347263 0
vt 0.54728350458104447 0.65588429718087815 0
vt 0.50482039757815889 0.59761697710815231 0
vt 0.43623926600028246 0.57537039568536485 0
vt 0.36765856857474521 0.55312381426134682 0
vt 0.29907799443177346 0.57537077573137108 0
vt 0.045872775017650233 0.62437201931563058 0
vt 0.68717887394277855 0.21945326481887345 0
vt 0.012000000000000011 0.10039552305514372 0
vt 0.012000000209740408 0.12501060344444148 0
vt 0.58992019118797345 0.68475885850715634 0
vt 0.012000000209549697 0.012000000000000011 0
vt 0.012000000000000011 0.036615080389297769 0
vt 0.56689747030443649 0.68481580709198531 0
vt 0.56689791114387522 0.78629260792417732 0
vt 0.58992019801059536 0.78623545448793275 0
vt 0.72488063959082616 0.58030383662235208 0
vt 0.033967824233795255 0.65485773319575658 0
vt 0.72488067958037794 0.64682833784333382 0
vt 0.033967745482563108 0.58836189670540107 0
vt 0.052466362831318031 0.30542744011705308 0
vt 0.68841008023859906 0.19748308090209432 0
vt 0.052465852207207113 0.21945326481686336 0
vt 0.68841001138926461 0.28345725162543994 0
vt 0.94343343573066829 0.031388370633335806 0
vt 0.94852987939650901 0.027685774131791546 0
vt 0.94852987939650901 0.015703030721844733 0
vt 0.9371337676124083 0.031388370633335785 0
vt 0.93203732394656758 0.027685774131791539 0
vt 0.93009071433985679 0.021694402426818166 0
vt 0.93203732394656758 0.015703030721844754 0
vt 0.9371337676124083 0.012000000000000023 0
vt 0.94343343573066829 0.012000000000000011 0
vt 0.95047648900322002 0.021694402426818159 0
vt 0.63511379103546539 0.5671385960494113 0
vt 0.57915939676709183 0.98799999999999999 0
vt 0.89280267803460811 0.02768577413179148 0
vt 0.89280267803460811 0.015703030721844629 0
vt 0.89789912170044905 0.031388370633335674 0
vt 0.90419878981870905 0.031388370633335577 0
vt 0.9092952334845501 0.02768577413179139 0
vt 0.91124184309126055 0.021694402426818079 0
vt 0.87244102337268725 0.94872353010143984 0
vt 0.90929523348454977 0.01570303072184483 0
vt 0.90419878981870905 0.012000000000000108 0
vt 0.89789912170044905 0.012000000000000011 0
vt 0.89085606842789711 0.021694402426817978 0
vt 0.34157102566046144 0.60657760550905759 0
#end 222 textures vertices 

#begin 262 normals 
vn 0.80901699999999999 0.587785 0
vn 0.80901699999999999 0.587785 0
vn 0.30901699999999999 0.95105700000000004 0
vn 0.30901699999999999 0.95105700000000004 0
vn -0.30901699999999999 0.95105600000000001 0
vn -0.30901699999999999 0.95105600000000001 0
vn -0.80901699999999999 0.587785 0
vn -0.80901699999999999 0.587785 0
vn -1 -0 0
vn -1 -0 0
vn -0.80901699999999999 -0.587785 0
vn -0.80901699999999999 -0.587785 0
vn -0.30901699999999999 -0.95105700000000004 0
vn -0.30901699999999999 -0.95105700000000004 0
vn 0.30901699999999999 -0.95105700000000004 0
vn 0.30901699999999999 -0.95105700000000004 0
vn 0.80901699999999999 -0.587785 0
vn 0.80901699999999999 -0.587785 0
vn 1 -0 0
vn 1 -0 0
vn 0 0 -1
vn 0 0 -1
vn 0 0 -1
vn 0 0 -1
vn 0 0 -1
vn 0 0 -1
vn 0 0 -1
vn 0 0 -1
vn 9.9999999999999995e-007 0 -1
vn 9.9999999999999995e-007 0 -1
vn 0 0 -1
vn 0 0 1
vn 0 0 1
vn 0 0 1
vn 0 0 1
vn 0 0 1
vn 0 0 1
vn 0 0 1
vn 0 0 1
vn 9.9999999999999995e-007 0 1
vn 9.9999999999999995e-007 0 1
vn 0 0 1
vn 0.80901699999999999 0 -0.587785
vn 0.80901699999999999 0 -0.587785
vn 0.47970499999999999 0 -0.87743000000000004
vn 0.47092499999999998 0 -0.88217299999999998
vn 0.36129499999999998 0 -0.93245199999999995
vn 0.35773700000000003 0 -0.93382200000000004
vn 0 0 -1
vn 0 0 -1
vn -0.361294 0 -0.93245199999999995
vn -0.35773700000000003 0 -0.93382200000000004
vn -0.47970499999999999 0 -0.87743000000000004
vn -0.47092499999999998 0 -0.88217299999999998
vn -0.80901699999999999 0 -0.587785
vn -0.80901699999999999 0 -0.587785
vn -0.95105700000000004 0 -0.30901699999999999
vn -0.95105700000000004 0 -0.30901699999999999
vn -1 0 0
vn -1 0 0
vn -0.95105700000000004 0 0.30901699999999999
vn -0.95105700000000004 0 0.30901699999999999
vn -0.80901699999999999 0 0.587785
vn -0.80901699999999999 0 0.587785
vn -0.47970400000000002 0 0.87743000000000004
vn -0.47092499999999998 0 0.88217400000000001
vn -0.361294 0 0.93245199999999995
vn -0.35773700000000003 0 0.93382200000000004
vn 0 0 1
vn 0 0 1
vn 0.361294 0 0.93245199999999995
vn 0.35773700000000003 0 0.93382200000000004
vn 0.47970499999999999 0 0.87743000000000004
vn 0.47092499999999998 0 0.88217299999999998
vn 0.80901699999999999 0 0.587785
vn 0.80901699999999999 0 0.587785
vn 0.95105700000000004 0 0.30901699999999999
vn 0.95105700000000004 0 0.30901699999999999
vn 1 0 0
vn 1 0 0
vn 0.95105700000000004 0 -0.30901600000000001
vn 0.95105700000000004 0 -0.30901600000000001
vn -0.027383999999999999 -0.99832900000000002 0.050881000000000003
vn -0.028059000000000001 -0.99833499999999997 0.050390999999999998
vn -0.033656999999999999 -0.998359 0.046324999999999998
vn -0.033656999999999999 -0.998359 0.046324999999999998
vn 0 -0.998359 0.057260999999999999
vn 0 -0.998359 0.057260999999999999
vn 0 -0.998359 0.057260999999999999
vn 0 -0.998359 0.057260999999999999
vn 0.027383999999999999 -0.99832900000000002 0.050881000000000003
vn 0.028059000000000001 -0.99833499999999997 0.050390999999999998
vn 0.023525000000000001 -0.99828099999999997 0.053681
vn 0.023525000000000001 -0.99828099999999997 0.053681
vn 0.054459 -0.998359 0.017694999999999999
vn 0.054459 -0.998359 0.017694999999999999
vn 0.054459 -0.998359 0.017694999999999999
vn 0.054459 -0.998359 0.017694999999999999
vn 0.054459 -0.998359 -0.017694999999999999
vn 0.054459 -0.998359 -0.017694999999999999
vn 0.054459 -0.998359 -0.017694999999999999
vn 0.054459 -0.998359 -0.017694999999999999
vn 0.027383999999999999 -0.99832900000000002 -0.050881000000000003
vn 0.028059000000000001 -0.99833499999999997 -0.050390999999999998
vn 0.033656999999999999 -0.998359 -0.046324999999999998
vn 0.033656999999999999 -0.998359 -0.046324999999999998
vn 0 -0.998359 -0.057260999999999999
vn 0 -0.998359 -0.057260999999999999
vn 0 -0.998359 -0.057260999999999999
vn 0 -0.998359 -0.057260999999999999
vn -0.027383999999999999 -0.99832900000000002 -0.050881000000000003
vn -0.028059000000000001 -0.99833499999999997 -0.050390999999999998
vn -0.023525000000000001 -0.99828099999999997 -0.053681
vn -0.023525000000000001 -0.99828099999999997 -0.053681
vn -0.054457999999999999 -0.998359 -0.017694999999999999
vn -0.054457999999999999 -0.998359 -0.017694999999999999
vn -0.054457999999999999 -0.998359 -0.017694999999999999
vn -0.054457999999999999 -0.998359 -0.017694999999999999
vn -0.054459 -0.998359 0.017694999999999999
vn -0.054459 -0.998359 0.017694999999999999
vn -0.054459 -0.998359 0.017694999999999999
vn -0.054459 -0.998359 0.017694999999999999
vn 0.46161999999999997 0.71788200000000002 0.52110699999999999
vn -0.062171999999999998 0.97627900000000001 0.207399
vn -0.128801 0.97873900000000003 0.15962599999999999
vn 0.46161999999999997 0.71788200000000002 0.52110699999999999
vn 0.36736600000000003 0.92668799999999996 0.079318
vn 0 0.99635700000000005 0.085280999999999996
vn -0 0.99635700000000005 0.085280999999999996
vn 0.36736600000000003 0.92668799999999996 0.079318
vn 0.52090999999999998 0.838171 -0.16162399999999999
vn 0.062171999999999998 0.97627900000000001 0.207399
vn 0.1288 0.97873900000000003 0.15962599999999999
vn 0.52090999999999998 0.838171 -0.16162399999999999
vn 0.35295399999999999 0.71788099999999999 -0.60005799999999998
vn 0.19483200000000001 0.978792 0.063305
vn 0.19483200000000001 0.978792 0.063305
vn 0.35295399999999999 0.71788099999999999 -0.60005799999999998
vn -0.067159999999999997 0.71788200000000002 -0.69291800000000003
vn 0.19483200000000001 0.978792 -0.063305
vn 0.19483200000000001 0.978792 -0.063305
vn -0.067159999999999997 0.71788200000000002 -0.69291800000000003
vn -0.461621 0.71788099999999999 -0.52110699999999999
vn 0.062170999999999997 0.97627900000000001 -0.207399
vn 0.1288 0.97873900000000003 -0.15962699999999999
vn -0.461621 0.71788099999999999 -0.52110699999999999
vn -0.36736600000000003 0.92668799999999996 -0.079316999999999999
vn -0 0.99635700000000005 -0.085280999999999996
vn -0 0.99635700000000005 -0.085280999999999996
vn -0.36736600000000003 0.92668799999999996 -0.079316999999999999
vn -0.52091100000000001 0.83816999999999997 0.16162499999999999
vn -0.062170999999999997 0.97627900000000001 -0.207399
vn -0.1288 0.97873900000000003 -0.15962599999999999
vn -0.52091100000000001 0.83816999999999997 0.16162499999999999
vn -0.35295399999999999 0.71788200000000002 0.60005799999999998
vn -0.19483200000000001 0.978792 -0.063303999999999999
vn -0.19483200000000001 0.978792 -0.063305
vn -0.35295399999999999 0.71788200000000002 0.60005799999999998
vn 0.067158999999999996 0.71788200000000002 0.69291800000000003
vn -0.19483200000000001 0.978792 0.063303999999999999
vn -0.19483200000000001 0.978792 0.063305
vn 0.067158999999999996 0.71788200000000002 0.69291800000000003
vn -0.59137600000000001 -0.0089350000000000002 0.80634700000000004
vn -0.46976099999999998 -0.008848 0.88274900000000001
vn -0.47971799999999998 -0.0088620000000000001 0.87737799999999999
vn -0.59137600000000001 -0.0089350000000000002 0.80634700000000004
vn -0.0049800000000000001 -0.02375 0.99970599999999998
vn 0 -0.02375 0.999718
vn 0 -0.02375 0.999718
vn -0.0049800000000000001 -0.02375 0.99970599999999998
vn 0.39864300000000003 -0.0087229999999999999 0.91706500000000002
vn 0.46976099999999998 -0.008848 0.88274900000000001
vn 0.47971799999999998 -0.0088620000000000001 0.87737799999999999
vn 0.39864300000000003 -0.0087229999999999999 0.91706500000000002
vn 0.94962599999999997 -0.0089350000000000002 0.31325700000000001
vn 0.95101899999999995 -0.0089350000000000002 0.309004
vn 0.95101899999999995 -0.0089350000000000002 0.309004
vn 0.94962599999999997 -0.0089350000000000002 0.31325700000000001
vn 0.95239200000000002 -0.0089350000000000002 -0.30474600000000002
vn 0.95101899999999995 -0.0089350000000000002 -0.30900499999999997
vn 0.95101899999999995 -0.0089350000000000002 -0.309004
vn 0.95239200000000002 -0.0089350000000000002 -0.30474600000000002
vn 0.59137600000000001 -0.0089350000000000002 -0.80634600000000001
vn 0.46976099999999998 -0.008848 -0.88274900000000001
vn 0.47971799999999998 -0.0088620000000000001 -0.87737799999999999
vn 0.59137600000000001 -0.0089350000000000002 -0.80634700000000004
vn 0.0049789999999999999 -0.023751000000000001 -0.99970599999999998
vn 0 -0.023751000000000001 -0.999718
vn 0 -0.023751000000000001 -0.999718
vn 0.0049789999999999999 -0.023751000000000001 -0.99970599999999998
vn -0.398642 -0.0087229999999999999 -0.91706500000000002
vn -0.46976200000000001 -0.008848 -0.88274900000000001
vn -0.47971799999999998 -0.0088620000000000001 -0.87737799999999999
vn -0.398642 -0.0087229999999999999 -0.91706500000000002
vn -0.94962599999999997 -0.0089350000000000002 -0.31325700000000001
vn -0.95101899999999995 -0.0089350000000000002 -0.30900499999999997
vn -0.95101899999999995 -0.0089350000000000002 -0.30900499999999997
vn -0.94962599999999997 -0.0089350000000000002 -0.31325700000000001
vn -0.95239200000000002 -0.0089350000000000002 0.30474499999999999
vn -0.95101899999999995 -0.0089350000000000002 0.309004
vn -0.95101899999999995 -0.0089350000000000002 0.309004
vn -0.95239200000000002 -0.0089350000000000002 0.30474499999999999
vn -0.054459 -0.998359 -0.017694999999999999
vn -0.054459 -0.998359 -0.017694999999999999
vn 0.067159999999999997 0.71788099999999999 -0.69291800000000003
vn 0.067159999999999997 0.71788099999999999 -0.69291800000000003
vn -0.95239200000000002 -0.0089339999999999992 -0.30474600000000002
vn -0.95239200000000002 -0.0089339999999999992 -0.30474600000000002
vn -0.033656999999999999 -0.998359 -0.046324999999999998
vn -0.033656999999999999 -0.998359 -0.046324999999999998
vn 0.46161999999999997 0.71788200000000002 -0.52110699999999999
vn 0.46161999999999997 0.71788200000000002 -0.52110699999999999
vn -0.59137600000000001 -0.0089350000000000002 -0.80634600000000001
vn -0.59137600000000001 -0.0089350000000000002 -0.80634600000000001
vn 0 -0.998359 -0.057260999999999999
vn 0 -0.998359 -0.057260999999999999
vn 0.36736600000000003 0.92668799999999996 -0.079318
vn 0.36736600000000003 0.92668799999999996 -0.079318
vn -0.0049789999999999999 -0.023751000000000001 -0.99970599999999998
vn -0.0049789999999999999 -0.023751000000000001 -0.99970599999999998
vn 0.023525000000000001 -0.99828099999999997 -0.053681
vn 0.023525000000000001 -0.99828099999999997 -0.053681
vn 0.52091100000000001 0.83816999999999997 0.16162399999999999
vn 0.52091100000000001 0.83816999999999997 0.16162399999999999
vn 0.398642 -0.0087229999999999999 -0.91706500000000002
vn 0.398642 -0.0087229999999999999 -0.91706500000000002
vn 0.054459 -0.998359 -0.017694999999999999
vn 0.054459 -0.998359 -0.017694999999999999
vn 0.35295399999999999 0.71788200000000002 0.60005799999999998
vn 0.35295399999999999 0.71788200000000002 0.60005799999999998
vn 0.94962599999999997 -0.0089350000000000002 -0.31325700000000001
vn 0.94962599999999997 -0.0089350000000000002 -0.31325700000000001
vn 0.054459 -0.998359 0.017694999999999999
vn 0.054459 -0.998359 0.017694999999999999
vn -0.067158999999999996 0.71788200000000002 0.69291800000000003
vn -0.067158999999999996 0.71788200000000002 0.69291800000000003
vn 0.95239200000000002 -0.0089350000000000002 0.30474600000000002
vn 0.95239200000000002 -0.0089350000000000002 0.30474600000000002
vn 0.033656999999999999 -0.998359 0.046324999999999998
vn 0.033656999999999999 -0.998359 0.046324999999999998
vn -0.46161999999999997 0.71788200000000002 0.52110699999999999
vn -0.46161999999999997 0.71788200000000002 0.52110699999999999
vn 0.59137600000000001 -0.0089350000000000002 0.80634700000000004
vn 0.59137600000000001 -0.0089350000000000002 0.80634700000000004
vn -0.023525000000000001 -0.99828099999999997 0.053681
vn -0.023525000000000001 -0.99828099999999997 0.053681
vn -0.52091100000000001 0.838171 -0.16162499999999999
vn -0.52091100000000001 0.838171 -0.16162499999999999
vn -0.398642 -0.0087229999999999999 0.91706500000000002
vn -0.398642 -0.0087229999999999999 0.91706500000000002
vn -0.054459 -0.998359 0.017694999999999999
vn -0.054459 -0.998359 0.017694999999999999
vn -0.35295399999999999 0.71788099999999999 -0.60005799999999998
vn -0.35295399999999999 0.71788099999999999 -0.60005799999999998
vn -0.949627 -0.0089350000000000002 0.31325599999999998
vn -0.949627 -0.0089350000000000002 0.31325599999999998
vn 0 -0.998359 0.057260999999999999
vn 0 -0.998359 0.057260999999999999
vn -0.36736600000000003 0.92668799999999996 0.079318
vn -0.36736600000000003 0.92668799999999996 0.079318
vn 0.0049800000000000001 -0.02375 0.99970599999999998
vn 0.0049800000000000001 -0.02375 0.99970599999999998
#end 262 normals 

#begin 110 faces
usemtl initialShadingGroup
g pCylinder6
s 1
f 11/11/1 1/1/2 2/2/3 12/12/4 
f 12/12/4 2/2/3 3/3/5 13/13/6 
f 13/13/6 3/3/5 4/4/7 14/14/8 
f 14/14/8 4/4/7 5/5/9 15/15/10 
f 15/209/10 5/217/9 6/6/11 16/16/12 
f 16/16/12 6/6/11 7/7/13 17/17/14 
f 17/17/14 7/7/13 8/8/15 18/18/16 
f 18/18/16 8/8/15 9/9/17 19/19/18 
f 19/19/18 9/9/17 10/10/19 20/20/20 
f 20/210/20 10/222/19 1/1/2 11/11/1 
s 2
f 2/213/21 1/211/22 21/21/23 
f 3/214/24 2/213/21 21/21/23 
f 4/215/25 3/214/24 21/21/23 
f 5/216/26 4/215/25 21/21/23 
f 6/218/27 5/216/26 21/21/23 
f 7/219/28 6/218/27 21/21/23 
f 8/220/29 7/219/28 21/21/23 
f 9/212/30 8/220/29 21/21/23 
f 10/221/31 9/212/30 21/21/23 
f 1/211/22 10/221/31 21/21/23 
s 3
f 22/22/32 11/200/33 12/199/34 
f 22/22/32 12/199/34 13/202/35 
f 22/22/32 13/202/35 14/203/36 
f 22/22/32 14/203/36 15/204/37 
f 22/22/32 15/204/37 16/205/38 
f 22/22/32 16/205/38 17/206/39 
f 22/22/32 17/206/39 18/207/40 
f 22/22/32 18/207/40 19/201/41 
f 22/22/32 19/201/41 20/208/42 
f 22/22/32 20/208/42 11/200/33 
s 4
f 33/33/43 23/23/44 92/92/45 93/93/46 
f 34/34/47 24/24/48 100/100/49 101/101/50 
f 35/35/51 25/25/52 88/88/53 89/89/54 
f 36/36/55 26/26/56 84/84/57 85/85/58 
f 37/37/59 27/27/60 80/80/61 81/81/62 
f 38/38/63 28/28/64 76/76/65 77/77/66 
f 39/39/67 29/29/68 72/72/69 73/73/70 
f 40/40/71 30/30/72 68/68/73 69/69/74 
f 41/41/75 31/31/76 64/64/77 65/65/78 
f 42/42/79 32/32/80 96/96/81 97/97/82 
s 5
f 91/91/83 92/164/84 23/161/85 43/43/86 
s 6
f 99/99/87 100/165/88 24/166/89 44/44/90 
s 7
f 87/87/91 88/167/92 25/168/93 45/45/94 
s 8
f 83/83/95 84/162/96 26/169/97 46/46/98 
s 9
f 79/79/99 80/171/100 27/170/101 47/47/102 
s 10
f 75/75/103 76/172/104 28/163/105 48/48/106 
s 11
f 71/71/107 72/174/108 29/173/109 49/49/110 
s 12
f 67/67/111 68/176/112 30/175/113 50/50/114 
s 13
f 63/63/115 64/178/116 31/177/117 51/51/118 
s 14
f 95/95/119 96/180/120 32/179/121 52/52/122 
s 15
f 33/107/123 93/104/124 94/94/125 53/53/126 
s 16
f 34/111/127 101/191/128 102/102/129 54/54/130 
s 17
f 35/113/131 89/110/132 90/90/133 55/181/134 
s 18
f 36/114/135 85/103/136 86/86/137 56/56/138 
s 19
f 37/105/139 81/109/140 82/82/141 57/57/142 
s 20
f 38/116/143 77/115/144 78/78/145 58/58/146 
s 21
f 39/118/147 73/193/148 74/74/149 59/59/150 
s 22
f 40/120/151 69/119/152 70/70/153 60/60/154 
s 23
f 41/122/155 65/121/156 66/66/157 61/61/158 
s 24
f 42/123/159 97/108/160 98/98/161 62/62/162 
s 25
f 53/125/163 94/124/164 91/143/165 43/141/166 
s 26
f 54/126/167 102/195/168 99/144/169 44/145/170 
s 27
f 55/55/171 90/127/172 87/148/173 45/146/174 
s 28
f 56/129/175 86/128/176 83/142/177 46/149/178 
s 29
f 57/131/179 82/130/180 79/150/181 47/147/182 
s 30
f 58/133/183 78/132/184 75/152/185 48/151/186 
s 31
f 59/135/187 74/197/188 71/154/189 49/153/190 
s 32
f 60/137/191 70/136/192 67/156/193 50/155/194 
s 33
f 61/139/195 66/138/196 63/158/197 51/157/198 
s 34
f 62/140/199 98/112/200 95/160/201 52/159/202 
s 13
f 32/179/203 64/178/116 63/63/115 52/52/204 
s 4
f 65/65/78 64/64/77 32/32/80 42/42/79 
s 23
f 66/66/157 65/121/156 42/123/205 62/62/206 
s 33
f 63/158/197 66/138/196 62/140/207 52/159/208 
s 12
f 31/177/209 68/176/112 67/67/111 51/51/210 
s 4
f 69/69/74 68/68/73 31/31/76 41/41/75 
s 22
f 70/70/153 69/119/152 41/122/211 61/61/212 
s 32
f 67/156/193 70/136/192 61/139/213 51/157/214 
s 11
f 30/175/215 72/190/108 71/189/107 50/50/216 
s 4
f 73/187/70 72/186/69 30/30/72 40/40/71 
s 21
f 74/194/149 73/117/148 40/120/217 60/60/218 
s 31
f 71/198/189 74/134/188 60/137/219 50/155/220 
s 10
f 29/173/221 76/172/104 75/75/103 49/49/222 
s 4
f 77/77/66 76/76/65 29/29/68 39/39/67 
s 20
f 78/78/145 77/115/144 39/118/223 59/59/224 
s 30
f 75/152/185 78/132/184 59/135/225 49/153/226 
s 9
f 28/163/227 80/171/100 79/79/99 48/48/228 
s 4
f 81/81/62 80/80/61 28/28/64 38/38/63 
s 19
f 82/82/141 81/109/140 38/116/229 58/58/230 
s 29
f 79/150/181 82/130/180 58/133/231 48/151/232 
s 8
f 27/170/233 84/162/96 83/83/95 47/47/234 
s 4
f 85/85/58 84/84/57 27/27/60 37/37/59 
s 18
f 86/86/137 85/103/136 37/105/235 57/57/236 
s 28
f 83/142/177 86/128/176 57/131/237 47/147/238 
s 7
f 26/169/239 88/167/92 87/87/91 46/46/240 
s 4
f 89/89/54 88/88/53 26/26/56 36/36/55 
s 17
f 90/90/133 89/110/132 36/114/241 56/56/242 
s 27
f 87/148/173 90/127/172 56/129/243 46/149/244 
s 5
f 24/166/245 92/164/84 91/91/83 44/44/246 
s 4
f 93/93/46 92/92/45 24/24/48 34/34/47 
s 15
f 94/94/125 93/104/124 34/111/247 54/54/248 
s 25
f 91/143/165 94/124/164 54/126/249 44/145/250 
s 14
f 23/161/251 96/180/120 95/95/119 43/43/252 
s 4
f 97/97/82 96/96/81 23/23/44 33/33/43 
s 24
f 98/98/161 97/108/160 33/107/253 53/53/254 
s 34
f 95/160/201 98/112/200 53/125/255 43/141/256 
s 6
f 25/168/257 100/185/88 99/188/87 45/45/258 
s 4
f 101/184/50 100/183/49 25/25/52 35/35/51 
s 16
f 102/192/129 101/106/128 35/113/259 55/181/260 
s 26
f 99/196/169 102/182/168 55/55/261 45/146/262 
#end 110 faces
#begin 1 properties
#U3D SYM 0 0 0 1 0 0 0.0001 0
#end 1 properties
