# This file uses centimeters as units for non-parametric coordinates.

mtllib Pan.mtl
g default
v 2.177849 0.201251 -3.009953
v 2.045447 0.201251 -3.269808
v 1.839224 0.201251 -3.476031
v 1.579369 0.201251 -3.608433
v 1.291317 0.201251 -3.654056
v 1.003265 0.201251 -3.608433
v 0.743410 0.201251 -3.476031
v 0.537188 0.201251 -3.269808
v 0.404785 0.201251 -3.009953
v 0.359162 0.201251 -2.721901
v 0.404785 0.201251 -2.433850
v 0.537188 0.201251 -2.173994
v 0.743410 0.201251 -1.967772
v 1.003265 0.201251 -1.835369
v 1.291317 0.201251 -1.789746
v 1.579369 0.201251 -1.835369
v 1.839224 0.201251 -1.967772
v 2.045446 0.201251 -2.173994
v 2.177849 0.201251 -2.433850
v 2.223472 0.201251 -2.721901
v 2.177849 0.384365 -3.009953
v 2.045447 0.384365 -3.269808
v 1.839224 0.384365 -3.476031
v 1.579369 0.384365 -3.608433
v 1.291317 0.384365 -3.654056
v 1.003265 0.384365 -3.608433
v 0.743410 0.384365 -3.476031
v 0.537188 0.384365 -3.269808
v 0.404785 0.384365 -3.009953
v 0.359162 0.384365 -2.721901
v 0.404785 0.384365 -2.433850
v 0.537188 0.384365 -2.173994
v 0.743410 0.384365 -1.967772
v 1.003265 0.384365 -1.835369
v 1.291317 0.384365 -1.789746
v 1.579369 0.384365 -1.835369
v 1.839224 0.384365 -1.967772
v 2.045446 0.384365 -2.173994
v 2.177849 0.384365 -2.433850
v 2.223472 0.384365 -2.721901
v 2.058870 0.244142 -2.971294
v 1.944236 0.244142 -3.196274
v 1.291317 0.244142 -2.721901
v 1.765690 0.244142 -3.374820
v 1.540710 0.244142 -3.489453
v 1.291317 0.244142 -3.528953
v 1.041924 0.244142 -3.489453
v 0.816944 0.244142 -3.374820
v 0.638398 0.244142 -3.196274
v 0.523765 0.244142 -2.971294
v 0.484265 0.244142 -2.721901
v 0.523765 0.244142 -2.472508
v 0.638398 0.244142 -2.247528
v 0.816944 0.244142 -2.068983
v 1.041924 0.244142 -1.954349
v 1.291317 0.244142 -1.914849
v 1.540710 0.244142 -1.954349
v 1.765690 0.244142 -2.068983
v 1.944236 0.244142 -2.247528
v 2.058869 0.244142 -2.472508
v 2.098369 0.244142 -2.721901
v 2.200660 0.201251 -2.577875
v 2.200660 0.384365 -2.577875
v 2.200661 0.201251 -2.865927
v 2.200661 0.384365 -2.865927
v 2.078619 0.244142 -2.846598
v 2.219393 0.233996 -2.721901
v 2.204740 0.233996 -2.814416
v 2.204740 0.351620 -2.814416
v 2.219393 0.351620 -2.721901
v 2.204739 0.233996 -2.629386
v 2.204739 0.351620 -2.629386
v 3.584229 0.233996 -2.721901
v 3.528986 0.233996 -2.814416
v 3.528986 0.351620 -2.814416
v 3.584229 0.351620 -2.721901
v 3.528985 0.233996 -2.629386
v 3.528985 0.351620 -2.629386
v 2.027997 0.125958 -2.961263
v 1.917974 0.125958 -3.177194
v 1.291317 0.125958 -2.721901
v 1.746610 0.125958 -3.348558
v 1.530679 0.125958 -3.458581
v 1.291317 0.125958 -3.496492
v 1.051955 0.125958 -3.458581
v 0.836024 0.125958 -3.348558
v 0.664660 0.125958 -3.177194
v 0.554638 0.125958 -2.961263
v 0.516727 0.125958 -2.721901
v 0.554638 0.125958 -2.482540
v 0.664660 0.125958 -2.266608
v 0.836024 0.125958 -2.095244
v 1.051955 0.125958 -1.985222
v 1.291317 0.125958 -1.947311
v 1.530679 0.125958 -1.985222
v 1.746610 0.125958 -2.095244
v 1.917974 0.125958 -2.266608
v 2.027996 0.125958 -2.482540
v 2.046952 0.125958 -2.602220
v 2.065907 0.125958 -2.721901
v 2.046952 0.125958 -2.841582
vt 0.168916 0.124598
vt 0.210537 0.124598
vt 0.210537 0.423201
vt 0.168916 0.423201
vt 0.161118 0.001818
vt 0.195703 0.001818
vt 0.243567 0.124598
vt 0.243567 0.423201
vt 0.145848 0.423201
vt 0.145848 0.124598
vt 0.141949 0.001818
vt 0.223150 0.001818
vt 0.137597 0.369803
vt 0.137597 0.177996
vt 0.122780 0.124598
vt 0.122780 0.001818
vt 0.122780 0.423201
vt 0.122780 0.369803
vt 0.122780 0.177996
vt 0.099711 0.124598
vt 0.103610 0.001818
vt 0.099711 0.423201
vt 0.107961 0.369803
vt 0.107961 0.177996
vt 0.076643 0.124598
vt 0.084441 0.001818
vt 0.076643 0.423201
vt 0.035022 0.124598
vt 0.049856 0.001818
vt 0.035022 0.423201
vt 0.001992 0.124598
vt 0.022409 0.001818
vt 0.001992 0.423201
vt 0.465936 0.124598
vt 0.507556 0.124598
vt 0.507556 0.423201
vt 0.465936 0.423201
vt 0.480769 0.001818
vt 0.515355 0.001818
vt 0.553693 0.124598
vt 0.553693 0.423201
vt 0.432905 0.124598
vt 0.432905 0.423201
vt 0.453322 0.001818
vt 0.553693 0.001818
vt 0.599829 0.124598
vt 0.599829 0.423201
vt 0.592031 0.001818
vt 0.641450 0.124598
vt 0.641450 0.423201
vt 0.626616 0.001818
vt 0.674480 0.124598
vt 0.674480 0.423201
vt 0.654063 0.001818
vt 0.479080 0.594116
vt 0.479080 0.635737
vt 0.250419 0.623959
vt 0.250419 0.587924
vt 0.479080 0.668767
vt 0.250419 0.652556
vt 0.250419 0.567952
vt 0.479080 0.571048
vt 0.479080 0.547980
vt 0.250419 0.547980
vt 0.479080 0.501843
vt 0.479080 0.524911
vt 0.250419 0.508035
vt 0.479080 0.460222
vt 0.250419 0.472000
vt 0.479080 0.427192
vt 0.250419 0.443403
vt 0.244284 0.460223
vt 0.244284 0.501843
vt 0.015622 0.508035
vt 0.015622 0.472000
vt 0.244284 0.547980
vt 0.015622 0.547980
vt 0.244284 0.427192
vt 0.015622 0.443403
vt 0.244284 0.594116
vt 0.015622 0.587925
vt 0.244284 0.635737
vt 0.015622 0.623959
vt 0.244284 0.668767
vt 0.015622 0.652556
vt 0.709651 0.478334
vt 0.727273 0.512919
vt 0.609280 0.551257
vt 0.730309 0.532088
vt 0.733345 0.551257
vt 0.682204 0.450886
vt 0.730309 0.570426
vt 0.727273 0.589595
vt 0.647618 0.433264
vt 0.709651 0.624180
vt 0.609280 0.427192
vt 0.682203 0.651627
vt 0.570942 0.433264
vt 0.647618 0.669250
vt 0.536357 0.450886
vt 0.609280 0.675322
vt 0.508910 0.478334
vt 0.570942 0.669250
vt 0.491287 0.512919
vt 0.536357 0.651627
vt 0.485215 0.551257
vt 0.508910 0.624180
vt 0.491287 0.589595
vt 0.991681 0.596401
vt 0.973321 0.632436
vt 0.868744 0.556456
vt 0.944723 0.661033
vt 0.998008 0.556456
vt 0.994845 0.576429
vt 0.908689 0.679394
vt 0.991681 0.516511
vt 0.868744 0.685720
vt 0.973321 0.480477
vt 0.828799 0.679394
vt 0.944723 0.451880
vt 0.792765 0.661033
vt 0.908689 0.433519
vt 0.764167 0.632436
vt 0.868744 0.427192
vt 0.745807 0.596401
vt 0.828799 0.433519
vt 0.739480 0.556456
vt 0.792765 0.451880
vt 0.745807 0.516511
vt 0.764167 0.480477
vt 0.780994 0.908315
vt 0.766176 0.910662
vt 0.766176 0.698560
vt 0.780994 0.689712
vt 0.795812 0.910662
vt 0.795812 0.698560
vt 0.832842 0.910662
vt 0.818024 0.908315
vt 0.818024 0.689712
vt 0.832842 0.698560
vt 0.803206 0.910662
vt 0.803206 0.698560
vt 0.425218 0.300421
vt 0.383598 0.300421
vt 0.383598 0.001818
vt 0.425218 0.001818
vt 0.410385 0.423201
vt 0.375799 0.423201
vt 0.337461 0.300421
vt 0.337461 0.001818
vt 0.337461 0.423201
vt 0.291324 0.300421
vt 0.291324 0.001818
vt 0.299123 0.423201
vt 0.249704 0.300421
vt 0.249704 0.001818
vt 0.264538 0.423201
vt 0.682371 0.124598
vt 0.723992 0.124598
vt 0.723992 0.423201
vt 0.682371 0.423201
vt 0.697205 0.001818
vt 0.731790 0.001818
vt 0.770128 0.124598
vt 0.770128 0.423201
vt 0.770128 0.001818
vt 0.816265 0.124598
vt 0.816265 0.423201
vt 0.808467 0.001818
vt 0.857886 0.124598
vt 0.857886 0.423201
vt 0.843052 0.001818
vt 0.177506 0.901420
vt 0.135886 0.901420
vt 0.129694 0.672759
vt 0.165729 0.672759
vt 0.089749 0.901420
vt 0.089749 0.672759
vt 0.043613 0.901420
vt 0.049804 0.672759
vt 0.001992 0.901420
vt 0.013770 0.672759
vt 0.185388 0.672759
vt 0.227009 0.672759
vt 0.233201 0.901420
vt 0.197166 0.901420
vt 0.273146 0.672759
vt 0.273146 0.901420
vt 0.319282 0.672759
vt 0.313090 0.901420
vt 0.360903 0.672759
vt 0.349125 0.901420
vt 0.560398 0.900263
vt 0.368590 0.900263
vt 0.368590 0.688161
vt 0.560398 0.688161
vt 0.560398 0.679313
vt 0.368590 0.679313
vt 0.759191 0.910662
vt 0.567383 0.910662
vt 0.567383 0.698560
vt 0.759191 0.698560
vt 0.567383 0.689712
vt 0.759191 0.689712
vn 0.933442 -0.000000 -0.358727
vn 0.809017 -0.000000 -0.587785
vn 0.809017 -0.000000 -0.587785
vn 0.933442 -0.000000 -0.358727
vn 0.587785 -0.000000 -0.809017
vn 0.587785 -0.000000 -0.809017
vn 0.309017 0.000000 -0.951057
vn 0.309017 0.000000 -0.951057
vn -0.000000 0.000000 -1.000000
vn -0.000000 0.000000 -1.000000
vn -0.309017 0.000001 -0.951057
vn -0.309017 0.000001 -0.951057
vn -0.587786 0.000000 -0.809017
vn -0.587786 0.000000 -0.809017
vn -0.809017 -0.000000 -0.587785
vn -0.809017 -0.000000 -0.587785
vn -0.951057 -0.000000 -0.309017
vn -0.951057 -0.000000 -0.309017
vn -1.000000 0.000000 0.000000
vn -1.000000 0.000000 0.000000
vn -0.951056 0.000000 0.309017
vn -0.951056 0.000000 0.309017
vn -0.809017 0.000000 0.587785
vn -0.809017 0.000000 0.587785
vn -0.587785 0.000000 0.809017
vn -0.587785 0.000000 0.809017
vn -0.309017 0.000000 0.951057
vn -0.309017 0.000000 0.951057
vn 0.000000 0.000001 1.000000
vn -0.000000 0.000001 1.000000
vn 0.309017 0.000000 0.951056
vn 0.309017 0.000000 0.951056
vn 0.587785 0.000000 0.809017
vn 0.587785 0.000000 0.809017
vn 0.809017 0.000000 0.587785
vn 0.809017 0.000000 0.587785
vn 0.933442 0.000000 0.358728
vn 0.933442 0.000000 0.358728
vn 0.987688 0.000000 0.156434
vn 0.987688 0.000000 0.156434
vn 1.000000 0.000000 0.000005
vn 0.858579 0.000000 -0.512682
vn 0.858579 0.000000 -0.512682
vn 1.000000 0.000000 0.000005
vn 0.000000 -1.000000 0.000000
vn 0.000000 -1.000000 0.000000
vn 0.000000 -1.000000 0.000000
vn 0.000000 -1.000000 0.000000
vn 0.000000 -1.000000 0.000000
vn 0.000000 -1.000000 0.000000
vn 0.000000 -1.000000 0.000000
vn 0.000000 -1.000000 0.000000
vn 0.000000 -1.000000 0.000000
vn 0.000000 -1.000000 0.000000
vn 0.000000 -1.000000 0.000000
vn 0.000000 -1.000000 0.000000
vn 0.000000 -1.000000 -0.000000
vn 0.000000 -1.000000 -0.000000
vn 0.000000 -1.000000 0.000000
vn 0.000000 -1.000000 0.000000
vn 0.000000 -1.000000 0.000000
vn 0.000000 -1.000000 0.000000
vn 0.000000 -1.000000 0.000000
vn 0.000000 -1.000000 0.000000
vn 0.000000 -1.000000 0.000000
vn 0.000000 -1.000000 0.000000
vn 0.000000 -1.000000 0.000000
vn 0.000000 1.000000 0.000000
vn 0.000000 1.000000 -0.000000
vn 0.000000 1.000000 -0.000000
vn 0.000000 1.000000 0.000000
vn 0.000000 1.000000 0.000000
vn 0.000000 1.000000 0.000000
vn 0.000000 1.000000 0.000000
vn 0.000000 1.000000 0.000000
vn 0.000000 1.000000 0.000000
vn 0.000000 1.000000 -0.000000
vn 0.000000 1.000000 0.000000
vn 0.000000 1.000000 0.000000
vn 0.000000 1.000000 0.000000
vn 0.000000 1.000000 0.000000
vn 0.000000 1.000000 0.000000
vn 0.000000 1.000000 0.000000
vn 0.000000 1.000000 0.000000
vn 0.000000 1.000000 -0.000000
vn 0.000000 1.000000 0.000000
vn 0.000000 1.000000 -0.000000
vn 0.000000 1.000000 -0.000000
vn 0.000000 1.000000 0.000000
vn -0.668497 0.661130 0.340616
vn -0.668497 0.661130 0.340616
vn -0.668497 0.661130 0.340616
vn -0.668497 0.661130 0.340616
vn -0.530521 0.661130 0.530522
vn -0.530521 0.661130 0.530522
vn -0.530521 0.661130 0.530522
vn -0.530521 0.661130 0.530522
vn -0.340616 0.661130 0.668497
vn -0.340616 0.661130 0.668497
vn -0.340616 0.661130 0.668497
vn -0.340616 0.661130 0.668497
vn -0.117368 0.661130 0.741034
vn -0.117368 0.661130 0.741034
vn -0.117368 0.661130 0.741034
vn -0.117368 0.661130 0.741034
vn 0.117369 0.661130 0.741035
vn 0.117369 0.661130 0.741035
vn 0.117369 0.661130 0.741035
vn 0.117369 0.661130 0.741035
vn 0.340616 0.661130 0.668497
vn 0.340616 0.661130 0.668497
vn 0.340616 0.661130 0.668497
vn 0.340616 0.661130 0.668497
vn 0.530522 0.661130 0.530522
vn 0.530522 0.661130 0.530522
vn 0.530522 0.661130 0.530522
vn 0.530522 0.661130 0.530522
vn 0.668497 0.661130 0.340616
vn 0.668497 0.661130 0.340616
vn 0.668497 0.661130 0.340616
vn 0.668497 0.661130 0.340616
vn 0.741034 0.661130 0.117369
vn 0.741034 0.661130 0.117369
vn 0.741034 0.661130 0.117369
vn 0.741034 0.661130 0.117369
vn 0.741035 0.661130 -0.117369
vn 0.741035 0.661130 -0.117369
vn 0.741035 0.661130 -0.117369
vn 0.741035 0.661130 -0.117369
vn 0.668497 0.661129 -0.340617
vn 0.668497 0.661129 -0.340617
vn 0.668497 0.661129 -0.340617
vn 0.668497 0.661129 -0.340617
vn 0.530522 0.661130 -0.530522
vn 0.530522 0.661130 -0.530522
vn 0.530522 0.661130 -0.530522
vn 0.530522 0.661130 -0.530522
vn 0.340616 0.661130 -0.668497
vn 0.340616 0.661130 -0.668497
vn 0.340616 0.661130 -0.668497
vn 0.340616 0.661130 -0.668497
vn 0.117368 0.661129 -0.741035
vn 0.117368 0.661130 -0.741035
vn 0.117368 0.661129 -0.741035
vn 0.117368 0.661129 -0.741035
vn -0.117368 0.661129 -0.741035
vn -0.117368 0.661129 -0.741035
vn -0.117368 0.661130 -0.741035
vn -0.117368 0.661129 -0.741035
vn -0.340616 0.661130 -0.668497
vn -0.340616 0.661130 -0.668497
vn -0.340616 0.661130 -0.668497
vn -0.340616 0.661130 -0.668497
vn -0.530522 0.661130 -0.530522
vn -0.530522 0.661130 -0.530522
vn -0.530522 0.661130 -0.530522
vn -0.530522 0.661130 -0.530522
vn -0.668498 0.661129 -0.340616
vn -0.668498 0.661129 -0.340616
vn -0.668498 0.661129 -0.340616
vn -0.668498 0.661129 -0.340616
vn -0.741035 0.661129 -0.117369
vn -0.741035 0.661129 -0.117369
vn -0.741035 0.661129 -0.117369
vn -0.741035 0.661129 -0.117369
vn -0.741035 0.661129 -0.117369
vn -0.741035 0.661130 0.117368
vn -0.741035 0.661129 0.117367
vn -0.741035 0.661129 0.117367
vn -0.741035 0.661129 0.117368
vn 0.858575 0.000000 0.512688
vn 0.858575 0.000000 0.512688
vn 0.987689 0.000000 -0.156433
vn 0.987689 0.000000 -0.156433
vn -0.741035 0.661129 0.117367
vn -0.741035 0.661129 0.117367
vn 0.980296 0.122117 -0.155263
vn 0.980296 0.122117 -0.155263
vn 0.980296 0.122117 -0.155263
vn 0.980296 0.122117 -0.155263
vn 0.996879 0.000000 -0.078946
vn 0.996879 0.000000 -0.078946
vn 0.996879 0.000000 -0.078946
vn 0.996879 0.000000 -0.078946
vn 0.980296 -0.122117 -0.155263
vn 0.980296 -0.122117 -0.155263
vn 0.980296 -0.122117 -0.155263
vn 0.980296 -0.122117 -0.155263
vn 0.996879 0.000000 0.078945
vn 0.996879 0.000000 0.078945
vn 0.996879 0.000000 0.078945
vn 0.996879 0.000000 0.078945
vn 0.980296 0.122119 0.155266
vn 0.980296 0.122119 0.155266
vn 0.980296 0.122119 0.155266
vn 0.980296 0.122119 0.155266
vn 0.980296 -0.122119 0.155266
vn 0.980295 -0.122119 0.155266
vn 0.980296 -0.122119 0.155266
vn 0.980295 -0.122119 0.155266
vn 0.000000 -1.000000 0.000000
vn 0.000000 -1.000000 0.000000
vn 0.000000 -1.000000 0.000000
vn 0.000000 -1.000000 0.000000
vn 0.000000 0.000000 -1.000000
vn 0.000000 0.000000 -1.000000
vn 0.000000 0.000000 -1.000000
vn 0.000000 0.000000 -1.000000
vn 0.000000 1.000000 0.000000
vn 0.000000 1.000000 0.000000
vn 0.000000 1.000000 0.000000
vn 0.000000 1.000000 0.000000
vn 0.000000 0.000000 1.000000
vn 0.000000 0.000000 1.000000
vn 0.000000 0.000000 1.000000
vn 0.000000 0.000000 1.000000
vn 0.000000 -1.000000 0.000000
vn 0.000000 -1.000000 0.000000
vn 0.000000 1.000000 0.000000
vn 0.000000 1.000000 0.000000
vn 0.388050 -0.900180 -0.197721
vn 0.388050 -0.900180 -0.197721
vn 0.388050 -0.900180 -0.197721
vn 0.388050 -0.900180 -0.197721
vn 0.307958 -0.900180 -0.307958
vn 0.307958 -0.900180 -0.307958
vn 0.307958 -0.900180 -0.307958
vn 0.307958 -0.900180 -0.307958
vn 0.197721 -0.900180 -0.388049
vn 0.197721 -0.900180 -0.388049
vn 0.197721 -0.900180 -0.388049
vn 0.197721 -0.900180 -0.388049
vn 0.068130 -0.900180 -0.430156
vn 0.068130 -0.900180 -0.430156
vn 0.068130 -0.900180 -0.430156
vn 0.068130 -0.900180 -0.430156
vn -0.068130 -0.900180 -0.430156
vn -0.068130 -0.900180 -0.430156
vn -0.068130 -0.900180 -0.430156
vn -0.068130 -0.900180 -0.430156
vn -0.197721 -0.900180 -0.388050
vn -0.197721 -0.900180 -0.388050
vn -0.197721 -0.900180 -0.388050
vn -0.197721 -0.900180 -0.388050
vn -0.307958 -0.900180 -0.307958
vn -0.307958 -0.900180 -0.307958
vn -0.307958 -0.900180 -0.307958
vn -0.307958 -0.900180 -0.307958
vn -0.388050 -0.900180 -0.197721
vn -0.388050 -0.900180 -0.197721
vn -0.388050 -0.900180 -0.197721
vn -0.388050 -0.900180 -0.197721
vn -0.430156 -0.900180 -0.068130
vn -0.430156 -0.900180 -0.068130
vn -0.430156 -0.900180 -0.068130
vn -0.430156 -0.900180 -0.068130
vn -0.430156 -0.900180 0.068130
vn -0.430156 -0.900180 0.068130
vn -0.430156 -0.900180 0.068130
vn -0.430156 -0.900180 0.068130
vn -0.388050 -0.900180 0.197721
vn -0.388050 -0.900180 0.197721
vn -0.388050 -0.900180 0.197721
vn -0.388050 -0.900180 0.197721
vn -0.307958 -0.900180 0.307958
vn -0.307958 -0.900180 0.307958
vn -0.307958 -0.900180 0.307958
vn -0.307958 -0.900180 0.307958
vn -0.197721 -0.900180 0.388049
vn -0.197721 -0.900180 0.388050
vn -0.197721 -0.900180 0.388049
vn -0.197721 -0.900180 0.388050
vn -0.068130 -0.900180 0.430156
vn -0.068130 -0.900180 0.430156
vn -0.068130 -0.900180 0.430156
vn -0.068130 -0.900180 0.430156
vn 0.068130 -0.900180 0.430156
vn 0.068130 -0.900180 0.430156
vn 0.068130 -0.900180 0.430156
vn 0.068130 -0.900180 0.430156
vn 0.197721 -0.900180 0.388050
vn 0.197721 -0.900180 0.388050
vn 0.197721 -0.900180 0.388050
vn 0.197721 -0.900180 0.388050
vn 0.307958 -0.900180 0.307958
vn 0.307958 -0.900180 0.307958
vn 0.307958 -0.900180 0.307958
vn 0.307958 -0.900180 0.307958
vn 0.388050 -0.900180 0.197721
vn 0.388050 -0.900180 0.197721
vn 0.388050 -0.900180 0.197721
vn 0.388050 -0.900180 0.197721
vn 0.430156 -0.900180 0.068131
vn 0.430156 -0.900180 0.068131
vn 0.430156 -0.900180 0.068131
vn 0.430156 -0.900180 0.068131
vn 0.430156 -0.900180 0.068130
vn 0.430156 -0.900180 0.068130
vn 0.430156 -0.900180 0.068130
vn 0.430156 -0.900180 0.068130
vn 0.430156 -0.900180 -0.068129
vn 0.430156 -0.900180 -0.068129
vn 0.430156 -0.900180 -0.068129
vn 0.430156 -0.900180 -0.068129
vn 0.430156 -0.900180 -0.068129
vn 0.430156 -0.900180 -0.068129
vn 0.430156 -0.900180 -0.068129
vn 0.430156 -0.900180 -0.068129
s 1
g pCylinder6
usemtl initialShadingGroup
f 1/1/1 2/2/2 22/3/3 21/4/4
f 2/2/2 3/7/5 23/8/6 22/3/3
f 3/143/5 4/144/7 24/145/8 23/146/6
f 4/144/7 5/149/9 25/150/10 24/145/8
f 5/149/9 6/152/11 26/153/12 25/150/10
f 6/152/11 7/155/13 27/156/14 26/153/12
f 7/42/13 8/34/15 28/37/16 27/43/14
f 8/34/15 9/35/17 29/36/18 28/37/16
f 9/35/17 10/40/19 30/41/20 29/36/18
f 10/40/19 11/46/21 31/47/22 30/41/20
f 11/46/21 12/49/23 32/50/24 31/47/22
f 12/49/23 13/52/25 33/53/26 32/50/24
f 13/158/25 14/159/27 34/160/28 33/161/26
f 14/159/27 15/164/29 35/165/30 34/160/28
f 15/164/29 16/167/31 36/168/32 35/165/30
f 16/167/31 17/170/33 37/171/34 36/168/32
f 17/31/33 18/28/35 38/30/36 37/33/34
f 18/28/35 19/25/37 39/27/38 38/30/36
f 19/25/37 62/20/39 63/22/40 39/27/38
s 2
f 73/197/41 74/196/42 75/195/43 76/198/44
s 3
f 80/86/45 79/87/46 81/88/47
f 82/91/48 80/86/45 81/88/47
f 83/94/49 82/91/48 81/88/47
f 84/96/50 83/94/49 81/88/47
f 85/98/51 84/96/50 81/88/47
f 86/100/52 85/98/51 81/88/47
f 87/102/53 86/100/52 81/88/47
f 88/104/54 87/102/53 81/88/47
f 89/106/55 88/104/54 81/88/47
f 90/108/56 89/106/55 81/88/47
f 91/107/57 90/108/56 81/88/47
f 92/105/58 91/107/57 81/88/47
f 93/103/59 92/105/58 81/88/47
f 94/101/60 93/103/59 81/88/47
f 95/99/61 94/101/60 81/88/47
f 96/97/62 95/99/61 81/88/47
f 97/95/63 96/97/62 81/88/47
f 98/93/64 97/95/63 81/88/47
f 100/90/65 99/92/66 98/93/64 81/88/47
f 79/87/46 101/89/67 100/90/65 81/88/47
s 4
f 41/109/68 42/110/69 43/111/70
f 42/110/69 44/112/71 43/111/70
f 44/112/71 45/115/72 43/111/70
f 45/115/72 46/117/73 43/111/70
f 46/117/73 47/119/74 43/111/70
f 47/119/74 48/121/75 43/111/70
f 48/121/75 49/123/76 43/111/70
f 49/123/76 50/125/77 43/111/70
f 50/125/77 51/127/78 43/111/70
f 51/127/78 52/129/79 43/111/70
f 52/129/79 53/130/80 43/111/70
f 53/130/80 54/128/81 43/111/70
f 54/128/81 55/126/82 43/111/70
f 55/126/82 56/124/83 43/111/70
f 56/124/83 57/122/84 43/111/70
f 57/122/84 58/120/85 43/111/70
f 58/120/85 59/118/86 43/111/70
f 59/118/86 60/116/87 43/111/70
f 60/116/87 61/113/88 43/111/70
f 61/113/88 66/114/89 41/109/68 43/111/70
s off
f 21/55/90 22/56/91 42/57/92 41/58/93
f 22/56/94 23/59/95 44/60/96 42/57/97
f 23/173/98 24/174/99 45/175/100 44/176/101
f 24/174/102 25/177/103 46/178/104 45/175/105
f 25/177/106 26/179/107 47/180/108 46/178/109
f 26/179/110 27/181/111 48/182/112 47/180/113
f 27/78/114 28/72/115 49/75/116 48/79/117
f 28/72/118 29/73/119 50/74/120 49/75/121
f 29/73/122 30/76/123 51/77/124 50/74/125
f 30/76/126 31/80/127 52/81/128 51/77/129
f 31/80/130 32/82/131 53/83/132 52/81/133
f 32/82/134 33/84/135 54/85/136 53/83/137
f 33/183/138 34/184/139 55/185/140 54/186/141
f 34/184/142 35/187/143 56/188/144 55/185/145
f 35/187/146 36/189/147 57/190/148 56/188/149
f 36/189/150 37/191/151 58/192/152 57/190/153
f 37/70/154 38/68/155 59/69/156 58/71/157
f 38/68/158 39/65/159 60/67/160 59/69/161
f 39/65/162 63/66/163 40/63/164 61/64/165 60/67/166
s 5
f 40/63/167 65/62/168 66/61/169 61/64/170
s 2
f 78/202/171 77/201/172 73/203/41 76/204/44
s 1
f 65/9/173 64/10/174 1/1/1 21/4/4
s 5
f 66/61/169 65/62/168 21/55/175 41/58/176
s off
f 20/15/177 64/10/178 68/14/179 67/19/180
f 64/10/181 65/9/182 69/13/183 68/14/184
f 65/9/185 40/17/186 70/18/187 69/13/188
f 63/22/189 62/20/190 71/24/191 72/23/192
f 62/20/193 20/15/194 67/19/195 71/24/196
f 40/17/197 63/22/198 72/23/199 70/18/200
s 6
f 67/131/201 68/132/202 74/133/203 73/134/204
s off
f 68/193/205 69/194/206 75/195/207 74/196/208
s 7
f 69/137/209 70/138/210 76/139/211 75/140/212
s off
f 72/199/213 71/200/214 77/201/215 78/202/216
s 6
f 71/135/217 67/131/201 73/134/204 77/136/218
s 7
f 70/138/210 72/141/219 78/142/220 76/139/211
s off
f 2/2/221 1/1/222 79/5/223 80/6/224
f 3/7/225 2/2/226 80/6/227 82/12/228
f 4/144/229 3/143/230 82/147/231 83/148/232
f 5/149/233 4/144/234 83/148/235 84/151/236
f 6/152/237 5/149/238 84/151/239 85/154/240
f 7/155/241 6/152/242 85/154/243 86/157/244
f 8/34/245 7/42/246 86/44/247 87/38/248
f 9/35/249 8/34/250 87/38/251 88/39/252
f 10/40/253 9/35/254 88/39/255 89/45/256
f 11/46/257 10/40/258 89/45/259 90/48/260
f 12/49/261 11/46/262 90/48/263 91/51/264
f 13/52/265 12/49/266 91/51/267 92/54/268
f 14/159/269 13/158/270 92/162/271 93/163/272
f 15/164/273 14/159/274 93/163/275 94/166/276
f 16/167/277 15/164/278 94/166/279 95/169/280
f 17/170/281 16/167/282 95/169/283 96/172/284
f 18/28/285 17/31/286 96/32/287 97/29/288
f 19/25/289 18/28/290 97/29/291 98/26/292
f 20/15/293 62/20/294 99/21/295 100/16/296
f 62/20/297 19/25/298 98/26/299 99/21/300
f 1/1/301 64/10/302 101/11/303 79/5/304
f 64/10/305 20/15/306 100/16/307 101/11/308
