# This file uses centimeters as units for non-parametric coordinates.

mtllib Paperbag.mtl
g default
v 4.486191 -0.059460 0.377535
v 5.709547 -0.059460 0.377535
v 4.486191 1.342853 0.312091
v 5.709547 1.342853 0.312091
v 4.486191 1.342853 -0.203510
v 5.709547 1.342853 -0.203510
v 4.486191 -0.059460 -0.314755
v 5.709547 -0.059460 -0.314755
v 4.621384 1.342853 0.000000
v 4.486191 -0.059460 0.000000
v 5.709547 -0.059460 0.000000
v 5.598125 1.342853 0.000000
v 4.486191 0.221002 0.377535
v 4.621384 0.221002 0.000000
v 4.486191 0.221002 -0.314755
v 5.709547 0.221002 -0.314755
v 5.598125 0.221002 0.000000
v 5.709547 0.221002 0.377535
v 4.470727 -0.072349 0.390176
v 5.724728 -0.072495 0.390368
v 5.728405 0.222264 0.391952
v 4.466915 0.222275 0.391385
v 4.466403 0.221872 -0.327897
v 5.728880 0.221861 -0.328558
v 5.724876 -0.072350 -0.327557
v 4.470554 -0.072174 -0.327360
v 4.466062 -0.072103 0.000000
v 5.729215 -0.072810 0.000000
v 5.621779 0.223296 0.000511
v 4.597779 0.223743 0.000590
v 4.600047 1.342219 0.000553
v 4.475389 1.344211 0.318908
v 4.475657 1.343753 -0.209841
v 5.720464 1.343793 -0.210643
v 5.620159 1.342313 0.000502
v 5.720664 1.344266 0.319659
vt 0.001946 0.267056
vt 0.001894 0.123130
vt 0.050902 0.123318
vt 0.001970 0.002361
vt 0.050731 0.267640
vt 0.050665 0.001992
vt 0.236111 0.123315
vt 0.236434 0.240986
vt 0.236356 0.045467
vt 0.291681 0.001992
vt 0.291924 0.146076
vt 0.242918 0.002438
vt 0.477044 0.146090
vt 0.477373 0.028714
vt 0.242959 0.146294
vt 0.291615 0.267187
vt 0.477298 0.223661
vt 0.242947 0.266990
vt 0.478648 0.270982
vt 0.525067 0.410177
vt 0.478648 0.410177
vt 0.525067 0.270982
vt 0.478648 0.526225
vt 0.710745 0.295110
vt 0.710745 0.410177
vt 0.525067 0.526225
vt 0.710745 0.485210
vt 0.287138 0.526678
vt 0.240718 0.526678
vt 0.287138 0.387483
vt 0.240718 0.387483
vt 0.472816 0.387483
vt 0.472816 0.502549
vt 0.240718 0.271434
vt 0.287138 0.271434
vt 0.472816 0.312450
vt 0.483758 0.122761
vt 0.723405 0.122761
vt 0.722554 0.266687
vt 0.484643 0.266616
vt 0.484610 0.002065
vt 0.722582 0.001992
vt 0.716577 0.409676
vt 0.716577 0.270481
vt 0.948674 0.270481
vt 0.948674 0.409676
vt 0.716577 0.525725
vt 0.948674 0.525725
vt 0.486548 0.764226
vt 0.601614 0.738577
vt 0.601410 0.742625
vt 0.484034 0.766275
vt 0.676647 0.764226
vt 0.678982 0.766224
vt 0.486548 0.532129
vt 0.483758 0.530019
vt 0.676647 0.532129
vt 0.679277 0.530057
vt 0.601614 0.553268
vt 0.601429 0.549087
vt 0.242942 0.769081
vt 0.242918 0.531170
vt 0.291704 0.530472
vt 0.291706 0.769804
vt 0.477407 0.531941
vt 0.477398 0.768197
vt 0.187583 0.769992
vt 0.187585 0.530472
vt 0.236280 0.531232
vt 0.236251 0.769204
vt 0.001900 0.768236
vt 0.001894 0.532069
vt 0.917789 0.762117
vt 0.871370 0.762117
vt 0.871370 0.530019
vt 0.917789 0.530019
vt 0.685692 0.762117
vt 0.685692 0.530019
vt 0.716577 0.812330
vt 0.716577 0.765911
vt 0.948674 0.765911
vt 0.948674 0.812330
vt 0.716577 0.998008
vt 0.948674 0.998008
vn -0.000302 -0.004739 0.999989
vn -0.000302 -0.004739 0.999989
vn -0.000479 0.050053 0.998746
vn -0.000479 0.050054 0.998747
vn -0.000533 0.082511 -0.996590
vn -0.000533 0.082508 -0.996590
vn -0.000341 -0.002614 -0.999996
vn -0.000341 -0.002614 -0.999997
vn -0.000344 -1.000000 -0.000222
vn -0.000344 -1.000000 -0.000222
vn -0.000339 -1.000000 0.000090
vn -0.000339 -1.000000 0.000090
vn 0.976273 0.069460 -0.205102
vn 0.940037 0.341071 0.000240
vn 0.999622 0.027483 0.000995
vn -0.941809 -0.007074 -0.336074
vn -0.999457 0.032941 0.001140
vn -0.964848 0.088342 -0.247515
vn -0.955082 0.102457 0.278065
vn -0.913548 0.406731 0.000292
vn -0.000351 -1.000000 -0.000595
vn -0.000351 -1.000000 -0.000595
vn 0.936311 -0.014246 0.350884
vn 0.969458 0.081301 0.231391
vn -0.999922 -0.012477 0.000226
vn -0.940773 -0.006461 -0.338976
vn -0.907360 -0.017096 0.420006
vn -0.903259 -0.017939 0.428720
vn -0.000582 0.104588 -0.994515
vn -0.000582 0.104588 -0.994515
vn 0.999952 -0.009759 0.000239
vn 0.933459 -0.014675 0.358383
vn 0.960701 -0.005780 -0.277525
vn 0.960036 -0.005018 -0.279831
vn -0.000525 0.064382 0.997925
vn -0.000525 0.064382 0.997925
vn 0.000000 0.000000 -1.000000
vn 0.000000 -0.046618 -0.998913
vn 0.000000 -0.046618 -0.998913
vn 0.000000 0.000000 -1.000000
vn 0.000000 -0.079081 0.996868
vn 0.000000 0.000000 1.000000
vn 0.000000 0.000000 1.000000
vn 0.000000 -0.079081 0.996868
vn 0.000000 1.000000 0.000000
vn 0.000000 1.000000 0.000000
vn 0.000000 1.000000 0.000000
vn 0.000000 1.000000 0.000000
vn -0.970967 -0.084493 0.223793
vn -0.999685 -0.025106 -0.000726
vn -0.929346 -0.369209 0.000000
vn 0.932348 0.009280 0.361444
vn 0.958362 -0.103941 0.265967
vn 0.999550 -0.029972 -0.000867
vn 0.946514 -0.120200 -0.299439
vn 0.900807 -0.434220 0.000000
vn 0.000000 1.000000 0.000000
vn 0.000000 1.000000 0.000000
vn -0.922307 0.016723 -0.386097
vn -0.962437 -0.098346 -0.253066
vn 0.999845 0.017625 0.000000
vn 0.930946 0.010646 0.365001
vn 0.891405 0.019615 -0.452784
vn 0.886362 0.022928 -0.462425
vn 0.000000 -0.098678 0.995119
vn 0.000000 -0.098678 0.995119
vn -0.999894 0.014527 0.000000
vn -0.918500 0.019581 -0.394936
vn -0.952532 0.007814 0.304339
vn -0.951516 0.008968 0.307470
vn 0.000000 -0.058237 -0.998303
vn 0.000000 -0.058237 -0.998303
vn 0.009120 0.993192 -0.116134
vn 0.018120 0.999830 0.003480
vn 0.018102 0.999830 0.003471
vn 0.005304 0.989125 -0.146979
vn 0.002598 0.995486 0.094877
vn 0.001267 0.993261 0.115895
vn -0.003939 0.995682 0.092748
vn -0.001866 0.993355 0.115075
vn -0.022009 0.999754 0.002690
vn -0.022016 0.999754 0.002694
vn -0.010921 0.993486 -0.113430
vn -0.006130 0.989158 -0.146727
s 1
g pCube9
usemtl initialShadingGroup
f 19/61/1 20/62/2 21/63/3 22/64/4
s 2
f 23/67/5 24/68/6 25/69/7 26/70/8
s 3
f 27/37/9 28/38/10 20/39/11 19/40/12
s 4
f 20/1/13 28/2/14 29/3/15
s 5
f 22/10/16 30/11/17 19/12/18
f 26/18/19 27/15/20 30/11/17
s 3
f 26/41/21 25/42/22 28/38/10 27/37/9
s 4
f 24/6/23 29/3/15 25/4/24
s 5
f 31/13/25 30/11/17 22/10/16 32/14/26
f 23/16/27 30/11/17 31/13/25 33/17/28
s 2
f 33/71/29 34/72/30 24/68/6 23/67/5
s 4
f 35/7/31 29/3/15 24/6/23 34/9/32
f 21/5/33 29/3/15 35/7/31 36/8/34
s 1
f 22/64/4 21/63/3 36/65/35 32/66/36
s 4
f 20/1/13 29/3/15 21/5/33
f 25/4/24 29/3/15 28/2/14
s 5
f 26/18/19 30/11/17 23/16/27
f 19/12/18 30/11/17 27/15/20
s 7
f 1/73/37 13/74/38 18/75/39 2/76/40
s 8
f 15/79/41 7/80/42 8/81/43 16/82/44
s 9
f 10/43/45 1/44/46 2/45/47 11/46/48
s 10
f 2/19/49 17/20/50 11/21/51
s 11
f 13/28/52 1/29/53 14/30/54
f 7/34/55 14/30/54 10/31/56
s 9
f 7/47/57 10/43/45 11/46/48 8/48/58
s 10
f 16/26/59 8/23/60 17/20/50
s 11
f 9/32/61 3/33/62 13/28/52 14/30/54
f 15/35/63 5/36/64 9/32/61 14/30/54
s 8
f 5/83/65 15/79/41 16/82/44 6/84/66
s 10
f 12/25/67 6/27/68 16/26/59 17/20/50
f 18/22/69 4/24/70 12/25/67 17/20/50
s 7
f 13/74/38 3/77/71 4/78/72 18/75/39
s 10
f 2/19/49 18/22/69 17/20/50
f 8/23/60 11/21/51 17/20/50
s 11
f 7/34/55 15/35/63 14/30/54
f 1/29/53 10/31/56 14/30/54
s 13
f 3/49/73 9/50/74 31/51/75 32/52/76
f 9/50/74 5/53/77 33/54/78 31/51/75
f 5/53/77 6/57/79 34/58/80 33/54/78
f 6/57/79 12/59/81 35/60/82 34/58/80
f 12/59/81 4/55/83 36/56/84 35/60/82
f 4/55/83 3/49/73 32/52/76 36/56/84
