#File written by LIBUNFOLD3D. Compilation :Dec 22 2011,11:53:02
mtllib picM.mtl
#begin vertices
v 16.229561 30.483584 106.901867
v 3.0507089999999999 30.483584 106.901867
v 16.229561 46.891246000000002 106.901867
v 3.0507089999999999 46.891246000000002 106.901867
v 16.229561 46.891246000000002 107.981655
v 3.0507089999999999 46.891246000000002 107.981655
v 16.229561 30.483584 107.981655
v 3.0507089999999999 30.483584 107.981655
v 16.229561 30.483584 106.901867
v 3.0507089999999999 30.483584 106.901867
v 3.0507089999999999 46.891246000000002 106.901867
v 16.229561 46.891246000000002 106.901867
v 15.48565 31.409752999999998 106.901867
v 3.794619 31.409752999999998 106.901867
v 3.794619 45.965072999999997 106.901867
v 15.48565 45.965072999999997 106.901867
v 15.48565 31.409752999999998 107.45000899999999
v 3.794619 31.409752999999998 107.45000899999999
v 3.794619 45.965072999999997 107.45000899999999
v 15.48565 45.965072999999997 107.45000899999999
#end vertices

#begin 30 textures vertices 
vt 0.049040325841783423 0.012024005576723161 0
vt 0.50300709477911099 0.014905794219862985 0
vt 0.047826326006053722 0.57271315363024422 0
vt 0.56091894129069808 0.61370003140998963 0
vt 0.98800000000000043 0.57870783313493412 0
vt 0.56091894129069808 0.57870783313493479 0
vt 0.98799999999999966 0.046992198275055318 0
vt 0.56091894129069764 0.046992198275055568 0
vt 0.98799999999999977 0.012000000000000455 0
vt 0.56091894129069775 0.012000000000000729 0
vt 0.53874912212938242 0.013787981271471628 0
vt 0.54161727052715458 0.56948685063293669 0
vt 0.013215846964501943 0.012000000000000455 0
vt 0.012000000000000455 0.57254906185813037 0
vt 0.049040324432325123 0.012023898683444329 0
vt 0.50300719313753051 0.014905717483282028 0
vt 0.50574624375984456 0.57070530544043951 0
vt 0.047826327415512078 0.572713260523523 0
vt 0.07397327502453413 0.044422550736990925 0
vt 0.47869131435911605 0.045275909931015094 0
vt 0.48031845628538072 0.53961370879815651 0
vt 0.073426979503786433 0.53978138101744921 0
vt 0.086699133901327941 0.055722952403201534 0
vt 0.46685521625461107 0.057605884303343555 0
vt 0.46765297103444653 0.5281525275594029 0
vt 0.085268428914640204 0.52758582585692038 0
vt 0.98799999999999955 0.61370003140998908 0
vt 0.50574634211826419 0.57070522870385842 0
vt 0.50574634211826419 0.57070522870385842 0
vt 0.50300709477911099 0.014905794219862985 0
#end 30 textures vertices 

#begin 72 normals 
vn 0 0 -1
vn 0 0 -1
vn 0 0 -1
vn 0 0 -1
vn 0 1 -0
vn 0 1 -0
vn 0 1 -0
vn 0 1 -0
vn -0 0 1
vn -0 0 1
vn -0 0 1
vn -0 0 1
vn 0 -1 0
vn 0 -1 0
vn 0 -1 0
vn 0 -1 0
vn -1 0 -0
vn -1 0 -0
vn -1 0 -0
vn -1 0 -0
vn 1 0 0
vn 1 0 0
vn 1 0 0
vn 1 0 0
vn 0 0 -0
vn 0 0 -0
vn 0 0 -0
vn 0 0 -0
vn 0 0 -0
vn 0 0 -0
vn 0 0 -0
vn 0 0 -0
vn 0 0 -0
vn 0 0 -0
vn 0 0 -0
vn 0 0 -0
vn 0 0 -0
vn 0 0 -0
vn 0 0 -0
vn 0 0 -0
vn 0 0 -1
vn 0 0 -1
vn 0 0 -1
vn 0 0 -1
vn -3.0000000000000001e-006 0 -1
vn -3.0000000000000001e-006 0 -1
vn -3.0000000000000001e-006 0 -1
vn -3.0000000000000001e-006 0 -1
vn 0 0 -1
vn 0 0 -1
vn 0 0 -1
vn 0 0 -1
vn 3.9999999999999998e-006 0 -1
vn 3.9999999999999998e-006 0 -1
vn 3.9999999999999998e-006 0 -1
vn 3.9999999999999998e-006 0 -1
vn 0 1 -0
vn 0 1 -0
vn 0 1 -0
vn 0 1 -0
vn 1 0 0
vn 1 0 0
vn 1 0 0
vn 1 0 0
vn 0 -1 0
vn 0 -1 0
vn 0 -1 0
vn 0 -1 0
vn -1 0 -0
vn -1 0 -0
vn -1 0 -0
vn -1 0 -0
#end 72 normals 

#begin 18 faces
usemtl initialShadingGroup
g pCube88
s off
f 17/23/1 18/24/2 19/25/3 20/26/4 
f 3/27/5 4/4/6 6/6/7 5/5/8 
f 5/5/9 6/6/10 8/8/11 7/7/12 
f 7/7/13 8/8/14 2/10/15 1/9/16 
f 2/2/17 8/11/18 6/12/19 4/29/20 
f 7/13/21 1/1/22 3/3/23 5/14/24 
f 1/1/25 2/30/26 10/16/27 9/15/28 
f 2/30/29 4/28/30 11/17/31 10/16/32 
f 4/28/33 3/3/34 12/18/35 11/17/36 
f 3/3/37 1/1/38 9/15/39 12/18/40 
f 9/15/41 10/16/42 14/20/43 13/19/44 
f 10/16/45 11/17/46 15/21/47 14/20/48 
f 11/17/49 12/18/50 16/22/51 15/21/52 
f 12/18/53 9/15/54 13/19/55 16/22/56 
f 13/19/57 14/20/58 18/24/59 17/23/60 
f 14/20/61 15/21/62 19/25/63 18/24/64 
f 15/21/65 16/22/66 20/26/67 19/25/68 
f 16/22/69 13/19/70 17/23/71 20/26/72 
#end 18 faces
#begin 2 properties
#U3D EDG SEL 16 20
#U3D SYM 0 0 0 1 0 0 0.0001 0
#end 2 properties
