#File written by LIBUNFOLD3D. Compilation :Dec 22 2011,11:53:02
mtllib picbig.mtl
#begin vertices
v -19.212320999999999 21.949234000000001 106.405304
v -44.510269000000001 22.265620999999999 106.405304
v -18.818418999999999 53.445162000000003 106.405304
v -44.116368000000001 53.761549000000002 106.405304
v -18.818418999999999 53.445162000000003 108.478213
v -44.116368000000001 53.761549000000002 108.478213
v -19.212320999999999 21.949234000000001 108.478213
v -44.510269000000001 22.265620999999999 108.478213
v -19.212320999999999 21.949234000000001 106.405304
v -44.510269000000001 22.265620999999999 106.405304
v -44.116368000000001 53.761549000000002 106.405304
v -18.818418999999999 53.445162000000003 106.405304
v -20.618089000000001 23.744954 106.405304
v -43.060034999999999 24.025621999999998 106.405304
v -42.710602999999999 51.965822000000003 106.405304
v -20.268657000000001 51.685153 106.405304
v -20.618089000000001 23.744954 107.45759200000001
v -43.060034999999999 24.025621999999998 107.45759200000001
v -42.710602999999999 51.965822000000003 107.45759200000001
v -20.268657000000001 51.685153 107.45759200000001
#end vertices

#begin 40 textures vertices 
vt 0.42265683402111626 0.012000000000000509 0
vt 0.87124426634978203 0.012000000000991684 0
vt 0.85272997997735644 0.48504269324604971 0
vt 0.020570316867139539 0.55331909554729397 0
vt 0.39997739921937414 0.51610901049192315 0
vt 0.02007190476674809 0.52219214773260791 0
vt 0.39240389155050098 0.043126947814440111 0
vt 0.012498412115777581 0.049210085002485207 0
vt 0.39190547943472398 0.012000000000000455 0
vt 0.012000000000000455 0.018083137188045467 0
vt 0.90237520425540996 0.012000000000000455 0
vt 0.90237520425534501 0.48504269305879233 0
vt 0.82159904207179468 0.012000000000442532 0
vt 0.82159904207182299 0.48504269324560689 0
vt 0.42265683402111631 0.012000000000000455 0
vt 0.80276646380441352 0.018251050242647143 0
vt 0.79653623889163117 0.48985851966972666 0
vt 0.41679952103589762 0.48640069631197541 0
vt 0.46350197189015019 0.05836255240638432 0
vt 0.76125164623243224 0.061073279699714204 0
vt 0.75520098182898543 0.44450175696765931 0
vt 0.45926351935052567 0.44027448557247001 0
vt 0.059255265647910435 0.56417913311723566 0
vt 0.3962883082976334 0.56839420386085182 0
vt 0.39104054011571271 0.98800000000000043 0
vt 0.054007497465989776 0.9837849142383891 0
vt 0.40047581131976467 0.5472359583066092 0
vt 0.79653623889163117 0.48985851966972666 0
vt 0.87124426634984753 0.48504269305780123 0
vt 0.80276646380441352 0.018251050242647143 0
vt 0.85272997997738653 0.012000000000000455 0
vt 0.41679952103589762 0.48640069631197541 0
vt 0.75430878199396312 0.53503842955936776 0
vt 0.7465002027293286 0.92143029556574108 0
vt 0.4542046589760772 0.52933170210157576 0
vt 0.44645579017005427 0.91578874758222839 0
vt 0.78779001798099724 0.50320521084391634 0
vt 0.420132402884275 0.49789206050484619 0
vt 0.78055888546075969 0.95289012882513668 0
vt 0.4129806576298985 0.94762845315574562 0
#end 40 textures vertices 

#begin 72 normals 
vn 0 -0 -1
vn 0 -0 -1
vn 0 -0 -1
vn 0 -0 -1
vn 0.012505 0.99992199999999998 0
vn 0.012505 0.99992199999999998 0
vn 0.012505 0.99992199999999998 0
vn 0.012505 0.99992199999999998 0
vn -0 0 1
vn -0 0 1
vn -0 0 1
vn -0 0 1
vn -0.012505 -0.99992199999999998 -0
vn -0.012505 -0.99992199999999998 -0
vn -0.012505 -0.99992199999999998 -0
vn -0.012505 -0.99992199999999998 -0
vn -0.99992199999999998 0.012505 -0
vn -0.99992199999999998 0.012505 -0
vn -0.99992199999999998 0.012505 -0
vn -0.99992199999999998 0.012505 -0
vn 0.99992199999999998 -0.012505 0
vn 0.99992199999999998 -0.012505 0
vn 0.99992199999999998 -0.012505 0
vn 0.99992199999999998 -0.012505 0
vn 0 0 0
vn 0 0 0
vn 0 0 0
vn 0 0 0
vn 0 0 0
vn 0 0 0
vn 0 0 0
vn 0 0 0
vn 0 0 0
vn 0 0 0
vn 0 0 0
vn 0 0 0
vn 0 0 0
vn 0 0 0
vn 0 0 0
vn 0 0 0
vn 0 -0 -1
vn 0 -0 -1
vn 0 -0 -1
vn 0 -0 -1
vn -3.0000000000000001e-006 0 -1
vn -3.0000000000000001e-006 0 -1
vn -3.0000000000000001e-006 0 -1
vn -3.0000000000000001e-006 0 -1
vn 0 -0 -1
vn 0 -0 -1
vn 0 -0 -1
vn 0 -0 -1
vn 3.9999999999999998e-006 -0 -1
vn 3.9999999999999998e-006 -0 -1
vn 3.9999999999999998e-006 -0 -1
vn 3.9999999999999998e-006 -0 -1
vn 0.012505 0.99992199999999998 0
vn 0.012505 0.99992199999999998 0
vn 0.012505 0.99992199999999998 0
vn 0.012505 0.99992199999999998 0
vn 0.99992199999999998 -0.012505 0
vn 0.99992199999999998 -0.012505 0
vn 0.99992199999999998 -0.012505 0
vn 0.99992199999999998 -0.012505 0
vn -0.012505 -0.99992199999999998 -0
vn -0.012505 -0.99992199999999998 -0
vn -0.012505 -0.99992199999999998 -0
vn -0.012505 -0.99992199999999998 -0
vn -0.99992199999999998 0.012505 -0
vn -0.99992199999999998 0.012505 -0
vn -0.99992199999999998 0.012505 -0
vn -0.99992199999999998 0.012505 -0
#end 72 normals 

#begin 18 faces
usemtl initialShadingGroup
g pCube90
s off
f 17/23/1 18/24/2 19/25/3 20/26/4 
f 3/27/5 4/4/6 6/6/7 5/5/8 
f 5/5/9 6/6/10 8/8/11 7/7/12 
f 7/7/13 8/8/14 2/10/15 1/9/16 
f 2/2/17 8/11/18 6/12/19 4/29/20 
f 7/13/21 1/31/22 3/3/23 5/14/24 
f 1/1/25 2/30/26 10/16/27 9/15/28 
f 2/30/29 4/28/30 11/17/31 10/16/32 
f 4/28/33 3/32/34 12/18/35 11/17/36 
f 3/32/37 1/1/38 9/15/39 12/18/40 
f 9/15/41 10/16/42 14/20/43 13/19/44 
f 10/16/45 11/17/46 15/21/47 14/20/48 
f 11/17/49 12/18/50 16/22/51 15/21/52 
f 12/18/53 9/15/54 13/19/55 16/22/56 
f 13/38/57 14/37/58 18/33/59 17/35/60 
f 14/37/61 15/39/62 19/34/63 18/33/64 
f 15/39/65 16/40/66 20/36/67 19/34/68 
f 16/40/69 13/38/70 17/35/71 20/36/72 
#end 18 faces
#begin 1 properties
#U3D SYM 0 0 0 1 0 0 0.0001 0
#end 1 properties
