# This file uses centimeters as units for non-parametric coordinates.

mtllib pillow.mtl
g default
v -7.952866 5.766641 -7.410374
v -7.718081 5.703565 -7.484395
v -7.718081 5.587935 -7.258095
v -5.611436 5.766641 -7.410374
v -5.846220 5.587935 -7.258095
v -5.846220 5.703565 -7.484395
v -7.952866 6.119098 -6.996745
v -7.718081 5.940392 -6.844468
v -7.718081 6.182173 -6.922723
v -5.611436 6.119098 -6.996745
v -5.846220 6.182173 -6.922723
v -5.846220 5.940392 -6.844468
v -7.952866 6.700120 -7.491841
v -7.718081 6.763194 -7.417818
v -7.718081 6.878824 -7.644116
v -5.846220 6.878824 -7.644116
v -5.846220 6.763194 -7.417818
v -5.611436 6.700120 -7.491841
v -7.952866 6.347662 -7.905468
v -7.718081 6.526367 -8.057745
v -7.718081 6.284587 -7.979489
v -5.611436 6.347662 -7.905468
v -5.846220 6.284587 -7.979489
v -5.846220 6.526367 -8.057745
v -7.909716 5.648767 -7.253240
v -5.654586 5.648767 -7.253240
v -7.909716 5.945250 -6.905300
v -5.654586 5.945250 -6.905300
v -7.909716 6.817993 -7.648976
v -5.654586 6.817993 -7.648976
v -7.909716 6.521510 -7.996914
v -5.654586 6.521510 -7.996914
v -7.905079 6.062758 -7.662699
v -7.779602 5.999683 -7.736719
v -5.784698 5.999683 -7.736719
v -5.659222 6.062758 -7.662699
v -5.659222 6.415215 -7.249071
v -5.884422 6.478291 -7.175047
v -7.679878 6.478291 -7.175047
v -7.905079 6.415215 -7.249071
v -6.123866 5.576706 -7.248528
v -6.771475 5.590551 -7.205467
v -7.419094 5.576116 -7.248024
v -7.419094 5.928572 -6.834397
v -6.771475 5.888846 -6.855402
v -6.123866 5.929163 -6.834899
v -7.419094 6.174855 -6.916487
v -6.771475 6.130248 -6.952970
v -6.123863 6.175219 -6.916798
v -7.418383 6.478450 -7.175183
v -6.770769 6.441673 -7.218338
v -6.123155 6.478444 -7.175179
v -7.419091 6.770514 -7.424055
v -6.771475 6.741572 -7.473885
v -6.123865 6.770148 -7.423741
v -7.419098 6.890643 -7.654188
v -6.771475 6.876208 -7.696744
v -6.123859 6.890052 -7.653684
v -7.419094 6.538187 -8.067818
v -6.771475 6.577915 -8.046810
v -6.123866 6.537596 -8.067314
v -7.419094 6.291906 -7.985727
v -6.771475 6.336512 -7.949244
v -6.123863 6.291541 -7.985417
v -7.418383 5.999842 -7.736856
v -6.770769 6.036615 -7.693697
v -6.123155 5.999836 -7.736851
v -7.419091 5.696248 -7.478159
v -6.771475 5.725188 -7.428328
v -6.123865 5.696612 -7.478471
v -8.125927 5.842016 -7.267751
v -8.125927 5.990243 -7.093798
v -8.020956 6.316075 -7.366841
v -8.020956 6.163305 -7.546126
v -8.179399 5.628052 -6.955323
v -8.179399 5.647822 -6.932121
v -7.804227 5.745384 -6.885151
v -7.804227 5.597157 -7.059103
v -5.438375 6.624744 -7.634463
v -5.438375 6.476517 -7.808416
v -5.543346 6.163305 -7.546126
v -5.543346 6.316075 -7.366841
v -5.384900 5.628052 -6.955323
v -5.384900 5.647822 -6.932121
v -5.760073 5.597157 -7.059103
v -5.760073 5.745384 -6.885151
v -5.438375 5.990243 -7.093798
v -5.438375 5.842016 -7.267751
v -8.179399 6.838709 -7.946890
v -8.179399 6.818938 -7.970091
v -8.125927 6.624744 -7.634463
v -8.125927 6.476517 -7.808416
v -7.804227 6.721376 -8.017063
v -7.804227 6.869602 -7.843109
v -5.384900 6.838709 -7.946890
v -5.384900 6.818938 -7.970091
v -5.760073 6.869602 -7.843109
v -5.760073 6.721376 -8.017063
v -7.413344 5.580177 -7.044634
v -7.413344 5.728405 -6.870681
v -6.769909 5.577871 -7.019597
v -6.769909 5.703320 -6.872377
v -6.126609 5.729061 -6.871241
v -6.126609 5.580834 -7.045195
v -7.413344 6.886582 -7.857580
v -7.413344 6.738355 -8.031532
v -6.769909 6.888889 -7.882614
v -6.769909 6.763441 -8.029835
v -6.126609 6.737698 -8.030972
v -6.126609 6.885924 -7.857018
vt 0.145267 0.902311
vt 0.157260 0.901364
vt 0.156484 0.920638
vt 0.148762 0.920748
vt 0.043163 0.901397
vt 0.055154 0.902335
vt 0.051672 0.920776
vt 0.043951 0.920670
vt 0.042304 0.765060
vt 0.054334 0.765180
vt 0.056259 0.783477
vt 0.043772 0.784014
vt 0.146128 0.765177
vt 0.158153 0.765035
vt 0.156726 0.783989
vt 0.144239 0.783477
vt 0.145623 0.890338
vt 0.155264 0.891690
vt 0.054795 0.890365
vt 0.045154 0.891722
vt 0.053410 0.753196
vt 0.043705 0.755241
vt 0.147024 0.753193
vt 0.156731 0.755224
vt 0.043963 0.802151
vt 0.055674 0.801084
vt 0.055638 0.813065
vt 0.046383 0.811554
vt 0.144880 0.813048
vt 0.144857 0.801075
vt 0.156570 0.802137
vt 0.154145 0.811553
vt 0.146294 0.950567
vt 0.145630 0.938580
vt 0.157707 0.939141
vt 0.156003 0.948871
vt 0.042738 0.939172
vt 0.054814 0.938610
vt 0.054161 0.950596
vt 0.044447 0.948899
vt 0.131048 0.901776
vt 0.131242 0.889304
vt 0.068273 0.751444
vt 0.068807 0.763999
vt 0.069744 0.801586
vt 0.069646 0.814217
vt 0.131655 0.952010
vt 0.131306 0.939472
vt 0.069177 0.783195
vt 0.131109 0.920967
vt 0.132704 0.764069
vt 0.133248 0.751542
vt 0.132431 0.783212
vt 0.131788 0.801538
vt 0.131875 0.814131
vt 0.068106 0.939442
vt 0.067748 0.951956
vt 0.068218 0.920975
vt 0.068349 0.901825
vt 0.068139 0.889379
vt 0.100770 0.749621
vt 0.100759 0.762550
vt 0.100792 0.782931
vt 0.100763 0.802769
vt 0.100763 0.815894
vt 0.099700 0.953630
vt 0.099703 0.940716
vt 0.099667 0.921103
vt 0.099695 0.900683
vt 0.099688 0.887710
vt 0.020291 0.763411
vt 0.031373 0.762746
vt 0.033812 0.784684
vt 0.021981 0.785584
vt 0.025623 0.744424
vt 0.027148 0.744420
vt 0.033349 0.805673
vt 0.022722 0.807626
vt 0.170073 0.877334
vt 0.169921 0.878822
vt 0.150756 0.881274
vt 0.151765 0.870123
vt 0.131268 0.879462
vt 0.131811 0.868386
vt 0.167161 0.805655
vt 0.177805 0.807540
vt 0.169118 0.824609
vt 0.168027 0.823481
vt 0.166688 0.784630
vt 0.178513 0.785504
vt 0.169077 0.762687
vt 0.180160 0.763315
vt 0.030492 0.878865
vt 0.030338 0.877377
vt 0.048643 0.870155
vt 0.049660 0.881307
vt 0.173246 0.744351
vt 0.174770 0.744350
vt 0.067373 0.868476
vt 0.067943 0.879550
vt 0.032541 0.823454
vt 0.031467 0.824596
vt 0.050528 0.822234
vt 0.048581 0.833230
vt 0.069537 0.824195
vt 0.068598 0.835254
vt 0.151888 0.833178
vt 0.149979 0.822204
vt 0.133150 0.835145
vt 0.132124 0.824090
vt 0.099603 0.878508
vt 0.099592 0.869066
vt 0.100845 0.825189
vt 0.100876 0.834804
vt 0.168215 0.898093
vt 0.166024 0.920547
vt 0.032206 0.898133
vt 0.034412 0.920584
vt 0.047338 0.744497
vt 0.153087 0.744499
vt 0.168765 0.942019
vt 0.171372 0.960950
vt 0.151913 0.959438
vt 0.029082 0.960982
vt 0.031682 0.942054
vt 0.048539 0.959457
vt 0.068033 0.741467
vt 0.131760 0.961957
vt 0.133672 0.741581
vt 0.067479 0.961894
vt 0.100868 0.740486
vt 0.099618 0.962755
vn -0.154571 -0.737489 -0.657432
vn -0.578502 -0.571149 -0.582344
vn -0.614175 -0.511619 -0.600862
vn -0.207813 -0.634417 -0.744533
vn 0.578503 -0.571148 -0.582343
vn 0.161696 -0.736622 -0.656691
vn 0.216269 -0.633227 -0.743136
vn 0.614177 -0.511618 -0.600861
vn -0.549927 0.511417 0.660328
vn -0.176329 0.540122 0.822907
vn -0.173890 0.638717 0.749535
vn -0.556415 0.539080 0.632293
vn 0.183837 0.540365 0.821103
vn 0.549928 0.511417 0.660327
vn 0.556418 0.539079 0.632292
vn 0.182036 0.637762 0.748413
vn -0.578502 -0.571149 -0.582344
vn -0.154571 -0.737489 -0.657432
vn -0.115126 -0.960620 -0.252895
vn -0.383380 -0.843939 -0.375216
vn 0.119476 -0.959712 -0.254318
vn 0.161696 -0.736622 -0.656691
vn 0.578503 -0.571148 -0.582343
vn 0.383380 -0.843938 -0.375218
vn -0.115126 0.097255 0.988578
vn -0.176329 0.540122 0.822907
vn -0.549927 0.511417 0.660328
vn -0.383378 0.236542 0.892787
vn 0.549928 0.511417 0.660327
vn 0.183837 0.540365 0.821103
vn 0.119477 0.098806 0.987908
vn 0.383377 0.236543 0.892787
vn -0.549460 0.571683 0.609321
vn -0.176104 0.728846 0.661642
vn -0.115127 0.960620 0.252895
vn -0.383378 0.843940 0.375215
vn 0.119476 0.959712 0.254320
vn 0.183596 0.727007 0.661629
vn 0.549461 0.571683 0.609321
vn 0.383378 0.843940 0.375216
vn -0.115128 -0.097256 -0.988578
vn -0.153846 -0.529361 -0.834331
vn -0.577496 -0.483768 -0.657622
vn -0.383380 -0.236542 -0.892786
vn 0.577497 -0.483767 -0.657621
vn 0.160945 -0.528768 -0.833368
vn 0.119477 -0.098805 -0.987908
vn 0.383379 -0.236542 -0.892787
vn -0.207813 -0.634417 -0.744533
vn -0.614175 -0.511619 -0.600862
vn -0.577496 -0.483768 -0.657622
vn -0.153846 -0.529361 -0.834331
vn 0.614177 -0.511618 -0.600861
vn 0.216269 -0.633227 -0.743136
vn 0.160945 -0.528768 -0.833368
vn 0.577497 -0.483767 -0.657621
vn 0.182036 0.637762 0.748413
vn 0.556418 0.539079 0.632292
vn 0.549461 0.571683 0.609321
vn 0.183596 0.727007 0.661629
vn -0.556415 0.539080 0.632293
vn -0.173890 0.638717 0.749535
vn -0.176104 0.728846 0.661642
vn -0.549460 0.571683 0.609321
vn -0.115126 -0.960620 -0.252895
vn -0.154571 -0.737489 -0.657432
vn 0.051840 -0.746507 -0.663356
vn 0.019029 -0.959150 -0.282256
vn -0.176329 0.540122 0.822907
vn -0.115126 0.097255 0.988578
vn 0.019029 0.126478 0.991787
vn 0.053454 0.532773 0.844568
vn -0.115127 0.960620 0.252895
vn -0.176104 0.728846 0.661642
vn 0.053242 0.751560 0.657513
vn 0.019028 0.959152 0.282252
vn -0.153846 -0.529361 -0.834331
vn -0.115128 -0.097256 -0.988578
vn 0.019031 -0.126476 -0.991787
vn 0.051662 -0.533672 -0.844112
vn -0.176329 0.540122 0.822907
vn 0.053454 0.532773 0.844568
vn 0.061485 0.647353 0.759706
vn -0.173890 0.638717 0.749535
vn -0.207813 -0.634417 -0.744533
vn 0.058454 -0.647472 -0.759844
vn 0.051840 -0.746507 -0.663356
vn -0.154571 -0.737489 -0.657432
vn -0.153846 -0.529361 -0.834331
vn 0.051662 -0.533672 -0.844112
vn 0.058454 -0.647472 -0.759844
vn -0.207813 -0.634417 -0.744533
vn -0.173890 0.638717 0.749535
vn 0.061485 0.647353 0.759706
vn 0.053242 0.751560 0.657513
vn -0.176104 0.728846 0.661642
vn -0.054777 0.533081 0.844289
vn -0.019594 0.127080 0.991699
vn 0.119477 0.098806 0.987908
vn 0.183837 0.540365 0.821103
vn -0.062868 0.647297 0.759641
vn -0.054777 0.533081 0.844289
vn 0.183837 0.540365 0.821103
vn 0.182036 0.637762 0.748413
vn -0.054562 0.751229 0.657782
vn -0.062868 0.647297 0.759641
vn 0.182036 0.637762 0.748413
vn 0.183596 0.727007 0.661629
vn -0.019593 0.958969 0.282833
vn -0.054562 0.751229 0.657782
vn 0.183596 0.727007 0.661629
vn 0.119476 0.959712 0.254320
vn -0.052910 -0.534054 -0.843793
vn -0.019596 -0.127076 -0.991699
vn 0.119477 -0.098805 -0.987908
vn 0.160945 -0.528768 -0.833368
vn -0.059687 -0.647425 -0.759789
vn -0.052910 -0.534054 -0.843793
vn 0.160945 -0.528768 -0.833368
vn 0.216269 -0.633227 -0.743136
vn -0.053092 -0.746137 -0.663673
vn -0.059687 -0.647425 -0.759789
vn 0.216269 -0.633227 -0.743136
vn 0.161696 -0.736622 -0.656691
vn -0.019594 -0.958969 -0.282834
vn -0.053092 -0.746137 -0.663673
vn 0.161696 -0.736622 -0.656691
vn 0.119476 -0.959712 -0.254318
vn 0.019029 0.126478 0.991787
vn 0.000364 0.135198 0.990819
vn 0.000159 0.535247 0.844696
vn 0.053454 0.532773 0.844568
vn 0.000364 0.135198 0.990819
vn -0.019594 0.127080 0.991699
vn -0.054777 0.533081 0.844289
vn 0.000159 0.535247 0.844696
vn 0.053454 0.532773 0.844568
vn 0.000159 0.535247 0.844696
vn -0.000072 0.648580 0.761147
vn 0.061485 0.647353 0.759706
vn 0.000159 0.535247 0.844696
vn -0.054777 0.533081 0.844289
vn -0.062868 0.647297 0.759641
vn -0.000072 0.648580 0.761147
vn 0.061485 0.647353 0.759706
vn -0.000072 0.648580 0.761147
vn 0.000161 0.751226 0.660045
vn 0.053242 0.751560 0.657513
vn -0.000072 0.648580 0.761147
vn -0.062868 0.647297 0.759641
vn -0.054562 0.751229 0.657782
vn 0.000161 0.751226 0.660045
vn 0.053242 0.751560 0.657513
vn 0.000161 0.751226 0.660045
vn 0.000364 0.956812 0.290708
vn 0.019028 0.959152 0.282252
vn 0.000161 0.751226 0.660045
vn -0.054562 0.751229 0.657782
vn -0.019593 0.958969 0.282833
vn 0.000364 0.956812 0.290708
vn 0.019031 -0.126476 -0.991787
vn 0.000364 -0.135194 -0.990819
vn 0.000161 -0.532474 -0.846446
vn 0.051662 -0.533672 -0.844112
vn 0.000364 -0.135194 -0.990819
vn -0.019596 -0.127076 -0.991699
vn -0.052910 -0.534054 -0.843793
vn 0.000161 -0.532474 -0.846446
vn 0.051662 -0.533672 -0.844112
vn 0.000161 -0.532474 -0.846446
vn -0.000071 -0.648581 -0.761145
vn 0.058454 -0.647472 -0.759844
vn 0.000161 -0.532474 -0.846446
vn -0.052910 -0.534054 -0.843793
vn -0.059687 -0.647425 -0.759789
vn -0.000071 -0.648581 -0.761145
vn 0.058454 -0.647472 -0.759844
vn -0.000071 -0.648581 -0.761145
vn 0.000158 -0.749057 -0.662506
vn 0.051840 -0.746507 -0.663356
vn -0.000071 -0.648581 -0.761145
vn -0.059687 -0.647425 -0.759789
vn -0.053092 -0.746137 -0.663673
vn 0.000158 -0.749057 -0.662506
vn -0.019594 -0.958969 -0.282834
vn 0.000364 -0.956811 -0.290710
vn 0.000158 -0.749057 -0.662506
vn -0.053092 -0.746137 -0.663673
vn 0.000364 -0.956811 -0.290710
vn 0.019029 -0.959150 -0.282256
vn 0.051840 -0.746507 -0.663356
vn 0.000158 -0.749057 -0.662506
vn -0.976993 0.162330 -0.138324
vn -0.976993 0.162330 -0.138324
vn -1.000000 0.000019 -0.000016
vn -1.000000 0.000019 -0.000016
vn -0.976993 0.162330 -0.138324
vn -0.976993 0.162330 -0.138324
vn -0.989467 0.110185 -0.093889
vn -0.989467 0.110185 -0.093889
vn -1.000000 0.000019 -0.000016
vn -1.000000 0.000019 -0.000016
vn -0.975701 -0.166770 0.142108
vn -0.975701 -0.166770 0.142108
vn 0.115944 -0.756013 0.644206
vn 0.115944 -0.756013 0.644206
vn -0.002711 -0.761141 0.648580
vn -0.002711 -0.761141 0.648580
vn -0.002711 -0.761141 0.648580
vn -0.002711 -0.761141 0.648580
vn -0.039608 -0.760547 0.648074
vn -0.039608 -0.760547 0.648074
vn 0.975700 -0.166775 0.142110
vn 0.975700 -0.166775 0.142110
vn 0.989466 -0.110187 0.093894
vn 0.989466 -0.110187 0.093894
vn 0.975700 -0.166775 0.142110
vn 0.975700 -0.166775 0.142110
vn 1.000000 0.000016 -0.000016
vn 1.000000 0.000016 -0.000016
vn 1.000000 0.000016 -0.000016
vn 1.000000 0.000016 -0.000016
vn 0.976993 0.162330 -0.138327
vn 0.976993 0.162330 -0.138327
vn -0.115944 -0.756011 0.644209
vn -0.115944 -0.756011 0.644209
vn 0.001245 -0.761146 0.648580
vn 0.001246 -0.761146 0.648580
vn 0.989466 0.110187 -0.093896
vn 0.989466 0.110187 -0.093896
vn 0.976993 0.162330 -0.138327
vn 0.976993 0.162330 -0.138327
vn 0.001246 -0.761146 0.648580
vn 0.001245 -0.761146 0.648580
vn 0.040542 -0.760521 0.648047
vn 0.040542 -0.760521 0.648047
vn -0.989467 -0.110180 0.093890
vn -0.989467 -0.110180 0.093890
vn -0.975701 -0.166770 0.142108
vn -0.975701 -0.166770 0.142108
vn 0.115947 0.756014 -0.644205
vn 0.115947 0.756014 -0.644205
vn -0.002711 0.761145 -0.648576
vn -0.002711 0.761145 -0.648576
vn -0.002711 0.761145 -0.648576
vn -0.002711 0.761145 -0.648576
vn -0.039608 0.760550 -0.648070
vn -0.039608 0.760550 -0.648070
vn -0.115947 0.756014 -0.644204
vn -0.115947 0.756014 -0.644204
vn 0.001244 0.761149 -0.648576
vn 0.001244 0.761149 -0.648576
vn 0.001244 0.761149 -0.648576
vn 0.001244 0.761149 -0.648576
vn 0.040542 0.760522 -0.648045
vn 0.040542 0.760522 -0.648045
vn -0.039608 -0.760547 0.648074
vn -0.039608 -0.760547 0.648074
vn 0.000671 -0.761145 0.648582
vn 0.000671 -0.761145 0.648582
vn 0.000671 -0.761145 0.648582
vn 0.000671 -0.761145 0.648582
vn 0.040542 -0.760521 0.648047
vn 0.040542 -0.760521 0.648047
vn -0.039608 0.760550 -0.648070
vn -0.039608 0.760550 -0.648070
vn 0.000672 0.761147 -0.648580
vn 0.000672 0.761147 -0.648579
vn 0.000672 0.761147 -0.648579
vn 0.000672 0.761147 -0.648580
vn 0.040542 0.760522 -0.648045
vn 0.040542 0.760522 -0.648045
vn -0.578502 -0.571149 -0.582344
vn -0.646739 -0.538469 -0.540167
vn -0.740793 -0.436140 -0.510890
vn -0.614175 -0.511619 -0.600862
vn 0.646741 -0.538467 -0.540166
vn 0.578503 -0.571148 -0.582343
vn 0.614177 -0.511618 -0.600861
vn 0.740796 -0.436137 -0.510888
vn -0.646738 0.447877 0.617362
vn -0.549927 0.511417 0.660328
vn -0.556415 0.539080 0.632293
vn -0.740792 0.435208 0.511685
vn 0.549928 0.511417 0.660327
vn 0.646738 0.447878 0.617362
vn 0.740794 0.435207 0.511684
vn 0.556418 0.539079 0.632292
vn -0.564638 -0.668116 -0.484567
vn -0.646739 -0.538469 -0.540167
vn -0.578502 -0.571149 -0.582344
vn -0.383380 -0.843939 -0.375216
vn -0.115126 -0.960620 -0.252895
vn -0.133929 -0.986947 -0.089438
vn -0.186906 -0.969868 -0.156274
vn -0.383380 -0.843939 -0.375216
vn 0.578503 -0.571148 -0.582343
vn 0.646741 -0.538467 -0.540166
vn 0.564639 -0.668115 -0.484568
vn 0.383380 -0.843938 -0.375218
vn 0.186906 -0.969868 -0.156279
vn 0.136548 -0.986315 -0.092398
vn 0.119476 -0.959712 -0.254318
vn 0.383380 -0.843938 -0.375218
vn -0.549927 0.511417 0.660328
vn -0.646738 0.447877 0.617362
vn -0.564635 0.372411 0.736544
vn -0.383378 0.236542 0.892787
vn -0.186903 0.000388 0.982378
vn -0.133928 -0.068312 0.988634
vn -0.115126 0.097255 0.988578
vn -0.383378 0.236542 0.892787
vn 0.564635 0.372413 0.736544
vn 0.646738 0.447878 0.617362
vn 0.549928 0.511417 0.660327
vn 0.383377 0.236543 0.892787
vn 0.119477 0.098806 0.987908
vn 0.136547 -0.065290 0.988480
vn 0.186903 0.000388 0.982378
vn 0.383377 0.236543 0.892787
vn -0.115127 0.960620 0.252895
vn -0.133926 0.986947 0.089436
vn -0.186902 0.969870 0.156271
vn -0.383378 0.843940 0.375215
vn -0.564636 0.668117 0.484568
vn -0.645141 0.540375 0.540174
vn -0.549460 0.571683 0.609321
vn -0.383378 0.843940 0.375215
vn 0.549461 0.571683 0.609321
vn 0.645141 0.540375 0.540175
vn 0.564635 0.668116 0.484570
vn 0.383378 0.843940 0.375216
vn 0.186902 0.969869 0.156273
vn 0.136544 0.986316 0.092396
vn 0.119476 0.959712 0.254320
vn 0.383378 0.843940 0.375216
vn -0.577496 -0.483768 -0.657622
vn -0.645143 -0.447580 -0.619244
vn -0.564637 -0.372409 -0.736544
vn -0.383380 -0.236542 -0.892786
vn -0.186907 -0.000390 -0.982378
vn -0.133930 0.068310 -0.988634
vn -0.115128 -0.097256 -0.988578
vn -0.383380 -0.236542 -0.892786
vn 0.564637 -0.372410 -0.736543
vn 0.645144 -0.447579 -0.619244
vn 0.577497 -0.483767 -0.657621
vn 0.383379 -0.236542 -0.892787
vn 0.119477 -0.098805 -0.987908
vn 0.136547 0.065289 -0.988480
vn 0.186905 -0.000389 -0.982378
vn 0.383379 -0.236542 -0.892787
vn 0.740796 -0.436137 -0.510888
vn 0.614177 -0.511618 -0.600861
vn 0.577497 -0.483767 -0.657621
vn 0.645144 -0.447579 -0.619244
vn 0.556418 0.539079 0.632292
vn 0.740794 0.435207 0.511684
vn 0.645141 0.540375 0.540175
vn 0.549461 0.571683 0.609321
vn -0.740792 0.435208 0.511685
vn -0.556415 0.539080 0.632293
vn -0.549460 0.571683 0.609321
vn -0.645141 0.540375 0.540174
vn -0.614175 -0.511619 -0.600862
vn -0.740793 -0.436140 -0.510890
vn -0.645143 -0.447580 -0.619244
vn -0.577496 -0.483768 -0.657622
vn 0.019029 -0.959150 -0.282256
vn 0.000364 -0.956811 -0.290710
vn 0.000427 -0.999754 -0.022163
vn -0.007448 -0.999951 -0.006475
vn 0.000364 -0.956811 -0.290710
vn -0.019594 -0.958969 -0.282834
vn 0.007831 -0.999946 -0.006896
vn 0.000427 -0.999754 -0.022163
vn -0.133929 -0.986947 -0.089438
vn -0.115126 -0.960620 -0.252895
vn 0.019029 -0.959150 -0.282256
vn -0.007448 -0.999951 -0.006475
vn -0.115126 0.097255 0.988578
vn -0.133928 -0.068312 0.988634
vn -0.007449 -0.152285 0.988309
vn 0.019029 0.126478 0.991787
vn -0.133926 0.986947 0.089436
vn -0.115127 0.960620 0.252895
vn 0.019028 0.959152 0.282252
vn -0.007448 0.999951 0.006479
vn -0.115128 -0.097256 -0.988578
vn -0.133930 0.068310 -0.988634
vn -0.007447 0.152284 -0.988309
vn 0.019031 -0.126476 -0.991787
vn 0.007831 -0.999946 -0.006896
vn -0.019594 -0.958969 -0.282834
vn 0.119476 -0.959712 -0.254318
vn 0.136548 -0.986315 -0.092398
vn -0.019594 0.127080 0.991699
vn 0.007832 -0.151867 0.988370
vn 0.136547 -0.065290 0.988480
vn 0.119477 0.098806 0.987908
vn 0.007831 0.999946 0.006902
vn -0.019593 0.958969 0.282833
vn 0.119476 0.959712 0.254320
vn 0.136544 0.986316 0.092396
vn -0.019596 -0.127076 -0.991699
vn 0.007830 0.151867 -0.988370
vn 0.136547 0.065289 -0.988480
vn 0.119477 -0.098805 -0.987908
vn -0.007449 -0.152285 0.988309
vn 0.000427 -0.136764 0.990604
vn 0.000364 0.135198 0.990819
vn 0.019029 0.126478 0.991787
vn 0.000427 -0.136764 0.990604
vn 0.007832 -0.151867 0.988370
vn -0.019594 0.127080 0.991699
vn 0.000364 0.135198 0.990819
vn 0.019028 0.959152 0.282252
vn 0.000364 0.956812 0.290708
vn 0.000428 0.999754 0.022167
vn -0.007448 0.999951 0.006479
vn 0.000364 0.956812 0.290708
vn -0.019593 0.958969 0.282833
vn 0.007831 0.999946 0.006902
vn 0.000428 0.999754 0.022167
vn -0.007447 0.152284 -0.988309
vn 0.000428 0.136765 -0.990604
vn 0.000364 -0.135194 -0.990819
vn 0.019031 -0.126476 -0.991787
vn 0.000428 0.136765 -0.990604
vn 0.007830 0.151867 -0.988370
vn -0.019596 -0.127076 -0.991699
vn 0.000364 -0.135194 -0.990819
s off
g Nut1:pillowOBJ_UV1 Nut1:bed Nut1:Nut
usemtl lambert27SG
f 2/1/1 1/2/2 33/3/3 34/4/4
f 4/5/5 6/6/6 35/7/7 36/8/8
f 7/9/9 9/10/10 39/11/11 40/12/12
f 11/13/13 10/14/14 37/15/15 38/16/16
f 1/2/17 2/1/18 3/17/19 25/18/20
f 5/19/21 6/6/22 4/5/23 26/20/24
f 8/21/25 9/10/26 7/9/27 27/22/28
f 10/14/29 11/13/30 12/23/31 28/24/32
f 13/25/33 14/26/34 15/27/35 29/28/36
f 16/29/37 17/30/38 18/31/39 30/32/40
f 20/33/41 21/34/42 19/35/43 31/36/44
f 22/37/45 23/38/46 24/39/47 32/40/48
f 34/4/49 33/3/50 19/35/51 21/34/52
f 36/8/53 35/7/54 23/38/55 22/37/56
f 38/16/57 37/15/58 18/31/59 17/30/60
f 40/12/61 39/11/62 14/26/63 13/25/64
f 3/17/65 2/1/66 68/41/67 43/42/68
f 9/10/69 8/21/70 44/43/71 47/44/72
f 15/27/73 14/26/74 53/45/75 56/46/76
f 21/34/77 20/33/78 59/47/79 62/48/80
f 9/10/81 47/44/82 50/49/83 39/11/84
f 34/4/85 65/50/86 68/41/87 2/1/88
f 21/34/89 62/48/90 65/50/91 34/4/92
f 39/11/93 50/49/94 53/45/95 14/26/96
f 49/51/97 46/52/98 12/23/99 11/13/100
f 52/53/101 49/51/102 11/13/103 38/16/104
f 55/54/105 52/53/106 38/16/107 17/30/108
f 58/55/109 55/54/110 17/30/111 16/29/112
f 64/56/113 61/57/114 24/39/115 23/38/116
f 67/58/117 64/56/118 23/38/119 35/7/120
f 70/59/121 67/58/122 35/7/123 6/6/124
f 41/60/125 70/59/126 6/6/127 5/19/128
f 44/43/129 45/61/130 48/62/131 47/44/132
f 45/61/133 46/52/134 49/51/135 48/62/136
f 47/44/137 48/62/138 51/63/139 50/49/140
f 48/62/141 49/51/142 52/53/143 51/63/144
f 50/49/145 51/63/146 54/64/147 53/45/148
f 51/63/149 52/53/150 55/54/151 54/64/152
f 53/45/153 54/64/154 57/65/155 56/46/156
f 54/64/157 55/54/158 58/55/159 57/65/160
f 59/47/161 60/66/162 63/67/163 62/48/164
f 60/66/165 61/57/166 64/56/167 63/67/168
f 62/48/169 63/67/170 66/68/171 65/50/172
f 63/67/173 64/56/174 67/58/175 66/68/176
f 65/50/177 66/68/178 69/69/179 68/41/180
f 66/68/181 67/58/182 70/59/183 69/69/184
f 41/60/185 42/70/186 69/69/187 70/59/188
f 42/70/189 43/42/190 68/41/191 69/69/192
f 71/71/193 72/72/194 73/73/195 74/74/196
f 72/72/197 71/71/198 75/75/199 76/76/200
f 74/74/201 73/73/202 91/77/203 92/78/204
f 76/79/205 75/80/206 78/81/207 77/82/208
f 77/82/209 78/81/210 99/83/211 100/84/212
f 79/85/213 80/86/214 96/87/215 95/88/216
f 80/86/217 79/85/218 82/89/219 81/90/220
f 81/90/221 82/89/222 87/91/223 88/92/224
f 83/93/225 84/94/226 86/95/227 85/96/228
f 84/97/229 83/98/230 88/92/231 87/91/232
f 85/96/233 86/95/234 103/99/235 104/100/236
f 89/101/237 90/102/238 92/78/239 91/77/240
f 90/102/241 89/101/242 94/103/243 93/104/244
f 93/104/245 94/103/246 105/105/247 106/106/248
f 95/88/249 96/87/250 98/107/251 97/108/252
f 97/108/253 98/107/254 109/109/255 110/110/256
f 100/84/257 99/83/258 101/111/259 102/112/260
f 102/112/261 101/111/262 104/100/263 103/99/264
f 106/106/265 105/105/266 107/113/267 108/114/268
f 108/114/269 107/113/270 110/110/271 109/109/272
f 1/2/273 71/115/274 74/116/275 33/3/276
f 88/117/277 4/5/278 36/8/279 81/118/280
f 72/72/281 7/9/282 40/12/283 73/73/284
f 10/14/285 87/91/286 82/89/287 37/15/288
f 75/80/289 71/115/290 1/2/291 25/18/292
f 3/17/293 78/81/294 75/80/295 25/18/296
f 4/5/297 88/117/298 83/93/299 26/20/300
f 83/93/301 85/96/302 5/19/303 26/20/304
f 7/9/305 72/72/306 76/76/307 27/22/308
f 76/76/309 77/119/310 8/21/311 27/22/312
f 84/97/313 87/91/314 10/14/315 28/24/316
f 12/23/317 86/120/318 84/97/319 28/24/320
f 15/27/321 94/103/322 89/101/323 29/28/324
f 89/101/325 91/77/326 13/25/327 29/28/328
f 18/31/329 79/85/330 95/88/331 30/32/332
f 95/88/333 97/108/334 16/29/335 30/32/336
f 19/35/337 92/121/338 90/122/339 31/36/340
f 90/122/341 93/123/342 20/33/343 31/36/344
f 96/124/345 80/125/346 22/37/347 32/40/348
f 24/39/349 98/126/350 96/124/351 32/40/352
f 81/118/353 36/8/354 22/37/355 80/125/356
f 37/15/357 82/89/358 79/85/359 18/31/360
f 73/73/361 40/12/362 13/25/363 91/77/364
f 33/3/365 74/116/366 92/121/367 19/35/368
f 43/42/369 42/70/370 101/111/371 99/83/372
f 42/70/373 41/60/374 104/100/375 101/111/376
f 78/81/377 3/17/378 43/42/379 99/83/380
f 8/21/381 77/119/382 100/127/383 44/43/384
f 94/103/385 15/27/386 56/46/387 105/105/388
f 20/33/389 93/123/390 106/128/391 59/47/392
f 104/100/393 41/60/394 5/19/395 85/96/396
f 46/52/397 103/129/398 86/120/399 12/23/400
f 110/110/401 58/55/402 16/29/403 97/108/404
f 61/57/405 109/130/406 98/126/407 24/39/408
f 100/127/409 102/131/410 45/61/411 44/43/412
f 102/131/413 103/129/414 46/52/415 45/61/416
f 56/46/417 57/65/418 107/113/419 105/105/420
f 57/65/421 58/55/422 110/110/423 107/113/424
f 106/128/425 108/132/426 60/66/427 59/47/428
f 108/132/429 109/130/430 61/57/431 60/66/432
