#File written by LIBUNFOLD3D. Compilation :Dec 22 2011,11:53:02
mtllib Plantpot.mtl
#begin vertices
v -24.919284999999999 -5.3338710000000003 57.335068
v -29.254660000000001 -5.3338710000000003 56.345547000000003
v -32.731361 -5.3338710000000003 59.118125999999997
v -32.731361 -5.3338710000000003 63.564990999999999
v -29.254660000000001 -5.3338710000000003 66.337567000000007
v -24.919284999999999 -5.3338710000000003 65.348045999999997
v -22.989861000000001 -5.3338710000000003 61.341557000000002
v -24.207198999999999 5.2032020000000001 56.365113000000001
v -29.592155000000002 5.2032020000000001 55.136029000000001
v -33.910553 5.2032020000000001 58.579833999999998
v -33.910553 5.2032020000000001 64.103275999999994
v -29.592155000000002 5.2032020000000001 67.547084999999996
v -24.207198999999999 5.2032020000000001 66.318000999999995
v -21.810666999999999 5.2032020000000001 61.341557000000002
v -28.114353000000001 -5.3338710000000003 61.341557000000002
v -28.175782999999999 5.2032020000000001 61.341557000000002
v -24.391054 2.2702209999999998 56.615546999999999
v -22.115127999999999 2.2702209999999998 61.341557000000002
v -24.391054 2.2702209999999998 66.067565999999999
v -29.505016000000001 2.2702209999999998 67.234795000000005
v -33.606093999999999 2.270222 63.964295
v -33.606093999999999 2.270222 58.718814999999999
v -29.505016000000001 2.2702209999999998 55.448318999999998
v -23.120241 2.643761 54.884529000000001
v -20.0107 2.643761 61.341557000000002
v -22.869043000000001 5.6537769999999998 54.542358999999998
v -19.594722999999998 5.6537769999999998 61.341557000000002
v -23.120241 2.643761 67.798587999999995
v -22.869043000000001 5.6537769999999998 68.140754999999999
v -30.107320999999999 2.643761 69.393341000000007
v -30.226375999999998 5.6537769999999998 69.820010999999994
v -35.710521999999997 2.643761 64.924938999999995
v -36.126499000000003 5.6537769999999998 65.114823000000001
v -35.710521999999997 2.643761 57.758175000000001
v -36.126494999999998 5.6537769999999998 57.568283000000001
v -30.107319 2.643761 53.289769
v -30.226375999999998 5.6537769999999998 52.863098000000001
#end vertices

#begin 81 textures vertices 
vt 0.5389661478074903 0.40798321868162246 0
vt 0.64757284732950382 0.40798321121245296 0
vt 0.65732514399620123 0.59492428722234869 0
vt 0.52921370589121475 0.59492429603291053 0
vt 0.75553628550014529 0.39617970975282868 0
vt 0.78467761829216753 0.58100098350718121 0
vt 0.43100266590471176 0.39617969688938581 0
vt 0.4018612958800663 0.58100096477315355 0
vt 0.11163894009587322 0.4236399232287294 0
vt 0.22011210780054596 0.42902514743902326 0
vt 0.22011210900138295 0.61596619985641299 0
vt 0.09215839728375233 0.6096138523184762 0
vt 0.32858527543603377 0.42363992183515009 0
vt 0.34806584266905277 0.60961385067462681 0
vt 0.28707437302487304 0.72527905960618899 0
vt 0.46180060278416668 0.71488245878217394 0
vt 0.47105965813527584 0.78854445717128097 0
vt 0.28707437297089833 0.7994919886590699 0
vt 0.11234807715029763 0.71488245852801979 0
vt 0.10308908782244582 0.78854445690365282 0
vt 0.19938358840920664 0.63460615922875763 0
vt 0.37441894124613395 0.63460616268989323 0
vt 0.37905651580851685 0.70881909183447722 0
vt 0.19474581552619011 0.70881907481618522 0
vt 0.54796825999681431 0.61184672964911757 0
vt 0.56180245236178061 0.68485360166978482 0
vt 0.025834170659195951 0.61184671894892795 0
vt 0.012000000000000455 0.68485360051417099 0
vt 0.80403357690454347 0.83531293446547672 0
vt 0.69663987174156106 0.81912592962068964 0
vt 0.76714304879028694 0.71571676859869282 0
vt 0.64233648773132179 0.72506971644623897 0
vt 0.88364796772612419 0.7614415237209945 0
vt 0.68201501422640975 0.62397054094584303 0
vt 0.87553178832139922 0.65313850985279553 0
vt 0.78579667811503684 0.5919581484237777 0
vt 0.098665138680854012 0.30407382621319468 0
vt 0.068629982579614474 0.1726136604464395 0
vt 0.22014058294830605 0.20710295103548718 0
vt 0.05318054636727463 0.3374803158032893 0
vt 0.012000000000000455 0.15683936981202323 0
vt 0.15268920639455968 0.067101902281559517 0
vt 0.22013788650352714 0.36249672309583847 0
vt 0.22013445290680164 0.41793486704898158 0
vt 0.12751452275065078 0.01204645930250183 0
vt 0.28760485095758059 0.067149110664387446 0
vt 0.34161966899954238 0.30408489521722637 0
vt 0.38710289067566345 0.33749600296944876 0
vt 0.31274258406786631 0.012000000000000455 0
vt 0.37167111802419567 0.17262518404033422 0
vt 0.42830445322082733 0.15683511791010377 0
vt 0.6429994127426274 0.34469676763392076 0
vt 0.75838871372455707 0.28913901629741789 0
vt 0.8013773867024323 0.32069252117277397 0
vt 0.64299730740792149 0.39705252067375946 0
vt 0.78690479468367525 0.16427865868160232 0
vt 0.84043402846467918 0.14933882405935608 0
vt 0.52761530090964959 0.28913903044194589 0
vt 0.48462458785173906 0.32068768310895407 0
vt 0.7070615573733775 0.064144970757814612 0
vt 0.73083035535421281 0.012000000000000455 0
vt 0.49911071984842542 0.16426562211143569 0
vt 0.44558405803484008 0.14933605328815738 0
vt 0.5789503593298011 0.064116455994832289 0
vt 0.55515192994068896 0.012039685035187755 0
vt 0.020667275571078947 0.80120954777643005 0
vt 0.1292740296634407 0.80120954820067403 0
vt 0.14011136386667591 0.98799999949956707 0
vt 0.012000000000000455 0.98800000000000043 0
vt 0.5292926643549325 0.70051323732636595 0
vt 0.63789941844729448 0.7005132379829544 0
vt 0.64656669759414664 0.88730368774290214 0
vt 0.51845532829279639 0.88730368851740815 0
vt 0.66570791443668142 0.84624363048502782 0
vt 0.84074329764722133 0.84624362366127559 0
vt 0.8448649790640721 0.92037074845620503 0
vt 0.66055430529581116 0.92037074127086704 0
vt 0.32218099229950747 0.8083622053162719 0
vt 0.49721636593107071 0.80836221627745708 0
vt 0.50237003602497743 0.8824893281750098 0
vt 0.31805933508341666 0.88248933971700771 0
#end 81 textures vertices 

#begin 128 normals 
vn 0.22124199999999999 -0.107089 -0.96932200000000002
vn 0.22124199999999999 -0.107089 -0.96932200000000002
vn 0.22124199999999999 -0.107089 -0.96932099999999999
vn 0.22124199999999999 -0.107089 -0.96932099999999999
vn -0.61956199999999995 -0.112068 -0.77690599999999999
vn -0.61956199999999995 -0.112068 -0.77690599999999999
vn -0.61956199999999995 -0.112068 -0.77690599999999999
vn -0.61956199999999995 -0.112068 -0.77690599999999999
vn -0.99344900000000003 -0.11428099999999999 0
vn -0.99344900000000003 -0.11428099999999999 0
vn -0.99344900000000003 -0.11428099999999999 0
vn -0.99344900000000003 -0.11428099999999999 0
vn -0.61956199999999995 -0.112068 0.77690700000000001
vn -0.61956199999999995 -0.112068 0.77690700000000001
vn -0.61956199999999995 -0.112068 0.77690700000000001
vn -0.61956199999999995 -0.112068 0.77690700000000001
vn 0.22124099999999999 -0.107089 0.96932200000000002
vn 0.22124099999999999 -0.107089 0.96932200000000002
vn 0.22124099999999999 -0.107089 0.96932200000000002
vn 0.22124099999999999 -0.107089 0.96932200000000002
vn 0.89616799999999996 -0.103091 0.43157200000000001
vn 0.89616799999999996 -0.103091 0.43157200000000001
vn 0.89616799999999996 -0.10309 0.43157200000000001
vn 0.89616799999999996 -0.103091 0.43157200000000001
vn 0.89616799999999996 -0.10309 -0.43157200000000001
vn 0.89616799999999996 -0.10309 -0.43157200000000001
vn 0.89616799999999996 -0.10309 -0.43157200000000001
vn 0.89616799999999996 -0.10309 -0.43157200000000001
vn 0 -1 0
vn 0 -1 0
vn 0 -1 -0
vn 0 -1 0
vn 0 -1 -0
vn 0 -1 -0
vn 0 -1 -0
vn 0 -1 0
vn 0 1 0
vn 0 1 0
vn 0 1 0
vn 0 1 0
vn 0 1 0
vn 0 1 0
vn 0 1 0
vn 0 1 0
vn 0.894065 -0.123558 -0.43055900000000003
vn 0.894065 -0.123558 -0.43055900000000003
vn 0.894065 -0.123558 -0.43055900000000003
vn 0.894065 -0.123558 -0.43055900000000003
vn 0.894065 -0.123558 0.43055900000000003
vn 0.894065 -0.123558 0.43055900000000003
vn 0.894065 -0.123558 0.43055900000000003
vn 0.894065 -0.123558 0.43055900000000003
vn 0.22067999999999999 -0.128326 0.96686799999999995
vn 0.22067999999999999 -0.128326 0.96686799999999995
vn 0.22067999999999999 -0.128326 0.96686799999999995
vn 0.22067999999999999 -0.128326 0.96686799999999995
vn -0.61784399999999995 -0.13425899999999999 0.77475300000000002
vn -0.61784499999999998 -0.13425899999999999 0.77475300000000002
vn -0.61784399999999995 -0.13425899999999999 0.77475300000000002
vn -0.61784399999999995 -0.13425899999999999 0.77475300000000002
vn -0.99058599999999997 -0.13689499999999999 -0
vn -0.99058599999999997 -0.13689499999999999 -0
vn -0.99058599999999997 -0.13689499999999999 -0
vn -0.99058599999999997 -0.13689499999999999 -0
vn -0.61784499999999998 -0.13425999999999999 -0.77475300000000002
vn -0.61784499999999998 -0.13425999999999999 -0.77475300000000002
vn -0.61784499999999998 -0.13425999999999999 -0.77475300000000002
vn -0.61784499999999998 -0.13425999999999999 -0.77475300000000002
vn 0.22068099999999999 -0.128326 -0.96686700000000003
vn 0.22068099999999999 -0.128326 -0.96686700000000003
vn 0.22068099999999999 -0.128326 -0.96686700000000003
vn 0.22068099999999999 -0.128326 -0.96686700000000003
vn 0.174154 -0.98114000000000001 -0.083867999999999998
vn 0.174154 -0.98114000000000001 -0.083867999999999998
vn 0.174154 -0.98114000000000001 -0.083867999999999998
vn 0.174154 -0.98114000000000001 -0.083867999999999998
vn -0.19834499999999999 0.97546699999999997 0.095518000000000006
vn -0.19834499999999999 0.97546699999999997 0.095518000000000006
vn -0.19834499999999999 0.97546699999999997 0.095518000000000006
vn -0.19834499999999999 0.97546699999999997 0.095518000000000006
vn 0.174154 -0.98114000000000001 0.083867999999999998
vn 0.174154 -0.98114000000000001 0.083867999999999998
vn 0.174154 -0.98114000000000001 0.083867999999999998
vn 0.174154 -0.98114000000000001 0.083867999999999998
vn -0.19834499999999999 0.97546699999999997 -0.095518000000000006
vn -0.19834499999999999 0.97546699999999997 -0.095518000000000006
vn -0.19834499999999999 0.97546699999999997 -0.095518000000000006
vn -0.19834499999999999 0.97546699999999997 -0.095518000000000006
vn 0.041445999999999997 -0.98250099999999996 0.181588
vn 0.041445999999999997 -0.98250099999999996 0.181588
vn 0.041445999999999997 -0.98250099999999996 0.181588
vn 0.041445999999999997 -0.98250099999999996 0.181588
vn -0.047223000000000001 0.97722299999999995 -0.206897
vn -0.047223000000000001 0.97722200000000004 -0.206897
vn -0.047223000000000001 0.97722200000000004 -0.206897
vn -0.047223000000000001 0.97722299999999995 -0.206897
vn -0.111079 -0.98400200000000004 0.139288
vn -0.111079 -0.98400200000000004 0.139288
vn -0.111079 -0.98400200000000004 0.139288
vn -0.111079 -0.98400200000000004 0.139288
vn 0.12661800000000001 0.97916199999999998 -0.158774
vn 0.12661800000000001 0.97916199999999998 -0.158774
vn 0.12661800000000001 0.97916199999999998 -0.158774
vn 0.12661800000000001 0.97916199999999998 -0.158774
vn -0.17477000000000001 -0.98460899999999996 0
vn -0.17477000000000001 -0.98460899999999996 0
vn -0.17477000000000001 -0.98460899999999996 0
vn -0.17477000000000001 -0.98460899999999996 0
vn 0.19925599999999999 0.97994800000000004 0
vn 0.19925599999999999 0.97994700000000001 0
vn 0.19925599999999999 0.97994800000000004 0
vn 0.19925599999999999 0.97994800000000004 0
vn -0.111079 -0.98400200000000004 -0.139288
vn -0.111079 -0.98400200000000004 -0.139288
vn -0.111079 -0.98400200000000004 -0.139288
vn -0.111079 -0.98400200000000004 -0.139288
vn 0.12661800000000001 0.97916199999999998 0.158774
vn 0.12661800000000001 0.97916199999999998 0.158774
vn 0.12661800000000001 0.97916199999999998 0.158774
vn 0.12661800000000001 0.97916199999999998 0.158774
vn 0.041445999999999997 -0.98250099999999996 -0.181588
vn 0.041445999999999997 -0.98250099999999996 -0.181588
vn 0.041445999999999997 -0.98250099999999996 -0.181588
vn 0.041445999999999997 -0.98250099999999996 -0.181588
vn -0.047223000000000001 0.97722299999999995 0.206897
vn -0.047223000000000001 0.97722299999999995 0.206897
vn -0.047223000000000001 0.97722299999999995 0.206897
vn -0.047223000000000001 0.97722299999999995 0.206897
#end 128 normals 

#begin 42 faces
usemtl initialShadingGroup
g polySurface4 pasted__pCylinder18 group38
s off
f 1/66/1 2/67/2 23/68/3 17/69/4 
f 2/7/5 3/1/6 22/4/7 23/8/8 
f 3/1/9 4/2/10 21/3/11 22/4/12 
f 4/2/13 5/5/14 20/6/15 21/3/16 
f 5/70/17 6/71/18 19/72/19 20/73/20 
f 6/9/21 7/10/22 18/11/23 19/12/24 
f 7/10/25 1/13/26 17/14/27 18/11/28 
s 1
f 2/29/29 1/30/30 15/31/31 
f 3/33/32 2/29/29 15/31/31 
f 4/35/33 3/33/32 15/31/31 
f 5/36/34 4/35/33 15/31/31 
f 6/34/35 5/36/34 15/31/31 
f 7/32/36 6/34/35 15/31/31 
f 1/30/30 7/32/36 15/31/31 
s 2
f 8/37/37 9/38/38 16/39/39 
f 9/38/38 10/42/40 16/39/39 
f 10/42/40 11/46/41 16/39/39 
f 11/46/41 12/50/42 16/39/39 
f 12/50/42 13/47/43 16/39/39 
f 13/47/43 14/43/44 16/39/39 
f 14/43/44 8/37/37 16/39/39 
s off
f 25/15/45 24/16/46 26/17/47 27/18/48 
f 28/19/49 25/15/50 27/18/51 29/20/52 
f 30/74/53 28/75/54 29/76/55 31/77/56 
f 32/22/57 30/25/58 31/26/59 33/23/60 
f 34/21/61 32/22/62 33/23/63 35/24/64 
f 36/27/65 34/21/66 35/24/67 37/28/68 
f 24/78/69 36/79/70 37/80/71 26/81/72 
f 18/52/73 17/53/74 24/54/75 25/55/76 
f 8/37/77 14/43/78 27/44/79 26/40/80 
f 19/58/81 18/52/82 25/55/83 28/59/84 
f 14/43/85 13/47/86 29/48/87 27/44/88 
f 20/62/89 19/58/90 28/59/91 30/63/92 
f 13/47/93 12/50/94 31/51/95 29/48/96 
f 21/64/97 20/62/98 30/63/99 32/65/100 
f 12/50/101 11/46/102 33/49/103 31/51/104 
f 22/60/105 21/64/106 32/65/107 34/61/108 
f 11/46/109 10/42/110 35/45/111 33/49/112 
f 23/56/113 22/60/114 34/61/115 36/57/116 
f 10/42/117 9/38/118 37/41/119 35/45/120 
f 17/53/121 23/56/122 36/57/123 24/54/124 
f 9/38/125 8/37/126 26/40/127 37/41/128 
#end 42 faces
#begin 1 properties
#U3D SYM 0 0 0 1 0 0 0.0001 1
#end 1 properties
