# This file uses centimeters as units for non-parametric coordinates.

mtllib Plate2.mtl
g default
v -5.973892 0.058059 -0.158118
v -6.046571 0.058059 -0.300758
v -6.159771 0.058059 -0.413958
v -6.302411 0.058059 -0.486637
v -6.460529 0.058059 -0.511680
v -6.618646 0.058059 -0.486637
v -6.761288 0.058059 -0.413958
v -6.874487 0.058059 -0.300758
v -6.947166 0.058059 -0.158118
v -6.972209 0.058059 0.000000
v -6.947166 0.058059 0.158118
v -6.874487 0.058059 0.300758
v -6.761287 0.058059 0.413958
v -6.618646 0.058059 0.486637
v -6.460529 0.058059 0.511680
v -6.302411 0.058059 0.486637
v -6.159771 0.058059 0.413958
v -6.046571 0.058059 0.300758
v -5.973892 0.058059 0.158118
v -5.948849 0.058059 0.000000
v -5.973892 0.133278 -0.158118
v -6.046571 0.133278 -0.300758
v -6.159771 0.133278 -0.413958
v -6.302411 0.133278 -0.486637
v -6.460529 0.133278 -0.511680
v -6.618646 0.133278 -0.486637
v -6.761288 0.133278 -0.413958
v -6.874487 0.133278 -0.300758
v -6.947166 0.133278 -0.158118
v -6.972209 0.133278 0.000000
v -6.947166 0.133278 0.158118
v -6.874487 0.133278 0.300758
v -6.761287 0.133278 0.413958
v -6.618646 0.133278 0.486637
v -6.460529 0.133278 0.511680
v -6.302411 0.133278 0.486637
v -6.159771 0.133278 0.413958
v -6.046571 0.133278 0.300758
v -5.973892 0.133278 0.158118
v -5.948849 0.133278 0.000000
v -6.032407 0.091736 -0.139105
v -6.096347 0.091736 -0.264594
v -6.195935 0.091736 -0.364182
v -6.321424 0.091736 -0.428122
v -6.460529 0.091736 -0.450154
v -6.599634 0.091736 -0.428122
v -6.725123 0.091736 -0.364182
v -6.824711 0.091736 -0.264594
v -6.888651 0.091736 -0.139105
v -6.910683 0.091736 0.000000
v -6.888651 0.091736 0.139105
v -6.824711 0.091736 0.264594
v -6.725123 0.091736 0.364182
v -6.599634 0.091736 0.428122
v -6.460529 0.091736 0.450154
v -6.321424 0.091736 0.428122
v -6.195935 0.091736 0.364182
v -6.096347 0.091736 0.264594
v -6.032408 0.091736 0.139105
v -6.010376 0.091736 0.000000
v -6.004958 0.033115 -0.148024
v -6.072998 0.033115 -0.281558
v -6.178971 0.033115 -0.387532
v -6.312505 0.033115 -0.455571
v -6.460529 0.033115 -0.479015
v -6.608552 0.033115 -0.455571
v -6.742087 0.033115 -0.387532
v -6.848061 0.033115 -0.281558
v -6.916100 0.033115 -0.148024
v -6.939544 0.033115 0.000000
v -6.916100 0.033115 0.148024
v -6.848061 0.033115 0.281558
v -6.742087 0.033115 0.387531
v -6.608552 0.033115 0.455571
v -6.460529 0.033115 0.479015
v -6.312505 0.033115 0.455571
v -6.178971 0.033115 0.387531
v -6.072998 0.033115 0.281558
v -6.004959 0.033115 0.148024
v -5.981514 0.033115 0.000000
v -6.103359 0.007594 -0.259499
v -6.040650 0.007594 -0.136427
v -6.460529 0.007594 0.000000
v -6.201029 0.007594 -0.357171
v -6.324102 0.007594 -0.419879
v -6.460529 0.007594 -0.441487
v -6.596955 0.007594 -0.419879
v -6.720028 0.007594 -0.357171
v -6.817700 0.007594 -0.259499
v -6.880408 0.007594 -0.136427
v -6.902016 0.007594 0.000000
v -6.880408 0.007594 0.136427
v -6.817700 0.007594 0.259499
v -6.720028 0.007594 0.357170
v -6.596955 0.007594 0.419879
v -6.460529 0.007594 0.441487
v -6.324102 0.007594 0.419879
v -6.201029 0.007594 0.357170
v -6.103359 0.007594 0.259499
v -6.040651 0.007594 0.136427
v -6.019042 0.007594 0.000000
v -6.112336 0.032010 -0.113135
v -6.164338 0.032010 -0.215195
v -6.460529 0.032010 0.000000
v -6.245333 0.032010 -0.296191
v -6.347394 0.032010 -0.348194
v -6.460529 0.032010 -0.366112
v -6.573664 0.032010 -0.348194
v -6.675725 0.032010 -0.296191
v -6.756720 0.032010 -0.215195
v -6.808722 0.032010 -0.113135
v -6.826642 0.032010 0.000000
v -6.808722 0.032010 0.113135
v -6.756720 0.032010 0.215195
v -6.675725 0.032010 0.296191
v -6.573664 0.032010 0.348194
v -6.460529 0.032010 0.366112
v -6.347394 0.032010 0.348194
v -6.245333 0.032010 0.296191
v -6.164338 0.032010 0.215195
v -6.112337 0.032010 0.113135
v -6.094418 0.032010 0.000000
v -6.065948 0.061622 -0.128207
v -6.124879 0.061622 -0.243864
v -6.216664 0.061622 -0.335650
v -6.332322 0.061622 -0.394581
v -6.460529 0.061622 -0.414887
v -6.588736 0.061622 -0.394581
v -6.704393 0.061622 -0.335650
v -6.796179 0.061622 -0.243864
v -6.855110 0.061622 -0.128207
v -6.875416 0.061622 0.000000
v -6.855110 0.061622 0.128207
v -6.796179 0.061622 0.243864
v -6.704393 0.061622 0.335650
v -6.588736 0.061622 0.394581
v -6.460529 0.061622 0.414887
v -6.332322 0.061622 0.394581
v -6.216664 0.061622 0.335650
v -6.124879 0.061622 0.243864
v -6.065949 0.061622 0.128207
v -6.045643 0.061622 0.000000
vt 0.384444 0.625886
vt 0.384444 0.556729
vt 0.420913 0.556729
vt 0.420913 0.625886
vt 0.372351 0.630780
vt 0.372351 0.566038
vt 0.384444 0.501845
vt 0.420913 0.501845
vt 0.384444 0.702547
vt 0.420913 0.702547
vt 0.372351 0.702547
vt 0.359977 0.636402
vt 0.359977 0.576732
vt 0.384444 0.779209
vt 0.420913 0.779209
vt 0.372351 0.774315
vt 0.359977 0.702547
vt 0.384444 0.848366
vt 0.420913 0.848366
vt 0.372351 0.839057
vt 0.359977 0.768692
vt 0.384444 0.903249
vt 0.420913 0.903249
vt 0.359977 0.828362
vt 0.317835 0.848366
vt 0.317835 0.779209
vt 0.354304 0.779209
vt 0.354304 0.848366
vt 0.305742 0.839057
vt 0.305742 0.774315
vt 0.317835 0.702547
vt 0.354304 0.702547
vt 0.317835 0.903249
vt 0.354304 0.903249
vt 0.293368 0.828362
vt 0.293368 0.768692
vt 0.305742 0.702547
vt 0.317835 0.625886
vt 0.354304 0.625886
vt 0.293368 0.702547
vt 0.305742 0.630780
vt 0.317835 0.556729
vt 0.354304 0.556729
vt 0.293368 0.636402
vt 0.305742 0.566038
vt 0.317835 0.501845
vt 0.354304 0.501845
vt 0.293368 0.576732
vt 0.389060 0.124259
vt 0.419464 0.183929
vt 0.215891 0.250073
vt 0.429940 0.250073
vt 0.341706 0.076904
vt 0.419463 0.316218
vt 0.352401 0.062184
vt 0.403780 0.113564
vt 0.282036 0.046500
vt 0.389060 0.375888
vt 0.361710 0.049371
vt 0.416593 0.104255
vt 0.287658 0.029196
vt 0.215891 0.036024
vt 0.341706 0.423243
vt 0.292552 0.014134
vt 0.215891 0.017829
vt 0.149746 0.046500
vt 0.403780 0.386583
vt 0.352401 0.437963
vt 0.282036 0.453646
vt 0.215891 0.001992
vt 0.144124 0.029196
vt 0.090076 0.076904
vt 0.416593 0.395892
vt 0.361710 0.450776
vt 0.287658 0.470951
vt 0.215891 0.464122
vt 0.139230 0.014134
vt 0.079381 0.062184
vt 0.042721 0.124259
vt 0.292552 0.486013
vt 0.215891 0.482318
vt 0.149746 0.453646
vt 0.070072 0.049371
vt 0.028001 0.113564
vt 0.012318 0.183929
vt 0.215891 0.498155
vt 0.144124 0.470951
vt 0.090076 0.423243
vt 0.015189 0.104255
vt 0.001842 0.250073
vt 0.139230 0.486013
vt 0.079381 0.437963
vt 0.042721 0.375888
vt 0.012318 0.316218
vt 0.070072 0.450776
vt 0.028001 0.386583
vt 0.015189 0.395892
vt 0.843484 0.804778
vt 0.818272 0.854261
vt 0.674667 0.749927
vt 0.865975 0.812086
vt 0.837403 0.868161
vt 0.779002 0.893531
vt 0.852172 0.749927
vt 0.882237 0.817370
vt 0.851236 0.878211
vt 0.792902 0.912662
vt 0.875819 0.749927
vt 0.729519 0.918744
vt 0.843484 0.695075
vt 0.910607 0.826588
vt 0.875370 0.895745
vt 0.802952 0.926495
vt 0.892918 0.749927
vt 0.736827 0.941234
vt 0.865974 0.687767
vt 0.674667 0.927431
vt 0.818272 0.645592
vt 0.820486 0.950629
vt 0.922749 0.749927
vt 0.742110 0.957496
vt 0.882236 0.682483
vt 0.674667 0.951079
vt 0.837403 0.631692
vt 0.619815 0.918744
vt 0.779002 0.606322
vt 0.751329 0.985866
vt 0.910607 0.673265
vt 0.674667 0.968178
vt 0.851236 0.621642
vt 0.612508 0.941234
vt 0.792902 0.587191
vt 0.570333 0.893531
vt 0.729519 0.581109
vt 0.674667 0.998008
vt 0.875370 0.604108
vt 0.607224 0.957496
vt 0.802952 0.573358
vt 0.556433 0.912662
vt 0.736827 0.558619
vt 0.531063 0.854261
vt 0.674667 0.572422
vt 0.598006 0.985866
vt 0.820486 0.549224
vt 0.546382 0.926495
vt 0.742110 0.542357
vt 0.511932 0.868161
vt 0.674667 0.548774
vt 0.505850 0.804778
vt 0.619815 0.581109
vt 0.528848 0.950629
vt 0.751329 0.513987
vt 0.498098 0.878211
vt 0.674667 0.531675
vt 0.483360 0.812086
vt 0.612508 0.558619
vt 0.497162 0.749927
vt 0.570333 0.606322
vt 0.473965 0.895745
vt 0.674667 0.501845
vt 0.467098 0.817370
vt 0.607224 0.542357
vt 0.473515 0.749927
vt 0.556433 0.587191
vt 0.505850 0.695075
vt 0.531063 0.645592
vt 0.438728 0.826588
vt 0.598006 0.513987
vt 0.456416 0.749927
vt 0.546382 0.573358
vt 0.483360 0.687767
vt 0.511932 0.631692
vt 0.426586 0.749927
vt 0.528849 0.549224
vt 0.467098 0.682483
vt 0.498098 0.621642
vt 0.438728 0.673265
vt 0.473965 0.604108
vt 0.287696 0.501845
vt 0.287696 0.571002
vt 0.251227 0.571002
vt 0.251227 0.501845
vt 0.287696 0.647664
vt 0.251227 0.647664
vt 0.287696 0.724325
vt 0.251227 0.724325
vt 0.287696 0.793483
vt 0.251227 0.793483
vt 0.209085 0.793483
vt 0.209085 0.724325
vt 0.245554 0.724325
vt 0.245554 0.793483
vt 0.209085 0.647664
vt 0.245554 0.647664
vt 0.209085 0.571002
vt 0.245554 0.571002
vt 0.209085 0.501845
vt 0.245554 0.501845
vn 0.906873 -0.301258 -0.294661
vn 0.771432 -0.301257 -0.560479
vn 0.809017 0.000000 -0.587785
vn 0.951057 0.000000 -0.309017
vn 0.771432 -0.301257 -0.560479
vn 0.560479 -0.301257 -0.771432
vn 0.587785 0.000000 -0.809017
vn 0.809017 0.000000 -0.587785
vn 0.560479 -0.301257 -0.771432
vn 0.294661 -0.301257 -0.906873
vn 0.309017 0.000000 -0.951057
vn 0.587785 0.000000 -0.809017
vn 0.294661 -0.301257 -0.906873
vn 0.000000 -0.301257 -0.953543
vn -0.000000 0.000000 -1.000000
vn 0.309017 0.000000 -0.951057
vn 0.000000 -0.301257 -0.953543
vn -0.294661 -0.301257 -0.906873
vn -0.309017 0.000000 -0.951056
vn -0.000000 0.000000 -1.000000
vn -0.294661 -0.301257 -0.906873
vn -0.560477 -0.301257 -0.771433
vn -0.587784 0.000000 -0.809018
vn -0.309017 0.000000 -0.951056
vn -0.560477 -0.301257 -0.771433
vn -0.771432 -0.301257 -0.560479
vn -0.809017 0.000000 -0.587785
vn -0.587784 0.000000 -0.809018
vn -0.771432 -0.301257 -0.560479
vn -0.906873 -0.301257 -0.294661
vn -0.951057 0.000000 -0.309017
vn -0.809017 0.000000 -0.587785
vn -0.906873 -0.301257 -0.294661
vn -0.953543 -0.301257 0.000000
vn -1.000000 0.000000 0.000000
vn -0.951057 0.000000 -0.309017
vn -0.953543 -0.301257 0.000000
vn -0.906873 -0.301258 0.294661
vn -0.951057 0.000000 0.309017
vn -1.000000 0.000000 0.000000
vn -0.906873 -0.301258 0.294661
vn -0.771431 -0.301257 0.560480
vn -0.809016 0.000000 0.587787
vn -0.951057 0.000000 0.309017
vn -0.771431 -0.301257 0.560480
vn -0.560477 -0.301257 0.771433
vn -0.587784 0.000000 0.809018
vn -0.809016 0.000000 0.587787
vn -0.560477 -0.301257 0.771433
vn -0.294661 -0.301257 0.906873
vn -0.309017 0.000000 0.951056
vn -0.587784 0.000000 0.809018
vn -0.294661 -0.301257 0.906873
vn 0.000000 -0.301257 0.953543
vn 0.000000 0.000000 1.000000
vn -0.309017 0.000000 0.951056
vn 0.000000 -0.301257 0.953543
vn 0.294661 -0.301257 0.906873
vn 0.309017 0.000000 0.951056
vn 0.000000 0.000000 1.000000
vn 0.294661 -0.301257 0.906873
vn 0.560479 -0.301257 0.771432
vn 0.587785 0.000000 0.809017
vn 0.309017 0.000000 0.951056
vn 0.560479 -0.301257 0.771432
vn 0.771432 -0.301257 0.560479
vn 0.809017 0.000000 0.587786
vn 0.587785 0.000000 0.809017
vn 0.771432 -0.301257 0.560479
vn 0.906873 -0.301257 0.294661
vn 0.951057 0.000000 0.309017
vn 0.809017 0.000000 0.587786
vn 0.906873 -0.301257 0.294661
vn 0.953543 -0.301257 0.000001
vn 1.000000 0.000000 0.000002
vn 0.951057 0.000000 0.309017
vn 0.953543 -0.301257 0.000001
vn 0.906873 -0.301258 -0.294661
vn 0.951057 0.000000 -0.309017
vn 1.000000 0.000000 0.000002
vn 0.000000 -1.000000 0.000000
vn 0.000000 -1.000000 0.000000
vn 0.000000 -1.000000 0.000000
vn 0.000000 -1.000000 0.000000
vn 0.000000 -1.000000 0.000000
vn 0.000000 -1.000000 0.000000
vn 0.000000 -1.000000 0.000000
vn 0.000000 -1.000000 0.000000
vn 0.000000 -1.000000 0.000000
vn 0.000000 -1.000000 0.000000
vn 0.000000 -1.000000 0.000000
vn 0.000000 -1.000000 0.000000
vn 0.000000 -1.000000 0.000000
vn 0.000000 -1.000000 0.000000
vn 0.000000 -1.000000 0.000000
vn 0.000000 -1.000000 0.000000
vn 0.000000 -1.000000 0.000000
vn 0.000000 -1.000000 0.000000
vn 0.000000 -1.000000 0.000000
vn 0.000000 -1.000000 0.000000
vn 0.000000 -1.000000 0.000000
vn 0.000000 -1.000000 0.000000
vn 0.000000 -1.000000 0.000000
vn 0.000000 -1.000000 0.000000
vn 0.000000 -1.000000 0.000000
vn 0.000000 -1.000000 0.000000
vn 0.000000 -1.000000 0.000000
vn 0.000000 -1.000000 0.000000
vn 0.000000 -1.000000 0.000000
vn 0.000000 -1.000000 0.000000
vn 0.000000 -1.000000 0.000000
vn 0.000000 -1.000000 0.000000
vn 0.000000 -1.000000 0.000000
vn 0.000000 -1.000000 0.000000
vn 0.000000 -1.000000 0.000000
vn 0.000000 -1.000000 0.000000
vn 0.000000 -1.000000 0.000000
vn 0.000000 -1.000000 0.000000
vn 0.000000 -1.000000 0.000000
vn 0.000000 -1.000000 0.000000
vn 0.000000 -1.000000 0.000000
vn 0.000000 -1.000000 0.000000
vn 0.000000 -1.000000 0.000000
vn 0.000000 -1.000000 0.000000
vn 0.000000 -1.000000 0.000000
vn 0.000000 -1.000000 0.000000
vn 0.000000 -1.000000 0.000000
vn 0.000000 -1.000000 0.000000
vn 0.000000 -1.000000 0.000000
vn 0.000000 -1.000000 0.000000
vn 0.000000 -1.000000 0.000000
vn 0.000000 -1.000000 0.000000
vn 0.000000 -1.000000 0.000000
vn 0.000000 -1.000000 0.000000
vn 0.000000 -1.000000 0.000000
vn 0.000000 -1.000000 0.000000
vn 0.000000 -1.000000 0.000000
vn 0.000000 -1.000000 0.000000
vn 0.000000 -1.000000 0.000000
vn 0.000000 -1.000000 0.000000
vn 0.000000 1.000000 0.000000
vn 0.000000 1.000000 0.000000
vn 0.000000 1.000000 0.000000
vn 0.000000 1.000000 0.000000
vn 0.000000 1.000000 0.000000
vn 0.000000 1.000000 0.000000
vn 0.000000 1.000000 0.000000
vn 0.000000 1.000000 0.000000
vn 0.000000 1.000000 0.000000
vn 0.000000 1.000000 0.000000
vn 0.000000 1.000000 0.000000
vn 0.000000 1.000000 0.000000
vn 0.000000 1.000000 0.000000
vn 0.000000 1.000000 0.000000
vn 0.000000 1.000000 0.000000
vn 0.000000 1.000000 0.000000
vn 0.000000 1.000000 0.000000
vn 0.000000 1.000000 0.000000
vn 0.000000 1.000000 0.000000
vn 0.000000 1.000000 0.000000
vn 0.000000 1.000000 0.000000
vn 0.000000 1.000000 0.000000
vn 0.000000 1.000000 0.000000
vn 0.000000 1.000000 0.000000
vn 0.000000 1.000000 0.000000
vn 0.000000 1.000000 0.000000
vn 0.000000 1.000000 0.000000
vn 0.000000 1.000000 0.000000
vn 0.000000 1.000000 0.000000
vn 0.000000 1.000000 0.000000
vn 0.000000 1.000000 0.000000
vn 0.000000 1.000000 0.000000
vn 0.000000 1.000000 0.000000
vn 0.000000 1.000000 0.000000
vn 0.000000 1.000000 0.000000
vn 0.000000 1.000000 0.000000
vn 0.000000 1.000000 0.000000
vn 0.000000 1.000000 0.000000
vn 0.000000 1.000000 0.000000
vn 0.000000 1.000000 0.000000
vn 0.000000 1.000000 0.000000
vn 0.000000 1.000000 0.000000
vn 0.000000 1.000000 0.000000
vn 0.000000 1.000000 0.000000
vn 0.000000 1.000000 0.000000
vn 0.000000 1.000000 0.000000
vn 0.000000 1.000000 0.000000
vn 0.000000 1.000000 0.000000
vn 0.000000 1.000000 0.000000
vn 0.000000 1.000000 0.000000
vn 0.000000 1.000000 0.000000
vn 0.000000 1.000000 0.000000
vn 0.000000 1.000000 0.000000
vn 0.000000 1.000000 0.000000
vn 0.000000 1.000000 0.000000
vn 0.000000 1.000000 0.000000
vn 0.000000 1.000000 0.000000
vn 0.000000 1.000000 0.000000
vn 0.000000 1.000000 0.000000
vn 0.000000 1.000000 0.000000
vn -0.502835 0.825539 0.256208
vn -0.502835 0.825539 0.256208
vn -0.502835 0.825539 0.256208
vn -0.502835 0.825539 0.256208
vn -0.399054 0.825538 0.399052
vn -0.399054 0.825538 0.399052
vn -0.399054 0.825538 0.399052
vn -0.399054 0.825538 0.399052
vn -0.256207 0.825538 0.502837
vn -0.256207 0.825538 0.502837
vn -0.256207 0.825538 0.502837
vn -0.256207 0.825538 0.502837
vn -0.088283 0.825538 0.557398
vn -0.088283 0.825538 0.557398
vn -0.088283 0.825538 0.557398
vn -0.088283 0.825539 0.557398
vn 0.088284 0.825538 0.557398
vn 0.088284 0.825538 0.557398
vn 0.088284 0.825538 0.557398
vn 0.088284 0.825538 0.557398
vn 0.256207 0.825538 0.502837
vn 0.256207 0.825538 0.502837
vn 0.256207 0.825538 0.502837
vn 0.256207 0.825538 0.502837
vn 0.399053 0.825539 0.399052
vn 0.399053 0.825539 0.399052
vn 0.399053 0.825539 0.399052
vn 0.399053 0.825539 0.399052
vn 0.502835 0.825539 0.256208
vn 0.502835 0.825539 0.256208
vn 0.502835 0.825539 0.256208
vn 0.502835 0.825539 0.256208
vn 0.557397 0.825539 0.088281
vn 0.557397 0.825539 0.088281
vn 0.557397 0.825539 0.088281
vn 0.557397 0.825539 0.088281
vn 0.557397 0.825539 -0.088281
vn 0.557397 0.825539 -0.088281
vn 0.557397 0.825539 -0.088281
vn 0.557397 0.825539 -0.088281
vn 0.502835 0.825539 -0.256208
vn 0.502835 0.825539 -0.256208
vn 0.502835 0.825539 -0.256208
vn 0.502835 0.825539 -0.256208
vn 0.399052 0.825539 -0.399053
vn 0.399052 0.825539 -0.399053
vn 0.399052 0.825539 -0.399053
vn 0.399052 0.825539 -0.399053
vn 0.256207 0.825538 -0.502837
vn 0.256207 0.825538 -0.502837
vn 0.256207 0.825538 -0.502837
vn 0.256207 0.825538 -0.502837
vn 0.088284 0.825538 -0.557398
vn 0.088284 0.825538 -0.557398
vn 0.088284 0.825538 -0.557398
vn 0.088284 0.825538 -0.557398
vn -0.088283 0.825539 -0.557398
vn -0.088283 0.825539 -0.557398
vn -0.088283 0.825539 -0.557398
vn -0.088283 0.825539 -0.557398
vn -0.256208 0.825538 -0.502836
vn -0.256208 0.825538 -0.502836
vn -0.256208 0.825538 -0.502836
vn -0.256208 0.825538 -0.502836
vn -0.399053 0.825538 -0.399053
vn -0.399053 0.825538 -0.399053
vn -0.399053 0.825538 -0.399053
vn -0.399053 0.825538 -0.399053
vn -0.502835 0.825539 -0.256207
vn -0.502835 0.825539 -0.256207
vn -0.502835 0.825539 -0.256207
vn -0.502835 0.825539 -0.256207
vn -0.557397 0.825539 -0.088283
vn -0.557397 0.825539 -0.088283
vn -0.557397 0.825539 -0.088283
vn -0.557397 0.825539 -0.088283
vn -0.557397 0.825539 0.088281
vn -0.557397 0.825539 0.088281
vn -0.557397 0.825539 0.088281
vn -0.557397 0.825539 0.088281
vn 0.771432 -0.301257 -0.560479
vn 0.906873 -0.301258 -0.294661
vn 0.577196 -0.794778 -0.187542
vn 0.490993 -0.794778 -0.356727
vn 0.560479 -0.301257 -0.771432
vn 0.771432 -0.301257 -0.560479
vn 0.490993 -0.794778 -0.356727
vn 0.356727 -0.794778 -0.490993
vn 0.294661 -0.301257 -0.906873
vn 0.560479 -0.301257 -0.771432
vn 0.356727 -0.794778 -0.490993
vn 0.187542 -0.794778 -0.577197
vn 0.000000 -0.301257 -0.953543
vn 0.294661 -0.301257 -0.906873
vn 0.187542 -0.794778 -0.577197
vn 0.000000 -0.794778 -0.606900
vn -0.294661 -0.301257 -0.906873
vn 0.000000 -0.301257 -0.953543
vn 0.000000 -0.794778 -0.606900
vn -0.187543 -0.794778 -0.577197
vn -0.560477 -0.301257 -0.771433
vn -0.294661 -0.301257 -0.906873
vn -0.187543 -0.794778 -0.577197
vn -0.356726 -0.794778 -0.490993
vn -0.771432 -0.301257 -0.560479
vn -0.560477 -0.301257 -0.771433
vn -0.356726 -0.794778 -0.490993
vn -0.490993 -0.794778 -0.356727
vn -0.906873 -0.301257 -0.294661
vn -0.771432 -0.301257 -0.560479
vn -0.490993 -0.794778 -0.356727
vn -0.577197 -0.794778 -0.187542
vn -0.953543 -0.301257 0.000000
vn -0.906873 -0.301257 -0.294661
vn -0.577197 -0.794778 -0.187542
vn -0.606901 -0.794778 0.000000
vn -0.906873 -0.301258 0.294661
vn -0.953543 -0.301257 0.000000
vn -0.606901 -0.794778 0.000000
vn -0.577196 -0.794778 0.187542
vn -0.771431 -0.301257 0.560480
vn -0.906873 -0.301258 0.294661
vn -0.577196 -0.794778 0.187542
vn -0.490992 -0.794778 0.356728
vn -0.560477 -0.301257 0.771433
vn -0.771431 -0.301257 0.560480
vn -0.490992 -0.794778 0.356728
vn -0.356726 -0.794778 0.490994
vn -0.294661 -0.301257 0.906873
vn -0.560477 -0.301257 0.771433
vn -0.356726 -0.794778 0.490994
vn -0.187543 -0.794778 0.577197
vn 0.000000 -0.301257 0.953543
vn -0.294661 -0.301257 0.906873
vn -0.187543 -0.794778 0.577197
vn 0.000000 -0.794778 0.606901
vn 0.294661 -0.301257 0.906873
vn 0.000000 -0.301257 0.953543
vn 0.000000 -0.794778 0.606901
vn 0.187543 -0.794778 0.577197
vn 0.560479 -0.301257 0.771432
vn 0.294661 -0.301257 0.906873
vn 0.187543 -0.794778 0.577197
vn 0.356727 -0.794778 0.490993
vn 0.771432 -0.301257 0.560479
vn 0.560479 -0.301257 0.771432
vn 0.356727 -0.794778 0.490993
vn 0.490993 -0.794778 0.356727
vn 0.906873 -0.301257 0.294661
vn 0.771432 -0.301257 0.560479
vn 0.490993 -0.794778 0.356727
vn 0.577197 -0.794778 0.187542
vn 0.953543 -0.301257 0.000001
vn 0.906873 -0.301257 0.294661
vn 0.577197 -0.794778 0.187542
vn 0.606900 -0.794778 0.000001
vn 0.906873 -0.301258 -0.294661
vn 0.953543 -0.301257 0.000001
vn 0.606900 -0.794778 0.000001
vn 0.577196 -0.794778 -0.187542
vn -0.466592 0.851922 0.237741
vn -0.466592 0.851922 0.237741
vn 0.000000 1.000000 0.000000
vn 0.000000 1.000000 0.000000
vn -0.370290 0.851922 0.370289
vn -0.370290 0.851922 0.370289
vn 0.000000 1.000000 0.000000
vn 0.000000 1.000000 0.000000
vn -0.237742 0.851921 0.466593
vn -0.237742 0.851921 0.466593
vn 0.000000 1.000000 0.000000
vn 0.000000 1.000000 0.000000
vn -0.081920 0.851922 0.517222
vn -0.081920 0.851922 0.517222
vn 0.000000 1.000000 0.000000
vn 0.000000 1.000000 0.000000
vn 0.081919 0.851921 0.517223
vn 0.081919 0.851921 0.517223
vn 0.000000 1.000000 0.000000
vn 0.000000 1.000000 0.000000
vn 0.237743 0.851920 0.466594
vn 0.237743 0.851920 0.466594
vn 0.000000 1.000000 0.000000
vn 0.000000 1.000000 0.000000
vn 0.370291 0.851921 0.370290
vn 0.370291 0.851921 0.370290
vn 0.000000 1.000000 0.000000
vn 0.000000 1.000000 0.000000
vn 0.466596 0.851919 0.237743
vn 0.466596 0.851919 0.237743
vn 0.000000 1.000000 0.000000
vn 0.000000 1.000000 0.000000
vn 0.517222 0.851922 0.081921
vn 0.517222 0.851922 0.081921
vn 0.000000 1.000000 0.000000
vn 0.000000 1.000000 0.000000
vn 0.517222 0.851922 -0.081921
vn 0.517222 0.851922 -0.081921
vn 0.000000 1.000000 0.000000
vn 0.000000 1.000000 0.000000
vn 0.466597 0.851919 -0.237744
vn 0.466597 0.851919 -0.237744
vn 0.000000 1.000000 0.000000
vn 0.000000 1.000000 0.000000
vn 0.370291 0.851921 -0.370291
vn 0.370291 0.851921 -0.370291
vn 0.000000 1.000000 0.000000
vn 0.000000 1.000000 0.000000
vn 0.237743 0.851920 -0.466594
vn 0.237743 0.851920 -0.466594
vn 0.000000 1.000000 0.000000
vn 0.000000 1.000000 0.000000
vn 0.081919 0.851921 -0.517223
vn 0.081919 0.851921 -0.517223
vn 0.000000 1.000000 0.000000
vn 0.000000 1.000000 0.000000
vn -0.081920 0.851921 -0.517224
vn -0.081920 0.851921 -0.517224
vn 0.000000 1.000000 0.000000
vn 0.000000 1.000000 0.000000
vn -0.237742 0.851921 -0.466594
vn -0.237742 0.851921 -0.466594
vn 0.000000 1.000000 0.000000
vn 0.000000 1.000000 0.000000
vn -0.370289 0.851924 -0.370287
vn -0.370289 0.851924 -0.370287
vn 0.000000 1.000000 0.000000
vn 0.000000 1.000000 0.000000
vn -0.466600 0.851918 -0.237740
vn -0.466600 0.851918 -0.237740
vn 0.000000 1.000000 0.000000
vn 0.000000 1.000000 0.000000
vn -0.517223 0.851921 -0.081921
vn -0.517223 0.851921 -0.081921
vn 0.000000 1.000000 0.000000
vn 0.000000 1.000000 0.000000
vn -0.517222 0.851922 0.081916
vn -0.517222 0.851922 0.081916
vn 0.000000 1.000000 0.000000
vn 0.000000 1.000000 0.000000
vn 0.505295 -0.823644 -0.257464
vn 0.505295 -0.823644 -0.257464
vn 0.000000 -1.000000 0.000000
vn 0.000000 -1.000000 0.000000
vn 0.401003 -0.823648 -0.400998
vn 0.401004 -0.823648 -0.400998
vn 0.000000 -1.000000 0.000000
vn 0.000000 -1.000000 0.000000
vn 0.257458 -0.823649 -0.505290
vn 0.257458 -0.823649 -0.505290
vn 0.000000 -1.000000 0.000000
vn 0.000000 -1.000000 0.000000
vn 0.088712 -0.823648 -0.560120
vn 0.088712 -0.823648 -0.560120
vn 0.000000 -1.000000 0.000000
vn 0.000000 -1.000000 0.000000
vn -0.088712 -0.823648 -0.560120
vn -0.088712 -0.823648 -0.560120
vn 0.000000 -1.000000 0.000000
vn 0.000000 -1.000000 0.000000
vn -0.257457 -0.823648 -0.505292
vn -0.257457 -0.823648 -0.505292
vn 0.000000 -1.000000 0.000000
vn 0.000000 -1.000000 0.000000
vn -0.401000 -0.823649 -0.401000
vn -0.401000 -0.823649 -0.401000
vn 0.000000 -1.000000 0.000000
vn 0.000000 -1.000000 0.000000
vn -0.505291 -0.823648 -0.257458
vn -0.505291 -0.823648 -0.257458
vn 0.000000 -1.000000 0.000000
vn 0.000000 -1.000000 0.000000
vn -0.560122 -0.823647 -0.088713
vn -0.560122 -0.823647 -0.088713
vn 0.000000 -1.000000 0.000000
vn 0.000000 -1.000000 0.000000
vn -0.560123 -0.823646 0.088713
vn -0.560123 -0.823646 0.088713
vn 0.000000 -1.000000 0.000000
vn 0.000000 -1.000000 0.000000
vn -0.505294 -0.823646 0.257460
vn -0.505294 -0.823646 0.257460
vn 0.000000 -1.000000 0.000000
vn 0.000000 -1.000000 0.000000
vn -0.401004 -0.823643 0.401008
vn -0.401004 -0.823643 0.401008
vn 0.000000 -1.000000 0.000000
vn 0.000000 -1.000000 0.000000
vn -0.257461 -0.823647 0.505292
vn -0.257461 -0.823646 0.505292
vn 0.000000 -1.000000 0.000000
vn 0.000000 -1.000000 0.000000
vn -0.088712 -0.823648 0.560120
vn -0.088712 -0.823648 0.560120
vn 0.000000 -1.000000 0.000000
vn 0.000000 -1.000000 0.000000
vn 0.088712 -0.823648 0.560120
vn 0.088712 -0.823648 0.560120
vn 0.000000 -1.000000 0.000000
vn 0.000000 -1.000000 0.000000
vn 0.257462 -0.823648 0.505290
vn 0.257462 -0.823648 0.505290
vn 0.000000 -1.000000 0.000000
vn 0.000000 -1.000000 0.000000
vn 0.401003 -0.823647 0.401001
vn 0.401003 -0.823647 0.401001
vn 0.000000 -1.000000 0.000000
vn 0.000000 -1.000000 0.000000
vn 0.505293 -0.823647 0.257459
vn 0.505293 -0.823647 0.257459
vn 0.000000 -1.000000 0.000000
vn 0.000000 -1.000000 0.000000
vn 0.560117 -0.823649 0.088716
vn 0.560117 -0.823649 0.088716
vn 0.000000 -1.000000 0.000000
vn 0.000000 -1.000000 0.000000
vn 0.560118 -0.823649 -0.088712
vn 0.560118 -0.823649 -0.088712
vn 0.000000 -1.000000 0.000000
vn 0.000000 -1.000000 0.000000
vn -0.582721 0.756491 0.296913
vn -0.582721 0.756491 0.296913
vn -0.582721 0.756491 0.296913
vn -0.582721 0.756491 0.296913
vn -0.462452 0.756491 0.462451
vn -0.462452 0.756491 0.462451
vn -0.462452 0.756490 0.462451
vn -0.462452 0.756490 0.462451
vn -0.296911 0.756494 0.582719
vn -0.296911 0.756494 0.582719
vn -0.296911 0.756494 0.582719
vn -0.296911 0.756494 0.582719
vn -0.102308 0.756494 0.645949
vn -0.102308 0.756494 0.645949
vn -0.102308 0.756494 0.645949
vn -0.102308 0.756494 0.645949
vn 0.102308 0.756493 0.645950
vn 0.102308 0.756493 0.645950
vn 0.102308 0.756493 0.645950
vn 0.102308 0.756493 0.645950
vn 0.296911 0.756494 0.582718
vn 0.296911 0.756495 0.582718
vn 0.296911 0.756495 0.582718
vn 0.296911 0.756495 0.582718
vn 0.462450 0.756493 0.462449
vn 0.462450 0.756493 0.462449
vn 0.462450 0.756493 0.462449
vn 0.462450 0.756493 0.462449
vn 0.582719 0.756493 0.296912
vn 0.582719 0.756493 0.296912
vn 0.582719 0.756493 0.296912
vn 0.582719 0.756493 0.296912
vn 0.645954 0.756489 0.102310
vn 0.645954 0.756489 0.102310
vn 0.645954 0.756489 0.102310
vn 0.645954 0.756489 0.102310
vn 0.645956 0.756487 -0.102310
vn 0.645956 0.756487 -0.102310
vn 0.645956 0.756487 -0.102310
vn 0.645956 0.756487 -0.102310
vn 0.582720 0.756492 -0.296912
vn 0.582720 0.756492 -0.296912
vn 0.582720 0.756492 -0.296912
vn 0.582720 0.756492 -0.296912
vn 0.462449 0.756494 -0.462448
vn 0.462449 0.756494 -0.462448
vn 0.462449 0.756494 -0.462448
vn 0.462449 0.756494 -0.462448
vn 0.296912 0.756492 -0.582720
vn 0.296912 0.756492 -0.582720
vn 0.296912 0.756492 -0.582720
vn 0.296912 0.756492 -0.582720
vn 0.102308 0.756493 -0.645950
vn 0.102308 0.756493 -0.645950
vn 0.102308 0.756493 -0.645950
vn 0.102308 0.756493 -0.645950
vn -0.102308 0.756495 -0.645948
vn -0.102308 0.756495 -0.645948
vn -0.102308 0.756495 -0.645948
vn -0.102308 0.756495 -0.645948
vn -0.296911 0.756494 -0.582719
vn -0.296911 0.756494 -0.582719
vn -0.296911 0.756494 -0.582719
vn -0.296911 0.756494 -0.582719
vn -0.462452 0.756491 -0.462451
vn -0.462452 0.756491 -0.462451
vn -0.462452 0.756490 -0.462451
vn -0.462452 0.756490 -0.462451
vn -0.582724 0.756491 -0.296907
vn -0.582724 0.756491 -0.296907
vn -0.582724 0.756491 -0.296907
vn -0.582724 0.756491 -0.296907
vn -0.645947 0.756496 -0.102309
vn -0.645947 0.756496 -0.102309
vn -0.645947 0.756496 -0.102309
vn -0.645947 0.756496 -0.102309
vn -0.645952 0.756492 0.102303
vn -0.645952 0.756492 0.102303
vn -0.645952 0.756492 0.102303
vn -0.645952 0.756492 0.102303
s off
g Plate2:pCylinder13
usemtl aiAmbientOcclusion15SG
f 1/1/1 2/2/2 22/3/3 21/4/4
f 2/2/5 3/7/6 23/8/7 22/3/8
f 3/179/9 4/180/10 24/181/11 23/182/12
f 4/180/13 5/183/14 25/184/15 24/181/16
f 5/183/17 6/185/18 26/186/19 25/184/20
f 6/185/21 7/187/22 27/188/23 26/186/24
f 7/33/25 8/25/26 28/28/27 27/34/28
f 8/25/29 9/26/30 29/27/31 28/28/32
f 9/26/33 10/31/34 30/32/35 29/27/36
f 10/31/37 11/38/38 31/39/39 30/32/40
f 11/38/41 12/42/42 32/43/43 31/39/44
f 12/42/45 13/46/46 33/47/47 32/43/48
f 13/189/49 14/190/50 34/191/51 33/192/52
f 14/190/53 15/193/54 35/194/55 34/191/56
f 15/193/57 16/195/58 36/196/59 35/194/60
f 16/195/61 17/197/62 37/198/63 36/196/64
f 17/22/65 18/18/66 38/19/67 37/23/68
f 18/18/69 19/14/70 39/15/71 38/19/72
f 19/14/73 20/9/74 40/10/75 39/15/76
f 20/9/77 1/1/78 21/4/79 40/10/80
f 81/49/81 82/50/82 83/51/83
f 84/53/84 81/49/85 83/51/86
f 85/57/87 84/53/88 83/51/89
f 86/62/90 85/57/91 83/51/92
f 87/66/93 86/62/94 83/51/95
f 88/72/96 87/66/97 83/51/98
f 89/79/99 88/72/100 83/51/101
f 90/85/102 89/79/103 83/51/104
f 91/90/105 90/85/106 83/51/107
f 92/94/108 91/90/109 83/51/110
f 93/93/111 92/94/112 83/51/113
f 94/88/114 93/93/115 83/51/116
f 95/82/117 94/88/118 83/51/119
f 96/76/120 95/82/121 83/51/122
f 97/69/123 96/76/124 83/51/125
f 98/63/126 97/69/127 83/51/128
f 99/58/129 98/63/130 83/51/131
f 100/54/132 99/58/133 83/51/134
f 101/52/135 100/54/136 83/51/137
f 82/50/138 101/52/139 83/51/140
f 102/98/141 103/99/142 104/100/143
f 103/99/144 105/103/145 104/100/146
f 105/103/147 106/109/148 104/100/149
f 106/109/150 107/117/151 104/100/152
f 107/117/153 108/125/154 104/100/155
f 108/125/156 109/133/157 104/100/158
f 109/133/159 110/141/160 104/100/161
f 110/141/162 111/149/163 104/100/164
f 111/149/165 112/157/166 104/100/167
f 112/157/168 113/165/169 104/100/170
f 113/165/171 114/166/172 104/100/173
f 114/166/174 115/158/175 104/100/176
f 115/158/177 116/150/178 104/100/179
f 116/150/180 117/142/181 104/100/182
f 117/142/183 118/134/184 104/100/185
f 118/134/186 119/126/187 104/100/188
f 119/126/189 120/118/190 104/100/191
f 120/118/192 121/110/193 104/100/194
f 121/110/195 122/104/196 104/100/197
f 122/104/198 102/98/199 104/100/200
f 21/111/201 22/112/202 42/106/203 41/105/204
f 22/112/205 23/119/206 43/113/207 42/106/208
f 23/119/209 24/127/210 44/121/211 43/113/212
f 24/127/213 25/135/214 45/129/215 44/121/216
f 25/135/217 26/143/218 46/137/219 45/129/220
f 26/143/221 27/151/222 47/145/223 46/137/224
f 27/151/225 28/159/226 48/153/227 47/145/228
f 28/159/229 29/167/230 49/161/231 48/153/232
f 29/167/233 30/173/234 50/169/235 49/161/236
f 30/173/237 31/177/238 51/175/239 50/169/240
f 31/177/241 32/178/242 52/176/243 51/175/244
f 32/178/245 33/174/246 53/170/247 52/176/248
f 33/174/249 34/168/250 54/162/251 53/170/252
f 34/168/253 35/160/254 55/154/255 54/162/256
f 35/160/257 36/152/258 56/146/259 55/154/260
f 36/152/261 37/144/262 57/138/263 56/146/264
f 37/144/265 38/136/266 58/130/267 57/138/268
f 38/136/269 39/128/270 59/122/271 58/130/272
f 39/128/273 40/120/274 60/114/275 59/122/276
f 40/120/277 21/111/278 41/105/279 60/114/280
f 2/2/281 1/1/282 61/5/283 62/6/284
f 3/59/285 2/60/286 62/56/287 63/55/288
f 4/64/289 3/59/290 63/55/291 64/61/292
f 5/70/293 4/64/294 64/61/295 65/65/296
f 6/77/297 5/70/298 65/65/299 66/71/300
f 7/83/301 6/77/302 66/71/303 67/78/304
f 8/89/305 7/83/306 67/78/307 68/84/308
f 9/26/309 8/25/310 68/29/311 69/30/312
f 10/31/313 9/26/314 69/30/315 70/37/316
f 11/38/317 10/31/318 70/37/319 71/41/320
f 12/42/321 11/38/322 71/41/323 72/45/324
f 13/95/325 12/97/326 72/96/327 73/92/328
f 14/91/329 13/95/330 73/92/331 74/87/332
f 15/86/333 14/91/334 74/87/335 75/81/336
f 16/80/337 15/86/338 75/81/339 76/75/340
f 17/74/341 16/80/342 76/75/343 77/68/344
f 18/73/345 17/74/346 77/68/347 78/67/348
f 19/14/349 18/18/350 78/20/351 79/16/352
f 20/9/353 19/14/354 79/16/355 80/11/356
f 1/1/357 20/9/358 80/11/359 61/5/360
f 123/101/361 124/102/362 103/99/363 102/98/364
f 124/102/365 125/107/366 105/103/367 103/99/368
f 125/107/369 126/115/370 106/109/371 105/103/372
f 126/115/373 127/123/374 107/117/375 106/109/376
f 127/123/377 128/131/378 108/125/379 107/117/380
f 128/131/381 129/139/382 109/133/383 108/125/384
f 129/139/385 130/147/386 110/141/387 109/133/388
f 130/147/389 131/155/390 111/149/391 110/141/392
f 131/155/393 132/163/394 112/157/395 111/149/396
f 132/163/397 133/171/398 113/165/399 112/157/400
f 133/171/401 134/172/402 114/166/403 113/165/404
f 134/172/405 135/164/406 115/158/407 114/166/408
f 135/164/409 136/156/410 116/150/411 115/158/412
f 136/156/413 137/148/414 117/142/415 116/150/416
f 137/148/417 138/140/418 118/134/419 117/142/420
f 138/140/421 139/132/422 119/126/423 118/134/424
f 139/132/425 140/124/426 120/118/427 119/126/428
f 140/124/429 141/116/430 121/110/431 120/118/432
f 141/116/433 142/108/434 122/104/435 121/110/436
f 142/108/437 123/101/438 102/98/439 122/104/440
f 62/6/441 61/5/442 82/12/443 81/13/444
f 63/55/445 62/56/446 81/49/447 84/53/448
f 64/61/449 63/55/450 84/53/451 85/57/452
f 65/65/453 64/61/454 85/57/455 86/62/456
f 66/71/457 65/65/458 86/62/459 87/66/460
f 67/78/461 66/71/462 87/66/463 88/72/464
f 68/84/465 67/78/466 88/72/467 89/79/468
f 69/30/469 68/29/470 89/35/471 90/36/472
f 70/37/473 69/30/474 90/36/475 91/40/476
f 71/41/477 70/37/478 91/40/479 92/44/480
f 72/45/481 71/41/482 92/44/483 93/48/484
f 73/92/485 72/96/486 93/93/487 94/88/488
f 74/87/489 73/92/490 94/88/491 95/82/492
f 75/81/493 74/87/494 95/82/495 96/76/496
f 76/75/497 75/81/498 96/76/499 97/69/500
f 77/68/501 76/75/502 97/69/503 98/63/504
f 78/67/505 77/68/506 98/63/507 99/58/508
f 79/16/509 78/20/510 99/24/511 100/21/512
f 80/11/513 79/16/514 100/21/515 101/17/516
f 61/5/517 80/11/518 101/17/519 82/12/520
f 41/105/521 42/106/522 124/102/523 123/101/524
f 42/106/525 43/113/526 125/107/527 124/102/528
f 43/113/529 44/121/530 126/115/531 125/107/532
f 44/121/533 45/129/534 127/123/535 126/115/536
f 45/129/537 46/137/538 128/131/539 127/123/540
f 46/137/541 47/145/542 129/139/543 128/131/544
f 47/145/545 48/153/546 130/147/547 129/139/548
f 48/153/549 49/161/550 131/155/551 130/147/552
f 49/161/553 50/169/554 132/163/555 131/155/556
f 50/169/557 51/175/558 133/171/559 132/163/560
f 51/175/561 52/176/562 134/172/563 133/171/564
f 52/176/565 53/170/566 135/164/567 134/172/568
f 53/170/569 54/162/570 136/156/571 135/164/572
f 54/162/573 55/154/574 137/148/575 136/156/576
f 55/154/577 56/146/578 138/140/579 137/148/580
f 56/146/581 57/138/582 139/132/583 138/140/584
f 57/138/585 58/130/586 140/124/587 139/132/588
f 58/130/589 59/122/590 141/116/591 140/124/592
f 59/122/593 60/114/594 142/108/595 141/116/596
f 60/114/597 41/105/598 123/101/599 142/108/600
