# Blender 4.5.4 LTS
# www.blender.org
mtllib Plate.mtl
o plate:pCube72_cell
v 0.040179 0.004200 0.021763
v 0.053540 0.004723 -0.001227
v 0.062927 0.010385 -0.000081
v 0.026807 0.003516 0.022690
v 0.029926 0.003128 0.016210
v 0.041944 0.003700 -0.000961
v 0.045735 0.004356 -0.004586
v 0.043705 0.012238 0.028424
v 0.049504 0.011160 0.026814
v 0.026807 0.003516 0.022690
v 0.043705 0.012238 0.028424
v 0.041944 0.003700 -0.000961
v 0.045735 0.004356 -0.004586
v 0.029926 0.003128 0.016210
v 0.053540 0.004723 -0.001227
v 0.062927 0.010385 -0.000081
v 0.049504 0.011160 0.026814
vn 0.3708 -0.4504 -0.8122
vn -0.3273 0.9143 -0.2385
vn 0.2017 0.9768 0.0725
vn 0.3194 -0.9351 0.1536
vn 0.0845 -0.9964 0.0052
vn 0.0855 -0.9923 -0.0900
vn 0.1995 -0.8926 0.4043
vn 0.0912 -0.9484 0.3038
vn 0.0840 -0.9958 0.0370
vn 0.4788 -0.8381 0.2613
vn 0.3362 -0.8070 0.4855
vn 0.0855 -0.6577 0.7484
vt 0.203035 0.195428
vt 0.210175 0.210175
vt 0.094837 0.067631
vt 0.443903 0.000000
vt 1.000000 0.000000
vt 0.995154 0.296300
vt 0.917350 0.325511
vt 0.578351 0.365955
vt 0.457463 0.357861
vt 0.992990 0.545998
vt 0.948547 0.505489
vt 0.024593 0.323043
vt 0.061948 0.290531
vt 0.037914 0.321532
vt 0.061948 0.290531
vt 0.012000 0.209278
vt 0.055802 0.170200
vt -0.099669 0.008609
vt 0.401220 0.789283
vt 0.316662 0.879255
vt 0.277879 0.850330
vt 0.356166 0.763370
vt 0.367937 0.723058
vt 0.460992 0.766091
vt 0.356166 0.763370
s 0
usemtl lambert2
f 2/1/1 13/2/1 16/3/1
f 11/4/2 16/5/2 13/6/2 12/7/2 14/8/2 10/9/2
f 16/5/3 11/10/3 9/11/3
s 1
f 15/12/4 6/13/5 7/14/6
f 6/15/5 15/12/4 1/16/7 4/17/8 5/18/9
f 1/19/7 15/20/4 3/21/10 17/22/11
f 8/23/12 4/24/8 1/19/7 17/25/11
o plate:pCube72_cell.001
v 0.053474 0.022714 0.028965
v 0.048866 0.024937 0.026469
v 0.054242 0.014696 0.029380
v 0.043773 0.014855 0.031614
v 0.048301 0.013310 0.028841
v 0.065852 0.012388 0.001054
v 0.069858 0.022714 -0.000676
v 0.037648 0.022714 0.032358
v 0.044719 0.019175 0.024222
v 0.058226 0.018650 0.000480
v 0.047939 0.018650 0.019088
v 0.063704 0.024937 -0.000372
v 0.044719 0.019175 0.024222
v 0.047939 0.018650 0.019088
v 0.058226 0.018650 0.000480
v 0.043773 0.014855 0.031614
v 0.037648 0.022714 0.032358
v 0.048301 0.013310 0.028841
v 0.065852 0.012388 0.001054
v 0.069858 0.022714 -0.000676
v 0.063704 0.024937 -0.000372
vn -0.5512 -0.7634 -0.3366
vn -0.0467 -0.1474 -0.9880
vn -0.7384 -0.5368 -0.4082
vn -0.0744 -0.0701 -0.9948
vn 0.1552 -0.8568 0.4918
vn 0.5389 -0.5242 0.6594
vn 0.2072 -0.0677 0.9760
vn 0.5449 0.4739 0.6917
vn -0.0600 0.7278 0.6832
vn 0.8789 -0.1964 0.4347
vn 0.7980 0.4491 0.4018
vn -0.1723 0.9850 0.0100
vn -0.0335 0.9992 -0.0236
vn -0.6068 0.5859 -0.5372
vn -0.7003 0.5922 -0.3986
vt 0.404572 0.000000
vt 1.000000 0.000000
vt 1.000000 0.084175
vt 0.464160 0.046473
vt 0.084175 0.084175
vt 0.000000 0.000000
vt 0.150995 0.014309
vt 0.832150 0.538363
vt 0.929416 0.452932
vt 0.939296 0.355117
vt 1.000000 0.595428
vt 1.000000 0.860047
vt 0.960222 0.901328
vt 0.933335 0.835440
vt 0.348994 0.759245
vt 0.333275 0.750204
vt 0.371581 0.732675
vt 0.314809 0.722732
vt 0.375778 0.695631
vt 0.371581 0.732675
vt 0.252488 0.832670
vt 0.220900 0.819770
vt 0.318250 0.707460
vt 0.375778 0.695631
vt 0.183376 0.638252
vt 0.195048 0.631804
vt 0.364155 0.679415
vt 0.322563 0.697634
vt 0.347331 0.671003
vt 0.208868 0.623473
vt 0.323174 0.681624
vt 0.225884 0.614260
vt 0.305504 0.648563
s 0
usemtl lambert2
f 33/26/13 32/27/13 36/28/13 35/29/13
f 36/30/14 32/31/14 24/32/14
f 34/33/15 30/34/15 31/35/15 32/27/15 33/36/15
f 24/37/16 32/38/16 29/39/16
s 1
f 22/40/17 20/41/18 21/42/19
f 18/43/20 25/44/21 21/45/19 20/41/18
f 23/46/22 20/41/18 22/40/17
f 37/47/23 18/43/20 20/41/18 23/46/22
f 19/48/24 25/49/21 18/43/20
f 19/48/24 18/43/20 37/50/23
f 19/48/24 37/50/23 38/51/25
f 25/52/21 19/53/24 26/54/26
f 27/55/27 26/56/26 19/53/24 38/51/25
f 26/56/26 27/57/27 28/58/15
o plate:pCube72_cell.002
v -0.039140 0.004200 0.023581
v -0.034707 0.014101 0.020910
v -0.046855 0.021061 0.028229
v -0.052839 0.014696 0.031834
v -0.024023 0.014696 0.036644
v -0.024100 0.022714 0.036056
v -0.022403 0.008584 0.030776
v -0.020584 0.003253 0.024015
v -0.020700 0.013135 0.023381
v -0.021840 0.016110 0.027656
v -0.017471 0.011335 0.010526
v -0.017313 0.002478 0.010877
v -0.018656 0.003079 0.016239
v -0.050602 0.004617 0.005788
v -0.049849 0.013895 0.002792
v -0.056973 0.007545 0.003974
v -0.038923 0.004035 0.007518
v -0.056076 0.016799 0.001199
v -0.067830 0.012974 0.002338
v -0.070302 0.017748 0.002767
v -0.063366 0.022792 0.002092
v -0.054570 0.017966 0.028336
v -0.049685 0.022939 0.024430
v -0.041845 0.025421 0.031367
v -0.024023 0.014696 0.036644
v -0.024100 0.022714 0.036056
v -0.022403 0.008584 0.030776
v -0.020584 0.003253 0.024015
v -0.018656 0.003079 0.016239
v -0.017313 0.002478 0.010877
v -0.020700 0.013135 0.023381
v -0.017471 0.011335 0.010526
v -0.021840 0.016110 0.027656
v -0.038923 0.004035 0.007518
v -0.050602 0.004617 0.005788
v -0.056973 0.007545 0.003974
v -0.063366 0.022792 0.002092
v -0.049685 0.022939 0.024430
v -0.070302 0.017748 0.002767
v -0.054570 0.017966 0.028336
v -0.049849 0.013895 0.002792
v -0.056076 0.016799 0.001199
v -0.067830 0.012974 0.002338
v -0.041845 0.025421 0.031367
v -0.052839 0.014696 0.031834
v -0.046855 0.021061 0.028229
vn 0.1712 -0.1958 -0.9656
vn 0.0390 -0.2905 -0.9561
vn -0.1079 0.0242 -0.9939
vn -0.5358 0.7801 0.3230
vn -0.4033 0.6067 0.6850
vn -0.2079 -0.9010 0.3808
vn -0.0822 -0.9414 0.3271
vn -0.1038 -0.7236 0.6824
vn -0.2003 -0.2385 0.9503
vn -0.5230 -0.4654 0.7140
vn -0.2330 0.3592 0.9037
vn 0.3803 0.8865 -0.2635
vn 0.2047 0.9205 -0.3328
vn 0.1253 0.9365 -0.3277
vn 0.0976 0.9900 -0.1016
vn -0.4153 -0.8767 0.2429
vn -0.0565 -0.9982 0.0221
vn -0.5263 -0.7910 0.3118
vn -0.5660 -0.7526 0.3366
vn -0.8471 0.1083 0.5203
vn -0.2873 -0.3197 0.9029
vn 0.6424 -0.7654 0.0379
vn 0.7310 -0.5703 -0.3747
vn 0.4443 0.5555 -0.7029
vn 0.7709 0.2169 -0.5989
vn 0.1483 0.8142 -0.5613
vn 0.4745 0.8213 -0.3167
vn 0.4488 0.8411 -0.3018
vn 0.9704 0.0268 0.2400
vt 0.937633 0.652097
vt 0.642312 0.642312
vt 0.553650 0.553650
vt 0.783563 0.568579
vt 0.904958 0.573920
vt 1.000000 0.604285
vt 0.671538 0.671538
vt 0.604285 0.604285
vt 1.000000 0.534503
vt 0.984518 0.615945
vt 0.589746 0.589746
vt 0.505150 0.505150
vt 0.486183 0.000000
vt 0.557592 0.190710
vt 0.551797 0.551797
vt 0.486183 0.486183
vt 1.000000 0.633730
vt 1.000000 0.680100
vt 0.680100 0.680100
vt 0.633730 0.633730
vt 0.666047 0.601394
vt 0.754873 0.600383
vt 0.761139 0.635704
vt 0.704247 0.578377
vt 0.645384 0.644838
vt 0.813287 0.840467
vt 0.607433 0.585130
vt 0.691270 0.501021
vt 0.590280 0.557867
vt 0.651488 0.495102
vt 0.558716 0.388473
vt 0.567503 0.467993
vt 0.528615 0.506079
vt 0.693033 0.710771
vt 0.223599 0.050093
vt 0.295407 0.012000
vt 0.376836 0.052839
vt 0.366366 0.144542
vt 0.197672 0.022752
vt 0.158213 -0.061164
vt 0.807976 0.480687
vt 0.804414 0.512284
vt 0.794826 0.540311
vt 0.801432 0.452084
vt 0.683359 0.489992
vt 0.696856 0.484124
vt 0.651488 0.495102
vt 0.581262 0.549512
vt 0.633362 0.495814
vt 0.564377 0.536027
vt 0.630454 0.467712
vt 0.637893 0.470149
vt 0.634749 0.484037
vt 0.295816 0.280415
vt 0.620794 0.332725
vt 0.573823 0.375752
vt 0.598799 0.345612
vt 0.615051 0.336234
vt 0.604766 0.541850
vt 0.630012 0.471858
vt 0.727789 0.463138
vt 0.833506 0.467160
vt 0.930889 0.520694
vt 1.000000 0.553650
vt 0.968395 0.628860
vt 0.801261 0.552780
vt 0.736024 0.546994
s 0
usemtl lambert2
f 79/59/28 49/60/28 50/61/28 72/62/28 73/63/28 74/64/28
f 79/65/29 74/66/29 81/67/29 80/68/29
f 80/69/30 81/70/30 77/71/30 75/72/30
f 75/73/31 77/74/31 78/75/31 76/76/31
f 76/77/32 78/78/32 42/79/32 41/80/32 82/81/32
s 1
f 39/82/33 66/83/34 65/84/35 63/85/36 83/86/37
f 83/86/37 63/85/36 64/87/38 84/88/38
f 53/89/39 40/90/40 69/91/41 70/92/42
f 66/93/34 39/94/33 52/95/43 55/96/44 68/97/44 67/98/44
f 57/99/45 54/100/45 52/101/43 39/82/33 83/86/37 58/102/46
f 58/102/46 83/103/37 60/104/47
f 84/105/48 64/106/49 62/107/50
f 64/108/49 84/109/51 61/110/52 62/111/50
f 71/112/53 69/91/41 40/90/40 84/109/51 64/108/53
f 61/110/52 84/109/51 59/113/54
f 84/109/51 40/90/40 53/114/39 56/115/55 59/116/54
s 0
f 44/117/56 43/118/56 45/119/56 46/120/56 51/121/56 50/122/56 49/123/56 47/124/56 48/125/56
o plate:pCube72_cell.003
v -0.052281 0.020671 0.031499
v -0.069974 0.020484 0.002733
v -0.062010 0.024937 0.005223
v -0.045883 0.025421 0.030693
v -0.066892 0.025421 0.002280
v -0.052281 0.020671 0.031499
v -0.069974 0.020484 0.002733
v -0.062010 0.024937 0.005223
v -0.045883 0.025421 0.030693
v -0.066892 0.025421 0.002280
vn 0.5369 -0.7784 -0.3252
vn 0.4555 -0.3590 -0.8147
vn -0.6214 0.6624 0.4184
vn -0.5912 0.7018 0.3974
vn -0.5194 0.7807 0.3475
vn 0.1748 0.9761 -0.1292
vt 0.785788 0.333536
vt 0.724969 0.335196
vt 0.488646 0.000000
vt 0.572025 0.036228
vt 0.546543 0.546543
vt 0.513144 0.490708
vt 0.547132 0.518213
vt 0.671964 0.474105
vt 0.656418 0.472051
vt 0.638185 0.321074
vt 0.652299 0.312689
vt 0.646261 0.472665
vt 0.627852 0.327883
s 0
usemtl lambert2
f 93/126/57 90/127/57 91/128/57 92/129/57
f 92/130/58 91/131/58 94/132/58
s 1
f 85/133/59 88/134/60 89/135/61 86/136/59
f 88/137/60 87/138/62 89/135/61
o plate:pCube72_cell.004
v 0.000562 0.002174 0.024509
v 0.000622 0.011665 0.027141
v 0.000935 0.014696 0.040810
v 0.000829 0.021061 0.036188
v -0.022636 0.014696 0.036876
v -0.022790 0.022714 0.036274
v -0.021304 0.019430 0.030929
v -0.020994 0.008953 0.031382
v -0.019169 0.013029 0.023651
v -0.018872 0.003166 0.024055
v -0.017033 0.003003 0.016937
v -0.015722 0.011182 0.010553
v -0.015213 0.002284 0.010732
v -0.006634 0.001044 0.005213
v -0.005625 0.009222 0.002081
v 0.000924 0.009322 0.006379
v 0.020488 0.014696 0.036618
v 0.019378 0.021061 0.032211
v 0.021560 0.025421 0.034065
v 0.010453 0.011665 0.021218
v 0.011330 0.004686 0.025486
v 0.016444 0.017938 0.028610
v 0.000198 0.000765 0.008628
v -0.022636 0.014696 0.036876
v -0.022790 0.022714 0.036274
v -0.018872 0.003166 0.024055
v -0.017033 0.003003 0.016937
v -0.020994 0.008953 0.031382
v -0.019169 0.013029 0.023651
v -0.015722 0.011182 0.010553
v 0.020488 0.014696 0.036618
v 0.011330 0.004686 0.025486
v 0.000924 0.009322 0.006379
v 0.010453 0.011665 0.021218
v 0.019378 0.021061 0.032211
v 0.016444 0.017938 0.028610
v -0.021304 0.019430 0.030929
v -0.015213 0.002284 0.010732
v -0.006634 0.001044 0.005213
v -0.005625 0.009222 0.002081
v 0.000198 0.000765 0.008628
vn -0.9684 -0.0371 -0.2466
vn -0.9677 -0.0394 -0.2490
vn -0.6087 -0.1338 -0.7820
vn -0.9597 -0.0605 -0.2745
vn 0.4710 -0.3139 -0.8244
vn 0.8381 -0.2041 -0.5059
vn 0.0547 -0.9345 0.3517
vn 0.0547 -0.1993 0.9784
vn -0.0819 -0.2382 0.9678
vn -0.0694 -0.7720 0.6318
vn -0.0762 -0.9082 0.4116
vn 0.2096 -0.0162 0.9776
vn 0.1588 -0.8655 0.4750
vn 0.1707 0.5808 0.7959
vn 0.0167 0.9704 0.2410
vn 0.0376 0.9362 0.3495
vn 0.0517 0.9919 -0.1160
vn -0.0282 0.8963 -0.4425
vn -0.1501 0.9079 -0.3915
vn -0.0134 -0.9972 0.0735
vn -0.0773 -0.9945 0.0706
vn 0.1859 -0.4619 0.8672
vn -0.2132 0.7591 -0.6151
vn 0.1077 0.9029 -0.4162
vn 0.1196 0.7555 -0.6442
vn 0.0841 0.9896 -0.1165
vt 0.940372 0.320707
vt 1.000000 0.364479
vt 0.961057 0.388892
vt 0.514915 0.179477
vt 0.460968 0.323528
vt 0.417247 0.417247
vt 0.364479 0.364479
vt 0.424073 0.218390
vt 0.442219 0.000000
vt 0.517024 0.064674
vt 1.000000 0.438721
vt 0.455423 0.455423
vt 0.367036 0.367036
vt 1.000000 0.349318
vt 0.366921 0.000000
vt 0.455792 0.000000
vt 1.000000 0.478563
vt 0.748126 0.000000
vt 0.845630 0.000000
vt 1.000000 0.249813
vt 0.973514 0.360355
vt 0.799462 0.152755
vt 0.891711 0.240217
vt 0.936495 0.576837
vt 0.845630 0.845630
vt 0.748126 0.748126
vt 0.834346 0.444952
vt 0.803445 0.316333
vt 0.578309 0.720572
vt 0.534816 0.657981
vt 0.650667 0.648324
vt 1.086990 1.199213
vt 0.639955 0.650968
vt 0.460890 0.691809
vt 0.572837 0.795848
vt 0.436418 0.668677
vt 0.517261 0.632742
vt 0.460890 0.691809
vt 0.603397 0.589179
vt 0.586458 0.561786
vt 0.422097 0.496106
vt 0.469418 0.564055
vt 0.497232 0.686426
vt 0.141773 0.093501
vt 0.177597 0.144973
vt 0.111330 0.120660
vt 0.216976 0.053607
vt 0.190091 0.022191
vt 0.207789 0.080688
vt 0.199049 0.152455
vt 0.177597 0.144973
vt 0.436418 0.668677
vt 0.431309 0.657547
vt 0.497819 0.604839
vt 0.429287 0.634970
vt 0.445992 0.651266
vt 0.426908 0.584138
vt 0.560612 0.539919
vt 0.414697 0.401791
vt 0.508283 0.490308
vt 0.414755 0.452797
vt 1.325711 1.447252
vt 0.524366 0.510241
s 0
usemtl lambert2
f 119/139/63 131/140/63 118/141/63
f 120/142/64 122/143/64 118/144/64 131/145/64 123/146/64 124/147/64 121/148/64
f 133/149/65 132/150/65 124/151/65 134/152/65
f 124/153/66 132/154/66 121/155/66
f 127/156/67 117/157/67 133/158/67 134/159/67
f 129/160/68 125/161/68 126/162/68 117/163/68 127/164/68 128/165/68 130/166/68
s 1
f 95/167/69 97/168/70 99/169/71 102/170/72 104/171/73
f 111/172/74 97/168/70 95/167/69 115/173/75
f 112/174/76 98/175/77 97/168/70 111/176/74
f 99/177/71 97/168/70 98/175/77 100/178/78
f 110/179/79 96/180/80 114/181/81
f 95/182/69 135/183/82 115/184/75
f 95/182/69 104/185/73 105/186/83 107/187/83 108/188/83 135/189/82
f 98/175/84 112/190/84 113/191/84
f 98/192/77 112/193/85 116/194/85 114/195/81 96/180/80
f 100/196/78 98/192/77 96/180/80 103/197/86 101/198/87
f 110/179/79 109/199/88 106/200/88 103/201/86 96/180/80
o plate:pCube72_cell.005
v 0.058317 0.015058 0.000075
v 0.035629 0.014101 0.019298
v 0.047477 0.011665 -0.001088
v 0.024735 0.002586 0.013398
v 0.032748 0.009682 0.027430
v 0.032624 0.002878 -0.000748
v 0.037424 0.003793 -0.006276
v 0.040981 0.014696 0.032224
v 0.034763 0.022714 0.032976
v 0.038639 0.021061 0.028081
v 0.043190 0.018321 0.023394
v 0.047866 0.017541 0.015884
v 0.021136 0.021703 0.031930
v 0.022125 0.014696 0.036267
v 0.017837 0.017659 0.027933
v 0.014385 0.012622 0.024058
v 0.000109 0.000420 0.004736
v 0.011942 0.002756 0.023720
v 0.000033 0.008699 0.001448
v 0.021101 0.003224 0.023085
v -0.000472 0.000049 -0.000256
v 0.006734 0.001811 -0.013577
v 0.005032 0.010482 -0.012759
v 0.016613 0.011198 -0.010009
v 0.052830 0.014843 -0.001211
v 0.024735 0.002586 0.013398
v 0.032624 0.002878 -0.000748
v 0.037424 0.003793 -0.006276
v 0.040981 0.014696 0.032224
v 0.034763 0.022714 0.032976
v 0.043190 0.018321 0.023394
v 0.047866 0.017541 0.015884
v 0.038639 0.021061 0.028081
v 0.000109 0.000420 0.004736
v 0.011942 0.002756 0.023720
v 0.017837 0.017659 0.027933
v 0.014385 0.012622 0.024058
v 0.006734 0.001811 -0.013577
v 0.005032 0.010482 -0.012759
v 0.016613 0.011198 -0.010009
v 0.047477 0.011665 -0.001088
v 0.052830 0.014843 -0.001211
v 0.021101 0.003224 0.023085
v 0.032748 0.009682 0.027430
v 0.022125 0.014696 0.036267
v 0.021136 0.021703 0.031930
v 0.000033 0.008699 0.001448
v -0.000472 0.000049 -0.000256
vn 0.4133 -0.8855 0.2125
vn -0.8433 0.1917 0.5021
vn -0.9406 0.0015 -0.3394
vn 0.2087 0.2239 -0.9520
vn 0.0942 -0.9601 0.2632
vn 0.1101 -0.9103 0.3990
vn 0.1337 -0.7635 0.6318
vn 0.1263 -0.2765 0.9527
vn 0.1303 -0.3580 0.9246
vn 0.0285 0.8882 0.4586
vn -0.0808 0.9958 0.0425
vn -0.1079 0.9343 -0.3396
vn -0.1867 0.9059 -0.3801
vn -0.2606 0.9423 -0.2103
vn -0.0707 0.9975 -0.0006
vn -0.0622 0.9901 0.1259
vn 0.0847 -0.9948 -0.0565
vn 0.0803 -0.9964 -0.0263
vn 0.0774 -0.9970 -0.0073
vn 0.0677 -0.9961 0.0566
vn -0.1239 0.8072 -0.5771
vn -0.1456 0.7590 -0.6346
vn -0.2703 0.8391 -0.4721
vn 0.6052 0.7440 0.2833
vn -0.3774 0.8777 -0.2952
vt 0.562926 0.562926
vt 0.536965 0.396785
vt 0.541661 0.117821
vt 0.573589 0.000000
vt 1.000000 0.000000
vt 1.000000 0.630243
vt 0.810075 0.592320
vt 0.590112 0.000000
vt 0.788456 0.055195
vt 0.910777 0.473821
vt 0.851203 0.726818
vt 0.698486 0.683092
vt 0.718535 0.589521
vt 0.747294 0.412157
vt 0.238300 0.000000
vt 0.525408 0.111955
vt 1.000000 0.554675
vt 1.000000 0.731464
vt 0.338194 0.105200
vt 0.942696 0.000000
vt 1.000000 0.426411
vt 0.731463 0.731463
vt 0.554675 0.554675
vt 0.656605 0.440280
vt 0.936950 0.172875
vt 0.527441 0.740309
vt 0.471508 0.736670
vt 0.396668 0.683235
vt 0.383411 0.727262
vt 0.454702 0.694641
vt 0.386893 0.690691
vt 0.437849 0.678365
vt 0.420615 0.587111
vt 0.345288 0.622698
vt 0.261565 0.580799
vt 0.414061 0.484568
vt 0.390641 0.571522
vt 0.373873 0.463477
vt 0.410941 0.480088
vt 0.260682 0.571182
vt 0.220356 0.255743
vt 0.061469 0.261805
vt 0.091968 0.264403
vt 0.197060 0.172937
vt 0.199362 0.176245
vt 0.091968 0.264403
vt 0.335566 0.499381
vt 0.074493 0.153525
vt 0.104496 0.126758
vt 0.424964 0.652777
vt 0.375256 0.674552
vt 0.358123 0.666258
vt 0.442937 0.659047
vt 0.423457 0.637533
vt 0.331880 0.658426
vt 0.655886 0.551217
vt 0.780665 0.647726
vt 0.630243 0.630243
vt 0.000000 0.000000
vt 0.040419 0.000000
vt 0.355032 0.310917
vt 0.516997 0.458515
vt 0.297922 0.635467
vt 0.241674 0.594183
s 0
usemtl lambert2
f 155/202/89 161/203/89 162/204/89 163/205/89 136/206/89 143/207/89 179/208/89
f 182/209/90 169/210/90 170/211/90 149/212/90 181/213/90 171/214/90 172/215/90
f 169/216/91 182/217/91 174/218/91 173/219/91 183/220/91
f 177/221/92 136/206/92 163/222/92 173/223/92 174/224/92 175/225/92 138/226/92
s 1
f 153/227/93 178/228/94 140/229/95 164/230/96 180/231/97
f 164/230/96 165/232/98 148/233/99 180/231/97
f 151/234/100 137/235/101 176/236/102 154/237/103
f 159/238/104 158/239/104 154/240/103 176/241/102
f 157/242/105 142/243/105 141/244/106 152/245/107 156/246/105
f 152/245/107 141/247/106 139/248/108 178/249/94 153/250/93
f 148/251/99 165/252/98 168/253/109
f 137/235/101 151/234/100 150/254/110 148/255/99 168/253/109 146/256/111
s 0
f 145/257/112 144/258/112 143/259/112 136/260/112 177/261/112 167/262/112 166/263/112
s 1
f 176/236/102 137/235/101 146/256/111 147/264/113 160/265/113
o plate:pCube72_cell.006
v -0.053474 0.022714 -0.028964
v -0.048866 0.024937 -0.026469
v -0.054242 0.014696 -0.029380
v -0.071056 0.014696 0.001038
v -0.069894 0.022714 0.000739
v -0.062603 0.021061 0.000187
v -0.052730 0.011499 -0.022045
v -0.049976 0.011512 -0.027069
v -0.042879 0.018148 -0.023225
v -0.035876 0.021061 -0.028673
v -0.042993 0.014696 -0.031792
v -0.030776 0.022714 -0.033831
v -0.065110 0.011591 0.000177
v -0.047864 0.017511 -0.015799
v -0.056342 0.017561 -0.000611
v -0.071056 0.014696 0.001038
v -0.069894 0.022714 0.000739
v -0.042879 0.018148 -0.023225
v -0.035876 0.021061 -0.028673
v -0.052730 0.011499 -0.022045
v -0.049976 0.011512 -0.027069
v -0.042993 0.014696 -0.031792
v -0.030776 0.022714 -0.033831
v -0.065110 0.011591 0.000177
v -0.047864 0.017511 -0.015799
v -0.056342 0.017561 -0.000611
v -0.062603 0.021061 0.000187
vn 0.0813 0.0253 0.9964
vn 0.5576 -0.7721 0.3048
vn 0.5538 -0.7721 0.3117
vn 0.1175 -0.0321 0.9926
vn -0.4525 0.6059 -0.6543
vn 0.0345 0.8514 -0.5235
vn -0.2092 -0.0631 -0.9758
vn -0.5760 -0.3742 -0.7268
vn -0.3179 -0.7988 -0.5108
vn -0.4787 -0.8373 -0.2641
vn -0.8289 -0.3213 -0.4579
vn -0.7308 0.5736 -0.3701
vn 0.1629 0.9860 0.0353
vn 0.1809 0.9680 0.1741
vn 0.3201 0.7284 0.6057
vn 0.4502 0.6845 0.5734
vn 0.5765 0.7200 0.3863
vt 0.481599 0.331536
vt 0.492542 0.000000
vt 0.540812 0.279175
vt 0.373541 0.213195
vt 0.374317 0.158819
vt 0.335129 0.063229
vt 0.293172 0.000000
vt 0.358305 0.000000
vt 0.417195 0.102593
vt 0.439019 0.156773
vt 0.641695 0.000000
vt 0.755146 0.067115
vt 1.000000 0.389077
vt 1.000000 0.470882
vt 0.418526 0.000000
vt 0.507458 0.000000
vt 0.470882 0.470882
vt 0.389077 0.389077
vt 0.499197 0.232471
vt 0.416183 0.274973
vt 0.441865 0.223453
vt 0.482431 0.201170
vt 0.441865 0.223453
vt 0.457125 0.192254
vt 0.815343 0.475758
vt 0.808123 0.450509
vt 0.938058 0.463807
vt 0.935591 0.487444
vt 0.913172 0.485532
vt 0.939507 0.430716
vt 0.808123 0.450509
vt 0.803623 0.418691
vt 0.410878 0.291411
vt 0.496565 0.248118
vt 0.492801 0.258252
vt 0.632241 0.314399
vt 0.621134 0.321310
vt 0.421856 0.293682
vt 0.492859 0.274502
vt 0.449633 0.296016
vt 0.484680 0.299766
vt 0.500090 0.305012
vt 0.597017 0.338554
vt 0.584351 0.344539
s 0
usemtl lambert2
f 200/266/114 199/267/114 210/268/114
f 206/269/115 202/270/115 201/271/115 208/272/115 203/273/115 204/274/115 205/275/115
f 203/276/116 208/277/116 209/278/116 207/279/116
f 210/280/117 199/281/117 207/282/117 209/283/117
s 1
f 184/284/118 195/285/119 194/286/120 186/287/121
f 186/287/121 194/288/120 191/289/122
f 196/290/123 187/291/124 186/292/121 191/293/122 190/294/123
f 184/295/118 186/292/121 187/296/124 188/297/125
f 195/298/119 184/299/118 185/300/126
f 184/299/118 188/301/125 189/302/127 185/300/126
f 195/303/119 185/304/126 193/305/128
f 185/304/126 192/306/129 193/305/128
f 197/307/130 192/306/129 185/304/126 189/308/127 198/309/130
o plate:pCube72_cell.007
v 0.061468 0.013693 -0.001897
v 0.034707 0.014101 -0.020910
v 0.049847 0.025421 -0.030031
v 0.046855 0.021061 -0.028228
v 0.043125 0.004250 -0.007471
v 0.048677 0.004526 -0.006653
v 0.005356 0.010765 -0.014920
v 0.006964 0.002143 -0.017024
v 0.004004 0.012580 -0.027247
v 0.006312 0.002525 -0.024348
v 0.000721 0.024937 -0.036504
v 0.002835 0.013709 -0.039189
v 0.041643 0.011707 -0.030702
v 0.037842 0.004134 -0.023611
v 0.062664 0.021061 -0.002490
v 0.058118 0.018301 -0.001971
v 0.066413 0.025421 -0.003061
v 0.019341 0.011635 -0.011652
v 0.044341 0.012263 -0.005955
v 0.034256 0.003815 -0.009526
v 0.062993 0.021989 -0.013785
v 0.043125 0.004250 -0.007471
v 0.048677 0.004526 -0.006653
v 0.006312 0.002525 -0.024348
v 0.002835 0.013709 -0.039189
v 0.037842 0.004134 -0.023611
v 0.034256 0.003815 -0.009526
v 0.019341 0.011635 -0.011652
v 0.044341 0.012263 -0.005955
v 0.005356 0.010765 -0.014920
v 0.000721 0.024937 -0.036504
v 0.006964 0.002143 -0.017024
v 0.004004 0.012580 -0.027247
v 0.041643 0.011707 -0.030702
v 0.066413 0.025421 -0.003061
v 0.062664 0.021061 -0.002490
v 0.058118 0.018301 -0.001971
v 0.049847 0.025421 -0.030031
v 0.062993 0.021989 -0.013785
vn -0.1229 -0.3165 0.9406
vn -0.9764 -0.2019 0.0767
vn 0.6279 -0.6761 -0.3855
vn -0.2232 -0.1843 0.9572
vn 0.6649 -0.5510 -0.5043
vn 0.9036 -0.3970 -0.1611
vn -0.3300 0.9067 0.2626
vn -0.1863 0.8866 0.4234
vn -0.1059 0.8478 0.5197
vn -0.0752 0.9860 0.1486
vn 0.1489 -0.2824 -0.9477
vn 0.0822 0.9065 -0.4142
vn -0.4432 0.8610 0.2496
vn 0.1488 -0.2843 -0.9471
vn 0.0742 -0.9205 -0.3836
vn 0.0724 -0.9388 -0.3366
vn 0.0571 -0.9982 -0.0208
vn -0.4827 0.8241 0.2965
vn 0.6698 0.6181 -0.4114
vn -0.3648 0.6866 0.6289
vn -0.5737 0.7307 0.3701
vn -0.4112 0.8619 0.2968
vn 0.0721 0.0684 0.9951
vt 0.356650 0.000000
vt 0.256974 0.256974
vt 0.000000 0.000000
vt 0.453374 0.108986
vt 0.583467 0.265783
vt 0.658114 0.559576
vt 0.618095 0.618095
vt 0.480101 0.480101
vt 0.525808 0.369734
vt 1.000000 0.256974
vt 0.797448 0.222476
vt 0.677234 0.000000
vt 1.000000 0.000000
vt 0.930558 0.485386
vt 1.000000 0.643350
vt 1.000000 1.000000
vt 0.889236 0.889236
vt 0.875834 0.692896
vt 0.670027 0.249713
vt 0.563637 0.000000
vt 0.725101 0.000000
vt 0.692845 0.646167
vt 0.820260 0.668412
vt 1.000000 0.866142
vt 0.866142 0.866142
vt 1.000000 0.864151
vt 0.259479 0.558069
vt 0.253070 0.488226
vt 0.339446 0.409488
vt 0.367523 0.456776
vt 0.409834 0.622216
vt 0.279464 0.316069
vt 0.301491 0.335936
vt 0.145930 0.474636
vt 0.154400 0.424482
vt 0.228483 0.268519
vt 0.279464 0.316069
vt 0.147346 0.405711
vt 0.129925 0.358254
vt 0.249988 0.296019
vt 0.228483 0.268519
vt 0.129925 0.358254
vt 0.049504 0.323605
vt 0.054403 0.292379
vt 0.058267 0.237804
vt 0.180727 0.958244
vt 0.218135 0.830578
vt 0.205382 0.879418
vt 0.178533 0.627874
vt 0.163645 0.479949
vt 0.174470 0.479920
vt 0.189057 0.621743
vt 0.312809 0.350164
vt 0.205748 0.615680
vt 0.202255 0.615139
vt 0.189689 0.485613
vt 0.259479 0.558069
vt 0.318821 0.364162
vt 0.871418 0.810653
vt 0.937455 0.880823
vt 1.000000 0.924987
s 0
usemtl lambert2
f 232/310/131 233/311/131 211/312/131
f 241/313/132 235/314/132 234/315/132 242/316/132 240/317/132 243/318/132
f 233/319/133 236/320/133 244/321/133 211/322/133
f 237/323/134 232/324/134 211/325/134 247/326/134 239/327/134 238/328/134 240/329/134 242/330/134
f 211/325/135 244/331/135 213/332/135 249/333/135
f 249/334/136 227/335/136 211/325/136
s 1
f 229/336/137 212/337/138 219/338/139 217/339/140 228/340/140
f 222/341/141 221/342/142 248/343/143 223/344/144
f 220/345/145 222/346/141 223/347/144 224/348/146
f 218/349/147 220/350/145 224/351/146 216/352/147 215/353/147 230/354/147
f 248/355/143 245/356/148 231/357/149
f 245/358/148 248/359/143 214/360/150 246/361/151
f 221/362/142 214/360/150 248/359/143
f 226/363/152 246/364/151 214/365/150 212/337/138 229/366/137
f 219/338/139 212/337/138 214/365/150 221/367/142
s 0
f 227/368/153 225/369/153 247/370/153 211/325/153
o plate:pCube72_cell.008
v -0.040179 0.004200 -0.021763
v -0.035629 0.014101 -0.019298
v -0.000562 0.002174 -0.024509
v -0.000935 0.014696 -0.040810
v -0.000882 0.025421 -0.038499
v 0.002650 0.011890 -0.026564
v 0.004789 0.002426 -0.022206
v 0.005410 0.001858 -0.015353
v 0.003815 0.010563 -0.014372
v 0.000185 0.021061 -0.036018
v -0.054490 0.016366 -0.000365
v -0.041411 0.017328 -0.022430
v -0.039725 0.014696 -0.032493
v -0.048719 0.010574 -0.026389
v -0.047793 0.016450 -0.012733
v -0.027460 0.022714 -0.034542
v -0.032501 0.021061 -0.029397
v -0.016347 0.002264 0.009437
v -0.008947 0.001234 0.005106
v -0.007376 0.009268 0.001694
v -0.015926 0.010608 0.006653
v -0.003877 0.000446 0.001238
v -0.003355 0.008928 -0.001450
v -0.000123 0.000475 -0.005356
v -0.000164 0.009356 -0.007140
v -0.060787 0.008773 0.001393
v -0.051769 0.004659 0.003976
v -0.044729 0.004308 0.005019
v -0.046759 0.011802 0.002203
v 0.002650 0.011890 -0.026564
v 0.003815 0.010563 -0.014372
v 0.004789 0.002426 -0.022206
v 0.005410 0.001858 -0.015353
v -0.039725 0.014696 -0.032493
v -0.027460 0.022714 -0.034542
v -0.054490 0.016366 -0.000365
v -0.047793 0.016450 -0.012733
v -0.041411 0.017328 -0.022430
v -0.032501 0.021061 -0.029397
v -0.007376 0.009268 0.001694
v -0.015926 0.010608 0.006653
v -0.016347 0.002264 0.009437
v -0.008947 0.001234 0.005106
v -0.000123 0.000475 -0.005356
v -0.000164 0.009356 -0.007140
v -0.003355 0.008928 -0.001450
v -0.060787 0.008773 0.001393
v -0.051769 0.004659 0.003976
v -0.044729 0.004308 0.005019
v -0.046759 0.011802 0.002203
v 0.000185 0.021061 -0.036018
v -0.000935 0.014696 -0.040810
v -0.048719 0.010574 -0.026389
v -0.003877 0.000446 0.001238
vn 0.5148 0.2479 0.8207
vn 0.6137 0.2040 0.7628
vn 0.8642 0.1029 0.4925
vn -0.1232 0.3197 0.9395
vn 0.0613 0.9851 -0.1606
vn 0.0777 0.9936 0.0815
vn 0.2412 0.9509 0.1940
vn -0.0887 0.9893 0.1162
vn 0.1036 0.9132 0.3941
vn 0.0613 0.9897 0.1295
vn 0.1843 0.9111 0.3686
vn 0.0805 0.9881 0.1310
vn -0.1316 0.3025 -0.9440
vn -0.1114 -0.2880 -0.9511
vn -0.1290 -0.6200 -0.7739
vn 0.1588 -0.9511 -0.2648
vn 0.0598 -0.9147 -0.3998
vn -0.1973 -0.9168 -0.3473
vn -0.2890 -0.8480 -0.4444
vn -0.0490 -0.9973 -0.0545
vn -0.0779 -0.9969 -0.0137
vn -0.2870 -0.9485 -0.1344
vn 0.0855 -0.9923 -0.0900
vn -0.0837 -0.9907 0.1077
vn -0.4347 -0.8748 -0.2141
vn -0.0762 -0.5071 -0.8585
vn 0.1399 0.7814 0.6082
vn 0.0752 0.9256 0.3710
vn 0.1328 0.8018 0.5826
vn 0.2667 0.8565 0.4419
vn 0.3571 0.8961 0.2636
vn 0.9791 0.1201 -0.1644
vn -0.6345 0.7126 -0.2993
vt 0.352535 0.000000
vt 0.441437 0.000000
vt 1.000000 0.573596
vt 1.000000 0.663259
vt 1.000000 0.269202
vt 1.000000 0.428153
vt 0.659201 0.659201
vt 0.568986 0.568986
vt 0.557020 0.266320
vt 1.000000 0.287273
vt 1.000000 0.452351
vt 0.678513 0.433303
vt 0.428153 0.428153
vt 0.379105 0.264200
vt 1.000000 0.376226
vt 0.963426 0.433488
vt 0.850457 0.344161
vt 0.793820 0.275816
vt 0.558563 0.000000
vt 0.647465 0.000000
vt 0.937645 0.335890
vt 0.798514 0.837151
vt 0.426622 0.468814
vt 0.557797 0.380156
vt 0.371987 0.452562
vt 0.353096 0.397045
vt 0.395724 0.458242
vt 0.395724 0.458243
vt 0.473320 0.334859
vt 0.557218 0.374924
vt 0.417803 0.467927
vt 0.404053 0.281184
vt 0.306993 0.330878
vt 0.290202 0.306760
vt 0.430083 0.229924
vt 0.233759 0.263715
vt 0.249970 0.248956
vt 0.285299 0.314195
vt 0.399015 0.171778
vt 0.457946 0.245539
vt 0.430083 0.229924
vt 0.208621 0.189548
vt 0.209029 0.166397
vt 0.397710 0.063309
vt 0.247905 0.281787
vt 0.225718 0.254388
vt 0.208621 0.189548
vt 0.214195 0.127372
vt 0.207588 0.049606
vt 0.378699 0.112049
vt 0.208513 0.160092
vt 0.815147 0.484982
vt 0.934863 0.494409
vt 0.929924 0.541723
vt 0.818046 0.530553
vt 0.398666 0.297581
vt 0.313705 0.340507
vt 0.317422 0.345837
vt 0.409496 0.299855
vt 0.437699 0.301955
vt 0.325691 0.357701
vt 0.482380 0.306873
vt 0.516658 0.318977
vt 0.578169 0.350338
vt 0.452189 0.299272
vt 0.578501 0.161784
vt 0.547649 0.000000
vt 0.712727 0.000000
vt 0.743036 0.119302
vt 0.589872 0.348293
vt 0.840555 0.369042
vt 0.726800 0.359395
vt 0.648654 0.298368
vt 0.542027 0.000000
vt 0.623774 0.000000
vt 0.673024 0.137170
vt 0.722354 0.243385
vt 0.798721 0.314627
s 0
usemtl lambert2
f 290/371/154 291/372/154 292/373/154 289/374/154
f 303/375/155 295/376/155 289/377/155 292/378/155
f 293/379/156 282/380/156 258/381/156 294/382/156 295/383/156 303/384/156
f 260/385/157 296/386/157 297/387/157 298/388/157 291/389/157 290/390/157 299/391/157
s 1
f 270/392/158 269/393/159 278/394/160
f 280/395/161 279/396/162 274/397/163
f 274/398/163 279/396/162 251/399/164 278/400/160 269/393/159 272/401/165
f 284/402/166 300/403/166 301/404/167 283/405/168
f 281/406/169 252/407/170 301/408/167
f 301/404/167 252/407/170 250/409/171 302/410/172 283/411/168
f 250/409/171 252/407/170 273/412/173 271/413/174 276/414/175
f 252/407/170 281/415/169 257/416/176 273/417/173
f 268/418/177 267/419/177 277/420/177 276/414/175 271/421/174
f 275/422/178 302/423/172 250/424/171 276/425/175
f 284/426/179 254/427/179 300/403/179
f 300/428/180 284/429/181 288/430/182
f 251/399/164 279/396/162 300/431/180 288/430/182 287/432/183
f 278/400/160 251/399/164 287/432/183 286/433/184 285/434/184
s 0
f 259/435/185 255/436/185 258/437/185 282/438/185 256/439/185 253/440/185
f 265/441/186 262/442/186 263/443/186 296/444/186 260/445/186 264/446/186 261/447/186 266/448/186
o plate:pCube72_cell.009
v 0.063650 0.013085 -0.001363
v 0.052839 0.014696 -0.031834
v 0.071282 0.014696 -0.001445
v 0.070256 0.019891 -0.002396
v 0.060530 0.009125 -0.002853
v 0.054701 0.006584 -0.004833
v 0.042288 0.006612 -0.025477
v 0.045904 0.006609 -0.019468
v 0.046333 0.014696 -0.032920
v 0.063650 0.013085 -0.001363
v 0.060530 0.009125 -0.002853
v 0.054701 0.006584 -0.004833
v 0.042288 0.006612 -0.025477
v 0.046333 0.014696 -0.032920
v 0.045904 0.006609 -0.019468
v 0.071282 0.014696 -0.001445
v 0.070256 0.019891 -0.002396
v 0.052839 0.014696 -0.031834
vn -0.0263 0.1750 0.9842
vn -0.2554 -0.1576 0.9539
vn 0.1170 -0.7037 -0.7008
vn 0.3970 -0.7891 -0.4687
vn 0.4012 -0.8298 -0.3878
vn 0.0978 -0.4171 0.9036
vn 0.4683 -0.8722 -0.1417
vn 0.8274 -0.4349 -0.3552
vn 0.4684 -0.8365 -0.2844
vn 0.8526 0.0737 -0.5174
vn -0.5624 0.7666 0.3098
vt 0.924213 0.056226
vt 0.885594 0.000000
vt 1.000000 0.039668
vt 0.173686 0.000000
vt 0.062812 0.062812
vt 0.000000 0.000000
vt 0.144542 0.433028
vt 0.124492 0.450409
vt 0.125551 0.382275
vt 0.267748 0.849895
vt 0.271954 0.854209
vt 0.246299 0.838988
vt 0.270670 0.983505
vt 0.212244 0.968439
vt 0.245762 0.839536
vt 0.283681 0.868038
vt 0.296123 0.897411
vt 0.279066 0.955342
vt 0.226798 0.832169
vt 0.192780 0.962143
vt 0.826314 0.000000
vt 1.000000 0.000000
vt 1.000000 0.109141
vt 0.828510 0.267852
vt 0.814336 0.204234
vt 0.919972 0.229110
vt 0.309093 0.309093
s 0
usemtl lambert2
f 319/449/187 320/450/187 313/451/187
f 315/452/188 314/453/188 313/454/188
s 1
f 317/455/189 321/456/190 316/457/191
f 304/458/192 308/459/193 306/460/194
f 316/461/191 321/462/190 306/463/194 308/464/193 309/465/195 318/466/195
f 307/467/196 306/463/194 321/468/190
s 0
f 315/469/197 313/470/197 320/471/197 305/472/197 312/473/197 310/474/197 311/475/197
