# This file uses centimeters as units for non-parametric coordinates.

mtllib Pot.mtl
g default
v -0.750481 0.058500 -6.007273
v -0.638397 0.058500 -6.227250
v -0.463823 0.058500 -6.401825
v -0.243846 0.058500 -6.513908
v 0.000000 0.058500 -6.552530
v 0.000000 0.058500 -4.974325
v -0.243846 0.058500 -5.012946
v -0.463822 0.058500 -5.125030
v -0.638397 0.058500 -5.299605
v -0.750481 0.058500 -5.519581
v -0.789102 0.058500 -5.763427
v -0.750481 1.552798 -6.007273
v -0.638397 1.552798 -6.227250
v -0.463823 1.552798 -6.401825
v -0.243846 1.552798 -6.513908
v 0.000000 1.552798 -6.552530
v 0.000000 1.552798 -4.974325
v -0.243846 1.552798 -5.012947
v -0.463822 1.552798 -5.125030
v -0.638397 1.552798 -5.299605
v -0.750481 1.552798 -5.519581
v -0.789102 1.552798 -5.763427
v 0.000000 0.058500 -5.763427
v -0.663994 1.552798 -5.979172
v -0.564827 1.552798 -6.173798
v -0.410371 1.552798 -6.328254
v -0.215745 1.552798 -6.427421
v 0.000000 1.552798 -6.461591
v 0.000000 1.552798 -5.065263
v -0.215744 1.552798 -5.099434
v -0.410370 1.552798 -5.198601
v -0.564826 1.552798 -5.353057
v -0.663993 1.552798 -5.547683
v -0.698164 1.552798 -5.763427
v -0.663994 0.378501 -5.979171
v -0.564827 0.378501 -6.173798
v 0.000000 0.378501 -5.763427
v -0.410371 0.378501 -6.328254
v -0.215745 0.378501 -6.427421
v 0.000000 0.378501 -6.461591
v 0.000000 0.378501 -5.065263
v -0.215744 0.378501 -5.099434
v -0.410370 0.378501 -5.198601
v -0.564826 0.378501 -5.353057
v -0.663993 0.378501 -5.547683
v -0.698164 0.378501 -5.763427
v -0.750481 1.253939 -6.007273
v -0.789102 1.253939 -5.763427
v -0.750481 1.253939 -5.519581
v -0.638397 1.253939 -5.299605
v -0.463823 1.253939 -5.125030
v -0.243846 1.253939 -5.012947
v 0.000000 1.253939 -4.974325
v 0.000000 1.253939 -6.552530
v -0.243846 1.253939 -6.513908
v -0.463823 1.253939 -6.401825
v -0.638397 1.253939 -6.227250
v -0.750481 1.433254 -6.007273
v -0.789102 1.433254 -5.763427
v -0.750481 1.433254 -5.519581
v -0.638397 1.433254 -5.299605
v -0.463823 1.433254 -5.125030
v -0.243846 1.433254 -5.012947
v 0.000000 1.433254 -4.974325
v 0.000000 1.433254 -6.552530
v -0.243846 1.433254 -6.513908
v -0.463823 1.433254 -6.401825
v -0.638397 1.433254 -6.227250
v -0.950007 1.253939 -6.007273
v -1.014832 1.253939 -5.763427
v -0.950007 1.433254 -6.007273
v -1.014832 1.433254 -5.763427
v -0.950007 1.253939 -5.519581
v -0.950007 1.433254 -5.519581
v 0.750481 0.058500 -6.007273
v 0.638397 0.058500 -6.227250
v 0.463823 0.058500 -6.401825
v 0.243846 0.058500 -6.513908
v 0.243846 0.058500 -5.012946
v 0.463822 0.058500 -5.125030
v 0.638397 0.058500 -5.299605
v 0.750481 0.058500 -5.519581
v 0.789102 0.058500 -5.763427
v 0.750481 1.552798 -6.007273
v 0.638397 1.552798 -6.227250
v 0.463823 1.552798 -6.401825
v 0.243846 1.552798 -6.513908
v 0.243846 1.552798 -5.012947
v 0.463822 1.552798 -5.125030
v 0.638397 1.552798 -5.299605
v 0.750481 1.552798 -5.519581
v 0.789102 1.552798 -5.763427
v 0.663994 1.552798 -5.979172
v 0.564827 1.552798 -6.173798
v 0.410371 1.552798 -6.328254
v 0.215745 1.552798 -6.427421
v 0.215744 1.552798 -5.099434
v 0.410370 1.552798 -5.198601
v 0.564826 1.552798 -5.353057
v 0.663993 1.552798 -5.547683
v 0.698164 1.552798 -5.763427
v 0.663994 0.378501 -5.979171
v 0.564827 0.378501 -6.173798
v 0.410371 0.378501 -6.328254
v 0.215745 0.378501 -6.427421
v 0.215744 0.378501 -5.099434
v 0.410370 0.378501 -5.198601
v 0.564826 0.378501 -5.353057
v 0.663993 0.378501 -5.547683
v 0.698164 0.378501 -5.763427
v 0.750481 1.253939 -6.007273
v 0.789102 1.253939 -5.763427
v 0.750481 1.253939 -5.519581
v 0.638397 1.253939 -5.299605
v 0.463823 1.253939 -5.125030
v 0.243846 1.253939 -5.012947
v 0.243846 1.253939 -6.513908
v 0.463823 1.253939 -6.401825
v 0.638397 1.253939 -6.227250
v 0.750481 1.433254 -6.007273
v 0.789102 1.433254 -5.763427
v 0.750481 1.433254 -5.519581
v 0.638397 1.433254 -5.299605
v 0.463823 1.433254 -5.125030
v 0.243846 1.433254 -5.012947
v 0.243846 1.433254 -6.513908
v 0.463823 1.433254 -6.401825
v 0.638397 1.433254 -6.227250
v 0.950007 1.253939 -6.007273
v 1.014832 1.253939 -5.763427
v 0.950007 1.433254 -6.007273
v 1.014832 1.433254 -5.763427
v 0.950007 1.253939 -5.519581
v 0.950007 1.433254 -5.519581
vt 0.728206 0.001804
vt 0.728206 0.241062
vt 0.684179 0.241062
vt 0.684179 0.001804
vt 0.777009 0.001804
vt 0.777009 0.241062
vt 0.728206 0.276951
vt 0.684179 0.276951
vt 0.649239 0.241062
vt 0.649239 0.001804
vt 0.825813 0.001804
vt 0.825813 0.241062
vt 0.728206 0.300876
vt 0.684179 0.300876
vt 0.649239 0.276951
vt 0.869840 0.001804
vt 0.869840 0.241062
vt 0.777009 0.276951
vt 0.777009 0.300876
vt 0.649239 0.300876
vt 0.904780 0.001804
vt 0.904780 0.241062
vt 0.869840 0.276951
vt 0.825813 0.276951
vt 0.825813 0.300876
vt 0.904780 0.276951
vt 0.869840 0.300876
vt 0.904780 0.300876
vt 0.158218 0.840144
vt 0.158217 0.605117
vt 0.197170 0.605117
vt 0.197170 0.840144
vt 0.115038 0.840144
vt 0.115038 0.605117
vt 0.228084 0.605117
vt 0.228084 0.840144
vt 0.071858 0.840144
vt 0.071858 0.605117
vt 0.032905 0.840144
vt 0.032905 0.605117
vt 0.001992 0.840144
vt 0.001992 0.605117
vt 0.812951 0.656736
vt 0.848840 0.656736
vt 0.848840 0.705540
vt 0.812951 0.705540
vt 0.812951 0.607932
vt 0.848840 0.607932
vt 0.535448 0.321661
vt 0.579475 0.321661
vt 0.579475 0.560919
vt 0.535448 0.560919
vt 0.614415 0.321661
vt 0.614415 0.560919
vt 0.579475 0.596808
vt 0.535448 0.596808
vt 0.486644 0.321661
vt 0.486644 0.560919
vt 0.614415 0.596808
vt 0.579475 0.620734
vt 0.535448 0.620734
vt 0.437840 0.321661
vt 0.437840 0.560919
vt 0.614415 0.620734
vt 0.486644 0.596808
vt 0.486644 0.620734
vt 0.393814 0.321661
vt 0.393814 0.560919
vt 0.437840 0.596808
vt 0.437840 0.620734
vt 0.393814 0.596808
vt 0.358874 0.321661
vt 0.358874 0.560919
vt 0.393814 0.620734
vt 0.358874 0.596808
vt 0.358874 0.620734
vt 0.648943 0.859752
vt 0.609990 0.859752
vt 0.609990 0.624725
vt 0.648943 0.624725
vt 0.579077 0.859752
vt 0.579077 0.624725
vt 0.692123 0.859752
vt 0.692123 0.624725
vt 0.735302 0.859752
vt 0.735302 0.624725
vt 0.774255 0.859752
vt 0.774255 0.624725
vt 0.805168 0.859752
vt 0.805168 0.624725
vt 0.962119 0.758335
vt 0.962119 0.709531
vt 0.998008 0.709531
vt 0.998008 0.758335
vt 0.962119 0.807139
vt 0.998008 0.807139
vt 0.032154 0.066906
vt 0.159925 0.159737
vt 0.009722 0.110933
vt 0.067094 0.031966
vt 0.001992 0.159737
vt 0.111121 0.009534
vt 0.009722 0.208541
vt 0.159925 0.001804
vt 0.032155 0.252567
vt 0.208729 0.009534
vt 0.067094 0.287507
vt 0.252756 0.031966
vt 0.111121 0.309940
vt 0.287695 0.066906
vt 0.159925 0.317670
vt 0.310128 0.110933
vt 0.208729 0.309940
vt 0.317858 0.159737
vt 0.252755 0.287507
vt 0.310128 0.208541
vt 0.287695 0.252567
vt 0.080113 0.504573
vt 0.213006 0.461393
vt 0.099960 0.543526
vt 0.073274 0.461393
vt 0.130874 0.574439
vt 0.080113 0.418214
vt 0.169827 0.594287
vt 0.099960 0.379261
vt 0.213006 0.601126
vt 0.130874 0.348348
vt 0.256186 0.594287
vt 0.169827 0.328500
vt 0.295139 0.574439
vt 0.213006 0.321661
vt 0.326052 0.543526
vt 0.256186 0.328500
vt 0.345900 0.504573
vt 0.295139 0.348348
vt 0.352738 0.461393
vt 0.326052 0.379261
vt 0.345900 0.418214
vt 0.333443 0.208541
vt 0.350753 0.202916
vt 0.370600 0.241869
vt 0.355875 0.252567
vt 0.325713 0.159737
vt 0.343914 0.159737
vt 0.401513 0.272783
vt 0.390815 0.287507
vt 0.333443 0.110933
vt 0.350753 0.116557
vt 0.440466 0.292630
vt 0.434842 0.309940
vt 0.355876 0.066906
vt 0.370600 0.077604
vt 0.483646 0.299469
vt 0.483646 0.317670
vt 0.390815 0.031966
vt 0.401513 0.046691
vt 0.532450 0.309940
vt 0.526826 0.292630
vt 0.434842 0.009534
vt 0.440466 0.026843
vt 0.576477 0.287507
vt 0.565779 0.272783
vt 0.483646 0.001804
vt 0.483646 0.020004
vt 0.611416 0.252567
vt 0.596692 0.241869
vt 0.532450 0.009534
vt 0.526826 0.026843
vt 0.633849 0.208541
vt 0.616539 0.202916
vt 0.576477 0.031966
vt 0.565778 0.046691
vt 0.641579 0.159737
vt 0.623378 0.159737
vt 0.611416 0.066906
vt 0.596692 0.077604
vt 0.633849 0.110933
vt 0.616539 0.116557
vt 0.901006 0.656736
vt 0.855828 0.656736
vt 0.868802 0.607932
vt 0.908736 0.607932
vt 0.908736 0.705540
vt 0.868802 0.705540
vt 0.969153 0.705540
vt 0.929220 0.705540
vt 0.916245 0.656736
vt 0.961424 0.656736
vt 0.929220 0.607932
vt 0.969153 0.607932
vt 0.910806 0.758335
vt 0.903076 0.709531
vt 0.943010 0.709531
vt 0.955984 0.758335
vt 0.903076 0.807139
vt 0.943010 0.807139
vt 0.844033 0.807139
vt 0.851762 0.758335
vt 0.896941 0.758335
vt 0.883966 0.807139
vt 0.844033 0.709531
vt 0.883966 0.709531
vt 0.812347 0.603940
vt 0.812347 0.364682
vt 0.856373 0.364682
vt 0.856373 0.603940
vt 0.812347 0.328793
vt 0.856373 0.328793
vt 0.905177 0.364682
vt 0.905177 0.603940
vt 0.812347 0.304868
vt 0.856373 0.304868
vt 0.905177 0.328793
vt 0.953981 0.603940
vt 0.953981 0.364682
vt 0.905177 0.304868
vt 0.953981 0.328793
vt 0.998008 0.603940
vt 0.998008 0.364682
vt 0.953981 0.304868
vt 0.998008 0.328793
vt 0.998008 0.304868
vt 0.713381 0.321661
vt 0.713381 0.560919
vt 0.664577 0.560919
vt 0.664577 0.321661
vt 0.762185 0.321661
vt 0.762185 0.560919
vt 0.713381 0.596808
vt 0.664577 0.596808
vt 0.620550 0.560919
vt 0.620550 0.321661
vt 0.806211 0.321661
vt 0.806211 0.560919
vt 0.762185 0.596808
vt 0.713381 0.620734
vt 0.664577 0.620734
vt 0.620550 0.596808
vt 0.806211 0.596808
vt 0.762185 0.620734
vt 0.620550 0.620734
vt 0.806211 0.620734
vt 0.236061 0.859752
vt 0.236061 0.624725
vt 0.275014 0.624725
vt 0.275014 0.859752
vt 0.318194 0.624725
vt 0.318194 0.859752
vt 0.361373 0.859752
vt 0.361373 0.624725
vt 0.400326 0.859752
vt 0.400326 0.624725
vt 0.489702 0.624725
vt 0.489702 0.859752
vt 0.446522 0.859752
vt 0.446522 0.624725
vt 0.532881 0.624725
vt 0.532881 0.859752
vt 0.407569 0.859752
vt 0.407569 0.624725
vt 0.571834 0.624725
vt 0.571834 0.859752
vt 0.837897 0.863743
vt 0.837897 0.903677
vt 0.802009 0.903677
vt 0.802009 0.863743
vt 0.795873 0.863743
vt 0.795873 0.903677
vt 0.759985 0.903677
vt 0.759985 0.863743
vt 0.753849 0.903677
vt 0.717961 0.903677
vt 0.717961 0.863743
vt 0.753849 0.863743
vt 0.711825 0.903677
vt 0.675937 0.903677
vt 0.675937 0.863743
vt 0.711825 0.863743
vn -0.951057 -0.000000 -0.309016
vn -0.947584 -0.000000 -0.319506
vn -0.809017 0.000000 -0.587785
vn -0.809017 -0.000000 -0.587785
vn -0.587785 0.000000 -0.809017
vn -0.587785 0.000000 -0.809017
vn -0.309017 0.000000 -0.951057
vn -0.309017 0.000000 -0.951057
vn 0.000000 0.000000 -1.000000
vn 0.000000 0.000000 -1.000000
vn 0.000000 0.000000 1.000000
vn 0.000000 0.000000 1.000000
vn -0.309017 0.000000 0.951056
vn -0.309017 0.000000 0.951056
vn -0.587785 0.000000 0.809017
vn -0.587785 0.000000 0.809017
vn -0.809017 0.000000 0.587785
vn -0.809017 0.000000 0.587785
vn -0.947584 -0.000000 0.319507
vn -0.951057 -0.000000 0.309017
vn -1.000000 -0.000000 0.000001
vn -1.000000 -0.000000 0.000001
vn 0.000000 -1.000000 -0.000000
vn 0.000000 -1.000000 -0.000000
vn 0.000000 -1.000000 -0.000000
vn 0.000000 -1.000000 0.000000
vn 0.000000 -1.000000 0.000000
vn 0.000000 -1.000000 0.000000
vn 0.000000 -1.000000 0.000000
vn 0.000000 -1.000000 0.000000
vn 0.000000 -1.000000 0.000000
vn 0.000000 -1.000000 -0.000000
vn 0.000000 -1.000000 -0.000000
vn 0.000000 -1.000000 0.000000
vn 0.000000 1.000000 -0.000000
vn 0.000000 1.000000 -0.000000
vn 0.000000 1.000000 -0.000000
vn 0.000000 1.000000 0.000000
vn 0.000000 1.000000 0.000000
vn 0.000000 1.000000 0.000000
vn 0.000000 1.000000 0.000000
vn 0.000000 1.000000 0.000000
vn 0.000000 1.000000 -0.000000
vn 0.000000 1.000000 -0.000000
vn 0.000000 1.000000 0.000000
vn 0.000000 1.000000 0.000000
vn 0.000000 1.000000 -0.000001
vn 0.000000 1.000000 -0.000001
vn 0.000000 1.000000 -0.000001
vn 0.000000 1.000000 -0.000001
vn 0.000000 1.000000 0.000001
vn 0.000000 1.000000 0.000001
vn 0.000000 1.000000 0.000001
vn 0.000000 1.000000 0.000001
vn 0.000000 1.000000 0.000001
vn 0.000000 1.000000 0.000001
vn 0.000000 1.000000 0.000001
vn 0.000000 1.000000 0.000001
vn 0.000000 1.000000 0.000000
vn 0.000000 1.000000 0.000000
vn 0.000000 1.000000 0.000000
vn 0.000000 1.000000 0.000000
vn 0.000000 1.000000 0.000000
vn 0.000000 1.000000 0.000000
vn 0.000000 1.000000 0.000000
vn 0.000000 1.000000 0.000000
vn 0.000000 1.000000 0.000001
vn 0.000000 1.000000 0.000001
vn 0.000000 1.000000 0.000001
vn 0.000000 1.000000 0.000001
vn 0.000000 1.000000 0.000000
vn 0.000000 1.000000 0.000000
vn 0.000000 1.000000 0.000000
vn 0.000000 1.000000 0.000000
vn 0.000000 1.000000 0.000000
vn 0.000000 1.000000 0.000000
vn 0.000000 1.000000 0.000000
vn 0.000000 1.000000 0.000000
vn 0.000000 1.000000 0.000000
vn 0.000000 1.000000 0.000000
vn 0.000000 1.000000 0.000000
vn 0.000000 1.000000 0.000000
vn 0.000000 1.000000 0.000000
vn 0.000000 1.000000 0.000000
vn 0.000000 1.000000 0.000000
vn 0.000000 1.000000 0.000000
vn 0.951057 0.000000 0.309016
vn 0.951057 0.000000 0.309016
vn 0.809017 0.000000 0.587785
vn 0.809017 0.000000 0.587785
vn 0.587785 0.000000 0.809017
vn 0.587785 0.000000 0.809017
vn 0.309017 0.000000 0.951057
vn 0.309017 0.000000 0.951057
vn 0.000000 0.000000 1.000000
vn 0.000000 0.000000 1.000000
vn 0.000000 0.000000 -1.000000
vn 0.000000 0.000000 -1.000000
vn 0.309017 -0.000000 -0.951057
vn 0.309017 -0.000000 -0.951057
vn 0.587786 -0.000000 -0.809017
vn 0.587786 -0.000000 -0.809017
vn 0.809017 0.000000 -0.587785
vn 0.809017 0.000000 -0.587785
vn 0.951056 0.000000 -0.309017
vn 0.951056 0.000000 -0.309017
vn 1.000000 0.000000 -0.000001
vn 1.000000 0.000000 -0.000001
vn -1.000000 0.000000 -0.000000
vn -1.000000 0.000000 -0.000000
vn -0.966432 0.000000 -0.256921
vn -0.966432 0.000000 -0.256921
vn -0.966432 0.000000 0.256921
vn -0.966432 0.000000 0.256921
vn -0.809017 -0.000000 0.587785
vn -0.927945 -0.000001 0.372716
vn -0.587785 0.000000 0.809017
vn -0.309017 0.000000 0.951057
vn -0.000000 0.000000 1.000000
vn -0.309017 0.000000 -0.951057
vn 0.000000 0.000000 -1.000000
vn -0.587785 0.000000 -0.809017
vn -0.809017 0.000000 -0.587785
vn -0.927946 -0.000000 -0.372716
vn -1.000000 -0.000001 0.000001
vn -1.000000 -0.000001 0.000001
vn -0.951057 -0.000001 -0.309016
vn -0.951057 -0.000001 0.309017
vn -0.809017 -0.000001 0.587785
vn -0.587785 0.000000 0.809017
vn -0.309017 0.000000 0.951057
vn -0.000000 0.000000 1.000000
vn -0.309017 -0.000000 -0.951057
vn 0.000000 -0.000000 -1.000000
vn -0.587785 -0.000000 -0.809017
vn -0.809017 -0.000000 -0.587785
vn 0.000000 -1.000000 0.000000
vn 0.000000 -1.000000 0.000000
vn 0.000000 -1.000000 0.000001
vn 0.000000 -1.000000 0.000001
vn 0.000000 -0.000000 -1.000000
vn 0.000000 -0.000000 -1.000000
vn 0.000000 -0.000000 -1.000000
vn 0.000000 -0.000000 -1.000000
vn 0.000000 1.000000 -0.000000
vn 0.000000 1.000000 -0.000000
vn 0.000000 1.000000 -0.000000
vn 0.000000 1.000000 -0.000000
vn 0.000000 -1.000000 -0.000000
vn 0.000000 -1.000000 -0.000000
vn 0.000000 1.000000 -0.000001
vn 0.000000 1.000000 -0.000001
vn 0.000000 -0.000000 1.000000
vn 0.000000 -0.000000 1.000000
vn 0.000000 -0.000000 1.000000
vn 0.000000 -0.000000 1.000000
vn 0.951057 -0.000000 -0.309016
vn 0.809017 -0.000000 -0.587785
vn 0.809017 -0.000000 -0.587785
vn 0.947584 -0.000000 -0.319506
vn 0.587785 -0.000000 -0.809017
vn 0.587785 0.000000 -0.809017
vn 0.309017 0.000000 -0.951057
vn 0.309017 0.000000 -0.951057
vn 0.309017 0.000000 0.951056
vn 0.309017 0.000000 0.951056
vn 0.587785 0.000000 0.809017
vn 0.587785 0.000000 0.809017
vn 0.809017 0.000000 0.587785
vn 0.809017 0.000000 0.587785
vn 0.951057 -0.000000 0.309017
vn 0.947584 -0.000000 0.319507
vn 1.000000 -0.000000 0.000001
vn 1.000000 -0.000000 0.000001
vn 0.000000 -1.000000 0.000000
vn 0.000000 -1.000000 0.000000
vn 0.000000 -1.000000 0.000000
vn 0.000000 -1.000000 0.000000
vn 0.000000 -1.000000 0.000000
vn 0.000000 -1.000000 0.000000
vn 0.000000 -1.000000 -0.000000
vn 0.000000 -1.000000 -0.000000
vn 0.000000 -1.000000 0.000000
vn 0.000000 1.000000 0.000000
vn 0.000000 1.000000 0.000000
vn 0.000000 1.000000 0.000000
vn 0.000000 1.000000 0.000000
vn 0.000000 1.000000 0.000000
vn 0.000000 1.000000 -0.000000
vn 0.000000 1.000000 -0.000000
vn 0.000000 1.000000 0.000000
vn 0.000000 1.000000 0.000000
vn 0.000000 1.000000 0.000001
vn 0.000000 1.000000 0.000001
vn 0.000000 1.000000 0.000001
vn 0.000000 1.000000 0.000001
vn 0.000000 1.000000 0.000001
vn 0.000000 1.000000 0.000001
vn 0.000000 1.000000 0.000001
vn 0.000000 1.000000 0.000001
vn 0.000000 1.000000 0.000001
vn 0.000000 1.000000 0.000001
vn 0.000000 1.000000 0.000001
vn 0.000000 1.000000 0.000001
vn 0.000000 1.000000 0.000000
vn 0.000000 1.000000 0.000000
vn 0.000000 1.000000 0.000000
vn 0.000000 1.000000 0.000000
vn 0.000000 1.000000 0.000000
vn 0.000000 1.000000 0.000000
vn 0.000000 1.000000 0.000000
vn 0.000000 1.000000 0.000000
vn 0.000000 1.000000 0.000001
vn 0.000000 1.000000 0.000001
vn 0.000000 1.000000 0.000001
vn 0.000000 1.000000 0.000001
vn 0.000000 1.000000 0.000000
vn 0.000000 1.000000 0.000000
vn 0.000000 1.000000 0.000000
vn 0.000000 1.000000 0.000000
vn 0.000000 1.000000 0.000000
vn 0.000000 1.000000 0.000000
vn 0.000000 1.000000 0.000000
vn 0.000000 1.000000 0.000000
vn 0.000000 1.000000 0.000000
vn 0.000000 1.000000 0.000000
vn 0.000000 1.000000 0.000000
vn 0.000000 1.000000 0.000000
vn 0.000000 1.000000 0.000000
vn 0.000000 1.000000 0.000000
vn 0.000000 1.000000 0.000000
vn 0.000000 1.000000 0.000000
vn -0.951057 0.000000 0.309016
vn -0.809017 0.000000 0.587785
vn -0.809017 0.000000 0.587785
vn -0.951057 0.000000 0.309016
vn -0.587785 0.000000 0.809017
vn -0.587785 0.000000 0.809017
vn -0.309017 0.000000 0.951057
vn -0.309017 0.000000 0.951057
vn -0.309017 -0.000000 -0.951057
vn -0.309017 -0.000000 -0.951057
vn -0.587786 -0.000000 -0.809017
vn -0.587786 -0.000000 -0.809017
vn -0.809017 0.000000 -0.587785
vn -0.809017 0.000000 -0.587785
vn -0.951056 0.000000 -0.309017
vn -0.951056 0.000000 -0.309017
vn -1.000000 0.000000 -0.000001
vn -1.000000 0.000000 -0.000001
vn 1.000000 0.000000 -0.000000
vn 0.966432 0.000000 -0.256921
vn 0.966432 0.000000 -0.256921
vn 1.000000 0.000000 -0.000000
vn 0.966432 0.000000 0.256921
vn 0.966432 0.000000 0.256921
vn 0.927945 -0.000001 0.372716
vn 0.809017 -0.000000 0.587785
vn 0.587785 0.000000 0.809017
vn 0.309017 0.000000 0.951057
vn 0.309017 0.000000 -0.951057
vn 0.587785 0.000000 -0.809017
vn 0.809017 0.000000 -0.587785
vn 0.927945 -0.000000 -0.372716
vn 1.000000 -0.000001 0.000001
vn 0.951057 -0.000000 -0.309016
vn 1.000000 -0.000001 0.000001
vn 0.951057 -0.000001 0.309017
vn 0.809017 -0.000000 0.587785
vn 0.587785 -0.000000 0.809017
vn 0.309017 0.000000 0.951056
vn 0.309017 -0.000000 -0.951057
vn 0.587785 0.000000 -0.809017
vn 0.809017 -0.000000 -0.587785
vn 0.000000 -1.000000 -0.000000
vn 0.000000 -1.000000 0.000001
vn 0.000000 -1.000000 0.000001
vn 0.000000 -1.000000 0.000000
vn -0.000000 -0.000000 -1.000000
vn -0.000000 -0.000000 -1.000000
vn -0.000000 -0.000000 -1.000000
vn -0.000000 -0.000000 -1.000000
vn 0.000000 1.000000 0.000000
vn 0.000000 1.000000 -0.000000
vn 0.000000 1.000000 -0.000000
vn 0.000000 1.000000 0.000000
vn 0.000000 -1.000000 -0.000001
vn 0.000000 -1.000000 -0.000001
vn 0.000000 1.000000 -0.000001
vn 0.000000 1.000000 -0.000001
vn -0.000000 -0.000000 1.000000
vn -0.000000 -0.000000 1.000000
vn -0.000000 -0.000000 1.000000
vn -0.000000 -0.000000 1.000000
s 1
g pCylinder9
usemtl initialShadingGroup
f 1/1/1 47/2/2 57/3/3 2/4/4
f 2/4/4 57/3/3 56/9/5 3/10/6
f 3/203/6 56/204/5 55/205/7 4/206/8
f 4/206/8 55/205/7 54/209/9 5/210/10
f 6/223/11 53/224/12 52/225/13 7/226/14
f 7/226/14 52/225/13 51/231/15 8/232/16
f 8/21/16 51/22/15 50/17/17 9/16/18
f 9/16/18 50/17/17 49/12/19 10/11/20
f 10/11/20 49/12/19 48/6/21 11/5/22
f 11/5/22 48/6/21 47/2/2 1/1/1
s 3
f 2/97/23 23/98/24 1/99/25
f 3/100/26 23/98/24 2/97/23
f 4/102/27 23/98/24 3/100/26
f 5/104/28 23/98/24 4/102/27
f 7/109/29 23/98/24 6/111/30
f 8/107/31 23/98/24 7/109/29
f 9/105/32 23/98/24 8/107/31
f 10/103/33 23/98/24 9/105/32
f 11/101/34 23/98/24 10/103/33
f 1/99/25 23/98/24 11/101/34
s 5
f 35/118/35 37/119/36 36/120/37
f 36/120/37 37/119/36 38/122/38
f 38/122/38 37/119/36 39/124/39
f 39/124/39 37/119/36 40/126/40
f 41/131/41 37/119/36 42/129/42
f 42/129/42 37/119/36 43/127/43
f 43/127/43 37/119/36 44/125/44
f 44/125/44 37/119/36 45/123/45
f 45/123/45 37/119/36 46/121/46
f 46/121/46 37/119/36 35/118/35
s off
f 12/139/47 24/140/48 25/141/49 13/142/50
f 13/142/51 25/141/52 26/145/53 14/146/54
f 14/146/55 26/145/56 27/149/57 15/150/58
f 15/150/59 27/149/60 28/153/61 16/154/62
f 17/163/63 29/164/64 30/160/65 18/159/66
f 18/159/67 30/160/68 31/156/69 19/155/70
f 19/155/71 31/156/72 32/152/73 20/151/74
f 20/151/75 32/152/76 33/148/77 21/147/78
f 21/147/79 33/148/80 34/144/81 22/143/82
f 22/143/83 34/144/84 24/140/85 12/139/86
s 7
f 24/29/87 35/30/88 36/31/89 25/32/90
f 25/32/90 36/31/89 38/35/91 26/36/92
f 26/243/92 38/244/91 39/245/93 27/246/94
f 27/246/94 39/245/93 40/247/95 28/248/96
f 29/253/97 41/254/98 42/255/99 30/256/100
f 30/256/100 42/255/99 43/259/101 31/260/102
f 31/41/102 43/42/101 44/40/103 32/39/104
f 32/39/104 44/40/103 45/38/105 33/37/106
f 33/37/106 45/38/105 46/34/107 34/33/108
f 34/33/108 46/34/107 35/30/88 24/29/87
s 9
f 70/43/109 72/44/110 71/45/111 69/46/112
f 73/47/113 74/48/114 72/44/110 70/43/109
s 1
f 50/17/17 61/23/115 60/24/116 49/12/19
f 51/22/15 62/26/117 61/23/115 50/17/17
f 52/225/13 63/230/118 62/238/117 51/231/15
f 53/224/12 64/229/119 63/230/118 52/225/13
f 55/205/7 66/208/120 65/213/121 54/209/9
f 56/204/5 67/207/122 66/208/120 55/205/7
f 57/3/3 68/8/123 67/15/122 56/9/5
f 47/2/2 58/7/124 68/8/123 57/3/3
f 59/18/125 22/19/126 12/13/127 58/7/124
f 60/24/116 21/25/128 22/19/126 59/18/125
f 61/23/115 20/27/129 21/25/128 60/24/116
f 62/26/117 19/28/130 20/27/129 61/23/115
f 63/230/118 18/237/131 19/241/130 62/238/117
f 64/229/119 17/236/132 18/237/131 63/230/118
f 66/208/120 15/212/133 16/216/134 65/213/121
f 67/207/122 14/211/135 15/212/133 66/208/120
f 68/8/123 13/14/136 14/20/135 67/15/122
f 58/7/124 12/13/127 13/14/136 68/8/123
s 11
f 48/179/137 70/180/138 69/181/139 47/182/140
s off
f 47/263/141 69/264/142 71/265/143 58/266/144
s 12
f 58/185/145 71/186/146 72/187/147 59/188/148
s 11
f 49/183/149 73/184/150 70/180/138 48/179/137
s 12
f 59/188/148 72/187/147 74/189/151 60/190/152
s off
f 60/267/153 74/268/154 73/269/155 49/270/156
s 1
f 75/49/157 76/50/158 119/51/159 111/52/160
f 76/50/158 77/53/161 118/54/162 119/51/159
f 77/218/161 78/214/163 117/215/164 118/219/162
f 78/214/163 5/210/10 54/209/9 117/215/164
f 6/223/11 79/227/165 116/228/166 53/224/12
f 79/227/165 80/233/167 115/234/168 116/228/166
f 80/72/167 81/67/169 114/68/170 115/73/168
f 81/67/169 82/62/171 113/63/172 114/68/170
f 82/62/171 83/57/173 112/58/174 113/63/172
f 83/57/173 75/49/157 111/52/160 112/58/174
s 3
f 76/110/175 75/112/176 23/98/24
f 77/108/177 76/110/175 23/98/24
f 78/106/178 77/108/177 23/98/24
f 5/104/28 78/106/178 23/98/24
f 79/113/179 6/111/30 23/98/24
f 80/115/180 79/113/179 23/98/24
f 81/117/181 80/115/180 23/98/24
f 82/116/182 81/117/181 23/98/24
f 83/114/183 82/116/182 23/98/24
f 75/112/176 83/114/183 23/98/24
s 5
f 102/134/184 103/132/185 37/119/36
f 103/132/185 104/130/186 37/119/36
f 104/130/186 105/128/187 37/119/36
f 105/128/187 40/126/40 37/119/36
f 41/131/41 106/133/188 37/119/36
f 106/133/188 107/135/189 37/119/36
f 107/135/189 108/137/190 37/119/36
f 108/137/190 109/138/191 37/119/36
f 109/138/191 110/136/192 37/119/36
f 110/136/192 102/134/184 37/119/36
s off
f 84/169/193 85/165/194 94/166/195 93/170/196
f 85/165/197 86/161/198 95/162/199 94/166/200
f 86/161/201 87/157/202 96/158/203 95/162/204
f 87/157/205 16/154/206 28/153/207 96/158/208
f 17/163/209 88/167/210 97/168/211 29/164/212
f 88/167/213 89/171/214 98/172/215 97/168/216
f 89/171/217 90/175/218 99/176/219 98/172/220
f 90/175/221 91/177/222 100/178/223 99/176/224
f 91/177/225 92/173/226 101/174/227 100/178/228
f 92/173/229 84/169/230 93/170/231 101/174/232
s 7
f 93/77/233 94/78/234 103/79/235 102/80/236
f 94/78/234 95/81/237 104/82/238 103/79/235
f 95/251/237 96/249/239 105/250/240 104/252/238
f 96/249/239 28/248/96 40/247/95 105/250/240
f 29/253/97 97/257/241 106/258/242 41/254/98
f 97/257/241 98/261/243 107/262/244 106/258/242
f 98/89/243 99/87/245 108/88/246 107/90/244
f 99/87/245 100/85/247 109/86/248 108/88/246
f 100/85/247 101/83/249 110/84/250 109/86/248
f 101/83/249 93/77/233 102/80/236 110/84/250
s 17
f 130/91/251 129/92/252 131/93/253 132/94/254
f 133/95/255 130/91/251 132/94/254 134/96/256
s 1
f 114/68/170 113/63/172 122/69/257 123/71/258
f 115/73/168 114/68/170 123/71/258 124/75/259
f 116/228/166 115/234/168 124/239/259 125/235/260
f 53/224/12 116/228/166 125/235/260 64/229/119
f 117/215/164 54/209/9 65/213/121 126/217/261
f 118/219/162 117/215/164 126/217/261 127/221/262
f 119/51/159 118/54/162 127/59/262 128/55/263
f 111/52/160 119/51/159 128/55/263 120/56/264
f 121/65/265 120/56/264 84/61/266 92/66/267
f 122/69/257 121/65/265 92/66/267 91/70/268
f 123/71/258 122/69/257 91/70/268 90/74/269
f 124/75/259 123/71/258 90/74/269 89/76/270
f 125/235/260 124/239/259 89/242/270 88/240/271
f 64/229/119 125/235/260 88/240/271 17/236/132
f 126/217/261 65/213/121 16/216/134 87/220/272
f 127/221/262 126/217/261 87/220/272 86/222/273
f 128/55/263 127/59/262 86/64/273 85/60/274
f 120/56/264 128/55/263 85/60/274 84/61/266
s 18
f 112/191/275 111/192/276 129/193/277 130/194/278
s off
f 111/271/279 120/272/280 131/273/281 129/274/282
s 19
f 120/197/283 121/198/284 132/199/285 131/200/286
s 18
f 113/195/287 112/191/275 130/194/278 133/196/288
s 19
f 121/198/284 122/201/289 134/202/290 132/199/285
s off
f 122/275/291 113/276/292 133/277/293 134/278/294
