# This file uses centimeters as units for non-parametric coordinates.

mtllib Potlid.mtl
g default
v 1.222604 0.047934 -6.448868
v 1.334687 0.047934 -6.668844
v 1.509262 0.047934 -6.843419
v 1.729239 0.047934 -6.955503
v 1.973085 0.047934 -6.994124
v 1.973085 0.047934 -5.415920
v 1.729239 0.047934 -5.454541
v 1.509262 0.047934 -5.566625
v 1.334688 0.047934 -5.741199
v 1.222604 0.047934 -5.961176
v 1.183983 0.047934 -6.205022
v 1.973085 0.047934 -6.205022
v 1.222604 0.166847 -6.448868
v 1.183983 0.166847 -6.205022
v 1.222604 0.166847 -5.961176
v 1.334688 0.166847 -5.741199
v 1.509262 0.166847 -5.566625
v 1.729239 0.166847 -5.454541
v 1.973085 0.166847 -5.415919
v 1.973085 0.166847 -6.994124
v 1.729239 0.166847 -6.955503
v 1.509262 0.166847 -6.843419
v 1.334687 0.166847 -6.668845
v 2.723566 0.047934 -6.448868
v 2.611482 0.047934 -6.668844
v 2.436908 0.047934 -6.843419
v 2.216931 0.047934 -6.955503
v 2.216931 0.047934 -5.454541
v 2.436907 0.047934 -5.566625
v 2.611482 0.047934 -5.741199
v 2.723566 0.047934 -5.961176
v 2.762187 0.047934 -6.205022
v 2.723566 0.166847 -6.448868
v 2.762187 0.166847 -6.205022
v 2.723565 0.166847 -5.961176
v 2.611482 0.166847 -5.741199
v 2.436907 0.166847 -5.566625
v 2.216931 0.166847 -5.454541
v 2.216931 0.166847 -6.955503
v 2.436908 0.166847 -6.843419
v 2.611482 0.166847 -6.668845
v 1.935898 0.166847 -6.090573
v 1.973085 0.166847 -6.084683
v 2.010271 0.166847 -6.090573
v 2.043818 0.166847 -6.107666
v 1.935898 0.166847 -6.319470
v 1.973085 0.166847 -6.325360
v 2.070441 0.166847 -6.134288
v 1.902351 0.166847 -6.302378
v 2.087533 0.166847 -6.167835
v 1.875729 0.166847 -6.275755
v 2.093424 0.166847 -6.205022
v 1.858636 0.166847 -6.242208
v 2.087533 0.166847 -6.242208
v 1.852746 0.166847 -6.205022
v 2.070441 0.166847 -6.275755
v 1.858636 0.166847 -6.167835
v 2.043818 0.166847 -6.302378
v 1.875729 0.166847 -6.134288
v 2.010271 0.166847 -6.319470
v 1.902351 0.166847 -6.107666
v 1.973085 0.368851 -6.205022
v 1.935898 0.342276 -6.090573
v 1.973085 0.342276 -6.084683
v 2.010271 0.342276 -6.090573
v 2.043818 0.342276 -6.107666
v 1.935898 0.342276 -6.319470
v 1.973085 0.342276 -6.325360
v 2.070441 0.342276 -6.134288
v 1.902351 0.342276 -6.302378
v 2.087533 0.342276 -6.167835
v 1.875729 0.342276 -6.275755
v 2.093424 0.342276 -6.205022
v 1.858636 0.342276 -6.242208
v 2.087533 0.342276 -6.242208
v 1.852746 0.342276 -6.205022
v 2.070441 0.342276 -6.275755
v 1.858636 0.342276 -6.167835
v 2.043818 0.342276 -6.302378
v 1.875729 0.342276 -6.134288
v 2.010271 0.342276 -6.319470
v 1.902351 0.342276 -6.107666
vt 0.390528 0.779215
vt 0.427911 0.779215
vt 0.427911 0.848370
vt 0.390528 0.848370
vt 0.390528 0.702556
vt 0.427911 0.702556
vt 0.427911 0.903252
vt 0.390528 0.903252
vt 0.390528 0.625896
vt 0.427911 0.625896
vt 0.390528 0.556741
vt 0.427911 0.556741
vt 0.390528 0.501859
vt 0.427911 0.501859
vt 0.347429 0.625896
vt 0.347429 0.556741
vt 0.384812 0.556741
vt 0.384812 0.625896
vt 0.347429 0.501859
vt 0.384812 0.501859
vt 0.347429 0.702556
vt 0.384812 0.702556
vt 0.347429 0.779215
vt 0.384812 0.779215
vt 0.347429 0.848370
vt 0.384812 0.848370
vt 0.347429 0.903252
vt 0.384812 0.903252
vt 0.118985 0.554702
vt 0.118985 0.544156
vt 0.174135 0.544156
vt 0.174135 0.554702
vt 0.118985 0.532466
vt 0.174135 0.532466
vt 0.118985 0.563072
vt 0.174135 0.563072
vt 0.118985 0.520775
vt 0.174135 0.520775
vt 0.118985 0.510229
vt 0.174135 0.510229
vt 0.118985 0.501859
vt 0.174135 0.501859
vt 0.058119 0.554703
vt 0.058119 0.544156
vt 0.113269 0.544156
vt 0.113269 0.554703
vt 0.058119 0.532466
vt 0.113269 0.532466
vt 0.058119 0.563072
vt 0.113269 0.563072
vt 0.058119 0.520775
vt 0.113269 0.520775
vt 0.058119 0.510229
vt 0.113269 0.510229
vt 0.058119 0.501859
vt 0.113269 0.501859
vt 0.049234 0.104252
vt 0.249930 0.250066
vt 0.013997 0.173407
vt 0.104116 0.049370
vt 0.001856 0.250066
vt 0.173271 0.014134
vt 0.013997 0.326726
vt 0.249930 0.001992
vt 0.049234 0.395881
vt 0.326589 0.014134
vt 0.104116 0.450763
vt 0.395745 0.049370
vt 0.173271 0.485999
vt 0.450627 0.104252
vt 0.249930 0.498141
vt 0.485863 0.173407
vt 0.326589 0.485999
vt 0.498004 0.250066
vt 0.395744 0.450763
vt 0.485863 0.326726
vt 0.450626 0.395881
vt 0.217683 0.539691
vt 0.181703 0.551381
vt 0.179851 0.539691
vt 0.187076 0.561928
vt 0.181703 0.528000
vt 0.195446 0.570297
vt 0.187076 0.517454
vt 0.205992 0.575671
vt 0.195446 0.509084
vt 0.217683 0.577522
vt 0.205992 0.503711
vt 0.229373 0.575671
vt 0.217683 0.501859
vt 0.239920 0.570297
vt 0.229373 0.503711
vt 0.248289 0.561928
vt 0.239920 0.509084
vt 0.253663 0.551381
vt 0.248289 0.517454
vt 0.255514 0.539691
vt 0.253663 0.528000
vt 0.605042 0.514001
vt 0.681701 0.501859
vt 0.681701 0.712102
vt 0.670011 0.713954
vt 0.758361 0.514001
vt 0.693392 0.713954
vt 0.535887 0.549237
vt 0.659464 0.719327
vt 0.827516 0.549237
vt 0.703938 0.719327
vt 0.481005 0.604119
vt 0.651095 0.727697
vt 0.882398 0.604119
vt 0.712308 0.727697
vt 0.445769 0.673274
vt 0.645722 0.738243
vt 0.917634 0.673274
vt 0.717681 0.738243
vt 0.433627 0.749934
vt 0.643870 0.749934
vt 0.929776 0.749934
vt 0.719533 0.749934
vt 0.445769 0.826593
vt 0.645722 0.761624
vt 0.917634 0.826593
vt 0.717681 0.761624
vt 0.481005 0.895748
vt 0.651095 0.772171
vt 0.882398 0.895748
vt 0.712308 0.772171
vt 0.535887 0.950630
vt 0.659464 0.780540
vt 0.827516 0.950630
vt 0.703938 0.780540
vt 0.605042 0.985866
vt 0.670011 0.785913
vt 0.758361 0.985866
vt 0.693392 0.785913
vt 0.681701 0.998008
vt 0.681701 0.787765
vt 0.341713 0.793488
vt 0.304329 0.793488
vt 0.304329 0.724333
vt 0.341713 0.724333
vt 0.304329 0.647674
vt 0.341713 0.647674
vt 0.341713 0.571015
vt 0.304329 0.571015
vt 0.341713 0.501859
vt 0.304329 0.501859
vt 0.261230 0.647674
vt 0.298614 0.647674
vt 0.298614 0.724333
vt 0.261230 0.724333
vt 0.261230 0.571014
vt 0.298614 0.571014
vt 0.298614 0.793488
vt 0.261230 0.793488
vt 0.261230 0.501859
vt 0.298614 0.501859
vt 0.018475 0.501859
vt 0.030166 0.501859
vt 0.030166 0.557010
vt 0.018475 0.557010
vt 0.041857 0.501859
vt 0.041857 0.557010
vt 0.007929 0.501859
vt 0.007929 0.557010
vt 0.052403 0.501859
vt 0.052403 0.557010
vt 0.024093 0.615879
vt 0.012402 0.615879
vt 0.012402 0.560728
vt 0.024093 0.560728
vt 0.001856 0.615879
vt 0.001856 0.560728
vt 0.035783 0.615879
vt 0.035783 0.560728
vt 0.046330 0.615879
vt 0.046330 0.560728
vn -0.951057 -0.000000 -0.309016
vn -0.951057 -0.000000 -0.309016
vn -0.809017 0.000000 -0.587785
vn -0.809017 0.000000 -0.587785
vn -0.587785 -0.000000 -0.809017
vn -0.587785 -0.000000 -0.809017
vn -0.309017 0.000000 -0.951057
vn -0.309017 0.000000 -0.951057
vn 0.000000 0.000000 -1.000000
vn 0.000000 0.000000 -1.000000
vn 0.000000 0.000000 1.000000
vn 0.000000 0.000000 1.000000
vn -0.309017 0.000000 0.951056
vn -0.309017 0.000000 0.951056
vn -0.587786 -0.000000 0.809017
vn -0.587785 -0.000000 0.809017
vn -0.809017 -0.000000 0.587786
vn -0.809017 -0.000000 0.587785
vn -0.951057 0.000000 0.309017
vn -0.951057 0.000000 0.309017
vn -1.000000 -0.000001 0.000001
vn -1.000000 -0.000001 0.000001
vn 0.000000 -1.000000 -0.000000
vn 0.000000 -1.000000 -0.000000
vn 0.000000 -1.000000 -0.000000
vn 0.000000 -1.000000 0.000000
vn 0.000000 -1.000000 0.000000
vn 0.000000 -1.000000 0.000000
vn 0.000000 -1.000000 0.000000
vn 0.000000 -1.000000 0.000000
vn 0.000000 -1.000000 0.000000
vn 0.000000 -1.000000 -0.000000
vn 0.000000 -1.000000 -0.000000
vn 0.000000 -1.000000 0.000000
vn 0.951057 -0.000000 -0.309016
vn 0.809017 -0.000000 -0.587785
vn 0.809017 -0.000000 -0.587785
vn 0.951057 -0.000000 -0.309016
vn 0.587785 -0.000000 -0.809017
vn 0.587785 -0.000000 -0.809017
vn 0.309017 0.000000 -0.951057
vn 0.309017 0.000000 -0.951057
vn 0.309017 0.000000 0.951056
vn 0.309017 0.000000 0.951056
vn 0.587785 -0.000000 0.809017
vn 0.587785 -0.000000 0.809017
vn 0.809017 -0.000000 0.587785
vn 0.809017 -0.000000 0.587786
vn 0.951057 0.000001 0.309017
vn 0.951057 0.000001 0.309017
vn 1.000000 0.000000 0.000001
vn 1.000000 0.000000 0.000001
vn 0.000000 -1.000000 -0.000000
vn 0.000000 -1.000000 -0.000000
vn 0.000000 -1.000000 0.000000
vn 0.000000 -1.000000 0.000000
vn 0.000000 -1.000000 0.000000
vn 0.000000 -1.000000 0.000000
vn 0.000000 -1.000000 -0.000000
vn 0.000000 -1.000000 -0.000000
vn 0.000000 -1.000000 0.000000
vn 0.000000 1.000000 -0.000000
vn -0.066636 0.976473 0.205085
vn -0.000000 0.976473 0.215639
vn 0.066636 0.976473 0.205086
vn 0.126748 0.976473 0.174456
vn -0.066636 0.976473 -0.205085
vn -0.000000 0.976473 -0.215639
vn 0.174456 0.976473 0.126748
vn -0.126748 0.976473 -0.174456
vn 0.205085 0.976473 0.066636
vn -0.174456 0.976473 -0.126747
vn 0.215639 0.976473 0.000000
vn -0.205085 0.976473 -0.066636
vn 0.205085 0.976473 -0.066636
vn -0.215638 0.976473 -0.000000
vn 0.174456 0.976473 -0.126748
vn -0.205085 0.976473 0.066636
vn 0.126748 0.976473 -0.174456
vn -0.174456 0.976473 0.126748
vn 0.066636 0.976473 -0.205086
vn -0.126748 0.976473 0.174456
vn 0.000000 1.000000 -0.000000
vn 0.000000 1.000000 -0.000000
vn 0.000000 1.000000 -0.000000
vn 0.000000 1.000000 -0.000000
vn 0.000000 1.000000 0.000000
vn 0.000000 1.000000 0.000000
vn 0.000000 1.000000 0.000000
vn 0.000000 1.000000 0.000000
vn 0.000000 1.000000 -0.000000
vn 0.000000 1.000000 -0.000000
vn 0.000000 1.000000 -0.000000
vn 0.000000 1.000000 -0.000000
vn 0.000000 1.000000 -0.000000
vn 0.000000 1.000000 -0.000000
vn 0.000000 1.000000 -0.000000
vn 0.000000 1.000000 -0.000000
vn 0.000000 1.000000 0.000000
vn 0.000000 1.000000 0.000000
vn 0.000000 1.000000 0.000000
vn 0.000000 1.000000 0.000000
vn 0.000000 1.000000 0.000000
vn 0.000000 1.000000 0.000000
vn 0.000000 1.000000 0.000000
vn 0.000000 1.000000 0.000000
vn 0.000000 1.000000 0.000000
vn 0.000000 1.000000 0.000000
vn 0.000000 1.000000 0.000000
vn 0.000000 1.000000 0.000000
vn 0.000000 1.000000 -0.000000
vn 0.000000 1.000000 -0.000000
vn 0.000000 1.000000 -0.000000
vn 0.000000 1.000000 -0.000000
vn 0.000000 1.000000 -0.000000
vn 0.000000 1.000000 -0.000000
vn 0.000000 1.000000 -0.000000
vn 0.000000 1.000000 -0.000000
vn 0.000000 1.000000 0.000000
vn 0.000000 1.000000 0.000000
vn 0.000000 1.000000 0.000000
vn 0.000000 1.000000 0.000000
vn 0.000000 1.000000 0.000000
vn 0.000000 1.000000 0.000000
vn 0.000000 1.000000 0.000000
vn 0.000000 1.000000 0.000000
vn 0.000000 1.000000 -0.000000
vn 0.000000 1.000000 -0.000000
vn 0.000000 1.000000 -0.000000
vn 0.000000 1.000000 -0.000000
vn 0.000000 1.000000 0.000000
vn 0.000000 1.000000 0.000000
vn 0.000000 1.000000 0.000000
vn 0.000000 1.000000 0.000000
vn 0.000000 1.000000 0.000000
vn 0.000000 1.000000 0.000000
vn 0.000000 1.000000 0.000000
vn 0.000000 1.000000 0.000000
vn 0.000000 1.000000 -0.000000
vn 0.000000 1.000000 -0.000000
vn 0.000000 1.000000 -0.000000
vn 0.000000 1.000000 -0.000000
vn 0.000000 1.000000 0.000000
vn 0.000000 1.000000 0.000000
vn 0.000000 1.000000 0.000000
vn 0.000000 1.000000 0.000000
vn 0.000000 1.000000 0.000000
vn 0.000000 1.000000 0.000000
vn 0.000000 1.000000 0.000000
vn 0.000000 1.000000 0.000000
vn 0.000000 1.000000 0.000000
vn 0.000000 1.000000 0.000000
vn 0.000000 1.000000 0.000000
vn 0.000000 1.000000 0.000000
vn 0.000000 1.000000 0.000000
vn 0.000000 1.000000 0.000000
vn 0.000000 1.000000 0.000000
vn 0.000000 1.000000 0.000000
vn 0.000000 1.000000 0.000000
vn 0.000000 1.000000 0.000000
vn 0.000000 1.000000 0.000000
vn 0.000000 1.000000 0.000000
vn -0.309014 0.000000 0.951058
vn -0.000000 0.000000 1.000000
vn -0.000000 0.000000 1.000000
vn -0.309014 0.000000 0.951058
vn 0.309015 0.000000 0.951057
vn 0.309015 0.000000 0.951057
vn 0.587778 0.000000 0.809022
vn 0.587778 0.000000 0.809022
vn -0.000000 0.000000 -1.000000
vn -0.309014 0.000000 -0.951058
vn -0.309014 0.000000 -0.951058
vn -0.000000 0.000000 -1.000000
vn 0.809021 0.000000 0.587780
vn 0.809021 0.000000 0.587780
vn -0.587778 0.000000 -0.809022
vn -0.587778 0.000000 -0.809022
vn 0.951057 0.000000 0.309015
vn 0.951057 0.000000 0.309015
vn -0.809023 0.000000 -0.587777
vn -0.809023 0.000000 -0.587777
vn 1.000000 0.000000 0.000000
vn 1.000000 0.000000 0.000000
vn -0.951057 0.000000 -0.309015
vn -0.951057 0.000000 -0.309015
vn 0.951057 0.000000 -0.309015
vn 0.951057 0.000000 -0.309015
vn -1.000000 0.000000 0.000000
vn -1.000000 0.000000 0.000000
vn 0.809021 0.000000 -0.587780
vn 0.809021 0.000000 -0.587780
vn -0.951057 0.000000 0.309015
vn -0.951057 0.000000 0.309015
vn 0.587778 0.000000 -0.809022
vn 0.587778 0.000000 -0.809022
vn -0.809023 0.000000 0.587778
vn -0.809023 0.000000 0.587778
vn 0.309015 0.000000 -0.951057
vn 0.309015 0.000000 -0.951057
vn -0.587778 0.000000 0.809022
vn -0.587778 0.000000 0.809022
s 1
g pCylinder10
usemtl initialShadingGroup
f 1/1/1 13/2/2 23/3/3 2/4/4
f 2/4/4 23/3/3 22/7/5 3/8/6
f 3/139/6 22/140/5 21/141/7 4/142/8
f 4/142/8 21/141/7 20/143/9 5/144/10
f 6/149/11 19/150/12 18/151/13 7/152/14
f 7/152/14 18/151/13 17/155/15 8/156/16
f 8/13/16 17/14/15 16/12/17 9/11/18
f 9/11/18 16/12/17 15/10/19 10/9/20
f 10/9/20 15/10/19 14/6/21 11/5/22
f 11/5/22 14/6/21 13/2/2 1/1/1
s 3
f 2/57/23 12/58/24 1/59/25
f 3/60/26 12/58/24 2/57/23
f 4/62/27 12/58/24 3/60/26
f 5/64/28 12/58/24 4/62/27
f 7/69/29 12/58/24 6/71/30
f 8/67/31 12/58/24 7/69/29
f 9/65/32 12/58/24 8/67/31
f 10/63/33 12/58/24 9/65/32
f 11/61/34 12/58/24 10/63/33
f 1/59/25 12/58/24 11/61/34
s 1
f 24/15/35 25/16/36 41/17/37 33/18/38
f 25/16/36 26/19/39 40/20/40 41/17/37
f 26/147/39 27/145/41 39/146/42 40/148/40
f 27/145/41 5/144/10 20/143/9 39/146/42
f 6/149/11 28/153/43 38/154/44 19/150/12
f 28/153/43 29/157/45 37/158/46 38/154/44
f 29/27/45 30/25/47 36/26/48 37/28/46
f 30/25/47 31/23/49 35/24/50 36/26/48
f 31/23/49 32/21/51 34/22/52 35/24/50
f 32/21/51 24/15/35 33/18/38 34/22/52
s 3
f 25/70/53 24/72/54 12/58/24
f 26/68/55 25/70/53 12/58/24
f 27/66/56 26/68/55 12/58/24
f 5/64/28 27/66/56 12/58/24
f 28/73/57 6/71/30 12/58/24
f 29/75/58 28/73/57 12/58/24
f 30/77/59 29/75/58 12/58/24
f 31/76/60 30/77/59 12/58/24
f 32/74/61 31/76/60 12/58/24
f 24/72/54 32/74/61 12/58/24
s 7
f 62/78/62 63/79/63 64/80/64
f 65/82/65 62/78/62 64/80/64
f 66/84/66 62/78/62 65/82/65
f 67/95/67 62/78/62 68/97/68
f 69/86/69 62/78/62 66/84/66
f 70/93/70 62/78/62 67/95/67
f 71/88/71 62/78/62 69/86/69
f 72/91/72 62/78/62 70/93/70
f 73/90/73 62/78/62 71/88/71
f 74/89/74 62/78/62 72/91/72
f 75/92/75 62/78/62 73/90/73
f 76/87/76 62/78/62 74/89/74
f 77/94/77 62/78/62 75/92/75
f 76/87/76 78/85/78 62/78/62
f 79/96/79 62/78/62 77/94/77
f 62/78/62 78/85/78 80/83/80
f 81/98/81 62/78/62 79/96/79
f 62/78/62 80/83/80 82/81/82
f 68/97/68 62/78/62 81/98/81
f 62/78/62 82/81/82 63/79/63
s off
f 18/99/83 19/100/84 43/101/85 42/102/86
f 19/100/87 38/103/88 44/104/89 43/101/90
f 38/103/91 37/107/92 45/108/93 44/104/94
f 20/137/95 21/133/96 46/134/97 47/138/98
f 37/107/99 36/111/100 48/112/101 45/108/102
f 21/133/103 22/129/104 49/130/105 46/134/106
f 36/111/107 35/115/108 50/116/109 48/112/110
f 22/129/111 23/125/112 51/126/113 49/130/114
f 35/115/115 34/119/116 52/120/117 50/116/118
f 23/125/119 13/121/120 53/122/121 51/126/122
f 34/119/123 33/123/124 54/124/125 52/120/126
f 13/121/127 14/117/128 55/118/129 53/122/130
f 33/123/131 41/127/132 56/128/133 54/124/134
f 14/117/135 15/113/136 57/114/137 55/118/138
f 41/127/139 40/131/140 58/132/141 56/128/142
f 15/113/143 16/109/144 59/110/145 57/114/146
f 40/131/147 39/135/148 60/136/149 58/132/150
f 16/109/151 17/105/152 61/106/153 59/110/154
f 39/135/155 20/137/156 47/138/157 60/136/158
f 17/105/159 18/99/160 42/102/161 61/106/162
s 9
f 42/159/163 43/160/164 64/161/165 63/162/166
f 43/160/164 44/163/167 65/164/168 64/161/165
f 44/163/167 45/167/169 66/168/170 65/164/168
f 47/169/171 46/170/172 67/171/173 68/172/174
f 45/35/169 48/29/175 69/32/176 66/36/170
f 46/170/172 49/173/177 70/174/178 67/171/173
f 48/29/175 50/30/179 71/31/180 69/32/176
f 49/49/177 51/43/181 72/46/182 70/50/178
f 50/30/179 52/33/183 73/34/184 71/31/180
f 51/43/181 53/44/185 74/45/186 72/46/182
f 52/33/183 54/37/187 75/38/188 73/34/184
f 53/44/185 55/47/189 76/48/190 74/45/186
f 54/37/187 56/39/191 77/40/192 75/38/188
f 55/47/189 57/51/193 78/52/194 76/48/190
f 56/39/191 58/41/195 79/42/196 77/40/192
f 57/51/193 59/53/197 80/54/198 78/52/194
f 58/177/195 60/175/199 81/176/200 79/178/196
f 59/53/197 61/55/201 82/56/202 80/54/198
f 60/175/199 47/169/171 68/172/174 81/176/200
f 61/165/201 42/159/163 63/162/166 82/166/202
