#File written by LIBUNFOLD3D. Compilation :Dec 22 2011,11:53:02
mtllib RubberNipple.mtl
#begin vertices
v -4.6856059999999999 0.873108 -0.055321000000000002
v -4.672237 0.873108 -0.029083999999999999
v -4.7064269999999997 0.873108 -0.076143000000000002
v -4.7326649999999999 0.873108 -0.089511999999999994
v -4.7617479999999999 0.873108 -0.094117999999999993
v -4.7908330000000001 0.873108 -0.089511999999999994
v -4.8170700000000002 0.873108 -0.076143000000000002
v -4.8378920000000001 0.873108 -0.055321000000000002
v -4.8512599999999999 0.873108 -0.029083999999999999
v -4.8558659999999998 0.873108 -0
v -4.8512599999999999 0.873108 0.029083999999999999
v -4.8378920000000001 0.873108 0.055321000000000002
v -4.8170700000000002 0.873108 0.076143000000000002
v -4.7908330000000001 0.873108 0.089510999999999993
v -4.7617479999999999 0.873108 0.094117999999999993
v -4.7326649999999999 0.873108 0.089510999999999993
v -4.7064269999999997 0.873108 0.076143000000000002
v -4.6856059999999999 0.873108 0.055321000000000002
v -4.672237 0.873108 0.029083999999999999
v -4.6676310000000001 0.873108 0
v -4.672237 0.90637000000000001 -0.029083999999999999
v -4.6856059999999999 0.90637000000000001 -0.055321000000000002
v -4.6992979999999998 0.90468999999999999 -0.045373999999999998
v -4.6883330000000001 0.90468999999999999 -0.023854
v -4.7064269999999997 0.90637000000000001 -0.076143000000000002
v -4.7163750000000002 0.90468999999999999 -0.062451
v -4.7326649999999999 0.90637000000000001 -0.089511999999999994
v -4.7378939999999998 0.90468999999999999 -0.073415999999999995
v -4.7617479999999999 0.90637000000000001 -0.094117999999999993
v -4.7617479999999999 0.90468999999999999 -0.077193999999999999
v -4.7908330000000001 0.90637000000000001 -0.089511999999999994
v -4.7856030000000001 0.90468999999999999 -0.073415999999999995
v -4.8170700000000002 0.90637000000000001 -0.076143000000000002
v -4.8071219999999997 0.90468999999999999 -0.062451
v -4.8378920000000001 0.90637000000000001 -0.055321000000000002
v -4.8242000000000003 0.90468999999999999 -0.045373999999999998
v -4.8512599999999999 0.90637000000000001 -0.029083999999999999
v -4.8351660000000001 0.90468999999999999 -0.023854
v -4.8558659999999998 0.90637000000000001 -0
v -4.8389430000000004 0.90468999999999999 -0
v -4.8512599999999999 0.90637000000000001 0.029083999999999999
v -4.8351660000000001 0.90468999999999999 0.023854
v -4.8378920000000001 0.90637000000000001 0.055321000000000002
v -4.8242000000000003 0.90468999999999999 0.045372999999999997
v -4.8170700000000002 0.90637000000000001 0.076143000000000002
v -4.8071219999999997 0.90468999999999999 0.062451
v -4.7908330000000001 0.90637000000000001 0.089510999999999993
v -4.7856030000000001 0.90468999999999999 0.073415999999999995
v -4.7617479999999999 0.90637000000000001 0.094117999999999993
v -4.7617479999999999 0.90468999999999999 0.077193999999999999
v -4.7326649999999999 0.90637000000000001 0.089510999999999993
v -4.7378939999999998 0.90468999999999999 0.073415999999999995
v -4.7064269999999997 0.90637000000000001 0.076143000000000002
v -4.7163750000000002 0.90468999999999999 0.062451
v -4.6856059999999999 0.90637000000000001 0.055321000000000002
v -4.6992979999999998 0.90468999999999999 0.045372999999999997
v -4.672237 0.90637000000000001 0.029083999999999999
v -4.6883330000000001 0.90468999999999999 0.023854
v -4.6676310000000001 0.90637000000000001 0
v -4.6845540000000003 0.90468999999999999 0
v -4.7425490000000003 1.081769 -0.006241
v -4.7454169999999998 1.081769 -0.011868999999999999
v -4.761749 1.0929450000000001 -0
v -4.7498800000000001 1.081769 -0.016331999999999999
v -4.7555079999999998 1.081769 -0.019199999999999998
v -4.761749 1.081769 -0.020181000000000001
v -4.7679900000000002 1.081769 -0.019199999999999998
v -4.7736169999999998 1.081769 -0.016331999999999999
v -4.7780800000000001 1.081769 -0.011868999999999999
v -4.7809489999999997 1.081769 -0.006241
v -4.78193 1.081769 -0
v -4.7809489999999997 1.081769 0.006241
v -4.7780800000000001 1.081769 0.011868
v -4.7736169999999998 1.081769 0.016330999999999998
v -4.7679900000000002 1.081769 0.019199999999999998
v -4.761749 1.081769 0.020181000000000001
v -4.7555079999999998 1.081769 0.019199999999999998
v -4.7498800000000001 1.081769 0.016330999999999998
v -4.7454169999999998 1.081769 0.011868
v -4.7425490000000003 1.081769 0.006241
v -4.741568 1.081769 -0
v -4.7094569999999996 1.004804 -0.016990999999999999
v -4.7067649999999999 1.004804 0
v -4.7094569999999996 1.004804 0.016990999999999999
v -4.7172669999999997 1.004804 0.032318
v -4.7294299999999998 1.004804 0.044482000000000001
v -4.744758 1.004804 0.052291999999999998
v -4.7617479999999999 1.004804 0.054982999999999997
v -4.77874 1.004804 0.052291999999999998
v -4.7940670000000001 1.004804 0.044482000000000001
v -4.8062310000000004 1.004804 0.032318
v -4.8140409999999996 1.004804 0.016990999999999999
v -4.8167330000000002 1.004804 -0
v -4.8140409999999996 1.004804 -0.016990999999999999
v -4.8062310000000004 1.004804 -0.032318
v -4.7940670000000001 1.004804 -0.044482000000000001
v -4.77874 1.004804 -0.052291999999999998
v -4.7617479999999999 1.004804 -0.054982999999999997
v -4.744758 1.004804 -0.052291999999999998
v -4.7294299999999998 1.004804 -0.044482000000000001
v -4.7172669999999997 1.004804 -0.032318
v -4.739128 1.043185 -0.0073509999999999999
v -4.7379660000000001 1.043185 -0
v -4.739128 1.043185 0.0073509999999999999
v -4.7425069999999998 1.043185 0.013981
v -4.7477679999999998 1.043185 0.019241999999999999
v -4.7543980000000001 1.043185 0.022620999999999999
v -4.761749 1.043185 0.023782999999999999
v -4.7690989999999998 1.043185 0.022620999999999999
v -4.7757300000000003 1.043185 0.019241999999999999
v -4.7809910000000002 1.043185 0.013981
v -4.78437 1.043185 0.0073509999999999999
v -4.7855319999999999 1.043185 -0
v -4.78437 1.043185 -0.0073509999999999999
v -4.7809910000000002 1.043185 -0.013981
v -4.7757300000000003 1.043185 -0.019241999999999999
v -4.7690989999999998 1.043185 -0.022620999999999999
v -4.761749 1.043185 -0.023782999999999999
v -4.7543980000000001 1.043185 -0.022620999999999999
v -4.7477679999999998 1.043185 -0.019241999999999999
v -4.7425069999999998 1.043185 -0.013981
v -4.6824170000000001 0.96360400000000002 -0.025777000000000001
v -4.6783330000000003 0.96360400000000002 0
v -4.6824170000000001 0.96360400000000002 0.025776
v -4.6942649999999997 0.96360400000000002 0.049029999999999997
v -4.7127179999999997 0.96360400000000002 0.067483000000000001
v -4.7359720000000003 0.96360400000000002 0.079333000000000001
v -4.7617479999999999 0.96360400000000002 0.083414000000000002
v -4.7875249999999996 0.96360400000000002 0.079333000000000001
v -4.8107790000000001 0.96360400000000002 0.067483000000000001
v -4.8292330000000003 0.96360400000000002 0.049029999999999997
v -4.8410820000000001 0.96360400000000002 0.025776
v -4.8451639999999996 0.96360400000000002 -0
v -4.8410820000000001 0.96360400000000002 -0.025777000000000001
v -4.8292330000000003 0.96360400000000002 -0.049029999999999997
v -4.8107790000000001 0.96360400000000002 -0.067483000000000001
v -4.7875249999999996 0.96360400000000002 -0.079333000000000001
v -4.7617479999999999 0.96360400000000002 -0.083415000000000003
v -4.7359720000000003 0.96360400000000002 -0.079333000000000001
v -4.7127179999999997 0.96360400000000002 -0.067483000000000001
v -4.6942649999999997 0.96360400000000002 -0.049029999999999997
#end vertices

#begin 292 textures vertices 
vt 0.075307253032885435 0.6009624020122204 0
vt 0.012000000000003229 0.60096240201221662 0
vt 0.13861302377394413 0.60096240201222084 0
vt 0.20192219236343464 0.60096240201222018 0
vt 0.26522673650503925 0.60096240201221907 0
vt 0.012000000000000783 0.68426405269913659 0
vt 0.075307253032884061 0.68426405269913726 0
vt 0.13861454395766268 0.68426405269913926 0
vt 0.20192082095611544 0.68426405269913992 0
vt 0.26522748852346667 0.68426405269913881 0
vt 0.34610670377456981 0.74713010790386436 0
vt 0.40941298077302329 0.74713010790386347 0
vt 0.47272027169780273 0.74713010790386236 0
vt 0.53602654869625677 0.74713010790386281 0
vt 0.59933567600013693 0.74713010790386392 0
vt 0.34610670377457053 0.66382845721694395 0
vt 0.40941489635916462 0.66382845721694439 0
vt 0.47272066710022376 0.66382845721694506 0
vt 0.53602792013310641 0.66382845721694506 0
vt 0.59933458770045811 0.66382845721694461 0
vt 0.29844857465459124 0.79352117574865888 0
vt 0.24711604034338908 0.83057221092661848 0
vt 0.23059140632436734 0.79795636018947169 0
vt 0.69417603700352215 0.81239940458812399 0
vt 0.1868788042430376 0.85004259859891529 0
vt 0.18118674168890692 0.81392404896166126 0
vt 0.1235696356538613 0.85004239951877603 0
vt 0.12926350567467992 0.81392476893086618 0
vt 0.063333497928303839 0.83057260185973569 0
vt 0.07985743487780611 0.79795582383441932 0
vt 0.60110898687967484 0.85638631798617326 0
vt 0.037754844333395876 0.76756570338605457 0
vt 0.54977724373012626 0.89343844925818172 0
vt 0.53325289806214982 0.86082104279684168 0
vt 0.48953850959096007 0.91290914502247467 0
vt 0.48384759138086536 0.87679168804255392 0
vt 0.42623223259288001 0.91290936291017721 0
vt 0.43192146381261776 0.87679445160125424 0
vt 0.36599375589490951 0.89343989749400698 0
vt 0.38251601717407058 0.86082466881930952 0
vt 0.29844569641599156 0.85112485420427464 0
vt 0.3404137171790047 0.83043834862777599 0
vt 0.24711547961576888 0.8881774323959053 0
vt 0.23059146897080329 0.85555985621029729 0
vt 0.18687654549091848 0.90764750943059225 0
vt 0.18118408653951831 0.87152902226535245 0
vt 0.1235702684939876 0.90764707031883129 0
vt 0.12926085053632003 0.87153031208661846 0
vt 0.06332910984469492 0.88817790483672532 0
vt 0.079852685021527467 0.85556094353682122 0
vt 0.95486807320521794 0.83835178392468457 0
vt 0.037751675005519889 0.82517226152013867 0
vt 0.9035367651730315 0.87540612326615164 0
vt 0.88701284820446147 0.84278849962440283 0
vt 0.84329875646512731 0.89487412049302173 0
vt 0.83760640124450125 0.85875561697943414 0
vt 0.77999150344528978 0.89487540553563449 0
vt 0.78568316523781156 0.85875675767985404 0
vt 0.71975329145480105 0.87540512113421798 0
vt 0.73627599616101813 0.84279011709511109 0
vt 0.012000000000000066 0.9082406019763698 0
vt 0.023583089619115309 0.90115187377526151 0
vt 0.55835940709358245 0.95554061692052961 0
vt 0.036643848656616879 0.89747177938958145 0
vt 0.05022390869354889 0.89747035567001077 0
vt 0.063293733514338785 0.90116577262756836 0
vt 0.77454941802666499 0.91743623770345728 0
vt 0.78613147371858405 0.91034948967230878 0
vt 0.79919230651385176 0.90666965706507563 0
vt 0.81277334259514911 0.90666679923152071 0
vt 0.82584310294035213 0.91036244421653811 0
vt 0.33824536956810924 0.92112321657868157 0
vt 0.34982912255469367 0.91403737188460688 0
vt 0.3628899418700115 0.91035749143331213 0
vt 0.37646906238498207 0.9103537069041876 0
vt 0.38953884323816379 0.91404927936135039 0
vt 0.52691739052316056 0.91716617944641987 0
vt 0.53850217743287199 0.91007835457095343 0
vt 0.55156292298953624 0.90639821234173445 0
vt 0.5651410674203261 0.90639586195439215 0
vt 0.57821091274959735 0.91009120637748109 0
vt 0.52779696266759535 0.13955018297423794 0
vt 0.49352126661421453 0.12591359631315008 0
vt 0.4573242221420083 0.11899396993433438 0
vt 0.42052618654244123 0.11904044551349666 0
vt 0.38434289968988955 0.12593293285525636 0
vt 0.35000059497316227 0.13955398023688839 0
vt 0.78436260715885453 0.12593386680013657 0
vt 0.74820416874812334 0.11895782121948427 0
vt 0.71140409715508546 0.11901379652511063 0
vt 0.67521719297325866 0.125909713401121 0
vt 0.64087367548996421 0.13952474648282148 0
vt 0.20265798977662447 0.12587883587925278 0
vt 0.1664583491019975 0.11895278365318221 0
vt 0.1296543447036092 0.11898344820460714 0
vt 0.093501429515744 0.12594052598907168 0
vt 0.059162319356230508 0.13955888163766497 0
vt 0.3480622659480479 0.34154602198089268 0
vt 0.31190430609049441 0.33456518217767089 0
vt 0.27509826905262746 0.33460327689817526 0
vt 0.2389413512245627 0.34157049978347831 0
vt 0.47754057749208773 0.23390100088784491 0
vt 0.46270976424715715 0.22780233188589877 0
vt 0.4469605179605653 0.22472681276192177 0
vt 0.43089338452293274 0.22471028319494599 0
vt 0.41513704588567008 0.22782276625286349 0
vt 0.40030613788228658 0.23392482609351736 0
vt 0.75357087813735624 0.2277951747748789 0
vt 0.73782099122042233 0.22471796166403202 0
vt 0.72175085688668394 0.2246955548194321 0
vt 0.70599340022861057 0.22780354765301886 0
vt 0.18671294535764138 0.23385825903704482 0
vt 0.17188154348957538 0.22776305436337196 0
vt 0.15613307454863262 0.22469029164399673 0
vt 0.14007008217438738 0.22467976674096818 0
vt 0.12431933579204942 0.22780036572602419 0
vt 0.10948899031228793 0.23390920724402295 0
vt 0.31730053361759275 0.44341656505243254 0
vt 0.30154883191902521 0.4403424244387516 0
vt 0.28548332885030064 0.44032839803635226 0
vt 0.26973715557565225 0.44340712377266783 0
vt 0.43374075203280066 0.5836431357134253 0
vt 0.37775290344041501 0.58732765235192175 0
vt 0.32167633713175925 0.58917028212509814 0
vt 0.26556775942779409 0.58917040070252824 0
vt 0.2094934682091576 0.58732728216838859 0
vt 0.87004529627902749 0.36803375814529243 0
vt 0.81406052738569734 0.37171737170166946 0
vt 0.75798287726442926 0.37356095331423794 0
vt 0.70187234743709115 0.37356061575775978 0
vt 0.64579652577706614 0.37171778317001419 0
vt 0.87004405412810781 0.50769168661475139 0
vt 0.81405897371969238 0.51137568690666391 0
vt 0.75798097546312238 0.51321891164523059 0
vt 0.7018733372711996 0.51321871192651547 0
vt 0.64579752677407942 0.51137553969242988 0
vt 0.87004153633142889 0.6473501117487106 0
vt 0.81405434536445931 0.65103437741892822 0
vt 0.75797847353710157 0.65287765853942448 0
vt 0.70186794370968597 0.65287733424439298 0
vt 0.64579364619599788 0.65103440723836248 0
vt 0.66264125526781115 0.73533810659417043 0
vt 0.26522673650504069 0.67247205138944577 0
vt 0.20192082095611591 0.7557737020763664 0
vt 0.075307253032883992 0.67247205138944666 0
vt 0.13861302377394413 0.67247205138944732 0
vt 0.075307253032882979 0.75577370207636418 0
vt 0.20192219236343556 0.67247205138944688 0
vt 0.13861454395766196 0.75577370207636574 0
vt 0.32853552749992737 0.67247205138944421 0
vt 0.26522748852346856 0.75577370207636507 0
vt 0.32853415609082121 0.75577370207636263 0
vt 0.40941298077302518 0.81863975728108973 0
vt 0.47272027169780362 0.81863975728108929 0
vt 0.53602654869625677 0.81863975728108951 0
vt 0.59933567600013626 0.81863975728109017 0
vt 0.66264055647329578 0.81863975728109084 0
vt 0.40941489635916378 0.73533810659417109 0
vt 0.47272066710022331 0.73533810659417176 0
vt 0.53602792013310641 0.73533810659417154 0
vt 0.599334587700459 0.73533810659417131 0
vt 0.65206889015944069 0.52382634358167568 0
vt 0.60025579474444557 0.52041687006069082 0
vt 0.60025862519110973 0.38075815870443097 0
vt 0.70396184949620522 0.52553184753669613 0
vt 0.65206981747880133 0.38416738038030707 0
vt 0.75588508551526412 0.52553197639926585 0
vt 0.70396428989300763 0.38587312675287244 0
vt 0.8077797618433793 0.52382621912485816 0
vt 0.75589041753440633 0.38587332797646506 0
vt 0.8077847554406401 0.38416751059743881 0
vt 0.60025811921522543 0.24110022959716548 0
vt 0.65207028562422975 0.24450951345316113 0
vt 0.70396628332109046 0.24621512954495095 0
vt 0.75588951934011672 0.24621527067932153 0
vt 0.80778631720208827 0.24450942101126352 0
vt 0.16395492494621133 0.45670977625499154 0
vt 0.21576610788126332 0.46011914006338445 0
vt 0.26766058597626741 0.4618247135984358 0
vt 0.31958382199541296 0.46182480037918722 0
vt 0.37147884881997412 0.46011946797075942 0
vt 0.20985644758219285 0.23797972214232974 0
vt 0.1574346828195187 0.2581374560873182 0
vt 0.37716587113286848 0.23801288276257662 0
vt 0.26530037592688782 0.22764738061041401 0
vt 0.32172587136497305 0.22769761105137254 0
vt 0.012000000000000066 0.042498239519345914 0
vt 0.064427311096905637 0.022337203953004293 0
vt 0.11987945525567816 0.012000000000000066 0
vt 0.17630969990145542 0.012042936287339791 0
vt 0.23169081669562641 0.022420745439582512 0
vt 0.59373873127807442 0.04253696605831235 0
vt 0.64617032285653364 0.022412998447830037 0
vt 0.70155310793313608 0.012000000000000066 0
vt 0.75798361878843101 0.012055748477449786 0
vt 0.81343511354808329 0.022369929928753106 0
vt 0.30286936563903727 0.042556024199696146 0
vt 0.35530301003873527 0.022425033226996544 0
vt 0.41069157213433577 0.012000000000000066 0
vt 0.46712870752415608 0.012048907414987844 0
vt 0.52251630699653018 0.022421255120463487 0
vt 0.32958282121458676 0.97686416848438995 0
vt 0.63476627009133568 0.95191432428089851 0
vt 0.69981551276559406 0.98721075351516796 0
vt 0.64834730647173999 0.95191411728194186 0
vt 0.71337911672421384 0.98681683857899594 0
vt 0.72695917683539912 0.98681673722438323 0
vt 0.74053561911373644 0.98721251797091392 0
vt 0.75409498117064055 0.98799999999999999 0
vt 0.62120266665326573 0.95230825714062628 0
vt 0.6619237467108543 0.95230996797362932 0
vt 0.67548310471050788 0.953097519859885 0
vt 0.89241868838383387 0.97942990327087087 0
vt 0.90598228999775077 0.97903590760827863 0
vt 0.91956141103688305 0.97903561208949297 0
vt 0.9331378522273408 0.97943143015171552 0
vt 0.94669721211974922 0.9802189494495519 0
vt 0.27530527109309744 0.97607500979098649 0
vt 0.2888688736738021 0.97568104741219663 0
vt 0.3024470183068983 0.97568087297113082 0
vt 0.31602346010774102 0.97607667009678334 0
vt 0.6802134075491395 0.90490740579235895 0
vt 0.31965295195626336 0.89284372080155716 0
vt 0.30365963727414402 0.89237873575714155 0
vt 0.28766142853271293 0.89237890362371952 0
vt 0.27167260640027197 0.89284330785289656 0
vt 0.25570136040027447 0.89377173887897809 0
vt 0.93676747243147385 0.89619848645371936 0
vt 0.9207762801949273 0.89573356922242753 0
vt 0.90477615595551275 0.89573358333684916 0
vt 0.888787334962724 0.8961980268010874 0
vt 0.87281609560742091 0.89712657212481361 0
vt 0.66555356695614276 0.86907703299926653 0
vt 0.64956025410875351 0.86861198485300273 0
vt 0.63356204536678473 0.86861208959841996 0
vt 0.61757322222367894 0.86907645903042341 0
vt 0.60160006548453482 0.87000502753280351 0
vt 0.74416501054692796 0.90397956429698856 0
vt 0.72817169530384573 0.90351459854750327 0
vt 0.71217348656262924 0.90351478571491861 0
vt 0.69618466280589941 0.90397913401857455 0
vt 0.012000000000000066 0.79352027389401814 0
vt 0.66264055647329667 0.7471301079038648 0
vt 0.57535413134753477 0.83043175859078056 0
vt 0.012000000000000066 0.8511261791782323 0
vt 0.074886541025086378 0.90824272404432183 0
vt 0.92911448089947846 0.81239976876703568 0
vt 0.32853552749992582 0.60096240201221751 0
vt 0.012000000000000066 0.7557737020763633 0
vt 0.34610670377456981 0.73533810659417043 0
vt 0.80599055210454007 0.95581139822906591 0
vt 0.15350401571628838 0.5836431585049735 0
vt 0.40113156654918103 0.92112636870447284 0
vt 0.85959251962996297 0.52041657369385041 0
vt 0.58980806417484422 0.50769156962368966 0
vt 0.85959697246972411 0.24110016305428411 0
vt 0.76840576088857726 0.23389424303237141 0
vt 0.81870443039947371 0.13954583704195669 0
vt 0.33213398191773047 0.44951158901837879 0
vt 0.3824084004115309 0.35516188331543452 0
vt 0.26174711679558693 0.9768630461185841 0
vt 0.95274055358768783 0.8971274665341602 0
vt 0.60764740111798865 0.95309615813429716 0
vt 0.76013597253182841 0.90490840790866756 0
vt 0.86585901862175008 0.042512954117358823 0
vt 0.42958640379853164 0.25816532076028564 0
vt 0.27269427333546975 0.76756606641630909 0
vt 0.34610670377457198 0.81863975728109106 0
vt 0.66842140623944868 0.8383541870202027 0
vt 0.31466136694872798 0.85638966127935845 0
vt 0.66264125526781048 0.66382845721694372 0
vt 0.27269492130881912 0.82517197860054159 0
vt 0.012000000000000066 0.67247205138944355 0
vt 0.3285341560908186 0.68426405269913615 0
vt 0.04344197562523916 0.94661507299879499 0
vt 0.58980375953555852 0.91716809345680872 0
vt 0.83743578697841925 0.91743959789085383 0
vt 0.36968654461176381 0.95949834354060015 0
vt 0.58980806417484422 0.64735036854842853 0
vt 0.42328982081262906 0.45670990070768286 0
vt 0.85959508080892411 0.38075836042627992 0
vt 0.58980806417484422 0.36803346673522536 0
vt 0.20459990020409308 0.35518311774539546 0
vt 0.25490616527446402 0.44951047213096051 0
vt 0.69116036495485189 0.23390083614684581 0
vt 0.23693549843076475 0.13951773968178402 0
vt 0.33562603454506112 0.89377267624950929 0
vt 0.68625833542535286 0.9879987733111868 0
vt 0.87886244664263691 0.98021783609604718 0
vt 0.68152664587960965 0.87000605146923649 0
vt 0.57506557182749929 0.042568893183073733 0
vt 0.28422935412076472 0.042574779772572666 0
#end 292 textures vertices 

#begin 280 normals 
vn -0.089104000000000003 0.99498699999999995 0.045401999999999998
vn -0.089104000000000003 0.99498699999999995 0.045401999999999998
vn -0.089104000000000003 0.99498699999999995 0.045401999999999998
vn -0.089104000000000003 0.99498699999999995 0.045401999999999998
vn -0.070713999999999999 0.99498699999999995 0.070707999999999993
vn -0.070713999999999999 0.99498699999999995 0.070707999999999993
vn -0.070713999999999999 0.99498699999999995 0.070707999999999993
vn -0.070713999999999999 0.99498699999999995 0.070707999999999993
vn -0.045399000000000002 0.99498699999999995 0.089106000000000005
vn -0.045399000000000002 0.99498699999999995 0.089106000000000005
vn -0.045399000000000002 0.99498699999999995 0.089106000000000005
vn -0.045399000000000002 0.99498699999999995 0.089106000000000005
vn -0.015643000000000001 0.99498699999999995 0.098778000000000005
vn -0.015643000000000001 0.99498699999999995 0.098778000000000005
vn -0.015643000000000001 0.99498699999999995 0.098778000000000005
vn -0.015643000000000001 0.99498699999999995 0.098778000000000005
vn 0.015643000000000001 0.99498600000000004 0.098778000000000005
vn 0.015643000000000001 0.99498600000000004 0.098778000000000005
vn 0.015643000000000001 0.99498600000000004 0.098778000000000005
vn 0.015643000000000001 0.99498600000000004 0.098778000000000005
vn 0.045402999999999999 0.99498699999999995 0.089107000000000006
vn 0.045402999999999999 0.99498699999999995 0.089107000000000006
vn 0.045402999999999999 0.99498699999999995 0.089107000000000006
vn 0.045402999999999999 0.99498699999999995 0.089107000000000006
vn 0.070716000000000001 0.99498600000000004 0.070718000000000003
vn 0.070716000000000001 0.99498600000000004 0.070718000000000003
vn 0.070716000000000001 0.99498600000000004 0.070718000000000003
vn 0.070716000000000001 0.99498600000000004 0.070718000000000003
vn 0.089110999999999996 0.99498600000000004 0.045406000000000002
vn 0.089110999999999996 0.99498600000000004 0.045406000000000002
vn 0.089110999999999996 0.99498600000000004 0.045406000000000002
vn 0.089110999999999996 0.99498600000000004 0.045406000000000002
vn 0.098782999999999996 0.99498600000000004 0.015642
vn 0.098782999999999996 0.99498600000000004 0.015642
vn 0.098782999999999996 0.99498600000000004 0.015642
vn 0.098782999999999996 0.99498600000000004 0.015642
vn 0.098782999999999996 0.99498600000000004 -0.015642
vn 0.098782999999999996 0.99498600000000004 -0.015642
vn 0.098782999999999996 0.99498600000000004 -0.015642
vn 0.098782999999999996 0.99498600000000004 -0.015642
vn 0.089110999999999996 0.99498600000000004 -0.045407000000000003
vn 0.089110999999999996 0.99498600000000004 -0.045407000000000003
vn 0.089110999999999996 0.99498600000000004 -0.045407000000000003
vn 0.089110999999999996 0.99498600000000004 -0.045407000000000003
vn 0.070716000000000001 0.99498600000000004 -0.070720000000000005
vn 0.070716000000000001 0.99498600000000004 -0.070720000000000005
vn 0.070716000000000001 0.99498600000000004 -0.070720000000000005
vn 0.070716000000000001 0.99498600000000004 -0.070720000000000005
vn 0.045402999999999999 0.99498699999999995 -0.089108000000000007
vn 0.045402999999999999 0.99498699999999995 -0.089108000000000007
vn 0.045402999999999999 0.99498699999999995 -0.089108000000000007
vn 0.045402999999999999 0.99498699999999995 -0.089108000000000007
vn 0.015643000000000001 0.99498600000000004 -0.098778000000000005
vn 0.015643000000000001 0.99498600000000004 -0.098778000000000005
vn 0.015643000000000001 0.99498600000000004 -0.098778000000000005
vn 0.015643000000000001 0.99498600000000004 -0.098778000000000005
vn -0.015644000000000002 0.99498600000000004 -0.098778000000000005
vn -0.015644000000000002 0.99498600000000004 -0.098778000000000005
vn -0.015644000000000002 0.99498600000000004 -0.098778000000000005
vn -0.015644000000000002 0.99498600000000004 -0.098778000000000005
vn -0.045402999999999999 0.99498699999999995 -0.089106000000000005
vn -0.045402999999999999 0.99498699999999995 -0.089106000000000005
vn -0.045402999999999999 0.99498699999999995 -0.089106000000000005
vn -0.045402999999999999 0.99498699999999995 -0.089106000000000005
vn -0.070715 0.99498699999999995 -0.070711999999999997
vn -0.070715 0.99498699999999995 -0.070711999999999997
vn -0.070715 0.99498699999999995 -0.070711999999999997
vn -0.070715 0.99498699999999995 -0.070711999999999997
vn -0.089104000000000003 0.99498699999999995 -0.045401999999999998
vn -0.089104000000000003 0.99498699999999995 -0.045401999999999998
vn -0.089104000000000003 0.99498699999999995 -0.045401999999999998
vn -0.089104000000000003 0.99498699999999995 -0.045401999999999998
vn -0.098776000000000003 0.99498699999999995 -0.015644999999999999
vn -0.098776000000000003 0.99498699999999995 -0.015644999999999999
vn -0.098776000000000003 0.99498699999999995 -0.015644999999999999
vn -0.098776000000000003 0.99498699999999995 -0.015644999999999999
vn -0.098776000000000003 0.99498699999999995 0.015644999999999999
vn -0.098776000000000003 0.99498699999999995 0.015644999999999999
vn -0.098776000000000003 0.99498699999999995 0.015644999999999999
vn -0.098776000000000003 0.99498699999999995 0.015644999999999999
vn 0.95105700000000004 -0 -0.30901400000000001
vn 0.80901999999999996 -0 -0.58778200000000003
vn 0.80901999999999996 -0 -0.587781
vn 0.95105700000000004 -0 -0.30901400000000001
vn 0.587785 -0 -0.80901699999999999
vn 0.587785 -0 -0.80901699999999999
vn 0.30901400000000001 -0 -0.95105700000000004
vn 0.30901400000000001 -0 -0.95105700000000004
vn -0 -0 -1
vn -0 -0 -1
vn -0.30901499999999998 -0 -0.95105700000000004
vn -0.30901499999999998 -0 -0.95105700000000004
vn -0.587785 -0 -0.80901699999999999
vn -0.587785 -0 -0.80901699999999999
vn -0.80901599999999996 -0 -0.58778600000000003
vn -0.80901599999999996 -0 -0.58778600000000003
vn -0.95105700000000004 -0 -0.30901400000000001
vn -0.95105700000000004 -0 -0.30901400000000001
vn -1 0 -0
vn -1 0 -0
vn -0.95105700000000004 0 0.30901499999999998
vn -0.95105700000000004 0 0.30901499999999998
vn -0.80901599999999996 -0 0.58778600000000003
vn -0.80901599999999996 -0 0.58778600000000003
vn -0.587785 -0 0.80901699999999999
vn -0.587785 -0 0.80901699999999999
vn -0.30901400000000001 -0 0.95105700000000004
vn -0.30901400000000001 -0 0.95105700000000004
vn -0 -0 1
vn -0 -0 1
vn 0.30901499999999998 -0 0.95105700000000004
vn 0.30901499999999998 -0 0.95105700000000004
vn 0.58778600000000003 -0 0.80901699999999999
vn 0.58778600000000003 -0 0.80901699999999999
vn 0.80901900000000004 0 0.58778200000000003
vn 0.80901900000000004 0 0.58778200000000003
vn 0.95105700000000004 -0 0.30901499999999998
vn 0.95105700000000004 -0 0.30901499999999998
vn 1 -0 0
vn 1 -0 0
vn 0.43560199999999999 0.87232699999999996 -0.222027
vn 0.43560199999999999 0.87232699999999996 -0.222027
vn 0.43560199999999999 0.87232699999999996 -0.222027
vn 0.34571600000000002 0.87232900000000002 -0.34572000000000003
vn 0.34571600000000002 0.87232900000000002 -0.34572000000000003
vn 0.34571600000000002 0.87232900000000002 -0.34572000000000003
vn 0.222048 0.87233000000000005 -0.435585
vn 0.222048 0.87233000000000005 -0.435585
vn 0.222048 0.87233000000000005 -0.435585
vn 0.075931999999999999 0.87228899999999998 -0.48305900000000002
vn 0.075931999999999999 0.87228899999999998 -0.48305799999999999
vn 0.075931999999999999 0.87228899999999998 -0.48305799999999999
vn -0.075926999999999994 0.87229000000000001 -0.48305900000000002
vn -0.075926999999999994 0.87229000000000001 -0.48305900000000002
vn -0.075926999999999994 0.87229000000000001 -0.48305900000000002
vn -0.22206100000000001 0.87232900000000002 -0.435581
vn -0.22206100000000001 0.87232900000000002 -0.435581
vn -0.22206100000000001 0.87232900000000002 -0.435581
vn -0.34571600000000002 0.87232900000000002 -0.34572000000000003
vn -0.34571600000000002 0.87232900000000002 -0.34572000000000003
vn -0.34571600000000002 0.87232900000000002 -0.34572000000000003
vn -0.43558400000000003 0.87232900000000002 -0.222053
vn -0.43558400000000003 0.87232900000000002 -0.222053
vn -0.43558400000000003 0.87232900000000002 -0.222053
vn -0.48305999999999999 0.87229000000000001 -0.075912999999999994
vn -0.48305999999999999 0.87229000000000001 -0.075912999999999994
vn -0.48305999999999999 0.87229000000000001 -0.075912999999999994
vn -0.48305999999999999 0.87229000000000001 0.075912999999999994
vn -0.48305999999999999 0.87229000000000001 0.075912999999999994
vn -0.48305999999999999 0.87229000000000001 0.075912999999999994
vn -0.43558400000000003 0.87233000000000005 0.222053
vn -0.43558400000000003 0.87233000000000005 0.222053
vn -0.43558400000000003 0.87233000000000005 0.222053
vn -0.34571600000000002 0.87232900000000002 0.34572000000000003
vn -0.34571600000000002 0.87232900000000002 0.34572000000000003
vn -0.34571600000000002 0.87232900000000002 0.34572000000000003
vn -0.22206100000000001 0.872332 0.43557600000000002
vn -0.22206100000000001 0.872332 0.43557600000000002
vn -0.22206100000000001 0.872332 0.43557600000000002
vn -0.075926999999999994 0.87229000000000001 0.48305799999999999
vn -0.075926999999999994 0.87229000000000001 0.48305799999999999
vn -0.075926999999999994 0.87229000000000001 0.48305799999999999
vn 0.075931999999999999 0.87229000000000001 0.48305799999999999
vn 0.075931999999999999 0.87229000000000001 0.48305799999999999
vn 0.075931999999999999 0.87229000000000001 0.48305799999999999
vn 0.222048 0.87233099999999997 0.435585
vn 0.222048 0.87233000000000005 0.435585
vn 0.222048 0.87233000000000005 0.435585
vn 0.34571600000000002 0.87232900000000002 0.34572000000000003
vn 0.34571600000000002 0.87232900000000002 0.34572000000000003
vn 0.34571600000000002 0.87232900000000002 0.34572000000000003
vn 0.43560199999999999 0.87232699999999996 0.222027
vn 0.43560199999999999 0.87232699999999996 0.222027
vn 0.43560199999999999 0.87232699999999996 0.222027
vn 0.48306900000000003 0.87228499999999998 0.075914999999999996
vn 0.48306900000000003 0.87228499999999998 0.075914999999999996
vn 0.48306900000000003 0.87228499999999998 0.075914999999999996
vn 0.48306900000000003 0.87228499999999998 -0.075913999999999995
vn 0.48306900000000003 0.87228499999999998 -0.075913999999999995
vn 0.48306900000000003 0.87228499999999998 -0.075913999999999995
vn 0.94579100000000005 -0.10500900000000001 -0.30733100000000002
vn 0.80454899999999996 -0.105008 -0.58452999999999999
vn 0.79556000000000004 0.18165899999999999 -0.57799999999999996
vn 0.93522499999999997 0.18165999999999999 -0.30389699999999997
vn 0.58454799999999996 -0.10500900000000001 -0.804535
vn 0.57801800000000003 0.18165799999999999 -0.795547
vn 0.307313 -0.10501000000000001 -0.945797
vn 0.30388100000000001 0.18165600000000001 -0.93523100000000003
vn -0 -0.10500900000000001 -0.99447099999999999
vn -0 0.18165899999999999 -0.98336199999999996
vn -0.307311 -0.10500900000000001 -0.945797
vn -0.30387900000000001 0.18165600000000001 -0.93523199999999995
vn -0.58453599999999994 -0.105007 -0.80454400000000004
vn -0.57800600000000002 0.18165799999999999 -0.79555600000000004
vn -0.804531 -0.105005 -0.58455400000000002
vn -0.79554499999999995 0.18165899999999999 -0.57802200000000004
vn -0.945797 -0.105006 -0.307315
vn -0.93523000000000001 0.18165999999999999 -0.30388199999999999
vn -0.99447200000000002 -0.105007 0
vn -0.98336100000000004 0.18166099999999999 0
vn -0.945797 -0.105006 0.307315
vn -0.93523000000000001 0.18165999999999999 0.30388199999999999
vn -0.804531 -0.105005 0.58455400000000002
vn -0.79554499999999995 0.18165799999999999 0.57802200000000004
vn -0.58453500000000003 -0.105007 0.80454499999999995
vn -0.57800499999999999 0.18165700000000001 0.79555699999999996
vn -0.30731199999999997 -0.10500900000000001 0.945797
vn -0.30387900000000001 0.18165600000000001 0.93523199999999995
vn -0 -0.10500900000000001 0.99447099999999999
vn -0 0.18165899999999999 0.98336199999999996
vn 0.307313 -0.10501000000000001 0.945797
vn 0.30388199999999999 0.18165600000000001 0.93523100000000003
vn 0.58454799999999996 -0.10500900000000001 0.804535
vn 0.57801800000000003 0.18165799999999999 0.795547
vn 0.80454899999999996 -0.105008 0.58452999999999999
vn 0.79556000000000004 0.18165899999999999 0.57799999999999996
vn 0.94579100000000005 -0.10500900000000001 0.30733199999999999
vn 0.93522499999999997 0.18165999999999999 0.303898
vn 0.99447099999999999 -0.10501199999999999 -0
vn 0.98336199999999996 0.18165899999999999 -0
vn 0.80793099999999995 0.58927700000000005 -0
vn 0.76838899999999999 0.58927300000000005 -0.24967300000000001
vn 0.82780799999999999 0.49238900000000002 -0.26886100000000002
vn 0.87039 0.49236400000000002 -0
vn 0.76838799999999996 0.58927300000000005 0.24967400000000001
vn 0.82780799999999999 0.49238900000000002 0.26886199999999999
vn 0.65364 0.58926699999999999 0.47488900000000001
vn 0.704156 0.49237999999999998 0.51159200000000005
vn 0.47490599999999999 0.58926699999999999 0.65362699999999996
vn 0.51161699999999999 0.49237900000000001 0.70413800000000004
vn 0.24966099999999999 0.58927399999999996 0.76839199999999996
vn 0.26885799999999999 0.492396 0.82780500000000001
vn 0 0.58926999999999996 0.80793599999999999
vn -9.9999999999999995e-007 0.49235299999999999 0.87039599999999995
vn -0.24965899999999999 0.58927200000000002 0.76839299999999999
vn -0.26885300000000001 0.492396 0.82780699999999996
vn -0.47489599999999998 0.58926400000000001 0.65363700000000002
vn -0.51160399999999995 0.49238100000000001 0.70414699999999997
vn -0.65362699999999996 0.58926699999999999 0.47490599999999999
vn -0.70413599999999998 0.49238399999999999 0.51161599999999996
vn -0.76839100000000005 0.58927300000000005 0.249663
vn -0.82780399999999998 0.492396 0.26886100000000002
vn -0.80793300000000001 0.58927399999999996 9.9999999999999995e-007
vn -0.87039200000000005 0.49236000000000002 0
vn -0.76839199999999996 0.58927300000000005 -0.249663
vn -0.82780500000000001 0.492396 -0.26886100000000002
vn -0.65362699999999996 0.58926699999999999 -0.47490599999999999
vn -0.70413599999999998 0.49238399999999999 -0.51161599999999996
vn -0.47489700000000001 0.58926400000000001 -0.65363700000000002
vn -0.51160399999999995 0.49238100000000001 -0.70414699999999997
vn -0.24965899999999999 0.58927300000000005 -0.76839299999999999
vn -0.26885300000000001 0.492396 -0.82780699999999996
vn 0 0.58927099999999999 -0.80793599999999999
vn -9.9999999999999995e-007 0.49235299999999999 -0.87039599999999995
vn 0.24966099999999999 0.58927399999999996 -0.76839199999999996
vn 0.26885799999999999 0.492396 -0.82780600000000004
vn 0.47490599999999999 0.58926699999999999 -0.65362699999999996
vn 0.51161699999999999 0.49237799999999998 -0.70413899999999996
vn 0.65364 0.58926699999999999 -0.47488900000000001
vn 0.704156 0.49237999999999998 -0.51159200000000005
vn 0.94704200000000005 0.092843999999999996 -0.30739499999999997
vn 0.99567799999999995 0.092868000000000006 -0
vn 0.94704100000000002 0.092843999999999996 0.307396
vn 0.80552400000000002 0.092798000000000005 0.58525199999999999
vn 0.58528100000000005 0.092800999999999995 0.80550299999999997
vn 0.30740499999999998 0.092845999999999998 0.94703899999999996
vn 0 0.092862 0.99567899999999998
vn -0.30740699999999999 0.092841999999999994 0.94703800000000005
vn -0.58527300000000004 0.092799999999999994 0.805508
vn -0.80549899999999997 0.092804999999999999 0.58528500000000006
vn -0.94703599999999999 0.092853000000000005 0.30741200000000002
vn -0.99567799999999995 0.092873999999999998 0
vn -0.94703599999999999 0.092853000000000005 -0.30741099999999999
vn -0.80549899999999997 0.092803999999999998 -0.58528500000000006
vn -0.58527300000000004 0.092799999999999994 -0.805508
vn -0.30740699999999999 0.092841999999999994 -0.94703800000000005
vn 0 0.092862 -0.99567899999999998
vn 0.30740499999999998 0.092845999999999998 -0.94703899999999996
vn 0.58528000000000002 0.092800999999999995 -0.80550299999999997
vn 0.80552400000000002 0.092797000000000004 -0.58525199999999999
#end 280 normals 

#begin 140 faces
usemtl initialShadingGroup
g polySurface7 pCylinder14
s off
f 21/21/1 22/22/2 23/23/3 24/267/4 
f 22/22/5 25/25/6 26/26/7 23/23/8 
f 25/25/9 27/27/10 28/28/11 26/26/12 
f 27/27/13 29/29/14 30/30/15 28/28/16 
f 29/29/17 31/242/18 32/32/19 30/30/20 
f 31/31/21 33/33/22 34/34/23 32/244/24 
f 33/33/25 35/35/26 36/36/27 34/34/28 
f 35/35/29 37/37/30 38/38/31 36/36/32 
f 37/37/33 39/39/34 40/40/35 38/38/36 
f 39/39/37 41/270/38 42/42/39 40/40/40 
f 41/41/41 43/43/42 44/44/43 42/272/44 
f 43/43/45 45/45/46 46/46/47 44/44/48 
f 45/45/49 47/47/50 48/48/51 46/46/52 
f 47/47/53 49/49/54 50/50/55 48/48/56 
f 49/49/57 51/245/58 52/52/59 50/50/60 
f 51/51/61 53/53/62 54/54/63 52/247/64 
f 53/53/65 55/55/66 56/56/67 54/54/68 
f 55/55/69 57/57/70 58/58/71 56/56/72 
f 57/57/73 59/59/74 60/60/75 58/58/76 
f 59/59/77 21/269/78 24/24/79 60/60/80 
s 1
f 2/2/81 1/1/82 22/145/83 21/273/84 
f 1/1/82 3/3/85 25/146/86 22/145/83 
f 3/3/85 4/4/87 27/148/88 25/146/86 
f 4/4/87 5/5/89 29/143/90 27/148/88 
f 5/5/89 6/248/91 31/150/92 29/143/90 
f 6/6/91 7/7/93 33/147/94 31/249/92 
f 7/7/93 8/8/95 35/149/96 33/147/94 
f 8/8/95 9/9/97 37/144/98 35/149/96 
f 9/9/97 10/10/99 39/151/100 37/144/98 
f 10/10/99 11/274/101 41/152/102 39/151/100 
f 11/11/101 12/12/103 43/153/104 41/268/102 
f 12/12/103 13/13/105 45/154/106 43/153/104 
f 13/13/105 14/14/107 47/155/108 45/154/106 
f 14/14/107 15/15/109 49/156/110 47/155/108 
f 15/15/109 16/243/111 51/157/112 49/156/110 
f 16/16/111 17/17/113 53/158/114 51/250/112 
f 17/17/113 18/18/115 55/159/116 53/158/114 
f 18/18/115 19/19/117 57/160/118 55/159/116 
f 19/19/117 20/20/119 59/161/120 57/160/118 
f 20/20/119 2/271/81 21/142/84 59/161/120 
s off
f 61/61/121 62/62/122 63/275/123 
f 62/62/124 64/64/125 63/275/126 
f 64/64/127 65/65/128 63/275/129 
f 65/65/130 66/66/131 63/275/132 
f 66/66/133 67/246/134 63/275/135 
f 67/67/136 68/68/137 63/251/138 
f 68/68/139 69/69/140 63/251/141 
f 69/69/142 70/70/143 63/251/144 
f 70/70/145 71/71/146 63/251/147 
f 71/71/148 72/277/149 63/251/150 
f 72/72/151 73/73/152 63/278/153 
f 73/73/154 74/74/155 63/278/156 
f 74/74/157 75/75/158 63/278/159 
f 75/75/160 76/76/161 63/278/162 
f 76/76/163 77/253/164 63/278/165 
f 77/77/166 78/78/167 63/63/168 
f 78/78/169 79/79/170 63/63/171 
f 79/79/172 80/80/173 63/63/174 
f 80/80/175 81/81/176 63/63/177 
f 81/81/178 61/276/179 63/63/180 
s 2
f 24/163/181 23/162/182 141/141/183 122/279/184 
f 23/162/182 26/165/185 140/140/186 141/141/183 
f 26/165/185 28/167/187 139/139/188 140/140/186 
f 28/167/187 30/169/189 138/138/190 139/139/188 
f 30/169/189 32/254/191 137/137/192 138/138/190 
f 32/164/191 34/166/193 136/136/194 137/255/192 
f 34/166/193 36/168/195 135/135/196 136/136/194 
f 36/168/195 38/170/197 134/134/198 135/135/196 
f 38/170/197 40/171/199 133/133/200 134/134/198 
f 40/171/199 42/281/201 132/132/202 133/133/200 
f 42/172/201 44/173/203 131/131/204 132/282/202 
f 44/173/203 46/174/205 130/130/206 131/131/204 
f 46/174/205 48/175/207 129/129/208 130/130/206 
f 48/175/207 50/176/209 128/128/210 129/129/208 
f 50/176/209 52/256/211 127/127/212 128/128/210 
f 52/177/211 54/178/213 126/126/214 127/252/212 
f 54/178/213 56/179/215 125/125/216 126/126/214 
f 56/179/215 58/180/217 124/124/218 125/125/216 
f 58/180/217 60/181/219 123/123/220 124/124/218 
f 60/181/219 24/280/181 122/122/184 123/123/220 
f 83/83/221 82/82/222 102/102/223 103/103/224 
f 84/84/225 83/83/221 103/103/224 104/104/226 
f 85/85/227 84/84/225 104/104/226 105/105/228 
f 86/86/229 85/85/227 105/105/228 106/106/230 
f 87/87/231 86/86/229 106/106/230 107/107/232 
f 88/88/233 87/258/231 107/257/232 108/108/234 
f 89/89/235 88/88/233 108/108/234 109/109/236 
f 90/90/237 89/89/235 109/109/236 110/110/238 
f 91/91/239 90/90/237 110/110/238 111/111/240 
f 92/92/241 91/91/239 111/111/240 112/285/242 
f 93/93/243 92/286/241 112/112/242 113/113/244 
f 94/94/245 93/93/243 113/113/244 114/114/246 
f 95/95/247 94/94/245 114/114/246 115/115/248 
f 96/96/249 95/95/247 115/115/248 116/116/250 
f 97/97/251 96/96/249 116/116/250 117/117/252 
f 98/98/253 97/260/251 117/259/252 118/118/254 
f 99/99/255 98/98/253 118/118/254 119/119/256 
f 100/100/257 99/99/255 119/119/256 120/120/258 
f 101/101/259 100/100/257 120/120/258 121/121/260 
f 82/283/222 101/101/259 121/121/260 102/284/223 
f 103/223/224 102/287/223 61/202/261 81/221/262 
f 104/224/226 103/223/224 81/221/262 80/220/263 
f 105/225/228 104/224/226 80/220/263 79/219/264 
f 106/226/230 105/225/228 79/219/264 78/218/265 
f 107/227/232 106/226/230 78/218/265 77/261/266 
f 108/228/234 107/262/232 77/217/266 76/216/267 
f 109/229/236 108/228/234 76/216/267 75/215/268 
f 110/230/238 109/229/236 75/215/268 74/214/269 
f 111/231/240 110/230/238 74/214/269 73/213/270 
f 112/232/242 111/231/240 73/213/270 72/289/271 
f 113/233/244 112/290/242 72/212/271 71/211/272 
f 114/234/246 113/233/244 71/211/272 70/205/273 
f 115/235/248 114/234/246 70/205/273 69/203/274 
f 116/236/250 115/235/248 69/203/274 68/210/275 
f 117/237/252 116/236/250 68/210/275 67/263/276 
f 118/238/254 117/264/252 67/209/276 66/208/277 
f 119/239/256 118/238/254 66/208/277 65/207/278 
f 120/240/258 119/239/256 65/207/278 64/206/279 
f 121/241/260 120/240/258 64/206/279 62/204/280 
f 102/222/223 121/241/260 62/204/280 61/288/261 
f 123/201/220 122/291/184 82/82/222 83/83/221 
f 124/200/218 123/201/220 83/83/221 84/84/225 
f 125/199/216 124/200/218 84/84/225 85/85/227 
f 126/198/214 125/199/216 85/85/227 86/86/229 
f 127/197/212 126/198/214 86/86/229 87/87/231 
f 128/196/210 127/265/212 87/258/231 88/88/233 
f 129/195/208 128/196/210 88/88/233 89/89/235 
f 130/194/206 129/195/208 89/89/235 90/90/237 
f 131/193/204 130/194/206 90/90/237 91/91/239 
f 132/192/202 131/193/204 91/91/239 92/92/241 
f 133/191/200 132/292/202 92/286/241 93/93/243 
f 134/190/198 133/191/200 93/93/243 94/94/245 
f 135/189/196 134/190/198 94/94/245 95/95/247 
f 136/188/194 135/189/196 95/95/247 96/96/249 
f 137/187/192 136/188/194 96/96/249 97/97/251 
f 138/184/190 137/266/192 97/260/251 98/98/253 
f 139/186/188 138/184/190 98/98/253 99/99/255 
f 140/185/186 139/186/188 99/99/255 100/100/257 
f 141/182/183 140/185/186 100/100/257 101/101/259 
f 122/183/184 141/182/183 101/101/259 82/283/222 
#end 140 faces
#begin 1 properties
#U3D SYM 0 0 0 1 0 0 0.0001 0
#end 1 properties
