#File written by LIBUNFOLD3D. Compilation :Dec 22 2011,11:53:02
mtllib SaltCap.mtl
#begin vertices
v 2.716844 1.099235 -0.413327
v 2.2395749999999999 1.099235 -0.413327
v 2.0009399999999999 1.099235 -0
v 2.2395749999999999 1.099235 0.413327
v 2.716844 1.099235 0.413327
v 2.9554779999999998 1.099235 -0
v 2.7180260000000001 1.149343 -0.41537600000000002
v 2.2383920000000002 1.149343 -0.41537600000000002
v 1.998575 1.149343 -0
v 2.2383920000000002 1.149343 0.41537600000000002
v 2.7180260000000001 1.149343 0.41537600000000002
v 2.9578440000000001 1.149343 -0
v 2.6997010000000001 1.212961 -0.38363599999999998
v 2.2567170000000001 1.212961 -0.38363599999999998
v 2.0352250000000001 1.212961 -0
v 2.2567170000000001 1.212961 0.38363599999999998
v 2.6997010000000001 1.212961 0.38363599999999998
v 2.9211930000000002 1.212961 -0
v 2.7104590000000002 1.298807 -0.40226800000000001
v 2.2459600000000002 1.298807 -0.40226800000000001
v 2.0137100000000001 1.298807 -0
v 2.245959 1.298807 0.40226800000000001
v 2.7104590000000002 1.298807 0.40226800000000001
v 2.9427080000000001 1.298807 -0
v 2.68404 1.4070830000000001 -0.35650900000000002
v 2.2723779999999998 1.4070830000000001 -0.35650900000000002
v 2.0665480000000001 1.4070830000000001 -0
v 2.2723779999999998 1.4070830000000001 0.35650900000000002
v 2.68404 1.4070830000000001 0.35650900000000002
v 2.8898709999999999 1.4070830000000001 -0
v 2.6263130000000001 1.4903219999999999 -0.256523
v 2.3301050000000001 1.4903219999999999 -0.256523
v 2.4782090000000001 1.5124550000000001 -0
v 2.1820020000000002 1.4903219999999999 -0
v 2.3301050000000001 1.4903219999999999 0.256523
v 2.6263130000000001 1.4903219999999999 0.256523
v 2.774416 1.4903219999999999 -0
v 2.8523869999999998 1.0508900000000001 -0
v 2.6652979999999999 1.0508900000000001 -0.324048
v 2.6652979999999999 1.0508900000000001 0.324048
v 2.2911199999999998 1.0508900000000001 0.324048
v 2.104031 1.0508900000000001 -0
v 2.2911199999999998 1.0508900000000001 -0.324048
#end vertices

#begin 74 textures vertices 
vt 0.4640326747781563 0.30837787521269761 0
vt 0.71474471358477976 0.2957526798702374 0
vt 0.9666537423381425 0.3095844710348965 0
vt 0.54349240484777783 0.59396370925045106 0
vt 0.26151282648101426 0.064645313056703013 0
vt 0.51364419574894438 0.077778127083851137 0
vt 0.46320395109907142 0.33867287172920735 0
vt 0.71418007453100296 0.32205739728990201 0
vt 0.96702779126132454 0.33982862785658452 0
vt 0.54414506682899977 0.62163166930115121 0
vt 0.26151304058404962 0.090967456428529811 0
vt 0.51444382073520201 0.10803217090349046 0
vt 0.47491427016637705 0.38136038761509089 0
vt 0.71384683354473966 0.35948565700128154 0
vt 0.9549154863579834 0.38156634581852428 0
vt 0.53403497137988398 0.66085583686045712 0
vt 0.2616554552865159 0.12805733743616496 0
vt 0.50286679443456084 0.15060840347072454 0
vt 0.47446834150826905 0.43632921885434062 0
vt 0.713262469233926 0.40363820124915978 0
vt 0.95611957166586992 0.43605152141337689 0
vt 0.53996955490871956 0.70932030476276675 0
vt 0.26203693983077181 0.17276160583672437 0
vt 0.50360389501831115 0.20538927616372946 0
vt 0.50062679737873095 0.50698753052854806 0
vt 0.71472798257194636 0.46415589108170813 0
vt 0.92829343716161827 0.50512979619785159 0
vt 0.52539404214250074 0.77417228338465094 0
vt 0.26324151761114795 0.23338150976511443 0
vt 0.47479825560698991 0.27460923389700531 0
vt 0.55607100856282865 0.57964864063231536 0
vt 0.71537033854022125 0.53261196109859865 0
vt 0.71783338471941049 0.68828142694929118 0
vt 0.87284409965810861 0.57468660967262686 0
vt 0.49354572171689187 0.84594898676520747 0
vt 0.26248998689623054 0.30020707505282646 0
vt 0.42075787411553489 0.34710412381171973 0
vt 0.041090610875929842 0.45895121435142644 0
vt 0.49560890233881022 0.24667113749192168 0
vt 0.26246605434368303 0.011999999999999955 0
vt 0.042288568611562216 0.019400317091815708 0
vt 0.3086183714066541 0.53794988471707228 0
vt 0.71425485119862087 0.2432897733548828 0
vt 0.27596441670982452 0.51496525673072369 0
vt 0.26150221424268638 0.4565680222898858 0
vt 0.27661733627785701 0.54263319769514085 0
vt 0.2260180977072774 0.76695055168437665 0
vt 0.10223392587617387 0.3467610694012504 0
vt 0.012227505561242592 0.077954679663768942 0
vt 0.011999999999999955 0.1081902031312109 0
vt 0.26650724944474391 0.58185736747523498 0
vt 0.023843474790376844 0.15058972407519655 0
vt 0.27244184361930895 0.63032183407395048 0
vt 0.022130497298758482 0.20422023805151079 0
vt 0.25786634509850948 0.69517381589749783 0
vt 0.047670292554430165 0.27445125717285207 0
vt 0.24752681829293499 0.45895127597507757 0
vt 0.51505457882353167 0.53795012414734189 0
vt 0.06259911752221009 0.76695079595028193 0
vt 0.14430858013957262 0.90900164806043615 0
vt 0.012652683684518598 0.51496509427937465 0
vt 0.030750534364010748 0.69517367843384714 0
vt 0.48188653855768149 0.016118309069546879 0
vt 0.011999999999999955 0.54263305418114305 0
vt 0.022110274486545158 0.58185741838672 0
vt 0.01617532019472508 0.63032186989312633 0
vt 0.33012674153166333 0.84594906474878218 0
vt 0.27952800640387421 0.62163168096622901 0
vt 0.41183605960918318 0.98799999999999999 0
vt 0.29827850726061916 0.7741722820252479 0
vt 0.28963799642167953 0.6608558340875772 0
vt 0.28370303148413467 0.70932028429030791 0
vt 0.2801803959696566 0.59396374015098652 0
vt 0.93588532624190601 0.25087662600688154 0
#end 74 textures vertices 

#begin 103 normals 
vn 0.037255999999999997 0.99722 -0.064529000000000003
vn -0.037255999999999997 0.99722 -0.064530000000000004
vn -0 1 0
vn -0.074511999999999995 0.99722 0
vn -0.037255999999999997 0.99722 0.064529000000000003
vn 0.037255999999999997 0.99722 0.064529000000000003
vn 0.074511999999999995 0.99722 0
vn 0 -0.580542 -0.81423000000000001
vn 0 0.22851399999999999 -0.97354099999999999
vn 0 0.228515 -0.97353999999999996
vn 0 -0.580542 -0.81423000000000001
vn -0.70514399999999999 -0.58054300000000003 -0.407115
vn -0.84311100000000005 0.22851399999999999 -0.48676999999999998
vn -0.84311100000000005 0.22851399999999999 -0.48676999999999998
vn -0.70514299999999996 -0.58054300000000003 -0.407115
vn -0.70514299999999996 -0.58054399999999995 0.40711399999999998
vn -0.84311100000000005 0.22851299999999999 0.48676999999999998
vn -0.84311100000000005 0.22851299999999999 0.48676999999999998
vn -0.70514299999999996 -0.58054399999999995 0.40711399999999998
vn -0 -0.580542 0.81423000000000001
vn -0 0.228515 0.97354099999999999
vn -0 0.228515 0.97353999999999996
vn -0 -0.580542 0.81423100000000004
vn 0.70514399999999999 -0.58054300000000003 0.407115
vn 0.84311100000000005 0.22851399999999999 0.48676999999999998
vn 0.84311100000000005 0.22851399999999999 0.48676999999999998
vn 0.70514299999999996 -0.58054300000000003 0.407115
vn 0.70514299999999996 -0.58054300000000003 -0.407115
vn 0.84311100000000005 0.22851399999999999 -0.48676999999999998
vn 0.84311100000000005 0.22851399999999999 -0.48676999999999998
vn 0.70514299999999996 -0.58054300000000003 -0.407115
vn 0 0.103127 -0.994668
vn 0 0.103127 -0.994668
vn -0.86140799999999995 0.103127 -0.497334
vn -0.86140799999999995 0.103127 -0.497334
vn -0.86140799999999995 0.103127 0.497334
vn -0.86140799999999995 0.103127 0.497334
vn -0 0.103127 0.994668
vn -0 0.103127 0.994668
vn 0.86140799999999995 0.103128 0.497334
vn 0.86140799999999995 0.103128 0.497334
vn 0.86140799999999995 0.103128 -0.497334
vn 0.86140799999999995 0.103128 -0.497334
vn 0 0.121999 -0.99253000000000002
vn 0 0.121999 -0.99253000000000002
vn -0.85955599999999999 0.122 -0.49626500000000001
vn -0.85955599999999999 0.122 -0.49626500000000001
vn -0.85955700000000002 0.122 0.49626500000000001
vn -0.85955700000000002 0.122 0.49626500000000001
vn 0 0.122 0.99253000000000002
vn 0 0.121999 0.99253000000000002
vn 0.85955599999999999 0.121999 0.49626500000000001
vn 0.85955599999999999 0.121999 0.49626500000000001
vn 0.85955599999999999 0.121999 -0.49626500000000001
vn 0.85955599999999999 0.121999 -0.49626500000000001
vn 0 0.38927699999999998 -0.92112099999999997
vn 0 0.38927699999999998 -0.92112099999999997
vn -0.79771400000000003 0.38927800000000001 -0.46056000000000002
vn -0.79771400000000003 0.38927800000000001 -0.46056000000000002
vn -0.79771400000000003 0.38927800000000001 0.460559
vn -0.79771400000000003 0.38927800000000001 0.460559
vn 0 0.38927800000000001 0.92112000000000005
vn 0 0.38927800000000001 0.92112000000000005
vn 0.79771400000000003 0.38927699999999998 0.46056000000000002
vn 0.79771400000000003 0.38927699999999998 0.46056000000000002
vn 0.79771400000000003 0.38927699999999998 -0.46056000000000002
vn 0.79771400000000003 0.38927699999999998 -0.46056000000000002
vn 0 0.76853199999999999 -0.63981200000000005
vn 0 0.76853199999999999 -0.63981200000000005
vn 0 0.76853199999999999 -0.63981200000000005
vn 0 0.76853199999999999 -0.63981200000000005
vn -0.55409299999999995 0.76853199999999999 -0.31990600000000002
vn -0.55409299999999995 0.76853199999999999 -0.31990600000000002
vn -0.55409299999999995 0.76853199999999999 -0.31990600000000002
vn -0.55409299999999995 0.76853199999999999 -0.31990600000000002
vn -0.55409299999999995 0.76853199999999999 0.31990600000000002
vn -0.55409299999999995 0.76853199999999999 0.31990600000000002
vn -0.55409299999999995 0.76853199999999999 0.31990600000000002
vn -0.55409299999999995 0.76853199999999999 0.31990600000000002
vn 0 0.76853199999999999 0.63981200000000005
vn 0 0.76853199999999999 0.63981200000000005
vn 0 0.76853199999999999 0.63981200000000005
vn 0 0.76853199999999999 0.63981200000000005
vn 0.55409299999999995 0.76853199999999999 0.31990499999999999
vn 0.55409299999999995 0.76853199999999999 0.31990499999999999
vn 0.55409299999999995 0.76853199999999999 0.31990499999999999
vn 0.55409299999999995 0.76853199999999999 0.31990499999999999
vn 0.55409299999999995 0.76853199999999999 -0.31990600000000002
vn 0.55409299999999995 0.76853199999999999 -0.31990600000000002
vn 0.55409299999999995 0.76853199999999999 -0.31990600000000002
vn 0.55409299999999995 0.76853199999999999 -0.31990600000000002
vn 0.41237800000000002 -0.87935099999999999 -0.23808699999999999
vn 0.41237800000000002 -0.87935099999999999 -0.23808699999999999
vn 0.41237800000000002 -0.87935099999999999 0.23808599999999999
vn 0.41237800000000002 -0.87935099999999999 0.23808599999999999
vn -0 -0.87935200000000002 0.47617300000000001
vn -0 -0.87935200000000002 0.47617300000000001
vn -0.41237800000000002 -0.87935200000000002 0.23808599999999999
vn -0.41237800000000002 -0.87935200000000002 0.23808599999999999
vn -0.41237800000000002 -0.87935200000000002 -0.23808599999999999
vn -0.41237800000000002 -0.87935200000000002 -0.23808599999999999
vn 0 -0.87935200000000002 -0.47617300000000001
vn 0 -0.87935200000000002 -0.47617300000000001
#end 103 normals 

#begin 42 faces
usemtl initialShadingGroup
g polySurface4 pCylinder5
s 1
f 31/31/1 32/32/2 33/33/3 
f 32/32/2 34/34/4 33/33/3 
f 34/67/4 35/35/5 33/69/3 
f 35/48/5 36/36/6 33/45/3 
f 36/36/6 37/37/7 33/45/3 
f 37/59/7 31/47/1 33/60/3 
s 2
f 2/2/8 8/8/9 7/7/10 1/1/11 
s 3
f 3/3/12 9/9/13 8/8/14 2/2/15 
s 4
f 4/4/16 10/10/17 9/68/18 3/73/19 
s 5
f 5/5/20 11/11/21 10/50/22 4/49/23 
s 6
f 6/6/24 12/12/25 11/11/26 5/5/27 
s 7
f 1/44/28 7/46/29 12/64/30 6/61/31 
s 2
f 7/7/10 8/8/9 14/14/32 13/13/33 
s 3
f 8/8/14 9/9/13 15/15/34 14/14/35 
s 4
f 9/68/18 10/10/17 16/16/36 15/71/37 
s 5
f 10/50/22 11/11/21 17/17/38 16/52/39 
s 6
f 11/11/26 12/12/25 18/18/40 17/17/41 
s 7
f 12/64/30 7/46/29 13/51/42 18/65/43 
s 2
f 13/13/33 14/14/32 20/20/44 19/19/45 
s 3
f 14/14/35 15/15/34 21/21/46 20/20/47 
s 4
f 15/71/37 16/16/36 22/22/48 21/72/49 
s 5
f 16/52/39 17/17/38 23/23/50 22/54/51 
s 6
f 17/17/41 18/18/40 24/24/52 23/23/53 
s 7
f 18/65/43 13/51/42 19/53/54 24/66/55 
s 2
f 19/19/45 20/20/44 26/26/56 25/25/57 
s 3
f 20/20/47 21/21/46 27/27/58 26/26/59 
s 4
f 21/72/49 22/22/48 28/28/60 27/70/61 
s 5
f 22/54/51 23/23/50 29/29/62 28/56/63 
s 6
f 23/23/53 24/24/52 30/30/64 29/29/65 
s 7
f 24/66/55 19/53/54 25/55/66 30/62/67 
s off
f 25/25/68 26/26/69 32/32/70 31/31/71 
f 26/26/72 27/27/73 34/34/74 32/32/75 
f 27/70/76 28/28/77 35/35/78 34/67/79 
f 28/56/80 29/29/81 36/36/82 35/48/83 
f 29/29/84 30/30/85 37/37/86 36/36/87 
f 30/62/88 25/55/89 31/47/90 37/59/91 
s 7
f 38/38/92 39/57/93 1/44/28 6/61/31 
s 6
f 40/40/94 38/63/95 6/6/24 5/5/27 
s 5
f 41/41/96 40/40/97 5/5/20 4/49/23 
s 4
f 42/42/98 41/58/99 4/4/16 3/73/19 
s 3
f 43/43/100 42/74/101 3/3/12 2/2/15 
s 2
f 39/39/102 43/43/103 2/2/8 1/1/11 
#end 42 faces
#begin 1 properties
#U3D SYM 0 0 0 1 0 0 0.0001 0
#end 1 properties
