#File written by LIBUNFOLD3D. Compilation :Dec 22 2011,11:53:02
mtllib Shelf.mtl
#begin vertices
v 247.59986900000001 19.254425000000001 242.843231
v 247.59986900000001 6.1416469999999999 242.84324599999999
v 273.067566 20.576561000000002 242.84326200000001
v 247.59986900000001 20.576561000000002 242.84324599999999
v 247.59986900000001 4.852665 242.84324599999999
v 273.067566 4.8526670000000003 241.294342
v 247.59986900000001 4.852665 241.294388
v 247.59986900000001 6.1416469999999999 241.294388
v 247.59986900000001 19.254524 241.294388
v 247.59986900000001 20.576561000000002 241.294388
v 273.067566 20.576567000000001 241.29440299999999
v 247.59986900000001 -5.1199000000000003 241.294388
v 273.067566 -5.1198860000000002 241.294342
v 273.067566 -3.8069320000000002 241.294342
v 247.59986900000001 -3.8069310000000001 241.294388
v 273.067566 -5.1198949999999996 242.84316999999999
v 247.59986900000001 -5.1198959999999998 242.84324599999999
v 247.59986900000001 -3.8069310000000001 242.84324599999999
v 273.067566 4.8526699999999998 217.312714
v 247.59986900000001 4.852665 217.312637
v 247.59986900000001 6.1416469999999999 217.312637
v 247.59986900000001 19.254524 217.312637
v 247.59986900000001 20.576561000000002 217.312637
v 273.067566 20.576567000000001 217.312637
v 247.59986900000001 4.852665 216.113541
v 247.59986900000001 6.1416469999999999 216.11355599999999
v 247.59986900000001 19.254524 216.113541
v 247.59986900000001 20.576561000000002 216.113541
v 273.067566 20.576561000000002 216.113541
v 246.595642 6.1416469999999999 217.312637
v 246.595642 19.254524 217.312637
v 246.595642 6.1416469999999999 241.294388
v 246.595642 19.254524 241.294388
v 247.59986900000001 -3.8069310000000001 216.113541
v 273.067566 -3.8069299999999999 217.312714
v 247.59986900000001 -3.8069310000000001 217.312637
v 273.067566 -5.1198930000000002 216.113663
v 247.59986900000001 -5.1198959999999998 216.113541
v 273.067566 -5.1198839999999999 217.31272899999999
v 247.59986900000001 -5.1198959999999998 217.312637
v 245.18808000000001 9.4093549999999997 239.18483000000001
v 245.18808000000001 9.4093549999999997 240.18483000000001
v 245.18808000000001 15.933311 239.18483000000001
v 245.18808000000001 15.933311 240.18483000000001
v 245.830536 15.933311 239.18483000000001
v 245.830536 15.933311 240.18483000000001
v 245.830536 9.4093549999999997 239.18483000000001
v 245.830536 9.4093549999999997 240.18483000000001
v 245.830536 15.117820999999999 239.18483000000001
v 245.18808000000001 15.117820999999999 239.18483000000001
v 245.18808000000001 15.117820999999999 240.18483000000001
v 245.830536 15.117820999999999 240.18483000000001
v 245.18808000000001 10.22485 239.18483000000001
v 245.830536 10.22485 239.18483000000001
v 245.830536 10.22485 240.18483000000001
v 245.18808000000001 10.22485 240.18483000000001
v 246.663422 10.22485 239.18483000000001
v 246.663422 10.22485 240.18483000000001
v 246.663422 9.4093549999999997 240.18483000000001
v 246.663422 9.4093549999999997 239.18483000000001
v 246.663422 15.933311 239.18483000000001
v 246.663422 15.933311 240.18483000000001
v 246.663422 15.117820999999999 240.18483000000001
v 246.663422 15.117820999999999 239.18483000000001
v 273.067566 4.8526579999999999 242.84314000000001
v 273.067566 -3.80694 242.84307899999999
v 273.067566 4.8526639999999999 216.11369300000001
v 273.067566 -3.8069359999999999 216.11376999999999
v 273.067566 6.1416409999999999 242.843155
v 273.067566 6.1418499999999998 216.11367799999999
v 273.067566 19.254524 216.11355599999999
v 273.067566 19.254325999999999 242.84324599999999
v 273.067566 19.254337 241.29440299999999
v 273.067566 6.1416529999999998 241.294342
v 273.067566 19.254515000000001 217.31265300000001
v 273.067566 6.1418410000000003 217.31269800000001
#end vertices

#begin 196 textures vertices 
vt 0.25569229356778855 0.23421863266715076 0
vt 0.25569243032149946 0.11467055912551226 0
vt 0.42892968803909509 0.34786090035677403 0
vt 0.2556924303214983 0.2462724333003995 0
vt 0.25569243032152855 0.1029190206696778 0
vt 0.50924234214598618 0.77783753165559755 0
vt 0.24157162463950224 0.10291902066967192 0
vt 0.2415716246394731 0.1146705591255084 0
vt 0.24157162463947657 0.23421953524166356 0
vt 0.24157162463947437 0.24627243330039431 0
vt 0.41988552917941152 0.33701651927209253 0
vt 0.62605452706705045 0.21349581297922224 0
vt 0.82984589962339095 0.32476032624453582 0
vt 0.24418681151294624 0.50499937155640451 0
vt 0.74142915365893158 0.69888871863176616 0
vt 0.24418681151729543 0.2584997130967962 0
vt 0.25569243032151573 0.012000036467658428 0
vt 0.25569243032151573 0.023970225879665533 0
vt 0.89164874179279785 0.74940599122644214 0
vt 0.98783117293962841 0.53807767939967321 0
vt 0.022932055495157793 0.11467055912550791 0
vt 0.022932055495156062 0.23421953524166317 0
vt 0.022932055495156346 0.24627243330039378 0
vt 0.27985025066923724 0.16910749102237893 0
vt 0.012000000000015382 0.10291902066967321 0
vt 0.012000136753730255 0.11467055912550791 0
vt 0.012000000000013672 0.23421953524166317 0
vt 0.01200000000001396 0.24627243330039411 0
vt 0.49701507145046486 0.53914672623397786 0
vt 0.26062117107299332 0.36008817106528213 0
vt 0.26062117107299343 0.47963714718143741 0
vt 0.47926074021732179 0.36008817106528174 0
vt 0.47926074021732229 0.47963714718143663 0
vt 0.012000000000002745 0.023970225879674966 0
vt 0.49280798258662134 0.6236405284358455 0
vt 0.26062117107299332 0.62364051931893127 0
vt 0.9398568386326529 0.12326585759219132 0
vt 0.73606620004519341 0.012000000000000455 0
vt 0.93461828344528886 0.13286072064397891 0
vt 0.73082751379206312 0.021595103109927891 0
vt 0.33398479532404179 0.80599274142453237 0
vt 0.34310170964544845 0.80599274142453237 0
vt 0.42772720408926712 0.81253088626506642 0
vt 0.43408099262667588 0.80599272918789444 0
vt 0.43192768233243933 0.81661291583365547 0
vt 0.43828147086984826 0.81007475875648349 0
vt 0.017857152556041481 0.80835999680658999 0
vt 0.017899688918936403 0.81747681189749266 0
vt 0.37010844394539383 0.85803633328418549 0
vt 0.37596566025266742 0.85803633328418583 0
vt 0.39512114886658201 0.85803632920529793 0
vt 0.40097836517385615 0.85803632920529926 0
vt 0.33398479532404035 0.81342753946906887 0
vt 0.37010844394539189 0.81342753590005235 0
vt 0.40097836517385382 0.813427531821171 0
vt 0.34310170964544773 0.81342753946906832 0
vt 0.36251509364389201 0.81342753590004924 0
vt 0.3054544970041887 0.80599274499355178 0
vt 0.40857171547535703 0.80599273377663927 0
vt 0.025450420209843658 0.80832456886544379 0
vt 0.43737322182781768 0.82190489735342376 0
vt 0.44372701036522594 0.81536674027625156 0
vt 0.40857171547535703 0.8580363292053006 0
vt 0.31457141132559607 0.8657882429806828 0
vt 0.97387974133282784 0.67187985027691843 0
vt 0.24418681152126914 0.27046981136841081 0
vt 0.95627983922945636 0.73456547096176039 0
vt 0.95627913722727498 0.65561663970410788 0
vt 0.97387960457911404 0.68363139784966953 0
vt 0.49701507144479434 0.40754670278674976 0
vt 0.49701507144993201 0.5270938281744717 0
vt 0.2441868115128113 0.48071739763924765 0
vt 0.9879994438682248 0.80317872380433164 0
vt 0.9879999999999961 0.6836315072526411 0
vt 0.23063956002741412 0.73586783421963564 0
vt 0.47926032083926301 0.4918661318698378 0
vt 0.98799999999999533 0.67187993232914767 0
vt 0.47925961883686075 0.79376545254275976 0
vt 0.012000000000000519 0.77211822886653636 0
vt 0.47925961883686063 0.71481663040201382 0
vt 0.94534846750288937 0.73456552566322475 0
vt 0.26062117107299332 0.79376547989350299 0
vt 0.23063844776386891 0.77211824710036292 0
vt 0.26062117107299376 0.71481664863584249 0
vt 0.012000000000000455 0.76014813974058726 0
vt 0.95628122500066048 0.87791889270937384 0
vt 0.95628011273714553 0.64364652322741556 0
vt 0.97387946782540358 0.58096093901022416 0
vt 0.23063970589804342 0.7479208690320811 0
vt 0.97387862906928424 0.81523332672604099 0
vt 0.49701507144395662 0.3957933044795956 0
vt 0.98799944386822525 0.81523338142752644 0
vt 0.94534833074943259 0.64364660527960948 0
vt 0.97388029746460625 0.59293103725308771 0
vt 0.95628108824691938 0.86586599465064318 0
vt 0.95627997598316727 0.74631886926810165 0
vt 0.24418681151772856 0.34941862439420873 0
vt 0.24418681151708183 0.36117017196775641 0
vt 0.49701507143747825 0.31684447321881415 0
vt 0.97387877493991282 0.80317862351827463 0
vt 0.72920188296002575 0.40754485204953289 0
vt 0.72920188295943134 0.31684451880289727 0
vt 0.7292018829606588 0.39579331359290065 0
vt 0.72920188296253841 0.52709382816576567 0
vt 0.72920188296303123 0.53914672622449633 0
vt 0.27284844178150114 0.16071198569801123 0
vt 0.49701507144417556 0.30487435670237195 0
vt 0.72920188295940591 0.30487432939089065 0
vt 0.82307928214466752 0.33715396641993223 0
vt 0.012000000000196867 0.48071830020844819 0
vt 0.01200000000371349 0.25849970400890193 0
vt 0.012000000003152305 0.34941868821090477 0
vt 0.012000000003024754 0.3611702266667397 0
vt 0.59819825871312782 0.18830442855103643 0
vt 0.012000000003730592 0.27046989342090866 0
vt 0.60724241173349991 0.19914880263411047 0
vt 0.012000000000000455 0.49277210084247225 0
vt 0.24418681151262006 0.49277210084789663 0
vt 0.45816306779156191 0.020395505324258909 0
vt 0.45116125890390896 0.012000000000000455 0
vt 0.47256053002046261 0.80643884214379313 0
vt 0.2860796502025808 0.80599274856257186 0
vt 0.92774117900182129 0.79544711466872087 0
vt 0.24839390036448566 0.92554172671816604 0
vt 0.25754935188272998 0.92554172671816604 0
vt 0.25754935188272965 0.80599275060201092 0
vt 0.27692419868433776 0.92554172467873275 0
vt 0.70895443038494743 0.7910377929771033 0
vt 0.61928777852255668 0.22588969321288904 0
vt 0.24157162463948775 0.012000000000000455 0
vt 0.022932055495142854 0.012000036467666288 0
vt 0.012000000000000455 0.0120000364676683 0
vt 0.78883281327777011 0.44750773931187421 0
vt 0.74142915365893158 0.77783751342176921 0
vt 0.012000000000000455 0.50499937155640495 0
vt 0.24157162463948872 0.023970225879664537 0
vt 0.69265140277360382 0.65883651566279511 0
vt 0.50924234214598618 0.69888870951485138 0
vt 0.022932055495158025 0.10291902066967124 0
vt 0.26062117107299332 0.70258931410893399 0
vt 0.022932055495145234 0.023970225879673041 0
vt 0.01200039490889885 0.72363894070037693 0
vt 0.49280798258662173 0.70258935969350589 0
vt 0.24418720641981917 0.72363781931991566 0
vt 0.37596566025266692 0.86547108574415044 0
vt 0.3431017096454485 0.86547108931316419 0
vt 0.37010844394539288 0.86547108574414977 0
vt 0.36251509364389295 0.86547108574414888 0
vt 0.40097836517385538 0.86547108166526387 0
vt 0.40857171547535548 0.86547108166526543 0
vt 0.37596566025266664 0.80599273785551739 0
vt 0.33398479532404096 0.86547108931316474 0
vt 0.01204253636289551 0.81750413963905266 0
vt 0.33398479532404057 0.85803633685319958 0
vt 0.39512114886658073 0.86547108166526243 0
vt 0.37596566025266587 0.81342753590005235 0
vt 0.39512114886657956 0.81342753182117 0
vt 0.34310170964544845 0.85803633685319913 0
vt 0.40097836517385615 0.80599273377663561 0
vt 0.39512114886658112 0.80599273377663361 0
vt 0.30545449700418892 0.85819489267918325 0
vt 0.30545449700418892 0.81358609529505166 0
vt 0.3054544970041887 0.86578824298068269 0
vt 0.40857171547535354 0.81342753182117555 0
vt 0.025492956572738576 0.8174413839563468 0
vt 0.37010844394539394 0.80599273785551462 0
vt 0.012000000000000455 0.80838732454814977 0
vt 0.31457141132559646 0.85819489267918325 0
vt 0.31457141132559607 0.80599274499355167 0
vt 0.31457141132559646 0.81358609529505166 0
vt 0.36251509364389434 0.80599273785551284 0
vt 0.36251509364389412 0.8580363332841846 0
vt 0.69134810567565852 0.81080693406631676 0
vt 0.69114772858492124 0.80165367554683709 0
vt 0.24839390036448544 0.80599275060201114 0
vt 0.92754252681809513 0.78629381855132052 0
vt 0.70915308256866949 0.80019108909450365 0
vt 0.2769241986843371 0.80599274856257119 0
vt 0.28607965020258153 0.92554172467873308 0
vt 0.47276090711119817 0.8155921006632727 0
vt 0.26062117107299332 0.61141163444163649 0
vt 0.26062172720476673 0.49186441788994534 0
vt 0.47926073110040734 0.61141325725238549 0
vt 0.23063859363450365 0.79609878847843007 0
vt 0.012000000000000455 0.79609707449853773 0
vt 0.012000000000000455 0.78434549957504418 0
vt 0.94534861337351284 0.74631878721588474 0
vt 0.23063844776387438 0.7843455269257873 0
vt 0.94534902363486206 0.86586591259843837 0
vt 0.94534846750310864 0.65561669440555892 0
vt 0.98800000000000032 0.58096102106245362 0
vt 0.23063831101015411 0.7601481579744136 0
vt 0.98799999999999999 0.59293111018840294 0
vt 0.012000000000000503 0.74792086903207944 0
vt 0.012000000000000455 0.73586621140888475 0
vt 0.94534916950551773 0.87791894741088372 0
#end 196 textures vertices 

#begin 194 normals 
vn 0 -1 -1.9999999999999999e-006
vn 0 -1 -1.9999999999999999e-006
vn 0 -1 -1.9999999999999999e-006
vn 0 -1 -1.9999999999999999e-006
vn -1 0 0
vn -1 0 0
vn -1 0 0
vn -1 0 0
vn -1 0 0
vn -1 0 0
vn -1 0 0
vn -1 0 0
vn -0 1 0
vn -0 1 0
vn -0 1 3.0000000000000001e-006
vn -0 1 3.0000000000000001e-006
vn -1.9999999999999999e-006 0 -1
vn -1.9999999999999999e-006 0 -1
vn -1.9999999999999999e-006 0 -1
vn -1.9999999999999999e-006 0 -1
vn -1 0 0
vn -1 0 0
vn -1 0 0
vn -1 0 0
vn 0 -1 -0
vn 0 -1 -0
vn 0 -1 -0
vn 0 -1 -0
vn -1 0 0
vn -1 0 0
vn -1 0 0
vn -1 0 0
vn -1 0 0
vn -1 0 0
vn -1 0 0
vn -1 0 0
vn -0 1 -0
vn -0 1 -0
vn -1 0 0
vn -1 0 0
vn -1 0 0
vn -1 0 0
vn -0 1 -3.9999999999999998e-006
vn -0 1 -3.9999999999999998e-006
vn 0 0 -1
vn 0 0 -1
vn 0 0 -1
vn 0 0 -1
vn 0 -1 0
vn 0 -1 0
vn 0 -1 0
vn 0 -1 0
vn 0 0 1
vn 0 0 1
vn 0 0 1
vn 0 0 1
vn 0 1 0
vn 0 1 0
vn 0 1 0
vn 0 1 0
vn -3.0000000000000001e-006 0 1
vn -3.0000000000000001e-006 0 1
vn -3.0000000000000001e-006 0 1
vn -3.0000000000000001e-006 0 1
vn -1 0 0
vn -1 0 0
vn 0 -1 3.0000000000000001e-006
vn 0 -1 3.0000000000000001e-006
vn 0 -1 0
vn 0 -1 0
vn -1 0 0
vn -1 0 0
vn -1 0 0
vn -1 0 0
vn 0 -1 -0
vn 0 -1 -0
vn -1 0 0
vn -1 0 0
vn 0 1 0
vn 0 1 0
vn 0 1 0
vn 0 1 0
vn -1 0 0
vn -1 0 0
vn -1 0 0
vn -1 0 0
vn 0 1 0
vn 0 1 0
vn 0 1 0
vn 0 1 0
vn 0 -1 0
vn 0 -1 0
vn 0 -1 0
vn 0 -1 0
vn 0 0 1
vn 0 0 1
vn 0 0 1
vn 0 0 1
vn 0 0 -1
vn 0 0 -1
vn 0 0 -1
vn 0 0 -1
vn 0 0 -1
vn 0 0 -1
vn 0 0 -1
vn 0 0 -1
vn 0 0 1
vn 0 0 1
vn 0 0 1
vn 0 0 1
vn -1 0 0
vn -1 0 0
vn -1 0 0
vn -1 0 0
vn 1 0 0
vn 1 0 0
vn 1 0 0
vn 1 0 0
vn 0 1 0
vn 0 1 0
vn 0 1 0
vn 0 1 0
vn 0 0 1
vn 0 0 1
vn 0 -1 0
vn 0 -1 0
vn 0 0 -1
vn 0 0 -1
vn 0 1 0
vn 0 1 0
vn 0 0 1
vn 0 0 1
vn 0 -1 0
vn 0 -1 0
vn 0 -1 0
vn 0 -1 0
vn 0 0 -1
vn 0 0 -1
vn 3.9999999999999998e-006 1.9999999999999999e-006 1
vn 3.9999999999999998e-006 1.9999999999999999e-006 1
vn 5.0000000000000004e-006 3.4999999999999997e-005 1
vn 5.0000000000000004e-006 3.4999999999999997e-005 1
vn 3.0000000000000001e-006 -5.0000000000000004e-006 -1
vn 3.0000000000000001e-006 -5.0000000000000004e-006 -1
vn 3.0000000000000001e-006 -5.0000000000000004e-006 -1
vn 3.0000000000000001e-006 -5.0000000000000004e-006 -1
vn -1 0 0
vn -1 0 0
vn -1 0 0
vn -1 0 0
vn -1 -1.0000000000000001e-005 0
vn -1 0 0
vn -1 0 0
vn -1 9.9999999999999995e-007 0
vn -1 0 0
vn -1 0 0
vn -1 0 0
vn -1 -9.9999999999999995e-007 0
vn -1 0 0
vn -1 0 0
vn -1 0 0
vn -1 -1.1e-005 0
vn -1 0 0
vn -1 0 0
vn 1.9999999999999999e-006 -3.0000000000000001e-006 1
vn 1.9999999999999999e-006 -3.0000000000000001e-006 1
vn 9.9999999999999995e-007 -3.9999999999999998e-006 1
vn 9.9999999999999995e-007 -3.9999999999999998e-006 1
vn 3.9999999999999998e-006 -3.9999999999999998e-006 1
vn 3.9999999999999998e-006 -3.9999999999999998e-006 1
vn 7.9999999999999996e-006 -3.9999999999999998e-006 -1
vn 7.9999999999999996e-006 -3.9999999999999998e-006 -1
vn 7.9999999999999996e-006 1.9999999999999999e-006 -1
vn 7.9999999999999996e-006 1.9999999999999999e-006 -1
vn 6.0000000000000002e-006 4.1e-005 -1
vn 6.0000000000000002e-006 4.1e-005 -1
vn -1 -9.9999999999999995e-007 0
vn -1 -0 0
vn -1 -1.9999999999999999e-006 0
vn -1 -1.5e-005 0
vn 0 -6.0000000000000002e-006 -1
vn 0 -6.0000000000000002e-006 -1
vn -1.9999999999999999e-006 -1.2e-005 1
vn -1.9999999999999999e-006 -1.2e-005 1
vn -1 0 0
vn -1 0 0
vn -1 -9.9999999999999995e-007 0
vn -1 0 0
vn -1 1.9999999999999999e-006 0
vn -1 1.9999999999999999e-006 0
vn -1 0 0
vn -1 0 0
vn -1 0 0
vn -1 0 0
#end 194 normals 

#begin 73 faces
usemtl initialShadingGroup
g Shelf
s off
f 12/12/1 13/13/2 16/109/3 17/129/4 
s 1
f 8/8/5 7/7/6 5/5/7 2/2/8 
f 9/9/9 8/8/5 2/2/8 1/1/10 
f 10/10/11 9/9/9 1/1/10 4/4/12 
s 2
f 11/11/13 10/114/14 4/116/15 3/3/16 
s off
f 7/134/17 6/6/18 14/138/19 15/15/20 
s 1
f 5/5/7 7/7/6 15/136/21 18/18/22 
f 18/18/22 15/136/21 12/130/23 17/17/24 
s off
f 20/20/25 19/19/26 6/137/27 7/133/28 
s 1
f 21/21/29 20/139/30 7/7/6 8/8/5 
s off
f 31/31/31 30/30/32 32/32/33 33/33/34 
s 1
f 23/23/35 22/22/36 9/9/9 10/10/11 
s 2
f 24/24/37 23/119/38 10/114/14 11/11/13 
s 1
f 26/26/39 25/25/40 20/139/30 21/21/29 
f 27/27/41 26/26/39 21/21/29 22/22/36 
f 28/28/42 27/27/41 22/22/36 23/23/35 
s 2
f 29/106/43 28/120/44 23/119/38 24/24/37 
s off
f 22/124/45 21/175/46 30/126/47 31/125/48 
f 21/123/49 8/177/50 32/128/51 30/176/52 
f 8/122/53 9/179/54 33/127/55 32/178/56 
f 9/121/57 22/174/58 31/173/59 33/180/60 
f 19/143/61 20/140/62 36/36/63 35/35/64 
s 1
f 20/139/30 25/25/40 34/34/65 36/141/66 
s 3
f 38/38/67 37/37/68 39/39/69 40/40/70 
s 4
f 34/34/71 38/132/72 40/131/73 36/141/74 
s 3
f 40/40/70 39/39/69 13/13/75 12/12/76 
s 4
f 36/141/74 40/131/73 12/130/77 15/136/78 
s off
f 35/144/79 36/142/80 15/135/81 14/14/82 
s 5
f 41/41/83 42/42/84 56/56/85 53/53/86 
s 6
f 43/43/87 44/44/88 46/46/89 45/45/90 
s 7
f 47/47/91 48/48/92 42/153/93 41/167/94 
s 8
f 42/160/95 48/159/96 55/55/97 56/157/98 
s 9
f 47/166/99 41/151/100 53/156/101 54/54/102 
f 49/49/103 50/50/104 43/145/105 45/147/106 
s 8
f 51/51/107 52/52/108 46/149/109 44/155/110 
s 5
f 50/154/111 51/158/112 44/146/113 43/152/114 
s 9
f 54/54/102 53/156/101 50/50/104 49/49/103 
s off
f 55/162/115 54/170/116 49/168/117 52/161/118 
s 8
f 51/51/107 56/157/98 55/55/97 52/52/108 
s 5
f 50/154/111 53/53/86 56/56/85 51/158/112 
s off
f 54/170/119 55/162/120 58/58/121 57/169/122 
s 8
f 55/55/97 48/159/96 59/59/123 58/164/124 
s 7
f 48/48/92 47/47/91 60/60/125 59/165/126 
s 9
f 47/166/99 54/54/102 57/57/127 60/171/128 
s 6
f 45/45/90 46/46/89 62/62/129 61/61/130 
s 8
f 46/149/109 52/52/108 63/63/131 62/150/132 
s off
f 52/161/133 49/168/134 64/64/135 63/163/136 
s 9
f 49/49/103 45/147/106 61/148/137 64/172/138 
s 10
f 66/66/139 18/115/140 17/111/141 16/16/142 
s 11
f 27/104/143 71/71/144 70/70/145 26/101/146 
s off
f 14/79/147 35/83/148 39/192/149 13/85/150 
s 12
f 6/77/151 14/193/152 66/94/153 65/65/154 
f 14/193/152 13/191/155 16/88/156 66/94/153 
f 69/69/157 74/74/158 6/77/151 65/65/154 
f 67/67/159 68/68/160 35/190/161 19/81/162 
f 68/68/160 37/87/163 39/93/164 35/190/161 
s 10
f 2/113/165 69/98/166 72/72/167 1/110/168 
f 65/97/169 5/112/170 18/115/140 66/66/139 
s 11
f 25/103/171 67/91/172 68/99/173 34/102/174 
f 34/102/174 68/99/173 37/107/175 38/108/176 
s 10
f 2/113/165 5/112/170 65/97/169 69/98/166 
s 12
f 11/92/177 73/73/178 72/100/179 3/90/180 
s 11
f 26/101/146 70/70/145 67/91/172 25/103/171 
f 29/29/181 71/71/144 27/104/143 28/105/182 
s 12
f 72/100/179 73/73/178 74/74/158 69/69/157 
s 10
f 1/110/168 72/72/167 3/118/183 4/117/184 
s 12
f 11/194/177 24/89/185 75/75/186 73/195/178 
f 74/182/158 73/181/178 75/183/186 76/76/187 
f 6/186/151 74/185/158 76/184/187 19/188/162 
f 75/189/186 24/196/185 29/86/188 71/95/189 
f 76/187/187 75/189/186 71/95/189 70/96/190 
f 19/81/162 76/187/187 70/96/190 67/67/159 
s off
f 6/78/191 19/82/192 35/84/193 14/80/194 
#end 73 faces
#begin 1 properties
#U3D SYM 0 0 0 1 0 0 0.0001 1
#end 1 properties
