#File written by LIBUNFOLD3D. Compilation :Dec 22 2011,11:53:02
mtllib Sink.mtl
#begin vertices
v 267.630493 28.971464000000001 264.774475
v 267.319885 28.971464000000001 265.52417000000003
v 266.57028200000002 28.971465999999999 265.834656
v 265.82070900000002 28.971468000000002 265.52417000000003
v 265.51007099999998 28.97147 264.774475
v 265.82070900000002 28.971468000000002 264.024902
v 266.57028200000002 28.971465999999999 263.71435500000001
v 267.319885 28.971464000000001 264.024902
v 269.96124300000002 21.979565000000001 264.774475
v 270.27185100000003 21.979565000000001 265.52417000000003
v 271.02145400000001 21.979565000000001 265.834656
v 271.77105699999998 21.979565000000001 265.52417000000003
v 272.08166499999999 21.979565000000001 264.774475
v 271.77105699999998 21.979565000000001 264.024902
v 271.02145400000001 21.979565000000001 263.71435500000001
v 270.27185100000003 21.979565000000001 264.024902
v 269.53387500000002 30.249701000000002 265.52417000000003
v 269.37857100000002 29.980710999999999 264.774475
v 269.53387500000002 30.249701000000002 264.024902
v 269.908661 30.898869000000001 263.71435500000001
v 270.283478 31.548037999999998 264.024902
v 270.438782 31.817045 264.774475
v 270.283478 31.548037999999998 265.52417000000003
v 269.908661 30.898869000000001 265.834656
v 270.27185100000003 26.640829 265.52417000000003
v 269.96124300000002 26.640829 264.774475
v 270.27185100000003 26.640829 264.024902
v 271.02145400000001 26.640829 263.71435500000001
v 271.77105699999998 26.640829 264.024902
v 272.08166499999999 26.640829 264.774475
v 271.77105699999998 26.640829 265.52417000000003
v 271.02145400000001 26.640829 265.834656
v 267.66519199999999 29.920207999999999 264.024902
v 267.09097300000002 30.40204 263.71435500000001
v 266.51675399999999 30.883869000000001 264.024902
v 266.27880900000002 31.083539999999999 264.774475
v 266.51675399999999 30.883869000000001 265.52417000000003
v 267.09097300000002 30.40204 265.834656
v 267.66519199999999 29.920207999999999 265.52417000000003
v 267.90313700000002 29.720555999999998 264.774475
v 268.539581 30.425021999999998 264.024902
v 268.409424 31.163229000000001 263.71435500000001
v 268.27923600000003 31.901437999999999 264.024902
v 268.22531099999998 32.207343999999999 264.774475
v 268.27923600000003 31.901437999999999 265.52417000000003
v 268.409424 31.163229000000001 265.834656
v 268.539581 30.425021999999998 265.52417000000003
v 268.59350599999999 30.119139000000001 264.774475
v 270.18283100000002 29.476275999999999 264.024902
v 270.88723800000002 29.732652999999999 263.71435500000001
v 271.59161399999999 29.989031000000001 264.024902
v 271.88351399999999 30.095269999999999 264.774475
v 271.59161399999999 29.989031000000001 265.52417000000003
v 270.88723800000002 29.732652999999999 265.834656
v 270.18283100000002 29.476275999999999 265.52417000000003
v 269.890961 29.370045000000001 264.774475
v 270.27185100000003 28.194583999999999 264.024902
v 271.02145400000001 28.194583999999999 263.71435500000001
v 271.77105699999998 28.194583999999999 264.024902
v 272.08166499999999 28.194583999999999 264.774475
v 271.77105699999998 28.194583999999999 265.52417000000003
v 271.02145400000001 28.194583999999999 265.834656
v 270.27185100000003 28.194583999999999 265.52417000000003
v 269.96124300000002 28.194583999999999 264.774475
v 270.27185100000003 25.087074000000001 265.52417000000003
v 269.96124300000002 25.087074000000001 264.774475
v 270.27185100000003 25.087074000000001 264.024902
v 271.02145400000001 25.087074000000001 263.71435500000001
v 271.77105699999998 25.087074000000001 264.024902
v 272.08166499999999 25.087074000000001 264.774475
v 271.77105699999998 25.087074000000001 265.52417000000003
v 271.02145400000001 25.087074000000001 265.834656
v 270.27185100000003 23.533318999999999 265.52417000000003
v 269.96124300000002 23.533318999999999 264.774475
v 270.27185100000003 23.533318999999999 264.024902
v 271.02145400000001 23.533318999999999 263.71435500000001
v 271.77105699999998 23.533318999999999 264.024902
v 272.08166499999999 23.533318999999999 264.774475
v 271.77105699999998 23.533318999999999 265.52417000000003
v 271.02145400000001 23.533318999999999 265.834656
v 267.466858 30.756653 263.71435500000001
v 267.019226 31.357924000000001 264.024902
v 266.83373999999998 31.607081999999998 264.774475
v 267.019226 31.357924000000001 265.52417000000003
v 267.466858 30.756653 265.834656
v 267.91449 30.155381999999999 265.52417000000003
v 268.09994499999999 29.90624 264.774475
v 267.91449 30.155381999999999 264.024902
v 267.91436800000002 31.015025999999999 263.71435500000001
v 267.61746199999999 31.703317999999999 264.024902
v 267.49444599999998 31.988538999999999 264.774475
v 267.61746199999999 31.703317999999999 265.52417000000003
v 267.91436800000002 31.015025999999999 265.834656
v 268.21127300000001 30.326734999999999 265.52417000000003
v 268.33429000000001 30.041533999999999 264.774475
v 268.21127300000001 30.326734999999999 264.024902
v 266.63028000000003 29.484719999999999 263.71435500000001
v 265.90090900000001 29.657591 264.024902
v 265.59863300000001 29.729227000000002 264.774475
v 265.90090900000001 29.657591 265.52417000000003
v 266.63028000000003 29.484719999999999 265.834656
v 267.35968000000003 29.31185 265.52417000000003
v 267.66189600000001 29.240220999999998 264.774475
v 267.35968000000003 29.31185 264.024902
v 266.80703699999998 29.970303999999999 263.71435500000001
v 266.13717700000001 30.306725 264.024902
v 265.85958900000003 30.446135000000002 264.774475
v 266.13717700000001 30.306725 265.52417000000003
v 266.80703699999998 29.970303999999999 265.834656
v 267.47689800000001 29.633883999999998 265.52417000000003
v 267.754456 29.494485999999998 264.774475
v 267.47689800000001 29.633883999999998 264.024902
v 268.92529300000001 31.193275 263.71435500000001
v 268.96887199999998 31.941603000000001 264.024902
v 268.98693800000001 32.251700999999997 264.774475
v 268.96887199999998 31.941603000000001 265.52417000000003
v 268.92529300000001 31.193275 265.834656
v 268.88168300000001 30.444948 265.52417000000003
v 268.86364700000001 30.134871 264.774475
v 268.88168300000001 30.444948 264.024902
v 269.43417399999998 31.103543999999999 263.71435500000001
v 269.64917000000003 31.821648 264.024902
v 269.73825099999999 32.119225 264.774475
v 269.64917000000003 31.821648 265.52417000000003
v 269.43417399999998 31.103543999999999 265.834656
v 269.219177 30.385439000000002 265.52417000000003
v 269.13009599999998 30.087885 264.774475
v 269.219177 30.385439000000002 264.024902
v 270.323151 30.590288000000001 263.71435500000001
v 270.83755500000001 31.135522999999999 264.024902
v 271.05072000000001 31.361464000000002 264.774475
v 270.83755500000001 31.135522999999999 265.52417000000003
v 270.323151 30.590288000000001 265.834656
v 269.80874599999999 30.045051999999998 265.52417000000003
v 269.59561200000002 29.819127999999999 264.774475
v 269.80874599999999 30.045051999999998 264.024902
v 270.65533399999998 30.194437000000001 263.71435500000001
v 271.281586 30.606344 264.024902
v 271.54110700000001 30.777037 264.774475
v 271.281586 30.606344 265.52417000000003
v 270.65533399999998 30.194437000000001 265.834656
v 270.02905299999998 29.782526000000001 265.52417000000003
v 269.76953099999997 29.611848999999999 264.774475
v 270.02905299999998 29.782526000000001 264.024902
v 269.57644699999997 21.979565000000001 264.774475
v 269.99969499999997 21.979565000000001 265.79626500000001
v 271.02145400000001 21.979565000000001 266.21954299999999
v 272.04321299999998 21.979565000000001 265.79626500000001
v 272.46646099999998 21.979565000000001 264.774475
v 272.04321299999998 21.979565000000001 263.75271600000002
v 271.02145400000001 21.979565000000001 263.32946800000002
v 269.99969499999997 21.979565000000001 263.75271600000002
v 269.57644699999997 20.605848000000002 264.774475
v 269.99969499999997 20.605848000000002 265.79626500000001
v 271.02145400000001 20.605848000000002 266.21954299999999
v 272.04321299999998 20.605848000000002 265.79626500000001
v 272.46646099999998 20.605848000000002 264.774475
v 272.04321299999998 20.605848000000002 263.75271600000002
v 271.02145400000001 20.605848000000002 263.32946800000002
v 269.99969499999997 20.605848000000002 263.75271600000002
v 266.570312 28.971468000000002 264.774475
v 273.36480699999998 20.337122000000001 278.47644000000003
v 273.06924400000003 20.576778000000001 278.44915800000001
v 273.098816 20.616019999999999 264.77453600000001
v 273.36480699999998 20.339001 264.77459700000003
v 273.067566 20.576561000000002 250.710342
v 273.36480699999998 20.337160000000001 250.68135100000001
v 258.87393200000002 20.259340000000002 250.39830000000001
v 258.67742900000002 20.467421999999999 250.73381000000001
v 245.063568 20.559113 278.39593500000001
v 244.76239000000001 20.317314 278.47869900000001
v 244.75993299999999 20.33942 264.76715100000001
v 245.02555799999999 20.616861 264.76721199999997
v 258.68249500000002 20.468433000000001 278.418701
v 258.87661700000001 20.259326999999999 278.75195300000001
v 265.665344 19.616282999999999 252.89022800000001
v 265.67446899999999 19.617725 276.262451
v 244.757385 20.317336999999998 250.66416899999999
v 245.05744899999999 20.559346999999999 250.74565100000001
v 250.064178 19.628105000000001 252.861954
v 257.75903299999999 19.662047999999999 252.55908199999999
v 250.07470699999999 19.626522000000001 276.28460699999999
v 257.76043700000002 19.662009999999999 276.59082000000001
v 246.14773600000001 20.604958 264.76739500000002
v 265.33444200000002 15.917137 253.17480499999999
v 250.387024 15.920491999999999 253.170151
v 257.67306500000001 15.919403000000001 252.94703699999999
v 257.67309599999999 15.623310999999999 253.20297199999999
v 250.39077800000001 15.917142999999999 275.97680700000001
v 265.33560199999999 15.920491999999999 275.978455
v 257.67431599999998 15.623310999999999 275.94702100000001
v 257.67431599999998 15.919404999999999 276.20294200000001
v 269.117096 14.906729 264.77368200000001
v 246.607269 14.905931000000001 264.76617399999998
v 257.671539 13.448893999999999 264.770691
v 273.36480699999998 -5.1371099999999998 278.478027
v 273.36480699999998 -5.1371099999999998 264.77459700000003
v 273.36480699999998 -5.1371099999999998 250.67974899999999
v 244.76239000000001 -5.1371099999999998 278.47247299999998
v 258.87545799999998 -5.1371099999999998 278.75195300000001
v 244.75993299999999 -5.1371099999999998 264.76715100000001
v 258.87283300000001 -5.1371099999999998 250.39830000000001
v 244.757385 -5.1371099999999998 250.670502
#end vertices

#begin 277 textures vertices 
vt 0.3297240252155898 0.83793594718507791 0
vt 0.32813565293404856 0.8443961406722672 0
vt 0.32393985229716393 0.84870581722684502 0
vt 0.31839284454201311 0.85114785302561857 0
vt 0.51469059009636209 0.87851477036973102 0
vt 0.50827225900343875 0.87782841421171853 0
vt 0.50276121715539324 0.87530851869260007 0
vt 0.49863343817534828 0.87093448924274197 0
vt 0.37674033473057844 0.7699462374999696 0
vt 0.38472030394940587 0.77035275213050136 0
vt 0.39299818608756831 0.77197172110620427 0
vt 0.40085217120367872 0.77482910873801447 0
vt 0.40765004949587552 0.77848182711514291 0
vt 0.42587326377577744 0.80124463926800882 0
vt 0.43364926983923685 0.79823056767837175 0
vt 0.44159443864031006 0.79564764552815892 0
vt 0.35648771577106125 0.84496202451471802 0
vt 0.35221871109367558 0.83869909395760456 0
vt 0.47027103986012098 0.87107791174932991 0
vt 0.46576704959082516 0.87752233947169622 0
vt 0.46135763589971907 0.88385168447251561 0
vt 0.45708975795104495 0.89005849460723951 0
vt 0.36521356239433239 0.85785996308373613 0
vt 0.36089832439480601 0.85146811305963244 0
vt 0.37285226223434476 0.81186905572804546 0
vt 0.36571278555059278 0.80958002544214402 0
vt 0.45433736059992474 0.83772014965114439 0
vt 0.44719745793645904 0.83987880859420461 0
vt 0.44003693181121512 0.84207052280571082 0
vt 0.43287143487101704 0.84432892332222709 0
vt 0.38709491586451988 0.816317479334847 0
vt 0.37996003786311672 0.81408274349951226 0
vt 0.49000761106161744 0.87476181692666266 0
vt 0.49232614196320784 0.88231960179393454 0
vt 0.49546722843611668 0.88938593790230858 0
vt 0.49855294771301495 0.89621844876431511 0
vt 0.33102286844063888 0.86289299844739842 0
vt 0.33426901296017431 0.85587712124267634 0
vt 0.33670427633130218 0.84836038783348855 0
vt 0.33774784068574948 0.84077658778842601 0
vt 0.47989345212041434 0.87517092454776046 0
vt 0.47869741514533742 0.88295828377433694 0
vt 0.47764972190768579 0.8906004454545533 0
vt 0.47655910256895934 0.89803845210138422 0
vt 0.34882180686941999 0.86437249405571404 0
vt 0.34788881791193166 0.85671702986870313 0
vt 0.34680975687733401 0.84891420933922801 0
vt 0.34534007298784503 0.84136578577551435 0
vt 0.46309444713213382 0.86344356135899636 0
vt 0.45630604209084208 0.86710643217914041 0
vt 0.44965594281539628 0.87075503345801941 0
vt 0.44308240215484712 0.87433437319541962 0
vt 0.37710678777639661 0.84492451153342463 0
vt 0.37050938841500447 0.84118319772312422 0
vt 0.36377023806907138 0.83743461602793723 0
vt 0.35732837918219124 0.83345270155665874 0
vt 0.45867690910509595 0.85171828652601078 0
vt 0.45150111695824313 0.85371830745365684 0
vt 0.444239899897516 0.85566293649049274 0
vt 0.43701060226970362 0.85795311086873915 0
vt 0.38274697969645199 0.82989289605580274 0
vt 0.37549317926143932 0.8278526002676545 0
vt 0.36832686940219522 0.82577767807994285 0
vt 0.36123671637712601 0.82327777173964467 0
vt 0.37731271340775402 0.79811757335483269 0
vt 0.37016036813247893 0.79601845632094526 0
vt 0.44993918640890374 0.82386987850165316 0
vt 0.44284378165648042 0.82604748609866085 0
vt 0.43579081284836341 0.82834778233212703 0
vt 0.42872385668735763 0.83074045638609895 0
vt 0.39145070197535453 0.80254929002646191 0
vt 0.38439164475273924 0.80026298589982237 0
vt 0.38158366015756529 0.78434298224444643 0
vt 0.37436396715759024 0.78274221712772574 0
vt 0.44543995266213249 0.81000401624127683 0
vt 0.43834140599834609 0.8121365623302369 0
vt 0.43133717956831402 0.8146482250450815 0
vt 0.40276749408102225 0.79141075313897136 0
vt 0.39575778619807944 0.7886540648396495 0
vt 0.38872041808037189 0.78626082108376549 0
vt 0.48791396949661392 0.88323954604083776 0
vt 0.48959214497803261 0.89083068580598901 0
vt 0.49114778443251372 0.89817395452004811 0
vt 0.33687614764883028 0.86442565898093071 0
vt 0.3386679994974095 0.85686202521856514 0
vt 0.33996223220210053 0.84905735436254359 0
vt 0.34028649466920785 0.84128411656801405 0
vt 0.48673992772183566 0.87541298842887072 0
vt 0.48333790490040413 0.88347783609574082 0
vt 0.48359272528317582 0.89120340184255442 0
vt 0.48375736241005052 0.89871898789085802 0
vt 0.34286966617234416 0.86488773804786578 0
vt 0.34324043198995913 0.85716850587753457 0
vt 0.34337569192556944 0.84919345311555583 0
vt 0.34283136458298835 0.84149613965443881 0
vt 0.48332436144920682 0.87549968701144176 0
vt 0.49988495932253962 0.87827910872678516 0
vt 0.50533207932288571 0.88289197484287585 0
vt 0.51156107867865597 0.88664221971105017 0
vt 0.32125669872337653 0.85625281053041624 0
vt 0.32677000044424237 0.85172034697753463 0
vt 0.3307326041526002 0.84594298730423223 0
vt 0.33255674199770296 0.83892461813771368 0
vt 0.49601343791817576 0.87243625990478735 0
vt 0.49635743780671626 0.88060950075026989 0
vt 0.50077592914592728 0.88671453364604291 0
vt 0.50570214795411572 0.89263024716525241 0
vt 0.32575601394839537 0.86014104193081142 0
vt 0.33026348073347034 0.85410395185845078 0
vt 0.33356886311678657 0.8473233939514857 0
vt 0.33515316829408603 0.839961713060149 0
vt 0.49315763384974648 0.87377319360314287 0
vt 0.47414065419640405 0.88182764548293446 0
vt 0.4718909526905703 0.88913261617891859 0
vt 0.46967980985520069 0.89627049042556994 0
vt 0.35460245794157014 0.86298902782214604 0
vt 0.35246205806717129 0.85565282155819833 0
vt 0.35020805034884084 0.84808010494787556 0
vt 0.34774745739368335 0.84079773097629418 0
vt 0.476506716830293 0.87428783672051136 0
vt 0.46980026079738746 0.87997025336309442 0
vt 0.46642899464811571 0.88686544869270767 0
vt 0.4631464084858789 0.89364094351269086 0
vt 0.360097901381496 0.86080098859699539 0
vt 0.35682953071107243 0.85385824347868888 0
vt 0.35346246290673861 0.84676308337648554 0
vt 0.35004164702573798 0.83987658098995899 0
vt 0.47327075389831941 0.87292352430507403 0
vt 0.46210652797326968 0.87454755240126236 0
vt 0.45683232827911424 0.88007217486686373 0
vt 0.45163904870370469 0.88558109973454413 0
vt 0.36979444145389595 0.85414438958424221 0
vt 0.36460187010198752 0.84854525920906032 0
vt 0.35929886917702869 0.84283857127546202 0
vt 0.35415140743987839 0.83716707605764729 0
vt 0.46749001131150897 0.8689131752921293 0
vt 0.45894496381004168 0.87102989419465682 0
vt 0.45288582811998795 0.87569342225848545 0
vt 0.44687551843783296 0.88034713715636426 0
vt 0.37380476655817996 0.84982028984088054 0
vt 0.3678144244495023 0.84507156219371626 0
vt 0.36168963187004299 0.84026286245503568 0
vt 0.35589343161846415 0.83543757415815623 0
vt 0.46513597795551431 0.86630229224565758 0
vt 0.37510309367535827 0.76665981554572604 0
vt 0.38499804298353241 0.76698170001600574 0
vt 0.39384393965928594 0.7688860176880038 0
vt 0.40238506377414174 0.77175892430667159 0
vt 0.4107633566330352 0.776432973818725 0
vt 0.42417274275447908 0.79851108184676822 0
vt 0.43246943187767739 0.79490923738527275 0
vt 0.44117021067739176 0.79239252578347608 0
vt 0.37606344648223489 0.75394976776712475 0
vt 0.38636205320894978 0.7546685083531226 0
vt 0.39690530062139628 0.7565726468546804 0
vt 0.40713197627337583 0.75991303871103966 0
vt 0.40935592947929866 0.79302300266894188 0
vt 0.41818852357028552 0.78762359905626456 0
vt 0.42791262212205716 0.78309482597042879 0
vt 0.43820720862875323 0.77997374377725093 0
vt 0.50864353214980973 0.8678913232020653 0
vt 0.94458878359758436 0.35726425724337768 0
vt 0.93687403122681123 0.36262561685423667 0
vt 0.92610723551553142 0.4804112920797643 0
vt 0.93855335592687805 0.48201483125173639 0
vt 0.90592868645799485 0.60037975381573017 0
vt 0.42396571922844273 0.012000000000000455 0
vt 0.78468516683396372 0.59795411286100331 0
vt 0.78452532043879808 0.58495278450498644 0
vt 0.69517231442009886 0.32693478752415878 0
vt 0.24893124252817425 0.65582594818332418 0
vt 0.66761115231792678 0.44691970075934356 0
vt 0.68007196838529049 0.44854240772844833 0
vt 0.81552842179189089 0.3467204790757546 0
vt 0.81896900451345556 0.33423794206281565 0
vt 0.71473528829082056 0.76122988527701163 0
vt 0.57244870345538368 0.6356782360026576 0
vt 0.65478165062827698 0.57870092571346576 0
vt 0.66309817435626528 0.5732945851259339 0
vt 0.63346725965184847 0.84521795841680625 0
vt 0.66955350724920426 0.80318459064773229 0
vt 0.49950174764202837 0.73032650980931291 0
vt 0.53771346547776377 0.68840025325291798 0
vt 0.55130931581597997 0.80401212492685614 0
vt 0.12545965894450617 0.71887974879663319 0
vt 0.21673379870302548 0.71440182607725777 0
vt 0.17217985531846194 0.71510079974962537 0
vt 0.88539867297619745 0.77476386793514129 0
vt 0.22788733043400067 0.87722433548664425 0
vt 0.12928211463744788 0.88153888590478879 0
vt 0.76424488208108277 0.94878146375897343 0
vt 0.17988596661476255 0.88019095943485981 0
vt 0.10963067374903038 0.80164826647818199 0
vt 0.24019376520860672 0.79549592882140885 0
vt 0.82380242744207333 0.86321914473566641 0
vt 0.43105431646470699 0.36148973151995906 0
vt 0.41510850565137325 0.28880451896446341 0
vt 0.35918669446338597 0.23705528205564891 0
vt 0.31451826282715262 0.4342610084477832 0
vt 0.36477410758856554 0.39199447976997609 0
vt 0.25626418635336301 0.3795584353685062 0
vt 0.30119217379728208 0.27819101745638664 0
vt 0.23947255550428806 0.30011230471595551 0
vt 0.65950610829535661 0.68028462429167713 0
vt 0.085391054612435166 0.67748735431254758 0
vt 0.33764543484174026 0.78889687086518079 0
vt 0.25279104237746952 0.66924419574766703 0
vt 0.012000000000000455 0.80400033213823507 0
vt 0.16862586410617353 0.6485819004675506 0
vt 0.18245614500250282 0.94669237781524662 0
vt 0.26849459031455819 0.91784016702991389 0
vt 0.092540098363282683 0.92542715189896985 0
vt 0.69817510290228335 0.6356742146593195 0
vt 0.59661990337595538 0.52968900138019881 0
vt 0.6208087608853543 0.91801683629347486 0
vt 0.81604202014144334 0.72186465461848426 0
vt 0.51510944956109994 0.6617452316242588 0
vt 0.69866729965638974 0.82190070372767066 0
vt 0.42883416131651914 0.7525891042396996 0
vt 0.53886713745215431 0.81830809314010311 0
vt 0.65715454866178324 0.41850163987056815 0
vt 0.012000000000000455 0.24633088876895537 0
vt 0.59718766188463812 0.18678005226981906 0
vt 0.91224030013390089 0.60751510711552126 0
vt 0.51403028255033689 0.64913531986444517 0
vt 0.15153999950433253 0.02021232029330116 0
vt 0.68857168800825097 0.3195377162823696 0
vt 0.077181642874992476 0.48632583263810603 0
vt 0.8273317509088709 0.73355159372081657 0
vt 0.73675733413695577 0.80269316633085463 0
vt 0.70542505340505024 0.90865218388807734 0
vt 0.94138297615467526 0.81288227689795123 0
vt 0.90797246242990381 0.92179391087031592 0
vt 0.88746287047173777 0.77180161094152777 0
vt 0.81943321053262652 0.98800000000000043 0
vt 0.76218289972121178 0.95174515493677103 0
vt 0.4746261360111465 0.8648752137795761 0
vt 0.45275459459575035 0.80820314607419363 0
vt 0.44927492081730525 0.7948478569858799 0
vt 0.4191419859904249 0.80562219222926457 0
vt 0.36938884134204858 0.86413003566812785 0
vt 0.42452761035507958 0.81745459087705052 0
vt 0.47678623700947348 0.86608551797046374 0
vt 0.36327922650409039 0.86762514664466028 0
vt 0.46581915184044753 0.84928634998614017 0
vt 0.46149237814859306 0.83551380866406455 0
vt 0.38993753175527657 0.83228346700541744 0
vt 0.39425778697736524 0.81864995090731429 0
vt 0.32074412147317505 0.86598538132499447 0
vt 0.32783680087302547 0.86967969975619763 0
vt 0.49167942516317709 0.86638640083389606 0
vt 0.48906964475104625 0.86716059486099839 0
vt 0.34259314193517848 0.87240048096294986 0
vt 0.34980135690279957 0.87182637852026046 0
vt 0.48397395618008549 0.86781043196619678 0
vt 0.48146694403386447 0.86764372623622721 0
vt 0.37974628685340583 0.85456221500357299 0
vt 0.38362755146897359 0.84860040102895096 0
vt 0.47099778451922453 0.86155381666015363 0
vt 0.46959008703937877 0.85954333221382784 0
vt 0.45713229105391834 0.82175922521974154 0
vt 0.39855083913246031 0.80497225776708803 0
vt 0.33521142241115842 0.8717455292008528 0
vt 0.48652225556636497 0.86763433583203431 0
vt 0.31196477029319614 0.85174200921860987 0
vt 0.31497338696004551 0.85991553229004714 0
vt 0.49714425969866044 0.86445361426592204 0
vt 0.49429220587913369 0.86538800988841869 0
vt 0.3567067954879618 0.87015947734342813 0
vt 0.47906735524343552 0.86704070115144305 0
vt 0.37490567911665501 0.85973009829679736 0
vt 0.47271541081874685 0.86331246366907466 0
vt 0.45067079472979332 0.79140934385845385 0
vt 0.4159112870536007 0.80390042092055869 0
vt 0.44877707105016967 0.77823647317170608 0
vt 0.41675719041448822 0.76455530821727335 0
vt 0.31816667822603156 0.84120561394527193 0
#end 277 textures vertices 

#begin 446 normals 
vn -0.92384500000000003 0 0.382766
vn -0.92384500000000003 0 0.382766
vn -0.92384500000000003 0 0.382766
vn -0.92384500000000003 0 0.382766
vn -0.38267499999999999 0 0.92388300000000001
vn -0.38267499999999999 0 0.92388300000000001
vn -0.38267499999999999 0 0.92388300000000001
vn -0.38267499999999999 0 0.92388300000000001
vn 0.38267499999999999 0 0.92388300000000001
vn 0.38267499999999999 0 0.92388300000000001
vn 0.38267499999999999 0 0.92388300000000001
vn 0.38267499999999999 0 0.92388300000000001
vn 0.92384500000000003 0 0.382766
vn 0.92384500000000003 0 0.382766
vn 0.92384500000000003 0 0.382766
vn 0.92384500000000003 0 0.382766
vn 0.92382799999999998 0 -0.38280900000000001
vn 0.92382799999999998 0 -0.38280900000000001
vn 0.92382799999999998 0 -0.38280900000000001
vn 0.92382799999999998 0 -0.38280900000000001
vn 0.38273699999999999 0 -0.92385700000000004
vn 0.38273699999999999 0 -0.92385700000000004
vn 0.38273699999999999 0 -0.92385700000000004
vn 0.38273699999999999 0 -0.92385700000000004
vn -0.38273699999999999 0 -0.92385700000000004
vn -0.38273699999999999 0 -0.92385700000000004
vn -0.38273699999999999 0 -0.92385700000000004
vn -0.38273699999999999 0 -0.92385700000000004
vn -0.92382799999999998 0 -0.38280900000000001
vn -0.92382799999999998 0 -0.38280900000000001
vn -0.92382799999999998 0 -0.38280900000000001
vn -0.92382799999999998 0 -0.38280900000000001
vn -0.46192899999999998 -0.80007499999999998 0.38275599999999999
vn -0.46192899999999998 -0.80007499999999998 0.38275599999999999
vn -0.26498899999999997 -0.88502999999999998 0.38275599999999999
vn -0.264988 -0.88503100000000001 0.38275599999999999
vn -0.461895 -0.80007300000000003 -0.38279999999999997
vn -0.461895 -0.80007300000000003 -0.38279999999999997
vn -0.26495800000000003 -0.88501399999999997 -0.38281500000000002
vn -0.26495800000000003 -0.88501399999999997 -0.38281500000000002
vn -0.19137699999999999 -0.33146900000000001 -0.92385200000000001
vn -0.19137799999999999 -0.33146799999999998 -0.92385200000000001
vn -0.109739 -0.36665399999999998 -0.92386299999999999
vn -0.10974 -0.36665300000000001 -0.92386299999999999
vn 0.19136500000000001 0.33145599999999997 -0.92385899999999999
vn 0.19136500000000001 0.331457 -0.92385899999999999
vn 0.10977099999999999 0.36665900000000001 -0.92385700000000004
vn 0.10977099999999999 0.36665799999999998 -0.92385700000000004
vn 0.46192100000000003 0.80004500000000001 -0.382828
vn 0.461922 0.80004399999999998 -0.382828
vn 0.264959 0.88500699999999999 -0.38283099999999998
vn 0.26495800000000003 0.88500699999999999 -0.38283099999999998
vn 0.46192 0.80006900000000003 0.38277899999999998
vn 0.46191900000000002 0.80006999999999995 0.38277899999999998
vn 0.26495600000000002 0.88503200000000004 0.382774
vn 0.264957 0.88503200000000004 0.382774
vn 0.191331 0.331403 0.92388499999999996
vn 0.191331 0.331403 0.92388599999999999
vn 0.109737 0.36660500000000001 0.92388199999999998
vn 0.109736 0.36660500000000001 0.92388199999999998
vn -0.19132399999999999 -0.33141300000000001 0.92388300000000001
vn -0.19132299999999999 -0.33141399999999999 0.92388300000000001
vn -0.109759 -0.36658600000000002 0.92388700000000001
vn -0.10975799999999999 -0.36658600000000002 0.92388700000000001
vn -0.92384500000000003 0 0.382766
vn -0.92384500000000003 0 0.382766
vn -0.92465399999999998 -0.026217000000000001 0.37990400000000002
vn -0.92466300000000001 -0.026682000000000001 0.37985099999999999
vn -0.92382799999999998 0 -0.38280900000000001
vn -0.92382799999999998 0 -0.38280900000000001
vn -0.92464299999999999 -0.026685 -0.37989800000000001
vn -0.92463499999999998 -0.02622 -0.37995099999999998
vn -0.38273699999999999 0 -0.92385700000000004
vn -0.38273699999999999 0 -0.92385700000000004
vn -0.385347 -0.01482 -0.92265299999999995
vn -0.38522400000000001 -0.014112 -0.92271499999999995
vn 0.38273699999999999 0 -0.92385700000000004
vn 0.38273699999999999 0 -0.92385700000000004
vn 0.38511800000000002 0.019206000000000001 -0.92266800000000004
vn 0.38499699999999998 0.018203 -0.92273799999999995
vn 0.92382799999999998 0 -0.38280900000000001
vn 0.92382799999999998 0 -0.38280900000000001
vn 0.92352100000000004 0.051830000000000001 -0.38002900000000001
vn 0.92355500000000001 0.050671000000000001 -0.38010300000000002
vn 0.92384500000000003 0 0.382766
vn 0.92384500000000003 0 0.382766
vn 0.92357400000000001 0.050671000000000001 0.380056
vn 0.92354000000000003 0.051830000000000001 0.37998300000000002
vn 0.38267499999999999 0 0.92388300000000001
vn 0.38267499999999999 0 0.92388300000000001
vn 0.38493699999999997 0.018197000000000001 0.922763
vn 0.38505800000000001 0.019200999999999999 0.92269299999999999
vn -0.38267499999999999 0 0.92388300000000001
vn -0.38267499999999999 0 0.92388300000000001
vn -0.38515899999999997 -0.014109 0.92274199999999995
vn -0.38528200000000001 -0.014817 0.92267999999999994
vn 0.29322199999999998 -0.24601200000000001 -0.92384999999999995
vn 0.29322300000000001 -0.24601200000000001 -0.92384999999999995
vn 0.34203699999999998 -0.171761 -0.92385499999999998
vn 0.34203600000000001 -0.171762 -0.92385499999999998
vn -0.29319899999999999 0.24601899999999999 -0.92385499999999998
vn -0.29320000000000002 0.24601799999999999 -0.92385499999999998
vn -0.34202300000000002 0.171768 -0.92385899999999999
vn -0.34202300000000002 0.171768 -0.92385899999999999
vn -0.70768799999999998 0.59381600000000001 -0.38283200000000001
vn -0.82555199999999995 0.41460799999999998 -0.38283699999999998
vn -0.82555199999999995 0.41460799999999998 -0.38283699999999998
vn -0.70768699999999995 0.59381700000000004 -0.38283200000000001
vn -0.70771300000000004 0.59382199999999996 0.38277600000000001
vn -0.70771200000000001 0.59382299999999999 0.38277699999999998
vn -0.82557700000000001 0.41460999999999998 0.38278000000000001
vn -0.82557700000000001 0.41460999999999998 0.38278000000000001
vn -0.34197 0.17174200000000001 0.92388400000000004
vn -0.29313899999999998 0.245979 0.92388499999999996
vn -0.29313800000000001 0.24598 0.92388499999999996
vn -0.34197 0.17174200000000001 0.92388400000000004
vn 0.29313600000000001 -0.245978 0.92388599999999999
vn 0.29313600000000001 -0.245978 0.92388599999999999
vn 0.34198000000000001 -0.171734 0.92388199999999998
vn 0.34198000000000001 -0.171733 0.92388199999999998
vn 0.70771600000000001 -0.59383200000000003 0.38275599999999999
vn 0.70771600000000001 -0.59383200000000003 0.38275599999999999
vn 0.82559499999999997 -0.414603 0.38275100000000001
vn 0.82559499999999997 -0.41460200000000003 0.38275100000000001
vn 0.70769000000000004 -0.59382599999999996 -0.38281199999999999
vn 0.70769000000000004 -0.59382699999999999 -0.38281199999999999
vn 0.82557100000000005 -0.414601 -0.38280500000000001
vn 0.82557000000000003 -0.414601 -0.38280500000000001
vn 0.066459000000000004 -0.37694 -0.92384999999999995
vn 0.066460000000000005 -0.37694 -0.92384999999999995
vn 0.151585 -0.351439 -0.92385799999999996
vn 0.151585 -0.35143799999999997 -0.92385799999999996
vn -0.066447999999999993 0.37692300000000001 -0.92385799999999996
vn -0.066447000000000006 0.37692399999999998 -0.92385799999999996
vn -0.15157300000000001 0.351439 -0.92386000000000001
vn -0.15157300000000001 0.351439 -0.92385899999999999
vn -0.16042200000000001 0.90978400000000004 -0.38282899999999997
vn -0.16042500000000001 0.90978300000000001 -0.38282899999999997
vn -0.36592000000000002 0.84825899999999999 -0.38283200000000001
vn -0.36591800000000002 0.84826000000000001 -0.38283099999999998
vn -0.16042300000000001 0.90980300000000003 0.38278400000000001
vn -0.16042100000000001 0.90980300000000003 0.38278400000000001
vn -0.36591600000000002 0.84828400000000004 0.38277800000000001
vn -0.36591800000000002 0.84828400000000004 0.38277800000000001
vn -0.066434999999999994 0.376857 0.92388599999999999
vn -0.066435999999999995 0.376857 0.92388599999999999
vn -0.15157699999999999 0.35137699999999999 0.92388199999999998
vn -0.15157599999999999 0.35137800000000002 0.92388199999999998
vn 0.066464999999999996 -0.37687399999999999 0.92387699999999995
vn 0.066464999999999996 -0.37687399999999999 0.92387699999999995
vn 0.151557 -0.35137299999999999 0.92388700000000001
vn 0.151557 -0.35137299999999999 0.92388700000000001
vn 0.16043199999999999 -0.90982200000000002 0.38273400000000002
vn 0.16043099999999999 -0.90982200000000002 0.38273400000000002
vn 0.36591200000000002 -0.84830000000000005 0.382747
vn 0.36591299999999999 -0.84830000000000005 0.382747
vn 0.160409 -0.90980700000000003 -0.38278000000000001
vn 0.16041 -0.909806 -0.38278000000000001
vn 0.365921 -0.84826999999999997 -0.38280399999999998
vn 0.36592000000000002 -0.848271 -0.38280399999999998
vn -0.37771100000000002 -0.066763000000000003 -0.92351399999999995
vn -0.37908599999999998 -0.062080000000000003 -0.92327700000000001
vn -0.319768 -0.21032200000000001 -0.92385799999999996
vn -0.319768 -0.21032200000000001 -0.92385799999999996
vn 0.37564799999999998 0.075385999999999995 -0.92369100000000004
vn 0.37698399999999999 0.070967000000000002 -0.92349700000000001
vn 0.31977899999999998 0.21032400000000001 -0.92385300000000004
vn 0.31977899999999998 0.21032500000000001 -0.92385300000000004
vn 0.90447599999999995 0.18881500000000001 -0.38245400000000002
vn 0.90541300000000002 0.18462200000000001 -0.38228600000000001
vn 0.77185300000000001 0.50762099999999999 -0.38283699999999998
vn 0.77185300000000001 0.50762200000000002 -0.38283699999999998
vn 0.90543200000000001 0.18462799999999999 0.38223800000000002
vn 0.90449500000000005 0.18882099999999999 0.382407
vn 0.77186399999999999 0.50764399999999998 0.38278499999999999
vn 0.77186399999999999 0.50764299999999996 0.38278499999999999
vn 0.37692300000000001 0.070953000000000002 0.92352299999999998
vn 0.375587 0.075371999999999995 0.92371700000000001
vn 0.31972499999999998 0.21029100000000001 0.92388000000000003
vn 0.31972600000000001 0.21029100000000001 0.92388000000000003
vn -0.37902799999999998 -0.062071000000000001 0.92330100000000004
vn -0.37765399999999999 -0.066753999999999994 0.92353700000000005
vn -0.31973099999999999 -0.210283 0.92388000000000003
vn -0.31973099999999999 -0.210283 0.92388000000000003
vn -0.91546799999999995 -0.13003799999999999 0.380799
vn -0.91467799999999999 -0.13473199999999999 0.38106499999999999
vn -0.77185800000000004 -0.50766999999999995 0.38276199999999999
vn -0.77185700000000002 -0.50767099999999998 0.38276199999999999
vn -0.91465700000000005 -0.13472600000000001 -0.38111899999999999
vn -0.91544700000000001 -0.13003200000000001 -0.380853
vn -0.77185800000000004 -0.50762499999999999 -0.38282100000000002
vn -0.77185899999999996 -0.50762399999999996 -0.38282100000000002
vn -0.92384500000000003 0 0.382766
vn -0.92384500000000003 0 0.382766
vn -0.92382799999999998 0 -0.38280900000000001
vn -0.92382799999999998 0 -0.38280900000000001
vn -0.38273699999999999 0 -0.92385700000000004
vn -0.38273699999999999 0 -0.92385700000000004
vn 0.38273699999999999 0 -0.92385700000000004
vn 0.38273699999999999 0 -0.92385700000000004
vn 0.92382799999999998 0 -0.38280900000000001
vn 0.92382799999999998 0 -0.38280900000000001
vn 0.92384500000000003 0 0.382766
vn 0.92384500000000003 0 0.382766
vn 0.38267499999999999 0 0.92388300000000001
vn 0.38267499999999999 0 0.92388300000000001
vn -0.38267499999999999 0 0.92388300000000001
vn -0.38267499999999999 0 0.92388300000000001
vn -0.22855600000000001 0.30701000000000001 -0.92385399999999995
vn -0.22855600000000001 0.30701099999999998 -0.92385399999999995
vn -0.55166599999999999 0.74102000000000001 -0.38282300000000002
vn -0.55166700000000002 0.74102000000000001 -0.38282300000000002
vn -0.55167600000000006 0.74104199999999998 0.38276700000000002
vn -0.55167500000000003 0.74104199999999998 0.38276700000000002
vn -0.228523 0.30695600000000001 0.92388099999999995
vn -0.228523 0.30695600000000001 0.92388000000000003
vn 0.22850400000000001 -0.30695699999999998 0.92388499999999996
vn 0.22850500000000001 -0.30695600000000001 0.92388499999999996
vn 0.55168499999999998 -0.74104099999999995 0.38275700000000001
vn 0.55168300000000003 -0.74104199999999998 0.38275700000000001
vn 0.55168099999999998 -0.74101099999999998 -0.38281900000000002
vn 0.55168300000000003 -0.74100999999999995 -0.38281900000000002
vn 0.22856299999999999 -0.30700100000000002 -0.92385600000000001
vn 0.22856199999999999 -0.307002 -0.92385600000000001
vn -0.37242399999999998 0.088278999999999996 -0.92385399999999995
vn -0.38236999999999999 0.044706000000000003 -0.92292700000000005
vn -0.38236999999999999 0.044706000000000003 -0.92292700000000005
vn -0.37242399999999998 0.088278999999999996 -0.92385399999999995
vn -0.89890999999999999 0.21304999999999999 -0.38284600000000002
vn -0.89890899999999996 0.21305099999999999 -0.38284600000000002
vn -0.91847599999999996 0.107322 -0.380637
vn -0.91847599999999996 0.107322 -0.380637
vn -0.89893199999999995 0.21304899999999999 0.382795
vn -0.89893199999999995 0.21304799999999999 0.382795
vn -0.91849599999999998 0.107309 0.38059199999999999
vn -0.91849599999999998 0.107309 0.38059199999999999
vn -0.38231599999999999 0.044692000000000003 0.92295000000000005
vn -0.38231599999999999 0.044692000000000003 0.92295000000000005
vn -0.37237100000000001 0.088257000000000002 0.92387799999999998
vn -0.37237100000000001 0.088257000000000002 0.92387799999999998
vn 0.372363 -0.088266999999999998 0.92388000000000003
vn 0.372363 -0.088264999999999996 0.92388000000000003
vn 0.38229099999999999 -0.044699999999999997 0.92296
vn 0.38229099999999999 -0.044699999999999997 0.92296
vn 0.898949 -0.213056 0.38275100000000001
vn 0.898949 -0.213056 0.38275100000000001
vn 0.91850500000000002 -0.107417 0.38053900000000002
vn 0.91850500000000002 -0.107417 0.38053799999999999
vn 0.89892799999999995 -0.21305199999999999 -0.382801
vn 0.89892799999999995 -0.21305199999999999 -0.382801
vn 0.91848099999999999 -0.107432 -0.38059300000000001
vn 0.91848099999999999 -0.107432 -0.38059300000000001
vn 0.37240099999999998 -0.088286000000000003 -0.92386299999999999
vn 0.37240000000000001 -0.088287000000000004 -0.92386299999999999
vn 0.382328 -0.044720999999999997 -0.92294399999999999
vn 0.382328 -0.044720999999999997 -0.92294399999999999
vn 0.022268 0.38209599999999999 -0.92385399999999995
vn 0.022269000000000001 0.38209599999999999 -0.92385399999999995
vn 0.053711000000000002 0.92225800000000002 -0.382824
vn 0.053710000000000001 0.92225800000000002 -0.382824
vn 0.053719000000000003 0.92227899999999996 0.38277499999999998
vn 0.053719999999999997 0.92227899999999996 0.38277499999999998
vn 0.022253999999999999 0.38202900000000001 0.92388199999999998
vn 0.022253999999999999 0.38202900000000001 0.92388199999999998
vn -0.022231999999999998 -0.38202799999999998 0.92388300000000001
vn -0.022234 -0.38202799999999998 0.92388300000000001
vn -0.053719999999999997 -0.922288 0.38275300000000001
vn -0.053716 -0.922288 0.38275300000000001
vn -0.053731000000000001 -0.92226399999999997 -0.38280700000000001
vn -0.053734999999999998 -0.92226399999999997 -0.38280700000000001
vn -0.022235999999999999 -0.38208399999999998 -0.92386000000000001
vn -0.022235000000000001 -0.38208399999999998 -0.92386000000000001
vn 0.26266099999999998 0.27839700000000001 -0.92385300000000004
vn 0.26266099999999998 0.27839700000000001 -0.92385300000000004
vn 0.63397499999999996 0.67194900000000002 -0.38283299999999998
vn 0.63397499999999996 0.67194900000000002 -0.38283299999999998
vn 0.633992 0.67196100000000003 0.38278299999999998
vn 0.633992 0.67196100000000003 0.38278299999999998
vn 0.26261499999999999 0.27834300000000001 0.92388199999999998
vn 0.26261499999999999 0.27834300000000001 0.92388199999999998
vn -0.26258700000000001 -0.278362 0.92388499999999996
vn -0.26258799999999999 -0.278362 0.92388499999999996
vn -0.63399799999999995 -0.67196699999999998 0.38276199999999999
vn -0.633996 -0.67196800000000001 0.38276199999999999
vn -0.63398200000000005 -0.67195499999999997 -0.38280999999999998
vn -0.63398299999999996 -0.67195400000000005 -0.38280999999999998
vn -0.26266600000000001 -0.27840599999999999 -0.92384900000000003
vn -0.26266499999999998 -0.27840599999999999 -0.92384900000000003
vn 0 1 9.9999999999999995e-007
vn 0 1 0
vn 0 1 0
vn 0 1 9.9999999999999995e-007
vn 0 1 0
vn 0 1 0
vn 0 1 9.9999999999999995e-007
vn 0 1 9.9999999999999995e-007
vn 0 1 -0
vn 0 1 -0
vn 0 1 -9.9999999999999995e-007
vn 0 1 -9.9999999999999995e-007
vn 0 1 0
vn 0 1 0
vn 0 1 -9.9999999999999995e-007
vn 0 1 -9.9999999999999995e-007
vn -0.92387399999999997 0 0.38269599999999998
vn -0.92387399999999997 0 0.38269599999999998
vn -0.92387399999999997 0 0.38269599999999998
vn -0.92387399999999997 0 0.38269599999999998
vn -0.38273400000000002 0 0.92385899999999999
vn -0.38273400000000002 0 0.92385899999999999
vn -0.38273400000000002 0 0.92385899999999999
vn -0.38273400000000002 0 0.92385899999999999
vn 0.38273400000000002 0 0.92385899999999999
vn 0.38273400000000002 0 0.92385899999999999
vn 0.38273400000000002 0 0.92385899999999999
vn 0.38273400000000002 0 0.92385899999999999
vn 0.92387399999999997 0 0.38269599999999998
vn 0.92387399999999997 0 0.38269599999999998
vn 0.92387399999999997 0 0.38269599999999998
vn 0.92387399999999997 0 0.38269599999999998
vn 0.92387399999999997 0 -0.38269599999999998
vn 0.92387399999999997 0 -0.38269599999999998
vn 0.92387399999999997 0 -0.38269599999999998
vn 0.92387399999999997 0 -0.38269599999999998
vn 0.38269900000000001 0 -0.92387300000000006
vn 0.38269900000000001 0 -0.92387300000000006
vn 0.38269900000000001 0 -0.92387300000000006
vn 0.38269900000000001 0 -0.92387300000000006
vn -0.38269900000000001 0 -0.92387300000000006
vn -0.38269900000000001 0 -0.92387300000000006
vn -0.38269900000000001 0 -0.92387300000000006
vn -0.38269900000000001 0 -0.92387300000000006
vn -0.92387399999999997 0 -0.38269599999999998
vn -0.92387399999999997 0 -0.38269599999999998
vn -0.92387399999999997 0 -0.38269599999999998
vn -0.92387399999999997 0 -0.38269599999999998
vn -3.0000000000000001e-006 -1 1.9999999999999999e-006
vn -3.0000000000000001e-006 -1 -0
vn -3.0000000000000001e-006 -1 1.9999999999999999e-006
vn -1.9999999999999999e-006 -1 -5.0000000000000004e-006
vn -1.9999999999999999e-006 -1 -9.9999999999999995e-007
vn -1.9999999999999999e-006 -1 3.9999999999999998e-006
vn -3.9999999999999998e-006 -1 -0
vn -3.0000000000000001e-006 -1 -1.9999999999999999e-006
vn -3.0000000000000001e-006 -1 -1.9999999999999999e-006
vn 0.67706599999999995 0.73592000000000002 0.0018370000000000001
vn 0.67706599999999995 0.73592000000000002 0.0018370000000000001
vn 0.67639400000000005 0.73653999999999997 -2.4000000000000001e-005
vn 0.67639400000000005 0.73653999999999997 -2.5000000000000001e-005
vn 0.0025560000000000001 0.62800400000000001 0.77820599999999995
vn 0.0025560000000000001 0.62800400000000001 0.77820599999999995
vn -0.001836 0.66124099999999997 0.75017199999999995
vn 0.00014899999999999999 0.64637100000000003 0.76302300000000001
vn 1 0 0
vn 1 0 0
vn 1 0 0
vn 1 0 0
vn 0.67573899999999998 0.73713899999999999 -0.0018309999999999999
vn 0.67573899999999998 0.73713899999999999 -0.0018309999999999999
vn -0.093544000000000002 0.99561500000000003 4.5000000000000003e-005
vn -0.093544000000000002 0.99561500000000003 -1.7e-005
vn -0.087623000000000006 0.99613700000000005 0.0058019999999999999
vn -0.062128000000000003 0.988703 0.136406
vn 0.0028549999999999999 0.63344100000000003 -0.77378599999999997
vn 0.0028549999999999999 0.63344100000000003 -0.77378599999999997
vn 0.000544 0.65025699999999997 -0.759714
vn -0.001384 0.66403999999999996 -0.74769600000000003
vn 0.000473 -4.5000000000000003e-005 -1
vn 0.019472 3.1000000000000001e-005 -0.99980999999999998
vn 0.019472 3.1000000000000001e-005 -0.99980999999999998
vn 0.00046500000000000003 -4.5000000000000003e-005 -1
vn -0.0036649999999999999 0.68006500000000003 -0.73314299999999999
vn -0.0036649999999999999 0.68006500000000003 -0.73314299999999999
vn -0.0023349999999999998 0.92009600000000002 0.39168700000000001
vn 0.002085 0.919346 0.39344400000000002
vn -4.6e-005 -4.5000000000000003e-005 1
vn -0.019578000000000002 -0.000122 0.99980800000000003
vn -0.019578000000000002 -0.000122 0.99980800000000003
vn -5.5000000000000002e-005 -4.5000000000000003e-005 1
vn -0.0042009999999999999 0.67863099999999998 0.73446699999999998
vn -0.0042009999999999999 0.67863099999999998 0.73446699999999998
vn 0.088031999999999999 0.97838700000000001 -0.187108
vn 0.13398499999999999 0.98944399999999999 -0.055209000000000001
vn -0.002196 0.92016900000000001 -0.391515
vn 0.0022409999999999999 0.91929300000000003 -0.39356799999999997
vn -0.67528200000000005 0.73755300000000001 0.0031540000000000001
vn -0.67528200000000005 0.73755300000000001 0.0031540000000000001
vn -0.67572399999999999 0.737155 0.00014100000000000001
vn -0.67572399999999999 0.737155 0.00013999999999999999
vn -1 0 0.00018000000000000001
vn -1 0 0.00018100000000000001
vn -1 0 0.00018100000000000001
vn -1 0 0.00018000000000000001
vn 0.157413 0.98753299999999999 -2.0000000000000002e-005
vn 0.157413 0.98753299999999999 3.0000000000000001e-005
vn 0.089183999999999999 0.97900799999999999 0.18327499999999999
vn 0.13428200000000001 0.98947499999999999 0.053917
vn -0.67614700000000005 0.736761 -0.0027910000000000001
vn -0.67614700000000005 0.736761 -0.0027910000000000001
vn 0.018957000000000002 3.1000000000000001e-005 0.99982000000000004
vn 0.018957000000000002 3.1000000000000001e-005 0.99982000000000004
vn -0.087526000000000007 0.99614400000000003 -0.006084
vn -0.061380999999999998 0.98831800000000003 -0.13949900000000001
vn -0.94332099999999997 0.089818999999999996 -0.31949699999999998
vn -0.995556 0.094169000000000003 0.000562
vn -0.995556 0.094169000000000003 0.00050500000000000002
vn -0.94332099999999997 0.089818999999999996 -0.31949699999999998
vn -0.94650599999999996 0.088957999999999995 0.31018200000000001
vn -0.94650599999999996 0.088957999999999995 0.31018200000000001
vn -0.019054999999999999 -0.00012400000000000001 -0.99981799999999998
vn -0.019054999999999999 -0.00012400000000000001 -0.99981900000000001
vn 0.034729999999999997 0.094073000000000004 0.99495900000000004
vn 0.034729999999999997 0.094073000000000004 0.99495900000000004
vn -0.00050500000000000002 0.093048000000000006 0.99566100000000002
vn -0.001505 0.093017000000000002 0.99566299999999996
vn -0.035444000000000003 0.091916999999999999 0.99513600000000002
vn -0.035444000000000003 0.091916999999999999 0.99513600000000002
vn 0.99563599999999997 0.093321000000000001 -6.0000000000000002e-006
vn 0.94325300000000001 0.088275000000000006 -0.32012800000000002
vn 0.94325300000000001 0.088275000000000006 -0.32012800000000002
vn 0.99563599999999997 0.093321000000000001 -0.00012400000000000001
vn 0.035143000000000001 0.093967999999999996 -0.99495500000000003
vn -0.0011310000000000001 0.092942999999999998 -0.99567099999999997
vn -0.000112 0.092974000000000001 -0.99566900000000003
vn 0.035143000000000001 0.093967999999999996 -0.99495500000000003
vn -0.035069999999999997 0.091873999999999997 -0.99515299999999995
vn -0.035069999999999997 0.091873999999999997 -0.99515299999999995
vn 0.94653900000000002 0.088850999999999999 0.310112
vn 0.94653900000000002 0.088850999999999999 0.310112
vn -0.022289 0.65377399999999997 0.75636099999999995
vn -8.8999999999999995e-005 0.65394200000000002 0.75654500000000002
vn 4.5000000000000003e-005 0.98723300000000003 0.15928
vn 0.093753000000000003 0.98407299999999998 0.151034
vn -0.091141 0.995838 0.00047199999999999998
vn -0.090065000000000006 0.98456699999999997 0.15005299999999999
vn -3.4999999999999997e-005 1 3.4e-005
vn 0.094819000000000001 0.99549399999999999 0.00073999999999999999
vn 0.093622999999999998 0.983348 -0.15576300000000001
vn -6.8999999999999997e-005 0.98635200000000001 -0.16465099999999999
vn 0.023279000000000001 0.65373899999999996 -0.75636199999999998
vn -7.6000000000000004e-005 0.65391699999999997 -0.75656599999999996
vn -0.090063000000000004 0.98370899999999994 -0.155581
vn 1 0 0
vn 1 0 0
vn -1 0 0.00017899999999999999
vn -1 0 0.00017899999999999999
#end 446 normals 

#begin 200 faces
usemtl initialShadingGroup
g Sink
s 1
f 9/9/1 10/10/2 73/73/3 74/74/4 
s 2
f 10/10/5 11/11/6 80/80/7 73/73/8 
s 3
f 11/11/9 12/12/10 79/79/11 80/80/12 
s 4
f 12/12/13 13/13/14 78/78/15 79/79/16 
s 5
f 13/240/17 14/14/18 77/77/19 78/242/20 
s 6
f 14/14/21 15/15/22 76/76/23 77/77/24 
s 7
f 15/15/25 16/16/26 75/75/27 76/76/28 
s 8
f 16/16/29 9/239/30 74/238/31 75/75/32 
s 1
f 18/18/33 17/17/34 126/126/35 127/127/36 
s 8
f 19/19/37 18/237/38 127/243/39 128/128/40 
s 7
f 20/20/41 19/19/42 128/128/43 121/121/44 
s 6
f 21/21/45 20/20/46 121/121/47 122/122/48 
s 5
f 22/22/49 21/21/50 122/122/51 123/123/52 
s 4
f 23/23/53 22/241/54 123/244/55 124/124/56 
s 3
f 24/24/57 23/23/58 124/124/59 125/125/60 
s 2
f 17/17/61 24/24/62 125/125/63 126/126/64 
s 1
f 26/26/65 25/25/66 63/63/67 64/64/68 
s 8
f 27/27/69 26/246/70 64/245/71 57/57/72 
s 7
f 28/28/73 27/27/74 57/57/75 58/58/76 
s 6
f 29/29/77 28/28/78 58/58/79 59/59/80 
s 5
f 30/30/81 29/29/82 59/59/83 60/60/84 
s 4
f 31/31/85 30/248/86 60/247/87 61/61/88 
s 3
f 32/32/89 31/31/90 61/61/91 62/62/92 
s 2
f 25/25/93 32/32/94 62/62/95 63/63/96 
s 7
f 34/34/97 33/33/98 112/112/99 105/105/100 
s 6
f 35/35/101 34/34/102 105/105/103 106/106/104 
s 5
f 35/35/105 106/106/106 107/107/107 36/36/108 
s 4
f 37/37/109 36/250/110 107/249/111 108/108/112 
s 3
f 109/109/113 38/38/114 37/37/115 108/108/116 
s 2
f 39/39/117 38/38/118 109/109/119 110/110/120 
s 1
f 40/40/121 39/39/122 110/110/123 111/111/124 
s 8
f 33/33/125 40/252/126 111/251/127 112/112/128 
s 7
f 42/42/129 41/41/130 96/96/131 89/89/132 
s 6
f 43/43/133 42/42/134 89/89/135 90/90/136 
s 5
f 44/44/137 43/43/138 90/90/139 91/91/140 
s 4
f 45/45/141 44/254/142 91/253/143 92/92/144 
s 3
f 46/46/145 45/45/146 92/92/147 93/93/148 
s 2
f 47/47/149 46/46/150 93/93/151 94/94/152 
s 1
f 48/48/153 47/47/154 94/94/155 95/95/156 
s 8
f 41/41/157 48/256/158 95/255/159 96/96/160 
s 7
f 50/50/161 49/49/162 144/144/163 137/137/164 
s 6
f 51/51/165 50/50/166 137/137/167 138/138/168 
s 5
f 52/52/169 51/51/170 138/138/171 139/139/172 
s 4
f 53/53/173 52/258/174 139/257/175 140/140/176 
s 3
f 54/54/177 53/53/178 140/140/179 141/141/180 
s 2
f 55/55/181 54/54/182 141/141/183 142/142/184 
s 1
f 56/56/185 55/55/186 142/142/187 143/143/188 
s 8
f 49/49/189 56/260/190 143/259/191 144/144/192 
s 7
f 58/58/76 57/57/75 49/49/162 50/50/161 
s 6
f 59/59/80 58/58/79 50/50/166 51/51/165 
s 5
f 60/60/84 59/59/83 51/51/170 52/52/169 
s 4
f 61/61/88 60/247/87 52/258/174 53/53/173 
s 3
f 62/62/92 61/61/91 53/53/178 54/54/177 
s 2
f 63/63/96 62/62/95 54/54/182 55/55/181 
s 1
f 64/64/68 63/63/67 55/55/186 56/56/185 
s 8
f 57/57/72 64/245/71 56/260/190 49/49/189 
s 1
f 66/66/193 65/65/194 25/25/66 26/26/65 
s 8
f 67/67/195 66/261/196 26/246/70 27/27/69 
s 7
f 68/68/197 67/67/198 27/27/74 28/28/73 
s 6
f 69/69/199 68/68/200 28/28/78 29/29/77 
s 5
f 70/70/201 69/69/202 29/29/82 30/30/81 
s 4
f 71/71/203 70/262/204 30/248/86 31/31/85 
s 3
f 72/72/205 71/71/206 31/31/90 32/32/89 
s 2
f 65/65/207 72/72/208 32/32/94 25/25/93 
s 1
f 74/74/4 73/73/3 65/65/194 66/66/193 
s 8
f 75/75/32 74/238/31 66/261/196 67/67/195 
s 7
f 76/76/28 75/75/27 67/67/198 68/68/197 
s 6
f 77/77/24 76/76/23 68/68/200 69/69/199 
s 5
f 78/242/20 77/77/19 69/69/202 70/70/201 
s 4
f 79/79/16 78/78/15 70/262/204 71/71/203 
s 3
f 80/80/12 79/79/11 71/71/206 72/72/205 
s 2
f 73/73/8 80/80/7 72/72/208 65/65/207 
s 6
f 82/82/209 81/81/210 34/34/102 35/35/101 
s 5
f 83/83/211 82/82/212 35/35/105 36/36/108 
s 4
f 37/37/109 84/84/213 83/263/214 36/250/110 
s 3
f 85/85/215 84/84/216 37/37/115 38/38/114 
s 2
f 86/86/217 85/85/218 38/38/118 39/39/117 
s 1
f 87/87/219 86/86/220 39/39/122 40/40/121 
s 8
f 88/88/221 87/264/222 40/252/126 33/33/125 
s 7
f 81/81/223 88/88/224 33/33/98 34/34/97 
s 6
f 90/90/136 89/89/135 81/81/210 82/82/209 
s 5
f 91/91/140 90/90/139 82/82/212 83/83/211 
s 4
f 92/92/144 91/253/143 83/263/214 84/84/213 
s 3
f 93/93/148 92/92/147 84/84/216 85/85/215 
s 2
f 94/94/152 93/93/151 85/85/218 86/86/217 
s 1
f 95/95/156 94/94/155 86/86/220 87/87/219 
s 8
f 96/96/160 95/255/159 87/264/222 88/88/221 
s 7
f 89/89/132 96/96/131 88/88/224 81/81/223 
s 6
f 97/97/225 7/7/226 6/6/227 98/98/228 
s 5
f 99/99/229 98/98/230 6/6/231 5/5/232 
s 4
f 100/100/233 99/266/234 5/265/235 4/4/236 
s 3
f 4/4/237 3/3/238 101/101/239 100/100/240 
s 2
f 102/102/241 101/101/242 3/3/243 2/2/244 
s 1
f 103/103/245 102/102/246 2/2/247 1/1/248 
s 8
f 104/104/249 103/268/250 1/267/251 8/8/252 
s 7
f 97/97/253 104/104/254 8/8/255 7/7/256 
s 6
f 105/105/103 97/97/225 98/98/228 106/106/104 
s 5
f 107/107/107 106/106/106 98/98/230 99/99/229 
s 4
f 108/108/112 107/249/111 99/266/234 100/100/233 
s 3
f 101/101/239 109/109/113 108/108/116 100/100/240 
s 2
f 110/110/120 109/109/119 101/101/242 102/102/241 
s 1
f 111/111/124 110/110/123 102/102/246 103/103/245 
s 8
f 112/112/128 111/251/127 103/268/250 104/104/249 
s 7
f 105/105/100 112/112/99 104/104/254 97/97/253 
s 6
f 114/114/257 113/113/258 42/42/134 43/43/133 
s 5
f 115/115/259 114/114/260 43/43/138 44/44/137 
s 4
f 116/116/261 115/269/262 44/254/142 45/45/141 
s 3
f 117/117/263 116/116/264 45/45/146 46/46/145 
s 2
f 118/118/265 117/117/266 46/46/150 47/47/149 
s 1
f 119/119/267 118/118/268 47/47/154 48/48/153 
s 8
f 120/120/269 119/270/270 48/256/158 41/41/157 
s 7
f 113/113/271 120/120/272 41/41/130 42/42/129 
s 6
f 122/122/48 121/121/47 113/113/258 114/114/257 
s 5
f 123/123/52 122/122/51 114/114/260 115/115/259 
s 4
f 124/124/56 123/244/55 115/269/262 116/116/261 
s 3
f 125/125/60 124/124/59 116/116/264 117/117/263 
s 2
f 126/126/64 125/125/63 117/117/266 118/118/265 
s 1
f 127/127/36 126/126/35 118/118/268 119/119/267 
s 8
f 128/128/40 127/243/39 119/270/270 120/120/269 
s 7
f 121/121/44 128/128/43 120/120/272 113/113/271 
s 6
f 130/130/273 129/129/274 20/20/46 21/21/45 
s 5
f 131/131/275 130/130/276 21/21/50 22/22/49 
s 4
f 132/132/277 131/271/278 22/241/54 23/23/53 
s 3
f 133/133/279 132/132/280 23/23/58 24/24/57 
s 2
f 134/134/281 133/133/282 24/24/62 17/17/61 
s 1
f 135/135/283 134/134/284 17/17/34 18/18/33 
s 8
f 136/136/285 135/272/286 18/237/38 19/19/37 
s 7
f 129/129/287 136/136/288 19/19/42 20/20/41 
s 6
f 138/138/168 137/137/167 129/129/274 130/130/273 
s 5
f 139/139/172 138/138/171 130/130/276 131/131/275 
s 4
f 140/140/176 139/257/175 131/271/278 132/132/277 
s 3
f 141/141/180 140/140/179 132/132/280 133/133/279 
s 2
f 142/142/184 141/141/183 133/133/282 134/134/281 
s 1
f 143/143/188 142/142/187 134/134/284 135/135/283 
s 8
f 144/144/192 143/259/191 135/272/286 136/136/285 
s 7
f 137/137/164 144/144/163 136/136/288 129/129/287 
s 41
f 10/10/289 9/9/290 145/145/291 146/146/292 
f 11/11/293 10/10/289 146/146/292 147/147/294 
f 12/12/295 11/11/293 147/147/294 148/148/296 
f 13/13/297 12/12/295 148/148/296 149/149/298 
f 14/14/299 13/240/297 149/274/298 150/150/300 
f 15/15/301 14/14/299 150/150/300 151/151/302 
f 16/16/303 15/15/301 151/151/302 152/152/304 
f 9/239/290 16/16/303 152/152/304 145/273/291 
s off
f 146/146/305 145/145/306 153/153/307 154/154/308 
f 147/147/309 146/146/310 154/154/311 155/155/312 
f 148/148/313 147/147/314 155/155/315 156/156/316 
f 149/149/317 148/148/318 156/156/319 157/276/320 
f 150/150/321 149/274/322 157/157/323 158/158/324 
f 151/151/325 150/150/326 158/158/327 159/159/328 
f 152/152/329 151/151/330 159/159/331 160/160/332 
f 145/273/333 152/152/334 160/160/335 153/275/336 
s 42
f 8/8/337 161/161/338 7/7/339 
f 161/277/338 4/4/340 5/265/341 
f 6/6/342 161/161/338 5/5/341 
f 1/267/343 161/161/338 8/8/337 
f 2/2/344 161/277/338 1/1/343 
f 2/2/344 3/3/345 161/277/338 
f 161/277/338 3/3/345 4/4/340 
f 7/7/339 161/161/338 6/6/342 
s 44
f 163/163/346 162/162/347 165/165/348 164/164/349 
s 45
f 162/162/350 163/163/351 174/174/352 175/175/353 
s 46
f 167/167/354 165/223/355 197/197/356 198/198/357 
s 44
f 165/165/348 167/224/358 166/166/359 164/164/349 
s 47
f 153/204/360 164/213/361 166/216/362 176/176/363 
s 48
f 166/166/364 167/224/365 168/168/366 169/169/367 
s 49
f 168/226/368 167/167/369 198/198/370 202/202/371 
s 48
f 169/169/367 168/168/366 178/178/372 179/179/373 
s 47
f 166/216/362 169/218/374 181/181/375 176/176/363 
s 50
f 175/225/376 171/171/377 199/199/378 200/200/379 
s 45
f 171/227/380 175/175/353 174/174/352 170/170/381 
s 47
f 182/182/382 170/219/383 174/217/384 183/183/385 
s 52
f 171/227/386 170/170/387 173/173/388 172/172/389 
s 53
f 172/228/390 178/222/391 203/203/392 201/201/393 
s 47
f 173/220/394 184/184/395 180/180/396 179/215/397 
s 52
f 173/173/388 179/179/398 178/178/399 172/172/389 
s 50
f 162/221/400 175/225/376 200/200/379 196/196/401 
s 47
f 183/183/385 174/217/384 163/214/402 177/177/403 
s 54
f 177/212/404 153/208/405 193/193/406 190/190/407 
f 193/193/406 153/208/405 176/205/408 185/185/409 
s 49
f 178/222/410 168/226/368 202/202/371 203/203/411 
s 47
f 169/218/374 179/215/397 180/180/396 181/181/375 
s 55
f 180/207/412 186/186/413 187/187/414 181/209/415 
f 181/209/415 187/187/414 185/185/416 176/205/417 
s 56
f 184/206/418 182/211/419 189/189/420 194/194/421 
s 57
f 182/211/422 183/210/423 192/192/424 189/189/425 
f 192/192/424 183/210/423 177/212/426 190/190/427 
s 56
f 180/207/428 184/206/418 194/194/421 186/186/429 
s 58
f 185/229/430 187/234/431 188/188/432 
f 188/188/432 187/234/431 186/232/433 
f 193/230/434 185/229/435 188/188/432 195/195/436 
f 194/233/437 189/235/438 191/191/439 195/195/436 
f 189/235/440 192/236/441 191/191/439 
f 192/236/441 190/231/442 191/191/439 
f 195/195/436 191/191/439 190/231/442 193/230/434 
f 186/232/433 194/233/437 195/195/436 188/188/432 
s 47
f 184/184/395 173/220/394 170/219/383 182/182/382 
f 177/177/403 163/214/402 164/213/361 153/204/360 
s 46
f 165/223/355 162/221/443 196/196/444 197/197/356 
s 53
f 172/228/390 201/201/393 199/199/445 171/171/446 
#end 200 faces
#begin 1 properties
#U3D SYM 0 0 0 1 0 0 0.0001 1
#end 1 properties
