# Blender 4.4.1
# www.blender.org
mtllib Soap.mtl
o Soap
v -0.325582 -0.105885 0.137608
v -0.332237 -0.032182 0.209861
v -0.397587 -0.032182 0.128659
v -0.147162 -0.105885 0.176663
v -0.148450 -0.032517 0.251595
v -0.249364 -0.032692 0.228004
v -0.250804 -0.105885 0.152403
v -0.397587 0.032206 0.128659
v -0.331867 0.031789 0.209942
v -0.325582 0.105909 0.137608
v -0.250804 0.105909 0.152403
v -0.249395 0.032670 0.227997
v -0.148394 0.032459 0.251609
v -0.147162 0.105909 0.176663
v -0.397587 0.031789 -0.128286
v -0.325582 0.105909 -0.137615
v -0.331867 0.031789 -0.209948
v -0.249364 0.032717 -0.228010
v -0.250837 0.105909 -0.152355
v -0.147162 0.105909 -0.176670
v -0.148394 0.032459 -0.251615
v -0.397587 -0.032182 -0.128665
v -0.331867 -0.031764 -0.209948
v -0.325582 -0.105885 -0.137615
v -0.250804 -0.105885 -0.152409
v -0.249395 -0.032646 -0.228003
v -0.148394 -0.032435 -0.251615
v -0.147162 -0.105885 -0.176670
v 0.325550 -0.105885 0.137608
v 0.397555 -0.032182 0.128659
v 0.332206 -0.032182 0.209861
v 0.332206 0.032206 0.209861
v 0.397555 0.031789 0.128280
v 0.325550 0.105909 0.137608
v 0.325550 0.105909 -0.137615
v 0.397555 0.032206 -0.128665
v 0.332206 0.032206 -0.209867
v 0.332206 -0.032182 -0.209867
v 0.397555 -0.031764 -0.128286
v 0.325550 -0.105885 -0.137615
v -0.051939 -0.105885 0.199931
v 0.052010 -0.105885 0.199757
v 0.051703 -0.032744 0.275648
v -0.051733 -0.032744 0.275648
v 0.250773 -0.105885 0.152403
v 0.249364 -0.032646 0.227997
v 0.148363 -0.032435 0.251609
v 0.147132 -0.105885 0.176663
v -0.051733 0.032769 0.275648
v 0.051600 0.032914 0.275674
v 0.051907 0.105909 0.199931
v -0.051939 0.105909 0.199931
v 0.147132 0.105909 0.176663
v 0.148419 0.032541 0.251595
v 0.249332 0.032717 0.228004
v 0.250773 0.105909 0.152403
v -0.051939 0.105909 -0.199937
v 0.052010 0.105909 -0.199763
v 0.051703 0.032769 -0.275654
v -0.051733 0.032769 -0.275654
v 0.148363 0.032459 -0.251615
v 0.147189 0.105909 -0.176740
v 0.250773 0.105909 -0.152409
v 0.249332 0.032717 -0.228010
v -0.051733 -0.032744 -0.275654
v 0.051600 -0.032889 -0.275680
v 0.051907 -0.105885 -0.199937
v -0.051939 -0.105885 -0.199937
v 0.147132 -0.105885 -0.176670
v 0.148419 -0.032517 -0.251601
v 0.249332 -0.032692 -0.228010
v 0.250773 -0.105885 -0.152409
vn -0.7153 -0.6988 -0.0000
vn -0.1474 -0.7043 0.6945
vn -0.1542 -0.7058 0.6915
vn -0.1554 -0.7060 0.6909
vn -0.7783 0.0019 0.6279
vn -0.0000 -1.0000 -0.0000
vn -0.1658 -0.7071 0.6874
vn -0.1648 -0.7071 0.6876
vn -0.0864 -0.7159 0.6929
vn -0.0779 -0.7165 0.6932
vn -0.2215 -0.0000 0.9752
vn -0.2345 -0.0000 0.9721
vn -0.7163 0.6978 -0.0005
vn -0.1492 0.7030 0.6954
vn -0.1560 0.7053 0.6915
vn -0.1550 0.7050 0.6921
vn -0.0000 1.0000 -0.0000
vn -0.1649 0.7068 0.6879
vn -0.1659 0.7068 0.6876
vn -0.0790 0.7163 0.6933
vn -0.0873 0.7157 0.6929
vn -0.7783 0.0019 -0.6278
vn -0.1492 0.7032 -0.6952
vn -0.1550 0.7052 -0.6918
vn -0.1559 0.7056 -0.6913
vn -0.2216 -0.0000 -0.9751
vn -0.2345 -0.0000 -0.9721
vn -0.2215 -0.0000 -0.9752
vn -0.1659 0.7069 -0.6875
vn -0.1646 0.7070 -0.6878
vn -0.0866 0.7158 -0.6929
vn -0.0782 0.7164 -0.6933
vn -0.1492 -0.7030 -0.6954
vn -0.1558 -0.7053 -0.6916
vn -0.1549 -0.7050 -0.6921
vn -0.1649 -0.7068 -0.6879
vn -0.1659 -0.7068 -0.6876
vn -0.0791 -0.7163 -0.6933
vn -0.0873 -0.7157 -0.6929
vn 0.1472 -0.7042 0.6946
vn 0.1553 -0.7058 0.6912
vn 0.1541 -0.7056 0.6917
vn 0.7163 -0.6978 -0.0005
vn 0.7798 0.0019 0.6261
vn 0.1474 0.7043 0.6945
vn 0.1542 0.7058 0.6915
vn 0.1553 0.7060 0.6910
vn 0.7163 0.6978 0.0005
vn 0.1474 0.7043 -0.6945
vn 0.1555 0.7058 -0.6911
vn 0.1541 0.7055 -0.6917
vn 0.7798 -0.0018 -0.6261
vn 0.1474 -0.7042 -0.6945
vn 0.1542 -0.7058 -0.6915
vn 0.1553 -0.7060 -0.6910
vn 0.0785 -0.7165 0.6931
vn 0.0868 -0.7159 0.6928
vn 0.1647 -0.7070 0.6878
vn 0.1656 -0.7071 0.6875
vn -0.1188 -0.0001 0.9929
vn 0.1187 -0.0001 0.9929
vn 0.1186 -0.0001 0.9929
vn -0.1185 -0.0001 0.9930
vn 0.2345 -0.0000 0.9721
vn 0.2214 -0.0000 0.9752
vn 0.0868 0.7160 0.6927
vn 0.0782 0.7166 0.6931
vn 0.1660 0.7073 0.6872
vn 0.1650 0.7072 0.6875
vn 0.0785 0.7164 -0.6932
vn 0.0867 0.7158 -0.6929
vn 0.1646 0.7069 -0.6879
vn 0.1655 0.7069 -0.6876
vn -0.1186 0.0001 -0.9929
vn 0.1187 0.0001 -0.9929
vn -0.1184 0.0001 -0.9930
vn 0.2345 -0.0000 -0.9721
vn 0.2214 -0.0000 -0.9752
vn 0.0868 -0.7160 -0.6927
vn 0.0783 -0.7166 -0.6931
vn 0.1660 -0.7073 -0.6872
vn 0.1647 -0.7072 -0.6875
vn -0.2139 -0.0000 0.9769
vn -0.2139 -0.0000 -0.9769
vn 1.0000 -0.0000 -0.0000
vn -1.0000 -0.0000 -0.0000
vn 0.2139 -0.0000 0.9769
vn 0.2139 -0.0000 -0.9769
vn -0.6427 -0.5651 0.5173
vn -0.6412 0.5631 0.5213
vn -0.6448 0.5611 -0.5190
vn -0.6412 -0.5631 -0.5213
vn 0.6427 -0.5651 0.5172
vn 0.6464 0.5631 0.5149
vn 0.6427 0.5651 -0.5173
vn 0.6464 -0.5631 -0.5149
vt 0.788708 0.395562
vt 0.846519 0.354831
vt 0.954805 0.513962
vt 0.892321 0.553208
vt 0.768513 0.327765
vt 0.738353 0.412372
vt 0.706093 0.345088
vt 0.012000 0.883297
vt 0.086197 0.883206
vt 0.086463 0.928744
vt 0.012056 0.929131
vt 0.667176 0.436590
vt 0.856295 0.593317
vt 0.806083 0.648866
vt 0.632381 0.370020
vt 0.602050 0.459594
vt 0.562973 0.396424
vt 0.146587 0.882849
vt 0.220359 0.882980
vt 0.220396 0.929232
vt 0.146560 0.929376
vt 0.390722 0.056179
vt 0.373474 0.124783
vt 0.189198 0.084547
vt 0.203691 0.012000
vt 0.444226 0.119487
vt 0.450271 0.183744
vt 0.375887 0.177834
vt 0.378821 0.253017
vt 0.130876 0.199263
vt 0.164724 0.132516
vt 0.453466 0.261630
vt 0.453681 0.335905
vt 0.380712 0.322146
vt 0.644599 0.987311
vt 0.569981 0.987308
vt 0.569982 0.942068
vt 0.644390 0.941773
vt 0.127117 0.049900
vt 0.094599 0.106688
vt 0.509861 0.987967
vt 0.436048 0.987781
vt 0.436049 0.941587
vt 0.509885 0.941439
vt 0.059313 0.176606
vt 0.100757 0.261666
vt 0.028560 0.244490
vt 0.946902 0.598800
vt 0.905545 0.649495
vt 0.852882 0.707526
vt 0.800523 0.760610
vt 0.758575 0.699429
vt 0.406677 0.644450
vt 0.352797 0.598572
vt 0.393833 0.548409
vt 0.442368 0.605156
vt 0.346084 0.680938
vt 0.509120 0.803009
vt 0.447623 0.844168
vt 0.570040 0.883238
vt 0.644237 0.883241
vt 0.644445 0.928779
vt 0.570038 0.929073
vt 0.339165 0.605616
vt 0.277343 0.570638
vt 0.301611 0.523534
vt 0.371857 0.548861
vt 0.263256 0.643298
vt 0.075902 0.600182
vt 0.092683 0.531485
vt 0.022269 0.536731
vt 0.015931 0.471952
vt 0.090484 0.477528
vt 0.086408 0.987601
vt 0.012211 0.987603
vt 0.012000 0.942066
vt 0.086407 0.941767
vt 0.528447 0.871210
vt 0.560372 0.786276
vt 0.591941 0.854017
vt 0.540681 0.499837
vt 0.696818 0.739570
vt 0.498541 0.437837
vt 0.493275 0.549859
vt 0.446449 0.490892
vt 0.291304 0.882824
vt 0.364934 0.882831
vt 0.364857 0.929569
vt 0.291300 0.929459
vt 0.631454 0.762759
vt 0.435837 0.883053
vt 0.509673 0.882906
vt 0.509647 0.929434
vt 0.435876 0.929306
vt 0.365279 0.393925
vt 0.438084 0.410943
vt 0.407066 0.478900
vt 0.335358 0.456256
vt 0.085541 0.333698
vt 0.087156 0.402839
vt 0.012000 0.319466
vt 0.012481 0.393997
vt 0.365144 0.988000
vt 0.291514 0.987998
vt 0.291589 0.941260
vt 0.365146 0.941365
vt 0.220611 0.987779
vt 0.146799 0.987964
vt 0.146798 0.941403
vt 0.220569 0.941526
vt 0.736416 0.802931
vt 0.666354 0.829305
vt 0.660515 0.849349
vt 0.843420 0.849646
vt 0.843690 0.895183
vt 0.660785 0.894886
vt 0.770566 0.792178
vt 0.953741 0.792178
vt 0.953741 0.838012
vt 0.770836 0.837715
s 1
usemtl initialShadingGroup
f 1/1/1 3/2/1 22/3/1 24/4/1
f 2/5/2 1/1/2 7/6/3 6/7/4
f 3/8/5 2/9/5 9/10/5 8/11/5
f 4/12/6 7/6/6 25/13/6 28/14/6
f 5/15/7 4/12/8 41/16/9 44/17/10
f 6/18/11 5/19/12 13/20/12 12/21/11
f 8/22/13 10/23/13 16/24/13 15/25/13
f 10/23/14 9/26/14 12/27/15 11/28/16
f 11/28/17 14/29/17 20/30/17 19/31/17
f 14/29/18 13/32/19 49/33/20 52/34/21
f 15/35/22 17/36/22 23/37/22 22/38/22
f 17/39/23 16/24/23 19/31/24 18/40/25
f 18/41/26 21/42/27 27/43/27 26/44/28
f 21/45/29 20/30/30 57/46/31 60/47/32
f 24/4/33 23/48/33 26/49/34 25/13/35
f 28/14/36 27/50/37 65/51/38 68/52/39
f 29/53/40 31/54/40 46/55/41 45/56/42
f 30/57/43 29/53/43 40/58/43 39/59/43
f 31/60/44 30/61/44 33/62/44 32/63/44
f 32/64/45 34/65/45 56/66/46 55/67/47
f 34/65/48 33/68/48 36/69/48 35/70/48
f 35/70/49 37/71/49 64/72/50 63/73/51
f 37/74/52 36/75/52 39/76/52 38/77/52
f 38/78/53 40/58/53 72/79/54 71/80/55
f 42/81/6 41/16/6 68/52/6 67/82/6
f 43/83/56 42/81/57 48/84/58 47/85/59
f 44/86/60 43/87/61 50/88/62 49/89/63
f 45/56/6 48/84/6 69/90/6 72/79/6
f 47/91/64 46/92/65 55/93/65 54/94/64
f 51/95/66 50/96/67 54/97/68 53/98/69
f 52/34/17 51/95/17 58/99/17 57/46/17
f 53/98/17 56/66/17 63/73/17 62/100/17
f 59/101/70 58/99/71 62/100/72 61/102/73
f 60/103/74 59/104/75 66/105/75 65/106/76
f 61/107/77 64/108/78 71/109/78 70/110/77
f 67/82/79 66/111/80 70/112/81 69/90/82
f 2/9/83 6/18/11 12/21/11 9/10/83
f 10/23/17 11/28/17 19/31/17 16/24/17
f 17/36/84 18/41/26 26/44/28 23/37/84
f 24/4/6 25/13/6 7/6/6 1/1/6
f 30/113/85 39/114/85 36/115/85 33/116/85
f 22/117/86 3/118/86 8/119/86 15/120/86
f 50/88/62 43/87/61 47/91/64 54/94/64
f 58/99/17 51/95/17 53/98/17 62/100/17
f 66/105/75 59/104/75 61/107/77 70/110/77
f 42/81/6 67/82/6 69/90/6 48/84/6
f 13/20/12 5/19/12 44/86/60 49/89/63
f 20/30/17 14/29/17 52/34/17 57/46/17
f 27/43/27 21/42/27 60/103/74 65/106/76
f 4/12/6 28/14/6 68/52/6 41/16/6
f 55/93/65 46/92/65 31/60/87 32/63/87
f 63/73/17 56/66/17 34/65/17 35/70/17
f 71/109/78 64/108/78 37/74/88 38/77/88
f 45/56/6 72/79/6 40/58/6 29/53/6
f 1/1/89 2/5/89 3/2/89
f 4/12/8 5/15/7 6/7/4 7/6/3
f 8/22/90 9/26/90 10/23/90
f 11/28/16 12/27/15 13/32/19 14/29/18
f 15/25/91 16/24/91 17/39/91
f 18/40/25 19/31/24 20/30/30 21/45/29
f 22/3/92 23/48/92 24/4/92
f 25/13/35 26/49/34 27/50/37 28/14/36
f 29/53/93 30/57/93 31/54/93
f 32/64/94 33/68/94 34/65/94
f 35/70/95 36/69/95 37/71/95
f 38/78/96 39/59/96 40/58/96
f 41/16/9 42/81/57 43/83/56 44/17/10
f 45/56/42 46/55/41 47/85/59 48/84/58
f 49/33/20 50/96/67 51/95/66 52/34/21
f 53/98/69 54/97/68 55/67/47 56/66/46
f 57/46/31 58/99/71 59/101/70 60/47/32
f 61/102/73 62/100/72 63/73/51 64/72/50
f 65/51/38 66/111/80 67/82/79 68/52/39
f 69/90/82 70/112/81 71/80/55 72/79/54
