#File written by LIBUNFOLD3D. Compilation :Dec 22 2011,11:53:02
mtllib Table.mtl
#begin vertices
v -61.279214000000003 -1.924023 -34.650615000000002
v -61.882753000000001 -3.5426869999999999 -34.253034
v -61.244672000000001 -4.4829869999999996 -33.160722999999997
v -60.003045 -3.8046220000000002 -32.465995999999997
v -59.399507 -2.1859579999999998 -32.863576000000002
v -60.037590999999999 -1.245657 -33.955885000000002
v -61.917115000000003 -1.391715 -33.901612999999998
v -62.520654 -3.0103800000000001 -33.504032000000002
v -61.882568999999997 -3.9506800000000002 -32.411721999999997
v -60.640946999999997 -3.2723149999999999 -31.716992000000001
v -60.037407999999999 -1.6536489999999999 -32.114573999999998
v -60.675491999999998 -0.71335000000000004 -33.206884000000002
v -62.692708000000003 -0.24848799999999999 -32.918233000000001
v -63.774160000000002 -0.75826400000000005 -31.855423999999999
v -63.375031999999997 -1.1441170000000001 -30.430496000000002
v -61.894452000000001 -1.0201979999999999 -30.068383999999998
v -60.813001 -0.51042200000000004 -31.131194000000001
v -61.212128999999997 -0.124568 -32.556119000000002
v -62.622365000000002 2.5617969999999999 -32.580309999999997
v -63.686345000000003 2.7100610000000001 -31.439423000000001
v -63.278478 2.6532249999999999 -29.975463999999999
v -61.806638 2.4481269999999999 -29.652384000000001
v -60.742654000000002 2.2998620000000001 -30.793271000000001
v -61.150520999999998 2.3566980000000002 -32.257230999999997
v -62.448433999999999 3.8099699999999999 -32.580309999999997
v -63.512414 3.958234 -31.439423000000001
v -63.104546999999997 3.9013990000000001 -29.975463999999999
v -61.632707000000003 3.6962999999999999 -29.652384000000001
v -60.568722999999999 3.5480360000000002 -30.793271000000001
v -60.976590000000002 3.6048710000000002 -32.257230999999997
v -62.274503000000003 5.0581440000000004 -32.580309999999997
v -63.338482999999997 5.2064079999999997 -31.439423000000001
v -62.930616000000001 5.1495730000000002 -29.975463999999999
v -61.458776 4.9444739999999996 -29.652384000000001
v -60.394795999999999 4.7962100000000003 -30.793271000000001
v -60.802658999999998 4.853046 -32.257230999999997
v -62.100572 6.3063180000000001 -32.580309999999997
v -63.164552 6.4545820000000003 -31.439423000000001
v -62.756684 6.3977459999999997 -29.975463999999999
v -61.284844999999997 6.192647 -29.652384000000001
v -60.220863999999999 6.044384 -30.793271000000001
v -60.628728000000002 6.1012190000000004 -32.257230999999997
v -61.692708000000003 6.2494829999999997 -31.116346
v -60.587156 -2.000105 -35.389713
v -60.526555000000002 -3.752024 -35.710242999999998
v -59.556404999999998 -4.7589519999999998 -34.976985999999997
v -58.646847999999999 -4.0139579999999997 -33.923203999999998
v -58.707447999999999 -2.262041 -33.602676000000002
v -59.677602 -1.2551129999999999 -34.335929999999998
v -59.862713999999997 -1.2682960000000001 -36.044455999999997
v -58.884053000000002 -1.8213189999999999 -37.154927999999998
v -58.433529999999998 -1.6757740000000001 -35.706173
v -57.454869000000002 -2.2288009999999998 -36.816642999999999
v -57.004342000000001 -2.083253 -35.367888999999998
v -57.983007000000001 -1.5302279999999999 -34.257416999999997
v -59.412191 -1.1227480000000001 -34.595700999999998
v -56.667794000000001 -2.1613120000000001 -5.8701189999999999
v -57.216450999999999 -3.7580789999999999 -6.410228
v -58.345151000000001 -4.5955839999999997 -5.6967319999999999
v -58.925195000000002 -3.8363239999999998 -4.4431260000000004
v -58.376542000000001 -2.2395559999999999 -3.903019
v -57.247841999999999 -1.40205 -4.6165149999999997
v -57.403993 -1.5877509999999999 -6.4868119999999996
v -57.952649000000001 -3.1845189999999999 -7.026923
v -59.08135 -4.0220250000000002 -6.3134269999999999
v -59.661397000000001 -3.2627630000000001 -5.0598219999999996
v -59.112741 -1.665996 -4.5197120000000002
v -57.98404 -0.82848999999999995 -5.2332080000000003
v -58.333669 -0.39036399999999999 -7.2467579999999998
v -59.483361000000002 -0.84160299999999999 -8.263401
v -60.912584000000003 -1.1063430000000001 -7.7881729999999996
v -61.192104999999998 -0.91984699999999997 -6.2962999999999996
v -60.042417 -0.468607 -5.2796570000000003
v -58.613194999999997 -0.20386599999999999 -5.7548859999999999
v -58.452404999999999 2.4385330000000001 -7.2373760000000003
v -59.628804000000002 2.6496330000000001 -8.2508730000000003
v -61.071373999999999 2.7160609999999998 -7.7740689999999999
v -61.337552000000002 2.5713900000000001 -6.2837719999999999
v -60.161149000000002 2.36029 -5.2702749999999998
v -58.718578999999998 2.2938619999999998 -5.7470800000000004
v -58.348759999999999 3.6867070000000002 -7.0976970000000001
v -59.525162999999999 3.8978069999999998 -8.1111950000000004
v -60.967733000000003 3.964235 -7.6343909999999999
v -61.233907000000002 3.819563 -6.1440939999999999
v -60.057507999999999 3.608463 -5.1305959999999997
v -58.614938000000002 3.542036 -5.6074010000000003
v -58.245117999999998 4.9348809999999999 -6.958018
v -59.421517999999999 5.1459799999999998 -7.9715160000000003
v -60.864086999999998 5.2124090000000001 -7.4947119999999998
v -61.130265000000001 5.0677370000000002 -6.0044149999999998
v -59.953862000000001 4.8566380000000002 -4.9909179999999997
v -58.511293000000002 4.7902089999999999 -5.4677220000000002
v -58.141472999999998 6.1830540000000003 -6.8183400000000001
v -59.317875999999998 6.3941540000000003 -7.8318380000000003
v -60.760446000000002 6.4605810000000004 -7.3550339999999998
v -61.026620000000001 6.3159099999999997 -5.8647369999999999
v -59.850220999999998 6.1048099999999996 -4.8512389999999996
v -58.407651000000001 6.0383820000000004 -5.3280440000000002
v -59.584049999999998 6.2494829999999997 -6.341539
v -55.904035 -2.2781009999999999 -5.2113129999999996
v -55.715539 -4.0476729999999996 -5.1179620000000003
v -56.475667000000001 -4.9715829999999999 -4.0877379999999999
v -57.424283000000003 -4.1259180000000004 -3.1508620000000001
v -57.612774999999999 -2.3563459999999998 -3.2442099999999998
v -56.852651000000002 -1.432437 -4.2744359999999997
v -55.161076999999999 -1.5823529999999999 -4.5382610000000003
v -54.049976999999998 -2.1965370000000002 -3.5975190000000001
v -55.459896999999998 -1.928566 -3.0843389999999999
v -54.348798000000002 -2.5427550000000001 -2.143599
v -55.758721999999999 -2.2747809999999999 -1.630417
v -56.869821000000002 -1.6605939999999999 -2.5711590000000002
v -56.570999999999998 -1.3143800000000001 -4.02508
v -56.219419000000002 3.7489569999999999 -25.662181
v -60.766385 4.1015540000000001 -34.904583000000002
v -69.765989000000005 3.7489569999999999 -35.012704999999997
v -78.180642000000006 3.7489569999999999 -36.962501000000003
v -85.156636000000006 3.7489569999999999 -29.175802999999998
v -92.081823 3.7489569999999999 -21.670268
v -89.095860999999999 3.7489569999999999 -13.193804999999999
v -85.156636000000006 3.7489569999999999 -5.688269
v -78.180645999999996 3.7489569999999999 -0.023713999999999999
v -69.765996000000001 3.7489569999999999 0.14863799999999999
v -60.310856999999999 3.7489569999999999 -0.80161499999999997
v -56.219430000000003 3.7489569999999999 -9.2018810000000002
v -54.190869999999997 3.7489569999999999 -17.432033000000001
v -57.299939000000002 19.410412999999998 -25.085622000000001
v -62.527096999999998 19.410412999999998 -32.047854000000001
v -69.897508000000002 19.410412999999998 -33.781098999999998
v -77.722676000000007 19.410412999999998 -32.830952000000003
v -84.209974000000003 19.410412999999998 -28.353097999999999
v -87.873234999999994 19.410412999999998 -21.373360999999999
v -87.873234999999994 19.410412999999998 -13.490712
v -84.209974000000003 19.410412999999998 -6.5109729999999999
v -77.722679999999997 19.410412999999998 -2.033118
v -69.897514999999999 19.410412999999998 -1.0829679999999999
v -62.527104999999999 19.410412999999998 -3.878193
v -57.299947000000003 19.410412999999998 -9.7784410000000008
v -55.413494999999998 19.410412999999998 -17.432033000000001
v -71.900673999999995 20.913463 -17.432033000000001
v -56.824764999999999 3.748958 -25.339174
v -61.151128 4.1015550000000003 -34.332565000000002
v -69.839669000000001 3.748958 -34.322716999999997
v -77.924081000000001 3.748958 -35.832304000000001
v -84.626287000000005 3.748958 -28.714898000000002
v -90.321752000000004 3.748958 -21.503931000000001
v -88.410893999999999 3.748958 -13.360142
v -84.626287000000005 3.748958 -6.1491740000000004
v -77.924085000000005 3.748958 -0.67360100000000001
v -69.839676999999995 3.748958 -0.54134899999999997
v -60.695596000000002 3.748958 -1.373632
v -56.824769000000003 3.748958 -9.5248880000000007
v -54.875829000000003 3.748958 -17.432033000000001
v -58.738354999999999 7.7780969999999998 -24.318090000000002
v -63.441316 7.7780969999999998 -29.626639000000001
v -71.858650999999995 7.7780969999999998 -17.432033000000001
v -70.072586999999999 7.7780969999999998 -32.141550000000002
v -77.113022999999998 7.7780969999999998 -31.286688000000002
v -82.949742000000001 7.7780969999999998 -27.257891000000001
v -86.245626000000001 7.7780969999999998 -20.978109
v -86.245626000000001 7.7780969999999998 -13.885963
v -82.949742000000001 7.7780969999999998 -7.606179
v -77.113027000000002 7.7780969999999998 -3.5773820000000001
v -70.072595000000007 7.7780969999999998 -2.7225169999999999
v -63.441319999999997 7.7780969999999998 -5.2374260000000001
v -58.738359000000003 7.7780969999999998 -10.545973
v -57.041092999999996 7.7780969999999998 -17.432033000000001
v -56.219419000000002 11.989791 -25.662181
v -54.190869999999997 11.989791 -17.432033000000001
v -56.219430000000003 11.989791 -9.2018810000000002
v -60.310856999999999 11.989791 -0.80161499999999997
v -69.765996000000001 11.989791 0.14863799999999999
v -78.180645999999996 11.989791 -0.023713999999999999
v -85.156636000000006 11.989791 -5.688269
v -89.095860999999999 11.989791 -13.193804999999999
v -91.784841 11.989791 -21.670268
v -85.156636000000006 11.989791 -29.175802999999998
v -78.180642000000006 11.989791 -35.579853
v -69.765989000000005 11.989791 -35.012704999999997
v -60.766385 12.34239 -34.904583000000002
v -81.233411000000004 -2.212415 -1.5521940000000001
v -80.773565000000005 -3.8073779999999999 -2.1743199999999998
v -81.591802000000001 -4.6048600000000004 -3.2601239999999998
v -82.869878 -3.8073790000000001 -3.7238000000000002
v -83.329723999999999 -2.2124160000000002 -3.1016750000000002
v -82.511487000000002 -1.414933 -2.015873
v -80.663785000000004 -1.6354569999999999 -2.322851
v -80.203939000000005 -3.2304210000000002 -2.9449800000000002
v -81.022176000000002 -4.0279030000000002 -4.0307810000000002
v -82.300252 -3.2304210000000002 -4.4944610000000003
v -82.760098999999997 -1.6354569999999999 -3.872331
v -81.941861000000003 -0.83797500000000003 -2.7865259999999998
v -79.952709999999996 -0.43360700000000002 -3.2848700000000002
v -79.039636000000002 -0.88002400000000003 -4.5201799999999999
v -79.631253000000001 -1.1032299999999999 -5.9125750000000004
v -81.135945000000007 -0.88002400000000003 -6.0696599999999998
v -82.049024000000003 -0.43360700000000002 -4.8343499999999997
v -81.457402000000002 -0.210399 -3.4419569999999999
v -79.908590000000004 2.3968229999999999 -3.3445589999999998
v -78.986051000000003 2.6131000000000002 -4.5926739999999997
v -79.572941999999998 2.721238 -5.9914699999999996
v -81.082363999999998 2.6131000000000002 -6.1421539999999997
v -82.004902999999999 2.3968229999999999 -4.8940390000000003
v -81.418019000000001 2.2886850000000001 -3.495241
v -80.011978999999997 3.6449959999999999 -3.204685
v -79.089437000000004 3.8612730000000002 -4.4528040000000004
v -79.676320000000004 3.9694099999999999 -5.8516000000000004
v -81.185749999999999 3.8612730000000002 -6.0022849999999996
v -82.108296999999993 3.6449959999999999 -4.7541650000000004
v -81.521405000000001 3.5368590000000002 -3.355369
v -80.115360999999993 4.8931709999999997 -3.064819
v -79.192823000000004 5.1094470000000003 -4.3129350000000004
v -79.779709999999994 5.2175849999999997 -5.7117269999999998
v -81.289135999999999 5.1094470000000003 -5.8624150000000004
v -82.211675 4.8931709999999997 -4.6143000000000001
v -81.624784000000005 4.7850330000000003 -3.2155019999999999
v -80.218746999999993 6.1413440000000001 -2.9249459999999998
v -79.296205 6.3576199999999998 -4.1730650000000002
v -79.883092000000005 6.4657580000000001 -5.5718610000000002
v -81.392522 6.3576199999999998 -5.7225450000000002
v -82.315061 6.1413440000000001 -4.4744260000000002
v -81.728170000000006 6.0332059999999998 -3.0756320000000001
v -80.805631000000005 6.2494820000000004 -4.3237459999999999
v -81.832707999999997 -2.3325580000000001 -0.74139200000000005
v -81.950246000000007 -4.1035849999999998 -0.58238199999999996
v -83.057157000000004 -4.9890999999999996 -1.2776259999999999
v -84.046559999999999 -4.1035849999999998 -2.1318619999999999
v -83.929029 -2.3325589999999998 -2.2908689999999998
v -82.822109999999995 -1.4470449999999999 -1.5956269999999999
v -82.429815000000005 -1.6397809999999999 0.066434999999999994
v -83.293903999999998 -2.2590029999999999 1.2354799999999999
v -83.910015999999999 -1.949392 -0.123783
v -84.774106000000003 -2.5686179999999998 1.0452600000000001
v -85.390218000000004 -2.2590029999999999 -0.31400099999999997
v -84.526128 -1.6397790000000001 -1.4830449999999999
v -83.045918999999998 -1.330166 -1.292829
v -87.517315999999994 -2.3287179999999998 -29.091739
v -87.129064 -4.0056770000000004 -28.668098000000001
v -85.978215000000006 -4.8462740000000002 -29.341453000000001
v -85.215626999999998 -4.0099109999999998 -30.438452999999999
v -85.603879000000006 -2.332951 -30.862095
v -86.754720000000006 -1.492353 -30.188735999999999
v -86.823255000000003 -1.87215 -28.342669999999998
v -86.435002999999995 -3.5491109999999999 -27.919032999999999
v -85.284161999999995 -4.3897069999999996 -28.592396000000001
v -84.521566000000007 -3.5533429999999999 -29.689388000000001
v -84.909818000000001 -1.876382 -30.113029000000001
v -86.060659000000001 -1.035787 -29.439674
v -85.916646 -0.82413599999999998 -27.365299
v -84.918599 -1.4534229999999999 -26.285076
v -83.462850000000003 -1.7701800000000001 -26.630146
v -83.005155000000002 -1.4576549999999999 -28.055434999999999
v -84.003208999999998 -0.82836799999999999 -29.135649999999998
v -85.458950999999999 -0.51160899999999998 -28.790581
v -85.630323000000004 1.9764330000000001 -27.062525999999998
v -84.566213000000005 2.0030260000000002 -25.912475000000001
v -83.077436000000006 2.014205 -26.222629000000001
v -82.652767999999995 1.998793 -27.682831
v -83.716886000000002 1.972202 -28.832885999999998
v -85.205654999999993 1.961022 -28.522728000000001
v -85.643345999999994 3.2364850000000001 -27.079612999999998
v -84.579228999999998 3.2630759999999999 -25.929561
v -83.090458999999996 3.2742550000000001 -26.239715
v -82.665791999999996 3.2588439999999999 -27.699916999999999
v -83.729909000000006 3.232253 -28.849972000000001
v -85.218678999999995 3.2210730000000001 -28.539814
v -85.656362000000001 4.4965349999999997 -27.096699000000001
v -84.592252000000002 4.5231260000000004 -25.946646999999999
v -83.103482 4.5343070000000001 -26.256800999999999
v -82.678815 4.5188940000000004 -27.717002999999998
v -83.742925 4.4923029999999997 -28.867054
v -85.231694000000005 4.4811240000000003 -28.556899999999999
v -85.669385000000005 5.7565869999999997 -27.113785
v -84.605275000000006 5.7831770000000002 -25.963733000000001
v -83.116498000000007 5.7943569999999998 -26.273886999999998
v -82.691838000000004 5.7789450000000002 -27.734089000000001
v -83.755948000000004 5.7523540000000004 -28.884139999999999
v -85.244718000000006 5.741174 -28.573986000000001
v -84.180608000000007 5.7677670000000001 -27.423935
v -88.206884000000002 -2.325787 -29.837046999999998
v -88.488004000000004 -4.0597960000000004 -30.136741000000001
v -87.671841999999998 -4.9289189999999996 -31.171764
v -86.574567000000002 -4.0640289999999997 -31.9071
v -86.293453999999997 -2.3300200000000002 -31.607399000000001
v -87.109609000000006 -1.460898 -30.572379999999999
v -88.826093 -1.5163770000000001 -30.508236
v -89.857572000000005 -1.954861 -31.622028
v -88.385114000000002 -1.737735 -31.950306000000001
v -89.416593000000006 -2.1762229999999998 -33.064101999999998
v -87.944135000000003 -1.959093 -33.392386999999999
v -86.912655999999998 -1.520607 -32.278587000000002
v -87.353634999999997 -1.299248 -30.836513
#end vertices

#begin 396 textures vertices 
vt 0.74400268009603887 0.93135656000432498 0
vt 0.74021687226358734 0.88852880325181882 0
vt 0.70911426540295408 0.87370630350019762 0
vt 0.67671300567256432 0.88538543206377163 0
vt 0.66874319880856403 0.92763306512294597 0
vt 0.70523316104216893 0.95317035816160989 0
vt 0.59795650672141343 0.80332431271587545 0
vt 0.60568438351443832 0.78477820753458505 0
vt 0.61770751838381788 0.76985283941578952 0
vt 0.63435497654255391 0.76020260607356549 0
vt 0.65405345191462327 0.7555521023079893 0
vt 0.66907867071237814 0.7504039494307565 0
vt 0.68063856971654424 0.73965294171617568 0
vt 0.60880974140914335 0.80947153168821284 0
vt 0.61505821135360628 0.79167042974835433 0
vt 0.62513288576871773 0.77796948037677138 0
vt 0.64050887619973684 0.77006570339485303 0
vt 0.65974279898656363 0.76641929770800565 0
vt 0.67596888172930658 0.76052674684175881 0
vt 0.68766355499462839 0.74901383898980078 0
vt 0.62355696382841586 0.82213140355340841 0
vt 0.63639985402909227 0.81250060595975182 0
vt 0.64776251207856006 0.80301602849322096 0
vt 0.65886841411055963 0.79323147518615722 0
vt 0.67043092266190607 0.78190628514114846 0
vt 0.68335466723378324 0.77078710586963994 0
vt 0.69773146902101624 0.76172288465462401 0
vt 0.64314679462987834 0.84723371100831213 0
vt 0.6572266441158624 0.83927327574144706 0
vt 0.6703022220506466 0.83002299953226677 0
vt 0.68139984714250457 0.81835324110815555 0
vt 0.69143025971060768 0.80555506875050953 0
vt 0.70238856780691028 0.79414917384371009 0
vt 0.71523643988505203 0.7851595924496364 0
vt 0.65118158922887648 0.8587801817026065 0
vt 0.66498157934885493 0.84949045283605473 0
vt 0.67794111273556867 0.83945922817877083 0
vt 0.68956361144012113 0.82809271734711765 0
vt 0.70074978697568102 0.81599766817700392 0
vt 0.71185772855922169 0.80498371311293349 0
vt 0.72398483360974963 0.7951138870296095 0
vt 0.65950600383362656 0.86962545842422234 0
vt 0.67305020059934328 0.8597129770977936 0
vt 0.68589449599045416 0.84930675175604542 0
vt 0.69794350137277372 0.83811283227917754 0
vt 0.70963339945645165 0.82631818841729843 0
vt 0.72099971219848835 0.81545029076736941 0
vt 0.7329535999287291 0.8051361989246012 0
vt 0.6677545400980397 0.88024038526416037 0
vt 0.68127981028362117 0.87007756631118782 0
vt 0.69425730197768509 0.85943682996898918 0
vt 0.70651916606202736 0.84814142030909301 0
vt 0.71841241721214011 0.83643348310026633 0
vt 0.72987692347683653 0.82559992143154171 0
vt 0.74177204276309405 0.81517764520151825 0
vt 0.11437672748694648 0.91324908364834079 0
vt 0.1024496621113595 0.92447960139438368 0
vt 0.10582718163651036 0.94001516550530406 0
vt 0.12113168290357698 0.94432031541153116 0
vt 0.1330587482791481 0.93308980657680141 0
vt 0.12968123920825997 0.91755419069516519 0
vt 0.70623672648506286 0.93263827093970952 0
vt 0.11775419474107031 0.92878469952992238 0
vt 0.72740186472404711 0.90354818429291217 0
vt 0.73244927782667091 0.92956434717409697 0
vt 0.70818216915200127 0.89340600490658995 0
vt 0.68798668442809707 0.90154842178533945 0
vt 0.68040247012385968 0.92696279462912645 0
vt 0.70554017397270541 0.94663555456358173 0
vt 0.7170023075868166 0.92378204668748154 0
vt 0.71954465372065723 0.93172893603520868 0
vt 0.70691366242594211 0.9165496540944158 0
vt 0.69637602024512812 0.92285594012601346 0
vt 0.69298712985413113 0.93047677606706325 0
vt 0.70563683108391451 0.94443626517767121 0
vt 0.73952989089571453 0.84062706061067771 0
vt 0.75458354290677188 0.82729487882475605 0
vt 0.76001413245345295 0.83758282368946668 0
vt 0.74661476031311158 0.85089076038251998 0
vt 0.77193740800641364 0.81910288318784907 0
vt 0.77507912652031752 0.82964421076888717 0
vt 0.79115934700156021 0.81768416352779094 0
vt 0.79238879406096396 0.82924348338604115 0
vt 0.81095570760135505 0.82211909859090271 0
vt 0.81131914989200637 0.8343809154369044 0
vt 0.82675967724383848 0.82408169503664996 0
vt 0.82852157780405544 0.83620401016483692 0
vt 0.84187958928057693 0.81949706576132464 0
vt 0.84409221367593346 0.83099415464238258 0
vt 0.77012021764434313 0.8656194479507372 0
vt 0.75434165872773928 0.86871948660961251 0
vt 0.78449721239826742 0.86203716612029024 0
vt 0.79877527314707375 0.85808923432910822 0
vt 0.81416193559055927 0.85297929710851228 0
vt 0.83067726384053586 0.84866680540937744 0
vt 0.84758063517915139 0.84685630078876806 0
vt 0.77720605846759239 0.89873598183515691 0
vt 0.76096320570278142 0.89989070048469255 0
vt 0.79300688240654804 0.89616856062501971 0
vt 0.80798264752237969 0.89050796843332125 0
vt 0.82272673529988094 0.88342291003082474 0
vt 0.83755264417167108 0.87805504502214193 0
vt 0.8530470425842972 0.87566822570130409 0
vt 0.77965791808318174 0.91131814875644934 0
vt 0.76330091316864934 0.91365375382917946 0
vt 0.79568414905671625 0.90790586168080212 0
vt 0.81122119705184415 0.90288041631747296 0
vt 0.82642014211157233 0.89696401008116189 0
vt 0.84126066783083109 0.89199112543535564 0
vt 0.8565018805854312 0.88850300761884171 0
vt 0.78242943275535182 0.92396960910491754 0
vt 0.76603004816820208 0.92692212562285081 0
vt 0.79851692578389732 0.92034396175005684 0
vt 0.81427153461320778 0.91558281248446816 0
vt 0.82984018210264454 0.91016185635538183 0
vt 0.84483784695350816 0.9054438289438097 0
vt 0.86010712804301648 0.90148016032151623 0
vt 0.78520172527931864 0.93692027270281708 0
vt 0.7686930883340839 0.94000934915635137 0
vt 0.80148668257714506 0.93309368979884966 0
vt 0.81749337539481626 0.92843933116126731 0
vt 0.83325517572876939 0.92314472415523929 0
vt 0.8482831886216804 0.91846326837170866 0
vt 0.86359345719108638 0.91440741832644801 0
vt 0.28818158770694668 0.93993582894506333 0
vt 0.29100563904576915 0.94778702184364982 0
vt 0.27773859334394591 0.94917022113149807 0
vt 0.27784152609069901 0.93306770223946589 0
vt 0.2675354036677019 0.93974567120296204 0
vt 0.26442036529418933 0.94748249081716029 0
vt 0.27755969240679146 0.96098211236217967 0
vt 0.21126408580159509 0.9057750860862136 0
vt 0.20770126365423164 0.92176527806113029 0
vt 0.1961827877356232 0.91080683236050941 0
vt 0.19262000566778575 0.92679695331523815 0
vt 0.18110154220819347 0.91583852424480061 0
vt 0.18466433077381397 0.89984835694945409 0
vt 0.19974559498976768 0.8948166885676051 0
vt 0.31012453559958258 0.90387732268619947 0
vt 0.31543484229261493 0.94654290434692123 0
vt 0.30382489648783817 0.94516375192811009 0
vt 0.29785316333306033 0.91934407282830033 0
vt 0.27851322153759467 0.89017317143580199 0
vt 0.27828406649945314 0.90989356622301154 0
vt 0.24654899043387582 0.90300002486120146 0
vt 0.25839174645867802 0.91875079525113501 0
vt 0.24009045228081893 0.94550493890137499 0
vt 0.25171844026169082 0.9444194133237902 0
vt 0.27746766575941484 0.96972504947871485 0
vt 0.27754149066962458 0.96318344038105652 0
vt 0.012000000000000455 0.87669785672529177 0
vt 0.039216855095374904 0.77028183271337902 0
vt 0.12017173624819519 0.79584480902643551 0
vt 0.096723825115596018 0.89800925173696589 0
vt 0.072700650619544255 0.67924939032250986 0
vt 0.15349541494226465 0.71160027046368424 0
vt 0.1077821494180916 0.59390305894896833 0
vt 0.1861087358785824 0.63141592408563452 0
vt 0.16962237855683029 0.50109725905230795 0
vt 0.24165001830739291 0.55161703235602211 0
vt 0.2354845083754375 0.41192360764828834 0
vt 0.29720783489808045 0.46763291699702575 0
vt 0.3068443436265334 0.34488551617593632 0
vt 0.36526097412313513 0.40970804140704398 0
vt 0.37525317806619901 0.28607107860043079 0
vt 0.43082657339328273 0.35232563146556306 0
vt 0.44974632404755088 0.22554477997767647 0
vt 0.50160035596917774 0.2937954976875457 0
vt 0.52371190893453656 0.17337369312873754 0
vt 0.57237269925591661 0.24538206757266465 0
vt 0.60894616658250766 0.11684047499327943 0
vt 0.6502274393217693 0.18998640418385138 0
vt 0.70241135414052225 0.075187778229993701 0
vt 0.73694356772069702 0.15569399330916905 0
vt 0.78657976751960923 0.042540501666554709 0
vt 0.81799655356746148 0.12329695336899671 0
vt 0.87077516188033643 0.012000000000000455 0
vt 0.90094179744263014 0.093968292185881791 0
vt 0.64408620606211764 0.65627130747292406 0
vt 0.59500943316130395 0.60114474980763377 0
vt 0.72588626124064537 0.52443339540982015 0
vt 0.71565127031575837 0.67512016679980857 0
vt 0.78857721083251564 0.66491235424806838 0
vt 0.84498374710514135 0.61770853741058374 0
vt 0.87761224609267974 0.55216742985704403 0
vt 0.87112964929012005 0.47960986281538631 0
vt 0.83344498637235753 0.41776316930494672 0
vt 0.77264986067684327 0.37815330335834962 0
vt 0.6998550456580569 0.37455515927977301 0
vt 0.63143322184452133 0.40099540075481593 0
vt 0.58797948219346408 0.46004566869980779 0
vt 0.57513420031314322 0.53135343403946877 0
vt 0.42356175192845519 0.9283433317541393 0
vt 0.33315296391628346 0.91629169484393014 0
vt 0.41848912351438261 0.7556958947652711 0
vt 0.27944784717978433 0.85791823911347498 0
vt 0.24795564029050232 0.7815709632974529 0
vt 0.25554957257582306 0.69933415352142159 0
vt 0.30048974056934091 0.63004573050971069 0
vt 0.37248151613108577 0.58957770381873831 0
vt 0.45503345342810653 0.58720008270806667 0
vt 0.52923504341273619 0.62345727155306441 0
vt 0.57808875484539746 0.6900437426225221 0
vt 0.5904035990507186 0.77170678504250734 0
vt 0.56335815058195726 0.84973978841404774 0
vt 0.50314716345224764 0.90626825105417164 0
vt 0.61256631385336857 0.72316355570845248 0
vt 0.54768644909676611 0.62742400618138994 0
vt 0.55371874094373219 0.62352940335762219 0
vt 0.61625532409910666 0.71710203895264923 0
vt 0.71311987404100319 0.72972419337025241 0
vt 0.71352825826599786 0.72257739716637992 0
vt 0.80921497772275719 0.73791740680182427 0
vt 0.80603541409833745 0.7263029429697373 0
vt 0.88890798630360035 0.65138935168131096 0
vt 0.88310375948217934 0.64694629582425234 0
vt 0.95537162342500614 0.55809173056890837 0
vt 0.93691331359307628 0.5577921006273725 0
vt 0.92325616669670418 0.46329618674476819 0
vt 0.9161450568392 0.46519132314592793 0
vt 0.87392757969195822 0.37884960413262853 0
vt 0.86866865054009046 0.38405964334762294 0
vt 0.78816063456645125 0.32150679917914521 0
vt 0.78578926816338857 0.32842683090931912 0
vt 0.69185266271073387 0.31978717097046455 0
vt 0.69306482864317942 0.32694060483769866 0
vt 0.5874194385717737 0.34437159258657851 0
vt 0.59168365518259169 0.35010717447708933 0
vt 0.53849663459825203 0.43789631471206492 0
vt 0.54488428857925464 0.44118856897150271 0
vt 0.51930462662457944 0.53390113779003368 0
vt 0.52651632344404353 0.5335589772502366 0
vt 0.9234313911860299 0.17032862290772169 0
vt 0.84469114025559344 0.1971539417678333 0
vt 0.76717046780595566 0.22889525923935158 0
vt 0.69010836056761971 0.26572439588651747 0
vt 0.61679826371784496 0.31070888102511413 0
vt 0.54793337598245628 0.35985211121711269 0
vt 0.48152293706070637 0.41233345814826816 0
vt 0.41865652818587468 0.46824173427976945 0
vt 0.35842179768244264 0.5284905279341241 0
vt 0.30699692419133889 0.59620744448227536 0
vt 0.26141405295963371 0.66688272304543472 0
vt 0.22621043678750333 0.74321034785285423 0
vt 0.19642753281160105 0.81976127355829576 0
vt 0.17587071669258392 0.91070615914539166 0
vt 0.5445207755692334 0.88074431455668867 0
vt 0.56284175990420171 0.87245443092246977 0
vt 0.56499309610922754 0.88388625509583829 0
vt 0.54825962050603916 0.8926400191188103 0
vt 0.58184255706744281 0.86975810576326629 0
vt 0.58173239745383787 0.88075703467867528 0
vt 0.60062754360491055 0.87408634629235782 0
vt 0.59838969107633788 0.88549367180915095 0
vt 0.61822921523948182 0.88418003150922131 0
vt 0.61495571814002403 0.89600367028335992 0
vt 0.63274595053404514 0.89072847917721187 0
vt 0.63084948700812671 0.90283198759716421 0
vt 0.64854430297304344 0.89081401537754945 0
vt 0.64726410522057054 0.90245374138407708 0
vt 0.56636140465022078 0.91365180480910013 0
vt 0.55037549101104422 0.91194474011396975 0
vt 0.58116011394916434 0.91448050632246747 0
vt 0.59597054382143466 0.91493732226308844 0
vt 0.61217708069680155 0.91461647052945627 0
vt 0.62922685428316594 0.915378991551131 0
vt 0.64590937417557148 0.91864572416728441 0
vt 0.56331199380858621 0.94738906421250024 0
vt 0.54748182703745185 0.94364860256165117 0
vt 0.57920364213817221 0.94954740601974774 0
vt 0.5951682451552277 0.94863765654615562 0
vt 0.61131586941786331 0.94627760199760458 0
vt 0.62711206487633708 0.94547575675579665 0
vt 0.64260286645672771 0.94781602661825337 0
vt 0.56195199613624702 0.96002830969204589 0
vt 0.54568214413469174 0.95741004328988788 0
vt 0.57819124945660527 0.9616356814683128 0
vt 0.59459807932389452 0.96143995099067592 0
vt 0.61086006909823798 0.96021346109915651 0
vt 0.62646736741150699 0.95999265468275508 0
vt 0.64203264307261321 0.96112816240597354 0
vt 0.56082091540261081 0.97300162724600114 0
vt 0.5442082385722411 0.97094686859758517 0
vt 0.57725183005996672 0.97430784479286792 0
vt 0.59366264096222554 0.97439728844250495 0
vt 0.61019711286181533 0.97389956358239627 0
vt 0.62589366069385888 0.9738274761690523 0
vt 0.64170749498712254 0.97463975428640792 0
vt 0.55961112386233158 0.98618830423029025 0
vt 0.54290019065362971 0.98424527547059282 0
vt 0.57629924298763069 0.98735573320622638 0
vt 0.5929323486665784 0.98763502521865099 0
vt 0.60957237080593207 0.98728794725813962 0
vt 0.62530990005865905 0.98731746052222369 0
vt 0.64112357618440341 0.98800000000000043 0
vt 0.92518307184260951 0.91999355277800532 0
vt 0.92811182468921927 0.92780627532782567 0
vt 0.91486444346314433 0.9293667442835698 0
vt 0.91475206503597473 0.91326433002122953 0
vt 0.90453615015994626 0.92007947936961176 0
vt 0.90152483601220834 0.92785724304721429 0
vt 0.91484356256863364 0.94117999461649204 0
vt 0.08644315248371405 0.91251394995202484 0
vt 0.086443167185145567 0.92889623788265363 0
vt 0.07281716658827056 0.92070511500540941 0
vt 0.072817180924655861 0.93708735116656927 0
vt 0.059191128058100825 0.92889622865088073 0
vt 0.059191138577529757 0.91251395918371503 0
vt 0.072817146037930769 0.90432288717075116 0
vt 0.94664194227197407 0.88364491151151414 0
vt 0.95252220233001161 0.92623565948410214 0
vt 0.94089489153073902 0.92501182784913238 0
vt 0.93457837658834086 0.89927431656570345 0
vt 0.91485019386438171 0.87036462446635343 0
vt 0.91488474591115543 0.89008628407675583 0
vt 0.88306031882556146 0.88361769095443565 0
vt 0.8951126061646294 0.89920879035868728 0
vt 0.87717068106517404 0.9262052003409732 0
vt 0.88878308746002888 0.92496430171814292 0
vt 0.91486841568723987 0.9499233899660825 0
vt 0.91485475697256491 0.94338130882678717 0
vt 0.84964252303128218 0.70582028597434565 0
vt 0.8678037065506885 0.6972280077611418 0
vt 0.87015439531208671 0.7086207090260862 0
vt 0.85358878078607703 0.7176467965729183 0
vt 0.88672905481537778 0.69420814744882264 0
vt 0.88681355132335515 0.70520841626490161 0
vt 0.90555767840326518 0.69820585189068407 0
vt 0.90352721737274089 0.70965383682458671 0
vt 0.92329934937303337 0.7079688759060232 0
vt 0.92024943563370665 0.71985349557758449 0
vt 0.93789989363762183 0.71422530972837273 0
vt 0.93623960699538322 0.72636269474060844 0
vt 0.95368198568261131 0.71398298184213171 0
vt 0.95263172502383808 0.72564273864534212 0
vt 0.87205040285491064 0.73836139674030121 0
vt 0.85605920265546553 0.73689736136646944 0
vt 0.88684001435625648 0.73895083273363726 0
vt 0.90163536518447662 0.73914798190377629 0
vt 0.91781588363141076 0.73852299962487256 0
vt 0.93485371281261265 0.73894173895171555 0
vt 0.95158940121275104 0.7418350009026593 0
vt 0.86952753015682316 0.77213507692389205 0
vt 0.85373817911324612 0.76858490203473118 0
vt 0.88544335750079073 0.77410584159364115 0
vt 0.90142176064361468 0.77285996826484382 0
vt 0.91755248495914499 0.77019319555362609 0
vt 0.93336521408095507 0.76909035623013966 0
vt 0.9487962773091827 0.7709864554656658 0
vt 0.86837781417871851 0.7848773757820654 0
vt 0.85192186393641944 0.7824696406492252 0
vt 0.88473205758273321 0.78610107506650018 0
vt 0.90110040680972381 0.78562739805283066 0
vt 0.91735031473674777 0.78411772201334551 0
vt 0.93293259019717456 0.78356116528608533 0
vt 0.94873358087913651 0.78446965982307526 0
vt 0.86748688774205385 0.79777676214135207 0
vt 0.85077465625734183 0.79602666129983712 0
vt 0.88395344672598353 0.79881688204733192 0
vt 0.90042062230091324 0.79865000669215536 0
vt 0.91696135184125593 0.79781937877511666 0
vt 0.9326923451731054 0.79744347041199859 0
vt 0.94850329281422896 0.79791749090675845 0
vt 0.86650992000947114 0.81098688553367593 0
vt 0.84974170380858449 0.80935682123556918 0
vt 0.88324314150999994 0.81187933791346523 0
vt 0.89992583582876107 0.81188718193915632 0
vt 0.9165903455015616 0.8112135231314096 0
vt 0.93234913574425593 0.81093145611578721 0
vt 0.94820328499471362 0.81131829876689732 0
vt 0.24091768261374785 0.86797551999176548 0
vt 0.24383890339220957 0.87579106023664943 0
vt 0.23059006715231939 0.87733878083380334 0
vt 0.23049318318338599 0.86123623705203389 0
vt 0.22027069378980982 0.86804155616170064 0
vt 0.21725192116477865 0.87581642605245824 0
vt 0.23055775809704324 0.88915194739829673 0
vt 0.040688467455106486 0.90289335823217098 0
vt 0.039128111767093049 0.91920115637252364 0
vt 0.026344217299062209 0.90974944423583914 0
vt 0.024783836264241608 0.92605720912171241 0
vt 0.012000000000000455 0.91660545227816748 0
vt 0.013560362024720898 0.90029766227323249 0
vt 0.027904579323779308 0.89344165387448393 0
vt 0.26241157066790827 0.83164755288031988 0
vt 0.26825082028889635 0.87424393485145602 0
vt 0.25662464593373013 0.87300893625032838 0
vt 0.25033301339751168 0.84726534820591914 0
vt 0.23063264263049171 0.81833660267275177 0
vt 0.23064817632363613 0.83805837424108709 0
vt 0.19883003583981274 0.83155905557282084 0
vt 0.21086727492655818 0.84716177019689454 0
vt 0.19289932422271855 0.87414087354117342 0
vt 0.20451294605658826 0.8729112268706567 0
vt 0.2305741829659855 0.89789538256523227 0
vt 0.23056684659775128 0.89135334385412734 0
#end 396 textures vertices 

#begin 755 normals 
vn -0.72107699999999997 0.100484 -0.68552900000000005
vn -0.72107699999999997 0.100484 -0.68552900000000005
vn -0.721078 0.100481 -0.68552900000000005
vn -0.721078 0.10048 -0.68552900000000005
vn -0.73015799999999997 -0.66711399999999998 -0.14774300000000001
vn -0.73015799999999997 -0.66711399999999998 -0.14774300000000001
vn -0.82342499999999996 -0.56730899999999995 0.011518
vn -0.83087500000000003 -0.55577100000000002 0.027673
vn 0.078532000000000005 -0.779802 0.62108099999999999
vn 0.078532000000000005 -0.779802 0.62107999999999997
vn -0.074736999999999998 -0.66113599999999995 0.74653400000000003
vn -0.060734999999999997 -0.67358700000000005 0.73660800000000004
vn 0.721078 -0.10048 0.68552900000000005
vn 0.721078 -0.10048 0.68552900000000005
vn 0.721078 -0.100479 0.68552999999999997
vn 0.721078 -0.100479 0.68552900000000005
vn 0.730159 0.66711299999999996 0.14774399999999999
vn 0.730159 0.66711299999999996 0.14774399999999999
vn 0.76911499999999999 0.63621399999999995 0.060780000000000001
vn 0.76500400000000002 0.64011499999999999 0.070871000000000003
vn -0.078532000000000005 0.779802 -0.62108099999999999
vn -0.078532000000000005 0.779802 -0.62108099999999999
vn -0.007835 0.74780899999999995 -0.66386800000000001
vn 0.0014120000000000001 0.74319299999999999 -0.669076
vn -0.721078 0.10048 -0.68552900000000005
vn -0.721078 0.10048 -0.68552900000000005
vn -0.94820700000000002 -0.25746999999999998 0.18604499999999999
vn -0.94565200000000005 -0.26982200000000001 0.18148900000000001
vn -0.180788 -0.37640400000000002 0.90864500000000004
vn -0.18340000000000001 -0.36404399999999998 0.91314600000000001
vn 0.721078 -0.10048 0.68552999999999997
vn 0.721078 -0.10048 0.68552999999999997
vn 0.95396099999999995 0.237011 -0.183804
vn 0.958206 0.209533 -0.194774
vn 0.18468499999999999 0.31732199999999999 -0.93015999999999999
vn 0.17799100000000001 0.345142 -0.92151899999999998
vn -0.721078 0.100481 -0.68552900000000005
vn -0.721078 0.100481 -0.68552900000000005
vn -0.96260999999999997 0.029968999999999999 0.26923000000000002
vn -0.96271899999999999 0.027077 0.26914500000000002
vn -0.223744 -0.075897000000000006 0.971688
vn -0.223414 -0.073036000000000004 0.97198399999999996
vn 0.72107699999999997 -0.100481 0.68552999999999997
vn 0.72107699999999997 -0.100481 0.68552999999999997
vn 0.96238199999999996 -0.035652000000000003 -0.26935199999999998
vn 0.96222700000000005 -0.038983999999999998 -0.26944400000000002
vn 0.222333 0.064117999999999994 -0.97285999999999995
vn 0.222719 0.067418000000000006 -0.972549
vn -0.721078 0.100481 -0.68552900000000005
vn -0.721078 0.100481 -0.68552900000000005
vn -0.95342700000000002 0.13286000000000001 0.27078799999999997
vn -0.95342700000000002 0.13286000000000001 0.27078799999999997
vn -0.21041099999999999 0.029321 0.97717299999999996
vn -0.21041099999999999 0.029321 0.97717299999999996
vn 0.721078 -0.100481 0.68552999999999997
vn 0.721078 -0.100481 0.68552999999999997
vn 0.95342700000000002 -0.132856 -0.27078799999999997
vn 0.95342700000000002 -0.132856 -0.27078799999999997
vn 0.21041000000000001 -0.029319999999999999 -0.97717299999999996
vn 0.21041000000000001 -0.029319999999999999 -0.97717299999999996
vn -0.721078 0.100482 -0.68552900000000005
vn -0.721078 0.100482 -0.68552900000000005
vn -0.95342700000000002 0.132858 0.27078799999999997
vn -0.95342700000000002 0.132858 0.27078799999999997
vn -0.21041099999999999 0.029321 0.97717299999999996
vn -0.21041099999999999 0.029321 0.97717299999999996
vn 0.721078 -0.100481 0.68552900000000005
vn 0.721078 -0.100481 0.68552900000000005
vn 0.95342700000000002 -0.13286000000000001 -0.27078600000000003
vn 0.95342700000000002 -0.13286000000000001 -0.27078600000000003
vn 0.21041000000000001 -0.029319999999999999 -0.97717399999999999
vn 0.21041000000000001 -0.029319999999999999 -0.97717399999999999
vn -0.721078 0.100482 -0.68552900000000005
vn -0.721078 0.100482 -0.68552900000000005
vn -0.95342700000000002 0.132856 0.270789
vn -0.95342700000000002 0.132856 0.270789
vn -0.21041099999999999 0.029319999999999999 0.97717299999999996
vn -0.21041099999999999 0.029319999999999999 0.97717299999999996
vn 0.721078 -0.100482 0.68552900000000005
vn 0.721078 -0.100482 0.68552900000000005
vn 0.95342700000000002 -0.13286400000000001 -0.270785
vn 0.95342700000000002 -0.13286400000000001 -0.270785
vn 0.21040900000000001 -0.029319999999999999 -0.97717399999999999
vn 0.21040900000000001 -0.029319999999999999 -0.97717399999999999
vn 0.31054500000000002 0.93134899999999998 -0.190136
vn 0.31054399999999999 0.93134899999999998 -0.190137
vn 0.31054399999999999 0.93134899999999998 -0.190137
vn 0.31054500000000002 0.93134799999999995 -0.190137
vn 0.31054300000000001 0.93134899999999998 -0.190138
vn 0.31054300000000001 0.93134899999999998 -0.190136
vn 0.31054399999999999 0.93134899999999998 -0.190137
vn 0.138015 0.99043000000000003 0
vn 0.138015 0.99043000000000003 9.9999999999999995e-007
vn 0.138015 0.99043000000000003 9.9999999999999995e-007
vn 0.138014 0.99043000000000003 9.9999999999999995e-007
vn 0.138014 0.99043000000000003 0
vn 0.138015 0.99043000000000003 0
vn 0.138015 0.99043000000000003 0
vn -0.721078 0.100481 -0.68552900000000005
vn -0.721078 0.100481 -0.68552900000000005
vn -0.721078 0.100481 -0.68552900000000005
vn -0.721078 0.100481 -0.68552900000000005
vn -0.51814300000000002 -0.77236899999999997 -0.36738799999999999
vn -0.51814300000000002 -0.77236899999999997 -0.36738799999999999
vn -0.51814300000000002 -0.77236899999999997 -0.36738799999999999
vn -0.51814300000000002 -0.77236899999999997 -0.36738799999999999
vn 0.27196700000000001 -0.88247100000000001 0.38376900000000003
vn 0.27196700000000001 -0.88247100000000001 0.38376900000000003
vn 0.27196700000000001 -0.88247100000000001 0.38376900000000003
vn 0.27196700000000001 -0.88247100000000001 0.38376900000000003
vn 0.721078 -0.100482 0.68552900000000005
vn 0.721078 -0.100482 0.68552900000000005
vn 0.721078 -0.100482 0.68552900000000005
vn 0.721078 -0.100482 0.68552900000000005
vn 0.48751699999999998 0.77664900000000003 0.39892899999999998
vn 0.48751699999999998 0.77664900000000003 0.39892899999999998
vn 0.48751699999999998 0.77664900000000003 0.39892899999999998
vn 0.48751699999999998 0.77664900000000003 0.39892899999999998
vn -0.30130800000000002 0.886571 -0.35100500000000001
vn -0.30130800000000002 0.886571 -0.35100500000000001
vn -0.30130800000000002 0.88657200000000003 -0.35100500000000001
vn -0.30130800000000002 0.88657200000000003 -0.35100500000000001
vn -0.72107900000000003 0.100481 -0.68552800000000003
vn -0.72107900000000003 0.100481 -0.68552800000000003
vn -0.72107900000000003 0.100481 -0.68552800000000003
vn -0.72107900000000003 0.100481 -0.68552800000000003
vn 0.0067520000000000002 -0.59655000000000002 -0.80254800000000004
vn 0.0067520000000000002 -0.59655000000000002 -0.80254800000000004
vn 0.0067520000000000002 -0.59655000000000002 -0.80254800000000004
vn 0.0067520000000000002 -0.59655000000000002 -0.80254800000000004
vn 0.70671499999999998 -0.69408899999999996 -0.13709199999999999
vn 0.70671499999999998 -0.69408899999999996 -0.13709199999999999
vn 0.70671499999999998 -0.69408899999999996 -0.13709199999999999
vn 0.70671499999999998 -0.69408899999999996 -0.13709199999999999
vn 0.72107699999999997 -0.100481 0.68552999999999997
vn 0.72107699999999997 -0.100481 0.68552999999999997
vn 0.72107699999999997 -0.100481 0.68552999999999997
vn 0.72107699999999997 -0.100481 0.68552999999999997
vn 0.076973 0.68174199999999996 0.72753199999999996
vn 0.076973 0.68174199999999996 0.72753199999999996
vn 0.076973 0.68174199999999996 0.72753199999999996
vn 0.076973 0.68174199999999996 0.72753199999999996
vn -0.62354500000000002 0.77936099999999997 0.061545000000000002
vn -0.62354500000000002 0.77936099999999997 0.061545000000000002
vn -0.62354500000000002 0.77936099999999997 0.061545000000000002
vn -0.62354500000000002 0.77936099999999997 0.061545000000000002
vn 0.65549599999999997 0.030015 -0.75460199999999999
vn 0.65549599999999997 0.030015 -0.75460199999999999
vn 0.65549500000000005 0.030013999999999999 -0.75460300000000002
vn 0.65549500000000005 0.030013999999999999 -0.75460300000000002
vn 0.060908999999999998 -0.69359099999999996 -0.71779000000000004
vn 0.060908999999999998 -0.69359099999999996 -0.71779000000000004
vn -0.094602000000000006 -0.58397100000000002 -0.80624300000000004
vn -0.11017100000000001 -0.57139499999999999 -0.81324700000000005
vn -0.67423299999999997 -0.72725399999999996 0.12850200000000001
vn -0.67423299999999997 -0.72725399999999996 0.12850200000000001
vn -0.79753799999999997 -0.60286899999999999 -0.021953
vn -0.78792499999999999 -0.61571799999999999 -0.0080929999999999995
vn -0.65549400000000002 -0.030016000000000001 0.75460400000000005
vn -0.65549400000000002 -0.030016000000000001 0.75460400000000005
vn -0.65549500000000005 -0.030016000000000001 0.75460300000000002
vn -0.65549500000000005 -0.030016000000000001 0.75460300000000002
vn -0.060907999999999997 0.69359099999999996 0.71778900000000001
vn -0.060907999999999997 0.69359099999999996 0.71778900000000001
vn 0.025229000000000001 0.65697399999999995 0.75349100000000002
vn 0.015278 0.661547 0.74974799999999997
vn 0.67423200000000005 0.72725399999999996 -0.1285
vn 0.67423200000000005 0.72725399999999996 -0.1285
vn 0.71782500000000005 0.69371799999999995 -0.059020999999999997
vn 0.72310700000000006 0.68893099999999996 -0.049903999999999997
vn 0.65549500000000005 0.030015 -0.75460300000000002
vn 0.65549500000000005 0.030015 -0.75460300000000002
vn -0.25081500000000001 -0.26456800000000003 -0.93118000000000001
vn -0.24709600000000001 -0.27717199999999997 -0.928504
vn -0.94239499999999998 -0.30901099999999998 -0.128078
vn -0.94606100000000004 -0.29640499999999997 -0.13081400000000001
vn -0.65549500000000005 -0.030016000000000001 0.75460300000000002
vn -0.65549500000000005 -0.030016000000000001 0.75460300000000002
vn 0.24730199999999999 0.24448800000000001 0.93758600000000003
vn 0.25633600000000001 0.21634999999999999 0.94206400000000001
vn 0.95950299999999999 0.24854799999999999 0.13258
vn 0.95269499999999996 0.27678900000000001 0.12553900000000001
vn 0.65549500000000005 0.030016000000000001 -0.75460300000000002
vn 0.65549500000000005 0.030016000000000001 -0.75460300000000002
vn -0.31242700000000001 0.028032000000000001 -0.94952800000000004
vn -0.31256800000000001 0.025141 -0.94956300000000005
vn -0.98433300000000001 -0.0056210000000000001 -0.17623
vn -0.98439299999999996 -0.002738 -0.17596400000000001
vn -0.65549500000000005 -0.030016000000000001 0.75460300000000002
vn -0.65549500000000005 -0.030016000000000001 0.75460300000000002
vn 0.31210500000000002 -0.033710999999999998 0.94945000000000002
vn 0.31193399999999999 -0.037043 0.94938100000000003
vn 0.98453299999999999 -0.0062459999999999998 0.17508799999999999
vn 0.98449299999999995 -0.0029229999999999998 0.175398
vn 0.65549500000000005 0.030016000000000001 -0.75460300000000002
vn 0.65549500000000005 0.030016000000000001 -0.75460300000000002
vn -0.30568499999999998 0.13092000000000001 -0.94308899999999996
vn -0.30568499999999998 0.13092000000000001 -0.94308899999999996
vn -0.98112299999999997 0.099995000000000001 -0.16552800000000001
vn -0.98112299999999997 0.099995000000000001 -0.16552800000000001
vn -0.65549500000000005 -0.030016000000000001 0.75460300000000002
vn -0.65549500000000005 -0.030016000000000001 0.75460300000000002
vn 0.30568499999999998 -0.13092000000000001 0.94308899999999996
vn 0.30568499999999998 -0.13092000000000001 0.94308899999999996
vn 0.98112299999999997 -0.099990999999999997 0.16552800000000001
vn 0.98112299999999997 -0.099990999999999997 0.16552800000000001
vn 0.65549500000000005 0.030015 -0.75460300000000002
vn 0.65549500000000005 0.030015 -0.75460300000000002
vn -0.30568499999999998 0.13092100000000001 -0.94308899999999996
vn -0.30568499999999998 0.13092100000000001 -0.94308899999999996
vn -0.98112299999999997 0.099992999999999999 -0.16552800000000001
vn -0.98112299999999997 0.099992999999999999 -0.16552800000000001
vn -0.65549500000000005 -0.030015 0.75460300000000002
vn -0.65549500000000005 -0.030015 0.75460300000000002
vn 0.30568499999999998 -0.13092100000000001 0.94308899999999996
vn 0.30568499999999998 -0.13092100000000001 0.94308899999999996
vn 0.98112299999999997 -0.099989999999999996 0.16552800000000001
vn 0.98112299999999997 -0.099989999999999996 0.16552800000000001
vn 0.65549500000000005 0.030016000000000001 -0.75460300000000002
vn 0.65549500000000005 0.030016000000000001 -0.75460300000000002
vn -0.30568499999999998 0.13092000000000001 -0.94308899999999996
vn -0.30568499999999998 0.13092000000000001 -0.94308899999999996
vn -0.98112299999999997 0.099990999999999997 -0.16552800000000001
vn -0.98112299999999997 0.099990999999999997 -0.16552800000000001
vn -0.65549500000000005 -0.030013000000000001 0.75460300000000002
vn -0.65549400000000002 -0.030013000000000001 0.75460300000000002
vn 0.30568499999999998 -0.13092200000000001 0.94308899999999996
vn 0.30568499999999998 -0.13092200000000001 0.94308899999999996
vn 0.98112299999999997 -0.099990999999999997 0.16552800000000001
vn 0.98112299999999997 -0.099990999999999997 0.16552800000000001
vn 0.27544200000000002 0.92087699999999995 0.275895
vn 0.27544200000000002 0.92087699999999995 0.27589399999999997
vn 0.27544200000000002 0.92087699999999995 0.275895
vn 0.27544299999999999 0.92087600000000003 0.275895
vn 0.27544299999999999 0.92087600000000003 0.275895
vn 0.27544200000000002 0.92087699999999995 0.27589399999999997
vn 0.27544200000000002 0.92087699999999995 0.27589399999999997
vn 0.082241999999999996 0.99043000000000003 0.110836
vn 0.082240999999999995 0.99043000000000003 0.110836
vn 0.082240999999999995 0.99043000000000003 0.110836
vn 0.082240999999999995 0.99043000000000003 0.110836
vn 0.082240999999999995 0.99043000000000003 0.110835
vn 0.082240999999999995 0.99043000000000003 0.110836
vn 0.082240999999999995 0.99043000000000003 0.110835
vn 0.65549500000000005 0.030016000000000001 -0.75460300000000002
vn 0.65549500000000005 0.030016000000000001 -0.75460300000000002
vn 0.65549500000000005 0.030016000000000001 -0.75460300000000002
vn 0.65549500000000005 0.030016000000000001 -0.75460300000000002
vn 0.28188299999999999 -0.81052599999999997 -0.51341000000000003
vn 0.28188299999999999 -0.81052599999999997 -0.51341000000000003
vn 0.28188299999999999 -0.81052599999999997 -0.51341000000000003
vn 0.28188299999999999 -0.81052599999999997 -0.51341000000000003
vn -0.436363 -0.84341500000000003 0.31343100000000002
vn -0.436363 -0.84341500000000003 0.31343100000000002
vn -0.436363 -0.84341500000000003 0.31343100000000002
vn -0.436363 -0.84341500000000003 0.31343100000000002
vn -0.65549500000000005 -0.030013999999999999 0.75460300000000002
vn -0.65549500000000005 -0.030013999999999999 0.75460300000000002
vn -0.65549500000000005 -0.030013999999999999 0.75460300000000002
vn -0.65549500000000005 -0.030013999999999999 0.75460300000000002
vn -0.31445099999999998 0.81651200000000002 0.48417900000000003
vn -0.31445099999999998 0.81651200000000002 0.48417900000000003
vn -0.31445099999999998 0.81651200000000002 0.48417900000000003
vn -0.31445099999999998 0.81651200000000002 0.48417900000000003
vn 0.40262799999999999 0.84934799999999999 -0.34132000000000001
vn 0.40262799999999999 0.84934699999999996 -0.34132000000000001
vn 0.40262799999999999 0.84934799999999999 -0.34132000000000001
vn 0.40262799999999999 0.84934799999999999 -0.34132000000000001
vn 0.65549500000000005 0.030016000000000001 -0.75460300000000002
vn 0.65549500000000005 0.030016000000000001 -0.75460300000000002
vn 0.65549500000000005 0.030016000000000001 -0.75460300000000002
vn 0.65549500000000005 0.030016000000000001 -0.75460300000000002
vn 0.75407999999999997 -0.65662699999999996 -0.014277
vn 0.75407999999999997 -0.65662699999999996 -0.014277
vn 0.75407999999999997 -0.65662699999999996 -0.014277
vn 0.75407999999999997 -0.65662699999999996 -0.014277
vn 0.11777899999999999 -0.68576300000000001 0.71823199999999998
vn 0.11777899999999999 -0.68576300000000001 0.71823199999999998
vn 0.11777899999999999 -0.68576300000000001 0.71823199999999998
vn 0.11777899999999999 -0.68576300000000001 0.71823199999999998
vn -0.65549599999999997 -0.030013999999999999 0.75460199999999999
vn -0.65549599999999997 -0.030013999999999999 0.75460199999999999
vn -0.65549599999999997 -0.030013999999999999 0.75460199999999999
vn -0.65549599999999997 -0.030013999999999999 0.75460199999999999
vn -0.66882299999999995 0.73769799999999996 0.092075000000000004
vn -0.66882299999999995 0.73769799999999996 0.092075000000000004
vn -0.66882299999999995 0.73769799999999996 0.092075000000000004
vn -0.66882299999999995 0.73769799999999996 0.092075000000000004
vn -0.032013 0.76686100000000001 -0.641015
vn -0.032013 0.76686100000000001 -0.641015
vn -0.032013 0.76686100000000001 -0.641015
vn -0.032013 0.76686100000000001 -0.641015
vn 0.936334 0 -0.35111199999999998
vn 0.56729300000000005 0 -0.82351600000000003
vn 0.56216999999999995 0.13961399999999999 -0.81515199999999999
vn 0.92445100000000002 0.10272100000000001 -0.367205
vn 0.079028000000000001 0.040902000000000001 -0.99603299999999995
vn 0.060166999999999998 0.146951 -0.98731199999999997
vn -0.33980500000000002 0.078621999999999997 -0.93720400000000004
vn -0.35292099999999998 0.15978400000000001 -0.92190899999999998
vn -0.72746599999999995 0.035895999999999997 -0.68520499999999995
vn -0.72169000000000005 0.14191200000000001 -0.67751300000000003
vn -0.97134799999999999 0.017503000000000001 -0.237015
vn -0.96023400000000003 0.15711800000000001 -0.23079
vn -0.92061999999999999 0.0087989999999999995 0.39036199999999999
vn -0.92760200000000004 0.121571 0.35323500000000002
vn -0.76993999999999996 0 0.63811700000000005
vn -0.76229599999999997 0.087027999999999994 0.641351
vn -0.354605 0 0.93501599999999996
vn -0.35011500000000001 0.100301 0.93132099999999995
vn 0.043490000000000001 0 0.999054
vn 0.059642000000000001 0.122942 0.99061999999999995
vn 0.56806500000000004 0 0.82298400000000005
vn 0.56267199999999995 0.145592 0.81375900000000001
vn 0.93847100000000006 0 0.34535700000000003
vn 0.92247199999999996 0.111098 0.36973299999999998
vn 1 0 9.9999999999999995e-007
vn 0.99715600000000004 0.075360999999999997 9.9999999999999995e-007
vn 0 -1 0
vn 0 -1 0
vn 0 -1 0
vn 0 -1 0
vn 0 -1 0
vn 0 -1 0
vn 0 -1 0
vn 0 -1 0
vn 0 -1 0
vn 0 -1 0
vn 0 -1 0
vn 0 -1 -0
vn 0 -1 -0
vn 0 -1 0
vn 0.081430000000000002 0.99586699999999995 -0.040228
vn 0.048835000000000003 0.99627100000000002 -0.071134000000000003
vn 0.00029399999999999999 1 0.000137
vn 0.005457 0.99584700000000004 -0.090884999999999994
vn -0.032224999999999997 0.99585800000000002 -0.085019999999999998
vn -0.068076999999999999 0.99585400000000002 -0.060326999999999999
vn -0.088338 0.99585299999999999 -0.021777999999999999
vn -0.088338 0.99585199999999996 0.021777999999999999
vn -0.068076999999999999 0.99585400000000002 0.060326999999999999
vn -0.032224999999999997 0.99585800000000002 0.085019999999999998
vn 0.010972000000000001 0.99586200000000002 0.090209999999999999
vn 0.051610000000000003 0.99586600000000003 0.074744000000000005
vn 0.080403000000000002 0.995869 0.042188999999999997
vn 0.090787999999999994 0.99587000000000003 0
vn -0.024264000000000001 -0.99934500000000004 -0.026838999999999998
vn -0.024264000000000001 -0.99934500000000004 -0.026838999999999998
vn -0.024264000000000001 -0.99934500000000004 -0.026838999999999998
vn -0.024264000000000001 -0.99934500000000004 -0.026838999999999998
vn 0.039752000000000003 -0.99910500000000002 0.01444
vn 0.039752000000000003 -0.99910500000000002 0.01444
vn 0.039752000000000003 -0.99910500000000002 0.01444
vn 0.039752000000000003 -0.99910500000000002 0.01444
vn -0 -1 9.9999999999999995e-007
vn -0 -1 9.9999999999999995e-007
vn -0 -1 9.9999999999999995e-007
vn -0 -1 9.9999999999999995e-007
vn 9.9999999999999995e-007 -1 9.9999999999999995e-007
vn 9.9999999999999995e-007 -1 9.9999999999999995e-007
vn 9.9999999999999995e-007 -1 9.9999999999999995e-007
vn 9.9999999999999995e-007 -1 9.9999999999999995e-007
vn 9.9999999999999995e-007 -1 9.9999999999999995e-007
vn 9.9999999999999995e-007 -1 9.9999999999999995e-007
vn 9.9999999999999995e-007 -1 9.9999999999999995e-007
vn 9.9999999999999995e-007 -1 9.9999999999999995e-007
vn 9.9999999999999995e-007 -1 -0
vn 9.9999999999999995e-007 -1 -0
vn 9.9999999999999995e-007 -1 -0
vn 9.9999999999999995e-007 -1 -0
vn 9.9999999999999995e-007 -1 -9.9999999999999995e-007
vn 9.9999999999999995e-007 -1 -9.9999999999999995e-007
vn 9.9999999999999995e-007 -1 -9.9999999999999995e-007
vn 9.9999999999999995e-007 -1 -9.9999999999999995e-007
vn 9.9999999999999995e-007 -1 -9.9999999999999995e-007
vn 9.9999999999999995e-007 -1 -9.9999999999999995e-007
vn 9.9999999999999995e-007 -1 -9.9999999999999995e-007
vn 9.9999999999999995e-007 -1 -9.9999999999999995e-007
vn 0 -1 -9.9999999999999995e-007
vn 0 -1 -9.9999999999999995e-007
vn 0 -1 -9.9999999999999995e-007
vn 0 -1 -9.9999999999999995e-007
vn -0 -1 -0
vn -0 -1 -0
vn -0 -1 -0
vn -0 -1 -0
vn -9.9999999999999995e-007 -1 -0
vn -9.9999999999999995e-007 -1 -0
vn -9.9999999999999995e-007 -1 -0
vn -9.9999999999999995e-007 -1 -0
vn -9.9999999999999995e-007 -1 -0
vn -9.9999999999999995e-007 -1 -0
vn -9.9999999999999995e-007 -1 -0
vn -9.9999999999999995e-007 -1 -0
vn -9.9999999999999995e-007 -1 9.9999999999999995e-007
vn -9.9999999999999995e-007 -1 9.9999999999999995e-007
vn -9.9999999999999995e-007 -1 9.9999999999999995e-007
vn -9.9999999999999995e-007 -1 9.9999999999999995e-007
vn -0.65078100000000005 -0.64850600000000003 0.39487299999999997
vn -0.65078100000000005 -0.64850600000000003 0.39487299999999997
vn -0.65078100000000005 -0.64850600000000003 0.39487299999999997
vn -0.65078100000000005 -0.64850600000000003 0.39487299999999997
vn -0.10281700000000001 -0.68136600000000003 0.72468500000000002
vn -0.10281700000000001 -0.68136600000000003 0.72468500000000002
vn -0.10281700000000001 -0.68136600000000003 0.72468500000000002
vn -0.10281700000000001 -0.68136600000000003 0.72468500000000002
vn -0.033264000000000002 -0.63907199999999997 0.76842699999999997
vn -0.033264000000000002 -0.63907199999999997 0.768428
vn -0.033264000000000002 -0.63907199999999997 0.76842699999999997
vn -0.033264000000000002 -0.63907199999999997 0.768428
vn 0.52848799999999996 -0.60600500000000002 0.59452300000000002
vn 0.52848799999999996 -0.60600500000000002 0.59452300000000002
vn 0.52848799999999996 -0.60600500000000002 0.59452300000000002
vn 0.52848799999999996 -0.60600500000000002 0.59452300000000002
vn 0.671933 -0.58987599999999996 0.44783099999999998
vn 0.671933 -0.58987599999999996 0.44783099999999998
vn 0.671933 -0.58987599999999996 0.44783200000000001
vn 0.671933 -0.58987599999999996 0.44783099999999998
vn 0.78673599999999999 -0.609352 -0.098670999999999995
vn 0.78673599999999999 -0.609352 -0.098670999999999995
vn 0.78673700000000002 -0.609352 -0.098670999999999995
vn 0.78673599999999999 -0.609352 -0.098670999999999995
vn 0.78025900000000004 -0.47275499999999998 -0.40951100000000001
vn 0.78025900000000004 -0.47275499999999998 -0.40951100000000001
vn 0.78025900000000004 -0.47275499999999998 -0.40951100000000001
vn 0.78025900000000004 -0.47275499999999998 -0.40951100000000001
vn 0.51391699999999996 -0.52555099999999999 -0.67800099999999996
vn 0.51391699999999996 -0.52555099999999999 -0.67800099999999996
vn 0.51391799999999999 -0.52555099999999999 -0.67800099999999996
vn 0.51391699999999996 -0.52555099999999999 -0.67800099999999996
vn 0.054994000000000001 -0.53566800000000003 -0.84263600000000005
vn 0.054994000000000001 -0.53566800000000003 -0.84263600000000005
vn 0.054994000000000001 -0.53566800000000003 -0.84263600000000005
vn 0.054994000000000001 -0.53566800000000003 -0.84263600000000005
vn -0.161243 -0.62967499999999998 -0.75994099999999998
vn -0.161243 -0.62967499999999998 -0.75994099999999998
vn -0.161243 -0.62967499999999998 -0.75994099999999998
vn -0.161243 -0.62967499999999998 -0.75994099999999998
vn -0.65432000000000001 -0.63098799999999999 -0.41679699999999997
vn -0.65432000000000001 -0.63098799999999999 -0.41679699999999997
vn -0.65432000000000001 -0.63098799999999999 -0.41679699999999997
vn -0.65432000000000001 -0.63098799999999999 -0.41679699999999997
vn -0.86080599999999996 -0.46259800000000001 -0.21217
vn -0.86080599999999996 -0.46259800000000001 -0.21217
vn -0.86080599999999996 -0.46259800000000001 -0.21217
vn -0.86080599999999996 -0.46259800000000001 -0.21217
vn -0.86080599999999996 -0.46259800000000001 0.21217
vn -0.86080599999999996 -0.46259800000000001 0.21217
vn -0.86080599999999996 -0.46259800000000001 0.21217
vn -0.86080599999999996 -0.46259800000000001 0.21217
vn 0.89817400000000003 0.22514300000000001 -0.37761699999999998
vn 0.98669700000000005 0.16256899999999999 9.9999999999999995e-007
vn 0.889513 0.23826700000000001 0.38986599999999999
vn 0.53538399999999997 0.32579000000000002 0.77924700000000002
vn 0.076490000000000002 0.26322600000000002 0.96169700000000002
vn -0.35201399999999999 0.21800600000000001 0.91025299999999998
vn -0.74616099999999996 0.188504 0.63852100000000001
vn -0.91876899999999995 0.24870100000000001 0.30661100000000002
vn -0.91184799999999999 0.33115299999999998 -0.24263499999999999
vn -0.70250900000000005 0.27106999999999998 -0.65802899999999998
vn -0.354661 0.26178800000000002 -0.89759800000000001
vn 0.038942999999999998 0.27140199999999998 -0.96167800000000003
vn 0.54251099999999997 0.31007600000000002 -0.78072699999999995
vn 0.80417099999999997 0 0.59439799999999998
vn 0.80417099999999997 0 0.59439799999999998
vn 0.80417000000000005 -9.9999999999999995e-007 0.59439900000000001
vn 0.80417000000000005 -9.9999999999999995e-007 0.59440000000000004
vn 0.70478499999999999 -0.70934900000000001 -0.010121
vn 0.70478499999999999 -0.70934900000000001 -0.010121
vn 0.78318100000000002 -0.59814699999999998 -0.169846
vn 0.789219 -0.58537499999999998 -0.18565899999999999
vn -0.19709499999999999 -0.70934900000000001 -0.67674100000000004
vn -0.19709499999999999 -0.70934900000000001 -0.67674100000000004
vn -0.054051000000000002 -0.58537799999999995 -0.80895700000000004
vn -0.067395999999999998 -0.59814999999999996 -0.79854499999999995
vn -0.80417099999999997 -1.9999999999999999e-006 -0.59439900000000001
vn -0.80417099999999997 -1.9999999999999999e-006 -0.59439900000000001
vn -0.80417000000000005 -1.9999999999999999e-006 -0.59440000000000004
vn -0.80417000000000005 -1.9999999999999999e-006 -0.59440000000000004
vn -0.70478600000000002 0.70934799999999998 0.010121
vn -0.70478600000000002 0.70934799999999998 0.010121
vn -0.73442499999999999 0.67157199999999995 0.098036999999999999
vn -0.73137300000000005 0.67628699999999997 0.087917999999999996
vn 0.19709499999999999 0.70934699999999995 0.67674199999999995
vn 0.19709499999999999 0.70934699999999995 0.67674199999999995
vn 0.130522 0.67628699999999997 0.72498300000000004
vn 0.121744 0.67157199999999995 0.73086899999999999
vn 0.80417000000000005 -9.9999999999999995e-007 0.59439900000000001
vn 0.80417000000000005 -9.9999999999999995e-007 0.59440000000000004
vn 0.90253799999999995 -0.27799200000000002 -0.32885700000000001
vn 0.89988199999999996 -0.29061700000000001 -0.32519700000000001
vn 0.046880999999999999 -0.29061999999999999 -0.95568900000000001
vn 0.049599999999999998 -0.27799499999999999 -0.95930099999999996
vn -0.80416900000000002 9.9999999999999995e-007 -0.59440000000000004
vn -0.80416900000000002 9.9999999999999995e-007 -0.59440000000000004
vn -0.90964400000000001 0.25813199999999997 0.32544800000000002
vn -0.91402300000000003 0.22989799999999999 0.334229
vn -0.051366000000000002 0.22989699999999999 0.971858
vn -0.044255999999999997 0.258131 0.96509599999999995
vn 0.80417000000000005 0 0.59439900000000001
vn 0.80417000000000005 -0 0.59439900000000001
vn 0.92248600000000003 0.015462 -0.38572200000000001
vn 0.92244499999999996 0.012574999999999999 -0.38592399999999999
vn 0.098315 0.012576 -0.99507599999999996
vn 0.098110000000000003 0.015464 -0.99505600000000005
vn -0.80417000000000005 9.9999999999999995e-007 -0.59440000000000004
vn -0.80416900000000002 9.9999999999999995e-007 -0.59440000000000004
vn -0.92255900000000002 -0.021135999999999999 0.38527600000000001
vn -0.92257900000000004 -0.024464 0.38503300000000001
vn -0.097423999999999997 -0.024462999999999999 0.99494199999999999
vn -0.097663 -0.021135999999999999 0.99499499999999996
vn 0.80417000000000005 1.9999999999999999e-006 0.59439900000000001
vn 0.80417000000000005 1.9999999999999999e-006 0.59439900000000001
vn 0.91888099999999995 0.118286 -0.376386
vn 0.91888099999999995 0.118286 -0.376386
vn 0.090244000000000005 0.118287 -0.98887000000000003
vn 0.090244000000000005 0.118287 -0.98887000000000003
vn -0.80417000000000005 9.9999999999999995e-007 -0.59440000000000004
vn -0.80417000000000005 9.9999999999999995e-007 -0.59440000000000004
vn -0.91888000000000003 -0.118287 0.37638700000000003
vn -0.91888000000000003 -0.118287 0.37638700000000003
vn -0.090243000000000004 -0.118287 0.98887000000000003
vn -0.090243000000000004 -0.118287 0.98887000000000003
vn 0.80417000000000005 -1.9999999999999999e-006 0.59439900000000001
vn 0.80417000000000005 -1.9999999999999999e-006 0.59439900000000001
vn 0.91888000000000003 0.11828900000000001 -0.376386
vn 0.91888000000000003 0.11828900000000001 -0.376386
vn 0.090244000000000005 0.118287 -0.98887000000000003
vn 0.090244000000000005 0.118287 -0.98887000000000003
vn -0.80417000000000005 -3.0000000000000001e-006 -0.59439900000000001
vn -0.80417000000000005 -3.0000000000000001e-006 -0.59439900000000001
vn -0.91888000000000003 -0.118283 0.37638899999999997
vn -0.91888000000000003 -0.118283 0.37638899999999997
vn -0.090244000000000005 -0.118287 0.98887000000000003
vn -0.090244000000000005 -0.118287 0.98887000000000003
vn 0.80417000000000005 -1.9999999999999999e-006 0.59439900000000001
vn 0.80417000000000005 -1.9999999999999999e-006 0.59439900000000001
vn 0.91888000000000003 0.118288 -0.37638700000000003
vn 0.91888000000000003 0.118288 -0.37638700000000003
vn 0.090244000000000005 0.118285 -0.98887000000000003
vn 0.090244000000000005 0.118285 -0.98887000000000003
vn -0.80417099999999997 -9.0000000000000002e-006 -0.59439799999999998
vn -0.80417099999999997 -9.0000000000000002e-006 -0.59439799999999998
vn -0.91888000000000003 -0.118284 0.37638899999999997
vn -0.91888000000000003 -0.118284 0.37638899999999997
vn -0.090244000000000005 -0.118288 0.98887000000000003
vn -0.090244000000000005 -0.118288 0.98887000000000003
vn -0.23293700000000001 0.920014 0.31514300000000001
vn -0.232934 0.92001500000000003 0.315141
vn -0.232936 0.920014 0.31514399999999998
vn -0.23293900000000001 0.92001200000000005 0.31514700000000001
vn -0.23293700000000001 0.92001299999999997 0.31514500000000001
vn -0.232936 0.920014 0.31514399999999998
vn -0.232936 0.92001299999999997 0.31514500000000001
vn -0.082035999999999998 0.99043000000000003 0.110987
vn -0.082034999999999997 0.99043000000000003 0.110987
vn -0.082035999999999998 0.99043000000000003 0.110988
vn -0.082035999999999998 0.99043000000000003 0.110988
vn -0.082035999999999998 0.99043000000000003 0.110987
vn -0.082034999999999997 0.99043000000000003 0.110988
vn -0.082035999999999998 0.99043000000000003 0.110989
vn 0.80417000000000005 0 0.59440000000000004
vn 0.80417000000000005 0 0.59440000000000004
vn 0.80417000000000005 0 0.59440000000000004
vn 0.80417000000000005 0 0.59440000000000004
vn 0.51582300000000003 -0.82693300000000003 0.22385099999999999
vn 0.51582300000000003 -0.82693300000000003 0.22385099999999999
vn 0.51582300000000003 -0.82693300000000003 0.22385099999999999
vn 0.51582300000000003 -0.82693300000000003 0.22385099999999999
vn -0.36533100000000002 -0.82693300000000003 -0.42745300000000003
vn -0.36533100000000002 -0.826932 -0.42745300000000003
vn -0.36533100000000002 -0.82693300000000003 -0.42745300000000003
vn -0.36533100000000002 -0.826932 -0.42745300000000003
vn -0.80416900000000002 -9.9999999999999995e-007 -0.59440000000000004
vn -0.80416900000000002 -9.9999999999999995e-007 -0.59440000000000004
vn -0.80416900000000002 -9.9999999999999995e-007 -0.59440000000000004
vn -0.80416900000000002 -9.9999999999999995e-007 -0.59440000000000004
vn -0.48910799999999999 0.83304 -0.25849299999999997
vn -0.48910799999999999 0.83304 -0.25849299999999997
vn -0.48910799999999999 0.83304 -0.25849299999999997
vn -0.48910799999999999 0.83304 -0.25849299999999997
vn 0.39061200000000001 0.83304100000000003 0.39174700000000001
vn 0.39061200000000001 0.83304100000000003 0.39174700000000001
vn 0.39061200000000001 0.83304100000000003 0.39174700000000001
vn 0.39061200000000001 0.83304100000000003 0.39174700000000001
vn 0.80417099999999997 -3.0000000000000001e-006 0.59439900000000001
vn 0.80417000000000005 -3.0000000000000001e-006 0.59439900000000001
vn 0.80417099999999997 -3.0000000000000001e-006 0.59439900000000001
vn 0.80417099999999997 -3.0000000000000001e-006 0.59439900000000001
vn 0.058799999999999998 -0.67332599999999998 0.73700399999999999
vn 0.058799999999999998 -0.67332599999999998 0.73700399999999999
vn 0.058799999999999998 -0.67332599999999998 0.73700399999999999
vn 0.058799999999999998 -0.67332599999999998 0.73700399999999999
vn -0.72182100000000005 -0.67332800000000004 0.16001099999999999
vn -0.72182100000000005 -0.67332800000000004 0.16001099999999999
vn -0.72182100000000005 -0.67332800000000004 0.16001099999999999
vn -0.72182100000000005 -0.67332800000000004 0.16001099999999999
vn -0.80417099999999997 3.0000000000000001e-006 -0.59439799999999998
vn -0.80417099999999997 3.0000000000000001e-006 -0.59439799999999998
vn -0.80417099999999997 3.0000000000000001e-006 -0.59439799999999998
vn -0.80417099999999997 3.0000000000000001e-006 -0.59439799999999998
vn -0.12785199999999999 0.75406899999999999 -0.644231
vn -0.12785199999999999 0.75406899999999999 -0.644231
vn -0.12785199999999999 0.75406899999999999 -0.644231
vn -0.12785199999999999 0.75406899999999999 -0.644231
vn 0.65339100000000006 0.75407000000000002 -0.066775000000000001
vn 0.65339100000000006 0.75407000000000002 -0.066775000000000001
vn 0.65339100000000006 0.75407000000000002 -0.066775000000000001
vn 0.65339100000000006 0.75407000000000002 -0.066775000000000001
vn -0.73401799999999995 0.0016230000000000001 0.67912799999999995
vn -0.73401799999999995 0.0016230000000000001 0.67912799999999995
vn -0.73401799999999995 0.0016230000000000001 0.67912799999999995
vn -0.73401799999999995 0.0016230000000000001 0.67912799999999995
vn -0.18299000000000001 -0.75496399999999997 0.62971699999999997
vn -0.18299000000000001 -0.75496399999999997 0.62971699999999997
vn -0.032315999999999998 -0.665848 0.74538700000000002
vn -0.016924999999999999 -0.65515299999999999 0.75530699999999995
vn 0.64021600000000001 -0.75678199999999995 -0.13192799999999999
vn 0.64021600000000001 -0.75678199999999995 -0.13192799999999999
vn 0.75277799999999995 -0.65685800000000005 0.043158000000000002
vn 0.744058 -0.66756700000000002 0.027067999999999998
vn 0.73401700000000003 -0.0016249999999999999 -0.67912899999999998
vn 0.73401700000000003 -0.0016249999999999999 -0.67912899999999998
vn 0.73401700000000003 -0.001621 -0.67913000000000001
vn 0.73401700000000003 -0.001621 -0.67912899999999998
vn 0.18299099999999999 0.75496300000000005 -0.629718
vn 0.18299099999999999 0.75496300000000005 -0.629718
vn 0.099450999999999998 0.72821499999999995 -0.678095
vn 0.109166 0.73168299999999997 -0.67284699999999997
vn -0.64021099999999997 0.75678599999999996 0.13192799999999999
vn -0.64021099999999997 0.75678599999999996 0.13192799999999999
vn -0.67753799999999997 0.73342600000000002 0.055030000000000003
vn -0.68202399999999996 0.72994700000000001 0.044944999999999999
vn -0.73401799999999995 0.001622 0.67912799999999995
vn -0.73401799999999995 0.001622 0.67912799999999995
vn 0.127334 -0.372143 0.9194
vn 0.12320299999999999 -0.38412800000000002 0.91502300000000003
vn 0.90178999999999998 -0.38585399999999997 0.19465499999999999
vn 0.90586199999999995 -0.37386900000000001 0.19908600000000001
vn 0.734016 -0.001622 -0.67913000000000001
vn 0.734016 -0.0016230000000000001 -0.67913000000000001
vn -0.124311 0.35259400000000002 -0.92748299999999995
vn -0.13442799999999999 0.32574399999999998 -0.93585300000000005
vn -0.92182600000000003 0.32749 -0.20733199999999999
vn -0.91420199999999996 0.35434700000000002 -0.196656
vn -0.73401799999999995 0.0016230000000000001 0.67912799999999995
vn -0.73401799999999995 0.0016230000000000001 0.67912799999999995
vn 0.203679 -0.087859000000000007 0.97508700000000004
vn 0.20364399999999999 -0.090743000000000004 0.974831
vn 0.95587999999999995 -0.092405000000000001 0.27884700000000001
vn 0.95613999999999999 -0.089522000000000004 0.278895
vn 0.734016 -0.001624 -0.67913000000000001
vn 0.734016 -0.001624 -0.67913000000000001
vn -0.203706 0.082191 -0.975576
vn -0.20374200000000001 0.078865000000000005 -0.97584300000000002
vn -0.95691000000000004 0.080530000000000004 -0.27899499999999999
vn -0.95663900000000002 0.083854999999999999 -0.278945
vn -0.73401700000000003 0.0016280000000000001 0.67913000000000001
vn -0.73401700000000003 0.0016280000000000001 0.67913000000000001
vn 0.203815 0.015379 0.97888900000000001
vn 0.203815 0.015379 0.97888900000000001
vn 0.96016500000000005 0.013708 0.27909800000000001
vn 0.96016500000000005 0.013708 0.27909800000000001
vn 0.73401700000000003 -0.001624 -0.67912899999999998
vn 0.73401700000000003 -0.001624 -0.67912899999999998
vn -0.203818 -0.015379 -0.97888799999999998
vn -0.203818 -0.015379 -0.97888799999999998
vn -0.96016500000000005 -0.013707 -0.27909800000000001
vn -0.96016500000000005 -0.013707 -0.27909800000000001
vn -0.73401700000000003 0.0016199999999999999 0.67912899999999998
vn -0.73401700000000003 0.0016199999999999999 0.67912899999999998
vn 0.203815 0.01538 0.97888900000000001
vn 0.203815 0.01538 0.97888900000000001
vn 0.96016500000000005 0.013705 0.27909699999999998
vn 0.96016500000000005 0.013705 0.27909699999999998
vn 0.73401799999999995 -0.001624 -0.67912799999999995
vn 0.73401799999999995 -0.001624 -0.67912899999999998
vn -0.203816 -0.015379 -0.97888799999999998
vn -0.203816 -0.015379 -0.97888799999999998
vn -0.96016500000000005 -0.013703999999999999 -0.27909800000000001
vn -0.96016500000000005 -0.013703999999999999 -0.27909800000000001
vn -0.73401799999999995 0.0016149999999999999 0.67912899999999998
vn -0.73401799999999995 0.0016149999999999999 0.67912899999999998
vn 0.203815 0.015381000000000001 0.97888900000000001
vn 0.203815 0.015381000000000001 0.97888900000000001
vn 0.96016500000000005 0.013705 0.27909600000000001
vn 0.96016500000000005 0.013705 0.27909600000000001
vn 0.73401799999999995 -0.001619 -0.67912799999999995
vn 0.73401799999999995 -0.001619 -0.67912799999999995
vn -0.203816 -0.01538 -0.97888900000000001
vn -0.203816 -0.01538 -0.97888799999999998
vn -0.96016500000000005 -0.013705999999999999 -0.27909800000000001
vn -0.96016500000000005 -0.013705999999999999 -0.27909800000000001
vn -0.18731400000000001 0.96072400000000002 -0.20475099999999999
vn -0.18731600000000001 0.96072400000000002 -0.20475099999999999
vn -0.18731600000000001 0.96072400000000002 -0.20475099999999999
vn -0.18731600000000001 0.96072400000000002 -0.20475099999999999
vn -0.18731700000000001 0.96072400000000002 -0.20474999999999999
vn -0.18731600000000001 0.96072400000000002 -0.20475099999999999
vn -0.18731700000000001 0.96072299999999999 -0.20475199999999999
vn -0.010333 0.99985500000000005 -0.013558000000000001
vn -0.010333 0.99985500000000005 -0.013557
vn -0.010333 0.99985500000000005 -0.013558000000000001
vn -0.010331999999999999 0.99985500000000005 -0.013557
vn -0.010331999999999999 0.99985500000000005 -0.013558000000000001
vn -0.010333 0.99985500000000005 -0.013558000000000001
vn -0.010333 0.99985500000000005 -0.013558000000000001
vn -0.73401799999999995 0.001627 0.67912899999999998
vn -0.73401799999999995 0.001627 0.67912899999999998
vn -0.73401799999999995 0.001627 0.67912899999999998
vn -0.73401799999999995 0.001627 0.67912899999999998
vn -0.38586100000000001 -0.83528800000000003 0.39167000000000002
vn -0.38586100000000001 -0.83528800000000003 0.39167000000000002
vn -0.38586100000000001 -0.83528800000000003 0.39167000000000002
vn -0.38586100000000001 -0.83528800000000003 0.39167000000000002
vn 0.41842499999999999 -0.83706800000000003 -0.35247200000000001
vn 0.41842499999999999 -0.83706800000000003 -0.35247200000000001
vn 0.41842499999999999 -0.83706800000000003 -0.35247200000000001
vn 0.41842499999999999 -0.83706800000000003 -0.35247200000000001
vn 0.73401700000000003 -0.0016230000000000001 -0.67913000000000001
vn 0.73401700000000003 -0.0016230000000000001 -0.67913000000000001
vn 0.73401700000000003 -0.0016230000000000001 -0.67913000000000001
vn 0.73401700000000003 -0.0016230000000000001 -0.67913000000000001
vn 0.41519299999999998 0.83604999999999996 -0.35865799999999998
vn 0.41519299999999998 0.83604999999999996 -0.35865799999999998
vn 0.41519299999999998 0.83604999999999996 -0.35865799999999998
vn 0.41519299999999998 0.83604999999999996 -0.35865799999999998
vn -0.38778699999999999 0.83782400000000001 0.38428200000000001
vn -0.38778699999999999 0.83782400000000001 0.38428200000000001
vn -0.38778699999999999 0.83782400000000001 0.38428200000000001
vn -0.38778699999999999 0.83782400000000001 0.38428200000000001
vn -0.734016 0.0016260000000000001 0.67913000000000001
vn -0.734016 0.0016260000000000001 0.67913000000000001
vn -0.734016 0.0016260000000000001 0.67913000000000001
vn -0.734016 0.0016260000000000001 0.67913000000000001
vn -0.78837199999999996 -0.59998399999999996 -0.13597400000000001
vn -0.78837199999999996 -0.59998399999999996 -0.13597400000000001
vn -0.78837199999999996 -0.59998399999999996 -0.13597400000000001
vn -0.78837199999999996 -0.59998399999999996 -0.13597400000000001
vn -0.075847999999999999 -0.60156200000000004 -0.79521699999999995
vn -0.075847999999999999 -0.60156200000000004 -0.79521699999999995
vn -0.075847999999999999 -0.60156200000000004 -0.79521799999999998
vn -0.075847999999999999 -0.60156100000000001 -0.79521699999999995
vn 0.73401899999999998 -0.0016230000000000001 -0.67912700000000004
vn 0.73401899999999998 -0.0016230000000000001 -0.67912700000000004
vn 0.73401899999999998 -0.0016230000000000001 -0.67912700000000004
vn 0.73401899999999998 -0.0016230000000000001 -0.67912700000000004
vn 0.71744699999999995 0.69415000000000004 0.058525000000000001
vn 0.71744699999999995 0.69415000000000004 0.058525000000000001
vn 0.71744699999999995 0.69415000000000004 0.058525000000000001
vn 0.71744699999999995 0.69415000000000004 0.058525000000000001
vn 0.0043550000000000004 0.69572699999999998 0.71829399999999999
vn 0.0043550000000000004 0.69572699999999998 0.71829299999999996
vn 0.0043550000000000004 0.69572699999999998 0.71829299999999996
vn 0.0043550000000000004 0.69572699999999998 0.71829399999999999
#end 755 normals 

#begin 318 faces
usemtl initialShadingGroup
g pCylinder21
s 1
f 1/7/1 2/8/2 8/15/3 7/14/4 
s 2
f 2/8/5 3/9/6 9/16/7 8/15/8 
s 3
f 3/9/9 4/10/10 10/17/11 9/16/12 
s 4
f 4/10/13 5/11/14 11/18/15 10/17/16 
s 5
f 5/11/17 6/12/18 12/19/19 11/18/20 
s 6
f 6/12/21 1/13/22 7/20/23 12/19/24 
s 1
f 7/14/4 8/15/3 14/22/25 13/21/26 
s 2
f 8/15/8 9/16/7 15/23/27 14/22/28 
s 3
f 9/16/12 10/17/11 16/24/29 15/23/30 
s 4
f 10/17/16 11/18/15 17/25/31 16/24/32 
s 5
f 11/18/20 12/19/19 18/26/33 17/25/34 
s 6
f 12/19/24 7/20/23 13/27/35 18/26/36 
s 1
f 13/21/26 14/22/25 20/29/37 19/28/38 
s 2
f 14/22/28 15/23/27 21/30/39 20/29/40 
s 3
f 15/23/30 16/24/29 22/31/41 21/30/42 
s 4
f 16/24/32 17/25/31 23/32/43 22/31/44 
s 5
f 17/25/34 18/26/33 24/33/45 23/32/46 
s 6
f 18/26/36 13/27/35 19/34/47 24/33/48 
s 1
f 19/28/38 20/29/37 26/36/49 25/35/50 
s 2
f 20/29/40 21/30/39 27/37/51 26/36/52 
s 3
f 21/30/42 22/31/41 28/38/53 27/37/54 
s 4
f 22/31/44 23/32/43 29/39/55 28/38/56 
s 5
f 23/32/46 24/33/45 30/40/57 29/39/58 
s 6
f 24/33/48 19/34/47 25/41/59 30/40/60 
s 1
f 25/35/50 26/36/49 32/43/61 31/42/62 
s 2
f 26/36/52 27/37/51 33/44/63 32/43/64 
s 3
f 27/37/54 28/38/53 34/45/65 33/44/66 
s 4
f 28/38/56 29/39/55 35/46/67 34/45/68 
s 5
f 29/39/58 30/40/57 36/47/69 35/46/70 
s 6
f 30/40/60 25/41/59 31/48/71 36/47/72 
s 1
f 31/42/62 32/43/61 38/50/73 37/49/74 
s 2
f 32/43/64 33/44/63 39/51/75 38/50/76 
s 3
f 33/44/66 34/45/65 40/52/77 39/51/78 
s 4
f 34/45/68 35/46/67 41/53/79 40/52/80 
s 5
f 35/46/70 36/47/69 42/54/81 41/53/82 
s 6
f 36/47/72 31/48/71 37/55/83 42/54/84 
s 7
f 51/70/85 50/71/86 52/62/87 
f 53/72/88 51/70/85 52/62/87 
f 54/73/89 53/72/88 52/62/87 
f 55/74/90 54/73/89 52/62/87 
f 56/75/91 55/74/90 52/62/87 
f 50/71/86 56/75/91 52/62/87 
s 8
f 37/60/92 38/59/93 43/63/94 
f 38/59/93 39/58/95 43/63/94 
f 39/58/95 40/57/96 43/63/94 
f 40/57/96 41/56/97 43/63/94 
f 41/56/97 42/61/98 43/63/94 
f 42/61/98 37/60/92 43/63/94 
s off
f 2/2/99 1/1/100 44/65/101 45/64/102 
f 3/3/103 2/2/104 45/64/105 46/66/106 
f 4/4/107 3/3/108 46/66/109 47/67/110 
f 5/5/111 4/4/112 47/67/113 48/68/114 
f 6/6/115 5/5/116 48/68/117 49/69/118 
f 1/1/119 6/6/120 49/69/121 44/65/122 
f 45/64/123 44/65/124 50/71/125 51/70/126 
f 46/66/127 45/64/128 51/70/129 53/72/130 
f 47/67/131 46/66/132 53/72/133 54/73/134 
f 48/68/135 47/67/136 54/73/137 55/74/138 
f 49/69/139 48/68/140 55/74/141 56/75/142 
f 44/65/143 49/69/144 56/75/145 50/71/146 
s 9
f 57/76/147 58/77/148 64/78/149 63/79/150 
s 10
f 58/77/151 59/80/152 65/81/153 64/78/154 
s 11
f 59/80/155 60/82/156 66/83/157 65/81/158 
s 12
f 60/82/159 61/84/160 67/85/161 66/83/162 
s 13
f 61/84/163 62/86/164 68/87/165 67/85/166 
s 14
f 62/86/167 57/88/168 63/89/169 68/87/170 
s 9
f 63/79/150 64/78/149 70/90/171 69/91/172 
s 10
f 64/78/154 65/81/153 71/92/173 70/90/174 
s 11
f 65/81/158 66/83/157 72/93/175 71/92/176 
s 12
f 66/83/162 67/85/161 73/94/177 72/93/178 
s 13
f 67/85/166 68/87/165 74/95/179 73/94/180 
s 14
f 68/87/170 63/89/169 69/96/181 74/95/182 
s 9
f 69/91/172 70/90/171 76/97/183 75/98/184 
s 10
f 70/90/174 71/92/173 77/99/185 76/97/186 
s 11
f 71/92/176 72/93/175 78/100/187 77/99/188 
s 12
f 72/93/178 73/94/177 79/101/189 78/100/190 
s 13
f 73/94/180 74/95/179 80/102/191 79/101/192 
s 14
f 74/95/182 69/96/181 75/103/193 80/102/194 
s 9
f 75/98/184 76/97/183 82/104/195 81/105/196 
s 10
f 76/97/186 77/99/185 83/106/197 82/104/198 
s 11
f 77/99/188 78/100/187 84/107/199 83/106/200 
s 12
f 78/100/190 79/101/189 85/108/201 84/107/202 
s 13
f 79/101/192 80/102/191 86/109/203 85/108/204 
s 14
f 80/102/194 75/103/193 81/110/205 86/109/206 
s 9
f 81/105/196 82/104/195 88/111/207 87/112/208 
s 10
f 82/104/198 83/106/197 89/113/209 88/111/210 
s 11
f 83/106/200 84/107/199 90/114/211 89/113/212 
s 12
f 84/107/202 85/108/201 91/115/213 90/114/214 
s 13
f 85/108/204 86/109/203 92/116/215 91/115/216 
s 14
f 86/109/206 81/110/205 87/117/217 92/116/218 
s 9
f 87/112/208 88/111/207 94/118/219 93/119/220 
s 10
f 88/111/210 89/113/209 95/120/221 94/118/222 
s 11
f 89/113/212 90/114/211 96/121/223 95/120/224 
s 12
f 90/114/214 91/115/213 97/122/225 96/121/226 
s 13
f 91/115/216 92/116/215 98/123/227 97/122/228 
s 14
f 92/116/218 87/117/217 93/124/229 98/123/230 
s 15
f 107/125/231 106/126/232 108/127/233 
f 109/128/234 107/125/231 108/127/233 
f 110/129/235 109/128/234 108/127/233 
f 111/130/236 110/129/235 108/127/233 
f 112/131/237 111/130/236 108/127/233 
f 106/126/232 112/131/237 108/127/233 
s 16
f 93/132/238 94/133/239 99/134/240 
f 94/133/239 95/135/241 99/134/240 
f 95/135/241 96/136/242 99/134/240 
f 96/136/242 97/137/243 99/134/240 
f 97/137/243 98/138/244 99/134/240 
f 98/138/244 93/132/238 99/134/240 
s off
f 58/139/245 57/140/246 100/141/247 101/142/248 
f 59/143/249 58/139/250 101/142/251 102/144/252 
f 60/145/253 59/143/254 102/144/255 103/146/256 
f 61/147/257 60/145/258 103/146/259 104/148/260 
f 62/149/261 61/147/262 104/148/263 105/150/264 
f 57/140/265 62/149/266 105/150/267 100/141/268 
f 101/142/269 100/141/270 106/126/271 107/125/272 
f 102/144/273 101/142/274 107/125/275 109/128/276 
f 103/146/277 102/144/278 109/128/279 110/129/280 
f 104/148/281 103/146/282 110/129/283 111/130/284 
f 105/150/285 104/148/286 111/130/287 112/131/288 
f 100/141/289 105/150/290 112/131/291 106/126/292 
s 17
f 113/151/293 114/152/294 179/153/295 167/154/296 
f 114/152/294 115/155/297 178/156/298 179/153/295 
f 115/155/297 116/157/299 177/158/300 178/156/298 
f 116/157/299 117/159/301 176/160/302 177/158/300 
f 117/159/301 118/161/303 175/162/304 176/160/302 
f 118/161/303 119/163/305 174/164/306 175/162/304 
f 119/163/305 120/165/307 173/166/308 174/164/306 
f 120/165/307 121/167/309 172/168/310 173/166/308 
f 121/167/309 122/169/311 171/170/312 172/168/310 
f 122/169/311 123/171/313 170/172/314 171/170/312 
f 123/171/313 124/173/315 169/174/316 170/172/314 
f 124/173/315 125/175/317 168/176/318 169/174/316 
f 125/175/317 113/177/293 167/178/296 168/176/318 
s 18
f 154/179/319 153/180/320 155/181/321 
f 156/182/322 154/179/319 155/181/321 
f 157/183/323 156/182/322 155/181/321 
f 158/184/324 157/183/323 155/181/321 
f 159/185/325 158/184/324 155/181/321 
f 160/186/326 159/185/325 155/181/321 
f 161/187/327 160/186/326 155/181/321 
f 162/188/328 161/187/327 155/181/321 
f 163/189/329 162/188/328 155/181/321 
f 164/190/330 163/189/329 155/181/321 
f 165/191/331 164/190/330 155/181/321 
f 166/192/332 165/191/331 155/181/321 
f 153/180/320 166/192/332 155/181/321 
s 19
f 126/193/333 127/194/334 139/195/335 
f 127/194/334 128/196/336 139/195/335 
f 128/196/336 129/197/337 139/195/335 
f 129/197/337 130/198/338 139/195/335 
f 130/198/338 131/199/339 139/195/335 
f 131/199/339 132/200/340 139/195/335 
f 132/200/340 133/201/341 139/195/335 
f 133/201/341 134/202/342 139/195/335 
f 134/202/342 135/203/343 139/195/335 
f 135/203/343 136/204/344 139/195/335 
f 136/204/344 137/205/345 139/195/335 
f 137/205/345 138/206/346 139/195/335 
f 138/206/346 126/193/333 139/195/335 
s off
f 114/207/347 113/208/348 140/209/349 141/210/350 
f 115/211/351 114/207/352 141/210/353 142/212/354 
f 116/213/355 115/211/356 142/212/357 143/214/358 
f 117/215/359 116/213/360 143/214/361 144/216/362 
f 118/217/363 117/215/364 144/216/365 145/218/366 
f 119/219/367 118/217/368 145/218/369 146/220/370 
f 120/221/371 119/219/372 146/220/373 147/222/374 
f 121/223/375 120/221/376 147/222/377 148/224/378 
f 122/225/379 121/223/380 148/224/381 149/226/382 
f 123/227/383 122/225/384 149/226/385 150/228/386 
f 124/229/387 123/227/388 150/228/389 151/230/390 
f 125/231/391 124/229/392 151/230/393 152/232/394 
f 113/208/395 125/231/396 152/232/397 140/209/398 
f 141/210/399 140/209/400 153/180/401 154/179/402 
f 142/212/403 141/210/404 154/179/405 156/182/406 
f 143/214/407 142/212/408 156/182/409 157/183/410 
f 144/216/411 143/214/412 157/183/413 158/184/414 
f 145/218/415 144/216/416 158/184/417 159/185/418 
f 146/220/419 145/218/420 159/185/421 160/186/422 
f 147/222/423 146/220/424 160/186/425 161/187/426 
f 148/224/427 147/222/428 161/187/429 162/188/430 
f 149/226/431 148/224/432 162/188/433 163/189/434 
f 150/228/435 149/226/436 163/189/437 164/190/438 
f 151/230/439 150/228/440 164/190/441 165/191/442 
f 152/232/443 151/230/444 165/191/445 166/192/446 
f 140/209/447 152/232/448 166/192/449 153/180/450 
s 17
f 168/176/318 167/178/296 126/233/451 138/234/452 
f 169/174/316 168/176/318 138/234/452 137/235/453 
f 170/172/314 169/174/316 137/235/453 136/236/454 
f 171/170/312 170/172/314 136/236/454 135/237/455 
f 172/168/310 171/170/312 135/237/455 134/238/456 
f 173/166/308 172/168/310 134/238/456 133/239/457 
f 174/164/306 173/166/308 133/239/457 132/240/458 
f 175/162/304 174/164/306 132/240/458 131/241/459 
f 176/160/302 175/162/304 131/241/459 130/242/460 
f 177/158/300 176/160/302 130/242/460 129/243/461 
f 178/156/298 177/158/300 129/243/461 128/244/462 
f 179/153/295 178/156/298 128/244/462 127/245/463 
f 167/154/296 179/153/295 127/245/463 126/246/451 
s 20
f 180/247/464 181/248/465 187/249/466 186/250/467 
s 21
f 181/248/468 182/251/469 188/252/470 187/249/471 
s 22
f 182/251/472 183/253/473 189/254/474 188/252/475 
s 23
f 183/253/476 184/255/477 190/256/478 189/254/479 
s 24
f 184/255/480 185/257/481 191/258/482 190/256/483 
s 25
f 185/257/484 180/259/485 186/260/486 191/258/487 
s 20
f 186/250/467 187/249/466 193/261/488 192/262/489 
s 21
f 187/249/471 188/252/470 194/263/490 193/261/491 
s 22
f 188/252/475 189/254/474 195/264/492 194/263/493 
s 23
f 189/254/479 190/256/478 196/265/494 195/264/495 
s 24
f 190/256/483 191/258/482 197/266/496 196/265/497 
s 25
f 191/258/487 186/260/486 192/267/498 197/266/499 
s 20
f 192/262/489 193/261/488 199/268/500 198/269/501 
s 21
f 193/261/491 194/263/490 200/270/502 199/268/503 
s 22
f 194/263/493 195/264/492 201/271/504 200/270/505 
s 23
f 195/264/495 196/265/494 202/272/506 201/271/507 
s 24
f 196/265/497 197/266/496 203/273/508 202/272/509 
s 25
f 197/266/499 192/267/498 198/274/510 203/273/511 
s 20
f 198/269/501 199/268/500 205/275/512 204/276/513 
s 21
f 199/268/503 200/270/502 206/277/514 205/275/515 
s 22
f 200/270/505 201/271/504 207/278/516 206/277/517 
s 23
f 201/271/507 202/272/506 208/279/518 207/278/519 
s 24
f 202/272/509 203/273/508 209/280/520 208/279/521 
s 25
f 203/273/511 198/274/510 204/281/522 209/280/523 
s 20
f 204/276/513 205/275/512 211/282/524 210/283/525 
s 21
f 205/275/515 206/277/514 212/284/526 211/282/527 
s 22
f 206/277/517 207/278/516 213/285/528 212/284/529 
s 23
f 207/278/519 208/279/518 214/286/530 213/285/531 
s 24
f 208/279/521 209/280/520 215/287/532 214/286/533 
s 25
f 209/280/523 204/281/522 210/288/534 215/287/535 
s 20
f 210/283/525 211/282/524 217/289/536 216/290/537 
s 21
f 211/282/527 212/284/526 218/291/538 217/289/539 
s 22
f 212/284/529 213/285/528 219/292/540 218/291/541 
s 23
f 213/285/531 214/286/530 220/293/542 219/292/543 
s 24
f 214/286/533 215/287/532 221/294/544 220/293/545 
s 25
f 215/287/535 210/288/534 216/295/546 221/294/547 
s 26
f 230/296/548 229/297/549 231/298/550 
f 232/299/551 230/296/548 231/298/550 
f 233/300/552 232/299/551 231/298/550 
f 234/301/553 233/300/552 231/298/550 
f 235/302/554 234/301/553 231/298/550 
f 229/297/549 235/302/554 231/298/550 
s 27
f 216/303/555 217/304/556 222/305/557 
f 217/304/556 218/306/558 222/305/557 
f 218/306/558 219/307/559 222/305/557 
f 219/307/559 220/308/560 222/305/557 
f 220/308/560 221/309/561 222/305/557 
f 221/309/561 216/303/555 222/305/557 
s off
f 181/310/562 180/311/563 223/312/564 224/313/565 
f 182/314/566 181/310/567 224/313/568 225/315/569 
f 183/316/570 182/314/571 225/315/572 226/317/573 
f 184/318/574 183/316/575 226/317/576 227/319/577 
f 185/320/578 184/318/579 227/319/580 228/321/581 
f 180/311/582 185/320/583 228/321/584 223/312/585 
f 224/313/586 223/312/587 229/297/588 230/296/589 
f 225/315/590 224/313/591 230/296/592 232/299/593 
f 226/317/594 225/315/595 232/299/596 233/300/597 
f 227/319/598 226/317/599 233/300/600 234/301/601 
f 228/321/602 227/319/603 234/301/604 235/302/605 
f 223/312/606 228/321/607 235/302/608 229/297/609 
s 28
f 236/322/610 237/323/611 243/324/612 242/325/613 
s 29
f 237/323/614 238/326/615 244/327/616 243/324/617 
s 30
f 238/326/618 239/328/619 245/329/620 244/327/621 
s 31
f 239/328/622 240/330/623 246/331/624 245/329/625 
s 32
f 240/330/626 241/332/627 247/333/628 246/331/629 
s 33
f 241/332/630 236/334/631 242/335/632 247/333/633 
s 28
f 242/325/613 243/324/612 249/336/634 248/337/635 
s 29
f 243/324/617 244/327/616 250/338/636 249/336/637 
s 30
f 244/327/621 245/329/620 251/339/638 250/338/639 
s 31
f 245/329/625 246/331/624 252/340/640 251/339/641 
s 32
f 246/331/629 247/333/628 253/341/642 252/340/643 
s 33
f 247/333/633 242/335/632 248/342/644 253/341/645 
s 28
f 248/337/635 249/336/634 255/343/646 254/344/647 
s 29
f 249/336/637 250/338/636 256/345/648 255/343/649 
s 30
f 250/338/639 251/339/638 257/346/650 256/345/651 
s 31
f 251/339/641 252/340/640 258/347/652 257/346/653 
s 32
f 252/340/643 253/341/642 259/348/654 258/347/655 
s 33
f 253/341/645 248/342/644 254/349/656 259/348/657 
s 28
f 254/344/647 255/343/646 261/350/658 260/351/659 
s 29
f 255/343/649 256/345/648 262/352/660 261/350/661 
s 30
f 256/345/651 257/346/650 263/353/662 262/352/663 
s 31
f 257/346/653 258/347/652 264/354/664 263/353/665 
s 32
f 258/347/655 259/348/654 265/355/666 264/354/667 
s 33
f 259/348/657 254/349/656 260/356/668 265/355/669 
s 28
f 260/351/659 261/350/658 267/357/670 266/358/671 
s 29
f 261/350/661 262/352/660 268/359/672 267/357/673 
s 30
f 262/352/663 263/353/662 269/360/674 268/359/675 
s 31
f 263/353/665 264/354/664 270/361/676 269/360/677 
s 32
f 264/354/667 265/355/666 271/362/678 270/361/679 
s 33
f 265/355/669 260/356/668 266/363/680 271/362/681 
s 28
f 266/358/671 267/357/670 273/364/682 272/365/683 
s 29
f 267/357/673 268/359/672 274/366/684 273/364/685 
s 30
f 268/359/675 269/360/674 275/367/686 274/366/687 
s 31
f 269/360/677 270/361/676 276/368/688 275/367/689 
s 32
f 270/361/679 271/362/678 277/369/690 276/368/691 
s 33
f 271/362/681 266/363/680 272/370/692 277/369/693 
s 34
f 286/371/694 285/372/695 287/373/696 
f 288/374/697 286/371/694 287/373/696 
f 289/375/698 288/374/697 287/373/696 
f 290/376/699 289/375/698 287/373/696 
f 291/377/700 290/376/699 287/373/696 
f 285/372/695 291/377/700 287/373/696 
s 35
f 272/378/701 273/379/702 278/380/703 
f 273/379/702 274/381/704 278/380/703 
f 274/381/704 275/382/705 278/380/703 
f 275/382/705 276/383/706 278/380/703 
f 276/383/706 277/384/707 278/380/703 
f 277/384/707 272/378/701 278/380/703 
s off
f 237/385/708 236/386/709 279/387/710 280/388/711 
f 238/389/712 237/385/713 280/388/714 281/390/715 
f 239/391/716 238/389/717 281/390/718 282/392/719 
f 240/393/720 239/391/721 282/392/722 283/394/723 
f 241/395/724 240/393/725 283/394/726 284/396/727 
f 236/386/728 241/395/729 284/396/730 279/387/731 
f 280/388/732 279/387/733 285/372/734 286/371/735 
f 281/390/736 280/388/737 286/371/738 288/374/739 
f 282/392/740 281/390/741 288/374/742 289/375/743 
f 283/394/744 282/392/745 289/375/746 290/376/747 
f 284/396/748 283/394/749 290/376/750 291/377/751 
f 279/387/752 284/396/753 291/377/754 285/372/755 
#end 318 faces
#begin 1 properties
#U3D SYM 0 0 0 1 0 0 0.0001 1
#end 1 properties
