# This file uses centimeters as units for non-parametric coordinates.

mtllib LongTableUV.mtl
g default
v 14.901828 0.768502 -55.261837
v 13.394275 0.768502 -55.605923
v 12.185352 0.768502 -54.641811
v 12.185352 0.768502 -53.095516
v 13.394275 0.768502 -52.131374
v 14.901828 0.768502 -52.475491
v 15.572727 0.768502 -53.868649
v 16.377644 18.804008 -57.272121
v 12.694812 18.804008 -58.112759
v 9.741397 18.804008 -55.757473
v 9.741397 18.804008 -51.979885
v 12.694812 18.804008 -49.624599
v 16.377644 18.804008 -50.465176
v 18.016697 18.804008 -53.868649
v 15.948459 -3.262893 -56.687496
v 12.898227 -3.262893 -57.383694
v 10.452152 -3.262893 -55.432949
v 10.452152 -3.262893 -52.304348
v 12.898227 -3.262893 -50.353603
v 15.948459 -3.262893 -51.049862
v 17.305910 -3.262893 -53.868649
v 15.051166 -5.047800 -55.465237
v 13.323505 -5.047800 -55.859585
v 13.777912 -5.047800 -53.868649
v 11.938037 -5.047800 -54.754665
v 11.938037 -5.047800 -52.982632
v 13.323505 -5.047800 -51.877712
v 15.051166 -5.047800 -52.272060
v 15.820026 -5.047800 -53.868649
v 14.901828 0.768502 44.919041
v 13.394275 0.768502 44.574955
v 12.185352 0.768502 45.539066
v 12.185352 0.768502 47.085361
v 13.394275 0.768502 48.049503
v 14.901828 0.768502 47.705387
v 15.572727 0.768502 46.312229
v 16.377644 18.804008 42.908756
v 12.694812 18.804008 42.068119
v 9.741397 18.804008 44.423405
v 9.741397 18.804008 48.200993
v 12.694812 18.804008 50.556278
v 16.377644 18.804008 49.715702
v 17.793764 18.804008 46.312229
v 15.948459 -3.262893 43.493382
v 12.898227 -3.262893 42.797184
v 10.452152 -3.262893 44.747929
v 10.452152 -3.262893 47.876530
v 12.898227 -3.262893 49.827274
v 15.948459 -3.262893 49.131016
v 17.305910 -3.262893 46.312229
v 15.051166 -5.047800 44.715641
v 13.323505 -5.047800 44.321293
v 13.777912 -5.047800 46.312229
v 11.938037 -5.047800 45.426212
v 11.938037 -5.047800 47.198246
v 13.323505 -5.047800 48.303165
v 15.051166 -5.047800 47.908787
v 15.820026 -5.047800 46.312229
v -14.465314 0.768502 44.919041
v -15.972851 0.768502 44.574955
v -17.181774 0.768502 45.539066
v -17.181774 0.768502 47.085361
v -15.972851 0.768502 48.049503
v -14.465314 0.768502 47.705387
v -13.794385 0.768502 46.312229
v -12.989483 18.804008 42.908756
v -16.672314 18.804008 42.068119
v -19.625713 18.804008 44.423405
v -19.625713 18.804008 48.200993
v -16.672314 18.804008 50.556278
v -12.989483 18.804008 49.715702
v -11.350445 18.804008 46.312229
v -13.418683 -3.262893 43.493382
v -16.468884 -3.262893 42.797184
v -18.914961 -3.262893 44.747929
v -18.914961 -3.262893 47.876530
v -16.468884 -3.262893 49.827274
v -13.418683 -3.262893 49.131016
v -12.061200 -3.262893 46.312229
v -14.315960 -5.047800 44.715641
v -16.043621 -5.047800 44.321293
v -15.589215 -5.047800 46.312229
v -17.429089 -5.047800 45.426212
v -17.429089 -5.047800 47.198246
v -16.043621 -5.047800 48.303165
v -14.315960 -5.047800 47.908787
v -13.547101 -5.047800 46.312229
v -14.465314 0.768502 -55.261837
v -15.972851 0.768502 -55.605923
v -17.181774 0.768502 -54.641811
v -17.181774 0.768502 -53.095516
v -15.972851 0.768502 -52.131374
v -14.465314 0.768502 -52.475491
v -13.794385 0.768502 -53.868649
v -12.989483 18.804008 -57.272121
v -16.672314 18.804008 -58.112759
v -19.625713 18.804008 -55.757473
v -19.625713 18.804008 -51.979885
v -16.672314 18.804008 -49.624599
v -12.989483 18.804008 -50.465176
v -11.350445 18.804008 -53.868649
v -13.418683 -3.262893 -56.687496
v -16.468884 -3.262893 -57.383694
v -18.914961 -3.262893 -55.432949
v -18.914961 -3.262893 -52.304348
v -16.468884 -3.262893 -50.353603
v -13.418683 -3.262893 -51.049862
v -12.061200 -3.262893 -53.868649
v -14.315960 -5.047800 -55.465237
v -16.043621 -5.047800 -55.859585
v -15.589215 -5.047800 -53.868649
v -17.429089 -5.047800 -54.754665
v -17.429089 -5.047800 -52.982632
v -16.043621 -5.047800 -51.877712
v -14.315960 -5.047800 -52.272060
v -13.547101 -5.047800 -53.868649
v -21.130840 13.308312 55.095188
v 17.036121 13.308312 53.908024
v -21.130840 25.871365 55.095188
v 18.536640 25.871365 55.095188
v -21.130840 25.871365 -63.397854
v 18.536640 25.871365 -63.397854
v -21.130840 13.308312 -63.397854
v 18.536640 13.308312 -63.397854
v -20.708691 13.308312 -62.136806
v 18.114519 13.308312 -62.136806
v 16.614002 13.308312 52.647007
v -20.708691 13.308312 53.834141
v -18.932384 21.933624 -56.830715
v 16.338215 21.933624 -56.830715
v 16.338215 21.933624 48.528049
v -18.932384 21.933624 48.528049
v -21.130840 25.871365 -39.699245
v -19.028088 13.308312 -39.699245
v -18.605940 13.308312 -38.942623
v -16.829632 21.933624 -35.758968
v 16.338215 21.933624 -35.758968
v 19.442232 13.308312 -38.942623
v 19.864353 13.308312 -39.699245
v 18.536640 25.871365 -39.699245
v -21.130840 25.871365 -11.260921
v -17.230206 13.308312 -11.260921
v -16.808086 13.308312 -11.109584
v -18.932384 21.933624 -10.472865
v 16.338215 21.933624 -10.472865
v 17.184834 13.308312 -11.109584
v 17.606953 13.308312 -11.260921
v 18.536640 25.871365 -11.260921
v -21.130840 25.871365 28.552738
v -21.130840 13.308312 28.552738
v -20.708691 13.308312 27.856663
v -18.932384 21.933624 24.927708
v 16.338215 21.933624 24.927708
v 16.150072 13.308312 27.856663
v 16.572193 13.308312 28.552738
v 18.536640 25.871365 28.552738
v -21.130840 25.871365 41.823948
v -20.179607 13.308312 41.823948
v -19.757458 13.308312 40.845402
v -18.932384 21.933624 36.727879
v 16.338215 21.933624 36.727879
v 18.114519 13.308312 40.845402
v 18.536640 13.308312 41.823948
v 18.536640 25.871365 41.823948
v -0.265210 13.308312 53.732273
v 4.441699 25.871365 55.095188
v 4.441699 25.871365 41.823948
v 4.441699 25.871365 28.552738
v 4.441699 25.871365 -11.260921
v 4.441699 25.871365 -39.699245
v 4.441699 25.871365 -63.397854
v 4.441699 13.308312 -60.974697
v 4.319583 13.308312 -59.713650
v 3.805622 21.933624 -56.830715
v 4.552783 21.933624 -35.758968
v 3.805622 21.933624 -10.472865
v 3.805622 21.933624 24.927708
v 3.805622 21.933624 36.727879
v 3.805622 21.933624 48.528049
v -0.387326 13.308312 52.471226
vt 0.796292 0.115536
vt 0.805576 0.114853
vt 0.822596 0.212172
vt 0.802837 0.214261
vt 0.814517 0.113576
vt 0.842145 0.207934
vt 0.823058 0.112071
vt 0.861103 0.201400
vt 0.760123 0.113371
vt 0.768565 0.114555
vt 0.743565 0.209197
vt 0.724220 0.203160
vt 0.777568 0.115340
vt 0.763250 0.212825
vt 0.786878 0.115401
vt 0.783043 0.214402
vt 0.805126 0.073745
vt 0.802701 0.064607
vt 0.813504 0.066656
vt 0.813717 0.077396
vt 0.822549 0.073378
vt 0.824168 0.063879
vt 0.817899 0.056621
vt 0.808366 0.056966
vt 0.795832 0.093259
vt 0.805988 0.091589
vt 0.817353 0.089186
vt 0.831281 0.085753
vt 0.749929 0.088313
vt 0.764158 0.091002
vt 0.775650 0.092910
vt 0.785927 0.094117
vt 0.794750 0.081649
vt 0.804031 0.079826
vt 0.757863 0.076013
vt 0.767131 0.079272
vt 0.776708 0.081353
vt 0.785834 0.082986
vt 0.204900 0.112967
vt 0.213888 0.112064
vt 0.239146 0.206637
vt 0.219468 0.210362
vt 0.222319 0.110792
vt 0.258470 0.200542
vt 0.159661 0.110042
vt 0.167983 0.111790
vt 0.141279 0.206228
vt 0.122084 0.199740
vt 0.176930 0.112895
vt 0.160934 0.210253
vt 0.186205 0.113407
vt 0.180765 0.212098
vt 0.195599 0.113128
vt 0.200118 0.211865
vt 0.156760 0.062665
vt 0.162659 0.055109
vt 0.167547 0.064913
vt 0.158848 0.072060
vt 0.167868 0.075662
vt 0.176265 0.071581
vt 0.178232 0.062332
vt 0.172196 0.054981
vt 0.206439 0.090389
vt 0.217885 0.088303
vt 0.232048 0.085371
vt 0.150637 0.084767
vt 0.164754 0.087474
vt 0.176119 0.089635
vt 0.186292 0.091071
vt 0.196208 0.091749
vt 0.205073 0.078843
vt 0.214627 0.076610
vt 0.223832 0.073176
vt 0.177614 0.077799
vt 0.186967 0.079412
vt 0.195961 0.080617
vt 0.354467 0.112887
vt 0.362997 0.114206
vt 0.338847 0.209607
vt 0.319705 0.203592
vt 0.371949 0.115436
vt 0.358436 0.213466
vt 0.381115 0.116374
vt 0.378316 0.215035
vt 0.390381 0.115956
vt 0.398259 0.214361
vt 0.399592 0.114964
vt 0.417976 0.211558
vt 0.408547 0.113385
vt 0.437330 0.206760
vt 0.416935 0.112023
vt 0.456384 0.199856
vt 0.421401 0.067502
vt 0.419078 0.076792
vt 0.410591 0.069558
vt 0.415674 0.059847
vt 0.406149 0.059532
vt 0.399968 0.066766
vt 0.401758 0.076075
vt 0.410108 0.080390
vt 0.344418 0.089827
vt 0.358823 0.091180
vt 0.370259 0.091820
vt 0.380608 0.091748
vt 0.390612 0.092417
vt 0.400907 0.092312
vt 0.412443 0.091318
vt 0.426634 0.088364
vt 0.350636 0.077826
vt 0.360156 0.079375
vt 0.370635 0.078650
vt 0.380798 0.079622
vt 0.390670 0.080364
vt 0.400407 0.080665
vt 0.572120 0.115103
vt 0.581366 0.115953
vt 0.573406 0.214525
vt 0.553720 0.211731
vt 0.590667 0.116144
vt 0.593287 0.215221
vt 0.599886 0.115889
vt 0.613138 0.213641
vt 0.608802 0.114482
vt 0.632774 0.209833
vt 0.617310 0.113073
vt 0.651939 0.203841
vt 0.554742 0.112306
vt 0.563137 0.113596
vt 0.534377 0.206952
vt 0.515321 0.200049
vt 0.570879 0.067082
vt 0.569263 0.076428
vt 0.560310 0.070072
vt 0.564563 0.059964
vt 0.555045 0.060457
vt 0.549464 0.068215
vt 0.551964 0.077450
vt 0.560993 0.080910
vt 0.570386 0.092753
vt 0.580649 0.092794
vt 0.590634 0.092255
vt 0.600963 0.091380
vt 0.612402 0.090829
vt 0.626796 0.089184
vt 0.544642 0.089074
vt 0.558876 0.091845
vt 0.570636 0.081134
vt 0.580294 0.080766
vt 0.590117 0.079898
vt 0.600250 0.078443
vt 0.610742 0.079005
vt 0.620219 0.077252
vt 0.119701 0.865698
vt 0.119088 0.754788
vt 0.186195 0.730560
vt 0.185898 0.865383
vt 0.256667 0.730816
vt 0.255922 0.865927
vt 0.813657 0.865735
vt 0.813326 0.730511
vt 0.881282 0.728665
vt 0.879989 0.865248
vt 0.282927 0.312388
vt 0.285820 0.431807
vt 0.221441 0.431326
vt 0.224567 0.320266
vt 0.194140 0.589093
vt 0.257391 0.592784
vt 0.256772 0.657468
vt 0.186947 0.655978
vt 0.256499 0.933273
vt 0.185726 0.931714
vt 0.887930 0.729241
vt 0.886419 0.862527
vt 0.262458 0.590794
vt 0.200700 0.586391
vt 0.112406 0.755194
vt 0.113191 0.863092
vt 0.261735 0.935434
vt 0.192496 0.933597
vt 0.822454 0.293427
vt 0.829936 0.437571
vt 0.778319 0.432021
vt 0.777008 0.321743
vt 0.283239 0.498798
vt 0.249109 0.542094
vt 0.182977 0.508207
vt 0.228163 0.490136
vt 0.169254 0.411815
vt 0.177801 0.297442
vt 0.250964 0.269038
vt 0.814903 0.932009
vt 0.688315 0.935572
vt 0.687824 0.868231
vt 0.684172 0.937582
vt 0.808084 0.933833
vt 0.667121 0.317897
vt 0.690167 0.270389
vt 0.666253 0.434698
vt 0.817159 0.521739
vt 0.690274 0.548206
vt 0.668520 0.499024
vt 0.773918 0.490916
vt 0.808671 0.589594
vt 0.686388 0.593185
vt 0.682421 0.591085
vt 0.802139 0.587178
vt 0.686486 0.659648
vt 0.810586 0.656050
vt 0.687461 0.733553
vt 0.535996 0.937716
vt 0.536844 0.868018
vt 0.535185 0.939950
vt 0.532592 0.310449
vt 0.537747 0.263070
vt 0.533612 0.432810
vt 0.537881 0.547170
vt 0.533967 0.500602
vt 0.538143 0.590862
vt 0.537303 0.588663
vt 0.537502 0.657655
vt 0.537024 0.732506
vt 0.325796 0.930302
vt 0.326021 0.864685
vt 0.329514 0.932354
vt 0.344551 0.309868
vt 0.325710 0.263111
vt 0.347259 0.432815
vt 0.326186 0.546987
vt 0.344808 0.500916
vt 0.326647 0.587912
vt 0.330331 0.585742
vt 0.327534 0.655602
vt 0.327117 0.730247
vt 0.120536 0.662971
vt 0.875738 0.652818
vt 0.882099 0.655510
vt 0.113873 0.665114
vn 0.220752 -0.125868 -0.967174
vn 0.220752 -0.125868 -0.967174
vn 0.220752 -0.125868 -0.967174
vn 0.220752 -0.125868 -0.967174
vn -0.618065 -0.131695 -0.775017
vn -0.618065 -0.131695 -0.775017
vn -0.618065 -0.131695 -0.775017
vn -0.618065 -0.131695 -0.775017
vn -0.990943 -0.134280 0.000000
vn -0.990943 -0.134280 0.000000
vn -0.990943 -0.134280 0.000000
vn -0.990943 -0.134280 0.000000
vn -0.618066 -0.131693 0.775017
vn -0.618066 -0.131693 0.775017
vn -0.618066 -0.131693 0.775017
vn -0.618066 -0.131693 0.775017
vn 0.220761 -0.125867 0.967172
vn 0.220761 -0.125867 0.967172
vn 0.220761 -0.125867 0.967172
vn 0.220761 -0.125867 0.967172
vn 0.894327 -0.121189 0.430688
vn 0.894327 -0.121189 0.430688
vn 0.894327 -0.121189 0.430688
vn 0.894327 -0.121189 0.430688
vn 0.894329 -0.121188 -0.430684
vn 0.894329 -0.121188 -0.430684
vn 0.894329 -0.121188 -0.430684
vn 0.894329 -0.121188 -0.430684
vn 0.000000 -1.000000 0.000000
vn 0.000000 -1.000000 0.000000
vn 0.000000 -1.000000 0.000000
vn 0.000000 -1.000000 0.000000
vn 0.000000 -1.000000 0.000000
vn 0.000000 -1.000000 0.000000
vn 0.000000 -1.000000 0.000000
vn 0.000000 -1.000000 0.000000
vn 0.000000 -1.000000 0.000000
vn 0.000000 -1.000000 0.000000
vn 0.000000 -1.000000 0.000000
vn 0.000000 -1.000000 0.000000
vn 0.000000 -1.000000 0.000000
vn 0.000000 -1.000000 0.000000
vn 0.000000 -1.000000 0.000000
vn 0.000000 -1.000000 0.000000
vn 0.000000 -1.000000 0.000000
vn 0.000000 -1.000000 0.000000
vn 0.000000 -1.000000 0.000000
vn 0.000000 -1.000000 0.000000
vn 0.000000 -1.000000 0.000000
vn 0.206426 0.373422 -0.904403
vn 0.206426 0.373422 -0.904403
vn 0.206426 0.373422 -0.904403
vn 0.206426 0.373422 -0.904403
vn -0.574553 0.388398 -0.720441
vn -0.574553 0.388398 -0.720441
vn -0.574553 0.388398 -0.720441
vn -0.574553 0.388398 -0.720441
vn -0.918694 0.394970 0.000000
vn -0.918694 0.394970 0.000000
vn -0.918694 0.394970 0.000000
vn -0.918694 0.394970 0.000000
vn -0.574552 0.388403 0.720440
vn -0.574552 0.388403 0.720440
vn -0.574552 0.388403 0.720440
vn -0.574552 0.388403 0.720440
vn 0.206438 0.373421 0.904400
vn 0.206438 0.373421 0.904400
vn 0.206438 0.373421 0.904400
vn 0.206438 0.373421 0.904400
vn 0.840149 0.361192 0.404586
vn 0.840149 0.361192 0.404586
vn 0.840149 0.361192 0.404586
vn 0.840149 0.361192 0.404586
vn 0.840147 0.361198 -0.404585
vn 0.840147 0.361198 -0.404585
vn 0.840147 0.361198 -0.404585
vn 0.840147 0.361198 -0.404585
vn 0.175502 -0.614773 -0.768930
vn 0.175502 -0.614773 -0.768930
vn 0.175502 -0.614773 -0.768930
vn 0.175502 -0.614773 -0.768930
vn -0.483045 -0.632292 -0.605701
vn -0.483045 -0.632293 -0.605701
vn -0.483045 -0.632293 -0.605701
vn -0.483045 -0.632293 -0.605701
vn -0.768545 -0.639796 0.000000
vn -0.768545 -0.639796 0.000000
vn -0.768545 -0.639796 0.000000
vn -0.768545 -0.639796 0.000000
vn -0.483048 -0.632292 0.605699
vn -0.483048 -0.632292 0.605699
vn -0.483048 -0.632293 0.605699
vn -0.483048 -0.632292 0.605699
vn 0.175525 -0.614760 0.768935
vn 0.175525 -0.614760 0.768935
vn 0.175526 -0.614760 0.768935
vn 0.175525 -0.614760 0.768935
vn 0.720766 -0.600015 0.347101
vn 0.720766 -0.600015 0.347101
vn 0.720766 -0.600015 0.347101
vn 0.720766 -0.600015 0.347101
vn 0.720769 -0.600015 -0.347095
vn 0.720769 -0.600015 -0.347095
vn 0.720769 -0.600015 -0.347095
vn 0.720769 -0.600015 -0.347095
vn 0.220761 -0.125868 -0.967172
vn 0.220761 -0.125868 -0.967172
vn 0.220761 -0.125868 -0.967172
vn 0.220761 -0.125868 -0.967172
vn -0.618065 -0.131695 -0.775017
vn -0.618065 -0.131695 -0.775017
vn -0.618065 -0.131695 -0.775017
vn -0.618065 -0.131695 -0.775017
vn -0.990943 -0.134281 0.000000
vn -0.990943 -0.134281 0.000000
vn -0.990943 -0.134281 0.000000
vn -0.990943 -0.134281 0.000000
vn -0.618072 -0.131692 0.775013
vn -0.618072 -0.131692 0.775013
vn -0.618072 -0.131692 0.775013
vn -0.618072 -0.131692 0.775013
vn 0.220761 -0.125867 0.967172
vn 0.220761 -0.125867 0.967172
vn 0.220761 -0.125867 0.967172
vn 0.220761 -0.125867 0.967172
vn 0.894327 -0.121189 0.430688
vn 0.894327 -0.121189 0.430688
vn 0.894327 -0.121189 0.430688
vn 0.894327 -0.121189 0.430688
vn 0.894327 -0.121189 -0.430688
vn 0.894327 -0.121189 -0.430688
vn 0.894327 -0.121189 -0.430688
vn 0.894327 -0.121189 -0.430688
vn 0.000000 -1.000000 0.000000
vn 0.000000 -1.000000 0.000000
vn 0.000000 -1.000000 0.000000
vn 0.000000 -1.000000 0.000000
vn 0.000000 -1.000000 0.000000
vn 0.000000 -1.000000 0.000000
vn 0.000000 -1.000000 0.000000
vn 0.000000 -1.000000 0.000000
vn 0.000000 -1.000000 0.000000
vn 0.000000 -1.000000 0.000000
vn 0.000000 -1.000000 0.000000
vn 0.000000 -1.000000 0.000000
vn 0.000000 -1.000000 0.000000
vn 0.000000 -1.000000 0.000000
vn 0.000000 -1.000000 0.000000
vn 0.000000 -1.000000 0.000000
vn 0.000000 -1.000000 0.000000
vn 0.000000 -1.000000 0.000000
vn 0.000000 -1.000000 0.000000
vn 0.000000 -1.000000 0.000000
vn 0.000000 -1.000000 0.000000
vn 0.206426 0.373422 -0.904403
vn 0.206426 0.373422 -0.904403
vn 0.206426 0.373422 -0.904403
vn 0.206426 0.373422 -0.904403
vn -0.574553 0.388398 -0.720441
vn -0.574553 0.388398 -0.720441
vn -0.574553 0.388398 -0.720441
vn -0.574553 0.388398 -0.720441
vn -0.918692 0.394975 0.000000
vn -0.918692 0.394975 0.000000
vn -0.918692 0.394975 0.000000
vn -0.918692 0.394975 0.000000
vn -0.574560 0.388400 0.720435
vn -0.574560 0.388400 0.720435
vn -0.574560 0.388400 0.720435
vn -0.574560 0.388400 0.720435
vn 0.206449 0.373420 0.904398
vn 0.206449 0.373420 0.904398
vn 0.206449 0.373420 0.904398
vn 0.206449 0.373420 0.904398
vn 0.840142 0.361200 0.404595
vn 0.840142 0.361200 0.404595
vn 0.840142 0.361200 0.404595
vn 0.840142 0.361200 0.404595
vn 0.840151 0.361194 -0.404581
vn 0.840151 0.361194 -0.404581
vn 0.840151 0.361194 -0.404581
vn 0.840151 0.361194 -0.404581
vn 0.175508 -0.614772 -0.768929
vn 0.175508 -0.614772 -0.768929
vn 0.175508 -0.614772 -0.768929
vn 0.175508 -0.614772 -0.768929
vn -0.483041 -0.632294 -0.605703
vn -0.483041 -0.632294 -0.605703
vn -0.483041 -0.632294 -0.605703
vn -0.483041 -0.632294 -0.605703
vn -0.768545 -0.639796 0.000000
vn -0.768545 -0.639796 0.000000
vn -0.768545 -0.639796 0.000000
vn -0.768545 -0.639796 0.000000
vn -0.483048 -0.632292 0.605699
vn -0.483048 -0.632292 0.605699
vn -0.483048 -0.632293 0.605699
vn -0.483048 -0.632292 0.605699
vn 0.175519 -0.614768 0.768930
vn 0.175519 -0.614768 0.768930
vn 0.175519 -0.614768 0.768930
vn 0.175519 -0.614768 0.768930
vn 0.720766 -0.600015 0.347101
vn 0.720766 -0.600015 0.347101
vn 0.720766 -0.600015 0.347101
vn 0.720766 -0.600015 0.347101
vn 0.720766 -0.600017 -0.347096
vn 0.720766 -0.600017 -0.347096
vn 0.720766 -0.600017 -0.347096
vn 0.720766 -0.600017 -0.347096
vn 0.220762 -0.125869 -0.967172
vn 0.220762 -0.125869 -0.967172
vn 0.220762 -0.125869 -0.967172
vn 0.220762 -0.125869 -0.967172
vn -0.618067 -0.131692 -0.775016
vn -0.618067 -0.131692 -0.775016
vn -0.618067 -0.131692 -0.775016
vn -0.618067 -0.131692 -0.775016
vn -0.990943 -0.134280 0.000000
vn -0.990943 -0.134280 0.000000
vn -0.990943 -0.134280 0.000000
vn -0.990943 -0.134280 0.000000
vn -0.618073 -0.131692 0.775012
vn -0.618073 -0.131692 0.775011
vn -0.618073 -0.131692 0.775011
vn -0.618073 -0.131692 0.775011
vn 0.220762 -0.125867 0.967172
vn 0.220762 -0.125867 0.967172
vn 0.220762 -0.125867 0.967172
vn 0.220762 -0.125867 0.967172
vn 0.894326 -0.121187 0.430690
vn 0.894326 -0.121187 0.430690
vn 0.894326 -0.121187 0.430690
vn 0.894326 -0.121187 0.430690
vn 0.894326 -0.121187 -0.430690
vn 0.894326 -0.121187 -0.430690
vn 0.894326 -0.121187 -0.430690
vn 0.894326 -0.121187 -0.430690
vn 0.000000 -1.000000 0.000000
vn 0.000000 -1.000000 0.000000
vn 0.000000 -1.000000 0.000000
vn 0.000000 -1.000000 0.000000
vn 0.000000 -1.000000 0.000000
vn 0.000000 -1.000000 0.000000
vn 0.000000 -1.000000 0.000000
vn 0.000000 -1.000000 0.000000
vn 0.000000 -1.000000 0.000000
vn 0.000000 -1.000000 0.000000
vn 0.000000 -1.000000 0.000000
vn 0.000000 -1.000000 0.000000
vn 0.000000 -1.000000 0.000000
vn 0.000000 -1.000000 0.000000
vn 0.000000 -1.000000 0.000000
vn 0.000000 -1.000000 0.000000
vn 0.000000 -1.000000 0.000000
vn 0.000000 -1.000000 0.000000
vn 0.000000 -1.000000 0.000000
vn 0.000000 -1.000000 0.000000
vn 0.000000 -1.000000 0.000000
vn 0.206428 0.373423 -0.904402
vn 0.206428 0.373423 -0.904402
vn 0.206428 0.373423 -0.904402
vn 0.206428 0.373423 -0.904402
vn -0.574556 0.388388 -0.720445
vn -0.574556 0.388388 -0.720445
vn -0.574556 0.388388 -0.720445
vn -0.574556 0.388388 -0.720445
vn -0.918692 0.394975 0.000000
vn -0.918692 0.394975 0.000000
vn -0.918692 0.394975 0.000000
vn -0.918692 0.394975 0.000000
vn -0.574562 0.388393 0.720437
vn -0.574562 0.388393 0.720437
vn -0.574562 0.388393 0.720437
vn -0.574562 0.388393 0.720437
vn 0.206451 0.373421 0.904397
vn 0.206451 0.373421 0.904397
vn 0.206451 0.373421 0.904397
vn 0.206451 0.373421 0.904397
vn 0.840138 0.361198 0.404605
vn 0.840138 0.361198 0.404605
vn 0.840138 0.361198 0.404605
vn 0.840138 0.361198 0.404605
vn 0.840146 0.361192 -0.404592
vn 0.840146 0.361192 -0.404592
vn 0.840146 0.361192 -0.404592
vn 0.840146 0.361192 -0.404592
vn 0.175510 -0.614768 -0.768932
vn 0.175510 -0.614768 -0.768932
vn 0.175510 -0.614768 -0.768932
vn 0.175510 -0.614768 -0.768932
vn -0.483042 -0.632291 -0.605705
vn -0.483042 -0.632291 -0.605705
vn -0.483042 -0.632291 -0.605705
vn -0.483042 -0.632291 -0.605705
vn -0.768545 -0.639796 0.000000
vn -0.768545 -0.639796 0.000000
vn -0.768545 -0.639796 0.000000
vn -0.768545 -0.639796 0.000000
vn -0.483050 -0.632289 0.605701
vn -0.483050 -0.632289 0.605701
vn -0.483050 -0.632289 0.605701
vn -0.483050 -0.632289 0.605701
vn 0.175521 -0.614760 0.768936
vn 0.175521 -0.614760 0.768936
vn 0.175521 -0.614760 0.768936
vn 0.175521 -0.614760 0.768936
vn 0.720762 -0.600017 0.347105
vn 0.720762 -0.600017 0.347105
vn 0.720762 -0.600017 0.347105
vn 0.720762 -0.600017 0.347105
vn 0.720762 -0.600020 -0.347100
vn 0.720762 -0.600020 -0.347100
vn 0.720762 -0.600020 -0.347100
vn 0.720762 -0.600020 -0.347100
vn 0.220752 -0.125869 -0.967174
vn 0.220752 -0.125869 -0.967174
vn 0.220752 -0.125869 -0.967174
vn 0.220752 -0.125869 -0.967174
vn -0.618067 -0.131692 -0.775016
vn -0.618067 -0.131692 -0.775016
vn -0.618067 -0.131692 -0.775016
vn -0.618067 -0.131692 -0.775016
vn -0.990944 -0.134279 0.000000
vn -0.990944 -0.134279 0.000000
vn -0.990944 -0.134279 0.000000
vn -0.990944 -0.134279 0.000000
vn -0.618067 -0.131692 0.775016
vn -0.618067 -0.131692 0.775016
vn -0.618067 -0.131692 0.775016
vn -0.618067 -0.131692 0.775016
vn 0.220762 -0.125867 0.967172
vn 0.220762 -0.125867 0.967172
vn 0.220762 -0.125867 0.967172
vn 0.220762 -0.125867 0.967172
vn 0.894326 -0.121187 0.430690
vn 0.894326 -0.121187 0.430690
vn 0.894326 -0.121187 0.430690
vn 0.894326 -0.121187 0.430690
vn 0.894328 -0.121186 -0.430686
vn 0.894328 -0.121186 -0.430686
vn 0.894328 -0.121186 -0.430686
vn 0.894328 -0.121186 -0.430686
vn 0.000000 -1.000000 0.000000
vn 0.000000 -1.000000 0.000000
vn 0.000000 -1.000000 0.000000
vn 0.000000 -1.000000 0.000000
vn 0.000000 -1.000000 0.000000
vn 0.000000 -1.000000 0.000000
vn 0.000000 -1.000000 0.000000
vn 0.000000 -1.000000 0.000000
vn 0.000000 -1.000000 0.000000
vn 0.000000 -1.000000 0.000000
vn 0.000000 -1.000000 0.000000
vn 0.000000 -1.000000 0.000000
vn 0.000000 -1.000000 0.000000
vn 0.000000 -1.000000 0.000000
vn 0.000000 -1.000000 0.000000
vn 0.000000 -1.000000 0.000000
vn 0.000000 -1.000000 0.000000
vn 0.000000 -1.000000 0.000000
vn 0.000000 -1.000000 0.000000
vn 0.000000 -1.000000 0.000000
vn 0.000000 -1.000000 0.000000
vn 0.206428 0.373423 -0.904402
vn 0.206428 0.373423 -0.904402
vn 0.206428 0.373423 -0.904402
vn 0.206428 0.373423 -0.904402
vn -0.574556 0.388388 -0.720445
vn -0.574556 0.388388 -0.720445
vn -0.574556 0.388388 -0.720445
vn -0.574556 0.388388 -0.720445
vn -0.918694 0.394970 0.000000
vn -0.918694 0.394970 0.000000
vn -0.918694 0.394970 0.000000
vn -0.918694 0.394970 0.000000
vn -0.574554 0.388395 0.720442
vn -0.574554 0.388395 0.720442
vn -0.574554 0.388396 0.720442
vn -0.574554 0.388395 0.720442
vn 0.206440 0.373422 0.904400
vn 0.206440 0.373422 0.904400
vn 0.206440 0.373422 0.904400
vn 0.206440 0.373422 0.904400
vn 0.840145 0.361191 0.404597
vn 0.840145 0.361191 0.404596
vn 0.840145 0.361191 0.404597
vn 0.840145 0.361191 0.404597
vn 0.840143 0.361196 -0.404596
vn 0.840143 0.361196 -0.404596
vn 0.840143 0.361196 -0.404596
vn 0.840143 0.361196 -0.404596
vn 0.175504 -0.614768 -0.768933
vn 0.175504 -0.614768 -0.768933
vn 0.175504 -0.614768 -0.768933
vn 0.175504 -0.614768 -0.768933
vn -0.483046 -0.632289 -0.605703
vn -0.483047 -0.632289 -0.605703
vn -0.483047 -0.632289 -0.605703
vn -0.483046 -0.632289 -0.605703
vn -0.768545 -0.639796 0.000000
vn -0.768545 -0.639796 0.000000
vn -0.768545 -0.639796 0.000000
vn -0.768545 -0.639796 0.000000
vn -0.483050 -0.632289 0.605701
vn -0.483050 -0.632289 0.605701
vn -0.483050 -0.632289 0.605701
vn -0.483050 -0.632289 0.605701
vn 0.175527 -0.614759 0.768936
vn 0.175527 -0.614759 0.768936
vn 0.175527 -0.614759 0.768936
vn 0.175527 -0.614759 0.768936
vn 0.720764 -0.600014 0.347106
vn 0.720764 -0.600014 0.347106
vn 0.720764 -0.600014 0.347106
vn 0.720764 -0.600014 0.347106
vn 0.720765 -0.600017 -0.347098
vn 0.720765 -0.600017 -0.347098
vn 0.720765 -0.600017 -0.347098
vn 0.720765 -0.600017 -0.347098
vn 0.029284 -0.059609 0.997792
vn 0.018835 -0.071629 0.997254
vn 0.011222 -0.080371 0.996702
vn 0.029284 -0.059609 0.997792
vn 0.000000 1.000000 0.000000
vn 0.000000 1.000000 0.000000
vn 0.000000 1.000000 0.000000
vn 0.000000 1.000000 0.000000
vn 0.047107 -0.095888 -0.994277
vn 0.000000 -0.095995 -0.995382
vn 0.000279 -0.095995 -0.995382
vn 0.047107 -0.095888 -0.994277
vn 0.000000 -1.000000 0.000000
vn 0.000000 -1.000000 0.000000
vn 0.000000 -1.000000 0.000000
vn 0.000000 -1.000000 0.000000
vn 0.996315 -0.062286 0.058962
vn 0.997483 -0.070351 -0.008917
vn 0.997483 -0.070351 -0.008917
vn 0.996315 -0.062286 0.058962
vn -0.999284 -0.037831 0.000000
vn -0.999284 -0.037831 0.000000
vn -0.998644 -0.037807 -0.035790
vn -0.998644 -0.037807 -0.035790
vn 0.000000 -1.000000 0.000000
vn 0.000000 -1.000000 0.000000
vn 0.000000 -1.000000 0.000000
vn 0.000000 -1.000000 0.000000
vn 0.000000 -1.000000 0.000000
vn 0.000000 -1.000000 0.000000
vn 0.000000 -1.000000 0.000000
vn 0.000000 -1.000000 0.000000
vn 0.000000 -1.000000 0.000000
vn 0.000000 -1.000000 0.000000
vn 0.000000 -1.000000 0.000000
vn 0.000000 -1.000000 0.000000
vn 0.000000 -1.000000 0.000000
vn 0.000000 -1.000000 0.000000
vn 0.000000 -1.000000 0.000000
vn 0.000000 -1.000000 0.000000
vn -0.045845 -0.425652 0.903725
vn 0.002532 -0.423733 0.905784
vn -0.002107 -0.423960 0.905679
vn -0.045845 -0.425652 0.903725
vn -0.995459 -0.090607 0.029191
vn -0.993269 -0.115341 -0.010610
vn -0.987086 -0.147385 -0.062756
vn -0.987086 -0.147385 -0.062756
vn -0.010122 -0.443330 -0.896301
vn -0.018720 -0.453699 -0.890958
vn -0.028011 -0.464803 -0.884971
vn -0.028011 -0.464803 -0.884971
vn 0.990959 -0.128661 0.038026
vn 0.989871 -0.141570 0.010650
vn 0.988392 -0.151549 -0.010711
vn 0.990959 -0.128661 0.038026
vn -0.995544 -0.083315 0.044167
vn -0.985354 -0.166503 0.036810
vn -0.985451 -0.165915 0.036863
vn -0.995544 -0.083315 0.044167
vn 0.000000 -1.000000 0.000000
vn 0.000000 -1.000000 0.000000
vn 0.000000 -1.000000 0.000000
vn 0.000000 -1.000000 0.000000
vn 0.998667 -0.042644 -0.029069
vn 0.995268 -0.082379 -0.051532
vn 0.983248 -0.156519 -0.093414
vn 0.983248 -0.156519 -0.093414
vn 0.000000 -1.000000 0.000000
vn 0.000000 -1.000000 0.000000
vn 0.000000 -1.000000 0.000000
vn 0.000000 -1.000000 0.000000
vn -0.958044 -0.285179 0.028736
vn -0.966945 -0.254982 -0.001498
vn -0.970690 -0.239764 -0.016551
vn -0.958044 -0.285179 0.028736
vn 0.000000 -1.000000 0.000000
vn 0.000000 -1.000000 0.000000
vn 0.000000 -1.000000 0.000000
vn 0.000000 -1.000000 0.000000
vn 0.999427 0.032640 0.008911
vn 0.999427 0.032655 0.008885
vn 0.998216 0.052746 -0.027963
vn 0.998216 0.052746 -0.027963
vn 0.000000 1.000000 0.000000
vn 0.000000 1.000000 0.000000
vn 0.000000 1.000000 0.000000
vn 0.000000 1.000000 0.000000
vn -0.985451 -0.165915 0.036863
vn -0.985354 -0.166503 0.036810
vn -0.982270 -0.186873 -0.015004
vn -0.982292 -0.186746 -0.015132
vn 0.000000 -1.000000 0.000000
vn 0.000000 -1.000000 0.000000
vn 0.000000 -1.000000 0.000000
vn 0.000000 -1.000000 0.000000
vn 0.999132 0.023896 0.034131
vn 0.999217 0.023494 0.031849
vn 0.995268 -0.082379 -0.051532
vn 0.998667 -0.042644 -0.029069
vn 0.000000 -1.000000 0.000000
vn 0.000000 -1.000000 0.000000
vn 0.000000 -1.000000 0.000000
vn 0.000000 -1.000000 0.000000
vn -0.970690 -0.239764 -0.016551
vn -0.966945 -0.254982 -0.001498
vn -0.992622 -0.118354 -0.026327
vn -0.993607 -0.110092 -0.025019
vn 0.000000 -1.000000 0.000000
vn 0.000000 -1.000000 0.000000
vn 0.000000 -1.000000 0.000000
vn 0.000000 -1.000000 0.000000
vn 0.997880 -0.060462 0.024067
vn 0.997872 -0.060619 0.024034
vn 0.999427 0.032655 0.008885
vn 0.999427 0.032640 0.008911
vn 0.000000 1.000000 0.000000
vn 0.000000 1.000000 0.000000
vn 0.000000 1.000000 0.000000
vn 0.000000 1.000000 0.000000
vn -0.982292 -0.186746 -0.015132
vn -0.982270 -0.186873 -0.015004
vn -0.991791 -0.124863 -0.027552
vn -0.991791 -0.124863 -0.027552
vn 0.000000 -1.000000 0.000000
vn 0.000000 -1.000000 0.000000
vn 0.000000 -1.000000 0.000000
vn 0.000000 -1.000000 0.000000
vn 0.999320 -0.007789 0.036037
vn 0.999038 -0.038041 0.021835
vn 0.999217 0.023494 0.031849
vn 0.999132 0.023896 0.034131
vn 0.000000 -1.000000 0.000000
vn 0.000000 -1.000000 0.000000
vn 0.000000 -1.000000 0.000000
vn 0.000000 -1.000000 0.000000
vn -0.993607 -0.110092 -0.025019
vn -0.992622 -0.118354 -0.026327
vn -0.998763 -0.046582 0.017410
vn -0.999049 -0.043505 0.002781
vn 0.000000 -1.000000 0.000000
vn 0.000000 -1.000000 0.000000
vn 0.000000 -1.000000 0.000000
vn 0.000000 -1.000000 0.000000
vn 0.994398 -0.105341 -0.008708
vn 0.994391 -0.105422 -0.008514
vn 0.997872 -0.060619 0.024034
vn 0.997880 -0.060462 0.024067
vn 0.000000 1.000000 0.000000
vn 0.000000 1.000000 0.000000
vn 0.000000 1.000000 0.000000
vn 0.000000 1.000000 0.000000
vn -0.991791 -0.124863 -0.027552
vn -0.991791 -0.124863 -0.027552
vn -0.999284 -0.037831 0.000000
vn -0.999284 -0.037831 0.000000
vn 0.000000 -1.000000 0.000000
vn 0.000000 -1.000000 0.000000
vn 0.000000 -1.000000 0.000000
vn 0.000000 -1.000000 0.000000
vn 0.988392 -0.151549 -0.010711
vn 0.989871 -0.141570 0.010650
vn 0.999038 -0.038041 0.021835
vn 0.999320 -0.007789 0.036037
vn 0.000000 -1.000000 0.000000
vn 0.000000 -1.000000 0.000000
vn 0.000000 -1.000000 0.000000
vn 0.000000 -1.000000 0.000000
vn -0.999049 -0.043505 0.002781
vn -0.998763 -0.046582 0.017410
vn -0.993269 -0.115341 -0.010610
vn -0.995459 -0.090607 0.029191
vn 0.000000 -1.000000 0.000000
vn 0.000000 -1.000000 0.000000
vn 0.000000 -1.000000 0.000000
vn 0.000000 -1.000000 0.000000
vn 0.997483 -0.070351 -0.008917
vn 0.997483 -0.070351 -0.008917
vn 0.994391 -0.105422 -0.008514
vn 0.994398 -0.105341 -0.008708
vn 0.000000 1.000000 0.000000
vn 0.000000 1.000000 0.000000
vn 0.000000 1.000000 0.000000
vn 0.000000 1.000000 0.000000
vn 0.011222 -0.080371 0.996702
vn 0.018835 -0.071629 0.997254
vn -0.005570 -0.099609 0.995011
vn -0.005570 -0.099609 0.995011
vn 0.000000 1.000000 0.000000
vn 0.000000 1.000000 0.000000
vn 0.000000 1.000000 0.000000
vn 0.000000 1.000000 0.000000
vn 0.000000 1.000000 0.000000
vn 0.000000 1.000000 0.000000
vn 0.000000 1.000000 0.000000
vn 0.000000 1.000000 0.000000
vn 0.000000 1.000000 0.000000
vn 0.000000 1.000000 0.000000
vn 0.000000 1.000000 0.000000
vn 0.000000 1.000000 0.000000
vn 0.000000 1.000000 0.000000
vn 0.000000 1.000000 0.000000
vn 0.000000 1.000000 0.000000
vn 0.000000 1.000000 0.000000
vn 0.000000 1.000000 0.000000
vn 0.000000 1.000000 0.000000
vn 0.000000 1.000000 0.000000
vn 0.000000 1.000000 0.000000
vn 0.000279 -0.095995 -0.995382
vn 0.000000 -0.095995 -0.995382
vn -0.085250 -0.095645 -0.991758
vn -0.085250 -0.095645 -0.991758
vn 0.000000 -1.000000 0.000000
vn 0.000000 -1.000000 0.000000
vn 0.000000 -1.000000 0.000000
vn 0.000000 -1.000000 0.000000
vn -0.002107 -0.423960 0.905679
vn 0.002532 -0.423733 0.905784
vn 0.083247 -0.418313 0.904480
vn 0.083247 -0.418313 0.904480
vn 0.000000 -1.000000 0.000000
vn 0.000000 -1.000000 0.000000
vn 0.000000 -1.000000 0.000000
vn 0.000000 -1.000000 0.000000
vn 0.000000 -1.000000 0.000000
vn 0.000000 -1.000000 0.000000
vn 0.000000 -1.000000 0.000000
vn 0.000000 -1.000000 0.000000
vn 0.000000 -1.000000 0.000000
vn 0.000000 -1.000000 0.000000
vn 0.000000 -1.000000 0.000000
vn 0.000000 -1.000000 0.000000
vn 0.000000 -1.000000 0.000000
vn 0.000000 -1.000000 0.000000
vn 0.000000 -1.000000 0.000000
vn 0.000000 -1.000000 0.000000
vn 0.000000 -1.000000 0.000000
vn 0.000000 -1.000000 0.000000
vn 0.000000 -1.000000 0.000000
vn 0.000000 -1.000000 0.000000
vn 0.005389 -0.424394 -0.905462
vn -0.018720 -0.453699 -0.890958
vn -0.010122 -0.443330 -0.896301
vn 0.005389 -0.424394 -0.905462
vn 0.000000 -1.000000 0.000000
vn 0.000000 -1.000000 0.000000
vn 0.000000 -1.000000 0.000000
vn 0.000000 -1.000000 0.000000
s off
g LongTableUV1
usemtl lambert3SG
f 1/1/1 2/2/2 9/3/3 8/4/4
f 2/2/5 3/5/6 10/6/7 9/3/8
f 3/5/9 4/7/10 11/8/11 10/6/12
f 4/9/13 5/10/14 12/11/15 11/12/16
f 5/10/17 6/13/18 13/14/19 12/11/20
f 6/13/21 7/15/22 14/16/23 13/14/24
f 7/15/25 1/1/26 8/4/27 14/16/28
f 23/17/29 22/18/30 24/19/31
f 25/20/32 23/17/33 24/19/34
f 26/21/35 25/20/36 24/19/37
f 27/22/38 26/21/39 24/19/40
f 28/23/41 27/22/42 24/19/43
f 29/24/44 28/23/45 24/19/46
f 22/18/47 29/24/48 24/19/49
f 2/2/50 1/1/51 15/25/52 16/26/53
f 3/5/54 2/2/55 16/26/56 17/27/57
f 4/7/58 3/5/59 17/27/60 18/28/61
f 5/10/62 4/9/63 18/29/64 19/30/65
f 6/13/66 5/10/67 19/30/68 20/31/69
f 7/15/70 6/13/71 20/31/72 21/32/73
f 1/1/74 7/15/75 21/32/76 15/25/77
f 16/26/78 15/25/79 22/33/80 23/34/81
f 17/27/82 16/26/83 23/34/84 25/20/85
f 18/28/86 17/27/87 25/20/88 26/21/89
f 19/30/90 18/29/91 26/35/92 27/36/93
f 20/31/94 19/30/95 27/36/96 28/37/97
f 21/32/98 20/31/99 28/37/100 29/38/101
f 15/25/102 21/32/103 29/38/104 22/33/105
f 30/39/106 31/40/107 38/41/108 37/42/109
f 31/40/110 32/43/111 39/44/112 38/41/113
f 32/45/114 33/46/115 40/47/116 39/48/117
f 33/46/118 34/49/119 41/50/120 40/47/121
f 34/49/122 35/51/123 42/52/124 41/50/125
f 35/51/126 36/53/127 43/54/128 42/52/129
f 36/53/130 30/39/131 37/42/132 43/54/133
f 52/55/134 51/56/135 53/57/136
f 54/58/137 52/55/138 53/57/139
f 55/59/140 54/58/141 53/57/142
f 56/60/143 55/59/144 53/57/145
f 57/61/146 56/60/147 53/57/148
f 58/62/149 57/61/150 53/57/151
f 51/56/152 58/62/153 53/57/154
f 31/40/155 30/39/156 44/63/157 45/64/158
f 32/43/159 31/40/160 45/64/161 46/65/162
f 33/46/163 32/45/164 46/66/165 47/67/166
f 34/49/167 33/46/168 47/67/169 48/68/170
f 35/51/171 34/49/172 48/68/173 49/69/174
f 36/53/175 35/51/176 49/69/177 50/70/178
f 30/39/179 36/53/180 50/70/181 44/63/182
f 45/64/183 44/63/184 51/71/185 52/72/186
f 46/65/187 45/64/188 52/72/189 54/73/190
f 47/67/191 46/66/192 54/58/193 55/59/194
f 48/68/195 47/67/196 55/59/197 56/74/198
f 49/69/199 48/68/200 56/74/201 57/75/202
f 50/70/203 49/69/204 57/75/205 58/76/206
f 44/63/207 50/70/208 58/76/209 51/71/210
f 59/77/211 60/78/212 67/79/213 66/80/214
f 60/78/215 61/81/216 68/82/217 67/79/218
f 61/81/219 62/83/220 69/84/221 68/82/222
f 62/83/223 63/85/224 70/86/225 69/84/226
f 63/85/227 64/87/228 71/88/229 70/86/230
f 64/87/231 65/89/232 72/90/233 71/88/234
f 65/89/235 59/91/236 66/92/237 72/90/238
f 81/93/239 80/94/240 82/95/241
f 83/96/242 81/93/243 82/95/244
f 84/97/245 83/96/246 82/95/247
f 85/98/248 84/97/249 82/95/250
f 86/99/251 85/98/252 82/95/253
f 87/100/254 86/99/255 82/95/256
f 80/94/257 87/100/258 82/95/259
f 60/78/260 59/77/261 73/101/262 74/102/263
f 61/81/264 60/78/265 74/102/266 75/103/267
f 62/83/268 61/81/269 75/103/270 76/104/271
f 63/85/272 62/83/273 76/104/274 77/105/275
f 64/87/276 63/85/277 77/105/278 78/106/279
f 65/89/280 64/87/281 78/106/282 79/107/283
f 59/91/284 65/89/285 79/107/286 73/108/287
f 74/102/288 73/101/289 80/109/290 81/110/291
f 75/103/292 74/102/293 81/110/294 83/111/295
f 76/104/296 75/103/297 83/111/298 84/112/299
f 77/105/300 76/104/301 84/112/302 85/113/303
f 78/106/304 77/105/305 85/113/306 86/114/307
f 79/107/308 78/106/309 86/114/310 87/100/311
f 73/108/312 79/107/313 87/100/314 80/94/315
f 88/115/316 89/116/317 96/117/318 95/118/319
f 89/116/320 90/119/321 97/120/322 96/117/323
f 90/119/324 91/121/325 98/122/326 97/120/327
f 91/121/328 92/123/329 99/124/330 98/122/331
f 92/123/332 93/125/333 100/126/334 99/124/335
f 93/127/336 94/128/337 101/129/338 100/130/339
f 94/128/340 88/115/341 95/118/342 101/129/343
f 110/131/344 109/132/345 111/133/346
f 112/134/347 110/131/348 111/133/349
f 113/135/350 112/134/351 111/133/352
f 114/136/353 113/135/354 111/133/355
f 115/137/356 114/136/357 111/133/358
f 116/138/359 115/137/360 111/133/361
f 109/132/362 116/138/363 111/133/364
f 89/116/365 88/115/366 102/139/367 103/140/368
f 90/119/369 89/116/370 103/140/371 104/141/372
f 91/121/373 90/119/374 104/141/375 105/142/376
f 92/123/377 91/121/378 105/142/379 106/143/380
f 93/125/381 92/123/382 106/143/383 107/144/384
f 94/128/385 93/127/386 107/145/387 108/146/388
f 88/115/389 94/128/390 108/146/391 102/139/392
f 103/140/393 102/139/394 109/147/395 110/148/396
f 104/141/397 103/140/398 110/148/399 112/149/400
f 105/142/401 104/141/402 112/149/403 113/150/404
f 106/143/405 105/142/406 113/150/407 114/151/408
f 107/144/409 106/143/410 114/151/411 115/152/412
f 108/146/413 107/145/414 115/137/415 116/138/416
f 102/139/417 108/146/418 116/138/419 109/147/420
f 117/153/421 165/154/422 166/155/423 119/156/424
f 119/156/425 166/155/426 167/157/427 157/158/428
f 121/159/429 171/160/430 172/161/431 123/162/432
f 160/163/433 178/164/434 179/165/435 132/166/436
f 118/167/437 163/168/438 164/169/439 120/170/440
f 157/158/441 158/171/442 117/172/443 119/156/444
f 123/162/445 172/161/446 173/173/447 125/174/448
f 162/175/449 163/168/450 118/167/451 127/176/452
f 180/177/453 165/154/454 117/153/455 128/178/456
f 117/172/457 158/171/458 159/179/459 128/180/460
f 125/181/461 173/182/462 174/183/463 129/184/464
f 161/185/465 162/186/466 127/187/467 131/188/468
f 179/165/469 180/189/470 128/190/471 132/166/472
f 128/190/473 159/191/474 160/163/475 132/166/476
f 123/192/477 134/193/478 133/194/479 121/159/480
f 135/195/481 134/193/482 123/192/483 125/196/484
f 136/197/485 135/198/486 125/181/487 129/184/488
f 129/184/489 174/183/490 175/199/491 136/197/492
f 126/200/493 138/201/494 137/202/495 130/203/496
f 124/204/497 139/205/498 138/206/499 126/207/500
f 140/208/501 139/205/502 124/204/503 122/209/504
f 133/194/505 170/210/506 171/160/507 121/159/508
f 133/194/509 134/193/510 142/211/511 141/212/512
f 143/213/513 142/211/514 134/193/515 135/195/516
f 144/214/517 143/215/518 135/198/519 136/197/520
f 136/197/521 175/199/522 176/216/523 144/214/524
f 137/202/525 138/201/526 146/217/527 145/218/528
f 138/206/529 139/205/530 147/219/531 146/220/532
f 148/221/533 147/219/534 139/205/535 140/208/536
f 141/212/537 169/222/538 170/210/539 133/194/540
f 141/212/541 142/211/542 150/223/543 149/224/544
f 151/225/545 150/223/546 142/211/547 143/213/548
f 152/226/549 151/227/550 143/215/551 144/214/552
f 144/214/553 176/216/554 177/228/555 152/226/556
f 145/218/557 146/217/558 154/229/559 153/230/560
f 146/220/561 147/219/562 155/231/563 154/232/564
f 156/233/565 155/231/566 147/219/567 148/221/568
f 149/224/569 168/234/570 169/222/571 141/212/572
f 149/224/573 150/223/574 158/171/575 157/158/576
f 159/179/577 158/171/578 150/223/579 151/225/580
f 160/163/581 159/191/582 151/227/583 152/226/584
f 152/226/585 177/228/586 178/164/587 160/163/588
f 153/230/589 154/229/590 162/186/591 161/185/592
f 154/232/593 155/231/594 163/168/595 162/175/596
f 164/169/597 163/168/598 155/231/599 156/233/600
f 157/158/601 167/157/602 168/234/603 149/224/604
f 166/155/605 165/154/606 118/235/607 120/170/608
f 167/157/609 166/155/610 120/170/611 164/169/612
f 168/234/613 167/157/614 164/169/615 156/233/616
f 169/222/617 168/234/618 156/233/619 148/221/620
f 170/210/621 169/222/622 148/221/623 140/208/624
f 171/160/625 170/210/626 140/208/627 122/209/628
f 172/161/629 171/160/630 122/209/631 124/236/632
f 173/173/633 172/161/634 124/236/635 126/237/636
f 174/183/637 173/182/638 126/200/639 130/203/640
f 175/199/641 174/183/642 130/203/643 137/202/644
f 176/216/645 175/199/646 137/202/647 145/218/648
f 177/228/649 176/216/650 145/218/651 153/230/652
f 178/164/653 177/228/654 153/230/655 161/185/656
f 179/165/657 178/164/658 161/185/659 131/188/660
f 127/187/661 180/189/662 179/165/663 131/188/664
f 118/235/665 165/154/666 180/177/667 127/238/668
