#File written by LIBUNFOLD3D. Compilation :Dec 22 2011,11:53:02
mtllib Television.mtl
#begin vertices
v -8.7703480000000003 2.529112 5.3264060000000004
v -6.1954370000000001 2.529112 5.3264060000000004
v -8.7703480000000003 5.1040229999999998 5.3264060000000004
v -6.1954370000000001 5.1040229999999998 5.3264060000000004
v -8.7703480000000003 5.1040229999999998 2.7514949999999998
v -6.1954370000000001 5.1040229999999998 2.7514949999999998
v -8.7703480000000003 2.529112 2.7514949999999998
v -6.1954370000000001 2.529112 2.7514949999999998
v -8.5618940000000006 4.9752619999999999 2.7514949999999998
v -6.425421 4.9752619999999999 2.7514949999999998
v -6.425421 3.060705 2.7514949999999998
v -8.5618940000000006 3.060705 2.7514949999999998
v -8.5618940000000006 4.9752619999999999 2.8726690000000001
v -6.425421 4.9752619999999999 2.8726690000000001
v -6.425421 3.060705 2.8726690000000001
v -8.5618940000000006 3.060705 2.8726690000000001
v -8.5618940000000006 4.0179830000000001 2.7863600000000002
v -6.425421 4.0179830000000001 2.7863600000000002
v -7.4936579999999999 3.060705 2.7940749999999999
v -7.4936579999999999 4.0179830000000001 2.7077650000000002
v -7.4936579999999999 4.9752619999999999 2.7940749999999999
v -6.8410060000000001 2.7255199999999999 2.7826770000000001
v -6.9378099999999998 2.7569729999999999 2.7826770000000001
v -6.9378099999999998 2.8587590000000001 2.7826770000000001
v -6.8410060000000001 2.890212 2.7826759999999999
v -6.7811779999999997 2.8078660000000002 2.7826759999999999
v -6.8410060000000001 2.7255199999999999 2.7228330000000001
v -6.9378099999999998 2.7569729999999999 2.7228330000000001
v -6.9378099999999998 2.8587590000000001 2.7228330000000001
v -6.8410060000000001 2.890212 2.7228330000000001
v -6.7811779999999997 2.8078660000000002 2.7228330000000001
v -6.8677619999999999 2.8078660000000002 2.7228330000000001
v -6.517188 2.6381139999999998 2.7839849999999999
v -6.7167430000000001 2.7029540000000001 2.7839849999999999
v -6.7167430000000001 2.912779 2.7839860000000001
v -6.517188 2.9776180000000001 2.7839849999999999
v -6.3938560000000004 2.8078660000000002 2.7839849999999999
v -6.517188 2.6381139999999998 2.6606209999999999
v -6.7167430000000001 2.7029540000000001 2.6606209999999999
v -6.7167430000000001 2.9127779999999999 2.660622
v -6.517188 2.9776180000000001 2.6606209999999999
v -6.3938560000000004 2.8078660000000002 2.6606209999999999
v -6.5723440000000002 2.8078660000000002 2.6606209999999999
v -7.157419 5.1040219999999996 3.7389420000000002
v -7.2060279999999999 5.1040219999999996 3.6435409999999999
v -7.281739 5.1040219999999996 3.567831
v -7.3771399999999998 5.1040219999999996 3.5192209999999999
v -7.4828929999999998 5.1040219999999996 3.5024709999999999
v -7.5886459999999998 5.1040219999999996 3.5192209999999999
v -7.6840469999999996 5.1040219999999996 3.567831
v -7.7597569999999996 5.1040219999999996 3.6435409999999999
v -7.8083660000000004 5.1040219999999996 3.7389420000000002
v -7.8251160000000004 5.1040219999999996 3.8446950000000002
v -7.8083660000000004 5.1040219999999996 3.9504480000000002
v -7.7597569999999996 5.1040219999999996 4.0458489999999996
v -7.6840469999999996 5.1040219999999996 4.1215590000000004
v -7.5886459999999998 5.1040219999999996 4.1701680000000003
v -7.4828929999999998 5.1040219999999996 4.1869180000000004
v -7.3771399999999998 5.1040219999999996 4.1701680000000003
v -7.281739 5.1040219999999996 4.1215590000000004
v -7.2060279999999999 5.1040219999999996 4.0458489999999996
v -7.157419 5.1040219999999996 3.9504480000000002
v -7.1406700000000001 5.1040219999999996 3.8446950000000002
v -7.1885849999999998 5.2118169999999999 3.749069
v -7.2325400000000002 5.2118169999999999 3.6628029999999998
v -7.3010010000000003 5.2118169999999999 3.5943420000000001
v -7.3872669999999996 5.2118169999999999 3.5503879999999999
v -7.4828929999999998 5.2118169999999999 3.5352420000000002
v -7.578519 5.2118169999999999 3.5503879999999999
v -7.6647850000000002 5.2118169999999999 3.5943420000000001
v -7.7332450000000001 5.2118169999999999 3.6628029999999998
v -7.7771999999999997 5.2118169999999999 3.749069
v -7.7923460000000002 5.2118169999999999 3.8446950000000002
v -7.7771999999999997 5.2118169999999999 3.940321
v -7.7332450000000001 5.2118169999999999 4.026586
v -7.6647850000000002 5.2118169999999999 4.0950470000000001
v -7.578519 5.2118169999999999 4.1390019999999996
v -7.4828929999999998 5.2118169999999999 4.1541480000000002
v -7.3872669999999996 5.2118169999999999 4.1390019999999996
v -7.3010010000000003 5.2118169999999999 4.0950480000000002
v -7.2325400000000002 5.2118169999999999 4.026586
v -7.1885859999999999 5.2118169999999999 3.940321
v -7.1734400000000003 5.2118169999999999 3.8446950000000002
v -7.2474470000000002 5.3034280000000003 3.7681939999999998
v -7.2826110000000002 5.3034280000000003 3.6991809999999998
v -7.3373790000000003 5.3034280000000003 3.6444130000000001
v -7.4063920000000003 5.3034280000000003 3.6092490000000002
v -7.4828929999999998 5.3034280000000003 3.5971329999999999
v -7.5593940000000002 5.3034280000000003 3.6092490000000002
v -7.628406 5.3034280000000003 3.6444130000000001
v -7.6831750000000003 5.3034280000000003 3.699182
v -7.7183390000000003 5.3034280000000003 3.7681939999999998
v -7.7304550000000001 5.3034280000000003 3.8446950000000002
v -7.7183390000000003 5.3034280000000003 3.9211960000000001
v -7.6831750000000003 5.3034280000000003 3.990208
v -7.628406 5.3034280000000003 4.0449770000000003
v -7.5593940000000002 5.3034280000000003 4.0801400000000001
v -7.4828929999999998 5.3034280000000003 4.092257
v -7.4063920000000003 5.3034280000000003 4.0801400000000001
v -7.3373790000000003 5.3034280000000003 4.0449770000000003
v -7.2826110000000002 5.3034280000000003 3.990208
v -7.2474470000000002 5.3034280000000003 3.9211960000000001
v -7.2353310000000004 5.3034280000000003 3.8446950000000002
v -7.2977119999999998 5.3605939999999999 3.7845260000000001
v -7.3253680000000001 5.3605939999999999 3.7302469999999999
v -7.3684450000000004 5.3605939999999999 3.6871700000000001
v -7.4227239999999997 5.3605939999999999 3.6595140000000002
v -7.4828929999999998 5.3605939999999999 3.6499839999999999
v -7.5430619999999999 5.3605939999999999 3.6595140000000002
v -7.5973410000000001 5.3605939999999999 3.6871710000000002
v -7.6404170000000002 5.3605939999999999 3.7302469999999999
v -7.6680739999999998 5.3605939999999999 3.7845260000000001
v -7.6776039999999997 5.3605939999999999 3.8446950000000002
v -7.6680739999999998 5.3605939999999999 3.9048639999999999
v -7.6404170000000002 5.3605939999999999 3.9591430000000001
v -7.5973410000000001 5.3605939999999999 4.0022190000000002
v -7.5430619999999999 5.3605939999999999 4.0298759999999998
v -7.4828929999999998 5.3605939999999999 4.0394050000000004
v -7.4227239999999997 5.3605939999999999 4.0298759999999998
v -7.3684450000000004 5.3605939999999999 4.0022190000000002
v -7.3253690000000002 5.3605939999999999 3.9591430000000001
v -7.2977119999999998 5.3605939999999999 3.9048639999999999
v -7.2881819999999999 5.3605939999999999 3.8446950000000002
v -7.36517 5.4102480000000002 3.8064439999999999
v -7.382752 5.4102480000000002 3.771938
v -7.4101359999999996 5.4102480000000002 3.7445539999999999
v -7.444642 5.4102480000000002 3.726972
v -7.4828929999999998 5.4102480000000002 3.7209140000000001
v -7.5211430000000004 5.4102480000000002 3.726972
v -7.55565 5.4102480000000002 3.7445539999999999
v -7.5830339999999996 5.4102480000000002 3.771938
v -7.6006159999999996 5.4102480000000002 3.8064439999999999
v -7.6066739999999999 5.4102480000000002 3.8446950000000002
v -7.6006159999999996 5.4102480000000002 3.8829449999999999
v -7.5830339999999996 5.4102480000000002 3.9174519999999999
v -7.55565 5.4102480000000002 3.944836
v -7.5211430000000004 5.4102480000000002 3.962418
v -7.4828929999999998 5.4102480000000002 3.9684759999999999
v -7.444642 5.4102480000000002 3.962418
v -7.4101359999999996 5.4102480000000002 3.944836
v -7.382752 5.4102480000000002 3.9174519999999999
v -7.36517 5.4102480000000002 3.8829449999999999
v -7.3591119999999997 5.4102480000000002 3.8446950000000002
v -7.4240310000000003 5.4334290000000003 3.8255699999999999
v -7.4328219999999998 5.4334290000000003 3.8083170000000002
v -7.4465139999999996 5.4334290000000003 3.7946240000000002
v -7.463768 5.4334290000000003 3.7858339999999999
v -7.4828929999999998 5.4334290000000003 3.7828040000000001
v -7.5020179999999996 5.4334290000000003 3.7858339999999999
v -7.5192709999999998 5.4334290000000003 3.7946249999999999
v -7.5329629999999996 5.4334290000000003 3.8083170000000002
v -7.5417540000000001 5.4334290000000003 3.8255699999999999
v -7.5447829999999998 5.4334290000000003 3.8446950000000002
v -7.5417540000000001 5.4334290000000003 3.86382
v -7.5329629999999996 5.4334290000000003 3.8810730000000002
v -7.5192709999999998 5.4334290000000003 3.894765
v -7.5020179999999996 5.4334290000000003 3.903556
v -7.4828929999999998 5.4334290000000003 3.9065850000000002
v -7.463768 5.4334290000000003 3.903556
v -7.4465139999999996 5.4334290000000003 3.894765
v -7.4328219999999998 5.4334290000000003 3.8810730000000002
v -7.4240310000000003 5.4334290000000003 3.86382
v -7.4210019999999997 5.4334290000000003 3.8446950000000002
v -7.4828929999999998 5.4411949999999996 3.8446950000000002
v -7.5848399999999998 5.2035039999999997 3.668669
v -7.6013799999999998 5.1981580000000003 3.6845110000000001
v -7.607856 5.2009699999999999 3.7069450000000002
v -7.6017950000000001 5.2108650000000001 3.727401
v -7.5855110000000003 5.2240640000000003 3.7380659999999999
v -7.5652249999999999 5.2355239999999998 3.7348669999999999
v -7.5486849999999999 5.2408700000000001 3.7190249999999998
v -7.5422089999999997 5.2380579999999997 3.6965919999999999
v -7.5482709999999997 5.2281630000000003 3.6761360000000001
v -7.5645540000000002 5.2149640000000002 3.66547
v -8.0328920000000004 5.9348720000000004 3.4476580000000001
v -8.0494319999999995 5.9295260000000001 3.4634999999999998
v -8.0559080000000005 5.9323379999999997 3.4859330000000002
v -8.0498469999999998 5.9422329999999999 3.506389
v -8.0335629999999991 5.9554309999999999 3.5170539999999999
v -8.0132770000000004 5.9668919999999996 3.513855
v -7.9967370000000004 5.9722379999999999 3.4980129999999998
v -7.9902610000000003 5.9694260000000003 3.4755799999999999
v -7.9963230000000003 5.9595310000000001 3.4551240000000001
v -8.0126059999999999 5.946332 3.444458
v -7.5750330000000003 5.2195140000000002 3.7017679999999999
v -8.023085 5.950882 3.4807570000000001
v -7.2915190000000001 5.2507950000000001 3.7500040000000001
v -7.3107420000000003 5.2554550000000004 3.7372809999999999
v -7.3312119999999998 5.2670339999999998 3.7372809999999999
v -7.3451110000000002 5.2811079999999997 3.750003
v -7.3471299999999999 5.2923010000000001 3.7705890000000002
v -7.3364969999999996 5.2963380000000004 3.7911730000000001
v -7.3172740000000003 5.2916780000000001 3.8038959999999999
v -7.2968029999999997 5.2800989999999999 3.8038959999999999
v -7.2829040000000003 5.2660260000000001 3.7911730000000001
v -7.2808859999999997 5.2548320000000004 3.7705890000000002
v -6.8902060000000001 5.9603099999999998 3.403546
v -6.9094290000000003 5.9649700000000001 3.3908239999999998
v -6.9298999999999999 5.9765490000000003 3.3908239999999998
v -6.9437990000000003 5.9906220000000001 3.403546
v -6.9458169999999999 6.0018159999999998 3.424131
v -6.9351839999999996 6.0058530000000001 3.4447160000000001
v -6.9159610000000002 6.0011929999999998 3.4574379999999998
v -6.8954899999999997 5.9896140000000004 3.4574379999999998
v -6.8815910000000002 5.9755399999999996 3.4447160000000001
v -6.8795729999999997 5.9643470000000001 3.424131
v -7.3140080000000003 5.2735659999999998 3.7705890000000002
v -6.9126950000000003 5.9830810000000003 3.424131
#end vertices

#begin 301 textures vertices 
vt 0.28516745567321777 0.25800296664237976 0
vt 0.52325636148452759 0.25800296664237976 0
vt 0.28516745567321777 0.49609225988388062 0
vt 0.52325636148452759 0.49609225988388062 0
vt 0.50009423494338989 0.24742624163627625 0
vt 0.745635986328125 0.24723717570304871 0
vt 0.2545526921749115 0.24761542677879333 0
vt 0.0090110041201114655 0.24780464172363281 0
vt 0.22237539291381836 0.47512361407279968 0
vt 0.057503525167703629 0.47582343220710754 0
vt 0.048531323671340942 0.32185250520706177 0
vt 0.23221588134765625 0.32166478037834167 0
vt 0.55064845085144043 0.47687149047851563 0
vt 0.75724518299102783 0.4759867787361145 0
vt 0.022746007889509201 0.67033874988555908 0
vt 0.55109584331512451 0.28963756561279297 0
vt 0.53080463409423828 0.38254377245903015 0
vt 0.023157566785812378 0.82398349046707153 0
vt 0.19400666654109955 0.67064034938812256 0
vt 0.19400666654109955 0.82398349046707153 0
vt 0.65434175729751587 0.49471032619476318 0
vt 0.78712499141693115 0.55264300107955933 0
vt 0.7871241569519043 0.52162575721740723 0
vt 0.78712606430053711 0.64569509029388428 0
vt 0.78712600469589233 0.6146770715713501 0
vt 0.78712588548660278 0.58365970849990845 0
vt 0.80536079406738281 0.55264288187026978 0
vt 0.80536073446273804 0.52162551879882813 0
vt 0.80536043643951416 0.49060726165771484 0
vt 0.80536150932312012 0.61467689275741577 0
vt 0.80536133050918579 0.58365964889526367 0
vt 0.4923747181892395 0.69811922311782837 0
vt 0.65552288293838501 0.60528105497360229 0
vt 0.69581067562103271 0.61547005176544189 0
vt 0.53465950489044189 0.57471352815628052 0
vt 0.5749472975730896 0.58490276336669922 0
vt 0.61523503065109253 0.59509187936782837 0
vt 0.6495322585105896 0.6289677619934082 0
vt 0.68981999158859253 0.63915723562240601 0
vt 0.73010802268981934 0.64934623241424561 0
vt 0.56895655393600464 0.60858941078186035 0
vt 0.60924434661865234 0.61877870559692383 0
vt 0.54889219999313354 0.66224676370620728 0
vt 0.84813404083251953 0.50801998376846313 0
vt 0.86154663562774658 0.49649769067764282 0
vt 0.8769640326499939 0.48713627457618713 0
vt 0.89432322978973389 0.48096176981925964 0
vt 0.91280180215835571 0.47924372553825378 0
vt 0.93127036094665527 0.48096373677253723 0
vt 0.94859969615936279 0.48715272545814514 0
vt 0.96405166387557983 0.49649134278297424 0
vt 0.97749412059783936 0.50803691148757935 0
vt 0.83524602651596069 0.61386150121688843 0
vt 0.84636443853378296 0.60085999965667725 0
vt 0.85973882675170898 0.5892680287361145 0
vt 0.87536704540252686 0.58024924993515015 0
vt 0.89260596036911011 0.57412618398666382 0
vt 0.91102385520935059 0.57180017232894897 0
vt 0.92944115400314331 0.5741150975227356 0
vt 0.94668740034103394 0.5802302360534668 0
vt 0.96236109733581543 0.58923846483230591 0
vt 0.97574836015701294 0.60084694623947144 0
vt 0.83701878786087036 0.52100372314453125 0
vt 0.86010760068893433 0.52065640687942505 0
vt 0.87102419137954712 0.51054590940475464 0
vt 0.88380235433578491 0.50277942419052124 0
vt 0.89796990156173706 0.49798914790153503 0
vt 0.91279667615890503 0.49605020880699158 0
vt 0.9276270866394043 0.49797719717025757 0
vt 0.94172650575637817 0.50280618667602539 0
vt 0.95457029342651367 0.51052051782608032 0
vt 0.96552598476409912 0.5206611156463623 0
vt 0.97475600242614746 0.53242295980453491 0
vt 0.85834872722625732 0.61356920003890991 0
vt 0.869301438331604 0.60354131460189819 0
vt 0.88201743364334106 0.59568291902542114 0
vt 0.89617955684661865 0.59079080820083618 0
vt 0.91104167699813843 0.5892709493637085 0
vt 0.92590188980102539 0.59078896045684814 0
vt 0.94004964828491211 0.59568113088607788 0
vt 0.95283406972885132 0.60351830720901489 0
vt 0.96376407146453857 0.61356478929519653 0
vt 0.97304487228393555 0.62530922889709473 0
vt 0.87241888046264648 0.53256070613861084 0
vt 0.88079065084457397 0.52422219514846802 0
vt 0.89058709144592285 0.51798635721206665 0
vt 0.90137910842895508 0.51399773359298706 0
vt 0.91278636455535889 0.51270198822021484 0
vt 0.92418491840362549 0.51403230428695679 0
vt 0.93511521816253662 0.51792961359024048 0
vt 0.94483953714370728 0.52424496412277222 0
vt 0.95307570695877075 0.53251427412033081 0
vt 0.95963543653488159 0.54237127304077148 0
vt 0.87067633867263794 0.62547552585601807 0
vt 0.87901163101196289 0.61716854572296143 0
vt 0.88878262042999268 0.61086559295654297 0
vt 0.89967483282089233 0.60699784755706787 0
vt 0.9110637903213501 0.60558640956878662 0
vt 0.92246538400650024 0.60698771476745605 0
vt 0.93336308002471924 0.61085379123687744 0
vt 0.94305878877639771 0.61719167232513428 0
vt 0.95141154527664185 0.62548774480819702 0
vt 0.95795094966888428 0.63534039258956909 0
vt 0.88194906711578369 0.54028338193893433 0
vt 0.88804459571838379 0.53355598449707031 0
vt 0.89557754993438721 0.52842909097671509 0
vt 0.90396648645401001 0.52524852752685547 0
vt 0.91280698776245117 0.52420789003372192 0
vt 0.92166316509246826 0.5252489447593689 0
vt 0.93001288175582886 0.52842319011688232 0
vt 0.93748384714126587 0.53350996971130371 0
vt 0.94364172220230103 0.54027926921844482 0
vt 0.94806879758834839 0.54839998483657837 0
vt 0.88013380765914917 0.63325011730194092 0
vt 0.88634574413299561 0.62643617391586304 0
vt 0.89385813474655151 0.62133985757827759 0
vt 0.90220183134078979 0.6181836724281311 0
vt 0.91104573011398315 0.61713021993637085 0
vt 0.919880211353302 0.61817961931228638 0
vt 0.92827963829040527 0.62132865190505981 0
vt 0.93575078248977661 0.62644237279891968 0
vt 0.94195055961608887 0.63326603174209595 0
vt 0.94633513689041138 0.64138990640640259 0
vt 0.8934476375579834 0.54796206951141357 0
vt 0.89708316326141357 0.54332208633422852 0
vt 0.90172302722930908 0.53986722230911255 0
vt 0.90706866979598999 0.53772962093353271 0
vt 0.91278868913650513 0.53697818517684937 0
vt 0.91850215196609497 0.53771209716796875 0
vt 0.92386108636856079 0.53987401723861694 0
vt 0.92852872610092163 0.54335784912109375 0
vt 0.93215906620025635 0.54796046018600464 0
vt 0.93437856435775757 0.55337810516357422 0
vt 0.89170718193054199 0.64084088802337646 0
vt 0.89529669284820557 0.63628411293029785 0
vt 0.89995145797729492 0.63282674551010132 0
vt 0.90532916784286499 0.63064849376678467 0
vt 0.91105020046234131 0.62992030382156372 0
vt 0.91677457094192505 0.63065743446350098 0
vt 0.92212527990341187 0.63279885053634644 0
vt 0.92677539587020874 0.63626402616500854 0
vt 0.93036949634552002 0.64084881544113159 0
vt 0.93256384134292603 0.64628332853317261 0
vt 0.90306180715560913 0.55277800559997559 0
vt 0.90472126007080078 0.55033260583877563 0
vt 0.90703755617141724 0.54846310615539551 0
vt 0.90980327129364014 0.54726505279541016 0
vt 0.91279482841491699 0.54687702655792236 0
vt 0.91578704118728638 0.54727023839950562 0
vt 0.91855227947235107 0.54844456911087036 0
vt 0.92087137699127197 0.55032002925872803 0
vt 0.92254382371902466 0.55280071496963501 0
vt 0.92336416244506836 0.55562794208526611 0
vt 0.90130007266998291 0.64571201801300049 0
vt 0.90296673774719238 0.64323818683624268 0
vt 0.90528261661529541 0.64136838912963867 0
vt 0.90804851055145264 0.64019656181335449 0
vt 0.91104185581207275 0.63977628946304321 0
vt 0.91403454542160034 0.64019119739532471 0
vt 0.91680020093917847 0.64138531684875488 0
vt 0.91911303997039795 0.64325255155563354 0
vt 0.92076736688613892 0.64569246768951416 0
vt 0.92157614231109619 0.64852112531661987 0
vt 0.91280084848403931 0.55646675825119019 0
vt 0.35285201668739319 0.53710800409317017 0
vt 0.35260570049285889 0.53289216756820679 0
vt 0.35235956311225891 0.52867674827575684 0
vt 0.35211321711540222 0.52446085214614868 0
vt 0.35186702013015747 0.52024549245834351 0
vt 0.35162040591239929 0.51602989435195923 0
vt 0.35383737087249756 0.55396991968154907 0
vt 0.35359084606170654 0.549754798412323 0
vt 0.35334452986717224 0.54553914070129395 0
vt 0.35309833288192749 0.54132330417633057 0
vt 0.51161396503448486 0.52783209085464478 0
vt 0.51136744022369385 0.52361637353897095 0
vt 0.51112133264541626 0.51940077543258667 0
vt 0.51087492704391479 0.51518559455871582 0
vt 0.51062875986099243 0.51097005605697632 0
vt 0.51038223505020142 0.50675433874130249 0
vt 0.51259917020797729 0.54469436407089233 0
vt 0.51235270500183105 0.54047882556915283 0
vt 0.51210665702819824 0.53626340627670288 0
vt 0.511860191822052 0.53204774856567383 0
vt 0.47552689909934998 0.65251129865646362 0
vt 0.43014714121818542 0.65560495853424072 0
vt 0.51154148578643799 0.58293920755386353 0
vt 0.51174032688140869 0.58715724945068359 0
vt 0.51193898916244507 0.59137529134750366 0
vt 0.51213735342025757 0.59559351205825806 0
vt 0.51233655214309692 0.5998116135597229 0
vt 0.5125349760055542 0.60402923822402954 0
vt 0.51273387670516968 0.60824728012084961 0
vt 0.51293271780014038 0.61246573925018311 0
vt 0.51114416122436523 0.57450294494628906 0
vt 0.51134276390075684 0.57872122526168823 0
vt 0.35268494486808777 0.590423583984375 0
vt 0.35288381576538086 0.59464168548583984 0
vt 0.35308265686035156 0.59885996580123901 0
vt 0.35328137874603271 0.60307812690734863 0
vt 0.35348004102706909 0.60729581117630005 0
vt 0.35367879271507263 0.61151391267776489 0
vt 0.35387751460075378 0.61573213338851929 0
vt 0.35407611727714539 0.61995017528533936 0
vt 0.35228767991065979 0.58198767900466919 0
vt 0.35248643159866333 0.58620548248291016 0
vt 0.40599876642227173 0.68831205368041992 0
vt 0.74095350503921509 0.59018373489379883 0
vt 0.25436350703239441 0.0020740167237818241 0
vt 0.0088219884783029556 0.0022629520390182734 0
vt 0.99098902940750122 0.0015066345222294331 0
vt 0.77748233079910278 0.38299992680549622 0
vt 0.49990597367286682 0.001884926576167345 0
vt 0.65393656492233276 0.27087265253067017 0
vt 0.74544721841812134 0.0016960152424871922 0
vt 0.03119141049683094 0.49636945128440857 0
vt 0.24661991000175476 0.49522086977958679 0
vt 0.75758171081542969 0.28866970539093018 0
vt 0.26930859684944153 0.25830695033073425 0
vt 0.0085587501525878906 0.25710234045982361 0
vt 0.99117821455001831 0.24704849720001221 0
vt 0.73692798614501953 0.45646962523460388 0
vt 0.56954830884933472 0.45600214600563049 0
vt 0.73870944976806641 0.30956703424453735 0
vt 0.5714152455329895 0.30915367603302002 0
vt 0.022746007889509201 0.97762817144393921 0
vt 0.19400666654109955 0.97732657194137573 0
vt 0.3652673065662384 0.97762817144393921 0
vt 0.3652673065662384 0.67033874988555908 0
vt 0.36485564708709717 0.82398349046707153 0
vt 0.51404094696044922 0.68237823247909546 0
vt 0.48409926891326904 0.67264944314956665 0
vt 0.78712332248687744 0.49060738086700439 0
vt 0.80536168813705444 0.64569485187530518 0
vt 0.51404094696044922 0.71385979652404785 0
vt 0.48409926891326904 0.72358900308609009 0
vt 0.46559411287307739 0.69811922311782837 0
vt 0.57749092578887939 0.64146876335144043 0
vt 0.53796827793121338 0.62862682342529297 0
vt 0.73609870672225952 0.6256592869758606 0
vt 0.52866882085800171 0.59839993715286255 0
vt 0.57749092578887939 0.683025062084198 0
vt 0.53796827793121338 0.69586652517318726 0
vt 0.51354199647903442 0.66224676370620728 0
vt 0.9885900616645813 0.52104908227920532 0
vt 0.43090355396270752 0.66310304403305054 0
vt 0.8641287088394165 0.63532179594039917 0
vt 0.88949543237686157 0.6462714672088623 0
vt 0.74122327566146851 0.57859092950820923 0
vt 0.84905797243118286 0.62530344724655151 0
vt 0.74754893779754639 0.59972089529037476 0
vt 0.87573355436325073 0.6413690447807312 0
vt 0.43394234776496887 0.64909344911575317 0
vt 0.98686331510543823 0.61386120319366455 0
vt 0.39930391311645508 0.69799214601516724 0
vt 0.86589318513870239 0.54240596294403076 0
vt 0.47173157334327698 0.64600008726119995 0
vt 0.85082507133483887 0.53240293264389038 0
vt 0.87751865386962891 0.54841440916061401 0
vt 0.40572488307952881 0.67654567956924438 0
vt 0.89124071598052979 0.55338293313980103 0
vt 0.90048378705978394 0.64853847026824951 0
vt 0.9022485613822937 0.5556073784828186 0
vt 0.9110332727432251 0.64937996864318848 0
vt 0.48054665327072144 0.64688986539840698 0
vt 0.47628366947174072 0.64501291513442993 0
vt 0.42939034104347229 0.64810621738433838 0
vt 0.42512723803520203 0.64998316764831543 0
vt 0.46862941980361938 0.6494746208190918 0
vt 0.43704450130462646 0.65256744623184204 0
vt 0.46816182136535645 0.65410888195037842 0
vt 0.43751212954521179 0.65720176696777344 0
vt 0.47050729393959045 0.65813285112380981 0
vt 0.35408353805541992 0.55818557739257813 0
vt 0.51284563541412354 0.54890954494476318 0
vt 0.4351666271686554 0.66122603416442871 0
vt 0.47477030754089355 0.66000986099243164 0
vt 0.47932219505310059 0.65902239084243774 0
vt 0.42635157704353333 0.66211563348770142 0
vt 0.48242443799972534 0.65554797649383545 0
vt 0.42324942350387573 0.65864139795303345 0
vt 0.48289245367050171 0.65091383457183838 0
vt 0.42278158664703369 0.65400725603103638 0
vt 0.39886069297790527 0.67895287275314331 0
vt 0.7479856014251709 0.58096271753311157 0
vt 0.39472311735153198 0.68493646383285522 0
vt 0.75206297636032104 0.58685839176177979 0
vt 0.39489263296127319 0.69220858812332153 0
vt 0.75189536809921265 0.59402340650558472 0
vt 0.40627279877662659 0.70007812976837158 0
vt 0.74068355560302734 0.60177654027938843 0
vt 0.4131368100643158 0.6976698637008667 0
vt 0.7339211106300354 0.599403977394104 0
vt 0.41727462410926819 0.69168728590011597 0
vt 0.51094543933868408 0.57028496265411377 0
vt 0.35208892822265625 0.57776963710784912 0
vt 0.72984522581100464 0.5935099720954895 0
vt 0.41710478067398071 0.68441474437713623 0
vt 0.7300112247467041 0.58634507656097412 0
vt 0.41269320249557495 0.67863094806671143 0
vt 0.73435717821121216 0.5806465744972229 0
#end 301 textures vertices 

#begin 362 normals 
vn 0 0 1
vn 0 0 1
vn 0 0 1
vn 0 0 1
vn 0 1 0
vn 0 1 0
vn 0 1 0
vn 0 1 0
vn 0 -0.089797000000000002 -0.99595999999999996
vn 0 -0 -1
vn 0.073375999999999997 0 -0.99730399999999997
vn 0.073080999999999993 -0.089556999999999998 -0.99329699999999999
vn 0 -1 0
vn 0 -1 0
vn 0 -1 0
vn 0 -1 0
vn 1 0 0
vn 1 0 0
vn 1 0 0
vn 1 0 0
vn -1 0 0
vn -1 0 0
vn -1 0 0
vn -1 0 0
vn 0 0 -1
vn 0 0 -1
vn 0 0 -1
vn 0 0 -1
vn 1.9999999999999999e-006 0 -1
vn 1.9999999999999999e-006 0 -1
vn 1.9999999999999999e-006 0 -1
vn 1.9999999999999999e-006 0 -1
vn 0 0 -1
vn 0 0 -1
vn 0 0 -1
vn 0 0 -1
vn -1.9999999999999999e-006 0 -1
vn -1.9999999999999999e-006 0 -1
vn -1.9999999999999999e-006 0 -1
vn -1.9999999999999999e-006 0 -1
vn 0 -1 0
vn 0 -1 0
vn 0 -1 0
vn 0 -1 0
vn 0 -1 0
vn -1 0 0
vn -1 0 0
vn -1 0 0
vn -1 0 0
vn -1 0 0
vn 0 1 0
vn 0 1 0
vn 0 1 0
vn 0 1 0
vn 0 1 0
vn 1 0 0
vn 1 0 0
vn 1 0 0
vn 1 0 0
vn 1 0 0
vn 0 0.089797000000000002 -0.99595999999999996
vn 0.073080999999999993 0.089556999999999998 -0.99329699999999999
vn -0.073375999999999997 0 -0.99730399999999997
vn -0.073080999999999993 -0.089556999999999998 -0.99329699999999999
vn -0.073080999999999993 0.089556999999999998 -0.99329699999999999
vn -0.30901800000000001 -0.95105600000000001 9.9999999999999995e-007
vn -0.30901800000000001 -0.95105600000000001 9.9999999999999995e-007
vn -0.30901800000000001 -0.95105600000000001 9.9999999999999995e-007
vn -0.30901800000000001 -0.95105600000000001 9.9999999999999995e-007
vn -1 -0 0
vn -1 -0 0
vn -1 -0 0
vn -1 -0 0
vn -0.30901800000000001 0.95105600000000001 0
vn -0.30901800000000001 0.95105600000000001 0
vn -0.30901800000000001 0.95105600000000001 0
vn -0.30901800000000001 0.95105600000000001 0
vn 0.80901800000000001 0.587785 -0
vn 0.80901800000000001 0.587785 -0
vn 0.80901800000000001 0.58778399999999997 -0
vn 0.80901800000000001 0.58778399999999997 -0
vn 0.80901400000000001 -0.58778900000000001 0
vn 0.80901400000000001 -0.58778900000000001 0
vn 0.80901400000000001 -0.58778900000000001 0
vn 0.80901400000000001 -0.58778900000000001 0
vn 6.0000000000000002e-006 0 -1
vn 6.0000000000000002e-006 0 -1
vn 9.9999999999999995e-007 -1.9999999999999999e-006 -1
vn -3.0000000000000001e-006 -1.9999999999999999e-006 -1
vn -3.0000000000000001e-006 -5.0000000000000004e-006 -1
vn 0 -3.0000000000000001e-006 -1
vn -0.30901699999999999 -0.95105700000000004 0
vn -0.30901699999999999 -0.95105700000000004 0
vn -0.30901699999999999 -0.95105700000000004 0
vn -0.30901699999999999 -0.95105700000000004 0
vn -1 0 0
vn -1 0 0
vn -1 0 0
vn -1 0 0
vn -0.30901699999999999 0.95105700000000004 -0
vn -0.30901699999999999 0.95105700000000004 -0
vn -0.30901699999999999 0.95105700000000004 -0
vn -0.30901699999999999 0.95105700000000004 -0
vn 0.80901800000000001 0.58778399999999997 -0
vn 0.80901800000000001 0.58778399999999997 -0
vn 0.80901800000000001 0.58778399999999997 -0
vn 0.80901800000000001 0.58778399999999997 -0
vn 0.80901800000000001 -0.58778399999999997 0
vn 0.80901800000000001 -0.58778399999999997 0
vn 0.80901800000000001 -0.58778399999999997 0
vn 0.80901800000000001 -0.58778399999999997 0
vn 0 0 -1
vn 0 9.9999999999999995e-007 -1
vn -9.9999999999999995e-007 9.9999999999999995e-007 -1
vn -9.9999999999999995e-007 9.9999999999999995e-007 -1
vn -9.9999999999999995e-007 0 -1
vn 0 0 -1
vn 0.90993800000000002 0.29086400000000001 -0.295655
vn 0.774038 0.29086299999999998 -0.56237300000000001
vn 0.737035 0.41234999999999999 -0.53548799999999996
vn 0.86643700000000001 0.41234999999999999 -0.28152100000000002
vn 0.56237300000000001 0.29086200000000001 -0.77403900000000003
vn 0.53548700000000005 0.41234999999999999 -0.73703600000000002
vn 0.295655 0.29086299999999998 -0.90993800000000002
vn 0.28152100000000002 0.41234999999999999 -0.86643700000000001
vn 0 0.29086499999999998 -0.95676399999999995
vn 0 0.41235100000000002 -0.91102499999999997
vn -0.295655 0.29086400000000001 -0.909937
vn -0.28152100000000002 0.41234999999999999 -0.86643700000000001
vn -0.56237300000000001 0.29086299999999998 -0.774038
vn -0.53548799999999996 0.41234900000000002 -0.737035
vn -0.77403900000000003 0.29086400000000001 -0.56237199999999998
vn -0.737035 0.41234999999999999 -0.53548700000000005
vn -0.909937 0.29086400000000001 -0.29565599999999997
vn -0.86643700000000001 0.41234999999999999 -0.28152199999999999
vn -0.95676399999999995 0.29086499999999998 0
vn -0.91102499999999997 0.41235100000000002 0
vn -0.90993599999999997 0.29086499999999998 0.295657
vn -0.86643599999999998 0.41235100000000002 0.28152300000000002
vn -0.774038 0.29086499999999998 0.56237199999999998
vn -0.737035 0.41234999999999999 0.53548700000000005
vn -0.56237199999999998 0.29086400000000001 0.774038
vn -0.53548700000000005 0.41235100000000002 0.737035
vn -0.29565900000000001 0.29086400000000001 0.90993599999999997
vn -0.28152300000000002 0.41234999999999999 0.86643599999999998
vn 0 0.29086400000000001 0.95676399999999995
vn 0 0.41235100000000002 0.91102499999999997
vn 0.29565799999999998 0.29086299999999998 0.909937
vn 0.28152199999999999 0.41234999999999999 0.86643700000000001
vn 0.56237199999999998 0.29086299999999998 0.77403900000000003
vn 0.53548700000000005 0.41235100000000002 0.737035
vn 0.77403900000000003 0.29086400000000001 0.56237099999999995
vn 0.737035 0.41235100000000002 0.53548700000000005
vn 0.909937 0.29086499999999998 0.295657
vn 0.86643599999999998 0.41235100000000002 0.28152199999999999
vn 0.95676399999999995 0.29086400000000001 9.9999999999999995e-007
vn 0.911026 0.41234999999999999 0
vn 0.64679500000000001 0.60068900000000003 -0.46992499999999998
vn 0.76035399999999997 0.600688 -0.24705299999999999
vn 0.46992499999999998 0.600688 -0.64679600000000004
vn 0.247054 0.60068699999999997 -0.760355
vn -0 0.600688 -0.79948399999999997
vn -0.247054 0.600688 -0.76035399999999997
vn -0.46992600000000001 0.600688 -0.64679500000000001
vn -0.64679500000000001 0.600688 -0.46992499999999998
vn -0.76035399999999997 0.600688 -0.247054
vn -0.79948399999999997 0.600688 -0
vn -0.76035399999999997 0.600688 0.247055
vn -0.64679600000000004 0.60068699999999997 0.46992499999999998
vn -0.46992400000000001 0.600688 0.64679600000000004
vn -0.24705299999999999 0.600688 0.76035399999999997
vn -0 0.600688 0.79948399999999997
vn 0.24705299999999999 0.600688 0.760355
vn 0.46992400000000001 0.600688 0.64679600000000004
vn 0.64679600000000004 0.60068699999999997 0.46992499999999998
vn 0.76035399999999997 0.60068699999999997 0.247054
vn 0.79948399999999997 0.60068699999999997 -0
vn 0.543991 0.740178 -0.39523399999999997
vn 0.63950099999999999 0.740178 -0.207787
vn 0.39523399999999997 0.740178 -0.54399200000000003
vn 0.207787 0.740178 -0.63950099999999999
vn -9.9999999999999995e-007 0.740178 -0.67241099999999998
vn -0.207788 0.74017900000000003 -0.63949900000000004
vn -0.395233 0.74017900000000003 -0.543991
vn -0.543991 0.740178 -0.39523399999999997
vn -0.63950099999999999 0.740178 -0.207786
vn -0.67240999999999995 0.740178 -9.9999999999999995e-007
vn -0.63950099999999999 0.740178 0.207785
vn -0.54399200000000003 0.74017699999999997 0.39523399999999997
vn -0.395233 0.74017699999999997 0.54399299999999995
vn -0.207787 0.740178 0.63950099999999999
vn 0 0.740178 0.67241099999999998
vn 0.207786 0.74017699999999997 0.63950200000000001
vn 0.395233 0.74017699999999997 0.54399299999999995
vn 0.54399299999999995 0.74017699999999997 0.39523399999999997
vn 0.63950099999999999 0.740178 0.207787
vn 0.67241099999999998 0.740178 9.9999999999999995e-007
vn 0.41765000000000002 0.85644100000000001 -0.30344199999999999
vn 0.49097800000000003 0.85644100000000001 -0.159529
vn 0.30343900000000001 0.85644299999999995 -0.41764899999999999
vn 0.159527 0.85644200000000004 -0.49097600000000002
vn -1.9999999999999999e-006 0.85644200000000004 -0.51624300000000001
vn -0.15953000000000001 0.85644200000000004 -0.490977
vn -0.30343799999999999 0.85644200000000004 -0.41765099999999999
vn -0.41765000000000002 0.85644200000000004 -0.30344100000000002
vn -0.49097800000000003 0.85644100000000001 -0.159528
vn -0.51624199999999998 0.85644299999999995 -1.9999999999999999e-006
vn -0.49097600000000002 0.85644200000000004 0.159526
vn -0.41765000000000002 0.85644200000000004 0.30343999999999999
vn -0.30343999999999999 0.85644100000000001 0.41765099999999999
vn -0.159528 0.85644100000000001 0.49097800000000003
vn -0 0.85644100000000001 0.51624400000000004
vn 0.159529 0.85644200000000004 0.490977
vn 0.30343999999999999 0.85644200000000004 0.41765000000000002
vn 0.41765000000000002 0.85644200000000004 0.30343999999999999
vn 0.49097600000000002 0.85644200000000004 0.159528
vn 0.51624199999999998 0.85644299999999995 0
vn 0.24718799999999999 0.95217799999999997 -0.17959600000000001
vn 0.29059099999999999 0.95217799999999997 -0.094419000000000003
vn 0.179593 0.95217700000000005 -0.247193
vn 0.094422000000000006 0.95217700000000005 -0.29059000000000001
vn 0 0.95217799999999997 -0.30554199999999998
vn -0.094422000000000006 0.95217799999999997 -0.29058800000000001
vn -0.179592 0.95217799999999997 -0.247192
vn -0.24718899999999999 0.95217799999999997 -0.17959700000000001
vn -0.29059099999999999 0.95217799999999997 -0.094417000000000001
vn -0.30554500000000001 0.95217700000000005 0
vn -0.29059099999999999 0.95217799999999997 0.094420000000000004
vn -0.24719099999999999 0.95217799999999997 0.179594
vn -0.179593 0.952179 0.24718899999999999
vn -0.094417000000000001 0.95217700000000005 0.29059200000000002
vn 0 0.95217700000000005 0.30554700000000001
vn 0.094417000000000001 0.95217700000000005 0.29059299999999999
vn 0.179593 0.95217799999999997 0.247193
vn 0.24719099999999999 0.95217799999999997 0.179594
vn 0.29059099999999999 0.95217799999999997 0.094417000000000001
vn 0.30554500000000001 0.95217799999999997 0
vn 0 1 -1.9999999999999999e-006
vn -0.499504 -0.51623600000000003 -0.69569800000000004
vn -0.499504 -0.51623600000000003 -0.69569800000000004
vn -0.499504 -0.51623600000000003 -0.69569800000000004
vn -0.499504 -0.51623600000000003 -0.69569800000000004
vn -0.81748399999999999 -0.55123900000000003 -0.16689999999999999
vn -0.81748399999999999 -0.55123900000000003 -0.16689999999999999
vn -0.81748399999999999 -0.55123900000000003 -0.16689999999999999
vn -0.81748399999999999 -0.55123900000000003 -0.16689999999999999
vn -0.82321100000000003 -0.37569200000000003 0.42565199999999997
vn -0.82321100000000003 -0.37569200000000003 0.42565199999999997
vn -0.82321100000000003 -0.37569200000000003 0.42565199999999997
vn -0.82321100000000003 -0.37569200000000003 0.42565199999999997
vn -0.51449800000000001 -0.056635999999999999 0.85561900000000002
vn -0.51449800000000001 -0.056635999999999999 0.85561900000000002
vn -0.51449800000000001 -0.056635999999999999 0.85561900000000002
vn -0.51449800000000001 -0.056635999999999999 0.85561900000000002
vn -0.0092619999999999994 0.28404800000000002 0.95876499999999998
vn -0.0092619999999999994 0.28404800000000002 0.95876499999999998
vn -0.0092619999999999994 0.28404800000000002 0.95876499999999998
vn -0.0092619999999999994 0.28404800000000002 0.95876499999999998
vn 0.49949399999999999 0.51624400000000004 0.69569999999999999
vn 0.49949399999999999 0.51624400000000004 0.69569999999999999
vn 0.49949399999999999 0.51624400000000004 0.69569999999999999
vn 0.49949399999999999 0.51624400000000004 0.69569999999999999
vn 0.81747700000000001 0.55124700000000004 0.166907
vn 0.81747700000000001 0.55124700000000004 0.166907
vn 0.81747700000000001 0.55124700000000004 0.166907
vn 0.81747700000000001 0.55124700000000004 0.166907
vn 0.82321599999999995 0.37568699999999999 -0.42564600000000002
vn 0.82321599999999995 0.37568699999999999 -0.42564600000000002
vn 0.82321599999999995 0.37568699999999999 -0.42564600000000002
vn 0.82321599999999995 0.37568699999999999 -0.42564600000000002
vn 0.51450799999999997 0.056644 -0.85561299999999996
vn 0.51450799999999997 0.056644 -0.85561299999999996
vn 0.51450799999999997 0.056644 -0.85561299999999996
vn 0.51450799999999997 0.056644 -0.85561299999999996
vn 0.0092790000000000008 -0.28405599999999998 -0.95876300000000003
vn 0.0092790000000000008 -0.28405599999999998 -0.95876300000000003
vn 0.0092790000000000008 -0.28405599999999998 -0.95876300000000003
vn 0.0092790000000000008 -0.28405599999999998 -0.95876300000000003
vn 0.50586299999999995 -0.82573600000000003 0.249527
vn 0.50586200000000003 -0.825735 0.24953
vn 0.50586399999999998 -0.82573399999999997 0.24953
vn 0.50586299999999995 -0.82573300000000005 0.24953400000000001
vn 0.50586799999999998 -0.82572900000000005 0.24953700000000001
vn 0.50586299999999995 -0.82573300000000005 0.24953400000000001
vn 0.50586699999999996 -0.82573200000000002 0.24953
vn 0.50586299999999995 -0.82573700000000005 0.24952099999999999
vn 0.50585899999999995 -0.82573700000000005 0.249529
vn 0.50586799999999998 -0.82573099999999999 0.249532
vn 0.50586200000000003 -0.82573600000000003 0.249529
vn -0.50586699999999996 0.82573399999999997 -0.24952299999999999
vn -0.50587000000000004 0.82572900000000005 -0.249531
vn -0.50586600000000004 0.82573399999999997 -0.249525
vn -0.50586399999999998 0.82573399999999997 -0.249528
vn -0.50585599999999997 0.82574099999999995 -0.249524
vn -0.50585999999999998 0.82573600000000003 -0.249531
vn -0.50586100000000001 0.82573700000000005 -0.249525
vn -0.50586500000000001 0.82573799999999997 -0.24951499999999999
vn -0.50587599999999999 0.82573099999999999 -0.24951400000000001
vn -0.50587300000000002 0.82572999999999996 -0.249526
vn -0.50586600000000004 0.82573300000000005 -0.249529
vn 0.35580200000000001 -0.564832 -0.74456
vn 0.35580200000000001 -0.564832 -0.74456
vn 0.35580200000000001 -0.564832 -0.74456
vn 0.35580200000000001 -0.564832 -0.74456
vn -0.19257199999999999 -0.34047100000000002 -0.92032400000000003
vn -0.19257199999999999 -0.34047100000000002 -0.92032400000000003
vn -0.19257199999999999 -0.34047100000000002 -0.92032400000000003
vn -0.19257199999999999 -0.34047100000000002 -0.92032400000000003
vn -0.66741499999999998 0.013925999999999999 -0.744556
vn -0.66741499999999998 0.013925999999999999 -0.744556
vn -0.66741499999999998 0.013925999999999999 -0.744556
vn -0.66741499999999998 0.013925999999999999 -0.744556
vn -0.88731899999999997 0.36302000000000001 -0.28439700000000001
vn -0.88731899999999997 0.36302000000000001 -0.28439700000000001
vn -0.88731899999999997 0.36302000000000001 -0.28439700000000001
vn -0.88731899999999997 0.36302000000000001 -0.28439700000000001
vn -0.76831000000000005 0.57342700000000002 0.28439700000000001
vn -0.76831000000000005 0.57342700000000002 0.28439700000000001
vn -0.76831000000000005 0.57342700000000002 0.28439700000000001
vn -0.76831000000000005 0.57342700000000002 0.28439700000000001
vn -0.35581400000000002 0.56482699999999997 0.74455800000000005
vn -0.35581400000000002 0.56482699999999997 0.74455800000000005
vn -0.35581400000000002 0.56482699999999997 0.74455800000000005
vn -0.35581400000000002 0.56482699999999997 0.74455800000000005
vn 0.19257299999999999 0.340474 0.92032199999999997
vn 0.19257299999999999 0.340474 0.92032199999999997
vn 0.19257299999999999 0.340474 0.92032199999999997
vn 0.19257299999999999 0.340474 0.92032199999999997
vn 0.66741499999999998 -0.013934 0.744556
vn 0.66741499999999998 -0.013934 0.744556
vn 0.66741499999999998 -0.013934 0.744556
vn 0.66741499999999998 -0.013934 0.744556
vn 0.88732500000000003 -0.36300700000000002 0.28439399999999998
vn 0.88732500000000003 -0.36300700000000002 0.28439399999999998
vn 0.88732500000000003 -0.36300700000000002 0.28439399999999998
vn 0.88732500000000003 -0.36300700000000002 0.28439399999999998
vn 0.76830200000000004 -0.573438 -0.28439599999999998
vn 0.76830200000000004 -0.573438 -0.28439599999999998
vn 0.76830200000000004 -0.573438 -0.28439599999999998
vn 0.76830200000000004 -0.573438 -0.28439599999999998
vn -0.45309500000000003 -0.80105899999999997 0.39116400000000001
vn -0.45308300000000001 -0.80106599999999994 0.39116299999999998
vn -0.45309100000000002 -0.80106299999999997 0.39116000000000001
vn -0.45309500000000003 -0.80106100000000002 0.39115899999999998
vn -0.4531 -0.80106200000000005 0.39115100000000003
vn -0.45309199999999999 -0.80106299999999997 0.39115899999999998
vn -0.45309300000000002 -0.80106100000000002 0.39116200000000001
vn -0.45309100000000002 -0.80106200000000005 0.39116299999999998
vn -0.45307199999999997 -0.80107099999999998 0.39116600000000001
vn -0.453096 -0.80106299999999997 0.391154
vn -0.453096 -0.80106200000000005 0.391156
vn 0.453102 0.80106200000000005 -0.39115
vn 0.45308300000000001 0.801068 -0.39115899999999998
vn 0.45308999999999999 0.80106299999999997 -0.39116000000000001
vn 0.45307900000000001 0.80106699999999997 -0.39116600000000001
vn 0.45308799999999999 0.80106500000000003 -0.39115899999999998
vn 0.45309199999999999 0.80105999999999999 -0.39116600000000001
vn 0.45308999999999999 0.80105800000000005 -0.39117099999999999
vn 0.45309199999999999 0.80106299999999997 -0.39115899999999998
vn 0.45308500000000002 0.80106599999999994 -0.39116200000000001
vn 0.45308700000000002 0.80106500000000003 -0.39116099999999998
vn 0.45310600000000001 0.80105899999999997 -0.39115100000000003
#end 362 normals 

#begin 217 faces
usemtl initialShadingGroup
g pCube8 group2
s off
f 1/1/1 2/2/2 4/4/3 3/3/4 
f 3/213/5 4/215/6 6/6/7 5/5/8 
s 1
f 19/19/9 20/20/10 18/18/11 15/15/12 
s off
f 7/7/13 8/8/14 2/210/15 1/209/16 
f 2/211/17 8/221/18 6/6/19 4/215/20 
f 7/7/21 1/209/22 3/213/23 5/5/24 
f 5/217/25 6/216/26 10/10/27 9/9/28 
f 6/216/29 8/220/30 11/11/31 10/10/32 
f 8/220/33 7/219/34 12/12/35 11/11/36 
f 7/219/37 5/217/38 9/9/39 12/12/40 
f 9/223/41 10/222/42 14/14/43 21/21/44 13/13/45 
f 10/222/46 11/224/47 15/218/48 18/212/49 14/14/50 
f 11/224/51 12/225/52 16/16/53 19/214/54 15/218/55 
f 12/225/56 9/223/57 13/13/58 17/17/59 16/16/60 
s 1
f 20/20/10 21/227/61 14/226/62 18/18/11 
f 17/230/63 20/20/10 19/19/9 16/229/64 
f 13/228/65 21/227/61 20/20/10 17/230/63 
usemtl initialShadingGroup
g group2 pCylinder9
s off
f 22/22/66 23/23/67 28/28/68 27/27/69 
f 23/23/70 24/233/71 29/29/72 28/28/73 
f 24/24/74 25/25/75 30/30/76 29/234/77 
f 25/25/78 26/26/79 31/31/80 30/30/81 
f 26/26/82 22/22/83 27/27/84 31/31/85 
s 1
f 27/232/86 28/231/87 32/32/88 
f 28/231/87 29/235/89 32/32/88 
f 29/235/89 30/236/90 32/32/88 
f 30/236/90 31/237/91 32/32/88 
f 31/237/91 27/232/86 32/32/88 
usemtl initialShadingGroup
g group2 pCylinder8
s off
f 33/33/92 34/34/93 39/39/94 38/38/95 
f 34/34/96 35/240/97 40/40/98 39/39/99 
f 35/35/100 36/36/101 41/41/102 40/241/103 
f 36/36/104 37/37/105 42/42/106 41/41/107 
f 37/37/108 33/33/109 38/38/110 42/42/111 
s 1
f 38/239/112 39/238/113 43/43/114 
f 39/238/113 40/242/115 43/43/114 
f 40/242/115 41/243/116 43/43/114 
f 41/243/116 42/244/117 43/43/114 
f 42/244/117 38/239/112 43/43/114 
usemtl initialShadingGroup
g group2 pCylinder5
s 1
f 44/44/118 45/45/119 65/65/120 64/64/121 
f 45/45/119 46/46/122 66/66/123 65/65/120 
f 46/46/122 47/47/124 67/67/125 66/66/123 
f 47/47/124 48/48/126 68/68/127 67/67/125 
f 48/48/126 49/49/128 69/69/129 68/68/127 
f 49/49/128 50/50/130 70/70/131 69/69/129 
f 50/50/130 51/51/132 71/71/133 70/70/131 
f 51/51/132 52/52/134 72/72/135 71/71/133 
f 52/52/134 53/245/136 73/73/137 72/72/135 
f 53/53/136 54/54/138 74/74/139 73/250/137 
f 54/54/138 55/55/140 75/75/141 74/74/139 
f 55/55/140 56/56/142 76/76/143 75/75/141 
f 56/56/142 57/57/144 77/77/145 76/76/143 
f 57/57/144 58/58/146 78/78/147 77/77/145 
f 58/58/146 59/59/148 79/79/149 78/78/147 
f 59/59/148 60/60/150 80/80/151 79/79/149 
f 60/60/150 61/61/152 81/81/153 80/80/151 
f 61/61/152 62/62/154 82/82/155 81/81/153 
f 62/62/154 63/254/156 83/83/157 82/82/155 
f 63/63/156 44/44/118 64/64/121 83/258/157 
f 64/64/121 65/65/120 85/85/158 84/84/159 
f 65/65/120 66/66/123 86/86/160 85/85/158 
f 66/66/123 67/67/125 87/87/161 86/86/160 
f 67/67/125 68/68/127 88/88/162 87/87/161 
f 68/68/127 69/69/129 89/89/163 88/88/162 
f 69/69/129 70/70/131 90/90/164 89/89/163 
f 70/70/131 71/71/133 91/91/165 90/90/164 
f 71/71/133 72/72/135 92/92/166 91/91/165 
f 72/72/135 73/73/137 93/93/167 92/92/166 
f 73/250/137 74/74/139 94/94/168 93/247/167 
f 74/74/139 75/75/141 95/95/169 94/94/168 
f 75/75/141 76/76/143 96/96/170 95/95/169 
f 76/76/143 77/77/145 97/97/171 96/96/170 
f 77/77/145 78/78/147 98/98/172 97/97/171 
f 78/78/147 79/79/149 99/99/173 98/98/172 
f 79/79/149 80/80/151 100/100/174 99/99/173 
f 80/80/151 81/81/153 101/101/175 100/100/174 
f 81/81/153 82/82/155 102/102/176 101/101/175 
f 82/82/155 83/83/157 103/103/177 102/102/176 
f 83/258/157 64/64/121 84/84/159 103/256/177 
f 84/84/159 85/85/158 105/105/178 104/104/179 
f 85/85/158 86/86/160 106/106/180 105/105/178 
f 86/86/160 87/87/161 107/107/181 106/106/180 
f 87/87/161 88/88/162 108/108/182 107/107/181 
f 88/88/162 89/89/163 109/109/183 108/108/182 
f 89/89/163 90/90/164 110/110/184 109/109/183 
f 90/90/164 91/91/165 111/111/185 110/110/184 
f 91/91/165 92/92/166 112/112/186 111/111/185 
f 92/92/166 93/93/167 113/113/187 112/112/186 
f 93/247/167 94/94/168 114/114/188 113/252/187 
f 94/94/168 95/95/169 115/115/189 114/114/188 
f 95/95/169 96/96/170 116/116/190 115/115/189 
f 96/96/170 97/97/171 117/117/191 116/116/190 
f 97/97/171 98/98/172 118/118/192 117/117/191 
f 98/98/172 99/99/173 119/119/193 118/118/192 
f 99/99/173 100/100/174 120/120/194 119/119/193 
f 100/100/174 101/101/175 121/121/195 120/120/194 
f 101/101/175 102/102/176 122/122/196 121/121/195 
f 102/102/176 103/103/177 123/123/197 122/122/196 
f 103/256/177 84/84/159 104/104/179 123/259/197 
f 104/104/179 105/105/178 125/125/198 124/124/199 
f 105/105/178 106/106/180 126/126/200 125/125/198 
f 106/106/180 107/107/181 127/127/201 126/126/200 
f 107/107/181 108/108/182 128/128/202 127/127/201 
f 108/108/182 109/109/183 129/129/203 128/128/202 
f 109/109/183 110/110/184 130/130/204 129/129/203 
f 110/110/184 111/111/185 131/131/205 130/130/204 
f 111/111/185 112/112/186 132/132/206 131/131/205 
f 112/112/186 113/113/187 133/133/207 132/132/206 
f 113/252/187 114/114/188 134/134/208 133/248/207 
f 114/114/188 115/115/189 135/135/209 134/134/208 
f 115/115/189 116/116/190 136/136/210 135/135/209 
f 116/116/190 117/117/191 137/137/211 136/136/210 
f 117/117/191 118/118/192 138/138/212 137/137/211 
f 118/118/192 119/119/193 139/139/213 138/138/212 
f 119/119/193 120/120/194 140/140/214 139/139/213 
f 120/120/194 121/121/195 141/141/215 140/140/214 
f 121/121/195 122/122/196 142/142/216 141/141/215 
f 122/122/196 123/123/197 143/143/217 142/142/216 
f 123/259/197 104/104/179 124/124/199 143/261/217 
f 124/124/199 125/125/198 145/145/218 144/144/219 
f 125/125/198 126/126/200 146/146/220 145/145/218 
f 126/126/200 127/127/201 147/147/221 146/146/220 
f 127/127/201 128/128/202 148/148/222 147/147/221 
f 128/128/202 129/129/203 149/149/223 148/148/222 
f 129/129/203 130/130/204 150/150/224 149/149/223 
f 130/130/204 131/131/205 151/151/225 150/150/224 
f 131/131/205 132/132/206 152/152/226 151/151/225 
f 132/132/206 133/133/207 153/153/227 152/152/226 
f 133/248/207 134/134/208 154/154/228 153/262/227 
f 134/134/208 135/135/209 155/155/229 154/154/228 
f 135/135/209 136/136/210 156/156/230 155/155/229 
f 136/136/210 137/137/211 157/157/231 156/156/230 
f 137/137/211 138/138/212 158/158/232 157/157/231 
f 138/138/212 139/139/213 159/159/233 158/158/232 
f 139/139/213 140/140/214 160/160/234 159/159/233 
f 140/140/214 141/141/215 161/161/235 160/160/234 
f 141/141/215 142/142/216 162/162/236 161/161/235 
f 142/142/216 143/143/217 163/163/237 162/162/236 
f 143/261/217 124/124/199 144/144/219 163/263/237 
f 144/144/219 145/145/218 164/164/238 
f 145/145/218 146/146/220 164/164/238 
f 146/146/220 147/147/221 164/164/238 
f 147/147/221 148/148/222 164/164/238 
f 148/148/222 149/149/223 164/164/238 
f 149/149/223 150/150/224 164/164/238 
f 150/150/224 151/151/225 164/164/238 
f 151/151/225 152/152/226 164/164/238 
f 152/152/226 153/153/227 164/164/238 
f 153/262/227 154/154/228 164/264/238 
f 154/154/228 155/155/229 164/264/238 
f 155/155/229 156/156/230 164/264/238 
f 156/156/230 157/157/231 164/264/238 
f 157/157/231 158/158/232 164/264/238 
f 158/158/232 159/159/233 164/264/238 
f 159/159/233 160/160/234 164/264/238 
f 160/160/234 161/161/235 164/264/238 
f 161/161/235 162/162/236 164/264/238 
f 162/162/236 163/163/237 164/264/238 
f 163/263/237 144/144/219 164/164/238 
usemtl initialShadingGroup
g group2 pCylinder7
s off
f 165/165/239 166/166/240 176/176/241 175/175/242 
f 166/166/243 167/167/244 177/177/245 176/176/246 
f 167/167/247 168/168/248 178/178/249 177/177/250 
f 168/168/251 169/169/252 179/179/253 178/178/254 
f 169/169/255 170/170/256 180/180/257 179/179/258 
f 170/274/259 171/171/260 181/181/261 180/275/262 
f 171/171/263 172/172/264 182/182/265 181/181/266 
f 172/172/267 173/173/268 183/183/269 182/182/270 
f 173/173/271 174/174/272 184/184/273 183/183/274 
f 174/174/275 165/165/276 175/175/277 184/184/278 
s 1
f 166/266/279 165/265/280 185/185/281 
f 167/257/282 166/266/279 185/185/281 
f 168/269/283 167/257/282 185/185/281 
f 169/271/284 168/269/283 185/185/281 
f 170/273/285 169/271/284 185/185/281 
f 171/277/286 170/273/285 185/185/281 
f 172/278/287 171/277/286 185/185/281 
f 173/280/288 172/278/287 185/185/281 
f 174/282/289 173/280/288 185/185/281 
f 165/265/280 174/282/289 185/185/281 
s 2
f 175/268/290 176/267/291 186/186/292 
f 176/267/291 177/253/293 186/186/292 
f 177/253/293 178/270/294 186/186/292 
f 178/270/294 179/272/295 186/186/292 
f 179/272/295 180/276/296 186/186/292 
f 180/276/296 181/246/297 186/186/292 
f 181/246/297 182/279/298 186/186/292 
f 182/279/298 183/281/299 186/186/292 
f 183/281/299 184/283/300 186/186/292 
f 184/283/300 175/268/290 186/186/292 
usemtl initialShadingGroup
g group2 pCylinder6
s off
f 187/187/301 188/188/302 198/198/303 197/197/304 
f 188/188/305 189/189/306 199/199/307 198/198/308 
f 189/189/309 190/190/310 200/200/311 199/199/312 
f 190/190/313 191/191/314 201/201/315 200/200/316 
f 191/191/317 192/192/318 202/202/319 201/201/320 
f 192/192/321 193/193/322 203/203/323 202/202/324 
f 193/193/325 194/194/326 204/204/327 203/203/328 
f 194/295/329 195/195/330 205/205/331 204/296/332 
f 195/195/333 196/196/334 206/206/335 205/205/336 
f 196/196/337 187/187/338 197/197/339 206/206/340 
s 1
f 188/284/341 187/260/342 207/207/343 
f 189/286/344 188/284/341 207/207/343 
f 190/288/345 189/286/344 207/207/343 
f 191/255/346 190/288/345 207/207/343 
f 192/290/347 191/255/346 207/207/343 
f 193/292/348 192/290/347 207/207/343 
f 194/294/349 193/292/348 207/207/343 
f 195/298/350 194/294/349 207/207/343 
f 196/300/351 195/298/350 207/207/343 
f 187/260/342 196/300/351 207/207/343 
s 2
f 197/249/352 198/285/353 208/208/354 
f 198/285/353 199/287/355 208/208/354 
f 199/287/355 200/289/356 208/208/354 
f 200/289/356 201/251/357 208/208/354 
f 201/251/357 202/291/358 208/208/354 
f 202/291/358 203/293/359 208/208/354 
f 203/293/359 204/297/360 208/208/354 
f 204/297/360 205/299/361 208/208/354 
f 205/299/361 206/301/362 208/208/354 
f 206/301/362 197/249/352 208/208/354 
#end 217 faces
#begin 1 properties
#U3D SYM 0 0 0 1 0 0 0.0001 0
#end 1 properties
