#File written by LIBUNFOLD3D. Compilation :Dec 22 2011,11:53:02
mtllib Trap.mtl
#begin vertices
v 1.2365999999999999 0.065944000000000003 -0.53647100000000003
v 1.224863 0.074471999999999997 -0.53647100000000003
v 1.2103550000000001 0.074471999999999997 -0.53647100000000003
v 1.198618 0.065944000000000003 -0.53647100000000003
v 1.1941349999999999 0.052145999999999998 -0.53647100000000003
v 1.198618 0.038348 -0.53647100000000003
v 1.2103550000000001 0.029821 -0.53647100000000003
v 1.224863 0.029821 -0.53647100000000003
v 1.2365999999999999 0.038349000000000001 -0.53647100000000003
v 1.2410840000000001 0.052145999999999998 -0.53647100000000003
v 1.2365999999999999 0.065944000000000003 0.52352900000000002
v 1.224863 0.074471999999999997 0.52352900000000002
v 1.2103550000000001 0.074471999999999997 0.52116200000000001
v 1.198618 0.065944000000000003 0.52352900000000002
v 1.1941349999999999 0.052145999999999998 0.52352900000000002
v 1.198618 0.038348 0.52352900000000002
v 1.2103550000000001 0.029821 0.52352900000000002
v 1.224863 0.029821 0.52352900000000002
v 1.2365999999999999 0.038349000000000001 0.52352900000000002
v 1.2410840000000001 0.052145999999999998 0.52352900000000002
v 1.2176089999999999 0.052145999999999998 -0.53647100000000003
v 1.2176089999999999 0.052145999999999998 0.52116200000000001
v 1.162372 0.058361000000000003 -0.51744199999999996
v 0.90785800000000005 0.30874699999999999 -0.32224799999999998
v 0.83470299999999997 0.380714 -0.0064180000000000001
v 1.1816690000000001 0.103272 -0.51744199999999996
v 0.92715499999999995 0.32836300000000002 -0.32224799999999998
v 0.85400100000000001 0.40033000000000002 -0.0064180000000000001
v 1.1702360000000001 0.054883000000000001 -0.46450900000000001
v 0.94208499999999995 0.279333 -0.28953400000000001
v 0.87650899999999998 0.34384599999999998 -0.0064180000000000001
v 1.185405 0.095410999999999996 -0.46365200000000001
v 0.957681 0.29414600000000002 -0.28900399999999998
v 0.89222699999999999 0.35853800000000002 -0.0064180000000000001
v 0.90929700000000002 0.31158999999999998 -0.147976
v 0.87128099999999997 0.34473100000000001 -0.16433300000000001
v 0.99503600000000003 0.47052699999999997 -0.16433300000000001
v 1.0294129999999999 0.43252299999999999 -0.14771100000000001
v 1.0279259999999999 0.194885 -0.377021
v 1.003617 0.21454100000000001 -0.41984500000000002
v 1.127373 0.340337 -0.41984500000000002
v 1.1478189999999999 0.31603700000000001 -0.376328
v 1.5276270000000001 0.30874699999999999 -0.32224799999999998
v 1.273112 0.058361000000000003 -0.51744199999999996
v 1.6007800000000001 0.380714 -0.0064180000000000001
v 1.508329 0.32836300000000002 -0.32224799999999998
v 1.2538149999999999 0.103272 -0.51744199999999996
v 1.581483 0.40033000000000002 -0.0064180000000000001
v 1.493398 0.279333 -0.28953299999999998
v 1.265247 0.054883000000000001 -0.46450900000000001
v 1.5589740000000001 0.34384599999999998 -0.0064180000000000001
v 1.477803 0.29414699999999999 -0.28900399999999998
v 1.2500789999999999 0.095410999999999996 -0.46365200000000001
v 1.543256 0.35853800000000002 -0.0064180000000000001
v 1.4075580000000001 0.194885 -0.377021
v 1.431867 0.21454100000000001 -0.41984500000000002
v 1.308111 0.340337 -0.41984500000000002
v 1.2876639999999999 0.31603700000000001 -0.376328
v 1.526186 0.31158999999999998 -0.147976
v 1.564203 0.34473100000000001 -0.16433300000000001
v 1.440447 0.47052699999999997 -0.16433300000000001
v 1.4060710000000001 0.43252299999999999 -0.14771100000000001
v 1.2177420000000001 0.024282000000000001 -0.53165600000000002
v 1.2177420000000001 0.086915000000000006 -0.53176999999999996
v 1.2177420000000001 0.075251999999999999 -0.47827799999999998
v 1.2177420000000001 0.024282000000000001 -0.47497
v 1.273112 0.058361000000000003 0.50460700000000003
v 1.5276259999999999 0.30874699999999999 0.30941299999999999
v 1.2538149999999999 0.103272 0.50460700000000003
v 1.508329 0.32836300000000002 0.30941299999999999
v 1.265247 0.054883000000000001 0.45167299999999999
v 1.493398 0.279333 0.276698
v 1.2500789999999999 0.095410999999999996 0.45081599999999999
v 1.477803 0.29414600000000002 0.276169
v 1.526186 0.31158999999999998 0.13514000000000001
v 1.564203 0.34473100000000001 0.15149799999999999
v 1.440447 0.47052699999999997 0.15149799999999999
v 1.4060710000000001 0.43252299999999999 0.13487499999999999
v 1.4075569999999999 0.194885 0.36418600000000001
v 1.431867 0.21454100000000001 0.40700999999999998
v 1.308111 0.340337 0.40700999999999998
v 1.2876639999999999 0.31603700000000001 0.36349300000000001
v 0.90785700000000003 0.30874699999999999 0.30941299999999999
v 1.162371 0.058361000000000003 0.50460700000000003
v 0.92715400000000003 0.32836300000000002 0.30941299999999999
v 1.1816690000000001 0.103272 0.50460700000000003
v 0.94208499999999995 0.279333 0.276698
v 1.1702360000000001 0.054883000000000001 0.45167299999999999
v 0.95767999999999998 0.29414699999999999 0.27616800000000002
v 1.185405 0.095410999999999996 0.45081599999999999
v 1.0279259999999999 0.194885 0.36418600000000001
v 1.003617 0.21454100000000001 0.40700999999999998
v 1.127372 0.340337 0.40700999999999998
v 1.1478189999999999 0.31603700000000001 0.36349199999999998
v 0.90929700000000002 0.31158999999999998 0.13514000000000001
v 0.87128000000000005 0.34473100000000001 0.15149699999999999
v 0.99503600000000003 0.47052699999999997 0.15149699999999999
v 1.029412 0.43252299999999999 0.13487499999999999
v 1.2177420000000001 0.024282000000000001 0.51881999999999995
v 1.2177420000000001 0.086915000000000006 0.51893500000000004
v 1.2177420000000001 0.075251999999999999 0.465443
v 1.2177420000000001 0.024282000000000001 0.46213500000000002
#end vertices

#begin 222 textures vertices 
vt 0.012000051174953341 0.98098118229328468 0
vt 0.012000037847299375 0.97396248307710764 0
vt 0.012000024895735966 0.96694381535731533 0
vt 0.012000012215166831 0.95992511613689846 0
vt 0.012000000000000011 0.95290644793940527 0
vt 0.95380995220794729 0.91302393598913123 0
vt 0.95380995425916648 0.9200423508986374 0
vt 0.95380995446074668 0.92706101867832891 0
vt 0.9538099535490413 0.93407971793165501 0
vt 0.95380995246227707 0.94109807555008396 0
vt 0.5248059338168054 0.98098026097623658 0
vt 0.52480592205920384 0.97396156178536608 0
vt 0.52366080506302704 0.9669428961451968 0
vt 0.52480589788729737 0.95992419490139236 0
vt 0.52480588589830568 0.95290552671466111 0
vt 0.44100407067609515 0.91302393619557265 0
vt 0.44100406981570039 0.92004235097358233 0
vt 0.44100406815603183 0.92706101861110979 0
vt 0.44100406639632705 0.93407971776485288 0
vt 0.44100406474802439 0.94109807535362522 0
vt 0.59405019585140595 0.96370589595389955 0
vt 0.55473915381454408 0.96375877816039257 0
vt 0.043633243014240604 0.10918738984598808 0
vt 0.24158973173887521 0.10947610104692394 0
vt 0.40790289818883835 0.90493541788363174 0
vt 0.051439183755379037 0.13150960579564808 0
vt 0.24158983402604489 0.12278804386894938 0
vt 0.40224482613962753 0.1227877224899756 0
vt 0.18600748011755203 0.67883860139996122 0
vt 0.27091564160985909 0.83353304621992963 0
vt 0.40790282963061908 0.87796938023098192 0
vt 0.76342733900650805 0.33015766412254216 0
vt 0.60619307176334336 0.47924986034394729 0
vt 0.40801206144139168 0.52499974628135726 0
vt 0.33940923883073448 0.85575137322036543 0
vt 0.32191728021688465 0.10947611279443194 0
vt 0.32191743272845896 0.19484624935938455 0
vt 0.50800008704031185 0.50601244656597255 0
vt 0.22850688903244215 0.77533942810482237 0
vt 0.16126238937944351 0.1094752507011265 0
vt 0.1612614482699386 0.19484572653609089 0
vt 0.68774137295007243 0.4183571757494956 0
vt 0.56290000689697539 0.012288383427175533 0
vt 0.65543750444593585 0.59066472862191144 0
vt 0.40224512136242879 0.012290102808740086 0
vt 0.56290015216964462 0.025600665521051592 0
vt 0.75305078183653917 0.034322676647067327 0
vt 0.40224516006153682 0.025602045631100044 0
vt 0.54488884287443262 0.74140327813830142 0
vt 0.62979726170860928 0.5867087142980747 0
vt 0.4079022395885068 0.78583992360568589 0
vt 0.20982899524682672 0.53480058630043259 0
vt 0.052598527433740168 0.38570357052284232 0
vt 0.40800905546960109 0.58055143043777679 0
vt 0.58729800956855183 0.68320995519015915 0
vt 0.64322762826528457 0.012288062113511413 0
vt 0.64322836770121594 0.097658537950460367 0
vt 0.12828279846963131 0.47390443692280593 0
vt 0.47639577987230608 0.76362176086484113 0
vt 0.48257256499724493 0.012289585191657152 0
vt 0.48257342321023172 0.097660061027495165 0
vt 0.30802126368660332 0.56156459042665152 0
vt 0.012000000000000011 0.11518491195060739 0
vt 0.032082062147376841 0.13787491995884929 0
vt 0.77637419353984893 0.31524826292888064 0
vt 0.18111237414677075 0.65147067959959615 0
vt 0.043633181803859354 0.012000000000000011 0
vt 0.24158966914718741 0.012289656782651544 0
vt 0.051439015918049995 0.034322253236157507 0
vt 0.24158970784696368 0.025601599605011724 0
vt 0.18600737162629219 0.58670856192938869 0
vt 0.27091517647878693 0.74140320452388664 0
vt 0.76342136856771459 0.38570386626405767 0
vt 0.60618941065610454 0.53479902820474401 0
vt 0.33940871124437594 0.76362172405759643 0
vt 0.32191721762425352 0.012290052232356333 0
vt 0.32191685577529811 0.097660528071742025 0
vt 0.50799672537927087 0.56156394863306869 0
vt 0.22850608070070944 0.6832094846622907 0
vt 0.16126232679269803 0.012288422736022587 0
vt 0.16126097789276697 0.097658898565517432 0
vt 0.68773649637912182 0.47390398510160309 0
vt 0.56290028263743308 0.10947586514850152 0
vt 0.65543796795327425 0.68279343913421831 0
vt 0.56290017178500729 0.12278780797045792 0
vt 0.75305110380591245 0.1315097898762157 0
vt 0.54488979170423302 0.83353234968188672 0
vt 0.6297972293343479 0.67883750721032465 0
vt 0.20983139897738265 0.47925151096569873 0
vt 0.052599021951379298 0.33015638194600627 0
vt 0.58729875516857488 0.77533853339592929 0
vt 0.64322790400507457 0.10947540575767679 0
vt 0.64322851117941071 0.19484554232060722 0
vt 0.12828447833068796 0.41835633093569408 0
vt 0.47639630745704459 0.85575102494920552 0
vt 0.48257227405831371 0.10947582520740831 0
vt 0.48257217318340512 0.19484630104750042 0
vt 0.30802401972665239 0.50601422249882511 0
vt 0.012000000000000011 0.017997290291311717 0
vt 0.032081863904979649 0.040687474935838366 0
vt 0.7763685491783987 0.37079451862797913 0
vt 0.18111188964065009 0.55934102417858078 0
vt 0.16036726045284544 0.68279429997978713 0
vt 0.25508687926302226 0.85536400380540989 0
vt 0.20777735702442274 0.79044643271088333 0
vt 0.70414177536065725 0.43861249230790411 0
vt 0.7867497792341267 0.34244434961190917 0
vt 0.087299223301823339 0.23324880351050897 0
vt 0.61272271380729693 0.29268846944583649 0
vt 0.33149489476623467 0.8801496894193388 0
vt 0.80008456842681319 0.38258745185491544 0
vt 0.77240821949317384 0.13787512204454785 0
vt 0.01593581710778005 0.32704002617781586 0
vt 0.51386237865055928 0.53140755355244795 0
vt 0.73180187938336871 0.33225502531008583 0
vt 0.039651817493958824 0.31524705501831285 0
vt 0.61820317735814256 0.5038774642523709 0
vt 0.71259505041084181 0.23324912481218993 0
vt 0.48431078124292282 0.88014966374204806 0
vt 0.47088890449139997 0.28904110098506769 0
vt 0.54368202132315668 0.21791262277810325 0
vt 0.3021618340528231 0.53140903712300702 0
vt 0.40224483042276632 0.10947544039530657 0
vt 0.25621311030807609 0.21791494867058653 0
vt 0.40801225345716002 0.5523997526599691 0
vt 0.60802835788395382 0.7904454409782774 0
vt 0.39994744371536428 0.2160655437304749 0
vt 0.32900726603519487 0.28904190832860555 0
vt 0.56071814988469137 0.76323492540666149 0
vt 0.60802756340220299 0.69831692984747484 0
vt 0.11188190614359073 0.49415959304932749 0
vt 0.19781823890506561 0.55942754767519354 0
vt 0.40790223234297457 0.81280596125842153 0
vt 0.48431018507155105 0.78802042190582922 0
vt 0.30215874371909446 0.58695932787954541 0
vt 0.40800913387920951 0.6079517633337681 0
vt 0.18716860873611857 0.38711300131711424 0
vt 0.25621267932245173 0.31233974717689866 0
vt 0.32900650012205707 0.38346704961142269 0
vt 0.3999470214367265 0.31049101906129606 0
vt 0.76085677531018803 0.012000479137710716 0
vt 0.029275839684083798 0.39798978615734498 0
vt 0.087298793211511544 0.32766956885381254 0
vt 0.80009011211998937 0.32704139860122305 0
vt 0.77240788840748831 0.040688036538239693 0
vt 0.01593581710778005 0.38258656639630373 0
vt 0.79249000415618875 0.017998075970602611 0
vt 0.66211523588599808 0.5591680583565044 0
vt 0.73180148297632208 0.23783434393113534 0
vt 0.039651973266855448 0.37079390850571303 0
vt 0.16036664263724085 0.59066455626970493 0
vt 0.20777649740048287 0.69831679549308634 0
vt 0.70413714950712714 0.49415933490788916 0
vt 0.78674436702485473 0.39799051674143726 0
vt 0.25508586340002493 0.76323448044855868 0
vt 0.33149380923032501 0.78802038084544312 0
vt 0.51385975305373444 0.58695872206962596 0
vt 0.61820010089935429 0.55942634698997273 0
vt 0.61272496419956812 0.38711272960102616 0
vt 0.71259515679799978 0.32767027447413144 0
vt 0.47088803804768492 0.38346656812707874 0
vt 0.54368194628719224 0.31233843494034924 0
vt 0.56071915442072562 0.85536358961539383 0
vt 0.11188343659544889 0.43861186891093779 0
vt 0.19782057913773285 0.50387875730932896 0
vt 0.18717064512210127 0.29268968517224464 0
vt 0.7608567338116935 0.10918726293971136 0
vt 0.029276043146150638 0.34244306972733535 0
vt 0.79249022815255021 0.11518506551518684 0
vt 0.66211510913768412 0.65129633790964736 0
vt 0.72127529145349523 0.21419402341279997 0
vt 0.39994735937981302 0.20565686514085851 0
vt 0.3279463746847745 0.20658961329879358 0
vt 0.61590275372407999 0.21029048587626514 0
vt 0.18399194862834317 0.30471454683492732 0
vt 0.54394963070795965 0.20750703968049283 0
vt 0.47194835918046907 0.20658844653351888 0
vt 0.39994698611418567 0.30008234047139909 0
vt 0.32794599702774285 0.3010147495869373 0
vt 0.255945196457115 0.3019341903245254 0
vt 0.078618960892479023 0.30861446757690369 0
vt 0.051358171077800406 0.31407270064516835 0
vt 0.72127518530506352 0.30861526256449628 0
vt 0.61590273326649814 0.30471465842238127 0
vt 0.54394924855577498 0.30193320663825957 0
vt 0.47194798152736239 0.30101426090671785 0
vt 0.2559451183051914 0.20750939300890422 0
vt 0.18399166506307982 0.21029165873589994 0
vt 0.078619261598912804 0.21419357486492191 0
vt 0.051358171077800406 0.21965279153050829 0
vt 0.15368941588008145 0.65129765370029502 0
vt 0.63469227824097696 0.55934118275620148 0
vt 0.15368941588008145 0.55916788462478739 0
vt 0.63469263583330504 0.65146954970136761 0
vt 0.60323764542779279 0.97038108047577809 0
vt 0.5583511948909583 0.97457616951364412 0
vt 0.59755952970571036 0.97450674894965661 0
vt 0.56400585544619075 0.97040589840796698 0
vt 0.58486274627501866 0.97038108047577742 0
vt 0.59054086199709954 0.97450674894965617 0
vt 0.5512322125539082 0.97455020454293118 0
vt 0.54545814526925962 0.97038593086752545 0
vt 0.44100406980679407 0.90600526801528758 0
vt 0.54333530955030551 0.96368820880851291 0
vt 0.60540642729556959 0.96370589595389977 0
vt 0.95380994740169334 0.90600526778517343 0
vt 0.54554086958580827 0.95701729075427722 0
vt 0.6032376454277929 0.95703071143202101 0
vt 0.55123782949380606 0.95290552672069251 0
vt 0.59755952970571058 0.95290552673727869 0
vt 0.5582638822438224 0.95291310179381616 0
vt 0.5905408619971001 0.95290552673727913 0
vt 0.56395196275849946 0.95703762101682643 0
vt 0.58486274627501855 0.9570311952111582 0
vt 0.52480594722025953 0.98799907866125458 0
vt 0.56614361011116587 0.96371278633515312 0
vt 0.58269348062810589 0.96370589595389999 0
vt 0.012000064770016583 0.98799999999999999 0
vt 0.068092560503528465 0.23783380480295108 0
vt 0.7485360093524277 0.31407377322879837 0
vt 0.068092186441642416 0.33225405820909537 0
vt 0.74853621151093919 0.21965364279126356 0
#end 222 textures vertices 

#begin 286 normals 
vn 0.80901699999999999 0.58778600000000003 0
vn 0.80901699999999999 0.58778600000000003 0
vn 0.30918699999999999 0.95100099999999999 0
vn 0.325909 0.94540100000000005 0
vn -0.30901600000000001 0.95105700000000004 0
vn -0.30901600000000001 0.95105700000000004 0
vn -0.80912600000000001 0.58763600000000005 0
vn -0.81936200000000003 0.57327700000000004 0
vn -1 0 0
vn -1 0 0
vn -0.80901699999999999 -0.58778600000000003 0
vn -0.80901699999999999 -0.58778600000000003 0
vn -0.30901600000000001 -0.95105700000000004 0
vn -0.30901600000000001 -0.95105700000000004 0
vn 0.30901600000000001 -0.95105700000000004 0
vn 0.30901600000000001 -0.95105700000000004 0
vn 0.80901599999999996 -0.58778600000000003 0
vn 0.80901599999999996 -0.58778600000000003 0
vn 1 -0 0
vn 1 -0 0
vn 0 0 -1
vn 0 0 -1
vn -0 0 -1
vn 0 0 -1
vn 0 0 -1
vn 0 0 -1
vn -3.0000000000000001e-006 0 -1
vn -3.0000000000000001e-006 0 -1
vn 9.9999999999999995e-007 0 -1
vn 9.9999999999999995e-007 0 -1
vn 0 0 -1
vn -0.0062110000000000004 0.019116000000000001 0.99979799999999996
vn -0.081175999999999998 -0.058976000000000001 0.99495299999999998
vn -0.111526 -0.068886000000000003 0.991371
vn 1.9999999999999999e-006 -9.9999999999999995e-007 1
vn 0.130715 0.0098209999999999999 0.991371
vn 0.10033599999999999 -0 0.99495400000000001
vn 0.081173999999999996 0.058976000000000001 0.99495400000000001
vn 0.031005999999999999 0.095427999999999999 0.99495299999999998
vn -0.031005999999999999 0.095427999999999999 0.99495299999999998
vn -0.081173999999999996 0.058976000000000001 0.99495400000000001
vn -0.10033599999999999 -0 0.99495400000000001
vn -0.325656 0.27290199999999998 -0.90524700000000002
vn -0.325656 0.27290199999999998 -0.90524700000000002
vn -0.36447800000000002 0.32987499999999997 -0.87082599999999999
vn -0.35954199999999997 0.32256200000000002 -0.87560400000000005
vn -0.57671899999999998 0.56736600000000004 -0.587785
vn -0.57671899999999998 0.56736500000000001 -0.58778600000000003
vn -0.67797399999999997 0.66697799999999996 -0.30901699999999999
vn -0.67797399999999997 0.66697799999999996 -0.30901699999999999
vn -0.68061000000000005 -0.730877 0.050881999999999997
vn -0.68013199999999996 -0.73135600000000001 0.050390999999999998
vn -0.68332599999999999 -0.72813700000000003 0.053682000000000001
vn -0.68332599999999999 -0.72813700000000003 0.053682000000000001
vn -0.66132899999999994 -0.74988699999999997 0.017694000000000001
vn -0.66132899999999994 -0.74988699999999997 0.017694000000000001
vn -0.66132999999999997 -0.74988699999999997 0.017694999999999999
vn -0.66132999999999997 -0.74988699999999997 0.017694999999999999
vn 0.95502200000000004 0.25372899999999998 -0.153477
vn 0.70360800000000001 0.67379100000000003 0.22570299999999999
vn 0.74683299999999997 0.63842500000000002 0.18615699999999999
vn 0.95502200000000004 0.25372899999999998 -0.153477
vn 0.75506099999999998 0.26422400000000001 -0.60005799999999998
vn 0.825318 0.56110800000000005 0.063305
vn 0.825318 0.56110899999999997 0.063306000000000001
vn 0.75506099999999998 0.26422400000000001 -0.60005799999999998
vn 0.32227699999999998 -0.27789599999999998 0.90493699999999999
vn 0.35577700000000001 -0.32850099999999999 0.87493399999999999
vn 0.36108899999999999 -0.336617 0.86965800000000004
vn 0.32227699999999998 -0.27789599999999998 0.90493699999999999
vn 0.67068799999999995 -0.67234400000000005 0.31325799999999998
vn 0.67168099999999997 -0.67332000000000003 0.30900499999999997
vn 0.67168099999999997 -0.67332000000000003 0.30900499999999997
vn 0.67068799999999995 -0.67234400000000005 0.31325799999999998
vn -0.66132800000000003 -0.749888 0.017694000000000001
vn -0.66132800000000003 -0.749888 0.017694000000000001
vn -0.71286400000000005 0.70130199999999998 -9.9999999999999995e-007
vn -0.71286400000000005 0.70130199999999998 -9.9999999999999995e-007
vn 0.45557599999999998 0.55885099999999999 0.69291899999999995
vn 0.45557599999999998 0.55885099999999999 0.69291899999999995
vn 0.67266099999999995 -0.67428299999999997 0.30474600000000002
vn 0.67266099999999995 -0.67428299999999997 0.30474600000000002
vn -0.67615800000000004 -0.73529900000000004 0.046324999999999998
vn -0.67615800000000004 -0.73529900000000004 0.046324999999999998
vn 0.17437900000000001 0.83548699999999998 0.52110800000000002
vn 0.17437900000000001 0.83548699999999998 0.52110800000000002
vn 0.41530499999999998 -0.42110199999999998 0.80634700000000004
vn 0.41530499999999998 -0.42110199999999998 0.80634600000000001
vn 0.57671899999999998 0.56736600000000004 -0.587785
vn 0.57671899999999998 0.56736600000000004 -0.587785
vn 0.364479 0.329876 -0.87082499999999996
vn 0.359543 0.32256299999999999 -0.87560400000000005
vn 0.71286400000000005 0.70130199999999998 9.9999999999999995e-007
vn 0.71286400000000005 0.70130199999999998 9.9999999999999995e-007
vn 0.67797399999999997 0.66697899999999999 -0.30901600000000001
vn 0.67797399999999997 0.66697899999999999 -0.30901600000000001
vn 0.68061000000000005 -0.730877 0.050881000000000003
vn 0.68013199999999996 -0.73135600000000001 0.050390999999999998
vn 0.67615700000000001 -0.73529900000000004 0.046324999999999998
vn 0.67615700000000001 -0.73529900000000004 0.046324999999999998
vn 0.66132999999999997 -0.74988699999999997 0.017694999999999999
vn 0.66132999999999997 -0.74988699999999997 0.017694999999999999
vn 0.66132899999999994 -0.74988699999999997 0.017694999999999999
vn 0.66132899999999994 -0.74988699999999997 0.017694999999999999
vn -0.17437900000000001 0.83548699999999998 0.52110699999999999
vn -0.70360699999999998 0.67379299999999998 0.22570100000000001
vn -0.746834 0.63842500000000002 0.18615200000000001
vn -0.17437900000000001 0.83548699999999998 0.52110699999999999
vn -0.45557700000000001 0.55885099999999999 0.69291800000000003
vn -0.825318 0.56110800000000005 0.063303999999999999
vn -0.825318 0.56110899999999997 0.063306000000000001
vn -0.45557700000000001 0.55885099999999999 0.69291800000000003
vn -0.41530499999999998 -0.42110199999999998 0.80634700000000004
vn -0.35577599999999998 -0.32850200000000002 0.87493399999999999
vn -0.36108800000000002 -0.336617 0.86965800000000004
vn -0.41530499999999998 -0.42110199999999998 0.80634700000000004
vn -0.67266099999999995 -0.67428299999999997 0.30474400000000001
vn -0.671682 -0.67332000000000003 0.30900300000000003
vn -0.671682 -0.67332000000000003 0.30900300000000003
vn -0.67266099999999995 -0.67428299999999997 0.30474400000000001
vn 0.68332700000000002 -0.72813700000000003 0.053681
vn 0.68332700000000002 -0.72813700000000003 0.053681
vn 0.32565699999999997 0.27290199999999998 -0.90524700000000002
vn 0.32565699999999997 0.27290199999999998 -0.90524700000000002
vn -0.95502100000000001 0.25373200000000001 -0.15348000000000001
vn -0.95502100000000001 0.25373200000000001 -0.15348000000000001
vn -0.32227699999999998 -0.27789700000000001 0.90493699999999999
vn -0.32227699999999998 -0.27789700000000001 0.90493699999999999
vn 0.66132999999999997 -0.74988600000000005 0.017696
vn 0.66132999999999997 -0.74988600000000005 0.017696
vn -0.75505999999999995 0.26422299999999999 -0.60005799999999998
vn -0.75505999999999995 0.26422299999999999 -0.60005799999999998
vn -0.67069000000000001 -0.67234400000000005 0.31325599999999998
vn -0.67069000000000001 -0.67234400000000005 0.31325599999999998
vn -0.27337099999999998 0.048030999999999997 -0.96070900000000004
vn -0.27337099999999998 0.048030999999999997 -0.96070900000000004
vn -0.27337099999999998 0.048030999999999997 -0.96070900000000004
vn -0.27337099999999998 0.048030999999999997 -0.96070900000000004
vn 0.51087199999999999 0.84872400000000003 0.13666500000000001
vn 0.51087199999999999 0.84872400000000003 0.13666500000000001
vn 0.51087199999999999 0.84872400000000003 0.13666500000000001
vn 0.51087300000000002 0.84872400000000003 0.13666500000000001
vn 0.33193099999999998 -0.14394199999999999 0.932257
vn 0.284663 -0.015963999999999999 0.95849499999999999
vn 0.073999999999999996 0.019133000000000001 0.99707500000000004
vn 0.273368 0.048029000000000002 -0.96070999999999995
vn 0.273368 0.048029000000000002 -0.96070999999999995
vn 0.273368 0.048029000000000002 -0.96070999999999995
vn 0.273368 0.048029000000000002 -0.96070999999999995
vn -0.51087000000000005 0.84872499999999995 0.13666300000000001
vn -0.51087000000000005 0.84872499999999995 0.13666300000000001
vn -0.51087000000000005 0.84872499999999995 0.13666300000000001
vn -0.51087000000000005 0.84872499999999995 0.13666300000000001
vn -0.33192899999999997 -0.14394399999999999 0.932257
vn -0.33192899999999997 -0.14394399999999999 0.932257
vn -0.33192899999999997 -0.14394399999999999 0.932257
vn -0.53031300000000003 -0.84772899999999995 0.011148999999999999
vn -0.53031300000000003 -0.84772899999999995 0.011148999999999999
vn -0.53031300000000003 -0.84772899999999995 0.011148999999999999
vn -0.53031300000000003 -0.84772899999999995 0.011148999999999999
vn 0.53030999999999995 -0.84772999999999998 0.01115
vn 0.53030999999999995 -0.84772999999999998 0.01115
vn 0.53030999999999995 -0.84772999999999998 0.01115
vn 0.53030999999999995 -0.84772999999999998 0.01115
vn -9.9999999999999995e-007 0.064766000000000004 0.99790100000000004
vn -0.252965 0.062660999999999994 0.96544399999999997
vn 0.325656 0.27290199999999998 0.90524700000000002
vn 0.325656 0.27290199999999998 0.90524700000000002
vn 0.364479 0.32987499999999997 0.87082599999999999
vn 0.35954199999999997 0.32256200000000002 0.87560400000000005
vn 0.57672000000000001 0.56736500000000001 0.587785
vn 0.57671899999999998 0.56736500000000001 0.58778600000000003
vn 0.67797399999999997 0.66697799999999996 0.30901699999999999
vn 0.67797399999999997 0.66697799999999996 0.30901699999999999
vn 0.68061000000000005 -0.730877 -0.050881999999999997
vn 0.68013199999999996 -0.73135600000000001 -0.050390999999999998
vn 0.68332599999999999 -0.72813700000000003 -0.053682000000000001
vn 0.68332599999999999 -0.72813700000000003 -0.053682000000000001
vn 0.66132899999999994 -0.74988699999999997 -0.017694000000000001
vn 0.66132899999999994 -0.74988699999999997 -0.017694000000000001
vn 0.66132999999999997 -0.74988699999999997 -0.017694999999999999
vn 0.66132999999999997 -0.74988699999999997 -0.017694999999999999
vn -0.95502200000000004 0.25372899999999998 0.153477
vn -0.70360699999999998 0.67379100000000003 -0.22570299999999999
vn -0.74683200000000005 0.63842600000000005 -0.18615699999999999
vn -0.95502200000000004 0.25372899999999998 0.153477
vn -0.75506099999999998 0.26422299999999999 0.60005799999999998
vn -0.825318 0.56110800000000005 -0.063303999999999999
vn -0.825318 0.56110800000000005 -0.063306000000000001
vn -0.75506099999999998 0.26422299999999999 0.60005799999999998
vn -0.32227800000000001 -0.27789599999999998 -0.90493699999999999
vn -0.35577700000000001 -0.32850099999999999 -0.87493399999999999
vn -0.36108800000000002 -0.336617 -0.86965800000000004
vn -0.32227800000000001 -0.27789599999999998 -0.90493699999999999
vn -0.67068799999999995 -0.67234499999999997 -0.31325700000000001
vn -0.67168099999999997 -0.67332099999999995 -0.30900499999999997
vn -0.67168099999999997 -0.67332099999999995 -0.30900499999999997
vn -0.67068799999999995 -0.67234499999999997 -0.31325700000000001
vn 0.66132899999999994 -0.74988699999999997 -0.017694000000000001
vn 0.66132899999999994 -0.74988699999999997 -0.017694000000000001
vn -0.45557599999999998 0.55885099999999999 -0.69291800000000003
vn -0.45557599999999998 0.55885099999999999 -0.69291800000000003
vn -0.67266099999999995 -0.67428299999999997 -0.30474600000000002
vn -0.67266099999999995 -0.67428299999999997 -0.30474600000000002
vn 0.67615899999999995 -0.73529800000000001 -0.046324999999999998
vn 0.67615899999999995 -0.73529800000000001 -0.046324999999999998
vn -0.17437900000000001 0.83548699999999998 -0.52110699999999999
vn -0.17437900000000001 0.83548699999999998 -0.52110699999999999
vn -0.41530499999999998 -0.42110199999999998 -0.80634700000000004
vn -0.41530499999999998 -0.42110199999999998 -0.80634700000000004
vn -0.57671899999999998 0.56736600000000004 0.587785
vn -0.57671899999999998 0.56736600000000004 0.587785
vn -0.364479 0.329876 0.87082599999999999
vn -0.35954199999999997 0.32256200000000002 0.87560400000000005
vn -0.67797399999999997 0.66697899999999999 0.30901600000000001
vn -0.67797399999999997 0.66697899999999999 0.30901600000000001
vn -0.68061000000000005 -0.730877 -0.050881999999999997
vn -0.68013199999999996 -0.73135600000000001 -0.050390999999999998
vn -0.67615800000000004 -0.73529900000000004 -0.046325999999999999
vn -0.67615800000000004 -0.73529900000000004 -0.046325999999999999
vn -0.66132899999999994 -0.74988699999999997 -0.017694999999999999
vn -0.66132899999999994 -0.74988699999999997 -0.017694999999999999
vn -0.66132999999999997 -0.74988699999999997 -0.017694999999999999
vn -0.66132999999999997 -0.74988699999999997 -0.017694999999999999
vn 0.17437900000000001 0.83548800000000001 -0.52110699999999999
vn 0.70360599999999995 0.67379299999999998 -0.22570100000000001
vn 0.74683299999999997 0.63842600000000005 -0.18615300000000001
vn 0.17437900000000001 0.83548800000000001 -0.52110699999999999
vn 0.45557700000000001 0.55885099999999999 -0.69291800000000003
vn 0.825318 0.56110899999999997 -0.063305
vn 0.825318 0.56110899999999997 -0.063306000000000001
vn 0.45557700000000001 0.55885099999999999 -0.69291800000000003
vn 0.41530499999999998 -0.42110199999999998 -0.80634700000000004
vn 0.35577599999999998 -0.32850200000000002 -0.87493399999999999
vn 0.36108800000000002 -0.336617 -0.86965700000000001
vn 0.41530499999999998 -0.42110199999999998 -0.80634700000000004
vn 0.67266199999999998 -0.67428299999999997 -0.30474499999999999
vn 0.671682 -0.67332000000000003 -0.30900300000000003
vn 0.671682 -0.67332000000000003 -0.30900300000000003
vn 0.67266099999999995 -0.67428299999999997 -0.30474499999999999
vn -0.68332599999999999 -0.72813700000000003 -0.053681
vn -0.68332599999999999 -0.72813700000000003 -0.053681
vn -0.325656 0.27290199999999998 0.90524700000000002
vn -0.325656 0.27290199999999998 0.90524700000000002
vn 0.95501999999999998 0.25373200000000001 0.15348100000000001
vn 0.95501999999999998 0.25373200000000001 0.15348100000000001
vn 0.32227699999999998 -0.27789700000000001 -0.90493699999999999
vn 0.32227699999999998 -0.27789700000000001 -0.90493699999999999
vn -0.66132899999999994 -0.74988699999999997 -0.017696
vn -0.66132899999999994 -0.74988699999999997 -0.017696
vn 0.75505999999999995 0.26422400000000001 0.60005799999999998
vn 0.75505999999999995 0.26422400000000001 0.60005799999999998
vn 0.67068899999999998 -0.67234400000000005 -0.31325599999999998
vn 0.67068899999999998 -0.67234400000000005 -0.31325599999999998
vn 0.27336899999999997 0.048030999999999997 0.96070900000000004
vn 0.27336899999999997 0.048030999999999997 0.96070900000000004
vn 0.27336899999999997 0.048030999999999997 0.96070900000000004
vn 0.27336899999999997 0.048030999999999997 0.96070900000000004
vn -0.51087199999999999 0.84872400000000003 -0.13666500000000001
vn -0.51087199999999999 0.84872400000000003 -0.13666500000000001
vn -0.51087199999999999 0.84872400000000003 -0.13666500000000001
vn -0.51087199999999999 0.84872400000000003 -0.13666500000000001
vn -0.33193099999999998 -0.14394399999999999 -0.93225599999999997
vn -0.284663 -0.015965 -0.95849499999999999
vn -0.073999999999999996 0.019132 -0.99707500000000004
vn -0.27336899999999997 0.048030000000000003 0.96070900000000004
vn -0.27336899999999997 0.048030000000000003 0.96070900000000004
vn -0.27336899999999997 0.048030000000000003 0.96070900000000004
vn -0.27336899999999997 0.048030000000000003 0.96070900000000004
vn 0.51087099999999996 0.84872499999999995 -0.13666300000000001
vn 0.51087099999999996 0.84872499999999995 -0.13666300000000001
vn 0.51087099999999996 0.84872499999999995 -0.13666300000000001
vn 0.51087099999999996 0.84872499999999995 -0.13666300000000001
vn 0.33193099999999998 -0.14394299999999999 -0.932257
vn 0.33193099999999998 -0.14394399999999999 -0.932257
vn 0.33193099999999998 -0.14394399999999999 -0.932257
vn 0.53031300000000003 -0.84772899999999995 -0.011148999999999999
vn 0.53031300000000003 -0.84772899999999995 -0.011148999999999999
vn 0.53031300000000003 -0.84772899999999995 -0.011148999999999999
vn 0.53031300000000003 -0.84772899999999995 -0.011148999999999999
vn -0.53030999999999995 -0.84773100000000001 -0.01115
vn -0.53030999999999995 -0.84773100000000001 -0.01115
vn -0.53030999999999995 -0.84773100000000001 -0.01115
vn -0.53030999999999995 -0.84773100000000001 -0.01115
vn 0 0.064766000000000004 -0.99790100000000004
vn 0.25296400000000002 0.062660999999999994 -0.96544399999999997
#end 286 normals 

#begin 114 faces
usemtl initialShadingGroup
g polySurface1
s 1
f 11/11/1 1/1/2 2/2/3 12/12/4 
f 12/12/4 2/2/3 3/3/5 13/13/6 
f 13/13/6 3/3/5 4/4/7 14/14/8 
f 14/14/8 4/4/7 5/5/9 15/15/10 
f 15/203/10 5/206/9 6/6/11 16/16/12 
f 16/16/12 6/6/11 7/7/13 17/17/14 
f 17/17/14 7/7/13 8/8/15 18/18/16 
f 18/18/16 8/8/15 9/9/17 19/19/18 
f 19/19/18 9/9/17 10/10/19 20/20/20 
f 20/215/20 10/218/19 1/1/2 11/11/1 
s 2
f 2/200/21 1/199/22 21/21/23 
f 3/197/24 2/200/21 21/21/23 
f 4/195/25 3/197/24 21/21/23 
f 5/205/26 4/195/25 21/21/23 
f 6/208/27 5/205/26 21/21/23 
f 7/210/28 6/208/27 21/21/23 
f 8/212/29 7/210/28 21/21/23 
f 9/214/30 8/212/29 21/21/23 
f 10/217/31 9/214/30 21/21/23 
f 1/199/22 10/217/31 21/21/23 
s 3
f 22/22/32 11/198/33 12/196/34 
f 22/22/32 12/196/34 13/201/35 
f 22/22/32 13/201/35 14/202/36 
f 22/22/32 14/202/36 15/204/37 
f 22/22/32 15/204/37 16/207/38 
f 22/22/32 16/207/38 17/209/39 
f 22/22/32 17/209/39 18/211/40 
f 22/22/32 18/211/40 19/213/41 
f 22/22/32 19/213/41 20/216/42 
f 22/22/32 20/216/42 11/198/33 
s 4
f 26/26/43 23/23/44 40/40/45 41/41/46 
f 27/27/47 24/24/48 36/36/49 37/37/50 
s 5
f 39/39/51 40/105/52 23/103/53 29/29/54 
s 6
f 35/35/55 36/110/56 24/104/57 30/30/58 
s 7
f 26/107/59 41/106/60 42/42/61 32/32/62 
s 8
f 27/117/63 37/114/64 38/38/65 33/33/66 
s 9
f 32/118/67 42/109/68 39/174/69 29/171/70 
s 10
f 33/121/71 38/120/72 35/177/73 30/176/74 
s 6
f 25/25/75 36/110/56 35/35/55 31/31/76 
s 4
f 37/37/50 36/36/49 25/123/77 28/28/78 
s 8
f 38/38/65 37/114/64 28/125/79 34/34/80 
s 10
f 35/177/73 38/120/72 34/127/81 31/172/82 
s 5
f 24/104/83 40/105/52 39/39/51 30/30/84 
s 4
f 41/41/46 40/40/45 24/24/48 27/27/47 
s 7
f 42/42/61 41/106/60 27/117/85 33/33/86 
s 9
f 39/174/69 42/109/68 33/121/87 30/176/88 
s 11
f 46/46/89 43/43/90 56/56/91 57/57/92 
f 48/48/93 45/45/94 60/60/95 61/61/96 
s 13
f 55/55/97 56/130/98 43/129/99 49/49/100 
s 14
f 59/59/101 60/134/102 45/133/103 51/51/104 
s 15
f 46/132/105 57/131/106 58/58/107 52/52/108 
s 16
f 48/136/109 61/135/110 62/62/111 54/54/112 
s 17
f 52/138/113 58/137/114 55/175/115 49/180/116 
s 18
f 54/140/117 62/139/118 59/179/119 51/178/120 
s 13
f 44/44/121 56/130/98 55/55/97 50/50/122 
s 11
f 57/57/92 56/56/91 44/141/123 47/47/124 
s 15
f 58/58/107 57/131/106 47/142/125 53/53/126 
s 17
f 55/175/115 58/137/114 53/143/127 50/181/128 
s 14
f 43/129/129 60/134/102 59/59/101 49/49/130 
s 11
f 61/61/96 60/60/95 43/43/90 46/46/89 
s 16
f 62/62/111 61/135/110 46/132/131 52/52/132 
s 18
f 59/179/119 62/139/118 52/138/133 49/180/134 
s off
f 23/23/135 26/26/136 64/64/137 63/63/138 
f 26/107/139 32/32/140 65/65/141 64/144/142 
s 19
f 32/118/143 29/171/144 65/149/145 
s off
f 47/47/146 44/141/147 63/147/148 64/145/149 
f 53/53/150 47/142/151 64/146/152 65/150/153 
f 50/181/154 53/143/155 65/221/156 
f 29/29/157 23/103/158 63/191/159 66/66/160 
f 44/44/161 50/50/162 66/192/163 63/148/164 
s 19
f 65/221/145 66/182/165 50/181/166 
s 11
f 69/69/167 67/67/168 80/80/169 81/81/170 
f 70/70/171 68/68/172 76/76/173 77/77/174 
s 21
f 79/79/175 80/152/176 67/151/177 71/71/178 
s 22
f 75/75/179 76/156/180 68/155/181 72/72/182 
s 23
f 69/154/183 81/153/184 82/82/185 73/73/186 
s 24
f 70/158/187 77/157/188 78/78/189 74/74/190 
s 25
f 73/160/191 82/159/192 79/184/193 71/183/194 
s 26
f 74/162/195 78/161/196 75/186/197 72/185/198 
s 22
f 45/133/199 76/156/180 75/75/179 51/51/200 
s 11
f 77/77/174 76/76/173 45/45/94 48/48/93 
s 24
f 78/78/189 77/157/188 48/136/201 54/54/202 
s 26
f 75/186/197 78/161/196 54/140/203 51/178/204 
s 21
f 68/155/205 80/152/176 79/79/175 72/72/206 
s 11
f 81/81/170 80/80/169 68/68/172 70/70/171 
s 23
f 82/82/185 81/153/184 70/158/207 74/74/208 
s 25
f 79/184/193 82/159/192 74/162/209 72/185/210 
s 4
f 85/85/211 83/83/212 92/92/213 93/93/214 
f 28/28/78 25/123/77 96/96/215 97/97/216 
s 28
f 91/91/217 92/126/218 83/163/219 87/87/220 
s 29
f 95/95/221 96/119/222 25/25/223 31/31/224 
s 30
f 85/165/225 93/164/226 94/94/227 89/89/228 
s 31
f 28/125/229 97/122/230 98/98/231 34/34/232 
s 32
f 89/124/233 94/166/234 91/188/235 87/187/236 
s 33
f 34/127/237 98/128/238 95/173/239 31/172/240 
s 28
f 84/84/241 92/126/218 91/91/217 88/88/242 
s 4
f 93/93/214 92/92/213 84/167/243 86/86/244 
s 30
f 94/94/227 93/164/226 86/168/245 90/90/246 
s 32
f 91/188/235 94/166/234 90/108/247 88/189/248 
s 29
f 83/163/249 96/119/222 95/95/221 87/87/250 
s 4
f 97/97/216 96/96/215 83/83/212 85/85/211 
s 31
f 98/98/231 97/122/230 85/165/251 89/89/252 
s 33
f 95/173/239 98/128/238 89/124/253 87/187/254 
s off
f 67/67/255 69/69/256 100/100/257 99/99/258 
f 69/154/259 73/73/260 101/101/261 100/111/262 
s 34
f 73/160/263 71/183/264 101/115/265 
s off
f 86/86/266 84/167/267 99/169/268 100/112/269 
f 90/90/270 86/168/271 100/113/272 101/116/273 
f 88/189/274 90/108/275 101/219/276 
f 71/71/277 67/151/278 99/193/279 102/102/280 
f 84/84/281 88/88/282 102/194/283 99/170/284 
s 34
f 101/219/265 102/190/285 88/189/286 
s 19
f 65/149/145 29/171/144 66/222/165 
s 34
f 101/115/265 71/183/264 102/220/285 
#end 114 faces
#begin 1 properties
#U3D SYM 0 0 0 1 0 0 0.0001 0
#end 1 properties
