#File written by LIBUNFOLD3D. Compilation :Dec 22 2011,11:53:02
mtllib Trashbag.mtl
#begin vertices
v -8.4903309999999994 0.44396400000000003 -1.1129009999999999
v -8.5316729999999996 0.44396400000000003 -1.19404
v -8.5960649999999994 0.44396400000000003 -1.258432
v -8.6772050000000007 0.44396400000000003 -1.299774
v -8.7671469999999996 0.44396400000000003 -1.31402
v -8.8570890000000002 0.44396400000000003 -1.299774
v -8.9382289999999998 0.44396400000000003 -1.258432
v -9.0026209999999995 0.44396400000000003 -1.19404
v -9.0439629999999998 0.44396400000000003 -1.1129009999999999
v -9.0582089999999997 0.44396400000000003 -1.022958
v -9.0439629999999998 0.44396400000000003 -0.93301500000000004
v -9.0026209999999995 0.44396400000000003 -0.85187599999999997
v -8.9382289999999998 0.44396400000000003 -0.78748399999999996
v -8.8570890000000002 0.44396400000000003 -0.74614100000000005
v -8.7671469999999996 0.44396400000000003 -0.73189599999999999
v -8.6772050000000007 0.44396400000000003 -0.74614100000000005
v -8.5960649999999994 0.44396400000000003 -0.78748399999999996
v -8.5316729999999996 0.44396400000000003 -0.85187599999999997
v -8.4903309999999994 0.44396400000000003 -0.93301500000000004
v -8.4760849999999994 0.44396400000000003 -1.022958
v -8.4689409999999992 0.52886200000000005 -1.1198509999999999
v -8.5134779999999992 0.52886200000000005 -1.20726
v -8.5828450000000007 0.52886200000000005 -1.2766280000000001
v -8.6702539999999999 0.52886200000000005 -1.2746519999999999
v -8.7671480000000006 0.52886200000000005 -1.2899989999999999
v -8.864039 0.52886200000000005 -1.3211649999999999
v -8.9514519999999997 0.52886200000000005 -1.2766280000000001
v -9.0208180000000002 0.52886200000000005 -1.20726
v -9.0653539999999992 0.52886200000000005 -1.1198509999999999
v -9.0807000000000002 0.52886200000000005 -1.022958
v -9.0653539999999992 0.52886200000000005 -0.926064
v -9.0208180000000002 0.52886200000000005 -0.83865599999999996
v -8.9514519999999997 0.52886200000000005 -0.76928799999999997
v -8.864039 0.52886200000000005 -0.72475100000000003
v -8.7671480000000006 0.52886200000000005 -0.70940400000000003
v -8.6702539999999999 0.52886200000000005 -0.72475100000000003
v -8.5828450000000007 0.52886200000000005 -0.76928799999999997
v -8.5134779999999992 0.52886200000000005 -0.83865599999999996
v -8.4689409999999992 0.52886200000000005 -0.926064
v -8.453595 0.52886200000000005 -1.022958
v -8.5342549999999999 0.36647099999999999 -1.0986290000000001
v -8.5690380000000008 0.36647099999999999 -1.166893
v -8.6232109999999995 0.36647099999999999 -1.2210669999999999
v -8.6914759999999998 0.36647099999999999 -1.255849
v -8.7671469999999996 0.36647099999999999 -1.267835
v -8.8428179999999994 0.36647099999999999 -1.255849
v -8.9110820000000004 0.36647099999999999 -1.2210669999999999
v -8.9652569999999994 0.36647099999999999 -1.166893
v -9.0000370000000007 0.36647099999999999 -1.0986290000000001
v -9.0120229999999992 0.36647099999999999 -1.022958
v -9.0000370000000007 0.36647099999999999 -0.94728699999999999
v -8.9652569999999994 0.36647099999999999 -0.87902199999999997
v -8.9110820000000004 0.36647099999999999 -0.82484800000000003
v -8.8428179999999994 0.36647099999999999 -0.79006699999999996
v -8.7671469999999996 0.36647099999999999 -0.77807999999999999
v -8.6914759999999998 0.36647099999999999 -0.79006699999999996
v -8.6232109999999995 0.36647099999999999 -0.82484900000000005
v -8.5690380000000008 0.36647099999999999 -0.87902199999999997
v -8.5342549999999999 0.36647099999999999 -0.94728699999999999
v -8.5222700000000007 0.36647099999999999 -1.022958
v -8.6138589999999997 0.29946600000000001 -1.0727640000000001
v -8.6367539999999998 0.29946600000000001 -1.1176950000000001
v -8.672409 0.29946600000000001 -1.1533519999999999
v -8.7173400000000001 0.29946600000000001 -1.1762459999999999
v -8.7671469999999996 0.29946600000000001 -1.1841349999999999
v -8.8169529999999998 0.29946600000000001 -1.1762459999999999
v -8.8618849999999991 0.29946600000000001 -1.1533519999999999
v -8.8975419999999996 0.29946600000000001 -1.1176950000000001
v -8.9204340000000002 0.29946600000000001 -1.0727640000000001
v -8.9283230000000007 0.29946600000000001 -1.022958
v -8.9204340000000002 0.29946600000000001 -0.97315099999999999
v -8.8975419999999996 0.29946600000000001 -0.92822000000000005
v -8.8618849999999991 0.29946600000000001 -0.892563
v -8.8169529999999998 0.29946600000000001 -0.86967000000000005
v -8.7671469999999996 0.29946600000000001 -0.86178100000000002
v -8.7173400000000001 0.29946600000000001 -0.86967000000000005
v -8.672409 0.29946600000000001 -0.892563
v -8.6367539999999998 0.29946600000000001 -0.92822000000000005
v -8.6138589999999997 0.29946600000000001 -0.97315099999999999
v -8.6059699999999992 0.29946600000000001 -1.022958
v -8.6754189999999998 0.27246100000000001 -1.052762
v -8.6891200000000008 0.27246100000000001 -1.0796490000000001
v -8.7671469999999996 0.27246100000000001 -1.022958
v -8.7104560000000006 0.27246100000000001 -1.100986
v -8.7373429999999992 0.27246100000000001 -1.1146849999999999
v -8.7671469999999996 0.27246100000000001 -1.1194059999999999
v -8.7969519999999992 0.27246100000000001 -1.1146849999999999
v -8.8238380000000003 0.27246100000000001 -1.100986
v -8.8451749999999993 0.27246100000000001 -1.0796490000000001
v -8.8588740000000001 0.27246100000000001 -1.052762
v -8.8635959999999994 0.27246100000000001 -1.022958
v -8.8588740000000001 0.27246100000000001 -0.99315399999999998
v -8.8451749999999993 0.27246100000000001 -0.96626699999999999
v -8.8238380000000003 0.27246100000000001 -0.94492900000000002
v -8.7969519999999992 0.27246100000000001 -0.93123
v -8.7671469999999996 0.27246100000000001 -0.92650900000000003
v -8.7373429999999992 0.27246100000000001 -0.93123
v -8.7104560000000006 0.27246100000000001 -0.94493000000000005
v -8.6891200000000008 0.27246100000000001 -0.96626699999999999
v -8.6754189999999998 0.27246100000000001 -0.99315399999999998
v -8.6706990000000008 0.27246100000000001 -1.022958
v -8.4796449999999997 0.61816599999999999 -1.116374
v -8.5225819999999999 0.61816599999999999 -1.200645
v -8.5894600000000008 0.61816599999999999 -1.267523
v -8.6737319999999993 0.61816599999999999 -1.310462
v -8.7671480000000006 0.61816599999999999 -1.3252569999999999
v -8.8605630000000009 0.61816599999999999 -1.310462
v -8.9448369999999997 0.61816599999999999 -1.267523
v -9.0117139999999996 0.61816599999999999 -1.200645
v -9.0546509999999998 0.61816599999999999 -1.116374
v -9.0694459999999992 0.61816599999999999 -1.022958
v -9.0546509999999998 0.61816599999999999 -0.92954199999999998
v -9.0117139999999996 0.61816599999999999 -0.84527099999999999
v -8.9448369999999997 0.61816599999999999 -0.84350000000000003
v -8.8605630000000009 0.61816599999999999 -0.800562
v -8.7671480000000006 0.61816599999999999 -0.72065800000000002
v -8.6737319999999993 0.61816599999999999 -0.73545400000000005
v -8.5894600000000008 0.61816599999999999 -0.77839199999999997
v -8.5225819999999999 0.61816599999999999 -0.84527099999999999
v -8.5266749999999991 0.61816599999999999 -0.92954199999999998
v -8.5118779999999994 0.61816599999999999 -1.022958
v -8.5177929999999993 0.71419900000000003 -1.1039779999999999
v -8.5550339999999991 0.71419900000000003 -1.177068
v -8.6130370000000003 0.71419900000000003 -1.2350719999999999
v -8.6861280000000001 0.71419900000000003 -1.2723139999999999
v -8.7671480000000006 0.71419900000000003 -1.2851459999999999
v -8.8481670000000001 0.71419900000000003 -1.2723139999999999
v -8.9212589999999992 0.71419900000000003 -1.206369
v -8.9792629999999996 0.71419900000000003 -1.1483650000000001
v -9.0165030000000002 0.71419900000000003 -1.1039779999999999
v -9.0293340000000004 0.71419900000000003 -1.022958
v -9.0165030000000002 0.71419900000000003 -0.94193700000000002
v -8.9792629999999996 0.71419900000000003 -0.86884799999999995
v -8.9212589999999992 0.71419900000000003 -0.81084400000000001
v -8.8481670000000001 0.71419900000000003 -0.77360200000000001
v -8.7671480000000006 0.71419900000000003 -0.76076999999999995
v -8.6861280000000001 0.71419900000000003 -0.81868700000000005
v -8.6130370000000003 0.71419900000000003 -0.85592900000000005
v -8.5550339999999991 0.71419900000000003 -0.86884799999999995
v -8.5177929999999993 0.71419900000000003 -0.94193700000000002
v -8.5049589999999995 0.71419900000000003 -1.022958
v -8.5528469999999999 0.80654499999999996 -1.092589
v -8.6303780000000003 0.73241699999999998 -1.155403
v -8.6802259999999993 0.73241699999999998 -1.205254
v -8.6975169999999995 0.80654499999999996 -1.23726
v -8.7671480000000006 0.80654499999999996 -1.2482880000000001
v -8.8367780000000007 0.80654499999999996 -1.23726
v -8.8995960000000007 0.80654499999999996 -1.205254
v -8.9494450000000008 0.80654499999999996 -1.155403
v -8.9814489999999996 0.80654499999999996 -1.092589
v -8.9924759999999999 0.80654499999999996 -1.022958
v -8.9814489999999996 0.80654499999999996 -0.95332700000000004
v -8.9494450000000008 0.80654499999999996 -0.89051199999999997
v -8.8995960000000007 0.80654499999999996 -0.84066200000000002
v -8.8367780000000007 0.80654499999999996 -0.80865600000000004
v -8.7671480000000006 0.80654499999999996 -0.797628
v -8.6975169999999995 0.80654499999999996 -0.80865600000000004
v -8.6347009999999997 0.80654499999999996 -0.84066200000000002
v -8.584854 0.80654499999999996 -0.89051199999999997
v -8.5528469999999999 0.80654499999999996 -0.95332700000000004
v -8.5418179999999992 0.80654499999999996 -1.022958
v -8.693676 0.94066099999999997 -1.0468299999999999
v -8.7046489999999999 0.94066099999999997 -1.0683659999999999
v -8.7217389999999995 0.94066099999999997 -1.0854569999999999
v -8.7432759999999998 0.94066099999999997 -1.09643
v -8.7671480000000006 0.94066099999999997 -1.1002110000000001
v -8.7910199999999996 0.94066099999999997 -1.09643
v -8.8125560000000007 0.94066099999999997 -1.0854569999999999
v -8.8296469999999996 0.94066099999999997 -1.0683659999999999
v -8.8406199999999995 0.94066099999999997 -1.0468299999999999
v -8.8444000000000003 0.94066099999999997 -1.022958
v -8.8406199999999995 0.94066099999999997 -0.999085
v -8.8296469999999996 0.94066099999999997 -0.97755000000000003
v -8.8125560000000007 0.94066099999999997 -0.96045899999999995
v -8.7910199999999996 0.94066099999999997 -0.94948600000000005
v -8.7671480000000006 0.94066099999999997 -0.94570500000000002
v -8.7432759999999998 0.94066099999999997 -0.94948600000000005
v -8.7217389999999995 0.94066099999999997 -0.96045899999999995
v -8.7046489999999999 0.94066099999999997 -0.97755000000000003
v -8.693676 0.94066099999999997 -0.99908600000000003
v -8.6898949999999999 0.94066099999999997 -1.022958
v -8.693676 0.95206800000000003 -1.0468299999999999
v -8.7046489999999999 0.95206800000000003 -1.0683659999999999
v -8.7217389999999995 0.95206800000000003 -1.0854569999999999
v -8.7432759999999998 0.95206800000000003 -1.09643
v -8.7671480000000006 0.95206800000000003 -1.1002110000000001
v -8.7910199999999996 0.95206800000000003 -1.09643
v -8.8125560000000007 0.95206800000000003 -1.0854569999999999
v -8.8296469999999996 0.95206800000000003 -1.0683659999999999
v -8.8406199999999995 0.95206800000000003 -1.0468299999999999
v -8.8444000000000003 0.95206800000000003 -1.022958
v -8.8406199999999995 0.95206800000000003 -0.999085
v -8.8296469999999996 0.95206800000000003 -0.97755000000000003
v -8.8125560000000007 0.95206800000000003 -0.96045899999999995
v -8.7910199999999996 0.95206800000000003 -0.94948600000000005
v -8.7671480000000006 0.95206800000000003 -0.94570500000000002
v -8.7432759999999998 0.95206800000000003 -0.94948600000000005
v -8.7217389999999995 0.95206800000000003 -0.96045899999999995
v -8.7046489999999999 0.95206800000000003 -0.97755000000000003
v -8.693676 0.95206800000000003 -0.99908600000000003
v -8.6898949999999999 0.95206800000000003 -1.022958
v -8.5829199999999997 1.0361860000000001 -1.0828169999999999
v -8.6104339999999997 1.025957 -1.136817
v -8.7671480000000006 0.97387900000000005 -1.022958
v -8.6532870000000006 1.025957 -1.1796720000000001
v -8.7072889999999994 1.025957 -1.2071860000000001
v -8.7671480000000006 1.078168 -1.2166669999999999
v -8.8270060000000008 1.025957 -1.2071860000000001
v -8.8810059999999993 1.0472319999999999 -1.1796709999999999
v -8.9238619999999997 1.025957 -1.136817
v -8.9513750000000005 1.025957 -1.0828180000000001
v -8.9608550000000005 1.0978699999999999 -1.022958
v -8.9513750000000005 1.025957 -0.96309800000000001
v -8.9238619999999997 1.025957 -0.90909899999999999
v -8.8810059999999993 1.047261 -0.86624400000000001
v -8.8270060000000008 1.025957 -0.83872999999999998
v -8.7671480000000006 1.0652680000000001 -0.82924900000000001
v -8.7072889999999994 1.025957 -0.83872999999999998
v -8.6532870000000006 1.025957 -0.86624400000000001
v -8.6104339999999997 1.058284 -0.90909899999999999
v -8.5829199999999997 1.025957 -0.96309800000000001
v -8.5734399999999997 1.025957 -1.022958
v -8.6048109999999998 0.87360300000000002 -1.075704
v -8.5964569999999991 0.87360300000000002 -1.022958
v -8.6048109999999998 0.87360300000000002 -0.97021100000000005
v -8.6290569999999995 0.87360300000000002 -0.922628
v -8.666817 0.87360300000000002 -0.93830599999999997
v -8.7144019999999998 0.87360300000000002 -0.91406100000000001
v -8.7671480000000006 0.87360300000000002 -0.85226599999999997
v -8.8198939999999997 0.84906599999999999 -0.86062099999999997
v -8.8674789999999994 0.84906599999999999 -0.88486500000000001
v -8.9052410000000002 0.87360300000000002 -0.922628
v -8.9294849999999997 0.87360300000000002 -0.97021100000000005
v -8.9378379999999993 0.87360300000000002 -1.022958
v -8.9294849999999997 0.87360300000000002 -1.0757049999999999
v -8.9052410000000002 0.87360300000000002 -1.1232880000000001
v -8.8674789999999994 0.87360300000000002 -1.1610499999999999
v -8.8198939999999997 0.87360300000000002 -1.185295
v -8.7671480000000006 0.87360300000000002 -1.193649
v -8.7144019999999998 0.87360300000000002 -1.185295
v -8.666817 0.87360300000000002 -1.1610499999999999
v -8.6290569999999995 0.87360300000000002 -1.1232880000000001
#end vertices

#begin 422 textures vertices 
vt 0.59402201395035337 0.48718058328265618 0
vt 0.64079712327295479 0.47855961938313102 0
vt 0.68650802904720853 0.46438994511297271 0
vt 0.72862677227649186 0.44223031992387224 0
vt 0.76960844989402388 0.4182203524786966 0
vt 0.36287574360871983 0.31869367098019047 0
vt 0.40650191912095018 0.33870301924769508 0
vt 0.45188663053173511 0.35311638434595194 0
vt 0.49859229587506587 0.3617309811117938 0
vt 0.54596369020079827 0.36467395373766764 0
vt 0.59331062897814246 0.36155817027643883 0
vt 0.6400216987074141 0.35297332211704296 0
vt 0.68524727999937318 0.33836244664841841 0
vt 0.72852423898277352 0.31847389141633797 0
vt 0.769313014350689 0.29323625434705486 0
vt 0.36437086115874384 0.44307338640359956 0
vt 0.40753494995458289 0.46321593699742158 0
vt 0.45278109841892988 0.4777922714975541 0
vt 0.49936227152882717 0.4867690363841537 0
vt 0.54666786481878149 0.4896826555599475 0
vt 0.59956663619138562 0.53346346007440748 0
vt 0.65170770824784396 0.52378720657525313 0
vt 0.70207134045411146 0.5084808336471961 0
vt 0.74370593250299932 0.48629052795956446 0
vt 0.94789488052596416 0.18756893191584242 0
vt 0.34234900221322201 0.36101156103725823 0
vt 0.39037895637656633 0.3825024252285889 0
vt 0.44093928211419264 0.39843212525769084 0
vt 0.49317597649833794 0.40806170215119864 0
vt 0.54622318473325904 0.4112528871011657 0
vt 0.59919260987721601 0.40777431298763778 0
vt 0.65128898655849854 0.3978390552385459 0
vt 0.70185810981457419 0.38188553321429169 0
vt 0.7500570636205568 0.3599110698203114 0
vt 0.52838990974586486 0.068277675930317222 0
vt 0.34255291132575166 0.48438515279667793 0
vt 0.3907247759585773 0.50639327945385482 0
vt 0.44113293037256046 0.52288510403743405 0
vt 0.49330122433037665 0.53304241725859725 0
vt 0.54643347854762392 0.53674982386749126 0
vt 0.58830329234101608 0.43934468932119419 0
vt 0.62914325032934437 0.43228356110244565 0
vt 0.66842326942976049 0.41961994133596509 0
vt 0.70523222050144363 0.40108497071310223 0
vt 0.74028838533780128 0.37895669357275469 0
vt 0.38718321173086467 0.2768668165867133 0
vt 0.4243504991720749 0.29422926703131608 0
vt 0.4637519376626289 0.30676038424733415 0
vt 0.50450270449281853 0.31444953707953088 0
vt 0.54594545970058594 0.31653235224067866 0
vt 0.58745160301621446 0.31424132527764947 0
vt 0.62821562250664931 0.30630467458372823 0
vt 0.66783949226044159 0.29403084821650666 0
vt 0.70531959551938517 0.27653494876000551 0
vt 0.73997648860032506 0.25451099282998257 0
vt 0.38760160700473323 0.40123086291327609 0
vt 0.42501278898668654 0.41891167633899329 0
vt 0.46457635535015329 0.43135933744265476 0
vt 0.50544566447814065 0.43888025379528744 0
vt 0.54686835099517306 0.44196270171456742 0
vt 0.20099635359918899 0.71259242184406446 0
vt 0.22474346223929637 0.70122976342007859 0
vt 0.24448872910997149 0.68375837842884013 0
vt 0.25857858896543628 0.66119671238978572 0
vt 0.26613917004977744 0.6355503670635867 0
vt 0.38103939908151313 0.69357544594601284 0
vt 0.39509084159562119 0.71610589054432294 0
vt 0.41481194084737988 0.73373532098464933 0
vt 0.4386681088419519 0.74483517025248935 0
vt 0.46465133044443829 0.74893331581475175 0
vt 0.49064222623536097 0.74482581101309098 0
vt 0.51452590662353193 0.73371442437780088 0
vt 0.53428715326384446 0.71612934910339732 0
vt 0.54818414239717628 0.69350300963373268 0
vt 0.55575185175647679 0.66786330319183063 0
vt 0.091391153785144161 0.66114100638488948 0
vt 0.10529071830340599 0.68374650002490123 0
vt 0.12509774560969389 0.70121785907901035 0
vt 0.14887269946008827 0.71258127777258506 0
vt 0.1749365033014488 0.716600624877054 0
vt 0.19044333355990786 0.6773347124008382 0
vt 0.20460837300264326 0.67050478642056555 0
vt 0.17497140593169172 0.62820883052921039 0
vt 0.2162623126098478 0.65979098308567141 0
vt 0.22427445200494306 0.64612066663667211 0
vt 0.22792675388866568 0.63049355105524607 0
vt 0.41529810998925731 0.6784487501187646 0
vt 0.42335048131960429 0.6921850445015536 0
vt 0.43495106561251329 0.70286604877756131 0
vt 0.44914806157422926 0.70965759523910443 0
vt 0.46464740094993529 0.71201700891555464 0
vt 0.4801443057132308 0.70965427404423265 0
vt 0.49433702423264519 0.70285974090597425 0
vt 0.50596875009493536 0.69215318079389965 0
vt 0.51394260902186595 0.67846814338328643 0
vt 0.51757287954761866 0.66283535926860626 0
vt 0.12565631144654907 0.64610383528816584 0
vt 0.13363208392760548 0.65978630403157723 0
vt 0.1452729543643119 0.67050098913785749 0
vt 0.15943187879684556 0.67733264960630524 0
vt 0.17493779438281024 0.67967090915002593 0
vt 0.74366565713081578 0.18755746249174732 0
vt 0.7927599782605963 0.19363435196648179 0
vt 0.8414078048738276 0.20366110354220404 0
vt 0.88772308028485836 0.22034727694064768 0
vt 0.93413300498527319 0.23782140071412927 0
vt 0.076963393401568783 0.094483431093622908 0
vt 0.12413282477336159 0.078738203847297156 0
vt 0.17199594132968807 0.067747005978379488 0
vt 0.22062605811022803 0.061930601089133321 0
vt 0.26967735874520121 0.060030419700486691 0
vt 0.31861831748233738 0.06239936322779948 0
vt 0.36670183463221706 0.068936662572880947 0
vt 0.39841195012393416 0.082357553616225168 0
vt 0.44529847371521469 0.096699146563826319 0
vt 0.50799623185847964 0.11196507314776291 0
vt 0.50337863313651254 0.2209991484474709 0
vt 0.55025879897402441 0.20627223855940505 0
vt 0.59808735966472781 0.19653199067173543 0
vt 0.64220962532848191 0.19673227851452912 0
vt 0.69218332202865884 0.19462252273760464 0
vt 0.73950757629963881 0.24253389630123101 0
vt 0.78345370808785231 0.24830326963785779 0
vt 0.82658169635771039 0.25755876077691564 0
vt 0.86889394591912694 0.27150497071690377 0
vt 0.41380703916887396 0.56512688102512421 0
vt 0.09879637339241791 0.14591314868844774 0
vt 0.15090970076794874 0.13441950170444894 0
vt 0.19441893546217462 0.12390386123755076 0
vt 0.2252141329132005 0.11714502017561303 0
vt 0.26971709966822516 0.11511146992727309 0
vt 0.31424648398222049 0.11749798030465471 0
vt 0.35880368035485566 0.12331374190817442 0
vt 0.40126093036483457 0.13805430619605324 0
vt 0.44470763016947734 0.14952556908232068 0
vt 0.94942826003335457 0.60285797288128062 0
vt 0.53680493662016238 0.28011532389760435 0
vt 0.5791648839321013 0.26595517971298249 0
vt 0.60761401101327661 0.25043584757772575 0
vt 0.65174107638300516 0.24807337545272193 0
vt 0.69560913964509008 0.24578986102242889 0
vt 0.24921239702289028 0.53469513543992964 0
vt 0.31186739202012603 0.52480935342830426 0
vt 0.34399056352635787 0.5399591790420144 0
vt 0.34961269816444945 0.58135083183226621 0
vt 0.37782697807146454 0.60553634574714121 0
vt 0.61188900999338802 0.61180023172505305 0
vt 0.64365960532205735 0.59369279826509547 0
vt 0.67737667796102707 0.580523820338819 0
vt 0.71269346023514979 0.57221598232004034 0
vt 0.74908906194485692 0.57009646918290668 0
vt 0.78541289441117801 0.57335624756487458 0
vt 0.8208177771387819 0.58250643716964579 0
vt 0.85445456800695752 0.59633587329750637 0
vt 0.88518021424062465 0.61597646448612009 0
vt 0.91253517792229077 0.64113567900689072 0
vt 0.074731631754605121 0.56867988132674641 0
vt 0.10702867301567558 0.55149289894056053 0
vt 0.14068087250834602 0.53753799586271711 0
vt 0.17675573431798461 0.53073037082770314 0
vt 0.21326850241372994 0.5296414409889354 0
vt 0.089063345195629987 0.91177014146469215 0
vt 0.10190742956025005 0.91177014146466395 0
vt 0.11475112209262088 0.91177014146463509 0
vt 0.12759567994007956 0.91177014146460822 0
vt 0.14043935009047001 0.91177014146458268 0
vt 0.20496655614697823 0.91465549964958393 0
vt 0.21781064051160384 0.9146554996496028 0
vt 0.23065470879379571 0.91465549964962056 0
vt 0.2434987931584191 0.91465549964963277 0
vt 0.25634238018952804 0.91465549964963899 0
vt 0.26918649208001666 0.91465549964963655 0
vt 0.28203010296633746 0.91465549964962545 0
vt 0.29487417124852855 0.9146554996496068 0
vt 0.30771825561315214 0.91465549964958281 0
vt 0.32056192576354081 0.91465549964955639 0
vt 0.024843670150403376 0.91177014146461 0
vt 0.03768822799786211 0.91177014146463708 0
vt 0.050531920530232595 0.91177014146466351 0
vt 0.063376004894855842 0.9117701414646846 0
vt 0.076219675045243684 0.91177014146469593 0
vt 0.089063345195637189 0.91783180149573651 0
vt 0.10190742956026362 0.91783180149570809 0
vt 0.11475112209263338 0.91783180149567989 0
vt 0.12759567994009172 0.91783180149565302 0
vt 0.45998390955877699 0.81691573057908284 0
vt 0.20496655614696929 0.92071715968062806 0
vt 0.21781064051159491 0.92071715968064738 0
vt 0.23065470879378849 0.92071715968066492 0
vt 0.24349879315841511 0.92071715968067736 0
vt 0.25634238018952771 0.92071715968068335 0
vt 0.26918649208002066 0.92071715968068091 0
vt 0.28203010296634501 0.92071715968066981 0
vt 0.29487417124853882 0.92071715968065138 0
vt 0.30771825561316429 0.92071715968062717 0
vt 0.21748935556115995 0.77867581927914453 0
vt 0.024843670150390455 0.91783180149565458 0
vt 0.037688227997849599 0.91783180149568189 0
vt 0.050531920530221507 0.91783180149570831 0
vt 0.063376004894848514 0.9178318014957294 0
vt 0.07621967504524238 0.91783180149574051 0
vt 0.6281892602484942 0.89718378093009665 0
vt 0.60157151286507671 0.87825642948656668 0
vt 0.67218283765459108 0.79840756340083385 0
vt 0.58094560464020661 0.8535228654920779 0
vt 0.56864914254145482 0.82375609568395824 0
vt 0.55628437290270427 0.78308568673338996 0
vt 0.93716350363698631 0.7150652631969312 0
vt 0.92740800677616764 0.74777401855572556 0
vt 0.90277535838256373 0.77140181161302945 0
vt 0.87542676512563489 0.78840801576829067 0
vt 0.83171399704557269 0.81263114282911331 0
vt 0.78871060317639996 0.78716991556963345 0
vt 0.76185867487447889 0.76938985709470575 0
vt 0.73790350363024371 0.74506779652145227 0
vt 0.72909142647311342 0.71208730473688919 0
vt 0.7207443992474063 0.67461904098857972 0
vt 0.76968387527793602 0.8414810096880736 0
vt 0.75236862692945716 0.86863696188250206 0
vt 0.72801623063379917 0.89582591808629508 0
vt 0.69224684735478559 0.90309396860314917 0
vt 0.66006378864774939 0.90430764593134949 0
vt 0.24026290349642929 0.57988829674667497 0
vt 0.21122367181334895 0.57580356199003746 0
vt 0.18210986034483947 0.57650206218160105 0
vt 0.15372919232782112 0.58203599301313313 0
vt 0.14624518157780644 0.60284403446173984 0
vt 0.12107937652181987 0.61720984091670106 0
vt 0.94961565833957295 0.90775130207465549 0
vt 0.86247285951228547 0.6446024579107863 0
vt 0.8375155988662728 0.62919600814477072 0
vt 0.8055163124403617 0.62614674293826145 0
vt 0.77740564128880463 0.61867611196948147 0
vt 0.74843410403808996 0.61574476351397678 0
vt 0.71936528482112005 0.61788859899629345 0
vt 0.69099167156125629 0.62470633045081359 0
vt 0.66362714267117395 0.63496042436225109 0
vt 0.63835799212249045 0.64915929013528206 0
vt 0.66218328444922592 0.97948988463652675 0
vt 0.32056599905554306 0.61686350785320965 0
vt 0.29553011041680366 0.60070103437316491 0
vt 0.26876202926260484 0.58838422383894384 0
vt 0.32322315466663543 0.29082686848859401 0
vt 0.29784718864674392 0.33030456715337414 0
vt 0.28218432899486756 0.83570314493870157 0
vt 0.32347860769674786 0.41780462252102757 0
vt 0.039410004390783626 0.78885596599311425 0
vt 0.29784718864674392 0.45712995878759954 0
vt 0.46461905449262569 0.66054112097303985 0
vt 0.41163039630401671 0.66282507769058374 0
vt 0.12203184539545231 0.63047202715645567 0
vt 0.83345878932844863 0.69042642116461472 0
vt 0.31742576321158944 0.67934987501376587 0
vt 0.027662859651876343 0.64699528882212176 0
vt 0.37345792639108882 0.66792689117749804 0
vt 0.08382597526917987 0.63550491027552058 0
vt 0.031945496087500844 0.11676599259058287 0
vt 0.45768875899826073 0.24034423150799455 0
vt 0.059507516185288399 0.16503541720677722 0
vt 0.48388532982841731 0.29019486285693735 0
vt 0.58270468834029399 0.63478205615516625 0
vt 0.04505278878920279 0.59068452603296473 0
vt 0.61623975714638979 0.66755895981336044 0
vt 0.077697064842897373 0.62456968046645223 0
vt 0.7957063453396267 0.93441055529027328 0
vt 0.19212288599657837 0.92071715968060697 0
vt 0.50805331966804768 0.97541321461662123 0
vt 0.011999999999999955 0.91783180149562704 0
vt 0.44779058069353889 0.92591122774810208 0
vt 0.10806272508520519 0.87104836158518384 0
vt 0.47629118502899609 0.90995927924805553 0
vt 0.50128975468779413 0.88965536846751192 0
vt 0.52009889012048549 0.86351191825086682 0
vt 0.54975757920474089 0.83305979428176924 0
vt 0.94924966443257741 0.67431160564979242 0
vt 0.066870137923210504 0.82130403146129982 0
vt 0.07895208045578736 0.85322673593260157 0
vt 0.13668224882565003 0.88581587301308251 0
vt 0.17433962985567603 0.91867143010447183 0
vt 0.21173808557203969 0.8855214453705873 0
vt 0.2402408739063559 0.87052986139581434 0
vt 0.26922009087769355 0.85248497725659544 0
vt 0.28104286698421177 0.82046018206115345 0
vt 0.30316221627351664 0.78908697631425317 0
vt 0.78570525750086784 0.80659701952545282 0
vt 0.30686577337829768 0.86510388916647174 0
vt 0.32584423691232067 0.89112467867876988 0
vt 0.34683881323874455 0.92098278159349856 0
vt 0.38318139884566493 0.92437244380091754 0
vt 0.41519144937226377 0.92791912473980243 0
vt 0.57184029462455976 0.94872618778204565 0
vt 0.58286312911680582 0.95531918580435193 0
vt 0.43800363026663808 0.84746561514840058 0
vt 0.6016622503982394 0.98799999999999999 0
vt 0.42626120943637968 0.85267004174608041 0
vt 0.59186753644859502 0.96447784763178612 0
vt 0.44797328965600203 0.83936831130538181 0
vt 0.59827190002372688 0.97561188524148768 0
vt 0.45547467840233868 0.82894181461794747 0
vt 0.14043935009048203 0.91783180149562726 0
vt 0.41357071278545116 0.85464770645092902 0
vt 0.19212288599658844 0.91465549964956239 0
vt 0.80037372752730884 0.92244496268287945 0
vt 0.13375034728486518 0.79133074206735876 0
vt 0.13009175659398745 0.77901917932785891 0
vt 0.80790731482905365 0.91204229160605466 0
vt 0.14050539529530168 0.80225501913919994 0
vt 0.81782031072390415 0.90387512548638371 0
vt 0.14997883757013622 0.81092819511476666 0
vt 0.82947224144615994 0.89847114421242047 0
vt 0.16139294549836752 0.8168179016752326 0
vt 0.84210980062997165 0.89617989440033452 0
vt 0.17395065168883325 0.8195126638279373 0
vt 0.85491737243940658 0.89714804449285723 0
vt 0.18648735730703705 0.81671941795656244 0
vt 0.86706643254948412 0.90131441930089196 0
vt 0.19785439428036461 0.81074038701114848 0
vt 0.87777303411738328 0.90840940153511607 0
vt 0.20725950187648717 0.80199315652699177 0
vt 0.88639975184337172 0.91792519075313606 0
vt 0.21392808583148068 0.79101588495338104 0
vt 0.89241380300873252 0.9292738052726468 0
vt 0.32056192576355358 0.92071715968060053 0
vt 0.012000000000012993 0.91177014146458224 0
vt 0.51508771427711331 0.96466718486531411 0
vt 0.37126419253811349 0.83011497070507123 0
vt 0.36667698251861452 0.81811841423377341 0
vt 0.52381981475549444 0.95524736068796545 0
vt 0.37883311249774776 0.84049254830976139 0
vt 0.53415487389010008 0.94762194328625671 0
vt 0.38885512985850229 0.84852495802832162 0
vt 0.54667356260346667 0.94474915090541889 0
vt 0.40080518078994315 0.85323311965484927 0
vt 0.55951172259633619 0.94512533029015122 0
vt 0.30651995436477697 0.48332310746972929 0
vt 0.74988132034918942 0.51694351368645131 0
vt 0.54845294307676618 0.59384430671583743 0
vt 0.26114357540752176 0.48264735462882313 0
vt 0.34961790822146455 0.50075317927410046 0
vt 0.38012220137144631 0.53710924919720915 0
vt 0.90957508581266078 0.28789654726096575 0
vt 0.58325876240771324 0.56711441147888819 0
vt 0.63218134735517229 0.54471999586469444 0
vt 0.67472294007644962 0.52927961452651484 0
vt 0.70517611322137674 0.52022797838610324 0
vt 0.79450158441278385 0.52131915136670481 0
vt 0.011999999999999955 0.54829606168563316 0
vt 0.83778596395614957 0.53237192903170372 0
vt 0.87895820370221323 0.54988312657694438 0
vt 0.91648031509738503 0.57395275475293439 0
vt 0.73640725889928271 0.91961744968526515 0
vt 0.48629604057325604 0.16348645386079194 0
vt 0.45056007025253869 0.95468167659255765 0
vt 0.058707477088561631 0.52145120215690288 0
vt 0.099246138155039326 0.50148751815260939 0
vt 0.12771317349300804 0.48598747570924988 0
vt 0.17167930388835739 0.47817021457400333 0
vt 0.21646138613689328 0.47720284049316919 0
vt 0.62064690127683719 0.90728190168054113 0
vt 0.59629183105610095 0.89271413344872874 0
vt 0.64054185164165633 0.92751776325198199 0
vt 0.65469229673579221 0.95211791368803556 0
vt 0.34192086000532934 0.63614715810897104 0
vt 0.74671989347433176 0.89317904469083897 0
vt 0.76336556984753456 0.87019374599978061 0
vt 0.78526800686007436 0.85214866221234709 0
vt 0.81101249390009289 0.84020896186025062 0
vt 0.83893614712373665 0.83514592394515974 0
vt 0.86723432454103433 0.83728553071814127 0
vt 0.89407830977546654 0.8464907202427987 0
vt 0.92374666079847501 0.85624600017248342 0
vt 0.94280727784298923 0.87727173876110887 0
vt 0.87771193230961719 0.67202270389387642 0
vt 0.48717103776865139 0.93179964070096832 0
vt 0.50646444543220681 0.91098697824354846 0
vt 0.51302475223826582 0.89027464985743521 0
vt 0.54068456773790707 0.88392665414310212 0
vt 0.56905141997857478 0.88475802291309646 0
vt 0.80042148145185865 0.14634647102859949 0
vt 0.74782090408120983 0.14022478645079597 0
vt 0.85214048014043042 0.15693084474101446 0
vt 0.89728247918558068 0.17080134632227098 0
vt 0.79066979875626764 0.46121464641667842 0
vt 0.061973950411293249 0.048848889662434516 0
vt 0.1637246040258914 0.020776018350590182 0
vt 0.011999999999999955 0.069669326772786866 0
vt 0.11188062406934829 0.032856551764743794 0
vt 0.21678419588875664 0.013736613272305298 0
vt 0.27025569502955765 0.011999999999999955 0
vt 0.3237985211933172 0.014700076540838297 0
vt 0.37722931491564549 0.023184679204914151 0
vt 0.43015689146720237 0.029059104946022308 0
vt 0.48067216761551823 0.046258363260803952 0
vt 0.79514883331047304 0.33276030823165265 0
vt 0.48779135908010551 0.17581522105091885 0
vt 0.43881292551363138 0.19553808940049389 0
vt 0.53884925179956844 0.1603954023419232 0
vt 0.59126870020350375 0.14947870101316052 0
vt 0.64282625333148036 0.13969888937970082 0
vt 0.69512886916595673 0.13772053859900349 0
vt 0.21698154850049661 0.76673646565473108 0
vt 0.2555529947658618 0.7490773193010154 0
vt 0.28708302724908913 0.72108046766324363 0
vt 0.30959391624816435 0.68600118634905249 0
vt 0.32217775080861566 0.64701663108882945 0
vt 0.353760152323782 0.25373199140680058 0
vt 0.33002164066424294 0.71830396094211157 0
vt 0.35251718257307429 0.75331035743215269 0
vt 0.38406533684469663 0.78120033325655691 0
vt 0.42244717967836298 0.79929907203073536 0
vt 0.46460956590984681 0.80516858584017559 0
vt 0.50676190145231081 0.79929210740108014 0
vt 0.54511213544989379 0.78121260517891611 0
vt 0.57663533443245862 0.7533522898352778 0
vt 0.59942305405578145 0.71833610548692794 0
vt 0.61190503878313929 0.6793061045522677 0
vt 0.35289983282884829 0.37912762772919056 0
vt 0.040142309611835778 0.68604499501878946 0
vt 0.062941483820378535 0.72110974863681343 0
vt 0.094440303952345345 0.74907461882492998 0
vt 0.13298046353975249 0.76673472583281699 0
vt 0.17497699350161827 0.77265394463448756 0
#end 422 textures vertices 

#begin 342 normals 
vn 0.88099499999999997 -0.37670599999999999 -0.28625299999999998
vn 0.74941999999999998 -0.37670599999999999 -0.54448300000000005
vn 0.80749599999999999 -0.061295000000000002 -0.58667899999999995
vn 0.96844200000000003 0.0059829999999999996 -0.249166
vn 0.50935200000000003 -0.32295499999999999 -0.79766000000000004
vn 0.50381900000000002 -0.064681000000000002 -0.86138400000000004
vn 0.23829400000000001 -0.17245099999999999 -0.95576000000000005
vn 0.19308900000000001 -0.065545999999999993 -0.978989
vn 0.068328 -0.17526800000000001 -0.98214699999999999
vn 0.12377000000000001 -0.065082000000000001 -0.990174
vn -0.23024900000000001 -0.315054 -0.92072100000000001
vn -0.19886699999999999 -0.064932000000000004 -0.97787299999999999
vn -0.54447800000000002 -0.37671500000000002 -0.74941999999999998
vn -0.586677 -0.061303000000000003 -0.80749700000000002
vn -0.74941899999999995 -0.376716 -0.54447800000000002
vn -0.80750100000000002 -0.061302000000000002 -0.58667199999999997
vn -0.88099300000000003 -0.37671399999999999 -0.286248
vn -0.94926999999999995 -0.061296999999999997 -0.30842999999999998
vn -0.92632999999999999 -0.37671399999999999 0
vn -0.99812000000000001 -0.061294000000000001 0
vn -0.88099300000000003 -0.37671399999999999 0.28624899999999998
vn -0.94926999999999995 -0.061296999999999997 0.30842999999999998
vn -0.74941999999999998 -0.376716 0.54447699999999999
vn -0.77463800000000005 -0.0014289999999999999 0.63240399999999997
vn -0.54447800000000002 -0.37671500000000002 0.74941899999999995
vn -0.51567099999999999 0.18806200000000001 0.83589199999999997
vn -0.28625 -0.37671199999999999 0.88099300000000003
vn -0.37815399999999999 0.17716499999999999 0.908632
vn 9.9999999999999995e-007 -0.37671100000000002 0.92633100000000002
vn -0.088643 0.035042999999999998 0.99544699999999997
vn 0.28625200000000001 -0.37670999999999999 0.88099300000000003
vn 0.30843599999999999 -0.061295000000000002 0.949268
vn 0.54448399999999997 -0.37670900000000002 0.74941800000000003
vn 0.58668100000000001 -0.061296000000000003 0.80749499999999996
vn 0.74941999999999998 -0.37670599999999999 0.54448300000000005
vn 0.83957599999999999 -0.0033379999999999998 0.54323200000000005
vn 0.88099499999999997 -0.37670599999999999 0.28625299999999998
vn 0.95988399999999996 0.13381699999999999 0.24640599999999999
vn 0.92633399999999999 -0.37670399999999998 -0
vn 0.98915900000000001 0.13297900000000001 0.062297999999999999
vn 0 -1 0
vn 0 -1 9.9999999999999995e-007
vn 0 -1 0
vn 0 -1 0
vn 0 -1 -0
vn 0 -1 0
vn 0 -1 9.9999999999999995e-007
vn 0 -1 0
vn 0 -1 -9.9999999999999995e-007
vn 0 -1 0
vn 0 -1 0
vn 0 -1 0
vn 0 -1 9.9999999999999995e-007
vn 0 -1 0
vn 0 -1 -0
vn 0 -1 0
vn 0 -1 0
vn 0 -1 -9.9999999999999995e-007
vn 0 -1 9.9999999999999995e-007
vn 0 -1 -0
vn 0 -1 0
vn -0.29122100000000001 0.95196499999999995 0.094618999999999995
vn -0.25877699999999998 0.96228100000000005 0.083959000000000006
vn 0.049611000000000002 0.99876699999999996 0.001799
vn -0.15260399999999999 0.96570900000000004 0.21004200000000001
vn 0.31901200000000002 0.87981500000000001 0.35235899999999998
vn -0 0.88050099999999998 0.47404400000000002
vn -0.17227100000000001 0.93183499999999997 0.31938499999999997
vn 0.20815500000000001 0.93519399999999997 0.28650300000000001
vn 0.10348 0.95067999999999997 0.292402
vn 0.37372300000000003 0.81673499999999999 -0.43963000000000002
vn 0.53910999999999998 0.84223499999999996 -9.9999999999999995e-007
vn 0.373722 0.81673399999999996 0.43963200000000002
vn 0.10333000000000001 0.95063900000000001 -0.29259000000000002
vn 0.208227 0.93514699999999995 -0.28660400000000003
vn -0.068613999999999994 0.95396499999999995 -0.29196299999999997
vn -0 0.90440100000000001 -0.42668299999999998
vn 0.22762199999999999 0.91516500000000001 -0.33265899999999998
vn -0.36166399999999999 0.93113999999999997 -0.046661000000000001
vn -0.32317299999999999 0.91675200000000001 -0.234789
vn -0.15614 0.93113900000000005 -0.32954600000000001
vn -0.25870700000000002 0.96228100000000005 0.084178000000000003
vn 0.81696899999999995 -0.51195500000000005 -0.26545000000000002
vn 0.69495499999999999 -0.511957 -0.50491299999999995
vn 0.50491299999999995 -0.51195900000000005 -0.69495300000000004
vn 0.26545099999999999 -0.511961 -0.81696500000000005
vn 0 -0.51196200000000003 -0.85900799999999999
vn -0.26545000000000002 -0.51196299999999995 -0.81696400000000002
vn -0.50490800000000002 -0.51196299999999995 -0.69495399999999996
vn -0.69495300000000004 -0.511965 -0.50490800000000002
vn -0.81696199999999997 -0.51196900000000001 -0.26544400000000001
vn -0.85900200000000004 -0.51197199999999998 -0
vn -0.81696199999999997 -0.51196900000000001 0.26544499999999999
vn -0.69495399999999996 -0.51196399999999997 0.50490800000000002
vn -0.50490800000000002 -0.51196299999999995 0.69495499999999999
vn -0.26544899999999999 -0.51196200000000003 0.81696500000000005
vn 0 -0.51196299999999995 0.85900699999999997
vn 0.26545099999999999 -0.51196200000000003 0.81696500000000005
vn 0.50491299999999995 -0.51195999999999997 0.69495300000000004
vn 0.69495499999999999 -0.511957 0.50491299999999995
vn 0.81696899999999995 -0.51195500000000005 0.26545099999999999
vn 0.85901300000000003 -0.51195400000000002 0
vn 0.50559699999999996 -0.78066500000000005 -0.36733300000000002
vn 0.59435899999999997 -0.780667 -0.19312299999999999
vn 0.59435899999999997 -0.780667 -0.19312399999999999
vn 0.50559699999999996 -0.78066500000000005 -0.36733300000000002
vn 0.367338 -0.78066500000000005 -0.50559399999999999
vn 0.367338 -0.78066500000000005 -0.50559399999999999
vn 0.19312299999999999 -0.78066199999999997 -0.59436500000000003
vn 0.19312399999999999 -0.78066199999999997 -0.59436500000000003
vn 0 -0.780663 -0.62495199999999995
vn -0 -0.780663 -0.62495199999999995
vn -0.19312399999999999 -0.78066199999999997 -0.59436500000000003
vn -0.19312399999999999 -0.78066199999999997 -0.59436500000000003
vn -0.36733399999999999 -0.780663 -0.50559900000000002
vn -0.36733399999999999 -0.780663 -0.50560000000000005
vn -0.50560000000000005 -0.78066400000000002 -0.36733199999999999
vn -0.50560099999999997 -0.78066400000000002 -0.36733100000000002
vn -0.59436699999999998 -0.780663 -0.19311500000000001
vn -0.59436699999999998 -0.780663 -0.19311500000000001
vn -0.62495100000000003 -0.78066400000000002 -0
vn -0.62495100000000003 -0.78066400000000002 0
vn -0.59436699999999998 -0.780663 0.19311600000000001
vn -0.59436699999999998 -0.780663 0.19311500000000001
vn -0.50560000000000005 -0.78066400000000002 0.36733199999999999
vn -0.50560099999999997 -0.78066400000000002 0.36732999999999999
vn -0.36733300000000002 -0.78066400000000002 0.50559900000000002
vn -0.36733300000000002 -0.78066400000000002 0.50560000000000005
vn -0.19312199999999999 -0.780663 0.59436500000000003
vn -0.19312099999999999 -0.780663 0.59436500000000003
vn 0 -0.78066400000000002 0.62495100000000003
vn -0 -0.78066400000000002 0.62495100000000003
vn 0.19312299999999999 -0.780663 0.59436500000000003
vn 0.19312299999999999 -0.780663 0.59436500000000003
vn 0.36733700000000002 -0.78066500000000005 0.50559500000000002
vn 0.36733700000000002 -0.78066500000000005 0.50559399999999999
vn 0.50559699999999996 -0.78066500000000005 0.36733300000000002
vn 0.50559600000000005 -0.78066500000000005 0.36733399999999999
vn 0.59435899999999997 -0.780667 0.19312399999999999
vn 0.59435899999999997 -0.780667 0.19312499999999999
vn 0.62494899999999998 -0.78066599999999997 -0
vn 0.62494899999999998 -0.78066599999999997 0
vn 0.31151000000000001 -0.92289699999999997 -0.226323
vn 0.366199 -0.92289699999999997 -0.118991
vn 0.36619800000000002 -0.92289699999999997 -0.118992
vn 0.31151000000000001 -0.92289699999999997 -0.226323
vn 0.226325 -0.92289900000000002 -0.311504
vn 0.226325 -0.92289900000000002 -0.311504
vn 0.118987 -0.922898 -0.36619800000000002
vn 0.118987 -0.922898 -0.36619800000000002
vn 0 -0.92289900000000002 -0.38504300000000002
vn 0 -0.92289900000000002 -0.38504300000000002
vn -0.11898599999999999 -0.922898 -0.36620000000000003
vn -0.118988 -0.922898 -0.366199
vn -0.226323 -0.922898 -0.31150699999999998
vn -0.226323 -0.922898 -0.31150699999999998
vn -0.31150899999999998 -0.92289900000000002 -0.22631899999999999
vn -0.31150899999999998 -0.92289900000000002 -0.22631899999999999
vn -0.366203 -0.92289699999999997 -0.11898599999999999
vn -0.366203 -0.92289600000000005 -0.11898599999999999
vn -0.38505 -0.92289600000000005 -0
vn -0.38505 -0.92289600000000005 0
vn -0.366203 -0.92289600000000005 0.118987
vn -0.366203 -0.92289699999999997 0.11898599999999999
vn -0.31150899999999998 -0.92289900000000002 0.22631799999999999
vn -0.31151000000000001 -0.92289900000000002 0.22631799999999999
vn -0.226322 -0.92289900000000002 0.31150699999999998
vn -0.226322 -0.922898 0.31150699999999998
vn -0.11898499999999999 -0.92289699999999997 0.366201
vn -0.11898599999999999 -0.92289699999999997 0.36620000000000003
vn 0 -0.922898 0.385044
vn 0 -0.922898 0.385044
vn 0.118987 -0.922898 0.366199
vn 0.118987 -0.922898 0.366199
vn 0.226325 -0.92289900000000002 0.31150499999999998
vn 0.226325 -0.92289900000000002 0.31150499999999998
vn 0.31151000000000001 -0.92289699999999997 0.226323
vn 0.31151000000000001 -0.92289699999999997 0.226323
vn 0.36619800000000002 -0.922898 0.118992
vn 0.36619800000000002 -0.922898 0.118992
vn 0.38504699999999997 -0.92289699999999997 -0
vn 0.38504699999999997 -0.92289699999999997 0
vn 0.78162900000000002 0.25800200000000001 -0.56788300000000003
vn 0.94413599999999998 0.272982 -0.18462999999999999
vn 0.53247 0.20582300000000001 -0.82104299999999997
vn 0.24915399999999999 0.070531999999999997 -0.96589199999999997
vn 0.061323000000000003 0.072227 -0.99550099999999997
vn -0.27972200000000003 0.23363 -0.93122099999999997
vn -0.575735 0.32754299999999997 -0.74916199999999999
vn -0.74925600000000003 0.317884 -0.58100399999999996
vn -0.91205999999999998 0.26925500000000002 -0.30927100000000002
vn -0.96614500000000003 0.25800099999999998 -0
vn -0.91886199999999996 0.25800000000000001 0.298545
vn -0.70891000000000004 0.27788299999999999 0.64824999999999999
vn -0.43313200000000002 0.27190300000000001 0.85933999999999999
vn -0.43909399999999998 0.271204 0.85653100000000004
vn -0.10021099999999999 0.33436300000000002 0.93710099999999996
vn 0.33438299999999999 0.38222 0.86145000000000005
vn 0.50136099999999995 0.38084600000000002 0.77691299999999996
vn 0.80618400000000001 0.31046899999999999 0.50366299999999997
vn 0.94561799999999996 0.27107700000000001 0.179786
vn 0.95445899999999995 0.27094299999999999 0.12489500000000001
vn 0.61799099999999996 0.54535 -0.56628599999999996
vn 0.86530700000000005 0.40132600000000002 -0.30030299999999999
vn 0.51441400000000004 0.59544299999999994 -0.61711199999999999
vn 0.326158 0.43756899999999999 -0.83794599999999997
vn -0 0.37904500000000002 -0.92537800000000003
vn -0.35488599999999998 0.39093099999999997 -0.84925200000000001
vn -0.59889599999999998 0.38583299999999998 -0.70175299999999996
vn -0.72230099999999997 0.38811299999999999 -0.572407
vn -0.86829000000000001 0.38620500000000002 -0.31131700000000001
vn -0.92537899999999995 0.37904399999999999 0
vn -0.88009099999999996 0.37904500000000002 0.285945
vn -0.726935 0.32060300000000003 0.60727200000000003
vn -0.50980400000000003 0.13058400000000001 0.85032200000000002
vn -0.39317999999999997 0.15668499999999999 0.90601299999999996
vn 0.031988000000000003 0.335009 0.94167199999999995
vn 0.396231 0.38806499999999999 0.83211000000000002
vn 0.44892500000000002 0.39122200000000001 0.80337499999999995
vn 0.74428099999999997 0.34897499999999998 0.56943999999999995
vn 0.95313499999999995 0.19258800000000001 0.23333100000000001
vn 0.97774499999999998 0.196688 0.072999999999999995
vn 0.53836600000000001 0.55333399999999999 -0.63559600000000005
vn 0.72765000000000002 0.48218800000000001 -0.487873
vn 0.68081400000000003 0.53332400000000002 -0.50205299999999997
vn 0.45689800000000003 0.45563700000000001 -0.76396299999999995
vn 0 0.47763099999999997 -0.87856000000000001
vn -0.325349 0.44622299999999998 -0.83368600000000004
vn -0.57177199999999995 0.39190199999999997 -0.72075599999999995
vn -0.71311199999999997 0.40452399999999999 -0.57256600000000002
vn -0.83467999999999998 0.46810800000000002 -0.29014600000000002
vn -0.87856100000000004 0.47763 0
vn -0.835565 0.47763099999999997 0.27147700000000002
vn -0.69246700000000005 0.49119499999999999 0.52841000000000005
vn -0.48774699999999999 0.51164699999999996 0.70733299999999999
vn -0.28554800000000002 0.51165000000000005 0.81035599999999997
vn 0.134771 0.49035800000000002 0.86103799999999997
vn 0.40434999999999999 0.44903900000000002 0.79678400000000005
vn 0.40750399999999998 0.446071 0.79684500000000003
vn 0.64646700000000001 0.473881 0.59792699999999999
vn 0.83555599999999997 0.477634 0.27149899999999999
vn 0.87855899999999998 0.477634 0
vn 0.62000200000000005 0.45057399999999997 -0.64232500000000003
vn 0.66685300000000003 0.61669499999999999 -0.418323
vn 0.64077300000000004 0.43369200000000002 -0.63349900000000003
vn 0.385569 0.63796299999999995 -0.66658799999999996
vn -0 0.71337499999999998 -0.70078300000000004
vn -0.21655199999999999 0.71337499999999998 -0.66648399999999997
vn -0.41190599999999999 0.71337700000000004 -0.56694500000000003
vn -0.56694800000000001 0.71337700000000004 -0.41190199999999999
vn -0.66648799999999997 0.71337399999999995 -0.21654399999999999
vn -0.70078399999999996 0.71337300000000003 -0
vn -0.66648799999999997 0.71337399999999995 0.21654399999999999
vn -0.49510999999999999 0.73005900000000001 0.47104099999999999
vn -0.33004 0.73056299999999996 0.59778900000000001
vn -0.28962599999999999 0.73055999999999999 0.61838400000000004
vn 0.087627999999999998 0.76471800000000001 0.63837900000000003
vn 0.34834700000000002 0.74026599999999998 0.57503099999999996
vn 0.22665299999999999 0.72912999999999994 0.64575400000000005
vn 0.46535700000000002 0.74046000000000001 0.48493399999999998
vn 0.66648300000000005 0.71337399999999995 0.21656
vn 0.70078200000000002 0.71337499999999998 0
vn 0.95106000000000002 0 -0.30900499999999997
vn 0.80902499999999999 0 -0.58777500000000005
vn 0.49301499999999998 -0.818712 -0.29436000000000001
vn 0.57012300000000005 -0.800404 -0.18523600000000001
vn 0.587781 0 -0.80901999999999996
vn 0.33249600000000001 -0.82462500000000005 -0.45764500000000002
vn 0.30901299999999998 0 -0.95105799999999996
vn -0.057652000000000002 -0.77476 -0.62962099999999999
vn 0 0 -1
vn 0 -0.70452999999999999 -0.70967400000000003
vn -0.30902000000000002 0 -0.95105600000000001
vn -0.045613000000000001 -0.78123500000000001 -0.62256800000000001
vn -0.58778200000000003 0 -0.80901999999999996
vn -0.37186399999999997 -0.77443300000000004 -0.51183100000000004
vn -0.80901500000000004 0 -0.58778799999999998
vn -0.40413900000000003 -0.80999100000000002 -0.424954
vn -0.95106000000000002 0 -0.30900499999999997
vn -0.65158700000000003 -0.74624900000000005 0.136189
vn -1 0 0
vn -0.74843999999999999 -0.66320299999999999 0
vn -0.95106000000000002 0 0.309006
vn -0.651586 -0.74624900000000005 -0.13619000000000001
vn -0.80901699999999999 0 0.587785
vn -0.40406500000000001 -0.80996500000000005 0.42507400000000001
vn -0.58778200000000003 0 0.80901900000000004
vn -0.37191299999999999 -0.77436499999999997 0.51189799999999996
vn -0.30901800000000001 0 0.95105600000000001
vn -0.102558 -0.79300000000000004 0.60052700000000003
vn 0 0 1
vn -0 -0.73303200000000002 0.68019499999999999
vn 0.30901299999999998 0 0.95105799999999996
vn -0.0028879999999999999 -0.79115000000000002 0.61161600000000005
vn 0.58778200000000003 0 0.80901999999999996
vn 0.46961900000000001 -0.799068 0.37543100000000001
vn 0.80902499999999999 0 0.58777400000000002
vn 0.53614899999999999 -0.74887499999999996 0.38952599999999998
vn 0.95106000000000002 0 0.309006
vn 0.50218099999999999 -0.79906600000000005 0.33061699999999999
vn 1 0 0
vn 0.57188000000000005 -0.81871000000000005 -0.051636000000000001
vn 0.472493 -0.83807500000000001 -0.27272600000000002
vn 0.54397200000000001 -0.82027899999999998 -0.17674000000000001
vn 0.31490000000000001 -0.84438199999999997 -0.433425
vn -0.105832 -0.78169999999999995 -0.61460999999999999
vn 0 -0.72319500000000003 -0.69064400000000004
vn -0.010097999999999999 -0.79615999999999998 -0.60500100000000001
vn -0.35715999999999998 -0.79421299999999995 -0.491593
vn -0.372747 -0.82776000000000005 -0.41937200000000002
vn -0.63872700000000004 -0.74351299999999998 0.19803200000000001
vn -0.73248500000000005 -0.68078300000000003 9.9999999999999995e-007
vn -0.63872700000000004 -0.74351199999999995 -0.19803299999999999
vn -0.37265900000000002 -0.82772800000000002 0.41951300000000002
vn -0.35721199999999997 -0.79414399999999996 0.49166500000000002
vn -0.078259999999999996 -0.81108499999999994 0.57966899999999999
vn -0 -0.752278 0.65884500000000001
vn -0.040347000000000001 -0.803562 0.59385200000000005
vn 0.47218300000000002 -0.81392699999999996 0.338476
vn 0.51777700000000004 -0.768374 0.37617600000000001
vn 0.46782699999999999 -0.81392500000000001 0.344476
vn 0.54256300000000002 -0.83807399999999999 -0.057077000000000003
vn 0.55452299999999999 0.81242899999999996 -0.180175
vn 0.58305799999999997 0.81242999999999999 -0
vn 0.55452299999999999 0.81242899999999996 0.180176
vn 0.39069500000000001 0.77359299999999998 0.49891000000000002
vn 0.27247500000000002 0.55040699999999998 0.78918299999999997
vn 0.45347700000000002 0.62407400000000002 0.63631000000000004
vn 0.070414000000000004 0.76652299999999995 0.63834599999999997
vn -0.32467400000000002 0.72354399999999996 0.60915600000000003
vn -0.30197400000000002 0.72354499999999999 0.620722
vn -0.40735199999999999 0.78978000000000004 0.45859699999999998
vn -0.55452500000000005 0.81242999999999999 0.18016699999999999
vn -0.58306100000000005 0.81242800000000004 0
vn -0.55452500000000005 0.81242999999999999 -0.18016699999999999
vn -0.47170499999999999 0.81243200000000004 -0.34270899999999999
vn -0.34270899999999999 0.81243200000000004 -0.47170400000000001
vn -0.180175 0.81243100000000001 -0.55452100000000004
vn 0 0.81242999999999999 -0.58305799999999997
vn 0.180174 0.81242999999999999 -0.55452199999999996
vn 0.34271400000000002 0.81242999999999999 -0.47170400000000001
vn 0.47171099999999999 0.81242800000000004 -0.34270899999999999
#end 342 normals 

#begin 260 faces
usemtl initialShadingGroup
g pCylinder13
s 1
f 1/1/1 2/2/2 22/22/3 21/21/4 
f 2/2/2 3/3/5 23/23/6 22/22/3 
f 3/3/5 4/4/7 24/24/8 23/23/6 
f 4/4/7 5/5/9 25/383/10 24/24/8 
f 5/243/9 6/6/11 26/26/12 25/244/10 
f 6/6/11 7/7/13 27/27/14 26/26/12 
f 7/7/13 8/8/15 28/28/16 27/27/14 
f 8/8/15 9/9/17 29/29/18 28/28/16 
f 9/9/17 10/10/19 30/30/20 29/29/18 
f 10/10/19 11/11/21 31/31/22 30/30/20 
f 11/11/21 12/12/23 32/32/24 31/31/22 
f 12/12/23 13/13/25 33/33/26 32/32/24 
f 13/13/25 14/14/27 34/34/28 33/33/26 
f 14/14/27 15/15/29 35/394/30 34/34/28 
f 15/246/29 16/16/31 36/36/32 35/248/30 
f 16/16/31 17/17/33 37/37/34 36/36/32 
f 17/17/33 18/18/35 38/38/36 37/37/34 
f 18/18/35 19/19/37 39/39/38 38/38/36 
f 19/19/37 20/20/39 40/40/40 39/39/38 
f 20/20/39 1/1/1 21/21/4 40/40/40 
s 2
f 82/82/41 81/81/42 83/83/43 
f 84/84/44 82/82/41 83/83/43 
f 85/85/45 84/84/44 83/83/43 
f 86/86/46 85/85/45 83/83/43 
f 87/87/47 86/250/46 83/249/43 
f 88/88/48 87/87/47 83/249/43 
f 89/89/49 88/88/48 83/249/43 
f 90/90/50 89/89/49 83/249/43 
f 91/91/51 90/90/50 83/249/43 
f 92/92/52 91/91/51 83/249/43 
f 93/93/53 92/92/52 83/249/43 
f 94/94/54 93/93/53 83/249/43 
f 95/95/55 94/94/54 83/249/43 
f 96/96/56 95/95/55 83/249/43 
f 97/97/57 96/251/56 83/83/43 
f 98/98/58 97/97/57 83/83/43 
f 99/99/59 98/98/58 83/83/43 
f 100/100/60 99/99/59 83/83/43 
f 101/101/61 100/100/60 83/83/43 
f 81/81/42 101/101/61 83/83/43 
s 3
f 202/202/62 203/203/63 204/204/64 
f 203/203/63 205/205/65 204/204/64 
f 205/205/65 206/206/66 204/204/64 
f 206/206/66 207/207/67 204/204/64 
f 207/275/67 208/208/68 204/252/64 
f 208/208/68 209/209/69 204/252/64 
f 209/209/69 210/210/70 204/252/64 
f 210/210/70 211/211/71 204/252/64 
f 211/211/71 212/212/72 204/252/64 
f 212/212/72 213/213/73 204/252/64 
f 213/213/73 214/214/74 204/252/64 
f 214/214/74 215/215/75 204/252/64 
f 215/215/75 216/216/76 204/252/64 
f 216/216/76 217/217/77 204/252/64 
f 217/285/77 218/218/78 204/204/64 
f 218/218/78 219/219/79 204/204/64 
f 219/219/79 220/220/80 204/204/64 
f 220/220/80 221/221/81 204/204/64 
f 221/221/81 222/222/82 204/204/64 
f 222/222/82 202/202/62 204/204/64 
s 1
f 2/2/2 1/1/1 41/41/83 42/42/84 
f 3/3/5 2/2/2 42/42/84 43/43/85 
f 4/4/7 3/3/5 43/43/85 44/44/86 
f 5/5/9 4/4/7 44/44/86 45/45/87 
f 6/6/11 5/243/9 45/406/87 46/46/88 
f 7/7/13 6/6/11 46/46/88 47/47/89 
f 8/8/15 7/7/13 47/47/89 48/48/90 
f 9/9/17 8/8/15 48/48/90 49/49/91 
f 10/10/19 9/9/17 49/49/91 50/50/92 
f 11/11/21 10/10/19 50/50/92 51/51/93 
f 12/12/23 11/11/21 51/51/93 52/52/94 
f 13/13/25 12/12/23 52/52/94 53/53/95 
f 14/14/27 13/13/25 53/53/95 54/54/96 
f 15/15/29 14/14/27 54/54/96 55/55/97 
f 16/16/31 15/246/29 55/417/97 56/56/98 
f 17/17/33 16/16/31 56/56/98 57/57/99 
f 18/18/35 17/17/33 57/57/99 58/58/100 
f 19/19/37 18/18/35 58/58/100 59/59/101 
f 20/20/39 19/19/37 59/59/101 60/60/102 
f 1/1/1 20/20/39 60/60/102 41/41/83 
s 4
f 42/402/103 41/401/104 61/61/105 62/62/106 
f 43/403/107 42/402/103 62/62/106 63/63/108 
f 44/404/109 43/403/107 63/63/108 64/64/110 
f 45/405/111 44/404/109 64/64/110 65/65/112 
f 46/407/113 45/253/111 65/255/112 66/66/114 
f 47/408/115 46/407/113 66/66/114 67/67/116 
f 48/409/117 47/408/115 67/67/116 68/68/118 
f 49/410/119 48/409/117 68/68/118 69/69/120 
f 50/411/121 49/410/119 69/69/120 70/70/122 
f 51/412/123 50/411/121 70/70/122 71/71/124 
f 52/413/125 51/412/123 71/71/124 72/72/126 
f 53/414/127 52/413/125 72/72/126 73/73/128 
f 54/415/129 53/414/127 73/73/128 74/74/130 
f 55/416/131 54/415/129 74/74/130 75/75/132 
f 56/418/133 55/254/131 75/256/132 76/76/134 
f 57/419/135 56/418/133 76/76/134 77/77/136 
f 58/420/137 57/419/135 77/77/136 78/78/138 
f 59/421/139 58/420/137 78/78/138 79/79/140 
f 60/422/141 59/421/139 79/79/140 80/80/142 
f 41/401/104 60/422/141 80/80/142 61/61/105 
s 5
f 62/62/143 61/61/144 81/81/145 82/82/146 
f 63/63/147 62/62/143 82/82/146 84/84/148 
f 64/64/149 63/63/147 84/84/148 85/85/150 
f 65/65/151 64/64/149 85/85/150 86/86/152 
f 66/66/153 65/255/151 86/250/152 87/87/154 
f 67/67/155 66/66/153 87/87/154 88/88/156 
f 68/68/157 67/67/155 88/88/156 89/89/158 
f 69/69/159 68/68/157 89/89/158 90/90/160 
f 70/70/161 69/69/159 90/90/160 91/91/162 
f 71/71/163 70/70/161 91/91/162 92/92/164 
f 72/72/165 71/71/163 92/92/164 93/93/166 
f 73/73/167 72/72/165 93/93/166 94/94/168 
f 74/74/169 73/73/167 94/94/168 95/95/170 
f 75/75/171 74/74/169 95/95/170 96/96/172 
f 76/76/173 75/256/171 96/251/172 97/97/174 
f 77/77/175 76/76/173 97/97/174 98/98/176 
f 78/78/177 77/77/175 98/98/176 99/99/178 
f 79/79/179 78/78/177 99/99/178 100/100/180 
f 80/80/181 79/79/179 100/100/180 101/101/182 
f 61/61/144 80/80/181 101/101/182 81/81/145 
s 1
f 21/380/4 22/379/3 103/103/183 102/102/184 
f 22/379/3 23/381/6 104/104/185 103/103/183 
f 23/381/6 24/382/8 105/105/186 104/104/185 
f 24/382/8 25/25/10 106/106/187 105/105/186 
f 25/386/10 26/384/12 107/107/188 106/257/187 
f 26/384/12 27/387/14 108/108/189 107/107/188 
f 27/387/14 28/385/16 109/109/190 108/108/189 
f 28/385/16 29/388/18 110/110/191 109/109/190 
f 29/388/18 30/389/20 111/111/192 110/110/191 
f 30/389/20 31/390/22 112/112/193 111/111/192 
f 31/390/22 32/391/24 113/113/194 112/112/193 
f 32/391/24 33/392/26 114/114/195 113/113/194 
f 33/392/26 34/393/28 115/115/196 114/114/195 
f 34/393/28 35/35/30 116/116/197 115/115/196 
f 35/396/30 36/395/32 117/117/198 116/258/197 
f 36/395/32 37/397/34 118/118/199 117/117/198 
f 37/397/34 38/398/36 119/119/200 118/118/199 
f 38/398/36 39/399/38 120/120/201 119/119/200 
f 39/399/38 40/400/40 121/121/202 120/120/201 
f 40/400/40 21/380/4 102/102/184 121/121/202 
f 102/102/184 103/103/183 123/123/203 122/122/204 
f 103/103/183 104/104/185 124/124/205 123/123/203 
f 104/104/185 105/105/186 125/125/206 124/124/205 
f 105/105/186 106/106/187 126/341/207 125/125/206 
f 106/257/187 107/107/188 127/127/208 126/259/207 
f 107/107/188 108/108/189 128/128/209 127/127/208 
f 108/108/189 109/109/190 129/129/210 128/128/209 
f 109/109/190 110/110/191 130/130/211 129/129/210 
f 110/110/191 111/111/192 131/131/212 130/130/211 
f 111/111/192 112/112/193 132/132/213 131/131/212 
f 112/112/193 113/113/194 133/133/214 132/132/213 
f 113/113/194 114/114/195 134/134/215 133/133/214 
f 114/114/195 115/115/196 135/135/216 134/134/215 
f 115/115/196 116/116/197 136/352/217 135/135/216 
f 116/258/197 117/117/198 137/137/218 136/260/217 
f 117/117/198 118/118/199 138/138/219 137/137/218 
f 118/118/199 119/119/200 139/139/220 138/138/219 
f 119/119/200 120/120/201 140/140/221 139/139/220 
f 120/120/201 121/121/202 141/141/222 140/140/221 
f 121/121/202 102/102/184 122/122/204 141/141/222 
f 122/338/204 123/335/203 143/143/223 142/142/224 
f 123/335/203 124/339/205 144/144/225 143/143/223 
f 124/339/205 125/340/206 145/145/226 144/144/225 
f 125/340/206 126/126/207 146/146/227 145/145/226 
f 126/337/207 127/342/208 147/147/228 146/261/227 
f 127/342/208 128/343/209 148/148/229 147/147/228 
f 128/343/209 129/344/210 149/149/230 148/148/229 
f 129/344/210 130/345/211 150/150/231 149/149/230 
f 130/345/211 131/336/212 151/151/232 150/150/231 
f 131/336/212 132/346/213 152/152/233 151/151/232 
f 132/346/213 133/348/214 153/153/234 152/152/233 
f 133/348/214 134/349/215 154/154/235 153/153/234 
f 134/349/215 135/350/216 155/155/236 154/154/235 
f 135/350/216 136/136/217 156/156/237 155/155/236 
f 136/347/217 137/354/218 157/157/238 156/262/237 
f 137/354/218 138/355/219 158/158/239 157/157/238 
f 138/355/219 139/356/220 159/159/240 158/158/239 
f 139/356/220 140/357/221 160/160/241 159/159/240 
f 140/357/221 141/358/222 161/161/242 160/160/241 
f 141/358/222 122/338/204 142/142/224 161/161/242 
f 142/142/224 143/143/223 242/242/243 223/223/244 
f 143/143/223 144/144/225 241/241/245 242/242/243 
f 144/144/225 145/145/226 240/240/246 241/241/245 
f 145/145/226 146/146/227 239/363/247 240/240/246 
f 146/261/227 147/147/228 238/238/248 239/263/247 
f 147/147/228 148/148/229 237/237/249 238/238/248 
f 148/148/229 149/149/230 236/236/250 237/237/249 
f 149/149/230 150/150/231 235/235/251 236/236/250 
f 150/150/231 151/151/232 234/234/252 235/235/251 
f 151/151/232 152/152/233 233/233/253 234/234/252 
f 152/152/233 153/153/234 232/232/254 233/233/253 
f 153/153/234 154/154/235 231/231/255 232/232/254 
f 154/154/235 155/155/236 230/230/256 231/231/255 
f 155/155/236 156/156/237 229/373/257 230/230/256 
f 156/262/237 157/157/238 228/228/258 229/264/257 
f 157/157/238 158/158/239 227/227/259 228/228/258 
f 158/158/239 159/159/240 226/226/260 227/227/259 
f 159/159/240 160/160/241 225/225/261 226/226/260 
f 160/160/241 161/161/242 224/224/262 225/225/261 
f 161/161/242 142/142/224 223/223/244 224/224/262 
s 6
f 162/162/263 163/163/264 183/183/265 182/182/266 
f 163/163/264 164/164/267 184/184/268 183/183/265 
f 164/164/267 165/165/269 185/185/270 184/184/268 
f 165/165/269 166/166/271 186/300/272 185/185/270 
f 166/302/271 167/167/273 187/187/274 186/266/272 
f 167/167/273 168/168/275 188/188/276 187/187/274 
f 168/168/275 169/169/277 189/189/278 188/188/276 
f 169/169/277 170/170/279 190/190/280 189/189/278 
f 170/170/279 171/171/281 191/191/282 190/190/280 
f 171/171/281 172/172/283 192/192/284 191/191/282 
f 172/172/283 173/173/285 193/193/286 192/192/284 
f 173/173/285 174/174/287 194/194/288 193/193/286 
f 174/174/287 175/175/289 195/195/290 194/194/288 
f 175/175/289 176/176/291 196/323/292 195/195/290 
f 176/324/291 177/177/293 197/197/294 196/268/292 
f 177/177/293 178/178/295 198/198/296 197/197/294 
f 178/178/295 179/179/297 199/199/298 198/198/296 
f 179/179/297 180/180/299 200/200/300 199/199/298 
f 180/180/299 181/181/301 201/201/302 200/200/300 
f 181/181/301 162/162/263 182/182/266 201/201/302 
f 182/295/266 183/293/265 203/271/303 202/269/304 
f 183/293/265 184/297/268 205/272/305 203/271/303 
f 184/297/268 185/299/270 206/273/306 205/272/305 
f 185/299/270 186/186/272 207/274/307 206/273/306 
f 186/305/272 187/304/274 208/276/308 207/247/307 
f 187/304/274 188/307/276 209/277/309 208/276/308 
f 188/307/276 189/309/278 210/270/310 209/277/309 
f 189/309/278 190/311/280 211/278/311 210/270/310 
f 190/311/280 191/313/282 212/279/312 211/278/311 
f 191/313/282 192/315/284 213/280/313 212/279/312 
f 192/315/284 193/317/286 214/281/314 213/280/313 
f 193/317/286 194/319/288 215/282/315 214/281/314 
f 194/319/288 195/321/290 216/283/316 215/282/315 
f 195/321/290 196/196/292 217/284/317 216/283/316 
f 196/327/292 197/326/294 218/286/318 217/245/317 
f 197/326/294 198/329/296 219/287/319 218/286/318 
f 198/329/296 199/331/298 220/288/320 219/287/319 
f 199/331/298 200/333/300 221/289/321 220/288/320 
f 200/333/300 201/301/302 222/290/322 221/289/321 
f 201/301/302 182/295/266 202/269/304 222/290/322 
s 1
f 224/378/262 223/360/244 162/291/323 181/334/324 
f 225/377/261 224/378/262 181/334/324 180/332/325 
f 226/376/260 225/377/261 180/332/325 179/330/326 
f 227/375/259 226/376/260 179/330/326 178/328/327 
f 228/374/258 227/375/259 178/328/327 177/325/328 
f 229/353/257 228/374/258 177/325/328 176/267/329 
f 230/372/256 229/229/257 176/322/329 175/320/330 
f 231/371/255 230/372/256 175/320/330 174/318/331 
f 232/370/254 231/371/255 174/318/331 173/316/332 
f 233/369/253 232/370/254 173/316/332 172/314/333 
f 234/368/252 233/369/253 172/314/333 171/312/334 
f 235/367/251 234/368/252 171/312/334 170/310/335 
f 236/366/250 235/367/251 170/310/335 169/308/336 
f 237/365/249 236/366/250 169/308/336 168/306/337 
f 238/364/248 237/365/249 168/306/337 167/303/338 
f 239/351/247 238/364/248 167/303/338 166/265/339 
f 240/362/246 239/239/247 166/294/339 165/298/340 
f 241/361/245 240/362/246 165/298/340 164/296/341 
f 242/359/243 241/361/245 164/296/341 163/292/342 
f 223/360/244 242/359/243 163/292/342 162/291/323 
#end 260 faces
#begin 1 properties
#U3D SYM 0 0 0 1 0 0 0.0001 0
#end 1 properties
