# This file uses centimeters as units for non-parametric coordinates.

mtllib woodtable.mtl
g default
v -3.719847 5.458990 7.842476
v -5.096626 5.607254 7.448984
v -6.352810 5.681414 8.148157
v -6.752543 5.638027 9.530427
v -6.061667 5.502509 10.786079
v -4.684888 5.354246 11.179569
v -3.428704 5.280087 10.480398
v -3.028972 5.323472 9.098129
v -3.696618 5.713754 7.857191
v -5.073397 5.862018 7.463699
v -6.329580 5.936177 8.162870
v -6.729313 5.892791 9.545141
v -6.038437 5.757274 10.800794
v -4.661658 5.609010 11.194283
v -3.405474 5.534850 10.495112
v -3.005743 5.578237 9.112844
v -4.867527 5.735514 9.328992
v -5.266693 5.480010 8.340459
v -5.509474 5.480010 8.475712
v -5.224817 5.480010 8.701150
v -5.860319 5.480010 9.709183
v -5.725066 5.480010 9.951965
v -5.499629 5.480010 9.667308
v -4.491593 5.480010 10.302812
v -4.248812 5.480010 10.167557
v -4.533469 5.480010 9.942118
v -3.897967 5.480010 8.934086
v -4.033222 5.480010 8.691305
v -4.258659 5.480010 8.975962
v -5.266693 3.554352 8.340459
v -5.509474 3.554352 8.475712
v -5.224817 3.554352 8.701150
v -5.860319 3.554352 9.709183
v -5.725066 3.554352 9.951965
v -5.499629 3.554352 9.667308
v -4.491593 3.554352 10.302812
v -4.248812 3.554352 10.167557
v -4.533469 3.554352 9.942118
v -3.897967 3.554352 8.934086
v -4.033222 3.554352 8.691305
v -4.258659 3.554352 8.975962
v -4.609658 4.767384 10.003901
v -4.440839 4.767384 9.909850
v -4.638777 4.767385 9.753091
v -4.196878 4.499581 9.052152
v -4.290928 4.499581 8.883332
v -4.447687 4.499581 9.081269
v -5.148628 4.365681 8.639371
v -5.317447 4.365681 8.733418
v -5.119509 4.365681 8.890178
v -5.561408 4.499581 9.591119
v -5.467360 4.499581 9.759938
v -5.310600 4.499581 9.562000
v -4.609658 4.579922 10.003901
v -4.440839 4.579922 9.909850
v -4.638777 4.579922 9.753091
v -5.561408 4.298729 9.591119
v -5.467360 4.298729 9.759938
v -5.310600 4.298729 9.562000
v -5.148627 4.151437 8.639370
v -5.317447 4.151437 8.733418
v -5.119509 4.151437 8.890178
v -4.196877 4.298729 9.052152
v -4.290928 4.298729 8.883332
v -4.447687 4.298729 9.081269
vt 0.636407 0.311699
vt 0.577183 0.514085
vt 0.541158 0.503543
vt 0.600382 0.301157
vt 0.559177 0.536471
vt 0.374191 0.637701
vt 0.356172 0.604774
vt 0.345630 0.640798
vt 0.143244 0.581574
vt 0.153786 0.545549
vt 0.120858 0.563569
vt 0.019627 0.378583
vt 0.052555 0.360563
vt 0.016530 0.350021
vt 0.075755 0.147636
vt 0.111779 0.158178
vt 0.093760 0.125250
vt 0.278746 0.024019
vt 0.296766 0.056947
vt 0.307308 0.020922
vt 0.509693 0.080146
vt 0.499151 0.116171
vt 0.532079 0.098152
vt 0.633310 0.283138
vt 0.326469 0.330860
vt 0.589566 0.829403
vt 0.548855 0.829406
vt 0.555044 0.659633
vt 0.583352 0.659631
vt 0.498160 0.813306
vt 0.519793 0.648439
vt 0.640259 0.813296
vt 0.618601 0.648431
vt 0.430497 0.826540
vt 0.389787 0.826543
vt 0.395979 0.675533
vt 0.424286 0.675531
vt 0.339761 0.808469
vt 0.361193 0.662965
vt 0.480520 0.808460
vt 0.459071 0.662959
vt 0.127906 0.977770
vt 0.087196 0.977765
vt 0.093413 0.863420
vt 0.121721 0.863424
vt 0.039601 0.954017
vt 0.060317 0.846907
vt 0.175507 0.954036
vt 0.154821 0.846921
vt 0.277114 0.827007
vt 0.236404 0.827005
vt 0.242615 0.675996
vt 0.270923 0.675998
vt 0.186381 0.808925
vt 0.207831 0.663424
vt 0.327140 0.808934
vt 0.305708 0.663430
vt 0.822186 0.334830
vt 0.780537 0.335095
vt 0.790151 0.305838
vt 0.813945 0.306848
vt 0.932980 0.168929
vt 0.930458 0.218873
vt 0.905082 0.204937
vt 0.905005 0.176908
vt 0.767739 0.065406
vt 0.819097 0.061762
vt 0.808393 0.092838
vt 0.782850 0.093141
vt 0.673060 0.225958
vt 0.664416 0.178795
vt 0.694695 0.183549
vt 0.695774 0.210661
vt 0.124639 0.805769
vt 0.096331 0.805771
vt 0.090116 0.648460
vt 0.130826 0.648457
vt 0.159601 0.817838
vt 0.181104 0.665815
vt 0.061372 0.817847
vt 0.039840 0.665827
vt 0.412511 0.966233
vt 0.384203 0.966231
vt 0.378011 0.847624
vt 0.418722 0.847627
vt 0.445889 0.982166
vt 0.466724 0.870540
vt 0.350822 0.982158
vt 0.330006 0.870529
vt 0.257414 0.951493
vt 0.229106 0.951490
vt 0.222915 0.852354
vt 0.263625 0.852358
vt 0.289171 0.970454
vt 0.309294 0.879626
vt 0.197346 0.970444
vt 0.177240 0.879613
vt 0.572070 0.970420
vt 0.543762 0.970424
vt 0.537545 0.851818
vt 0.578255 0.851813
vt 0.605452 0.986346
vt 0.626262 0.874716
vt 0.510384 0.986358
vt 0.489544 0.874734
vt 0.802414 0.270760
vt 0.869063 0.193682
vt 0.801095 0.240881
vt 0.835345 0.202399
vt 0.860555 0.349414
vt 0.946971 0.256852
vt 0.797293 0.129370
vt 0.798935 0.163334
vt 0.946561 0.129986
vt 0.857668 0.046103
vt 0.730927 0.197530
vt 0.764631 0.202923
vt 0.727959 0.052808
vt 0.647226 0.141835
vt 0.740903 0.349438
vt 0.655297 0.261445
vn 0.277677 0.030141 -0.960202
vn 0.277677 0.030141 -0.960202
vn 0.277677 0.030141 -0.960202
vn 0.277677 0.030141 -0.960202
vn -0.479921 0.094138 -0.872246
vn -0.479921 0.094138 -0.872246
vn -0.479921 0.094138 -0.872246
vn -0.479921 0.094138 -0.872246
vn -0.956388 0.102992 -0.273341
vn -0.956388 0.102992 -0.273341
vn -0.956388 0.102992 -0.273341
vn -0.956388 0.102992 -0.273341
vn -0.872615 0.051516 0.485684
vn -0.872615 0.051516 0.485684
vn -0.872615 0.051516 0.485684
vn -0.872615 0.051516 0.485684
vn -0.277676 -0.030138 0.960202
vn -0.277676 -0.030138 0.960202
vn -0.277676 -0.030138 0.960202
vn -0.277676 -0.030138 0.960202
vn 0.479921 -0.094139 0.872246
vn 0.479921 -0.094139 0.872246
vn 0.479921 -0.094139 0.872246
vn 0.479921 -0.094139 0.872246
vn 0.956388 -0.102993 0.273341
vn 0.956388 -0.102993 0.273341
vn 0.956388 -0.102993 0.273341
vn 0.956388 -0.102993 0.273341
vn 0.872616 -0.051514 -0.485683
vn 0.872616 -0.051514 -0.485683
vn 0.872616 -0.051514 -0.485683
vn 0.872616 -0.051514 -0.485683
vn 0.090655 0.994226 0.057423
vn 0.090655 0.994226 0.057423
vn 0.090655 0.994226 0.057423
vn 0.090655 0.994226 0.057423
vn 0.090655 0.994226 0.057423
vn 0.090655 0.994226 0.057423
vn 0.090655 0.994226 0.057423
vn 0.090655 0.994226 0.057423
vn 0.090655 0.994226 0.057423
vn 0.090655 0.994226 0.057423
vn 0.090655 0.994226 0.057423
vn 0.090655 0.994226 0.057423
vn 0.090655 0.994226 0.057423
vn 0.090655 0.994226 0.057423
vn 0.090655 0.994226 0.057423
vn 0.090655 0.994226 0.057423
vn 0.090655 0.994226 0.057423
vn 0.090655 0.994226 0.057423
vn 0.090655 0.994226 0.057423
vn 0.090655 0.994226 0.057423
vn 0.090655 0.994226 0.057423
vn 0.090655 0.994226 0.057423
vn 0.090655 0.994226 0.057423
vn 0.090655 0.994226 0.057423
vn -0.467922 -0.274884 -0.839933
vn -0.467922 -0.274883 -0.839933
vn -0.472392 -0.240448 -0.847956
vn -0.472392 -0.240448 -0.847956
vn 0.990597 0.074106 -0.115006
vn 0.990597 0.074106 -0.115006
vn 0.990597 0.074106 -0.115006
vn 0.990597 0.074106 -0.115006
vn -0.619141 0.074105 0.781775
vn -0.619141 0.074105 0.781775
vn -0.619141 0.074105 0.781775
vn -0.619141 0.074105 0.781775
vn -0.830824 -0.309037 0.462848
vn -0.830824 -0.309037 0.462848
vn -0.841403 -0.268929 0.468741
vn -0.841403 -0.268929 0.468741
vn -0.114912 0.084159 -0.989804
vn -0.114912 0.084159 -0.989804
vn -0.114912 0.084159 -0.989804
vn -0.114912 0.084159 -0.989804
vn 0.781151 0.084159 0.618645
vn 0.781151 0.084159 0.618645
vn 0.781151 0.084159 0.618645
vn 0.781151 0.084159 0.618645
vn 0.444301 -0.408128 0.797514
vn 0.444301 -0.408128 0.797514
vn 0.456453 -0.346924 0.819326
vn 0.456453 -0.346924 0.819326
vn -0.986689 0.115422 0.114553
vn -0.986689 0.115422 0.114553
vn -0.986689 0.115422 0.114553
vn -0.986689 0.115422 0.114553
vn 0.616697 0.115421 -0.778693
vn 0.616697 0.115421 -0.778693
vn 0.616697 0.115421 -0.778693
vn 0.616697 0.115421 -0.778693
vn 0.830817 -0.309038 -0.462858
vn 0.830817 -0.309038 -0.462858
vn 0.841397 -0.268930 -0.468751
vn 0.841397 -0.268930 -0.468751
vn 0.114918 0.084160 0.989804
vn 0.114918 0.084160 0.989804
vn 0.114918 0.084160 0.989804
vn 0.114918 0.084160 0.989804
vn -0.781151 0.084158 -0.618644
vn -0.781151 0.084158 -0.618644
vn -0.781151 0.084158 -0.618644
vn -0.781151 0.084158 -0.618644
vn 0.456453 -0.346924 0.819326
vn 0.456453 -0.346924 0.819326
vn 0.469735 0.261565 0.843168
vn 0.469735 0.261565 0.843168
vn 0.841397 -0.268930 -0.468751
vn 0.841397 -0.268930 -0.468751
vn 0.823897 0.332434 -0.459001
vn 0.823897 0.332434 -0.459001
vn -0.472392 -0.240448 -0.847956
vn -0.472392 -0.240448 -0.847956
vn -0.449368 0.383970 -0.806620
vn -0.449368 0.383970 -0.806620
vn -0.841403 -0.268929 0.468741
vn -0.841403 -0.268929 0.468741
vn -0.823904 0.332431 0.458991
vn -0.823903 0.332432 0.458991
vn 0.469735 0.261565 0.843168
vn 0.469735 0.261565 0.843168
vn 0.464770 0.296657 0.834257
vn 0.464770 0.296657 0.834257
vn 0.618833 -0.080478 -0.781389
vn 0.618833 -0.080478 -0.781389
vn 0.618833 -0.080478 -0.781389
vn 0.618833 -0.080478 -0.781389
vn -0.990106 -0.080479 0.114950
vn -0.990106 -0.080479 0.114950
vn -0.990106 -0.080479 0.114950
vn -0.990106 -0.080479 0.114950
vn -0.823903 0.332432 0.458991
vn -0.823904 0.332431 0.458991
vn -0.803124 0.393463 0.447414
vn -0.803124 0.393463 0.447414
vn 0.779126 -0.110560 0.617040
vn 0.779126 -0.110560 0.617040
vn 0.779126 -0.110560 0.617040
vn 0.779126 -0.110560 0.617040
vn -0.114612 -0.110559 -0.987239
vn -0.114612 -0.110559 -0.987239
vn -0.114612 -0.110559 -0.987239
vn -0.114612 -0.110559 -0.987239
vn -0.449368 0.383970 -0.806620
vn -0.449368 0.383970 -0.806620
vn -0.429377 0.470746 -0.770736
vn -0.429377 0.470746 -0.770736
vn -0.614961 -0.137367 0.776501
vn -0.614961 -0.137367 0.776501
vn -0.614961 -0.137367 0.776501
vn -0.614961 -0.137367 0.776501
vn 0.983911 -0.137371 -0.114230
vn 0.983911 -0.137371 -0.114230
vn 0.983911 -0.137371 -0.114230
vn 0.983911 -0.137371 -0.114230
vn 0.823897 0.332434 -0.459001
vn 0.823897 0.332434 -0.459001
vn 0.803116 0.393466 -0.447425
vn 0.803116 0.393466 -0.447425
vn -0.779127 -0.110559 -0.617040
vn -0.779127 -0.110559 -0.617040
vn -0.779127 -0.110559 -0.617040
vn -0.779127 -0.110559 -0.617040
vn 0.114619 -0.110561 0.987238
vn 0.114619 -0.110561 0.987238
vn 0.114619 -0.110561 0.987238
vn 0.114619 -0.110561 0.987238
vn -0.091219 -0.942778 0.320701
vn -0.091219 -0.942778 0.320701
vn -0.091219 -0.942778 0.320701
vn -0.091219 -0.942778 0.320701
vn -0.961848 0.000000 -0.273584
vn -0.961848 0.000000 -0.273584
vn -0.961848 0.000000 -0.273584
vn -0.961848 0.000000 -0.273584
vn 0.087330 0.947688 -0.307021
vn 0.087330 0.947688 -0.307021
vn 0.087330 0.947688 -0.307021
vn 0.087330 0.947688 -0.307021
vn 0.961848 0.000001 0.273585
vn 0.961848 0.000001 0.273585
vn 0.961848 0.000001 0.273585
vn 0.961848 0.000001 0.273585
vn 0.175202 -0.983270 0.049834
vn 0.175202 -0.983271 0.049834
vn 0.175202 -0.983271 0.049834
vn 0.175202 -0.983270 0.049834
vn -0.273585 0.000000 0.961848
vn -0.273585 0.000000 0.961848
vn -0.273585 0.000000 0.961848
vn -0.273585 0.000000 0.961848
vn -0.159734 0.986114 -0.045435
vn -0.159734 0.986114 -0.045435
vn -0.159734 0.986114 -0.045435
vn -0.159734 0.986114 -0.045435
vn 0.273585 0.000003 -0.961848
vn 0.273585 0.000003 -0.961848
vn 0.273585 0.000003 -0.961848
vn 0.273585 0.000003 -0.961848
vn -0.049835 -0.983270 0.175202
vn -0.049835 -0.983270 0.175202
vn -0.049835 -0.983270 0.175202
vn -0.049835 -0.983270 0.175202
vn 0.961848 0.000000 0.273585
vn 0.961848 0.000000 0.273585
vn 0.961848 0.000000 0.273585
vn 0.961848 0.000000 0.273585
vn 0.045435 0.986114 -0.159733
vn 0.045435 0.986114 -0.159733
vn 0.045435 0.986114 -0.159733
vn 0.045435 0.986114 -0.159733
vn -0.961848 0.000000 -0.273585
vn -0.961848 0.000000 -0.273585
vn -0.961848 0.000000 -0.273585
vn -0.961848 0.000000 -0.273585
vn -0.273584 0.000000 0.961848
vn -0.273584 0.000000 0.961848
vn -0.273584 0.000000 0.961848
vn -0.273584 0.000000 0.961848
vn -0.307022 0.947687 -0.087328
vn -0.307022 0.947687 -0.087328
vn -0.307022 0.947687 -0.087328
vn -0.307022 0.947687 -0.087328
vn 0.273585 0.000000 -0.961848
vn 0.273585 0.000000 -0.961848
vn 0.273585 0.000000 -0.961848
vn 0.273585 0.000000 -0.961848
vn 0.320701 -0.942778 0.091219
vn 0.320701 -0.942778 0.091219
vn 0.320701 -0.942778 0.091219
vn 0.320701 -0.942778 0.091219
s off
g Win1:table Win1:Win
usemtl lambert29SG
f 1/1/1 2/2/2 10/3/3 9/4/4
f 2/5/5 3/6/6 11/7/7 10/3/8
f 3/8/9 4/9/10 12/10/11 11/7/12
f 4/11/13 5/12/14 13/13/15 12/10/16
f 5/14/17 6/15/18 14/16/19 13/13/20
f 6/17/21 7/18/22 15/19/23 14/16/24
f 7/20/25 8/21/26 16/22/27 15/19/28
f 8/23/29 1/24/30 9/4/31 16/22/32
f 9/4/33 10/3/34 17/25/35
f 10/3/36 11/7/37 17/25/38
f 11/7/39 12/10/40 17/25/41
f 12/10/42 13/13/43 17/25/44
f 13/13/45 14/16/46 17/25/47
f 14/16/48 15/19/49 17/25/50
f 15/19/51 16/22/52 17/25/53
f 16/22/54 9/4/55 17/25/56
f 19/26/57 18/27/58 48/28/59 49/29/60
f 18/27/61 20/30/62 50/31/63 48/28/64
f 20/32/65 19/26/66 49/29/67 50/33/68
f 22/34/69 21/35/70 51/36/71 52/37/72
f 21/35/73 23/38/74 53/39/75 51/36/76
f 23/40/77 22/34/78 52/37/79 53/41/80
f 25/42/81 24/43/82 42/44/83 43/45/84
f 24/43/85 26/46/86 44/47/87 42/44/88
f 26/48/89 25/42/90 43/45/91 44/49/92
f 28/50/93 27/51/94 45/52/95 46/53/96
f 27/51/97 29/54/98 47/55/99 45/52/100
f 29/56/101 28/50/102 46/53/103 47/57/104
f 43/58/105 42/59/106 54/60/107 55/61/108
f 46/62/109 45/63/110 63/64/111 64/65/112
f 49/66/113 48/67/114 60/68/115 61/69/116
f 52/70/117 51/71/118 57/72/119 58/73/120
f 55/74/121 54/75/122 36/76/123 37/77/124
f 56/78/125 55/74/126 37/77/127 38/79/128
f 54/75/129 56/80/130 38/81/131 36/76/132
f 58/82/133 57/83/134 33/84/135 34/85/136
f 59/86/137 58/82/138 34/85/139 35/87/140
f 57/83/141 59/88/142 35/89/143 33/84/144
f 61/90/145 60/91/146 30/92/147 31/93/148
f 62/94/149 61/90/150 31/93/151 32/95/152
f 60/91/153 62/96/154 32/97/155 30/92/156
f 64/98/157 63/99/158 39/100/159 40/101/160
f 65/102/161 64/98/162 40/101/163 41/103/164
f 63/99/165 65/104/166 41/105/167 39/100/168
f 55/61/169 56/106/170 65/107/171 63/64/172
f 56/106/173 44/108/174 47/109/175 65/107/176
f 44/110/177 43/58/178 45/63/179 47/111/180
f 43/58/181 55/61/182 63/64/183 45/63/184
f 64/65/185 65/107/186 62/112/187 60/68/188
f 65/107/189 47/109/190 50/113/191 62/112/192
f 47/114/193 46/62/194 48/67/195 50/115/196
f 46/62/197 64/65/198 60/68/199 48/67/200
f 61/69/201 62/112/202 59/116/203 57/72/204
f 62/112/205 50/113/206 53/117/207 59/116/208
f 50/118/209 49/66/210 51/71/211 53/119/212
f 49/66/213 61/69/214 57/72/215 51/71/216
f 54/60/217 42/59/218 52/70/219 58/73/220
f 42/59/221 44/120/222 53/121/223 52/70/224
f 44/108/225 56/106/226 59/116/227 53/117/228
f 56/106/229 54/60/230 58/73/231 59/116/232
