# This file uses centimeters as units for non-parametric coordinates.

mtllib bottle.mtl
g default
v 0.687153 -4.603107 -4.060618
v -2.910820 -4.603107 -2.891567
v -2.910820 -4.603107 0.891567
v 0.687153 -4.603107 2.060618
v 2.910822 -4.603107 -1.000000
v 0.964457 1.511601 -5.295746
v -4.085495 1.511601 -3.654917
v -4.085496 1.511601 1.654917
v 0.964457 1.511601 3.295746
v 4.085497 1.511601 -1.000000
v -0.307302 -4.603107 -1.000000
v 0.233055 3.481183 -2.038039
v -0.987232 3.481183 -1.641542
v -0.987232 3.481183 -0.358458
v 0.233055 3.481183 0.038038
v 0.987234 3.481183 -1.000000
v 0.324106 4.603106 -2.443584
v -1.372929 4.603106 -1.892183
v -0.144943 4.603106 -1.000000
v -1.372929 4.603106 -0.107817
v 0.324106 4.603106 0.443584
v 1.372931 4.603106 -1.000000
vt 0.765148 0.054921
vt 0.935072 0.057887
vt 0.969788 0.337549
vt 0.731290 0.333387
vt 0.404517 0.305849
vt 0.574467 0.305849
vt 0.608759 0.585563
vt 0.370225 0.585563
vt 0.046716 0.057887
vt 0.216640 0.054921
vt 0.250498 0.333387
vt 0.012000 0.337549
vt 0.381081 0.012000
vt 0.481300 0.273145
vt 0.600707 0.012000
vt 0.500488 0.273145
vt 0.287613 0.799717
vt 0.125981 0.747199
vt 0.242939 0.662224
vt 0.387507 0.662224
vt 0.287613 0.524732
vt 0.125981 0.577249
vt 0.584241 0.704559
vt 0.660477 0.729330
vt 0.605312 0.769410
vt 0.660477 0.809489
vt 0.584241 0.834260
vt 0.537125 0.769410
vt 0.862652 0.492156
vt 0.805021 0.491150
vt 0.518312 0.750490
vt 0.460672 0.750490
vt 0.176767 0.491150
vt 0.119136 0.492156
vt 0.573761 0.668397
vt 0.780881 0.550075
vt 0.780881 0.715001
vt 0.730832 0.743593
vt 0.988000 0.668397
vt 0.830930 0.743593
vt 0.874726 0.545273
vt 0.794579 0.543874
vt 0.529571 0.803786
vt 0.449412 0.803786
vt 0.187209 0.543874
vt 0.107062 0.545273
vt 0.229231 0.467276
vt 0.260169 0.510672
vt 0.752557 0.467275
vt 0.721619 0.510672
vn -0.304230 -0.175334 -0.936324
vn -0.304230 -0.175334 -0.936324
vn -0.304230 -0.175334 -0.936324
vn -0.304230 -0.175334 -0.936324
vn -0.982043 -0.188657 0.000000
vn -0.982043 -0.188657 0.000000
vn -0.982043 -0.188657 0.000000
vn -0.982043 -0.188657 0.000000
vn -0.304230 -0.175334 0.936324
vn -0.304230 -0.175334 0.936324
vn -0.304230 -0.175334 0.936324
vn -0.304230 -0.175334 0.936324
vn 0.799420 -0.153574 0.580812
vn 0.799420 -0.153574 0.580812
vn 0.799420 -0.153574 0.580812
vn 0.799420 -0.153574 0.580813
vn 0.799420 -0.153574 -0.580812
vn 0.799420 -0.153574 -0.580812
vn 0.799420 -0.153574 -0.580812
vn 0.799420 -0.153574 -0.580812
vn 0.000000 -1.000000 0.000000
vn 0.000000 -1.000000 0.000000
vn 0.000000 -1.000000 0.000000
vn 0.000000 -1.000000 0.000000
vn 0.000000 -1.000000 0.000000
vn 0.000000 -1.000000 0.000000
vn 0.000000 -1.000000 0.000000
vn 0.000000 -1.000000 0.000000
vn 0.000000 -1.000000 0.000000
vn 0.000000 -1.000000 0.000000
vn 0.000000 -1.000000 0.000000
vn 0.000000 -1.000000 0.000000
vn 0.000000 -1.000000 0.000000
vn 0.000000 -1.000000 0.000000
vn 0.000000 -1.000000 0.000000
vn 0.000000 1.000000 0.000000
vn 0.000000 1.000000 0.000000
vn 0.000000 1.000000 0.000000
vn 0.000000 1.000000 0.000000
vn 0.000000 1.000000 0.000000
vn 0.000000 1.000000 0.000000
vn 0.000000 1.000000 0.000000
vn 0.000000 1.000000 0.000000
vn 0.000000 1.000000 0.000000
vn 0.000000 1.000000 0.000000
vn 0.000000 1.000000 0.000000
vn 0.000000 1.000000 0.000000
vn 0.000000 1.000000 0.000000
vn 0.000000 1.000000 0.000000
vn 0.000000 1.000000 0.000000
vn -0.174760 0.824724 -0.537857
vn -0.174760 0.824723 -0.537857
vn -0.174760 0.824724 -0.537857
vn -0.174760 0.824723 -0.537857
vn -0.536480 0.843913 0.000000
vn -0.536480 0.843913 0.000000
vn -0.536480 0.843913 0.000000
vn -0.536480 0.843913 0.000000
vn -0.174760 0.824724 0.537857
vn -0.174760 0.824724 0.537857
vn -0.174760 0.824724 0.537857
vn -0.174760 0.824724 0.537857
vn 0.499852 0.786295 0.363164
vn 0.499852 0.786295 0.363164
vn 0.499852 0.786295 0.363164
vn 0.499852 0.786295 0.363164
vn 0.499852 0.786295 -0.363163
vn 0.499852 0.786295 -0.363163
vn 0.499852 0.786295 -0.363163
vn 0.499852 0.786295 -0.363163
vn -0.294427 -0.303654 -0.906150
vn -0.294427 -0.303654 -0.906150
vn -0.294427 -0.303654 -0.906150
vn -0.294427 -0.303654 -0.906150
vn -0.945678 -0.325106 0.000000
vn -0.945678 -0.325106 0.000000
vn -0.945678 -0.325106 0.000000
vn -0.945678 -0.325106 0.000000
vn -0.294427 -0.303654 0.906150
vn -0.294427 -0.303655 0.906149
vn -0.294427 -0.303654 0.906150
vn -0.294427 -0.303654 0.906150
vn 0.779433 -0.267954 0.566290
vn 0.779433 -0.267955 0.566290
vn 0.779433 -0.267954 0.566290
vn 0.779433 -0.267954 0.566290
vn 0.779433 -0.267955 -0.566290
vn 0.779433 -0.267954 -0.566290
vn 0.779433 -0.267955 -0.566290
vn 0.779433 -0.267954 -0.566290
s off
g bottle:pCylinder23
usemtl blinn1SG
f 1/1/1 2/2/2 7/3/3 6/4/4
f 2/5/5 3/6/6 8/7/7 7/8/8
f 3/9/9 4/10/10 9/11/11 8/12/12
f 4/10/13 5/13/14 10/14/15 9/11/16
f 5/15/17 1/1/18 6/4/19 10/16/20
f 2/17/21 1/18/22 11/19/23
f 3/20/24 2/17/25 11/19/26
f 4/21/27 3/20/28 11/19/29
f 5/22/30 4/21/31 11/19/32
f 1/18/33 5/22/34 11/19/35
f 17/23/36 18/24/37 19/25/38
f 18/24/39 20/26/40 19/25/41
f 20/26/42 21/27/43 19/25/44
f 21/27/45 22/28/46 19/25/47
f 22/28/48 17/23/49 19/25/50
f 6/4/51 7/3/52 13/29/53 12/30/54
f 7/8/55 8/7/56 14/31/57 13/32/58
f 8/12/59 9/11/60 15/33/61 14/34/62
f 9/35/63 10/36/64 16/37/65 15/38/66
f 10/36/67 6/39/68 12/40/69 16/37/70
f 12/30/71 13/29/72 18/41/73 17/42/74
f 13/32/75 14/31/76 20/43/77 18/44/78
f 14/34/79 15/33/80 21/45/81 20/46/82
f 15/33/83 16/47/84 22/48/85 21/45/86
f 16/49/87 12/30/88 17/42/89 22/50/90
