# This file uses centimeters as units for non-parametric coordinates.

mtllib item4.mtl
g default
v -1.565646 -1.565647 0.565643
v 1.565646 -1.565647 0.565643
v -1.565646 1.565645 0.565643
v 1.565646 1.565645 0.565643
v -1.565646 1.565645 -2.565651
v 1.565646 1.565645 -2.565651
v -1.565646 -1.565647 -2.565651
v 1.565646 -1.565647 -2.565651
vt 0.468466 0.956466
vt 0.240233 0.924932
vt 0.271767 0.696699
vt 0.500000 0.728233
vt 0.303301 0.468466
vt 0.531534 0.500000
vt 0.334835 0.240233
vt 0.563068 0.271767
vt 0.366370 0.012000
vt 0.594602 0.043534
vt 0.012000 0.893398
vt 0.043534 0.665165
vt 0.696699 0.988000
vt 0.728233 0.759767
vn 0.000000 0.000000 1.000000
vn 0.000000 0.000000 1.000000
vn 0.000000 0.000000 1.000000
vn 0.000000 0.000000 1.000000
vn 0.000000 1.000000 0.000000
vn 0.000000 1.000000 0.000000
vn 0.000000 1.000000 0.000000
vn 0.000000 1.000000 0.000000
vn 0.000000 0.000000 -1.000000
vn 0.000000 0.000000 -1.000000
vn 0.000000 0.000000 -1.000000
vn 0.000000 0.000000 -1.000000
vn 0.000000 -1.000000 0.000000
vn 0.000000 -1.000000 0.000000
vn 0.000000 -1.000000 0.000000
vn 0.000000 -1.000000 0.000000
vn 1.000000 0.000000 0.000000
vn 1.000000 0.000000 0.000000
vn 1.000000 0.000000 0.000000
vn 1.000000 0.000000 0.000000
vn -1.000000 0.000000 0.000000
vn -1.000000 0.000000 0.000000
vn -1.000000 0.000000 0.000000
vn -1.000000 0.000000 0.000000
s off
g item4:pasted__pCube81group15
usemtl lambert2SG
f 1/1/1 2/2/2 4/3/3 3/4/4
f 3/4/5 4/3/6 6/5/7 5/6/8
f 5/6/9 6/5/10 8/7/11 7/8/12
f 7/8/13 8/7/14 2/9/15 1/10/16
f 2/2/17 8/11/18 6/12/19 4/3/20
f 7/13/21 1/1/22 3/4/23 5/14/24
