# This file uses centimeters as units for non-parametric coordinates.

mtllib LolipopRing.mtl
g default
v 2.310251 0.750646 0.148674
v 1.965217 1.427814 0.148674
v 1.427814 1.965217 0.148674
v 0.000000 2.429142 0.148674
v -1.427813 1.965216 0.148674
v -1.965216 1.427813 0.148674
v -2.310250 0.750646 0.148674
v -2.429141 0.000000 0.148674
v -2.310250 -0.750646 0.148674
v -1.965216 -1.427812 0.148674
v -1.427812 -1.965216 0.148674
v -0.750646 -2.310250 0.148674
v 0.750645 -2.310250 0.148674
v 1.427812 -1.965216 0.148674
v 1.965216 -1.427812 0.148674
v 2.310250 -0.750645 0.148674
v 2.429140 0.000000 0.148674
v 2.476474 0.804655 0.389233
v 2.106613 1.530545 0.389233
v 1.530545 2.106613 0.389233
v 0.000000 2.603918 0.389233
v -1.530545 2.106613 0.389233
v -2.106613 1.530544 0.389233
v -2.476473 0.804655 0.389233
v -2.603918 0.000000 0.389233
v -2.476473 -0.804655 0.389233
v -2.106613 -1.530544 0.389233
v -1.530544 -2.106613 0.389233
v -0.804079 -2.474700 0.387371
v 0.804655 -2.476472 0.389233
v 1.530543 -2.106613 0.389233
v 2.106613 -1.530543 0.389233
v 2.476472 -0.804655 0.389233
v 2.603917 0.000000 0.389233
v 2.745426 0.892043 0.481119
v 2.335399 1.696767 0.481119
v 1.696767 2.335399 0.481119
v 0.000000 2.886711 0.481119
v -1.696767 2.335398 0.481119
v -2.335398 1.696767 0.481119
v -2.745426 0.892043 0.481119
v -2.886711 0.000000 0.481119
v -2.745426 -0.892043 0.481119
v -2.335398 -1.696767 0.481119
v -1.696767 -2.335397 0.481119
v -0.892043 -2.745426 0.481119
v 0.892043 -2.745426 0.481119
v 1.696766 -2.335397 0.481119
v 2.335397 -1.696766 0.481119
v 2.745426 -0.892043 0.481119
v 2.886710 0.000000 0.481119
v 0.000000 3.035387 0.457571
v 3.014380 0.979432 0.389233
v 2.564186 1.862989 0.389233
v 1.862989 2.564185 0.389233
v 0.979432 3.014379 0.389233
v -0.979432 3.014379 0.389233
v -1.862989 2.564185 0.389233
v -2.564185 1.862989 0.389233
v -3.014379 0.979431 0.389233
v -3.169506 0.000000 0.389233
v -3.014379 -0.979431 0.389233
v -2.564184 -1.862989 0.389233
v -1.862989 -2.564184 0.389233
v -0.979431 -3.014379 0.389233
v 0.979430 -3.014379 0.389233
v 1.862988 -2.564184 0.389233
v 2.564183 -1.862989 0.389233
v 3.014379 -0.979431 0.389233
v 3.169504 0.000000 0.389233
v 3.180602 1.033441 0.148674
v 2.705583 1.965720 0.148674
v 1.965720 2.705582 0.148674
v 1.033441 3.180602 0.148674
v -1.033441 3.180602 0.148674
v -1.965720 2.705581 0.148674
v -2.705581 1.965720 0.148674
v -3.180601 1.033440 0.148674
v -3.344283 0.000000 0.148674
v -3.180601 -1.033440 0.148674
v -2.705581 -1.965720 0.148674
v -1.965720 -2.705580 0.148674
v -1.033440 -3.180601 0.148674
v 1.033440 -3.180601 0.148674
v 1.965720 -2.705580 0.148674
v 2.705580 -1.965720 0.148674
v 3.180601 -1.033440 0.148674
v 3.344282 0.000000 0.148674
v 3.180602 1.033441 -0.148674
v 2.705583 1.965720 -0.148674
v 1.965720 2.705582 -0.148674
v 1.033441 3.180602 -0.148674
v -1.033441 3.180602 -0.148674
v -1.965720 2.705581 -0.148674
v -2.705581 1.965720 -0.148674
v -3.180601 1.033440 -0.148674
v -3.344283 0.000000 -0.148674
v -3.180601 -1.033440 -0.148674
v -2.705581 -1.965720 -0.148674
v -1.965720 -2.705580 -0.148674
v -1.033440 -3.180601 -0.148674
v 1.033440 -3.180601 -0.148674
v 1.965720 -2.705580 -0.148674
v 2.705580 -1.965720 -0.148674
v 3.180601 -1.033440 -0.148674
v 3.344282 0.000000 -0.148674
v 3.014380 0.979432 -0.389233
v 2.564186 1.862989 -0.389233
v 1.862989 2.564186 -0.389233
v 0.979432 3.014380 -0.389233
v -0.979432 3.014379 -0.389233
v -1.862989 2.564185 -0.389233
v -2.564185 1.862989 -0.389233
v -3.014379 0.979431 -0.389233
v -3.169507 0.000000 -0.389233
v -3.014379 -0.979431 -0.389233
v -2.564185 -1.862989 -0.389233
v -1.862989 -2.564184 -0.389233
v -0.979431 -3.014379 -0.389233
v 0.979430 -3.014379 -0.389233
v 1.862989 -2.564184 -0.389233
v 2.564184 -1.862989 -0.389233
v 3.014379 -0.979431 -0.389233
v 3.169506 0.000000 -0.389233
v 0.000000 3.035387 -0.457571
v 2.745426 0.892043 -0.481119
v 2.335399 1.696767 -0.481119
v 1.696767 2.335399 -0.481119
v 0.000000 2.886711 -0.481119
v -1.696767 2.335398 -0.481119
v -2.335398 1.696767 -0.481119
v -2.745426 0.892043 -0.481119
v -2.886711 0.000000 -0.481119
v -2.745426 -0.892043 -0.481119
v -2.335398 -1.696767 -0.481119
v -1.696767 -2.335397 -0.481119
v -0.892043 -2.745426 -0.481119
v 0.892043 -2.745426 -0.481119
v 1.696766 -2.335397 -0.481119
v 2.335397 -1.696766 -0.481119
v 2.745426 -0.892043 -0.481119
v 2.886710 0.000000 -0.481119
v 2.476474 0.804655 -0.389233
v 2.106613 1.530545 -0.389233
v 1.530545 2.106613 -0.389233
v 0.000000 2.603918 -0.389233
v -1.530544 2.106613 -0.389233
v -2.106613 1.530544 -0.389233
v -2.476473 0.804655 -0.389233
v -2.603917 0.000000 -0.389233
v -2.476473 -0.804655 -0.389233
v -2.106613 -1.530543 -0.389233
v -1.530543 -2.106613 -0.389233
v -0.804655 -2.476472 -0.389233
v 0.804654 -2.476472 -0.389233
v 1.530543 -2.106613 -0.389233
v 2.106613 -1.530543 -0.389233
v 2.476472 -0.804655 -0.389233
v 2.603917 0.000000 -0.389233
v 2.310251 0.750646 -0.148674
v 1.965217 1.427813 -0.148674
v 1.427813 1.965216 -0.148674
v 0.000000 2.429141 -0.148674
v -1.427813 1.965216 -0.148674
v -1.965216 1.427813 -0.148674
v -2.310250 0.750645 -0.148674
v -2.429141 0.000000 -0.148674
v -2.310250 -0.750645 -0.148674
v -1.965216 -1.427812 -0.148674
v -1.427812 -1.965216 -0.148674
v -0.750645 -2.310250 -0.148674
v 0.750645 -2.310250 -0.148674
v 1.427812 -1.965216 -0.148674
v 1.965216 -1.427812 -0.148674
v 2.310249 -0.750645 -0.148674
v 2.429140 0.000000 -0.148674
v -0.891451 -2.743604 -0.001350
v 0.892042 -2.745426 0.000000
v 0.000000 3.296564 0.457571
v -0.000001 3.296564 -0.457571
v 0.979432 3.296563 0.389233
v -0.979431 3.296564 0.389233
v 1.033440 3.296565 0.148674
v -1.033441 3.296565 0.148674
v 1.033440 3.296565 -0.148674
v -1.033441 3.296565 -0.148674
v 0.979432 3.296563 -0.389233
v -0.979432 3.296564 -0.389233
v -0.782004 3.296563 2.365713
v 0.415799 3.296563 -2.381231
v 0.945538 3.296563 2.365712
v -2.250759 3.296563 1.365857
v 2.079528 3.296565 1.536135
v -2.603034 3.296566 0.093659
v 2.671800 3.296569 0.060438
v -2.302725 3.296566 -1.229086
v 1.840498 3.296562 -1.835120
v -1.180415 3.296563 -2.309483
v -0.782004 3.741628 2.365713
v 0.415799 3.741628 -2.381231
v 0.945538 3.741628 2.365713
v -2.250759 3.741628 1.365858
v 2.079528 3.741630 1.536139
v -2.603033 3.741631 0.093661
v 2.671799 3.741634 0.060436
v -2.302725 3.741631 -1.229086
v 1.840497 3.741627 -1.835123
v -1.180413 3.741629 -2.309485
v -0.382776 3.741629 1.147817
v 0.292902 3.741629 -0.978352
v 0.323850 3.741629 1.147817
v -0.954443 3.741629 0.732476
v 0.895518 3.741629 0.732476
v -1.172806 3.741629 0.060437
v 1.113881 3.741629 0.060437
v -0.954444 3.741629 -0.611602
v 0.895518 3.741629 -0.611602
v -0.382776 3.741629 -1.026943
v 1.427237 8.179480 -0.997917
v 0.526947 8.179480 -1.652015
v -0.585872 8.179480 -1.652015
v -1.486161 8.179480 -0.997917
v -1.830041 8.179480 0.060437
v -1.486161 8.179480 1.118791
v -0.585872 8.179480 1.772889
v 0.526947 8.179480 1.772889
v 1.427236 8.179480 1.118791
v 1.771116 8.179480 0.060437
v -0.029462 8.179480 0.060437
v 2.832519 6.622312 -2.018914
v 3.508148 6.622312 0.060437
v 2.832519 6.622312 2.139787
v 1.063718 6.622312 3.424897
v -1.122643 6.622312 3.424897
v -2.891444 6.622312 2.139788
v -3.567073 6.622312 0.060437
v -2.891444 6.622312 -2.018913
v -1.122643 6.622312 -3.304023
v 1.063718 6.622312 -3.304024
vt 0.616313 0.250364
vt 0.639888 0.221263
vt 0.651648 0.229257
vt 0.626188 0.260462
vt 0.588114 0.273837
vt 0.595118 0.286216
vt 0.521061 0.309323
vt 0.521095 0.294768
vt 0.447253 0.285943
vt 0.454243 0.273562
vt 0.425806 0.250099
vt 0.415965 0.260262
vt 0.402082 0.221170
vt 0.390325 0.229152
vt 0.384220 0.188233
vt 0.371103 0.193758
vt 0.373232 0.152389
vt 0.359242 0.155276
vt 0.369504 0.114797
vt 0.355101 0.115259
vt 0.372906 0.076177
vt 0.358373 0.075205
vt 0.377432 0.034682
vt 0.365214 0.036412
vt 0.668495 0.076407
vt 0.664140 0.034864
vt 0.676466 0.036665
vt 0.683102 0.075469
vt 0.672508 0.114982
vt 0.686837 0.115387
vt 0.668762 0.152491
vt 0.682715 0.155422
vt 0.657841 0.188330
vt 0.670979 0.193930
vt 0.663473 0.237249
vt 0.636065 0.270484
vt 0.602581 0.298203
vt 0.521021 0.323768
vt 0.439703 0.297945
vt 0.406079 0.270283
vt 0.378571 0.237049
vt 0.358120 0.199230
vt 0.345276 0.158244
vt 0.340519 0.115579
vt 0.343869 0.073351
vt 0.353790 0.034909
vt 0.687819 0.035186
vt 0.697743 0.073570
vt 0.701296 0.115759
vt 0.696656 0.158380
vt 0.683989 0.199440
vt 0.675313 0.245199
vt 0.646018 0.280428
vt 0.610305 0.309528
vt 0.521012 0.330708
vt 0.568457 0.332169
vt 0.473543 0.332037
vt 0.431896 0.309327
vt 0.396234 0.280141
vt 0.366856 0.244994
vt 0.344936 0.204799
vt 0.331298 0.161113
vt 0.326207 0.115808
vt 0.329448 0.070889
vt 0.343128 0.030012
vt 0.698458 0.030148
vt 0.712134 0.071070
vt 0.715637 0.115917
vt 0.710719 0.161255
vt 0.697012 0.204913
vt 0.687112 0.253108
vt 0.656089 0.290356
vt 0.618317 0.320771
vt 0.576313 0.345493
vt 0.466008 0.345448
vt 0.423637 0.320532
vt 0.386195 0.290072
vt 0.355080 0.252946
vt 0.331832 0.210343
vt 0.317303 0.164009
vt 0.311842 0.115762
vt 0.315423 0.067372
vt 0.332984 0.023176
vt 0.708566 0.023105
vt 0.726071 0.067405
vt 0.730009 0.115789
vt 0.724710 0.164074
vt 0.710174 0.210417
vt 0.698923 0.260974
vt 0.666213 0.300290
vt 0.626886 0.332105
vt 0.585414 0.356804
vt 0.456555 0.356745
vt 0.415268 0.331662
vt 0.376133 0.300015
vt 0.343345 0.260906
vt 0.318770 0.215902
vt 0.303395 0.166905
vt 0.297629 0.115787
vt 0.301856 0.063701
vt 0.323674 0.013383
vt 0.717088 0.013745
vt 0.739890 0.063334
vt 0.744294 0.115608
vt 0.738651 0.166847
vt 0.723294 0.215862
vt 0.384052 0.536775
vt 0.348087 0.504616
vt 0.358634 0.495094
vt 0.392698 0.525480
vt 0.424712 0.561680
vt 0.431476 0.549178
vt 0.467784 0.579944
vt 0.474449 0.567239
vt 0.617594 0.562020
vt 0.574497 0.580158
vt 0.567870 0.567436
vt 0.610873 0.549496
vt 0.658509 0.537262
vt 0.649907 0.525947
vt 0.694334 0.504846
vt 0.683775 0.495311
vt 0.723371 0.466005
vt 0.711190 0.458678
vt 0.744438 0.422248
vt 0.731026 0.417414
vt 0.756955 0.375147
vt 0.742863 0.373165
vt 0.760428 0.325641
vt 0.746406 0.327542
vt 0.745740 0.274643
vt 0.735509 0.283837
vt 0.281307 0.325709
vt 0.295964 0.274604
vt 0.306159 0.283850
vt 0.295315 0.327565
vt 0.284919 0.375213
vt 0.299018 0.373273
vt 0.297696 0.422301
vt 0.311092 0.417459
vt 0.319083 0.465867
vt 0.331281 0.458511
vt 0.369213 0.485533
vt 0.401174 0.514313
vt 0.438015 0.536689
vt 0.604468 0.537089
vt 0.521135 0.563498
vt 0.521145 0.556383
vt 0.641399 0.514668
vt 0.673274 0.485777
vt 0.698936 0.451304
vt 0.717610 0.412617
vt 0.728617 0.371187
vt 0.731811 0.328912
vt 0.725157 0.290200
vt 0.316478 0.290252
vt 0.309922 0.328931
vt 0.313237 0.371198
vt 0.324573 0.412566
vt 0.343353 0.451203
vt 0.379762 0.475950
vt 0.409579 0.503109
vt 0.444466 0.524108
vt 0.521261 0.542150
vt 0.598111 0.524446
vt 0.632840 0.503317
vt 0.662743 0.476284
vt 0.686879 0.444023
vt 0.704186 0.407684
vt 0.714163 0.368946
vt 0.717132 0.329575
vt 0.714089 0.292836
vt 0.327541 0.292854
vt 0.324616 0.329579
vt 0.327661 0.368872
vt 0.337959 0.407584
vt 0.355413 0.443851
vt 0.390199 0.466367
vt 0.417963 0.491697
vt 0.450354 0.511151
vt 0.521292 0.527740
vt 0.592242 0.511410
vt 0.624460 0.491981
vt 0.652255 0.466711
vt 0.674682 0.436641
vt 0.690752 0.402749
vt 0.699867 0.366304
vt 0.702271 0.328882
vt 0.702664 0.291882
vt 0.338949 0.291852
vt 0.339417 0.328803
vt 0.341984 0.366247
vt 0.351361 0.402558
vt 0.367586 0.436383
vt 0.426199 0.480246
vt 0.400590 0.456772
vt 0.455386 0.497609
vt 0.521350 0.513568
vt 0.587326 0.498447
vt 0.616007 0.480335
vt 0.641837 0.457108
vt 0.662789 0.429433
vt 0.677386 0.397882
vt 0.685723 0.363680
vt 0.688133 0.327127
vt 0.690332 0.286820
vt 0.353447 0.327015
vt 0.351253 0.286756
vt 0.355956 0.363489
vt 0.364639 0.397528
vt 0.379661 0.428940
vt 0.685424 0.012339
vt 0.356034 0.012000
vt 0.715171 0.269873
vt 0.326419 0.269809
vt 0.520998 0.343228
vt 0.565133 0.345252
vt 0.521124 0.576114
vt 0.564307 0.580530
vt 0.476976 0.345095
vt 0.573035 0.350161
vt 0.469232 0.350020
vt 0.581712 0.360450
vt 0.460364 0.360563
vt 0.469342 0.585025
vt 0.477975 0.580347
vt 0.572931 0.585233
vt 0.767765 0.779271
vt 0.855515 0.840979
vt 0.843938 0.880127
vt 0.746473 0.858312
vt 0.971121 0.892206
vt 0.878533 0.847225
vt 0.889877 0.807954
vt 0.988000 0.818490
vt 0.832298 0.724137
vt 0.865076 0.801295
vt 0.851656 0.883656
vt 0.771726 0.920848
vt 0.894713 0.723451
vt 0.873177 0.802105
vt 0.861048 0.886171
vt 0.831494 0.966042
vt 0.950931 0.753161
vt 0.882547 0.804579
vt 0.869163 0.886882
vt 0.928490 0.950697
vt 0.273512 0.203795
vt 0.229526 0.189117
vt 0.231670 0.124807
vt 0.278087 0.112189
vt 0.012000 0.131924
vt 0.057512 0.141400
vt 0.059511 0.201073
vt 0.014906 0.218602
vt 0.221300 0.281681
vt 0.192300 0.243356
vt 0.202729 0.082221
vt 0.233598 0.042397
vt 0.147040 0.304198
vt 0.145829 0.255763
vt 0.150060 0.059935
vt 0.147539 0.012000
vt 0.070854 0.286063
vt 0.097547 0.243488
vt 0.080557 0.090094
vt 0.048091 0.055239
vt 0.149867 0.766836
vt 0.182396 0.700055
vt 0.240878 0.754798
vt 0.167303 0.783438
vt 0.115800 0.834815
vt 0.067616 0.900089
vt 0.014423 0.845733
vt 0.097754 0.820511
vt 0.125934 0.763466
vt 0.100530 0.684258
vt 0.171642 0.807030
vt 0.253355 0.820352
vt 0.104507 0.774849
vt 0.046046 0.716029
vt 0.161165 0.829114
vt 0.225739 0.891486
vt 0.093717 0.796641
vt 0.012000 0.770988
vt 0.139454 0.840899
vt 0.133736 0.929307
vt 0.645292 0.558003
vt 0.680758 0.562863
vt 0.678491 0.736087
vt 0.579177 0.736550
vt 0.714882 0.558489
vt 0.779512 0.737703
vt 0.778118 0.349359
vt 0.813451 0.355349
vt 0.814857 0.526898
vt 0.713830 0.528595
vt 0.848662 0.348922
vt 0.914197 0.527584
vt 0.175451 0.307936
vt 0.210662 0.314385
vt 0.209270 0.485918
vt 0.109930 0.486599
vt 0.245994 0.308367
vt 0.310304 0.487605
vt 0.297758 0.535448
vt 0.331542 0.540099
vt 0.332704 0.712815
vt 0.232342 0.712092
vt 0.366692 0.533764
vt 0.432090 0.712613
vt 0.846791 0.012000
vt 0.880759 0.016540
vt 0.880759 0.189231
vt 0.779117 0.190701
vt 0.914728 0.012000
vt 0.982402 0.190701
vt 0.625901 0.851050
vt 0.679770 0.838436
vt 0.680843 0.923264
vt 0.731714 0.848638
vt 0.761558 0.639473
vt 0.813511 0.629297
vt 0.812383 0.714115
vt 0.867349 0.641956
vt 0.156769 0.600968
vt 0.210610 0.588308
vt 0.211730 0.673131
vt 0.262549 0.598499
vt 0.278105 0.825982
vt 0.332218 0.814009
vt 0.331984 0.899109
vt 0.386194 0.826275
vt 0.828864 0.302933
vt 0.880759 0.292264
vt 0.880759 0.376830
vt 0.932655 0.302932
vn -0.765588 -0.556233 0.323233
vn -0.900003 -0.292428 0.323233
vn -0.528986 -0.171877 0.831043
vn -0.449982 -0.326931 0.831043
vn -0.427106 -0.843827 0.324862
vn -0.765588 -0.556233 0.323233
vn -0.449982 -0.326931 0.831043
vn -0.249519 -0.488025 0.836404
vn 0.000000 -0.536843 0.843682
vn 0.000000 -0.943510 0.331343
vn -0.427106 -0.843827 0.324862
vn -0.249519 -0.488025 0.836404
vn 0.249519 -0.488025 0.836404
vn 0.427107 -0.843827 0.324863
vn 0.000000 -0.943510 0.331343
vn 0.000000 -0.536843 0.843682
vn 0.765588 -0.556233 0.323234
vn 0.427107 -0.843827 0.324863
vn 0.249519 -0.488025 0.836404
vn 0.449981 -0.326931 0.831044
vn 0.900003 -0.292429 0.323234
vn 0.765588 -0.556233 0.323234
vn 0.449981 -0.326931 0.831044
vn 0.528985 -0.171878 0.831043
vn 0.946319 0.000000 0.323234
vn 0.900003 -0.292429 0.323234
vn 0.528985 -0.171878 0.831043
vn 0.556208 0.000000 0.831043
vn 0.900003 0.292429 0.323234
vn 0.946319 0.000000 0.323234
vn 0.556208 0.000000 0.831043
vn 0.528985 0.171878 0.831043
vn 0.765588 0.556233 0.323233
vn 0.900003 0.292429 0.323234
vn 0.528985 0.171878 0.831043
vn 0.449981 0.326931 0.831043
vn 0.556395 0.765689 0.322714
vn 0.765588 0.556233 0.323233
vn 0.449981 0.326931 0.831043
vn 0.326946 0.449731 0.831173
vn 0.430205 0.844638 0.318608
vn 0.556395 0.765689 0.322714
vn 0.326946 0.449731 0.831173
vn 0.255212 0.500252 0.827414
vn -0.556233 0.765588 0.323233
vn -0.430171 0.844256 0.319663
vn -0.254675 0.499826 0.827837
vn -0.326931 0.449982 0.831043
vn -0.765588 0.556233 0.323234
vn -0.556233 0.765588 0.323233
vn -0.326931 0.449982 0.831043
vn -0.449982 0.326931 0.831043
vn -0.900003 0.292429 0.323234
vn -0.765588 0.556233 0.323234
vn -0.449982 0.326931 0.831043
vn -0.528985 0.171878 0.831043
vn -0.946319 0.000001 0.323234
vn -0.900003 0.292429 0.323234
vn -0.528985 0.171878 0.831043
vn -0.556209 0.000000 0.831043
vn -0.900003 -0.292428 0.323233
vn -0.946319 0.000001 0.323234
vn -0.556209 0.000000 0.831043
vn -0.528986 -0.171877 0.831043
vn -0.449982 -0.326931 0.831043
vn -0.528986 -0.171877 0.831043
vn 0.044260 0.014381 0.998917
vn 0.037649 0.027354 0.998917
vn -0.249519 -0.488025 0.836404
vn -0.449982 -0.326931 0.831043
vn 0.037649 0.027354 0.998917
vn 0.024672 0.032652 0.999162
vn 0.000000 0.033122 0.999451
vn 0.000000 -0.536843 0.843682
vn -0.249519 -0.488025 0.836404
vn 0.024672 0.032652 0.999162
vn -0.024672 0.032652 0.999162
vn 0.249519 -0.488025 0.836404
vn 0.000000 -0.536843 0.843682
vn 0.000000 0.033122 0.999451
vn 0.449981 -0.326931 0.831044
vn 0.249519 -0.488025 0.836404
vn -0.024672 0.032652 0.999162
vn -0.037649 0.027354 0.998917
vn 0.528985 -0.171878 0.831043
vn 0.449981 -0.326931 0.831044
vn -0.037649 0.027354 0.998917
vn -0.044260 0.014381 0.998917
vn 0.556208 0.000000 0.831043
vn 0.528985 -0.171878 0.831043
vn -0.044260 0.014381 0.998917
vn -0.046537 0.000000 0.998917
vn 0.528985 0.171878 0.831043
vn 0.556208 0.000000 0.831043
vn -0.046537 0.000000 0.998917
vn -0.044260 -0.014381 0.998917
vn 0.449981 0.326931 0.831043
vn 0.528985 0.171878 0.831043
vn -0.044260 -0.014381 0.998917
vn -0.037649 -0.027354 0.998917
vn 0.326946 0.449731 0.831173
vn 0.449981 0.326931 0.831043
vn -0.037649 -0.027354 0.998917
vn -0.026879 -0.037072 0.998951
vn 0.255212 0.500252 0.827414
vn 0.326946 0.449731 0.831173
vn -0.026879 -0.037072 0.998951
vn -0.020438 -0.040802 0.998958
vn -0.326931 0.449982 0.831043
vn -0.254675 0.499826 0.827837
vn 0.021390 -0.041981 0.998889
vn 0.027354 -0.037649 0.998917
vn -0.449982 0.326931 0.831043
vn -0.326931 0.449982 0.831043
vn 0.027354 -0.037649 0.998917
vn 0.037649 -0.027354 0.998917
vn -0.528985 0.171878 0.831043
vn -0.449982 0.326931 0.831043
vn 0.037649 -0.027354 0.998917
vn 0.044260 -0.014381 0.998917
vn -0.556209 0.000000 0.831043
vn -0.528985 0.171878 0.831043
vn 0.044260 -0.014381 0.998917
vn 0.046537 0.000000 0.998917
vn -0.528986 -0.171877 0.831043
vn -0.556209 0.000000 0.831043
vn 0.046537 0.000000 0.998917
vn 0.044260 0.014381 0.998917
vn 0.037649 0.027354 0.998917
vn 0.044260 0.014381 0.998917
vn 0.587198 0.190791 0.786637
vn 0.499501 0.362909 0.786636
vn 0.024672 0.032652 0.999162
vn 0.037649 0.027354 0.998917
vn 0.499501 0.362909 0.786636
vn 0.299009 0.435861 0.848893
vn 0.000000 0.149369 0.988782
vn 0.000000 0.033122 0.999451
vn 0.024672 0.032652 0.999162
vn 0.299009 0.435861 0.848893
vn 0.158857 0.350519 0.922985
vn -0.163343 0.292070 0.942345
vn -0.299009 0.435861 0.848893
vn -0.024672 0.032652 0.999162
vn 0.000000 0.033122 0.999451
vn 0.000000 0.149369 0.988782
vn -0.037649 0.027354 0.998917
vn -0.024672 0.032652 0.999162
vn -0.299009 0.435861 0.848893
vn -0.499501 0.362909 0.786636
vn -0.044260 0.014381 0.998917
vn -0.037649 0.027354 0.998917
vn -0.499501 0.362909 0.786636
vn -0.587198 0.190792 0.786636
vn -0.046537 0.000000 0.998917
vn -0.044260 0.014381 0.998917
vn -0.587198 0.190792 0.786636
vn -0.617417 0.000000 0.786636
vn -0.044260 -0.014381 0.998917
vn -0.046537 0.000000 0.998917
vn -0.617417 0.000000 0.786636
vn -0.587198 -0.190792 0.786636
vn -0.037649 -0.027354 0.998917
vn -0.044260 -0.014381 0.998917
vn -0.587198 -0.190792 0.786636
vn -0.499501 -0.362909 0.786636
vn -0.026879 -0.037072 0.998951
vn -0.037649 -0.027354 0.998917
vn -0.499501 -0.362909 0.786636
vn -0.362909 -0.499501 0.786636
vn -0.020438 -0.040802 0.998958
vn -0.026879 -0.037072 0.998951
vn -0.362909 -0.499501 0.786636
vn -0.282448 -0.554336 0.782901
vn 0.027354 -0.037649 0.998917
vn 0.021390 -0.041981 0.998889
vn 0.282448 -0.554336 0.782902
vn 0.362908 -0.499501 0.786636
vn 0.037649 -0.027354 0.998917
vn 0.027354 -0.037649 0.998917
vn 0.362908 -0.499501 0.786636
vn 0.499501 -0.362909 0.786636
vn 0.044260 -0.014381 0.998917
vn 0.037649 -0.027354 0.998917
vn 0.499501 -0.362909 0.786636
vn 0.587199 -0.190792 0.786636
vn 0.046537 0.000000 0.998917
vn 0.044260 -0.014381 0.998917
vn 0.587199 -0.190792 0.786636
vn 0.617417 -0.000000 0.786636
vn 0.044260 0.014381 0.998917
vn 0.046537 0.000000 0.998917
vn 0.617417 -0.000000 0.786636
vn 0.587198 0.190791 0.786637
vn 0.499501 0.362909 0.786636
vn 0.587198 0.190791 0.786637
vn 0.908564 0.295209 0.295572
vn 0.772871 0.561524 0.295571
vn 0.299009 0.435861 0.848893
vn 0.499501 0.362909 0.786636
vn 0.772871 0.561524 0.295571
vn 0.561523 0.772871 0.295571
vn 0.158857 0.350519 0.922985
vn 0.299009 0.435861 0.848893
vn 0.561523 0.772871 0.295571
vn 0.434171 0.852108 0.292245
vn -0.299009 0.435861 0.848893
vn -0.163343 0.292070 0.942345
vn -0.434171 0.852108 0.292244
vn -0.561524 0.772871 0.295570
vn -0.499501 0.362909 0.786636
vn -0.299009 0.435861 0.848893
vn -0.561524 0.772871 0.295570
vn -0.772871 0.561524 0.295570
vn -0.587198 0.190792 0.786636
vn -0.499501 0.362909 0.786636
vn -0.772871 0.561524 0.295570
vn -0.908564 0.295211 0.295571
vn -0.617417 0.000000 0.786636
vn -0.587198 0.190792 0.786636
vn -0.908564 0.295211 0.295571
vn -0.955321 0.000000 0.295572
vn -0.587198 -0.190792 0.786636
vn -0.617417 0.000000 0.786636
vn -0.955321 0.000000 0.295572
vn -0.908564 -0.295211 0.295571
vn -0.499501 -0.362909 0.786636
vn -0.587198 -0.190792 0.786636
vn -0.908564 -0.295211 0.295571
vn -0.772871 -0.561524 0.295570
vn -0.362909 -0.499501 0.786636
vn -0.499501 -0.362909 0.786636
vn -0.772871 -0.561524 0.295570
vn -0.561524 -0.772871 0.295570
vn -0.282448 -0.554336 0.782901
vn -0.362909 -0.499501 0.786636
vn -0.561524 -0.772871 0.295570
vn -0.434171 -0.852109 0.292244
vn 0.362908 -0.499501 0.786636
vn 0.282448 -0.554336 0.782902
vn 0.434171 -0.852108 0.292245
vn 0.561524 -0.772871 0.295571
vn 0.499501 -0.362909 0.786636
vn 0.362908 -0.499501 0.786636
vn 0.561524 -0.772871 0.295571
vn 0.772871 -0.561523 0.295571
vn 0.587199 -0.190792 0.786636
vn 0.499501 -0.362909 0.786636
vn 0.772871 -0.561523 0.295571
vn 0.908564 -0.295211 0.295572
vn 0.617417 -0.000000 0.786636
vn 0.587199 -0.190792 0.786636
vn 0.908564 -0.295211 0.295572
vn 0.955320 -0.000001 0.295572
vn 0.587198 0.190791 0.786637
vn 0.617417 -0.000000 0.786636
vn 0.955320 -0.000001 0.295572
vn 0.908564 0.295209 0.295572
vn 0.772871 0.561524 0.295571
vn 0.908564 0.295209 0.295572
vn 0.908564 0.295210 -0.295571
vn 0.772871 0.561524 -0.295571
vn 0.561523 0.772871 0.295571
vn 0.772871 0.561524 0.295571
vn 0.772871 0.561524 -0.295571
vn 0.561523 0.772871 -0.295571
vn 0.434171 0.852108 0.292245
vn 0.561523 0.772871 0.295571
vn 0.561523 0.772871 -0.295571
vn 0.434171 0.852109 -0.292244
vn -0.561524 0.772871 0.295570
vn -0.434171 0.852108 0.292244
vn -0.434171 0.852108 -0.292244
vn -0.561524 0.772871 -0.295570
vn -0.772871 0.561524 0.295570
vn -0.561524 0.772871 0.295570
vn -0.561524 0.772871 -0.295570
vn -0.772871 0.561524 -0.295570
vn -0.908564 0.295211 0.295571
vn -0.772871 0.561524 0.295570
vn -0.772871 0.561524 -0.295570
vn -0.908564 0.295211 -0.295571
vn -0.955321 0.000000 0.295572
vn -0.908564 0.295211 0.295571
vn -0.908564 0.295211 -0.295571
vn -0.955321 0.000000 -0.295571
vn -0.908564 -0.295211 0.295571
vn -0.955321 0.000000 0.295572
vn -0.955321 0.000000 -0.295571
vn -0.908564 -0.295211 -0.295571
vn -0.772871 -0.561524 0.295570
vn -0.908564 -0.295211 0.295571
vn -0.908564 -0.295211 -0.295571
vn -0.772871 -0.561524 -0.295570
vn -0.561524 -0.772871 0.295570
vn -0.772871 -0.561524 0.295570
vn -0.772871 -0.561524 -0.295570
vn -0.561524 -0.772871 -0.295570
vn -0.434171 -0.852109 0.292244
vn -0.561524 -0.772871 0.295570
vn -0.561524 -0.772871 -0.295570
vn -0.434171 -0.852109 -0.292244
vn 0.561524 -0.772871 0.295571
vn 0.434171 -0.852108 0.292245
vn 0.434171 -0.852109 -0.292244
vn 0.561524 -0.772871 -0.295570
vn 0.772871 -0.561523 0.295571
vn 0.561524 -0.772871 0.295571
vn 0.561524 -0.772871 -0.295570
vn 0.772871 -0.561524 -0.295570
vn 0.908564 -0.295211 0.295572
vn 0.772871 -0.561523 0.295571
vn 0.772871 -0.561524 -0.295570
vn 0.908564 -0.295211 -0.295570
vn 0.955320 -0.000001 0.295572
vn 0.908564 -0.295211 0.295572
vn 0.908564 -0.295211 -0.295570
vn 0.955321 -0.000001 -0.295571
vn 0.908564 0.295209 0.295572
vn 0.955320 -0.000001 0.295572
vn 0.955321 -0.000001 -0.295571
vn 0.908564 0.295210 -0.295571
vn 0.772871 0.561524 -0.295571
vn 0.908564 0.295210 -0.295571
vn 0.587198 0.190792 -0.786636
vn 0.499501 0.362909 -0.786636
vn 0.561523 0.772871 -0.295571
vn 0.772871 0.561524 -0.295571
vn 0.499501 0.362909 -0.786636
vn 0.299009 0.435861 -0.848893
vn 0.434171 0.852109 -0.292244
vn 0.561523 0.772871 -0.295571
vn 0.299009 0.435861 -0.848893
vn 0.163342 0.292070 -0.942345
vn -0.561524 0.772871 -0.295570
vn -0.434171 0.852108 -0.292244
vn -0.158857 0.350520 -0.922984
vn -0.299009 0.435861 -0.848893
vn -0.772871 0.561524 -0.295570
vn -0.561524 0.772871 -0.295570
vn -0.299009 0.435861 -0.848893
vn -0.499502 0.362909 -0.786635
vn -0.908564 0.295211 -0.295571
vn -0.772871 0.561524 -0.295570
vn -0.499502 0.362909 -0.786635
vn -0.587199 0.190793 -0.786636
vn -0.955321 0.000000 -0.295571
vn -0.908564 0.295211 -0.295571
vn -0.587199 0.190793 -0.786636
vn -0.617417 0.000000 -0.786636
vn -0.908564 -0.295211 -0.295571
vn -0.955321 0.000000 -0.295571
vn -0.617417 0.000000 -0.786636
vn -0.587198 -0.190793 -0.786636
vn -0.772871 -0.561524 -0.295570
vn -0.908564 -0.295211 -0.295571
vn -0.587198 -0.190793 -0.786636
vn -0.499501 -0.362909 -0.786636
vn -0.561524 -0.772871 -0.295570
vn -0.772871 -0.561524 -0.295570
vn -0.499501 -0.362909 -0.786636
vn -0.362909 -0.499501 -0.786636
vn -0.434171 -0.852109 -0.292244
vn -0.561524 -0.772871 -0.295570
vn -0.362909 -0.499501 -0.786636
vn -0.282448 -0.554336 -0.782901
vn 0.561524 -0.772871 -0.295570
vn 0.434171 -0.852109 -0.292244
vn 0.282448 -0.554336 -0.782902
vn 0.362909 -0.499501 -0.786636
vn 0.772871 -0.561524 -0.295570
vn 0.561524 -0.772871 -0.295570
vn 0.362909 -0.499501 -0.786636
vn 0.499501 -0.362909 -0.786636
vn 0.908564 -0.295211 -0.295570
vn 0.772871 -0.561524 -0.295570
vn 0.499501 -0.362909 -0.786636
vn 0.587199 -0.190793 -0.786636
vn 0.955321 -0.000001 -0.295571
vn 0.908564 -0.295211 -0.295570
vn 0.587199 -0.190793 -0.786636
vn 0.617417 0.000000 -0.786636
vn 0.908564 0.295210 -0.295571
vn 0.955321 -0.000001 -0.295571
vn 0.617417 0.000000 -0.786636
vn 0.587198 0.190792 -0.786636
vn 0.499501 0.362909 -0.786636
vn 0.587198 0.190792 -0.786636
vn 0.044260 0.014381 -0.998917
vn 0.037649 0.027354 -0.998917
vn 0.299009 0.435861 -0.848893
vn 0.499501 0.362909 -0.786636
vn 0.037649 0.027354 -0.998917
vn 0.024672 0.032653 -0.999162
vn -0.024672 0.032653 -0.999162
vn -0.299009 0.435861 -0.848893
vn -0.158857 0.350520 -0.922984
vn -0.000000 0.149370 -0.988781
vn -0.000000 0.033123 -0.999451
vn -0.499502 0.362909 -0.786635
vn -0.299009 0.435861 -0.848893
vn -0.024672 0.032653 -0.999162
vn -0.037649 0.027354 -0.998917
vn -0.587199 0.190793 -0.786636
vn -0.499502 0.362909 -0.786635
vn -0.037649 0.027354 -0.998917
vn -0.044260 0.014381 -0.998917
vn -0.617417 0.000000 -0.786636
vn -0.587199 0.190793 -0.786636
vn -0.044260 0.014381 -0.998917
vn -0.046537 0.000000 -0.998917
vn -0.587198 -0.190793 -0.786636
vn -0.617417 0.000000 -0.786636
vn -0.046537 0.000000 -0.998917
vn -0.044260 -0.014381 -0.998917
vn -0.499501 -0.362909 -0.786636
vn -0.587198 -0.190793 -0.786636
vn -0.044260 -0.014381 -0.998917
vn -0.037649 -0.027354 -0.998917
vn -0.362909 -0.499501 -0.786636
vn -0.499501 -0.362909 -0.786636
vn -0.037649 -0.027354 -0.998917
vn -0.027354 -0.037649 -0.998917
vn -0.282448 -0.554336 -0.782901
vn -0.362909 -0.499501 -0.786636
vn -0.027354 -0.037649 -0.998917
vn -0.021390 -0.041981 -0.998889
vn 0.362909 -0.499501 -0.786636
vn 0.282448 -0.554336 -0.782902
vn 0.021390 -0.041981 -0.998889
vn 0.027354 -0.037649 -0.998917
vn 0.499501 -0.362909 -0.786636
vn 0.362909 -0.499501 -0.786636
vn 0.027354 -0.037649 -0.998917
vn 0.037649 -0.027354 -0.998917
vn 0.587199 -0.190793 -0.786636
vn 0.499501 -0.362909 -0.786636
vn 0.037649 -0.027354 -0.998917
vn 0.044260 -0.014381 -0.998917
vn 0.617417 0.000000 -0.786636
vn 0.587199 -0.190793 -0.786636
vn 0.044260 -0.014381 -0.998917
vn 0.046537 0.000000 -0.998917
vn 0.587198 0.190792 -0.786636
vn 0.617417 0.000000 -0.786636
vn 0.046537 0.000000 -0.998917
vn 0.044260 0.014381 -0.998917
vn -0.000000 0.033123 -0.999451
vn -0.000000 0.149370 -0.988781
vn 0.163342 0.292070 -0.942345
vn 0.299009 0.435861 -0.848893
vn 0.024672 0.032653 -0.999162
vn 0.037649 0.027354 -0.998917
vn 0.044260 0.014381 -0.998917
vn -0.528985 -0.171877 -0.831043
vn -0.449981 -0.326931 -0.831043
vn 0.024672 0.032653 -0.999162
vn 0.037649 0.027354 -0.998917
vn -0.449981 -0.326931 -0.831043
vn -0.249519 -0.488025 -0.836404
vn 0.000000 -0.536842 -0.843683
vn -0.000000 0.033123 -0.999451
vn 0.024672 0.032653 -0.999162
vn -0.249519 -0.488025 -0.836404
vn 0.249519 -0.488025 -0.836404
vn -0.024672 0.032653 -0.999162
vn -0.000000 0.033123 -0.999451
vn 0.000000 -0.536842 -0.843683
vn -0.037649 0.027354 -0.998917
vn -0.024672 0.032653 -0.999162
vn 0.249519 -0.488025 -0.836404
vn 0.449981 -0.326931 -0.831043
vn -0.044260 0.014381 -0.998917
vn -0.037649 0.027354 -0.998917
vn 0.449981 -0.326931 -0.831043
vn 0.528985 -0.171878 -0.831043
vn -0.046537 0.000000 -0.998917
vn -0.044260 0.014381 -0.998917
vn 0.528985 -0.171878 -0.831043
vn 0.556208 0.000000 -0.831043
vn -0.044260 -0.014381 -0.998917
vn -0.046537 0.000000 -0.998917
vn 0.556208 0.000000 -0.831043
vn 0.528985 0.171878 -0.831043
vn -0.037649 -0.027354 -0.998917
vn -0.044260 -0.014381 -0.998917
vn 0.528985 0.171878 -0.831043
vn 0.449981 0.326931 -0.831043
vn -0.027354 -0.037649 -0.998917
vn -0.037649 -0.027354 -0.998917
vn 0.449981 0.326931 -0.831043
vn 0.326931 0.449981 -0.831043
vn -0.021390 -0.041981 -0.998889
vn -0.027354 -0.037649 -0.998917
vn 0.326931 0.449981 -0.831043
vn 0.254675 0.499826 -0.827837
vn 0.027354 -0.037649 -0.998917
vn 0.021390 -0.041981 -0.998889
vn -0.254675 0.499826 -0.827837
vn -0.326931 0.449982 -0.831043
vn 0.037649 -0.027354 -0.998917
vn 0.027354 -0.037649 -0.998917
vn -0.326931 0.449982 -0.831043
vn -0.449982 0.326931 -0.831043
vn 0.044260 -0.014381 -0.998917
vn 0.037649 -0.027354 -0.998917
vn -0.449982 0.326931 -0.831043
vn -0.528985 0.171878 -0.831043
vn 0.046537 0.000000 -0.998917
vn 0.044260 -0.014381 -0.998917
vn -0.528985 0.171878 -0.831043
vn -0.556208 0.000001 -0.831043
vn 0.044260 0.014381 -0.998917
vn 0.046537 0.000000 -0.998917
vn -0.556208 0.000001 -0.831043
vn -0.528985 -0.171877 -0.831043
vn -0.449981 -0.326931 -0.831043
vn -0.528985 -0.171877 -0.831043
vn -0.900004 -0.292428 -0.323233
vn -0.765589 -0.556233 -0.323232
vn -0.249519 -0.488025 -0.836404
vn -0.449981 -0.326931 -0.831043
vn -0.765589 -0.556233 -0.323232
vn -0.427107 -0.843828 -0.324860
vn 0.000000 -0.943511 -0.331342
vn 0.000000 -0.536842 -0.843683
vn -0.249519 -0.488025 -0.836404
vn -0.427107 -0.843828 -0.324860
vn 0.427107 -0.843827 -0.324862
vn 0.249519 -0.488025 -0.836404
vn 0.000000 -0.536842 -0.843683
vn 0.000000 -0.943511 -0.331342
vn 0.449981 -0.326931 -0.831043
vn 0.249519 -0.488025 -0.836404
vn 0.427107 -0.843827 -0.324862
vn 0.765588 -0.556233 -0.323233
vn 0.528985 -0.171878 -0.831043
vn 0.449981 -0.326931 -0.831043
vn 0.765588 -0.556233 -0.323233
vn 0.900003 -0.292429 -0.323233
vn 0.556208 0.000000 -0.831043
vn 0.528985 -0.171878 -0.831043
vn 0.900003 -0.292429 -0.323233
vn 0.946320 0.000000 -0.323233
vn 0.528985 0.171878 -0.831043
vn 0.556208 0.000000 -0.831043
vn 0.946320 0.000000 -0.323233
vn 0.900003 0.292429 -0.323233
vn 0.449981 0.326931 -0.831043
vn 0.528985 0.171878 -0.831043
vn 0.900003 0.292429 -0.323233
vn 0.765588 0.556233 -0.323233
vn 0.326931 0.449981 -0.831043
vn 0.449981 0.326931 -0.831043
vn 0.765588 0.556233 -0.323233
vn 0.556233 0.765588 -0.323233
vn 0.254675 0.499826 -0.827837
vn 0.326931 0.449981 -0.831043
vn 0.556233 0.765588 -0.323233
vn 0.430171 0.844256 -0.319663
vn -0.326931 0.449982 -0.831043
vn -0.254675 0.499826 -0.827837
vn -0.430171 0.844257 -0.319662
vn -0.556233 0.765588 -0.323233
vn -0.449982 0.326931 -0.831043
vn -0.326931 0.449982 -0.831043
vn -0.556233 0.765588 -0.323233
vn -0.765588 0.556233 -0.323233
vn -0.528985 0.171878 -0.831043
vn -0.449982 0.326931 -0.831043
vn -0.765588 0.556233 -0.323233
vn -0.900003 0.292429 -0.323233
vn -0.556208 0.000001 -0.831043
vn -0.528985 0.171878 -0.831043
vn -0.900003 0.292429 -0.323233
vn -0.946320 0.000001 -0.323233
vn -0.528985 -0.171877 -0.831043
vn -0.556208 0.000001 -0.831043
vn -0.946320 0.000001 -0.323233
vn -0.900004 -0.292428 -0.323233
vn -0.765588 -0.556233 0.323233
vn -0.765589 -0.556233 -0.323232
vn -0.900004 -0.292428 -0.323233
vn -0.900003 -0.292428 0.323233
vn -0.427106 -0.843827 0.324862
vn -0.427107 -0.843828 -0.324860
vn -0.765589 -0.556233 -0.323232
vn -0.765588 -0.556233 0.323233
vn -0.427106 -0.843827 0.324862
vn 0.000000 -0.943510 0.331343
vn 0.000000 -0.943511 -0.331342
vn -0.427107 -0.843828 -0.324860
vn 0.000000 -0.943510 0.331343
vn 0.427107 -0.843827 0.324863
vn 0.427107 -0.843827 -0.324862
vn 0.000000 -0.943511 -0.331342
vn 0.765588 -0.556233 0.323234
vn 0.765588 -0.556233 -0.323233
vn 0.427107 -0.843827 -0.324862
vn 0.427107 -0.843827 0.324863
vn 0.900003 -0.292429 0.323234
vn 0.900003 -0.292429 -0.323233
vn 0.765588 -0.556233 -0.323233
vn 0.765588 -0.556233 0.323234
vn 0.946319 0.000000 0.323234
vn 0.946320 0.000000 -0.323233
vn 0.900003 -0.292429 -0.323233
vn 0.900003 -0.292429 0.323234
vn 0.900003 0.292429 0.323234
vn 0.900003 0.292429 -0.323233
vn 0.946320 0.000000 -0.323233
vn 0.946319 0.000000 0.323234
vn 0.765588 0.556233 0.323233
vn 0.765588 0.556233 -0.323233
vn 0.900003 0.292429 -0.323233
vn 0.900003 0.292429 0.323234
vn 0.556395 0.765689 0.322714
vn 0.556233 0.765588 -0.323233
vn 0.765588 0.556233 -0.323233
vn 0.765588 0.556233 0.323233
vn 0.430171 0.844256 -0.319663
vn 0.556233 0.765588 -0.323233
vn 0.556395 0.765689 0.322714
vn 0.430205 0.844638 0.318608
vn -0.556233 0.765588 0.323233
vn -0.556233 0.765588 -0.323233
vn -0.430171 0.844257 -0.319662
vn -0.430171 0.844256 0.319663
vn -0.765588 0.556233 0.323234
vn -0.765588 0.556233 -0.323233
vn -0.556233 0.765588 -0.323233
vn -0.556233 0.765588 0.323233
vn -0.900003 0.292429 0.323234
vn -0.900003 0.292429 -0.323233
vn -0.765588 0.556233 -0.323233
vn -0.765588 0.556233 0.323234
vn -0.946319 0.000001 0.323234
vn -0.946320 0.000001 -0.323233
vn -0.900003 0.292429 -0.323233
vn -0.900003 0.292429 0.323234
vn -0.900003 -0.292428 0.323233
vn -0.900004 -0.292428 -0.323233
vn -0.946320 0.000001 -0.323233
vn -0.946319 0.000001 0.323234
vn -0.951056 -0.309017 0.000000
vn -0.951057 -0.309016 0.000001
vn -0.951057 -0.309017 0.000001
vn 0.951056 -0.309018 0.000000
vn 0.951057 -0.309017 -0.000001
vn 0.951056 -0.309018 -0.000001
vn 0.951056 -0.309018 0.000000
vn 0.951056 -0.309018 0.000000
vn 0.951056 -0.309018 0.000000
vn 0.951056 -0.309018 0.000000
vn 0.951056 -0.309018 0.000001
vn 0.951056 -0.309018 0.000000
vn 0.951056 -0.309018 0.000001
vn 0.951056 -0.309017 0.000001
vn 0.951056 -0.309018 0.000000
vn 0.951056 -0.309018 0.000000
vn 0.951056 -0.309019 0.000000
vn 0.951056 -0.309018 0.000000
vn 0.951056 -0.309019 0.000000
vn 0.951056 -0.309018 0.000001
vn 0.951056 -0.309018 0.000000
vn 0.951056 -0.309018 0.000000
vn 0.951056 -0.309018 0.000001
vn 0.951057 -0.309017 0.000000
vn 0.951056 -0.309018 0.000000
vn 0.951056 -0.309018 -0.000001
vn 0.951056 -0.309018 0.000000
vn 0.951056 -0.309017 0.000001
vn 0.951056 -0.309018 0.000000
vn 0.951056 -0.309018 0.000000
vn 0.951056 -0.309018 0.000000
vn 0.951057 -0.309017 0.000000
vn 0.951057 -0.309017 -0.000001
vn -0.951056 -0.309017 0.000000
vn -0.951056 -0.309019 -0.000001
vn -0.951056 -0.309018 -0.000001
vn -0.951057 -0.309016 -0.000001
vn -0.951057 -0.309016 -0.000001
vn -0.951056 -0.309017 0.000000
vn -0.951056 -0.309019 0.000001
vn -0.951056 -0.309019 -0.000001
vn -0.951056 -0.309017 0.000000
vn -0.951056 -0.309017 0.000000
vn -0.951057 -0.309017 0.000001
vn -0.951057 -0.309017 -0.000001
vn -0.951056 -0.309018 0.000001
vn -0.951056 -0.309019 0.000001
vn -0.951056 -0.309017 0.000000
vn -0.951056 -0.309017 0.000000
vn -0.951057 -0.309017 0.000001
vn -0.951057 -0.309017 0.000001
vn -0.951057 -0.309016 -0.000001
vn -0.951056 -0.309018 0.000001
vn -0.951056 -0.309017 0.000000
vn -0.951056 -0.309017 0.000000
vn -0.951056 -0.309018 -0.000001
vn -0.951057 -0.309016 0.000001
vn -0.951057 -0.309017 -0.000001
vn -0.951057 -0.309016 -0.000001
vn -0.951056 -0.309017 0.000000
vn 0.000000 -0.000000 1.000000
vn 0.000000 0.149369 0.988782
vn 0.175978 -0.000000 0.984394
vn 0.233415 -0.000000 0.972377
vn -0.000000 0.000000 -1.000000
vn -0.000000 0.149370 -0.988781
vn -0.175978 0.000000 -0.984394
vn -0.233415 0.000000 -0.972377
vn -0.233415 0.000000 0.972377
vn -0.163343 0.292070 0.942345
vn 0.000000 0.149369 0.988782
vn 0.000000 -0.000000 1.000000
vn 0.233415 -0.000000 0.972377
vn 0.175978 -0.000000 0.984394
vn 0.989304 0.000001 0.145872
vn 0.991588 0.000001 0.129431
vn -0.991588 0.000000 0.129432
vn -0.989303 0.000000 0.145873
vn -0.163343 0.292070 0.942345
vn -0.233415 0.000000 0.972377
vn 0.991588 0.000001 0.129431
vn 0.989304 0.000001 0.145872
vn 0.989304 0.000001 -0.145871
vn 0.991589 0.000001 -0.129431
vn -0.991588 -0.000001 -0.129431
vn -0.989304 -0.000001 -0.145872
vn -0.989303 0.000000 0.145873
vn -0.991588 0.000000 0.129432
vn 0.991589 0.000001 -0.129431
vn 0.989304 0.000001 -0.145871
vn 0.163342 0.292070 -0.942345
vn 0.233415 0.000000 -0.972377
vn -0.233415 0.000000 -0.972377
vn -0.175978 0.000000 -0.984394
vn -0.989304 -0.000001 -0.145872
vn -0.991588 -0.000001 -0.129431
vn 0.233415 0.000000 -0.972377
vn 0.163342 0.292070 -0.942345
vn -0.000000 0.149370 -0.988781
vn -0.000000 0.000000 -1.000000
vn 0.000000 -1.000000 0.000000
vn 0.000000 -1.000000 0.000000
vn 0.000001 -1.000000 -0.000001
vn 0.000000 -1.000000 0.000000
vn 0.000000 -1.000000 0.000000
vn 0.000000 -1.000000 0.000000
vn -0.000001 -1.000000 0.000001
vn -0.000001 -1.000000 0.000000
vn 0.000000 -1.000000 -0.000001
vn 0.000000 -1.000000 -0.000001
vn 0.000000 -1.000000 0.000000
vn 0.000000 -1.000000 0.000000
vn 0.000000 -1.000000 0.000000
vn 0.000001 -1.000000 -0.000001
vn 0.000002 -1.000000 -0.000001
vn 0.000002 -1.000000 -0.000001
vn -0.000001 -1.000000 -0.000001
vn -0.000001 -1.000000 -0.000001
vn 0.000000 -1.000000 -0.000001
vn 0.000000 -1.000000 -0.000001
vn 0.000002 -1.000000 -0.000001
vn 0.000002 -1.000000 -0.000001
vn 0.000002 -1.000000 0.000001
vn 0.000002 -1.000000 0.000001
vn -0.000002 -1.000000 0.000001
vn -0.000001 -1.000000 0.000000
vn -0.000001 -1.000000 -0.000001
vn -0.000001 -1.000000 -0.000001
vn 0.000002 -1.000000 0.000001
vn 0.000002 -1.000000 0.000001
vn 0.000001 -1.000000 0.000002
vn 0.000000 -1.000000 0.000001
vn -0.000001 -1.000000 0.000000
vn -0.000001 -1.000000 0.000001
vn -0.000001 -1.000000 0.000000
vn -0.000002 -1.000000 0.000001
vn 0.000000 -1.000000 0.000001
vn 0.000001 -1.000000 0.000002
vn 0.000000 -1.000000 0.000000
vn 0.000000 -1.000000 0.000000
vn -0.298550 -0.000001 0.954394
vn -0.298550 -0.000001 0.954394
vn 0.000000 -0.000001 1.000000
vn 0.000000 -0.000001 1.000000
vn 0.155125 -0.000002 -0.987895
vn 0.155125 -0.000002 -0.987895
vn -0.044902 -0.000003 -0.998991
vn -0.044902 -0.000003 -0.998991
vn -0.562734 -0.000001 0.826638
vn -0.562734 -0.000001 0.826638
vn -0.298550 -0.000001 0.954394
vn -0.298550 -0.000001 0.954394
vn 0.590430 -0.000004 0.807089
vn 0.590430 -0.000004 0.807089
vn 0.800449 -0.000002 0.599400
vn 0.800448 -0.000002 0.599402
vn -0.999800 0.000001 0.020022
vn -0.999800 0.000001 0.020022
vn -0.963735 0.000000 0.266861
vn -0.963735 0.000000 0.266861
vn 0.800448 -0.000002 0.599402
vn 0.800449 -0.000002 0.599400
vn 0.997496 -0.000001 -0.070724
vn 0.997496 -0.000001 -0.070726
vn -0.860522 0.000001 -0.509414
vn -0.860522 0.000001 -0.509414
vn -0.999800 0.000001 0.020022
vn -0.999800 0.000001 0.020022
vn 0.997496 -0.000001 -0.070726
vn 0.997496 -0.000001 -0.070724
vn 0.915803 -0.000002 -0.401628
vn 0.915803 -0.000002 -0.401628
vn -0.693527 0.000000 -0.720431
vn -0.693527 0.000000 -0.720431
vn -0.860522 0.000001 -0.509414
vn -0.860522 0.000001 -0.509414
vn 0.357921 -0.000002 -0.933752
vn 0.357921 -0.000002 -0.933752
vn 0.155125 -0.000002 -0.987895
vn 0.155125 -0.000002 -0.987895
vn 0.000000 1.000000 0.000000
vn 0.000000 1.000000 0.000000
vn 0.000000 1.000000 0.000000
vn 0.000000 1.000000 0.000000
vn -0.000000 1.000000 -0.000000
vn -0.000000 1.000000 -0.000000
vn -0.000000 1.000000 -0.000000
vn -0.000000 1.000000 -0.000000
vn 0.000000 1.000000 0.000000
vn 0.000000 1.000000 0.000000
vn 0.000000 1.000000 0.000000
vn 0.000000 1.000000 0.000000
vn -0.000001 1.000000 0.000001
vn -0.000001 1.000000 0.000001
vn -0.000001 1.000000 0.000001
vn -0.000001 1.000000 0.000001
vn 0.000001 1.000000 0.000001
vn 0.000001 1.000000 0.000001
vn 0.000001 1.000000 0.000001
vn 0.000001 1.000000 0.000001
vn -0.000003 1.000000 0.000001
vn -0.000003 1.000000 0.000001
vn -0.000003 1.000000 0.000001
vn -0.000003 1.000000 0.000001
vn 0.000002 1.000000 0.000000
vn 0.000002 1.000000 0.000000
vn 0.000002 1.000000 0.000000
vn 0.000002 1.000000 0.000000
vn -0.000002 1.000000 -0.000002
vn -0.000002 1.000000 -0.000002
vn -0.000002 1.000000 -0.000002
vn -0.000002 1.000000 -0.000002
vn 0.000001 1.000000 0.000000
vn 0.000001 1.000000 0.000000
vn 0.000001 1.000000 0.000000
vn 0.000001 1.000000 0.000000
vn 0.000001 1.000000 -0.000001
vn 0.000001 1.000000 -0.000001
vn 0.000001 1.000000 -0.000001
vn 0.000001 1.000000 -0.000001
vn 0.446258 -0.624838 -0.640650
vn 0.446257 -0.624838 -0.640650
vn 0.574757 -0.100632 -0.812113
vn 0.574777 -0.100330 -0.812136
vn 0.013263 -0.624159 -0.781185
vn 0.013263 -0.624159 -0.781184
vn 0.010510 -0.095325 -0.995391
vn 0.010493 -0.093294 -0.995583
vn -0.461120 -0.620123 -0.634677
vn -0.461120 -0.620123 -0.634677
vn -0.585143 -0.094711 -0.805380
vn -0.585143 -0.094711 -0.805380
vn -0.746107 -0.620124 -0.242428
vn -0.746107 -0.620124 -0.242428
vn -0.946780 -0.094712 -0.307631
vn -0.946780 -0.094712 -0.307631
vn -0.746107 -0.620124 0.242428
vn -0.746107 -0.620124 0.242428
vn -0.946780 -0.094712 0.307631
vn -0.946780 -0.094712 0.307631
vn -0.461120 -0.620123 0.634677
vn -0.461120 -0.620123 0.634677
vn -0.585143 -0.094711 0.805380
vn -0.585143 -0.094711 0.805380
vn 0.000000 -0.620123 0.784504
vn 0.000000 -0.620123 0.784504
vn 0.000000 -0.094713 0.995505
vn 0.000000 -0.094713 0.995505
vn 0.461121 -0.620123 0.634677
vn 0.461121 -0.620123 0.634677
vn 0.585144 -0.094711 0.805380
vn 0.585144 -0.094711 0.805380
vn 0.746107 -0.620124 0.242428
vn 0.746107 -0.620124 0.242428
vn 0.946780 -0.094712 0.307631
vn 0.946780 -0.094712 0.307631
vn 0.746107 -0.620124 -0.242428
vn 0.746107 -0.620124 -0.242428
vn 0.946780 -0.094712 -0.307631
vn 0.946780 -0.094712 -0.307631
vn 0.000000 1.000000 0.000000
vn 0.000000 1.000000 -0.000001
vn 0.000000 1.000000 0.000000
vn 0.000000 1.000000 -0.000001
vn 0.000000 1.000000 0.000000
vn 0.000000 1.000000 0.000000
vn 0.000000 1.000000 0.000000
vn 0.000000 1.000000 0.000001
vn 0.000000 1.000000 0.000000
vn 0.000000 1.000000 0.000001
vn 0.000000 1.000000 0.000000
vn 0.000000 1.000000 0.000000
vn 0.000000 1.000000 0.000000
vn 0.000000 1.000000 -0.000001
vn 0.000000 1.000000 0.000000
vn 0.000000 1.000000 -0.000001
vn 0.000000 1.000000 0.000000
vn 0.000000 1.000000 0.000000
vn 0.000000 1.000000 0.000000
vn 0.000000 1.000000 0.000001
vn 0.000000 1.000000 0.000000
vn 0.000000 1.000000 0.000001
vn 0.000000 1.000000 0.000000
vn 0.000000 1.000000 0.000000
vn 0.000000 1.000000 0.000000
vn 0.000000 1.000000 0.000000
vn 0.000000 1.000000 0.000000
vn 0.000000 1.000000 0.000000
vn 0.000000 1.000000 0.000000
vn 0.000000 1.000000 0.000000
vn 0.946780 -0.094712 -0.307631
vn 0.946780 -0.094712 -0.307631
vn 0.652338 0.727687 -0.211959
vn 0.652338 0.727687 -0.211959
vn 0.946780 -0.094712 0.307631
vn 0.946780 -0.094712 0.307631
vn 0.652338 0.727687 0.211959
vn 0.652338 0.727687 0.211959
vn 0.585144 -0.094711 0.805380
vn 0.585144 -0.094711 0.805380
vn 0.403168 0.727686 0.554913
vn 0.403168 0.727686 0.554913
vn 0.000000 -0.094713 0.995505
vn 0.000000 -0.094713 0.995505
vn 0.000000 0.727686 0.685910
vn 0.000000 0.727686 0.685910
vn -0.585143 -0.094711 0.805380
vn -0.585143 -0.094711 0.805380
vn -0.403168 0.727686 0.554913
vn -0.403168 0.727686 0.554913
vn -0.946780 -0.094712 0.307631
vn -0.946780 -0.094712 0.307631
vn -0.652338 0.727687 0.211959
vn -0.652338 0.727687 0.211959
vn -0.946780 -0.094712 -0.307631
vn -0.946780 -0.094712 -0.307631
vn -0.652338 0.727687 -0.211959
vn -0.652338 0.727687 -0.211959
vn -0.585143 -0.094711 -0.805380
vn -0.585143 -0.094711 -0.805380
vn -0.403168 0.727686 -0.554913
vn -0.403168 0.727686 -0.554913
vn 0.010493 -0.093294 -0.995583
vn 0.010510 -0.095325 -0.995391
vn -0.000000 0.727686 -0.685910
vn -0.000000 0.727686 -0.685910
vn 0.574777 -0.100330 -0.812136
vn 0.574757 -0.100632 -0.812113
vn 0.403168 0.727686 -0.554913
vn 0.403168 0.727686 -0.554913
s off
g LolipopRing:pTorus2
usemtl lambert2SG
f 2/1/1 1/2/2 18/3/3 19/4/4
f 3/5/5 2/1/6 19/4/7 20/6/8
f 21/7/9 4/8/10 3/5/11 20/6/12
f 22/9/13 5/10/14 4/8/15 21/7/16
f 6/11/17 5/10/18 22/9/19 23/12/20
f 7/13/21 6/11/22 23/12/23 24/14/24
f 8/15/25 7/13/26 24/14/27 25/16/28
f 9/17/29 8/15/30 25/16/31 26/18/32
f 10/19/33 9/17/34 26/18/35 27/20/36
f 11/21/37 10/19/38 27/20/39 28/22/40
f 12/23/41 11/21/42 28/22/43 29/24/44
f 14/25/45 13/26/46 30/27/47 31/28/48
f 15/29/49 14/25/50 31/28/51 32/30/52
f 16/31/53 15/29/54 32/30/55 33/32/56
f 17/33/57 16/31/58 33/32/59 34/34/60
f 1/2/61 17/33/62 34/34/63 18/3/64
f 19/4/65 18/3/66 35/35/67 36/36/68
f 20/6/69 19/4/70 36/36/71 37/37/72
f 38/38/73 21/7/74 20/6/75 37/37/76
f 39/39/77 22/9/78 21/7/79 38/38/80
f 23/12/81 22/9/82 39/39/83 40/40/84
f 24/14/85 23/12/86 40/40/87 41/41/88
f 25/16/89 24/14/90 41/41/91 42/42/92
f 26/18/93 25/16/94 42/42/95 43/43/96
f 27/20/97 26/18/98 43/43/99 44/44/100
f 28/22/101 27/20/102 44/44/103 45/45/104
f 29/24/105 28/22/106 45/45/107 46/46/108
f 31/28/109 30/27/110 47/47/111 48/48/112
f 32/30/113 31/28/114 48/48/115 49/49/116
f 33/32/117 32/30/118 49/49/119 50/50/120
f 34/34/121 33/32/122 50/50/123 51/51/124
f 18/3/125 34/34/126 51/51/127 35/35/128
f 36/36/129 35/35/130 53/52/131 54/53/132
f 37/37/133 36/36/134 54/53/135 55/54/136
f 52/55/137 38/38/138 37/37/139 55/54/140 56/56/141
f 57/57/142 58/58/143 39/39/144 38/38/145 52/55/146
f 40/40/147 39/39/148 58/58/149 59/59/150
f 41/41/151 40/40/152 59/59/153 60/60/154
f 42/42/155 41/41/156 60/60/157 61/61/158
f 43/43/159 42/42/160 61/61/161 62/62/162
f 44/44/163 43/43/164 62/62/165 63/63/166
f 45/45/167 44/44/168 63/63/169 64/64/170
f 46/46/171 45/45/172 64/64/173 65/65/174
f 48/48/175 47/47/176 66/66/177 67/67/178
f 49/49/179 48/48/180 67/67/181 68/68/182
f 50/50/183 49/49/184 68/68/185 69/69/186
f 51/51/187 50/50/188 69/69/189 70/70/190
f 35/35/191 51/51/192 70/70/193 53/52/194
f 54/53/195 53/52/196 71/71/197 72/72/198
f 55/54/199 54/53/200 72/72/201 73/73/202
f 56/56/203 55/54/204 73/73/205 74/74/206
f 58/58/207 57/57/208 75/75/209 76/76/210
f 59/59/211 58/58/212 76/76/213 77/77/214
f 60/60/215 59/59/216 77/77/217 78/78/218
f 61/61/219 60/60/220 78/78/221 79/79/222
f 62/62/223 61/61/224 79/79/225 80/80/226
f 63/63/227 62/62/228 80/80/229 81/81/230
f 64/64/231 63/63/232 81/81/233 82/82/234
f 65/65/235 64/64/236 82/82/237 83/83/238
f 67/67/239 66/66/240 84/84/241 85/85/242
f 68/68/243 67/67/244 85/85/245 86/86/246
f 69/69/247 68/68/248 86/86/249 87/87/250
f 70/70/251 69/69/252 87/87/253 88/88/254
f 53/52/255 70/70/256 88/88/257 71/71/258
f 72/72/259 71/71/260 89/89/261 90/90/262
f 73/73/263 72/72/264 90/90/265 91/91/266
f 74/74/267 73/73/268 91/91/269 92/92/270
f 76/76/271 75/75/272 93/93/273 94/94/274
f 77/77/275 76/76/276 94/94/277 95/95/278
f 78/78/279 77/77/280 95/95/281 96/96/282
f 79/79/283 78/78/284 96/96/285 97/97/286
f 80/80/287 79/79/288 97/97/289 98/98/290
f 81/81/291 80/80/292 98/98/293 99/99/294
f 82/82/295 81/81/296 99/99/297 100/100/298
f 83/83/299 82/82/300 100/100/301 101/101/302
f 85/85/303 84/84/304 102/102/305 103/103/306
f 86/86/307 85/85/308 103/103/309 104/104/310
f 87/87/311 86/86/312 104/104/313 105/105/314
f 88/88/315 87/87/316 105/105/317 106/106/318
f 71/71/319 88/88/320 106/106/321 89/89/322
f 90/107/323 89/108/324 107/109/325 108/110/326
f 91/111/327 90/107/328 108/110/329 109/112/330
f 92/113/331 91/111/332 109/112/333 110/114/334
f 94/115/335 93/116/336 111/117/337 112/118/338
f 95/119/339 94/115/340 112/118/341 113/120/342
f 96/121/343 95/119/344 113/120/345 114/122/346
f 97/123/347 96/121/348 114/122/349 115/124/350
f 98/125/351 97/123/352 115/124/353 116/126/354
f 99/127/355 98/125/356 116/126/357 117/128/358
f 100/129/359 99/127/360 117/128/361 118/130/362
f 101/131/363 100/129/364 118/130/365 119/132/366
f 103/133/367 102/134/368 120/135/369 121/136/370
f 104/137/371 103/133/372 121/136/373 122/138/374
f 105/139/375 104/137/376 122/138/377 123/140/378
f 106/141/379 105/139/380 123/140/381 124/142/382
f 89/108/383 106/141/384 124/142/385 107/109/386
f 108/110/387 107/109/388 126/143/389 127/144/390
f 109/112/391 108/110/392 127/144/393 128/145/394
f 130/146/395 112/118/396 111/117/397 125/147/398 129/148/399
f 113/120/400 112/118/401 130/146/402 131/149/403
f 114/122/404 113/120/405 131/149/406 132/150/407
f 115/124/408 114/122/409 132/150/410 133/151/411
f 116/126/412 115/124/413 133/151/414 134/152/415
f 117/128/416 116/126/417 134/152/418 135/153/419
f 118/130/420 117/128/421 135/153/422 136/154/423
f 119/132/424 118/130/425 136/154/426 137/155/427
f 121/136/428 120/135/429 138/156/430 139/157/431
f 122/138/432 121/136/433 139/157/434 140/158/435
f 123/140/436 122/138/437 140/158/438 141/159/439
f 124/142/440 123/140/441 141/159/442 142/160/443
f 107/109/444 124/142/445 142/160/446 126/143/447
f 129/148/448 125/147/449 110/114/450 109/112/451 128/145/452
f 127/144/453 126/143/454 143/161/455 144/162/456
f 128/145/457 127/144/458 144/162/459 145/163/460
f 146/164/461 129/148/462 128/145/463 145/163/464
f 147/165/465 130/146/466 129/148/467 146/164/468
f 131/149/469 130/146/470 147/165/471 148/166/472
f 132/150/473 131/149/474 148/166/475 149/167/476
f 133/151/477 132/150/478 149/167/479 150/168/480
f 134/152/481 133/151/482 150/168/483 151/169/484
f 135/153/485 134/152/486 151/169/487 152/170/488
f 136/154/489 135/153/490 152/170/491 153/171/492
f 137/155/493 136/154/494 153/171/495 154/172/496
f 139/157/497 138/156/498 155/173/499 156/174/500
f 140/158/501 139/157/502 156/174/503 157/175/504
f 141/159/505 140/158/506 157/175/507 158/176/508
f 142/160/509 141/159/510 158/176/511 159/177/512
f 126/143/513 142/160/514 159/177/515 143/161/516
f 144/162/517 143/161/518 160/178/519 161/179/520
f 145/163/521 144/162/522 161/179/523 162/180/524
f 163/181/525 146/164/526 145/163/527 162/180/528
f 164/182/529 147/165/530 146/164/531 163/181/532
f 148/166/533 147/165/534 164/182/535 165/183/536
f 149/167/537 148/166/538 165/183/539 166/184/540
f 150/168/541 149/167/542 166/184/543 167/185/544
f 151/169/545 150/168/546 167/185/547 168/186/548
f 152/170/549 151/169/550 168/186/551 169/187/552
f 153/171/553 152/170/554 169/187/555 170/188/556
f 154/172/557 153/171/558 170/188/559 171/189/560
f 156/174/561 155/173/562 172/190/563 173/191/564
f 157/175/565 156/174/566 173/191/567 174/192/568
f 158/176/569 157/175/570 174/192/571 175/193/572
f 159/177/573 158/176/574 175/193/575 176/194/576
f 143/161/577 159/177/578 176/194/579 160/178/580
f 2/195/581 161/179/582 160/178/583 1/196/584
f 3/197/585 162/180/586 161/179/587 2/195/588
f 3/197/589 4/198/590 163/181/591 162/180/592
f 4/198/593 5/199/594 164/182/595 163/181/596
f 6/200/597 165/183/598 164/182/599 5/199/600
f 7/201/601 166/184/602 165/183/603 6/200/604
f 8/202/605 167/185/606 166/184/607 7/201/608
f 9/203/609 168/186/610 167/185/611 8/202/612
f 10/204/613 169/187/614 168/186/615 9/203/616
f 11/205/617 170/188/618 169/187/619 10/204/620
f 171/189/621 170/188/622 11/205/623 12/206/624
f 14/207/625 173/191/626 172/190/627 13/208/628
f 15/209/629 174/192/630 173/191/631 14/207/632
f 16/210/633 175/193/634 174/192/635 15/209/636
f 17/211/637 176/194/638 175/193/639 16/210/640
f 1/196/641 160/178/642 176/194/643 17/211/644
f 178/212/645 47/47/646 30/27/647
f 177/213/648 46/46/649 65/65/650
f 177/213/651 83/83/652 101/101/653
f 101/131/654 119/132/655 177/214/656
f 119/132/657 137/155/658 177/214/659
f 154/172/660 171/189/661 177/214/662
f 171/189/663 12/206/664 177/214/665
f 177/213/666 12/23/667 29/24/668
f 177/213/669 65/65/670 83/83/671
f 137/155/672 154/172/673 177/214/674
f 177/213/675 29/24/676 46/46/677
f 178/212/678 84/84/679 66/66/680
f 155/173/681 138/156/682 178/215/683
f 102/102/684 84/84/685 178/212/686
f 178/215/687 13/208/688 172/190/689
f 120/135/690 102/134/691 178/215/692
f 178/212/693 30/27/694 13/26/695
f 138/156/696 120/135/697 178/215/698
f 178/212/699 66/66/700 47/47/701
f 172/190/702 155/173/703 178/215/704
f 179/216/705 52/55/706 56/56/707 181/217/708
f 180/218/709 125/147/710 111/117/711 188/219/712
f 182/220/713 57/57/714 52/55/715 179/216/716
f 181/217/717 56/56/718 74/74/719 183/221/720
f 184/222/721 75/75/722 57/57/723 182/220/724
f 183/221/725 74/74/726 92/92/727 185/223/728
f 186/224/729 93/93/730 75/75/731 184/222/732
f 185/225/733 92/113/734 110/114/735 187/226/736
f 188/219/737 111/117/738 93/116/739 186/227/740
f 187/226/741 110/114/742 125/147/743 180/218/744
f 189/228/745 179/229/746 181/230/747 191/231/748
f 190/232/749 180/233/750 188/234/751 198/235/752
f 192/236/753 182/237/754 179/229/755 189/228/756
f 191/231/757 181/230/758 183/238/759 193/239/760
f 194/240/761 184/241/762 182/237/763 192/236/764
f 193/239/765 183/238/766 185/242/767 195/243/768
f 196/244/769 186/245/770 184/241/771 194/240/772
f 195/243/773 185/242/774 187/246/775 197/247/776
f 198/235/777 188/234/778 186/245/779 196/244/780
f 197/247/781 187/246/782 180/233/783 190/232/784
f 199/248/785 189/249/786 191/250/787 201/251/788
f 200/252/789 190/253/790 198/254/791 208/255/792
f 202/256/793 192/257/794 189/249/795 199/248/796
f 201/251/797 191/250/798 193/258/799 203/259/800
f 204/260/801 194/261/802 192/257/803 202/256/804
f 203/259/805 193/258/806 195/262/807 205/263/808
f 206/264/809 196/265/810 194/261/811 204/260/812
f 205/263/813 195/262/814 197/266/815 207/267/816
f 208/255/817 198/254/818 196/265/819 206/264/820
f 207/267/821 197/266/822 190/253/823 200/252/824
f 209/268/825 199/269/826 201/270/827 211/271/828
f 210/272/829 200/273/830 208/274/831 218/275/832
f 212/276/833 202/277/834 199/269/835 209/268/836
f 213/278/837 211/271/838 201/270/839 203/279/840
f 212/276/841 214/280/842 204/281/843 202/277/844
f 215/282/845 213/278/846 203/279/847 205/283/848
f 214/280/849 216/284/850 206/285/851 204/281/852
f 217/286/853 215/282/854 205/283/855 207/287/856
f 216/284/857 218/275/858 208/274/859 206/285/860
f 217/286/861 207/287/862 200/273/863 210/272/864
f 217/288/865 210/289/866 239/290/867 230/291/868
f 210/289/869 218/292/870 238/293/871 239/290/872
f 218/294/873 216/295/874 237/296/875 238/297/876
f 216/295/877 214/298/878 236/299/879 237/296/880
f 214/300/881 212/301/882 235/302/883 236/303/884
f 212/301/885 209/304/886 234/305/887 235/302/888
f 209/306/889 211/307/890 233/308/891 234/309/892
f 211/307/893 213/310/894 232/311/895 233/308/896
f 213/312/897 215/313/898 231/314/899 232/315/900
f 215/313/901 217/316/902 230/317/903 231/314/904
f 219/318/905 220/319/906 229/320/907
f 220/319/908 221/321/909 229/320/910
f 221/322/911 222/323/912 229/324/913
f 222/323/914 223/325/915 229/324/916
f 223/326/917 224/327/918 229/328/919
f 224/327/920 225/329/921 229/328/922
f 225/330/923 226/331/924 229/332/925
f 226/331/926 227/333/927 229/332/928
f 227/334/929 228/335/930 229/336/931
f 228/335/932 219/337/933 229/336/934
f 231/314/935 230/317/936 219/337/937 228/335/938
f 232/315/939 231/314/940 228/335/941 227/334/942
f 233/308/943 232/311/944 227/333/945 226/331/946
f 234/309/947 233/308/948 226/331/949 225/330/950
f 235/302/951 234/305/952 225/329/953 224/327/954
f 236/303/955 235/302/956 224/327/957 223/326/958
f 237/296/959 236/299/960 223/325/961 222/323/962
f 238/297/963 237/296/964 222/323/965 221/322/966
f 239/290/967 238/293/968 221/321/969 220/319/970
f 230/291/971 239/290/972 220/319/973 219/318/974
