# This file uses centimeters as units for non-parametric coordinates.

mtllib Paperbag.mtl
g default
v -0.611448 -0.695188 0.345838
v 0.611908 -0.695188 0.345838
v -0.611448 0.707125 0.280394
v 0.611908 0.707125 0.280394
v -0.611448 0.707125 -0.235207
v 0.611908 0.707125 -0.235207
v -0.611448 -0.695188 -0.346452
v 0.611908 -0.695188 -0.346452
v -0.476254 0.707125 -0.031697
v -0.611448 -0.695188 -0.031697
v 0.611908 -0.695188 -0.031697
v 0.500486 0.707125 -0.031697
v -0.611448 -0.414726 0.345838
v -0.476254 -0.414726 -0.031697
v -0.611448 -0.414726 -0.346452
v 0.611908 -0.414726 -0.346452
v 0.500486 -0.414726 -0.031697
v 0.611908 -0.414726 0.345838
v -0.626912 -0.708077 0.358479
v 0.627090 -0.708223 0.358671
v 0.630766 -0.413464 0.360255
v -0.630723 -0.413453 0.359688
v -0.631236 -0.413856 -0.359594
v 0.631241 -0.413867 -0.360255
v 0.627237 -0.708078 -0.359254
v -0.627085 -0.707902 -0.359057
v -0.631577 -0.707831 -0.031697
v 0.631577 -0.708538 -0.031697
v 0.524140 -0.412432 -0.031186
v -0.499860 -0.411985 -0.031107
v -0.497591 0.706491 -0.031144
v -0.622250 0.708483 0.287211
v -0.621982 0.708025 -0.241538
v 0.622826 0.708065 -0.242340
v 0.522521 0.706585 -0.031195
v 0.623025 0.708538 0.287962
vt 0.242942 0.769081
vt 0.242918 0.531170
vt 0.291704 0.530472
vt 0.291706 0.769804
vt 0.187583 0.769992
vt 0.187585 0.530472
vt 0.236280 0.531232
vt 0.236251 0.769204
vt 0.483758 0.122761
vt 0.723405 0.122761
vt 0.722554 0.266687
vt 0.484643 0.266616
vt 0.001946 0.267056
vt 0.001894 0.123130
vt 0.050902 0.123318
vt 0.291681 0.001992
vt 0.291924 0.146076
vt 0.242918 0.002438
vt 0.242947 0.266990
vt 0.242959 0.146294
vt 0.484610 0.002065
vt 0.722582 0.001992
vt 0.050665 0.001992
vt 0.001970 0.002361
vt 0.477044 0.146090
vt 0.477373 0.028714
vt 0.291615 0.267187
vt 0.477298 0.223661
vt 0.001900 0.768236
vt 0.001894 0.532069
vt 0.236111 0.123315
vt 0.236356 0.045467
vt 0.050731 0.267640
vt 0.236434 0.240986
vt 0.477407 0.531941
vt 0.477398 0.768197
vt 0.917789 0.762117
vt 0.871370 0.762117
vt 0.871370 0.530019
vt 0.917789 0.530019
vt 0.716577 0.812330
vt 0.716577 0.765911
vt 0.948674 0.765911
vt 0.948674 0.812330
vt 0.716577 0.409676
vt 0.716577 0.270481
vt 0.948674 0.270481
vt 0.948674 0.409676
vt 0.478648 0.270982
vt 0.525067 0.410177
vt 0.478648 0.410177
vt 0.287138 0.526678
vt 0.240718 0.526678
vt 0.287138 0.387483
vt 0.240718 0.271434
vt 0.240718 0.387483
vt 0.716577 0.525725
vt 0.948674 0.525725
vt 0.525067 0.526225
vt 0.478648 0.526225
vt 0.472816 0.387483
vt 0.472816 0.502549
vt 0.287138 0.271434
vt 0.472816 0.312450
vt 0.716577 0.998008
vt 0.948674 0.998008
vt 0.710745 0.410177
vt 0.710745 0.485210
vt 0.525067 0.270982
vt 0.710745 0.295110
vt 0.685692 0.762117
vt 0.685692 0.530019
vt 0.486548 0.764226
vt 0.601614 0.738577
vt 0.601410 0.742625
vt 0.484034 0.766275
vt 0.676647 0.764226
vt 0.678982 0.766224
vt 0.676647 0.532129
vt 0.679277 0.530057
vt 0.601614 0.553268
vt 0.601429 0.549087
vt 0.486548 0.532129
vt 0.483758 0.530019
vn -0.000302 -0.004739 0.999989
vn -0.000302 -0.004739 0.999989
vn -0.000479 0.050053 0.998746
vn -0.000479 0.050054 0.998747
vn -0.000533 0.082511 -0.996590
vn -0.000533 0.082508 -0.996590
vn -0.000341 -0.002614 -0.999997
vn -0.000341 -0.002614 -0.999997
vn -0.000344 -1.000000 -0.000222
vn -0.000344 -1.000000 -0.000222
vn -0.000339 -1.000000 0.000090
vn -0.000339 -1.000000 0.000090
vn 0.976273 0.069460 -0.205102
vn 0.940037 0.341071 0.000240
vn 0.999622 0.027483 0.000995
vn -0.941809 -0.007074 -0.336074
vn -0.999457 0.032941 0.001140
vn -0.964848 0.088342 -0.247515
vn -0.955082 0.102457 0.278065
vn -0.913548 0.406731 0.000292
vn -0.999457 0.032941 0.001140
vn -0.000351 -1.000000 -0.000595
vn -0.000351 -1.000000 -0.000595
vn -0.000344 -1.000000 -0.000222
vn -0.000344 -1.000000 -0.000222
vn 0.936311 -0.014246 0.350884
vn 0.999622 0.027483 0.000995
vn 0.969458 0.081301 0.231391
vn -0.999922 -0.012477 0.000226
vn -0.999457 0.032941 0.001140
vn -0.941809 -0.007074 -0.336074
vn -0.940773 -0.006461 -0.338976
vn -0.907360 -0.017096 0.420006
vn -0.999457 0.032941 0.001140
vn -0.999922 -0.012477 0.000226
vn -0.903259 -0.017939 0.428720
vn -0.000582 0.104588 -0.994515
vn -0.000582 0.104588 -0.994515
vn -0.000533 0.082508 -0.996590
vn -0.000533 0.082511 -0.996590
vn 0.999952 -0.009759 0.000239
vn 0.999622 0.027483 0.000995
vn 0.936311 -0.014246 0.350884
vn 0.933459 -0.014675 0.358383
vn 0.960701 -0.005780 -0.277525
vn 0.999622 0.027483 0.000995
vn 0.999952 -0.009759 0.000239
vn 0.960036 -0.005018 -0.279831
vn -0.000479 0.050054 0.998747
vn -0.000479 0.050053 0.998746
vn -0.000525 0.064382 0.997925
vn -0.000525 0.064382 0.997925
vn 0.976273 0.069460 -0.205102
vn 0.999622 0.027483 0.000995
vn 0.960701 -0.005780 -0.277525
vn 0.969458 0.081301 0.231391
vn 0.999622 0.027483 0.000995
vn 0.940037 0.341071 0.000240
vn -0.955082 0.102457 0.278065
vn -0.999457 0.032941 0.001140
vn -0.907360 -0.017096 0.420006
vn -0.964848 0.088342 -0.247515
vn -0.999457 0.032941 0.001140
vn -0.913548 0.406731 0.000292
vn 0.000000 0.000000 -1.000000
vn 0.000000 -0.046618 -0.998913
vn 0.000000 -0.046618 -0.998913
vn 0.000000 0.000000 -1.000000
vn 0.000000 -0.079081 0.996868
vn 0.000000 0.000000 1.000000
vn 0.000000 0.000000 1.000000
vn 0.000000 -0.079081 0.996868
vn 0.000000 1.000000 0.000000
vn 0.000000 1.000000 0.000000
vn 0.000000 1.000000 0.000000
vn 0.000000 1.000000 0.000000
vn -0.970967 -0.084493 0.223793
vn -0.999685 -0.025106 -0.000726
vn -0.929346 -0.369209 0.000000
vn 0.932348 0.009280 0.361444
vn 0.958362 -0.103941 0.265967
vn 0.999550 -0.029972 -0.000867
vn 0.946514 -0.120200 -0.299439
vn 0.999550 -0.029972 -0.000867
vn 0.900807 -0.434220 0.000000
vn 0.000000 1.000000 0.000000
vn 0.000000 1.000000 0.000000
vn 0.000000 1.000000 0.000000
vn 0.000000 1.000000 0.000000
vn -0.922307 0.016723 -0.386097
vn -0.962437 -0.098346 -0.253066
vn -0.999685 -0.025106 -0.000726
vn 0.999845 0.017625 0.000000
vn 0.930946 0.010646 0.365001
vn 0.932348 0.009280 0.361444
vn 0.999550 -0.029972 -0.000867
vn 0.891405 0.019615 -0.452784
vn 0.886362 0.022928 -0.462425
vn 0.999845 0.017625 0.000000
vn 0.999550 -0.029972 -0.000867
vn 0.000000 -0.098678 0.995119
vn 0.000000 -0.079081 0.996868
vn 0.000000 -0.079081 0.996868
vn 0.000000 -0.098678 0.995119
vn -0.999894 0.014527 0.000000
vn -0.918500 0.019581 -0.394936
vn -0.922307 0.016723 -0.386097
vn -0.999685 -0.025106 -0.000726
vn -0.952532 0.007814 0.304339
vn -0.951516 0.008968 0.307470
vn -0.999894 0.014527 0.000000
vn -0.999685 -0.025106 -0.000726
vn 0.000000 -0.046618 -0.998913
vn 0.000000 -0.058237 -0.998303
vn 0.000000 -0.058237 -0.998303
vn 0.000000 -0.046618 -0.998913
vn -0.970967 -0.084493 0.223793
vn -0.952532 0.007814 0.304339
vn -0.999685 -0.025106 -0.000726
vn -0.962437 -0.098346 -0.253066
vn -0.929346 -0.369209 0.000000
vn -0.999685 -0.025106 -0.000726
vn 0.946514 -0.120200 -0.299439
vn 0.891405 0.019615 -0.452784
vn 0.999550 -0.029972 -0.000867
vn 0.958362 -0.103941 0.265967
vn 0.900807 -0.434220 0.000000
vn 0.999550 -0.029972 -0.000867
vn 0.009120 0.993192 -0.116134
vn 0.018120 0.999830 0.003480
vn 0.018102 0.999830 0.003471
vn 0.005304 0.989125 -0.146979
vn 0.018120 0.999830 0.003480
vn 0.002598 0.995486 0.094877
vn 0.001267 0.993261 0.115895
vn 0.018102 0.999830 0.003471
vn 0.002598 0.995486 0.094877
vn -0.003939 0.995682 0.092748
vn -0.001866 0.993355 0.115075
vn 0.001267 0.993261 0.115895
vn -0.003939 0.995682 0.092748
vn -0.022009 0.999754 0.002690
vn -0.022016 0.999754 0.002694
vn -0.001866 0.993355 0.115075
vn -0.022009 0.999754 0.002690
vn -0.010921 0.993486 -0.113430
vn -0.006130 0.989158 -0.146727
vn -0.022016 0.999754 0.002694
vn -0.010921 0.993486 -0.113430
vn 0.009120 0.993192 -0.116134
vn 0.005304 0.989125 -0.146979
vn -0.006130 0.989158 -0.146727
s off
g Paperbag:pCube9
usemtl lambert2SG
f 19/1/1 20/2/2 21/3/3 22/4/4
f 23/5/5 24/6/6 25/7/7 26/8/8
f 27/9/9 28/10/10 20/11/11 19/12/12
f 20/13/13 28/14/14 29/15/15
f 22/16/16 30/17/17 19/18/18
f 26/19/19 27/20/20 30/17/21
f 26/21/22 25/22/23 28/10/24 27/9/25
f 24/23/26 29/15/27 25/24/28
f 31/25/29 30/17/30 22/16/31 32/26/32
f 23/27/33 30/17/34 31/25/35 33/28/36
f 33/29/37 34/30/38 24/6/39 23/5/40
f 35/31/41 29/15/42 24/23/43 34/32/44
f 21/33/45 29/15/46 35/31/47 36/34/48
f 22/4/49 21/3/50 36/35/51 32/36/52
f 20/13/53 29/15/54 21/33/55
f 25/24/56 29/15/57 28/14/58
f 26/19/59 30/17/60 23/27/61
f 19/18/62 30/17/63 27/20/64
f 1/37/65 13/38/66 18/39/67 2/40/68
f 15/41/69 7/42/70 8/43/71 16/44/72
f 10/45/73 1/46/74 2/47/75 11/48/76
f 2/49/77 17/50/78 11/51/79
f 13/52/80 1/53/81 14/54/82
f 7/55/83 14/54/84 10/56/85
f 7/57/86 10/45/87 11/48/88 8/58/89
f 16/59/90 8/60/91 17/50/92
f 9/61/93 3/62/94 13/52/95 14/54/96
f 15/63/97 5/64/98 9/61/99 14/54/100
f 5/65/101 15/41/102 16/44/103 6/66/104
f 12/67/105 6/68/106 16/59/107 17/50/108
f 18/69/109 4/70/110 12/67/111 17/50/112
f 13/38/113 3/71/114 4/72/115 18/39/116
f 2/49/117 18/69/118 17/50/119
f 8/60/120 11/51/121 17/50/122
f 7/55/123 15/63/124 14/54/125
f 1/53/126 10/56/127 14/54/128
f 3/73/129 9/74/130 31/75/131 32/76/132
f 9/74/133 5/77/134 33/78/135 31/75/136
f 5/77/137 6/79/138 34/80/139 33/78/140
f 6/79/141 12/81/142 35/82/143 34/80/144
f 12/81/145 4/83/146 36/84/147 35/82/148
f 4/83/149 3/73/150 32/76/151 36/84/152
