# This file uses centimeters as units for non-parametric coordinates.

mtllib Pot.mtl
g default
v -0.750481 -0.747149 -0.243846
v -0.638397 -0.747149 -0.463823
v -0.463823 -0.747149 -0.638397
v -0.243846 -0.747149 -0.750480
v 0.000000 -0.747149 -0.789102
v 0.000000 -0.747149 0.789102
v -0.243846 -0.747149 0.750481
v -0.463822 -0.747149 0.638397
v -0.638397 -0.747149 0.463823
v -0.750481 -0.747149 0.243847
v -0.789102 -0.747149 0.000001
v -0.750481 0.747149 -0.243846
v -0.638397 0.747149 -0.463823
v -0.463823 0.747149 -0.638397
v -0.243846 0.747149 -0.750480
v 0.000000 0.747149 -0.789102
v 0.000000 0.747149 0.789102
v -0.243846 0.747149 0.750480
v -0.463822 0.747149 0.638397
v -0.638397 0.747149 0.463823
v -0.750481 0.747149 0.243847
v -0.789102 0.747149 0.000001
v 0.000000 -0.747149 0.000001
v -0.663994 0.747149 -0.215745
v -0.564827 0.747149 -0.410371
v -0.410371 0.747149 -0.564827
v -0.215745 0.747149 -0.663994
v 0.000000 0.747149 -0.698163
v 0.000000 0.747149 0.698165
v -0.215744 0.747149 0.663994
v -0.410370 0.747149 0.564827
v -0.564826 0.747149 0.410371
v -0.663993 0.747149 0.215745
v -0.698164 0.747149 0.000001
v -0.663994 -0.427148 -0.215743
v -0.564827 -0.427148 -0.410371
v 0.000000 -0.427148 0.000001
v -0.410371 -0.427148 -0.564827
v -0.215745 -0.427148 -0.663994
v 0.000000 -0.427148 -0.698163
v 0.000000 -0.427148 0.698165
v -0.215744 -0.427148 0.663994
v -0.410370 -0.427148 0.564827
v -0.564826 -0.427148 0.410371
v -0.663993 -0.427148 0.215745
v -0.698164 -0.427148 0.000001
v -0.750481 0.448290 -0.243846
v -0.789102 0.448290 0.000001
v -0.750481 0.448290 0.243847
v -0.638397 0.448290 0.463823
v -0.463823 0.448290 0.638397
v -0.243846 0.448290 0.750480
v 0.000000 0.448290 0.789102
v 0.000000 0.448290 -0.789102
v -0.243846 0.448290 -0.750480
v -0.463823 0.448290 -0.638397
v -0.638397 0.448290 -0.463823
v -0.750481 0.627605 -0.243846
v -0.789102 0.627605 0.000001
v -0.750481 0.627605 0.243847
v -0.638397 0.627605 0.463823
v -0.463823 0.627605 0.638397
v -0.243846 0.627605 0.750480
v 0.000000 0.627605 0.789102
v 0.000000 0.627605 -0.789102
v -0.243846 0.627605 -0.750480
v -0.463823 0.627605 -0.638397
v -0.638397 0.627605 -0.463823
v -0.950007 0.448290 -0.243846
v -1.014832 0.448290 0.000001
v -0.950007 0.627605 -0.243846
v -1.014832 0.627605 0.000001
v -0.950007 0.448290 0.243847
v -0.950007 0.627605 0.243847
v 0.750481 -0.747149 -0.243846
v 0.638397 -0.747149 -0.463823
v 0.463823 -0.747149 -0.638397
v 0.243846 -0.747149 -0.750480
v 0.243846 -0.747149 0.750481
v 0.463822 -0.747149 0.638397
v 0.638397 -0.747149 0.463823
v 0.750481 -0.747149 0.243847
v 0.789102 -0.747149 0.000001
v 0.750481 0.747149 -0.243846
v 0.638397 0.747149 -0.463823
v 0.463823 0.747149 -0.638397
v 0.243846 0.747149 -0.750480
v 0.243846 0.747149 0.750480
v 0.463822 0.747149 0.638397
v 0.638397 0.747149 0.463823
v 0.750481 0.747149 0.243847
v 0.789102 0.747149 0.000001
v 0.663994 0.747149 -0.215745
v 0.564827 0.747149 -0.410371
v 0.410371 0.747149 -0.564827
v 0.215745 0.747149 -0.663994
v 0.215744 0.747149 0.663994
v 0.410370 0.747149 0.564827
v 0.564826 0.747149 0.410371
v 0.663993 0.747149 0.215745
v 0.698164 0.747149 0.000001
v 0.663994 -0.427148 -0.215743
v 0.564827 -0.427148 -0.410371
v 0.410371 -0.427148 -0.564827
v 0.215745 -0.427148 -0.663994
v 0.215744 -0.427148 0.663994
v 0.410370 -0.427148 0.564827
v 0.564826 -0.427148 0.410371
v 0.663993 -0.427148 0.215745
v 0.698164 -0.427148 0.000001
v 0.750481 0.448290 -0.243846
v 0.789102 0.448290 0.000001
v 0.750481 0.448290 0.243847
v 0.638397 0.448290 0.463823
v 0.463823 0.448290 0.638397
v 0.243846 0.448290 0.750480
v 0.243846 0.448290 -0.750480
v 0.463823 0.448290 -0.638397
v 0.638397 0.448290 -0.463823
v 0.750481 0.627605 -0.243846
v 0.789102 0.627605 0.000001
v 0.750481 0.627605 0.243847
v 0.638397 0.627605 0.463823
v 0.463823 0.627605 0.638397
v 0.243846 0.627605 0.750480
v 0.243846 0.627605 -0.750480
v 0.463823 0.627605 -0.638397
v 0.638397 0.627605 -0.463823
v 0.950007 0.448290 -0.243846
v 1.014832 0.448290 0.000001
v 0.950007 0.627605 -0.243846
v 1.014832 0.627605 0.000001
v 0.950007 0.448290 0.243847
v 0.950007 0.627605 0.243847
vt 0.728206 0.001804
vt 0.728206 0.241062
vt 0.684179 0.241062
vt 0.684179 0.001804
vt 0.649239 0.241062
vt 0.649239 0.001804
vt 0.812347 0.603940
vt 0.812347 0.364682
vt 0.856373 0.364682
vt 0.856373 0.603940
vt 0.905177 0.364682
vt 0.905177 0.603940
vt 0.713381 0.321661
vt 0.713381 0.560919
vt 0.664577 0.560919
vt 0.664577 0.321661
vt 0.620550 0.560919
vt 0.620550 0.321661
vt 0.904780 0.001804
vt 0.904780 0.241062
vt 0.869840 0.241062
vt 0.869840 0.001804
vt 0.825813 0.241062
vt 0.825813 0.001804
vt 0.777009 0.241062
vt 0.777009 0.001804
vt 0.032154 0.066906
vt 0.159925 0.159737
vt 0.009722 0.110933
vt 0.067094 0.031966
vt 0.111121 0.009534
vt 0.159925 0.001804
vt 0.111121 0.309940
vt 0.159925 0.317670
vt 0.067094 0.287507
vt 0.032155 0.252567
vt 0.009722 0.208541
vt 0.001992 0.159737
vt 0.080113 0.504573
vt 0.213006 0.461393
vt 0.099960 0.543526
vt 0.130874 0.574439
vt 0.169827 0.594287
vt 0.213006 0.601126
vt 0.213006 0.321661
vt 0.169827 0.328500
vt 0.130874 0.348348
vt 0.099960 0.379261
vt 0.080113 0.418214
vt 0.073274 0.461393
vt 0.333443 0.208541
vt 0.350753 0.202916
vt 0.370600 0.241869
vt 0.355875 0.252567
vt 0.401513 0.272783
vt 0.390815 0.287507
vt 0.440466 0.292630
vt 0.434842 0.309940
vt 0.483646 0.299469
vt 0.483646 0.317670
vt 0.483646 0.001804
vt 0.483646 0.020004
vt 0.440466 0.026843
vt 0.434842 0.009534
vt 0.401513 0.046691
vt 0.390815 0.031966
vt 0.370600 0.077604
vt 0.355876 0.066906
vt 0.350753 0.116557
vt 0.333443 0.110933
vt 0.343914 0.159737
vt 0.325713 0.159737
vt 0.158218 0.840144
vt 0.158217 0.605117
vt 0.197170 0.605117
vt 0.197170 0.840144
vt 0.228084 0.605117
vt 0.228084 0.840144
vt 0.236061 0.859752
vt 0.236061 0.624725
vt 0.275014 0.624725
vt 0.275014 0.859752
vt 0.318194 0.624725
vt 0.318194 0.859752
vt 0.489702 0.624725
vt 0.489702 0.859752
vt 0.446522 0.859752
vt 0.446522 0.624725
vt 0.407569 0.859752
vt 0.407569 0.624725
vt 0.001992 0.840144
vt 0.001992 0.605117
vt 0.032905 0.605117
vt 0.032905 0.840144
vt 0.071858 0.605117
vt 0.071858 0.840144
vt 0.115038 0.605117
vt 0.115038 0.840144
vt 0.812951 0.656736
vt 0.848840 0.656736
vt 0.848840 0.705540
vt 0.812951 0.705540
vt 0.812951 0.607932
vt 0.848840 0.607932
vt 0.869840 0.276951
vt 0.825813 0.276951
vt 0.904780 0.276951
vt 0.664577 0.596808
vt 0.620550 0.596808
vt 0.713381 0.596808
vt 0.856373 0.328793
vt 0.905177 0.328793
vt 0.812347 0.328793
vt 0.684179 0.276951
vt 0.649239 0.276951
vt 0.728206 0.276951
vt 0.777009 0.276951
vt 0.777009 0.300876
vt 0.728206 0.300876
vt 0.825813 0.300876
vt 0.869840 0.300876
vt 0.904780 0.300876
vt 0.664577 0.620734
vt 0.620550 0.620734
vt 0.713381 0.620734
vt 0.856373 0.304868
vt 0.905177 0.304868
vt 0.812347 0.304868
vt 0.684179 0.300876
vt 0.649239 0.300876
vt 0.901006 0.656736
vt 0.855828 0.656736
vt 0.868802 0.607932
vt 0.908736 0.607932
vt 0.837897 0.863743
vt 0.837897 0.903677
vt 0.802009 0.903677
vt 0.802009 0.863743
vt 0.969153 0.705540
vt 0.929220 0.705540
vt 0.916245 0.656736
vt 0.961424 0.656736
vt 0.908736 0.705540
vt 0.868802 0.705540
vt 0.929220 0.607932
vt 0.969153 0.607932
vt 0.795873 0.863743
vt 0.795873 0.903677
vt 0.759985 0.903677
vt 0.759985 0.863743
vt 0.535448 0.321661
vt 0.579475 0.321661
vt 0.579475 0.560919
vt 0.535448 0.560919
vt 0.614415 0.321661
vt 0.614415 0.560919
vt 0.998008 0.603940
vt 0.953981 0.603940
vt 0.953981 0.364682
vt 0.998008 0.364682
vt 0.762185 0.321661
vt 0.762185 0.560919
vt 0.806211 0.321661
vt 0.806211 0.560919
vt 0.358874 0.321661
vt 0.393814 0.321661
vt 0.393814 0.560919
vt 0.358874 0.560919
vt 0.437840 0.321661
vt 0.437840 0.560919
vt 0.486644 0.321661
vt 0.486644 0.560919
vt 0.287695 0.066906
vt 0.310128 0.110933
vt 0.252756 0.031966
vt 0.208729 0.009534
vt 0.208729 0.309940
vt 0.252755 0.287507
vt 0.287695 0.252567
vt 0.310128 0.208541
vt 0.317858 0.159737
vt 0.345900 0.504573
vt 0.326052 0.543526
vt 0.295139 0.574439
vt 0.256186 0.594287
vt 0.256186 0.328500
vt 0.295139 0.348348
vt 0.326052 0.379261
vt 0.345900 0.418214
vt 0.352738 0.461393
vt 0.633849 0.208541
vt 0.611416 0.252567
vt 0.596692 0.241869
vt 0.616539 0.202916
vt 0.576477 0.287507
vt 0.565779 0.272783
vt 0.532450 0.309940
vt 0.526826 0.292630
vt 0.532450 0.009534
vt 0.526826 0.026843
vt 0.576477 0.031966
vt 0.565778 0.046691
vt 0.611416 0.066906
vt 0.596692 0.077604
vt 0.633849 0.110933
vt 0.616539 0.116557
vt 0.641579 0.159737
vt 0.623378 0.159737
vt 0.648943 0.859752
vt 0.609990 0.859752
vt 0.609990 0.624725
vt 0.648943 0.624725
vt 0.579077 0.859752
vt 0.579077 0.624725
vt 0.400326 0.859752
vt 0.361373 0.859752
vt 0.361373 0.624725
vt 0.400326 0.624725
vt 0.532881 0.624725
vt 0.532881 0.859752
vt 0.571834 0.624725
vt 0.571834 0.859752
vt 0.805168 0.859752
vt 0.774255 0.859752
vt 0.774255 0.624725
vt 0.805168 0.624725
vt 0.735302 0.859752
vt 0.735302 0.624725
vt 0.692123 0.859752
vt 0.692123 0.624725
vt 0.962119 0.758335
vt 0.962119 0.709531
vt 0.998008 0.709531
vt 0.998008 0.758335
vt 0.962119 0.807139
vt 0.998008 0.807139
vt 0.437840 0.596808
vt 0.393814 0.596808
vt 0.358874 0.596808
vt 0.806211 0.596808
vt 0.762185 0.596808
vt 0.953981 0.328793
vt 0.998008 0.328793
vt 0.614415 0.596808
vt 0.579475 0.596808
vt 0.535448 0.596808
vt 0.486644 0.596808
vt 0.535448 0.620734
vt 0.486644 0.620734
vt 0.437840 0.620734
vt 0.393814 0.620734
vt 0.358874 0.620734
vt 0.806211 0.620734
vt 0.762185 0.620734
vt 0.953981 0.304868
vt 0.998008 0.304868
vt 0.614415 0.620734
vt 0.579475 0.620734
vt 0.910806 0.758335
vt 0.903076 0.709531
vt 0.943010 0.709531
vt 0.955984 0.758335
vt 0.753849 0.903677
vt 0.717961 0.903677
vt 0.717961 0.863743
vt 0.753849 0.863743
vt 0.844033 0.807139
vt 0.851762 0.758335
vt 0.896941 0.758335
vt 0.883966 0.807139
vt 0.903076 0.807139
vt 0.943010 0.807139
vt 0.844033 0.709531
vt 0.883966 0.709531
vt 0.711825 0.903677
vt 0.675937 0.903677
vt 0.675937 0.863743
vt 0.711825 0.863743
vn -0.951057 0.000000 -0.309016
vn -0.947584 0.000000 -0.319506
vn -0.809017 0.000000 -0.587785
vn -0.809017 0.000000 -0.587785
vn -0.809017 0.000000 -0.587785
vn -0.809017 0.000000 -0.587785
vn -0.587785 0.000000 -0.809017
vn -0.587785 0.000000 -0.809017
vn -0.587785 0.000000 -0.809017
vn -0.587785 0.000000 -0.809017
vn -0.309017 0.000000 -0.951057
vn -0.309017 0.000000 -0.951057
vn -0.309017 0.000000 -0.951057
vn -0.309017 0.000000 -0.951057
vn 0.000000 0.000000 -1.000000
vn 0.000000 0.000000 -1.000000
vn 0.000000 0.000000 1.000000
vn 0.000000 0.000000 1.000000
vn -0.309017 0.000000 0.951056
vn -0.309017 0.000000 0.951056
vn -0.309017 0.000000 0.951056
vn -0.309017 0.000000 0.951056
vn -0.587785 0.000000 0.809017
vn -0.587785 0.000000 0.809017
vn -0.587785 0.000000 0.809017
vn -0.587785 0.000000 0.809017
vn -0.809017 0.000000 0.587785
vn -0.809017 0.000000 0.587785
vn -0.809017 0.000000 0.587785
vn -0.809017 0.000000 0.587785
vn -0.947584 0.000000 0.319507
vn -0.951057 0.000000 0.309017
vn -0.951057 0.000000 0.309017
vn -0.947584 0.000000 0.319507
vn -1.000000 0.000000 0.000001
vn -1.000000 0.000000 0.000001
vn -1.000000 0.000000 0.000001
vn -1.000000 0.000000 0.000001
vn -0.947584 0.000000 -0.319506
vn -0.951057 0.000000 -0.309016
vn 0.000000 -1.000000 0.000000
vn 0.000000 -1.000000 0.000000
vn 0.000000 -1.000000 0.000000
vn 0.000000 -1.000000 0.000000
vn 0.000000 -1.000000 0.000000
vn 0.000000 -1.000000 0.000000
vn 0.000000 -1.000000 0.000000
vn 0.000000 -1.000000 0.000000
vn 0.000000 -1.000000 0.000000
vn 0.000000 -1.000000 0.000000
vn 0.000000 -1.000000 0.000000
vn 0.000000 -1.000000 0.000000
vn 0.000000 -1.000000 0.000000
vn 0.000000 -1.000000 0.000000
vn 0.000000 -1.000000 0.000000
vn 0.000000 -1.000000 0.000000
vn 0.000000 -1.000000 0.000000
vn 0.000000 -1.000000 0.000000
vn 0.000000 -1.000000 0.000000
vn 0.000000 -1.000000 0.000000
vn 0.000000 -1.000000 0.000000
vn 0.000000 -1.000000 0.000000
vn 0.000000 -1.000000 0.000000
vn 0.000000 -1.000000 0.000000
vn 0.000000 -1.000000 0.000000
vn 0.000000 -1.000000 0.000000
vn 0.000000 -1.000000 0.000000
vn 0.000000 -1.000000 0.000000
vn 0.000000 -1.000000 0.000000
vn 0.000000 -1.000000 0.000000
vn 0.000000 1.000000 0.000000
vn 0.000000 1.000000 0.000000
vn 0.000000 1.000000 0.000000
vn 0.000000 1.000000 0.000000
vn 0.000000 1.000000 0.000000
vn 0.000000 1.000000 0.000000
vn 0.000000 1.000000 0.000000
vn 0.000000 1.000000 0.000000
vn 0.000000 1.000000 0.000000
vn 0.000000 1.000000 0.000000
vn 0.000000 1.000000 0.000000
vn 0.000000 1.000000 0.000000
vn 0.000000 1.000000 0.000000
vn 0.000000 1.000000 0.000000
vn 0.000000 1.000000 0.000000
vn 0.000000 1.000000 0.000000
vn 0.000000 1.000000 0.000000
vn 0.000000 1.000000 0.000000
vn 0.000000 1.000000 0.000000
vn 0.000000 1.000000 0.000000
vn 0.000000 1.000000 0.000000
vn 0.000000 1.000000 0.000000
vn 0.000000 1.000000 0.000000
vn 0.000000 1.000000 0.000000
vn 0.000000 1.000000 0.000000
vn 0.000000 1.000000 0.000000
vn 0.000000 1.000000 0.000000
vn 0.000000 1.000000 0.000000
vn 0.000000 1.000000 0.000000
vn 0.000000 1.000000 0.000000
vn 0.000000 1.000000 -0.000001
vn 0.000000 1.000000 -0.000001
vn 0.000000 1.000000 -0.000001
vn 0.000000 1.000000 -0.000001
vn 0.000000 1.000000 0.000001
vn 0.000000 1.000000 0.000001
vn 0.000000 1.000000 0.000001
vn 0.000000 1.000000 0.000001
vn 0.000000 1.000000 0.000001
vn 0.000000 1.000000 0.000001
vn 0.000000 1.000000 0.000001
vn 0.000000 1.000000 0.000001
vn 0.000000 1.000000 0.000000
vn 0.000000 1.000000 0.000000
vn 0.000000 1.000000 0.000000
vn 0.000000 1.000000 0.000000
vn 0.000000 1.000000 0.000000
vn 0.000000 1.000000 0.000000
vn 0.000000 1.000000 0.000000
vn 0.000000 1.000000 0.000000
vn 0.000000 1.000000 0.000001
vn 0.000000 1.000000 0.000001
vn 0.000000 1.000000 0.000001
vn 0.000000 1.000000 0.000001
vn 0.000000 1.000000 0.000000
vn 0.000000 1.000000 0.000000
vn 0.000000 1.000000 0.000000
vn 0.000000 1.000000 0.000000
vn 0.000000 1.000000 0.000000
vn 0.000000 1.000000 0.000000
vn 0.000000 1.000000 0.000000
vn 0.000000 1.000000 0.000000
vn 0.000000 1.000000 0.000000
vn 0.000000 1.000000 0.000000
vn 0.000000 1.000000 0.000000
vn 0.000000 1.000000 0.000000
vn 0.000000 1.000000 0.000000
vn 0.000000 1.000000 0.000000
vn 0.000000 1.000000 0.000000
vn 0.000000 1.000000 0.000000
vn 0.951057 0.000000 0.309016
vn 0.951057 0.000000 0.309016
vn 0.809017 0.000000 0.587785
vn 0.809017 0.000000 0.587785
vn 0.809017 0.000000 0.587785
vn 0.809017 0.000000 0.587785
vn 0.587785 0.000000 0.809017
vn 0.587785 0.000000 0.809017
vn 0.587785 0.000000 0.809017
vn 0.587785 0.000000 0.809017
vn 0.309017 0.000000 0.951057
vn 0.309017 0.000000 0.951057
vn 0.309017 0.000000 0.951057
vn 0.309017 0.000000 0.951057
vn 0.000000 0.000000 1.000000
vn 0.000000 0.000000 1.000000
vn 0.000000 0.000000 -1.000000
vn 0.000000 0.000000 -1.000000
vn 0.309017 0.000000 -0.951057
vn 0.309017 0.000000 -0.951057
vn 0.309017 0.000000 -0.951057
vn 0.309017 0.000000 -0.951057
vn 0.587786 0.000000 -0.809017
vn 0.587786 0.000000 -0.809017
vn 0.587786 0.000000 -0.809017
vn 0.587786 0.000000 -0.809017
vn 0.809017 0.000000 -0.587785
vn 0.809017 0.000000 -0.587785
vn 0.809017 0.000000 -0.587785
vn 0.809017 0.000000 -0.587785
vn 0.951056 0.000000 -0.309017
vn 0.951056 0.000000 -0.309017
vn 0.951056 0.000000 -0.309017
vn 0.951056 0.000000 -0.309017
vn 1.000000 0.000000 -0.000001
vn 1.000000 0.000000 -0.000001
vn 1.000000 0.000000 -0.000001
vn 1.000000 0.000000 -0.000001
vn 0.951057 0.000000 0.309016
vn 0.951057 0.000000 0.309016
vn -1.000000 0.000000 -0.000000
vn -1.000000 0.000000 -0.000000
vn -0.966432 0.000000 -0.256921
vn -0.966432 0.000000 -0.256921
vn -0.966432 0.000000 0.256921
vn -0.966432 0.000000 0.256921
vn -1.000000 0.000000 -0.000000
vn -1.000000 0.000000 -0.000000
vn -0.809017 0.000000 0.587785
vn -0.809017 0.000000 0.587785
vn -0.927945 -0.000001 0.372716
vn -0.947584 0.000000 0.319507
vn -0.587785 0.000000 0.809017
vn -0.587785 0.000000 0.809017
vn -0.809017 0.000000 0.587785
vn -0.809017 0.000000 0.587785
vn -0.309017 0.000000 0.951056
vn -0.309017 0.000000 0.951057
vn -0.587785 0.000000 0.809017
vn -0.587785 0.000000 0.809017
vn 0.000000 0.000000 1.000000
vn 0.000000 0.000000 1.000000
vn -0.309017 0.000000 0.951057
vn -0.309017 0.000000 0.951056
vn -0.309017 0.000000 -0.951057
vn -0.309017 0.000000 -0.951057
vn 0.000000 0.000000 -1.000000
vn 0.000000 0.000000 -1.000000
vn -0.587785 0.000000 -0.809017
vn -0.587785 0.000000 -0.809017
vn -0.309017 0.000000 -0.951057
vn -0.309017 0.000000 -0.951057
vn -0.809017 0.000000 -0.587785
vn -0.809017 0.000000 -0.587785
vn -0.587785 0.000000 -0.809017
vn -0.587785 0.000000 -0.809017
vn -0.947584 0.000000 -0.319506
vn -0.927946 0.000000 -0.372716
vn -0.809017 0.000000 -0.587785
vn -0.809017 0.000000 -0.587785
vn -1.000000 -0.000001 0.000001
vn -1.000000 -0.000001 0.000001
vn -0.951057 -0.000001 -0.309016
vn -0.927946 0.000000 -0.372716
vn -0.927945 -0.000001 0.372716
vn -0.951057 -0.000001 0.309017
vn -1.000000 -0.000001 0.000001
vn -1.000000 -0.000001 0.000001
vn -0.809017 0.000000 0.587785
vn -0.809017 -0.000001 0.587785
vn -0.951057 -0.000001 0.309017
vn -0.927945 -0.000001 0.372716
vn -0.587785 0.000000 0.809017
vn -0.587785 0.000000 0.809017
vn -0.809017 -0.000001 0.587785
vn -0.809017 0.000000 0.587785
vn -0.309017 0.000000 0.951057
vn -0.309017 0.000000 0.951057
vn -0.587785 0.000000 0.809017
vn -0.587785 0.000000 0.809017
vn 0.000000 0.000000 1.000000
vn 0.000000 0.000000 1.000000
vn -0.309017 0.000000 0.951057
vn -0.309017 0.000000 0.951057
vn -0.309017 0.000000 -0.951057
vn -0.309017 0.000000 -0.951057
vn 0.000000 0.000000 -1.000000
vn 0.000000 0.000000 -1.000000
vn -0.587785 0.000000 -0.809017
vn -0.587785 0.000000 -0.809017
vn -0.309017 0.000000 -0.951057
vn -0.309017 0.000000 -0.951057
vn -0.809017 0.000000 -0.587785
vn -0.809017 0.000000 -0.587785
vn -0.587785 0.000000 -0.809017
vn -0.587785 0.000000 -0.809017
vn -0.927946 0.000000 -0.372716
vn -0.951057 -0.000001 -0.309016
vn -0.809017 0.000000 -0.587785
vn -0.809017 0.000000 -0.587785
vn 0.000000 -1.000000 0.000000
vn 0.000000 -1.000000 0.000000
vn 0.000000 -1.000000 0.000001
vn 0.000000 -1.000000 0.000001
vn 0.000000 0.000000 -1.000000
vn 0.000000 0.000000 -1.000000
vn 0.000000 0.000000 -1.000000
vn 0.000000 0.000000 -1.000000
vn 0.000000 1.000000 0.000000
vn 0.000000 1.000000 0.000000
vn 0.000000 1.000000 0.000000
vn 0.000000 1.000000 0.000000
vn 0.000000 -1.000000 0.000000
vn 0.000000 -1.000000 0.000000
vn 0.000000 -1.000000 0.000000
vn 0.000000 -1.000000 0.000000
vn 0.000000 1.000000 0.000000
vn 0.000000 1.000000 0.000000
vn 0.000000 1.000000 -0.000001
vn 0.000000 1.000000 -0.000001
vn 0.000000 -0.000000 1.000000
vn 0.000000 -0.000000 1.000000
vn 0.000000 -0.000000 1.000000
vn 0.000000 -0.000000 1.000000
vn 0.951057 0.000000 -0.309016
vn 0.809017 0.000000 -0.587785
vn 0.809017 0.000000 -0.587785
vn 0.947584 0.000000 -0.319506
vn 0.809017 0.000000 -0.587785
vn 0.587785 0.000000 -0.809017
vn 0.587785 0.000000 -0.809017
vn 0.809017 0.000000 -0.587785
vn 0.587785 0.000000 -0.809017
vn 0.309017 0.000000 -0.951057
vn 0.309017 0.000000 -0.951057
vn 0.587785 0.000000 -0.809017
vn 0.309017 0.000000 -0.951057
vn 0.000000 0.000000 -1.000000
vn 0.000000 0.000000 -1.000000
vn 0.309017 0.000000 -0.951057
vn 0.000000 0.000000 1.000000
vn 0.309017 0.000000 0.951056
vn 0.309017 0.000000 0.951056
vn 0.000000 0.000000 1.000000
vn 0.309017 0.000000 0.951056
vn 0.587785 0.000000 0.809017
vn 0.587785 0.000000 0.809017
vn 0.309017 0.000000 0.951056
vn 0.587785 0.000000 0.809017
vn 0.809017 0.000000 0.587785
vn 0.809017 0.000000 0.587785
vn 0.587785 0.000000 0.809017
vn 0.809017 0.000000 0.587785
vn 0.951057 -0.000000 0.309017
vn 0.947584 -0.000000 0.319507
vn 0.809017 0.000000 0.587785
vn 0.951057 -0.000000 0.309017
vn 1.000000 -0.000000 0.000001
vn 1.000000 -0.000000 0.000001
vn 0.947584 -0.000000 0.319507
vn 1.000000 -0.000000 0.000001
vn 0.951057 0.000000 -0.309016
vn 0.947584 0.000000 -0.319506
vn 1.000000 -0.000000 0.000001
vn 0.000000 -1.000000 0.000000
vn 0.000000 -1.000000 0.000000
vn 0.000000 -1.000000 0.000000
vn 0.000000 -1.000000 0.000000
vn 0.000000 -1.000000 0.000000
vn 0.000000 -1.000000 0.000000
vn 0.000000 -1.000000 0.000000
vn 0.000000 -1.000000 0.000000
vn 0.000000 -1.000000 0.000000
vn 0.000000 -1.000000 0.000000
vn 0.000000 -1.000000 0.000000
vn 0.000000 -1.000000 0.000000
vn 0.000000 -1.000000 0.000000
vn 0.000000 -1.000000 0.000000
vn 0.000000 -1.000000 0.000000
vn 0.000000 -1.000000 0.000000
vn 0.000000 -1.000000 0.000000
vn 0.000000 -1.000000 0.000000
vn 0.000000 -1.000000 0.000000
vn 0.000000 -1.000000 0.000000
vn 0.000000 -1.000000 0.000000
vn 0.000000 -1.000000 0.000000
vn 0.000000 -1.000000 0.000000
vn 0.000000 -1.000000 0.000000
vn 0.000000 -1.000000 0.000000
vn 0.000000 -1.000000 0.000000
vn 0.000000 -1.000000 0.000000
vn 0.000000 -1.000000 0.000000
vn 0.000000 -1.000000 0.000000
vn 0.000000 -1.000000 0.000000
vn 0.000000 1.000000 0.000000
vn 0.000000 1.000000 0.000000
vn 0.000000 1.000000 0.000000
vn 0.000000 1.000000 0.000000
vn 0.000000 1.000000 0.000000
vn 0.000000 1.000000 0.000000
vn 0.000000 1.000000 0.000000
vn 0.000000 1.000000 0.000000
vn 0.000000 1.000000 0.000000
vn 0.000000 1.000000 0.000000
vn 0.000000 1.000000 0.000000
vn 0.000000 1.000000 0.000000
vn 0.000000 1.000000 0.000000
vn 0.000000 1.000000 0.000000
vn 0.000000 1.000000 0.000000
vn 0.000000 1.000000 0.000000
vn 0.000000 1.000000 0.000000
vn 0.000000 1.000000 0.000000
vn 0.000000 1.000000 0.000000
vn 0.000000 1.000000 0.000000
vn 0.000000 1.000000 0.000000
vn 0.000000 1.000000 0.000000
vn 0.000000 1.000000 0.000000
vn 0.000000 1.000000 0.000000
vn 0.000000 1.000000 0.000000
vn 0.000000 1.000000 0.000000
vn 0.000000 1.000000 0.000000
vn 0.000000 1.000000 0.000000
vn 0.000000 1.000000 0.000000
vn 0.000000 1.000000 0.000000
vn 0.000000 1.000000 0.000001
vn 0.000000 1.000000 0.000001
vn 0.000000 1.000000 0.000001
vn 0.000000 1.000000 0.000001
vn 0.000000 1.000000 0.000001
vn 0.000000 1.000000 0.000001
vn 0.000000 1.000000 0.000001
vn 0.000000 1.000000 0.000001
vn 0.000000 1.000000 0.000001
vn 0.000000 1.000000 0.000001
vn 0.000000 1.000000 0.000001
vn 0.000000 1.000000 0.000001
vn 0.000000 1.000000 0.000000
vn 0.000000 1.000000 0.000000
vn 0.000000 1.000000 0.000000
vn 0.000000 1.000000 0.000000
vn 0.000000 1.000000 0.000000
vn 0.000000 1.000000 0.000000
vn 0.000000 1.000000 0.000000
vn 0.000000 1.000000 0.000000
vn 0.000000 1.000000 0.000001
vn 0.000000 1.000000 0.000001
vn 0.000000 1.000000 0.000001
vn 0.000000 1.000000 0.000001
vn 0.000000 1.000000 0.000000
vn 0.000000 1.000000 0.000000
vn 0.000000 1.000000 0.000000
vn 0.000000 1.000000 0.000000
vn 0.000000 1.000000 0.000000
vn 0.000000 1.000000 0.000000
vn 0.000000 1.000000 0.000000
vn 0.000000 1.000000 0.000000
vn 0.000000 1.000000 0.000000
vn 0.000000 1.000000 0.000000
vn 0.000000 1.000000 0.000000
vn 0.000000 1.000000 0.000000
vn 0.000000 1.000000 0.000000
vn 0.000000 1.000000 0.000000
vn 0.000000 1.000000 0.000000
vn 0.000000 1.000000 0.000000
vn -0.951057 0.000000 0.309016
vn -0.809017 0.000000 0.587785
vn -0.809017 0.000000 0.587785
vn -0.951057 0.000000 0.309016
vn -0.809017 0.000000 0.587785
vn -0.587785 0.000000 0.809017
vn -0.587785 0.000000 0.809017
vn -0.809017 0.000000 0.587785
vn -0.587785 0.000000 0.809017
vn -0.309017 0.000000 0.951057
vn -0.309017 0.000000 0.951057
vn -0.587785 0.000000 0.809017
vn -0.309017 0.000000 0.951057
vn 0.000000 0.000000 1.000000
vn 0.000000 0.000000 1.000000
vn -0.309017 0.000000 0.951057
vn 0.000000 0.000000 -1.000000
vn -0.309017 0.000000 -0.951057
vn -0.309017 0.000000 -0.951057
vn 0.000000 0.000000 -1.000000
vn -0.309017 0.000000 -0.951057
vn -0.587786 0.000000 -0.809017
vn -0.587786 0.000000 -0.809017
vn -0.309017 0.000000 -0.951057
vn -0.587786 0.000000 -0.809017
vn -0.809017 0.000000 -0.587785
vn -0.809017 0.000000 -0.587785
vn -0.587786 0.000000 -0.809017
vn -0.809017 0.000000 -0.587785
vn -0.951056 0.000000 -0.309017
vn -0.951056 0.000000 -0.309017
vn -0.809017 0.000000 -0.587785
vn -0.951056 0.000000 -0.309017
vn -1.000000 0.000000 -0.000001
vn -1.000000 0.000000 -0.000001
vn -0.951056 0.000000 -0.309017
vn -1.000000 0.000000 -0.000001
vn -0.951057 0.000000 0.309016
vn -0.951057 0.000000 0.309016
vn -1.000000 0.000000 -0.000001
vn 1.000000 0.000000 0.000000
vn 0.966432 0.000000 -0.256921
vn 0.966432 0.000000 -0.256921
vn 1.000000 0.000000 0.000000
vn 0.966432 0.000000 0.256921
vn 1.000000 0.000000 0.000000
vn 1.000000 0.000000 0.000000
vn 0.966432 0.000000 0.256921
vn 0.809017 0.000000 0.587785
vn 0.947584 -0.000000 0.319507
vn 0.927945 -0.000001 0.372716
vn 0.809017 -0.000000 0.587785
vn 0.587785 0.000000 0.809017
vn 0.809017 0.000000 0.587785
vn 0.809017 -0.000000 0.587785
vn 0.587785 0.000000 0.809017
vn 0.309017 0.000000 0.951056
vn 0.587785 0.000000 0.809017
vn 0.587785 0.000000 0.809017
vn 0.309017 0.000000 0.951057
vn 0.000000 0.000000 1.000000
vn 0.309017 0.000000 0.951056
vn 0.309017 0.000000 0.951057
vn 0.000000 0.000000 1.000000
vn 0.309017 0.000000 -0.951057
vn 0.000000 0.000000 -1.000000
vn 0.000000 0.000000 -1.000000
vn 0.309017 0.000000 -0.951057
vn 0.587785 0.000000 -0.809017
vn 0.309017 0.000000 -0.951057
vn 0.309017 0.000000 -0.951057
vn 0.587785 0.000000 -0.809017
vn 0.809017 0.000000 -0.587785
vn 0.587785 0.000000 -0.809017
vn 0.587785 0.000000 -0.809017
vn 0.809017 0.000000 -0.587785
vn 0.947584 0.000000 -0.319506
vn 0.809017 0.000000 -0.587785
vn 0.809017 0.000000 -0.587785
vn 0.927945 0.000000 -0.372716
vn 1.000000 -0.000001 0.000001
vn 0.927945 0.000000 -0.372716
vn 0.951057 0.000000 -0.309016
vn 1.000000 -0.000001 0.000001
vn 0.927945 -0.000001 0.372716
vn 1.000000 -0.000001 0.000001
vn 1.000000 -0.000001 0.000001
vn 0.951057 -0.000001 0.309017
vn 0.809017 -0.000000 0.587785
vn 0.927945 -0.000001 0.372716
vn 0.951057 -0.000001 0.309017
vn 0.809017 -0.000000 0.587785
vn 0.587785 0.000000 0.809017
vn 0.809017 -0.000000 0.587785
vn 0.809017 -0.000000 0.587785
vn 0.587785 -0.000000 0.809017
vn 0.309017 0.000000 0.951057
vn 0.587785 0.000000 0.809017
vn 0.587785 -0.000000 0.809017
vn 0.309017 0.000000 0.951056
vn 0.000000 0.000000 1.000000
vn 0.309017 0.000000 0.951057
vn 0.309017 0.000000 0.951056
vn 0.000000 0.000000 1.000000
vn 0.309017 0.000000 -0.951057
vn 0.000000 0.000000 -1.000000
vn 0.000000 0.000000 -1.000000
vn 0.309017 0.000000 -0.951057
vn 0.587785 0.000000 -0.809017
vn 0.309017 0.000000 -0.951057
vn 0.309017 0.000000 -0.951057
vn 0.587785 0.000000 -0.809017
vn 0.809017 0.000000 -0.587785
vn 0.587785 0.000000 -0.809017
vn 0.587785 0.000000 -0.809017
vn 0.809017 0.000000 -0.587785
vn 0.927945 0.000000 -0.372716
vn 0.809017 0.000000 -0.587785
vn 0.809017 0.000000 -0.587785
vn 0.951057 0.000000 -0.309016
vn 0.000000 -1.000000 0.000000
vn 0.000000 -1.000000 0.000001
vn 0.000000 -1.000000 0.000001
vn 0.000000 -1.000000 0.000000
vn 0.000000 0.000000 -1.000000
vn 0.000000 0.000000 -1.000000
vn 0.000000 0.000000 -1.000000
vn 0.000000 0.000000 -1.000000
vn 0.000000 1.000000 0.000000
vn 0.000000 1.000000 0.000000
vn 0.000000 1.000000 0.000000
vn 0.000000 1.000000 0.000000
vn 0.000000 -1.000000 -0.000001
vn 0.000000 -1.000000 0.000000
vn 0.000000 -1.000000 0.000000
vn 0.000000 -1.000000 -0.000001
vn 0.000000 1.000000 0.000000
vn 0.000000 1.000000 -0.000001
vn 0.000000 1.000000 -0.000001
vn 0.000000 1.000000 0.000000
vn 0.000000 0.000000 1.000000
vn 0.000000 0.000000 1.000000
vn 0.000000 0.000000 1.000000
vn 0.000000 0.000000 1.000000
s off
g Pot:pCylinder9
usemtl lambert2SG
f 1/1/1 47/2/2 57/3/3 2/4/4
f 2/4/5 57/3/6 56/5/7 3/6/8
f 3/7/9 56/8/10 55/9/11 4/10/12
f 4/10/13 55/9/14 54/11/15 5/12/16
f 6/13/17 53/14/18 52/15/19 7/16/20
f 7/16/21 52/15/22 51/17/23 8/18/24
f 8/19/25 51/20/26 50/21/27 9/22/28
f 9/22/29 50/21/30 49/23/31 10/24/32
f 10/24/33 49/23/34 48/25/35 11/26/36
f 11/26/37 48/25/38 47/2/39 1/1/40
f 2/27/41 23/28/42 1/29/43
f 3/30/44 23/28/45 2/27/46
f 4/31/47 23/28/48 3/30/49
f 5/32/50 23/28/51 4/31/52
f 7/33/53 23/28/54 6/34/55
f 8/35/56 23/28/57 7/33/58
f 9/36/59 23/28/60 8/35/61
f 10/37/62 23/28/63 9/36/64
f 11/38/65 23/28/66 10/37/67
f 1/29/68 23/28/69 11/38/70
f 35/39/71 37/40/72 36/41/73
f 36/41/74 37/40/75 38/42/76
f 38/42/77 37/40/78 39/43/79
f 39/43/80 37/40/81 40/44/82
f 41/45/83 37/40/84 42/46/85
f 42/46/86 37/40/87 43/47/88
f 43/47/89 37/40/90 44/48/91
f 44/48/92 37/40/93 45/49/94
f 45/49/95 37/40/96 46/50/97
f 46/50/98 37/40/99 35/39/100
f 12/51/101 24/52/102 25/53/103 13/54/104
f 13/54/105 25/53/106 26/55/107 14/56/108
f 14/56/109 26/55/110 27/57/111 15/58/112
f 15/58/113 27/57/114 28/59/115 16/60/116
f 17/61/117 29/62/118 30/63/119 18/64/120
f 18/64/121 30/63/122 31/65/123 19/66/124
f 19/66/125 31/65/126 32/67/127 20/68/128
f 20/68/129 32/67/130 33/69/131 21/70/132
f 21/70/133 33/69/134 34/71/135 22/72/136
f 22/72/137 34/71/138 24/52/139 12/51/140
f 24/73/141 35/74/142 36/75/143 25/76/144
f 25/76/145 36/75/146 38/77/147 26/78/148
f 26/79/149 38/80/150 39/81/151 27/82/152
f 27/82/153 39/81/154 40/83/155 28/84/156
f 29/85/157 41/86/158 42/87/159 30/88/160
f 30/88/161 42/87/162 43/89/163 31/90/164
f 31/91/165 43/92/166 44/93/167 32/94/168
f 32/94/169 44/93/170 45/95/171 33/96/172
f 33/96/173 45/95/174 46/97/175 34/98/176
f 34/98/177 46/97/178 35/74/179 24/73/180
f 70/99/181 72/100/182 71/101/183 69/102/184
f 73/103/185 74/104/186 72/100/187 70/99/188
f 50/21/189 61/105/190 60/106/191 49/23/192
f 51/20/193 62/107/194 61/105/195 50/21/196
f 52/15/197 63/108/198 62/109/199 51/17/200
f 53/14/201 64/110/202 63/108/203 52/15/204
f 55/9/205 66/111/206 65/112/207 54/11/208
f 56/8/209 67/113/210 66/111/211 55/9/212
f 57/3/213 68/114/214 67/115/215 56/5/216
f 47/2/217 58/116/218 68/114/219 57/3/220
f 59/117/221 22/118/222 12/119/223 58/116/224
f 60/106/225 21/120/226 22/118/227 59/117/228
f 61/105/229 20/121/230 21/120/231 60/106/232
f 62/107/233 19/122/234 20/121/235 61/105/236
f 63/108/237 18/123/238 19/124/239 62/109/240
f 64/110/241 17/125/242 18/123/243 63/108/244
f 66/111/245 15/126/246 16/127/247 65/112/248
f 67/113/249 14/128/250 15/126/251 66/111/252
f 68/114/253 13/129/254 14/130/255 67/115/256
f 58/116/257 12/119/258 13/129/259 68/114/260
f 48/131/261 70/132/262 69/133/263 47/134/264
f 47/135/265 69/136/266 71/137/267 58/138/268
f 58/139/269 71/140/270 72/141/271 59/142/272
f 49/143/273 73/144/274 70/132/275 48/131/276
f 59/142/277 72/141/278 74/145/279 60/146/280
f 60/147/281 74/148/282 73/149/283 49/150/284
f 75/151/285 76/152/286 119/153/287 111/154/288
f 76/152/289 77/155/290 118/156/291 119/153/292
f 77/157/293 78/158/294 117/159/295 118/160/296
f 78/158/297 5/12/298 54/11/299 117/159/300
f 6/13/301 79/161/302 116/162/303 53/14/304
f 79/161/305 80/163/306 115/164/307 116/162/308
f 80/165/309 81/166/310 114/167/311 115/168/312
f 81/166/313 82/169/314 113/170/315 114/167/316
f 82/169/317 83/171/318 112/172/319 113/170/320
f 83/171/321 75/151/322 111/154/323 112/172/324
f 76/173/325 75/174/326 23/28/327
f 77/175/328 76/173/329 23/28/330
f 78/176/331 77/175/332 23/28/333
f 5/32/334 78/176/335 23/28/336
f 79/177/337 6/34/338 23/28/339
f 80/178/340 79/177/341 23/28/342
f 81/179/343 80/178/344 23/28/345
f 82/180/346 81/179/347 23/28/348
f 83/181/349 82/180/350 23/28/351
f 75/174/352 83/181/353 23/28/354
f 102/182/355 103/183/356 37/40/357
f 103/183/358 104/184/359 37/40/360
f 104/184/361 105/185/362 37/40/363
f 105/185/364 40/44/365 37/40/366
f 41/45/367 106/186/368 37/40/369
f 106/186/370 107/187/371 37/40/372
f 107/187/373 108/188/374 37/40/375
f 108/188/376 109/189/377 37/40/378
f 109/189/379 110/190/380 37/40/381
f 110/190/382 102/182/383 37/40/384
f 84/191/385 85/192/386 94/193/387 93/194/388
f 85/192/389 86/195/390 95/196/391 94/193/392
f 86/195/393 87/197/394 96/198/395 95/196/396
f 87/197/397 16/60/398 28/59/399 96/198/400
f 17/61/401 88/199/402 97/200/403 29/62/404
f 88/199/405 89/201/406 98/202/407 97/200/408
f 89/201/409 90/203/410 99/204/411 98/202/412
f 90/203/413 91/205/414 100/206/415 99/204/416
f 91/205/417 92/207/418 101/208/419 100/206/420
f 92/207/421 84/191/422 93/194/423 101/208/424
f 93/209/425 94/210/426 103/211/427 102/212/428
f 94/210/429 95/213/430 104/214/431 103/211/432
f 95/215/433 96/216/434 105/217/435 104/218/436
f 96/216/437 28/84/438 40/83/439 105/217/440
f 29/85/441 97/219/442 106/220/443 41/86/444
f 97/219/445 98/221/446 107/222/447 106/220/448
f 98/223/449 99/224/450 108/225/451 107/226/452
f 99/224/453 100/227/454 109/228/455 108/225/456
f 100/227/457 101/229/458 110/230/459 109/228/460
f 101/229/461 93/209/462 102/212/463 110/230/464
f 130/231/465 129/232/466 131/233/467 132/234/468
f 133/235/469 130/231/470 132/234/471 134/236/472
f 114/167/473 113/170/474 122/237/475 123/238/476
f 115/168/477 114/167/478 123/238/479 124/239/480
f 116/162/481 115/164/482 124/240/483 125/241/484
f 53/14/485 116/162/486 125/241/487 64/110/488
f 117/159/489 54/11/490 65/112/491 126/242/492
f 118/160/493 117/159/494 126/242/495 127/243/496
f 119/153/497 118/156/498 127/244/499 128/245/500
f 111/154/501 119/153/502 128/245/503 120/246/504
f 121/247/505 120/246/506 84/248/507 92/249/508
f 122/237/509 121/247/510 92/249/511 91/250/512
f 123/238/513 122/237/514 91/250/515 90/251/516
f 124/239/517 123/238/518 90/251/519 89/252/520
f 125/241/521 124/240/522 89/253/523 88/254/524
f 64/110/525 125/241/526 88/254/527 17/125/528
f 126/242/529 65/112/530 16/127/531 87/255/532
f 127/243/533 126/242/534 87/255/535 86/256/536
f 128/245/537 127/244/538 86/257/539 85/258/540
f 120/246/541 128/245/542 85/258/543 84/248/544
f 112/259/545 111/260/546 129/261/547 130/262/548
f 111/263/549 120/264/550 131/265/551 129/266/552
f 120/267/553 121/268/554 132/269/555 131/270/556
f 113/271/557 112/259/558 130/262/559 133/272/560
f 121/268/561 122/273/562 134/274/563 132/269/564
f 122/275/565 113/276/566 133/277/567 134/278/568
