# Blender 4.4.1
# www.blender.org
mtllib Sword.mtl
o Sword
v 0.076727 -0.039470 0.246980
v 0.076727 -0.039470 0.082325
v 0.076727 -0.039470 -0.082329
v 0.076727 -0.039470 -0.246984
v 0.076727 0.066897 0.246980
v 0.076727 0.066897 0.082325
v 0.076727 0.066897 -0.082329
v 0.076727 0.066897 -0.246984
v -0.076727 0.066897 0.246980
v -0.076727 0.066897 0.082325
v -0.076727 0.066897 -0.082329
v -0.076727 0.066897 -0.246984
v -0.076727 -0.039470 0.246980
v -0.076727 -0.039470 0.082325
v -0.076727 -0.039470 -0.082329
v -0.076727 -0.039470 -0.246984
v 0.016680 0.066897 0.133596
v 0.016680 0.066897 0.044531
v -0.016680 0.066897 0.044531
v -0.016680 0.066897 0.133596
v 0.016680 0.066897 -0.044535
v -0.016680 0.066897 -0.044535
v 0.016680 0.066897 -0.133601
v -0.016680 0.066897 -0.133601
v 0.016680 1.132264 0.133596
v 0.016680 1.335171 0.044531
v -0.016680 1.335171 0.044531
v -0.016680 1.132264 0.133596
v 0.016680 1.335171 -0.044535
v -0.016680 1.335171 -0.044535
v 0.016680 1.132264 -0.133601
v -0.016680 1.132264 -0.133601
v 0.076727 -0.039470 -0.000002
v 0.076727 0.066897 -0.000002
v 0.016680 0.066897 -0.000002
v 0.016680 1.434117 -0.000002
v -0.016680 1.434117 -0.000002
v -0.016680 0.066897 -0.000002
v -0.076727 0.066897 -0.000002
v -0.076727 -0.039470 -0.000002
v -0.031894 -0.632662 0.044326
v -0.031894 -0.632661 -0.000002
v 0.031894 -0.632661 -0.000002
v 0.031894 -0.632662 0.044326
v -0.037592 -0.039470 0.052246
v -0.037592 -0.039470 -0.000002
v -0.037592 -0.490181 -0.000002
v -0.037592 -0.490181 0.052246
v -0.037592 -0.039470 -0.052250
v 0.037592 -0.039470 -0.052250
v 0.037592 -0.490181 -0.052250
v -0.037592 -0.490181 -0.052250
v 0.037592 -0.490181 -0.000002
v 0.037592 -0.039470 -0.000002
v 0.037592 -0.039470 0.052246
v 0.037592 -0.490181 0.052246
v -0.051730 -0.531833 -0.000002
v -0.051730 -0.531833 0.071896
v 0.051730 -0.531833 -0.071899
v -0.051730 -0.531833 -0.071899
v 0.051730 -0.531833 -0.000002
v 0.051730 -0.531833 0.071896
v -0.051730 -0.586059 -0.000002
v -0.051730 -0.586060 0.071896
v 0.051730 -0.586060 -0.071899
v -0.051730 -0.586060 -0.071899
v 0.051730 -0.586059 -0.000002
v 0.051730 -0.586060 0.071896
v 0.031894 -0.632662 -0.044329
v -0.031894 -0.632662 -0.044329
vn 1.0000 -0.0000 -0.0000
vn -0.0000 0.4019 0.9157
vn -0.0000 0.4047 0.9144
vn -0.0000 1.0000 -0.0000
vn -0.0000 0.4047 -0.9145
vn -0.0000 0.4019 -0.9157
vn -1.0000 -0.0000 -0.0000
vn -0.0000 -1.0000 -0.0000
vn -0.0000 -0.0000 -1.0000
vn -0.0000 -0.0000 1.0000
vn -0.9994 0.0336 -0.0000
vn -0.9994 0.0355 -0.0001
vn -0.0000 0.0527 -0.9986
vn 0.0001 0.0527 -0.9986
vn 0.9994 0.0336 -0.0000
vn 0.9994 0.0355 -0.0000
vn -0.0000 0.0527 0.9986
vn -0.9910 0.1341 -0.0000
vn -0.9916 0.1290 -0.0000
vn -0.0000 0.1681 -0.9858
vn 0.9910 0.1341 -0.0000
vn 0.9916 0.1290 -0.0000
vn -0.0000 0.1681 0.9858
vn -0.9851 -0.1719 -0.0000
vn -0.9865 -0.1640 -0.0000
vn -0.0000 -0.2097 -0.9778
vn 0.9851 -0.1719 -0.0000
vn 0.9865 -0.1640 -0.0000
vn -0.0000 -0.2097 0.9778
vn -0.9201 -0.3916 -0.0000
vn -0.0000 -0.5092 -0.8607
vn 0.9201 -0.3916 -0.0000
vn -0.0000 -0.5092 0.8607
vn -0.9994 0.0355 -0.0000
vt 0.635240 0.012000
vt 0.732760 0.012000
vt 0.732760 0.074997
vt 0.635240 0.074997
vt 0.781519 0.012000
vt 0.781519 0.074997
vt 0.830279 0.012000
vt 0.927798 0.012000
vt 0.927798 0.074997
vt 0.830279 0.074997
vt 0.772591 0.792493
vt 0.772591 0.923736
vt 0.752833 0.923736
vt 0.752833 0.792493
vt 0.772591 0.988000
vt 0.752833 0.988000
vt 0.713635 0.923736
vt 0.713635 0.792493
vt 0.733393 0.792493
vt 0.733393 0.923736
vt 0.927798 0.149754
vt 0.830279 0.149754
vt 0.830279 0.086757
vt 0.927798 0.086757
vt 0.781519 0.149754
vt 0.781519 0.086757
vt 0.732760 0.149754
vt 0.635240 0.149754
vt 0.635240 0.086757
vt 0.732760 0.086757
vt 0.585487 0.012000
vt 0.593938 0.117220
vt 0.504406 0.126884
vt 0.490210 0.022284
vt 0.858655 0.488626
vt 0.858655 0.462372
vt 0.896434 0.462372
vt 0.896434 0.488626
vt 0.602620 0.197664
vt 0.616817 0.302263
vt 0.521539 0.312547
vt 0.513089 0.207327
vt 0.854746 0.361362
vt 0.945632 0.361362
vt 0.945632 0.424360
vt 0.854746 0.424360
vt 0.364778 0.405224
vt 0.455663 0.405224
vt 0.455663 0.468222
vt 0.364778 0.468222
vt 0.426667 0.278940
vt 0.395722 0.278940
vt 0.395722 0.012000
vt 0.426667 0.012000
vt 0.836559 0.428454
vt 0.792030 0.428454
vt 0.792030 0.161513
vt 0.836559 0.161513
vt 0.666185 0.161513
vt 0.666185 0.428454
vt 0.635240 0.428454
vt 0.635240 0.161513
vt 0.471196 0.278940
vt 0.471196 0.012000
vt 0.928273 0.249679
vt 0.897328 0.249679
vt 0.897328 0.223627
vt 0.939911 0.223627
vt 0.417680 0.571443
vt 0.373151 0.571443
vt 0.364778 0.544167
vt 0.426053 0.544167
vt 0.897329 0.323552
vt 0.897329 0.349603
vt 0.866384 0.349603
vt 0.854746 0.323552
vt 0.688143 0.517600
vt 0.643614 0.517600
vt 0.635240 0.490323
vt 0.696516 0.490323
vt 0.897328 0.191511
vt 0.939911 0.191510
vt 0.364778 0.512050
vt 0.426053 0.512050
vt 0.897329 0.291435
vt 0.854746 0.291435
vt 0.908183 0.552812
vt 0.846907 0.552812
vt 0.846907 0.520695
vt 0.908183 0.520695
vt 0.897328 0.161514
vt 0.923582 0.161513
vt 0.376526 0.479981
vt 0.414305 0.479981
vt 0.897329 0.261438
vt 0.871075 0.261438
vt 0.519494 0.378680
vt 0.422474 0.388537
vt 0.396610 0.355417
vt 0.449089 0.350086
vt 0.413287 0.298117
vt 0.510307 0.288260
vt 0.447092 0.330429
vt 0.394612 0.335761
vt 0.373964 0.393465
vt 0.370369 0.358083
vt 0.368372 0.338427
vt 0.364778 0.303045
vt 0.583798 0.480712
vt 0.486374 0.485008
vt 0.551895 0.446520
vt 0.604594 0.444197
vt 0.482370 0.394210
vt 0.551024 0.426782
vt 0.579795 0.389915
vt 0.603724 0.424458
vt 0.012000 0.012000
vt 0.064750 0.012000
vt 0.064750 0.763155
vt 0.012000 0.642980
vt 0.293890 0.012000
vt 0.346640 0.012000
vt 0.346640 0.642980
vt 0.293890 0.763155
vt 0.752833 0.161513
vt 0.772591 0.161513
vt 0.091125 0.012000
vt 0.091125 0.821757
vt 0.267515 0.821757
vt 0.267515 0.012000
vt 0.117501 0.012000
vt 0.170251 0.012000
vt 0.170251 0.642980
vt 0.117501 0.763155
vt 0.713635 0.161513
vt 0.733393 0.161513
vt 0.188389 0.012000
vt 0.241139 0.012000
vt 0.241139 0.763155
vt 0.188389 0.642980
vt 0.630944 0.443035
vt 0.632510 0.478564
vt 0.733393 0.988000
vt 0.713635 0.988000
vt 0.628507 0.387767
vt 0.630073 0.423296
vt 0.364778 0.278940
vt 0.364778 0.012000
vt 0.866384 0.249679
vt 0.854746 0.223627
vt 0.854746 0.191510
vt 0.871075 0.161513
vt 0.858655 0.436119
vt 0.896434 0.436119
vt 0.939911 0.291435
vt 0.923582 0.261438
vt 0.939911 0.323552
vt 0.928274 0.349603
vt 0.697130 0.428454
vt 0.697130 0.161513
vt 0.594456 0.157854
vt 0.567939 0.160717
vt 0.570057 0.139156
vt 0.536970 0.185392
vt 0.574609 0.181329
vt 0.512570 0.166693
vt 0.532418 0.143218
vt 0.539088 0.163831
s 1
usemtl initialShadingGroup.001
f 1/1/1 2/2/1 6/3/1 5/4/1
f 2/2/1 33/5/1 34/6/1 6/3/1
f 3/7/1 4/8/1 8/9/1 7/10/1
f 25/11/2 26/12/3 27/13/3 28/14/2
f 26/12/3 36/15/4 37/16/4 27/13/3
f 29/17/5 31/18/6 32/19/6 30/20/5
f 9/21/7 10/22/7 14/23/7 13/24/7
f 10/22/7 39/25/7 40/26/7 14/23/7
f 11/27/7 12/28/7 16/29/7 15/30/7
f 13/31/8 14/32/8 2/33/8 1/34/8
f 41/35/8 42/36/8 43/37/8 44/38/8
f 15/39/8 16/40/8 4/41/8 3/42/8
f 4/43/9 16/44/9 12/45/9 8/46/9
f 13/47/10 1/48/10 5/49/10 9/50/10
f 45/51/7 46/52/7 47/53/11 48/54/12
f 49/55/9 50/56/9 51/57/13 52/58/14
f 53/59/15 54/60/1 55/61/1 56/62/16
f 55/63/10 45/51/10 48/54/17 56/64/17
f 48/65/12 47/66/11 57/67/18 58/68/19
f 52/69/14 51/70/13 59/71/20 60/72/20
f 61/73/21 53/74/15 56/75/16 62/76/22
f 56/77/17 48/78/17 58/79/23 62/80/23
f 58/68/19 57/67/18 63/81/24 64/82/25
f 60/72/20 59/71/20 65/83/26 66/84/26
f 67/85/27 61/73/21 62/76/22 68/86/28
f 62/87/23 58/88/23 64/89/29 68/90/29
f 64/82/25 63/81/24 42/91/30 41/92/30
f 66/84/26 65/83/26 69/93/31 70/94/31
f 43/95/32 67/85/27 68/86/28 44/96/32
f 68/90/29 64/89/29 41/35/33 44/38/33
f 5/97/4 6/98/4 18/99/4 17/100/4
f 10/101/4 9/102/4 20/103/4 19/104/4
f 9/102/4 5/97/4 17/100/4 20/103/4
f 6/98/4 34/105/4 35/106/4 18/99/4
f 38/107/4 39/108/4 10/101/4 19/104/4
f 7/109/4 8/110/4 23/111/4 21/112/4
f 8/110/4 12/113/4 24/114/4 23/111/4
f 12/113/4 11/115/4 22/116/4 24/114/4
f 17/117/1 18/118/1 26/119/1 25/120/1
f 19/121/7 20/122/7 28/123/7 27/124/7
f 20/125/10 17/126/10 25/11/10 28/14/10
f 18/118/1 35/127/1 36/128/1 26/119/1
f 37/129/7 38/130/7 19/121/7 27/124/7
f 21/131/1 23/132/1 31/133/1 29/134/1
f 23/135/9 24/136/9 32/19/9 31/18/9
f 24/137/7 22/138/7 30/139/7 32/140/7
f 34/6/1 33/5/1 3/7/1 7/10/1
f 35/141/4 34/142/4 7/109/4 21/112/4
f 36/128/1 35/127/1 21/131/1 29/134/1
f 37/143/4 36/144/4 29/17/5 30/20/5
f 22/138/7 38/130/7 37/129/7 30/139/7
f 11/115/4 39/145/4 38/146/4 22/116/4
f 40/26/7 39/25/7 11/27/7 15/30/7
f 47/53/11 46/52/7 49/147/7 52/148/34
f 57/67/18 47/66/11 52/149/34 60/150/19
f 63/81/24 57/67/18 60/150/19 66/151/25
f 42/91/30 63/81/24 66/151/25 70/152/30
f 43/37/8 42/36/8 70/153/8 69/154/8
f 65/155/28 67/85/27 43/95/32 69/156/32
f 59/157/22 61/73/21 67/85/27 65/155/28
f 51/158/16 53/74/15 61/73/21 59/157/22
f 50/159/1 54/60/1 53/59/15 51/160/16
f 14/32/8 40/161/8 46/162/8 45/163/8
f 15/39/8 3/42/8 50/164/8 49/165/8
f 33/166/8 2/33/8 55/167/8 54/168/8
f 2/33/8 14/32/8 45/163/8 55/167/8
f 40/161/8 15/39/8 49/165/8 46/162/8
f 3/42/8 33/166/8 54/168/8 50/164/8
