# Blender 4.4.1
# www.blender.org
mtllib Trapped.mtl
o Trapped
v 0.018887 0.033124 -0.537908
v 0.007150 0.041652 -0.537908
v -0.007358 0.041652 -0.537908
v -0.019095 0.033124 -0.537908
v -0.023578 0.019326 -0.537908
v -0.019095 0.005528 -0.537908
v -0.007358 -0.002999 -0.537908
v 0.007150 -0.002999 -0.537908
v 0.018887 0.005529 -0.537908
v 0.023371 0.019326 -0.537908
v 0.018887 0.033125 0.522092
v 0.007150 0.041653 0.522092
v -0.007358 0.041653 0.519725
v -0.019095 0.033125 0.522092
v -0.023578 0.019327 0.522092
v -0.019095 0.005529 0.522092
v -0.007358 -0.002998 0.522092
v 0.007150 -0.002998 0.522092
v 0.018887 0.005530 0.522092
v 0.023371 0.019327 0.522092
v -0.000104 0.019326 -0.537908
v -0.000104 0.019327 0.519725
v -0.055341 0.025541 -0.518879
v -0.309855 0.275927 -0.323685
v -0.383010 0.347895 -0.007855
v -0.036044 0.070452 -0.518879
v -0.290558 0.295544 -0.323685
v -0.363712 0.367511 -0.007855
v -0.047477 0.022063 -0.465946
v -0.275628 0.246513 -0.290971
v -0.341204 0.311027 -0.007855
v -0.032308 0.062591 -0.465089
v -0.260032 0.261327 -0.290441
v -0.325486 0.325719 -0.007855
v -0.308416 0.278771 -0.149413
v -0.346432 0.311912 -0.165770
v -0.222677 0.437708 -0.165770
v -0.188300 0.399704 -0.149148
v -0.189787 0.162065 -0.378458
v -0.214096 0.181721 -0.421282
v -0.090340 0.307518 -0.421282
v -0.069894 0.283217 -0.377765
v 0.309914 0.275927 -0.323685
v 0.055399 0.025541 -0.518879
v 0.383067 0.347895 -0.007855
v 0.290616 0.295544 -0.323685
v 0.036102 0.070452 -0.518879
v 0.363770 0.367511 -0.007855
v 0.275685 0.246513 -0.290970
v 0.047534 0.022063 -0.465946
v 0.341261 0.311027 -0.007855
v 0.260090 0.261328 -0.290441
v 0.032366 0.062591 -0.465089
v 0.325543 0.325719 -0.007855
v 0.189845 0.162065 -0.378458
v 0.214154 0.181721 -0.421282
v 0.090398 0.307518 -0.421282
v 0.069951 0.283217 -0.377765
v 0.308473 0.278771 -0.149413
v 0.346490 0.311912 -0.165770
v 0.222734 0.437708 -0.165770
v 0.188358 0.399704 -0.149148
v 0.000029 -0.008538 -0.533093
v 0.000029 0.054095 -0.533207
v 0.000029 0.042432 -0.479715
v 0.000029 -0.008538 -0.476407
v 0.055399 0.025542 0.503170
v 0.309913 0.275928 0.307976
v 0.036102 0.070453 0.503170
v 0.290616 0.295544 0.307976
v 0.047534 0.022064 0.450236
v 0.275685 0.246514 0.275261
v 0.032366 0.062592 0.449379
v 0.260090 0.261327 0.274732
v 0.308473 0.278771 0.133703
v 0.346490 0.311912 0.150061
v 0.222734 0.437708 0.150061
v 0.188358 0.399704 0.133438
v 0.189844 0.162066 0.362749
v 0.214154 0.181722 0.405573
v 0.090398 0.307518 0.405573
v 0.069951 0.283218 0.362056
v -0.309856 0.275928 0.307976
v -0.055342 0.025542 0.503170
v -0.290559 0.295544 0.307976
v -0.036044 0.070453 0.503170
v -0.275628 0.246514 0.275261
v -0.047477 0.022064 0.450236
v -0.260033 0.261328 0.274731
v -0.032308 0.062592 0.449379
v -0.189787 0.162066 0.362749
v -0.214096 0.181722 0.405573
v -0.090341 0.307518 0.405573
v -0.069894 0.283218 0.362055
v -0.308416 0.278771 0.133703
v -0.346433 0.311912 0.150060
v -0.222677 0.437708 0.150060
v -0.188301 0.399704 0.133438
v 0.000029 -0.008537 0.517383
v 0.000029 0.054096 0.517498
v 0.000029 0.042433 0.464006
v 0.000029 -0.008537 0.460698
vn 0.8090 0.5878 -0.0000
vn 0.3090 0.9511 -0.0000
vn 0.3258 0.9455 -0.0000
vn -0.3090 0.9511 -0.0000
vn -0.8090 0.5878 -0.0000
vn -0.8193 0.5734 -0.0000
vn -1.0000 -0.0000 -0.0000
vn -0.8090 -0.5878 -0.0000
vn -0.3090 -0.9511 -0.0000
vn 0.3090 -0.9511 -0.0000
vn 0.8090 -0.5878 -0.0000
vn 1.0000 -0.0000 -0.0000
vn -0.0000 -0.0000 -1.0000
vn -0.0062 0.0191 0.9998
vn -0.0812 -0.0590 0.9950
vn -0.1113 -0.0689 0.9914
vn -0.0000 -0.0000 1.0000
vn 0.1306 0.0096 0.9914
vn 0.1003 -0.0000 0.9950
vn 0.0812 0.0590 0.9950
vn 0.0310 0.0954 0.9950
vn -0.0310 0.0954 0.9950
vn -0.0812 0.0590 0.9950
vn -0.1003 -0.0000 0.9950
vn -0.3257 0.2729 -0.9052
vn -0.3645 0.3299 -0.8708
vn -0.3595 0.3226 -0.8756
vn -0.5767 0.5674 -0.5878
vn -0.6780 0.6670 -0.3090
vn -0.6806 -0.7309 0.0509
vn -0.6801 -0.7314 0.0504
vn -0.6833 -0.7281 0.0537
vn -0.6613 -0.7499 0.0177
vn 0.9550 0.2537 -0.1535
vn 0.7036 0.6738 0.2257
vn 0.7468 0.6384 0.1862
vn 0.7551 0.2642 -0.6001
vn 0.8253 0.5611 0.0633
vn 0.3223 -0.2779 0.9049
vn 0.3558 -0.3285 0.8749
vn 0.3611 -0.3366 0.8697
vn 0.6707 -0.6723 0.3133
vn 0.6717 -0.6733 0.3090
vn -0.7129 0.7013 -0.0000
vn 0.4556 0.5588 0.6929
vn 0.6727 -0.6743 0.3047
vn -0.6762 -0.7353 0.0463
vn 0.1744 0.8355 0.5211
vn 0.4153 -0.4211 0.8063
vn 0.5767 0.5674 -0.5878
vn 0.3645 0.3299 -0.8708
vn 0.3596 0.3226 -0.8756
vn 0.7129 0.7013 -0.0000
vn 0.6780 0.6670 -0.3090
vn 0.6806 -0.7308 0.0509
vn 0.6801 -0.7314 0.0504
vn 0.6762 -0.7353 0.0463
vn 0.6613 -0.7499 0.0177
vn -0.1744 0.8355 0.5211
vn -0.7036 0.6738 0.2257
vn -0.7468 0.6384 0.1862
vn -0.4556 0.5588 0.6929
vn -0.8253 0.5611 0.0633
vn -0.4153 -0.4211 0.8063
vn -0.3558 -0.3285 0.8749
vn -0.3611 -0.3366 0.8697
vn -0.6727 -0.6743 0.3047
vn -0.6717 -0.6733 0.3090
vn 0.6833 -0.7281 0.0537
vn 0.3257 0.2729 -0.9052
vn -0.9550 0.2537 -0.1535
vn -0.3223 -0.2779 0.9049
vn -0.7551 0.2642 -0.6001
vn -0.6707 -0.6723 0.3133
vn -0.2734 0.0480 -0.9607
vn 0.5109 0.8487 0.1367
vn 0.3319 -0.1439 0.9323
vn 0.2847 -0.0160 0.9585
vn 0.0740 0.0191 0.9971
vn 0.2734 0.0480 -0.9607
vn -0.5109 0.8487 0.1367
vn -0.3319 -0.1439 0.9323
vn -0.5303 -0.8477 0.0111
vn 0.5303 -0.8477 0.0112
vn -0.0000 0.0648 0.9979
vn -0.2530 0.0627 0.9654
vn 0.3257 0.2729 0.9052
vn 0.3645 0.3299 0.8708
vn 0.3595 0.3226 0.8756
vn 0.5767 0.5674 0.5878
vn 0.6780 0.6670 0.3090
vn 0.6805 -0.7310 -0.0508
vn 0.6800 -0.7315 -0.0503
vn 0.6833 -0.7281 -0.0537
vn 0.6613 -0.7499 -0.0177
vn -0.9550 0.2537 0.1535
vn -0.7036 0.6738 -0.2257
vn -0.7468 0.6384 -0.1862
vn -0.7551 0.2642 0.6001
vn -0.8253 0.5611 -0.0633
vn -0.3223 -0.2779 -0.9049
vn -0.3558 -0.3285 -0.8749
vn -0.3611 -0.3366 -0.8697
vn -0.6707 -0.6723 -0.3133
vn -0.6717 -0.6733 -0.3090
vn -0.4556 0.5589 -0.6929
vn -0.6727 -0.6743 -0.3047
vn 0.6762 -0.7353 -0.0463
vn -0.1744 0.8355 -0.5211
vn -0.4153 -0.4211 -0.8063
vn -0.5767 0.5674 0.5878
vn -0.3645 0.3299 0.8708
vn -0.3595 0.3226 0.8756
vn -0.6780 0.6670 0.3090
vn -0.6805 -0.7310 -0.0508
vn -0.6801 -0.7314 -0.0504
vn -0.6762 -0.7353 -0.0463
vn -0.6613 -0.7499 -0.0177
vn 0.1744 0.8355 -0.5211
vn 0.7036 0.6738 -0.2257
vn 0.7468 0.6384 -0.1862
vn 0.4556 0.5588 -0.6929
vn 0.8253 0.5611 -0.0633
vn 0.4153 -0.4211 -0.8063
vn 0.3558 -0.3285 -0.8749
vn 0.3611 -0.3366 -0.8697
vn 0.6727 -0.6743 -0.3047
vn 0.6717 -0.6733 -0.3090
vn -0.6833 -0.7281 -0.0537
vn -0.3257 0.2729 0.9052
vn 0.9550 0.2537 0.1535
vn 0.3223 -0.2779 -0.9049
vn 0.7551 0.2642 0.6001
vn 0.6707 -0.6723 -0.3133
vn 0.2734 0.0480 0.9607
vn -0.5109 0.8487 -0.1367
vn -0.3319 -0.1439 -0.9323
vn -0.2847 -0.0160 -0.9585
vn -0.0740 0.0191 -0.9971
vn -0.2734 0.0480 0.9607
vn 0.5109 0.8487 -0.1367
vn 0.3319 -0.1440 -0.9323
vn 0.5303 -0.8477 -0.0112
vn -0.5303 -0.8477 -0.0112
vn -0.0000 0.0648 -0.9979
vn 0.2530 0.0627 -0.9654
vt 0.524806 0.980980
vt 0.012000 0.980981
vt 0.012000 0.973962
vt 0.524806 0.973962
vt 0.012000 0.966944
vt 0.523661 0.966943
vt 0.012000 0.959925
vt 0.524806 0.959924
vt 0.012000 0.952906
vt 0.524806 0.952906
vt 0.441004 0.906005
vt 0.953810 0.906005
vt 0.953810 0.913024
vt 0.441004 0.913024
vt 0.953810 0.920042
vt 0.441004 0.920042
vt 0.953810 0.927061
vt 0.441004 0.927061
vt 0.953810 0.934080
vt 0.441004 0.934080
vt 0.953810 0.941098
vt 0.441004 0.941098
vt 0.524806 0.987999
vt 0.012000 0.988000
vt 0.590541 0.974507
vt 0.584863 0.970381
vt 0.594050 0.963706
vt 0.597560 0.974507
vt 0.603238 0.970381
vt 0.605406 0.963706
vt 0.603238 0.957031
vt 0.597560 0.952906
vt 0.590541 0.952906
vt 0.584863 0.957031
vt 0.582693 0.963706
vt 0.554739 0.963759
vt 0.564006 0.970406
vt 0.558351 0.974576
vt 0.551232 0.974550
vt 0.545458 0.970386
vt 0.543335 0.963688
vt 0.545541 0.957017
vt 0.551238 0.952906
vt 0.558264 0.952913
vt 0.563952 0.957038
vt 0.566144 0.963713
vt 0.051439 0.131510
vt 0.043633 0.109187
vt 0.161262 0.109475
vt 0.161261 0.194846
vt 0.241590 0.122788
vt 0.241590 0.109476
vt 0.321917 0.109476
vt 0.321917 0.194846
vt 0.228507 0.775339
vt 0.207777 0.790446
vt 0.160367 0.682794
vt 0.186007 0.678839
vt 0.339409 0.855751
vt 0.331495 0.880150
vt 0.255087 0.855364
vt 0.270916 0.833533
vt 0.786750 0.342444
vt 0.704142 0.438612
vt 0.687741 0.418357
vt 0.763427 0.330158
vt 0.618203 0.503877
vt 0.513862 0.531408
vt 0.508000 0.506012
vt 0.606193 0.479250
vt 0.712595 0.233249
vt 0.612723 0.292688
vt 0.615903 0.210290
vt 0.721275 0.214194
vt 0.543682 0.217913
vt 0.470889 0.289041
vt 0.471948 0.206588
vt 0.543950 0.207507
vt 0.407903 0.904935
vt 0.407903 0.877969
vt 0.402245 0.109475
vt 0.402245 0.122788
vt 0.408012 0.552400
vt 0.408012 0.525000
vt 0.399947 0.216066
vt 0.399947 0.205657
vt 0.562900 0.025601
vt 0.562900 0.012288
vt 0.643228 0.012288
vt 0.643228 0.097659
vt 0.402245 0.025602
vt 0.402245 0.012290
vt 0.482573 0.012290
vt 0.482573 0.097660
vt 0.587298 0.683210
vt 0.608028 0.698317
vt 0.560718 0.763235
vt 0.544889 0.741403
vt 0.476396 0.763622
vt 0.484310 0.788020
vt 0.407902 0.812806
vt 0.407902 0.785840
vt 0.197818 0.559428
vt 0.111882 0.494160
vt 0.128283 0.473904
vt 0.209829 0.534801
vt 0.408009 0.607952
vt 0.302159 0.586959
vt 0.308021 0.561565
vt 0.408009 0.580551
vt 0.256213 0.312340
vt 0.187169 0.387113
vt 0.183992 0.304715
vt 0.255945 0.301934
vt 0.399947 0.310491
vt 0.329006 0.383467
vt 0.327946 0.301015
vt 0.399947 0.300082
vt 0.655438 0.590665
vt 0.629797 0.586709
vt 0.760857 0.012000
vt 0.753051 0.034323
vt 0.029276 0.397990
vt 0.052599 0.385704
vt 0.087299 0.327670
vt 0.078619 0.308614
vt 0.032082 0.137875
vt 0.012000 0.115185
vt 0.776374 0.315248
vt 0.800090 0.327041
vt 0.731802 0.237834
vt 0.792490 0.017998
vt 0.772408 0.040688
vt 0.015936 0.382587
vt 0.039652 0.370794
vt 0.068092 0.332254
vt 0.153689 0.651298
vt 0.181112 0.651471
vt 0.634692 0.559341
vt 0.662115 0.559168
vt 0.051358 0.314073
vt 0.051439 0.034322
vt 0.043633 0.012000
vt 0.161262 0.012288
vt 0.161261 0.097659
vt 0.241590 0.025602
vt 0.241590 0.012290
vt 0.321917 0.012290
vt 0.321917 0.097661
vt 0.228506 0.683209
vt 0.207777 0.698317
vt 0.160367 0.590665
vt 0.186007 0.586709
vt 0.339409 0.763622
vt 0.331494 0.788020
vt 0.255086 0.763234
vt 0.270915 0.741403
vt 0.786744 0.397991
vt 0.704137 0.494159
vt 0.687737 0.473904
vt 0.763421 0.385704
vt 0.618200 0.559426
vt 0.513860 0.586959
vt 0.507997 0.561564
vt 0.606189 0.534799
vt 0.712595 0.327670
vt 0.612725 0.387113
vt 0.615903 0.304715
vt 0.721275 0.308615
vt 0.543682 0.312338
vt 0.470888 0.383467
vt 0.471948 0.301014
vt 0.543949 0.301933
vt 0.562900 0.122788
vt 0.562900 0.109476
vt 0.643228 0.109475
vt 0.643229 0.194846
vt 0.482572 0.109476
vt 0.482572 0.194846
vt 0.587299 0.775339
vt 0.608028 0.790445
vt 0.560719 0.855364
vt 0.544890 0.833532
vt 0.476396 0.855751
vt 0.484311 0.880150
vt 0.197821 0.503879
vt 0.111883 0.438612
vt 0.128284 0.418356
vt 0.209831 0.479252
vt 0.302162 0.531409
vt 0.308024 0.506014
vt 0.256213 0.217915
vt 0.187171 0.292690
vt 0.183992 0.210292
vt 0.255945 0.207509
vt 0.329007 0.289042
vt 0.327946 0.206590
vt 0.655438 0.682793
vt 0.629797 0.678837
vt 0.760857 0.109187
vt 0.753051 0.131510
vt 0.029276 0.342443
vt 0.052599 0.330156
vt 0.087299 0.233249
vt 0.078619 0.214194
vt 0.032082 0.040687
vt 0.012000 0.017997
vt 0.776369 0.370795
vt 0.800085 0.382587
vt 0.731802 0.332255
vt 0.792490 0.115185
vt 0.772408 0.137875
vt 0.015936 0.327040
vt 0.039652 0.315247
vt 0.068093 0.237834
vt 0.153689 0.559168
vt 0.181112 0.559341
vt 0.634693 0.651470
vt 0.662115 0.651296
vt 0.051358 0.219653
vt 0.748536 0.219654
vt 0.748536 0.314074
s 1
usemtl initialShadingGroup.004
f 11/1/1 1/2/1 2/3/2 12/4/3
f 12/4/3 2/3/2 3/5/4 13/6/4
f 13/6/4 3/5/4 4/7/5 14/8/6
f 14/8/6 4/7/5 5/9/7 15/10/7
f 15/11/7 5/12/7 6/13/8 16/14/8
f 16/14/8 6/13/8 7/15/9 17/16/9
f 17/16/9 7/15/9 8/17/10 18/18/10
f 18/18/10 8/17/10 9/19/11 19/20/11
f 19/20/11 9/19/11 10/21/12 20/22/12
f 20/23/12 10/24/12 1/2/1 11/1/1
f 2/25/13 1/26/13 21/27/13
f 3/28/13 2/25/13 21/27/13
f 4/29/13 3/28/13 21/27/13
f 5/30/13 4/29/13 21/27/13
f 6/31/13 5/30/13 21/27/13
f 7/32/13 6/31/13 21/27/13
f 8/33/13 7/32/13 21/27/13
f 9/34/13 8/33/13 21/27/13
f 10/35/13 9/34/13 21/27/13
f 1/26/13 10/35/13 21/27/13
f 22/36/14 11/37/15 12/38/16
f 22/36/14 12/38/16 13/39/17
f 22/36/14 13/39/17 14/40/18
f 22/36/14 14/40/18 15/41/19
f 22/36/14 15/41/19 16/42/20
f 22/36/14 16/42/20 17/43/21
f 22/36/14 17/43/21 18/44/22
f 22/36/14 18/44/22 19/45/23
f 22/36/14 19/45/23 20/46/24
f 22/36/14 20/46/24 11/37/15
f 26/47/25 23/48/25 40/49/26 41/50/27
f 27/51/28 24/52/28 36/53/29 37/54/29
f 39/55/30 40/56/31 23/57/32 29/58/32
f 35/59/33 36/60/33 24/61/33 30/62/33
f 26/63/34 41/64/35 42/65/36 32/66/34
f 27/67/37 37/68/38 38/69/38 33/70/37
f 32/71/39 42/72/40 39/73/41 29/74/39
f 33/75/42 38/76/43 35/77/43 30/78/42
f 25/79/33 36/60/33 35/59/33 31/80/33
f 37/54/29 36/53/29 25/81/44 28/82/44
f 38/69/38 37/68/38 28/83/45 34/84/45
f 35/77/43 38/76/43 34/85/46 31/86/46
f 24/61/47 40/56/31 39/55/30 30/62/47
f 41/50/27 40/49/26 24/52/28 27/51/28
f 42/65/36 41/64/35 27/67/48 33/70/48
f 39/73/41 42/72/40 33/75/49 30/78/49
f 46/87/50 43/88/50 56/89/51 57/90/52
f 48/91/53 45/92/53 60/93/54 61/94/54
f 55/95/55 56/96/56 43/97/57 49/98/57
f 59/99/58 60/100/58 45/101/58 51/102/58
f 46/103/59 57/104/60 58/105/61 52/106/59
f 48/107/62 61/108/63 62/109/63 54/110/62
f 52/111/64 58/112/65 55/113/66 49/114/64
f 54/115/67 62/116/68 59/117/68 51/118/67
f 44/119/69 56/96/56 55/95/55 50/120/69
f 57/90/52 56/89/51 44/121/70 47/122/70
f 58/105/61 57/104/60 47/123/71 53/124/71
f 55/113/66 58/112/65 53/125/72 50/126/72
f 43/97/58 60/100/58 59/99/58 49/98/58
f 61/94/54 60/93/54 43/88/50 46/87/50
f 62/109/63 61/108/63 46/103/73 52/106/73
f 59/117/68 62/116/68 52/111/74 49/114/74
f 23/48/75 26/47/75 64/127/75 63/128/75
f 26/63/76 32/66/76 65/129/76 64/130/76
f 32/71/77 29/74/78 65/131/79
f 47/122/80 44/121/80 63/132/80 64/133/80
f 53/124/81 47/123/81 64/134/81 65/135/81
f 50/126/82 53/125/82 65/136/82
f 29/58/83 23/57/83 63/137/83 66/138/83
f 44/119/84 50/120/84 66/139/84 63/140/84
f 65/136/79 66/141/85 50/126/86
f 69/142/87 67/143/87 80/144/88 81/145/89
f 70/146/90 68/147/90 76/148/91 77/149/91
f 79/150/92 80/151/93 67/152/94 71/153/94
f 75/154/95 76/155/95 68/156/95 72/157/95
f 69/158/96 81/159/97 82/160/98 73/161/96
f 70/162/99 77/163/100 78/164/100 74/165/99
f 73/166/101 82/167/102 79/168/103 71/169/101
f 74/170/104 78/171/105 75/172/105 72/173/104
f 45/101/95 76/155/95 75/154/95 51/102/95
f 77/149/91 76/148/91 45/92/53 48/91/53
f 78/164/100 77/163/100 48/107/106 54/110/106
f 75/172/105 78/171/105 54/115/107 51/118/107
f 68/156/108 80/151/93 79/150/92 72/157/108
f 81/145/89 80/144/88 68/147/90 70/146/90
f 82/160/98 81/159/97 70/162/109 74/165/109
f 79/168/103 82/167/102 74/170/110 72/173/110
f 85/174/111 83/175/111 92/176/112 93/177/113
f 28/82/44 25/81/44 96/178/114 97/179/114
f 91/180/115 92/181/116 83/182/117 87/183/117
f 95/184/118 96/185/118 25/79/118 31/80/118
f 85/186/119 93/187/120 94/188/121 89/189/119
f 28/83/122 97/190/123 98/191/123 34/84/122
f 89/192/124 94/193/125 91/194/126 87/195/124
f 34/85/127 98/196/128 95/197/128 31/86/127
f 84/198/129 92/181/116 91/180/115 88/199/129
f 93/177/113 92/176/112 84/200/130 86/201/130
f 94/188/121 93/187/120 86/202/131 90/203/131
f 91/194/126 94/193/125 90/204/132 88/205/132
f 83/182/118 96/185/118 95/184/118 87/183/118
f 97/179/114 96/178/114 83/175/111 85/174/111
f 98/191/123 97/190/123 85/186/133 89/189/133
f 95/197/128 98/196/128 89/192/134 87/195/134
f 67/143/135 69/142/135 100/206/135 99/207/135
f 69/158/136 73/161/136 101/208/136 100/209/136
f 73/166/137 71/169/138 101/210/139
f 86/201/140 84/200/140 99/211/140 100/212/140
f 90/203/141 86/202/141 100/213/141 101/214/141
f 88/205/142 90/204/142 101/215/142
f 71/153/143 67/152/143 99/216/143 102/217/143
f 84/198/144 88/199/144 102/218/144 99/219/144
f 101/215/139 102/220/145 88/205/146
f 65/131/79 29/74/78 66/221/85
f 101/210/139 71/169/138 102/222/145
